<?xml version="1.0" encoding="UTF-8" standalone="no"?>
<!DOCTYPE svg PUBLIC "-//W3C//DTD SVG 1.1//EN"
 "http://www.w3.org/Graphics/SVG/1.1/DTD/svg11.dtd">
<!-- Generated by graphviz version 2.43.0 (0)
 -->
<!-- Title: HydroCouple::IWorkflowComponentInfo Pages: 1 -->
<svg width="211pt" height="838pt"
 viewBox="0.00 0.00 211.00 838.00" xmlns="http://www.w3.org/2000/svg" xmlns:xlink="http://www.w3.org/1999/xlink">
<g id="graph0" class="graph" transform="scale(1 1) rotate(0) translate(4 834)">
<title>HydroCouple::IWorkflowComponentInfo</title>
<!-- Node1 -->
<g id="Node000001" class="node">
<title>Node1</title>
<g id="a_Node000001"><a xlink:title="The IDataExchangeWorkflowComponentInfo class.">
<polygon fill="#999999" stroke="transparent" points="203,-64 0,-64 0,0 203,0 203,-64"/>
<text text-anchor="start" x="5.5" y="-52" font-family="Monaco" font-size="10.00">HydroCouple::IWorkflowComponentInfo</text>
<text text-anchor="start" x="100" y="-37" font-family="Monaco" font-size="10.00"> </text>
<text text-anchor="start" x="15" y="-22" font-family="Monaco" font-size="10.00">+</text>
<text text-anchor="start" x="38.5" y="-22" font-family="Monaco" font-size="10.00">~IWorkflowComponentInfo()</text>
<text text-anchor="start" x="15" y="-7" font-family="Monaco" font-size="10.00">+</text>
<text text-anchor="start" x="38.5" y="-7" font-family="Monaco" font-size="10.00">createComponentInstance()</text>
<polygon fill="#666666" stroke="#666666" points="0.5,-47 0.5,-47 203.5,-47 203.5,-47 0.5,-47"/>
<polygon fill="#666666" stroke="#666666" points="0.5,-32 0.5,-32 203.5,-32 203.5,-32 0.5,-32"/>
<polygon fill="none" stroke="#666666" points="0,0 0,-64 203,-64 203,0 0,0"/>
</a>
</g>
</g>
<!-- Node2 -->
<g id="Node000002" class="node">
<title>Node2</title>
<g id="a_Node000002"><a xlink:href="../../d3/dd7/class_hydro_couple_1_1_i_component_info.html" target="_top" xlink:title="IComponentInfo interface class is a factory that provides detailed metadata about a component and cre...">
<polygon fill="white" stroke="transparent" points="180.5,-344 22.5,-344 22.5,-100 180.5,-100 180.5,-344"/>
<text text-anchor="start" x="27.5" y="-332" font-family="Monaco" font-size="10.00">HydroCouple::IComponentInfo</text>
<text text-anchor="start" x="99.5" y="-317" font-family="Monaco" font-size="10.00"> </text>
<text text-anchor="start" x="37" y="-302" font-family="Monaco" font-size="10.00">+</text>
<text text-anchor="start" x="60.5" y="-302" font-family="Monaco" font-size="10.00">~IComponentInfo()</text>
<text text-anchor="start" x="37" y="-287" font-family="Monaco" font-size="10.00">+</text>
<text text-anchor="start" x="60.5" y="-287" font-family="Monaco" font-size="10.00">libraryFilePath()</text>
<text text-anchor="start" x="37" y="-272" font-family="Monaco" font-size="10.00">+</text>
<text text-anchor="start" x="60.5" y="-272" font-family="Monaco" font-size="10.00">setLibraryFilePath()</text>
<text text-anchor="start" x="37" y="-257" font-family="Monaco" font-size="10.00">+</text>
<text text-anchor="start" x="60.5" y="-257" font-family="Monaco" font-size="10.00">iconFilePath()</text>
<text text-anchor="start" x="37" y="-242" font-family="Monaco" font-size="10.00">+</text>
<text text-anchor="start" x="60.5" y="-242" font-family="Monaco" font-size="10.00">developer()</text>
<text text-anchor="start" x="37" y="-227" font-family="Monaco" font-size="10.00">+</text>
<text text-anchor="start" x="60.5" y="-227" font-family="Monaco" font-size="10.00">documentation()</text>
<text text-anchor="start" x="37" y="-212" font-family="Monaco" font-size="10.00">+</text>
<text text-anchor="start" x="60.5" y="-212" font-family="Monaco" font-size="10.00">license()</text>
<text text-anchor="start" x="37" y="-197" font-family="Monaco" font-size="10.00">+</text>
<text text-anchor="start" x="60.5" y="-197" font-family="Monaco" font-size="10.00">copyright()</text>
<text text-anchor="start" x="37" y="-182" font-family="Monaco" font-size="10.00">+</text>
<text text-anchor="start" x="60.5" y="-182" font-family="Monaco" font-size="10.00">url()</text>
<text text-anchor="start" x="37" y="-167" font-family="Monaco" font-size="10.00">+</text>
<text text-anchor="start" x="60.5" y="-167" font-family="Monaco" font-size="10.00">email()</text>
<text text-anchor="start" x="37" y="-152" font-family="Monaco" font-size="10.00">+</text>
<text text-anchor="start" x="60.5" y="-152" font-family="Monaco" font-size="10.00">version()</text>
<text text-anchor="start" x="37" y="-137" font-family="Monaco" font-size="10.00">+</text>
<text text-anchor="start" x="60.5" y="-137" font-family="Monaco" font-size="10.00">tags()</text>
<text text-anchor="start" x="37" y="-122" font-family="Monaco" font-size="10.00">+</text>
<text text-anchor="start" x="60.5" y="-122" font-family="Monaco" font-size="10.00">validateLicense()</text>
<text text-anchor="start" x="37" y="-107" font-family="Monaco" font-size="10.00">+</text>
<text text-anchor="start" x="60.5" y="-107" font-family="Monaco" font-size="10.00">validateLicense()</text>
<polygon fill="#666666" stroke="#666666" points="22.5,-327 22.5,-327 180.5,-327 180.5,-327 22.5,-327"/>
<polygon fill="#666666" stroke="#666666" points="22.5,-312 22.5,-312 180.5,-312 180.5,-312 22.5,-312"/>
<polygon fill="none" stroke="#666666" points="22.5,-100 22.5,-344 180.5,-344 180.5,-100 22.5,-100"/>
</a>
</g>
</g>
<!-- Node2&#45;&gt;Node1 -->
<g id="edge1_Node000001_Node000002" class="edge">
<title>Node2&#45;&gt;Node1</title>
<g id="a_edge1_Node000001_Node000002"><a xlink:title=" ">
<path fill="none" stroke="#63b8ff" d="M101.5,-89.58C101.5,-80.33 101.5,-71.67 101.5,-64.03"/>
<polygon fill="none" stroke="#63b8ff" points="98,-89.81 101.5,-99.81 105,-89.81 98,-89.81"/>
</a>
</g>
</g>
<!-- Node3 -->
<g id="Node000003" class="node">
<title>Node3</title>
<g id="a_Node000003"><a xlink:href="../../d2/d2a/class_hydro_couple_1_1_i_identity.html" target="_top" xlink:title="IIdentity interface class defines a method to get the Id of an HydroCouple entity.">
<polygon fill="white" stroke="transparent" points="161.5,-444 41.5,-444 41.5,-380 161.5,-380 161.5,-444"/>
<text text-anchor="start" x="46.5" y="-432" font-family="Monaco" font-size="10.00">HydroCouple::IIdentity</text>
<text text-anchor="start" x="99.5" y="-417" font-family="Monaco" font-size="10.00"> </text>
<text text-anchor="start" x="56" y="-402" font-family="Monaco" font-size="10.00">+</text>
<text text-anchor="start" x="79.5" y="-402" font-family="Monaco" font-size="10.00">~IIdentity()</text>
<text text-anchor="start" x="56" y="-387" font-family="Monaco" font-size="10.00">+</text>
<text text-anchor="start" x="79.5" y="-387" font-family="Monaco" font-size="10.00">id()</text>
<polygon fill="#666666" stroke="#666666" points="41.5,-427 41.5,-427 161.5,-427 161.5,-427 41.5,-427"/>
<polygon fill="#666666" stroke="#666666" points="41.5,-412 41.5,-412 161.5,-412 161.5,-412 41.5,-412"/>
<polygon fill="none" stroke="#666666" points="41.5,-380 41.5,-444 161.5,-444 161.5,-380 41.5,-380"/>
</a>
</g>
</g>
<!-- Node3&#45;&gt;Node2 -->
<g id="edge2_Node000002_Node000003" class="edge">
<title>Node3&#45;&gt;Node2</title>
<g id="a_edge2_Node000002_Node000003"><a xlink:title=" ">
<path fill="none" stroke="#63b8ff" d="M101.5,-369.92C101.5,-361.93 101.5,-353.19 101.5,-344.07"/>
<polygon fill="none" stroke="#63b8ff" points="98,-369.96 101.5,-379.96 105,-369.96 98,-369.96"/>
</a>
</g>
</g>
<!-- Node4 -->
<g id="Node000004" class="node">
<title>Node4</title>
<g id="a_Node000004"><a xlink:href="../../db/d64/class_hydro_couple_1_1_i_description.html" target="_top" xlink:title="IDescription interface class provides descriptive information on a HydroCouple object.">
<polygon fill="white" stroke="transparent" points="170.5,-589 32.5,-589 32.5,-480 170.5,-480 170.5,-589"/>
<text text-anchor="start" x="37.5" y="-576.5" font-family="Monaco" font-size="10.00">HydroCouple::IDescription</text>
<text text-anchor="start" x="99.5" y="-561.5" font-family="Monaco" font-size="10.00"> </text>
<text text-anchor="start" x="46" y="-546.5" font-family="Monaco" font-size="10.00">+</text>
<text text-anchor="start" x="68.5" y="-546.5" font-family="Monaco" font-size="10.00">~IDescription()</text>
<text text-anchor="start" x="46" y="-531.5" font-family="Monaco" font-size="10.00">+</text>
<text text-anchor="start" x="68.5" y="-531.5" font-family="Monaco" font-size="10.00">caption()</text>
<text text-anchor="start" x="46" y="-516.5" font-family="Monaco" font-size="10.00">+</text>
<text text-anchor="start" x="68.5" y="-516.5" font-family="Monaco" font-size="10.00">setCaption()</text>
<text text-anchor="start" x="46" y="-501.5" font-family="Monaco" font-size="10.00">+</text>
<text text-anchor="start" x="68.5" y="-501.5" font-family="Monaco" font-size="10.00">description()</text>
<text text-anchor="start" x="46" y="-486.5" font-family="Monaco" font-size="10.00">+</text>
<text text-anchor="start" x="68.5" y="-486.5" font-family="Monaco" font-size="10.00">setDescription()</text>
<polygon fill="#666666" stroke="#666666" points="32.5,-571.5 32.5,-571.5 170.5,-571.5 170.5,-571.5 32.5,-571.5"/>
<polygon fill="#666666" stroke="#666666" points="32.5,-556.5 32.5,-556.5 170.5,-556.5 170.5,-556.5 32.5,-556.5"/>
<polygon fill="none" stroke="#666666" points="32.5,-480 32.5,-589 170.5,-589 170.5,-480 32.5,-480"/>
</a>
</g>
</g>
<!-- Node4&#45;&gt;Node3 -->
<g id="edge3_Node000003_Node000004" class="edge">
<title>Node4&#45;&gt;Node3</title>
<g id="a_edge3_Node000003_Node000004"><a xlink:title=" ">
<path fill="none" stroke="#63b8ff" d="M101.5,-469.9C101.5,-461 101.5,-452.2 101.5,-444.28"/>
<polygon fill="none" stroke="#63b8ff" points="98,-469.95 101.5,-479.95 105,-469.95 98,-469.95"/>
</a>
</g>
</g>
<!-- Node5 -->
<g id="Node000005" class="node">
<title>Node5</title>
<g id="a_Node000005"><a xlink:href="../../dd/dbf/class_hydro_couple_1_1_i_property_changed.html" target="_top" xlink:title="IPropertyChanged interface is used to emit signal/event when a property of an object changes.">
<polygon fill="white" stroke="transparent" points="185,-674 18,-674 18,-625 185,-625 185,-674"/>
<text text-anchor="start" x="23.5" y="-661.5" font-family="Monaco" font-size="10.00">HydroCouple::IPropertyChanged</text>
<text text-anchor="start" x="100" y="-646.5" font-family="Monaco" font-size="10.00"> </text>
<text text-anchor="start" x="33" y="-631.5" font-family="Monaco" font-size="10.00">+</text>
<text text-anchor="start" x="56.5" y="-631.5" font-family="Monaco" font-size="10.00">~IPropertyChanged()</text>
<polygon fill="#666666" stroke="#666666" points="18.5,-656.5 18.5,-656.5 185.5,-656.5 185.5,-656.5 18.5,-656.5"/>
<polygon fill="#666666" stroke="#666666" points="18.5,-641.5 18.5,-641.5 185.5,-641.5 185.5,-641.5 18.5,-641.5"/>
<polygon fill="none" stroke="#666666" points="18,-625 18,-674 185,-674 185,-625 18,-625"/>
</a>
</g>
</g>
<!-- Node5&#45;&gt;Node4 -->
<g id="edge4_Node000004_Node000005" class="edge">
<title>Node5&#45;&gt;Node4</title>
<g id="a_edge4_Node000004_Node000005"><a xlink:title=" ">
<path fill="none" stroke="#63b8ff" d="M101.5,-614.79C101.5,-606.79 101.5,-598.06 101.5,-589.41"/>
<polygon fill="none" stroke="#63b8ff" points="98,-614.81 101.5,-624.81 105,-614.81 98,-614.81"/>
</a>
</g>
</g>
<!-- Node6 -->
<g id="Node000006" class="node">
<title>Node6</title>
<g id="a_Node000006"><a xlink:href="../../d5/d8b/class_hydro_couple_1_1_i_signal.html" target="_top" xlink:title=" ">
<polygon fill="white" stroke="transparent" points="158,-830 45,-830 45,-710 158,-710 158,-830"/>
<text text-anchor="start" x="50.5" y="-818" font-family="Monaco" font-size="10.00">HydroCouple::ISignal</text>
<text text-anchor="start" x="76.5" y="-807" font-family="Monaco" font-size="10.00">&lt; string &gt;</text>
<text text-anchor="start" x="100" y="-792" font-family="Monaco" font-size="10.00"> </text>
<text text-anchor="start" x="55" y="-777" font-family="Monaco" font-size="10.00">+</text>
<text text-anchor="start" x="73.5" y="-777" font-family="Monaco" font-size="10.00">~ISignal()</text>
<text text-anchor="start" x="55" y="-762" font-family="Monaco" font-size="10.00">+</text>
<text text-anchor="start" x="73.5" y="-762" font-family="Monaco" font-size="10.00">connect()</text>
<text text-anchor="start" x="55" y="-747" font-family="Monaco" font-size="10.00">+</text>
<text text-anchor="start" x="73.5" y="-747" font-family="Monaco" font-size="10.00">disconnect()</text>
<text text-anchor="start" x="55" y="-732" font-family="Monaco" font-size="10.00">+</text>
<text text-anchor="start" x="73.5" y="-732" font-family="Monaco" font-size="10.00">blockSignals()</text>
<text text-anchor="start" x="55" y="-717" font-family="Monaco" font-size="10.00">#</text>
<text text-anchor="start" x="73.5" y="-717" font-family="Monaco" font-size="10.00">emit()</text>
<polygon fill="#666666" stroke="#666666" points="45.5,-802 45.5,-802 158.5,-802 158.5,-802 45.5,-802"/>
<polygon fill="#666666" stroke="#666666" points="45.5,-787 45.5,-787 158.5,-787 158.5,-787 45.5,-787"/>
<polygon fill="none" stroke="#666666" points="45,-710 45,-830 158,-830 158,-710 45,-710"/>
</a>
</g>
</g>
<!-- Node6&#45;&gt;Node5 -->
<g id="edge5_Node000005_Node000006" class="edge">
<title>Node6&#45;&gt;Node5</title>
<g id="a_edge5_Node000005_Node000006"><a xlink:title=" ">
<path fill="none" stroke="#63b8ff" d="M101.5,-699.74C101.5,-690.6 101.5,-681.78 101.5,-674.2"/>
<polygon fill="none" stroke="#63b8ff" points="98,-699.75 101.5,-709.75 105,-699.75 98,-699.75"/>
</a>
</g>
</g>
</g>
</svg>
