<?xml version="1.0" encoding="UTF-8" standalone="no"?>
<!DOCTYPE svg PUBLIC "-//W3C//DTD SVG 1.1//EN"
 "http://www.w3.org/Graphics/SVG/1.1/DTD/svg11.dtd">
<!-- Generated by graphviz version 2.43.0 (0)
 -->
<!-- Title: HydroCouple::IWorkflowComponentInfo Pages: 1 -->
<svg width="217pt" height="684pt"
 viewBox="0.00 0.00 217.00 684.00" xmlns="http://www.w3.org/2000/svg" xmlns:xlink="http://www.w3.org/1999/xlink">
<g id="graph0" class="graph" transform="scale(1 1) rotate(0) translate(4 680)">
<title>HydroCouple::IWorkflowComponentInfo</title>
<!-- Node1 -->
<g id="node1" class="node">
<title>Node1</title>
<g id="a_node1"><a xlink:title="The IDataExchangeWorkflowComponentInfo class.">
<polygon fill="#bfbfbf" stroke="black" points="0,-0.5 0,-68.5 209,-68.5 209,-0.5 0,-0.5"/>
<text text-anchor="middle" x="104.5" y="-56.5" font-family="Monaco" font-size="10.00">HydroCouple::IWorkflowComponentInfo</text>
<polyline fill="none" stroke="black" points="0,-49.5 209,-49.5 "/>
<text text-anchor="middle" x="104.5" y="-37.5" font-family="Monaco" font-size="10.00"> </text>
<polyline fill="none" stroke="black" points="0,-30.5 209,-30.5 "/>
<text text-anchor="start" x="8" y="-18.5" font-family="Monaco" font-size="10.00">+ ~IWorkflowComponentInfo()</text>
<text text-anchor="start" x="8" y="-7.5" font-family="Monaco" font-size="10.00">+ createComponentInstance()</text>
</a>
</g>
</g>
<!-- Node2 -->
<g id="node2" class="node">
<title>Node2</title>
<g id="a_node2"><a xlink:href="../../d3/dd7/class_hydro_couple_1_1_i_component_info.html" target="_top" xlink:title="IComponentInfo interface class is a factory that provides detailed metadata about a component and cre...">
<polygon fill="none" stroke="black" points="22.5,-105.5 22.5,-305.5 186.5,-305.5 186.5,-105.5 22.5,-105.5"/>
<text text-anchor="middle" x="104.5" y="-293.5" font-family="Monaco" font-size="10.00">HydroCouple::IComponentInfo</text>
<polyline fill="none" stroke="black" points="22.5,-286.5 186.5,-286.5 "/>
<text text-anchor="middle" x="104.5" y="-274.5" font-family="Monaco" font-size="10.00"> </text>
<polyline fill="none" stroke="black" points="22.5,-267.5 186.5,-267.5 "/>
<text text-anchor="start" x="30.5" y="-255.5" font-family="Monaco" font-size="10.00">+ ~IComponentInfo()</text>
<text text-anchor="start" x="30.5" y="-244.5" font-family="Monaco" font-size="10.00">+ libraryFilePath()</text>
<text text-anchor="start" x="30.5" y="-233.5" font-family="Monaco" font-size="10.00">+ setLibraryFilePath()</text>
<text text-anchor="start" x="30.5" y="-222.5" font-family="Monaco" font-size="10.00">+ iconFilePath()</text>
<text text-anchor="start" x="30.5" y="-211.5" font-family="Monaco" font-size="10.00">+ vendor()</text>
<text text-anchor="start" x="30.5" y="-200.5" font-family="Monaco" font-size="10.00">+ documentation()</text>
<text text-anchor="start" x="30.5" y="-189.5" font-family="Monaco" font-size="10.00">+ license()</text>
<text text-anchor="start" x="30.5" y="-178.5" font-family="Monaco" font-size="10.00">+ copyright()</text>
<text text-anchor="start" x="30.5" y="-167.5" font-family="Monaco" font-size="10.00">+ url()</text>
<text text-anchor="start" x="30.5" y="-156.5" font-family="Monaco" font-size="10.00">+ email()</text>
<text text-anchor="start" x="30.5" y="-145.5" font-family="Monaco" font-size="10.00">+ version()</text>
<text text-anchor="start" x="30.5" y="-134.5" font-family="Monaco" font-size="10.00">+ tags()</text>
<text text-anchor="start" x="30.5" y="-123.5" font-family="Monaco" font-size="10.00">+ validateLicense()</text>
<text text-anchor="start" x="30.5" y="-112.5" font-family="Monaco" font-size="10.00">+ validateLicense()</text>
</a>
</g>
</g>
<!-- Node2&#45;&gt;Node1 -->
<g id="edge1" class="edge">
<title>Node2&#45;&gt;Node1</title>
<path fill="none" stroke="midnightblue" d="M104.5,-94.92C104.5,-85.58 104.5,-76.68 104.5,-68.75"/>
<polygon fill="none" stroke="midnightblue" points="101,-95.21 104.5,-105.21 108,-95.21 101,-95.21"/>
</g>
<!-- Node3 -->
<g id="node3" class="node">
<title>Node3</title>
<g id="a_node3"><a xlink:href="../../d2/d2a/class_hydro_couple_1_1_i_identity.html" target="_top" xlink:title="IIdentity interface class defines a method to get the Id of an HydroCouple entity.">
<polygon fill="none" stroke="black" points="41.5,-342.5 41.5,-410.5 167.5,-410.5 167.5,-342.5 41.5,-342.5"/>
<text text-anchor="middle" x="104.5" y="-398.5" font-family="Monaco" font-size="10.00">HydroCouple::IIdentity</text>
<polyline fill="none" stroke="black" points="41.5,-391.5 167.5,-391.5 "/>
<text text-anchor="middle" x="104.5" y="-379.5" font-family="Monaco" font-size="10.00"> </text>
<polyline fill="none" stroke="black" points="41.5,-372.5 167.5,-372.5 "/>
<text text-anchor="start" x="49.5" y="-360.5" font-family="Monaco" font-size="10.00">+ ~IIdentity()</text>
<text text-anchor="start" x="49.5" y="-349.5" font-family="Monaco" font-size="10.00">+ id()</text>
</a>
</g>
</g>
<!-- Node3&#45;&gt;Node2 -->
<g id="edge2" class="edge">
<title>Node3&#45;&gt;Node2</title>
<path fill="none" stroke="midnightblue" d="M104.5,-332.08C104.5,-323.84 104.5,-314.92 104.5,-305.76"/>
<polygon fill="none" stroke="midnightblue" points="101,-332.11 104.5,-342.11 108,-332.11 101,-332.11"/>
</g>
<!-- Node4 -->
<g id="node4" class="node">
<title>Node4</title>
<g id="a_node4"><a xlink:href="../../db/d64/class_hydro_couple_1_1_i_description.html" target="_top" xlink:title="IDescription interface class provides descriptive information on a HydroCouple object.">
<polygon fill="none" stroke="black" points="32.5,-447.5 32.5,-548.5 176.5,-548.5 176.5,-447.5 32.5,-447.5"/>
<text text-anchor="middle" x="104.5" y="-536.5" font-family="Monaco" font-size="10.00">HydroCouple::IDescription</text>
<polyline fill="none" stroke="black" points="32.5,-529.5 176.5,-529.5 "/>
<text text-anchor="middle" x="104.5" y="-517.5" font-family="Monaco" font-size="10.00"> </text>
<polyline fill="none" stroke="black" points="32.5,-510.5 176.5,-510.5 "/>
<text text-anchor="start" x="40.5" y="-498.5" font-family="Monaco" font-size="10.00">+ ~IDescription()</text>
<text text-anchor="start" x="40.5" y="-487.5" font-family="Monaco" font-size="10.00">+ caption()</text>
<text text-anchor="start" x="40.5" y="-476.5" font-family="Monaco" font-size="10.00">+ setCaption()</text>
<text text-anchor="start" x="40.5" y="-465.5" font-family="Monaco" font-size="10.00">+ description()</text>
<text text-anchor="start" x="40.5" y="-454.5" font-family="Monaco" font-size="10.00">+ setDescription()</text>
</a>
</g>
</g>
<!-- Node4&#45;&gt;Node3 -->
<g id="edge3" class="edge">
<title>Node4&#45;&gt;Node3</title>
<path fill="none" stroke="midnightblue" d="M104.5,-437.17C104.5,-428.11 104.5,-419.05 104.5,-410.83"/>
<polygon fill="none" stroke="midnightblue" points="101,-437.36 104.5,-447.36 108,-437.36 101,-437.36"/>
</g>
<!-- Node5 -->
<g id="node5" class="node">
<title>Node5</title>
<g id="a_node5"><a xlink:href="../../dd/dbf/class_hydro_couple_1_1_i_property_changed.html" target="_top" xlink:title="IPropertyChanged interface is used to emit signal/event when a property of an object changes.">
<polygon fill="none" stroke="black" points="6.5,-585.5 6.5,-675.5 202.5,-675.5 202.5,-585.5 6.5,-585.5"/>
<text text-anchor="middle" x="104.5" y="-663.5" font-family="Monaco" font-size="10.00">HydroCouple::IPropertyChanged</text>
<polyline fill="none" stroke="black" points="6.5,-656.5 202.5,-656.5 "/>
<text text-anchor="middle" x="104.5" y="-644.5" font-family="Monaco" font-size="10.00"> </text>
<polyline fill="none" stroke="black" points="6.5,-637.5 202.5,-637.5 "/>
<text text-anchor="start" x="14.5" y="-625.5" font-family="Monaco" font-size="10.00">+ ~IPropertyChanged()</text>
<text text-anchor="start" x="14.5" y="-614.5" font-family="Monaco" font-size="10.00">+ registerPropertyChangedListener()</text>
<text text-anchor="start" x="14.5" y="-603.5" font-family="Monaco" font-size="10.00">+ deRegisterPropertyChanged</text>
<text text-anchor="start" x="14.5" y="-592.5" font-family="Monaco" font-size="10.00">Listener()</text>
</a>
</g>
</g>
<!-- Node5&#45;&gt;Node4 -->
<g id="edge4" class="edge">
<title>Node5&#45;&gt;Node4</title>
<path fill="none" stroke="midnightblue" d="M104.5,-575.13C104.5,-566.31 104.5,-557.22 104.5,-548.52"/>
<polygon fill="none" stroke="midnightblue" points="101,-575.32 104.5,-585.32 108,-575.32 101,-575.32"/>
</g>
</g>
</svg>
