<?xml version="1.0" encoding="UTF-8" standalone="no"?>
<!DOCTYPE svg PUBLIC "-//W3C//DTD SVG 1.1//EN"
 "http://www.w3.org/Graphics/SVG/1.1/DTD/svg11.dtd">
<!-- Generated by graphviz version 2.43.0 (0)
 -->
<!-- Title: HydroCouple::IAdaptedOutputFactory Pages: 1 -->
<!--zoomable 706 -->

<svg id="main" version="1.1" xmlns="http://www.w3.org/2000/svg" xmlns:xlink="http://www.w3.org/1999/xlink" xml:space="preserve" onload="init(evt)">
<style type="text/css"><![CDATA[
.node, .edge {opacity: 0.7;}
.node.selected, .edge.selected {opacity: 1;}
.edge:hover path { stroke: red; }
.edge:hover polygon { stroke: red; fill: red; }
]]></style>

<defs>
  <circle id="rim" cx="0" cy="0" r="7"/>
  <circle id="rim2" cx="0" cy="0" r="3.5"/>
  <g id="zoomPlus">
    <use xlink:href="#rim" fill="#404040"><set attributeName="fill" to="#808080" begin="zoomplus.mouseover" end="zoomplus.mouseout"/></use>
    <path d="M-4,0h8M0,-4v8" fill="none" stroke="white" stroke-width="1.5" pointer-events="none"/>
  </g>
  <g id="zoomMin">
    <use xlink:href="#rim" fill="#404040"><set attributeName="fill" to="#808080" begin="zoomminus.mouseover" end="zoomminus.mouseout"/></use>
    <path d="M-4,0h8" fill="none" stroke="white" stroke-width="1.5" pointer-events="none"/>
  </g>
  <g id="arrowUp" transform="translate(30 24)">
    <use xlink:href="#rim"/>
    <path pointer-events="none" fill="none" stroke="white" stroke-width="1.5" d="M0,-3.0v7 M-2.5,-0.5L0,-3.0L2.5,-0.5"/>
  </g>
  <g id="arrowRight" transform="rotate(90) translate(36 -43)">
    <use xlink:href="#rim"/>
    <path pointer-events="none" fill="none" stroke="white" stroke-width="1.5" d="M0,-3.0v7 M-2.5,-0.5L0,-3.0L2.5,-0.5"/>
  </g>
  <g id="arrowDown" transform="rotate(180) translate(-30 -48)">
    <use xlink:href="#rim"/>
    <path pointer-events="none" fill="none" stroke="white" stroke-width="1.5" d="M0,-3.0v7 M-2.5,-0.5L0,-3.0L2.5,-0.5"/>
  </g>
  <g id="arrowLeft" transform="rotate(270) translate(-36 17)">
    <use xlink:href="#rim"/>
    <path pointer-events="none" fill="none" stroke="white" stroke-width="1.5" d="M0,-3.0v7 M-2.5,-0.5L0,-3.0L2.5,-0.5"/>
  </g>
  <g id="resetDef">
    <use xlink:href="#rim2" fill="#404040"><set attributeName="fill" to="#808080" begin="reset.mouseover" end="reset.mouseout"/></use>
  </g>
</defs>
<script type="application/ecmascript">
var viewWidth = 213;
var viewHeight = 706;
var sectionId = 'dynsection-0';
</script>
<script type="application/ecmascript" xlink:href="../../svg.min.js"/>
<svg id="graph" class="graph">
<g id="viewport">
<title>HydroCouple::IAdaptedOutputFactory</title>
<!-- Node1 -->
<g id="Node000001" class="node">
<title>Node1</title>
<g id="a_Node000001"><a xlink:title="IAdaptedOutputFactory is used to create instances of IAdaptedProducerExchangeItems.">
<polygon fill="#999999" stroke="transparent" points="180.5,-212 24.5,-212 24.5,-111 180.5,-111 180.5,-212"/>
<text text-anchor="start" x="29.5" y="-199.5" font-family="Monaco" font-size="10.00">HydroCouple::IAdaptedOutput</text>
<text text-anchor="start" x="84.5" y="-188.5" font-family="Monaco" font-size="10.00">Factory</text>
<text text-anchor="start" x="100.5" y="-173.5" font-family="Monaco" font-size="10.00"> </text>
<text text-anchor="start" x="28.5" y="-158.5" font-family="Monaco" font-size="10.00">+</text>
<text text-anchor="start" x="41.5" y="-158.5" font-family="Monaco" font-size="10.00">~IAdaptedOutputFactory()</text>
<text text-anchor="start" x="28.5" y="-143.5" font-family="Monaco" font-size="10.00">+</text>
<text text-anchor="start" x="41.5" y="-143.5" font-family="Monaco" font-size="10.00">getAvailableAdaptedOutput</text>
<text text-anchor="start" x="41.5" y="-132.5" font-family="Monaco" font-size="10.00">Ids()</text>
<text text-anchor="start" x="28.5" y="-117.5" font-family="Monaco" font-size="10.00">+</text>
<text text-anchor="start" x="41.5" y="-117.5" font-family="Monaco" font-size="10.00">createAdaptedOutput()</text>
<polygon fill="#666666" stroke="#666666" points="24.5,-183.5 24.5,-183.5 180.5,-183.5 180.5,-183.5 24.5,-183.5"/>
<polygon fill="#666666" stroke="#666666" points="24.5,-168.5 24.5,-168.5 180.5,-168.5 180.5,-168.5 24.5,-168.5"/>
<polygon fill="none" stroke="#666666" points="24.5,-111 24.5,-212 180.5,-212 180.5,-111 24.5,-111"/>
</a>
</g>
</g>
<!-- Node6 -->
<g id="Node000006" class="node">
<title>Node6</title>
<g id="a_Node000006"><a xlink:href="../../d1/df0/class_hydro_couple_1_1_i_adapted_output_factory_component.html" target="_top" xlink:title="IAdaptedOutputFactoryComponent is an IAdaptedOutputFactory generated from an IAdaptedOutputFactoryCom...">
<polygon fill="white" stroke="transparent" points="205,-75 0,-75 0,0 205,0 205,-75"/>
<text text-anchor="start" x="30" y="-62.5" font-family="Monaco" font-size="10.00">HydroCouple::IAdaptedOutput</text>
<text text-anchor="start" x="57" y="-51.5" font-family="Monaco" font-size="10.00">FactoryComponent</text>
<text text-anchor="start" x="101" y="-36.5" font-family="Monaco" font-size="10.00"> </text>
<text text-anchor="start" x="4.5" y="-21.5" font-family="Monaco" font-size="10.00">+</text>
<text text-anchor="start" x="17.5" y="-21.5" font-family="Monaco" font-size="10.00">~IAdaptedOutputFactoryComponent()</text>
<text text-anchor="start" x="4.5" y="-6.5" font-family="Monaco" font-size="10.00">+</text>
<text text-anchor="start" x="17.5" y="-6.5" font-family="Monaco" font-size="10.00">componentInfo()</text>
<polygon fill="#666666" stroke="#666666" points="0.5,-46.5 0.5,-46.5 205.5,-46.5 205.5,-46.5 0.5,-46.5"/>
<polygon fill="#666666" stroke="#666666" points="0.5,-31.5 0.5,-31.5 205.5,-31.5 205.5,-31.5 0.5,-31.5"/>
<polygon fill="none" stroke="#666666" points="0,0 0,-75 205,-75 205,0 0,0"/>
</a>
</g>
</g>
<!-- Node1&#45;&gt;Node6 -->
<g id="edge5_Node000001_Node000006" class="edge">
<title>Node1&#45;&gt;Node6</title>
<g id="a_edge5_Node000001_Node000006"><a xlink:title=" ">
<path fill="none" stroke="#63b8ff" d="M102.5,-100.76C102.5,-92.09 102.5,-83.39 102.5,-75.35"/>
<polygon fill="none" stroke="#63b8ff" points="99,-100.88 102.5,-110.88 106,-100.88 99,-100.88"/>
</a>
</g>
</g>
<!-- Node2 -->
<g id="Node000002" class="node">
<title>Node2</title>
<g id="a_Node000002"><a xlink:href="../../d2/d2a/class_hydro_couple_1_1_i_identity.html" target="_top" xlink:title="IIdentity interface class defines a method to get the Id of an HydroCouple entity.">
<polygon fill="white" stroke="transparent" points="162.5,-312 42.5,-312 42.5,-248 162.5,-248 162.5,-312"/>
<text text-anchor="start" x="47.5" y="-300" font-family="Monaco" font-size="10.00">HydroCouple::IIdentity</text>
<text text-anchor="start" x="100.5" y="-285" font-family="Monaco" font-size="10.00"> </text>
<text text-anchor="start" x="57" y="-270" font-family="Monaco" font-size="10.00">+</text>
<text text-anchor="start" x="80.5" y="-270" font-family="Monaco" font-size="10.00">~IIdentity()</text>
<text text-anchor="start" x="57" y="-255" font-family="Monaco" font-size="10.00">+</text>
<text text-anchor="start" x="80.5" y="-255" font-family="Monaco" font-size="10.00">id()</text>
<polygon fill="#666666" stroke="#666666" points="42.5,-295 42.5,-295 162.5,-295 162.5,-295 42.5,-295"/>
<polygon fill="#666666" stroke="#666666" points="42.5,-280 42.5,-280 162.5,-280 162.5,-280 42.5,-280"/>
<polygon fill="none" stroke="#666666" points="42.5,-248 42.5,-312 162.5,-312 162.5,-248 42.5,-248"/>
</a>
</g>
</g>
<!-- Node2&#45;&gt;Node1 -->
<g id="edge1_Node000001_Node000002" class="edge">
<title>Node2&#45;&gt;Node1</title>
<g id="a_edge1_Node000001_Node000002"><a xlink:title=" ">
<path fill="none" stroke="#63b8ff" d="M102.5,-237.68C102.5,-229.46 102.5,-220.74 102.5,-212.26"/>
<polygon fill="none" stroke="#63b8ff" points="99,-237.78 102.5,-247.78 106,-237.78 99,-237.78"/>
</a>
</g>
</g>
<!-- Node3 -->
<g id="Node000003" class="node">
<title>Node3</title>
<g id="a_Node000003"><a xlink:href="../../db/d64/class_hydro_couple_1_1_i_description.html" target="_top" xlink:title="IDescription interface class provides descriptive information on a HydroCouple object.">
<polygon fill="white" stroke="transparent" points="171.5,-457 33.5,-457 33.5,-348 171.5,-348 171.5,-457"/>
<text text-anchor="start" x="38.5" y="-444.5" font-family="Monaco" font-size="10.00">HydroCouple::IDescription</text>
<text text-anchor="start" x="100.5" y="-429.5" font-family="Monaco" font-size="10.00"> </text>
<text text-anchor="start" x="47" y="-414.5" font-family="Monaco" font-size="10.00">+</text>
<text text-anchor="start" x="69.5" y="-414.5" font-family="Monaco" font-size="10.00">~IDescription()</text>
<text text-anchor="start" x="47" y="-399.5" font-family="Monaco" font-size="10.00">+</text>
<text text-anchor="start" x="69.5" y="-399.5" font-family="Monaco" font-size="10.00">caption()</text>
<text text-anchor="start" x="47" y="-384.5" font-family="Monaco" font-size="10.00">+</text>
<text text-anchor="start" x="69.5" y="-384.5" font-family="Monaco" font-size="10.00">setCaption()</text>
<text text-anchor="start" x="47" y="-369.5" font-family="Monaco" font-size="10.00">+</text>
<text text-anchor="start" x="69.5" y="-369.5" font-family="Monaco" font-size="10.00">description()</text>
<text text-anchor="start" x="47" y="-354.5" font-family="Monaco" font-size="10.00">+</text>
<text text-anchor="start" x="69.5" y="-354.5" font-family="Monaco" font-size="10.00">setDescription()</text>
<polygon fill="#666666" stroke="#666666" points="33.5,-439.5 33.5,-439.5 171.5,-439.5 171.5,-439.5 33.5,-439.5"/>
<polygon fill="#666666" stroke="#666666" points="33.5,-424.5 33.5,-424.5 171.5,-424.5 171.5,-424.5 33.5,-424.5"/>
<polygon fill="none" stroke="#666666" points="33.5,-348 33.5,-457 171.5,-457 171.5,-348 33.5,-348"/>
</a>
</g>
</g>
<!-- Node3&#45;&gt;Node2 -->
<g id="edge2_Node000002_Node000003" class="edge">
<title>Node3&#45;&gt;Node2</title>
<g id="a_edge2_Node000002_Node000003"><a xlink:title=" ">
<path fill="none" stroke="#63b8ff" d="M102.5,-337.9C102.5,-329 102.5,-320.2 102.5,-312.28"/>
<polygon fill="none" stroke="#63b8ff" points="99,-337.95 102.5,-347.95 106,-337.95 99,-337.95"/>
</a>
</g>
</g>
<!-- Node4 -->
<g id="Node000004" class="node">
<title>Node4</title>
<g id="a_Node000004"><a xlink:href="../../dd/dbf/class_hydro_couple_1_1_i_property_changed.html" target="_top" xlink:title="IPropertyChanged interface is used to emit signal/event when a property of an object changes.">
<polygon fill="white" stroke="transparent" points="186,-542 19,-542 19,-493 186,-493 186,-542"/>
<text text-anchor="start" x="24.5" y="-529.5" font-family="Monaco" font-size="10.00">HydroCouple::IPropertyChanged</text>
<text text-anchor="start" x="101" y="-514.5" font-family="Monaco" font-size="10.00"> </text>
<text text-anchor="start" x="34" y="-499.5" font-family="Monaco" font-size="10.00">+</text>
<text text-anchor="start" x="57.5" y="-499.5" font-family="Monaco" font-size="10.00">~IPropertyChanged()</text>
<polygon fill="#666666" stroke="#666666" points="19.5,-524.5 19.5,-524.5 186.5,-524.5 186.5,-524.5 19.5,-524.5"/>
<polygon fill="#666666" stroke="#666666" points="19.5,-509.5 19.5,-509.5 186.5,-509.5 186.5,-509.5 19.5,-509.5"/>
<polygon fill="none" stroke="#666666" points="19,-493 19,-542 186,-542 186,-493 19,-493"/>
</a>
</g>
</g>
<!-- Node4&#45;&gt;Node3 -->
<g id="edge3_Node000003_Node000004" class="edge">
<title>Node4&#45;&gt;Node3</title>
<g id="a_edge3_Node000003_Node000004"><a xlink:title=" ">
<path fill="none" stroke="#63b8ff" d="M102.5,-482.79C102.5,-474.79 102.5,-466.06 102.5,-457.41"/>
<polygon fill="none" stroke="#63b8ff" points="99,-482.81 102.5,-492.81 106,-482.81 99,-482.81"/>
</a>
</g>
</g>
<!-- Node5 -->
<g id="Node000005" class="node">
<title>Node5</title>
<g id="a_Node000005"><a xlink:href="../../d5/d8b/class_hydro_couple_1_1_i_signal.html" target="_top" xlink:title=" ">
<polygon fill="white" stroke="transparent" points="159,-698 46,-698 46,-578 159,-578 159,-698"/>
<text text-anchor="start" x="51.5" y="-686" font-family="Monaco" font-size="10.00">HydroCouple::ISignal</text>
<text text-anchor="start" x="77.5" y="-675" font-family="Monaco" font-size="10.00">&lt; string &gt;</text>
<text text-anchor="start" x="101" y="-660" font-family="Monaco" font-size="10.00"> </text>
<text text-anchor="start" x="56" y="-645" font-family="Monaco" font-size="10.00">+</text>
<text text-anchor="start" x="74.5" y="-645" font-family="Monaco" font-size="10.00">~ISignal()</text>
<text text-anchor="start" x="56" y="-630" font-family="Monaco" font-size="10.00">+</text>
<text text-anchor="start" x="74.5" y="-630" font-family="Monaco" font-size="10.00">connect()</text>
<text text-anchor="start" x="56" y="-615" font-family="Monaco" font-size="10.00">+</text>
<text text-anchor="start" x="74.5" y="-615" font-family="Monaco" font-size="10.00">disconnect()</text>
<text text-anchor="start" x="56" y="-600" font-family="Monaco" font-size="10.00">+</text>
<text text-anchor="start" x="74.5" y="-600" font-family="Monaco" font-size="10.00">blockSignals()</text>
<text text-anchor="start" x="56" y="-585" font-family="Monaco" font-size="10.00">#</text>
<text text-anchor="start" x="74.5" y="-585" font-family="Monaco" font-size="10.00">emit()</text>
<polygon fill="#666666" stroke="#666666" points="46.5,-670 46.5,-670 159.5,-670 159.5,-670 46.5,-670"/>
<polygon fill="#666666" stroke="#666666" points="46.5,-655 46.5,-655 159.5,-655 159.5,-655 46.5,-655"/>
<polygon fill="none" stroke="#666666" points="46,-578 46,-698 159,-698 159,-578 46,-578"/>
</a>
</g>
</g>
<!-- Node5&#45;&gt;Node4 -->
<g id="edge4_Node000004_Node000005" class="edge">
<title>Node5&#45;&gt;Node4</title>
<g id="a_edge4_Node000004_Node000005"><a xlink:title=" ">
<path fill="none" stroke="#63b8ff" d="M102.5,-567.74C102.5,-558.6 102.5,-549.78 102.5,-542.2"/>
<polygon fill="none" stroke="#63b8ff" points="99,-567.75 102.5,-577.75 106,-567.75 99,-567.75"/>
</a>
</g>
</g>
</g>
</svg>

<g id="navigator" transform="translate(0 0)" fill="#404254">
  <rect fill="#f2f5e9" fill-opacity="0.5" stroke="#606060" stroke-width=".5" x="0" y="0" width="60" height="60"/>
  <use id="zoomplus" xlink:href="#zoomPlus" x="17" y="9" onmousedown="handleZoom(evt,'in')"/>
  <use id="zoomminus" xlink:href="#zoomMin" x="42" y="9" onmousedown="handleZoom(evt,'out')"/>
  <use id="reset" xlink:href="#resetDef" x="30" y="36" onmousedown="handleReset()"/>
   <use id="arrowup" xlink:href="#arrowUp" x="0" y="0" onmousedown="handlePan(0,-1)"/>
  <use id="arrowright" xlink:href="#arrowRight" x="0" y="0" onmousedown="handlePan(1,0)"/>
  <use id="arrowdown" xlink:href="#arrowDown" x="0" y="0" onmousedown="handlePan(0,1)"/>
  <use id="arrowleft" xlink:href="#arrowLeft" x="0" y="0" onmousedown="handlePan(-1,0)"/>
</g>
<svg viewBox="0 0 15 15" width="100%" height="30px" preserveAspectRatio="xMaxYMin meet">
 <g id="arrow_out" transform="scale(0.3 0.3)">
  <a xlink:href="class_hydro_couple_1_1_i_adapted_output_factory__inherit__graph_org.svg" target="_base">
   <rect id="button" ry="5" rx="5" y="6" x="6" height="38" width="38"
        fill="#f2f5e9" fill-opacity="0.5" stroke="#606060" stroke-width="1.0"/>
   <path id="arrow"
     d="M 11.500037,31.436501 C 11.940474,20.09759 22.043105,11.32322 32.158766,21.979434 L 37.068811,17.246167 C 37.068811,17.246167 37.088388,32 37.088388,32 L 22.160133,31.978069 C 22.160133,31.978069 26.997745,27.140456 26.997745,27.140456 C 18.528582,18.264221 13.291696,25.230495 11.500037,31.436501 z"
     style="fill:#404040;"/>
  </a>
 </g>
</svg>

<style type='text/css'>
<![CDATA[
[data-mouse-over-selected='false'] { opacity: 0.7; }
[data-mouse-over-selected='true']  { opacity: 1.0; }
]]>
</style>
<script type="application/ecmascript"><![CDATA[
document.addEventListener('DOMContentLoaded', (event) => {
  highlightEdges();
  highlightAdjacentNodes();
});
]]></script>
</svg>
