<?xml version="1.0" encoding="UTF-8" standalone="no"?>
<!DOCTYPE svg PUBLIC "-//W3C//DTD SVG 1.1//EN"
 "http://www.w3.org/Graphics/SVG/1.1/DTD/svg11.dtd">
<!-- Generated by graphviz version 2.43.0 (0)
 -->
<!-- Title: HydroCouple::IAdaptedOutputFactory Pages: 1 -->
<!--zoomable 596 -->
<svg id="main" version="1.1" xmlns="http://www.w3.org/2000/svg" xmlns:xlink="http://www.w3.org/1999/xlink" xml:space="preserve" onload="init(evt)">
<style type="text/css"><![CDATA[
.edge:hover path { stroke: red; }
.edge:hover polygon { stroke: red; fill: red; }
]]></style>
<script type="text/javascript"><![CDATA[
var edges = document.getElementsByTagName('g');
if (edges && edges.length) {
  for (var i=0;i<edges.length;i++) {
    if (edges[i].id.substr(0,4)=='edge') {
      edges[i].setAttribute('class','edge');
    }
  }
}
]]></script>
        <defs>
                <circle id="rim" cx="0" cy="0" r="7"/>
                <circle id="rim2" cx="0" cy="0" r="3.5"/>
                <g id="zoomPlus">
                        <use xlink:href="#rim" fill="#404040">
                                <set attributeName="fill" to="#808080" begin="zoomplus.mouseover" end="zoomplus.mouseout"/>
                        </use>
                        <path d="M-4,0h8M0,-4v8" fill="none" stroke="white" stroke-width="1.5" pointer-events="none"/>
                </g>
                <g id="zoomMin">
                        <use xlink:href="#rim" fill="#404040">
                                <set attributeName="fill" to="#808080" begin="zoomminus.mouseover" end="zoomminus.mouseout"/>
                        </use>
                        <path d="M-4,0h8" fill="none" stroke="white" stroke-width="1.5" pointer-events="none"/>
                </g>
                <g id="dirArrow">
                        <path fill="none" stroke="white" stroke-width="1.5" d="M0,-3.0v7 M-2.5,-0.5L0,-3.0L2.5,-0.5"/>
                </g>
               <g id="resetDef">
                       <use xlink:href="#rim2" fill="#404040">
                               <set attributeName="fill" to="#808080" begin="reset.mouseover" end="reset.mouseout"/>
                       </use>
               </g>
        </defs>

<script type="text/javascript">
var viewWidth = 220;
var viewHeight = 596;
var sectionId = 'dynsection-0';
</script>
<script xlink:href="../../svgpan.js"/>
<svg id="graph" class="graph">
<g id="viewport">
<title>HydroCouple::IAdaptedOutputFactory</title>
<!-- Node1 -->
<g id="node1" class="node">
<title>Node1</title>
<g id="a_node1"><a xlink:title="IAdaptedOutputFactory is used to create instances of IAdaptedProducerExchangeItems.">
<polygon fill="#bfbfbf" stroke="black" points="25,-116.5 25,-217.5 187,-217.5 187,-116.5 25,-116.5"/>
<text text-anchor="start" x="33" y="-205.5" font-family="Monaco" font-size="10.00">HydroCouple::IAdaptedOutput</text>
<text text-anchor="middle" x="106" y="-194.5" font-family="Monaco" font-size="10.00">Factory</text>
<polyline fill="none" stroke="black" points="25,-187.5 187,-187.5 "/>
<text text-anchor="middle" x="106" y="-175.5" font-family="Monaco" font-size="10.00"> </text>
<polyline fill="none" stroke="black" points="25,-168.5 187,-168.5 "/>
<text text-anchor="start" x="33" y="-156.5" font-family="Monaco" font-size="10.00">+ ~IAdaptedOutputFactory()</text>
<text text-anchor="start" x="33" y="-145.5" font-family="Monaco" font-size="10.00">+ getAvailableAdaptedOutput</text>
<text text-anchor="start" x="33" y="-134.5" font-family="Monaco" font-size="10.00">Ids()</text>
<text text-anchor="start" x="33" y="-123.5" font-family="Monaco" font-size="10.00">+ createAdaptedOutput()</text>
</a>
</g>
</g>
<!-- Node5 -->
<g id="node5" class="node">
<title>Node5</title>
<g id="a_node5"><a xlink:href="../../d1/df0/class_hydro_couple_1_1_i_adapted_output_factory_component.html" target="_top" xlink:title="IAdaptedOutputFactoryComponent is an IAdaptedOutputFactory generated from an IAdaptedOutputFactoryCom...">
<polygon fill="none" stroke="black" points="0,-0.5 0,-79.5 212,-79.5 212,-0.5 0,-0.5"/>
<text text-anchor="start" x="8" y="-67.5" font-family="Monaco" font-size="10.00">HydroCouple::IAdaptedOutput</text>
<text text-anchor="middle" x="106" y="-56.5" font-family="Monaco" font-size="10.00">FactoryComponent</text>
<polyline fill="none" stroke="black" points="0,-49.5 212,-49.5 "/>
<text text-anchor="middle" x="106" y="-37.5" font-family="Monaco" font-size="10.00"> </text>
<polyline fill="none" stroke="black" points="0,-30.5 212,-30.5 "/>
<text text-anchor="start" x="8" y="-18.5" font-family="Monaco" font-size="10.00">+ ~IAdaptedOutputFactoryComponent()</text>
<text text-anchor="start" x="8" y="-7.5" font-family="Monaco" font-size="10.00">+ componentInfo()</text>
</a>
</g>
</g>
<!-- Node1&#45;&gt;Node5 -->
<g id="edge4" class="edge">
<title>Node1&#45;&gt;Node5</title>
<path fill="none" stroke="midnightblue" d="M106,-106.19C106,-97.22 106,-88.18 106,-79.81"/>
<polygon fill="none" stroke="midnightblue" points="102.5,-106.24 106,-116.24 109.5,-106.24 102.5,-106.24"/>
</g>
<!-- Node2 -->
<g id="node2" class="node">
<title>Node2</title>
<g id="a_node2"><a xlink:href="../../d2/d2a/class_hydro_couple_1_1_i_identity.html" target="_top" xlink:title="IIdentity interface class defines a method to get the Id of an HydroCouple entity.">
<polygon fill="none" stroke="black" points="43,-254.5 43,-322.5 169,-322.5 169,-254.5 43,-254.5"/>
<text text-anchor="middle" x="106" y="-310.5" font-family="Monaco" font-size="10.00">HydroCouple::IIdentity</text>
<polyline fill="none" stroke="black" points="43,-303.5 169,-303.5 "/>
<text text-anchor="middle" x="106" y="-291.5" font-family="Monaco" font-size="10.00"> </text>
<polyline fill="none" stroke="black" points="43,-284.5 169,-284.5 "/>
<text text-anchor="start" x="51" y="-272.5" font-family="Monaco" font-size="10.00">+ ~IIdentity()</text>
<text text-anchor="start" x="51" y="-261.5" font-family="Monaco" font-size="10.00">+ id()</text>
</a>
</g>
</g>
<!-- Node2&#45;&gt;Node1 -->
<g id="edge1" class="edge">
<title>Node2&#45;&gt;Node1</title>
<path fill="none" stroke="midnightblue" d="M106,-244.05C106,-235.47 106,-226.41 106,-217.65"/>
<polygon fill="none" stroke="midnightblue" points="102.5,-244.21 106,-254.21 109.5,-244.21 102.5,-244.21"/>
</g>
<!-- Node3 -->
<g id="node3" class="node">
<title>Node3</title>
<g id="a_node3"><a xlink:href="../../db/d64/class_hydro_couple_1_1_i_description.html" target="_top" xlink:title="IDescription interface class provides descriptive information on a HydroCouple object.">
<polygon fill="none" stroke="black" points="34,-359.5 34,-460.5 178,-460.5 178,-359.5 34,-359.5"/>
<text text-anchor="middle" x="106" y="-448.5" font-family="Monaco" font-size="10.00">HydroCouple::IDescription</text>
<polyline fill="none" stroke="black" points="34,-441.5 178,-441.5 "/>
<text text-anchor="middle" x="106" y="-429.5" font-family="Monaco" font-size="10.00"> </text>
<polyline fill="none" stroke="black" points="34,-422.5 178,-422.5 "/>
<text text-anchor="start" x="42" y="-410.5" font-family="Monaco" font-size="10.00">+ ~IDescription()</text>
<text text-anchor="start" x="42" y="-399.5" font-family="Monaco" font-size="10.00">+ caption()</text>
<text text-anchor="start" x="42" y="-388.5" font-family="Monaco" font-size="10.00">+ setCaption()</text>
<text text-anchor="start" x="42" y="-377.5" font-family="Monaco" font-size="10.00">+ description()</text>
<text text-anchor="start" x="42" y="-366.5" font-family="Monaco" font-size="10.00">+ setDescription()</text>
</a>
</g>
</g>
<!-- Node3&#45;&gt;Node2 -->
<g id="edge2" class="edge">
<title>Node3&#45;&gt;Node2</title>
<path fill="none" stroke="midnightblue" d="M106,-349.17C106,-340.11 106,-331.05 106,-322.83"/>
<polygon fill="none" stroke="midnightblue" points="102.5,-349.36 106,-359.36 109.5,-349.36 102.5,-349.36"/>
</g>
<!-- Node4 -->
<g id="node4" class="node">
<title>Node4</title>
<g id="a_node4"><a xlink:href="../../dd/dbf/class_hydro_couple_1_1_i_property_changed.html" target="_top" xlink:title="IPropertyChanged interface is used to emit signal/event when a property of an object changes.">
<polygon fill="none" stroke="black" points="8,-497.5 8,-587.5 204,-587.5 204,-497.5 8,-497.5"/>
<text text-anchor="middle" x="106" y="-575.5" font-family="Monaco" font-size="10.00">HydroCouple::IPropertyChanged</text>
<polyline fill="none" stroke="black" points="8,-568.5 204,-568.5 "/>
<text text-anchor="middle" x="106" y="-556.5" font-family="Monaco" font-size="10.00"> </text>
<polyline fill="none" stroke="black" points="8,-549.5 204,-549.5 "/>
<text text-anchor="start" x="16" y="-537.5" font-family="Monaco" font-size="10.00">+ ~IPropertyChanged()</text>
<text text-anchor="start" x="16" y="-526.5" font-family="Monaco" font-size="10.00">+ registerPropertyChangedListener()</text>
<text text-anchor="start" x="16" y="-515.5" font-family="Monaco" font-size="10.00">+ deRegisterPropertyChanged</text>
<text text-anchor="start" x="16" y="-504.5" font-family="Monaco" font-size="10.00">Listener()</text>
</a>
</g>
</g>
<!-- Node4&#45;&gt;Node3 -->
<g id="edge3" class="edge">
<title>Node4&#45;&gt;Node3</title>
<path fill="none" stroke="midnightblue" d="M106,-487.13C106,-478.31 106,-469.22 106,-460.52"/>
<polygon fill="none" stroke="midnightblue" points="102.5,-487.32 106,-497.32 109.5,-487.32 102.5,-487.32"/>
</g>
</g>
</svg>
        <g id="navigator" transform="translate(0 0)" fill="#404254">
                <rect fill="#f2f5e9" fill-opacity="0.5" stroke="#606060" stroke-width=".5" x="0" y="0" width="60" height="60"/>
                <use id="zoomplus" xlink:href="#zoomPlus" x="17" y="9" onmousedown="handleZoom(evt,'in')"/>
                <use id="zoomminus" xlink:href="#zoomMin" x="42" y="9" onmousedown="handleZoom(evt,'out')"/>
                <use id="reset" xlink:href="#resetDef" x="30" y="36" onmousedown="handleReset()"/>
                <g id="arrowUp" xlink:href="#dirArrow" transform="translate(30 24)" onmousedown="handlePan(0,-1)">
                  <use xlink:href="#rim" fill="#404040">
                        <set attributeName="fill" to="#808080" begin="arrowUp.mouseover" end="arrowUp.mouseout"/>
                  </use>
                  <path fill="none" stroke="white" stroke-width="1.5" d="M0,-3.0v7 M-2.5,-0.5L0,-3.0L2.5,-0.5"/>
                </g>
                <g id="arrowRight" xlink:href="#dirArrow" transform="rotate(90) translate(36 -43)" onmousedown="handlePan(1,0)">
                  <use xlink:href="#rim" fill="#404040">
                        <set attributeName="fill" to="#808080" begin="arrowRight.mouseover" end="arrowRight.mouseout"/>
                  </use>
                  <path fill="none" stroke="white" stroke-width="1.5" d="M0,-3.0v7 M-2.5,-0.5L0,-3.0L2.5,-0.5"/>
                </g>
                <g id="arrowDown" xlink:href="#dirArrow" transform="rotate(180) translate(-30 -48)" onmousedown="handlePan(0,1)">
                  <use xlink:href="#rim" fill="#404040">
                        <set attributeName="fill" to="#808080" begin="arrowDown.mouseover" end="arrowDown.mouseout"/>
                  </use>
                  <path fill="none" stroke="white" stroke-width="1.5" d="M0,-3.0v7 M-2.5,-0.5L0,-3.0L2.5,-0.5"/>
                </g>
                <g id="arrowLeft" xlink:href="#dirArrow" transform="rotate(270) translate(-36 17)" onmousedown="handlePan(-1,0)">
                  <use xlink:href="#rim" fill="#404040">
                        <set attributeName="fill" to="#808080" begin="arrowLeft.mouseover" end="arrowLeft.mouseout"/>
                  </use>
                  <path fill="none" stroke="white" stroke-width="1.5" d="M0,-3.0v7 M-2.5,-0.5L0,-3.0L2.5,-0.5"/>
                </g>
        </g>
        <svg viewBox="0 0 15 15" width="100%" height="30px" preserveAspectRatio="xMaxYMin meet">
         <g id="arrow_out" transform="scale(0.3 0.3)">
          <a xlink:href="class_hydro_couple_1_1_i_adapted_output_factory__inherit__graph_org.svg" target="_base">
           <rect id="button" ry="5" rx="5" y="6" x="6" height="38" width="38"
                fill="#f2f5e9" fill-opacity="0.5" stroke="#606060" stroke-width="1.0"/>
           <path id="arrow"
             d="M 11.500037,31.436501 C 11.940474,20.09759 22.043105,11.32322 32.158766,21.979434 L 37.068811,17.246167 C 37.068811,17.246167 37.088388,32 37.088388,32 L 22.160133,31.978069 C 22.160133,31.978069 26.997745,27.140456 26.997745,27.140456 C 18.528582,18.264221 13.291696,25.230495 11.500037,31.436501 z"
             style="fill:#404040;"/>
          </a>
         </g>
        </svg>
</svg>
