<?xml version="1.0" encoding="UTF-8" standalone="no"?>
<!DOCTYPE svg PUBLIC "-//W3C//DTD SVG 1.1//EN"
 "http://www.w3.org/Graphics/SVG/1.1/DTD/svg11.dtd">
<!-- Generated by graphviz version 2.43.0 (0)
 -->
<!-- Title: WKBPolyhedralSurface Pages: 1 -->
<svg width="136pt" height="436pt"
 viewBox="0.00 0.00 136.00 436.00" xmlns="http://www.w3.org/2000/svg" xmlns:xlink="http://www.w3.org/1999/xlink">
<g id="graph0" class="graph" transform="scale(1 1) rotate(0) translate(4 432)">
<title>WKBPolyhedralSurface</title>
<!-- Node1 -->
<g id="node1" class="node">
<title>Node1</title>
<g id="a_node1"><a xlink:title="The WKBPolyhedralSurface struct.">
<polygon fill="#bfbfbf" stroke="black" points="0,-0.5 0,-79.5 128,-79.5 128,-0.5 0,-0.5"/>
<text text-anchor="middle" x="64" y="-67.5" font-family="Monaco" font-size="10.00">WKBPolyhedralSurface</text>
<polyline fill="none" stroke="black" points="0,-60.5 128,-60.5 "/>
<text text-anchor="start" x="8" y="-48.5" font-family="Monaco" font-size="10.00">+ byteOrder</text>
<text text-anchor="start" x="8" y="-37.5" font-family="Monaco" font-size="10.00">+ numPolygons</text>
<text text-anchor="start" x="8" y="-26.5" font-family="Monaco" font-size="10.00">+ wkbType</text>
<polyline fill="none" stroke="black" points="0,-19.5 128,-19.5 "/>
<text text-anchor="middle" x="64" y="-7.5" font-family="Monaco" font-size="10.00"> </text>
</a>
</g>
</g>
<!-- Node2 -->
<g id="node2" class="node">
<title>Node2</title>
<g id="a_node2"><a xlink:href="../../df/df9/struct_w_k_b_polygon.html" target="_top" xlink:title="The WKBPolygon struct.">
<polygon fill="none" stroke="black" points="24.5,-127.5 24.5,-206.5 103.5,-206.5 103.5,-127.5 24.5,-127.5"/>
<text text-anchor="middle" x="64" y="-194.5" font-family="Monaco" font-size="10.00">WKBPolygon</text>
<polyline fill="none" stroke="black" points="24.5,-187.5 103.5,-187.5 "/>
<text text-anchor="start" x="32.5" y="-175.5" font-family="Monaco" font-size="10.00">+ byteOrder</text>
<text text-anchor="start" x="32.5" y="-164.5" font-family="Monaco" font-size="10.00">+ numRings</text>
<text text-anchor="start" x="32.5" y="-153.5" font-family="Monaco" font-size="10.00">+ wkbType</text>
<polyline fill="none" stroke="black" points="24.5,-146.5 103.5,-146.5 "/>
<text text-anchor="middle" x="64" y="-134.5" font-family="Monaco" font-size="10.00"> </text>
</a>
</g>
</g>
<!-- Node2&#45;&gt;Node1 -->
<g id="edge1" class="edge">
<title>Node2&#45;&gt;Node1</title>
<path fill="none" stroke="#404040" d="M64,-127.48C64,-116.19 64,-103.67 64,-91.75"/>
<polygon fill="none" stroke="#404040" points="64,-91.61 60,-85.61 64,-79.61 68,-85.61 64,-91.61"/>
<text text-anchor="middle" x="92" y="-101" font-family="Monaco" font-size="10.00"> +polygons</text>
</g>
<!-- Node3 -->
<g id="node3" class="node">
<title>Node3</title>
<g id="a_node3"><a xlink:href="../../d6/db5/struct_linear_ring.html" target="_top" xlink:title="The LinearRing struct.">
<polygon fill="none" stroke="black" points="24,-254.5 24,-311.5 104,-311.5 104,-254.5 24,-254.5"/>
<text text-anchor="middle" x="64" y="-299.5" font-family="Monaco" font-size="10.00">LinearRing</text>
<polyline fill="none" stroke="black" points="24,-292.5 104,-292.5 "/>
<text text-anchor="start" x="32" y="-280.5" font-family="Monaco" font-size="10.00">+ numPoints</text>
<polyline fill="none" stroke="black" points="24,-273.5 104,-273.5 "/>
<text text-anchor="middle" x="64" y="-261.5" font-family="Monaco" font-size="10.00"> </text>
</a>
</g>
</g>
<!-- Node3&#45;&gt;Node2 -->
<g id="edge2" class="edge">
<title>Node3&#45;&gt;Node2</title>
<path fill="none" stroke="#404040" d="M64,-254.4C64,-243.63 64,-230.93 64,-218.62"/>
<polygon fill="none" stroke="#404040" points="64,-218.54 60,-212.54 64,-206.54 68,-212.54 64,-218.54"/>
<text text-anchor="middle" x="82" y="-228" font-family="Monaco" font-size="10.00"> +rings</text>
</g>
<!-- Node4 -->
<g id="node4" class="node">
<title>Node4</title>
<g id="a_node4"><a xlink:href="../../d8/dc8/struct_point.html" target="_top" xlink:title="The Point struct.">
<polygon fill="none" stroke="black" points="43.5,-359.5 43.5,-427.5 84.5,-427.5 84.5,-359.5 43.5,-359.5"/>
<text text-anchor="middle" x="64" y="-415.5" font-family="Monaco" font-size="10.00">Point</text>
<polyline fill="none" stroke="black" points="43.5,-408.5 84.5,-408.5 "/>
<text text-anchor="start" x="51.5" y="-396.5" font-family="Monaco" font-size="10.00">+ x</text>
<text text-anchor="start" x="51.5" y="-385.5" font-family="Monaco" font-size="10.00">+ y</text>
<polyline fill="none" stroke="black" points="43.5,-378.5 84.5,-378.5 "/>
<text text-anchor="middle" x="64" y="-366.5" font-family="Monaco" font-size="10.00"> </text>
</a>
</g>
</g>
<!-- Node4&#45;&gt;Node3 -->
<g id="edge3" class="edge">
<title>Node4&#45;&gt;Node3</title>
<path fill="none" stroke="#404040" d="M64,-359.36C64,-348.19 64,-335.61 64,-323.97"/>
<polygon fill="none" stroke="#404040" points="64,-323.83 60,-317.83 64,-311.83 68,-317.83 64,-323.83"/>
<text text-anchor="middle" x="85" y="-333" font-family="Monaco" font-size="10.00"> +points</text>
</g>
</g>
</svg>
