<?xml version="1.0" encoding="UTF-8" standalone="no"?>
<!DOCTYPE svg PUBLIC "-//W3C//DTD SVG 1.1//EN"
 "http://www.w3.org/Graphics/SVG/1.1/DTD/svg11.dtd">
<!-- Generated by graphviz version 2.43.0 (0)
 -->
<!-- Title: HydroCouple::IExchangeItem Pages: 1 -->
<svg width="204pt" height="684pt"
 viewBox="0.00 0.00 204.00 684.00" xmlns="http://www.w3.org/2000/svg" xmlns:xlink="http://www.w3.org/1999/xlink">
<g id="graph0" class="graph" transform="scale(1 1) rotate(0) translate(4 680)">
<title>HydroCouple::IExchangeItem</title>
<!-- Node1 -->
<g id="node1" class="node">
<title>Node1</title>
<g id="a_node1"><a xlink:title="IExchangeItem the base data item the can be exchanged between components at runtime.">
<polygon fill="#bfbfbf" stroke="black" points="7.5,-0.5 7.5,-101.5 188.5,-101.5 188.5,-0.5 7.5,-0.5"/>
<text text-anchor="middle" x="98" y="-89.5" font-family="Monaco" font-size="10.00">HydroCouple::IExchangeItem</text>
<polyline fill="none" stroke="black" points="7.5,-82.5 188.5,-82.5 "/>
<text text-anchor="middle" x="98" y="-70.5" font-family="Monaco" font-size="10.00"> </text>
<polyline fill="none" stroke="black" points="7.5,-63.5 188.5,-63.5 "/>
<text text-anchor="start" x="15.5" y="-51.5" font-family="Monaco" font-size="10.00">+ ~IExchangeItem()</text>
<text text-anchor="start" x="15.5" y="-40.5" font-family="Monaco" font-size="10.00">+ registerExchangeItemStatus</text>
<text text-anchor="start" x="15.5" y="-29.5" font-family="Monaco" font-size="10.00">ChangedListener()</text>
<text text-anchor="start" x="15.5" y="-18.5" font-family="Monaco" font-size="10.00">+ deRegisterExchangeItemStatus</text>
<text text-anchor="start" x="15.5" y="-7.5" font-family="Monaco" font-size="10.00">ChangedListener()</text>
</a>
</g>
</g>
<!-- Node2 -->
<g id="node2" class="node">
<title>Node2</title>
<g id="a_node2"><a xlink:href="../../d8/d52/class_hydro_couple_1_1_i_component_data_item.html" target="_top" xlink:title="IComponentItem is a fundamental unit of data for a component.">
<polygon fill="none" stroke="black" points="2.5,-138.5 2.5,-305.5 193.5,-305.5 193.5,-138.5 2.5,-138.5"/>
<text text-anchor="middle" x="98" y="-293.5" font-family="Monaco" font-size="10.00">HydroCouple::IComponentDataItem</text>
<polyline fill="none" stroke="black" points="2.5,-286.5 193.5,-286.5 "/>
<text text-anchor="middle" x="98" y="-274.5" font-family="Monaco" font-size="10.00"> </text>
<polyline fill="none" stroke="black" points="2.5,-267.5 193.5,-267.5 "/>
<text text-anchor="start" x="10.5" y="-255.5" font-family="Monaco" font-size="10.00">+ ~IComponentDataItem()</text>
<text text-anchor="start" x="10.5" y="-244.5" font-family="Monaco" font-size="10.00">+ modelComponent()</text>
<text text-anchor="start" x="10.5" y="-233.5" font-family="Monaco" font-size="10.00">+ dimensions()</text>
<text text-anchor="start" x="10.5" y="-222.5" font-family="Monaco" font-size="10.00">+ dimensionLength()</text>
<text text-anchor="start" x="10.5" y="-211.5" font-family="Monaco" font-size="10.00">+ valueDefinition()</text>
<text text-anchor="start" x="10.5" y="-200.5" font-family="Monaco" font-size="10.00">+ getValue()</text>
<text text-anchor="start" x="10.5" y="-189.5" font-family="Monaco" font-size="10.00">+ setValue()</text>
<text text-anchor="start" x="10.5" y="-178.5" font-family="Monaco" font-size="10.00">+ hasEditor()</text>
<text text-anchor="start" x="10.5" y="-167.5" font-family="Monaco" font-size="10.00">+ showEditor()</text>
<text text-anchor="start" x="10.5" y="-156.5" font-family="Monaco" font-size="10.00">+ hasViewer()</text>
<text text-anchor="start" x="10.5" y="-145.5" font-family="Monaco" font-size="10.00">+ showViewer()</text>
</a>
</g>
</g>
<!-- Node2&#45;&gt;Node1 -->
<g id="edge1" class="edge">
<title>Node2&#45;&gt;Node1</title>
<path fill="none" stroke="midnightblue" d="M98,-128.47C98,-119.28 98,-110.21 98,-101.71"/>
<polygon fill="none" stroke="midnightblue" points="94.5,-128.48 98,-138.48 101.5,-128.48 94.5,-128.48"/>
</g>
<!-- Node3 -->
<g id="node3" class="node">
<title>Node3</title>
<g id="a_node3"><a xlink:href="../../d2/d2a/class_hydro_couple_1_1_i_identity.html" target="_top" xlink:title="IIdentity interface class defines a method to get the Id of an HydroCouple entity.">
<polygon fill="none" stroke="black" points="35,-342.5 35,-410.5 161,-410.5 161,-342.5 35,-342.5"/>
<text text-anchor="middle" x="98" y="-398.5" font-family="Monaco" font-size="10.00">HydroCouple::IIdentity</text>
<polyline fill="none" stroke="black" points="35,-391.5 161,-391.5 "/>
<text text-anchor="middle" x="98" y="-379.5" font-family="Monaco" font-size="10.00"> </text>
<polyline fill="none" stroke="black" points="35,-372.5 161,-372.5 "/>
<text text-anchor="start" x="43" y="-360.5" font-family="Monaco" font-size="10.00">+ ~IIdentity()</text>
<text text-anchor="start" x="43" y="-349.5" font-family="Monaco" font-size="10.00">+ id()</text>
</a>
</g>
</g>
<!-- Node3&#45;&gt;Node2 -->
<g id="edge2" class="edge">
<title>Node3&#45;&gt;Node2</title>
<path fill="none" stroke="midnightblue" d="M98,-332.23C98,-323.88 98,-314.89 98,-305.76"/>
<polygon fill="none" stroke="midnightblue" points="94.5,-332.41 98,-342.41 101.5,-332.41 94.5,-332.41"/>
</g>
<!-- Node4 -->
<g id="node4" class="node">
<title>Node4</title>
<g id="a_node4"><a xlink:href="../../db/d64/class_hydro_couple_1_1_i_description.html" target="_top" xlink:title="IDescription interface class provides descriptive information on a HydroCouple object.">
<polygon fill="none" stroke="black" points="26,-447.5 26,-548.5 170,-548.5 170,-447.5 26,-447.5"/>
<text text-anchor="middle" x="98" y="-536.5" font-family="Monaco" font-size="10.00">HydroCouple::IDescription</text>
<polyline fill="none" stroke="black" points="26,-529.5 170,-529.5 "/>
<text text-anchor="middle" x="98" y="-517.5" font-family="Monaco" font-size="10.00"> </text>
<polyline fill="none" stroke="black" points="26,-510.5 170,-510.5 "/>
<text text-anchor="start" x="34" y="-498.5" font-family="Monaco" font-size="10.00">+ ~IDescription()</text>
<text text-anchor="start" x="34" y="-487.5" font-family="Monaco" font-size="10.00">+ caption()</text>
<text text-anchor="start" x="34" y="-476.5" font-family="Monaco" font-size="10.00">+ setCaption()</text>
<text text-anchor="start" x="34" y="-465.5" font-family="Monaco" font-size="10.00">+ description()</text>
<text text-anchor="start" x="34" y="-454.5" font-family="Monaco" font-size="10.00">+ setDescription()</text>
</a>
</g>
</g>
<!-- Node4&#45;&gt;Node3 -->
<g id="edge3" class="edge">
<title>Node4&#45;&gt;Node3</title>
<path fill="none" stroke="midnightblue" d="M98,-437.17C98,-428.11 98,-419.05 98,-410.83"/>
<polygon fill="none" stroke="midnightblue" points="94.5,-437.36 98,-447.36 101.5,-437.36 94.5,-437.36"/>
</g>
<!-- Node5 -->
<g id="node5" class="node">
<title>Node5</title>
<g id="a_node5"><a xlink:href="../../dd/dbf/class_hydro_couple_1_1_i_property_changed.html" target="_top" xlink:title="IPropertyChanged interface is used to emit signal/event when a property of an object changes.">
<polygon fill="none" stroke="black" points="0,-585.5 0,-675.5 196,-675.5 196,-585.5 0,-585.5"/>
<text text-anchor="middle" x="98" y="-663.5" font-family="Monaco" font-size="10.00">HydroCouple::IPropertyChanged</text>
<polyline fill="none" stroke="black" points="0,-656.5 196,-656.5 "/>
<text text-anchor="middle" x="98" y="-644.5" font-family="Monaco" font-size="10.00"> </text>
<polyline fill="none" stroke="black" points="0,-637.5 196,-637.5 "/>
<text text-anchor="start" x="8" y="-625.5" font-family="Monaco" font-size="10.00">+ ~IPropertyChanged()</text>
<text text-anchor="start" x="8" y="-614.5" font-family="Monaco" font-size="10.00">+ registerPropertyChangedListener()</text>
<text text-anchor="start" x="8" y="-603.5" font-family="Monaco" font-size="10.00">+ deRegisterPropertyChanged</text>
<text text-anchor="start" x="8" y="-592.5" font-family="Monaco" font-size="10.00">Listener()</text>
</a>
</g>
</g>
<!-- Node5&#45;&gt;Node4 -->
<g id="edge4" class="edge">
<title>Node5&#45;&gt;Node4</title>
<path fill="none" stroke="midnightblue" d="M98,-575.13C98,-566.31 98,-557.22 98,-548.52"/>
<polygon fill="none" stroke="midnightblue" points="94.5,-575.32 98,-585.32 101.5,-575.32 94.5,-575.32"/>
</g>
</g>
</svg>
