<?xml version="1.0" encoding="UTF-8" standalone="no"?>
<!DOCTYPE svg PUBLIC "-//W3C//DTD SVG 1.1//EN"
 "http://www.w3.org/Graphics/SVG/1.1/DTD/svg11.dtd">
<!-- Generated by graphviz version 2.43.0 (0)
 -->
<!-- Title: HydroCouple::IExchangeItem Pages: 1 -->
<!--zoomable 875 -->

<svg id="main" version="1.1" xmlns="http://www.w3.org/2000/svg" xmlns:xlink="http://www.w3.org/1999/xlink" xml:space="preserve" onload="init(evt)">
<style type="text/css"><![CDATA[
.node, .edge {opacity: 0.7;}
.node.selected, .edge.selected {opacity: 1;}
.edge:hover path { stroke: red; }
.edge:hover polygon { stroke: red; fill: red; }
]]></style>

<defs>
  <circle id="rim" cx="0" cy="0" r="7"/>
  <circle id="rim2" cx="0" cy="0" r="3.5"/>
  <g id="zoomPlus">
    <use xlink:href="#rim" fill="#404040"><set attributeName="fill" to="#808080" begin="zoomplus.mouseover" end="zoomplus.mouseout"/></use>
    <path d="M-4,0h8M0,-4v8" fill="none" stroke="white" stroke-width="1.5" pointer-events="none"/>
  </g>
  <g id="zoomMin">
    <use xlink:href="#rim" fill="#404040"><set attributeName="fill" to="#808080" begin="zoomminus.mouseover" end="zoomminus.mouseout"/></use>
    <path d="M-4,0h8" fill="none" stroke="white" stroke-width="1.5" pointer-events="none"/>
  </g>
  <g id="arrowUp" transform="translate(30 24)">
    <use xlink:href="#rim"/>
    <path pointer-events="none" fill="none" stroke="white" stroke-width="1.5" d="M0,-3.0v7 M-2.5,-0.5L0,-3.0L2.5,-0.5"/>
  </g>
  <g id="arrowRight" transform="rotate(90) translate(36 -43)">
    <use xlink:href="#rim"/>
    <path pointer-events="none" fill="none" stroke="white" stroke-width="1.5" d="M0,-3.0v7 M-2.5,-0.5L0,-3.0L2.5,-0.5"/>
  </g>
  <g id="arrowDown" transform="rotate(180) translate(-30 -48)">
    <use xlink:href="#rim"/>
    <path pointer-events="none" fill="none" stroke="white" stroke-width="1.5" d="M0,-3.0v7 M-2.5,-0.5L0,-3.0L2.5,-0.5"/>
  </g>
  <g id="arrowLeft" transform="rotate(270) translate(-36 17)">
    <use xlink:href="#rim"/>
    <path pointer-events="none" fill="none" stroke="white" stroke-width="1.5" d="M0,-3.0v7 M-2.5,-0.5L0,-3.0L2.5,-0.5"/>
  </g>
  <g id="resetDef">
    <use xlink:href="#rim2" fill="#404040"><set attributeName="fill" to="#808080" begin="reset.mouseover" end="reset.mouseout"/></use>
  </g>
</defs>
<script type="application/ecmascript">
var viewWidth = 343;
var viewHeight = 875;
var sectionId = 'dynsection-1';
</script>
<script type="application/ecmascript" xlink:href="../../svg.min.js"/>
<svg id="graph" class="graph">
<g id="viewport">
<title>HydroCouple::IExchangeItem</title>
<!-- Node1 -->
<g id="Node000001" class="node">
<title>Node1</title>
<g id="a_Node000001"><a xlink:title="IExchangeItem the base data item the can be exchanged between components at runtime.">
<polygon fill="#999999" stroke="transparent" points="241.5,-49 89.5,-49 89.5,0 241.5,0 241.5,-49"/>
<text text-anchor="start" x="94.5" y="-36.5" font-family="Monaco" font-size="10.00">HydroCouple::IExchangeItem</text>
<text text-anchor="start" x="163.5" y="-21.5" font-family="Monaco" font-size="10.00"> </text>
<text text-anchor="start" x="104" y="-6.5" font-family="Monaco" font-size="10.00">+</text>
<text text-anchor="start" x="127.5" y="-6.5" font-family="Monaco" font-size="10.00">~IExchangeItem()</text>
<polygon fill="#666666" stroke="#666666" points="89.5,-31.5 89.5,-31.5 241.5,-31.5 241.5,-31.5 89.5,-31.5"/>
<polygon fill="#666666" stroke="#666666" points="89.5,-16.5 89.5,-16.5 241.5,-16.5 241.5,-16.5 89.5,-16.5"/>
<polygon fill="none" stroke="#666666" points="89.5,0 89.5,-49 241.5,-49 241.5,0 89.5,0"/>
</a>
</g>
</g>
<!-- Node2 -->
<g id="Node000002" class="node">
<title>Node2</title>
<g id="a_Node000002"><a xlink:href="../../d8/d52/class_hydro_couple_1_1_i_component_data_item.html" target="_top" xlink:title="IComponentItem is a fundamental unit of data for a component.">
<polygon fill="white" stroke="transparent" points="258,-314 73,-314 73,-85 258,-85 258,-314"/>
<text text-anchor="start" x="78.5" y="-301.5" font-family="Monaco" font-size="10.00">HydroCouple::IComponentDataItem</text>
<text text-anchor="start" x="164" y="-286.5" font-family="Monaco" font-size="10.00"> </text>
<text text-anchor="start" x="88" y="-271.5" font-family="Monaco" font-size="10.00">+</text>
<text text-anchor="start" x="111.5" y="-271.5" font-family="Monaco" font-size="10.00">~IComponentDataItem()</text>
<text text-anchor="start" x="88" y="-256.5" font-family="Monaco" font-size="10.00">+</text>
<text text-anchor="start" x="111.5" y="-256.5" font-family="Monaco" font-size="10.00">modelComponent()</text>
<text text-anchor="start" x="88" y="-241.5" font-family="Monaco" font-size="10.00">+</text>
<text text-anchor="start" x="111.5" y="-241.5" font-family="Monaco" font-size="10.00">dimensions()</text>
<text text-anchor="start" x="88" y="-226.5" font-family="Monaco" font-size="10.00">+</text>
<text text-anchor="start" x="111.5" y="-226.5" font-family="Monaco" font-size="10.00">dimensionLength()</text>
<text text-anchor="start" x="88" y="-211.5" font-family="Monaco" font-size="10.00">+</text>
<text text-anchor="start" x="111.5" y="-211.5" font-family="Monaco" font-size="10.00">valueDefinition()</text>
<text text-anchor="start" x="88" y="-196.5" font-family="Monaco" font-size="10.00">+</text>
<text text-anchor="start" x="111.5" y="-196.5" font-family="Monaco" font-size="10.00">getValue()</text>
<text text-anchor="start" x="88" y="-181.5" font-family="Monaco" font-size="10.00">+</text>
<text text-anchor="start" x="111.5" y="-181.5" font-family="Monaco" font-size="10.00">getValues()</text>
<text text-anchor="start" x="88" y="-166.5" font-family="Monaco" font-size="10.00">+</text>
<text text-anchor="start" x="111.5" y="-166.5" font-family="Monaco" font-size="10.00">setValue()</text>
<text text-anchor="start" x="88" y="-151.5" font-family="Monaco" font-size="10.00">+</text>
<text text-anchor="start" x="111.5" y="-151.5" font-family="Monaco" font-size="10.00">setValues()</text>
<text text-anchor="start" x="88" y="-136.5" font-family="Monaco" font-size="10.00">+</text>
<text text-anchor="start" x="111.5" y="-136.5" font-family="Monaco" font-size="10.00">hasEditor()</text>
<text text-anchor="start" x="88" y="-121.5" font-family="Monaco" font-size="10.00">+</text>
<text text-anchor="start" x="111.5" y="-121.5" font-family="Monaco" font-size="10.00">showEditor()</text>
<text text-anchor="start" x="88" y="-106.5" font-family="Monaco" font-size="10.00">+</text>
<text text-anchor="start" x="111.5" y="-106.5" font-family="Monaco" font-size="10.00">hasViewer()</text>
<text text-anchor="start" x="88" y="-91.5" font-family="Monaco" font-size="10.00">+</text>
<text text-anchor="start" x="111.5" y="-91.5" font-family="Monaco" font-size="10.00">showViewer()</text>
<polygon fill="#666666" stroke="#666666" points="73.5,-296.5 73.5,-296.5 258.5,-296.5 258.5,-296.5 73.5,-296.5"/>
<polygon fill="#666666" stroke="#666666" points="73.5,-281.5 73.5,-281.5 258.5,-281.5 258.5,-281.5 73.5,-281.5"/>
<polygon fill="none" stroke="#666666" points="73,-85 73,-314 258,-314 258,-85 73,-85"/>
</a>
</g>
</g>
<!-- Node2&#45;&gt;Node1 -->
<g id="edge1_Node000001_Node000002" class="edge">
<title>Node2&#45;&gt;Node1</title>
<g id="a_edge1_Node000001_Node000002"><a xlink:title=" ">
<path fill="none" stroke="#63b8ff" d="M165.5,-74.49C165.5,-65.07 165.5,-56.39 165.5,-49.03"/>
<polygon fill="none" stroke="#63b8ff" points="162,-74.55 165.5,-84.55 169,-74.55 162,-74.55"/>
</a>
</g>
</g>
<!-- Node3 -->
<g id="Node000003" class="node">
<title>Node3</title>
<g id="a_Node000003"><a xlink:href="../../d2/d2a/class_hydro_couple_1_1_i_identity.html" target="_top" xlink:title="IIdentity interface class defines a method to get the Id of an HydroCouple entity.">
<polygon fill="white" stroke="transparent" points="143.5,-447.5 23.5,-447.5 23.5,-383.5 143.5,-383.5 143.5,-447.5"/>
<text text-anchor="start" x="28.5" y="-435.5" font-family="Monaco" font-size="10.00">HydroCouple::IIdentity</text>
<text text-anchor="start" x="81.5" y="-420.5" font-family="Monaco" font-size="10.00"> </text>
<text text-anchor="start" x="38" y="-405.5" font-family="Monaco" font-size="10.00">+</text>
<text text-anchor="start" x="61.5" y="-405.5" font-family="Monaco" font-size="10.00">~IIdentity()</text>
<text text-anchor="start" x="38" y="-390.5" font-family="Monaco" font-size="10.00">+</text>
<text text-anchor="start" x="61.5" y="-390.5" font-family="Monaco" font-size="10.00">id()</text>
<polygon fill="#666666" stroke="#666666" points="23.5,-430.5 23.5,-430.5 143.5,-430.5 143.5,-430.5 23.5,-430.5"/>
<polygon fill="#666666" stroke="#666666" points="23.5,-415.5 23.5,-415.5 143.5,-415.5 143.5,-415.5 23.5,-415.5"/>
<polygon fill="none" stroke="#666666" points="23.5,-383.5 23.5,-447.5 143.5,-447.5 143.5,-383.5 23.5,-383.5"/>
</a>
</g>
</g>
<!-- Node3&#45;&gt;Node2 -->
<g id="edge2_Node000002_Node000003" class="edge">
<title>Node3&#45;&gt;Node2</title>
<g id="a_edge2_Node000002_Node000003"><a xlink:title=" ">
<path fill="none" stroke="#63b8ff" d="M99.13,-373.71C105.72,-356.5 113.76,-335.52 121.94,-314.19"/>
<polygon fill="none" stroke="#63b8ff" points="95.73,-372.79 95.42,-383.38 102.27,-375.3 95.73,-372.79"/>
</a>
</g>
</g>
<!-- Node4 -->
<g id="Node000004" class="node">
<title>Node4</title>
<g id="a_Node000004"><a xlink:href="../../db/d64/class_hydro_couple_1_1_i_description.html" target="_top" xlink:title="IDescription interface class provides descriptive information on a HydroCouple object.">
<polygon fill="white" stroke="transparent" points="152.5,-626 14.5,-626 14.5,-517 152.5,-517 152.5,-626"/>
<text text-anchor="start" x="19.5" y="-613.5" font-family="Monaco" font-size="10.00">HydroCouple::IDescription</text>
<text text-anchor="start" x="81.5" y="-598.5" font-family="Monaco" font-size="10.00"> </text>
<text text-anchor="start" x="28" y="-583.5" font-family="Monaco" font-size="10.00">+</text>
<text text-anchor="start" x="50.5" y="-583.5" font-family="Monaco" font-size="10.00">~IDescription()</text>
<text text-anchor="start" x="28" y="-568.5" font-family="Monaco" font-size="10.00">+</text>
<text text-anchor="start" x="50.5" y="-568.5" font-family="Monaco" font-size="10.00">caption()</text>
<text text-anchor="start" x="28" y="-553.5" font-family="Monaco" font-size="10.00">+</text>
<text text-anchor="start" x="50.5" y="-553.5" font-family="Monaco" font-size="10.00">setCaption()</text>
<text text-anchor="start" x="28" y="-538.5" font-family="Monaco" font-size="10.00">+</text>
<text text-anchor="start" x="50.5" y="-538.5" font-family="Monaco" font-size="10.00">description()</text>
<text text-anchor="start" x="28" y="-523.5" font-family="Monaco" font-size="10.00">+</text>
<text text-anchor="start" x="50.5" y="-523.5" font-family="Monaco" font-size="10.00">setDescription()</text>
<polygon fill="#666666" stroke="#666666" points="14.5,-608.5 14.5,-608.5 152.5,-608.5 152.5,-608.5 14.5,-608.5"/>
<polygon fill="#666666" stroke="#666666" points="14.5,-593.5 14.5,-593.5 152.5,-593.5 152.5,-593.5 14.5,-593.5"/>
<polygon fill="none" stroke="#666666" points="14.5,-517 14.5,-626 152.5,-626 152.5,-517 14.5,-517"/>
</a>
</g>
</g>
<!-- Node4&#45;&gt;Node3 -->
<g id="edge3_Node000003_Node000004" class="edge">
<title>Node4&#45;&gt;Node3</title>
<g id="a_edge3_Node000003_Node000004"><a xlink:title=" ">
<path fill="none" stroke="#63b8ff" d="M83.5,-506.47C83.5,-486.15 83.5,-464.58 83.5,-447.66"/>
<polygon fill="none" stroke="#63b8ff" points="80,-506.64 83.5,-516.64 87,-506.64 80,-506.64"/>
</a>
</g>
</g>
<!-- Node5 -->
<g id="Node000005" class="node">
<title>Node5</title>
<g id="a_Node000005"><a xlink:href="../../dd/dbf/class_hydro_couple_1_1_i_property_changed.html" target="_top" xlink:title="IPropertyChanged interface is used to emit signal/event when a property of an object changes.">
<polygon fill="white" stroke="transparent" points="167,-711 0,-711 0,-662 167,-662 167,-711"/>
<text text-anchor="start" x="5.5" y="-698.5" font-family="Monaco" font-size="10.00">HydroCouple::IPropertyChanged</text>
<text text-anchor="start" x="82" y="-683.5" font-family="Monaco" font-size="10.00"> </text>
<text text-anchor="start" x="15" y="-668.5" font-family="Monaco" font-size="10.00">+</text>
<text text-anchor="start" x="38.5" y="-668.5" font-family="Monaco" font-size="10.00">~IPropertyChanged()</text>
<polygon fill="#666666" stroke="#666666" points="0.5,-693.5 0.5,-693.5 167.5,-693.5 167.5,-693.5 0.5,-693.5"/>
<polygon fill="#666666" stroke="#666666" points="0.5,-678.5 0.5,-678.5 167.5,-678.5 167.5,-678.5 0.5,-678.5"/>
<polygon fill="none" stroke="#666666" points="0,-662 0,-711 167,-711 167,-662 0,-662"/>
</a>
</g>
</g>
<!-- Node5&#45;&gt;Node4 -->
<g id="edge4_Node000004_Node000005" class="edge">
<title>Node5&#45;&gt;Node4</title>
<g id="a_edge4_Node000004_Node000005"><a xlink:title=" ">
<path fill="none" stroke="#63b8ff" d="M83.5,-651.79C83.5,-643.79 83.5,-635.06 83.5,-626.41"/>
<polygon fill="none" stroke="#63b8ff" points="80,-651.81 83.5,-661.81 87,-651.81 80,-651.81"/>
</a>
</g>
</g>
<!-- Node6 -->
<g id="Node000006" class="node">
<title>Node6</title>
<g id="a_Node000006"><a xlink:href="../../d5/d8b/class_hydro_couple_1_1_i_signal.html" target="_top" xlink:title=" ">
<polygon fill="white" stroke="transparent" points="140,-867 27,-867 27,-747 140,-747 140,-867"/>
<text text-anchor="start" x="32.5" y="-855" font-family="Monaco" font-size="10.00">HydroCouple::ISignal</text>
<text text-anchor="start" x="58.5" y="-844" font-family="Monaco" font-size="10.00">&lt; string &gt;</text>
<text text-anchor="start" x="82" y="-829" font-family="Monaco" font-size="10.00"> </text>
<text text-anchor="start" x="37" y="-814" font-family="Monaco" font-size="10.00">+</text>
<text text-anchor="start" x="55.5" y="-814" font-family="Monaco" font-size="10.00">~ISignal()</text>
<text text-anchor="start" x="37" y="-799" font-family="Monaco" font-size="10.00">+</text>
<text text-anchor="start" x="55.5" y="-799" font-family="Monaco" font-size="10.00">connect()</text>
<text text-anchor="start" x="37" y="-784" font-family="Monaco" font-size="10.00">+</text>
<text text-anchor="start" x="55.5" y="-784" font-family="Monaco" font-size="10.00">disconnect()</text>
<text text-anchor="start" x="37" y="-769" font-family="Monaco" font-size="10.00">+</text>
<text text-anchor="start" x="55.5" y="-769" font-family="Monaco" font-size="10.00">blockSignals()</text>
<text text-anchor="start" x="37" y="-754" font-family="Monaco" font-size="10.00">#</text>
<text text-anchor="start" x="55.5" y="-754" font-family="Monaco" font-size="10.00">emit()</text>
<polygon fill="#666666" stroke="#666666" points="27.5,-839 27.5,-839 140.5,-839 140.5,-839 27.5,-839"/>
<polygon fill="#666666" stroke="#666666" points="27.5,-824 27.5,-824 140.5,-824 140.5,-824 27.5,-824"/>
<polygon fill="none" stroke="#666666" points="27,-747 27,-867 140,-867 140,-747 27,-747"/>
</a>
</g>
</g>
<!-- Node6&#45;&gt;Node5 -->
<g id="edge5_Node000005_Node000006" class="edge">
<title>Node6&#45;&gt;Node5</title>
<g id="a_edge5_Node000005_Node000006"><a xlink:title=" ">
<path fill="none" stroke="#63b8ff" d="M83.5,-736.74C83.5,-727.6 83.5,-718.78 83.5,-711.2"/>
<polygon fill="none" stroke="#63b8ff" points="80,-736.75 83.5,-746.75 87,-736.75 80,-736.75"/>
</a>
</g>
</g>
<!-- Node7 -->
<g id="Node000007" class="node">
<title>Node7</title>
<g id="a_Node000007"><a xlink:href="../../d5/d8b/class_hydro_couple_1_1_i_signal.html" target="_top" xlink:title=" ">
<polygon fill="white" stroke="transparent" points="335,-481 162,-481 162,-350 335,-350 335,-481"/>
<text text-anchor="start" x="167.5" y="-468.5" font-family="Monaco" font-size="10.00">HydroCouple::ISignal</text>
<text text-anchor="start" x="167.5" y="-457.5" font-family="Monaco" font-size="10.00">&lt; const shared_ptr&lt; IComponent</text>
<text text-anchor="start" x="174.5" y="-446.5" font-family="Monaco" font-size="10.00">DataItemValueChanged &gt; &amp; &gt;</text>
<text text-anchor="start" x="247" y="-431.5" font-family="Monaco" font-size="10.00"> </text>
<text text-anchor="start" x="187" y="-416.5" font-family="Monaco" font-size="10.00">+</text>
<text text-anchor="start" x="220.5" y="-416.5" font-family="Monaco" font-size="10.00">~ISignal()</text>
<text text-anchor="start" x="187" y="-401.5" font-family="Monaco" font-size="10.00">+</text>
<text text-anchor="start" x="220.5" y="-401.5" font-family="Monaco" font-size="10.00">connect()</text>
<text text-anchor="start" x="187" y="-386.5" font-family="Monaco" font-size="10.00">+</text>
<text text-anchor="start" x="220.5" y="-386.5" font-family="Monaco" font-size="10.00">disconnect()</text>
<text text-anchor="start" x="187" y="-371.5" font-family="Monaco" font-size="10.00">+</text>
<text text-anchor="start" x="220.5" y="-371.5" font-family="Monaco" font-size="10.00">blockSignals()</text>
<text text-anchor="start" x="187" y="-356.5" font-family="Monaco" font-size="10.00">#</text>
<text text-anchor="start" x="220.5" y="-356.5" font-family="Monaco" font-size="10.00">emit()</text>
<polygon fill="#666666" stroke="#666666" points="162.5,-441.5 162.5,-441.5 335.5,-441.5 335.5,-441.5 162.5,-441.5"/>
<polygon fill="#666666" stroke="#666666" points="162.5,-426.5 162.5,-426.5 335.5,-426.5 335.5,-426.5 162.5,-426.5"/>
<polygon fill="none" stroke="#666666" points="162,-350 162,-481 335,-481 335,-350 162,-350"/>
</a>
</g>
</g>
<!-- Node7&#45;&gt;Node2 -->
<g id="edge6_Node000002_Node000007" class="edge">
<title>Node7&#45;&gt;Node2</title>
<g id="a_edge6_Node000002_Node000007"><a xlink:title=" ">
<path fill="none" stroke="#63b8ff" d="M219.71,-340.27C216.42,-331.79 213.01,-322.99 209.58,-314.14"/>
<polygon fill="none" stroke="#63b8ff" points="216.49,-341.65 223.37,-349.71 223.02,-339.12 216.49,-341.65"/>
</a>
</g>
</g>
</g>
</svg>

<g id="navigator" transform="translate(0 0)" fill="#404254">
  <rect fill="#f2f5e9" fill-opacity="0.5" stroke="#606060" stroke-width=".5" x="0" y="0" width="60" height="60"/>
  <use id="zoomplus" xlink:href="#zoomPlus" x="17" y="9" onmousedown="handleZoom(evt,'in')"/>
  <use id="zoomminus" xlink:href="#zoomMin" x="42" y="9" onmousedown="handleZoom(evt,'out')"/>
  <use id="reset" xlink:href="#resetDef" x="30" y="36" onmousedown="handleReset()"/>
   <use id="arrowup" xlink:href="#arrowUp" x="0" y="0" onmousedown="handlePan(0,-1)"/>
  <use id="arrowright" xlink:href="#arrowRight" x="0" y="0" onmousedown="handlePan(1,0)"/>
  <use id="arrowdown" xlink:href="#arrowDown" x="0" y="0" onmousedown="handlePan(0,1)"/>
  <use id="arrowleft" xlink:href="#arrowLeft" x="0" y="0" onmousedown="handlePan(-1,0)"/>
</g>
<svg viewBox="0 0 15 15" width="100%" height="30px" preserveAspectRatio="xMaxYMin meet">
 <g id="arrow_out" transform="scale(0.3 0.3)">
  <a xlink:href="class_hydro_couple_1_1_i_exchange_item__coll__graph_org.svg" target="_base">
   <rect id="button" ry="5" rx="5" y="6" x="6" height="38" width="38"
        fill="#f2f5e9" fill-opacity="0.5" stroke="#606060" stroke-width="1.0"/>
   <path id="arrow"
     d="M 11.500037,31.436501 C 11.940474,20.09759 22.043105,11.32322 32.158766,21.979434 L 37.068811,17.246167 C 37.068811,17.246167 37.088388,32 37.088388,32 L 22.160133,31.978069 C 22.160133,31.978069 26.997745,27.140456 26.997745,27.140456 C 18.528582,18.264221 13.291696,25.230495 11.500037,31.436501 z"
     style="fill:#404040;"/>
  </a>
 </g>
</svg>

<style type='text/css'>
<![CDATA[
[data-mouse-over-selected='false'] { opacity: 0.7; }
[data-mouse-over-selected='true']  { opacity: 1.0; }
]]>
</style>
<script type="application/ecmascript"><![CDATA[
document.addEventListener('DOMContentLoaded', (event) => {
  highlightEdges();
  highlightAdjacentNodes();
});
]]></script>
</svg>
