<?xml version="1.0" encoding="UTF-8" standalone="no"?>
<!DOCTYPE svg PUBLIC "-//W3C//DTD SVG 1.1//EN"
 "http://www.w3.org/Graphics/SVG/1.1/DTD/svg11.dtd">
<!-- Generated by graphviz version 2.43.0 (0)
 -->
<!-- Title: WKBMultiLineString Pages: 1 -->
<svg width="129pt" height="331pt"
 viewBox="0.00 0.00 128.50 331.00" xmlns="http://www.w3.org/2000/svg" xmlns:xlink="http://www.w3.org/1999/xlink">
<g id="graph0" class="graph" transform="scale(1 1) rotate(0) translate(4 327)">
<title>WKBMultiLineString</title>
<!-- Node1 -->
<g id="node1" class="node">
<title>Node1</title>
<g id="a_node1"><a xlink:title="The WKBMultiLineString struct.">
<polygon fill="#bfbfbf" stroke="black" points="0,-0.5 0,-79.5 113,-79.5 113,-0.5 0,-0.5"/>
<text text-anchor="middle" x="56.5" y="-67.5" font-family="Monaco" font-size="10.00">WKBMultiLineString</text>
<polyline fill="none" stroke="black" points="0,-60.5 113,-60.5 "/>
<text text-anchor="start" x="8" y="-48.5" font-family="Monaco" font-size="10.00">+ byteOrder</text>
<text text-anchor="start" x="8" y="-37.5" font-family="Monaco" font-size="10.00">+ numLineStrings</text>
<text text-anchor="start" x="8" y="-26.5" font-family="Monaco" font-size="10.00">+ wkbType</text>
<polyline fill="none" stroke="black" points="0,-19.5 113,-19.5 "/>
<text text-anchor="middle" x="56.5" y="-7.5" font-family="Monaco" font-size="10.00"> </text>
</a>
</g>
</g>
<!-- Node2 -->
<g id="node2" class="node">
<title>Node2</title>
<g id="a_node2"><a xlink:href="../../dd/d46/struct_w_k_b_line_string.html" target="_top" xlink:title="The WKBLineString struct.">
<polygon fill="none" stroke="black" points="12,-127.5 12,-206.5 101,-206.5 101,-127.5 12,-127.5"/>
<text text-anchor="middle" x="56.5" y="-194.5" font-family="Monaco" font-size="10.00">WKBLineString</text>
<polyline fill="none" stroke="black" points="12,-187.5 101,-187.5 "/>
<text text-anchor="start" x="20" y="-175.5" font-family="Monaco" font-size="10.00">+ byteOrder</text>
<text text-anchor="start" x="20" y="-164.5" font-family="Monaco" font-size="10.00">+ numPoints</text>
<text text-anchor="start" x="20" y="-153.5" font-family="Monaco" font-size="10.00">+ wkbType</text>
<polyline fill="none" stroke="black" points="12,-146.5 101,-146.5 "/>
<text text-anchor="middle" x="56.5" y="-134.5" font-family="Monaco" font-size="10.00"> </text>
</a>
</g>
</g>
<!-- Node2&#45;&gt;Node1 -->
<g id="edge1" class="edge">
<title>Node2&#45;&gt;Node1</title>
<path fill="none" stroke="#404040" d="M56.5,-127.48C56.5,-116.19 56.5,-103.67 56.5,-91.75"/>
<polygon fill="none" stroke="#404040" points="56.5,-91.61 52.5,-85.61 56.5,-79.61 60.5,-85.61 56.5,-91.61"/>
<text text-anchor="middle" x="88.5" y="-101" font-family="Monaco" font-size="10.00"> +lineStrings</text>
</g>
<!-- Node3 -->
<g id="node3" class="node">
<title>Node3</title>
<g id="a_node3"><a xlink:href="../../d8/dc8/struct_point.html" target="_top" xlink:title="The Point struct.">
<polygon fill="none" stroke="black" points="36,-254.5 36,-322.5 77,-322.5 77,-254.5 36,-254.5"/>
<text text-anchor="middle" x="56.5" y="-310.5" font-family="Monaco" font-size="10.00">Point</text>
<polyline fill="none" stroke="black" points="36,-303.5 77,-303.5 "/>
<text text-anchor="start" x="44" y="-291.5" font-family="Monaco" font-size="10.00">+ x</text>
<text text-anchor="start" x="44" y="-280.5" font-family="Monaco" font-size="10.00">+ y</text>
<polyline fill="none" stroke="black" points="36,-273.5 77,-273.5 "/>
<text text-anchor="middle" x="56.5" y="-261.5" font-family="Monaco" font-size="10.00"> </text>
</a>
</g>
</g>
<!-- Node3&#45;&gt;Node2 -->
<g id="edge2" class="edge">
<title>Node3&#45;&gt;Node2</title>
<path fill="none" stroke="#404040" d="M56.5,-254.21C56.5,-243.24 56.5,-230.78 56.5,-218.81"/>
<polygon fill="none" stroke="#404040" points="56.5,-218.6 52.5,-212.6 56.5,-206.6 60.5,-212.6 56.5,-218.6"/>
<text text-anchor="middle" x="77.5" y="-228" font-family="Monaco" font-size="10.00"> +points</text>
</g>
</g>
</svg>
