<?xml version="1.0" encoding="UTF-8" standalone="no"?>
<!DOCTYPE svg PUBLIC "-//W3C//DTD SVG 1.1//EN"
 "http://www.w3.org/Graphics/SVG/1.1/DTD/svg11.dtd">
<!-- Generated by graphviz version 2.43.0 (0)
 -->
<!-- Title: HydroCouple::Spatial::IPolyhedralSurfaceComponentDataItem Pages: 1 -->
<!--zoomable 1531 -->

<svg id="main" version="1.1" xmlns="http://www.w3.org/2000/svg" xmlns:xlink="http://www.w3.org/1999/xlink" xml:space="preserve" onload="init(evt)">
<style type="text/css"><![CDATA[
.node, .edge {opacity: 0.7;}
.node.selected, .edge.selected {opacity: 1;}
.edge:hover path { stroke: red; }
.edge:hover polygon { stroke: red; fill: red; }
]]></style>

<defs>
  <circle id="rim" cx="0" cy="0" r="7"/>
  <circle id="rim2" cx="0" cy="0" r="3.5"/>
  <g id="zoomPlus">
    <use xlink:href="#rim" fill="#404040"><set attributeName="fill" to="#808080" begin="zoomplus.mouseover" end="zoomplus.mouseout"/></use>
    <path d="M-4,0h8M0,-4v8" fill="none" stroke="white" stroke-width="1.5" pointer-events="none"/>
  </g>
  <g id="zoomMin">
    <use xlink:href="#rim" fill="#404040"><set attributeName="fill" to="#808080" begin="zoomminus.mouseover" end="zoomminus.mouseout"/></use>
    <path d="M-4,0h8" fill="none" stroke="white" stroke-width="1.5" pointer-events="none"/>
  </g>
  <g id="arrowUp" transform="translate(30 24)">
    <use xlink:href="#rim"/>
    <path pointer-events="none" fill="none" stroke="white" stroke-width="1.5" d="M0,-3.0v7 M-2.5,-0.5L0,-3.0L2.5,-0.5"/>
  </g>
  <g id="arrowRight" transform="rotate(90) translate(36 -43)">
    <use xlink:href="#rim"/>
    <path pointer-events="none" fill="none" stroke="white" stroke-width="1.5" d="M0,-3.0v7 M-2.5,-0.5L0,-3.0L2.5,-0.5"/>
  </g>
  <g id="arrowDown" transform="rotate(180) translate(-30 -48)">
    <use xlink:href="#rim"/>
    <path pointer-events="none" fill="none" stroke="white" stroke-width="1.5" d="M0,-3.0v7 M-2.5,-0.5L0,-3.0L2.5,-0.5"/>
  </g>
  <g id="arrowLeft" transform="rotate(270) translate(-36 17)">
    <use xlink:href="#rim"/>
    <path pointer-events="none" fill="none" stroke="white" stroke-width="1.5" d="M0,-3.0v7 M-2.5,-0.5L0,-3.0L2.5,-0.5"/>
  </g>
  <g id="resetDef">
    <use xlink:href="#rim2" fill="#404040"><set attributeName="fill" to="#808080" begin="reset.mouseover" end="reset.mouseout"/></use>
  </g>
</defs>
<script type="application/ecmascript">
var viewWidth = 404;
var viewHeight = 1531;
var sectionId = 'dynsection-0';
</script>
<script type="application/ecmascript" xlink:href="../../svg.min.js"/>
<svg id="graph" class="graph">
<g id="viewport">
<title>HydroCouple::Spatial::IPolyhedralSurfaceComponentDataItem</title>
<!-- Node1 -->
<g id="Node000001" class="node">
<title>Node1</title>
<g id="a_Node000001"><a xlink:title="IPolyhedralSurfaceComponentItem represents IPolyhedralSurface IComponentItem.">
<polygon fill="#999999" stroke="transparent" points="271.5,-705 93.5,-705 93.5,-413 271.5,-413 271.5,-705"/>
<text text-anchor="start" x="105.5" y="-693" font-family="Monaco" font-size="10.00">HydroCouple::Spatial</text>
<text text-anchor="start" x="105.5" y="-682" font-family="Monaco" font-size="10.00">::IPolyhedralSurfaceComponent</text>
<text text-anchor="start" x="159.5" y="-671" font-family="Monaco" font-size="10.00">DataItem</text>
<text text-anchor="start" x="180.5" y="-656" font-family="Monaco" font-size="10.00"> </text>
<text text-anchor="start" x="97.5" y="-641" font-family="Monaco" font-size="10.00">+</text>
<text text-anchor="start" x="110.5" y="-641" font-family="Monaco" font-size="10.00">~IPolyhedralSurfaceComponent</text>
<text text-anchor="start" x="110.5" y="-630" font-family="Monaco" font-size="10.00">DataItem()</text>
<text text-anchor="start" x="97.5" y="-615" font-family="Monaco" font-size="10.00">+</text>
<text text-anchor="start" x="110.5" y="-615" font-family="Monaco" font-size="10.00">meshDataObjectType()</text>
<text text-anchor="start" x="97.5" y="-600" font-family="Monaco" font-size="10.00">+</text>
<text text-anchor="start" x="110.5" y="-600" font-family="Monaco" font-size="10.00">meshDataType()</text>
<text text-anchor="start" x="97.5" y="-585" font-family="Monaco" font-size="10.00">+</text>
<text text-anchor="start" x="110.5" y="-585" font-family="Monaco" font-size="10.00">polyhedralSurface()</text>
<text text-anchor="start" x="97.5" y="-570" font-family="Monaco" font-size="10.00">+</text>
<text text-anchor="start" x="110.5" y="-570" font-family="Monaco" font-size="10.00">patchDimension()</text>
<text text-anchor="start" x="97.5" y="-555" font-family="Monaco" font-size="10.00">+</text>
<text text-anchor="start" x="110.5" y="-555" font-family="Monaco" font-size="10.00">edgeDimension()</text>
<text text-anchor="start" x="97.5" y="-540" font-family="Monaco" font-size="10.00">+</text>
<text text-anchor="start" x="110.5" y="-540" font-family="Monaco" font-size="10.00">vertexDimension()</text>
<text text-anchor="start" x="97.5" y="-525" font-family="Monaco" font-size="10.00">+</text>
<text text-anchor="start" x="110.5" y="-525" font-family="Monaco" font-size="10.00">getValue()</text>
<text text-anchor="start" x="97.5" y="-510" font-family="Monaco" font-size="10.00">+</text>
<text text-anchor="start" x="110.5" y="-510" font-family="Monaco" font-size="10.00">getValues()</text>
<text text-anchor="start" x="97.5" y="-495" font-family="Monaco" font-size="10.00">+</text>
<text text-anchor="start" x="110.5" y="-495" font-family="Monaco" font-size="10.00">setValue()</text>
<text text-anchor="start" x="97.5" y="-480" font-family="Monaco" font-size="10.00">+</text>
<text text-anchor="start" x="110.5" y="-480" font-family="Monaco" font-size="10.00">setValues()</text>
<text text-anchor="start" x="97.5" y="-465" font-family="Monaco" font-size="10.00">+</text>
<text text-anchor="start" x="110.5" y="-465" font-family="Monaco" font-size="10.00">getValue()</text>
<text text-anchor="start" x="97.5" y="-450" font-family="Monaco" font-size="10.00">+</text>
<text text-anchor="start" x="110.5" y="-450" font-family="Monaco" font-size="10.00">getValues()</text>
<text text-anchor="start" x="97.5" y="-435" font-family="Monaco" font-size="10.00">+</text>
<text text-anchor="start" x="110.5" y="-435" font-family="Monaco" font-size="10.00">setValue()</text>
<text text-anchor="start" x="97.5" y="-420" font-family="Monaco" font-size="10.00">+</text>
<text text-anchor="start" x="110.5" y="-420" font-family="Monaco" font-size="10.00">setValues()</text>
<polygon fill="#666666" stroke="#666666" points="93.5,-666 93.5,-666 271.5,-666 271.5,-666 93.5,-666"/>
<polygon fill="#666666" stroke="#666666" points="93.5,-651 93.5,-651 271.5,-651 271.5,-651 93.5,-651"/>
<polygon fill="none" stroke="#666666" points="93.5,-413 93.5,-705 271.5,-705 271.5,-413 93.5,-413"/>
</a>
</g>
</g>
<!-- Node8 -->
<g id="Node000008" class="node">
<title>Node8</title>
<g id="a_Node000008"><a xlink:href="../../d3/d6c/class_hydro_couple_1_1_spatial_1_1_i_t_i_n_component_data_item.html" target="_top" xlink:title="ITINComponentDataItem represents ITIN IComponentDataItem.">
<polygon fill="white" stroke="transparent" points="159,-377 0,-377 0,-122 159,-122 159,-377"/>
<text text-anchor="start" x="16" y="-364.5" font-family="Monaco" font-size="10.00">HydroCouple::Spatial</text>
<text text-anchor="start" x="16" y="-353.5" font-family="Monaco" font-size="10.00">::ITINComponentDataItem</text>
<text text-anchor="start" x="78" y="-338.5" font-family="Monaco" font-size="10.00"> </text>
<text text-anchor="start" x="4.5" y="-323.5" font-family="Monaco" font-size="10.00">+</text>
<text text-anchor="start" x="17.5" y="-323.5" font-family="Monaco" font-size="10.00">~ITINComponentDataItem()</text>
<text text-anchor="start" x="4.5" y="-308.5" font-family="Monaco" font-size="10.00">+</text>
<text text-anchor="start" x="17.5" y="-308.5" font-family="Monaco" font-size="10.00">TIN()</text>
<text text-anchor="start" x="4.5" y="-293.5" font-family="Monaco" font-size="10.00">+</text>
<text text-anchor="start" x="17.5" y="-293.5" font-family="Monaco" font-size="10.00">getValue()</text>
<text text-anchor="start" x="4.5" y="-278.5" font-family="Monaco" font-size="10.00">+</text>
<text text-anchor="start" x="17.5" y="-278.5" font-family="Monaco" font-size="10.00">getValues()</text>
<text text-anchor="start" x="4.5" y="-263.5" font-family="Monaco" font-size="10.00">+</text>
<text text-anchor="start" x="17.5" y="-263.5" font-family="Monaco" font-size="10.00">setValue()</text>
<text text-anchor="start" x="4.5" y="-248.5" font-family="Monaco" font-size="10.00">+</text>
<text text-anchor="start" x="17.5" y="-248.5" font-family="Monaco" font-size="10.00">setValues()</text>
<text text-anchor="start" x="4.5" y="-233.5" font-family="Monaco" font-size="10.00">+</text>
<text text-anchor="start" x="17.5" y="-233.5" font-family="Monaco" font-size="10.00">getValue()</text>
<text text-anchor="start" x="4.5" y="-218.5" font-family="Monaco" font-size="10.00">+</text>
<text text-anchor="start" x="17.5" y="-218.5" font-family="Monaco" font-size="10.00">getValue()</text>
<text text-anchor="start" x="4.5" y="-203.5" font-family="Monaco" font-size="10.00">+</text>
<text text-anchor="start" x="17.5" y="-203.5" font-family="Monaco" font-size="10.00">getValues()</text>
<text text-anchor="start" x="4.5" y="-188.5" font-family="Monaco" font-size="10.00">+</text>
<text text-anchor="start" x="17.5" y="-188.5" font-family="Monaco" font-size="10.00">getValues()</text>
<text text-anchor="start" x="4.5" y="-173.5" font-family="Monaco" font-size="10.00">+</text>
<text text-anchor="start" x="17.5" y="-173.5" font-family="Monaco" font-size="10.00">setValue()</text>
<text text-anchor="start" x="4.5" y="-158.5" font-family="Monaco" font-size="10.00">+</text>
<text text-anchor="start" x="17.5" y="-158.5" font-family="Monaco" font-size="10.00">setValue()</text>
<text text-anchor="start" x="4.5" y="-143.5" font-family="Monaco" font-size="10.00">+</text>
<text text-anchor="start" x="17.5" y="-143.5" font-family="Monaco" font-size="10.00">setValues()</text>
<text text-anchor="start" x="4.5" y="-128.5" font-family="Monaco" font-size="10.00">+</text>
<text text-anchor="start" x="17.5" y="-128.5" font-family="Monaco" font-size="10.00">setValues()</text>
<polygon fill="#666666" stroke="#666666" points="0.5,-348.5 0.5,-348.5 159.5,-348.5 159.5,-348.5 0.5,-348.5"/>
<polygon fill="#666666" stroke="#666666" points="0.5,-333.5 0.5,-333.5 159.5,-333.5 159.5,-333.5 0.5,-333.5"/>
<polygon fill="none" stroke="#666666" points="0,-122 0,-377 159,-377 159,-122 0,-122"/>
</a>
</g>
</g>
<!-- Node1&#45;&gt;Node8 -->
<g id="edge7_Node000001_Node000008" class="edge">
<title>Node1&#45;&gt;Node8</title>
<g id="a_edge7_Node000001_Node000008"><a xlink:title=" ">
<path fill="none" stroke="#63b8ff" d="M130.61,-403.1C127.73,-394.5 124.86,-385.91 122.02,-377.43"/>
<polygon fill="none" stroke="#63b8ff" points="127.37,-404.43 133.87,-412.8 134.01,-402.21 127.37,-404.43"/>
</a>
</g>
</g>
<!-- Node9 -->
<g id="Node000009" class="node">
<title>Node9</title>
<g id="a_Node000009"><a xlink:href="../../df/d17/class_hydro_couple_1_1_spatio_temporal_1_1_i_time_series_polyhedral_surface_component_data_item.html" target="_top" xlink:title="The ITimeSeriesPolyhedralSurfaceComponentDataItem class.">
<polygon fill="white" stroke="transparent" points="396,-320.5 177,-320.5 177,-178.5 396,-178.5 396,-320.5"/>
<text text-anchor="start" x="182.5" y="-308.5" font-family="Monaco" font-size="10.00">HydroCouple::SpatioTemporal</text>
<text text-anchor="start" x="182.5" y="-297.5" font-family="Monaco" font-size="10.00">::ITimeSeriesPolyhedralSurfaceComponent</text>
<text text-anchor="start" x="264" y="-286.5" font-family="Monaco" font-size="10.00">DataItem</text>
<text text-anchor="start" x="285" y="-271.5" font-family="Monaco" font-size="10.00"> </text>
<text text-anchor="start" x="192" y="-256.5" font-family="Monaco" font-size="10.00">+</text>
<text text-anchor="start" x="215.5" y="-256.5" font-family="Monaco" font-size="10.00">~ITimeSeriesPolyhedralSurface</text>
<text text-anchor="start" x="215.5" y="-245.5" font-family="Monaco" font-size="10.00">ComponentDataItem()</text>
<text text-anchor="start" x="192" y="-230.5" font-family="Monaco" font-size="10.00">+</text>
<text text-anchor="start" x="215.5" y="-230.5" font-family="Monaco" font-size="10.00">getValue()</text>
<text text-anchor="start" x="192" y="-215.5" font-family="Monaco" font-size="10.00">+</text>
<text text-anchor="start" x="215.5" y="-215.5" font-family="Monaco" font-size="10.00">getValues()</text>
<text text-anchor="start" x="192" y="-200.5" font-family="Monaco" font-size="10.00">+</text>
<text text-anchor="start" x="215.5" y="-200.5" font-family="Monaco" font-size="10.00">setValue()</text>
<text text-anchor="start" x="192" y="-185.5" font-family="Monaco" font-size="10.00">+</text>
<text text-anchor="start" x="215.5" y="-185.5" font-family="Monaco" font-size="10.00">setValues()</text>
<polygon fill="#666666" stroke="#666666" points="177.5,-281.5 177.5,-281.5 396.5,-281.5 396.5,-281.5 177.5,-281.5"/>
<polygon fill="#666666" stroke="#666666" points="177.5,-266.5 177.5,-266.5 396.5,-266.5 396.5,-266.5 177.5,-266.5"/>
<polygon fill="none" stroke="#666666" points="177,-178.5 177,-320.5 396,-320.5 396,-178.5 177,-178.5"/>
</a>
</g>
</g>
<!-- Node1&#45;&gt;Node9 -->
<g id="edge8_Node000001_Node000009" class="edge">
<title>Node1&#45;&gt;Node9</title>
<g id="a_edge8_Node000001_Node000009"><a xlink:title=" ">
<path fill="none" stroke="#63b8ff" d="M234.91,-403.03C244.66,-374.22 254.39,-345.45 262.72,-320.8"/>
<polygon fill="none" stroke="#63b8ff" points="231.5,-402.21 231.61,-412.8 238.13,-404.45 231.5,-402.21"/>
</a>
</g>
</g>
<!-- Node2 -->
<g id="Node000002" class="node">
<title>Node2</title>
<g id="a_Node000002"><a xlink:href="../../d8/d52/class_hydro_couple_1_1_i_component_data_item.html" target="_top" xlink:title="IComponentItem is a fundamental unit of data for a component.">
<polygon fill="white" stroke="transparent" points="275,-970 90,-970 90,-741 275,-741 275,-970"/>
<text text-anchor="start" x="95.5" y="-957.5" font-family="Monaco" font-size="10.00">HydroCouple::IComponentDataItem</text>
<text text-anchor="start" x="181" y="-942.5" font-family="Monaco" font-size="10.00"> </text>
<text text-anchor="start" x="105" y="-927.5" font-family="Monaco" font-size="10.00">+</text>
<text text-anchor="start" x="128.5" y="-927.5" font-family="Monaco" font-size="10.00">~IComponentDataItem()</text>
<text text-anchor="start" x="105" y="-912.5" font-family="Monaco" font-size="10.00">+</text>
<text text-anchor="start" x="128.5" y="-912.5" font-family="Monaco" font-size="10.00">modelComponent()</text>
<text text-anchor="start" x="105" y="-897.5" font-family="Monaco" font-size="10.00">+</text>
<text text-anchor="start" x="128.5" y="-897.5" font-family="Monaco" font-size="10.00">dimensions()</text>
<text text-anchor="start" x="105" y="-882.5" font-family="Monaco" font-size="10.00">+</text>
<text text-anchor="start" x="128.5" y="-882.5" font-family="Monaco" font-size="10.00">dimensionLength()</text>
<text text-anchor="start" x="105" y="-867.5" font-family="Monaco" font-size="10.00">+</text>
<text text-anchor="start" x="128.5" y="-867.5" font-family="Monaco" font-size="10.00">valueDefinition()</text>
<text text-anchor="start" x="105" y="-852.5" font-family="Monaco" font-size="10.00">+</text>
<text text-anchor="start" x="128.5" y="-852.5" font-family="Monaco" font-size="10.00">getValue()</text>
<text text-anchor="start" x="105" y="-837.5" font-family="Monaco" font-size="10.00">+</text>
<text text-anchor="start" x="128.5" y="-837.5" font-family="Monaco" font-size="10.00">getValues()</text>
<text text-anchor="start" x="105" y="-822.5" font-family="Monaco" font-size="10.00">+</text>
<text text-anchor="start" x="128.5" y="-822.5" font-family="Monaco" font-size="10.00">setValue()</text>
<text text-anchor="start" x="105" y="-807.5" font-family="Monaco" font-size="10.00">+</text>
<text text-anchor="start" x="128.5" y="-807.5" font-family="Monaco" font-size="10.00">setValues()</text>
<text text-anchor="start" x="105" y="-792.5" font-family="Monaco" font-size="10.00">+</text>
<text text-anchor="start" x="128.5" y="-792.5" font-family="Monaco" font-size="10.00">hasEditor()</text>
<text text-anchor="start" x="105" y="-777.5" font-family="Monaco" font-size="10.00">+</text>
<text text-anchor="start" x="128.5" y="-777.5" font-family="Monaco" font-size="10.00">showEditor()</text>
<text text-anchor="start" x="105" y="-762.5" font-family="Monaco" font-size="10.00">+</text>
<text text-anchor="start" x="128.5" y="-762.5" font-family="Monaco" font-size="10.00">hasViewer()</text>
<text text-anchor="start" x="105" y="-747.5" font-family="Monaco" font-size="10.00">+</text>
<text text-anchor="start" x="128.5" y="-747.5" font-family="Monaco" font-size="10.00">showViewer()</text>
<polygon fill="#666666" stroke="#666666" points="90.5,-952.5 90.5,-952.5 275.5,-952.5 275.5,-952.5 90.5,-952.5"/>
<polygon fill="#666666" stroke="#666666" points="90.5,-937.5 90.5,-937.5 275.5,-937.5 275.5,-937.5 90.5,-937.5"/>
<polygon fill="none" stroke="#666666" points="90,-741 90,-970 275,-970 275,-741 90,-741"/>
</a>
</g>
</g>
<!-- Node2&#45;&gt;Node1 -->
<g id="edge1_Node000001_Node000002" class="edge">
<title>Node2&#45;&gt;Node1</title>
<g id="a_edge1_Node000001_Node000002"><a xlink:title=" ">
<path fill="none" stroke="#63b8ff" d="M182.5,-730.47C182.5,-722.08 182.5,-713.59 182.5,-705.11"/>
<polygon fill="none" stroke="#63b8ff" points="179,-730.64 182.5,-740.64 186,-730.64 179,-730.64"/>
</a>
</g>
</g>
<!-- Node3 -->
<g id="Node000003" class="node">
<title>Node3</title>
<g id="a_Node000003"><a xlink:href="../../d2/d2a/class_hydro_couple_1_1_i_identity.html" target="_top" xlink:title="IIdentity interface class defines a method to get the Id of an HydroCouple entity.">
<polygon fill="white" stroke="transparent" points="160.5,-1103.5 40.5,-1103.5 40.5,-1039.5 160.5,-1039.5 160.5,-1103.5"/>
<text text-anchor="start" x="45.5" y="-1091.5" font-family="Monaco" font-size="10.00">HydroCouple::IIdentity</text>
<text text-anchor="start" x="98.5" y="-1076.5" font-family="Monaco" font-size="10.00"> </text>
<text text-anchor="start" x="55" y="-1061.5" font-family="Monaco" font-size="10.00">+</text>
<text text-anchor="start" x="78.5" y="-1061.5" font-family="Monaco" font-size="10.00">~IIdentity()</text>
<text text-anchor="start" x="55" y="-1046.5" font-family="Monaco" font-size="10.00">+</text>
<text text-anchor="start" x="78.5" y="-1046.5" font-family="Monaco" font-size="10.00">id()</text>
<polygon fill="#666666" stroke="#666666" points="40.5,-1086.5 40.5,-1086.5 160.5,-1086.5 160.5,-1086.5 40.5,-1086.5"/>
<polygon fill="#666666" stroke="#666666" points="40.5,-1071.5 40.5,-1071.5 160.5,-1071.5 160.5,-1071.5 40.5,-1071.5"/>
<polygon fill="none" stroke="#666666" points="40.5,-1039.5 40.5,-1103.5 160.5,-1103.5 160.5,-1039.5 40.5,-1039.5"/>
</a>
</g>
</g>
<!-- Node3&#45;&gt;Node2 -->
<g id="edge2_Node000002_Node000003" class="edge">
<title>Node3&#45;&gt;Node2</title>
<g id="a_edge2_Node000002_Node000003"><a xlink:title=" ">
<path fill="none" stroke="#63b8ff" d="M116.13,-1029.71C122.72,-1012.5 130.76,-991.52 138.94,-970.19"/>
<polygon fill="none" stroke="#63b8ff" points="112.73,-1028.79 112.42,-1039.38 119.27,-1031.3 112.73,-1028.79"/>
</a>
</g>
</g>
<!-- Node4 -->
<g id="Node000004" class="node">
<title>Node4</title>
<g id="a_Node000004"><a xlink:href="../../db/d64/class_hydro_couple_1_1_i_description.html" target="_top" xlink:title="IDescription interface class provides descriptive information on a HydroCouple object.">
<polygon fill="white" stroke="transparent" points="169.5,-1282 31.5,-1282 31.5,-1173 169.5,-1173 169.5,-1282"/>
<text text-anchor="start" x="36.5" y="-1269.5" font-family="Monaco" font-size="10.00">HydroCouple::IDescription</text>
<text text-anchor="start" x="98.5" y="-1254.5" font-family="Monaco" font-size="10.00"> </text>
<text text-anchor="start" x="45" y="-1239.5" font-family="Monaco" font-size="10.00">+</text>
<text text-anchor="start" x="67.5" y="-1239.5" font-family="Monaco" font-size="10.00">~IDescription()</text>
<text text-anchor="start" x="45" y="-1224.5" font-family="Monaco" font-size="10.00">+</text>
<text text-anchor="start" x="67.5" y="-1224.5" font-family="Monaco" font-size="10.00">caption()</text>
<text text-anchor="start" x="45" y="-1209.5" font-family="Monaco" font-size="10.00">+</text>
<text text-anchor="start" x="67.5" y="-1209.5" font-family="Monaco" font-size="10.00">setCaption()</text>
<text text-anchor="start" x="45" y="-1194.5" font-family="Monaco" font-size="10.00">+</text>
<text text-anchor="start" x="67.5" y="-1194.5" font-family="Monaco" font-size="10.00">description()</text>
<text text-anchor="start" x="45" y="-1179.5" font-family="Monaco" font-size="10.00">+</text>
<text text-anchor="start" x="67.5" y="-1179.5" font-family="Monaco" font-size="10.00">setDescription()</text>
<polygon fill="#666666" stroke="#666666" points="31.5,-1264.5 31.5,-1264.5 169.5,-1264.5 169.5,-1264.5 31.5,-1264.5"/>
<polygon fill="#666666" stroke="#666666" points="31.5,-1249.5 31.5,-1249.5 169.5,-1249.5 169.5,-1249.5 31.5,-1249.5"/>
<polygon fill="none" stroke="#666666" points="31.5,-1173 31.5,-1282 169.5,-1282 169.5,-1173 31.5,-1173"/>
</a>
</g>
</g>
<!-- Node4&#45;&gt;Node3 -->
<g id="edge3_Node000003_Node000004" class="edge">
<title>Node4&#45;&gt;Node3</title>
<g id="a_edge3_Node000003_Node000004"><a xlink:title=" ">
<path fill="none" stroke="#63b8ff" d="M100.5,-1162.47C100.5,-1142.15 100.5,-1120.58 100.5,-1103.66"/>
<polygon fill="none" stroke="#63b8ff" points="97,-1162.64 100.5,-1172.64 104,-1162.64 97,-1162.64"/>
</a>
</g>
</g>
<!-- Node5 -->
<g id="Node000005" class="node">
<title>Node5</title>
<g id="a_Node000005"><a xlink:href="../../dd/dbf/class_hydro_couple_1_1_i_property_changed.html" target="_top" xlink:title="IPropertyChanged interface is used to emit signal/event when a property of an object changes.">
<polygon fill="white" stroke="transparent" points="184,-1367 17,-1367 17,-1318 184,-1318 184,-1367"/>
<text text-anchor="start" x="22.5" y="-1354.5" font-family="Monaco" font-size="10.00">HydroCouple::IPropertyChanged</text>
<text text-anchor="start" x="99" y="-1339.5" font-family="Monaco" font-size="10.00"> </text>
<text text-anchor="start" x="32" y="-1324.5" font-family="Monaco" font-size="10.00">+</text>
<text text-anchor="start" x="55.5" y="-1324.5" font-family="Monaco" font-size="10.00">~IPropertyChanged()</text>
<polygon fill="#666666" stroke="#666666" points="17.5,-1349.5 17.5,-1349.5 184.5,-1349.5 184.5,-1349.5 17.5,-1349.5"/>
<polygon fill="#666666" stroke="#666666" points="17.5,-1334.5 17.5,-1334.5 184.5,-1334.5 184.5,-1334.5 17.5,-1334.5"/>
<polygon fill="none" stroke="#666666" points="17,-1318 17,-1367 184,-1367 184,-1318 17,-1318"/>
</a>
</g>
</g>
<!-- Node5&#45;&gt;Node4 -->
<g id="edge4_Node000004_Node000005" class="edge">
<title>Node5&#45;&gt;Node4</title>
<g id="a_edge4_Node000004_Node000005"><a xlink:title=" ">
<path fill="none" stroke="#63b8ff" d="M100.5,-1307.79C100.5,-1299.79 100.5,-1291.06 100.5,-1282.41"/>
<polygon fill="none" stroke="#63b8ff" points="97,-1307.81 100.5,-1317.81 104,-1307.81 97,-1307.81"/>
</a>
</g>
</g>
<!-- Node6 -->
<g id="Node000006" class="node">
<title>Node6</title>
<g id="a_Node000006"><a xlink:href="../../d5/d8b/class_hydro_couple_1_1_i_signal.html" target="_top" xlink:title=" ">
<polygon fill="white" stroke="transparent" points="157,-1523 44,-1523 44,-1403 157,-1403 157,-1523"/>
<text text-anchor="start" x="49.5" y="-1511" font-family="Monaco" font-size="10.00">HydroCouple::ISignal</text>
<text text-anchor="start" x="75.5" y="-1500" font-family="Monaco" font-size="10.00">&lt; string &gt;</text>
<text text-anchor="start" x="99" y="-1485" font-family="Monaco" font-size="10.00"> </text>
<text text-anchor="start" x="54" y="-1470" font-family="Monaco" font-size="10.00">+</text>
<text text-anchor="start" x="72.5" y="-1470" font-family="Monaco" font-size="10.00">~ISignal()</text>
<text text-anchor="start" x="54" y="-1455" font-family="Monaco" font-size="10.00">+</text>
<text text-anchor="start" x="72.5" y="-1455" font-family="Monaco" font-size="10.00">connect()</text>
<text text-anchor="start" x="54" y="-1440" font-family="Monaco" font-size="10.00">+</text>
<text text-anchor="start" x="72.5" y="-1440" font-family="Monaco" font-size="10.00">disconnect()</text>
<text text-anchor="start" x="54" y="-1425" font-family="Monaco" font-size="10.00">+</text>
<text text-anchor="start" x="72.5" y="-1425" font-family="Monaco" font-size="10.00">blockSignals()</text>
<text text-anchor="start" x="54" y="-1410" font-family="Monaco" font-size="10.00">#</text>
<text text-anchor="start" x="72.5" y="-1410" font-family="Monaco" font-size="10.00">emit()</text>
<polygon fill="#666666" stroke="#666666" points="44.5,-1495 44.5,-1495 157.5,-1495 157.5,-1495 44.5,-1495"/>
<polygon fill="#666666" stroke="#666666" points="44.5,-1480 44.5,-1480 157.5,-1480 157.5,-1480 44.5,-1480"/>
<polygon fill="none" stroke="#666666" points="44,-1403 44,-1523 157,-1523 157,-1403 44,-1403"/>
</a>
</g>
</g>
<!-- Node6&#45;&gt;Node5 -->
<g id="edge5_Node000005_Node000006" class="edge">
<title>Node6&#45;&gt;Node5</title>
<g id="a_edge5_Node000005_Node000006"><a xlink:title=" ">
<path fill="none" stroke="#63b8ff" d="M100.5,-1392.74C100.5,-1383.6 100.5,-1374.78 100.5,-1367.2"/>
<polygon fill="none" stroke="#63b8ff" points="97,-1392.75 100.5,-1402.75 104,-1392.75 97,-1392.75"/>
</a>
</g>
</g>
<!-- Node7 -->
<g id="Node000007" class="node">
<title>Node7</title>
<g id="a_Node000007"><a xlink:href="../../d5/d8b/class_hydro_couple_1_1_i_signal.html" target="_top" xlink:title=" ">
<polygon fill="white" stroke="transparent" points="352,-1137 179,-1137 179,-1006 352,-1006 352,-1137"/>
<text text-anchor="start" x="184.5" y="-1124.5" font-family="Monaco" font-size="10.00">HydroCouple::ISignal</text>
<text text-anchor="start" x="184.5" y="-1113.5" font-family="Monaco" font-size="10.00">&lt; const shared_ptr&lt; IComponent</text>
<text text-anchor="start" x="191.5" y="-1102.5" font-family="Monaco" font-size="10.00">DataItemValueChanged &gt; &amp; &gt;</text>
<text text-anchor="start" x="264" y="-1087.5" font-family="Monaco" font-size="10.00"> </text>
<text text-anchor="start" x="204" y="-1072.5" font-family="Monaco" font-size="10.00">+</text>
<text text-anchor="start" x="237.5" y="-1072.5" font-family="Monaco" font-size="10.00">~ISignal()</text>
<text text-anchor="start" x="204" y="-1057.5" font-family="Monaco" font-size="10.00">+</text>
<text text-anchor="start" x="237.5" y="-1057.5" font-family="Monaco" font-size="10.00">connect()</text>
<text text-anchor="start" x="204" y="-1042.5" font-family="Monaco" font-size="10.00">+</text>
<text text-anchor="start" x="237.5" y="-1042.5" font-family="Monaco" font-size="10.00">disconnect()</text>
<text text-anchor="start" x="204" y="-1027.5" font-family="Monaco" font-size="10.00">+</text>
<text text-anchor="start" x="237.5" y="-1027.5" font-family="Monaco" font-size="10.00">blockSignals()</text>
<text text-anchor="start" x="204" y="-1012.5" font-family="Monaco" font-size="10.00">#</text>
<text text-anchor="start" x="237.5" y="-1012.5" font-family="Monaco" font-size="10.00">emit()</text>
<polygon fill="#666666" stroke="#666666" points="179.5,-1097.5 179.5,-1097.5 352.5,-1097.5 352.5,-1097.5 179.5,-1097.5"/>
<polygon fill="#666666" stroke="#666666" points="179.5,-1082.5 179.5,-1082.5 352.5,-1082.5 352.5,-1082.5 179.5,-1082.5"/>
<polygon fill="none" stroke="#666666" points="179,-1006 179,-1137 352,-1137 352,-1006 179,-1006"/>
</a>
</g>
</g>
<!-- Node7&#45;&gt;Node2 -->
<g id="edge6_Node000002_Node000007" class="edge">
<title>Node7&#45;&gt;Node2</title>
<g id="a_edge6_Node000002_Node000007"><a xlink:title=" ">
<path fill="none" stroke="#63b8ff" d="M236.71,-996.27C233.42,-987.79 230.01,-978.99 226.58,-970.14"/>
<polygon fill="none" stroke="#63b8ff" points="233.49,-997.65 240.37,-1005.71 240.02,-995.12 233.49,-997.65"/>
</a>
</g>
</g>
<!-- Node10 -->
<g id="Node000010" class="node">
<title>Node10</title>
<g id="a_Node000010"><a xlink:href="../../d9/d7e/class_hydro_couple_1_1_spatio_temporal_1_1_i_time_series_t_i_n_component_data_item.html" target="_top" xlink:title="The ITINComponentItem class.">
<polygon fill="white" stroke="transparent" points="383,-86 190,-86 190,0 383,0 383,-86"/>
<text text-anchor="start" x="195.5" y="-74" font-family="Monaco" font-size="10.00">HydroCouple::SpatioTemporal</text>
<text text-anchor="start" x="195.5" y="-63" font-family="Monaco" font-size="10.00">::ITimeSeriesTINComponentDataItem</text>
<text text-anchor="start" x="285" y="-48" font-family="Monaco" font-size="10.00"> </text>
<text text-anchor="start" x="202.5" y="-33" font-family="Monaco" font-size="10.00">+</text>
<text text-anchor="start" x="223.5" y="-33" font-family="Monaco" font-size="10.00">~ITimeSeriesTINComponent</text>
<text text-anchor="start" x="223.5" y="-22" font-family="Monaco" font-size="10.00">DataItem()</text>
<text text-anchor="start" x="202.5" y="-7" font-family="Monaco" font-size="10.00">+</text>
<text text-anchor="start" x="223.5" y="-7" font-family="Monaco" font-size="10.00">TIN()</text>
<polygon fill="#666666" stroke="#666666" points="190.5,-58 190.5,-58 383.5,-58 383.5,-58 190.5,-58"/>
<polygon fill="#666666" stroke="#666666" points="190.5,-43 190.5,-43 383.5,-43 383.5,-43 190.5,-43"/>
<polygon fill="none" stroke="#666666" points="190,0 190,-86 383,-86 383,0 190,0"/>
</a>
</g>
</g>
<!-- Node9&#45;&gt;Node10 -->
<g id="edge9_Node000009_Node000010" class="edge">
<title>Node9&#45;&gt;Node10</title>
<g id="a_edge9_Node000009_Node000010"><a xlink:title=" ">
<path fill="none" stroke="#63b8ff" d="M286.5,-168.22C286.5,-140.23 286.5,-109.93 286.5,-86.27"/>
<polygon fill="none" stroke="#63b8ff" points="283,-168.41 286.5,-178.41 290,-168.41 283,-168.41"/>
</a>
</g>
</g>
</g>
</svg>

<g id="navigator" transform="translate(0 0)" fill="#404254">
  <rect fill="#f2f5e9" fill-opacity="0.5" stroke="#606060" stroke-width=".5" x="0" y="0" width="60" height="60"/>
  <use id="zoomplus" xlink:href="#zoomPlus" x="17" y="9" onmousedown="handleZoom(evt,'in')"/>
  <use id="zoomminus" xlink:href="#zoomMin" x="42" y="9" onmousedown="handleZoom(evt,'out')"/>
  <use id="reset" xlink:href="#resetDef" x="30" y="36" onmousedown="handleReset()"/>
   <use id="arrowup" xlink:href="#arrowUp" x="0" y="0" onmousedown="handlePan(0,-1)"/>
  <use id="arrowright" xlink:href="#arrowRight" x="0" y="0" onmousedown="handlePan(1,0)"/>
  <use id="arrowdown" xlink:href="#arrowDown" x="0" y="0" onmousedown="handlePan(0,1)"/>
  <use id="arrowleft" xlink:href="#arrowLeft" x="0" y="0" onmousedown="handlePan(-1,0)"/>
</g>
<svg viewBox="0 0 15 15" width="100%" height="30px" preserveAspectRatio="xMaxYMin meet">
 <g id="arrow_out" transform="scale(0.3 0.3)">
  <a xlink:href="class_hydro_couple_1_1_spatial_1_1_i_polyhedral_surface_component_data_item__inherit__graph_org.svg" target="_base">
   <rect id="button" ry="5" rx="5" y="6" x="6" height="38" width="38"
        fill="#f2f5e9" fill-opacity="0.5" stroke="#606060" stroke-width="1.0"/>
   <path id="arrow"
     d="M 11.500037,31.436501 C 11.940474,20.09759 22.043105,11.32322 32.158766,21.979434 L 37.068811,17.246167 C 37.068811,17.246167 37.088388,32 37.088388,32 L 22.160133,31.978069 C 22.160133,31.978069 26.997745,27.140456 26.997745,27.140456 C 18.528582,18.264221 13.291696,25.230495 11.500037,31.436501 z"
     style="fill:#404040;"/>
  </a>
 </g>
</svg>

<style type='text/css'>
<![CDATA[
[data-mouse-over-selected='false'] { opacity: 0.7; }
[data-mouse-over-selected='true']  { opacity: 1.0; }
]]>
</style>
<script type="application/ecmascript"><![CDATA[
document.addEventListener('DOMContentLoaded', (event) => {
  highlightEdges();
  highlightAdjacentNodes();
});
]]></script>
</svg>
