<?xml version="1.0" encoding="UTF-8" standalone="no"?>
<!DOCTYPE svg PUBLIC "-//W3C//DTD SVG 1.1//EN"
 "http://www.w3.org/Graphics/SVG/1.1/DTD/svg11.dtd">
<!-- Generated by graphviz version 2.43.0 (0)
 -->
<!-- Title: /home/runner/work/HydroCouple/HydroCouple/HydroCouple/include/hydrocouplespatiotemporal.h Pages: 1 -->
<svg width="276pt" height="218pt"
 viewBox="0.00 0.00 275.50 218.00" xmlns="http://www.w3.org/2000/svg" xmlns:xlink="http://www.w3.org/1999/xlink">
<g id="graph0" class="graph" transform="scale(1 1) rotate(0) translate(4 214)">
<title>/home/runner/work/HydroCouple/HydroCouple/HydroCouple/include/hydrocouplespatiotemporal.h</title>
<!-- Node1 -->
<g id="node1" class="node">
<title>Node1</title>
<g id="a_node1"><a xlink:title=" ">
<polygon fill="#bfbfbf" stroke="black" points="35.5,-168.5 35.5,-209.5 236.5,-209.5 236.5,-168.5 35.5,-168.5"/>
<text text-anchor="start" x="43.5" y="-197.5" font-family="Monaco" font-size="10.00">/home/runner/work/HydroCouple</text>
<text text-anchor="start" x="43.5" y="-186.5" font-family="Monaco" font-size="10.00">/HydroCouple/HydroCouple</text>
<text text-anchor="middle" x="136" y="-175.5" font-family="Monaco" font-size="10.00">/include/hydrocouplespatiotemporal.h</text>
</a>
</g>
</g>
<!-- Node2 -->
<g id="node2" class="node">
<title>Node2</title>
<g id="a_node2"><a xlink:href="../../d9/dc7/hydrocoupletemporal_8h.html" target="_top" xlink:title=" ">
<polygon fill="none" stroke="black" points="0,-112.5 0,-131.5 130,-131.5 130,-112.5 0,-112.5"/>
<text text-anchor="middle" x="65" y="-119.5" font-family="Monaco" font-size="10.00">hydrocoupletemporal.h</text>
</a>
</g>
</g>
<!-- Node1&#45;&gt;Node2 -->
<g id="edge1" class="edge">
<title>Node1&#45;&gt;Node2</title>
<path fill="none" stroke="midnightblue" d="M114.7,-168.5C104.23,-158.92 91.79,-147.53 81.98,-138.54"/>
<polygon fill="midnightblue" stroke="midnightblue" points="84.19,-135.82 74.45,-131.65 79.46,-140.99 84.19,-135.82"/>
</g>
<!-- Node8 -->
<g id="node8" class="node">
<title>Node8</title>
<g id="a_node8"><a xlink:href="../../dc/deb/hydrocouplespatial_8h.html" target="_top" xlink:title=" ">
<polygon fill="none" stroke="black" points="148.5,-112.5 148.5,-131.5 267.5,-131.5 267.5,-112.5 148.5,-112.5"/>
<text text-anchor="middle" x="208" y="-119.5" font-family="Monaco" font-size="10.00">hydrocouplespatial.h</text>
</a>
</g>
</g>
<!-- Node1&#45;&gt;Node8 -->
<g id="edge7" class="edge">
<title>Node1&#45;&gt;Node8</title>
<path fill="none" stroke="midnightblue" d="M157.6,-168.5C168.22,-158.92 180.83,-147.53 190.78,-138.54"/>
<polygon fill="midnightblue" stroke="midnightblue" points="193.34,-140.95 198.42,-131.65 188.65,-135.76 193.34,-140.95"/>
</g>
<!-- Node3 -->
<g id="node3" class="node">
<title>Node3</title>
<g id="a_node3"><a xlink:href="../../d1/d36/hydrocouple_8h.html" target="_top" xlink:title=" ">
<polygon fill="none" stroke="black" points="93,-56.5 93,-75.5 179,-75.5 179,-56.5 93,-56.5"/>
<text text-anchor="middle" x="136" y="-63.5" font-family="Monaco" font-size="10.00">hydrocouple.h</text>
</a>
</g>
</g>
<!-- Node2&#45;&gt;Node3 -->
<g id="edge2" class="edge">
<title>Node2&#45;&gt;Node3</title>
<path fill="none" stroke="midnightblue" d="M76.41,-112.32C87.11,-104.18 103.34,-91.84 116.16,-82.09"/>
<polygon fill="midnightblue" stroke="midnightblue" points="118.54,-84.67 124.39,-75.83 114.31,-79.1 118.54,-84.67"/>
</g>
<!-- Node4 -->
<g id="node4" class="node">
<title>Node4</title>
<g id="a_node4"><a xlink:title=" ">
<polygon fill="none" stroke="#bfbfbf" points="17.5,-0.5 17.5,-19.5 52.5,-19.5 52.5,-0.5 17.5,-0.5"/>
<text text-anchor="middle" x="35" y="-7.5" font-family="Monaco" font-size="10.00">any</text>
</a>
</g>
</g>
<!-- Node3&#45;&gt;Node4 -->
<g id="edge3" class="edge">
<title>Node3&#45;&gt;Node4</title>
<path fill="none" stroke="midnightblue" d="M119.77,-56.32C103.65,-47.7 78.7,-34.36 60.04,-24.39"/>
<polygon fill="midnightblue" stroke="midnightblue" points="61.66,-21.28 51.19,-19.65 58.36,-27.46 61.66,-21.28"/>
</g>
<!-- Node5 -->
<g id="node5" class="node">
<title>Node5</title>
<g id="a_node5"><a xlink:title=" ">
<polygon fill="none" stroke="#bfbfbf" points="70.5,-0.5 70.5,-19.5 135.5,-19.5 135.5,-0.5 70.5,-0.5"/>
<text text-anchor="middle" x="103" y="-7.5" font-family="Monaco" font-size="10.00">functional</text>
</a>
</g>
</g>
<!-- Node3&#45;&gt;Node5 -->
<g id="edge4" class="edge">
<title>Node3&#45;&gt;Node5</title>
<path fill="none" stroke="midnightblue" d="M130.55,-56.08C125.99,-48.61 119.33,-37.72 113.71,-28.52"/>
<polygon fill="midnightblue" stroke="midnightblue" points="116.55,-26.46 108.35,-19.75 110.58,-30.11 116.55,-26.46"/>
</g>
<!-- Node6 -->
<g id="node6" class="node">
<title>Node6</title>
<g id="a_node6"><a xlink:title=" ">
<polygon fill="none" stroke="#bfbfbf" points="154,-0.5 154,-19.5 186,-19.5 186,-0.5 154,-0.5"/>
<text text-anchor="middle" x="170" y="-7.5" font-family="Monaco" font-size="10.00">list</text>
</a>
</g>
</g>
<!-- Node3&#45;&gt;Node6 -->
<g id="edge5" class="edge">
<title>Node3&#45;&gt;Node6</title>
<path fill="none" stroke="midnightblue" d="M141.61,-56.08C146.37,-48.53 153.32,-37.49 159.15,-28.23"/>
<polygon fill="midnightblue" stroke="midnightblue" points="162.12,-30.08 164.49,-19.75 156.2,-26.35 162.12,-30.08"/>
</g>
<!-- Node7 -->
<g id="node7" class="node">
<title>Node7</title>
<g id="a_node7"><a xlink:title=" ">
<polygon fill="none" stroke="#bfbfbf" points="204,-0.5 204,-19.5 236,-19.5 236,-0.5 204,-0.5"/>
<text text-anchor="middle" x="220" y="-7.5" font-family="Monaco" font-size="10.00">set</text>
</a>
</g>
</g>
<!-- Node3&#45;&gt;Node7 -->
<g id="edge6" class="edge">
<title>Node3&#45;&gt;Node7</title>
<path fill="none" stroke="midnightblue" d="M149.5,-56.32C162.6,-47.9 182.71,-34.97 198.11,-25.07"/>
<polygon fill="midnightblue" stroke="midnightblue" points="200.02,-28.01 206.54,-19.65 196.23,-22.12 200.02,-28.01"/>
</g>
<!-- Node8&#45;&gt;Node3 -->
<g id="edge8" class="edge">
<title>Node8&#45;&gt;Node3</title>
<path fill="none" stroke="midnightblue" d="M196.43,-112.32C185.58,-104.18 169.12,-91.84 156.12,-82.09"/>
<polygon fill="midnightblue" stroke="midnightblue" points="157.88,-79.03 147.78,-75.83 153.68,-84.63 157.88,-79.03"/>
</g>
</g>
</svg>
