<?xml version="1.0" encoding="UTF-8" standalone="no"?>
<!DOCTYPE svg PUBLIC "-//W3C//DTD SVG 1.1//EN"
 "http://www.w3.org/Graphics/SVG/1.1/DTD/svg11.dtd">
<!-- Generated by graphviz version 2.43.0 (0)
 -->
<!-- Title: HydroCouple::SpatioTemporal::ITimePolyhedralSurfaceComponentDataItem Pages: 1 -->
<!--zoomable 910 -->
<svg id="main" version="1.1" xmlns="http://www.w3.org/2000/svg" xmlns:xlink="http://www.w3.org/1999/xlink" xml:space="preserve" onload="init(evt)">
<style type="text/css"><![CDATA[
.edge:hover path { stroke: red; }
.edge:hover polygon { stroke: red; fill: red; }
]]></style>
<script type="text/javascript"><![CDATA[
var edges = document.getElementsByTagName('g');
if (edges && edges.length) {
  for (var i=0;i<edges.length;i++) {
    if (edges[i].id.substr(0,4)=='edge') {
      edges[i].setAttribute('class','edge');
    }
  }
}
]]></script>
        <defs>
                <circle id="rim" cx="0" cy="0" r="7"/>
                <circle id="rim2" cx="0" cy="0" r="3.5"/>
                <g id="zoomPlus">
                        <use xlink:href="#rim" fill="#404040">
                                <set attributeName="fill" to="#808080" begin="zoomplus.mouseover" end="zoomplus.mouseout"/>
                        </use>
                        <path d="M-4,0h8M0,-4v8" fill="none" stroke="white" stroke-width="1.5" pointer-events="none"/>
                </g>
                <g id="zoomMin">
                        <use xlink:href="#rim" fill="#404040">
                                <set attributeName="fill" to="#808080" begin="zoomminus.mouseover" end="zoomminus.mouseout"/>
                        </use>
                        <path d="M-4,0h8" fill="none" stroke="white" stroke-width="1.5" pointer-events="none"/>
                </g>
                <g id="dirArrow">
                        <path fill="none" stroke="white" stroke-width="1.5" d="M0,-3.0v7 M-2.5,-0.5L0,-3.0L2.5,-0.5"/>
                </g>
               <g id="resetDef">
                       <use xlink:href="#rim2" fill="#404040">
                               <set attributeName="fill" to="#808080" begin="reset.mouseover" end="reset.mouseout"/>
                       </use>
               </g>
        </defs>

<script type="text/javascript">
var viewWidth = 217;
var viewHeight = 910;
var sectionId = 'dynsection-1';
</script>
<script xlink:href="../../svgpan.js"/>
<svg id="graph" class="graph">
<g id="viewport">
<title>HydroCouple::SpatioTemporal::ITimePolyhedralSurfaceComponentDataItem</title>
<!-- Node1 -->
<g id="node1" class="node">
<title>Node1</title>
<g id="a_node1"><a xlink:title="The ITimePolyhedralSurfaceComponentItem class.">
<polygon fill="#bfbfbf" stroke="black" points="0,-0.5 0,-167.5 209,-167.5 209,-0.5 0,-0.5"/>
<text text-anchor="start" x="8" y="-155.5" font-family="Monaco" font-size="10.00">HydroCouple::SpatioTemporal</text>
<text text-anchor="start" x="8" y="-144.5" font-family="Monaco" font-size="10.00">::ITimePolyhedralSurfaceComponent</text>
<text text-anchor="middle" x="104.5" y="-133.5" font-family="Monaco" font-size="10.00">DataItem</text>
<polyline fill="none" stroke="black" points="0,-126.5 209,-126.5 "/>
<text text-anchor="middle" x="104.5" y="-114.5" font-family="Monaco" font-size="10.00"> </text>
<polyline fill="none" stroke="black" points="0,-107.5 209,-107.5 "/>
<text text-anchor="start" x="8" y="-95.5" font-family="Monaco" font-size="10.00">+ ~ITimePolyhedralSurfaceComponent</text>
<text text-anchor="start" x="8" y="-84.5" font-family="Monaco" font-size="10.00">DataItem()</text>
<text text-anchor="start" x="8" y="-73.5" font-family="Monaco" font-size="10.00">+ meshDataType()</text>
<text text-anchor="start" x="8" y="-62.5" font-family="Monaco" font-size="10.00">+ polyhedralSurface()</text>
<text text-anchor="start" x="8" y="-51.5" font-family="Monaco" font-size="10.00">+ cellDimension()</text>
<text text-anchor="start" x="8" y="-40.5" font-family="Monaco" font-size="10.00">+ edgeDimension()</text>
<text text-anchor="start" x="8" y="-29.5" font-family="Monaco" font-size="10.00">+ nodeDimension()</text>
<text text-anchor="start" x="8" y="-18.5" font-family="Monaco" font-size="10.00">+ getValue()</text>
<text text-anchor="start" x="8" y="-7.5" font-family="Monaco" font-size="10.00">+ setValue()</text>
</a>
</g>
</g>
<!-- Node2 -->
<g id="node2" class="node">
<title>Node2</title>
<g id="a_node2"><a xlink:href="../../d9/d05/class_hydro_couple_1_1_temporal_1_1_i_time_component_data_item.html" target="_top" xlink:title="ITimeComponentItem is an IComponentItem with a temporal attribute. This class cannot be directly inst...">
<polygon fill="none" stroke="black" points="18,-204.5 18,-327.5 191,-327.5 191,-204.5 18,-204.5"/>
<text text-anchor="start" x="26" y="-315.5" font-family="Monaco" font-size="10.00">HydroCouple::Temporal</text>
<text text-anchor="middle" x="104.5" y="-304.5" font-family="Monaco" font-size="10.00">::ITimeComponentDataItem</text>
<polyline fill="none" stroke="black" points="18,-297.5 191,-297.5 "/>
<text text-anchor="middle" x="104.5" y="-285.5" font-family="Monaco" font-size="10.00"> </text>
<polyline fill="none" stroke="black" points="18,-278.5 191,-278.5 "/>
<text text-anchor="start" x="26" y="-266.5" font-family="Monaco" font-size="10.00">+ ~ITimeComponentDataItem()</text>
<text text-anchor="start" x="26" y="-255.5" font-family="Monaco" font-size="10.00">+ times()</text>
<text text-anchor="start" x="26" y="-244.5" font-family="Monaco" font-size="10.00">+ time()</text>
<text text-anchor="start" x="26" y="-233.5" font-family="Monaco" font-size="10.00">+ timeCount()</text>
<text text-anchor="start" x="26" y="-222.5" font-family="Monaco" font-size="10.00">+ timeSpan()</text>
<text text-anchor="start" x="26" y="-211.5" font-family="Monaco" font-size="10.00">+ timeDimension()</text>
</a>
</g>
</g>
<!-- Node2&#45;&gt;Node1 -->
<g id="edge1" class="edge">
<title>Node2&#45;&gt;Node1</title>
<path fill="none" stroke="midnightblue" d="M104.5,-194.25C104.5,-185.57 104.5,-176.63 104.5,-167.79"/>
<polygon fill="none" stroke="midnightblue" points="101,-194.31 104.5,-204.31 108,-194.31 101,-194.31"/>
</g>
<!-- Node3 -->
<g id="node3" class="node">
<title>Node3</title>
<g id="a_node3"><a xlink:href="../../d8/d52/class_hydro_couple_1_1_i_component_data_item.html" target="_top" xlink:title="IComponentItem is a fundamental unit of data for a component.">
<polygon fill="none" stroke="black" points="9,-364.5 9,-531.5 200,-531.5 200,-364.5 9,-364.5"/>
<text text-anchor="middle" x="104.5" y="-519.5" font-family="Monaco" font-size="10.00">HydroCouple::IComponentDataItem</text>
<polyline fill="none" stroke="black" points="9,-512.5 200,-512.5 "/>
<text text-anchor="middle" x="104.5" y="-500.5" font-family="Monaco" font-size="10.00"> </text>
<polyline fill="none" stroke="black" points="9,-493.5 200,-493.5 "/>
<text text-anchor="start" x="17" y="-481.5" font-family="Monaco" font-size="10.00">+ ~IComponentDataItem()</text>
<text text-anchor="start" x="17" y="-470.5" font-family="Monaco" font-size="10.00">+ modelComponent()</text>
<text text-anchor="start" x="17" y="-459.5" font-family="Monaco" font-size="10.00">+ dimensions()</text>
<text text-anchor="start" x="17" y="-448.5" font-family="Monaco" font-size="10.00">+ dimensionLength()</text>
<text text-anchor="start" x="17" y="-437.5" font-family="Monaco" font-size="10.00">+ valueDefinition()</text>
<text text-anchor="start" x="17" y="-426.5" font-family="Monaco" font-size="10.00">+ getValue()</text>
<text text-anchor="start" x="17" y="-415.5" font-family="Monaco" font-size="10.00">+ setValue()</text>
<text text-anchor="start" x="17" y="-404.5" font-family="Monaco" font-size="10.00">+ hasEditor()</text>
<text text-anchor="start" x="17" y="-393.5" font-family="Monaco" font-size="10.00">+ showEditor()</text>
<text text-anchor="start" x="17" y="-382.5" font-family="Monaco" font-size="10.00">+ hasViewer()</text>
<text text-anchor="start" x="17" y="-371.5" font-family="Monaco" font-size="10.00">+ showViewer()</text>
</a>
</g>
</g>
<!-- Node3&#45;&gt;Node2 -->
<g id="edge2" class="edge">
<title>Node3&#45;&gt;Node2</title>
<path fill="none" stroke="midnightblue" d="M104.5,-354.19C104.5,-345.17 104.5,-336.19 104.5,-327.61"/>
<polygon fill="none" stroke="midnightblue" points="101,-354.38 104.5,-364.38 108,-354.38 101,-354.38"/>
</g>
<!-- Node4 -->
<g id="node4" class="node">
<title>Node4</title>
<g id="a_node4"><a xlink:href="../../d2/d2a/class_hydro_couple_1_1_i_identity.html" target="_top" xlink:title="IIdentity interface class defines a method to get the Id of an HydroCouple entity.">
<polygon fill="none" stroke="black" points="41.5,-568.5 41.5,-636.5 167.5,-636.5 167.5,-568.5 41.5,-568.5"/>
<text text-anchor="middle" x="104.5" y="-624.5" font-family="Monaco" font-size="10.00">HydroCouple::IIdentity</text>
<polyline fill="none" stroke="black" points="41.5,-617.5 167.5,-617.5 "/>
<text text-anchor="middle" x="104.5" y="-605.5" font-family="Monaco" font-size="10.00"> </text>
<polyline fill="none" stroke="black" points="41.5,-598.5 167.5,-598.5 "/>
<text text-anchor="start" x="49.5" y="-586.5" font-family="Monaco" font-size="10.00">+ ~IIdentity()</text>
<text text-anchor="start" x="49.5" y="-575.5" font-family="Monaco" font-size="10.00">+ id()</text>
</a>
</g>
</g>
<!-- Node4&#45;&gt;Node3 -->
<g id="edge3" class="edge">
<title>Node4&#45;&gt;Node3</title>
<path fill="none" stroke="midnightblue" d="M104.5,-558.23C104.5,-549.88 104.5,-540.89 104.5,-531.76"/>
<polygon fill="none" stroke="midnightblue" points="101,-558.41 104.5,-568.41 108,-558.41 101,-558.41"/>
</g>
<!-- Node5 -->
<g id="node5" class="node">
<title>Node5</title>
<g id="a_node5"><a xlink:href="../../db/d64/class_hydro_couple_1_1_i_description.html" target="_top" xlink:title="IDescription interface class provides descriptive information on a HydroCouple object.">
<polygon fill="none" stroke="black" points="32.5,-673.5 32.5,-774.5 176.5,-774.5 176.5,-673.5 32.5,-673.5"/>
<text text-anchor="middle" x="104.5" y="-762.5" font-family="Monaco" font-size="10.00">HydroCouple::IDescription</text>
<polyline fill="none" stroke="black" points="32.5,-755.5 176.5,-755.5 "/>
<text text-anchor="middle" x="104.5" y="-743.5" font-family="Monaco" font-size="10.00"> </text>
<polyline fill="none" stroke="black" points="32.5,-736.5 176.5,-736.5 "/>
<text text-anchor="start" x="40.5" y="-724.5" font-family="Monaco" font-size="10.00">+ ~IDescription()</text>
<text text-anchor="start" x="40.5" y="-713.5" font-family="Monaco" font-size="10.00">+ caption()</text>
<text text-anchor="start" x="40.5" y="-702.5" font-family="Monaco" font-size="10.00">+ setCaption()</text>
<text text-anchor="start" x="40.5" y="-691.5" font-family="Monaco" font-size="10.00">+ description()</text>
<text text-anchor="start" x="40.5" y="-680.5" font-family="Monaco" font-size="10.00">+ setDescription()</text>
</a>
</g>
</g>
<!-- Node5&#45;&gt;Node4 -->
<g id="edge4" class="edge">
<title>Node5&#45;&gt;Node4</title>
<path fill="none" stroke="midnightblue" d="M104.5,-663.17C104.5,-654.11 104.5,-645.05 104.5,-636.83"/>
<polygon fill="none" stroke="midnightblue" points="101,-663.36 104.5,-673.36 108,-663.36 101,-663.36"/>
</g>
<!-- Node6 -->
<g id="node6" class="node">
<title>Node6</title>
<g id="a_node6"><a xlink:href="../../dd/dbf/class_hydro_couple_1_1_i_property_changed.html" target="_top" xlink:title="IPropertyChanged interface is used to emit signal/event when a property of an object changes.">
<polygon fill="none" stroke="black" points="6.5,-811.5 6.5,-901.5 202.5,-901.5 202.5,-811.5 6.5,-811.5"/>
<text text-anchor="middle" x="104.5" y="-889.5" font-family="Monaco" font-size="10.00">HydroCouple::IPropertyChanged</text>
<polyline fill="none" stroke="black" points="6.5,-882.5 202.5,-882.5 "/>
<text text-anchor="middle" x="104.5" y="-870.5" font-family="Monaco" font-size="10.00"> </text>
<polyline fill="none" stroke="black" points="6.5,-863.5 202.5,-863.5 "/>
<text text-anchor="start" x="14.5" y="-851.5" font-family="Monaco" font-size="10.00">+ ~IPropertyChanged()</text>
<text text-anchor="start" x="14.5" y="-840.5" font-family="Monaco" font-size="10.00">+ registerPropertyChangedListener()</text>
<text text-anchor="start" x="14.5" y="-829.5" font-family="Monaco" font-size="10.00">+ deRegisterPropertyChanged</text>
<text text-anchor="start" x="14.5" y="-818.5" font-family="Monaco" font-size="10.00">Listener()</text>
</a>
</g>
</g>
<!-- Node6&#45;&gt;Node5 -->
<g id="edge5" class="edge">
<title>Node6&#45;&gt;Node5</title>
<path fill="none" stroke="midnightblue" d="M104.5,-801.13C104.5,-792.31 104.5,-783.22 104.5,-774.52"/>
<polygon fill="none" stroke="midnightblue" points="101,-801.32 104.5,-811.32 108,-801.32 101,-801.32"/>
</g>
</g>
</svg>
        <g id="navigator" transform="translate(0 0)" fill="#404254">
                <rect fill="#f2f5e9" fill-opacity="0.5" stroke="#606060" stroke-width=".5" x="0" y="0" width="60" height="60"/>
                <use id="zoomplus" xlink:href="#zoomPlus" x="17" y="9" onmousedown="handleZoom(evt,'in')"/>
                <use id="zoomminus" xlink:href="#zoomMin" x="42" y="9" onmousedown="handleZoom(evt,'out')"/>
                <use id="reset" xlink:href="#resetDef" x="30" y="36" onmousedown="handleReset()"/>
                <g id="arrowUp" xlink:href="#dirArrow" transform="translate(30 24)" onmousedown="handlePan(0,-1)">
                  <use xlink:href="#rim" fill="#404040">
                        <set attributeName="fill" to="#808080" begin="arrowUp.mouseover" end="arrowUp.mouseout"/>
                  </use>
                  <path fill="none" stroke="white" stroke-width="1.5" d="M0,-3.0v7 M-2.5,-0.5L0,-3.0L2.5,-0.5"/>
                </g>
                <g id="arrowRight" xlink:href="#dirArrow" transform="rotate(90) translate(36 -43)" onmousedown="handlePan(1,0)">
                  <use xlink:href="#rim" fill="#404040">
                        <set attributeName="fill" to="#808080" begin="arrowRight.mouseover" end="arrowRight.mouseout"/>
                  </use>
                  <path fill="none" stroke="white" stroke-width="1.5" d="M0,-3.0v7 M-2.5,-0.5L0,-3.0L2.5,-0.5"/>
                </g>
                <g id="arrowDown" xlink:href="#dirArrow" transform="rotate(180) translate(-30 -48)" onmousedown="handlePan(0,1)">
                  <use xlink:href="#rim" fill="#404040">
                        <set attributeName="fill" to="#808080" begin="arrowDown.mouseover" end="arrowDown.mouseout"/>
                  </use>
                  <path fill="none" stroke="white" stroke-width="1.5" d="M0,-3.0v7 M-2.5,-0.5L0,-3.0L2.5,-0.5"/>
                </g>
                <g id="arrowLeft" xlink:href="#dirArrow" transform="rotate(270) translate(-36 17)" onmousedown="handlePan(-1,0)">
                  <use xlink:href="#rim" fill="#404040">
                        <set attributeName="fill" to="#808080" begin="arrowLeft.mouseover" end="arrowLeft.mouseout"/>
                  </use>
                  <path fill="none" stroke="white" stroke-width="1.5" d="M0,-3.0v7 M-2.5,-0.5L0,-3.0L2.5,-0.5"/>
                </g>
        </g>
        <svg viewBox="0 0 15 15" width="100%" height="30px" preserveAspectRatio="xMaxYMin meet">
         <g id="arrow_out" transform="scale(0.3 0.3)">
          <a xlink:href="class_hydro_couple_1_1_spatio_temporal_1_1_i_time_polyhedral_surface_component_data_item__coll__graph_org.svg" target="_base">
           <rect id="button" ry="5" rx="5" y="6" x="6" height="38" width="38"
                fill="#f2f5e9" fill-opacity="0.5" stroke="#606060" stroke-width="1.0"/>
           <path id="arrow"
             d="M 11.500037,31.436501 C 11.940474,20.09759 22.043105,11.32322 32.158766,21.979434 L 37.068811,17.246167 C 37.068811,17.246167 37.088388,32 37.088388,32 L 22.160133,31.978069 C 22.160133,31.978069 26.997745,27.140456 26.997745,27.140456 C 18.528582,18.264221 13.291696,25.230495 11.500037,31.436501 z"
             style="fill:#404040;"/>
          </a>
         </g>
        </svg>
</svg>
