<?xml version="1.0" encoding="UTF-8" standalone="no"?>
<!DOCTYPE svg PUBLIC "-//W3C//DTD SVG 1.1//EN"
 "http://www.w3.org/Graphics/SVG/1.1/DTD/svg11.dtd">
<!-- Generated by graphviz version 2.43.0 (0)
 -->
<!-- Title: HydroCouple::IComponentInfo Pages: 1 -->
<svg width="204pt" height="579pt"
 viewBox="0.00 0.00 204.00 579.00" xmlns="http://www.w3.org/2000/svg" xmlns:xlink="http://www.w3.org/1999/xlink">
<g id="graph0" class="graph" transform="scale(1 1) rotate(0) translate(4 575)">
<title>HydroCouple::IComponentInfo</title>
<!-- Node1 -->
<g id="node1" class="node">
<title>Node1</title>
<g id="a_node1"><a xlink:title="IComponentInfo interface class is a factory that provides detailed metadata about a component and cre...">
<polygon fill="#bfbfbf" stroke="black" points="16,-0.5 16,-200.5 180,-200.5 180,-0.5 16,-0.5"/>
<text text-anchor="middle" x="98" y="-188.5" font-family="Monaco" font-size="10.00">HydroCouple::IComponentInfo</text>
<polyline fill="none" stroke="black" points="16,-181.5 180,-181.5 "/>
<text text-anchor="middle" x="98" y="-169.5" font-family="Monaco" font-size="10.00"> </text>
<polyline fill="none" stroke="black" points="16,-162.5 180,-162.5 "/>
<text text-anchor="start" x="24" y="-150.5" font-family="Monaco" font-size="10.00">+ ~IComponentInfo()</text>
<text text-anchor="start" x="24" y="-139.5" font-family="Monaco" font-size="10.00">+ libraryFilePath()</text>
<text text-anchor="start" x="24" y="-128.5" font-family="Monaco" font-size="10.00">+ setLibraryFilePath()</text>
<text text-anchor="start" x="24" y="-117.5" font-family="Monaco" font-size="10.00">+ iconFilePath()</text>
<text text-anchor="start" x="24" y="-106.5" font-family="Monaco" font-size="10.00">+ vendor()</text>
<text text-anchor="start" x="24" y="-95.5" font-family="Monaco" font-size="10.00">+ documentation()</text>
<text text-anchor="start" x="24" y="-84.5" font-family="Monaco" font-size="10.00">+ license()</text>
<text text-anchor="start" x="24" y="-73.5" font-family="Monaco" font-size="10.00">+ copyright()</text>
<text text-anchor="start" x="24" y="-62.5" font-family="Monaco" font-size="10.00">+ url()</text>
<text text-anchor="start" x="24" y="-51.5" font-family="Monaco" font-size="10.00">+ email()</text>
<text text-anchor="start" x="24" y="-40.5" font-family="Monaco" font-size="10.00">+ version()</text>
<text text-anchor="start" x="24" y="-29.5" font-family="Monaco" font-size="10.00">+ tags()</text>
<text text-anchor="start" x="24" y="-18.5" font-family="Monaco" font-size="10.00">+ validateLicense()</text>
<text text-anchor="start" x="24" y="-7.5" font-family="Monaco" font-size="10.00">+ validateLicense()</text>
</a>
</g>
</g>
<!-- Node2 -->
<g id="node2" class="node">
<title>Node2</title>
<g id="a_node2"><a xlink:href="../../d2/d2a/class_hydro_couple_1_1_i_identity.html" target="_top" xlink:title="IIdentity interface class defines a method to get the Id of an HydroCouple entity.">
<polygon fill="none" stroke="black" points="35,-237.5 35,-305.5 161,-305.5 161,-237.5 35,-237.5"/>
<text text-anchor="middle" x="98" y="-293.5" font-family="Monaco" font-size="10.00">HydroCouple::IIdentity</text>
<polyline fill="none" stroke="black" points="35,-286.5 161,-286.5 "/>
<text text-anchor="middle" x="98" y="-274.5" font-family="Monaco" font-size="10.00"> </text>
<polyline fill="none" stroke="black" points="35,-267.5 161,-267.5 "/>
<text text-anchor="start" x="43" y="-255.5" font-family="Monaco" font-size="10.00">+ ~IIdentity()</text>
<text text-anchor="start" x="43" y="-244.5" font-family="Monaco" font-size="10.00">+ id()</text>
</a>
</g>
</g>
<!-- Node2&#45;&gt;Node1 -->
<g id="edge1" class="edge">
<title>Node2&#45;&gt;Node1</title>
<path fill="none" stroke="midnightblue" d="M98,-227.08C98,-218.84 98,-209.92 98,-200.76"/>
<polygon fill="none" stroke="midnightblue" points="94.5,-227.11 98,-237.11 101.5,-227.11 94.5,-227.11"/>
</g>
<!-- Node3 -->
<g id="node3" class="node">
<title>Node3</title>
<g id="a_node3"><a xlink:href="../../db/d64/class_hydro_couple_1_1_i_description.html" target="_top" xlink:title="IDescription interface class provides descriptive information on a HydroCouple object.">
<polygon fill="none" stroke="black" points="26,-342.5 26,-443.5 170,-443.5 170,-342.5 26,-342.5"/>
<text text-anchor="middle" x="98" y="-431.5" font-family="Monaco" font-size="10.00">HydroCouple::IDescription</text>
<polyline fill="none" stroke="black" points="26,-424.5 170,-424.5 "/>
<text text-anchor="middle" x="98" y="-412.5" font-family="Monaco" font-size="10.00"> </text>
<polyline fill="none" stroke="black" points="26,-405.5 170,-405.5 "/>
<text text-anchor="start" x="34" y="-393.5" font-family="Monaco" font-size="10.00">+ ~IDescription()</text>
<text text-anchor="start" x="34" y="-382.5" font-family="Monaco" font-size="10.00">+ caption()</text>
<text text-anchor="start" x="34" y="-371.5" font-family="Monaco" font-size="10.00">+ setCaption()</text>
<text text-anchor="start" x="34" y="-360.5" font-family="Monaco" font-size="10.00">+ description()</text>
<text text-anchor="start" x="34" y="-349.5" font-family="Monaco" font-size="10.00">+ setDescription()</text>
</a>
</g>
</g>
<!-- Node3&#45;&gt;Node2 -->
<g id="edge2" class="edge">
<title>Node3&#45;&gt;Node2</title>
<path fill="none" stroke="midnightblue" d="M98,-332.17C98,-323.11 98,-314.05 98,-305.83"/>
<polygon fill="none" stroke="midnightblue" points="94.5,-332.36 98,-342.36 101.5,-332.36 94.5,-332.36"/>
</g>
<!-- Node4 -->
<g id="node4" class="node">
<title>Node4</title>
<g id="a_node4"><a xlink:href="../../dd/dbf/class_hydro_couple_1_1_i_property_changed.html" target="_top" xlink:title="IPropertyChanged interface is used to emit signal/event when a property of an object changes.">
<polygon fill="none" stroke="black" points="0,-480.5 0,-570.5 196,-570.5 196,-480.5 0,-480.5"/>
<text text-anchor="middle" x="98" y="-558.5" font-family="Monaco" font-size="10.00">HydroCouple::IPropertyChanged</text>
<polyline fill="none" stroke="black" points="0,-551.5 196,-551.5 "/>
<text text-anchor="middle" x="98" y="-539.5" font-family="Monaco" font-size="10.00"> </text>
<polyline fill="none" stroke="black" points="0,-532.5 196,-532.5 "/>
<text text-anchor="start" x="8" y="-520.5" font-family="Monaco" font-size="10.00">+ ~IPropertyChanged()</text>
<text text-anchor="start" x="8" y="-509.5" font-family="Monaco" font-size="10.00">+ registerPropertyChangedListener()</text>
<text text-anchor="start" x="8" y="-498.5" font-family="Monaco" font-size="10.00">+ deRegisterPropertyChanged</text>
<text text-anchor="start" x="8" y="-487.5" font-family="Monaco" font-size="10.00">Listener()</text>
</a>
</g>
</g>
<!-- Node4&#45;&gt;Node3 -->
<g id="edge3" class="edge">
<title>Node4&#45;&gt;Node3</title>
<path fill="none" stroke="midnightblue" d="M98,-470.13C98,-461.31 98,-452.22 98,-443.52"/>
<polygon fill="none" stroke="midnightblue" points="94.5,-470.32 98,-480.32 101.5,-470.32 94.5,-470.32"/>
</g>
</g>
</svg>
