<?xml version="1.0" encoding="UTF-8" standalone="no"?>
<!DOCTYPE svg PUBLIC "-//W3C//DTD SVG 1.1//EN"
 "http://www.w3.org/Graphics/SVG/1.1/DTD/svg11.dtd">
<!-- Generated by graphviz version 2.43.0 (0)
 -->
<!-- Title: HydroCouple::IComponentInfo Pages: 1 -->
<!--zoomable 738 -->

<svg id="main" version="1.1" xmlns="http://www.w3.org/2000/svg" xmlns:xlink="http://www.w3.org/1999/xlink" xml:space="preserve" onload="init(evt)">
<style type="text/css"><![CDATA[
.node, .edge {opacity: 0.7;}
.node.selected, .edge.selected {opacity: 1;}
.edge:hover path { stroke: red; }
.edge:hover polygon { stroke: red; fill: red; }
]]></style>

<defs>
  <circle id="rim" cx="0" cy="0" r="7"/>
  <circle id="rim2" cx="0" cy="0" r="3.5"/>
  <g id="zoomPlus">
    <use xlink:href="#rim" fill="#404040"><set attributeName="fill" to="#808080" begin="zoomplus.mouseover" end="zoomplus.mouseout"/></use>
    <path d="M-4,0h8M0,-4v8" fill="none" stroke="white" stroke-width="1.5" pointer-events="none"/>
  </g>
  <g id="zoomMin">
    <use xlink:href="#rim" fill="#404040"><set attributeName="fill" to="#808080" begin="zoomminus.mouseover" end="zoomminus.mouseout"/></use>
    <path d="M-4,0h8" fill="none" stroke="white" stroke-width="1.5" pointer-events="none"/>
  </g>
  <g id="arrowUp" transform="translate(30 24)">
    <use xlink:href="#rim"/>
    <path pointer-events="none" fill="none" stroke="white" stroke-width="1.5" d="M0,-3.0v7 M-2.5,-0.5L0,-3.0L2.5,-0.5"/>
  </g>
  <g id="arrowRight" transform="rotate(90) translate(36 -43)">
    <use xlink:href="#rim"/>
    <path pointer-events="none" fill="none" stroke="white" stroke-width="1.5" d="M0,-3.0v7 M-2.5,-0.5L0,-3.0L2.5,-0.5"/>
  </g>
  <g id="arrowDown" transform="rotate(180) translate(-30 -48)">
    <use xlink:href="#rim"/>
    <path pointer-events="none" fill="none" stroke="white" stroke-width="1.5" d="M0,-3.0v7 M-2.5,-0.5L0,-3.0L2.5,-0.5"/>
  </g>
  <g id="arrowLeft" transform="rotate(270) translate(-36 17)">
    <use xlink:href="#rim"/>
    <path pointer-events="none" fill="none" stroke="white" stroke-width="1.5" d="M0,-3.0v7 M-2.5,-0.5L0,-3.0L2.5,-0.5"/>
  </g>
  <g id="resetDef">
    <use xlink:href="#rim2" fill="#404040"><set attributeName="fill" to="#808080" begin="reset.mouseover" end="reset.mouseout"/></use>
  </g>
</defs>
<script type="application/ecmascript">
var viewWidth = 175;
var viewHeight = 738;
var sectionId = 'dynsection-1';
</script>
<script type="application/ecmascript" xlink:href="../../svg.min.js"/>
<svg id="graph" class="graph">
<g id="viewport">
<title>HydroCouple::IComponentInfo</title>
<!-- Node1 -->
<g id="Node000001" class="node">
<title>Node1</title>
<g id="a_Node000001"><a xlink:title="IComponentInfo interface class is a factory that provides detailed metadata about a component and cre...">
<polygon fill="#999999" stroke="transparent" points="162.5,-244 4.5,-244 4.5,0 162.5,0 162.5,-244"/>
<text text-anchor="start" x="9.5" y="-232" font-family="Monaco" font-size="10.00">HydroCouple::IComponentInfo</text>
<text text-anchor="start" x="81.5" y="-217" font-family="Monaco" font-size="10.00"> </text>
<text text-anchor="start" x="19" y="-202" font-family="Monaco" font-size="10.00">+</text>
<text text-anchor="start" x="42.5" y="-202" font-family="Monaco" font-size="10.00">~IComponentInfo()</text>
<text text-anchor="start" x="19" y="-187" font-family="Monaco" font-size="10.00">+</text>
<text text-anchor="start" x="42.5" y="-187" font-family="Monaco" font-size="10.00">libraryFilePath()</text>
<text text-anchor="start" x="19" y="-172" font-family="Monaco" font-size="10.00">+</text>
<text text-anchor="start" x="42.5" y="-172" font-family="Monaco" font-size="10.00">setLibraryFilePath()</text>
<text text-anchor="start" x="19" y="-157" font-family="Monaco" font-size="10.00">+</text>
<text text-anchor="start" x="42.5" y="-157" font-family="Monaco" font-size="10.00">iconFilePath()</text>
<text text-anchor="start" x="19" y="-142" font-family="Monaco" font-size="10.00">+</text>
<text text-anchor="start" x="42.5" y="-142" font-family="Monaco" font-size="10.00">developer()</text>
<text text-anchor="start" x="19" y="-127" font-family="Monaco" font-size="10.00">+</text>
<text text-anchor="start" x="42.5" y="-127" font-family="Monaco" font-size="10.00">documentation()</text>
<text text-anchor="start" x="19" y="-112" font-family="Monaco" font-size="10.00">+</text>
<text text-anchor="start" x="42.5" y="-112" font-family="Monaco" font-size="10.00">license()</text>
<text text-anchor="start" x="19" y="-97" font-family="Monaco" font-size="10.00">+</text>
<text text-anchor="start" x="42.5" y="-97" font-family="Monaco" font-size="10.00">copyright()</text>
<text text-anchor="start" x="19" y="-82" font-family="Monaco" font-size="10.00">+</text>
<text text-anchor="start" x="42.5" y="-82" font-family="Monaco" font-size="10.00">url()</text>
<text text-anchor="start" x="19" y="-67" font-family="Monaco" font-size="10.00">+</text>
<text text-anchor="start" x="42.5" y="-67" font-family="Monaco" font-size="10.00">email()</text>
<text text-anchor="start" x="19" y="-52" font-family="Monaco" font-size="10.00">+</text>
<text text-anchor="start" x="42.5" y="-52" font-family="Monaco" font-size="10.00">version()</text>
<text text-anchor="start" x="19" y="-37" font-family="Monaco" font-size="10.00">+</text>
<text text-anchor="start" x="42.5" y="-37" font-family="Monaco" font-size="10.00">tags()</text>
<text text-anchor="start" x="19" y="-22" font-family="Monaco" font-size="10.00">+</text>
<text text-anchor="start" x="42.5" y="-22" font-family="Monaco" font-size="10.00">validateLicense()</text>
<text text-anchor="start" x="19" y="-7" font-family="Monaco" font-size="10.00">+</text>
<text text-anchor="start" x="42.5" y="-7" font-family="Monaco" font-size="10.00">validateLicense()</text>
<polygon fill="#666666" stroke="#666666" points="4.5,-227 4.5,-227 162.5,-227 162.5,-227 4.5,-227"/>
<polygon fill="#666666" stroke="#666666" points="4.5,-212 4.5,-212 162.5,-212 162.5,-212 4.5,-212"/>
<polygon fill="none" stroke="#666666" points="4.5,0 4.5,-244 162.5,-244 162.5,0 4.5,0"/>
</a>
</g>
</g>
<!-- Node2 -->
<g id="Node000002" class="node">
<title>Node2</title>
<g id="a_Node000002"><a xlink:href="../../d2/d2a/class_hydro_couple_1_1_i_identity.html" target="_top" xlink:title="IIdentity interface class defines a method to get the Id of an HydroCouple entity.">
<polygon fill="white" stroke="transparent" points="143.5,-344 23.5,-344 23.5,-280 143.5,-280 143.5,-344"/>
<text text-anchor="start" x="28.5" y="-332" font-family="Monaco" font-size="10.00">HydroCouple::IIdentity</text>
<text text-anchor="start" x="81.5" y="-317" font-family="Monaco" font-size="10.00"> </text>
<text text-anchor="start" x="38" y="-302" font-family="Monaco" font-size="10.00">+</text>
<text text-anchor="start" x="61.5" y="-302" font-family="Monaco" font-size="10.00">~IIdentity()</text>
<text text-anchor="start" x="38" y="-287" font-family="Monaco" font-size="10.00">+</text>
<text text-anchor="start" x="61.5" y="-287" font-family="Monaco" font-size="10.00">id()</text>
<polygon fill="#666666" stroke="#666666" points="23.5,-327 23.5,-327 143.5,-327 143.5,-327 23.5,-327"/>
<polygon fill="#666666" stroke="#666666" points="23.5,-312 23.5,-312 143.5,-312 143.5,-312 23.5,-312"/>
<polygon fill="none" stroke="#666666" points="23.5,-280 23.5,-344 143.5,-344 143.5,-280 23.5,-280"/>
</a>
</g>
</g>
<!-- Node2&#45;&gt;Node1 -->
<g id="edge1_Node000001_Node000002" class="edge">
<title>Node2&#45;&gt;Node1</title>
<g id="a_edge1_Node000001_Node000002"><a xlink:title=" ">
<path fill="none" stroke="#63b8ff" d="M83.5,-269.92C83.5,-261.93 83.5,-253.19 83.5,-244.07"/>
<polygon fill="none" stroke="#63b8ff" points="80,-269.96 83.5,-279.96 87,-269.96 80,-269.96"/>
</a>
</g>
</g>
<!-- Node3 -->
<g id="Node000003" class="node">
<title>Node3</title>
<g id="a_Node000003"><a xlink:href="../../db/d64/class_hydro_couple_1_1_i_description.html" target="_top" xlink:title="IDescription interface class provides descriptive information on a HydroCouple object.">
<polygon fill="white" stroke="transparent" points="152.5,-489 14.5,-489 14.5,-380 152.5,-380 152.5,-489"/>
<text text-anchor="start" x="19.5" y="-476.5" font-family="Monaco" font-size="10.00">HydroCouple::IDescription</text>
<text text-anchor="start" x="81.5" y="-461.5" font-family="Monaco" font-size="10.00"> </text>
<text text-anchor="start" x="28" y="-446.5" font-family="Monaco" font-size="10.00">+</text>
<text text-anchor="start" x="50.5" y="-446.5" font-family="Monaco" font-size="10.00">~IDescription()</text>
<text text-anchor="start" x="28" y="-431.5" font-family="Monaco" font-size="10.00">+</text>
<text text-anchor="start" x="50.5" y="-431.5" font-family="Monaco" font-size="10.00">caption()</text>
<text text-anchor="start" x="28" y="-416.5" font-family="Monaco" font-size="10.00">+</text>
<text text-anchor="start" x="50.5" y="-416.5" font-family="Monaco" font-size="10.00">setCaption()</text>
<text text-anchor="start" x="28" y="-401.5" font-family="Monaco" font-size="10.00">+</text>
<text text-anchor="start" x="50.5" y="-401.5" font-family="Monaco" font-size="10.00">description()</text>
<text text-anchor="start" x="28" y="-386.5" font-family="Monaco" font-size="10.00">+</text>
<text text-anchor="start" x="50.5" y="-386.5" font-family="Monaco" font-size="10.00">setDescription()</text>
<polygon fill="#666666" stroke="#666666" points="14.5,-471.5 14.5,-471.5 152.5,-471.5 152.5,-471.5 14.5,-471.5"/>
<polygon fill="#666666" stroke="#666666" points="14.5,-456.5 14.5,-456.5 152.5,-456.5 152.5,-456.5 14.5,-456.5"/>
<polygon fill="none" stroke="#666666" points="14.5,-380 14.5,-489 152.5,-489 152.5,-380 14.5,-380"/>
</a>
</g>
</g>
<!-- Node3&#45;&gt;Node2 -->
<g id="edge2_Node000002_Node000003" class="edge">
<title>Node3&#45;&gt;Node2</title>
<g id="a_edge2_Node000002_Node000003"><a xlink:title=" ">
<path fill="none" stroke="#63b8ff" d="M83.5,-369.9C83.5,-361 83.5,-352.2 83.5,-344.28"/>
<polygon fill="none" stroke="#63b8ff" points="80,-369.95 83.5,-379.95 87,-369.95 80,-369.95"/>
</a>
</g>
</g>
<!-- Node4 -->
<g id="Node000004" class="node">
<title>Node4</title>
<g id="a_Node000004"><a xlink:href="../../dd/dbf/class_hydro_couple_1_1_i_property_changed.html" target="_top" xlink:title="IPropertyChanged interface is used to emit signal/event when a property of an object changes.">
<polygon fill="white" stroke="transparent" points="167,-574 0,-574 0,-525 167,-525 167,-574"/>
<text text-anchor="start" x="5.5" y="-561.5" font-family="Monaco" font-size="10.00">HydroCouple::IPropertyChanged</text>
<text text-anchor="start" x="82" y="-546.5" font-family="Monaco" font-size="10.00"> </text>
<text text-anchor="start" x="15" y="-531.5" font-family="Monaco" font-size="10.00">+</text>
<text text-anchor="start" x="38.5" y="-531.5" font-family="Monaco" font-size="10.00">~IPropertyChanged()</text>
<polygon fill="#666666" stroke="#666666" points="0.5,-556.5 0.5,-556.5 167.5,-556.5 167.5,-556.5 0.5,-556.5"/>
<polygon fill="#666666" stroke="#666666" points="0.5,-541.5 0.5,-541.5 167.5,-541.5 167.5,-541.5 0.5,-541.5"/>
<polygon fill="none" stroke="#666666" points="0,-525 0,-574 167,-574 167,-525 0,-525"/>
</a>
</g>
</g>
<!-- Node4&#45;&gt;Node3 -->
<g id="edge3_Node000003_Node000004" class="edge">
<title>Node4&#45;&gt;Node3</title>
<g id="a_edge3_Node000003_Node000004"><a xlink:title=" ">
<path fill="none" stroke="#63b8ff" d="M83.5,-514.79C83.5,-506.79 83.5,-498.06 83.5,-489.41"/>
<polygon fill="none" stroke="#63b8ff" points="80,-514.81 83.5,-524.81 87,-514.81 80,-514.81"/>
</a>
</g>
</g>
<!-- Node5 -->
<g id="Node000005" class="node">
<title>Node5</title>
<g id="a_Node000005"><a xlink:href="../../d5/d8b/class_hydro_couple_1_1_i_signal.html" target="_top" xlink:title=" ">
<polygon fill="white" stroke="transparent" points="140,-730 27,-730 27,-610 140,-610 140,-730"/>
<text text-anchor="start" x="32.5" y="-718" font-family="Monaco" font-size="10.00">HydroCouple::ISignal</text>
<text text-anchor="start" x="58.5" y="-707" font-family="Monaco" font-size="10.00">&lt; string &gt;</text>
<text text-anchor="start" x="82" y="-692" font-family="Monaco" font-size="10.00"> </text>
<text text-anchor="start" x="37" y="-677" font-family="Monaco" font-size="10.00">+</text>
<text text-anchor="start" x="55.5" y="-677" font-family="Monaco" font-size="10.00">~ISignal()</text>
<text text-anchor="start" x="37" y="-662" font-family="Monaco" font-size="10.00">+</text>
<text text-anchor="start" x="55.5" y="-662" font-family="Monaco" font-size="10.00">connect()</text>
<text text-anchor="start" x="37" y="-647" font-family="Monaco" font-size="10.00">+</text>
<text text-anchor="start" x="55.5" y="-647" font-family="Monaco" font-size="10.00">disconnect()</text>
<text text-anchor="start" x="37" y="-632" font-family="Monaco" font-size="10.00">+</text>
<text text-anchor="start" x="55.5" y="-632" font-family="Monaco" font-size="10.00">blockSignals()</text>
<text text-anchor="start" x="37" y="-617" font-family="Monaco" font-size="10.00">#</text>
<text text-anchor="start" x="55.5" y="-617" font-family="Monaco" font-size="10.00">emit()</text>
<polygon fill="#666666" stroke="#666666" points="27.5,-702 27.5,-702 140.5,-702 140.5,-702 27.5,-702"/>
<polygon fill="#666666" stroke="#666666" points="27.5,-687 27.5,-687 140.5,-687 140.5,-687 27.5,-687"/>
<polygon fill="none" stroke="#666666" points="27,-610 27,-730 140,-730 140,-610 27,-610"/>
</a>
</g>
</g>
<!-- Node5&#45;&gt;Node4 -->
<g id="edge4_Node000004_Node000005" class="edge">
<title>Node5&#45;&gt;Node4</title>
<g id="a_edge4_Node000004_Node000005"><a xlink:title=" ">
<path fill="none" stroke="#63b8ff" d="M83.5,-599.74C83.5,-590.6 83.5,-581.78 83.5,-574.2"/>
<polygon fill="none" stroke="#63b8ff" points="80,-599.75 83.5,-609.75 87,-599.75 80,-599.75"/>
</a>
</g>
</g>
</g>
</svg>

<g id="navigator" transform="translate(0 0)" fill="#404254">
  <rect fill="#f2f5e9" fill-opacity="0.5" stroke="#606060" stroke-width=".5" x="0" y="0" width="60" height="60"/>
  <use id="zoomplus" xlink:href="#zoomPlus" x="17" y="9" onmousedown="handleZoom(evt,'in')"/>
  <use id="zoomminus" xlink:href="#zoomMin" x="42" y="9" onmousedown="handleZoom(evt,'out')"/>
  <use id="reset" xlink:href="#resetDef" x="30" y="36" onmousedown="handleReset()"/>
   <use id="arrowup" xlink:href="#arrowUp" x="0" y="0" onmousedown="handlePan(0,-1)"/>
  <use id="arrowright" xlink:href="#arrowRight" x="0" y="0" onmousedown="handlePan(1,0)"/>
  <use id="arrowdown" xlink:href="#arrowDown" x="0" y="0" onmousedown="handlePan(0,1)"/>
  <use id="arrowleft" xlink:href="#arrowLeft" x="0" y="0" onmousedown="handlePan(-1,0)"/>
</g>
<svg viewBox="0 0 15 15" width="100%" height="30px" preserveAspectRatio="xMaxYMin meet">
 <g id="arrow_out" transform="scale(0.3 0.3)">
  <a xlink:href="class_hydro_couple_1_1_i_component_info__coll__graph_org.svg" target="_base">
   <rect id="button" ry="5" rx="5" y="6" x="6" height="38" width="38"
        fill="#f2f5e9" fill-opacity="0.5" stroke="#606060" stroke-width="1.0"/>
   <path id="arrow"
     d="M 11.500037,31.436501 C 11.940474,20.09759 22.043105,11.32322 32.158766,21.979434 L 37.068811,17.246167 C 37.068811,17.246167 37.088388,32 37.088388,32 L 22.160133,31.978069 C 22.160133,31.978069 26.997745,27.140456 26.997745,27.140456 C 18.528582,18.264221 13.291696,25.230495 11.500037,31.436501 z"
     style="fill:#404040;"/>
  </a>
 </g>
</svg>

<style type='text/css'>
<![CDATA[
[data-mouse-over-selected='false'] { opacity: 0.7; }
[data-mouse-over-selected='true']  { opacity: 1.0; }
]]>
</style>
<script type="application/ecmascript"><![CDATA[
document.addEventListener('DOMContentLoaded', (event) => {
  highlightEdges();
  highlightAdjacentNodes();
});
]]></script>
</svg>
