<?xml version="1.0" encoding="UTF-8" standalone="no"?>
<!DOCTYPE svg PUBLIC "-//W3C//DTD SVG 1.1//EN"
 "http://www.w3.org/Graphics/SVG/1.1/DTD/svg11.dtd">
<!-- Generated by graphviz version 2.43.0 (0)
 -->
<!-- Title: WKBMultiLineStringZM Pages: 1 -->
<svg width="137pt" height="353pt"
 viewBox="0.00 0.00 137.00 353.00" xmlns="http://www.w3.org/2000/svg" xmlns:xlink="http://www.w3.org/1999/xlink">
<g id="graph0" class="graph" transform="scale(1 1) rotate(0) translate(4 349)">
<title>WKBMultiLineStringZM</title>
<!-- Node1 -->
<g id="node1" class="node">
<title>Node1</title>
<g id="a_node1"><a xlink:title="The WKBMultiLineStringZM struct.">
<polygon fill="#bfbfbf" stroke="black" points="0,-0.5 0,-79.5 129,-79.5 129,-0.5 0,-0.5"/>
<text text-anchor="middle" x="64.5" y="-67.5" font-family="Monaco" font-size="10.00">WKBMultiLineStringZM</text>
<polyline fill="none" stroke="black" points="0,-60.5 129,-60.5 "/>
<text text-anchor="start" x="8" y="-48.5" font-family="Monaco" font-size="10.00">+ byteOrder</text>
<text text-anchor="start" x="8" y="-37.5" font-family="Monaco" font-size="10.00">+ numLineStrings</text>
<text text-anchor="start" x="8" y="-26.5" font-family="Monaco" font-size="10.00">+ wkbType</text>
<polyline fill="none" stroke="black" points="0,-19.5 129,-19.5 "/>
<text text-anchor="middle" x="64.5" y="-7.5" font-family="Monaco" font-size="10.00"> </text>
</a>
</g>
</g>
<!-- Node2 -->
<g id="node2" class="node">
<title>Node2</title>
<g id="a_node2"><a xlink:href="../../df/d44/struct_w_k_b_line_string_z_m.html" target="_top" xlink:title="The WKBLineStringZM struct.">
<polygon fill="none" stroke="black" points="12.5,-127.5 12.5,-206.5 116.5,-206.5 116.5,-127.5 12.5,-127.5"/>
<text text-anchor="middle" x="64.5" y="-194.5" font-family="Monaco" font-size="10.00">WKBLineStringZM</text>
<polyline fill="none" stroke="black" points="12.5,-187.5 116.5,-187.5 "/>
<text text-anchor="start" x="20.5" y="-175.5" font-family="Monaco" font-size="10.00">+ byteOrder</text>
<text text-anchor="start" x="20.5" y="-164.5" font-family="Monaco" font-size="10.00">+ numPoints</text>
<text text-anchor="start" x="20.5" y="-153.5" font-family="Monaco" font-size="10.00">+ wkbType</text>
<polyline fill="none" stroke="black" points="12.5,-146.5 116.5,-146.5 "/>
<text text-anchor="middle" x="64.5" y="-134.5" font-family="Monaco" font-size="10.00"> </text>
</a>
</g>
</g>
<!-- Node2&#45;&gt;Node1 -->
<g id="edge1" class="edge">
<title>Node2&#45;&gt;Node1</title>
<path fill="none" stroke="#404040" d="M64.5,-127.48C64.5,-116.19 64.5,-103.67 64.5,-91.75"/>
<polygon fill="none" stroke="#404040" points="64.5,-91.61 60.5,-85.61 64.5,-79.61 68.5,-85.61 64.5,-91.61"/>
<text text-anchor="middle" x="96.5" y="-101" font-family="Monaco" font-size="10.00"> +lineStrings</text>
</g>
<!-- Node3 -->
<g id="node3" class="node">
<title>Node3</title>
<g id="a_node3"><a xlink:href="../../d7/ded/struct_point_z_m.html" target="_top" xlink:title="The PointZM struct.">
<polygon fill="none" stroke="black" points="36,-254.5 36,-344.5 93,-344.5 93,-254.5 36,-254.5"/>
<text text-anchor="middle" x="64.5" y="-332.5" font-family="Monaco" font-size="10.00">PointZM</text>
<polyline fill="none" stroke="black" points="36,-325.5 93,-325.5 "/>
<text text-anchor="start" x="44" y="-313.5" font-family="Monaco" font-size="10.00">+ x</text>
<text text-anchor="start" x="44" y="-302.5" font-family="Monaco" font-size="10.00">+ y</text>
<text text-anchor="start" x="44" y="-291.5" font-family="Monaco" font-size="10.00">+ z</text>
<text text-anchor="start" x="44" y="-280.5" font-family="Monaco" font-size="10.00">+ m</text>
<polyline fill="none" stroke="black" points="36,-273.5 93,-273.5 "/>
<text text-anchor="middle" x="64.5" y="-261.5" font-family="Monaco" font-size="10.00"> </text>
</a>
</g>
</g>
<!-- Node3&#45;&gt;Node2 -->
<g id="edge2" class="edge">
<title>Node3&#45;&gt;Node2</title>
<path fill="none" stroke="#404040" d="M64.5,-254.32C64.5,-243.02 64.5,-230.79 64.5,-219.17"/>
<polygon fill="none" stroke="#404040" points="64.5,-218.89 60.5,-212.89 64.5,-206.89 68.5,-212.89 64.5,-218.89"/>
<text text-anchor="middle" x="85.5" y="-228" font-family="Monaco" font-size="10.00"> +points</text>
</g>
</g>
</svg>
