<?xml version="1.0" encoding="UTF-8" standalone="no"?>
<!DOCTYPE svg PUBLIC "-//W3C//DTD SVG 1.1//EN"
 "http://www.w3.org/Graphics/SVG/1.1/DTD/svg11.dtd">
<!-- Generated by graphviz version 2.43.0 (0)
 -->
<!-- Title: HydroCouple::IQuantity Pages: 1 -->
<svg width="204pt" height="491pt"
 viewBox="0.00 0.00 204.00 491.00" xmlns="http://www.w3.org/2000/svg" xmlns:xlink="http://www.w3.org/1999/xlink">
<g id="graph0" class="graph" transform="scale(1 1) rotate(0) translate(4 487)">
<title>HydroCouple::IQuantity</title>
<!-- Node1 -->
<g id="node1" class="node">
<title>Node1</title>
<g id="a_node1"><a xlink:title="IQuantity specifies values as an amount of some unit, usually as a floating point number.">
<polygon fill="#bfbfbf" stroke="black" points="32.5,-0.5 32.5,-90.5 163.5,-90.5 163.5,-0.5 32.5,-0.5"/>
<text text-anchor="middle" x="98" y="-78.5" font-family="Monaco" font-size="10.00">HydroCouple::IQuantity</text>
<polyline fill="none" stroke="black" points="32.5,-71.5 163.5,-71.5 "/>
<text text-anchor="middle" x="98" y="-59.5" font-family="Monaco" font-size="10.00"> </text>
<polyline fill="none" stroke="black" points="32.5,-52.5 163.5,-52.5 "/>
<text text-anchor="start" x="40.5" y="-40.5" font-family="Monaco" font-size="10.00">+ ~IQuantity()</text>
<text text-anchor="start" x="40.5" y="-29.5" font-family="Monaco" font-size="10.00">+ unit()</text>
<text text-anchor="start" x="40.5" y="-18.5" font-family="Monaco" font-size="10.00">+ minValue()</text>
<text text-anchor="start" x="40.5" y="-7.5" font-family="Monaco" font-size="10.00">+ maxValue()</text>
</a>
</g>
</g>
<!-- Node2 -->
<g id="node2" class="node">
<title>Node2</title>
<g id="a_node2"><a xlink:href="../../d9/d22/class_hydro_couple_1_1_i_value_definition.html" target="_top" xlink:title="IValueDefinition describes a value returned by the getValues() function of IValueSet.">
<polygon fill="none" stroke="black" points="16.5,-127.5 16.5,-217.5 179.5,-217.5 179.5,-127.5 16.5,-127.5"/>
<text text-anchor="middle" x="98" y="-205.5" font-family="Monaco" font-size="10.00">HydroCouple::IValueDefinition</text>
<polyline fill="none" stroke="black" points="16.5,-198.5 179.5,-198.5 "/>
<text text-anchor="middle" x="98" y="-186.5" font-family="Monaco" font-size="10.00"> </text>
<polyline fill="none" stroke="black" points="16.5,-179.5 179.5,-179.5 "/>
<text text-anchor="start" x="24.5" y="-167.5" font-family="Monaco" font-size="10.00">+ ~IValueDefinition()</text>
<text text-anchor="start" x="24.5" y="-156.5" font-family="Monaco" font-size="10.00">+ type()</text>
<text text-anchor="start" x="24.5" y="-145.5" font-family="Monaco" font-size="10.00">+ missingValue()</text>
<text text-anchor="start" x="24.5" y="-134.5" font-family="Monaco" font-size="10.00">+ defaultValue()</text>
</a>
</g>
</g>
<!-- Node2&#45;&gt;Node1 -->
<g id="edge1" class="edge">
<title>Node2&#45;&gt;Node1</title>
<path fill="none" stroke="midnightblue" d="M98,-117.16C98,-108.28 98,-99.18 98,-90.59"/>
<polygon fill="none" stroke="midnightblue" points="94.5,-117.43 98,-127.43 101.5,-117.43 94.5,-117.43"/>
</g>
<!-- Node3 -->
<g id="node3" class="node">
<title>Node3</title>
<g id="a_node3"><a xlink:href="../../db/d64/class_hydro_couple_1_1_i_description.html" target="_top" xlink:title="IDescription interface class provides descriptive information on a HydroCouple object.">
<polygon fill="none" stroke="black" points="26,-254.5 26,-355.5 170,-355.5 170,-254.5 26,-254.5"/>
<text text-anchor="middle" x="98" y="-343.5" font-family="Monaco" font-size="10.00">HydroCouple::IDescription</text>
<polyline fill="none" stroke="black" points="26,-336.5 170,-336.5 "/>
<text text-anchor="middle" x="98" y="-324.5" font-family="Monaco" font-size="10.00"> </text>
<polyline fill="none" stroke="black" points="26,-317.5 170,-317.5 "/>
<text text-anchor="start" x="34" y="-305.5" font-family="Monaco" font-size="10.00">+ ~IDescription()</text>
<text text-anchor="start" x="34" y="-294.5" font-family="Monaco" font-size="10.00">+ caption()</text>
<text text-anchor="start" x="34" y="-283.5" font-family="Monaco" font-size="10.00">+ setCaption()</text>
<text text-anchor="start" x="34" y="-272.5" font-family="Monaco" font-size="10.00">+ description()</text>
<text text-anchor="start" x="34" y="-261.5" font-family="Monaco" font-size="10.00">+ setDescription()</text>
</a>
</g>
</g>
<!-- Node3&#45;&gt;Node2 -->
<g id="edge2" class="edge">
<title>Node3&#45;&gt;Node2</title>
<path fill="none" stroke="midnightblue" d="M98,-244.23C98,-235.24 98,-226.1 98,-217.52"/>
<polygon fill="none" stroke="midnightblue" points="94.5,-244.29 98,-254.29 101.5,-244.29 94.5,-244.29"/>
</g>
<!-- Node4 -->
<g id="node4" class="node">
<title>Node4</title>
<g id="a_node4"><a xlink:href="../../dd/dbf/class_hydro_couple_1_1_i_property_changed.html" target="_top" xlink:title="IPropertyChanged interface is used to emit signal/event when a property of an object changes.">
<polygon fill="none" stroke="black" points="0,-392.5 0,-482.5 196,-482.5 196,-392.5 0,-392.5"/>
<text text-anchor="middle" x="98" y="-470.5" font-family="Monaco" font-size="10.00">HydroCouple::IPropertyChanged</text>
<polyline fill="none" stroke="black" points="0,-463.5 196,-463.5 "/>
<text text-anchor="middle" x="98" y="-451.5" font-family="Monaco" font-size="10.00"> </text>
<polyline fill="none" stroke="black" points="0,-444.5 196,-444.5 "/>
<text text-anchor="start" x="8" y="-432.5" font-family="Monaco" font-size="10.00">+ ~IPropertyChanged()</text>
<text text-anchor="start" x="8" y="-421.5" font-family="Monaco" font-size="10.00">+ registerPropertyChangedListener()</text>
<text text-anchor="start" x="8" y="-410.5" font-family="Monaco" font-size="10.00">+ deRegisterPropertyChanged</text>
<text text-anchor="start" x="8" y="-399.5" font-family="Monaco" font-size="10.00">Listener()</text>
</a>
</g>
</g>
<!-- Node4&#45;&gt;Node3 -->
<g id="edge3" class="edge">
<title>Node4&#45;&gt;Node3</title>
<path fill="none" stroke="midnightblue" d="M98,-382.13C98,-373.31 98,-364.22 98,-355.52"/>
<polygon fill="none" stroke="midnightblue" points="94.5,-382.32 98,-392.32 101.5,-382.32 94.5,-382.32"/>
</g>
</g>
</svg>
