<?xml version="1.0" encoding="UTF-8" standalone="no"?>
<!DOCTYPE svg PUBLIC "-//W3C//DTD SVG 1.1//EN"
 "http://www.w3.org/Graphics/SVG/1.1/DTD/svg11.dtd">
<!-- Generated by graphviz version 2.43.0 (0)
 -->
<!-- Title: HydroCouple::IQuantity Pages: 1 -->
<!--zoomable 618 -->

<svg id="main" version="1.1" xmlns="http://www.w3.org/2000/svg" xmlns:xlink="http://www.w3.org/1999/xlink" xml:space="preserve" onload="init(evt)">
<style type="text/css"><![CDATA[
.node, .edge {opacity: 0.7;}
.node.selected, .edge.selected {opacity: 1;}
.edge:hover path { stroke: red; }
.edge:hover polygon { stroke: red; fill: red; }
]]></style>

<defs>
  <circle id="rim" cx="0" cy="0" r="7"/>
  <circle id="rim2" cx="0" cy="0" r="3.5"/>
  <g id="zoomPlus">
    <use xlink:href="#rim" fill="#404040"><set attributeName="fill" to="#808080" begin="zoomplus.mouseover" end="zoomplus.mouseout"/></use>
    <path d="M-4,0h8M0,-4v8" fill="none" stroke="white" stroke-width="1.5" pointer-events="none"/>
  </g>
  <g id="zoomMin">
    <use xlink:href="#rim" fill="#404040"><set attributeName="fill" to="#808080" begin="zoomminus.mouseover" end="zoomminus.mouseout"/></use>
    <path d="M-4,0h8" fill="none" stroke="white" stroke-width="1.5" pointer-events="none"/>
  </g>
  <g id="arrowUp" transform="translate(30 24)">
    <use xlink:href="#rim"/>
    <path pointer-events="none" fill="none" stroke="white" stroke-width="1.5" d="M0,-3.0v7 M-2.5,-0.5L0,-3.0L2.5,-0.5"/>
  </g>
  <g id="arrowRight" transform="rotate(90) translate(36 -43)">
    <use xlink:href="#rim"/>
    <path pointer-events="none" fill="none" stroke="white" stroke-width="1.5" d="M0,-3.0v7 M-2.5,-0.5L0,-3.0L2.5,-0.5"/>
  </g>
  <g id="arrowDown" transform="rotate(180) translate(-30 -48)">
    <use xlink:href="#rim"/>
    <path pointer-events="none" fill="none" stroke="white" stroke-width="1.5" d="M0,-3.0v7 M-2.5,-0.5L0,-3.0L2.5,-0.5"/>
  </g>
  <g id="arrowLeft" transform="rotate(270) translate(-36 17)">
    <use xlink:href="#rim"/>
    <path pointer-events="none" fill="none" stroke="white" stroke-width="1.5" d="M0,-3.0v7 M-2.5,-0.5L0,-3.0L2.5,-0.5"/>
  </g>
  <g id="resetDef">
    <use xlink:href="#rim2" fill="#404040"><set attributeName="fill" to="#808080" begin="reset.mouseover" end="reset.mouseout"/></use>
  </g>
</defs>
<script type="application/ecmascript">
var viewWidth = 175;
var viewHeight = 618;
var sectionId = 'dynsection-0';
</script>
<script type="application/ecmascript" xlink:href="../../svg.min.js"/>
<svg id="graph" class="graph">
<g id="viewport">
<title>HydroCouple::IQuantity</title>
<!-- Node1 -->
<g id="Node000001" class="node">
<title>Node1</title>
<g id="a_Node000001"><a xlink:title="IQuantity specifies values as an amount of some unit, usually as a floating point number.">
<polygon fill="#999999" stroke="transparent" points="146,-94 21,-94 21,0 146,0 146,-94"/>
<text text-anchor="start" x="26.5" y="-82" font-family="Monaco" font-size="10.00">HydroCouple::IQuantity</text>
<text text-anchor="start" x="82" y="-67" font-family="Monaco" font-size="10.00"> </text>
<text text-anchor="start" x="36" y="-52" font-family="Monaco" font-size="10.00">+</text>
<text text-anchor="start" x="59.5" y="-52" font-family="Monaco" font-size="10.00">~IQuantity()</text>
<text text-anchor="start" x="36" y="-37" font-family="Monaco" font-size="10.00">+</text>
<text text-anchor="start" x="59.5" y="-37" font-family="Monaco" font-size="10.00">unit()</text>
<text text-anchor="start" x="36" y="-22" font-family="Monaco" font-size="10.00">+</text>
<text text-anchor="start" x="59.5" y="-22" font-family="Monaco" font-size="10.00">minValue()</text>
<text text-anchor="start" x="36" y="-7" font-family="Monaco" font-size="10.00">+</text>
<text text-anchor="start" x="59.5" y="-7" font-family="Monaco" font-size="10.00">maxValue()</text>
<polygon fill="#666666" stroke="#666666" points="21.5,-77 21.5,-77 146.5,-77 146.5,-77 21.5,-77"/>
<polygon fill="#666666" stroke="#666666" points="21.5,-62 21.5,-62 146.5,-62 146.5,-62 21.5,-62"/>
<polygon fill="none" stroke="#666666" points="21,0 21,-94 146,-94 146,0 21,0"/>
</a>
</g>
</g>
<!-- Node2 -->
<g id="Node000002" class="node">
<title>Node2</title>
<g id="a_Node000002"><a xlink:href="../../d9/d22/class_hydro_couple_1_1_i_value_definition.html" target="_top" xlink:title="IValueDefinition describes a value returned by the getValues() function of IValueSet.">
<polygon fill="white" stroke="transparent" points="162,-224 5,-224 5,-130 162,-130 162,-224"/>
<text text-anchor="start" x="10.5" y="-212" font-family="Monaco" font-size="10.00">HydroCouple::IValueDefinition</text>
<text text-anchor="start" x="82" y="-197" font-family="Monaco" font-size="10.00"> </text>
<text text-anchor="start" x="20" y="-182" font-family="Monaco" font-size="10.00">+</text>
<text text-anchor="start" x="43.5" y="-182" font-family="Monaco" font-size="10.00">~IValueDefinition()</text>
<text text-anchor="start" x="20" y="-167" font-family="Monaco" font-size="10.00">+</text>
<text text-anchor="start" x="43.5" y="-167" font-family="Monaco" font-size="10.00">type()</text>
<text text-anchor="start" x="20" y="-152" font-family="Monaco" font-size="10.00">+</text>
<text text-anchor="start" x="43.5" y="-152" font-family="Monaco" font-size="10.00">missingValue()</text>
<text text-anchor="start" x="20" y="-137" font-family="Monaco" font-size="10.00">+</text>
<text text-anchor="start" x="43.5" y="-137" font-family="Monaco" font-size="10.00">defaultValue()</text>
<polygon fill="#666666" stroke="#666666" points="5.5,-207 5.5,-207 162.5,-207 162.5,-207 5.5,-207"/>
<polygon fill="#666666" stroke="#666666" points="5.5,-192 5.5,-192 162.5,-192 162.5,-192 5.5,-192"/>
<polygon fill="none" stroke="#666666" points="5,-130 5,-224 162,-224 162,-130 5,-130"/>
</a>
</g>
</g>
<!-- Node2&#45;&gt;Node1 -->
<g id="edge1_Node000001_Node000002" class="edge">
<title>Node2&#45;&gt;Node1</title>
<g id="a_edge1_Node000001_Node000002"><a xlink:title=" ">
<path fill="none" stroke="#63b8ff" d="M83.5,-119.56C83.5,-111.06 83.5,-102.39 83.5,-94.14"/>
<polygon fill="none" stroke="#63b8ff" points="80,-119.79 83.5,-129.79 87,-119.79 80,-119.79"/>
</a>
</g>
</g>
<!-- Node3 -->
<g id="Node000003" class="node">
<title>Node3</title>
<g id="a_Node000003"><a xlink:href="../../db/d64/class_hydro_couple_1_1_i_description.html" target="_top" xlink:title="IDescription interface class provides descriptive information on a HydroCouple object.">
<polygon fill="white" stroke="transparent" points="152.5,-369 14.5,-369 14.5,-260 152.5,-260 152.5,-369"/>
<text text-anchor="start" x="19.5" y="-356.5" font-family="Monaco" font-size="10.00">HydroCouple::IDescription</text>
<text text-anchor="start" x="81.5" y="-341.5" font-family="Monaco" font-size="10.00"> </text>
<text text-anchor="start" x="28" y="-326.5" font-family="Monaco" font-size="10.00">+</text>
<text text-anchor="start" x="50.5" y="-326.5" font-family="Monaco" font-size="10.00">~IDescription()</text>
<text text-anchor="start" x="28" y="-311.5" font-family="Monaco" font-size="10.00">+</text>
<text text-anchor="start" x="50.5" y="-311.5" font-family="Monaco" font-size="10.00">caption()</text>
<text text-anchor="start" x="28" y="-296.5" font-family="Monaco" font-size="10.00">+</text>
<text text-anchor="start" x="50.5" y="-296.5" font-family="Monaco" font-size="10.00">setCaption()</text>
<text text-anchor="start" x="28" y="-281.5" font-family="Monaco" font-size="10.00">+</text>
<text text-anchor="start" x="50.5" y="-281.5" font-family="Monaco" font-size="10.00">description()</text>
<text text-anchor="start" x="28" y="-266.5" font-family="Monaco" font-size="10.00">+</text>
<text text-anchor="start" x="50.5" y="-266.5" font-family="Monaco" font-size="10.00">setDescription()</text>
<polygon fill="#666666" stroke="#666666" points="14.5,-351.5 14.5,-351.5 152.5,-351.5 152.5,-351.5 14.5,-351.5"/>
<polygon fill="#666666" stroke="#666666" points="14.5,-336.5 14.5,-336.5 152.5,-336.5 152.5,-336.5 14.5,-336.5"/>
<polygon fill="none" stroke="#666666" points="14.5,-260 14.5,-369 152.5,-369 152.5,-260 14.5,-260"/>
</a>
</g>
</g>
<!-- Node3&#45;&gt;Node2 -->
<g id="edge2_Node000002_Node000003" class="edge">
<title>Node3&#45;&gt;Node2</title>
<g id="a_edge2_Node000002_Node000003"><a xlink:title=" ">
<path fill="none" stroke="#63b8ff" d="M83.5,-249.85C83.5,-241.19 83.5,-232.43 83.5,-224.16"/>
<polygon fill="none" stroke="#63b8ff" points="80,-249.95 83.5,-259.95 87,-249.95 80,-249.95"/>
</a>
</g>
</g>
<!-- Node4 -->
<g id="Node000004" class="node">
<title>Node4</title>
<g id="a_Node000004"><a xlink:href="../../dd/dbf/class_hydro_couple_1_1_i_property_changed.html" target="_top" xlink:title="IPropertyChanged interface is used to emit signal/event when a property of an object changes.">
<polygon fill="white" stroke="transparent" points="167,-454 0,-454 0,-405 167,-405 167,-454"/>
<text text-anchor="start" x="5.5" y="-441.5" font-family="Monaco" font-size="10.00">HydroCouple::IPropertyChanged</text>
<text text-anchor="start" x="82" y="-426.5" font-family="Monaco" font-size="10.00"> </text>
<text text-anchor="start" x="15" y="-411.5" font-family="Monaco" font-size="10.00">+</text>
<text text-anchor="start" x="38.5" y="-411.5" font-family="Monaco" font-size="10.00">~IPropertyChanged()</text>
<polygon fill="#666666" stroke="#666666" points="0.5,-436.5 0.5,-436.5 167.5,-436.5 167.5,-436.5 0.5,-436.5"/>
<polygon fill="#666666" stroke="#666666" points="0.5,-421.5 0.5,-421.5 167.5,-421.5 167.5,-421.5 0.5,-421.5"/>
<polygon fill="none" stroke="#666666" points="0,-405 0,-454 167,-454 167,-405 0,-405"/>
</a>
</g>
</g>
<!-- Node4&#45;&gt;Node3 -->
<g id="edge3_Node000003_Node000004" class="edge">
<title>Node4&#45;&gt;Node3</title>
<g id="a_edge3_Node000003_Node000004"><a xlink:title=" ">
<path fill="none" stroke="#63b8ff" d="M83.5,-394.79C83.5,-386.79 83.5,-378.06 83.5,-369.41"/>
<polygon fill="none" stroke="#63b8ff" points="80,-394.81 83.5,-404.81 87,-394.81 80,-394.81"/>
</a>
</g>
</g>
<!-- Node5 -->
<g id="Node000005" class="node">
<title>Node5</title>
<g id="a_Node000005"><a xlink:href="../../d5/d8b/class_hydro_couple_1_1_i_signal.html" target="_top" xlink:title=" ">
<polygon fill="white" stroke="transparent" points="140,-610 27,-610 27,-490 140,-490 140,-610"/>
<text text-anchor="start" x="32.5" y="-598" font-family="Monaco" font-size="10.00">HydroCouple::ISignal</text>
<text text-anchor="start" x="58.5" y="-587" font-family="Monaco" font-size="10.00">&lt; string &gt;</text>
<text text-anchor="start" x="82" y="-572" font-family="Monaco" font-size="10.00"> </text>
<text text-anchor="start" x="37" y="-557" font-family="Monaco" font-size="10.00">+</text>
<text text-anchor="start" x="55.5" y="-557" font-family="Monaco" font-size="10.00">~ISignal()</text>
<text text-anchor="start" x="37" y="-542" font-family="Monaco" font-size="10.00">+</text>
<text text-anchor="start" x="55.5" y="-542" font-family="Monaco" font-size="10.00">connect()</text>
<text text-anchor="start" x="37" y="-527" font-family="Monaco" font-size="10.00">+</text>
<text text-anchor="start" x="55.5" y="-527" font-family="Monaco" font-size="10.00">disconnect()</text>
<text text-anchor="start" x="37" y="-512" font-family="Monaco" font-size="10.00">+</text>
<text text-anchor="start" x="55.5" y="-512" font-family="Monaco" font-size="10.00">blockSignals()</text>
<text text-anchor="start" x="37" y="-497" font-family="Monaco" font-size="10.00">#</text>
<text text-anchor="start" x="55.5" y="-497" font-family="Monaco" font-size="10.00">emit()</text>
<polygon fill="#666666" stroke="#666666" points="27.5,-582 27.5,-582 140.5,-582 140.5,-582 27.5,-582"/>
<polygon fill="#666666" stroke="#666666" points="27.5,-567 27.5,-567 140.5,-567 140.5,-567 27.5,-567"/>
<polygon fill="none" stroke="#666666" points="27,-490 27,-610 140,-610 140,-490 27,-490"/>
</a>
</g>
</g>
<!-- Node5&#45;&gt;Node4 -->
<g id="edge4_Node000004_Node000005" class="edge">
<title>Node5&#45;&gt;Node4</title>
<g id="a_edge4_Node000004_Node000005"><a xlink:title=" ">
<path fill="none" stroke="#63b8ff" d="M83.5,-479.74C83.5,-470.6 83.5,-461.78 83.5,-454.2"/>
<polygon fill="none" stroke="#63b8ff" points="80,-479.75 83.5,-489.75 87,-479.75 80,-479.75"/>
</a>
</g>
</g>
</g>
</svg>

<g id="navigator" transform="translate(0 0)" fill="#404254">
  <rect fill="#f2f5e9" fill-opacity="0.5" stroke="#606060" stroke-width=".5" x="0" y="0" width="60" height="60"/>
  <use id="zoomplus" xlink:href="#zoomPlus" x="17" y="9" onmousedown="handleZoom(evt,'in')"/>
  <use id="zoomminus" xlink:href="#zoomMin" x="42" y="9" onmousedown="handleZoom(evt,'out')"/>
  <use id="reset" xlink:href="#resetDef" x="30" y="36" onmousedown="handleReset()"/>
   <use id="arrowup" xlink:href="#arrowUp" x="0" y="0" onmousedown="handlePan(0,-1)"/>
  <use id="arrowright" xlink:href="#arrowRight" x="0" y="0" onmousedown="handlePan(1,0)"/>
  <use id="arrowdown" xlink:href="#arrowDown" x="0" y="0" onmousedown="handlePan(0,1)"/>
  <use id="arrowleft" xlink:href="#arrowLeft" x="0" y="0" onmousedown="handlePan(-1,0)"/>
</g>
<svg viewBox="0 0 15 15" width="100%" height="30px" preserveAspectRatio="xMaxYMin meet">
 <g id="arrow_out" transform="scale(0.3 0.3)">
  <a xlink:href="class_hydro_couple_1_1_i_quantity__inherit__graph_org.svg" target="_base">
   <rect id="button" ry="5" rx="5" y="6" x="6" height="38" width="38"
        fill="#f2f5e9" fill-opacity="0.5" stroke="#606060" stroke-width="1.0"/>
   <path id="arrow"
     d="M 11.500037,31.436501 C 11.940474,20.09759 22.043105,11.32322 32.158766,21.979434 L 37.068811,17.246167 C 37.068811,17.246167 37.088388,32 37.088388,32 L 22.160133,31.978069 C 22.160133,31.978069 26.997745,27.140456 26.997745,27.140456 C 18.528582,18.264221 13.291696,25.230495 11.500037,31.436501 z"
     style="fill:#404040;"/>
  </a>
 </g>
</svg>

<style type='text/css'>
<![CDATA[
[data-mouse-over-selected='false'] { opacity: 0.7; }
[data-mouse-over-selected='true']  { opacity: 1.0; }
]]>
</style>
<script type="application/ecmascript"><![CDATA[
document.addEventListener('DOMContentLoaded', (event) => {
  highlightEdges();
  highlightAdjacentNodes();
});
]]></script>
</svg>
