<?xml version="1.0" encoding="UTF-8" standalone="no"?>
<!DOCTYPE svg PUBLIC "-//W3C//DTD SVG 1.1//EN"
 "http://www.w3.org/Graphics/SVG/1.1/DTD/svg11.dtd">
<!-- Generated by graphviz version 2.43.0 (0)
 -->
<!-- Title: HydroCouple::IQuantity Pages: 1 -->
<svg width="175pt" height="618pt"
 viewBox="0.00 0.00 175.00 618.00" xmlns="http://www.w3.org/2000/svg" xmlns:xlink="http://www.w3.org/1999/xlink">
<g id="graph0" class="graph" transform="scale(1 1) rotate(0) translate(4 614)">
<title>HydroCouple::IQuantity</title>
<!-- Node1 -->
<g id="Node000001" class="node">
<title>Node1</title>
<g id="a_Node000001"><a xlink:title="IQuantity specifies values as an amount of some unit, usually as a floating point number.">
<polygon fill="#999999" stroke="transparent" points="146,-94 21,-94 21,0 146,0 146,-94"/>
<text text-anchor="start" x="26.5" y="-82" font-family="Monaco" font-size="10.00">HydroCouple::IQuantity</text>
<text text-anchor="start" x="82" y="-67" font-family="Monaco" font-size="10.00"> </text>
<text text-anchor="start" x="36" y="-52" font-family="Monaco" font-size="10.00">+</text>
<text text-anchor="start" x="59.5" y="-52" font-family="Monaco" font-size="10.00">~IQuantity()</text>
<text text-anchor="start" x="36" y="-37" font-family="Monaco" font-size="10.00">+</text>
<text text-anchor="start" x="59.5" y="-37" font-family="Monaco" font-size="10.00">unit()</text>
<text text-anchor="start" x="36" y="-22" font-family="Monaco" font-size="10.00">+</text>
<text text-anchor="start" x="59.5" y="-22" font-family="Monaco" font-size="10.00">minValue()</text>
<text text-anchor="start" x="36" y="-7" font-family="Monaco" font-size="10.00">+</text>
<text text-anchor="start" x="59.5" y="-7" font-family="Monaco" font-size="10.00">maxValue()</text>
<polygon fill="#666666" stroke="#666666" points="21.5,-77 21.5,-77 146.5,-77 146.5,-77 21.5,-77"/>
<polygon fill="#666666" stroke="#666666" points="21.5,-62 21.5,-62 146.5,-62 146.5,-62 21.5,-62"/>
<polygon fill="none" stroke="#666666" points="21,0 21,-94 146,-94 146,0 21,0"/>
</a>
</g>
</g>
<!-- Node2 -->
<g id="Node000002" class="node">
<title>Node2</title>
<g id="a_Node000002"><a xlink:href="../../d9/d22/class_hydro_couple_1_1_i_value_definition.html" target="_top" xlink:title="IValueDefinition describes a value returned by the getValues() function of IValueSet.">
<polygon fill="white" stroke="transparent" points="162,-224 5,-224 5,-130 162,-130 162,-224"/>
<text text-anchor="start" x="10.5" y="-212" font-family="Monaco" font-size="10.00">HydroCouple::IValueDefinition</text>
<text text-anchor="start" x="82" y="-197" font-family="Monaco" font-size="10.00"> </text>
<text text-anchor="start" x="20" y="-182" font-family="Monaco" font-size="10.00">+</text>
<text text-anchor="start" x="43.5" y="-182" font-family="Monaco" font-size="10.00">~IValueDefinition()</text>
<text text-anchor="start" x="20" y="-167" font-family="Monaco" font-size="10.00">+</text>
<text text-anchor="start" x="43.5" y="-167" font-family="Monaco" font-size="10.00">type()</text>
<text text-anchor="start" x="20" y="-152" font-family="Monaco" font-size="10.00">+</text>
<text text-anchor="start" x="43.5" y="-152" font-family="Monaco" font-size="10.00">missingValue()</text>
<text text-anchor="start" x="20" y="-137" font-family="Monaco" font-size="10.00">+</text>
<text text-anchor="start" x="43.5" y="-137" font-family="Monaco" font-size="10.00">defaultValue()</text>
<polygon fill="#666666" stroke="#666666" points="5.5,-207 5.5,-207 162.5,-207 162.5,-207 5.5,-207"/>
<polygon fill="#666666" stroke="#666666" points="5.5,-192 5.5,-192 162.5,-192 162.5,-192 5.5,-192"/>
<polygon fill="none" stroke="#666666" points="5,-130 5,-224 162,-224 162,-130 5,-130"/>
</a>
</g>
</g>
<!-- Node2&#45;&gt;Node1 -->
<g id="edge1_Node000001_Node000002" class="edge">
<title>Node2&#45;&gt;Node1</title>
<g id="a_edge1_Node000001_Node000002"><a xlink:title=" ">
<path fill="none" stroke="#63b8ff" d="M83.5,-119.56C83.5,-111.06 83.5,-102.39 83.5,-94.14"/>
<polygon fill="none" stroke="#63b8ff" points="80,-119.79 83.5,-129.79 87,-119.79 80,-119.79"/>
</a>
</g>
</g>
<!-- Node3 -->
<g id="Node000003" class="node">
<title>Node3</title>
<g id="a_Node000003"><a xlink:href="../../db/d64/class_hydro_couple_1_1_i_description.html" target="_top" xlink:title="IDescription interface class provides descriptive information on a HydroCouple object.">
<polygon fill="white" stroke="transparent" points="152.5,-369 14.5,-369 14.5,-260 152.5,-260 152.5,-369"/>
<text text-anchor="start" x="19.5" y="-356.5" font-family="Monaco" font-size="10.00">HydroCouple::IDescription</text>
<text text-anchor="start" x="81.5" y="-341.5" font-family="Monaco" font-size="10.00"> </text>
<text text-anchor="start" x="28" y="-326.5" font-family="Monaco" font-size="10.00">+</text>
<text text-anchor="start" x="50.5" y="-326.5" font-family="Monaco" font-size="10.00">~IDescription()</text>
<text text-anchor="start" x="28" y="-311.5" font-family="Monaco" font-size="10.00">+</text>
<text text-anchor="start" x="50.5" y="-311.5" font-family="Monaco" font-size="10.00">caption()</text>
<text text-anchor="start" x="28" y="-296.5" font-family="Monaco" font-size="10.00">+</text>
<text text-anchor="start" x="50.5" y="-296.5" font-family="Monaco" font-size="10.00">setCaption()</text>
<text text-anchor="start" x="28" y="-281.5" font-family="Monaco" font-size="10.00">+</text>
<text text-anchor="start" x="50.5" y="-281.5" font-family="Monaco" font-size="10.00">description()</text>
<text text-anchor="start" x="28" y="-266.5" font-family="Monaco" font-size="10.00">+</text>
<text text-anchor="start" x="50.5" y="-266.5" font-family="Monaco" font-size="10.00">setDescription()</text>
<polygon fill="#666666" stroke="#666666" points="14.5,-351.5 14.5,-351.5 152.5,-351.5 152.5,-351.5 14.5,-351.5"/>
<polygon fill="#666666" stroke="#666666" points="14.5,-336.5 14.5,-336.5 152.5,-336.5 152.5,-336.5 14.5,-336.5"/>
<polygon fill="none" stroke="#666666" points="14.5,-260 14.5,-369 152.5,-369 152.5,-260 14.5,-260"/>
</a>
</g>
</g>
<!-- Node3&#45;&gt;Node2 -->
<g id="edge2_Node000002_Node000003" class="edge">
<title>Node3&#45;&gt;Node2</title>
<g id="a_edge2_Node000002_Node000003"><a xlink:title=" ">
<path fill="none" stroke="#63b8ff" d="M83.5,-249.85C83.5,-241.19 83.5,-232.43 83.5,-224.16"/>
<polygon fill="none" stroke="#63b8ff" points="80,-249.95 83.5,-259.95 87,-249.95 80,-249.95"/>
</a>
</g>
</g>
<!-- Node4 -->
<g id="Node000004" class="node">
<title>Node4</title>
<g id="a_Node000004"><a xlink:href="../../dd/dbf/class_hydro_couple_1_1_i_property_changed.html" target="_top" xlink:title="IPropertyChanged interface is used to emit signal/event when a property of an object changes.">
<polygon fill="white" stroke="transparent" points="167,-454 0,-454 0,-405 167,-405 167,-454"/>
<text text-anchor="start" x="5.5" y="-441.5" font-family="Monaco" font-size="10.00">HydroCouple::IPropertyChanged</text>
<text text-anchor="start" x="82" y="-426.5" font-family="Monaco" font-size="10.00"> </text>
<text text-anchor="start" x="15" y="-411.5" font-family="Monaco" font-size="10.00">+</text>
<text text-anchor="start" x="38.5" y="-411.5" font-family="Monaco" font-size="10.00">~IPropertyChanged()</text>
<polygon fill="#666666" stroke="#666666" points="0.5,-436.5 0.5,-436.5 167.5,-436.5 167.5,-436.5 0.5,-436.5"/>
<polygon fill="#666666" stroke="#666666" points="0.5,-421.5 0.5,-421.5 167.5,-421.5 167.5,-421.5 0.5,-421.5"/>
<polygon fill="none" stroke="#666666" points="0,-405 0,-454 167,-454 167,-405 0,-405"/>
</a>
</g>
</g>
<!-- Node4&#45;&gt;Node3 -->
<g id="edge3_Node000003_Node000004" class="edge">
<title>Node4&#45;&gt;Node3</title>
<g id="a_edge3_Node000003_Node000004"><a xlink:title=" ">
<path fill="none" stroke="#63b8ff" d="M83.5,-394.79C83.5,-386.79 83.5,-378.06 83.5,-369.41"/>
<polygon fill="none" stroke="#63b8ff" points="80,-394.81 83.5,-404.81 87,-394.81 80,-394.81"/>
</a>
</g>
</g>
<!-- Node5 -->
<g id="Node000005" class="node">
<title>Node5</title>
<g id="a_Node000005"><a xlink:href="../../d5/d8b/class_hydro_couple_1_1_i_signal.html" target="_top" xlink:title=" ">
<polygon fill="white" stroke="transparent" points="140,-610 27,-610 27,-490 140,-490 140,-610"/>
<text text-anchor="start" x="32.5" y="-598" font-family="Monaco" font-size="10.00">HydroCouple::ISignal</text>
<text text-anchor="start" x="58.5" y="-587" font-family="Monaco" font-size="10.00">&lt; string &gt;</text>
<text text-anchor="start" x="82" y="-572" font-family="Monaco" font-size="10.00"> </text>
<text text-anchor="start" x="37" y="-557" font-family="Monaco" font-size="10.00">+</text>
<text text-anchor="start" x="55.5" y="-557" font-family="Monaco" font-size="10.00">~ISignal()</text>
<text text-anchor="start" x="37" y="-542" font-family="Monaco" font-size="10.00">+</text>
<text text-anchor="start" x="55.5" y="-542" font-family="Monaco" font-size="10.00">connect()</text>
<text text-anchor="start" x="37" y="-527" font-family="Monaco" font-size="10.00">+</text>
<text text-anchor="start" x="55.5" y="-527" font-family="Monaco" font-size="10.00">disconnect()</text>
<text text-anchor="start" x="37" y="-512" font-family="Monaco" font-size="10.00">+</text>
<text text-anchor="start" x="55.5" y="-512" font-family="Monaco" font-size="10.00">blockSignals()</text>
<text text-anchor="start" x="37" y="-497" font-family="Monaco" font-size="10.00">#</text>
<text text-anchor="start" x="55.5" y="-497" font-family="Monaco" font-size="10.00">emit()</text>
<polygon fill="#666666" stroke="#666666" points="27.5,-582 27.5,-582 140.5,-582 140.5,-582 27.5,-582"/>
<polygon fill="#666666" stroke="#666666" points="27.5,-567 27.5,-567 140.5,-567 140.5,-567 27.5,-567"/>
<polygon fill="none" stroke="#666666" points="27,-490 27,-610 140,-610 140,-490 27,-490"/>
</a>
</g>
</g>
<!-- Node5&#45;&gt;Node4 -->
<g id="edge4_Node000004_Node000005" class="edge">
<title>Node5&#45;&gt;Node4</title>
<g id="a_edge4_Node000004_Node000005"><a xlink:title=" ">
<path fill="none" stroke="#63b8ff" d="M83.5,-479.74C83.5,-470.6 83.5,-461.78 83.5,-454.2"/>
<polygon fill="none" stroke="#63b8ff" points="80,-479.75 83.5,-489.75 87,-479.75 80,-479.75"/>
</a>
</g>
</g>
</g>
</svg>
