<?xml version="1.0" encoding="UTF-8" standalone="no"?>
<!DOCTYPE svg PUBLIC "-//W3C//DTD SVG 1.1//EN"
 "http://www.w3.org/Graphics/SVG/1.1/DTD/svg11.dtd">
<!-- Generated by graphviz version 2.43.0 (0)
 -->
<!-- Title: HydroCouple::IOutput Pages: 1 -->
<!--zoomable 1065 -->

<svg id="main" version="1.1" xmlns="http://www.w3.org/2000/svg" xmlns:xlink="http://www.w3.org/1999/xlink" xml:space="preserve" onload="init(evt)">
<style type="text/css"><![CDATA[
.node, .edge {opacity: 0.7;}
.node.selected, .edge.selected {opacity: 1;}
.edge:hover path { stroke: red; }
.edge:hover polygon { stroke: red; fill: red; }
]]></style>

<defs>
  <circle id="rim" cx="0" cy="0" r="7"/>
  <circle id="rim2" cx="0" cy="0" r="3.5"/>
  <g id="zoomPlus">
    <use xlink:href="#rim" fill="#404040"><set attributeName="fill" to="#808080" begin="zoomplus.mouseover" end="zoomplus.mouseout"/></use>
    <path d="M-4,0h8M0,-4v8" fill="none" stroke="white" stroke-width="1.5" pointer-events="none"/>
  </g>
  <g id="zoomMin">
    <use xlink:href="#rim" fill="#404040"><set attributeName="fill" to="#808080" begin="zoomminus.mouseover" end="zoomminus.mouseout"/></use>
    <path d="M-4,0h8" fill="none" stroke="white" stroke-width="1.5" pointer-events="none"/>
  </g>
  <g id="arrowUp" transform="translate(30 24)">
    <use xlink:href="#rim"/>
    <path pointer-events="none" fill="none" stroke="white" stroke-width="1.5" d="M0,-3.0v7 M-2.5,-0.5L0,-3.0L2.5,-0.5"/>
  </g>
  <g id="arrowRight" transform="rotate(90) translate(36 -43)">
    <use xlink:href="#rim"/>
    <path pointer-events="none" fill="none" stroke="white" stroke-width="1.5" d="M0,-3.0v7 M-2.5,-0.5L0,-3.0L2.5,-0.5"/>
  </g>
  <g id="arrowDown" transform="rotate(180) translate(-30 -48)">
    <use xlink:href="#rim"/>
    <path pointer-events="none" fill="none" stroke="white" stroke-width="1.5" d="M0,-3.0v7 M-2.5,-0.5L0,-3.0L2.5,-0.5"/>
  </g>
  <g id="arrowLeft" transform="rotate(270) translate(-36 17)">
    <use xlink:href="#rim"/>
    <path pointer-events="none" fill="none" stroke="white" stroke-width="1.5" d="M0,-3.0v7 M-2.5,-0.5L0,-3.0L2.5,-0.5"/>
  </g>
  <g id="resetDef">
    <use xlink:href="#rim2" fill="#404040"><set attributeName="fill" to="#808080" begin="reset.mouseover" end="reset.mouseout"/></use>
  </g>
</defs>
<script type="application/ecmascript">
var viewWidth = 343;
var viewHeight = 1065;
var sectionId = 'dynsection-1';
</script>
<script type="application/ecmascript" xlink:href="../../svg.min.js"/>
<svg id="graph" class="graph">
<g id="viewport">
<title>HydroCouple::IOutput</title>
<!-- Node1 -->
<g id="Node000001" class="node">
<title>Node1</title>
<g id="a_Node000001"><a xlink:title="An output exchange item that can deliver values from an IModelComponent.">
<polygon fill="#999999" stroke="transparent" points="235.5,-154 95.5,-154 95.5,0 235.5,0 235.5,-154"/>
<text text-anchor="start" x="112.5" y="-142" font-family="Monaco" font-size="10.00">HydroCouple::IOutput</text>
<text text-anchor="start" x="163.5" y="-127" font-family="Monaco" font-size="10.00"> </text>
<text text-anchor="start" x="99.5" y="-112" font-family="Monaco" font-size="10.00">+</text>
<text text-anchor="start" x="112.5" y="-112" font-family="Monaco" font-size="10.00">~IOutput()</text>
<text text-anchor="start" x="99.5" y="-97" font-family="Monaco" font-size="10.00">+</text>
<text text-anchor="start" x="112.5" y="-97" font-family="Monaco" font-size="10.00">consumers()</text>
<text text-anchor="start" x="99.5" y="-82" font-family="Monaco" font-size="10.00">+</text>
<text text-anchor="start" x="112.5" y="-82" font-family="Monaco" font-size="10.00">addConsumer()</text>
<text text-anchor="start" x="99.5" y="-67" font-family="Monaco" font-size="10.00">+</text>
<text text-anchor="start" x="112.5" y="-67" font-family="Monaco" font-size="10.00">removeConsumer()</text>
<text text-anchor="start" x="99.5" y="-52" font-family="Monaco" font-size="10.00">+</text>
<text text-anchor="start" x="112.5" y="-52" font-family="Monaco" font-size="10.00">adaptedOutputs()</text>
<text text-anchor="start" x="99.5" y="-37" font-family="Monaco" font-size="10.00">+</text>
<text text-anchor="start" x="112.5" y="-37" font-family="Monaco" font-size="10.00">addAdaptedOutput()</text>
<text text-anchor="start" x="99.5" y="-22" font-family="Monaco" font-size="10.00">+</text>
<text text-anchor="start" x="112.5" y="-22" font-family="Monaco" font-size="10.00">removeAdaptedOutput()</text>
<text text-anchor="start" x="99.5" y="-7" font-family="Monaco" font-size="10.00">+</text>
<text text-anchor="start" x="112.5" y="-7" font-family="Monaco" font-size="10.00">updateValues()</text>
<polygon fill="#666666" stroke="#666666" points="95.5,-137 95.5,-137 235.5,-137 235.5,-137 95.5,-137"/>
<polygon fill="#666666" stroke="#666666" points="95.5,-122 95.5,-122 235.5,-122 235.5,-122 95.5,-122"/>
<polygon fill="none" stroke="#666666" points="95.5,0 95.5,-154 235.5,-154 235.5,0 95.5,0"/>
</a>
</g>
</g>
<!-- Node2 -->
<g id="Node000002" class="node">
<title>Node2</title>
<g id="a_Node000002"><a xlink:href="../../d1/dd3/class_hydro_couple_1_1_i_exchange_item.html" target="_top" xlink:title="IExchangeItem the base data item the can be exchanged between components at runtime.">
<polygon fill="white" stroke="transparent" points="241.5,-239 89.5,-239 89.5,-190 241.5,-190 241.5,-239"/>
<text text-anchor="start" x="94.5" y="-226.5" font-family="Monaco" font-size="10.00">HydroCouple::IExchangeItem</text>
<text text-anchor="start" x="163.5" y="-211.5" font-family="Monaco" font-size="10.00"> </text>
<text text-anchor="start" x="104" y="-196.5" font-family="Monaco" font-size="10.00">+</text>
<text text-anchor="start" x="127.5" y="-196.5" font-family="Monaco" font-size="10.00">~IExchangeItem()</text>
<polygon fill="#666666" stroke="#666666" points="89.5,-221.5 89.5,-221.5 241.5,-221.5 241.5,-221.5 89.5,-221.5"/>
<polygon fill="#666666" stroke="#666666" points="89.5,-206.5 89.5,-206.5 241.5,-206.5 241.5,-206.5 89.5,-206.5"/>
<polygon fill="none" stroke="#666666" points="89.5,-190 89.5,-239 241.5,-239 241.5,-190 89.5,-190"/>
</a>
</g>
</g>
<!-- Node2&#45;&gt;Node1 -->
<g id="edge1_Node000001_Node000002" class="edge">
<title>Node2&#45;&gt;Node1</title>
<g id="a_edge1_Node000001_Node000002"><a xlink:title=" ">
<path fill="none" stroke="#63b8ff" d="M165.5,-179.66C165.5,-171.74 165.5,-162.97 165.5,-154.01"/>
<polygon fill="none" stroke="#63b8ff" points="162,-179.9 165.5,-189.9 169,-179.9 162,-179.9"/>
</a>
</g>
</g>
<!-- Node3 -->
<g id="Node000003" class="node">
<title>Node3</title>
<g id="a_Node000003"><a xlink:href="../../d8/d52/class_hydro_couple_1_1_i_component_data_item.html" target="_top" xlink:title="IComponentItem is a fundamental unit of data for a component.">
<polygon fill="white" stroke="transparent" points="258,-504 73,-504 73,-275 258,-275 258,-504"/>
<text text-anchor="start" x="78.5" y="-491.5" font-family="Monaco" font-size="10.00">HydroCouple::IComponentDataItem</text>
<text text-anchor="start" x="164" y="-476.5" font-family="Monaco" font-size="10.00"> </text>
<text text-anchor="start" x="88" y="-461.5" font-family="Monaco" font-size="10.00">+</text>
<text text-anchor="start" x="111.5" y="-461.5" font-family="Monaco" font-size="10.00">~IComponentDataItem()</text>
<text text-anchor="start" x="88" y="-446.5" font-family="Monaco" font-size="10.00">+</text>
<text text-anchor="start" x="111.5" y="-446.5" font-family="Monaco" font-size="10.00">modelComponent()</text>
<text text-anchor="start" x="88" y="-431.5" font-family="Monaco" font-size="10.00">+</text>
<text text-anchor="start" x="111.5" y="-431.5" font-family="Monaco" font-size="10.00">dimensions()</text>
<text text-anchor="start" x="88" y="-416.5" font-family="Monaco" font-size="10.00">+</text>
<text text-anchor="start" x="111.5" y="-416.5" font-family="Monaco" font-size="10.00">dimensionLength()</text>
<text text-anchor="start" x="88" y="-401.5" font-family="Monaco" font-size="10.00">+</text>
<text text-anchor="start" x="111.5" y="-401.5" font-family="Monaco" font-size="10.00">valueDefinition()</text>
<text text-anchor="start" x="88" y="-386.5" font-family="Monaco" font-size="10.00">+</text>
<text text-anchor="start" x="111.5" y="-386.5" font-family="Monaco" font-size="10.00">getValue()</text>
<text text-anchor="start" x="88" y="-371.5" font-family="Monaco" font-size="10.00">+</text>
<text text-anchor="start" x="111.5" y="-371.5" font-family="Monaco" font-size="10.00">getValues()</text>
<text text-anchor="start" x="88" y="-356.5" font-family="Monaco" font-size="10.00">+</text>
<text text-anchor="start" x="111.5" y="-356.5" font-family="Monaco" font-size="10.00">setValue()</text>
<text text-anchor="start" x="88" y="-341.5" font-family="Monaco" font-size="10.00">+</text>
<text text-anchor="start" x="111.5" y="-341.5" font-family="Monaco" font-size="10.00">setValues()</text>
<text text-anchor="start" x="88" y="-326.5" font-family="Monaco" font-size="10.00">+</text>
<text text-anchor="start" x="111.5" y="-326.5" font-family="Monaco" font-size="10.00">hasEditor()</text>
<text text-anchor="start" x="88" y="-311.5" font-family="Monaco" font-size="10.00">+</text>
<text text-anchor="start" x="111.5" y="-311.5" font-family="Monaco" font-size="10.00">showEditor()</text>
<text text-anchor="start" x="88" y="-296.5" font-family="Monaco" font-size="10.00">+</text>
<text text-anchor="start" x="111.5" y="-296.5" font-family="Monaco" font-size="10.00">hasViewer()</text>
<text text-anchor="start" x="88" y="-281.5" font-family="Monaco" font-size="10.00">+</text>
<text text-anchor="start" x="111.5" y="-281.5" font-family="Monaco" font-size="10.00">showViewer()</text>
<polygon fill="#666666" stroke="#666666" points="73.5,-486.5 73.5,-486.5 258.5,-486.5 258.5,-486.5 73.5,-486.5"/>
<polygon fill="#666666" stroke="#666666" points="73.5,-471.5 73.5,-471.5 258.5,-471.5 258.5,-471.5 73.5,-471.5"/>
<polygon fill="none" stroke="#666666" points="73,-275 73,-504 258,-504 258,-275 73,-275"/>
</a>
</g>
</g>
<!-- Node3&#45;&gt;Node2 -->
<g id="edge2_Node000002_Node000003" class="edge">
<title>Node3&#45;&gt;Node2</title>
<g id="a_edge2_Node000002_Node000003"><a xlink:title=" ">
<path fill="none" stroke="#63b8ff" d="M165.5,-264.49C165.5,-255.07 165.5,-246.39 165.5,-239.03"/>
<polygon fill="none" stroke="#63b8ff" points="162,-264.55 165.5,-274.55 169,-264.55 162,-264.55"/>
</a>
</g>
</g>
<!-- Node4 -->
<g id="Node000004" class="node">
<title>Node4</title>
<g id="a_Node000004"><a xlink:href="../../d2/d2a/class_hydro_couple_1_1_i_identity.html" target="_top" xlink:title="IIdentity interface class defines a method to get the Id of an HydroCouple entity.">
<polygon fill="white" stroke="transparent" points="143.5,-637.5 23.5,-637.5 23.5,-573.5 143.5,-573.5 143.5,-637.5"/>
<text text-anchor="start" x="28.5" y="-625.5" font-family="Monaco" font-size="10.00">HydroCouple::IIdentity</text>
<text text-anchor="start" x="81.5" y="-610.5" font-family="Monaco" font-size="10.00"> </text>
<text text-anchor="start" x="38" y="-595.5" font-family="Monaco" font-size="10.00">+</text>
<text text-anchor="start" x="61.5" y="-595.5" font-family="Monaco" font-size="10.00">~IIdentity()</text>
<text text-anchor="start" x="38" y="-580.5" font-family="Monaco" font-size="10.00">+</text>
<text text-anchor="start" x="61.5" y="-580.5" font-family="Monaco" font-size="10.00">id()</text>
<polygon fill="#666666" stroke="#666666" points="23.5,-620.5 23.5,-620.5 143.5,-620.5 143.5,-620.5 23.5,-620.5"/>
<polygon fill="#666666" stroke="#666666" points="23.5,-605.5 23.5,-605.5 143.5,-605.5 143.5,-605.5 23.5,-605.5"/>
<polygon fill="none" stroke="#666666" points="23.5,-573.5 23.5,-637.5 143.5,-637.5 143.5,-573.5 23.5,-573.5"/>
</a>
</g>
</g>
<!-- Node4&#45;&gt;Node3 -->
<g id="edge3_Node000003_Node000004" class="edge">
<title>Node4&#45;&gt;Node3</title>
<g id="a_edge3_Node000003_Node000004"><a xlink:title=" ">
<path fill="none" stroke="#63b8ff" d="M99.13,-563.71C105.72,-546.5 113.76,-525.52 121.94,-504.19"/>
<polygon fill="none" stroke="#63b8ff" points="95.73,-562.79 95.42,-573.38 102.27,-565.3 95.73,-562.79"/>
</a>
</g>
</g>
<!-- Node5 -->
<g id="Node000005" class="node">
<title>Node5</title>
<g id="a_Node000005"><a xlink:href="../../db/d64/class_hydro_couple_1_1_i_description.html" target="_top" xlink:title="IDescription interface class provides descriptive information on a HydroCouple object.">
<polygon fill="white" stroke="transparent" points="152.5,-816 14.5,-816 14.5,-707 152.5,-707 152.5,-816"/>
<text text-anchor="start" x="19.5" y="-803.5" font-family="Monaco" font-size="10.00">HydroCouple::IDescription</text>
<text text-anchor="start" x="81.5" y="-788.5" font-family="Monaco" font-size="10.00"> </text>
<text text-anchor="start" x="28" y="-773.5" font-family="Monaco" font-size="10.00">+</text>
<text text-anchor="start" x="50.5" y="-773.5" font-family="Monaco" font-size="10.00">~IDescription()</text>
<text text-anchor="start" x="28" y="-758.5" font-family="Monaco" font-size="10.00">+</text>
<text text-anchor="start" x="50.5" y="-758.5" font-family="Monaco" font-size="10.00">caption()</text>
<text text-anchor="start" x="28" y="-743.5" font-family="Monaco" font-size="10.00">+</text>
<text text-anchor="start" x="50.5" y="-743.5" font-family="Monaco" font-size="10.00">setCaption()</text>
<text text-anchor="start" x="28" y="-728.5" font-family="Monaco" font-size="10.00">+</text>
<text text-anchor="start" x="50.5" y="-728.5" font-family="Monaco" font-size="10.00">description()</text>
<text text-anchor="start" x="28" y="-713.5" font-family="Monaco" font-size="10.00">+</text>
<text text-anchor="start" x="50.5" y="-713.5" font-family="Monaco" font-size="10.00">setDescription()</text>
<polygon fill="#666666" stroke="#666666" points="14.5,-798.5 14.5,-798.5 152.5,-798.5 152.5,-798.5 14.5,-798.5"/>
<polygon fill="#666666" stroke="#666666" points="14.5,-783.5 14.5,-783.5 152.5,-783.5 152.5,-783.5 14.5,-783.5"/>
<polygon fill="none" stroke="#666666" points="14.5,-707 14.5,-816 152.5,-816 152.5,-707 14.5,-707"/>
</a>
</g>
</g>
<!-- Node5&#45;&gt;Node4 -->
<g id="edge4_Node000004_Node000005" class="edge">
<title>Node5&#45;&gt;Node4</title>
<g id="a_edge4_Node000004_Node000005"><a xlink:title=" ">
<path fill="none" stroke="#63b8ff" d="M83.5,-696.47C83.5,-676.15 83.5,-654.58 83.5,-637.66"/>
<polygon fill="none" stroke="#63b8ff" points="80,-696.64 83.5,-706.64 87,-696.64 80,-696.64"/>
</a>
</g>
</g>
<!-- Node6 -->
<g id="Node000006" class="node">
<title>Node6</title>
<g id="a_Node000006"><a xlink:href="../../dd/dbf/class_hydro_couple_1_1_i_property_changed.html" target="_top" xlink:title="IPropertyChanged interface is used to emit signal/event when a property of an object changes.">
<polygon fill="white" stroke="transparent" points="167,-901 0,-901 0,-852 167,-852 167,-901"/>
<text text-anchor="start" x="5.5" y="-888.5" font-family="Monaco" font-size="10.00">HydroCouple::IPropertyChanged</text>
<text text-anchor="start" x="82" y="-873.5" font-family="Monaco" font-size="10.00"> </text>
<text text-anchor="start" x="15" y="-858.5" font-family="Monaco" font-size="10.00">+</text>
<text text-anchor="start" x="38.5" y="-858.5" font-family="Monaco" font-size="10.00">~IPropertyChanged()</text>
<polygon fill="#666666" stroke="#666666" points="0.5,-883.5 0.5,-883.5 167.5,-883.5 167.5,-883.5 0.5,-883.5"/>
<polygon fill="#666666" stroke="#666666" points="0.5,-868.5 0.5,-868.5 167.5,-868.5 167.5,-868.5 0.5,-868.5"/>
<polygon fill="none" stroke="#666666" points="0,-852 0,-901 167,-901 167,-852 0,-852"/>
</a>
</g>
</g>
<!-- Node6&#45;&gt;Node5 -->
<g id="edge5_Node000005_Node000006" class="edge">
<title>Node6&#45;&gt;Node5</title>
<g id="a_edge5_Node000005_Node000006"><a xlink:title=" ">
<path fill="none" stroke="#63b8ff" d="M83.5,-841.79C83.5,-833.79 83.5,-825.06 83.5,-816.41"/>
<polygon fill="none" stroke="#63b8ff" points="80,-841.81 83.5,-851.81 87,-841.81 80,-841.81"/>
</a>
</g>
</g>
<!-- Node7 -->
<g id="Node000007" class="node">
<title>Node7</title>
<g id="a_Node000007"><a xlink:href="../../d5/d8b/class_hydro_couple_1_1_i_signal.html" target="_top" xlink:title=" ">
<polygon fill="white" stroke="transparent" points="140,-1057 27,-1057 27,-937 140,-937 140,-1057"/>
<text text-anchor="start" x="32.5" y="-1045" font-family="Monaco" font-size="10.00">HydroCouple::ISignal</text>
<text text-anchor="start" x="58.5" y="-1034" font-family="Monaco" font-size="10.00">&lt; string &gt;</text>
<text text-anchor="start" x="82" y="-1019" font-family="Monaco" font-size="10.00"> </text>
<text text-anchor="start" x="37" y="-1004" font-family="Monaco" font-size="10.00">+</text>
<text text-anchor="start" x="55.5" y="-1004" font-family="Monaco" font-size="10.00">~ISignal()</text>
<text text-anchor="start" x="37" y="-989" font-family="Monaco" font-size="10.00">+</text>
<text text-anchor="start" x="55.5" y="-989" font-family="Monaco" font-size="10.00">connect()</text>
<text text-anchor="start" x="37" y="-974" font-family="Monaco" font-size="10.00">+</text>
<text text-anchor="start" x="55.5" y="-974" font-family="Monaco" font-size="10.00">disconnect()</text>
<text text-anchor="start" x="37" y="-959" font-family="Monaco" font-size="10.00">+</text>
<text text-anchor="start" x="55.5" y="-959" font-family="Monaco" font-size="10.00">blockSignals()</text>
<text text-anchor="start" x="37" y="-944" font-family="Monaco" font-size="10.00">#</text>
<text text-anchor="start" x="55.5" y="-944" font-family="Monaco" font-size="10.00">emit()</text>
<polygon fill="#666666" stroke="#666666" points="27.5,-1029 27.5,-1029 140.5,-1029 140.5,-1029 27.5,-1029"/>
<polygon fill="#666666" stroke="#666666" points="27.5,-1014 27.5,-1014 140.5,-1014 140.5,-1014 27.5,-1014"/>
<polygon fill="none" stroke="#666666" points="27,-937 27,-1057 140,-1057 140,-937 27,-937"/>
</a>
</g>
</g>
<!-- Node7&#45;&gt;Node6 -->
<g id="edge6_Node000006_Node000007" class="edge">
<title>Node7&#45;&gt;Node6</title>
<g id="a_edge6_Node000006_Node000007"><a xlink:title=" ">
<path fill="none" stroke="#63b8ff" d="M83.5,-926.74C83.5,-917.6 83.5,-908.78 83.5,-901.2"/>
<polygon fill="none" stroke="#63b8ff" points="80,-926.75 83.5,-936.75 87,-926.75 80,-926.75"/>
</a>
</g>
</g>
<!-- Node8 -->
<g id="Node000008" class="node">
<title>Node8</title>
<g id="a_Node000008"><a xlink:href="../../d5/d8b/class_hydro_couple_1_1_i_signal.html" target="_top" xlink:title=" ">
<polygon fill="white" stroke="transparent" points="335,-671 162,-671 162,-540 335,-540 335,-671"/>
<text text-anchor="start" x="167.5" y="-658.5" font-family="Monaco" font-size="10.00">HydroCouple::ISignal</text>
<text text-anchor="start" x="167.5" y="-647.5" font-family="Monaco" font-size="10.00">&lt; const shared_ptr&lt; IComponent</text>
<text text-anchor="start" x="174.5" y="-636.5" font-family="Monaco" font-size="10.00">DataItemValueChanged &gt; &amp; &gt;</text>
<text text-anchor="start" x="247" y="-621.5" font-family="Monaco" font-size="10.00"> </text>
<text text-anchor="start" x="187" y="-606.5" font-family="Monaco" font-size="10.00">+</text>
<text text-anchor="start" x="220.5" y="-606.5" font-family="Monaco" font-size="10.00">~ISignal()</text>
<text text-anchor="start" x="187" y="-591.5" font-family="Monaco" font-size="10.00">+</text>
<text text-anchor="start" x="220.5" y="-591.5" font-family="Monaco" font-size="10.00">connect()</text>
<text text-anchor="start" x="187" y="-576.5" font-family="Monaco" font-size="10.00">+</text>
<text text-anchor="start" x="220.5" y="-576.5" font-family="Monaco" font-size="10.00">disconnect()</text>
<text text-anchor="start" x="187" y="-561.5" font-family="Monaco" font-size="10.00">+</text>
<text text-anchor="start" x="220.5" y="-561.5" font-family="Monaco" font-size="10.00">blockSignals()</text>
<text text-anchor="start" x="187" y="-546.5" font-family="Monaco" font-size="10.00">#</text>
<text text-anchor="start" x="220.5" y="-546.5" font-family="Monaco" font-size="10.00">emit()</text>
<polygon fill="#666666" stroke="#666666" points="162.5,-631.5 162.5,-631.5 335.5,-631.5 335.5,-631.5 162.5,-631.5"/>
<polygon fill="#666666" stroke="#666666" points="162.5,-616.5 162.5,-616.5 335.5,-616.5 335.5,-616.5 162.5,-616.5"/>
<polygon fill="none" stroke="#666666" points="162,-540 162,-671 335,-671 335,-540 162,-540"/>
</a>
</g>
</g>
<!-- Node8&#45;&gt;Node3 -->
<g id="edge7_Node000003_Node000008" class="edge">
<title>Node8&#45;&gt;Node3</title>
<g id="a_edge7_Node000003_Node000008"><a xlink:title=" ">
<path fill="none" stroke="#63b8ff" d="M219.71,-530.27C216.42,-521.79 213.01,-512.99 209.58,-504.14"/>
<polygon fill="none" stroke="#63b8ff" points="216.49,-531.65 223.37,-539.71 223.02,-529.12 216.49,-531.65"/>
</a>
</g>
</g>
</g>
</svg>

<g id="navigator" transform="translate(0 0)" fill="#404254">
  <rect fill="#f2f5e9" fill-opacity="0.5" stroke="#606060" stroke-width=".5" x="0" y="0" width="60" height="60"/>
  <use id="zoomplus" xlink:href="#zoomPlus" x="17" y="9" onmousedown="handleZoom(evt,'in')"/>
  <use id="zoomminus" xlink:href="#zoomMin" x="42" y="9" onmousedown="handleZoom(evt,'out')"/>
  <use id="reset" xlink:href="#resetDef" x="30" y="36" onmousedown="handleReset()"/>
   <use id="arrowup" xlink:href="#arrowUp" x="0" y="0" onmousedown="handlePan(0,-1)"/>
  <use id="arrowright" xlink:href="#arrowRight" x="0" y="0" onmousedown="handlePan(1,0)"/>
  <use id="arrowdown" xlink:href="#arrowDown" x="0" y="0" onmousedown="handlePan(0,1)"/>
  <use id="arrowleft" xlink:href="#arrowLeft" x="0" y="0" onmousedown="handlePan(-1,0)"/>
</g>
<svg viewBox="0 0 15 15" width="100%" height="30px" preserveAspectRatio="xMaxYMin meet">
 <g id="arrow_out" transform="scale(0.3 0.3)">
  <a xlink:href="class_hydro_couple_1_1_i_output__coll__graph_org.svg" target="_base">
   <rect id="button" ry="5" rx="5" y="6" x="6" height="38" width="38"
        fill="#f2f5e9" fill-opacity="0.5" stroke="#606060" stroke-width="1.0"/>
   <path id="arrow"
     d="M 11.500037,31.436501 C 11.940474,20.09759 22.043105,11.32322 32.158766,21.979434 L 37.068811,17.246167 C 37.068811,17.246167 37.088388,32 37.088388,32 L 22.160133,31.978069 C 22.160133,31.978069 26.997745,27.140456 26.997745,27.140456 C 18.528582,18.264221 13.291696,25.230495 11.500037,31.436501 z"
     style="fill:#404040;"/>
  </a>
 </g>
</svg>

<style type='text/css'>
<![CDATA[
[data-mouse-over-selected='false'] { opacity: 0.7; }
[data-mouse-over-selected='true']  { opacity: 1.0; }
]]>
</style>
<script type="application/ecmascript"><![CDATA[
document.addEventListener('DOMContentLoaded', (event) => {
  highlightEdges();
  highlightAdjacentNodes();
});
]]></script>
</svg>
