<?xml version="1.0" encoding="UTF-8" standalone="no"?>
<!DOCTYPE svg PUBLIC "-//W3C//DTD SVG 1.1//EN"
 "http://www.w3.org/Graphics/SVG/1.1/DTD/svg11.dtd">
<!-- Generated by graphviz version 2.43.0 (0)
 -->
<!-- Title: HydroCouple::IAdaptedOutput Pages: 1 -->
<svg width="343pt" height="1225pt"
 viewBox="0.00 0.00 343.00 1225.00" xmlns="http://www.w3.org/2000/svg" xmlns:xlink="http://www.w3.org/1999/xlink">
<g id="graph0" class="graph" transform="scale(1 1) rotate(0) translate(4 1221)">
<title>HydroCouple::IAdaptedOutput</title>
<!-- Node1 -->
<g id="Node000001" class="node">
<title>Node1</title>
<g id="a_Node000001"><a xlink:title="An IAdaptedOutput adds one or more data operations on top of an IOutput.">
<polygon fill="#999999" stroke="transparent" points="243.5,-124 87.5,-124 87.5,0 243.5,0 243.5,-124"/>
<text text-anchor="start" x="92.5" y="-112" font-family="Monaco" font-size="10.00">HydroCouple::IAdaptedOutput</text>
<text text-anchor="start" x="163.5" y="-97" font-family="Monaco" font-size="10.00"> </text>
<text text-anchor="start" x="96" y="-82" font-family="Monaco" font-size="10.00">+</text>
<text text-anchor="start" x="113.5" y="-82" font-family="Monaco" font-size="10.00">~IAdaptedOutput()</text>
<text text-anchor="start" x="96" y="-67" font-family="Monaco" font-size="10.00">+</text>
<text text-anchor="start" x="113.5" y="-67" font-family="Monaco" font-size="10.00">adaptedOutputFactory()</text>
<text text-anchor="start" x="96" y="-52" font-family="Monaco" font-size="10.00">+</text>
<text text-anchor="start" x="113.5" y="-52" font-family="Monaco" font-size="10.00">arguments()</text>
<text text-anchor="start" x="96" y="-37" font-family="Monaco" font-size="10.00">+</text>
<text text-anchor="start" x="113.5" y="-37" font-family="Monaco" font-size="10.00">initialize()</text>
<text text-anchor="start" x="96" y="-22" font-family="Monaco" font-size="10.00">+</text>
<text text-anchor="start" x="113.5" y="-22" font-family="Monaco" font-size="10.00">adaptee()</text>
<text text-anchor="start" x="96" y="-7" font-family="Monaco" font-size="10.00">+</text>
<text text-anchor="start" x="113.5" y="-7" font-family="Monaco" font-size="10.00">refresh()</text>
<polygon fill="#666666" stroke="#666666" points="87.5,-107 87.5,-107 243.5,-107 243.5,-107 87.5,-107"/>
<polygon fill="#666666" stroke="#666666" points="87.5,-92 87.5,-92 243.5,-92 243.5,-92 87.5,-92"/>
<polygon fill="none" stroke="#666666" points="87.5,0 87.5,-124 243.5,-124 243.5,0 87.5,0"/>
</a>
</g>
</g>
<!-- Node2 -->
<g id="Node000002" class="node">
<title>Node2</title>
<g id="a_Node000002"><a xlink:href="../../da/dbd/class_hydro_couple_1_1_i_output.html" target="_top" xlink:title="An output exchange item that can deliver values from an IModelComponent.">
<polygon fill="white" stroke="transparent" points="235.5,-314 95.5,-314 95.5,-160 235.5,-160 235.5,-314"/>
<text text-anchor="start" x="112.5" y="-302" font-family="Monaco" font-size="10.00">HydroCouple::IOutput</text>
<text text-anchor="start" x="163.5" y="-287" font-family="Monaco" font-size="10.00"> </text>
<text text-anchor="start" x="99.5" y="-272" font-family="Monaco" font-size="10.00">+</text>
<text text-anchor="start" x="112.5" y="-272" font-family="Monaco" font-size="10.00">~IOutput()</text>
<text text-anchor="start" x="99.5" y="-257" font-family="Monaco" font-size="10.00">+</text>
<text text-anchor="start" x="112.5" y="-257" font-family="Monaco" font-size="10.00">consumers()</text>
<text text-anchor="start" x="99.5" y="-242" font-family="Monaco" font-size="10.00">+</text>
<text text-anchor="start" x="112.5" y="-242" font-family="Monaco" font-size="10.00">addConsumer()</text>
<text text-anchor="start" x="99.5" y="-227" font-family="Monaco" font-size="10.00">+</text>
<text text-anchor="start" x="112.5" y="-227" font-family="Monaco" font-size="10.00">removeConsumer()</text>
<text text-anchor="start" x="99.5" y="-212" font-family="Monaco" font-size="10.00">+</text>
<text text-anchor="start" x="112.5" y="-212" font-family="Monaco" font-size="10.00">adaptedOutputs()</text>
<text text-anchor="start" x="99.5" y="-197" font-family="Monaco" font-size="10.00">+</text>
<text text-anchor="start" x="112.5" y="-197" font-family="Monaco" font-size="10.00">addAdaptedOutput()</text>
<text text-anchor="start" x="99.5" y="-182" font-family="Monaco" font-size="10.00">+</text>
<text text-anchor="start" x="112.5" y="-182" font-family="Monaco" font-size="10.00">removeAdaptedOutput()</text>
<text text-anchor="start" x="99.5" y="-167" font-family="Monaco" font-size="10.00">+</text>
<text text-anchor="start" x="112.5" y="-167" font-family="Monaco" font-size="10.00">updateValues()</text>
<polygon fill="#666666" stroke="#666666" points="95.5,-297 95.5,-297 235.5,-297 235.5,-297 95.5,-297"/>
<polygon fill="#666666" stroke="#666666" points="95.5,-282 95.5,-282 235.5,-282 235.5,-282 95.5,-282"/>
<polygon fill="none" stroke="#666666" points="95.5,-160 95.5,-314 235.5,-314 235.5,-160 95.5,-160"/>
</a>
</g>
</g>
<!-- Node2&#45;&gt;Node1 -->
<g id="edge1_Node000001_Node000002" class="edge">
<title>Node2&#45;&gt;Node1</title>
<g id="a_edge1_Node000001_Node000002"><a xlink:title=" ">
<path fill="none" stroke="#63b8ff" d="M165.5,-149.73C165.5,-141.07 165.5,-132.41 165.5,-124.1"/>
<polygon fill="none" stroke="#63b8ff" points="162,-149.87 165.5,-159.87 169,-149.87 162,-149.87"/>
</a>
</g>
</g>
<!-- Node3 -->
<g id="Node000003" class="node">
<title>Node3</title>
<g id="a_Node000003"><a xlink:href="../../d1/dd3/class_hydro_couple_1_1_i_exchange_item.html" target="_top" xlink:title="IExchangeItem the base data item the can be exchanged between components at runtime.">
<polygon fill="white" stroke="transparent" points="241.5,-399 89.5,-399 89.5,-350 241.5,-350 241.5,-399"/>
<text text-anchor="start" x="94.5" y="-386.5" font-family="Monaco" font-size="10.00">HydroCouple::IExchangeItem</text>
<text text-anchor="start" x="163.5" y="-371.5" font-family="Monaco" font-size="10.00"> </text>
<text text-anchor="start" x="104" y="-356.5" font-family="Monaco" font-size="10.00">+</text>
<text text-anchor="start" x="127.5" y="-356.5" font-family="Monaco" font-size="10.00">~IExchangeItem()</text>
<polygon fill="#666666" stroke="#666666" points="89.5,-381.5 89.5,-381.5 241.5,-381.5 241.5,-381.5 89.5,-381.5"/>
<polygon fill="#666666" stroke="#666666" points="89.5,-366.5 89.5,-366.5 241.5,-366.5 241.5,-366.5 89.5,-366.5"/>
<polygon fill="none" stroke="#666666" points="89.5,-350 89.5,-399 241.5,-399 241.5,-350 89.5,-350"/>
</a>
</g>
</g>
<!-- Node3&#45;&gt;Node2 -->
<g id="edge2_Node000002_Node000003" class="edge">
<title>Node3&#45;&gt;Node2</title>
<g id="a_edge2_Node000002_Node000003"><a xlink:title=" ">
<path fill="none" stroke="#63b8ff" d="M165.5,-339.66C165.5,-331.74 165.5,-322.97 165.5,-314.01"/>
<polygon fill="none" stroke="#63b8ff" points="162,-339.9 165.5,-349.9 169,-339.9 162,-339.9"/>
</a>
</g>
</g>
<!-- Node4 -->
<g id="Node000004" class="node">
<title>Node4</title>
<g id="a_Node000004"><a xlink:href="../../d8/d52/class_hydro_couple_1_1_i_component_data_item.html" target="_top" xlink:title="IComponentItem is a fundamental unit of data for a component.">
<polygon fill="white" stroke="transparent" points="258,-664 73,-664 73,-435 258,-435 258,-664"/>
<text text-anchor="start" x="78.5" y="-651.5" font-family="Monaco" font-size="10.00">HydroCouple::IComponentDataItem</text>
<text text-anchor="start" x="164" y="-636.5" font-family="Monaco" font-size="10.00"> </text>
<text text-anchor="start" x="88" y="-621.5" font-family="Monaco" font-size="10.00">+</text>
<text text-anchor="start" x="111.5" y="-621.5" font-family="Monaco" font-size="10.00">~IComponentDataItem()</text>
<text text-anchor="start" x="88" y="-606.5" font-family="Monaco" font-size="10.00">+</text>
<text text-anchor="start" x="111.5" y="-606.5" font-family="Monaco" font-size="10.00">modelComponent()</text>
<text text-anchor="start" x="88" y="-591.5" font-family="Monaco" font-size="10.00">+</text>
<text text-anchor="start" x="111.5" y="-591.5" font-family="Monaco" font-size="10.00">dimensions()</text>
<text text-anchor="start" x="88" y="-576.5" font-family="Monaco" font-size="10.00">+</text>
<text text-anchor="start" x="111.5" y="-576.5" font-family="Monaco" font-size="10.00">dimensionLength()</text>
<text text-anchor="start" x="88" y="-561.5" font-family="Monaco" font-size="10.00">+</text>
<text text-anchor="start" x="111.5" y="-561.5" font-family="Monaco" font-size="10.00">valueDefinition()</text>
<text text-anchor="start" x="88" y="-546.5" font-family="Monaco" font-size="10.00">+</text>
<text text-anchor="start" x="111.5" y="-546.5" font-family="Monaco" font-size="10.00">getValue()</text>
<text text-anchor="start" x="88" y="-531.5" font-family="Monaco" font-size="10.00">+</text>
<text text-anchor="start" x="111.5" y="-531.5" font-family="Monaco" font-size="10.00">getValues()</text>
<text text-anchor="start" x="88" y="-516.5" font-family="Monaco" font-size="10.00">+</text>
<text text-anchor="start" x="111.5" y="-516.5" font-family="Monaco" font-size="10.00">setValue()</text>
<text text-anchor="start" x="88" y="-501.5" font-family="Monaco" font-size="10.00">+</text>
<text text-anchor="start" x="111.5" y="-501.5" font-family="Monaco" font-size="10.00">setValues()</text>
<text text-anchor="start" x="88" y="-486.5" font-family="Monaco" font-size="10.00">+</text>
<text text-anchor="start" x="111.5" y="-486.5" font-family="Monaco" font-size="10.00">hasEditor()</text>
<text text-anchor="start" x="88" y="-471.5" font-family="Monaco" font-size="10.00">+</text>
<text text-anchor="start" x="111.5" y="-471.5" font-family="Monaco" font-size="10.00">showEditor()</text>
<text text-anchor="start" x="88" y="-456.5" font-family="Monaco" font-size="10.00">+</text>
<text text-anchor="start" x="111.5" y="-456.5" font-family="Monaco" font-size="10.00">hasViewer()</text>
<text text-anchor="start" x="88" y="-441.5" font-family="Monaco" font-size="10.00">+</text>
<text text-anchor="start" x="111.5" y="-441.5" font-family="Monaco" font-size="10.00">showViewer()</text>
<polygon fill="#666666" stroke="#666666" points="73.5,-646.5 73.5,-646.5 258.5,-646.5 258.5,-646.5 73.5,-646.5"/>
<polygon fill="#666666" stroke="#666666" points="73.5,-631.5 73.5,-631.5 258.5,-631.5 258.5,-631.5 73.5,-631.5"/>
<polygon fill="none" stroke="#666666" points="73,-435 73,-664 258,-664 258,-435 73,-435"/>
</a>
</g>
</g>
<!-- Node4&#45;&gt;Node3 -->
<g id="edge3_Node000003_Node000004" class="edge">
<title>Node4&#45;&gt;Node3</title>
<g id="a_edge3_Node000003_Node000004"><a xlink:title=" ">
<path fill="none" stroke="#63b8ff" d="M165.5,-424.49C165.5,-415.07 165.5,-406.39 165.5,-399.03"/>
<polygon fill="none" stroke="#63b8ff" points="162,-424.55 165.5,-434.55 169,-424.55 162,-424.55"/>
</a>
</g>
</g>
<!-- Node5 -->
<g id="Node000005" class="node">
<title>Node5</title>
<g id="a_Node000005"><a xlink:href="../../d2/d2a/class_hydro_couple_1_1_i_identity.html" target="_top" xlink:title="IIdentity interface class defines a method to get the Id of an HydroCouple entity.">
<polygon fill="white" stroke="transparent" points="143.5,-797.5 23.5,-797.5 23.5,-733.5 143.5,-733.5 143.5,-797.5"/>
<text text-anchor="start" x="28.5" y="-785.5" font-family="Monaco" font-size="10.00">HydroCouple::IIdentity</text>
<text text-anchor="start" x="81.5" y="-770.5" font-family="Monaco" font-size="10.00"> </text>
<text text-anchor="start" x="38" y="-755.5" font-family="Monaco" font-size="10.00">+</text>
<text text-anchor="start" x="61.5" y="-755.5" font-family="Monaco" font-size="10.00">~IIdentity()</text>
<text text-anchor="start" x="38" y="-740.5" font-family="Monaco" font-size="10.00">+</text>
<text text-anchor="start" x="61.5" y="-740.5" font-family="Monaco" font-size="10.00">id()</text>
<polygon fill="#666666" stroke="#666666" points="23.5,-780.5 23.5,-780.5 143.5,-780.5 143.5,-780.5 23.5,-780.5"/>
<polygon fill="#666666" stroke="#666666" points="23.5,-765.5 23.5,-765.5 143.5,-765.5 143.5,-765.5 23.5,-765.5"/>
<polygon fill="none" stroke="#666666" points="23.5,-733.5 23.5,-797.5 143.5,-797.5 143.5,-733.5 23.5,-733.5"/>
</a>
</g>
</g>
<!-- Node5&#45;&gt;Node4 -->
<g id="edge4_Node000004_Node000005" class="edge">
<title>Node5&#45;&gt;Node4</title>
<g id="a_edge4_Node000004_Node000005"><a xlink:title=" ">
<path fill="none" stroke="#63b8ff" d="M99.13,-723.71C105.72,-706.5 113.76,-685.52 121.94,-664.19"/>
<polygon fill="none" stroke="#63b8ff" points="95.73,-722.79 95.42,-733.38 102.27,-725.3 95.73,-722.79"/>
</a>
</g>
</g>
<!-- Node6 -->
<g id="Node000006" class="node">
<title>Node6</title>
<g id="a_Node000006"><a xlink:href="../../db/d64/class_hydro_couple_1_1_i_description.html" target="_top" xlink:title="IDescription interface class provides descriptive information on a HydroCouple object.">
<polygon fill="white" stroke="transparent" points="152.5,-976 14.5,-976 14.5,-867 152.5,-867 152.5,-976"/>
<text text-anchor="start" x="19.5" y="-963.5" font-family="Monaco" font-size="10.00">HydroCouple::IDescription</text>
<text text-anchor="start" x="81.5" y="-948.5" font-family="Monaco" font-size="10.00"> </text>
<text text-anchor="start" x="28" y="-933.5" font-family="Monaco" font-size="10.00">+</text>
<text text-anchor="start" x="50.5" y="-933.5" font-family="Monaco" font-size="10.00">~IDescription()</text>
<text text-anchor="start" x="28" y="-918.5" font-family="Monaco" font-size="10.00">+</text>
<text text-anchor="start" x="50.5" y="-918.5" font-family="Monaco" font-size="10.00">caption()</text>
<text text-anchor="start" x="28" y="-903.5" font-family="Monaco" font-size="10.00">+</text>
<text text-anchor="start" x="50.5" y="-903.5" font-family="Monaco" font-size="10.00">setCaption()</text>
<text text-anchor="start" x="28" y="-888.5" font-family="Monaco" font-size="10.00">+</text>
<text text-anchor="start" x="50.5" y="-888.5" font-family="Monaco" font-size="10.00">description()</text>
<text text-anchor="start" x="28" y="-873.5" font-family="Monaco" font-size="10.00">+</text>
<text text-anchor="start" x="50.5" y="-873.5" font-family="Monaco" font-size="10.00">setDescription()</text>
<polygon fill="#666666" stroke="#666666" points="14.5,-958.5 14.5,-958.5 152.5,-958.5 152.5,-958.5 14.5,-958.5"/>
<polygon fill="#666666" stroke="#666666" points="14.5,-943.5 14.5,-943.5 152.5,-943.5 152.5,-943.5 14.5,-943.5"/>
<polygon fill="none" stroke="#666666" points="14.5,-867 14.5,-976 152.5,-976 152.5,-867 14.5,-867"/>
</a>
</g>
</g>
<!-- Node6&#45;&gt;Node5 -->
<g id="edge5_Node000005_Node000006" class="edge">
<title>Node6&#45;&gt;Node5</title>
<g id="a_edge5_Node000005_Node000006"><a xlink:title=" ">
<path fill="none" stroke="#63b8ff" d="M83.5,-856.47C83.5,-836.15 83.5,-814.58 83.5,-797.66"/>
<polygon fill="none" stroke="#63b8ff" points="80,-856.64 83.5,-866.64 87,-856.64 80,-856.64"/>
</a>
</g>
</g>
<!-- Node7 -->
<g id="Node000007" class="node">
<title>Node7</title>
<g id="a_Node000007"><a xlink:href="../../dd/dbf/class_hydro_couple_1_1_i_property_changed.html" target="_top" xlink:title="IPropertyChanged interface is used to emit signal/event when a property of an object changes.">
<polygon fill="white" stroke="transparent" points="167,-1061 0,-1061 0,-1012 167,-1012 167,-1061"/>
<text text-anchor="start" x="5.5" y="-1048.5" font-family="Monaco" font-size="10.00">HydroCouple::IPropertyChanged</text>
<text text-anchor="start" x="82" y="-1033.5" font-family="Monaco" font-size="10.00"> </text>
<text text-anchor="start" x="15" y="-1018.5" font-family="Monaco" font-size="10.00">+</text>
<text text-anchor="start" x="38.5" y="-1018.5" font-family="Monaco" font-size="10.00">~IPropertyChanged()</text>
<polygon fill="#666666" stroke="#666666" points="0.5,-1043.5 0.5,-1043.5 167.5,-1043.5 167.5,-1043.5 0.5,-1043.5"/>
<polygon fill="#666666" stroke="#666666" points="0.5,-1028.5 0.5,-1028.5 167.5,-1028.5 167.5,-1028.5 0.5,-1028.5"/>
<polygon fill="none" stroke="#666666" points="0,-1012 0,-1061 167,-1061 167,-1012 0,-1012"/>
</a>
</g>
</g>
<!-- Node7&#45;&gt;Node6 -->
<g id="edge6_Node000006_Node000007" class="edge">
<title>Node7&#45;&gt;Node6</title>
<g id="a_edge6_Node000006_Node000007"><a xlink:title=" ">
<path fill="none" stroke="#63b8ff" d="M83.5,-1001.79C83.5,-993.79 83.5,-985.06 83.5,-976.41"/>
<polygon fill="none" stroke="#63b8ff" points="80,-1001.81 83.5,-1011.81 87,-1001.81 80,-1001.81"/>
</a>
</g>
</g>
<!-- Node8 -->
<g id="Node000008" class="node">
<title>Node8</title>
<g id="a_Node000008"><a xlink:href="../../d5/d8b/class_hydro_couple_1_1_i_signal.html" target="_top" xlink:title=" ">
<polygon fill="white" stroke="transparent" points="140,-1217 27,-1217 27,-1097 140,-1097 140,-1217"/>
<text text-anchor="start" x="32.5" y="-1205" font-family="Monaco" font-size="10.00">HydroCouple::ISignal</text>
<text text-anchor="start" x="58.5" y="-1194" font-family="Monaco" font-size="10.00">&lt; string &gt;</text>
<text text-anchor="start" x="82" y="-1179" font-family="Monaco" font-size="10.00"> </text>
<text text-anchor="start" x="37" y="-1164" font-family="Monaco" font-size="10.00">+</text>
<text text-anchor="start" x="55.5" y="-1164" font-family="Monaco" font-size="10.00">~ISignal()</text>
<text text-anchor="start" x="37" y="-1149" font-family="Monaco" font-size="10.00">+</text>
<text text-anchor="start" x="55.5" y="-1149" font-family="Monaco" font-size="10.00">connect()</text>
<text text-anchor="start" x="37" y="-1134" font-family="Monaco" font-size="10.00">+</text>
<text text-anchor="start" x="55.5" y="-1134" font-family="Monaco" font-size="10.00">disconnect()</text>
<text text-anchor="start" x="37" y="-1119" font-family="Monaco" font-size="10.00">+</text>
<text text-anchor="start" x="55.5" y="-1119" font-family="Monaco" font-size="10.00">blockSignals()</text>
<text text-anchor="start" x="37" y="-1104" font-family="Monaco" font-size="10.00">#</text>
<text text-anchor="start" x="55.5" y="-1104" font-family="Monaco" font-size="10.00">emit()</text>
<polygon fill="#666666" stroke="#666666" points="27.5,-1189 27.5,-1189 140.5,-1189 140.5,-1189 27.5,-1189"/>
<polygon fill="#666666" stroke="#666666" points="27.5,-1174 27.5,-1174 140.5,-1174 140.5,-1174 27.5,-1174"/>
<polygon fill="none" stroke="#666666" points="27,-1097 27,-1217 140,-1217 140,-1097 27,-1097"/>
</a>
</g>
</g>
<!-- Node8&#45;&gt;Node7 -->
<g id="edge7_Node000007_Node000008" class="edge">
<title>Node8&#45;&gt;Node7</title>
<g id="a_edge7_Node000007_Node000008"><a xlink:title=" ">
<path fill="none" stroke="#63b8ff" d="M83.5,-1086.74C83.5,-1077.6 83.5,-1068.78 83.5,-1061.2"/>
<polygon fill="none" stroke="#63b8ff" points="80,-1086.75 83.5,-1096.75 87,-1086.75 80,-1086.75"/>
</a>
</g>
</g>
<!-- Node9 -->
<g id="Node000009" class="node">
<title>Node9</title>
<g id="a_Node000009"><a xlink:href="../../d5/d8b/class_hydro_couple_1_1_i_signal.html" target="_top" xlink:title=" ">
<polygon fill="white" stroke="transparent" points="335,-831 162,-831 162,-700 335,-700 335,-831"/>
<text text-anchor="start" x="167.5" y="-818.5" font-family="Monaco" font-size="10.00">HydroCouple::ISignal</text>
<text text-anchor="start" x="167.5" y="-807.5" font-family="Monaco" font-size="10.00">&lt; const shared_ptr&lt; IComponent</text>
<text text-anchor="start" x="174.5" y="-796.5" font-family="Monaco" font-size="10.00">DataItemValueChanged &gt; &amp; &gt;</text>
<text text-anchor="start" x="247" y="-781.5" font-family="Monaco" font-size="10.00"> </text>
<text text-anchor="start" x="187" y="-766.5" font-family="Monaco" font-size="10.00">+</text>
<text text-anchor="start" x="220.5" y="-766.5" font-family="Monaco" font-size="10.00">~ISignal()</text>
<text text-anchor="start" x="187" y="-751.5" font-family="Monaco" font-size="10.00">+</text>
<text text-anchor="start" x="220.5" y="-751.5" font-family="Monaco" font-size="10.00">connect()</text>
<text text-anchor="start" x="187" y="-736.5" font-family="Monaco" font-size="10.00">+</text>
<text text-anchor="start" x="220.5" y="-736.5" font-family="Monaco" font-size="10.00">disconnect()</text>
<text text-anchor="start" x="187" y="-721.5" font-family="Monaco" font-size="10.00">+</text>
<text text-anchor="start" x="220.5" y="-721.5" font-family="Monaco" font-size="10.00">blockSignals()</text>
<text text-anchor="start" x="187" y="-706.5" font-family="Monaco" font-size="10.00">#</text>
<text text-anchor="start" x="220.5" y="-706.5" font-family="Monaco" font-size="10.00">emit()</text>
<polygon fill="#666666" stroke="#666666" points="162.5,-791.5 162.5,-791.5 335.5,-791.5 335.5,-791.5 162.5,-791.5"/>
<polygon fill="#666666" stroke="#666666" points="162.5,-776.5 162.5,-776.5 335.5,-776.5 335.5,-776.5 162.5,-776.5"/>
<polygon fill="none" stroke="#666666" points="162,-700 162,-831 335,-831 335,-700 162,-700"/>
</a>
</g>
</g>
<!-- Node9&#45;&gt;Node4 -->
<g id="edge8_Node000004_Node000009" class="edge">
<title>Node9&#45;&gt;Node4</title>
<g id="a_edge8_Node000004_Node000009"><a xlink:title=" ">
<path fill="none" stroke="#63b8ff" d="M219.71,-690.27C216.42,-681.79 213.01,-672.99 209.58,-664.14"/>
<polygon fill="none" stroke="#63b8ff" points="216.49,-691.65 223.37,-699.71 223.02,-689.12 216.49,-691.65"/>
</a>
</g>
</g>
</g>
</svg>
