<?xml version="1.0" encoding="UTF-8" standalone="no"?>
<!DOCTYPE svg PUBLIC "-//W3C//DTD SVG 1.1//EN"
 "http://www.w3.org/Graphics/SVG/1.1/DTD/svg11.dtd">
<!-- Generated by graphviz version 2.43.0 (0)
 -->
<!-- Title: HydroCouple::Temporal::ITimeSeriesComponentDataItem Pages: 1 -->
<!--zoomable 1058 -->

<svg id="main" version="1.1" xmlns="http://www.w3.org/2000/svg" xmlns:xlink="http://www.w3.org/1999/xlink" xml:space="preserve" onload="init(evt)">
<style type="text/css"><![CDATA[
.node, .edge {opacity: 0.7;}
.node.selected, .edge.selected {opacity: 1;}
.edge:hover path { stroke: red; }
.edge:hover polygon { stroke: red; fill: red; }
]]></style>

<defs>
  <circle id="rim" cx="0" cy="0" r="7"/>
  <circle id="rim2" cx="0" cy="0" r="3.5"/>
  <g id="zoomPlus">
    <use xlink:href="#rim" fill="#404040"><set attributeName="fill" to="#808080" begin="zoomplus.mouseover" end="zoomplus.mouseout"/></use>
    <path d="M-4,0h8M0,-4v8" fill="none" stroke="white" stroke-width="1.5" pointer-events="none"/>
  </g>
  <g id="zoomMin">
    <use xlink:href="#rim" fill="#404040"><set attributeName="fill" to="#808080" begin="zoomminus.mouseover" end="zoomminus.mouseout"/></use>
    <path d="M-4,0h8" fill="none" stroke="white" stroke-width="1.5" pointer-events="none"/>
  </g>
  <g id="arrowUp" transform="translate(30 24)">
    <use xlink:href="#rim"/>
    <path pointer-events="none" fill="none" stroke="white" stroke-width="1.5" d="M0,-3.0v7 M-2.5,-0.5L0,-3.0L2.5,-0.5"/>
  </g>
  <g id="arrowRight" transform="rotate(90) translate(36 -43)">
    <use xlink:href="#rim"/>
    <path pointer-events="none" fill="none" stroke="white" stroke-width="1.5" d="M0,-3.0v7 M-2.5,-0.5L0,-3.0L2.5,-0.5"/>
  </g>
  <g id="arrowDown" transform="rotate(180) translate(-30 -48)">
    <use xlink:href="#rim"/>
    <path pointer-events="none" fill="none" stroke="white" stroke-width="1.5" d="M0,-3.0v7 M-2.5,-0.5L0,-3.0L2.5,-0.5"/>
  </g>
  <g id="arrowLeft" transform="rotate(270) translate(-36 17)">
    <use xlink:href="#rim"/>
    <path pointer-events="none" fill="none" stroke="white" stroke-width="1.5" d="M0,-3.0v7 M-2.5,-0.5L0,-3.0L2.5,-0.5"/>
  </g>
  <g id="resetDef">
    <use xlink:href="#rim2" fill="#404040"><set attributeName="fill" to="#808080" begin="reset.mouseover" end="reset.mouseout"/></use>
  </g>
</defs>
<script type="application/ecmascript">
var viewWidth = 343;
var viewHeight = 1058;
var sectionId = 'dynsection-1';
</script>
<script type="application/ecmascript" xlink:href="../../svg.min.js"/>
<svg id="graph" class="graph">
<g id="viewport">
<title>HydroCouple::Temporal::ITimeSeriesComponentDataItem</title>
<!-- Node1 -->
<g id="Node000001" class="node">
<title>Node1</title>
<g id="a_Node000001"><a xlink:title="ITimeComponentItem is an IComponentItem with a temporal attribute. This class cannot be directly inst...">
<polygon fill="#999999" stroke="transparent" points="253.5,-232 77.5,-232 77.5,0 253.5,0 253.5,-232"/>
<text text-anchor="start" x="82.5" y="-220" font-family="Monaco" font-size="10.00">HydroCouple::Temporal</text>
<text text-anchor="start" x="82.5" y="-209" font-family="Monaco" font-size="10.00">::ITimeSeriesComponentDataItem</text>
<text text-anchor="start" x="163.5" y="-194" font-family="Monaco" font-size="10.00"> </text>
<text text-anchor="start" x="83.5" y="-179" font-family="Monaco" font-size="10.00">+</text>
<text text-anchor="start" x="98.5" y="-179" font-family="Monaco" font-size="10.00">~ITimeSeriesComponentData</text>
<text text-anchor="start" x="98.5" y="-168" font-family="Monaco" font-size="10.00">Item()</text>
<text text-anchor="start" x="83.5" y="-153" font-family="Monaco" font-size="10.00">+</text>
<text text-anchor="start" x="98.5" y="-153" font-family="Monaco" font-size="10.00">time()</text>
<text text-anchor="start" x="83.5" y="-138" font-family="Monaco" font-size="10.00">+</text>
<text text-anchor="start" x="98.5" y="-138" font-family="Monaco" font-size="10.00">timeCount()</text>
<text text-anchor="start" x="83.5" y="-123" font-family="Monaco" font-size="10.00">+</text>
<text text-anchor="start" x="98.5" y="-123" font-family="Monaco" font-size="10.00">timeSpan()</text>
<text text-anchor="start" x="83.5" y="-108" font-family="Monaco" font-size="10.00">+</text>
<text text-anchor="start" x="98.5" y="-108" font-family="Monaco" font-size="10.00">timeDimension()</text>
<text text-anchor="start" x="83.5" y="-93" font-family="Monaco" font-size="10.00">+</text>
<text text-anchor="start" x="98.5" y="-93" font-family="Monaco" font-size="10.00">getValue()</text>
<text text-anchor="start" x="83.5" y="-78" font-family="Monaco" font-size="10.00">+</text>
<text text-anchor="start" x="98.5" y="-78" font-family="Monaco" font-size="10.00">getValues()</text>
<text text-anchor="start" x="83.5" y="-63" font-family="Monaco" font-size="10.00">+</text>
<text text-anchor="start" x="98.5" y="-63" font-family="Monaco" font-size="10.00">setValue()</text>
<text text-anchor="start" x="83.5" y="-48" font-family="Monaco" font-size="10.00">+</text>
<text text-anchor="start" x="98.5" y="-48" font-family="Monaco" font-size="10.00">setValues()</text>
<text text-anchor="start" x="83.5" y="-33" font-family="Monaco" font-size="10.00">+</text>
<text text-anchor="start" x="98.5" y="-33" font-family="Monaco" font-size="10.00">~ITimeSeriesComponentData</text>
<text text-anchor="start" x="98.5" y="-22" font-family="Monaco" font-size="10.00">Item()</text>
<text text-anchor="start" x="98.5" y="-7" font-family="Monaco" font-size="10.00">and 12 more...</text>
<polygon fill="#666666" stroke="#666666" points="77.5,-204 77.5,-204 253.5,-204 253.5,-204 77.5,-204"/>
<polygon fill="#666666" stroke="#666666" points="77.5,-189 77.5,-189 253.5,-189 253.5,-189 77.5,-189"/>
<polygon fill="none" stroke="#666666" points="77.5,0 77.5,-232 253.5,-232 253.5,0 77.5,0"/>
</a>
</g>
</g>
<!-- Node2 -->
<g id="Node000002" class="node">
<title>Node2</title>
<g id="a_Node000002"><a xlink:href="../../d8/d52/class_hydro_couple_1_1_i_component_data_item.html" target="_top" xlink:title="IComponentItem is a fundamental unit of data for a component.">
<polygon fill="white" stroke="transparent" points="258,-497 73,-497 73,-268 258,-268 258,-497"/>
<text text-anchor="start" x="78.5" y="-484.5" font-family="Monaco" font-size="10.00">HydroCouple::IComponentDataItem</text>
<text text-anchor="start" x="164" y="-469.5" font-family="Monaco" font-size="10.00"> </text>
<text text-anchor="start" x="88" y="-454.5" font-family="Monaco" font-size="10.00">+</text>
<text text-anchor="start" x="111.5" y="-454.5" font-family="Monaco" font-size="10.00">~IComponentDataItem()</text>
<text text-anchor="start" x="88" y="-439.5" font-family="Monaco" font-size="10.00">+</text>
<text text-anchor="start" x="111.5" y="-439.5" font-family="Monaco" font-size="10.00">modelComponent()</text>
<text text-anchor="start" x="88" y="-424.5" font-family="Monaco" font-size="10.00">+</text>
<text text-anchor="start" x="111.5" y="-424.5" font-family="Monaco" font-size="10.00">dimensions()</text>
<text text-anchor="start" x="88" y="-409.5" font-family="Monaco" font-size="10.00">+</text>
<text text-anchor="start" x="111.5" y="-409.5" font-family="Monaco" font-size="10.00">dimensionLength()</text>
<text text-anchor="start" x="88" y="-394.5" font-family="Monaco" font-size="10.00">+</text>
<text text-anchor="start" x="111.5" y="-394.5" font-family="Monaco" font-size="10.00">valueDefinition()</text>
<text text-anchor="start" x="88" y="-379.5" font-family="Monaco" font-size="10.00">+</text>
<text text-anchor="start" x="111.5" y="-379.5" font-family="Monaco" font-size="10.00">getValue()</text>
<text text-anchor="start" x="88" y="-364.5" font-family="Monaco" font-size="10.00">+</text>
<text text-anchor="start" x="111.5" y="-364.5" font-family="Monaco" font-size="10.00">getValues()</text>
<text text-anchor="start" x="88" y="-349.5" font-family="Monaco" font-size="10.00">+</text>
<text text-anchor="start" x="111.5" y="-349.5" font-family="Monaco" font-size="10.00">setValue()</text>
<text text-anchor="start" x="88" y="-334.5" font-family="Monaco" font-size="10.00">+</text>
<text text-anchor="start" x="111.5" y="-334.5" font-family="Monaco" font-size="10.00">setValues()</text>
<text text-anchor="start" x="88" y="-319.5" font-family="Monaco" font-size="10.00">+</text>
<text text-anchor="start" x="111.5" y="-319.5" font-family="Monaco" font-size="10.00">hasEditor()</text>
<text text-anchor="start" x="88" y="-304.5" font-family="Monaco" font-size="10.00">+</text>
<text text-anchor="start" x="111.5" y="-304.5" font-family="Monaco" font-size="10.00">showEditor()</text>
<text text-anchor="start" x="88" y="-289.5" font-family="Monaco" font-size="10.00">+</text>
<text text-anchor="start" x="111.5" y="-289.5" font-family="Monaco" font-size="10.00">hasViewer()</text>
<text text-anchor="start" x="88" y="-274.5" font-family="Monaco" font-size="10.00">+</text>
<text text-anchor="start" x="111.5" y="-274.5" font-family="Monaco" font-size="10.00">showViewer()</text>
<polygon fill="#666666" stroke="#666666" points="73.5,-479.5 73.5,-479.5 258.5,-479.5 258.5,-479.5 73.5,-479.5"/>
<polygon fill="#666666" stroke="#666666" points="73.5,-464.5 73.5,-464.5 258.5,-464.5 258.5,-464.5 73.5,-464.5"/>
<polygon fill="none" stroke="#666666" points="73,-268 73,-497 258,-497 258,-268 73,-268"/>
</a>
</g>
</g>
<!-- Node2&#45;&gt;Node1 -->
<g id="edge1_Node000001_Node000002" class="edge">
<title>Node2&#45;&gt;Node1</title>
<g id="a_edge1_Node000001_Node000002"><a xlink:title=" ">
<path fill="none" stroke="#63b8ff" d="M158.76,-257.55C158.74,-249.13 158.75,-240.67 158.8,-232.29"/>
<polygon fill="none" stroke="#63b8ff" points="155.26,-257.81 158.81,-267.79 162.26,-257.78 155.26,-257.81"/>
</a>
</g>
</g>
<!-- Node2&#45;&gt;Node1 -->
<g id="edge7_Node000001_Node000002" class="edge">
<title>Node2&#45;&gt;Node1</title>
<g id="a_edge7_Node000001_Node000002"><a xlink:title=" ">
<path fill="none" stroke="#63b8ff" d="M172.24,-257.55C172.26,-249.13 172.25,-240.67 172.2,-232.29"/>
<polygon fill="none" stroke="#63b8ff" points="168.74,-257.78 172.19,-267.79 175.74,-257.81 168.74,-257.78"/>
</a>
</g>
</g>
<!-- Node3 -->
<g id="Node000003" class="node">
<title>Node3</title>
<g id="a_Node000003"><a xlink:href="../../d2/d2a/class_hydro_couple_1_1_i_identity.html" target="_top" xlink:title="IIdentity interface class defines a method to get the Id of an HydroCouple entity.">
<polygon fill="white" stroke="transparent" points="143.5,-630.5 23.5,-630.5 23.5,-566.5 143.5,-566.5 143.5,-630.5"/>
<text text-anchor="start" x="28.5" y="-618.5" font-family="Monaco" font-size="10.00">HydroCouple::IIdentity</text>
<text text-anchor="start" x="81.5" y="-603.5" font-family="Monaco" font-size="10.00"> </text>
<text text-anchor="start" x="38" y="-588.5" font-family="Monaco" font-size="10.00">+</text>
<text text-anchor="start" x="61.5" y="-588.5" font-family="Monaco" font-size="10.00">~IIdentity()</text>
<text text-anchor="start" x="38" y="-573.5" font-family="Monaco" font-size="10.00">+</text>
<text text-anchor="start" x="61.5" y="-573.5" font-family="Monaco" font-size="10.00">id()</text>
<polygon fill="#666666" stroke="#666666" points="23.5,-613.5 23.5,-613.5 143.5,-613.5 143.5,-613.5 23.5,-613.5"/>
<polygon fill="#666666" stroke="#666666" points="23.5,-598.5 23.5,-598.5 143.5,-598.5 143.5,-598.5 23.5,-598.5"/>
<polygon fill="none" stroke="#666666" points="23.5,-566.5 23.5,-630.5 143.5,-630.5 143.5,-566.5 23.5,-566.5"/>
</a>
</g>
</g>
<!-- Node3&#45;&gt;Node2 -->
<g id="edge2_Node000002_Node000003" class="edge">
<title>Node3&#45;&gt;Node2</title>
<g id="a_edge2_Node000002_Node000003"><a xlink:title=" ">
<path fill="none" stroke="#63b8ff" d="M99.13,-556.71C105.72,-539.5 113.76,-518.52 121.94,-497.19"/>
<polygon fill="none" stroke="#63b8ff" points="95.73,-555.79 95.42,-566.38 102.27,-558.3 95.73,-555.79"/>
</a>
</g>
</g>
<!-- Node4 -->
<g id="Node000004" class="node">
<title>Node4</title>
<g id="a_Node000004"><a xlink:href="../../db/d64/class_hydro_couple_1_1_i_description.html" target="_top" xlink:title="IDescription interface class provides descriptive information on a HydroCouple object.">
<polygon fill="white" stroke="transparent" points="152.5,-809 14.5,-809 14.5,-700 152.5,-700 152.5,-809"/>
<text text-anchor="start" x="19.5" y="-796.5" font-family="Monaco" font-size="10.00">HydroCouple::IDescription</text>
<text text-anchor="start" x="81.5" y="-781.5" font-family="Monaco" font-size="10.00"> </text>
<text text-anchor="start" x="28" y="-766.5" font-family="Monaco" font-size="10.00">+</text>
<text text-anchor="start" x="50.5" y="-766.5" font-family="Monaco" font-size="10.00">~IDescription()</text>
<text text-anchor="start" x="28" y="-751.5" font-family="Monaco" font-size="10.00">+</text>
<text text-anchor="start" x="50.5" y="-751.5" font-family="Monaco" font-size="10.00">caption()</text>
<text text-anchor="start" x="28" y="-736.5" font-family="Monaco" font-size="10.00">+</text>
<text text-anchor="start" x="50.5" y="-736.5" font-family="Monaco" font-size="10.00">setCaption()</text>
<text text-anchor="start" x="28" y="-721.5" font-family="Monaco" font-size="10.00">+</text>
<text text-anchor="start" x="50.5" y="-721.5" font-family="Monaco" font-size="10.00">description()</text>
<text text-anchor="start" x="28" y="-706.5" font-family="Monaco" font-size="10.00">+</text>
<text text-anchor="start" x="50.5" y="-706.5" font-family="Monaco" font-size="10.00">setDescription()</text>
<polygon fill="#666666" stroke="#666666" points="14.5,-791.5 14.5,-791.5 152.5,-791.5 152.5,-791.5 14.5,-791.5"/>
<polygon fill="#666666" stroke="#666666" points="14.5,-776.5 14.5,-776.5 152.5,-776.5 152.5,-776.5 14.5,-776.5"/>
<polygon fill="none" stroke="#666666" points="14.5,-700 14.5,-809 152.5,-809 152.5,-700 14.5,-700"/>
</a>
</g>
</g>
<!-- Node4&#45;&gt;Node3 -->
<g id="edge3_Node000003_Node000004" class="edge">
<title>Node4&#45;&gt;Node3</title>
<g id="a_edge3_Node000003_Node000004"><a xlink:title=" ">
<path fill="none" stroke="#63b8ff" d="M83.5,-689.47C83.5,-669.15 83.5,-647.58 83.5,-630.66"/>
<polygon fill="none" stroke="#63b8ff" points="80,-689.64 83.5,-699.64 87,-689.64 80,-689.64"/>
</a>
</g>
</g>
<!-- Node5 -->
<g id="Node000005" class="node">
<title>Node5</title>
<g id="a_Node000005"><a xlink:href="../../dd/dbf/class_hydro_couple_1_1_i_property_changed.html" target="_top" xlink:title="IPropertyChanged interface is used to emit signal/event when a property of an object changes.">
<polygon fill="white" stroke="transparent" points="167,-894 0,-894 0,-845 167,-845 167,-894"/>
<text text-anchor="start" x="5.5" y="-881.5" font-family="Monaco" font-size="10.00">HydroCouple::IPropertyChanged</text>
<text text-anchor="start" x="82" y="-866.5" font-family="Monaco" font-size="10.00"> </text>
<text text-anchor="start" x="15" y="-851.5" font-family="Monaco" font-size="10.00">+</text>
<text text-anchor="start" x="38.5" y="-851.5" font-family="Monaco" font-size="10.00">~IPropertyChanged()</text>
<polygon fill="#666666" stroke="#666666" points="0.5,-876.5 0.5,-876.5 167.5,-876.5 167.5,-876.5 0.5,-876.5"/>
<polygon fill="#666666" stroke="#666666" points="0.5,-861.5 0.5,-861.5 167.5,-861.5 167.5,-861.5 0.5,-861.5"/>
<polygon fill="none" stroke="#666666" points="0,-845 0,-894 167,-894 167,-845 0,-845"/>
</a>
</g>
</g>
<!-- Node5&#45;&gt;Node4 -->
<g id="edge4_Node000004_Node000005" class="edge">
<title>Node5&#45;&gt;Node4</title>
<g id="a_edge4_Node000004_Node000005"><a xlink:title=" ">
<path fill="none" stroke="#63b8ff" d="M83.5,-834.79C83.5,-826.79 83.5,-818.06 83.5,-809.41"/>
<polygon fill="none" stroke="#63b8ff" points="80,-834.81 83.5,-844.81 87,-834.81 80,-834.81"/>
</a>
</g>
</g>
<!-- Node6 -->
<g id="Node000006" class="node">
<title>Node6</title>
<g id="a_Node000006"><a xlink:href="../../d5/d8b/class_hydro_couple_1_1_i_signal.html" target="_top" xlink:title=" ">
<polygon fill="white" stroke="transparent" points="140,-1050 27,-1050 27,-930 140,-930 140,-1050"/>
<text text-anchor="start" x="32.5" y="-1038" font-family="Monaco" font-size="10.00">HydroCouple::ISignal</text>
<text text-anchor="start" x="58.5" y="-1027" font-family="Monaco" font-size="10.00">&lt; string &gt;</text>
<text text-anchor="start" x="82" y="-1012" font-family="Monaco" font-size="10.00"> </text>
<text text-anchor="start" x="37" y="-997" font-family="Monaco" font-size="10.00">+</text>
<text text-anchor="start" x="55.5" y="-997" font-family="Monaco" font-size="10.00">~ISignal()</text>
<text text-anchor="start" x="37" y="-982" font-family="Monaco" font-size="10.00">+</text>
<text text-anchor="start" x="55.5" y="-982" font-family="Monaco" font-size="10.00">connect()</text>
<text text-anchor="start" x="37" y="-967" font-family="Monaco" font-size="10.00">+</text>
<text text-anchor="start" x="55.5" y="-967" font-family="Monaco" font-size="10.00">disconnect()</text>
<text text-anchor="start" x="37" y="-952" font-family="Monaco" font-size="10.00">+</text>
<text text-anchor="start" x="55.5" y="-952" font-family="Monaco" font-size="10.00">blockSignals()</text>
<text text-anchor="start" x="37" y="-937" font-family="Monaco" font-size="10.00">#</text>
<text text-anchor="start" x="55.5" y="-937" font-family="Monaco" font-size="10.00">emit()</text>
<polygon fill="#666666" stroke="#666666" points="27.5,-1022 27.5,-1022 140.5,-1022 140.5,-1022 27.5,-1022"/>
<polygon fill="#666666" stroke="#666666" points="27.5,-1007 27.5,-1007 140.5,-1007 140.5,-1007 27.5,-1007"/>
<polygon fill="none" stroke="#666666" points="27,-930 27,-1050 140,-1050 140,-930 27,-930"/>
</a>
</g>
</g>
<!-- Node6&#45;&gt;Node5 -->
<g id="edge5_Node000005_Node000006" class="edge">
<title>Node6&#45;&gt;Node5</title>
<g id="a_edge5_Node000005_Node000006"><a xlink:title=" ">
<path fill="none" stroke="#63b8ff" d="M83.5,-919.74C83.5,-910.6 83.5,-901.78 83.5,-894.2"/>
<polygon fill="none" stroke="#63b8ff" points="80,-919.75 83.5,-929.75 87,-919.75 80,-919.75"/>
</a>
</g>
</g>
<!-- Node7 -->
<g id="Node000007" class="node">
<title>Node7</title>
<g id="a_Node000007"><a xlink:href="../../d5/d8b/class_hydro_couple_1_1_i_signal.html" target="_top" xlink:title=" ">
<polygon fill="white" stroke="transparent" points="335,-664 162,-664 162,-533 335,-533 335,-664"/>
<text text-anchor="start" x="167.5" y="-651.5" font-family="Monaco" font-size="10.00">HydroCouple::ISignal</text>
<text text-anchor="start" x="167.5" y="-640.5" font-family="Monaco" font-size="10.00">&lt; const shared_ptr&lt; IComponent</text>
<text text-anchor="start" x="174.5" y="-629.5" font-family="Monaco" font-size="10.00">DataItemValueChanged &gt; &amp; &gt;</text>
<text text-anchor="start" x="247" y="-614.5" font-family="Monaco" font-size="10.00"> </text>
<text text-anchor="start" x="187" y="-599.5" font-family="Monaco" font-size="10.00">+</text>
<text text-anchor="start" x="220.5" y="-599.5" font-family="Monaco" font-size="10.00">~ISignal()</text>
<text text-anchor="start" x="187" y="-584.5" font-family="Monaco" font-size="10.00">+</text>
<text text-anchor="start" x="220.5" y="-584.5" font-family="Monaco" font-size="10.00">connect()</text>
<text text-anchor="start" x="187" y="-569.5" font-family="Monaco" font-size="10.00">+</text>
<text text-anchor="start" x="220.5" y="-569.5" font-family="Monaco" font-size="10.00">disconnect()</text>
<text text-anchor="start" x="187" y="-554.5" font-family="Monaco" font-size="10.00">+</text>
<text text-anchor="start" x="220.5" y="-554.5" font-family="Monaco" font-size="10.00">blockSignals()</text>
<text text-anchor="start" x="187" y="-539.5" font-family="Monaco" font-size="10.00">#</text>
<text text-anchor="start" x="220.5" y="-539.5" font-family="Monaco" font-size="10.00">emit()</text>
<polygon fill="#666666" stroke="#666666" points="162.5,-624.5 162.5,-624.5 335.5,-624.5 335.5,-624.5 162.5,-624.5"/>
<polygon fill="#666666" stroke="#666666" points="162.5,-609.5 162.5,-609.5 335.5,-609.5 335.5,-609.5 162.5,-609.5"/>
<polygon fill="none" stroke="#666666" points="162,-533 162,-664 335,-664 335,-533 162,-533"/>
</a>
</g>
</g>
<!-- Node7&#45;&gt;Node2 -->
<g id="edge6_Node000002_Node000007" class="edge">
<title>Node7&#45;&gt;Node2</title>
<g id="a_edge6_Node000002_Node000007"><a xlink:title=" ">
<path fill="none" stroke="#63b8ff" d="M219.71,-523.27C216.42,-514.79 213.01,-505.99 209.58,-497.14"/>
<polygon fill="none" stroke="#63b8ff" points="216.49,-524.65 223.37,-532.71 223.02,-522.12 216.49,-524.65"/>
</a>
</g>
</g>
</g>
</svg>

<g id="navigator" transform="translate(0 0)" fill="#404254">
  <rect fill="#f2f5e9" fill-opacity="0.5" stroke="#606060" stroke-width=".5" x="0" y="0" width="60" height="60"/>
  <use id="zoomplus" xlink:href="#zoomPlus" x="17" y="9" onmousedown="handleZoom(evt,'in')"/>
  <use id="zoomminus" xlink:href="#zoomMin" x="42" y="9" onmousedown="handleZoom(evt,'out')"/>
  <use id="reset" xlink:href="#resetDef" x="30" y="36" onmousedown="handleReset()"/>
   <use id="arrowup" xlink:href="#arrowUp" x="0" y="0" onmousedown="handlePan(0,-1)"/>
  <use id="arrowright" xlink:href="#arrowRight" x="0" y="0" onmousedown="handlePan(1,0)"/>
  <use id="arrowdown" xlink:href="#arrowDown" x="0" y="0" onmousedown="handlePan(0,1)"/>
  <use id="arrowleft" xlink:href="#arrowLeft" x="0" y="0" onmousedown="handlePan(-1,0)"/>
</g>
<svg viewBox="0 0 15 15" width="100%" height="30px" preserveAspectRatio="xMaxYMin meet">
 <g id="arrow_out" transform="scale(0.3 0.3)">
  <a xlink:href="class_hydro_couple_1_1_temporal_1_1_i_time_series_component_data_item__coll__graph_org.svg" target="_base">
   <rect id="button" ry="5" rx="5" y="6" x="6" height="38" width="38"
        fill="#f2f5e9" fill-opacity="0.5" stroke="#606060" stroke-width="1.0"/>
   <path id="arrow"
     d="M 11.500037,31.436501 C 11.940474,20.09759 22.043105,11.32322 32.158766,21.979434 L 37.068811,17.246167 C 37.068811,17.246167 37.088388,32 37.088388,32 L 22.160133,31.978069 C 22.160133,31.978069 26.997745,27.140456 26.997745,27.140456 C 18.528582,18.264221 13.291696,25.230495 11.500037,31.436501 z"
     style="fill:#404040;"/>
  </a>
 </g>
</svg>

<style type='text/css'>
<![CDATA[
[data-mouse-over-selected='false'] { opacity: 0.7; }
[data-mouse-over-selected='true']  { opacity: 1.0; }
]]>
</style>
<script type="application/ecmascript"><![CDATA[
document.addEventListener('DOMContentLoaded', (event) => {
  highlightEdges();
  highlightAdjacentNodes();
});
]]></script>
</svg>
