<?xml version="1.0" encoding="UTF-8" standalone="no"?>
<!DOCTYPE svg PUBLIC "-//W3C//DTD SVG 1.1//EN"
 "http://www.w3.org/Graphics/SVG/1.1/DTD/svg11.dtd">
<!-- Generated by graphviz version 2.43.0 (0)
 -->
<!-- Title: HydroCouple::IExchangeItemChangeEventArgs Pages: 1 -->
<svg width="175pt" height="109pt"
 viewBox="0.00 0.00 175.00 109.00" xmlns="http://www.w3.org/2000/svg" xmlns:xlink="http://www.w3.org/1999/xlink">
<g id="graph0" class="graph" transform="scale(1 1) rotate(0) translate(4 105)">
<title>HydroCouple::IExchangeItemChangeEventArgs</title>
<!-- Node1 -->
<g id="Node000001" class="node">
<title>Node1</title>
<g id="a_Node000001"><a xlink:title="The IExchangeItemChangeEventArgs contains the information that will be passed when the IComponentItem...">
<polygon fill="#999999" stroke="transparent" points="167,-101 0,-101 0,0 167,0 167,-101"/>
<text text-anchor="start" x="13" y="-88.5" font-family="Monaco" font-size="10.00">HydroCouple::IExchangeItem</text>
<text text-anchor="start" x="40.5" y="-77.5" font-family="Monaco" font-size="10.00">ChangeEventArgs</text>
<text text-anchor="start" x="82" y="-62.5" font-family="Monaco" font-size="10.00"> </text>
<text text-anchor="start" x="4.5" y="-47.5" font-family="Monaco" font-size="10.00">+</text>
<text text-anchor="start" x="17.5" y="-47.5" font-family="Monaco" font-size="10.00">~IExchangeItemChangeEvent</text>
<text text-anchor="start" x="17.5" y="-36.5" font-family="Monaco" font-size="10.00">Args()</text>
<text text-anchor="start" x="4.5" y="-21.5" font-family="Monaco" font-size="10.00">+</text>
<text text-anchor="start" x="17.5" y="-21.5" font-family="Monaco" font-size="10.00">exchangeItem()</text>
<text text-anchor="start" x="4.5" y="-6.5" font-family="Monaco" font-size="10.00">+</text>
<text text-anchor="start" x="17.5" y="-6.5" font-family="Monaco" font-size="10.00">message()</text>
<polygon fill="#666666" stroke="#666666" points="0.5,-72.5 0.5,-72.5 167.5,-72.5 167.5,-72.5 0.5,-72.5"/>
<polygon fill="#666666" stroke="#666666" points="0.5,-57.5 0.5,-57.5 167.5,-57.5 167.5,-57.5 0.5,-57.5"/>
<polygon fill="none" stroke="#666666" points="0,0 0,-101 167,-101 167,0 0,0"/>
</a>
</g>
</g>
</g>
</svg>
