<?xml version="1.0" encoding="UTF-8" standalone="no"?>
<!DOCTYPE svg PUBLIC "-//W3C//DTD SVG 1.1//EN"
 "http://www.w3.org/Graphics/SVG/1.1/DTD/svg11.dtd">
<!-- Generated by graphviz version 2.43.0 (0)
 -->
<!-- Title: HydroCouple::Spatial::IPolygon Pages: 1 -->
<!--zoomable 1145 -->

<svg id="main" version="1.1" xmlns="http://www.w3.org/2000/svg" xmlns:xlink="http://www.w3.org/1999/xlink" xml:space="preserve" onload="init(evt)">
<style type="text/css"><![CDATA[
.node, .edge {opacity: 0.7;}
.node.selected, .edge.selected {opacity: 1;}
.edge:hover path { stroke: red; }
.edge:hover polygon { stroke: red; fill: red; }
]]></style>

<defs>
  <circle id="rim" cx="0" cy="0" r="7"/>
  <circle id="rim2" cx="0" cy="0" r="3.5"/>
  <g id="zoomPlus">
    <use xlink:href="#rim" fill="#404040"><set attributeName="fill" to="#808080" begin="zoomplus.mouseover" end="zoomplus.mouseout"/></use>
    <path d="M-4,0h8M0,-4v8" fill="none" stroke="white" stroke-width="1.5" pointer-events="none"/>
  </g>
  <g id="zoomMin">
    <use xlink:href="#rim" fill="#404040"><set attributeName="fill" to="#808080" begin="zoomminus.mouseover" end="zoomminus.mouseout"/></use>
    <path d="M-4,0h8" fill="none" stroke="white" stroke-width="1.5" pointer-events="none"/>
  </g>
  <g id="arrowUp" transform="translate(30 24)">
    <use xlink:href="#rim"/>
    <path pointer-events="none" fill="none" stroke="white" stroke-width="1.5" d="M0,-3.0v7 M-2.5,-0.5L0,-3.0L2.5,-0.5"/>
  </g>
  <g id="arrowRight" transform="rotate(90) translate(36 -43)">
    <use xlink:href="#rim"/>
    <path pointer-events="none" fill="none" stroke="white" stroke-width="1.5" d="M0,-3.0v7 M-2.5,-0.5L0,-3.0L2.5,-0.5"/>
  </g>
  <g id="arrowDown" transform="rotate(180) translate(-30 -48)">
    <use xlink:href="#rim"/>
    <path pointer-events="none" fill="none" stroke="white" stroke-width="1.5" d="M0,-3.0v7 M-2.5,-0.5L0,-3.0L2.5,-0.5"/>
  </g>
  <g id="arrowLeft" transform="rotate(270) translate(-36 17)">
    <use xlink:href="#rim"/>
    <path pointer-events="none" fill="none" stroke="white" stroke-width="1.5" d="M0,-3.0v7 M-2.5,-0.5L0,-3.0L2.5,-0.5"/>
  </g>
  <g id="resetDef">
    <use xlink:href="#rim2" fill="#404040"><set attributeName="fill" to="#808080" begin="reset.mouseover" end="reset.mouseout"/></use>
  </g>
</defs>
<script type="application/ecmascript">
var viewWidth = 156;
var viewHeight = 1145;
var sectionId = 'dynsection-1';
</script>
<script type="application/ecmascript" xlink:href="../../svg.min.js"/>
<svg id="graph" class="graph">
<g id="viewport">
<title>HydroCouple::Spatial::IPolygon</title>
<!-- Node1 -->
<g id="Node000001" class="node">
<title>Node1</title>
<g id="a_Node000001"><a xlink:title="A IPolygon is a planar ISurface defined by 1 exterior boundary and 0 or more interior boundaries.">
<polygon fill="#999999" stroke="transparent" points="133,-135 15,-135 15,0 133,0 133,-135"/>
<text text-anchor="start" x="22.5" y="-122.5" font-family="Monaco" font-size="10.00">HydroCouple::Spatial</text>
<text text-anchor="start" x="49.5" y="-111.5" font-family="Monaco" font-size="10.00">::IPolygon</text>
<text text-anchor="start" x="72" y="-96.5" font-family="Monaco" font-size="10.00"> </text>
<text text-anchor="start" x="19" y="-81.5" font-family="Monaco" font-size="10.00">+</text>
<text text-anchor="start" x="32" y="-81.5" font-family="Monaco" font-size="10.00">~IPolygon()</text>
<text text-anchor="start" x="19" y="-66.5" font-family="Monaco" font-size="10.00">+</text>
<text text-anchor="start" x="32" y="-66.5" font-family="Monaco" font-size="10.00">exteriorRing()</text>
<text text-anchor="start" x="19" y="-51.5" font-family="Monaco" font-size="10.00">+</text>
<text text-anchor="start" x="32" y="-51.5" font-family="Monaco" font-size="10.00">interiorRingCount()</text>
<text text-anchor="start" x="19" y="-36.5" font-family="Monaco" font-size="10.00">+</text>
<text text-anchor="start" x="32" y="-36.5" font-family="Monaco" font-size="10.00">interiorRing()</text>
<text text-anchor="start" x="19" y="-21.5" font-family="Monaco" font-size="10.00">+</text>
<text text-anchor="start" x="32" y="-21.5" font-family="Monaco" font-size="10.00">edge()</text>
<text text-anchor="start" x="19" y="-6.5" font-family="Monaco" font-size="10.00">+</text>
<text text-anchor="start" x="32" y="-6.5" font-family="Monaco" font-size="10.00">polyhydralSurface()</text>
<polygon fill="#666666" stroke="#666666" points="15,-106.5 15,-106.5 133,-106.5 133,-106.5 15,-106.5"/>
<polygon fill="#666666" stroke="#666666" points="15,-91.5 15,-91.5 133,-91.5 133,-91.5 15,-91.5"/>
<polygon fill="none" stroke="#666666" points="15,0 15,-135 133,-135 133,0 15,0"/>
</a>
</g>
</g>
<!-- Node2 -->
<g id="Node000002" class="node">
<title>Node2</title>
<g id="a_Node000002"><a xlink:href="../../de/de8/class_hydro_couple_1_1_spatial_1_1_i_surface.html" target="_top" xlink:title="A ISurface is a 2&#45;dimensional IGeometry object.">
<polygon fill="white" stroke="transparent" points="138,-291 10,-291 10,-171 138,-171 138,-291"/>
<text text-anchor="start" x="22.5" y="-279" font-family="Monaco" font-size="10.00">HydroCouple::Spatial</text>
<text text-anchor="start" x="51" y="-268" font-family="Monaco" font-size="10.00">::ISurface</text>
<text text-anchor="start" x="72" y="-253" font-family="Monaco" font-size="10.00"> </text>
<text text-anchor="start" x="14" y="-238" font-family="Monaco" font-size="10.00">+</text>
<text text-anchor="start" x="27" y="-238" font-family="Monaco" font-size="10.00">~ISurface()</text>
<text text-anchor="start" x="14" y="-223" font-family="Monaco" font-size="10.00">+</text>
<text text-anchor="start" x="27" y="-223" font-family="Monaco" font-size="10.00">area()</text>
<text text-anchor="start" x="14" y="-208" font-family="Monaco" font-size="10.00">+</text>
<text text-anchor="start" x="27" y="-208" font-family="Monaco" font-size="10.00">centroid()</text>
<text text-anchor="start" x="14" y="-193" font-family="Monaco" font-size="10.00">+</text>
<text text-anchor="start" x="27" y="-193" font-family="Monaco" font-size="10.00">pointOnSurface()</text>
<text text-anchor="start" x="14" y="-178" font-family="Monaco" font-size="10.00">+</text>
<text text-anchor="start" x="27" y="-178" font-family="Monaco" font-size="10.00">boundaryMultiCurve()</text>
<polygon fill="#666666" stroke="#666666" points="10,-263 10,-263 138,-263 138,-263 10,-263"/>
<polygon fill="#666666" stroke="#666666" points="10,-248 10,-248 138,-248 138,-248 10,-248"/>
<polygon fill="none" stroke="#666666" points="10,-171 10,-291 138,-291 138,-171 10,-171"/>
</a>
</g>
</g>
<!-- Node2&#45;&gt;Node1 -->
<g id="edge1_Node000001_Node000002" class="edge">
<title>Node2&#45;&gt;Node1</title>
<g id="a_edge1_Node000001_Node000002"><a xlink:title=" ">
<path fill="none" stroke="#63b8ff" d="M74,-160.57C74,-152.12 74,-143.49 74,-135.08"/>
<polygon fill="none" stroke="#63b8ff" points="70.5,-160.78 74,-170.78 77.5,-160.78 70.5,-160.78"/>
</a>
</g>
</g>
<!-- Node3 -->
<g id="Node000003" class="node">
<title>Node3</title>
<g id="a_Node000003"><a xlink:href="../../d3/d92/class_hydro_couple_1_1_spatial_1_1_i_geometry.html" target="_top" xlink:title="IGeometry is the root class of the geometry hierarchy.">
<polygon fill="white" stroke="transparent" points="148,-1137 0,-1137 0,-327 148,-327 148,-1137"/>
<text text-anchor="start" x="22.5" y="-1125" font-family="Monaco" font-size="10.00">HydroCouple::Spatial</text>
<text text-anchor="start" x="45" y="-1114" font-family="Monaco" font-size="10.00">::IGeometry</text>
<text text-anchor="start" x="72" y="-1099" font-family="Monaco" font-size="10.00"> </text>
<text text-anchor="start" x="4" y="-1084" font-family="Monaco" font-size="10.00">+</text>
<text text-anchor="start" x="17" y="-1084" font-family="Monaco" font-size="10.00">~IGeometry()</text>
<text text-anchor="start" x="4" y="-1069" font-family="Monaco" font-size="10.00">+</text>
<text text-anchor="start" x="17" y="-1069" font-family="Monaco" font-size="10.00">id()</text>
<text text-anchor="start" x="4" y="-1054" font-family="Monaco" font-size="10.00">+</text>
<text text-anchor="start" x="17" y="-1054" font-family="Monaco" font-size="10.00">index()</text>
<text text-anchor="start" x="4" y="-1039" font-family="Monaco" font-size="10.00">+</text>
<text text-anchor="start" x="17" y="-1039" font-family="Monaco" font-size="10.00">dimension()</text>
<text text-anchor="start" x="4" y="-1024" font-family="Monaco" font-size="10.00">+</text>
<text text-anchor="start" x="17" y="-1024" font-family="Monaco" font-size="10.00">coordinateDimension()</text>
<text text-anchor="start" x="4" y="-1009" font-family="Monaco" font-size="10.00">+</text>
<text text-anchor="start" x="17" y="-1009" font-family="Monaco" font-size="10.00">geometryType()</text>
<text text-anchor="start" x="4" y="-994" font-family="Monaco" font-size="10.00">+</text>
<text text-anchor="start" x="17" y="-994" font-family="Monaco" font-size="10.00">spatialReferenceSystem()</text>
<text text-anchor="start" x="4" y="-979" font-family="Monaco" font-size="10.00">+</text>
<text text-anchor="start" x="17" y="-979" font-family="Monaco" font-size="10.00">envelope()</text>
<text text-anchor="start" x="4" y="-964" font-family="Monaco" font-size="10.00">+</text>
<text text-anchor="start" x="17" y="-964" font-family="Monaco" font-size="10.00">getWKT()</text>
<text text-anchor="start" x="4" y="-949" font-family="Monaco" font-size="10.00">+</text>
<text text-anchor="start" x="17" y="-949" font-family="Monaco" font-size="10.00">getWKB()</text>
<text text-anchor="start" x="4" y="-934" font-family="Monaco" font-size="10.00">+</text>
<text text-anchor="start" x="17" y="-934" font-family="Monaco" font-size="10.00">isEmpty()</text>
<text text-anchor="start" x="4" y="-919" font-family="Monaco" font-size="10.00">+</text>
<text text-anchor="start" x="17" y="-919" font-family="Monaco" font-size="10.00">isSimple()</text>
<text text-anchor="start" x="4" y="-904" font-family="Monaco" font-size="10.00">+</text>
<text text-anchor="start" x="17" y="-904" font-family="Monaco" font-size="10.00">is3D()</text>
<text text-anchor="start" x="4" y="-889" font-family="Monaco" font-size="10.00">+</text>
<text text-anchor="start" x="17" y="-889" font-family="Monaco" font-size="10.00">isMeasured()</text>
<text text-anchor="start" x="4" y="-874" font-family="Monaco" font-size="10.00">+</text>
<text text-anchor="start" x="17" y="-874" font-family="Monaco" font-size="10.00">boundary()</text>
<text text-anchor="start" x="4" y="-859" font-family="Monaco" font-size="10.00">+</text>
<text text-anchor="start" x="17" y="-859" font-family="Monaco" font-size="10.00">equals()</text>
<text text-anchor="start" x="4" y="-844" font-family="Monaco" font-size="10.00">+</text>
<text text-anchor="start" x="17" y="-844" font-family="Monaco" font-size="10.00">disjoint()</text>
<text text-anchor="start" x="4" y="-829" font-family="Monaco" font-size="10.00">+</text>
<text text-anchor="start" x="17" y="-829" font-family="Monaco" font-size="10.00">intersects()</text>
<text text-anchor="start" x="4" y="-814" font-family="Monaco" font-size="10.00">+</text>
<text text-anchor="start" x="17" y="-814" font-family="Monaco" font-size="10.00">touches()</text>
<text text-anchor="start" x="4" y="-799" font-family="Monaco" font-size="10.00">+</text>
<text text-anchor="start" x="17" y="-799" font-family="Monaco" font-size="10.00">crosses()</text>
<text text-anchor="start" x="4" y="-784" font-family="Monaco" font-size="10.00">+</text>
<text text-anchor="start" x="17" y="-784" font-family="Monaco" font-size="10.00">within()</text>
<text text-anchor="start" x="4" y="-769" font-family="Monaco" font-size="10.00">+</text>
<text text-anchor="start" x="17" y="-769" font-family="Monaco" font-size="10.00">contains()</text>
<text text-anchor="start" x="4" y="-754" font-family="Monaco" font-size="10.00">+</text>
<text text-anchor="start" x="17" y="-754" font-family="Monaco" font-size="10.00">overlaps()</text>
<text text-anchor="start" x="4" y="-739" font-family="Monaco" font-size="10.00">+</text>
<text text-anchor="start" x="17" y="-739" font-family="Monaco" font-size="10.00">relate()</text>
<text text-anchor="start" x="4" y="-724" font-family="Monaco" font-size="10.00">+</text>
<text text-anchor="start" x="17" y="-724" font-family="Monaco" font-size="10.00">locateAlong()</text>
<text text-anchor="start" x="4" y="-709" font-family="Monaco" font-size="10.00">+</text>
<text text-anchor="start" x="17" y="-709" font-family="Monaco" font-size="10.00">locateBetween()</text>
<text text-anchor="start" x="4" y="-694" font-family="Monaco" font-size="10.00">+</text>
<text text-anchor="start" x="17" y="-694" font-family="Monaco" font-size="10.00">distance()</text>
<text text-anchor="start" x="4" y="-679" font-family="Monaco" font-size="10.00">+</text>
<text text-anchor="start" x="17" y="-679" font-family="Monaco" font-size="10.00">buffer()</text>
<text text-anchor="start" x="4" y="-664" font-family="Monaco" font-size="10.00">+</text>
<text text-anchor="start" x="17" y="-664" font-family="Monaco" font-size="10.00">convexHull()</text>
<text text-anchor="start" x="4" y="-649" font-family="Monaco" font-size="10.00">+</text>
<text text-anchor="start" x="17" y="-649" font-family="Monaco" font-size="10.00">intersection()</text>
<text text-anchor="start" x="4" y="-634" font-family="Monaco" font-size="10.00">+</text>
<text text-anchor="start" x="17" y="-634" font-family="Monaco" font-size="10.00">unionG()</text>
<text text-anchor="start" x="4" y="-619" font-family="Monaco" font-size="10.00">+</text>
<text text-anchor="start" x="17" y="-619" font-family="Monaco" font-size="10.00">difference()</text>
<text text-anchor="start" x="4" y="-604" font-family="Monaco" font-size="10.00">+</text>
<text text-anchor="start" x="17" y="-604" font-family="Monaco" font-size="10.00">symmetricDifference()</text>
<text text-anchor="start" x="5.5" y="-589" font-family="Monaco" font-size="10.00">*</text>
<text text-anchor="start" x="17" y="-589" font-family="Monaco" font-size="10.00">equals()</text>
<text text-anchor="start" x="5.5" y="-574" font-family="Monaco" font-size="10.00">*</text>
<text text-anchor="start" x="17" y="-574" font-family="Monaco" font-size="10.00">disjoint()</text>
<text text-anchor="start" x="5.5" y="-559" font-family="Monaco" font-size="10.00">*</text>
<text text-anchor="start" x="17" y="-559" font-family="Monaco" font-size="10.00">intersects()</text>
<text text-anchor="start" x="5.5" y="-544" font-family="Monaco" font-size="10.00">*</text>
<text text-anchor="start" x="17" y="-544" font-family="Monaco" font-size="10.00">touches()</text>
<text text-anchor="start" x="5.5" y="-529" font-family="Monaco" font-size="10.00">*</text>
<text text-anchor="start" x="17" y="-529" font-family="Monaco" font-size="10.00">crosses()</text>
<text text-anchor="start" x="5.5" y="-514" font-family="Monaco" font-size="10.00">*</text>
<text text-anchor="start" x="17" y="-514" font-family="Monaco" font-size="10.00">within()</text>
<text text-anchor="start" x="5.5" y="-499" font-family="Monaco" font-size="10.00">*</text>
<text text-anchor="start" x="17" y="-499" font-family="Monaco" font-size="10.00">contains()</text>
<text text-anchor="start" x="5.5" y="-484" font-family="Monaco" font-size="10.00">*</text>
<text text-anchor="start" x="17" y="-484" font-family="Monaco" font-size="10.00">overlaps()</text>
<text text-anchor="start" x="5.5" y="-469" font-family="Monaco" font-size="10.00">*</text>
<text text-anchor="start" x="17" y="-469" font-family="Monaco" font-size="10.00">relate()</text>
<text text-anchor="start" x="5.5" y="-454" font-family="Monaco" font-size="10.00">*</text>
<text text-anchor="start" x="17" y="-454" font-family="Monaco" font-size="10.00">locateAlong()</text>
<text text-anchor="start" x="5.5" y="-439" font-family="Monaco" font-size="10.00">*</text>
<text text-anchor="start" x="17" y="-439" font-family="Monaco" font-size="10.00">locateBetween()</text>
<text text-anchor="start" x="5.5" y="-424" font-family="Monaco" font-size="10.00">*</text>
<text text-anchor="start" x="17" y="-424" font-family="Monaco" font-size="10.00">distance()</text>
<text text-anchor="start" x="5.5" y="-409" font-family="Monaco" font-size="10.00">*</text>
<text text-anchor="start" x="17" y="-409" font-family="Monaco" font-size="10.00">buffer()</text>
<text text-anchor="start" x="5.5" y="-394" font-family="Monaco" font-size="10.00">*</text>
<text text-anchor="start" x="17" y="-394" font-family="Monaco" font-size="10.00">convexHull()</text>
<text text-anchor="start" x="5.5" y="-379" font-family="Monaco" font-size="10.00">*</text>
<text text-anchor="start" x="17" y="-379" font-family="Monaco" font-size="10.00">intersection()</text>
<text text-anchor="start" x="5.5" y="-364" font-family="Monaco" font-size="10.00">*</text>
<text text-anchor="start" x="17" y="-364" font-family="Monaco" font-size="10.00">unionG()</text>
<text text-anchor="start" x="5.5" y="-349" font-family="Monaco" font-size="10.00">*</text>
<text text-anchor="start" x="17" y="-349" font-family="Monaco" font-size="10.00">difference()</text>
<text text-anchor="start" x="5.5" y="-334" font-family="Monaco" font-size="10.00">*</text>
<text text-anchor="start" x="17" y="-334" font-family="Monaco" font-size="10.00">symmetricDifference()</text>
<polygon fill="#666666" stroke="#666666" points="0,-1109 0,-1109 148,-1109 148,-1109 0,-1109"/>
<polygon fill="#666666" stroke="#666666" points="0,-1094 0,-1094 148,-1094 148,-1094 0,-1094"/>
<polygon fill="none" stroke="#666666" points="0,-327 0,-1137 148,-1137 148,-327 0,-327"/>
</a>
</g>
</g>
<!-- Node3&#45;&gt;Node2 -->
<g id="edge2_Node000002_Node000003" class="edge">
<title>Node3&#45;&gt;Node2</title>
<g id="a_edge2_Node000002_Node000003"><a xlink:title=" ">
<path fill="none" stroke="#63b8ff" d="M74,-316.66C74,-307.56 74,-298.99 74,-291.05"/>
<polygon fill="none" stroke="#63b8ff" points="70.5,-316.74 74,-326.74 77.5,-316.74 70.5,-316.74"/>
</a>
</g>
</g>
</g>
</svg>

<g id="navigator" transform="translate(0 0)" fill="#404254">
  <rect fill="#f2f5e9" fill-opacity="0.5" stroke="#606060" stroke-width=".5" x="0" y="0" width="60" height="60"/>
  <use id="zoomplus" xlink:href="#zoomPlus" x="17" y="9" onmousedown="handleZoom(evt,'in')"/>
  <use id="zoomminus" xlink:href="#zoomMin" x="42" y="9" onmousedown="handleZoom(evt,'out')"/>
  <use id="reset" xlink:href="#resetDef" x="30" y="36" onmousedown="handleReset()"/>
   <use id="arrowup" xlink:href="#arrowUp" x="0" y="0" onmousedown="handlePan(0,-1)"/>
  <use id="arrowright" xlink:href="#arrowRight" x="0" y="0" onmousedown="handlePan(1,0)"/>
  <use id="arrowdown" xlink:href="#arrowDown" x="0" y="0" onmousedown="handlePan(0,1)"/>
  <use id="arrowleft" xlink:href="#arrowLeft" x="0" y="0" onmousedown="handlePan(-1,0)"/>
</g>
<svg viewBox="0 0 15 15" width="100%" height="30px" preserveAspectRatio="xMaxYMin meet">
 <g id="arrow_out" transform="scale(0.3 0.3)">
  <a xlink:href="class_hydro_couple_1_1_spatial_1_1_i_polygon__coll__graph_org.svg" target="_base">
   <rect id="button" ry="5" rx="5" y="6" x="6" height="38" width="38"
        fill="#f2f5e9" fill-opacity="0.5" stroke="#606060" stroke-width="1.0"/>
   <path id="arrow"
     d="M 11.500037,31.436501 C 11.940474,20.09759 22.043105,11.32322 32.158766,21.979434 L 37.068811,17.246167 C 37.068811,17.246167 37.088388,32 37.088388,32 L 22.160133,31.978069 C 22.160133,31.978069 26.997745,27.140456 26.997745,27.140456 C 18.528582,18.264221 13.291696,25.230495 11.500037,31.436501 z"
     style="fill:#404040;"/>
  </a>
 </g>
</svg>

<style type='text/css'>
<![CDATA[
[data-mouse-over-selected='false'] { opacity: 0.7; }
[data-mouse-over-selected='true']  { opacity: 1.0; }
]]>
</style>
<script type="application/ecmascript"><![CDATA[
document.addEventListener('DOMContentLoaded', (event) => {
  highlightEdges();
  highlightAdjacentNodes();
});
]]></script>
</svg>
