<?xml version="1.0" encoding="UTF-8" standalone="no"?>
<!DOCTYPE svg PUBLIC "-//W3C//DTD SVG 1.1//EN"
 "http://www.w3.org/Graphics/SVG/1.1/DTD/svg11.dtd">
<!-- Generated by graphviz version 2.43.0 (0)
 -->
<!-- Title: HydroCouple::Spatial::IMultiCurve Pages: 1 -->
<!--zoomable 1070 -->

<svg id="main" version="1.1" xmlns="http://www.w3.org/2000/svg" xmlns:xlink="http://www.w3.org/1999/xlink" xml:space="preserve" onload="init(evt)">
<style type="text/css"><![CDATA[
.node, .edge {opacity: 0.7;}
.node.selected, .edge.selected {opacity: 1;}
.edge:hover path { stroke: red; }
.edge:hover polygon { stroke: red; fill: red; }
]]></style>

<defs>
  <circle id="rim" cx="0" cy="0" r="7"/>
  <circle id="rim2" cx="0" cy="0" r="3.5"/>
  <g id="zoomPlus">
    <use xlink:href="#rim" fill="#404040"><set attributeName="fill" to="#808080" begin="zoomplus.mouseover" end="zoomplus.mouseout"/></use>
    <path d="M-4,0h8M0,-4v8" fill="none" stroke="white" stroke-width="1.5" pointer-events="none"/>
  </g>
  <g id="zoomMin">
    <use xlink:href="#rim" fill="#404040"><set attributeName="fill" to="#808080" begin="zoomminus.mouseover" end="zoomminus.mouseout"/></use>
    <path d="M-4,0h8" fill="none" stroke="white" stroke-width="1.5" pointer-events="none"/>
  </g>
  <g id="arrowUp" transform="translate(30 24)">
    <use xlink:href="#rim"/>
    <path pointer-events="none" fill="none" stroke="white" stroke-width="1.5" d="M0,-3.0v7 M-2.5,-0.5L0,-3.0L2.5,-0.5"/>
  </g>
  <g id="arrowRight" transform="rotate(90) translate(36 -43)">
    <use xlink:href="#rim"/>
    <path pointer-events="none" fill="none" stroke="white" stroke-width="1.5" d="M0,-3.0v7 M-2.5,-0.5L0,-3.0L2.5,-0.5"/>
  </g>
  <g id="arrowDown" transform="rotate(180) translate(-30 -48)">
    <use xlink:href="#rim"/>
    <path pointer-events="none" fill="none" stroke="white" stroke-width="1.5" d="M0,-3.0v7 M-2.5,-0.5L0,-3.0L2.5,-0.5"/>
  </g>
  <g id="arrowLeft" transform="rotate(270) translate(-36 17)">
    <use xlink:href="#rim"/>
    <path pointer-events="none" fill="none" stroke="white" stroke-width="1.5" d="M0,-3.0v7 M-2.5,-0.5L0,-3.0L2.5,-0.5"/>
  </g>
  <g id="resetDef">
    <use xlink:href="#rim2" fill="#404040"><set attributeName="fill" to="#808080" begin="reset.mouseover" end="reset.mouseout"/></use>
  </g>
</defs>
<script type="application/ecmascript">
var viewWidth = 156;
var viewHeight = 1070;
var sectionId = 'dynsection-1';
</script>
<script type="application/ecmascript" xlink:href="../../svg.min.js"/>
<svg id="graph" class="graph">
<g id="viewport">
<title>HydroCouple::Spatial::IMultiCurve</title>
<!-- Node1 -->
<g id="Node000001" class="node">
<title>Node1</title>
<g id="a_Node000001"><a xlink:title="An IMultiCurve is a 1&#45;dimensional IGeometryCollection whose elements are ICurves.">
<polygon fill="#999999" stroke="transparent" points="130.5,-90 17.5,-90 17.5,0 130.5,0 130.5,-90"/>
<text text-anchor="start" x="23" y="-78" font-family="Monaco" font-size="10.00">HydroCouple::Spatial</text>
<text text-anchor="start" x="43" y="-67" font-family="Monaco" font-size="10.00">::IMultiCurve</text>
<text text-anchor="start" x="72.5" y="-52" font-family="Monaco" font-size="10.00"> </text>
<text text-anchor="start" x="26.5" y="-37" font-family="Monaco" font-size="10.00">+</text>
<text text-anchor="start" x="44" y="-37" font-family="Monaco" font-size="10.00">~IMultiCurve()</text>
<text text-anchor="start" x="26.5" y="-22" font-family="Monaco" font-size="10.00">+</text>
<text text-anchor="start" x="44" y="-22" font-family="Monaco" font-size="10.00">isClosed()</text>
<text text-anchor="start" x="26.5" y="-7" font-family="Monaco" font-size="10.00">+</text>
<text text-anchor="start" x="44" y="-7" font-family="Monaco" font-size="10.00">length()</text>
<polygon fill="#666666" stroke="#666666" points="18,-62 18,-62 131,-62 131,-62 18,-62"/>
<polygon fill="#666666" stroke="#666666" points="18,-47 18,-47 131,-47 131,-47 18,-47"/>
<polygon fill="none" stroke="#666666" points="17.5,0 17.5,-90 130.5,-90 130.5,0 17.5,0"/>
</a>
</g>
</g>
<!-- Node2 -->
<g id="Node000002" class="node">
<title>Node2</title>
<g id="a_Node000002"><a xlink:href="../../d7/d83/class_hydro_couple_1_1_spatial_1_1_i_geometry_collection.html" target="_top" xlink:title="An IGeometryCollection is a geometric object that is a collection of some number of IGeometry objects...">
<polygon fill="white" stroke="transparent" points="143,-216 5,-216 5,-126 143,-126 143,-216"/>
<text text-anchor="start" x="20.5" y="-204" font-family="Monaco" font-size="10.00">HydroCouple::Spatial</text>
<text text-anchor="start" x="20.5" y="-193" font-family="Monaco" font-size="10.00">::IGeometryCollection</text>
<text text-anchor="start" x="72" y="-178" font-family="Monaco" font-size="10.00"> </text>
<text text-anchor="start" x="9" y="-163" font-family="Monaco" font-size="10.00">+</text>
<text text-anchor="start" x="22" y="-163" font-family="Monaco" font-size="10.00">~IGeometryCollection()</text>
<text text-anchor="start" x="9" y="-148" font-family="Monaco" font-size="10.00">+</text>
<text text-anchor="start" x="22" y="-148" font-family="Monaco" font-size="10.00">geometryCount()</text>
<text text-anchor="start" x="9" y="-133" font-family="Monaco" font-size="10.00">+</text>
<text text-anchor="start" x="22" y="-133" font-family="Monaco" font-size="10.00">geometry()</text>
<polygon fill="#666666" stroke="#666666" points="5,-188 5,-188 143,-188 143,-188 5,-188"/>
<polygon fill="#666666" stroke="#666666" points="5,-173 5,-173 143,-173 143,-173 5,-173"/>
<polygon fill="none" stroke="#666666" points="5,-126 5,-216 143,-216 143,-126 5,-126"/>
</a>
</g>
</g>
<!-- Node2&#45;&gt;Node1 -->
<g id="edge1_Node000001_Node000002" class="edge">
<title>Node2&#45;&gt;Node1</title>
<g id="a_edge1_Node000001_Node000002"><a xlink:title=" ">
<path fill="none" stroke="#63b8ff" d="M74,-115.73C74,-107.25 74,-98.57 74,-90.34"/>
<polygon fill="none" stroke="#63b8ff" points="70.5,-115.93 74,-125.93 77.5,-115.93 70.5,-115.93"/>
</a>
</g>
</g>
<!-- Node3 -->
<g id="Node000003" class="node">
<title>Node3</title>
<g id="a_Node000003"><a xlink:href="../../d3/d92/class_hydro_couple_1_1_spatial_1_1_i_geometry.html" target="_top" xlink:title="IGeometry is the root class of the geometry hierarchy.">
<polygon fill="white" stroke="transparent" points="148,-1062 0,-1062 0,-252 148,-252 148,-1062"/>
<text text-anchor="start" x="22.5" y="-1050" font-family="Monaco" font-size="10.00">HydroCouple::Spatial</text>
<text text-anchor="start" x="45" y="-1039" font-family="Monaco" font-size="10.00">::IGeometry</text>
<text text-anchor="start" x="72" y="-1024" font-family="Monaco" font-size="10.00"> </text>
<text text-anchor="start" x="4" y="-1009" font-family="Monaco" font-size="10.00">+</text>
<text text-anchor="start" x="17" y="-1009" font-family="Monaco" font-size="10.00">~IGeometry()</text>
<text text-anchor="start" x="4" y="-994" font-family="Monaco" font-size="10.00">+</text>
<text text-anchor="start" x="17" y="-994" font-family="Monaco" font-size="10.00">id()</text>
<text text-anchor="start" x="4" y="-979" font-family="Monaco" font-size="10.00">+</text>
<text text-anchor="start" x="17" y="-979" font-family="Monaco" font-size="10.00">index()</text>
<text text-anchor="start" x="4" y="-964" font-family="Monaco" font-size="10.00">+</text>
<text text-anchor="start" x="17" y="-964" font-family="Monaco" font-size="10.00">dimension()</text>
<text text-anchor="start" x="4" y="-949" font-family="Monaco" font-size="10.00">+</text>
<text text-anchor="start" x="17" y="-949" font-family="Monaco" font-size="10.00">coordinateDimension()</text>
<text text-anchor="start" x="4" y="-934" font-family="Monaco" font-size="10.00">+</text>
<text text-anchor="start" x="17" y="-934" font-family="Monaco" font-size="10.00">geometryType()</text>
<text text-anchor="start" x="4" y="-919" font-family="Monaco" font-size="10.00">+</text>
<text text-anchor="start" x="17" y="-919" font-family="Monaco" font-size="10.00">spatialReferenceSystem()</text>
<text text-anchor="start" x="4" y="-904" font-family="Monaco" font-size="10.00">+</text>
<text text-anchor="start" x="17" y="-904" font-family="Monaco" font-size="10.00">envelope()</text>
<text text-anchor="start" x="4" y="-889" font-family="Monaco" font-size="10.00">+</text>
<text text-anchor="start" x="17" y="-889" font-family="Monaco" font-size="10.00">getWKT()</text>
<text text-anchor="start" x="4" y="-874" font-family="Monaco" font-size="10.00">+</text>
<text text-anchor="start" x="17" y="-874" font-family="Monaco" font-size="10.00">getWKB()</text>
<text text-anchor="start" x="4" y="-859" font-family="Monaco" font-size="10.00">+</text>
<text text-anchor="start" x="17" y="-859" font-family="Monaco" font-size="10.00">isEmpty()</text>
<text text-anchor="start" x="4" y="-844" font-family="Monaco" font-size="10.00">+</text>
<text text-anchor="start" x="17" y="-844" font-family="Monaco" font-size="10.00">isSimple()</text>
<text text-anchor="start" x="4" y="-829" font-family="Monaco" font-size="10.00">+</text>
<text text-anchor="start" x="17" y="-829" font-family="Monaco" font-size="10.00">is3D()</text>
<text text-anchor="start" x="4" y="-814" font-family="Monaco" font-size="10.00">+</text>
<text text-anchor="start" x="17" y="-814" font-family="Monaco" font-size="10.00">isMeasured()</text>
<text text-anchor="start" x="4" y="-799" font-family="Monaco" font-size="10.00">+</text>
<text text-anchor="start" x="17" y="-799" font-family="Monaco" font-size="10.00">boundary()</text>
<text text-anchor="start" x="4" y="-784" font-family="Monaco" font-size="10.00">+</text>
<text text-anchor="start" x="17" y="-784" font-family="Monaco" font-size="10.00">equals()</text>
<text text-anchor="start" x="4" y="-769" font-family="Monaco" font-size="10.00">+</text>
<text text-anchor="start" x="17" y="-769" font-family="Monaco" font-size="10.00">disjoint()</text>
<text text-anchor="start" x="4" y="-754" font-family="Monaco" font-size="10.00">+</text>
<text text-anchor="start" x="17" y="-754" font-family="Monaco" font-size="10.00">intersects()</text>
<text text-anchor="start" x="4" y="-739" font-family="Monaco" font-size="10.00">+</text>
<text text-anchor="start" x="17" y="-739" font-family="Monaco" font-size="10.00">touches()</text>
<text text-anchor="start" x="4" y="-724" font-family="Monaco" font-size="10.00">+</text>
<text text-anchor="start" x="17" y="-724" font-family="Monaco" font-size="10.00">crosses()</text>
<text text-anchor="start" x="4" y="-709" font-family="Monaco" font-size="10.00">+</text>
<text text-anchor="start" x="17" y="-709" font-family="Monaco" font-size="10.00">within()</text>
<text text-anchor="start" x="4" y="-694" font-family="Monaco" font-size="10.00">+</text>
<text text-anchor="start" x="17" y="-694" font-family="Monaco" font-size="10.00">contains()</text>
<text text-anchor="start" x="4" y="-679" font-family="Monaco" font-size="10.00">+</text>
<text text-anchor="start" x="17" y="-679" font-family="Monaco" font-size="10.00">overlaps()</text>
<text text-anchor="start" x="4" y="-664" font-family="Monaco" font-size="10.00">+</text>
<text text-anchor="start" x="17" y="-664" font-family="Monaco" font-size="10.00">relate()</text>
<text text-anchor="start" x="4" y="-649" font-family="Monaco" font-size="10.00">+</text>
<text text-anchor="start" x="17" y="-649" font-family="Monaco" font-size="10.00">locateAlong()</text>
<text text-anchor="start" x="4" y="-634" font-family="Monaco" font-size="10.00">+</text>
<text text-anchor="start" x="17" y="-634" font-family="Monaco" font-size="10.00">locateBetween()</text>
<text text-anchor="start" x="4" y="-619" font-family="Monaco" font-size="10.00">+</text>
<text text-anchor="start" x="17" y="-619" font-family="Monaco" font-size="10.00">distance()</text>
<text text-anchor="start" x="4" y="-604" font-family="Monaco" font-size="10.00">+</text>
<text text-anchor="start" x="17" y="-604" font-family="Monaco" font-size="10.00">buffer()</text>
<text text-anchor="start" x="4" y="-589" font-family="Monaco" font-size="10.00">+</text>
<text text-anchor="start" x="17" y="-589" font-family="Monaco" font-size="10.00">convexHull()</text>
<text text-anchor="start" x="4" y="-574" font-family="Monaco" font-size="10.00">+</text>
<text text-anchor="start" x="17" y="-574" font-family="Monaco" font-size="10.00">intersection()</text>
<text text-anchor="start" x="4" y="-559" font-family="Monaco" font-size="10.00">+</text>
<text text-anchor="start" x="17" y="-559" font-family="Monaco" font-size="10.00">unionG()</text>
<text text-anchor="start" x="4" y="-544" font-family="Monaco" font-size="10.00">+</text>
<text text-anchor="start" x="17" y="-544" font-family="Monaco" font-size="10.00">difference()</text>
<text text-anchor="start" x="4" y="-529" font-family="Monaco" font-size="10.00">+</text>
<text text-anchor="start" x="17" y="-529" font-family="Monaco" font-size="10.00">symmetricDifference()</text>
<text text-anchor="start" x="5.5" y="-514" font-family="Monaco" font-size="10.00">*</text>
<text text-anchor="start" x="17" y="-514" font-family="Monaco" font-size="10.00">equals()</text>
<text text-anchor="start" x="5.5" y="-499" font-family="Monaco" font-size="10.00">*</text>
<text text-anchor="start" x="17" y="-499" font-family="Monaco" font-size="10.00">disjoint()</text>
<text text-anchor="start" x="5.5" y="-484" font-family="Monaco" font-size="10.00">*</text>
<text text-anchor="start" x="17" y="-484" font-family="Monaco" font-size="10.00">intersects()</text>
<text text-anchor="start" x="5.5" y="-469" font-family="Monaco" font-size="10.00">*</text>
<text text-anchor="start" x="17" y="-469" font-family="Monaco" font-size="10.00">touches()</text>
<text text-anchor="start" x="5.5" y="-454" font-family="Monaco" font-size="10.00">*</text>
<text text-anchor="start" x="17" y="-454" font-family="Monaco" font-size="10.00">crosses()</text>
<text text-anchor="start" x="5.5" y="-439" font-family="Monaco" font-size="10.00">*</text>
<text text-anchor="start" x="17" y="-439" font-family="Monaco" font-size="10.00">within()</text>
<text text-anchor="start" x="5.5" y="-424" font-family="Monaco" font-size="10.00">*</text>
<text text-anchor="start" x="17" y="-424" font-family="Monaco" font-size="10.00">contains()</text>
<text text-anchor="start" x="5.5" y="-409" font-family="Monaco" font-size="10.00">*</text>
<text text-anchor="start" x="17" y="-409" font-family="Monaco" font-size="10.00">overlaps()</text>
<text text-anchor="start" x="5.5" y="-394" font-family="Monaco" font-size="10.00">*</text>
<text text-anchor="start" x="17" y="-394" font-family="Monaco" font-size="10.00">relate()</text>
<text text-anchor="start" x="5.5" y="-379" font-family="Monaco" font-size="10.00">*</text>
<text text-anchor="start" x="17" y="-379" font-family="Monaco" font-size="10.00">locateAlong()</text>
<text text-anchor="start" x="5.5" y="-364" font-family="Monaco" font-size="10.00">*</text>
<text text-anchor="start" x="17" y="-364" font-family="Monaco" font-size="10.00">locateBetween()</text>
<text text-anchor="start" x="5.5" y="-349" font-family="Monaco" font-size="10.00">*</text>
<text text-anchor="start" x="17" y="-349" font-family="Monaco" font-size="10.00">distance()</text>
<text text-anchor="start" x="5.5" y="-334" font-family="Monaco" font-size="10.00">*</text>
<text text-anchor="start" x="17" y="-334" font-family="Monaco" font-size="10.00">buffer()</text>
<text text-anchor="start" x="5.5" y="-319" font-family="Monaco" font-size="10.00">*</text>
<text text-anchor="start" x="17" y="-319" font-family="Monaco" font-size="10.00">convexHull()</text>
<text text-anchor="start" x="5.5" y="-304" font-family="Monaco" font-size="10.00">*</text>
<text text-anchor="start" x="17" y="-304" font-family="Monaco" font-size="10.00">intersection()</text>
<text text-anchor="start" x="5.5" y="-289" font-family="Monaco" font-size="10.00">*</text>
<text text-anchor="start" x="17" y="-289" font-family="Monaco" font-size="10.00">unionG()</text>
<text text-anchor="start" x="5.5" y="-274" font-family="Monaco" font-size="10.00">*</text>
<text text-anchor="start" x="17" y="-274" font-family="Monaco" font-size="10.00">difference()</text>
<text text-anchor="start" x="5.5" y="-259" font-family="Monaco" font-size="10.00">*</text>
<text text-anchor="start" x="17" y="-259" font-family="Monaco" font-size="10.00">symmetricDifference()</text>
<polygon fill="#666666" stroke="#666666" points="0,-1034 0,-1034 148,-1034 148,-1034 0,-1034"/>
<polygon fill="#666666" stroke="#666666" points="0,-1019 0,-1019 148,-1019 148,-1019 0,-1019"/>
<polygon fill="none" stroke="#666666" points="0,-252 0,-1062 148,-1062 148,-252 0,-252"/>
</a>
</g>
</g>
<!-- Node3&#45;&gt;Node2 -->
<g id="edge2_Node000002_Node000003" class="edge">
<title>Node3&#45;&gt;Node2</title>
<g id="a_edge2_Node000002_Node000003"><a xlink:title=" ">
<path fill="none" stroke="#63b8ff" d="M74,-241.63C74,-232.39 74,-223.85 74,-216.14"/>
<polygon fill="none" stroke="#63b8ff" points="70.5,-241.92 74,-251.92 77.5,-241.92 70.5,-241.92"/>
</a>
</g>
</g>
</g>
</svg>

<g id="navigator" transform="translate(0 0)" fill="#404254">
  <rect fill="#f2f5e9" fill-opacity="0.5" stroke="#606060" stroke-width=".5" x="0" y="0" width="60" height="60"/>
  <use id="zoomplus" xlink:href="#zoomPlus" x="17" y="9" onmousedown="handleZoom(evt,'in')"/>
  <use id="zoomminus" xlink:href="#zoomMin" x="42" y="9" onmousedown="handleZoom(evt,'out')"/>
  <use id="reset" xlink:href="#resetDef" x="30" y="36" onmousedown="handleReset()"/>
   <use id="arrowup" xlink:href="#arrowUp" x="0" y="0" onmousedown="handlePan(0,-1)"/>
  <use id="arrowright" xlink:href="#arrowRight" x="0" y="0" onmousedown="handlePan(1,0)"/>
  <use id="arrowdown" xlink:href="#arrowDown" x="0" y="0" onmousedown="handlePan(0,1)"/>
  <use id="arrowleft" xlink:href="#arrowLeft" x="0" y="0" onmousedown="handlePan(-1,0)"/>
</g>
<svg viewBox="0 0 15 15" width="100%" height="30px" preserveAspectRatio="xMaxYMin meet">
 <g id="arrow_out" transform="scale(0.3 0.3)">
  <a xlink:href="class_hydro_couple_1_1_spatial_1_1_i_multi_curve__coll__graph_org.svg" target="_base">
   <rect id="button" ry="5" rx="5" y="6" x="6" height="38" width="38"
        fill="#f2f5e9" fill-opacity="0.5" stroke="#606060" stroke-width="1.0"/>
   <path id="arrow"
     d="M 11.500037,31.436501 C 11.940474,20.09759 22.043105,11.32322 32.158766,21.979434 L 37.068811,17.246167 C 37.068811,17.246167 37.088388,32 37.088388,32 L 22.160133,31.978069 C 22.160133,31.978069 26.997745,27.140456 26.997745,27.140456 C 18.528582,18.264221 13.291696,25.230495 11.500037,31.436501 z"
     style="fill:#404040;"/>
  </a>
 </g>
</svg>

<style type='text/css'>
<![CDATA[
[data-mouse-over-selected='false'] { opacity: 0.7; }
[data-mouse-over-selected='true']  { opacity: 1.0; }
]]>
</style>
<script type="application/ecmascript"><![CDATA[
document.addEventListener('DOMContentLoaded', (event) => {
  highlightEdges();
  highlightAdjacentNodes();
});
]]></script>
</svg>
