<?xml version="1.0" encoding="UTF-8" standalone="no"?>
<!DOCTYPE svg PUBLIC "-//W3C//DTD SVG 1.1//EN"
 "http://www.w3.org/Graphics/SVG/1.1/DTD/svg11.dtd">
<!-- Generated by graphviz version 2.43.0 (0)
 -->
<!-- Title: HydroCouple::Temporal::IDateTime Pages: 1 -->
<svg width="175pt" height="354pt"
 viewBox="0.00 0.00 175.00 354.00" xmlns="http://www.w3.org/2000/svg" xmlns:xlink="http://www.w3.org/1999/xlink">
<g id="graph0" class="graph" transform="scale(1 1) rotate(0) translate(4 350)">
<title>HydroCouple::Temporal::IDateTime</title>
<!-- Node1 -->
<g id="Node000001" class="node">
<title>Node1</title>
<g id="a_Node000001"><a xlink:title="IDateTime interface based on a Julian day.">
<polygon fill="#999999" stroke="transparent" points="146,-105 21,-105 21,0 146,0 146,-105"/>
<text text-anchor="start" x="26.5" y="-92.5" font-family="Monaco" font-size="10.00">HydroCouple::Temporal</text>
<text text-anchor="start" x="55" y="-81.5" font-family="Monaco" font-size="10.00">::IDateTime</text>
<text text-anchor="start" x="82" y="-66.5" font-family="Monaco" font-size="10.00"> </text>
<text text-anchor="start" x="27" y="-51.5" font-family="Monaco" font-size="10.00">+</text>
<text text-anchor="start" x="41.5" y="-51.5" font-family="Monaco" font-size="10.00">~IDateTime()</text>
<text text-anchor="start" x="27" y="-36.5" font-family="Monaco" font-size="10.00">+</text>
<text text-anchor="start" x="41.5" y="-36.5" font-family="Monaco" font-size="10.00">julianDay()</text>
<text text-anchor="start" x="27" y="-21.5" font-family="Monaco" font-size="10.00">+</text>
<text text-anchor="start" x="41.5" y="-21.5" font-family="Monaco" font-size="10.00">modifiedJulianDay()</text>
<text text-anchor="start" x="27" y="-6.5" font-family="Monaco" font-size="10.00">+</text>
<text text-anchor="start" x="41.5" y="-6.5" font-family="Monaco" font-size="10.00">serialDate()</text>
<polygon fill="#666666" stroke="#666666" points="21.5,-76.5 21.5,-76.5 146.5,-76.5 146.5,-76.5 21.5,-76.5"/>
<polygon fill="#666666" stroke="#666666" points="21.5,-61.5 21.5,-61.5 146.5,-61.5 146.5,-61.5 21.5,-61.5"/>
<polygon fill="none" stroke="#666666" points="21,0 21,-105 146,-105 146,0 21,0"/>
</a>
</g>
</g>
<!-- Node2 -->
<g id="Node000002" class="node">
<title>Node2</title>
<g id="a_Node000002"><a xlink:href="../../dd/dbf/class_hydro_couple_1_1_i_property_changed.html" target="_top" xlink:title="IPropertyChanged interface is used to emit signal/event when a property of an object changes.">
<polygon fill="white" stroke="transparent" points="167,-190 0,-190 0,-141 167,-141 167,-190"/>
<text text-anchor="start" x="5.5" y="-177.5" font-family="Monaco" font-size="10.00">HydroCouple::IPropertyChanged</text>
<text text-anchor="start" x="82" y="-162.5" font-family="Monaco" font-size="10.00"> </text>
<text text-anchor="start" x="15" y="-147.5" font-family="Monaco" font-size="10.00">+</text>
<text text-anchor="start" x="38.5" y="-147.5" font-family="Monaco" font-size="10.00">~IPropertyChanged()</text>
<polygon fill="#666666" stroke="#666666" points="0.5,-172.5 0.5,-172.5 167.5,-172.5 167.5,-172.5 0.5,-172.5"/>
<polygon fill="#666666" stroke="#666666" points="0.5,-157.5 0.5,-157.5 167.5,-157.5 167.5,-157.5 0.5,-157.5"/>
<polygon fill="none" stroke="#666666" points="0,-141 0,-190 167,-190 167,-141 0,-141"/>
</a>
</g>
</g>
<!-- Node2&#45;&gt;Node1 -->
<g id="edge1_Node000001_Node000002" class="edge">
<title>Node2&#45;&gt;Node1</title>
<g id="a_edge1_Node000001_Node000002"><a xlink:title=" ">
<path fill="none" stroke="#63b8ff" d="M83.5,-130.85C83.5,-122.79 83.5,-114 83.5,-105.32"/>
<polygon fill="none" stroke="#63b8ff" points="80,-130.96 83.5,-140.96 87,-130.96 80,-130.96"/>
</a>
</g>
</g>
<!-- Node3 -->
<g id="Node000003" class="node">
<title>Node3</title>
<g id="a_Node000003"><a xlink:href="../../d5/d8b/class_hydro_couple_1_1_i_signal.html" target="_top" xlink:title=" ">
<polygon fill="white" stroke="transparent" points="140,-346 27,-346 27,-226 140,-226 140,-346"/>
<text text-anchor="start" x="32.5" y="-334" font-family="Monaco" font-size="10.00">HydroCouple::ISignal</text>
<text text-anchor="start" x="58.5" y="-323" font-family="Monaco" font-size="10.00">&lt; string &gt;</text>
<text text-anchor="start" x="82" y="-308" font-family="Monaco" font-size="10.00"> </text>
<text text-anchor="start" x="37" y="-293" font-family="Monaco" font-size="10.00">+</text>
<text text-anchor="start" x="55.5" y="-293" font-family="Monaco" font-size="10.00">~ISignal()</text>
<text text-anchor="start" x="37" y="-278" font-family="Monaco" font-size="10.00">+</text>
<text text-anchor="start" x="55.5" y="-278" font-family="Monaco" font-size="10.00">connect()</text>
<text text-anchor="start" x="37" y="-263" font-family="Monaco" font-size="10.00">+</text>
<text text-anchor="start" x="55.5" y="-263" font-family="Monaco" font-size="10.00">disconnect()</text>
<text text-anchor="start" x="37" y="-248" font-family="Monaco" font-size="10.00">+</text>
<text text-anchor="start" x="55.5" y="-248" font-family="Monaco" font-size="10.00">blockSignals()</text>
<text text-anchor="start" x="37" y="-233" font-family="Monaco" font-size="10.00">#</text>
<text text-anchor="start" x="55.5" y="-233" font-family="Monaco" font-size="10.00">emit()</text>
<polygon fill="#666666" stroke="#666666" points="27.5,-318 27.5,-318 140.5,-318 140.5,-318 27.5,-318"/>
<polygon fill="#666666" stroke="#666666" points="27.5,-303 27.5,-303 140.5,-303 140.5,-303 27.5,-303"/>
<polygon fill="none" stroke="#666666" points="27,-226 27,-346 140,-346 140,-226 27,-226"/>
</a>
</g>
</g>
<!-- Node3&#45;&gt;Node2 -->
<g id="edge2_Node000002_Node000003" class="edge">
<title>Node3&#45;&gt;Node2</title>
<g id="a_edge2_Node000002_Node000003"><a xlink:title=" ">
<path fill="none" stroke="#63b8ff" d="M83.5,-215.74C83.5,-206.6 83.5,-197.78 83.5,-190.2"/>
<polygon fill="none" stroke="#63b8ff" points="80,-215.75 83.5,-225.75 87,-215.75 80,-215.75"/>
</a>
</g>
</g>
</g>
</svg>
