<?xml version="1.0" encoding="UTF-8" standalone="no"?>
<!DOCTYPE svg PUBLIC "-//W3C//DTD SVG 1.1//EN"
 "http://www.w3.org/Graphics/SVG/1.1/DTD/svg11.dtd">
<!-- Generated by graphviz version 2.43.0 (0)
 -->
<!-- Title: HydroCouple::Spatial::INetworkComponentDataItem Pages: 1 -->
<svg width="204pt" height="717pt"
 viewBox="0.00 0.00 204.00 717.00" xmlns="http://www.w3.org/2000/svg" xmlns:xlink="http://www.w3.org/1999/xlink">
<g id="graph0" class="graph" transform="scale(1 1) rotate(0) translate(4 713)">
<title>HydroCouple::Spatial::INetworkComponentDataItem</title>
<!-- Node1 -->
<g id="node1" class="node">
<title>Node1</title>
<g id="a_node1"><a xlink:title="The INetworkComponentDataItem class.">
<polygon fill="#bfbfbf" stroke="black" points="3,-0.5 3,-134.5 193,-134.5 193,-0.5 3,-0.5"/>
<text text-anchor="start" x="11" y="-122.5" font-family="Monaco" font-size="10.00">HydroCouple::Spatial</text>
<text text-anchor="middle" x="98" y="-111.5" font-family="Monaco" font-size="10.00">::INetworkComponentDataItem</text>
<polyline fill="none" stroke="black" points="3,-104.5 193,-104.5 "/>
<text text-anchor="middle" x="98" y="-92.5" font-family="Monaco" font-size="10.00"> </text>
<polyline fill="none" stroke="black" points="3,-85.5 193,-85.5 "/>
<text text-anchor="start" x="11" y="-73.5" font-family="Monaco" font-size="10.00">+ ~INetworkComponentDataItem()</text>
<text text-anchor="start" x="11" y="-62.5" font-family="Monaco" font-size="10.00">+ network()</text>
<text text-anchor="start" x="11" y="-51.5" font-family="Monaco" font-size="10.00">+ meshDataType()</text>
<text text-anchor="start" x="11" y="-40.5" font-family="Monaco" font-size="10.00">+ edgeDimension()</text>
<text text-anchor="start" x="11" y="-29.5" font-family="Monaco" font-size="10.00">+ nodeDimension()</text>
<text text-anchor="start" x="11" y="-18.5" font-family="Monaco" font-size="10.00">+ getValue()</text>
<text text-anchor="start" x="11" y="-7.5" font-family="Monaco" font-size="10.00">+ setValue()</text>
</a>
</g>
</g>
<!-- Node2 -->
<g id="node2" class="node">
<title>Node2</title>
<g id="a_node2"><a xlink:href="../../d8/d52/class_hydro_couple_1_1_i_component_data_item.html" target="_top" xlink:title="IComponentItem is a fundamental unit of data for a component.">
<polygon fill="none" stroke="black" points="2.5,-171.5 2.5,-338.5 193.5,-338.5 193.5,-171.5 2.5,-171.5"/>
<text text-anchor="middle" x="98" y="-326.5" font-family="Monaco" font-size="10.00">HydroCouple::IComponentDataItem</text>
<polyline fill="none" stroke="black" points="2.5,-319.5 193.5,-319.5 "/>
<text text-anchor="middle" x="98" y="-307.5" font-family="Monaco" font-size="10.00"> </text>
<polyline fill="none" stroke="black" points="2.5,-300.5 193.5,-300.5 "/>
<text text-anchor="start" x="10.5" y="-288.5" font-family="Monaco" font-size="10.00">+ ~IComponentDataItem()</text>
<text text-anchor="start" x="10.5" y="-277.5" font-family="Monaco" font-size="10.00">+ modelComponent()</text>
<text text-anchor="start" x="10.5" y="-266.5" font-family="Monaco" font-size="10.00">+ dimensions()</text>
<text text-anchor="start" x="10.5" y="-255.5" font-family="Monaco" font-size="10.00">+ dimensionLength()</text>
<text text-anchor="start" x="10.5" y="-244.5" font-family="Monaco" font-size="10.00">+ valueDefinition()</text>
<text text-anchor="start" x="10.5" y="-233.5" font-family="Monaco" font-size="10.00">+ getValue()</text>
<text text-anchor="start" x="10.5" y="-222.5" font-family="Monaco" font-size="10.00">+ setValue()</text>
<text text-anchor="start" x="10.5" y="-211.5" font-family="Monaco" font-size="10.00">+ hasEditor()</text>
<text text-anchor="start" x="10.5" y="-200.5" font-family="Monaco" font-size="10.00">+ showEditor()</text>
<text text-anchor="start" x="10.5" y="-189.5" font-family="Monaco" font-size="10.00">+ hasViewer()</text>
<text text-anchor="start" x="10.5" y="-178.5" font-family="Monaco" font-size="10.00">+ showViewer()</text>
</a>
</g>
</g>
<!-- Node2&#45;&gt;Node1 -->
<g id="edge1" class="edge">
<title>Node2&#45;&gt;Node1</title>
<path fill="none" stroke="midnightblue" d="M98,-161.19C98,-152.22 98,-143.26 98,-134.64"/>
<polygon fill="none" stroke="midnightblue" points="94.5,-161.29 98,-171.29 101.5,-161.29 94.5,-161.29"/>
</g>
<!-- Node3 -->
<g id="node3" class="node">
<title>Node3</title>
<g id="a_node3"><a xlink:href="../../d2/d2a/class_hydro_couple_1_1_i_identity.html" target="_top" xlink:title="IIdentity interface class defines a method to get the Id of an HydroCouple entity.">
<polygon fill="none" stroke="black" points="35,-375.5 35,-443.5 161,-443.5 161,-375.5 35,-375.5"/>
<text text-anchor="middle" x="98" y="-431.5" font-family="Monaco" font-size="10.00">HydroCouple::IIdentity</text>
<polyline fill="none" stroke="black" points="35,-424.5 161,-424.5 "/>
<text text-anchor="middle" x="98" y="-412.5" font-family="Monaco" font-size="10.00"> </text>
<polyline fill="none" stroke="black" points="35,-405.5 161,-405.5 "/>
<text text-anchor="start" x="43" y="-393.5" font-family="Monaco" font-size="10.00">+ ~IIdentity()</text>
<text text-anchor="start" x="43" y="-382.5" font-family="Monaco" font-size="10.00">+ id()</text>
</a>
</g>
</g>
<!-- Node3&#45;&gt;Node2 -->
<g id="edge2" class="edge">
<title>Node3&#45;&gt;Node2</title>
<path fill="none" stroke="midnightblue" d="M98,-365.23C98,-356.88 98,-347.89 98,-338.76"/>
<polygon fill="none" stroke="midnightblue" points="94.5,-365.41 98,-375.41 101.5,-365.41 94.5,-365.41"/>
</g>
<!-- Node4 -->
<g id="node4" class="node">
<title>Node4</title>
<g id="a_node4"><a xlink:href="../../db/d64/class_hydro_couple_1_1_i_description.html" target="_top" xlink:title="IDescription interface class provides descriptive information on a HydroCouple object.">
<polygon fill="none" stroke="black" points="26,-480.5 26,-581.5 170,-581.5 170,-480.5 26,-480.5"/>
<text text-anchor="middle" x="98" y="-569.5" font-family="Monaco" font-size="10.00">HydroCouple::IDescription</text>
<polyline fill="none" stroke="black" points="26,-562.5 170,-562.5 "/>
<text text-anchor="middle" x="98" y="-550.5" font-family="Monaco" font-size="10.00"> </text>
<polyline fill="none" stroke="black" points="26,-543.5 170,-543.5 "/>
<text text-anchor="start" x="34" y="-531.5" font-family="Monaco" font-size="10.00">+ ~IDescription()</text>
<text text-anchor="start" x="34" y="-520.5" font-family="Monaco" font-size="10.00">+ caption()</text>
<text text-anchor="start" x="34" y="-509.5" font-family="Monaco" font-size="10.00">+ setCaption()</text>
<text text-anchor="start" x="34" y="-498.5" font-family="Monaco" font-size="10.00">+ description()</text>
<text text-anchor="start" x="34" y="-487.5" font-family="Monaco" font-size="10.00">+ setDescription()</text>
</a>
</g>
</g>
<!-- Node4&#45;&gt;Node3 -->
<g id="edge3" class="edge">
<title>Node4&#45;&gt;Node3</title>
<path fill="none" stroke="midnightblue" d="M98,-470.17C98,-461.11 98,-452.05 98,-443.83"/>
<polygon fill="none" stroke="midnightblue" points="94.5,-470.36 98,-480.36 101.5,-470.36 94.5,-470.36"/>
</g>
<!-- Node5 -->
<g id="node5" class="node">
<title>Node5</title>
<g id="a_node5"><a xlink:href="../../dd/dbf/class_hydro_couple_1_1_i_property_changed.html" target="_top" xlink:title="IPropertyChanged interface is used to emit signal/event when a property of an object changes.">
<polygon fill="none" stroke="black" points="0,-618.5 0,-708.5 196,-708.5 196,-618.5 0,-618.5"/>
<text text-anchor="middle" x="98" y="-696.5" font-family="Monaco" font-size="10.00">HydroCouple::IPropertyChanged</text>
<polyline fill="none" stroke="black" points="0,-689.5 196,-689.5 "/>
<text text-anchor="middle" x="98" y="-677.5" font-family="Monaco" font-size="10.00"> </text>
<polyline fill="none" stroke="black" points="0,-670.5 196,-670.5 "/>
<text text-anchor="start" x="8" y="-658.5" font-family="Monaco" font-size="10.00">+ ~IPropertyChanged()</text>
<text text-anchor="start" x="8" y="-647.5" font-family="Monaco" font-size="10.00">+ registerPropertyChangedListener()</text>
<text text-anchor="start" x="8" y="-636.5" font-family="Monaco" font-size="10.00">+ deRegisterPropertyChanged</text>
<text text-anchor="start" x="8" y="-625.5" font-family="Monaco" font-size="10.00">Listener()</text>
</a>
</g>
</g>
<!-- Node5&#45;&gt;Node4 -->
<g id="edge4" class="edge">
<title>Node5&#45;&gt;Node4</title>
<path fill="none" stroke="midnightblue" d="M98,-608.13C98,-599.31 98,-590.22 98,-581.52"/>
<polygon fill="none" stroke="midnightblue" points="94.5,-608.32 98,-618.32 101.5,-608.32 94.5,-608.32"/>
</g>
</g>
</svg>
