<?xml version="1.0" encoding="UTF-8" standalone="no"?>
<!DOCTYPE svg PUBLIC "-//W3C//DTD SVG 1.1//EN"
 "http://www.w3.org/Graphics/SVG/1.1/DTD/svg11.dtd">
<!-- Generated by graphviz version 2.43.0 (0)
 -->
<!-- Title: HydroCouple::Temporal::ITimeModelComponent Pages: 1 -->
<!--zoomable 886 -->

<svg id="main" version="1.1" xmlns="http://www.w3.org/2000/svg" xmlns:xlink="http://www.w3.org/1999/xlink" xml:space="preserve" onload="init(evt)">
<style type="text/css"><![CDATA[
.node, .edge {opacity: 0.7;}
.node.selected, .edge.selected {opacity: 1;}
.edge:hover path { stroke: red; }
.edge:hover polygon { stroke: red; fill: red; }
]]></style>

<defs>
  <circle id="rim" cx="0" cy="0" r="7"/>
  <circle id="rim2" cx="0" cy="0" r="3.5"/>
  <g id="zoomPlus">
    <use xlink:href="#rim" fill="#404040"><set attributeName="fill" to="#808080" begin="zoomplus.mouseover" end="zoomplus.mouseout"/></use>
    <path d="M-4,0h8M0,-4v8" fill="none" stroke="white" stroke-width="1.5" pointer-events="none"/>
  </g>
  <g id="zoomMin">
    <use xlink:href="#rim" fill="#404040"><set attributeName="fill" to="#808080" begin="zoomminus.mouseover" end="zoomminus.mouseout"/></use>
    <path d="M-4,0h8" fill="none" stroke="white" stroke-width="1.5" pointer-events="none"/>
  </g>
  <g id="arrowUp" transform="translate(30 24)">
    <use xlink:href="#rim"/>
    <path pointer-events="none" fill="none" stroke="white" stroke-width="1.5" d="M0,-3.0v7 M-2.5,-0.5L0,-3.0L2.5,-0.5"/>
  </g>
  <g id="arrowRight" transform="rotate(90) translate(36 -43)">
    <use xlink:href="#rim"/>
    <path pointer-events="none" fill="none" stroke="white" stroke-width="1.5" d="M0,-3.0v7 M-2.5,-0.5L0,-3.0L2.5,-0.5"/>
  </g>
  <g id="arrowDown" transform="rotate(180) translate(-30 -48)">
    <use xlink:href="#rim"/>
    <path pointer-events="none" fill="none" stroke="white" stroke-width="1.5" d="M0,-3.0v7 M-2.5,-0.5L0,-3.0L2.5,-0.5"/>
  </g>
  <g id="arrowLeft" transform="rotate(270) translate(-36 17)">
    <use xlink:href="#rim"/>
    <path pointer-events="none" fill="none" stroke="white" stroke-width="1.5" d="M0,-3.0v7 M-2.5,-0.5L0,-3.0L2.5,-0.5"/>
  </g>
  <g id="resetDef">
    <use xlink:href="#rim2" fill="#404040"><set attributeName="fill" to="#808080" begin="reset.mouseover" end="reset.mouseout"/></use>
  </g>
</defs>
<script type="application/ecmascript">
var viewWidth = 343;
var viewHeight = 886;
var sectionId = 'dynsection-1';
</script>
<script type="application/ecmascript" xlink:href="../../svg.min.js"/>
<svg id="graph" class="graph">
<g id="viewport">
<title>HydroCouple::Temporal::ITimeModelComponent</title>
<!-- Node1 -->
<g id="Node000001" class="node">
<title>Node1</title>
<g id="a_Node000001"><a xlink:title="The ITimeModelComponent class for time marching models.">
<polygon fill="#999999" stroke="transparent" points="241,-90 90,-90 90,0 241,0 241,-90"/>
<text text-anchor="start" x="105.5" y="-78" font-family="Monaco" font-size="10.00">HydroCouple::Temporal</text>
<text text-anchor="start" x="105.5" y="-67" font-family="Monaco" font-size="10.00">::ITimeModelComponent</text>
<text text-anchor="start" x="164" y="-52" font-family="Monaco" font-size="10.00"> </text>
<text text-anchor="start" x="94.5" y="-37" font-family="Monaco" font-size="10.00">+</text>
<text text-anchor="start" x="107.5" y="-37" font-family="Monaco" font-size="10.00">~ITimeModelComponent()</text>
<text text-anchor="start" x="94.5" y="-22" font-family="Monaco" font-size="10.00">+</text>
<text text-anchor="start" x="107.5" y="-22" font-family="Monaco" font-size="10.00">currentDateTime()</text>
<text text-anchor="start" x="94.5" y="-7" font-family="Monaco" font-size="10.00">+</text>
<text text-anchor="start" x="107.5" y="-7" font-family="Monaco" font-size="10.00">simulationPeriod()</text>
<polygon fill="#666666" stroke="#666666" points="90.5,-62 90.5,-62 241.5,-62 241.5,-62 90.5,-62"/>
<polygon fill="#666666" stroke="#666666" points="90.5,-47 90.5,-47 241.5,-47 241.5,-47 90.5,-47"/>
<polygon fill="none" stroke="#666666" points="90,0 90,-90 241,-90 241,0 90,0"/>
</a>
</g>
</g>
<!-- Node2 -->
<g id="Node000002" class="node">
<title>Node2</title>
<g id="a_Node000002"><a xlink:href="../../d3/dae/class_hydro_couple_1_1_i_model_component.html" target="_top" xlink:title="IModelComponent interface is the core interface in the HydroCouple standard defining a model componen...">
<polygon fill="white" stroke="transparent" points="250,-325 81,-325 81,-126 250,-126 250,-325"/>
<text text-anchor="start" x="86.5" y="-312.5" font-family="Monaco" font-size="10.00">HydroCouple::IModelComponent</text>
<text text-anchor="start" x="164" y="-297.5" font-family="Monaco" font-size="10.00"> </text>
<text text-anchor="start" x="96" y="-282.5" font-family="Monaco" font-size="10.00">+</text>
<text text-anchor="start" x="119.5" y="-282.5" font-family="Monaco" font-size="10.00">~IModelComponent()</text>
<text text-anchor="start" x="96" y="-267.5" font-family="Monaco" font-size="10.00">+</text>
<text text-anchor="start" x="119.5" y="-267.5" font-family="Monaco" font-size="10.00">componentInfo()</text>
<text text-anchor="start" x="96" y="-252.5" font-family="Monaco" font-size="10.00">+</text>
<text text-anchor="start" x="119.5" y="-252.5" font-family="Monaco" font-size="10.00">status()</text>
<text text-anchor="start" x="96" y="-237.5" font-family="Monaco" font-size="10.00">+</text>
<text text-anchor="start" x="119.5" y="-237.5" font-family="Monaco" font-size="10.00">arguments()</text>
<text text-anchor="start" x="96" y="-222.5" font-family="Monaco" font-size="10.00">+</text>
<text text-anchor="start" x="119.5" y="-222.5" font-family="Monaco" font-size="10.00">inputs()</text>
<text text-anchor="start" x="96" y="-207.5" font-family="Monaco" font-size="10.00">+</text>
<text text-anchor="start" x="119.5" y="-207.5" font-family="Monaco" font-size="10.00">outputs()</text>
<text text-anchor="start" x="96" y="-192.5" font-family="Monaco" font-size="10.00">+</text>
<text text-anchor="start" x="119.5" y="-192.5" font-family="Monaco" font-size="10.00">results()</text>
<text text-anchor="start" x="96" y="-177.5" font-family="Monaco" font-size="10.00">+</text>
<text text-anchor="start" x="119.5" y="-177.5" font-family="Monaco" font-size="10.00">initialize()</text>
<text text-anchor="start" x="96" y="-162.5" font-family="Monaco" font-size="10.00">+</text>
<text text-anchor="start" x="119.5" y="-162.5" font-family="Monaco" font-size="10.00">validate()</text>
<text text-anchor="start" x="96" y="-147.5" font-family="Monaco" font-size="10.00">+</text>
<text text-anchor="start" x="119.5" y="-147.5" font-family="Monaco" font-size="10.00">prepare()</text>
<text text-anchor="start" x="119.5" y="-132.5" font-family="Monaco" font-size="10.00">and 16 more...</text>
<polygon fill="#666666" stroke="#666666" points="81.5,-307.5 81.5,-307.5 250.5,-307.5 250.5,-307.5 81.5,-307.5"/>
<polygon fill="#666666" stroke="#666666" points="81.5,-292.5 81.5,-292.5 250.5,-292.5 250.5,-292.5 81.5,-292.5"/>
<polygon fill="none" stroke="#666666" points="81,-126 81,-325 250,-325 250,-126 81,-126"/>
</a>
</g>
</g>
<!-- Node2&#45;&gt;Node1 -->
<g id="edge1_Node000001_Node000002" class="edge">
<title>Node2&#45;&gt;Node1</title>
<g id="a_edge1_Node000001_Node000002"><a xlink:title=" ">
<path fill="none" stroke="#63b8ff" d="M165.5,-115.74C165.5,-106.87 165.5,-98.27 165.5,-90.31"/>
<polygon fill="none" stroke="#63b8ff" points="162,-115.85 165.5,-125.85 169,-115.85 162,-115.85"/>
</a>
</g>
</g>
<!-- Node3 -->
<g id="Node000003" class="node">
<title>Node3</title>
<g id="a_Node000003"><a xlink:href="../../d2/d2a/class_hydro_couple_1_1_i_identity.html" target="_top" xlink:title="IIdentity interface class defines a method to get the Id of an HydroCouple entity.">
<polygon fill="white" stroke="transparent" points="143.5,-458.5 23.5,-458.5 23.5,-394.5 143.5,-394.5 143.5,-458.5"/>
<text text-anchor="start" x="28.5" y="-446.5" font-family="Monaco" font-size="10.00">HydroCouple::IIdentity</text>
<text text-anchor="start" x="81.5" y="-431.5" font-family="Monaco" font-size="10.00"> </text>
<text text-anchor="start" x="38" y="-416.5" font-family="Monaco" font-size="10.00">+</text>
<text text-anchor="start" x="61.5" y="-416.5" font-family="Monaco" font-size="10.00">~IIdentity()</text>
<text text-anchor="start" x="38" y="-401.5" font-family="Monaco" font-size="10.00">+</text>
<text text-anchor="start" x="61.5" y="-401.5" font-family="Monaco" font-size="10.00">id()</text>
<polygon fill="#666666" stroke="#666666" points="23.5,-441.5 23.5,-441.5 143.5,-441.5 143.5,-441.5 23.5,-441.5"/>
<polygon fill="#666666" stroke="#666666" points="23.5,-426.5 23.5,-426.5 143.5,-426.5 143.5,-426.5 23.5,-426.5"/>
<polygon fill="none" stroke="#666666" points="23.5,-394.5 23.5,-458.5 143.5,-458.5 143.5,-394.5 23.5,-394.5"/>
</a>
</g>
</g>
<!-- Node3&#45;&gt;Node2 -->
<g id="edge2_Node000002_Node000003" class="edge">
<title>Node3&#45;&gt;Node2</title>
<g id="a_edge2_Node000002_Node000003"><a xlink:title=" ">
<path fill="none" stroke="#63b8ff" d="M100.12,-385.15C107.29,-367.76 116.02,-346.57 124.74,-325.42"/>
<polygon fill="none" stroke="#63b8ff" points="96.89,-383.83 96.31,-394.41 103.36,-386.49 96.89,-383.83"/>
</a>
</g>
</g>
<!-- Node4 -->
<g id="Node000004" class="node">
<title>Node4</title>
<g id="a_Node000004"><a xlink:href="../../db/d64/class_hydro_couple_1_1_i_description.html" target="_top" xlink:title="IDescription interface class provides descriptive information on a HydroCouple object.">
<polygon fill="white" stroke="transparent" points="152.5,-637 14.5,-637 14.5,-528 152.5,-528 152.5,-637"/>
<text text-anchor="start" x="19.5" y="-624.5" font-family="Monaco" font-size="10.00">HydroCouple::IDescription</text>
<text text-anchor="start" x="81.5" y="-609.5" font-family="Monaco" font-size="10.00"> </text>
<text text-anchor="start" x="28" y="-594.5" font-family="Monaco" font-size="10.00">+</text>
<text text-anchor="start" x="50.5" y="-594.5" font-family="Monaco" font-size="10.00">~IDescription()</text>
<text text-anchor="start" x="28" y="-579.5" font-family="Monaco" font-size="10.00">+</text>
<text text-anchor="start" x="50.5" y="-579.5" font-family="Monaco" font-size="10.00">caption()</text>
<text text-anchor="start" x="28" y="-564.5" font-family="Monaco" font-size="10.00">+</text>
<text text-anchor="start" x="50.5" y="-564.5" font-family="Monaco" font-size="10.00">setCaption()</text>
<text text-anchor="start" x="28" y="-549.5" font-family="Monaco" font-size="10.00">+</text>
<text text-anchor="start" x="50.5" y="-549.5" font-family="Monaco" font-size="10.00">description()</text>
<text text-anchor="start" x="28" y="-534.5" font-family="Monaco" font-size="10.00">+</text>
<text text-anchor="start" x="50.5" y="-534.5" font-family="Monaco" font-size="10.00">setDescription()</text>
<polygon fill="#666666" stroke="#666666" points="14.5,-619.5 14.5,-619.5 152.5,-619.5 152.5,-619.5 14.5,-619.5"/>
<polygon fill="#666666" stroke="#666666" points="14.5,-604.5 14.5,-604.5 152.5,-604.5 152.5,-604.5 14.5,-604.5"/>
<polygon fill="none" stroke="#666666" points="14.5,-528 14.5,-637 152.5,-637 152.5,-528 14.5,-528"/>
</a>
</g>
</g>
<!-- Node4&#45;&gt;Node3 -->
<g id="edge3_Node000003_Node000004" class="edge">
<title>Node4&#45;&gt;Node3</title>
<g id="a_edge3_Node000003_Node000004"><a xlink:title=" ">
<path fill="none" stroke="#63b8ff" d="M83.5,-517.47C83.5,-497.15 83.5,-475.58 83.5,-458.66"/>
<polygon fill="none" stroke="#63b8ff" points="80,-517.64 83.5,-527.64 87,-517.64 80,-517.64"/>
</a>
</g>
</g>
<!-- Node5 -->
<g id="Node000005" class="node">
<title>Node5</title>
<g id="a_Node000005"><a xlink:href="../../dd/dbf/class_hydro_couple_1_1_i_property_changed.html" target="_top" xlink:title="IPropertyChanged interface is used to emit signal/event when a property of an object changes.">
<polygon fill="white" stroke="transparent" points="167,-722 0,-722 0,-673 167,-673 167,-722"/>
<text text-anchor="start" x="5.5" y="-709.5" font-family="Monaco" font-size="10.00">HydroCouple::IPropertyChanged</text>
<text text-anchor="start" x="82" y="-694.5" font-family="Monaco" font-size="10.00"> </text>
<text text-anchor="start" x="15" y="-679.5" font-family="Monaco" font-size="10.00">+</text>
<text text-anchor="start" x="38.5" y="-679.5" font-family="Monaco" font-size="10.00">~IPropertyChanged()</text>
<polygon fill="#666666" stroke="#666666" points="0.5,-704.5 0.5,-704.5 167.5,-704.5 167.5,-704.5 0.5,-704.5"/>
<polygon fill="#666666" stroke="#666666" points="0.5,-689.5 0.5,-689.5 167.5,-689.5 167.5,-689.5 0.5,-689.5"/>
<polygon fill="none" stroke="#666666" points="0,-673 0,-722 167,-722 167,-673 0,-673"/>
</a>
</g>
</g>
<!-- Node5&#45;&gt;Node4 -->
<g id="edge4_Node000004_Node000005" class="edge">
<title>Node5&#45;&gt;Node4</title>
<g id="a_edge4_Node000004_Node000005"><a xlink:title=" ">
<path fill="none" stroke="#63b8ff" d="M83.5,-662.79C83.5,-654.79 83.5,-646.06 83.5,-637.41"/>
<polygon fill="none" stroke="#63b8ff" points="80,-662.81 83.5,-672.81 87,-662.81 80,-662.81"/>
</a>
</g>
</g>
<!-- Node6 -->
<g id="Node000006" class="node">
<title>Node6</title>
<g id="a_Node000006"><a xlink:href="../../d5/d8b/class_hydro_couple_1_1_i_signal.html" target="_top" xlink:title=" ">
<polygon fill="white" stroke="transparent" points="140,-878 27,-878 27,-758 140,-758 140,-878"/>
<text text-anchor="start" x="32.5" y="-866" font-family="Monaco" font-size="10.00">HydroCouple::ISignal</text>
<text text-anchor="start" x="58.5" y="-855" font-family="Monaco" font-size="10.00">&lt; string &gt;</text>
<text text-anchor="start" x="82" y="-840" font-family="Monaco" font-size="10.00"> </text>
<text text-anchor="start" x="37" y="-825" font-family="Monaco" font-size="10.00">+</text>
<text text-anchor="start" x="55.5" y="-825" font-family="Monaco" font-size="10.00">~ISignal()</text>
<text text-anchor="start" x="37" y="-810" font-family="Monaco" font-size="10.00">+</text>
<text text-anchor="start" x="55.5" y="-810" font-family="Monaco" font-size="10.00">connect()</text>
<text text-anchor="start" x="37" y="-795" font-family="Monaco" font-size="10.00">+</text>
<text text-anchor="start" x="55.5" y="-795" font-family="Monaco" font-size="10.00">disconnect()</text>
<text text-anchor="start" x="37" y="-780" font-family="Monaco" font-size="10.00">+</text>
<text text-anchor="start" x="55.5" y="-780" font-family="Monaco" font-size="10.00">blockSignals()</text>
<text text-anchor="start" x="37" y="-765" font-family="Monaco" font-size="10.00">#</text>
<text text-anchor="start" x="55.5" y="-765" font-family="Monaco" font-size="10.00">emit()</text>
<polygon fill="#666666" stroke="#666666" points="27.5,-850 27.5,-850 140.5,-850 140.5,-850 27.5,-850"/>
<polygon fill="#666666" stroke="#666666" points="27.5,-835 27.5,-835 140.5,-835 140.5,-835 27.5,-835"/>
<polygon fill="none" stroke="#666666" points="27,-758 27,-878 140,-878 140,-758 27,-758"/>
</a>
</g>
</g>
<!-- Node6&#45;&gt;Node5 -->
<g id="edge5_Node000005_Node000006" class="edge">
<title>Node6&#45;&gt;Node5</title>
<g id="a_edge5_Node000005_Node000006"><a xlink:title=" ">
<path fill="none" stroke="#63b8ff" d="M83.5,-747.74C83.5,-738.6 83.5,-729.78 83.5,-722.2"/>
<polygon fill="none" stroke="#63b8ff" points="80,-747.75 83.5,-757.75 87,-747.75 80,-747.75"/>
</a>
</g>
</g>
<!-- Node7 -->
<g id="Node000007" class="node">
<title>Node7</title>
<g id="a_Node000007"><a xlink:href="../../d5/d8b/class_hydro_couple_1_1_i_signal.html" target="_top" xlink:title=" ">
<polygon fill="white" stroke="transparent" points="335,-492 162,-492 162,-361 335,-361 335,-492"/>
<text text-anchor="start" x="167.5" y="-479.5" font-family="Monaco" font-size="10.00">HydroCouple::ISignal</text>
<text text-anchor="start" x="167.5" y="-468.5" font-family="Monaco" font-size="10.00">&lt; const shared_ptr&lt; IComponent</text>
<text text-anchor="start" x="173.5" y="-457.5" font-family="Monaco" font-size="10.00">StatusChangeEventArgs &gt; &amp; &gt;</text>
<text text-anchor="start" x="247" y="-442.5" font-family="Monaco" font-size="10.00"> </text>
<text text-anchor="start" x="187" y="-427.5" font-family="Monaco" font-size="10.00">+</text>
<text text-anchor="start" x="220.5" y="-427.5" font-family="Monaco" font-size="10.00">~ISignal()</text>
<text text-anchor="start" x="187" y="-412.5" font-family="Monaco" font-size="10.00">+</text>
<text text-anchor="start" x="220.5" y="-412.5" font-family="Monaco" font-size="10.00">connect()</text>
<text text-anchor="start" x="187" y="-397.5" font-family="Monaco" font-size="10.00">+</text>
<text text-anchor="start" x="220.5" y="-397.5" font-family="Monaco" font-size="10.00">disconnect()</text>
<text text-anchor="start" x="187" y="-382.5" font-family="Monaco" font-size="10.00">+</text>
<text text-anchor="start" x="220.5" y="-382.5" font-family="Monaco" font-size="10.00">blockSignals()</text>
<text text-anchor="start" x="187" y="-367.5" font-family="Monaco" font-size="10.00">#</text>
<text text-anchor="start" x="220.5" y="-367.5" font-family="Monaco" font-size="10.00">emit()</text>
<polygon fill="#666666" stroke="#666666" points="162.5,-452.5 162.5,-452.5 335.5,-452.5 335.5,-452.5 162.5,-452.5"/>
<polygon fill="#666666" stroke="#666666" points="162.5,-437.5 162.5,-437.5 335.5,-437.5 335.5,-437.5 162.5,-437.5"/>
<polygon fill="none" stroke="#666666" points="162,-361 162,-492 335,-492 335,-361 162,-361"/>
</a>
</g>
</g>
<!-- Node7&#45;&gt;Node2 -->
<g id="edge6_Node000002_Node000007" class="edge">
<title>Node7&#45;&gt;Node2</title>
<g id="a_edge6_Node000002_Node000007"><a xlink:title=" ">
<path fill="none" stroke="#63b8ff" d="M217.69,-351.62C214.08,-342.96 210.35,-334.03 206.63,-325.11"/>
<polygon fill="none" stroke="#63b8ff" points="214.47,-353.01 221.55,-360.89 220.93,-350.31 214.47,-353.01"/>
</a>
</g>
</g>
</g>
</svg>

<g id="navigator" transform="translate(0 0)" fill="#404254">
  <rect fill="#f2f5e9" fill-opacity="0.5" stroke="#606060" stroke-width=".5" x="0" y="0" width="60" height="60"/>
  <use id="zoomplus" xlink:href="#zoomPlus" x="17" y="9" onmousedown="handleZoom(evt,'in')"/>
  <use id="zoomminus" xlink:href="#zoomMin" x="42" y="9" onmousedown="handleZoom(evt,'out')"/>
  <use id="reset" xlink:href="#resetDef" x="30" y="36" onmousedown="handleReset()"/>
   <use id="arrowup" xlink:href="#arrowUp" x="0" y="0" onmousedown="handlePan(0,-1)"/>
  <use id="arrowright" xlink:href="#arrowRight" x="0" y="0" onmousedown="handlePan(1,0)"/>
  <use id="arrowdown" xlink:href="#arrowDown" x="0" y="0" onmousedown="handlePan(0,1)"/>
  <use id="arrowleft" xlink:href="#arrowLeft" x="0" y="0" onmousedown="handlePan(-1,0)"/>
</g>
<svg viewBox="0 0 15 15" width="100%" height="30px" preserveAspectRatio="xMaxYMin meet">
 <g id="arrow_out" transform="scale(0.3 0.3)">
  <a xlink:href="class_hydro_couple_1_1_temporal_1_1_i_time_model_component__coll__graph_org.svg" target="_base">
   <rect id="button" ry="5" rx="5" y="6" x="6" height="38" width="38"
        fill="#f2f5e9" fill-opacity="0.5" stroke="#606060" stroke-width="1.0"/>
   <path id="arrow"
     d="M 11.500037,31.436501 C 11.940474,20.09759 22.043105,11.32322 32.158766,21.979434 L 37.068811,17.246167 C 37.068811,17.246167 37.088388,32 37.088388,32 L 22.160133,31.978069 C 22.160133,31.978069 26.997745,27.140456 26.997745,27.140456 C 18.528582,18.264221 13.291696,25.230495 11.500037,31.436501 z"
     style="fill:#404040;"/>
  </a>
 </g>
</svg>

<style type='text/css'>
<![CDATA[
[data-mouse-over-selected='false'] { opacity: 0.7; }
[data-mouse-over-selected='true']  { opacity: 1.0; }
]]>
</style>
<script type="application/ecmascript"><![CDATA[
document.addEventListener('DOMContentLoaded', (event) => {
  highlightEdges();
  highlightAdjacentNodes();
});
]]></script>
</svg>
