<?xml version="1.0" encoding="UTF-8" standalone="no"?>
<!DOCTYPE svg PUBLIC "-//W3C//DTD SVG 1.1//EN"
 "http://www.w3.org/Graphics/SVG/1.1/DTD/svg11.dtd">
<!-- Generated by graphviz version 2.43.0 (0)
 -->
<!-- Title: WKBLineStringZM Pages: 1 -->
<svg width="106pt" height="228pt"
 viewBox="0.00 0.00 106.00 228.00" xmlns="http://www.w3.org/2000/svg" xmlns:xlink="http://www.w3.org/1999/xlink">

<svg id="main" version="1.1" xmlns="http://www.w3.org/2000/svg" xmlns:xlink="http://www.w3.org/1999/xlink" xml:space="preserve" onload="init(evt)">
<style type="text/css"><![CDATA[
.node, .edge {opacity: 0.7;}
.node.selected, .edge.selected {opacity: 1;}
.edge:hover path { stroke: red; }
.edge:hover polygon { stroke: red; fill: red; }
]]></style>
<script type="application/ecmascript" xlink:href="../../svg.min.js"/>
<svg id="graph" class="graph">
<g id="graph0" class="graph" transform="scale(1 1) rotate(0) translate(4 224)">
<title>WKBLineStringZM</title>
<!-- Node1 -->
<g id="Node000001" class="node">
<title>Node1</title>
<g id="a_Node000001"><a xlink:title="The WKBLineStringZM struct.">
<polygon fill="#999999" stroke="transparent" points="98,-79 0,-79 0,0 98,0 98,-79"/>
<text text-anchor="start" x="5" y="-66.5" font-family="Monaco" font-size="10.00">WKBLineStringZM</text>
<text text-anchor="start" x="10" y="-51.5" font-family="Monaco" font-size="10.00">+</text>
<text text-anchor="start" x="29" y="-51.5" font-family="Monaco" font-size="10.00">byteOrder</text>
<text text-anchor="start" x="10" y="-36.5" font-family="Monaco" font-size="10.00">+</text>
<text text-anchor="start" x="29" y="-36.5" font-family="Monaco" font-size="10.00">numPoints</text>
<text text-anchor="start" x="10" y="-21.5" font-family="Monaco" font-size="10.00">+</text>
<text text-anchor="start" x="29" y="-21.5" font-family="Monaco" font-size="10.00">wkbType</text>
<text text-anchor="start" x="47" y="-6.5" font-family="Monaco" font-size="10.00"> </text>
<polygon fill="#666666" stroke="#666666" points="0,-61.5 0,-61.5 98,-61.5 98,-61.5 0,-61.5"/>
<polygon fill="#666666" stroke="#666666" points="0,-16.5 0,-16.5 27,-16.5 27,-16.5 0,-16.5"/>
<polygon fill="#666666" stroke="#666666" points="27,-16.5 27,-16.5 98,-16.5 98,-16.5 27,-16.5"/>
<polygon fill="none" stroke="#666666" points="0,0 0,-79 98,-79 98,0 0,0"/>
</a>
</g>
</g>
<!-- Node2 -->
<g id="Node000002" class="node">
<title>Node2</title>
<g id="a_Node000002"><a xlink:href="../../d7/ded/struct_point_z_m.html" target="_top" xlink:title="The PointZM struct.">
<polygon fill="white" stroke="transparent" points="74.5,-220 23.5,-220 23.5,-126 74.5,-126 74.5,-220"/>
<text text-anchor="start" x="29" y="-208" font-family="Monaco" font-size="10.00">PointZM</text>
<text text-anchor="start" x="33" y="-193" font-family="Monaco" font-size="10.00">+</text>
<text text-anchor="start" x="51" y="-193" font-family="Monaco" font-size="10.00">x</text>
<text text-anchor="start" x="33" y="-178" font-family="Monaco" font-size="10.00">+</text>
<text text-anchor="start" x="51" y="-178" font-family="Monaco" font-size="10.00">y</text>
<text text-anchor="start" x="33" y="-163" font-family="Monaco" font-size="10.00">+</text>
<text text-anchor="start" x="51" y="-163" font-family="Monaco" font-size="10.00">z</text>
<text text-anchor="start" x="33" y="-148" font-family="Monaco" font-size="10.00">+</text>
<text text-anchor="start" x="51" y="-148" font-family="Monaco" font-size="10.00">m</text>
<text text-anchor="start" x="47.5" y="-133" font-family="Monaco" font-size="10.00"> </text>
<polygon fill="#666666" stroke="#666666" points="24,-203 24,-203 75,-203 75,-203 24,-203"/>
<polygon fill="#666666" stroke="#666666" points="24,-143 24,-143 49,-143 49,-143 24,-143"/>
<polygon fill="#666666" stroke="#666666" points="49,-143 49,-143 75,-143 75,-143 49,-143"/>
<polygon fill="none" stroke="#666666" points="23.5,-126 23.5,-220 74.5,-220 74.5,-126 23.5,-126"/>
</a>
</g>
</g>
<!-- Node2&#45;&gt;Node1 -->
<g id="edge1_Node000001_Node000002" class="edge">
<title>Node2&#45;&gt;Node1</title>
<g id="a_edge1_Node000001_Node000002"><a xlink:title=" ">
<path fill="none" stroke="#63b8ff" d="M49,-125.64C49,-114.45 49,-102.44 49,-91.07"/>
<polygon fill="none" stroke="#63b8ff" points="49,-91.06 45,-85.06 49,-79.06 53,-85.06 49,-91.06"/>
</a>
</g>
<text text-anchor="middle" x="70" y="-100" font-family="Monaco" font-size="10.00" fill="grey"> +points</text>
</g>
</g>
</svg>
</svg>

<style type='text/css'>
<![CDATA[
[data-mouse-over-selected='false'] { opacity: 0.7; }
[data-mouse-over-selected='true']  { opacity: 1.0; }
]]>
</style>
<script type="application/ecmascript"><![CDATA[
document.addEventListener('DOMContentLoaded', (event) => {
  highlightEdges();
  highlightAdjacentNodes();
});
]]></script>
</svg>
