<?xml version="1.0" encoding="UTF-8" standalone="no"?>
<!DOCTYPE svg PUBLIC "-//W3C//DTD SVG 1.1//EN"
 "http://www.w3.org/Graphics/SVG/1.1/DTD/svg11.dtd">
<!-- Generated by graphviz version 2.43.0 (0)
 -->
<!-- Title: HydroCouple::IComponentInfo Pages: 1 -->
<svg width="652pt" height="706pt"
 viewBox="0.00 0.00 651.50 706.00" xmlns="http://www.w3.org/2000/svg" xmlns:xlink="http://www.w3.org/1999/xlink">
<g id="graph0" class="graph" transform="scale(1 1) rotate(0) translate(4 702)">
<title>HydroCouple::IComponentInfo</title>
<!-- Node1 -->
<g id="node1" class="node">
<title>Node1</title>
<g id="a_node1"><a xlink:title="IComponentInfo interface class is a factory that provides detailed metadata about a component and cre...">
<polygon fill="#bfbfbf" stroke="black" points="237,-127.5 237,-327.5 401,-327.5 401,-127.5 237,-127.5"/>
<text text-anchor="middle" x="319" y="-315.5" font-family="Monaco" font-size="10.00">HydroCouple::IComponentInfo</text>
<polyline fill="none" stroke="black" points="237,-308.5 401,-308.5 "/>
<text text-anchor="middle" x="319" y="-296.5" font-family="Monaco" font-size="10.00"> </text>
<polyline fill="none" stroke="black" points="237,-289.5 401,-289.5 "/>
<text text-anchor="start" x="245" y="-277.5" font-family="Monaco" font-size="10.00">+ ~IComponentInfo()</text>
<text text-anchor="start" x="245" y="-266.5" font-family="Monaco" font-size="10.00">+ libraryFilePath()</text>
<text text-anchor="start" x="245" y="-255.5" font-family="Monaco" font-size="10.00">+ setLibraryFilePath()</text>
<text text-anchor="start" x="245" y="-244.5" font-family="Monaco" font-size="10.00">+ iconFilePath()</text>
<text text-anchor="start" x="245" y="-233.5" font-family="Monaco" font-size="10.00">+ vendor()</text>
<text text-anchor="start" x="245" y="-222.5" font-family="Monaco" font-size="10.00">+ documentation()</text>
<text text-anchor="start" x="245" y="-211.5" font-family="Monaco" font-size="10.00">+ license()</text>
<text text-anchor="start" x="245" y="-200.5" font-family="Monaco" font-size="10.00">+ copyright()</text>
<text text-anchor="start" x="245" y="-189.5" font-family="Monaco" font-size="10.00">+ url()</text>
<text text-anchor="start" x="245" y="-178.5" font-family="Monaco" font-size="10.00">+ email()</text>
<text text-anchor="start" x="245" y="-167.5" font-family="Monaco" font-size="10.00">+ version()</text>
<text text-anchor="start" x="245" y="-156.5" font-family="Monaco" font-size="10.00">+ tags()</text>
<text text-anchor="start" x="245" y="-145.5" font-family="Monaco" font-size="10.00">+ validateLicense()</text>
<text text-anchor="start" x="245" y="-134.5" font-family="Monaco" font-size="10.00">+ validateLicense()</text>
</a>
</g>
</g>
<!-- Node5 -->
<g id="node5" class="node">
<title>Node5</title>
<g id="a_node5"><a xlink:href="../../dc/d06/class_hydro_couple_1_1_i_adapted_output_factory_component_info.html" target="_top" xlink:title="IAdaptedOutputFactoryComponentInfo interface class provides information about an IAdaptedOutputFactor...">
<polygon fill="none" stroke="black" points="0,-0.5 0,-90.5 204,-90.5 204,-0.5 0,-0.5"/>
<text text-anchor="start" x="8" y="-78.5" font-family="Monaco" font-size="10.00">HydroCouple::IAdaptedOutput</text>
<text text-anchor="middle" x="102" y="-67.5" font-family="Monaco" font-size="10.00">FactoryComponentInfo</text>
<polyline fill="none" stroke="black" points="0,-60.5 204,-60.5 "/>
<text text-anchor="middle" x="102" y="-48.5" font-family="Monaco" font-size="10.00"> </text>
<polyline fill="none" stroke="black" points="0,-41.5 204,-41.5 "/>
<text text-anchor="start" x="8" y="-29.5" font-family="Monaco" font-size="10.00">+ ~IAdaptedOutputFactoryComponent</text>
<text text-anchor="start" x="8" y="-18.5" font-family="Monaco" font-size="10.00">Info()</text>
<text text-anchor="start" x="8" y="-7.5" font-family="Monaco" font-size="10.00">+ createComponentInstance()</text>
</a>
</g>
</g>
<!-- Node1&#45;&gt;Node5 -->
<g id="edge4" class="edge">
<title>Node1&#45;&gt;Node5</title>
<path fill="none" stroke="midnightblue" d="M229.21,-152.02C204.06,-131.16 177.54,-109.16 155.25,-90.67"/>
<polygon fill="none" stroke="midnightblue" points="227.03,-154.76 236.96,-158.45 231.5,-149.37 227.03,-154.76"/>
</g>
<!-- Node6 -->
<g id="node6" class="node">
<title>Node6</title>
<g id="a_node6"><a xlink:href="../../dd/d4e/class_hydro_couple_1_1_i_model_component_info.html" target="_top" xlink:title="IModelComponentInfo interface inherits from the IComponentInfo interface which provides detailed meta...">
<polygon fill="none" stroke="black" points="222,-6 222,-85 416,-85 416,-6 222,-6"/>
<text text-anchor="middle" x="319" y="-73" font-family="Monaco" font-size="10.00">HydroCouple::IModelComponentInfo</text>
<polyline fill="none" stroke="black" points="222,-66 416,-66 "/>
<text text-anchor="middle" x="319" y="-54" font-family="Monaco" font-size="10.00"> </text>
<polyline fill="none" stroke="black" points="222,-47 416,-47 "/>
<text text-anchor="start" x="230" y="-35" font-family="Monaco" font-size="10.00">+ ~IModelComponentInfo()</text>
<text text-anchor="start" x="230" y="-24" font-family="Monaco" font-size="10.00">+ createComponentInstance()</text>
<text text-anchor="start" x="230" y="-13" font-family="Monaco" font-size="10.00">+ adaptedOutputFactories()</text>
</a>
</g>
</g>
<!-- Node1&#45;&gt;Node6 -->
<g id="edge5" class="edge">
<title>Node1&#45;&gt;Node6</title>
<path fill="none" stroke="midnightblue" d="M319,-117.17C319,-105.76 319,-94.78 319,-85.02"/>
<polygon fill="none" stroke="midnightblue" points="315.5,-117.29 319,-127.29 322.5,-117.29 315.5,-117.29"/>
</g>
<!-- Node7 -->
<g id="node7" class="node">
<title>Node7</title>
<g id="a_node7"><a xlink:href="../../df/d58/class_hydro_couple_1_1_i_workflow_component_info.html" target="_top" xlink:title="The IDataExchangeWorkflowComponentInfo class.">
<polygon fill="none" stroke="black" points="434.5,-11.5 434.5,-79.5 643.5,-79.5 643.5,-11.5 434.5,-11.5"/>
<text text-anchor="middle" x="539" y="-67.5" font-family="Monaco" font-size="10.00">HydroCouple::IWorkflowComponentInfo</text>
<polyline fill="none" stroke="black" points="434.5,-60.5 643.5,-60.5 "/>
<text text-anchor="middle" x="539" y="-48.5" font-family="Monaco" font-size="10.00"> </text>
<polyline fill="none" stroke="black" points="434.5,-41.5 643.5,-41.5 "/>
<text text-anchor="start" x="442.5" y="-29.5" font-family="Monaco" font-size="10.00">+ ~IWorkflowComponentInfo()</text>
<text text-anchor="start" x="442.5" y="-18.5" font-family="Monaco" font-size="10.00">+ createComponentInstance()</text>
</a>
</g>
</g>
<!-- Node1&#45;&gt;Node7 -->
<g id="edge6" class="edge">
<title>Node1&#45;&gt;Node7</title>
<path fill="none" stroke="midnightblue" d="M409.07,-152.8C440.12,-127.4 473.36,-100.2 498.45,-79.68"/>
<polygon fill="none" stroke="midnightblue" points="406.76,-150.18 401.23,-159.22 411.19,-155.6 406.76,-150.18"/>
</g>
<!-- Node2 -->
<g id="node2" class="node">
<title>Node2</title>
<g id="a_node2"><a xlink:href="../../d2/d2a/class_hydro_couple_1_1_i_identity.html" target="_top" xlink:title="IIdentity interface class defines a method to get the Id of an HydroCouple entity.">
<polygon fill="none" stroke="black" points="256,-364.5 256,-432.5 382,-432.5 382,-364.5 256,-364.5"/>
<text text-anchor="middle" x="319" y="-420.5" font-family="Monaco" font-size="10.00">HydroCouple::IIdentity</text>
<polyline fill="none" stroke="black" points="256,-413.5 382,-413.5 "/>
<text text-anchor="middle" x="319" y="-401.5" font-family="Monaco" font-size="10.00"> </text>
<polyline fill="none" stroke="black" points="256,-394.5 382,-394.5 "/>
<text text-anchor="start" x="264" y="-382.5" font-family="Monaco" font-size="10.00">+ ~IIdentity()</text>
<text text-anchor="start" x="264" y="-371.5" font-family="Monaco" font-size="10.00">+ id()</text>
</a>
</g>
</g>
<!-- Node2&#45;&gt;Node1 -->
<g id="edge1" class="edge">
<title>Node2&#45;&gt;Node1</title>
<path fill="none" stroke="midnightblue" d="M319,-354.08C319,-345.84 319,-336.92 319,-327.76"/>
<polygon fill="none" stroke="midnightblue" points="315.5,-354.11 319,-364.11 322.5,-354.11 315.5,-354.11"/>
</g>
<!-- Node3 -->
<g id="node3" class="node">
<title>Node3</title>
<g id="a_node3"><a xlink:href="../../db/d64/class_hydro_couple_1_1_i_description.html" target="_top" xlink:title="IDescription interface class provides descriptive information on a HydroCouple object.">
<polygon fill="none" stroke="black" points="247,-469.5 247,-570.5 391,-570.5 391,-469.5 247,-469.5"/>
<text text-anchor="middle" x="319" y="-558.5" font-family="Monaco" font-size="10.00">HydroCouple::IDescription</text>
<polyline fill="none" stroke="black" points="247,-551.5 391,-551.5 "/>
<text text-anchor="middle" x="319" y="-539.5" font-family="Monaco" font-size="10.00"> </text>
<polyline fill="none" stroke="black" points="247,-532.5 391,-532.5 "/>
<text text-anchor="start" x="255" y="-520.5" font-family="Monaco" font-size="10.00">+ ~IDescription()</text>
<text text-anchor="start" x="255" y="-509.5" font-family="Monaco" font-size="10.00">+ caption()</text>
<text text-anchor="start" x="255" y="-498.5" font-family="Monaco" font-size="10.00">+ setCaption()</text>
<text text-anchor="start" x="255" y="-487.5" font-family="Monaco" font-size="10.00">+ description()</text>
<text text-anchor="start" x="255" y="-476.5" font-family="Monaco" font-size="10.00">+ setDescription()</text>
</a>
</g>
</g>
<!-- Node3&#45;&gt;Node2 -->
<g id="edge2" class="edge">
<title>Node3&#45;&gt;Node2</title>
<path fill="none" stroke="midnightblue" d="M319,-459.17C319,-450.11 319,-441.05 319,-432.83"/>
<polygon fill="none" stroke="midnightblue" points="315.5,-459.36 319,-469.36 322.5,-459.36 315.5,-459.36"/>
</g>
<!-- Node4 -->
<g id="node4" class="node">
<title>Node4</title>
<g id="a_node4"><a xlink:href="../../dd/dbf/class_hydro_couple_1_1_i_property_changed.html" target="_top" xlink:title="IPropertyChanged interface is used to emit signal/event when a property of an object changes.">
<polygon fill="none" stroke="black" points="221,-607.5 221,-697.5 417,-697.5 417,-607.5 221,-607.5"/>
<text text-anchor="middle" x="319" y="-685.5" font-family="Monaco" font-size="10.00">HydroCouple::IPropertyChanged</text>
<polyline fill="none" stroke="black" points="221,-678.5 417,-678.5 "/>
<text text-anchor="middle" x="319" y="-666.5" font-family="Monaco" font-size="10.00"> </text>
<polyline fill="none" stroke="black" points="221,-659.5 417,-659.5 "/>
<text text-anchor="start" x="229" y="-647.5" font-family="Monaco" font-size="10.00">+ ~IPropertyChanged()</text>
<text text-anchor="start" x="229" y="-636.5" font-family="Monaco" font-size="10.00">+ registerPropertyChangedListener()</text>
<text text-anchor="start" x="229" y="-625.5" font-family="Monaco" font-size="10.00">+ deRegisterPropertyChanged</text>
<text text-anchor="start" x="229" y="-614.5" font-family="Monaco" font-size="10.00">Listener()</text>
</a>
</g>
</g>
<!-- Node4&#45;&gt;Node3 -->
<g id="edge3" class="edge">
<title>Node4&#45;&gt;Node3</title>
<path fill="none" stroke="midnightblue" d="M319,-597.13C319,-588.31 319,-579.22 319,-570.52"/>
<polygon fill="none" stroke="midnightblue" points="315.5,-597.32 319,-607.32 322.5,-597.32 315.5,-597.32"/>
</g>
</g>
</svg>
