<?xml version="1.0" encoding="UTF-8" standalone="no"?>
<!DOCTYPE svg PUBLIC "-//W3C//DTD SVG 1.1//EN"
 "http://www.w3.org/Graphics/SVG/1.1/DTD/svg11.dtd">
<!-- Generated by graphviz version 2.43.0 (0)
 -->
<!-- Title: HydroCouple::IInput Pages: 1 -->
<!--zoomable 1005 -->

<svg id="main" version="1.1" xmlns="http://www.w3.org/2000/svg" xmlns:xlink="http://www.w3.org/1999/xlink" xml:space="preserve" onload="init(evt)">
<style type="text/css"><![CDATA[
.node, .edge {opacity: 0.7;}
.node.selected, .edge.selected {opacity: 1;}
.edge:hover path { stroke: red; }
.edge:hover polygon { stroke: red; fill: red; }
]]></style>

<defs>
  <circle id="rim" cx="0" cy="0" r="7"/>
  <circle id="rim2" cx="0" cy="0" r="3.5"/>
  <g id="zoomPlus">
    <use xlink:href="#rim" fill="#404040"><set attributeName="fill" to="#808080" begin="zoomplus.mouseover" end="zoomplus.mouseout"/></use>
    <path d="M-4,0h8M0,-4v8" fill="none" stroke="white" stroke-width="1.5" pointer-events="none"/>
  </g>
  <g id="zoomMin">
    <use xlink:href="#rim" fill="#404040"><set attributeName="fill" to="#808080" begin="zoomminus.mouseover" end="zoomminus.mouseout"/></use>
    <path d="M-4,0h8" fill="none" stroke="white" stroke-width="1.5" pointer-events="none"/>
  </g>
  <g id="arrowUp" transform="translate(30 24)">
    <use xlink:href="#rim"/>
    <path pointer-events="none" fill="none" stroke="white" stroke-width="1.5" d="M0,-3.0v7 M-2.5,-0.5L0,-3.0L2.5,-0.5"/>
  </g>
  <g id="arrowRight" transform="rotate(90) translate(36 -43)">
    <use xlink:href="#rim"/>
    <path pointer-events="none" fill="none" stroke="white" stroke-width="1.5" d="M0,-3.0v7 M-2.5,-0.5L0,-3.0L2.5,-0.5"/>
  </g>
  <g id="arrowDown" transform="rotate(180) translate(-30 -48)">
    <use xlink:href="#rim"/>
    <path pointer-events="none" fill="none" stroke="white" stroke-width="1.5" d="M0,-3.0v7 M-2.5,-0.5L0,-3.0L2.5,-0.5"/>
  </g>
  <g id="arrowLeft" transform="rotate(270) translate(-36 17)">
    <use xlink:href="#rim"/>
    <path pointer-events="none" fill="none" stroke="white" stroke-width="1.5" d="M0,-3.0v7 M-2.5,-0.5L0,-3.0L2.5,-0.5"/>
  </g>
  <g id="resetDef">
    <use xlink:href="#rim2" fill="#404040"><set attributeName="fill" to="#808080" begin="reset.mouseover" end="reset.mouseout"/></use>
  </g>
</defs>
<script type="application/ecmascript">
var viewWidth = 343;
var viewHeight = 1005;
var sectionId = 'dynsection-1';
</script>
<script type="application/ecmascript" xlink:href="../../svg.min.js"/>
<svg id="graph" class="graph">
<g id="viewport">
<title>HydroCouple::IInput</title>
<!-- Node1 -->
<g id="Node000001" class="node">
<title>Node1</title>
<g id="a_Node000001"><a xlink:title="An IInput item that can accept values for an IModelComponent.">
<polygon fill="#999999" stroke="transparent" points="219,-94 112,-94 112,0 219,0 219,-94"/>
<text text-anchor="start" x="117.5" y="-82" font-family="Monaco" font-size="10.00">HydroCouple::IInput</text>
<text text-anchor="start" x="164" y="-67" font-family="Monaco" font-size="10.00"> </text>
<text text-anchor="start" x="120" y="-52" font-family="Monaco" font-size="10.00">+</text>
<text text-anchor="start" x="136.5" y="-52" font-family="Monaco" font-size="10.00">~IInput()</text>
<text text-anchor="start" x="120" y="-37" font-family="Monaco" font-size="10.00">+</text>
<text text-anchor="start" x="136.5" y="-37" font-family="Monaco" font-size="10.00">provider()</text>
<text text-anchor="start" x="120" y="-22" font-family="Monaco" font-size="10.00">+</text>
<text text-anchor="start" x="136.5" y="-22" font-family="Monaco" font-size="10.00">setProvider()</text>
<text text-anchor="start" x="120" y="-7" font-family="Monaco" font-size="10.00">+</text>
<text text-anchor="start" x="136.5" y="-7" font-family="Monaco" font-size="10.00">canConsume()</text>
<polygon fill="#666666" stroke="#666666" points="112.5,-77 112.5,-77 219.5,-77 219.5,-77 112.5,-77"/>
<polygon fill="#666666" stroke="#666666" points="112.5,-62 112.5,-62 219.5,-62 219.5,-62 112.5,-62"/>
<polygon fill="none" stroke="#666666" points="112,0 112,-94 219,-94 219,0 112,0"/>
</a>
</g>
</g>
<!-- Node2 -->
<g id="Node000002" class="node">
<title>Node2</title>
<g id="a_Node000002"><a xlink:href="../../d1/dd3/class_hydro_couple_1_1_i_exchange_item.html" target="_top" xlink:title="IExchangeItem the base data item the can be exchanged between components at runtime.">
<polygon fill="white" stroke="transparent" points="241.5,-179 89.5,-179 89.5,-130 241.5,-130 241.5,-179"/>
<text text-anchor="start" x="94.5" y="-166.5" font-family="Monaco" font-size="10.00">HydroCouple::IExchangeItem</text>
<text text-anchor="start" x="163.5" y="-151.5" font-family="Monaco" font-size="10.00"> </text>
<text text-anchor="start" x="104" y="-136.5" font-family="Monaco" font-size="10.00">+</text>
<text text-anchor="start" x="127.5" y="-136.5" font-family="Monaco" font-size="10.00">~IExchangeItem()</text>
<polygon fill="#666666" stroke="#666666" points="89.5,-161.5 89.5,-161.5 241.5,-161.5 241.5,-161.5 89.5,-161.5"/>
<polygon fill="#666666" stroke="#666666" points="89.5,-146.5 89.5,-146.5 241.5,-146.5 241.5,-146.5 89.5,-146.5"/>
<polygon fill="none" stroke="#666666" points="89.5,-130 89.5,-179 241.5,-179 241.5,-130 89.5,-130"/>
</a>
</g>
</g>
<!-- Node2&#45;&gt;Node1 -->
<g id="edge1_Node000001_Node000002" class="edge">
<title>Node2&#45;&gt;Node1</title>
<g id="a_edge1_Node000001_Node000002"><a xlink:title=" ">
<path fill="none" stroke="#63b8ff" d="M165.5,-119.61C165.5,-111.48 165.5,-102.66 165.5,-94.08"/>
<polygon fill="none" stroke="#63b8ff" points="162,-119.82 165.5,-129.82 169,-119.82 162,-119.82"/>
</a>
</g>
</g>
<!-- Node3 -->
<g id="Node000003" class="node">
<title>Node3</title>
<g id="a_Node000003"><a xlink:href="../../d8/d52/class_hydro_couple_1_1_i_component_data_item.html" target="_top" xlink:title="IComponentItem is a fundamental unit of data for a component.">
<polygon fill="white" stroke="transparent" points="258,-444 73,-444 73,-215 258,-215 258,-444"/>
<text text-anchor="start" x="78.5" y="-431.5" font-family="Monaco" font-size="10.00">HydroCouple::IComponentDataItem</text>
<text text-anchor="start" x="164" y="-416.5" font-family="Monaco" font-size="10.00"> </text>
<text text-anchor="start" x="88" y="-401.5" font-family="Monaco" font-size="10.00">+</text>
<text text-anchor="start" x="111.5" y="-401.5" font-family="Monaco" font-size="10.00">~IComponentDataItem()</text>
<text text-anchor="start" x="88" y="-386.5" font-family="Monaco" font-size="10.00">+</text>
<text text-anchor="start" x="111.5" y="-386.5" font-family="Monaco" font-size="10.00">modelComponent()</text>
<text text-anchor="start" x="88" y="-371.5" font-family="Monaco" font-size="10.00">+</text>
<text text-anchor="start" x="111.5" y="-371.5" font-family="Monaco" font-size="10.00">dimensions()</text>
<text text-anchor="start" x="88" y="-356.5" font-family="Monaco" font-size="10.00">+</text>
<text text-anchor="start" x="111.5" y="-356.5" font-family="Monaco" font-size="10.00">dimensionLength()</text>
<text text-anchor="start" x="88" y="-341.5" font-family="Monaco" font-size="10.00">+</text>
<text text-anchor="start" x="111.5" y="-341.5" font-family="Monaco" font-size="10.00">valueDefinition()</text>
<text text-anchor="start" x="88" y="-326.5" font-family="Monaco" font-size="10.00">+</text>
<text text-anchor="start" x="111.5" y="-326.5" font-family="Monaco" font-size="10.00">getValue()</text>
<text text-anchor="start" x="88" y="-311.5" font-family="Monaco" font-size="10.00">+</text>
<text text-anchor="start" x="111.5" y="-311.5" font-family="Monaco" font-size="10.00">getValues()</text>
<text text-anchor="start" x="88" y="-296.5" font-family="Monaco" font-size="10.00">+</text>
<text text-anchor="start" x="111.5" y="-296.5" font-family="Monaco" font-size="10.00">setValue()</text>
<text text-anchor="start" x="88" y="-281.5" font-family="Monaco" font-size="10.00">+</text>
<text text-anchor="start" x="111.5" y="-281.5" font-family="Monaco" font-size="10.00">setValues()</text>
<text text-anchor="start" x="88" y="-266.5" font-family="Monaco" font-size="10.00">+</text>
<text text-anchor="start" x="111.5" y="-266.5" font-family="Monaco" font-size="10.00">hasEditor()</text>
<text text-anchor="start" x="88" y="-251.5" font-family="Monaco" font-size="10.00">+</text>
<text text-anchor="start" x="111.5" y="-251.5" font-family="Monaco" font-size="10.00">showEditor()</text>
<text text-anchor="start" x="88" y="-236.5" font-family="Monaco" font-size="10.00">+</text>
<text text-anchor="start" x="111.5" y="-236.5" font-family="Monaco" font-size="10.00">hasViewer()</text>
<text text-anchor="start" x="88" y="-221.5" font-family="Monaco" font-size="10.00">+</text>
<text text-anchor="start" x="111.5" y="-221.5" font-family="Monaco" font-size="10.00">showViewer()</text>
<polygon fill="#666666" stroke="#666666" points="73.5,-426.5 73.5,-426.5 258.5,-426.5 258.5,-426.5 73.5,-426.5"/>
<polygon fill="#666666" stroke="#666666" points="73.5,-411.5 73.5,-411.5 258.5,-411.5 258.5,-411.5 73.5,-411.5"/>
<polygon fill="none" stroke="#666666" points="73,-215 73,-444 258,-444 258,-215 73,-215"/>
</a>
</g>
</g>
<!-- Node3&#45;&gt;Node2 -->
<g id="edge2_Node000002_Node000003" class="edge">
<title>Node3&#45;&gt;Node2</title>
<g id="a_edge2_Node000002_Node000003"><a xlink:title=" ">
<path fill="none" stroke="#63b8ff" d="M165.5,-204.49C165.5,-195.07 165.5,-186.39 165.5,-179.03"/>
<polygon fill="none" stroke="#63b8ff" points="162,-204.55 165.5,-214.55 169,-204.55 162,-204.55"/>
</a>
</g>
</g>
<!-- Node4 -->
<g id="Node000004" class="node">
<title>Node4</title>
<g id="a_Node000004"><a xlink:href="../../d2/d2a/class_hydro_couple_1_1_i_identity.html" target="_top" xlink:title="IIdentity interface class defines a method to get the Id of an HydroCouple entity.">
<polygon fill="white" stroke="transparent" points="143.5,-577.5 23.5,-577.5 23.5,-513.5 143.5,-513.5 143.5,-577.5"/>
<text text-anchor="start" x="28.5" y="-565.5" font-family="Monaco" font-size="10.00">HydroCouple::IIdentity</text>
<text text-anchor="start" x="81.5" y="-550.5" font-family="Monaco" font-size="10.00"> </text>
<text text-anchor="start" x="38" y="-535.5" font-family="Monaco" font-size="10.00">+</text>
<text text-anchor="start" x="61.5" y="-535.5" font-family="Monaco" font-size="10.00">~IIdentity()</text>
<text text-anchor="start" x="38" y="-520.5" font-family="Monaco" font-size="10.00">+</text>
<text text-anchor="start" x="61.5" y="-520.5" font-family="Monaco" font-size="10.00">id()</text>
<polygon fill="#666666" stroke="#666666" points="23.5,-560.5 23.5,-560.5 143.5,-560.5 143.5,-560.5 23.5,-560.5"/>
<polygon fill="#666666" stroke="#666666" points="23.5,-545.5 23.5,-545.5 143.5,-545.5 143.5,-545.5 23.5,-545.5"/>
<polygon fill="none" stroke="#666666" points="23.5,-513.5 23.5,-577.5 143.5,-577.5 143.5,-513.5 23.5,-513.5"/>
</a>
</g>
</g>
<!-- Node4&#45;&gt;Node3 -->
<g id="edge3_Node000003_Node000004" class="edge">
<title>Node4&#45;&gt;Node3</title>
<g id="a_edge3_Node000003_Node000004"><a xlink:title=" ">
<path fill="none" stroke="#63b8ff" d="M99.13,-503.71C105.72,-486.5 113.76,-465.52 121.94,-444.19"/>
<polygon fill="none" stroke="#63b8ff" points="95.73,-502.79 95.42,-513.38 102.27,-505.3 95.73,-502.79"/>
</a>
</g>
</g>
<!-- Node5 -->
<g id="Node000005" class="node">
<title>Node5</title>
<g id="a_Node000005"><a xlink:href="../../db/d64/class_hydro_couple_1_1_i_description.html" target="_top" xlink:title="IDescription interface class provides descriptive information on a HydroCouple object.">
<polygon fill="white" stroke="transparent" points="152.5,-756 14.5,-756 14.5,-647 152.5,-647 152.5,-756"/>
<text text-anchor="start" x="19.5" y="-743.5" font-family="Monaco" font-size="10.00">HydroCouple::IDescription</text>
<text text-anchor="start" x="81.5" y="-728.5" font-family="Monaco" font-size="10.00"> </text>
<text text-anchor="start" x="28" y="-713.5" font-family="Monaco" font-size="10.00">+</text>
<text text-anchor="start" x="50.5" y="-713.5" font-family="Monaco" font-size="10.00">~IDescription()</text>
<text text-anchor="start" x="28" y="-698.5" font-family="Monaco" font-size="10.00">+</text>
<text text-anchor="start" x="50.5" y="-698.5" font-family="Monaco" font-size="10.00">caption()</text>
<text text-anchor="start" x="28" y="-683.5" font-family="Monaco" font-size="10.00">+</text>
<text text-anchor="start" x="50.5" y="-683.5" font-family="Monaco" font-size="10.00">setCaption()</text>
<text text-anchor="start" x="28" y="-668.5" font-family="Monaco" font-size="10.00">+</text>
<text text-anchor="start" x="50.5" y="-668.5" font-family="Monaco" font-size="10.00">description()</text>
<text text-anchor="start" x="28" y="-653.5" font-family="Monaco" font-size="10.00">+</text>
<text text-anchor="start" x="50.5" y="-653.5" font-family="Monaco" font-size="10.00">setDescription()</text>
<polygon fill="#666666" stroke="#666666" points="14.5,-738.5 14.5,-738.5 152.5,-738.5 152.5,-738.5 14.5,-738.5"/>
<polygon fill="#666666" stroke="#666666" points="14.5,-723.5 14.5,-723.5 152.5,-723.5 152.5,-723.5 14.5,-723.5"/>
<polygon fill="none" stroke="#666666" points="14.5,-647 14.5,-756 152.5,-756 152.5,-647 14.5,-647"/>
</a>
</g>
</g>
<!-- Node5&#45;&gt;Node4 -->
<g id="edge4_Node000004_Node000005" class="edge">
<title>Node5&#45;&gt;Node4</title>
<g id="a_edge4_Node000004_Node000005"><a xlink:title=" ">
<path fill="none" stroke="#63b8ff" d="M83.5,-636.47C83.5,-616.15 83.5,-594.58 83.5,-577.66"/>
<polygon fill="none" stroke="#63b8ff" points="80,-636.64 83.5,-646.64 87,-636.64 80,-636.64"/>
</a>
</g>
</g>
<!-- Node6 -->
<g id="Node000006" class="node">
<title>Node6</title>
<g id="a_Node000006"><a xlink:href="../../dd/dbf/class_hydro_couple_1_1_i_property_changed.html" target="_top" xlink:title="IPropertyChanged interface is used to emit signal/event when a property of an object changes.">
<polygon fill="white" stroke="transparent" points="167,-841 0,-841 0,-792 167,-792 167,-841"/>
<text text-anchor="start" x="5.5" y="-828.5" font-family="Monaco" font-size="10.00">HydroCouple::IPropertyChanged</text>
<text text-anchor="start" x="82" y="-813.5" font-family="Monaco" font-size="10.00"> </text>
<text text-anchor="start" x="15" y="-798.5" font-family="Monaco" font-size="10.00">+</text>
<text text-anchor="start" x="38.5" y="-798.5" font-family="Monaco" font-size="10.00">~IPropertyChanged()</text>
<polygon fill="#666666" stroke="#666666" points="0.5,-823.5 0.5,-823.5 167.5,-823.5 167.5,-823.5 0.5,-823.5"/>
<polygon fill="#666666" stroke="#666666" points="0.5,-808.5 0.5,-808.5 167.5,-808.5 167.5,-808.5 0.5,-808.5"/>
<polygon fill="none" stroke="#666666" points="0,-792 0,-841 167,-841 167,-792 0,-792"/>
</a>
</g>
</g>
<!-- Node6&#45;&gt;Node5 -->
<g id="edge5_Node000005_Node000006" class="edge">
<title>Node6&#45;&gt;Node5</title>
<g id="a_edge5_Node000005_Node000006"><a xlink:title=" ">
<path fill="none" stroke="#63b8ff" d="M83.5,-781.79C83.5,-773.79 83.5,-765.06 83.5,-756.41"/>
<polygon fill="none" stroke="#63b8ff" points="80,-781.81 83.5,-791.81 87,-781.81 80,-781.81"/>
</a>
</g>
</g>
<!-- Node7 -->
<g id="Node000007" class="node">
<title>Node7</title>
<g id="a_Node000007"><a xlink:href="../../d5/d8b/class_hydro_couple_1_1_i_signal.html" target="_top" xlink:title=" ">
<polygon fill="white" stroke="transparent" points="140,-997 27,-997 27,-877 140,-877 140,-997"/>
<text text-anchor="start" x="32.5" y="-985" font-family="Monaco" font-size="10.00">HydroCouple::ISignal</text>
<text text-anchor="start" x="58.5" y="-974" font-family="Monaco" font-size="10.00">&lt; string &gt;</text>
<text text-anchor="start" x="82" y="-959" font-family="Monaco" font-size="10.00"> </text>
<text text-anchor="start" x="37" y="-944" font-family="Monaco" font-size="10.00">+</text>
<text text-anchor="start" x="55.5" y="-944" font-family="Monaco" font-size="10.00">~ISignal()</text>
<text text-anchor="start" x="37" y="-929" font-family="Monaco" font-size="10.00">+</text>
<text text-anchor="start" x="55.5" y="-929" font-family="Monaco" font-size="10.00">connect()</text>
<text text-anchor="start" x="37" y="-914" font-family="Monaco" font-size="10.00">+</text>
<text text-anchor="start" x="55.5" y="-914" font-family="Monaco" font-size="10.00">disconnect()</text>
<text text-anchor="start" x="37" y="-899" font-family="Monaco" font-size="10.00">+</text>
<text text-anchor="start" x="55.5" y="-899" font-family="Monaco" font-size="10.00">blockSignals()</text>
<text text-anchor="start" x="37" y="-884" font-family="Monaco" font-size="10.00">#</text>
<text text-anchor="start" x="55.5" y="-884" font-family="Monaco" font-size="10.00">emit()</text>
<polygon fill="#666666" stroke="#666666" points="27.5,-969 27.5,-969 140.5,-969 140.5,-969 27.5,-969"/>
<polygon fill="#666666" stroke="#666666" points="27.5,-954 27.5,-954 140.5,-954 140.5,-954 27.5,-954"/>
<polygon fill="none" stroke="#666666" points="27,-877 27,-997 140,-997 140,-877 27,-877"/>
</a>
</g>
</g>
<!-- Node7&#45;&gt;Node6 -->
<g id="edge6_Node000006_Node000007" class="edge">
<title>Node7&#45;&gt;Node6</title>
<g id="a_edge6_Node000006_Node000007"><a xlink:title=" ">
<path fill="none" stroke="#63b8ff" d="M83.5,-866.74C83.5,-857.6 83.5,-848.78 83.5,-841.2"/>
<polygon fill="none" stroke="#63b8ff" points="80,-866.75 83.5,-876.75 87,-866.75 80,-866.75"/>
</a>
</g>
</g>
<!-- Node8 -->
<g id="Node000008" class="node">
<title>Node8</title>
<g id="a_Node000008"><a xlink:href="../../d5/d8b/class_hydro_couple_1_1_i_signal.html" target="_top" xlink:title=" ">
<polygon fill="white" stroke="transparent" points="335,-611 162,-611 162,-480 335,-480 335,-611"/>
<text text-anchor="start" x="167.5" y="-598.5" font-family="Monaco" font-size="10.00">HydroCouple::ISignal</text>
<text text-anchor="start" x="167.5" y="-587.5" font-family="Monaco" font-size="10.00">&lt; const shared_ptr&lt; IComponent</text>
<text text-anchor="start" x="174.5" y="-576.5" font-family="Monaco" font-size="10.00">DataItemValueChanged &gt; &amp; &gt;</text>
<text text-anchor="start" x="247" y="-561.5" font-family="Monaco" font-size="10.00"> </text>
<text text-anchor="start" x="187" y="-546.5" font-family="Monaco" font-size="10.00">+</text>
<text text-anchor="start" x="220.5" y="-546.5" font-family="Monaco" font-size="10.00">~ISignal()</text>
<text text-anchor="start" x="187" y="-531.5" font-family="Monaco" font-size="10.00">+</text>
<text text-anchor="start" x="220.5" y="-531.5" font-family="Monaco" font-size="10.00">connect()</text>
<text text-anchor="start" x="187" y="-516.5" font-family="Monaco" font-size="10.00">+</text>
<text text-anchor="start" x="220.5" y="-516.5" font-family="Monaco" font-size="10.00">disconnect()</text>
<text text-anchor="start" x="187" y="-501.5" font-family="Monaco" font-size="10.00">+</text>
<text text-anchor="start" x="220.5" y="-501.5" font-family="Monaco" font-size="10.00">blockSignals()</text>
<text text-anchor="start" x="187" y="-486.5" font-family="Monaco" font-size="10.00">#</text>
<text text-anchor="start" x="220.5" y="-486.5" font-family="Monaco" font-size="10.00">emit()</text>
<polygon fill="#666666" stroke="#666666" points="162.5,-571.5 162.5,-571.5 335.5,-571.5 335.5,-571.5 162.5,-571.5"/>
<polygon fill="#666666" stroke="#666666" points="162.5,-556.5 162.5,-556.5 335.5,-556.5 335.5,-556.5 162.5,-556.5"/>
<polygon fill="none" stroke="#666666" points="162,-480 162,-611 335,-611 335,-480 162,-480"/>
</a>
</g>
</g>
<!-- Node8&#45;&gt;Node3 -->
<g id="edge7_Node000003_Node000008" class="edge">
<title>Node8&#45;&gt;Node3</title>
<g id="a_edge7_Node000003_Node000008"><a xlink:title=" ">
<path fill="none" stroke="#63b8ff" d="M219.71,-470.27C216.42,-461.79 213.01,-452.99 209.58,-444.14"/>
<polygon fill="none" stroke="#63b8ff" points="216.49,-471.65 223.37,-479.71 223.02,-469.12 216.49,-471.65"/>
</a>
</g>
</g>
</g>
</svg>

<g id="navigator" transform="translate(0 0)" fill="#404254">
  <rect fill="#f2f5e9" fill-opacity="0.5" stroke="#606060" stroke-width=".5" x="0" y="0" width="60" height="60"/>
  <use id="zoomplus" xlink:href="#zoomPlus" x="17" y="9" onmousedown="handleZoom(evt,'in')"/>
  <use id="zoomminus" xlink:href="#zoomMin" x="42" y="9" onmousedown="handleZoom(evt,'out')"/>
  <use id="reset" xlink:href="#resetDef" x="30" y="36" onmousedown="handleReset()"/>
   <use id="arrowup" xlink:href="#arrowUp" x="0" y="0" onmousedown="handlePan(0,-1)"/>
  <use id="arrowright" xlink:href="#arrowRight" x="0" y="0" onmousedown="handlePan(1,0)"/>
  <use id="arrowdown" xlink:href="#arrowDown" x="0" y="0" onmousedown="handlePan(0,1)"/>
  <use id="arrowleft" xlink:href="#arrowLeft" x="0" y="0" onmousedown="handlePan(-1,0)"/>
</g>
<svg viewBox="0 0 15 15" width="100%" height="30px" preserveAspectRatio="xMaxYMin meet">
 <g id="arrow_out" transform="scale(0.3 0.3)">
  <a xlink:href="class_hydro_couple_1_1_i_input__coll__graph_org.svg" target="_base">
   <rect id="button" ry="5" rx="5" y="6" x="6" height="38" width="38"
        fill="#f2f5e9" fill-opacity="0.5" stroke="#606060" stroke-width="1.0"/>
   <path id="arrow"
     d="M 11.500037,31.436501 C 11.940474,20.09759 22.043105,11.32322 32.158766,21.979434 L 37.068811,17.246167 C 37.068811,17.246167 37.088388,32 37.088388,32 L 22.160133,31.978069 C 22.160133,31.978069 26.997745,27.140456 26.997745,27.140456 C 18.528582,18.264221 13.291696,25.230495 11.500037,31.436501 z"
     style="fill:#404040;"/>
  </a>
 </g>
</svg>

<style type='text/css'>
<![CDATA[
[data-mouse-over-selected='false'] { opacity: 0.7; }
[data-mouse-over-selected='true']  { opacity: 1.0; }
]]>
</style>
<script type="application/ecmascript"><![CDATA[
document.addEventListener('DOMContentLoaded', (event) => {
  highlightEdges();
  highlightAdjacentNodes();
});
]]></script>
</svg>
