<?xml version="1.0" encoding="UTF-8" standalone="no"?>
<!DOCTYPE svg PUBLIC "-//W3C//DTD SVG 1.1//EN"
 "http://www.w3.org/Graphics/SVG/1.1/DTD/svg11.dtd">
<!-- Generated by graphviz version 2.43.0 (0)
 -->
<!-- Title: HydroCouple::IAdaptedOutputFactoryComponentInfo Pages: 1 -->
<svg width="206pt" height="860pt"
 viewBox="0.00 0.00 206.00 860.00" xmlns="http://www.w3.org/2000/svg" xmlns:xlink="http://www.w3.org/1999/xlink">
<g id="graph0" class="graph" transform="scale(1 1) rotate(0) translate(4 856)">
<title>HydroCouple::IAdaptedOutputFactoryComponentInfo</title>
<!-- Node1 -->
<g id="Node000001" class="node">
<title>Node1</title>
<g id="a_Node000001"><a xlink:title="IAdaptedOutputFactoryComponentInfo interface class provides information about an IAdaptedOutputFactor...">
<polygon fill="#999999" stroke="transparent" points="198,-86 0,-86 0,0 198,0 198,-86"/>
<text text-anchor="start" x="26" y="-74" font-family="Monaco" font-size="10.00">HydroCouple::IAdaptedOutput</text>
<text text-anchor="start" x="43.5" y="-63" font-family="Monaco" font-size="10.00">FactoryComponentInfo</text>
<text text-anchor="start" x="97" y="-48" font-family="Monaco" font-size="10.00"> </text>
<text text-anchor="start" x="4" y="-33" font-family="Monaco" font-size="10.00">+</text>
<text text-anchor="start" x="17" y="-33" font-family="Monaco" font-size="10.00">~IAdaptedOutputFactoryComponent</text>
<text text-anchor="start" x="17" y="-22" font-family="Monaco" font-size="10.00">Info()</text>
<text text-anchor="start" x="4" y="-7" font-family="Monaco" font-size="10.00">+</text>
<text text-anchor="start" x="17" y="-7" font-family="Monaco" font-size="10.00">createComponentInstance()</text>
<polygon fill="#666666" stroke="#666666" points="0,-58 0,-58 198,-58 198,-58 0,-58"/>
<polygon fill="#666666" stroke="#666666" points="0,-43 0,-43 198,-43 198,-43 0,-43"/>
<polygon fill="none" stroke="#666666" points="0,0 0,-86 198,-86 198,0 0,0"/>
</a>
</g>
</g>
<!-- Node2 -->
<g id="Node000002" class="node">
<title>Node2</title>
<g id="a_Node000002"><a xlink:href="../../d3/dd7/class_hydro_couple_1_1_i_component_info.html" target="_top" xlink:title="IComponentInfo interface class is a factory that provides detailed metadata about a component and cre...">
<polygon fill="white" stroke="transparent" points="178,-366 20,-366 20,-122 178,-122 178,-366"/>
<text text-anchor="start" x="25" y="-354" font-family="Monaco" font-size="10.00">HydroCouple::IComponentInfo</text>
<text text-anchor="start" x="97" y="-339" font-family="Monaco" font-size="10.00"> </text>
<text text-anchor="start" x="34.5" y="-324" font-family="Monaco" font-size="10.00">+</text>
<text text-anchor="start" x="58" y="-324" font-family="Monaco" font-size="10.00">~IComponentInfo()</text>
<text text-anchor="start" x="34.5" y="-309" font-family="Monaco" font-size="10.00">+</text>
<text text-anchor="start" x="58" y="-309" font-family="Monaco" font-size="10.00">libraryFilePath()</text>
<text text-anchor="start" x="34.5" y="-294" font-family="Monaco" font-size="10.00">+</text>
<text text-anchor="start" x="58" y="-294" font-family="Monaco" font-size="10.00">setLibraryFilePath()</text>
<text text-anchor="start" x="34.5" y="-279" font-family="Monaco" font-size="10.00">+</text>
<text text-anchor="start" x="58" y="-279" font-family="Monaco" font-size="10.00">iconFilePath()</text>
<text text-anchor="start" x="34.5" y="-264" font-family="Monaco" font-size="10.00">+</text>
<text text-anchor="start" x="58" y="-264" font-family="Monaco" font-size="10.00">developer()</text>
<text text-anchor="start" x="34.5" y="-249" font-family="Monaco" font-size="10.00">+</text>
<text text-anchor="start" x="58" y="-249" font-family="Monaco" font-size="10.00">documentation()</text>
<text text-anchor="start" x="34.5" y="-234" font-family="Monaco" font-size="10.00">+</text>
<text text-anchor="start" x="58" y="-234" font-family="Monaco" font-size="10.00">license()</text>
<text text-anchor="start" x="34.5" y="-219" font-family="Monaco" font-size="10.00">+</text>
<text text-anchor="start" x="58" y="-219" font-family="Monaco" font-size="10.00">copyright()</text>
<text text-anchor="start" x="34.5" y="-204" font-family="Monaco" font-size="10.00">+</text>
<text text-anchor="start" x="58" y="-204" font-family="Monaco" font-size="10.00">url()</text>
<text text-anchor="start" x="34.5" y="-189" font-family="Monaco" font-size="10.00">+</text>
<text text-anchor="start" x="58" y="-189" font-family="Monaco" font-size="10.00">email()</text>
<text text-anchor="start" x="34.5" y="-174" font-family="Monaco" font-size="10.00">+</text>
<text text-anchor="start" x="58" y="-174" font-family="Monaco" font-size="10.00">version()</text>
<text text-anchor="start" x="34.5" y="-159" font-family="Monaco" font-size="10.00">+</text>
<text text-anchor="start" x="58" y="-159" font-family="Monaco" font-size="10.00">tags()</text>
<text text-anchor="start" x="34.5" y="-144" font-family="Monaco" font-size="10.00">+</text>
<text text-anchor="start" x="58" y="-144" font-family="Monaco" font-size="10.00">validateLicense()</text>
<text text-anchor="start" x="34.5" y="-129" font-family="Monaco" font-size="10.00">+</text>
<text text-anchor="start" x="58" y="-129" font-family="Monaco" font-size="10.00">validateLicense()</text>
<polygon fill="#666666" stroke="#666666" points="20,-349 20,-349 178,-349 178,-349 20,-349"/>
<polygon fill="#666666" stroke="#666666" points="20,-334 20,-334 178,-334 178,-334 20,-334"/>
<polygon fill="none" stroke="#666666" points="20,-122 20,-366 178,-366 178,-122 20,-122"/>
</a>
</g>
</g>
<!-- Node2&#45;&gt;Node1 -->
<g id="edge1_Node000001_Node000002" class="edge">
<title>Node2&#45;&gt;Node1</title>
<g id="a_edge1_Node000001_Node000002"><a xlink:title=" ">
<path fill="none" stroke="#63b8ff" d="M99,-111.54C99,-102.58 99,-94.01 99,-86.17"/>
<polygon fill="none" stroke="#63b8ff" points="95.5,-111.79 99,-121.79 102.5,-111.79 95.5,-111.79"/>
</a>
</g>
</g>
<!-- Node3 -->
<g id="Node000003" class="node">
<title>Node3</title>
<g id="a_Node000003"><a xlink:href="../../d2/d2a/class_hydro_couple_1_1_i_identity.html" target="_top" xlink:title="IIdentity interface class defines a method to get the Id of an HydroCouple entity.">
<polygon fill="white" stroke="transparent" points="159,-466 39,-466 39,-402 159,-402 159,-466"/>
<text text-anchor="start" x="44" y="-454" font-family="Monaco" font-size="10.00">HydroCouple::IIdentity</text>
<text text-anchor="start" x="97" y="-439" font-family="Monaco" font-size="10.00"> </text>
<text text-anchor="start" x="53.5" y="-424" font-family="Monaco" font-size="10.00">+</text>
<text text-anchor="start" x="77" y="-424" font-family="Monaco" font-size="10.00">~IIdentity()</text>
<text text-anchor="start" x="53.5" y="-409" font-family="Monaco" font-size="10.00">+</text>
<text text-anchor="start" x="77" y="-409" font-family="Monaco" font-size="10.00">id()</text>
<polygon fill="#666666" stroke="#666666" points="39,-449 39,-449 159,-449 159,-449 39,-449"/>
<polygon fill="#666666" stroke="#666666" points="39,-434 39,-434 159,-434 159,-434 39,-434"/>
<polygon fill="none" stroke="#666666" points="39,-402 39,-466 159,-466 159,-402 39,-402"/>
</a>
</g>
</g>
<!-- Node3&#45;&gt;Node2 -->
<g id="edge2_Node000002_Node000003" class="edge">
<title>Node3&#45;&gt;Node2</title>
<g id="a_edge2_Node000002_Node000003"><a xlink:title=" ">
<path fill="none" stroke="#63b8ff" d="M99,-391.92C99,-383.93 99,-375.19 99,-366.07"/>
<polygon fill="none" stroke="#63b8ff" points="95.5,-391.96 99,-401.96 102.5,-391.96 95.5,-391.96"/>
</a>
</g>
</g>
<!-- Node4 -->
<g id="Node000004" class="node">
<title>Node4</title>
<g id="a_Node000004"><a xlink:href="../../db/d64/class_hydro_couple_1_1_i_description.html" target="_top" xlink:title="IDescription interface class provides descriptive information on a HydroCouple object.">
<polygon fill="white" stroke="transparent" points="168,-611 30,-611 30,-502 168,-502 168,-611"/>
<text text-anchor="start" x="35" y="-598.5" font-family="Monaco" font-size="10.00">HydroCouple::IDescription</text>
<text text-anchor="start" x="97" y="-583.5" font-family="Monaco" font-size="10.00"> </text>
<text text-anchor="start" x="43.5" y="-568.5" font-family="Monaco" font-size="10.00">+</text>
<text text-anchor="start" x="66" y="-568.5" font-family="Monaco" font-size="10.00">~IDescription()</text>
<text text-anchor="start" x="43.5" y="-553.5" font-family="Monaco" font-size="10.00">+</text>
<text text-anchor="start" x="66" y="-553.5" font-family="Monaco" font-size="10.00">caption()</text>
<text text-anchor="start" x="43.5" y="-538.5" font-family="Monaco" font-size="10.00">+</text>
<text text-anchor="start" x="66" y="-538.5" font-family="Monaco" font-size="10.00">setCaption()</text>
<text text-anchor="start" x="43.5" y="-523.5" font-family="Monaco" font-size="10.00">+</text>
<text text-anchor="start" x="66" y="-523.5" font-family="Monaco" font-size="10.00">description()</text>
<text text-anchor="start" x="43.5" y="-508.5" font-family="Monaco" font-size="10.00">+</text>
<text text-anchor="start" x="66" y="-508.5" font-family="Monaco" font-size="10.00">setDescription()</text>
<polygon fill="#666666" stroke="#666666" points="30,-593.5 30,-593.5 168,-593.5 168,-593.5 30,-593.5"/>
<polygon fill="#666666" stroke="#666666" points="30,-578.5 30,-578.5 168,-578.5 168,-578.5 30,-578.5"/>
<polygon fill="none" stroke="#666666" points="30,-502 30,-611 168,-611 168,-502 30,-502"/>
</a>
</g>
</g>
<!-- Node4&#45;&gt;Node3 -->
<g id="edge3_Node000003_Node000004" class="edge">
<title>Node4&#45;&gt;Node3</title>
<g id="a_edge3_Node000003_Node000004"><a xlink:title=" ">
<path fill="none" stroke="#63b8ff" d="M99,-491.9C99,-483 99,-474.2 99,-466.28"/>
<polygon fill="none" stroke="#63b8ff" points="95.5,-491.95 99,-501.95 102.5,-491.95 95.5,-491.95"/>
</a>
</g>
</g>
<!-- Node5 -->
<g id="Node000005" class="node">
<title>Node5</title>
<g id="a_Node000005"><a xlink:href="../../dd/dbf/class_hydro_couple_1_1_i_property_changed.html" target="_top" xlink:title="IPropertyChanged interface is used to emit signal/event when a property of an object changes.">
<polygon fill="white" stroke="transparent" points="182.5,-696 15.5,-696 15.5,-647 182.5,-647 182.5,-696"/>
<text text-anchor="start" x="21" y="-683.5" font-family="Monaco" font-size="10.00">HydroCouple::IPropertyChanged</text>
<text text-anchor="start" x="97.5" y="-668.5" font-family="Monaco" font-size="10.00"> </text>
<text text-anchor="start" x="30.5" y="-653.5" font-family="Monaco" font-size="10.00">+</text>
<text text-anchor="start" x="54" y="-653.5" font-family="Monaco" font-size="10.00">~IPropertyChanged()</text>
<polygon fill="#666666" stroke="#666666" points="16,-678.5 16,-678.5 183,-678.5 183,-678.5 16,-678.5"/>
<polygon fill="#666666" stroke="#666666" points="16,-663.5 16,-663.5 183,-663.5 183,-663.5 16,-663.5"/>
<polygon fill="none" stroke="#666666" points="15.5,-647 15.5,-696 182.5,-696 182.5,-647 15.5,-647"/>
</a>
</g>
</g>
<!-- Node5&#45;&gt;Node4 -->
<g id="edge4_Node000004_Node000005" class="edge">
<title>Node5&#45;&gt;Node4</title>
<g id="a_edge4_Node000004_Node000005"><a xlink:title=" ">
<path fill="none" stroke="#63b8ff" d="M99,-636.79C99,-628.79 99,-620.06 99,-611.41"/>
<polygon fill="none" stroke="#63b8ff" points="95.5,-636.81 99,-646.81 102.5,-636.81 95.5,-636.81"/>
</a>
</g>
</g>
<!-- Node6 -->
<g id="Node000006" class="node">
<title>Node6</title>
<g id="a_Node000006"><a xlink:href="../../d5/d8b/class_hydro_couple_1_1_i_signal.html" target="_top" xlink:title=" ">
<polygon fill="white" stroke="transparent" points="155.5,-852 42.5,-852 42.5,-732 155.5,-732 155.5,-852"/>
<text text-anchor="start" x="48" y="-840" font-family="Monaco" font-size="10.00">HydroCouple::ISignal</text>
<text text-anchor="start" x="74" y="-829" font-family="Monaco" font-size="10.00">&lt; string &gt;</text>
<text text-anchor="start" x="97.5" y="-814" font-family="Monaco" font-size="10.00"> </text>
<text text-anchor="start" x="52.5" y="-799" font-family="Monaco" font-size="10.00">+</text>
<text text-anchor="start" x="71" y="-799" font-family="Monaco" font-size="10.00">~ISignal()</text>
<text text-anchor="start" x="52.5" y="-784" font-family="Monaco" font-size="10.00">+</text>
<text text-anchor="start" x="71" y="-784" font-family="Monaco" font-size="10.00">connect()</text>
<text text-anchor="start" x="52.5" y="-769" font-family="Monaco" font-size="10.00">+</text>
<text text-anchor="start" x="71" y="-769" font-family="Monaco" font-size="10.00">disconnect()</text>
<text text-anchor="start" x="52.5" y="-754" font-family="Monaco" font-size="10.00">+</text>
<text text-anchor="start" x="71" y="-754" font-family="Monaco" font-size="10.00">blockSignals()</text>
<text text-anchor="start" x="52.5" y="-739" font-family="Monaco" font-size="10.00">#</text>
<text text-anchor="start" x="71" y="-739" font-family="Monaco" font-size="10.00">emit()</text>
<polygon fill="#666666" stroke="#666666" points="43,-824 43,-824 156,-824 156,-824 43,-824"/>
<polygon fill="#666666" stroke="#666666" points="43,-809 43,-809 156,-809 156,-809 43,-809"/>
<polygon fill="none" stroke="#666666" points="42.5,-732 42.5,-852 155.5,-852 155.5,-732 42.5,-732"/>
</a>
</g>
</g>
<!-- Node6&#45;&gt;Node5 -->
<g id="edge5_Node000005_Node000006" class="edge">
<title>Node6&#45;&gt;Node5</title>
<g id="a_edge5_Node000005_Node000006"><a xlink:title=" ">
<path fill="none" stroke="#63b8ff" d="M99,-721.74C99,-712.6 99,-703.78 99,-696.2"/>
<polygon fill="none" stroke="#63b8ff" points="95.5,-721.75 99,-731.75 102.5,-721.75 95.5,-721.75"/>
</a>
</g>
</g>
</g>
</svg>
