<?xml version="1.0" encoding="UTF-8" standalone="no"?>
<!DOCTYPE svg PUBLIC "-//W3C//DTD SVG 1.1//EN"
 "http://www.w3.org/Graphics/SVG/1.1/DTD/svg11.dtd">
<!-- Generated by graphviz version 2.43.0 (0)
 -->
<!-- Title: HydroCouple::Spatial::IGeometryCollection Pages: 1 -->
<svg width="402pt" height="1008pt"
 viewBox="0.00 0.00 401.50 1008.00" xmlns="http://www.w3.org/2000/svg" xmlns:xlink="http://www.w3.org/1999/xlink">
<g id="graph0" class="graph" transform="scale(1 1) rotate(0) translate(4 1004)">
<title>HydroCouple::Spatial::IGeometryCollection</title>
<!-- Node1 -->
<g id="node1" class="node">
<title>Node1</title>
<g id="a_node1"><a xlink:title="An IGeometryCollection is a geometric object that is a collection of some number of IGeometry objects...">
<polygon fill="#bfbfbf" stroke="black" points="125,-254.5 125,-344.5 269,-344.5 269,-254.5 125,-254.5"/>
<text text-anchor="start" x="133" y="-332.5" font-family="Monaco" font-size="10.00">HydroCouple::Spatial</text>
<text text-anchor="middle" x="197" y="-321.5" font-family="Monaco" font-size="10.00">::IGeometryCollection</text>
<polyline fill="none" stroke="black" points="125,-314.5 269,-314.5 "/>
<text text-anchor="middle" x="197" y="-302.5" font-family="Monaco" font-size="10.00"> </text>
<polyline fill="none" stroke="black" points="125,-295.5 269,-295.5 "/>
<text text-anchor="start" x="133" y="-283.5" font-family="Monaco" font-size="10.00">+ ~IGeometryCollection()</text>
<text text-anchor="start" x="133" y="-272.5" font-family="Monaco" font-size="10.00">+ geometryCount()</text>
<text text-anchor="start" x="133" y="-261.5" font-family="Monaco" font-size="10.00">+ geometry()</text>
</a>
</g>
</g>
<!-- Node3 -->
<g id="node3" class="node">
<title>Node3</title>
<g id="a_node3"><a xlink:href="../../dc/dcf/class_hydro_couple_1_1_spatial_1_1_i_multi_curve.html" target="_top" xlink:title="An IMultiCurve is a 1&#45;dimensional IGeometryCollection whose elements are ICurves.">
<polygon fill="none" stroke="black" points="0.5,-122 0.5,-212 119.5,-212 119.5,-122 0.5,-122"/>
<text text-anchor="start" x="8.5" y="-200" font-family="Monaco" font-size="10.00">HydroCouple::Spatial</text>
<text text-anchor="middle" x="60" y="-189" font-family="Monaco" font-size="10.00">::IMultiCurve</text>
<polyline fill="none" stroke="black" points="0.5,-182 119.5,-182 "/>
<text text-anchor="middle" x="60" y="-170" font-family="Monaco" font-size="10.00"> </text>
<polyline fill="none" stroke="black" points="0.5,-163 119.5,-163 "/>
<text text-anchor="start" x="8.5" y="-151" font-family="Monaco" font-size="10.00">+ ~IMultiCurve()</text>
<text text-anchor="start" x="8.5" y="-140" font-family="Monaco" font-size="10.00">+ isClosed()</text>
<text text-anchor="start" x="8.5" y="-129" font-family="Monaco" font-size="10.00">+ length()</text>
</a>
</g>
</g>
<!-- Node1&#45;&gt;Node3 -->
<g id="edge2" class="edge">
<title>Node1&#45;&gt;Node3</title>
<path fill="none" stroke="midnightblue" d="M143.14,-247.2C130.97,-235.61 118.16,-223.4 106.33,-212.14"/>
<polygon fill="none" stroke="midnightblue" points="140.96,-249.96 150.62,-254.32 145.79,-244.89 140.96,-249.96"/>
</g>
<!-- Node5 -->
<g id="node5" class="node">
<title>Node5</title>
<g id="a_node5"><a xlink:href="../../d3/d56/class_hydro_couple_1_1_spatial_1_1_i_multi_point.html" target="_top" xlink:title="An IMultiPoint is a 0&#45;dimensional IGeometryCollection.">
<polygon fill="none" stroke="black" points="137.5,-127.5 137.5,-206.5 256.5,-206.5 256.5,-127.5 137.5,-127.5"/>
<text text-anchor="start" x="145.5" y="-194.5" font-family="Monaco" font-size="10.00">HydroCouple::Spatial</text>
<text text-anchor="middle" x="197" y="-183.5" font-family="Monaco" font-size="10.00">::IMultiPoint</text>
<polyline fill="none" stroke="black" points="137.5,-176.5 256.5,-176.5 "/>
<text text-anchor="middle" x="197" y="-164.5" font-family="Monaco" font-size="10.00"> </text>
<polyline fill="none" stroke="black" points="137.5,-157.5 256.5,-157.5 "/>
<text text-anchor="start" x="145.5" y="-145.5" font-family="Monaco" font-size="10.00">+ ~IMultiPoint()</text>
<text text-anchor="start" x="145.5" y="-134.5" font-family="Monaco" font-size="10.00">+ point()</text>
</a>
</g>
</g>
<!-- Node1&#45;&gt;Node5 -->
<g id="edge4" class="edge">
<title>Node1&#45;&gt;Node5</title>
<path fill="none" stroke="midnightblue" d="M197,-244.02C197,-231.55 197,-218.55 197,-206.89"/>
<polygon fill="none" stroke="midnightblue" points="193.5,-244.32 197,-254.32 200.5,-244.32 193.5,-244.32"/>
</g>
<!-- Node6 -->
<g id="node6" class="node">
<title>Node6</title>
<g id="a_node6"><a xlink:href="../../d9/d96/class_hydro_couple_1_1_spatial_1_1_i_multi_surface.html" target="_top" xlink:title="A MultiSurface is a 2&#45;dimensional GeometryCollection whose elements are Surfaces, all using coordinat...">
<polygon fill="none" stroke="black" points="274.5,-116.5 274.5,-217.5 393.5,-217.5 393.5,-116.5 274.5,-116.5"/>
<text text-anchor="start" x="282.5" y="-205.5" font-family="Monaco" font-size="10.00">HydroCouple::Spatial</text>
<text text-anchor="middle" x="334" y="-194.5" font-family="Monaco" font-size="10.00">::IMultiSurface</text>
<polyline fill="none" stroke="black" points="274.5,-187.5 393.5,-187.5 "/>
<text text-anchor="middle" x="334" y="-175.5" font-family="Monaco" font-size="10.00"> </text>
<polyline fill="none" stroke="black" points="274.5,-168.5 393.5,-168.5 "/>
<text text-anchor="start" x="282.5" y="-156.5" font-family="Monaco" font-size="10.00">+ ~IMultiSurface()</text>
<text text-anchor="start" x="282.5" y="-145.5" font-family="Monaco" font-size="10.00">+ area()</text>
<text text-anchor="start" x="282.5" y="-134.5" font-family="Monaco" font-size="10.00">+ centroid()</text>
<text text-anchor="start" x="282.5" y="-123.5" font-family="Monaco" font-size="10.00">+ pointOnSurface()</text>
</a>
</g>
</g>
<!-- Node1&#45;&gt;Node6 -->
<g id="edge5" class="edge">
<title>Node1&#45;&gt;Node6</title>
<path fill="none" stroke="midnightblue" d="M250.77,-247.28C261.05,-237.49 271.79,-227.26 282.01,-217.52"/>
<polygon fill="none" stroke="midnightblue" points="248.21,-244.89 243.38,-254.32 253.04,-249.96 248.21,-244.89"/>
</g>
<!-- Node2 -->
<g id="node2" class="node">
<title>Node2</title>
<g id="a_node2"><a xlink:href="../../d3/d92/class_hydro_couple_1_1_spatial_1_1_i_geometry.html" target="_top" xlink:title="IGeometry is the root class of the geometry hierarchy.">
<polygon fill="none" stroke="black" points="119.5,-381.5 119.5,-999.5 274.5,-999.5 274.5,-381.5 119.5,-381.5"/>
<text text-anchor="start" x="127.5" y="-987.5" font-family="Monaco" font-size="10.00">HydroCouple::Spatial</text>
<text text-anchor="middle" x="197" y="-976.5" font-family="Monaco" font-size="10.00">::IGeometry</text>
<polyline fill="none" stroke="black" points="119.5,-969.5 274.5,-969.5 "/>
<text text-anchor="middle" x="197" y="-957.5" font-family="Monaco" font-size="10.00"> </text>
<polyline fill="none" stroke="black" points="119.5,-950.5 274.5,-950.5 "/>
<text text-anchor="start" x="127.5" y="-938.5" font-family="Monaco" font-size="10.00">+ ~IGeometry()</text>
<text text-anchor="start" x="127.5" y="-927.5" font-family="Monaco" font-size="10.00">+ id()</text>
<text text-anchor="start" x="127.5" y="-916.5" font-family="Monaco" font-size="10.00">+ index()</text>
<text text-anchor="start" x="127.5" y="-905.5" font-family="Monaco" font-size="10.00">+ dimension()</text>
<text text-anchor="start" x="127.5" y="-894.5" font-family="Monaco" font-size="10.00">+ coordinateDimension()</text>
<text text-anchor="start" x="127.5" y="-883.5" font-family="Monaco" font-size="10.00">+ geometryType()</text>
<text text-anchor="start" x="127.5" y="-872.5" font-family="Monaco" font-size="10.00">+ spatialReferenceSystem()</text>
<text text-anchor="start" x="127.5" y="-861.5" font-family="Monaco" font-size="10.00">+ envelope()</text>
<text text-anchor="start" x="127.5" y="-850.5" font-family="Monaco" font-size="10.00">+ getWKT()</text>
<text text-anchor="start" x="127.5" y="-839.5" font-family="Monaco" font-size="10.00">+ getWKB()</text>
<text text-anchor="start" x="127.5" y="-828.5" font-family="Monaco" font-size="10.00">+ isEmpty()</text>
<text text-anchor="start" x="127.5" y="-817.5" font-family="Monaco" font-size="10.00">+ isSimple()</text>
<text text-anchor="start" x="127.5" y="-806.5" font-family="Monaco" font-size="10.00">+ is3D()</text>
<text text-anchor="start" x="127.5" y="-795.5" font-family="Monaco" font-size="10.00">+ isMeasured()</text>
<text text-anchor="start" x="127.5" y="-784.5" font-family="Monaco" font-size="10.00">+ boundary()</text>
<text text-anchor="start" x="127.5" y="-773.5" font-family="Monaco" font-size="10.00">+ equals()</text>
<text text-anchor="start" x="127.5" y="-762.5" font-family="Monaco" font-size="10.00">+ disjoint()</text>
<text text-anchor="start" x="127.5" y="-751.5" font-family="Monaco" font-size="10.00">+ intersects()</text>
<text text-anchor="start" x="127.5" y="-740.5" font-family="Monaco" font-size="10.00">+ touches()</text>
<text text-anchor="start" x="127.5" y="-729.5" font-family="Monaco" font-size="10.00">+ crosses()</text>
<text text-anchor="start" x="127.5" y="-718.5" font-family="Monaco" font-size="10.00">+ within()</text>
<text text-anchor="start" x="127.5" y="-707.5" font-family="Monaco" font-size="10.00">+ contains()</text>
<text text-anchor="start" x="127.5" y="-696.5" font-family="Monaco" font-size="10.00">+ overlaps()</text>
<text text-anchor="start" x="127.5" y="-685.5" font-family="Monaco" font-size="10.00">+ relate()</text>
<text text-anchor="start" x="127.5" y="-674.5" font-family="Monaco" font-size="10.00">+ locateAlong()</text>
<text text-anchor="start" x="127.5" y="-663.5" font-family="Monaco" font-size="10.00">+ locateBetween()</text>
<text text-anchor="start" x="127.5" y="-652.5" font-family="Monaco" font-size="10.00">+ distance()</text>
<text text-anchor="start" x="127.5" y="-641.5" font-family="Monaco" font-size="10.00">+ buffer()</text>
<text text-anchor="start" x="127.5" y="-630.5" font-family="Monaco" font-size="10.00">+ convexHull()</text>
<text text-anchor="start" x="127.5" y="-619.5" font-family="Monaco" font-size="10.00">+ intersection()</text>
<text text-anchor="start" x="127.5" y="-608.5" font-family="Monaco" font-size="10.00">+ unionG()</text>
<text text-anchor="start" x="127.5" y="-597.5" font-family="Monaco" font-size="10.00">+ difference()</text>
<text text-anchor="start" x="127.5" y="-586.5" font-family="Monaco" font-size="10.00">+ symmetricDifference()</text>
<text text-anchor="start" x="127.5" y="-575.5" font-family="Monaco" font-size="10.00">* equals()</text>
<text text-anchor="start" x="127.5" y="-564.5" font-family="Monaco" font-size="10.00">* disjoint()</text>
<text text-anchor="start" x="127.5" y="-553.5" font-family="Monaco" font-size="10.00">* intersects()</text>
<text text-anchor="start" x="127.5" y="-542.5" font-family="Monaco" font-size="10.00">* touches()</text>
<text text-anchor="start" x="127.5" y="-531.5" font-family="Monaco" font-size="10.00">* crosses()</text>
<text text-anchor="start" x="127.5" y="-520.5" font-family="Monaco" font-size="10.00">* within()</text>
<text text-anchor="start" x="127.5" y="-509.5" font-family="Monaco" font-size="10.00">* contains()</text>
<text text-anchor="start" x="127.5" y="-498.5" font-family="Monaco" font-size="10.00">* overlaps()</text>
<text text-anchor="start" x="127.5" y="-487.5" font-family="Monaco" font-size="10.00">* relate()</text>
<text text-anchor="start" x="127.5" y="-476.5" font-family="Monaco" font-size="10.00">* locateAlong()</text>
<text text-anchor="start" x="127.5" y="-465.5" font-family="Monaco" font-size="10.00">* locateBetween()</text>
<text text-anchor="start" x="127.5" y="-454.5" font-family="Monaco" font-size="10.00">* distance()</text>
<text text-anchor="start" x="127.5" y="-443.5" font-family="Monaco" font-size="10.00">* buffer()</text>
<text text-anchor="start" x="127.5" y="-432.5" font-family="Monaco" font-size="10.00">* convexHull()</text>
<text text-anchor="start" x="127.5" y="-421.5" font-family="Monaco" font-size="10.00">* intersection()</text>
<text text-anchor="start" x="127.5" y="-410.5" font-family="Monaco" font-size="10.00">* unionG()</text>
<text text-anchor="start" x="127.5" y="-399.5" font-family="Monaco" font-size="10.00">* difference()</text>
<text text-anchor="start" x="127.5" y="-388.5" font-family="Monaco" font-size="10.00">* symmetricDifference()</text>
</a>
</g>
</g>
<!-- Node2&#45;&gt;Node1 -->
<g id="edge1" class="edge">
<title>Node2&#45;&gt;Node1</title>
<path fill="none" stroke="midnightblue" d="M197,-370.92C197,-361.38 197,-352.52 197,-344.54"/>
<polygon fill="none" stroke="midnightblue" points="193.5,-371.1 197,-381.1 200.5,-371.1 193.5,-371.1"/>
</g>
<!-- Node4 -->
<g id="node4" class="node">
<title>Node4</title>
<g id="a_node4"><a xlink:href="../../d3/d70/class_hydro_couple_1_1_spatial_1_1_i_multi_line_string.html" target="_top" xlink:title="An IMultiLineString is an IMultiCurve whose elements are ILineStrings.">
<polygon fill="none" stroke="black" points="0,-0.5 0,-79.5 120,-79.5 120,-0.5 0,-0.5"/>
<text text-anchor="start" x="8" y="-67.5" font-family="Monaco" font-size="10.00">HydroCouple::Spatial</text>
<text text-anchor="middle" x="60" y="-56.5" font-family="Monaco" font-size="10.00">::IMultiLineString</text>
<polyline fill="none" stroke="black" points="0,-49.5 120,-49.5 "/>
<text text-anchor="middle" x="60" y="-37.5" font-family="Monaco" font-size="10.00"> </text>
<polyline fill="none" stroke="black" points="0,-30.5 120,-30.5 "/>
<text text-anchor="start" x="8" y="-18.5" font-family="Monaco" font-size="10.00">+ ~IMultiLineString()</text>
<text text-anchor="start" x="8" y="-7.5" font-family="Monaco" font-size="10.00">+ lineString()</text>
</a>
</g>
</g>
<!-- Node3&#45;&gt;Node4 -->
<g id="edge3" class="edge">
<title>Node3&#45;&gt;Node4</title>
<path fill="none" stroke="midnightblue" d="M60,-111.73C60,-100.94 60,-89.82 60,-79.69"/>
<polygon fill="none" stroke="midnightblue" points="56.5,-111.93 60,-121.93 63.5,-111.93 56.5,-111.93"/>
</g>
<!-- Node7 -->
<g id="node7" class="node">
<title>Node7</title>
<g id="a_node7"><a xlink:href="../../d8/d52/class_hydro_couple_1_1_spatial_1_1_i_multi_polygon.html" target="_top" xlink:title="An IMultiPolygon is an IMultiSurface whose elements are IPolygons.">
<polygon fill="none" stroke="black" points="274.5,-0.5 274.5,-79.5 393.5,-79.5 393.5,-0.5 274.5,-0.5"/>
<text text-anchor="start" x="282.5" y="-67.5" font-family="Monaco" font-size="10.00">HydroCouple::Spatial</text>
<text text-anchor="middle" x="334" y="-56.5" font-family="Monaco" font-size="10.00">::IMultiPolygon</text>
<polyline fill="none" stroke="black" points="274.5,-49.5 393.5,-49.5 "/>
<text text-anchor="middle" x="334" y="-37.5" font-family="Monaco" font-size="10.00"> </text>
<polyline fill="none" stroke="black" points="274.5,-30.5 393.5,-30.5 "/>
<text text-anchor="start" x="282.5" y="-18.5" font-family="Monaco" font-size="10.00">+ ~IMultiPolygon()</text>
<text text-anchor="start" x="282.5" y="-7.5" font-family="Monaco" font-size="10.00">+ polygon()</text>
</a>
</g>
</g>
<!-- Node6&#45;&gt;Node7 -->
<g id="edge6" class="edge">
<title>Node6&#45;&gt;Node7</title>
<path fill="none" stroke="midnightblue" d="M334,-106.19C334,-97.22 334,-88.18 334,-79.81"/>
<polygon fill="none" stroke="midnightblue" points="330.5,-106.24 334,-116.24 337.5,-106.24 330.5,-106.24"/>
</g>
</g>
</svg>
