<?xml version="1.0" encoding="UTF-8" standalone="no"?>
<!DOCTYPE svg PUBLIC "-//W3C//DTD SVG 1.1//EN"
 "http://www.w3.org/Graphics/SVG/1.1/DTD/svg11.dtd">
<!-- Generated by graphviz version 2.43.0 (0)
 -->
<!-- Title: HydroCouple::Temporal::ITimeSeriesComponentDataItem Pages: 1 -->
<!--zoomable 1437 -->

<svg id="main" version="1.1" xmlns="http://www.w3.org/2000/svg" xmlns:xlink="http://www.w3.org/1999/xlink" xml:space="preserve" onload="init(evt)">
<style type="text/css"><![CDATA[
.node, .edge {opacity: 0.7;}
.node.selected, .edge.selected {opacity: 1;}
.edge:hover path { stroke: red; }
.edge:hover polygon { stroke: red; fill: red; }
]]></style>

<defs>
  <circle id="rim" cx="0" cy="0" r="7"/>
  <circle id="rim2" cx="0" cy="0" r="3.5"/>
  <g id="zoomPlus">
    <use xlink:href="#rim" fill="#404040"><set attributeName="fill" to="#808080" begin="zoomplus.mouseover" end="zoomplus.mouseout"/></use>
    <path d="M-4,0h8M0,-4v8" fill="none" stroke="white" stroke-width="1.5" pointer-events="none"/>
  </g>
  <g id="zoomMin">
    <use xlink:href="#rim" fill="#404040"><set attributeName="fill" to="#808080" begin="zoomminus.mouseover" end="zoomminus.mouseout"/></use>
    <path d="M-4,0h8" fill="none" stroke="white" stroke-width="1.5" pointer-events="none"/>
  </g>
  <g id="arrowUp" transform="translate(30 24)">
    <use xlink:href="#rim"/>
    <path pointer-events="none" fill="none" stroke="white" stroke-width="1.5" d="M0,-3.0v7 M-2.5,-0.5L0,-3.0L2.5,-0.5"/>
  </g>
  <g id="arrowRight" transform="rotate(90) translate(36 -43)">
    <use xlink:href="#rim"/>
    <path pointer-events="none" fill="none" stroke="white" stroke-width="1.5" d="M0,-3.0v7 M-2.5,-0.5L0,-3.0L2.5,-0.5"/>
  </g>
  <g id="arrowDown" transform="rotate(180) translate(-30 -48)">
    <use xlink:href="#rim"/>
    <path pointer-events="none" fill="none" stroke="white" stroke-width="1.5" d="M0,-3.0v7 M-2.5,-0.5L0,-3.0L2.5,-0.5"/>
  </g>
  <g id="arrowLeft" transform="rotate(270) translate(-36 17)">
    <use xlink:href="#rim"/>
    <path pointer-events="none" fill="none" stroke="white" stroke-width="1.5" d="M0,-3.0v7 M-2.5,-0.5L0,-3.0L2.5,-0.5"/>
  </g>
  <g id="resetDef">
    <use xlink:href="#rim2" fill="#404040"><set attributeName="fill" to="#808080" begin="reset.mouseover" end="reset.mouseout"/></use>
  </g>
</defs>
<script type="application/ecmascript">
var viewWidth = 1549;
var viewHeight = 1437;
var sectionId = 'dynsection-0';
</script>
<script type="application/ecmascript" xlink:href="../../svg.min.js"/>
<svg id="graph" class="graph">
<g id="viewport">
<title>HydroCouple::Temporal::ITimeSeriesComponentDataItem</title>
<!-- Node1 -->
<g id="Node000001" class="node">
<title>Node1</title>
<g id="a_Node000001"><a xlink:title="ITimeComponentItem is an IComponentItem with a temporal attribute. This class cannot be directly inst...">
<polygon fill="#999999" stroke="transparent" points="852.5,-611 676.5,-611 676.5,-379 852.5,-379 852.5,-611"/>
<text text-anchor="start" x="681.5" y="-599" font-family="Monaco" font-size="10.00">HydroCouple::Temporal</text>
<text text-anchor="start" x="681.5" y="-588" font-family="Monaco" font-size="10.00">::ITimeSeriesComponentDataItem</text>
<text text-anchor="start" x="762.5" y="-573" font-family="Monaco" font-size="10.00"> </text>
<text text-anchor="start" x="682.5" y="-558" font-family="Monaco" font-size="10.00">+</text>
<text text-anchor="start" x="697.5" y="-558" font-family="Monaco" font-size="10.00">~ITimeSeriesComponentData</text>
<text text-anchor="start" x="697.5" y="-547" font-family="Monaco" font-size="10.00">Item()</text>
<text text-anchor="start" x="682.5" y="-532" font-family="Monaco" font-size="10.00">+</text>
<text text-anchor="start" x="697.5" y="-532" font-family="Monaco" font-size="10.00">time()</text>
<text text-anchor="start" x="682.5" y="-517" font-family="Monaco" font-size="10.00">+</text>
<text text-anchor="start" x="697.5" y="-517" font-family="Monaco" font-size="10.00">timeCount()</text>
<text text-anchor="start" x="682.5" y="-502" font-family="Monaco" font-size="10.00">+</text>
<text text-anchor="start" x="697.5" y="-502" font-family="Monaco" font-size="10.00">timeSpan()</text>
<text text-anchor="start" x="682.5" y="-487" font-family="Monaco" font-size="10.00">+</text>
<text text-anchor="start" x="697.5" y="-487" font-family="Monaco" font-size="10.00">timeDimension()</text>
<text text-anchor="start" x="682.5" y="-472" font-family="Monaco" font-size="10.00">+</text>
<text text-anchor="start" x="697.5" y="-472" font-family="Monaco" font-size="10.00">getValue()</text>
<text text-anchor="start" x="682.5" y="-457" font-family="Monaco" font-size="10.00">+</text>
<text text-anchor="start" x="697.5" y="-457" font-family="Monaco" font-size="10.00">getValues()</text>
<text text-anchor="start" x="682.5" y="-442" font-family="Monaco" font-size="10.00">+</text>
<text text-anchor="start" x="697.5" y="-442" font-family="Monaco" font-size="10.00">setValue()</text>
<text text-anchor="start" x="682.5" y="-427" font-family="Monaco" font-size="10.00">+</text>
<text text-anchor="start" x="697.5" y="-427" font-family="Monaco" font-size="10.00">setValues()</text>
<text text-anchor="start" x="682.5" y="-412" font-family="Monaco" font-size="10.00">+</text>
<text text-anchor="start" x="697.5" y="-412" font-family="Monaco" font-size="10.00">~ITimeSeriesComponentData</text>
<text text-anchor="start" x="697.5" y="-401" font-family="Monaco" font-size="10.00">Item()</text>
<text text-anchor="start" x="697.5" y="-386" font-family="Monaco" font-size="10.00">and 12 more...</text>
<polygon fill="#666666" stroke="#666666" points="676.5,-583 676.5,-583 852.5,-583 852.5,-583 676.5,-583"/>
<polygon fill="#666666" stroke="#666666" points="676.5,-568 676.5,-568 852.5,-568 852.5,-568 676.5,-568"/>
<polygon fill="none" stroke="#666666" points="676.5,-379 676.5,-611 852.5,-611 852.5,-379 676.5,-379"/>
</a>
</g>
</g>
<!-- Node8 -->
<g id="Node000008" class="node">
<title>Node8</title>
<g id="a_Node000008"><a xlink:href="../../db/dac/class_hydro_couple_1_1_spatio_temporal_1_1_i_time_geometry_component_data_item.html" target="_top" xlink:title="ITimeGeometryComponentItem represents an IComponentItem with both temporal and geometric components.">
<polygon fill="white" stroke="transparent" points="195,-298 0,-298 0,-167 195,-167 195,-298"/>
<text text-anchor="start" x="5.5" y="-285.5" font-family="Monaco" font-size="10.00">HydroCouple::SpatioTemporal</text>
<text text-anchor="start" x="5.5" y="-274.5" font-family="Monaco" font-size="10.00">::ITimeGeometryComponentDataItem</text>
<text text-anchor="start" x="96" y="-259.5" font-family="Monaco" font-size="10.00"> </text>
<text text-anchor="start" x="6.5" y="-244.5" font-family="Monaco" font-size="10.00">+</text>
<text text-anchor="start" x="21.5" y="-244.5" font-family="Monaco" font-size="10.00">~ITimeGeometryComponentData</text>
<text text-anchor="start" x="21.5" y="-233.5" font-family="Monaco" font-size="10.00">Item()</text>
<text text-anchor="start" x="6.5" y="-218.5" font-family="Monaco" font-size="10.00">+</text>
<text text-anchor="start" x="21.5" y="-218.5" font-family="Monaco" font-size="10.00">getValue()</text>
<text text-anchor="start" x="6.5" y="-203.5" font-family="Monaco" font-size="10.00">+</text>
<text text-anchor="start" x="21.5" y="-203.5" font-family="Monaco" font-size="10.00">getValues()</text>
<text text-anchor="start" x="6.5" y="-188.5" font-family="Monaco" font-size="10.00">+</text>
<text text-anchor="start" x="21.5" y="-188.5" font-family="Monaco" font-size="10.00">setValue()</text>
<text text-anchor="start" x="6.5" y="-173.5" font-family="Monaco" font-size="10.00">+</text>
<text text-anchor="start" x="21.5" y="-173.5" font-family="Monaco" font-size="10.00">setValues()</text>
<polygon fill="#666666" stroke="#666666" points="0.5,-269.5 0.5,-269.5 195.5,-269.5 195.5,-269.5 0.5,-269.5"/>
<polygon fill="#666666" stroke="#666666" points="0.5,-254.5 0.5,-254.5 195.5,-254.5 195.5,-254.5 0.5,-254.5"/>
<polygon fill="none" stroke="#666666" points="0,-167 0,-298 195,-298 195,-167 0,-167"/>
</a>
</g>
</g>
<!-- Node1&#45;&gt;Node8 -->
<g id="edge8_Node000001_Node000008" class="edge">
<title>Node1&#45;&gt;Node8</title>
<g id="a_edge8_Node000001_Node000008"><a xlink:title=" ">
<path fill="none" stroke="#63b8ff" d="M666.45,-483.51C549.64,-467.55 351.8,-429.34 204.5,-343 184.44,-331.24 165.59,-314.73 149.47,-298.08"/>
<polygon fill="none" stroke="#63b8ff" points="666.08,-486.99 676.46,-484.85 667.01,-480.05 666.08,-486.99"/>
</a>
</g>
</g>
<!-- Node9 -->
<g id="Node000009" class="node">
<title>Node9</title>
<g id="a_Node000009"><a xlink:href="../../d0/d48/class_hydro_couple_1_1_spatio_temporal_1_1_i_time_network_component_data_item.html" target="_top" xlink:title="The ITimeNetworkComponentDataItem class.">
<polygon fill="white" stroke="transparent" points="401.5,-285 213.5,-285 213.5,-180 401.5,-180 401.5,-285"/>
<text text-anchor="start" x="218.5" y="-272.5" font-family="Monaco" font-size="10.00">HydroCouple::SpatioTemporal</text>
<text text-anchor="start" x="218.5" y="-261.5" font-family="Monaco" font-size="10.00">::ITimeNetworkComponentDataItem</text>
<text text-anchor="start" x="305.5" y="-246.5" font-family="Monaco" font-size="10.00"> </text>
<text text-anchor="start" x="245" y="-231.5" font-family="Monaco" font-size="10.00">+</text>
<text text-anchor="start" x="285.5" y="-231.5" font-family="Monaco" font-size="10.00">getValue()</text>
<text text-anchor="start" x="245" y="-216.5" font-family="Monaco" font-size="10.00">+</text>
<text text-anchor="start" x="285.5" y="-216.5" font-family="Monaco" font-size="10.00">getValues()</text>
<text text-anchor="start" x="245" y="-201.5" font-family="Monaco" font-size="10.00">+</text>
<text text-anchor="start" x="285.5" y="-201.5" font-family="Monaco" font-size="10.00">setValue()</text>
<text text-anchor="start" x="245" y="-186.5" font-family="Monaco" font-size="10.00">+</text>
<text text-anchor="start" x="285.5" y="-186.5" font-family="Monaco" font-size="10.00">setValues()</text>
<polygon fill="#666666" stroke="#666666" points="213.5,-256.5 213.5,-256.5 401.5,-256.5 401.5,-256.5 213.5,-256.5"/>
<polygon fill="#666666" stroke="#666666" points="213.5,-241.5 213.5,-241.5 401.5,-241.5 401.5,-241.5 213.5,-241.5"/>
<polygon fill="none" stroke="#666666" points="213.5,-180 213.5,-285 401.5,-285 401.5,-180 213.5,-180"/>
</a>
</g>
</g>
<!-- Node1&#45;&gt;Node9 -->
<g id="edge9_Node000001_Node000009" class="edge">
<title>Node1&#45;&gt;Node9</title>
<g id="a_edge9_Node000001_Node000009"><a xlink:title=" ">
<path fill="none" stroke="#63b8ff" d="M666.6,-464.48C592.26,-439.27 489.67,-398.28 410.5,-343 387.5,-326.94 365.65,-305.06 348.05,-285.08"/>
<polygon fill="none" stroke="#63b8ff" points="665.85,-467.92 676.44,-467.78 668.07,-461.28 665.85,-467.92"/>
</a>
</g>
</g>
<!-- Node10 -->
<g id="Node000010" class="node">
<title>Node10</title>
<g id="a_Node000010"><a xlink:href="../../d6/da3/class_hydro_couple_1_1_spatio_temporal_1_1_i_time_regular_grid2_d_component_data_item.html" target="_top" xlink:title="The ITimeRegularGrid2DComponentItem class.">
<polygon fill="white" stroke="transparent" points="637.5,-298 419.5,-298 419.5,-167 637.5,-167 637.5,-298"/>
<text text-anchor="start" x="424.5" y="-285.5" font-family="Monaco" font-size="10.00">HydroCouple::SpatioTemporal</text>
<text text-anchor="start" x="424.5" y="-274.5" font-family="Monaco" font-size="10.00">::ITimeRegularGrid2DComponentDataItem</text>
<text text-anchor="start" x="526.5" y="-259.5" font-family="Monaco" font-size="10.00"> </text>
<text text-anchor="start" x="431.5" y="-244.5" font-family="Monaco" font-size="10.00">+</text>
<text text-anchor="start" x="452.5" y="-244.5" font-family="Monaco" font-size="10.00">~ITimeRegularGrid2DComponent</text>
<text text-anchor="start" x="452.5" y="-233.5" font-family="Monaco" font-size="10.00">DataItem()</text>
<text text-anchor="start" x="431.5" y="-218.5" font-family="Monaco" font-size="10.00">+</text>
<text text-anchor="start" x="452.5" y="-218.5" font-family="Monaco" font-size="10.00">getValue()</text>
<text text-anchor="start" x="431.5" y="-203.5" font-family="Monaco" font-size="10.00">+</text>
<text text-anchor="start" x="452.5" y="-203.5" font-family="Monaco" font-size="10.00">getValues()</text>
<text text-anchor="start" x="431.5" y="-188.5" font-family="Monaco" font-size="10.00">+</text>
<text text-anchor="start" x="452.5" y="-188.5" font-family="Monaco" font-size="10.00">setValue()</text>
<text text-anchor="start" x="431.5" y="-173.5" font-family="Monaco" font-size="10.00">+</text>
<text text-anchor="start" x="452.5" y="-173.5" font-family="Monaco" font-size="10.00">setValues()</text>
<polygon fill="#666666" stroke="#666666" points="419.5,-269.5 419.5,-269.5 637.5,-269.5 637.5,-269.5 419.5,-269.5"/>
<polygon fill="#666666" stroke="#666666" points="419.5,-254.5 419.5,-254.5 637.5,-254.5 637.5,-254.5 419.5,-254.5"/>
<polygon fill="none" stroke="#666666" points="419.5,-167 419.5,-298 637.5,-298 637.5,-167 419.5,-167"/>
</a>
</g>
</g>
<!-- Node1&#45;&gt;Node10 -->
<g id="edge10_Node000001_Node000010" class="edge">
<title>Node1&#45;&gt;Node10</title>
<g id="a_edge10_Node000001_Node000010"><a xlink:title=" ">
<path fill="none" stroke="#63b8ff" d="M669.28,-388.89C641.54,-358.27 612.05,-325.72 587.27,-298.37"/>
<polygon fill="none" stroke="#63b8ff" points="666.98,-391.57 676.29,-396.63 672.17,-386.87 666.98,-391.57"/>
</a>
</g>
</g>
<!-- Node11 -->
<g id="Node000011" class="node">
<title>Node11</title>
<g id="a_Node000011"><a xlink:href="../../db/d99/class_hydro_couple_1_1_spatio_temporal_1_1_i_time_regular_grid3_d_component_data_item.html" target="_top" xlink:title="The ITimeRegularGrid3DComponentItem class.">
<polygon fill="white" stroke="transparent" points="873.5,-298 655.5,-298 655.5,-167 873.5,-167 873.5,-298"/>
<text text-anchor="start" x="660.5" y="-285.5" font-family="Monaco" font-size="10.00">HydroCouple::SpatioTemporal</text>
<text text-anchor="start" x="660.5" y="-274.5" font-family="Monaco" font-size="10.00">::ITimeRegularGrid3DComponentDataItem</text>
<text text-anchor="start" x="762.5" y="-259.5" font-family="Monaco" font-size="10.00"> </text>
<text text-anchor="start" x="667.5" y="-244.5" font-family="Monaco" font-size="10.00">+</text>
<text text-anchor="start" x="688.5" y="-244.5" font-family="Monaco" font-size="10.00">~ITimeRegularGrid3DComponent</text>
<text text-anchor="start" x="688.5" y="-233.5" font-family="Monaco" font-size="10.00">DataItem()</text>
<text text-anchor="start" x="667.5" y="-218.5" font-family="Monaco" font-size="10.00">+</text>
<text text-anchor="start" x="688.5" y="-218.5" font-family="Monaco" font-size="10.00">getValue()</text>
<text text-anchor="start" x="667.5" y="-203.5" font-family="Monaco" font-size="10.00">+</text>
<text text-anchor="start" x="688.5" y="-203.5" font-family="Monaco" font-size="10.00">getValues()</text>
<text text-anchor="start" x="667.5" y="-188.5" font-family="Monaco" font-size="10.00">+</text>
<text text-anchor="start" x="688.5" y="-188.5" font-family="Monaco" font-size="10.00">setValue()</text>
<text text-anchor="start" x="667.5" y="-173.5" font-family="Monaco" font-size="10.00">+</text>
<text text-anchor="start" x="688.5" y="-173.5" font-family="Monaco" font-size="10.00">setValues()</text>
<polygon fill="#666666" stroke="#666666" points="655.5,-269.5 655.5,-269.5 873.5,-269.5 873.5,-269.5 655.5,-269.5"/>
<polygon fill="#666666" stroke="#666666" points="655.5,-254.5 655.5,-254.5 873.5,-254.5 873.5,-254.5 655.5,-254.5"/>
<polygon fill="none" stroke="#666666" points="655.5,-167 655.5,-298 873.5,-298 873.5,-167 655.5,-167"/>
</a>
</g>
</g>
<!-- Node1&#45;&gt;Node11 -->
<g id="edge11_Node000001_Node000011" class="edge">
<title>Node1&#45;&gt;Node11</title>
<g id="a_edge11_Node000001_Node000011"><a xlink:title=" ">
<path fill="none" stroke="#63b8ff" d="M764.5,-368.9C764.5,-344.45 764.5,-319.76 764.5,-298.28"/>
<polygon fill="none" stroke="#63b8ff" points="761,-368.98 764.5,-378.98 768,-368.98 761,-368.98"/>
</a>
</g>
</g>
<!-- Node12 -->
<g id="Node000012" class="node">
<title>Node12</title>
<g id="a_Node000012"><a xlink:href="../../df/d17/class_hydro_couple_1_1_spatio_temporal_1_1_i_time_series_polyhedral_surface_component_data_item.html" target="_top" xlink:title="The ITimeSeriesPolyhedralSurfaceComponentDataItem class.">
<polygon fill="white" stroke="transparent" points="1111,-303.5 892,-303.5 892,-161.5 1111,-161.5 1111,-303.5"/>
<text text-anchor="start" x="897.5" y="-291.5" font-family="Monaco" font-size="10.00">HydroCouple::SpatioTemporal</text>
<text text-anchor="start" x="897.5" y="-280.5" font-family="Monaco" font-size="10.00">::ITimeSeriesPolyhedralSurfaceComponent</text>
<text text-anchor="start" x="979" y="-269.5" font-family="Monaco" font-size="10.00">DataItem</text>
<text text-anchor="start" x="1000" y="-254.5" font-family="Monaco" font-size="10.00"> </text>
<text text-anchor="start" x="907" y="-239.5" font-family="Monaco" font-size="10.00">+</text>
<text text-anchor="start" x="930.5" y="-239.5" font-family="Monaco" font-size="10.00">~ITimeSeriesPolyhedralSurface</text>
<text text-anchor="start" x="930.5" y="-228.5" font-family="Monaco" font-size="10.00">ComponentDataItem()</text>
<text text-anchor="start" x="907" y="-213.5" font-family="Monaco" font-size="10.00">+</text>
<text text-anchor="start" x="930.5" y="-213.5" font-family="Monaco" font-size="10.00">getValue()</text>
<text text-anchor="start" x="907" y="-198.5" font-family="Monaco" font-size="10.00">+</text>
<text text-anchor="start" x="930.5" y="-198.5" font-family="Monaco" font-size="10.00">getValues()</text>
<text text-anchor="start" x="907" y="-183.5" font-family="Monaco" font-size="10.00">+</text>
<text text-anchor="start" x="930.5" y="-183.5" font-family="Monaco" font-size="10.00">setValue()</text>
<text text-anchor="start" x="907" y="-168.5" font-family="Monaco" font-size="10.00">+</text>
<text text-anchor="start" x="930.5" y="-168.5" font-family="Monaco" font-size="10.00">setValues()</text>
<polygon fill="#666666" stroke="#666666" points="892.5,-264.5 892.5,-264.5 1111.5,-264.5 1111.5,-264.5 892.5,-264.5"/>
<polygon fill="#666666" stroke="#666666" points="892.5,-249.5 892.5,-249.5 1111.5,-249.5 1111.5,-249.5 892.5,-249.5"/>
<polygon fill="none" stroke="#666666" points="892,-161.5 892,-303.5 1111,-303.5 1111,-161.5 892,-161.5"/>
</a>
</g>
</g>
<!-- Node1&#45;&gt;Node12 -->
<g id="edge12_Node000001_Node000012" class="edge">
<title>Node1&#45;&gt;Node12</title>
<g id="a_edge12_Node000001_Node000012"><a xlink:title=" ">
<path fill="none" stroke="#63b8ff" d="M859.73,-389.33C885.9,-360.56 913.66,-330.05 937.61,-303.73"/>
<polygon fill="none" stroke="#63b8ff" points="856.89,-387.25 852.75,-397 862.07,-391.96 856.89,-387.25"/>
</a>
</g>
</g>
<!-- Node14 -->
<g id="Node000014" class="node">
<title>Node14</title>
<g id="a_Node000014"><a xlink:href="../../dc/d3f/class_hydro_couple_1_1_spatio_temporal_1_1_i_time_series_raster_component_data_item.html" target="_top" xlink:title="The ITimeRasterComponentDataItem class.">
<polygon fill="white" stroke="transparent" points="1337.5,-298 1129.5,-298 1129.5,-167 1337.5,-167 1337.5,-298"/>
<text text-anchor="start" x="1134.5" y="-285.5" font-family="Monaco" font-size="10.00">HydroCouple::SpatioTemporal</text>
<text text-anchor="start" x="1134.5" y="-274.5" font-family="Monaco" font-size="10.00">::ITimeSeriesRasterComponentDataItem</text>
<text text-anchor="start" x="1231.5" y="-259.5" font-family="Monaco" font-size="10.00"> </text>
<text text-anchor="start" x="1141.5" y="-244.5" font-family="Monaco" font-size="10.00">+</text>
<text text-anchor="start" x="1162.5" y="-244.5" font-family="Monaco" font-size="10.00">~ITimeSeriesRasterComponent</text>
<text text-anchor="start" x="1162.5" y="-233.5" font-family="Monaco" font-size="10.00">DataItem()</text>
<text text-anchor="start" x="1141.5" y="-218.5" font-family="Monaco" font-size="10.00">+</text>
<text text-anchor="start" x="1162.5" y="-218.5" font-family="Monaco" font-size="10.00">getValue()</text>
<text text-anchor="start" x="1141.5" y="-203.5" font-family="Monaco" font-size="10.00">+</text>
<text text-anchor="start" x="1162.5" y="-203.5" font-family="Monaco" font-size="10.00">getValues()</text>
<text text-anchor="start" x="1141.5" y="-188.5" font-family="Monaco" font-size="10.00">+</text>
<text text-anchor="start" x="1162.5" y="-188.5" font-family="Monaco" font-size="10.00">setValue()</text>
<text text-anchor="start" x="1141.5" y="-173.5" font-family="Monaco" font-size="10.00">+</text>
<text text-anchor="start" x="1162.5" y="-173.5" font-family="Monaco" font-size="10.00">setValues()</text>
<polygon fill="#666666" stroke="#666666" points="1129.5,-269.5 1129.5,-269.5 1337.5,-269.5 1337.5,-269.5 1129.5,-269.5"/>
<polygon fill="#666666" stroke="#666666" points="1129.5,-254.5 1129.5,-254.5 1337.5,-254.5 1337.5,-254.5 1129.5,-254.5"/>
<polygon fill="none" stroke="#666666" points="1129.5,-167 1129.5,-298 1337.5,-298 1337.5,-167 1129.5,-167"/>
</a>
</g>
</g>
<!-- Node1&#45;&gt;Node14 -->
<g id="edge14_Node000001_Node000014" class="edge">
<title>Node1&#45;&gt;Node14</title>
<g id="a_edge14_Node000001_Node000014"><a xlink:title=" ">
<path fill="none" stroke="#63b8ff" d="M862.63,-463.12C936.71,-437.31 1039.01,-396.17 1119.5,-343 1138.73,-330.3 1157.62,-314.14 1174.32,-298.16"/>
<polygon fill="none" stroke="#63b8ff" points="861.14,-459.93 852.83,-466.51 863.42,-466.55 861.14,-459.93"/>
</a>
</g>
</g>
<!-- Node15 -->
<g id="Node000015" class="node">
<title>Node15</title>
<g id="a_Node000015"><a xlink:href="../../d0/dd4/class_hydro_couple_1_1_temporal_1_1_i_time_id_based_component_data_item.html" target="_top" xlink:title="The ITimeIdBasedComponentDataItem class.">
<polygon fill="white" stroke="transparent" points="1541,-343 1356,-343 1356,-122 1541,-122 1541,-343"/>
<text text-anchor="start" x="1361.5" y="-330.5" font-family="Monaco" font-size="10.00">HydroCouple::Temporal</text>
<text text-anchor="start" x="1361.5" y="-319.5" font-family="Monaco" font-size="10.00">::ITimeIdBasedComponentDataItem</text>
<text text-anchor="start" x="1447" y="-304.5" font-family="Monaco" font-size="10.00"> </text>
<text text-anchor="start" x="1362.5" y="-289.5" font-family="Monaco" font-size="10.00">+</text>
<text text-anchor="start" x="1377.5" y="-289.5" font-family="Monaco" font-size="10.00">~ITimeIdBasedComponentData</text>
<text text-anchor="start" x="1377.5" y="-278.5" font-family="Monaco" font-size="10.00">Item()</text>
<text text-anchor="start" x="1362.5" y="-263.5" font-family="Monaco" font-size="10.00">+</text>
<text text-anchor="start" x="1377.5" y="-263.5" font-family="Monaco" font-size="10.00">identifiers()</text>
<text text-anchor="start" x="1362.5" y="-248.5" font-family="Monaco" font-size="10.00">+</text>
<text text-anchor="start" x="1377.5" y="-248.5" font-family="Monaco" font-size="10.00">identifierDimension()</text>
<text text-anchor="start" x="1362.5" y="-233.5" font-family="Monaco" font-size="10.00">+</text>
<text text-anchor="start" x="1377.5" y="-233.5" font-family="Monaco" font-size="10.00">getValue()</text>
<text text-anchor="start" x="1362.5" y="-218.5" font-family="Monaco" font-size="10.00">+</text>
<text text-anchor="start" x="1377.5" y="-218.5" font-family="Monaco" font-size="10.00">getValues()</text>
<text text-anchor="start" x="1362.5" y="-203.5" font-family="Monaco" font-size="10.00">+</text>
<text text-anchor="start" x="1377.5" y="-203.5" font-family="Monaco" font-size="10.00">setValue()</text>
<text text-anchor="start" x="1362.5" y="-188.5" font-family="Monaco" font-size="10.00">+</text>
<text text-anchor="start" x="1377.5" y="-188.5" font-family="Monaco" font-size="10.00">setValues()</text>
<text text-anchor="start" x="1362.5" y="-173.5" font-family="Monaco" font-size="10.00">+</text>
<text text-anchor="start" x="1377.5" y="-173.5" font-family="Monaco" font-size="10.00">getValue()</text>
<text text-anchor="start" x="1362.5" y="-158.5" font-family="Monaco" font-size="10.00">+</text>
<text text-anchor="start" x="1377.5" y="-158.5" font-family="Monaco" font-size="10.00">getValues()</text>
<text text-anchor="start" x="1362.5" y="-143.5" font-family="Monaco" font-size="10.00">+</text>
<text text-anchor="start" x="1377.5" y="-143.5" font-family="Monaco" font-size="10.00">setValue()</text>
<text text-anchor="start" x="1377.5" y="-128.5" font-family="Monaco" font-size="10.00">and 17 more...</text>
<polygon fill="#666666" stroke="#666666" points="1356.5,-314.5 1356.5,-314.5 1541.5,-314.5 1541.5,-314.5 1356.5,-314.5"/>
<polygon fill="#666666" stroke="#666666" points="1356.5,-299.5 1356.5,-299.5 1541.5,-299.5 1541.5,-299.5 1356.5,-299.5"/>
<polygon fill="none" stroke="#666666" points="1356,-122 1356,-343 1541,-343 1541,-122 1356,-122"/>
</a>
</g>
</g>
<!-- Node1&#45;&gt;Node15 -->
<g id="edge15_Node000001_Node000015" class="edge">
<title>Node1&#45;&gt;Node15</title>
<g id="a_edge15_Node000001_Node000015"><a xlink:title=" ">
<path fill="none" stroke="#63b8ff" d="M862.75,-485.44C983.94,-471.23 1192.77,-434.6 1346.5,-343 1349.62,-341.14 1352.71,-339.15 1355.76,-337.06"/>
<polygon fill="none" stroke="#63b8ff" points="862.27,-481.97 852.74,-486.59 863.07,-488.93 862.27,-481.97"/>
</a>
</g>
</g>
<!-- Node2 -->
<g id="Node000002" class="node">
<title>Node2</title>
<g id="a_Node000002"><a xlink:href="../../d8/d52/class_hydro_couple_1_1_i_component_data_item.html" target="_top" xlink:title="IComponentItem is a fundamental unit of data for a component.">
<polygon fill="white" stroke="transparent" points="857,-876 672,-876 672,-647 857,-647 857,-876"/>
<text text-anchor="start" x="677.5" y="-863.5" font-family="Monaco" font-size="10.00">HydroCouple::IComponentDataItem</text>
<text text-anchor="start" x="763" y="-848.5" font-family="Monaco" font-size="10.00"> </text>
<text text-anchor="start" x="687" y="-833.5" font-family="Monaco" font-size="10.00">+</text>
<text text-anchor="start" x="710.5" y="-833.5" font-family="Monaco" font-size="10.00">~IComponentDataItem()</text>
<text text-anchor="start" x="687" y="-818.5" font-family="Monaco" font-size="10.00">+</text>
<text text-anchor="start" x="710.5" y="-818.5" font-family="Monaco" font-size="10.00">modelComponent()</text>
<text text-anchor="start" x="687" y="-803.5" font-family="Monaco" font-size="10.00">+</text>
<text text-anchor="start" x="710.5" y="-803.5" font-family="Monaco" font-size="10.00">dimensions()</text>
<text text-anchor="start" x="687" y="-788.5" font-family="Monaco" font-size="10.00">+</text>
<text text-anchor="start" x="710.5" y="-788.5" font-family="Monaco" font-size="10.00">dimensionLength()</text>
<text text-anchor="start" x="687" y="-773.5" font-family="Monaco" font-size="10.00">+</text>
<text text-anchor="start" x="710.5" y="-773.5" font-family="Monaco" font-size="10.00">valueDefinition()</text>
<text text-anchor="start" x="687" y="-758.5" font-family="Monaco" font-size="10.00">+</text>
<text text-anchor="start" x="710.5" y="-758.5" font-family="Monaco" font-size="10.00">getValue()</text>
<text text-anchor="start" x="687" y="-743.5" font-family="Monaco" font-size="10.00">+</text>
<text text-anchor="start" x="710.5" y="-743.5" font-family="Monaco" font-size="10.00">getValues()</text>
<text text-anchor="start" x="687" y="-728.5" font-family="Monaco" font-size="10.00">+</text>
<text text-anchor="start" x="710.5" y="-728.5" font-family="Monaco" font-size="10.00">setValue()</text>
<text text-anchor="start" x="687" y="-713.5" font-family="Monaco" font-size="10.00">+</text>
<text text-anchor="start" x="710.5" y="-713.5" font-family="Monaco" font-size="10.00">setValues()</text>
<text text-anchor="start" x="687" y="-698.5" font-family="Monaco" font-size="10.00">+</text>
<text text-anchor="start" x="710.5" y="-698.5" font-family="Monaco" font-size="10.00">hasEditor()</text>
<text text-anchor="start" x="687" y="-683.5" font-family="Monaco" font-size="10.00">+</text>
<text text-anchor="start" x="710.5" y="-683.5" font-family="Monaco" font-size="10.00">showEditor()</text>
<text text-anchor="start" x="687" y="-668.5" font-family="Monaco" font-size="10.00">+</text>
<text text-anchor="start" x="710.5" y="-668.5" font-family="Monaco" font-size="10.00">hasViewer()</text>
<text text-anchor="start" x="687" y="-653.5" font-family="Monaco" font-size="10.00">+</text>
<text text-anchor="start" x="710.5" y="-653.5" font-family="Monaco" font-size="10.00">showViewer()</text>
<polygon fill="#666666" stroke="#666666" points="672.5,-858.5 672.5,-858.5 857.5,-858.5 857.5,-858.5 672.5,-858.5"/>
<polygon fill="#666666" stroke="#666666" points="672.5,-843.5 672.5,-843.5 857.5,-843.5 857.5,-843.5 672.5,-843.5"/>
<polygon fill="none" stroke="#666666" points="672,-647 672,-876 857,-876 857,-647 672,-647"/>
</a>
</g>
</g>
<!-- Node2&#45;&gt;Node1 -->
<g id="edge1_Node000001_Node000002" class="edge">
<title>Node2&#45;&gt;Node1</title>
<g id="a_edge1_Node000001_Node000002"><a xlink:title=" ">
<path fill="none" stroke="#63b8ff" d="M757.76,-636.55C757.74,-628.13 757.75,-619.67 757.8,-611.29"/>
<polygon fill="none" stroke="#63b8ff" points="754.26,-636.81 757.81,-646.79 761.26,-636.78 754.26,-636.81"/>
</a>
</g>
</g>
<!-- Node2&#45;&gt;Node1 -->
<g id="edge7_Node000001_Node000002" class="edge">
<title>Node2&#45;&gt;Node1</title>
<g id="a_edge7_Node000001_Node000002"><a xlink:title=" ">
<path fill="none" stroke="#63b8ff" d="M771.24,-636.55C771.26,-628.13 771.25,-619.67 771.2,-611.29"/>
<polygon fill="none" stroke="#63b8ff" points="767.74,-636.78 771.19,-646.79 774.74,-636.81 767.74,-636.78"/>
</a>
</g>
</g>
<!-- Node3 -->
<g id="Node000003" class="node">
<title>Node3</title>
<g id="a_Node000003"><a xlink:href="../../d2/d2a/class_hydro_couple_1_1_i_identity.html" target="_top" xlink:title="IIdentity interface class defines a method to get the Id of an HydroCouple entity.">
<polygon fill="white" stroke="transparent" points="742.5,-1009.5 622.5,-1009.5 622.5,-945.5 742.5,-945.5 742.5,-1009.5"/>
<text text-anchor="start" x="627.5" y="-997.5" font-family="Monaco" font-size="10.00">HydroCouple::IIdentity</text>
<text text-anchor="start" x="680.5" y="-982.5" font-family="Monaco" font-size="10.00"> </text>
<text text-anchor="start" x="637" y="-967.5" font-family="Monaco" font-size="10.00">+</text>
<text text-anchor="start" x="660.5" y="-967.5" font-family="Monaco" font-size="10.00">~IIdentity()</text>
<text text-anchor="start" x="637" y="-952.5" font-family="Monaco" font-size="10.00">+</text>
<text text-anchor="start" x="660.5" y="-952.5" font-family="Monaco" font-size="10.00">id()</text>
<polygon fill="#666666" stroke="#666666" points="622.5,-992.5 622.5,-992.5 742.5,-992.5 742.5,-992.5 622.5,-992.5"/>
<polygon fill="#666666" stroke="#666666" points="622.5,-977.5 622.5,-977.5 742.5,-977.5 742.5,-977.5 622.5,-977.5"/>
<polygon fill="none" stroke="#666666" points="622.5,-945.5 622.5,-1009.5 742.5,-1009.5 742.5,-945.5 622.5,-945.5"/>
</a>
</g>
</g>
<!-- Node3&#45;&gt;Node2 -->
<g id="edge2_Node000002_Node000003" class="edge">
<title>Node3&#45;&gt;Node2</title>
<g id="a_edge2_Node000002_Node000003"><a xlink:title=" ">
<path fill="none" stroke="#63b8ff" d="M698.13,-935.71C704.72,-918.5 712.76,-897.52 720.94,-876.19"/>
<polygon fill="none" stroke="#63b8ff" points="694.73,-934.79 694.42,-945.38 701.27,-937.3 694.73,-934.79"/>
</a>
</g>
</g>
<!-- Node4 -->
<g id="Node000004" class="node">
<title>Node4</title>
<g id="a_Node000004"><a xlink:href="../../db/d64/class_hydro_couple_1_1_i_description.html" target="_top" xlink:title="IDescription interface class provides descriptive information on a HydroCouple object.">
<polygon fill="white" stroke="transparent" points="751.5,-1188 613.5,-1188 613.5,-1079 751.5,-1079 751.5,-1188"/>
<text text-anchor="start" x="618.5" y="-1175.5" font-family="Monaco" font-size="10.00">HydroCouple::IDescription</text>
<text text-anchor="start" x="680.5" y="-1160.5" font-family="Monaco" font-size="10.00"> </text>
<text text-anchor="start" x="627" y="-1145.5" font-family="Monaco" font-size="10.00">+</text>
<text text-anchor="start" x="649.5" y="-1145.5" font-family="Monaco" font-size="10.00">~IDescription()</text>
<text text-anchor="start" x="627" y="-1130.5" font-family="Monaco" font-size="10.00">+</text>
<text text-anchor="start" x="649.5" y="-1130.5" font-family="Monaco" font-size="10.00">caption()</text>
<text text-anchor="start" x="627" y="-1115.5" font-family="Monaco" font-size="10.00">+</text>
<text text-anchor="start" x="649.5" y="-1115.5" font-family="Monaco" font-size="10.00">setCaption()</text>
<text text-anchor="start" x="627" y="-1100.5" font-family="Monaco" font-size="10.00">+</text>
<text text-anchor="start" x="649.5" y="-1100.5" font-family="Monaco" font-size="10.00">description()</text>
<text text-anchor="start" x="627" y="-1085.5" font-family="Monaco" font-size="10.00">+</text>
<text text-anchor="start" x="649.5" y="-1085.5" font-family="Monaco" font-size="10.00">setDescription()</text>
<polygon fill="#666666" stroke="#666666" points="613.5,-1170.5 613.5,-1170.5 751.5,-1170.5 751.5,-1170.5 613.5,-1170.5"/>
<polygon fill="#666666" stroke="#666666" points="613.5,-1155.5 613.5,-1155.5 751.5,-1155.5 751.5,-1155.5 613.5,-1155.5"/>
<polygon fill="none" stroke="#666666" points="613.5,-1079 613.5,-1188 751.5,-1188 751.5,-1079 613.5,-1079"/>
</a>
</g>
</g>
<!-- Node4&#45;&gt;Node3 -->
<g id="edge3_Node000003_Node000004" class="edge">
<title>Node4&#45;&gt;Node3</title>
<g id="a_edge3_Node000003_Node000004"><a xlink:title=" ">
<path fill="none" stroke="#63b8ff" d="M682.5,-1068.47C682.5,-1048.15 682.5,-1026.58 682.5,-1009.66"/>
<polygon fill="none" stroke="#63b8ff" points="679,-1068.64 682.5,-1078.64 686,-1068.64 679,-1068.64"/>
</a>
</g>
</g>
<!-- Node5 -->
<g id="Node000005" class="node">
<title>Node5</title>
<g id="a_Node000005"><a xlink:href="../../dd/dbf/class_hydro_couple_1_1_i_property_changed.html" target="_top" xlink:title="IPropertyChanged interface is used to emit signal/event when a property of an object changes.">
<polygon fill="white" stroke="transparent" points="766,-1273 599,-1273 599,-1224 766,-1224 766,-1273"/>
<text text-anchor="start" x="604.5" y="-1260.5" font-family="Monaco" font-size="10.00">HydroCouple::IPropertyChanged</text>
<text text-anchor="start" x="681" y="-1245.5" font-family="Monaco" font-size="10.00"> </text>
<text text-anchor="start" x="614" y="-1230.5" font-family="Monaco" font-size="10.00">+</text>
<text text-anchor="start" x="637.5" y="-1230.5" font-family="Monaco" font-size="10.00">~IPropertyChanged()</text>
<polygon fill="#666666" stroke="#666666" points="599.5,-1255.5 599.5,-1255.5 766.5,-1255.5 766.5,-1255.5 599.5,-1255.5"/>
<polygon fill="#666666" stroke="#666666" points="599.5,-1240.5 599.5,-1240.5 766.5,-1240.5 766.5,-1240.5 599.5,-1240.5"/>
<polygon fill="none" stroke="#666666" points="599,-1224 599,-1273 766,-1273 766,-1224 599,-1224"/>
</a>
</g>
</g>
<!-- Node5&#45;&gt;Node4 -->
<g id="edge4_Node000004_Node000005" class="edge">
<title>Node5&#45;&gt;Node4</title>
<g id="a_edge4_Node000004_Node000005"><a xlink:title=" ">
<path fill="none" stroke="#63b8ff" d="M682.5,-1213.79C682.5,-1205.79 682.5,-1197.06 682.5,-1188.41"/>
<polygon fill="none" stroke="#63b8ff" points="679,-1213.81 682.5,-1223.81 686,-1213.81 679,-1213.81"/>
</a>
</g>
</g>
<!-- Node6 -->
<g id="Node000006" class="node">
<title>Node6</title>
<g id="a_Node000006"><a xlink:href="../../d5/d8b/class_hydro_couple_1_1_i_signal.html" target="_top" xlink:title=" ">
<polygon fill="white" stroke="transparent" points="739,-1429 626,-1429 626,-1309 739,-1309 739,-1429"/>
<text text-anchor="start" x="631.5" y="-1417" font-family="Monaco" font-size="10.00">HydroCouple::ISignal</text>
<text text-anchor="start" x="657.5" y="-1406" font-family="Monaco" font-size="10.00">&lt; string &gt;</text>
<text text-anchor="start" x="681" y="-1391" font-family="Monaco" font-size="10.00"> </text>
<text text-anchor="start" x="636" y="-1376" font-family="Monaco" font-size="10.00">+</text>
<text text-anchor="start" x="654.5" y="-1376" font-family="Monaco" font-size="10.00">~ISignal()</text>
<text text-anchor="start" x="636" y="-1361" font-family="Monaco" font-size="10.00">+</text>
<text text-anchor="start" x="654.5" y="-1361" font-family="Monaco" font-size="10.00">connect()</text>
<text text-anchor="start" x="636" y="-1346" font-family="Monaco" font-size="10.00">+</text>
<text text-anchor="start" x="654.5" y="-1346" font-family="Monaco" font-size="10.00">disconnect()</text>
<text text-anchor="start" x="636" y="-1331" font-family="Monaco" font-size="10.00">+</text>
<text text-anchor="start" x="654.5" y="-1331" font-family="Monaco" font-size="10.00">blockSignals()</text>
<text text-anchor="start" x="636" y="-1316" font-family="Monaco" font-size="10.00">#</text>
<text text-anchor="start" x="654.5" y="-1316" font-family="Monaco" font-size="10.00">emit()</text>
<polygon fill="#666666" stroke="#666666" points="626.5,-1401 626.5,-1401 739.5,-1401 739.5,-1401 626.5,-1401"/>
<polygon fill="#666666" stroke="#666666" points="626.5,-1386 626.5,-1386 739.5,-1386 739.5,-1386 626.5,-1386"/>
<polygon fill="none" stroke="#666666" points="626,-1309 626,-1429 739,-1429 739,-1309 626,-1309"/>
</a>
</g>
</g>
<!-- Node6&#45;&gt;Node5 -->
<g id="edge5_Node000005_Node000006" class="edge">
<title>Node6&#45;&gt;Node5</title>
<g id="a_edge5_Node000005_Node000006"><a xlink:title=" ">
<path fill="none" stroke="#63b8ff" d="M682.5,-1298.74C682.5,-1289.6 682.5,-1280.78 682.5,-1273.2"/>
<polygon fill="none" stroke="#63b8ff" points="679,-1298.75 682.5,-1308.75 686,-1298.75 679,-1298.75"/>
</a>
</g>
</g>
<!-- Node7 -->
<g id="Node000007" class="node">
<title>Node7</title>
<g id="a_Node000007"><a xlink:href="../../d5/d8b/class_hydro_couple_1_1_i_signal.html" target="_top" xlink:title=" ">
<polygon fill="white" stroke="transparent" points="934,-1043 761,-1043 761,-912 934,-912 934,-1043"/>
<text text-anchor="start" x="766.5" y="-1030.5" font-family="Monaco" font-size="10.00">HydroCouple::ISignal</text>
<text text-anchor="start" x="766.5" y="-1019.5" font-family="Monaco" font-size="10.00">&lt; const shared_ptr&lt; IComponent</text>
<text text-anchor="start" x="773.5" y="-1008.5" font-family="Monaco" font-size="10.00">DataItemValueChanged &gt; &amp; &gt;</text>
<text text-anchor="start" x="846" y="-993.5" font-family="Monaco" font-size="10.00"> </text>
<text text-anchor="start" x="786" y="-978.5" font-family="Monaco" font-size="10.00">+</text>
<text text-anchor="start" x="819.5" y="-978.5" font-family="Monaco" font-size="10.00">~ISignal()</text>
<text text-anchor="start" x="786" y="-963.5" font-family="Monaco" font-size="10.00">+</text>
<text text-anchor="start" x="819.5" y="-963.5" font-family="Monaco" font-size="10.00">connect()</text>
<text text-anchor="start" x="786" y="-948.5" font-family="Monaco" font-size="10.00">+</text>
<text text-anchor="start" x="819.5" y="-948.5" font-family="Monaco" font-size="10.00">disconnect()</text>
<text text-anchor="start" x="786" y="-933.5" font-family="Monaco" font-size="10.00">+</text>
<text text-anchor="start" x="819.5" y="-933.5" font-family="Monaco" font-size="10.00">blockSignals()</text>
<text text-anchor="start" x="786" y="-918.5" font-family="Monaco" font-size="10.00">#</text>
<text text-anchor="start" x="819.5" y="-918.5" font-family="Monaco" font-size="10.00">emit()</text>
<polygon fill="#666666" stroke="#666666" points="761.5,-1003.5 761.5,-1003.5 934.5,-1003.5 934.5,-1003.5 761.5,-1003.5"/>
<polygon fill="#666666" stroke="#666666" points="761.5,-988.5 761.5,-988.5 934.5,-988.5 934.5,-988.5 761.5,-988.5"/>
<polygon fill="none" stroke="#666666" points="761,-912 761,-1043 934,-1043 934,-912 761,-912"/>
</a>
</g>
</g>
<!-- Node7&#45;&gt;Node2 -->
<g id="edge6_Node000002_Node000007" class="edge">
<title>Node7&#45;&gt;Node2</title>
<g id="a_edge6_Node000002_Node000007"><a xlink:title=" ">
<path fill="none" stroke="#63b8ff" d="M818.71,-902.27C815.42,-893.79 812.01,-884.99 808.58,-876.14"/>
<polygon fill="none" stroke="#63b8ff" points="815.49,-903.65 822.37,-911.71 822.02,-901.12 815.49,-903.65"/>
</a>
</g>
</g>
<!-- Node13 -->
<g id="Node000013" class="node">
<title>Node13</title>
<g id="a_Node000013"><a xlink:href="../../d9/d7e/class_hydro_couple_1_1_spatio_temporal_1_1_i_time_series_t_i_n_component_data_item.html" target="_top" xlink:title="The ITINComponentItem class.">
<polygon fill="white" stroke="transparent" points="1098,-86 905,-86 905,0 1098,0 1098,-86"/>
<text text-anchor="start" x="910.5" y="-74" font-family="Monaco" font-size="10.00">HydroCouple::SpatioTemporal</text>
<text text-anchor="start" x="910.5" y="-63" font-family="Monaco" font-size="10.00">::ITimeSeriesTINComponentDataItem</text>
<text text-anchor="start" x="1000" y="-48" font-family="Monaco" font-size="10.00"> </text>
<text text-anchor="start" x="917.5" y="-33" font-family="Monaco" font-size="10.00">+</text>
<text text-anchor="start" x="938.5" y="-33" font-family="Monaco" font-size="10.00">~ITimeSeriesTINComponent</text>
<text text-anchor="start" x="938.5" y="-22" font-family="Monaco" font-size="10.00">DataItem()</text>
<text text-anchor="start" x="917.5" y="-7" font-family="Monaco" font-size="10.00">+</text>
<text text-anchor="start" x="938.5" y="-7" font-family="Monaco" font-size="10.00">TIN()</text>
<polygon fill="#666666" stroke="#666666" points="905.5,-58 905.5,-58 1098.5,-58 1098.5,-58 905.5,-58"/>
<polygon fill="#666666" stroke="#666666" points="905.5,-43 905.5,-43 1098.5,-43 1098.5,-43 905.5,-43"/>
<polygon fill="none" stroke="#666666" points="905,0 905,-86 1098,-86 1098,0 905,0"/>
</a>
</g>
</g>
<!-- Node12&#45;&gt;Node13 -->
<g id="edge13_Node000012_Node000013" class="edge">
<title>Node12&#45;&gt;Node13</title>
<g id="a_edge13_Node000012_Node000013"><a xlink:title=" ">
<path fill="none" stroke="#63b8ff" d="M1001.5,-151.23C1001.5,-128.87 1001.5,-105.46 1001.5,-86.24"/>
<polygon fill="none" stroke="#63b8ff" points="998,-151.42 1001.5,-161.42 1005,-151.42 998,-151.42"/>
</a>
</g>
</g>
</g>
</svg>

<g id="navigator" transform="translate(0 0)" fill="#404254">
  <rect fill="#f2f5e9" fill-opacity="0.5" stroke="#606060" stroke-width=".5" x="0" y="0" width="60" height="60"/>
  <use id="zoomplus" xlink:href="#zoomPlus" x="17" y="9" onmousedown="handleZoom(evt,'in')"/>
  <use id="zoomminus" xlink:href="#zoomMin" x="42" y="9" onmousedown="handleZoom(evt,'out')"/>
  <use id="reset" xlink:href="#resetDef" x="30" y="36" onmousedown="handleReset()"/>
   <use id="arrowup" xlink:href="#arrowUp" x="0" y="0" onmousedown="handlePan(0,-1)"/>
  <use id="arrowright" xlink:href="#arrowRight" x="0" y="0" onmousedown="handlePan(1,0)"/>
  <use id="arrowdown" xlink:href="#arrowDown" x="0" y="0" onmousedown="handlePan(0,1)"/>
  <use id="arrowleft" xlink:href="#arrowLeft" x="0" y="0" onmousedown="handlePan(-1,0)"/>
</g>
<svg viewBox="0 0 15 15" width="100%" height="30px" preserveAspectRatio="xMaxYMin meet">
 <g id="arrow_out" transform="scale(0.3 0.3)">
  <a xlink:href="class_hydro_couple_1_1_temporal_1_1_i_time_series_component_data_item__inherit__graph_org.svg" target="_base">
   <rect id="button" ry="5" rx="5" y="6" x="6" height="38" width="38"
        fill="#f2f5e9" fill-opacity="0.5" stroke="#606060" stroke-width="1.0"/>
   <path id="arrow"
     d="M 11.500037,31.436501 C 11.940474,20.09759 22.043105,11.32322 32.158766,21.979434 L 37.068811,17.246167 C 37.068811,17.246167 37.088388,32 37.088388,32 L 22.160133,31.978069 C 22.160133,31.978069 26.997745,27.140456 26.997745,27.140456 C 18.528582,18.264221 13.291696,25.230495 11.500037,31.436501 z"
     style="fill:#404040;"/>
  </a>
 </g>
</svg>

<style type='text/css'>
<![CDATA[
[data-mouse-over-selected='false'] { opacity: 0.7; }
[data-mouse-over-selected='true']  { opacity: 1.0; }
]]>
</style>
<script type="application/ecmascript"><![CDATA[
document.addEventListener('DOMContentLoaded', (event) => {
  highlightEdges();
  highlightAdjacentNodes();
});
]]></script>
</svg>
