<?xml version="1.0" encoding="UTF-8" standalone="no"?>
<!DOCTYPE svg PUBLIC "-//W3C//DTD SVG 1.1//EN"
 "http://www.w3.org/Graphics/SVG/1.1/DTD/svg11.dtd">
<!-- Generated by graphviz version 2.43.0 (0)
 -->
<!-- Title: LinearRing Pages: 1 -->
<svg width="87pt" height="168pt"
 viewBox="0.00 0.00 86.50 168.00" xmlns="http://www.w3.org/2000/svg" xmlns:xlink="http://www.w3.org/1999/xlink">
<g id="graph0" class="graph" transform="scale(1 1) rotate(0) translate(4 164)">
<title>LinearRing</title>
<!-- Node1 -->
<g id="Node000001" class="node">
<title>Node1</title>
<g id="a_Node000001"><a xlink:title="The LinearRing struct.">
<polygon fill="#999999" stroke="transparent" points="73,-49 0,-49 0,0 73,0 73,-49"/>
<text text-anchor="start" x="11" y="-36.5" font-family="Monaco" font-size="10.00">LinearRing</text>
<text text-anchor="start" x="4.5" y="-21.5" font-family="Monaco" font-size="10.00">+</text>
<text text-anchor="start" x="17.5" y="-21.5" font-family="Monaco" font-size="10.00">numPoints</text>
<text text-anchor="start" x="35" y="-6.5" font-family="Monaco" font-size="10.00"> </text>
<polygon fill="#666666" stroke="#666666" points="0.5,-31.5 0.5,-31.5 73.5,-31.5 73.5,-31.5 0.5,-31.5"/>
<polygon fill="#666666" stroke="#666666" points="0.5,-16.5 0.5,-16.5 15.5,-16.5 15.5,-16.5 0.5,-16.5"/>
<polygon fill="#666666" stroke="#666666" points="15.5,-16.5 15.5,-16.5 73.5,-16.5 73.5,-16.5 15.5,-16.5"/>
<polygon fill="none" stroke="#666666" points="0,0 0,-49 73,-49 73,0 0,0"/>
</a>
</g>
</g>
<!-- Node2 -->
<g id="Node000002" class="node">
<title>Node2</title>
<g id="a_Node000002"><a xlink:href="../../d8/dc8/struct_point.html" target="_top" xlink:title="The Point struct.">
<polygon fill="white" stroke="transparent" points="54,-160 19,-160 19,-96 54,-96 54,-160"/>
<text text-anchor="start" x="24.5" y="-148" font-family="Monaco" font-size="10.00">Point</text>
<text text-anchor="start" x="25" y="-133" font-family="Monaco" font-size="10.00">+</text>
<text text-anchor="start" x="39.5" y="-133" font-family="Monaco" font-size="10.00">x</text>
<text text-anchor="start" x="25" y="-118" font-family="Monaco" font-size="10.00">+</text>
<text text-anchor="start" x="39.5" y="-118" font-family="Monaco" font-size="10.00">y</text>
<text text-anchor="start" x="35" y="-103" font-family="Monaco" font-size="10.00"> </text>
<polygon fill="#666666" stroke="#666666" points="19.5,-143 19.5,-143 54.5,-143 54.5,-143 19.5,-143"/>
<polygon fill="#666666" stroke="#666666" points="19.5,-113 19.5,-113 37.5,-113 37.5,-113 19.5,-113"/>
<polygon fill="#666666" stroke="#666666" points="37.5,-113 37.5,-113 54.5,-113 54.5,-113 37.5,-113"/>
<polygon fill="none" stroke="#666666" points="19,-96 19,-160 54,-160 54,-96 19,-96"/>
</a>
</g>
</g>
<!-- Node2&#45;&gt;Node1 -->
<g id="edge1_Node000001_Node000002" class="edge">
<title>Node2&#45;&gt;Node1</title>
<g id="a_edge1_Node000001_Node000002"><a xlink:title=" ">
<path fill="none" stroke="#63b8ff" d="M36.5,-96C36.5,-85.07 36.5,-72.69 36.5,-61.39"/>
<polygon fill="none" stroke="#63b8ff" points="36.5,-61.23 32.5,-55.23 36.5,-49.23 40.5,-55.23 36.5,-61.23"/>
</a>
</g>
<text text-anchor="middle" x="57.5" y="-70" font-family="Monaco" font-size="10.00" fill="grey"> +points</text>
</g>
</g>
</svg>
