<?xml version="1.0" encoding="UTF-8" standalone="no"?>
<!DOCTYPE svg PUBLIC "-//W3C//DTD SVG 1.1//EN"
 "http://www.w3.org/Graphics/SVG/1.1/DTD/svg11.dtd">
<!-- Generated by graphviz version 2.43.0 (0)
 -->
<!-- Title: WKBPolygonZ Pages: 1 -->
<svg width="94pt" height="320pt"
 viewBox="0.00 0.00 94.00 320.00" xmlns="http://www.w3.org/2000/svg" xmlns:xlink="http://www.w3.org/1999/xlink">
<g id="graph0" class="graph" transform="scale(1 1) rotate(0) translate(4 316)">
<title>WKBPolygonZ</title>
<!-- Node1 -->
<g id="node1" class="node">
<title>Node1</title>
<g id="a_node1"><a xlink:title="The WKBPolygonZ struct.">
<polygon fill="#bfbfbf" stroke="black" points="0,-0.5 0,-79.5 86,-79.5 86,-0.5 0,-0.5"/>
<text text-anchor="middle" x="43" y="-67.5" font-family="Monaco" font-size="10.00">WKBPolygonZ</text>
<polyline fill="none" stroke="black" points="0,-60.5 86,-60.5 "/>
<text text-anchor="start" x="8" y="-48.5" font-family="Monaco" font-size="10.00">+ byteOrder</text>
<text text-anchor="start" x="8" y="-37.5" font-family="Monaco" font-size="10.00">+ numRings</text>
<text text-anchor="start" x="8" y="-26.5" font-family="Monaco" font-size="10.00">+ wkbType</text>
<polyline fill="none" stroke="black" points="0,-19.5 86,-19.5 "/>
<text text-anchor="middle" x="43" y="-7.5" font-family="Monaco" font-size="10.00"> </text>
</a>
</g>
</g>
<!-- Node2 -->
<g id="node2" class="node">
<title>Node2</title>
<g id="a_node2"><a xlink:href="../../d2/d2c/struct_linear_ring_z.html" target="_top" xlink:title="The LinearRingZ struct.">
<polygon fill="none" stroke="black" points="3,-127.5 3,-184.5 83,-184.5 83,-127.5 3,-127.5"/>
<text text-anchor="middle" x="43" y="-172.5" font-family="Monaco" font-size="10.00">LinearRingZ</text>
<polyline fill="none" stroke="black" points="3,-165.5 83,-165.5 "/>
<text text-anchor="start" x="11" y="-153.5" font-family="Monaco" font-size="10.00">+ numPoints</text>
<polyline fill="none" stroke="black" points="3,-146.5 83,-146.5 "/>
<text text-anchor="middle" x="43" y="-134.5" font-family="Monaco" font-size="10.00"> </text>
</a>
</g>
</g>
<!-- Node2&#45;&gt;Node1 -->
<g id="edge1" class="edge">
<title>Node2&#45;&gt;Node1</title>
<path fill="none" stroke="#404040" d="M43,-127.4C43,-116.63 43,-103.93 43,-91.62"/>
<polygon fill="none" stroke="#404040" points="43,-91.54 39,-85.54 43,-79.54 47,-85.54 43,-91.54"/>
<text text-anchor="middle" x="61" y="-101" font-family="Monaco" font-size="10.00"> +rings</text>
</g>
<!-- Node3 -->
<g id="node3" class="node">
<title>Node3</title>
<g id="a_node3"><a xlink:href="../../d6/d0c/struct_point_z.html" target="_top" xlink:title="The PointZ struct.">
<polygon fill="none" stroke="black" points="19,-232.5 19,-311.5 67,-311.5 67,-232.5 19,-232.5"/>
<text text-anchor="middle" x="43" y="-299.5" font-family="Monaco" font-size="10.00">PointZ</text>
<polyline fill="none" stroke="black" points="19,-292.5 67,-292.5 "/>
<text text-anchor="start" x="27" y="-280.5" font-family="Monaco" font-size="10.00">+ x</text>
<text text-anchor="start" x="27" y="-269.5" font-family="Monaco" font-size="10.00">+ y</text>
<text text-anchor="start" x="27" y="-258.5" font-family="Monaco" font-size="10.00">+ z</text>
<polyline fill="none" stroke="black" points="19,-251.5 67,-251.5 "/>
<text text-anchor="middle" x="43" y="-239.5" font-family="Monaco" font-size="10.00"> </text>
</a>
</g>
</g>
<!-- Node3&#45;&gt;Node2 -->
<g id="edge2" class="edge">
<title>Node3&#45;&gt;Node2</title>
<path fill="none" stroke="#404040" d="M43,-232.4C43,-220.93 43,-208.33 43,-196.78"/>
<polygon fill="none" stroke="#404040" points="43,-196.75 39,-190.75 43,-184.75 47,-190.75 43,-196.75"/>
<text text-anchor="middle" x="64" y="-206" font-family="Monaco" font-size="10.00"> +points</text>
</g>
</g>
</svg>
