<?xml version="1.0" encoding="UTF-8" standalone="no"?>
<!DOCTYPE svg PUBLIC "-//W3C//DTD SVG 1.1//EN"
 "http://www.w3.org/Graphics/SVG/1.1/DTD/svg11.dtd">
<!-- Generated by graphviz version 2.43.0 (0)
 -->
<!-- Title: /home/runner/work/HydroCouple/HydroCouple/HydroCouple/include/hydrocouple.h Pages: 1 -->
<svg width="227pt" height="106pt"
 viewBox="0.00 0.00 226.50 106.00" xmlns="http://www.w3.org/2000/svg" xmlns:xlink="http://www.w3.org/1999/xlink">
<g id="graph0" class="graph" transform="scale(1 1) rotate(0) translate(4 102)">
<title>/home/runner/work/HydroCouple/HydroCouple/HydroCouple/include/hydrocouple.h</title>
<!-- Node1 -->
<g id="node1" class="node">
<title>Node1</title>
<g id="a_node1"><a xlink:title=" ">
<polygon fill="#bfbfbf" stroke="black" points="31,-56.5 31,-97.5 206,-97.5 206,-56.5 31,-56.5"/>
<text text-anchor="start" x="39" y="-85.5" font-family="Monaco" font-size="10.00">/home/runner/work/HydroCouple</text>
<text text-anchor="start" x="39" y="-74.5" font-family="Monaco" font-size="10.00">/HydroCouple/HydroCouple</text>
<text text-anchor="middle" x="118.5" y="-63.5" font-family="Monaco" font-size="10.00">/include/hydrocouple.h</text>
</a>
</g>
</g>
<!-- Node2 -->
<g id="node2" class="node">
<title>Node2</title>
<g id="a_node2"><a xlink:title=" ">
<polygon fill="none" stroke="#bfbfbf" points="0,-0.5 0,-19.5 35,-19.5 35,-0.5 0,-0.5"/>
<text text-anchor="middle" x="17.5" y="-7.5" font-family="Monaco" font-size="10.00">any</text>
</a>
</g>
</g>
<!-- Node1&#45;&gt;Node2 -->
<g id="edge1" class="edge">
<title>Node1&#45;&gt;Node2</title>
<path fill="none" stroke="midnightblue" d="M88.2,-56.5C72.56,-46.44 53.84,-34.38 39.59,-25.21"/>
<polygon fill="midnightblue" stroke="midnightblue" points="41.25,-22.12 30.94,-19.65 37.46,-28.01 41.25,-22.12"/>
</g>
<!-- Node3 -->
<g id="node3" class="node">
<title>Node3</title>
<g id="a_node3"><a xlink:title=" ">
<polygon fill="none" stroke="#bfbfbf" points="53,-0.5 53,-19.5 118,-19.5 118,-0.5 53,-0.5"/>
<text text-anchor="middle" x="85.5" y="-7.5" font-family="Monaco" font-size="10.00">functional</text>
</a>
</g>
</g>
<!-- Node1&#45;&gt;Node3 -->
<g id="edge2" class="edge">
<title>Node1&#45;&gt;Node3</title>
<path fill="none" stroke="midnightblue" d="M108.6,-56.5C104.12,-47.68 98.87,-37.34 94.51,-28.74"/>
<polygon fill="midnightblue" stroke="midnightblue" points="97.54,-26.98 89.89,-19.65 91.3,-30.15 97.54,-26.98"/>
</g>
<!-- Node4 -->
<g id="node4" class="node">
<title>Node4</title>
<g id="a_node4"><a xlink:title=" ">
<polygon fill="none" stroke="#bfbfbf" points="136.5,-0.5 136.5,-19.5 168.5,-19.5 168.5,-0.5 136.5,-0.5"/>
<text text-anchor="middle" x="152.5" y="-7.5" font-family="Monaco" font-size="10.00">list</text>
</a>
</g>
</g>
<!-- Node1&#45;&gt;Node4 -->
<g id="edge3" class="edge">
<title>Node1&#45;&gt;Node4</title>
<path fill="none" stroke="midnightblue" d="M128.7,-56.5C133.31,-47.68 138.72,-37.34 143.22,-28.74"/>
<polygon fill="midnightblue" stroke="midnightblue" points="146.44,-30.14 147.97,-19.65 140.24,-26.89 146.44,-30.14"/>
</g>
<!-- Node5 -->
<g id="node5" class="node">
<title>Node5</title>
<g id="a_node5"><a xlink:title=" ">
<polygon fill="none" stroke="#bfbfbf" points="186.5,-0.5 186.5,-19.5 218.5,-19.5 218.5,-0.5 186.5,-0.5"/>
<text text-anchor="middle" x="202.5" y="-7.5" font-family="Monaco" font-size="10.00">set</text>
</a>
</g>
</g>
<!-- Node1&#45;&gt;Node5 -->
<g id="edge4" class="edge">
<title>Node1&#45;&gt;Node5</title>
<path fill="none" stroke="midnightblue" d="M143.7,-56.5C156.33,-46.72 171.39,-35.07 183.11,-26.01"/>
<polygon fill="midnightblue" stroke="midnightblue" points="185.55,-28.54 191.32,-19.65 181.27,-23 185.55,-28.54"/>
</g>
</g>
</svg>
