<?xml version="1.0" encoding="UTF-8" standalone="no"?>
<!DOCTYPE svg PUBLIC "-//W3C//DTD SVG 1.1//EN"
 "http://www.w3.org/Graphics/SVG/1.1/DTD/svg11.dtd">
<!-- Generated by graphviz version 2.43.0 (0)
 -->
<!-- Title: /home/runner/work/HydroCouple/HydroCouple/HydroCouple/include/hydrocouple.h Pages: 1 -->
<svg width="560pt" height="104pt"
 viewBox="0.00 0.00 559.50 104.00" xmlns="http://www.w3.org/2000/svg" xmlns:xlink="http://www.w3.org/1999/xlink">
<g id="graph0" class="graph" transform="scale(1 1) rotate(0) translate(4 100)">
<title>/home/runner/work/HydroCouple/HydroCouple/HydroCouple/include/hydrocouple.h</title>
<!-- Node1 -->
<g id="Node000001" class="node">
<title>Node1</title>
<g id="a_Node000001"><a xlink:title=" ">
<polygon fill="#999999" stroke="#666666" points="362,-96 187,-96 187,-55 362,-55 362,-96"/>
<text text-anchor="start" x="195" y="-84" font-family="Monaco" font-size="10.00">/home/runner/work/HydroCouple</text>
<text text-anchor="start" x="195" y="-73" font-family="Monaco" font-size="10.00">/HydroCouple/HydroCouple</text>
<text text-anchor="middle" x="274.5" y="-62" font-family="Monaco" font-size="10.00">/include/hydrocouple.h</text>
</a>
</g>
</g>
<!-- Node2 -->
<g id="Node000002" class="node">
<title>Node2</title>
<g id="a_Node000002"><a xlink:title=" ">
<polygon fill="#e0e0e0" stroke="#999999" points="51,-19 0,-19 0,0 51,0 51,-19"/>
<text text-anchor="middle" x="25.5" y="-7" font-family="Monaco" font-size="10.00">variant</text>
</a>
</g>
</g>
<!-- Node1&#45;&gt;Node2 -->
<g id="edge1_Node000001_Node000002" class="edge">
<title>Node1&#45;&gt;Node2</title>
<g id="a_edge1_Node000001_Node000002"><a xlink:title=" ">
<path fill="none" stroke="#63b8ff" d="M198.44,-54.95C152.75,-43.21 96.75,-28.81 61.09,-19.65"/>
<polygon fill="#63b8ff" stroke="#63b8ff" points="61.71,-16.19 51.15,-17.09 59.97,-22.97 61.71,-16.19"/>
</a>
</g>
</g>
<!-- Node3 -->
<g id="Node000003" class="node">
<title>Node3</title>
<g id="a_Node000003"><a xlink:title=" ">
<polygon fill="#e0e0e0" stroke="#999999" points="113.5,-19 69.5,-19 69.5,0 113.5,0 113.5,-19"/>
<text text-anchor="middle" x="91.5" y="-7" font-family="Monaco" font-size="10.00">string</text>
</a>
</g>
</g>
<!-- Node1&#45;&gt;Node3 -->
<g id="edge2_Node000001_Node000003" class="edge">
<title>Node1&#45;&gt;Node3</title>
<g id="a_edge2_Node000001_Node000003"><a xlink:title=" ">
<path fill="none" stroke="#63b8ff" d="M218.6,-54.95C187.28,-44 149.38,-30.74 123.15,-21.57"/>
<polygon fill="#63b8ff" stroke="#63b8ff" points="124.31,-18.27 113.71,-18.27 121.99,-24.87 124.31,-18.27"/>
</a>
</g>
</g>
<!-- Node4 -->
<g id="Node000004" class="node">
<title>Node4</title>
<g id="a_Node000004"><a xlink:title=" ">
<polygon fill="#e0e0e0" stroke="#999999" points="173.5,-19 131.5,-19 131.5,0 173.5,0 173.5,-19"/>
<text text-anchor="middle" x="152.5" y="-7" font-family="Monaco" font-size="10.00">array</text>
</a>
</g>
</g>
<!-- Node1&#45;&gt;Node4 -->
<g id="edge3_Node000001_Node000004" class="edge">
<title>Node1&#45;&gt;Node4</title>
<g id="a_edge3_Node000001_Node000004"><a xlink:title=" ">
<path fill="none" stroke="#63b8ff" d="M237.23,-54.95C217.96,-44.84 194.94,-32.76 177.76,-23.75"/>
<polygon fill="#63b8ff" stroke="#63b8ff" points="179.36,-20.64 168.88,-19.09 176.11,-26.84 179.36,-20.64"/>
</a>
</g>
</g>
<!-- Node5 -->
<g id="Node000005" class="node">
<title>Node5</title>
<g id="a_Node000005"><a xlink:title=" ">
<polygon fill="#e0e0e0" stroke="#999999" points="239,-19 192,-19 192,0 239,0 239,-19"/>
<text text-anchor="middle" x="215.5" y="-7" font-family="Monaco" font-size="10.00">vector</text>
</a>
</g>
</g>
<!-- Node1&#45;&gt;Node5 -->
<g id="edge4_Node000001_Node000005" class="edge">
<title>Node1&#45;&gt;Node5</title>
<g id="a_edge4_Node000001_Node000005"><a xlink:title=" ">
<path fill="none" stroke="#63b8ff" d="M256.48,-54.95C248.16,-45.92 238.39,-35.33 230.48,-26.75"/>
<polygon fill="#63b8ff" stroke="#63b8ff" points="232.93,-24.24 223.58,-19.26 227.78,-28.99 232.93,-24.24"/>
</a>
</g>
</g>
<!-- Node6 -->
<g id="Node000006" class="node">
<title>Node6</title>
<g id="a_Node000006"><a xlink:title=" ">
<polygon fill="#e0e0e0" stroke="#999999" points="292,-19 257,-19 257,0 292,0 292,-19"/>
<text text-anchor="middle" x="274.5" y="-7" font-family="Monaco" font-size="10.00">any</text>
</a>
</g>
</g>
<!-- Node1&#45;&gt;Node6 -->
<g id="edge5_Node000001_Node000006" class="edge">
<title>Node1&#45;&gt;Node6</title>
<g id="a_edge5_Node000001_Node000006"><a xlink:title=" ">
<path fill="none" stroke="#63b8ff" d="M274.5,-54.95C274.5,-46.85 274.5,-37.5 274.5,-29.47"/>
<polygon fill="#63b8ff" stroke="#63b8ff" points="278,-29.26 274.5,-19.26 271,-29.26 278,-29.26"/>
</a>
</g>
</g>
<!-- Node7 -->
<g id="Node000007" class="node">
<title>Node7</title>
<g id="a_Node000007"><a xlink:title=" ">
<polygon fill="#e0e0e0" stroke="#999999" points="375,-19 310,-19 310,0 375,0 375,-19"/>
<text text-anchor="middle" x="342.5" y="-7" font-family="Monaco" font-size="10.00">functional</text>
</a>
</g>
</g>
<!-- Node1&#45;&gt;Node7 -->
<g id="edge6_Node000001_Node000007" class="edge">
<title>Node1&#45;&gt;Node7</title>
<g id="a_edge6_Node000001_Node000007"><a xlink:title=" ">
<path fill="none" stroke="#63b8ff" d="M295.27,-54.95C305.06,-45.74 316.58,-34.9 325.79,-26.23"/>
<polygon fill="#63b8ff" stroke="#63b8ff" points="328.31,-28.66 333.19,-19.26 323.51,-23.57 328.31,-28.66"/>
</a>
</g>
</g>
<!-- Node8 -->
<g id="Node000008" class="node">
<title>Node8</title>
<g id="a_Node000008"><a xlink:title=" ">
<polygon fill="#e0e0e0" stroke="#999999" points="425.5,-19 393.5,-19 393.5,0 425.5,0 425.5,-19"/>
<text text-anchor="middle" x="409.5" y="-7" font-family="Monaco" font-size="10.00">list</text>
</a>
</g>
</g>
<!-- Node1&#45;&gt;Node8 -->
<g id="edge7_Node000001_Node000008" class="edge">
<title>Node1&#45;&gt;Node8</title>
<g id="a_edge7_Node000001_Node000008"><a xlink:title=" ">
<path fill="none" stroke="#63b8ff" d="M315.74,-54.95C338.16,-44.32 365.16,-31.52 384.42,-22.39"/>
<polygon fill="#63b8ff" stroke="#63b8ff" points="385.92,-25.55 393.45,-18.11 382.92,-19.23 385.92,-25.55"/>
</a>
</g>
</g>
<!-- Node9 -->
<g id="Node000009" class="node">
<title>Node9</title>
<g id="a_Node000009"><a xlink:title=" ">
<polygon fill="#e0e0e0" stroke="#999999" points="475.5,-19 443.5,-19 443.5,0 475.5,0 475.5,-19"/>
<text text-anchor="middle" x="459.5" y="-7" font-family="Monaco" font-size="10.00">set</text>
</a>
</g>
</g>
<!-- Node1&#45;&gt;Node9 -->
<g id="edge8_Node000001_Node000009" class="edge">
<title>Node1&#45;&gt;Node9</title>
<g id="a_edge8_Node000001_Node000009"><a xlink:title=" ">
<path fill="none" stroke="#63b8ff" d="M331.01,-54.95C365.16,-43.14 407.05,-28.64 433.52,-19.49"/>
<polygon fill="#63b8ff" stroke="#63b8ff" points="434.89,-22.72 443.19,-16.14 432.6,-16.1 434.89,-22.72"/>
</a>
</g>
</g>
<!-- Node10 -->
<g id="Node000010" class="node">
<title>Node10</title>
<g id="a_Node000010"><a xlink:title=" ">
<polygon fill="#e0e0e0" stroke="#999999" points="551.5,-19 493.5,-19 493.5,0 551.5,0 551.5,-19"/>
<text text-anchor="middle" x="522.5" y="-7" font-family="Monaco" font-size="10.00">memory</text>
</a>
</g>
</g>
<!-- Node1&#45;&gt;Node10 -->
<g id="edge9_Node000001_Node000010" class="edge">
<title>Node1&#45;&gt;Node10</title>
<g id="a_edge9_Node000001_Node000010"><a xlink:title=" ">
<path fill="none" stroke="#63b8ff" d="M350.26,-54.95C394.21,-43.61 447.74,-29.79 483.34,-20.61"/>
<polygon fill="#63b8ff" stroke="#63b8ff" points="484.53,-23.91 493.33,-18.03 482.78,-17.14 484.53,-23.91"/>
</a>
</g>
</g>
</g>
</svg>
