<?xml version="1.0" encoding="UTF-8" standalone="no"?>
<!DOCTYPE svg PUBLIC "-//W3C//DTD SVG 1.1//EN"
 "http://www.w3.org/Graphics/SVG/1.1/DTD/svg11.dtd">
<!-- Generated by graphviz version 2.43.0 (0)
 -->
<!-- Title: HydroCouple::IDimension Pages: 1 -->
<svg width="204pt" height="436pt"
 viewBox="0.00 0.00 204.00 436.00" xmlns="http://www.w3.org/2000/svg" xmlns:xlink="http://www.w3.org/1999/xlink">
<g id="graph0" class="graph" transform="scale(1 1) rotate(0) translate(4 432)">
<title>HydroCouple::IDimension</title>
<!-- Node1 -->
<g id="node1" class="node">
<title>Node1</title>
<g id="a_node1"><a xlink:title="IDimension provides the properties of the dimensions of a variable.">
<polygon fill="#bfbfbf" stroke="black" points="27.5,-0.5 27.5,-57.5 168.5,-57.5 168.5,-0.5 27.5,-0.5"/>
<text text-anchor="middle" x="98" y="-45.5" font-family="Monaco" font-size="10.00">HydroCouple::IDimension</text>
<polyline fill="none" stroke="black" points="27.5,-38.5 168.5,-38.5 "/>
<text text-anchor="middle" x="98" y="-26.5" font-family="Monaco" font-size="10.00"> </text>
<polyline fill="none" stroke="black" points="27.5,-19.5 168.5,-19.5 "/>
<text text-anchor="start" x="35.5" y="-7.5" font-family="Monaco" font-size="10.00">+ ~IDimension()</text>
</a>
</g>
</g>
<!-- Node2 -->
<g id="node2" class="node">
<title>Node2</title>
<g id="a_node2"><a xlink:href="../../d2/d2a/class_hydro_couple_1_1_i_identity.html" target="_top" xlink:title="IIdentity interface class defines a method to get the Id of an HydroCouple entity.">
<polygon fill="none" stroke="black" points="35,-94.5 35,-162.5 161,-162.5 161,-94.5 35,-94.5"/>
<text text-anchor="middle" x="98" y="-150.5" font-family="Monaco" font-size="10.00">HydroCouple::IIdentity</text>
<polyline fill="none" stroke="black" points="35,-143.5 161,-143.5 "/>
<text text-anchor="middle" x="98" y="-131.5" font-family="Monaco" font-size="10.00"> </text>
<polyline fill="none" stroke="black" points="35,-124.5 161,-124.5 "/>
<text text-anchor="start" x="43" y="-112.5" font-family="Monaco" font-size="10.00">+ ~IIdentity()</text>
<text text-anchor="start" x="43" y="-101.5" font-family="Monaco" font-size="10.00">+ id()</text>
</a>
</g>
</g>
<!-- Node2&#45;&gt;Node1 -->
<g id="edge1" class="edge">
<title>Node2&#45;&gt;Node1</title>
<path fill="none" stroke="midnightblue" d="M98,-84.45C98,-75.4 98,-66.09 98,-57.78"/>
<polygon fill="none" stroke="midnightblue" points="94.5,-84.49 98,-94.49 101.5,-84.49 94.5,-84.49"/>
</g>
<!-- Node3 -->
<g id="node3" class="node">
<title>Node3</title>
<g id="a_node3"><a xlink:href="../../db/d64/class_hydro_couple_1_1_i_description.html" target="_top" xlink:title="IDescription interface class provides descriptive information on a HydroCouple object.">
<polygon fill="none" stroke="black" points="26,-199.5 26,-300.5 170,-300.5 170,-199.5 26,-199.5"/>
<text text-anchor="middle" x="98" y="-288.5" font-family="Monaco" font-size="10.00">HydroCouple::IDescription</text>
<polyline fill="none" stroke="black" points="26,-281.5 170,-281.5 "/>
<text text-anchor="middle" x="98" y="-269.5" font-family="Monaco" font-size="10.00"> </text>
<polyline fill="none" stroke="black" points="26,-262.5 170,-262.5 "/>
<text text-anchor="start" x="34" y="-250.5" font-family="Monaco" font-size="10.00">+ ~IDescription()</text>
<text text-anchor="start" x="34" y="-239.5" font-family="Monaco" font-size="10.00">+ caption()</text>
<text text-anchor="start" x="34" y="-228.5" font-family="Monaco" font-size="10.00">+ setCaption()</text>
<text text-anchor="start" x="34" y="-217.5" font-family="Monaco" font-size="10.00">+ description()</text>
<text text-anchor="start" x="34" y="-206.5" font-family="Monaco" font-size="10.00">+ setDescription()</text>
</a>
</g>
</g>
<!-- Node3&#45;&gt;Node2 -->
<g id="edge2" class="edge">
<title>Node3&#45;&gt;Node2</title>
<path fill="none" stroke="midnightblue" d="M98,-189.17C98,-180.11 98,-171.05 98,-162.83"/>
<polygon fill="none" stroke="midnightblue" points="94.5,-189.36 98,-199.36 101.5,-189.36 94.5,-189.36"/>
</g>
<!-- Node4 -->
<g id="node4" class="node">
<title>Node4</title>
<g id="a_node4"><a xlink:href="../../dd/dbf/class_hydro_couple_1_1_i_property_changed.html" target="_top" xlink:title="IPropertyChanged interface is used to emit signal/event when a property of an object changes.">
<polygon fill="none" stroke="black" points="0,-337.5 0,-427.5 196,-427.5 196,-337.5 0,-337.5"/>
<text text-anchor="middle" x="98" y="-415.5" font-family="Monaco" font-size="10.00">HydroCouple::IPropertyChanged</text>
<polyline fill="none" stroke="black" points="0,-408.5 196,-408.5 "/>
<text text-anchor="middle" x="98" y="-396.5" font-family="Monaco" font-size="10.00"> </text>
<polyline fill="none" stroke="black" points="0,-389.5 196,-389.5 "/>
<text text-anchor="start" x="8" y="-377.5" font-family="Monaco" font-size="10.00">+ ~IPropertyChanged()</text>
<text text-anchor="start" x="8" y="-366.5" font-family="Monaco" font-size="10.00">+ registerPropertyChangedListener()</text>
<text text-anchor="start" x="8" y="-355.5" font-family="Monaco" font-size="10.00">+ deRegisterPropertyChanged</text>
<text text-anchor="start" x="8" y="-344.5" font-family="Monaco" font-size="10.00">Listener()</text>
</a>
</g>
</g>
<!-- Node4&#45;&gt;Node3 -->
<g id="edge3" class="edge">
<title>Node4&#45;&gt;Node3</title>
<path fill="none" stroke="midnightblue" d="M98,-327.13C98,-318.31 98,-309.22 98,-300.52"/>
<polygon fill="none" stroke="midnightblue" points="94.5,-327.32 98,-337.32 101.5,-327.32 94.5,-327.32"/>
</g>
</g>
</svg>
