<?xml version="1.0" encoding="UTF-8" standalone="no"?>
<!DOCTYPE svg PUBLIC "-//W3C//DTD SVG 1.1//EN"
 "http://www.w3.org/Graphics/SVG/1.1/DTD/svg11.dtd">
<!-- Generated by graphviz version 2.43.0 (0)
 -->
<!-- Title: WKBMultiLineStringM Pages: 1 -->
<svg width="133pt" height="342pt"
 viewBox="0.00 0.00 133.00 342.00" xmlns="http://www.w3.org/2000/svg" xmlns:xlink="http://www.w3.org/1999/xlink">
<g id="graph0" class="graph" transform="scale(1 1) rotate(0) translate(4 338)">
<title>WKBMultiLineStringM</title>
<!-- Node1 -->
<g id="node1" class="node">
<title>Node1</title>
<g id="a_node1"><a xlink:title="The WKBMultiLineStringM struct.">
<polygon fill="#bfbfbf" stroke="black" points="0,-0.5 0,-79.5 122,-79.5 122,-0.5 0,-0.5"/>
<text text-anchor="middle" x="61" y="-67.5" font-family="Monaco" font-size="10.00">WKBMultiLineStringM</text>
<polyline fill="none" stroke="black" points="0,-60.5 122,-60.5 "/>
<text text-anchor="start" x="8" y="-48.5" font-family="Monaco" font-size="10.00">+ byteOrder</text>
<text text-anchor="start" x="8" y="-37.5" font-family="Monaco" font-size="10.00">+ numLineStrings</text>
<text text-anchor="start" x="8" y="-26.5" font-family="Monaco" font-size="10.00">+ wkbType</text>
<polyline fill="none" stroke="black" points="0,-19.5 122,-19.5 "/>
<text text-anchor="middle" x="61" y="-7.5" font-family="Monaco" font-size="10.00"> </text>
</a>
</g>
</g>
<!-- Node2 -->
<g id="node2" class="node">
<title>Node2</title>
<g id="a_node2"><a xlink:href="../../db/d52/struct_w_k_b_line_string_m.html" target="_top" xlink:title="The WKBLineStringM struct.">
<polygon fill="none" stroke="black" points="12,-127.5 12,-206.5 110,-206.5 110,-127.5 12,-127.5"/>
<text text-anchor="middle" x="61" y="-194.5" font-family="Monaco" font-size="10.00">WKBLineStringM</text>
<polyline fill="none" stroke="black" points="12,-187.5 110,-187.5 "/>
<text text-anchor="start" x="20" y="-175.5" font-family="Monaco" font-size="10.00">+ byteOrder</text>
<text text-anchor="start" x="20" y="-164.5" font-family="Monaco" font-size="10.00">+ numPoints</text>
<text text-anchor="start" x="20" y="-153.5" font-family="Monaco" font-size="10.00">+ wkbType</text>
<polyline fill="none" stroke="black" points="12,-146.5 110,-146.5 "/>
<text text-anchor="middle" x="61" y="-134.5" font-family="Monaco" font-size="10.00"> </text>
</a>
</g>
</g>
<!-- Node2&#45;&gt;Node1 -->
<g id="edge1" class="edge">
<title>Node2&#45;&gt;Node1</title>
<path fill="none" stroke="#404040" d="M61,-127.48C61,-116.19 61,-103.67 61,-91.75"/>
<polygon fill="none" stroke="#404040" points="61,-91.61 57,-85.61 61,-79.61 65,-85.61 61,-91.61"/>
<text text-anchor="middle" x="93" y="-101" font-family="Monaco" font-size="10.00"> +lineStrings</text>
</g>
<!-- Node3 -->
<g id="node3" class="node">
<title>Node3</title>
<g id="a_node3"><a xlink:href="../../de/d55/struct_point_m.html" target="_top" xlink:title="The PointM struct.">
<polygon fill="none" stroke="black" points="36,-254.5 36,-333.5 86,-333.5 86,-254.5 36,-254.5"/>
<text text-anchor="middle" x="61" y="-321.5" font-family="Monaco" font-size="10.00">PointM</text>
<polyline fill="none" stroke="black" points="36,-314.5 86,-314.5 "/>
<text text-anchor="start" x="44" y="-302.5" font-family="Monaco" font-size="10.00">+ x</text>
<text text-anchor="start" x="44" y="-291.5" font-family="Monaco" font-size="10.00">+ y</text>
<text text-anchor="start" x="44" y="-280.5" font-family="Monaco" font-size="10.00">+ m</text>
<polyline fill="none" stroke="black" points="36,-273.5 86,-273.5 "/>
<text text-anchor="middle" x="61" y="-261.5" font-family="Monaco" font-size="10.00"> </text>
</a>
</g>
</g>
<!-- Node3&#45;&gt;Node2 -->
<g id="edge2" class="edge">
<title>Node3&#45;&gt;Node2</title>
<path fill="none" stroke="#404040" d="M61,-254.48C61,-243.19 61,-230.67 61,-218.75"/>
<polygon fill="none" stroke="#404040" points="61,-218.61 57,-212.61 61,-206.61 65,-212.61 61,-218.61"/>
<text text-anchor="middle" x="82" y="-228" font-family="Monaco" font-size="10.00"> +points</text>
</g>
</g>
</svg>
