<?xml version="1.0" encoding="UTF-8" standalone="no"?>
<!DOCTYPE svg PUBLIC "-//W3C//DTD SVG 1.1//EN"
 "http://www.w3.org/Graphics/SVG/1.1/DTD/svg11.dtd">
<!-- Generated by graphviz version 2.43.0 (0)
 -->
<!-- Title: HydroCouple::IAdaptedOutputFactory Pages: 1 -->
<!--zoomable 595 -->

<svg id="main" version="1.1" xmlns="http://www.w3.org/2000/svg" xmlns:xlink="http://www.w3.org/1999/xlink" xml:space="preserve" onload="init(evt)">
<style type="text/css"><![CDATA[
.node, .edge {opacity: 0.7;}
.node.selected, .edge.selected {opacity: 1;}
.edge:hover path { stroke: red; }
.edge:hover polygon { stroke: red; fill: red; }
]]></style>

<defs>
  <circle id="rim" cx="0" cy="0" r="7"/>
  <circle id="rim2" cx="0" cy="0" r="3.5"/>
  <g id="zoomPlus">
    <use xlink:href="#rim" fill="#404040"><set attributeName="fill" to="#808080" begin="zoomplus.mouseover" end="zoomplus.mouseout"/></use>
    <path d="M-4,0h8M0,-4v8" fill="none" stroke="white" stroke-width="1.5" pointer-events="none"/>
  </g>
  <g id="zoomMin">
    <use xlink:href="#rim" fill="#404040"><set attributeName="fill" to="#808080" begin="zoomminus.mouseover" end="zoomminus.mouseout"/></use>
    <path d="M-4,0h8" fill="none" stroke="white" stroke-width="1.5" pointer-events="none"/>
  </g>
  <g id="arrowUp" transform="translate(30 24)">
    <use xlink:href="#rim"/>
    <path pointer-events="none" fill="none" stroke="white" stroke-width="1.5" d="M0,-3.0v7 M-2.5,-0.5L0,-3.0L2.5,-0.5"/>
  </g>
  <g id="arrowRight" transform="rotate(90) translate(36 -43)">
    <use xlink:href="#rim"/>
    <path pointer-events="none" fill="none" stroke="white" stroke-width="1.5" d="M0,-3.0v7 M-2.5,-0.5L0,-3.0L2.5,-0.5"/>
  </g>
  <g id="arrowDown" transform="rotate(180) translate(-30 -48)">
    <use xlink:href="#rim"/>
    <path pointer-events="none" fill="none" stroke="white" stroke-width="1.5" d="M0,-3.0v7 M-2.5,-0.5L0,-3.0L2.5,-0.5"/>
  </g>
  <g id="arrowLeft" transform="rotate(270) translate(-36 17)">
    <use xlink:href="#rim"/>
    <path pointer-events="none" fill="none" stroke="white" stroke-width="1.5" d="M0,-3.0v7 M-2.5,-0.5L0,-3.0L2.5,-0.5"/>
  </g>
  <g id="resetDef">
    <use xlink:href="#rim2" fill="#404040"><set attributeName="fill" to="#808080" begin="reset.mouseover" end="reset.mouseout"/></use>
  </g>
</defs>
<script type="application/ecmascript">
var viewWidth = 175;
var viewHeight = 595;
var sectionId = 'dynsection-1';
</script>
<script type="application/ecmascript" xlink:href="../../svg.min.js"/>
<svg id="graph" class="graph">
<g id="viewport">
<title>HydroCouple::IAdaptedOutputFactory</title>
<!-- Node1 -->
<g id="Node000001" class="node">
<title>Node1</title>
<g id="a_Node000001"><a xlink:title="IAdaptedOutputFactory is used to create instances of IAdaptedProducerExchangeItems.">
<polygon fill="#999999" stroke="transparent" points="161.5,-101 5.5,-101 5.5,0 161.5,0 161.5,-101"/>
<text text-anchor="start" x="10.5" y="-88.5" font-family="Monaco" font-size="10.00">HydroCouple::IAdaptedOutput</text>
<text text-anchor="start" x="65.5" y="-77.5" font-family="Monaco" font-size="10.00">Factory</text>
<text text-anchor="start" x="81.5" y="-62.5" font-family="Monaco" font-size="10.00"> </text>
<text text-anchor="start" x="9.5" y="-47.5" font-family="Monaco" font-size="10.00">+</text>
<text text-anchor="start" x="22.5" y="-47.5" font-family="Monaco" font-size="10.00">~IAdaptedOutputFactory()</text>
<text text-anchor="start" x="9.5" y="-32.5" font-family="Monaco" font-size="10.00">+</text>
<text text-anchor="start" x="22.5" y="-32.5" font-family="Monaco" font-size="10.00">getAvailableAdaptedOutput</text>
<text text-anchor="start" x="22.5" y="-21.5" font-family="Monaco" font-size="10.00">Ids()</text>
<text text-anchor="start" x="9.5" y="-6.5" font-family="Monaco" font-size="10.00">+</text>
<text text-anchor="start" x="22.5" y="-6.5" font-family="Monaco" font-size="10.00">createAdaptedOutput()</text>
<polygon fill="#666666" stroke="#666666" points="5.5,-72.5 5.5,-72.5 161.5,-72.5 161.5,-72.5 5.5,-72.5"/>
<polygon fill="#666666" stroke="#666666" points="5.5,-57.5 5.5,-57.5 161.5,-57.5 161.5,-57.5 5.5,-57.5"/>
<polygon fill="none" stroke="#666666" points="5.5,0 5.5,-101 161.5,-101 161.5,0 5.5,0"/>
</a>
</g>
</g>
<!-- Node2 -->
<g id="Node000002" class="node">
<title>Node2</title>
<g id="a_Node000002"><a xlink:href="../../d2/d2a/class_hydro_couple_1_1_i_identity.html" target="_top" xlink:title="IIdentity interface class defines a method to get the Id of an HydroCouple entity.">
<polygon fill="white" stroke="transparent" points="143.5,-201 23.5,-201 23.5,-137 143.5,-137 143.5,-201"/>
<text text-anchor="start" x="28.5" y="-189" font-family="Monaco" font-size="10.00">HydroCouple::IIdentity</text>
<text text-anchor="start" x="81.5" y="-174" font-family="Monaco" font-size="10.00"> </text>
<text text-anchor="start" x="38" y="-159" font-family="Monaco" font-size="10.00">+</text>
<text text-anchor="start" x="61.5" y="-159" font-family="Monaco" font-size="10.00">~IIdentity()</text>
<text text-anchor="start" x="38" y="-144" font-family="Monaco" font-size="10.00">+</text>
<text text-anchor="start" x="61.5" y="-144" font-family="Monaco" font-size="10.00">id()</text>
<polygon fill="#666666" stroke="#666666" points="23.5,-184 23.5,-184 143.5,-184 143.5,-184 23.5,-184"/>
<polygon fill="#666666" stroke="#666666" points="23.5,-169 23.5,-169 143.5,-169 143.5,-169 23.5,-169"/>
<polygon fill="none" stroke="#666666" points="23.5,-137 23.5,-201 143.5,-201 143.5,-137 23.5,-137"/>
</a>
</g>
</g>
<!-- Node2&#45;&gt;Node1 -->
<g id="edge1_Node000001_Node000002" class="edge">
<title>Node2&#45;&gt;Node1</title>
<g id="a_edge1_Node000001_Node000002"><a xlink:title=" ">
<path fill="none" stroke="#63b8ff" d="M83.5,-126.68C83.5,-118.46 83.5,-109.74 83.5,-101.26"/>
<polygon fill="none" stroke="#63b8ff" points="80,-126.78 83.5,-136.78 87,-126.78 80,-126.78"/>
</a>
</g>
</g>
<!-- Node3 -->
<g id="Node000003" class="node">
<title>Node3</title>
<g id="a_Node000003"><a xlink:href="../../db/d64/class_hydro_couple_1_1_i_description.html" target="_top" xlink:title="IDescription interface class provides descriptive information on a HydroCouple object.">
<polygon fill="white" stroke="transparent" points="152.5,-346 14.5,-346 14.5,-237 152.5,-237 152.5,-346"/>
<text text-anchor="start" x="19.5" y="-333.5" font-family="Monaco" font-size="10.00">HydroCouple::IDescription</text>
<text text-anchor="start" x="81.5" y="-318.5" font-family="Monaco" font-size="10.00"> </text>
<text text-anchor="start" x="28" y="-303.5" font-family="Monaco" font-size="10.00">+</text>
<text text-anchor="start" x="50.5" y="-303.5" font-family="Monaco" font-size="10.00">~IDescription()</text>
<text text-anchor="start" x="28" y="-288.5" font-family="Monaco" font-size="10.00">+</text>
<text text-anchor="start" x="50.5" y="-288.5" font-family="Monaco" font-size="10.00">caption()</text>
<text text-anchor="start" x="28" y="-273.5" font-family="Monaco" font-size="10.00">+</text>
<text text-anchor="start" x="50.5" y="-273.5" font-family="Monaco" font-size="10.00">setCaption()</text>
<text text-anchor="start" x="28" y="-258.5" font-family="Monaco" font-size="10.00">+</text>
<text text-anchor="start" x="50.5" y="-258.5" font-family="Monaco" font-size="10.00">description()</text>
<text text-anchor="start" x="28" y="-243.5" font-family="Monaco" font-size="10.00">+</text>
<text text-anchor="start" x="50.5" y="-243.5" font-family="Monaco" font-size="10.00">setDescription()</text>
<polygon fill="#666666" stroke="#666666" points="14.5,-328.5 14.5,-328.5 152.5,-328.5 152.5,-328.5 14.5,-328.5"/>
<polygon fill="#666666" stroke="#666666" points="14.5,-313.5 14.5,-313.5 152.5,-313.5 152.5,-313.5 14.5,-313.5"/>
<polygon fill="none" stroke="#666666" points="14.5,-237 14.5,-346 152.5,-346 152.5,-237 14.5,-237"/>
</a>
</g>
</g>
<!-- Node3&#45;&gt;Node2 -->
<g id="edge2_Node000002_Node000003" class="edge">
<title>Node3&#45;&gt;Node2</title>
<g id="a_edge2_Node000002_Node000003"><a xlink:title=" ">
<path fill="none" stroke="#63b8ff" d="M83.5,-226.9C83.5,-218 83.5,-209.2 83.5,-201.28"/>
<polygon fill="none" stroke="#63b8ff" points="80,-226.95 83.5,-236.95 87,-226.95 80,-226.95"/>
</a>
</g>
</g>
<!-- Node4 -->
<g id="Node000004" class="node">
<title>Node4</title>
<g id="a_Node000004"><a xlink:href="../../dd/dbf/class_hydro_couple_1_1_i_property_changed.html" target="_top" xlink:title="IPropertyChanged interface is used to emit signal/event when a property of an object changes.">
<polygon fill="white" stroke="transparent" points="167,-431 0,-431 0,-382 167,-382 167,-431"/>
<text text-anchor="start" x="5.5" y="-418.5" font-family="Monaco" font-size="10.00">HydroCouple::IPropertyChanged</text>
<text text-anchor="start" x="82" y="-403.5" font-family="Monaco" font-size="10.00"> </text>
<text text-anchor="start" x="15" y="-388.5" font-family="Monaco" font-size="10.00">+</text>
<text text-anchor="start" x="38.5" y="-388.5" font-family="Monaco" font-size="10.00">~IPropertyChanged()</text>
<polygon fill="#666666" stroke="#666666" points="0.5,-413.5 0.5,-413.5 167.5,-413.5 167.5,-413.5 0.5,-413.5"/>
<polygon fill="#666666" stroke="#666666" points="0.5,-398.5 0.5,-398.5 167.5,-398.5 167.5,-398.5 0.5,-398.5"/>
<polygon fill="none" stroke="#666666" points="0,-382 0,-431 167,-431 167,-382 0,-382"/>
</a>
</g>
</g>
<!-- Node4&#45;&gt;Node3 -->
<g id="edge3_Node000003_Node000004" class="edge">
<title>Node4&#45;&gt;Node3</title>
<g id="a_edge3_Node000003_Node000004"><a xlink:title=" ">
<path fill="none" stroke="#63b8ff" d="M83.5,-371.79C83.5,-363.79 83.5,-355.06 83.5,-346.41"/>
<polygon fill="none" stroke="#63b8ff" points="80,-371.81 83.5,-381.81 87,-371.81 80,-371.81"/>
</a>
</g>
</g>
<!-- Node5 -->
<g id="Node000005" class="node">
<title>Node5</title>
<g id="a_Node000005"><a xlink:href="../../d5/d8b/class_hydro_couple_1_1_i_signal.html" target="_top" xlink:title=" ">
<polygon fill="white" stroke="transparent" points="140,-587 27,-587 27,-467 140,-467 140,-587"/>
<text text-anchor="start" x="32.5" y="-575" font-family="Monaco" font-size="10.00">HydroCouple::ISignal</text>
<text text-anchor="start" x="58.5" y="-564" font-family="Monaco" font-size="10.00">&lt; string &gt;</text>
<text text-anchor="start" x="82" y="-549" font-family="Monaco" font-size="10.00"> </text>
<text text-anchor="start" x="37" y="-534" font-family="Monaco" font-size="10.00">+</text>
<text text-anchor="start" x="55.5" y="-534" font-family="Monaco" font-size="10.00">~ISignal()</text>
<text text-anchor="start" x="37" y="-519" font-family="Monaco" font-size="10.00">+</text>
<text text-anchor="start" x="55.5" y="-519" font-family="Monaco" font-size="10.00">connect()</text>
<text text-anchor="start" x="37" y="-504" font-family="Monaco" font-size="10.00">+</text>
<text text-anchor="start" x="55.5" y="-504" font-family="Monaco" font-size="10.00">disconnect()</text>
<text text-anchor="start" x="37" y="-489" font-family="Monaco" font-size="10.00">+</text>
<text text-anchor="start" x="55.5" y="-489" font-family="Monaco" font-size="10.00">blockSignals()</text>
<text text-anchor="start" x="37" y="-474" font-family="Monaco" font-size="10.00">#</text>
<text text-anchor="start" x="55.5" y="-474" font-family="Monaco" font-size="10.00">emit()</text>
<polygon fill="#666666" stroke="#666666" points="27.5,-559 27.5,-559 140.5,-559 140.5,-559 27.5,-559"/>
<polygon fill="#666666" stroke="#666666" points="27.5,-544 27.5,-544 140.5,-544 140.5,-544 27.5,-544"/>
<polygon fill="none" stroke="#666666" points="27,-467 27,-587 140,-587 140,-467 27,-467"/>
</a>
</g>
</g>
<!-- Node5&#45;&gt;Node4 -->
<g id="edge4_Node000004_Node000005" class="edge">
<title>Node5&#45;&gt;Node4</title>
<g id="a_edge4_Node000004_Node000005"><a xlink:title=" ">
<path fill="none" stroke="#63b8ff" d="M83.5,-456.74C83.5,-447.6 83.5,-438.78 83.5,-431.2"/>
<polygon fill="none" stroke="#63b8ff" points="80,-456.75 83.5,-466.75 87,-456.75 80,-456.75"/>
</a>
</g>
</g>
</g>
</svg>

<g id="navigator" transform="translate(0 0)" fill="#404254">
  <rect fill="#f2f5e9" fill-opacity="0.5" stroke="#606060" stroke-width=".5" x="0" y="0" width="60" height="60"/>
  <use id="zoomplus" xlink:href="#zoomPlus" x="17" y="9" onmousedown="handleZoom(evt,'in')"/>
  <use id="zoomminus" xlink:href="#zoomMin" x="42" y="9" onmousedown="handleZoom(evt,'out')"/>
  <use id="reset" xlink:href="#resetDef" x="30" y="36" onmousedown="handleReset()"/>
   <use id="arrowup" xlink:href="#arrowUp" x="0" y="0" onmousedown="handlePan(0,-1)"/>
  <use id="arrowright" xlink:href="#arrowRight" x="0" y="0" onmousedown="handlePan(1,0)"/>
  <use id="arrowdown" xlink:href="#arrowDown" x="0" y="0" onmousedown="handlePan(0,1)"/>
  <use id="arrowleft" xlink:href="#arrowLeft" x="0" y="0" onmousedown="handlePan(-1,0)"/>
</g>
<svg viewBox="0 0 15 15" width="100%" height="30px" preserveAspectRatio="xMaxYMin meet">
 <g id="arrow_out" transform="scale(0.3 0.3)">
  <a xlink:href="class_hydro_couple_1_1_i_adapted_output_factory__coll__graph_org.svg" target="_base">
   <rect id="button" ry="5" rx="5" y="6" x="6" height="38" width="38"
        fill="#f2f5e9" fill-opacity="0.5" stroke="#606060" stroke-width="1.0"/>
   <path id="arrow"
     d="M 11.500037,31.436501 C 11.940474,20.09759 22.043105,11.32322 32.158766,21.979434 L 37.068811,17.246167 C 37.068811,17.246167 37.088388,32 37.088388,32 L 22.160133,31.978069 C 22.160133,31.978069 26.997745,27.140456 26.997745,27.140456 C 18.528582,18.264221 13.291696,25.230495 11.500037,31.436501 z"
     style="fill:#404040;"/>
  </a>
 </g>
</svg>

<style type='text/css'>
<![CDATA[
[data-mouse-over-selected='false'] { opacity: 0.7; }
[data-mouse-over-selected='true']  { opacity: 1.0; }
]]>
</style>
<script type="application/ecmascript"><![CDATA[
document.addEventListener('DOMContentLoaded', (event) => {
  highlightEdges();
  highlightAdjacentNodes();
});
]]></script>
</svg>
