<?xml version="1.0" encoding="UTF-8" standalone="no"?>
<!DOCTYPE svg PUBLIC "-//W3C//DTD SVG 1.1//EN"
 "http://www.w3.org/Graphics/SVG/1.1/DTD/svg11.dtd">
<!-- Generated by graphviz version 2.43.0 (0)
 -->
<!-- Title: HydroCouple::Spatial::ILine Pages: 1 -->
<svg width="156pt" height="1211pt"
 viewBox="0.00 0.00 156.00 1211.00" xmlns="http://www.w3.org/2000/svg" xmlns:xlink="http://www.w3.org/1999/xlink">
<g id="graph0" class="graph" transform="scale(1 1) rotate(0) translate(4 1207)">
<title>HydroCouple::Spatial::ILine</title>
<!-- Node1 -->
<g id="Node000001" class="node">
<title>Node1</title>
<g id="a_Node000001"><a xlink:title="The ILine class is an ILineString with exactly 2 IPoints.">
<polygon fill="#999999" stroke="transparent" points="130.5,-60 17.5,-60 17.5,0 130.5,0 130.5,-60"/>
<text text-anchor="start" x="23" y="-48" font-family="Monaco" font-size="10.00">HydroCouple::Spatial</text>
<text text-anchor="start" x="59.5" y="-37" font-family="Monaco" font-size="10.00">::ILine</text>
<text text-anchor="start" x="72.5" y="-22" font-family="Monaco" font-size="10.00"> </text>
<text text-anchor="start" x="35" y="-7" font-family="Monaco" font-size="10.00">+</text>
<text text-anchor="start" x="61" y="-7" font-family="Monaco" font-size="10.00">~ILine()</text>
<polygon fill="#666666" stroke="#666666" points="18,-32 18,-32 131,-32 131,-32 18,-32"/>
<polygon fill="#666666" stroke="#666666" points="18,-17 18,-17 131,-17 131,-17 18,-17"/>
<polygon fill="none" stroke="#666666" points="17.5,0 17.5,-60 130.5,-60 130.5,0 17.5,0"/>
</a>
</g>
</g>
<!-- Node2 -->
<g id="Node000002" class="node">
<title>Node2</title>
<g id="a_Node000002"><a xlink:href="../../d1/dc4/class_hydro_couple_1_1_spatial_1_1_i_line_string.html" target="_top" xlink:title="An ILineString is a Curve with linear interpolation between Points. Each consecutive pair of Points d...">
<polygon fill="white" stroke="transparent" points="130.5,-186 17.5,-186 17.5,-96 130.5,-96 130.5,-186"/>
<text text-anchor="start" x="23" y="-174" font-family="Monaco" font-size="10.00">HydroCouple::Spatial</text>
<text text-anchor="start" x="45.5" y="-163" font-family="Monaco" font-size="10.00">::ILineString</text>
<text text-anchor="start" x="72.5" y="-148" font-family="Monaco" font-size="10.00"> </text>
<text text-anchor="start" x="28" y="-133" font-family="Monaco" font-size="10.00">+</text>
<text text-anchor="start" x="47" y="-133" font-family="Monaco" font-size="10.00">~ILineString()</text>
<text text-anchor="start" x="28" y="-118" font-family="Monaco" font-size="10.00">+</text>
<text text-anchor="start" x="47" y="-118" font-family="Monaco" font-size="10.00">pointCount()</text>
<text text-anchor="start" x="28" y="-103" font-family="Monaco" font-size="10.00">+</text>
<text text-anchor="start" x="47" y="-103" font-family="Monaco" font-size="10.00">point()</text>
<polygon fill="#666666" stroke="#666666" points="18,-158 18,-158 131,-158 131,-158 18,-158"/>
<polygon fill="#666666" stroke="#666666" points="18,-143 18,-143 131,-143 131,-143 18,-143"/>
<polygon fill="none" stroke="#666666" points="17.5,-96 17.5,-186 130.5,-186 130.5,-96 17.5,-96"/>
</a>
</g>
</g>
<!-- Node2&#45;&gt;Node1 -->
<g id="edge1_Node000001_Node000002" class="edge">
<title>Node2&#45;&gt;Node1</title>
<g id="a_edge1_Node000001_Node000002"><a xlink:title=" ">
<path fill="none" stroke="#63b8ff" d="M74,-85.7C74,-76.89 74,-68.07 74,-60.17"/>
<polygon fill="none" stroke="#63b8ff" points="70.5,-85.98 74,-95.98 77.5,-85.98 70.5,-85.98"/>
</a>
</g>
</g>
<!-- Node3 -->
<g id="Node000003" class="node">
<title>Node3</title>
<g id="a_Node000003"><a xlink:href="../../df/d7f/class_hydro_couple_1_1_spatial_1_1_i_curve.html" target="_top" xlink:title="A Curve is a 1&#45;dimensional geometric object usually stored as a sequence of IPoints,...">
<polygon fill="white" stroke="transparent" points="130.5,-357 17.5,-357 17.5,-222 130.5,-222 130.5,-357"/>
<text text-anchor="start" x="23" y="-344.5" font-family="Monaco" font-size="10.00">HydroCouple::Spatial</text>
<text text-anchor="start" x="55.5" y="-333.5" font-family="Monaco" font-size="10.00">::ICurve</text>
<text text-anchor="start" x="72.5" y="-318.5" font-family="Monaco" font-size="10.00"> </text>
<text text-anchor="start" x="31" y="-303.5" font-family="Monaco" font-size="10.00">+</text>
<text text-anchor="start" x="53" y="-303.5" font-family="Monaco" font-size="10.00">~ICurve()</text>
<text text-anchor="start" x="31" y="-288.5" font-family="Monaco" font-size="10.00">+</text>
<text text-anchor="start" x="53" y="-288.5" font-family="Monaco" font-size="10.00">length()</text>
<text text-anchor="start" x="31" y="-273.5" font-family="Monaco" font-size="10.00">+</text>
<text text-anchor="start" x="53" y="-273.5" font-family="Monaco" font-size="10.00">startPoint()</text>
<text text-anchor="start" x="31" y="-258.5" font-family="Monaco" font-size="10.00">+</text>
<text text-anchor="start" x="53" y="-258.5" font-family="Monaco" font-size="10.00">endPoint()</text>
<text text-anchor="start" x="31" y="-243.5" font-family="Monaco" font-size="10.00">+</text>
<text text-anchor="start" x="53" y="-243.5" font-family="Monaco" font-size="10.00">isClosed()</text>
<text text-anchor="start" x="31" y="-228.5" font-family="Monaco" font-size="10.00">+</text>
<text text-anchor="start" x="53" y="-228.5" font-family="Monaco" font-size="10.00">isRing()</text>
<polygon fill="#666666" stroke="#666666" points="18,-328.5 18,-328.5 131,-328.5 131,-328.5 18,-328.5"/>
<polygon fill="#666666" stroke="#666666" points="18,-313.5 18,-313.5 131,-313.5 131,-313.5 18,-313.5"/>
<polygon fill="none" stroke="#666666" points="17.5,-222 17.5,-357 130.5,-357 130.5,-222 17.5,-222"/>
</a>
</g>
</g>
<!-- Node3&#45;&gt;Node2 -->
<g id="edge2_Node000002_Node000003" class="edge">
<title>Node3&#45;&gt;Node2</title>
<g id="a_edge2_Node000002_Node000003"><a xlink:title=" ">
<path fill="none" stroke="#63b8ff" d="M74,-211.47C74,-202.77 74,-194.14 74,-186.08"/>
<polygon fill="none" stroke="#63b8ff" points="70.5,-211.68 74,-221.68 77.5,-211.68 70.5,-211.68"/>
</a>
</g>
</g>
<!-- Node4 -->
<g id="Node000004" class="node">
<title>Node4</title>
<g id="a_Node000004"><a xlink:href="../../d3/d92/class_hydro_couple_1_1_spatial_1_1_i_geometry.html" target="_top" xlink:title="IGeometry is the root class of the geometry hierarchy.">
<polygon fill="white" stroke="transparent" points="148,-1203 0,-1203 0,-393 148,-393 148,-1203"/>
<text text-anchor="start" x="22.5" y="-1191" font-family="Monaco" font-size="10.00">HydroCouple::Spatial</text>
<text text-anchor="start" x="45" y="-1180" font-family="Monaco" font-size="10.00">::IGeometry</text>
<text text-anchor="start" x="72" y="-1165" font-family="Monaco" font-size="10.00"> </text>
<text text-anchor="start" x="4" y="-1150" font-family="Monaco" font-size="10.00">+</text>
<text text-anchor="start" x="17" y="-1150" font-family="Monaco" font-size="10.00">~IGeometry()</text>
<text text-anchor="start" x="4" y="-1135" font-family="Monaco" font-size="10.00">+</text>
<text text-anchor="start" x="17" y="-1135" font-family="Monaco" font-size="10.00">id()</text>
<text text-anchor="start" x="4" y="-1120" font-family="Monaco" font-size="10.00">+</text>
<text text-anchor="start" x="17" y="-1120" font-family="Monaco" font-size="10.00">index()</text>
<text text-anchor="start" x="4" y="-1105" font-family="Monaco" font-size="10.00">+</text>
<text text-anchor="start" x="17" y="-1105" font-family="Monaco" font-size="10.00">dimension()</text>
<text text-anchor="start" x="4" y="-1090" font-family="Monaco" font-size="10.00">+</text>
<text text-anchor="start" x="17" y="-1090" font-family="Monaco" font-size="10.00">coordinateDimension()</text>
<text text-anchor="start" x="4" y="-1075" font-family="Monaco" font-size="10.00">+</text>
<text text-anchor="start" x="17" y="-1075" font-family="Monaco" font-size="10.00">geometryType()</text>
<text text-anchor="start" x="4" y="-1060" font-family="Monaco" font-size="10.00">+</text>
<text text-anchor="start" x="17" y="-1060" font-family="Monaco" font-size="10.00">spatialReferenceSystem()</text>
<text text-anchor="start" x="4" y="-1045" font-family="Monaco" font-size="10.00">+</text>
<text text-anchor="start" x="17" y="-1045" font-family="Monaco" font-size="10.00">envelope()</text>
<text text-anchor="start" x="4" y="-1030" font-family="Monaco" font-size="10.00">+</text>
<text text-anchor="start" x="17" y="-1030" font-family="Monaco" font-size="10.00">getWKT()</text>
<text text-anchor="start" x="4" y="-1015" font-family="Monaco" font-size="10.00">+</text>
<text text-anchor="start" x="17" y="-1015" font-family="Monaco" font-size="10.00">getWKB()</text>
<text text-anchor="start" x="4" y="-1000" font-family="Monaco" font-size="10.00">+</text>
<text text-anchor="start" x="17" y="-1000" font-family="Monaco" font-size="10.00">isEmpty()</text>
<text text-anchor="start" x="4" y="-985" font-family="Monaco" font-size="10.00">+</text>
<text text-anchor="start" x="17" y="-985" font-family="Monaco" font-size="10.00">isSimple()</text>
<text text-anchor="start" x="4" y="-970" font-family="Monaco" font-size="10.00">+</text>
<text text-anchor="start" x="17" y="-970" font-family="Monaco" font-size="10.00">is3D()</text>
<text text-anchor="start" x="4" y="-955" font-family="Monaco" font-size="10.00">+</text>
<text text-anchor="start" x="17" y="-955" font-family="Monaco" font-size="10.00">isMeasured()</text>
<text text-anchor="start" x="4" y="-940" font-family="Monaco" font-size="10.00">+</text>
<text text-anchor="start" x="17" y="-940" font-family="Monaco" font-size="10.00">boundary()</text>
<text text-anchor="start" x="4" y="-925" font-family="Monaco" font-size="10.00">+</text>
<text text-anchor="start" x="17" y="-925" font-family="Monaco" font-size="10.00">equals()</text>
<text text-anchor="start" x="4" y="-910" font-family="Monaco" font-size="10.00">+</text>
<text text-anchor="start" x="17" y="-910" font-family="Monaco" font-size="10.00">disjoint()</text>
<text text-anchor="start" x="4" y="-895" font-family="Monaco" font-size="10.00">+</text>
<text text-anchor="start" x="17" y="-895" font-family="Monaco" font-size="10.00">intersects()</text>
<text text-anchor="start" x="4" y="-880" font-family="Monaco" font-size="10.00">+</text>
<text text-anchor="start" x="17" y="-880" font-family="Monaco" font-size="10.00">touches()</text>
<text text-anchor="start" x="4" y="-865" font-family="Monaco" font-size="10.00">+</text>
<text text-anchor="start" x="17" y="-865" font-family="Monaco" font-size="10.00">crosses()</text>
<text text-anchor="start" x="4" y="-850" font-family="Monaco" font-size="10.00">+</text>
<text text-anchor="start" x="17" y="-850" font-family="Monaco" font-size="10.00">within()</text>
<text text-anchor="start" x="4" y="-835" font-family="Monaco" font-size="10.00">+</text>
<text text-anchor="start" x="17" y="-835" font-family="Monaco" font-size="10.00">contains()</text>
<text text-anchor="start" x="4" y="-820" font-family="Monaco" font-size="10.00">+</text>
<text text-anchor="start" x="17" y="-820" font-family="Monaco" font-size="10.00">overlaps()</text>
<text text-anchor="start" x="4" y="-805" font-family="Monaco" font-size="10.00">+</text>
<text text-anchor="start" x="17" y="-805" font-family="Monaco" font-size="10.00">relate()</text>
<text text-anchor="start" x="4" y="-790" font-family="Monaco" font-size="10.00">+</text>
<text text-anchor="start" x="17" y="-790" font-family="Monaco" font-size="10.00">locateAlong()</text>
<text text-anchor="start" x="4" y="-775" font-family="Monaco" font-size="10.00">+</text>
<text text-anchor="start" x="17" y="-775" font-family="Monaco" font-size="10.00">locateBetween()</text>
<text text-anchor="start" x="4" y="-760" font-family="Monaco" font-size="10.00">+</text>
<text text-anchor="start" x="17" y="-760" font-family="Monaco" font-size="10.00">distance()</text>
<text text-anchor="start" x="4" y="-745" font-family="Monaco" font-size="10.00">+</text>
<text text-anchor="start" x="17" y="-745" font-family="Monaco" font-size="10.00">buffer()</text>
<text text-anchor="start" x="4" y="-730" font-family="Monaco" font-size="10.00">+</text>
<text text-anchor="start" x="17" y="-730" font-family="Monaco" font-size="10.00">convexHull()</text>
<text text-anchor="start" x="4" y="-715" font-family="Monaco" font-size="10.00">+</text>
<text text-anchor="start" x="17" y="-715" font-family="Monaco" font-size="10.00">intersection()</text>
<text text-anchor="start" x="4" y="-700" font-family="Monaco" font-size="10.00">+</text>
<text text-anchor="start" x="17" y="-700" font-family="Monaco" font-size="10.00">unionG()</text>
<text text-anchor="start" x="4" y="-685" font-family="Monaco" font-size="10.00">+</text>
<text text-anchor="start" x="17" y="-685" font-family="Monaco" font-size="10.00">difference()</text>
<text text-anchor="start" x="4" y="-670" font-family="Monaco" font-size="10.00">+</text>
<text text-anchor="start" x="17" y="-670" font-family="Monaco" font-size="10.00">symmetricDifference()</text>
<text text-anchor="start" x="5.5" y="-655" font-family="Monaco" font-size="10.00">*</text>
<text text-anchor="start" x="17" y="-655" font-family="Monaco" font-size="10.00">equals()</text>
<text text-anchor="start" x="5.5" y="-640" font-family="Monaco" font-size="10.00">*</text>
<text text-anchor="start" x="17" y="-640" font-family="Monaco" font-size="10.00">disjoint()</text>
<text text-anchor="start" x="5.5" y="-625" font-family="Monaco" font-size="10.00">*</text>
<text text-anchor="start" x="17" y="-625" font-family="Monaco" font-size="10.00">intersects()</text>
<text text-anchor="start" x="5.5" y="-610" font-family="Monaco" font-size="10.00">*</text>
<text text-anchor="start" x="17" y="-610" font-family="Monaco" font-size="10.00">touches()</text>
<text text-anchor="start" x="5.5" y="-595" font-family="Monaco" font-size="10.00">*</text>
<text text-anchor="start" x="17" y="-595" font-family="Monaco" font-size="10.00">crosses()</text>
<text text-anchor="start" x="5.5" y="-580" font-family="Monaco" font-size="10.00">*</text>
<text text-anchor="start" x="17" y="-580" font-family="Monaco" font-size="10.00">within()</text>
<text text-anchor="start" x="5.5" y="-565" font-family="Monaco" font-size="10.00">*</text>
<text text-anchor="start" x="17" y="-565" font-family="Monaco" font-size="10.00">contains()</text>
<text text-anchor="start" x="5.5" y="-550" font-family="Monaco" font-size="10.00">*</text>
<text text-anchor="start" x="17" y="-550" font-family="Monaco" font-size="10.00">overlaps()</text>
<text text-anchor="start" x="5.5" y="-535" font-family="Monaco" font-size="10.00">*</text>
<text text-anchor="start" x="17" y="-535" font-family="Monaco" font-size="10.00">relate()</text>
<text text-anchor="start" x="5.5" y="-520" font-family="Monaco" font-size="10.00">*</text>
<text text-anchor="start" x="17" y="-520" font-family="Monaco" font-size="10.00">locateAlong()</text>
<text text-anchor="start" x="5.5" y="-505" font-family="Monaco" font-size="10.00">*</text>
<text text-anchor="start" x="17" y="-505" font-family="Monaco" font-size="10.00">locateBetween()</text>
<text text-anchor="start" x="5.5" y="-490" font-family="Monaco" font-size="10.00">*</text>
<text text-anchor="start" x="17" y="-490" font-family="Monaco" font-size="10.00">distance()</text>
<text text-anchor="start" x="5.5" y="-475" font-family="Monaco" font-size="10.00">*</text>
<text text-anchor="start" x="17" y="-475" font-family="Monaco" font-size="10.00">buffer()</text>
<text text-anchor="start" x="5.5" y="-460" font-family="Monaco" font-size="10.00">*</text>
<text text-anchor="start" x="17" y="-460" font-family="Monaco" font-size="10.00">convexHull()</text>
<text text-anchor="start" x="5.5" y="-445" font-family="Monaco" font-size="10.00">*</text>
<text text-anchor="start" x="17" y="-445" font-family="Monaco" font-size="10.00">intersection()</text>
<text text-anchor="start" x="5.5" y="-430" font-family="Monaco" font-size="10.00">*</text>
<text text-anchor="start" x="17" y="-430" font-family="Monaco" font-size="10.00">unionG()</text>
<text text-anchor="start" x="5.5" y="-415" font-family="Monaco" font-size="10.00">*</text>
<text text-anchor="start" x="17" y="-415" font-family="Monaco" font-size="10.00">difference()</text>
<text text-anchor="start" x="5.5" y="-400" font-family="Monaco" font-size="10.00">*</text>
<text text-anchor="start" x="17" y="-400" font-family="Monaco" font-size="10.00">symmetricDifference()</text>
<polygon fill="#666666" stroke="#666666" points="0,-1175 0,-1175 148,-1175 148,-1175 0,-1175"/>
<polygon fill="#666666" stroke="#666666" points="0,-1160 0,-1160 148,-1160 148,-1160 0,-1160"/>
<polygon fill="none" stroke="#666666" points="0,-393 0,-1203 148,-1203 148,-393 0,-393"/>
</a>
</g>
</g>
<!-- Node4&#45;&gt;Node3 -->
<g id="edge3_Node000003_Node000004" class="edge">
<title>Node4&#45;&gt;Node3</title>
<g id="a_edge3_Node000003_Node000004"><a xlink:title=" ">
<path fill="none" stroke="#63b8ff" d="M74,-382.96C74,-373.88 74,-365.27 74,-357.23"/>
<polygon fill="none" stroke="#63b8ff" points="70.5,-383 74,-393 77.5,-383 70.5,-383"/>
</a>
</g>
</g>
</g>
</svg>
