<?xml version="1.0" encoding="UTF-8" standalone="no"?>
<!DOCTYPE svg PUBLIC "-//W3C//DTD SVG 1.1//EN"
 "http://www.w3.org/Graphics/SVG/1.1/DTD/svg11.dtd">
<!-- Generated by graphviz version 2.43.0 (0)
 -->
<!-- Title: WKBGeometryCollectionZM Pages: 1 -->
<!--zoomable 614 -->

<svg id="main" version="1.1" xmlns="http://www.w3.org/2000/svg" xmlns:xlink="http://www.w3.org/1999/xlink" xml:space="preserve" onload="init(evt)">
<style type="text/css"><![CDATA[
.node, .edge {opacity: 0.7;}
.node.selected, .edge.selected {opacity: 1;}
.edge:hover path { stroke: red; }
.edge:hover polygon { stroke: red; fill: red; }
]]></style>

<defs>
  <circle id="rim" cx="0" cy="0" r="7"/>
  <circle id="rim2" cx="0" cy="0" r="3.5"/>
  <g id="zoomPlus">
    <use xlink:href="#rim" fill="#404040"><set attributeName="fill" to="#808080" begin="zoomplus.mouseover" end="zoomplus.mouseout"/></use>
    <path d="M-4,0h8M0,-4v8" fill="none" stroke="white" stroke-width="1.5" pointer-events="none"/>
  </g>
  <g id="zoomMin">
    <use xlink:href="#rim" fill="#404040"><set attributeName="fill" to="#808080" begin="zoomminus.mouseover" end="zoomminus.mouseout"/></use>
    <path d="M-4,0h8" fill="none" stroke="white" stroke-width="1.5" pointer-events="none"/>
  </g>
  <g id="arrowUp" transform="translate(30 24)">
    <use xlink:href="#rim"/>
    <path pointer-events="none" fill="none" stroke="white" stroke-width="1.5" d="M0,-3.0v7 M-2.5,-0.5L0,-3.0L2.5,-0.5"/>
  </g>
  <g id="arrowRight" transform="rotate(90) translate(36 -43)">
    <use xlink:href="#rim"/>
    <path pointer-events="none" fill="none" stroke="white" stroke-width="1.5" d="M0,-3.0v7 M-2.5,-0.5L0,-3.0L2.5,-0.5"/>
  </g>
  <g id="arrowDown" transform="rotate(180) translate(-30 -48)">
    <use xlink:href="#rim"/>
    <path pointer-events="none" fill="none" stroke="white" stroke-width="1.5" d="M0,-3.0v7 M-2.5,-0.5L0,-3.0L2.5,-0.5"/>
  </g>
  <g id="arrowLeft" transform="rotate(270) translate(-36 17)">
    <use xlink:href="#rim"/>
    <path pointer-events="none" fill="none" stroke="white" stroke-width="1.5" d="M0,-3.0v7 M-2.5,-0.5L0,-3.0L2.5,-0.5"/>
  </g>
  <g id="resetDef">
    <use xlink:href="#rim2" fill="#404040"><set attributeName="fill" to="#808080" begin="reset.mouseover" end="reset.mouseout"/></use>
  </g>
</defs>
<script type="application/ecmascript">
var viewWidth = 1231;
var viewHeight = 614;
var sectionId = 'dynsection-0';
</script>
<script type="application/ecmascript" xlink:href="../../svg.min.js"/>
<svg id="graph" class="graph">
<g id="viewport">
<title>WKBGeometryCollectionZM</title>
<!-- Node1 -->
<g id="Node000001" class="node">
<title>Node1</title>
<g id="a_Node000001"><a xlink:title="The WKBGeometryCollectionZM struct.">
<polygon fill="#999999" stroke="transparent" points="147,-175 0,-175 0,-96 147,-96 147,-175"/>
<text text-anchor="start" x="5.5" y="-162.5" font-family="Monaco" font-size="10.00">WKBGeometryCollectionZM</text>
<text text-anchor="start" x="16" y="-147.5" font-family="Monaco" font-size="10.00">+</text>
<text text-anchor="start" x="40.5" y="-147.5" font-family="Monaco" font-size="10.00">byte_order</text>
<text text-anchor="start" x="16" y="-132.5" font-family="Monaco" font-size="10.00">+</text>
<text text-anchor="start" x="40.5" y="-132.5" font-family="Monaco" font-size="10.00">numGeometries</text>
<text text-anchor="start" x="16" y="-117.5" font-family="Monaco" font-size="10.00">+</text>
<text text-anchor="start" x="40.5" y="-117.5" font-family="Monaco" font-size="10.00">wkbType</text>
<text text-anchor="start" x="72" y="-102.5" font-family="Monaco" font-size="10.00"> </text>
<polygon fill="#666666" stroke="#666666" points="0.5,-157.5 0.5,-157.5 147.5,-157.5 147.5,-157.5 0.5,-157.5"/>
<polygon fill="#666666" stroke="#666666" points="0.5,-112.5 0.5,-112.5 38.5,-112.5 38.5,-112.5 0.5,-112.5"/>
<polygon fill="#666666" stroke="#666666" points="38.5,-112.5 38.5,-112.5 147.5,-112.5 147.5,-112.5 38.5,-112.5"/>
<polygon fill="none" stroke="#666666" points="0,-96 0,-175 147,-175 147,-96 0,-96"/>
</a>
</g>
</g>
<!-- Node2 -->
<g id="Node000002" class="node">
<title>Node2</title>
<g id="a_Node000002"><a xlink:href="../../de/daa/union_w_k_b_geometry_z_m.html" target="_top" xlink:title="The WKBGeometryZM union.">
<polygon fill="white" stroke="transparent" points="625.5,-49 527.5,-49 527.5,0 625.5,0 625.5,-49"/>
<text text-anchor="start" x="532.5" y="-36.5" font-family="Monaco" font-size="10.00">WKBGeometryZM</text>
<text text-anchor="start" x="574.5" y="-21.5" font-family="Monaco" font-size="10.00"> </text>
<text text-anchor="start" x="574.5" y="-6.5" font-family="Monaco" font-size="10.00"> </text>
<polygon fill="#666666" stroke="#666666" points="527.5,-31.5 527.5,-31.5 625.5,-31.5 625.5,-31.5 527.5,-31.5"/>
<polygon fill="#666666" stroke="#666666" points="527.5,-16.5 527.5,-16.5 625.5,-16.5 625.5,-16.5 527.5,-16.5"/>
<polygon fill="none" stroke="#666666" points="527.5,0 527.5,-49 625.5,-49 625.5,0 527.5,0"/>
</a>
</g>
</g>
<!-- Node1&#45;&gt;Node2 -->
<g id="edge25_Node000002_Node000001" class="edge">
<title>Node1&#45;&gt;Node2</title>
<g id="a_edge25_Node000002_Node000001"><a xlink:title=" ">
<path fill="none" stroke="#63b8ff" d="M40.85,-95.85C36.02,-85.67 34.88,-75.23 42.5,-67 74.01,-32.95 380.9,-26.77 514.68,-25.7"/>
<polygon fill="none" stroke="#63b8ff" points="515.07,-25.69 521.04,-21.65 527.07,-25.61 521.1,-29.65 515.07,-25.69"/>
</a>
</g>
<text text-anchor="middle" x="79.5" y="-70" font-family="Monaco" font-size="10.00" fill="grey"> +collectionzm</text>
</g>
<!-- Node2&#45;&gt;Node1 -->
<g id="edge1_Node000001_Node000002" class="edge">
<title>Node2&#45;&gt;Node1</title>
<g id="a_edge1_Node000001_Node000002"><a xlink:title=" ">
<path fill="none" stroke="#63b8ff" d="M527.21,-25.79C427.18,-27.09 204.15,-33.74 136.5,-67 126.46,-71.93 117.22,-79.19 109.08,-87.14"/>
<polygon fill="none" stroke="#63b8ff" points="108.96,-87.26 107.73,-94.37 100.7,-95.96 101.93,-88.86 108.96,-87.26"/>
</a>
</g>
<text text-anchor="middle" x="170" y="-70" font-family="Monaco" font-size="10.00" fill="grey"> +geometries</text>
</g>
<!-- Node3 -->
<g id="Node000003" class="node">
<title>Node3</title>
<g id="a_Node000003"><a xlink:href="../../df/d1c/struct_w_k_b_point_z_m.html" target="_top" xlink:title="The WKBPointZM struct.">
<polygon fill="white" stroke="transparent" points="374.5,-361.5 300.5,-361.5 300.5,-297.5 374.5,-297.5 374.5,-361.5"/>
<text text-anchor="start" x="305.5" y="-349.5" font-family="Monaco" font-size="10.00">WKBPointZM</text>
<text text-anchor="start" x="305.5" y="-334.5" font-family="Monaco" font-size="10.00">+</text>
<text text-anchor="start" x="319.5" y="-334.5" font-family="Monaco" font-size="10.00">byteOrder</text>
<text text-anchor="start" x="305.5" y="-319.5" font-family="Monaco" font-size="10.00">+</text>
<text text-anchor="start" x="319.5" y="-319.5" font-family="Monaco" font-size="10.00">wkbType</text>
<text text-anchor="start" x="335.5" y="-304.5" font-family="Monaco" font-size="10.00"> </text>
<polygon fill="#666666" stroke="#666666" points="300.5,-344.5 300.5,-344.5 374.5,-344.5 374.5,-344.5 300.5,-344.5"/>
<polygon fill="#666666" stroke="#666666" points="300.5,-314.5 300.5,-314.5 317.5,-314.5 317.5,-314.5 300.5,-314.5"/>
<polygon fill="#666666" stroke="#666666" points="317.5,-314.5 317.5,-314.5 374.5,-314.5 374.5,-314.5 317.5,-314.5"/>
<polygon fill="none" stroke="#666666" points="300.5,-297.5 300.5,-361.5 374.5,-361.5 374.5,-297.5 300.5,-297.5"/>
</a>
</g>
</g>
<!-- Node3&#45;&gt;Node2 -->
<g id="edge2_Node000002_Node000003" class="edge">
<title>Node3&#45;&gt;Node2</title>
<g id="a_edge2_Node000002_Node000003"><a xlink:title=" ">
<path fill="none" stroke="#63b8ff" d="M302.16,-297.21C253.41,-250.26 176.88,-160.25 226.5,-96 261.09,-51.21 424.42,-34.45 515.22,-28.52"/>
<polygon fill="none" stroke="#63b8ff" points="515.29,-28.51 521.03,-24.15 527.26,-27.77 521.52,-32.13 515.29,-28.51"/>
</a>
</g>
<text text-anchor="middle" x="252.5" y="-133" font-family="Monaco" font-size="10.00" fill="grey"> +pointzm</text>
</g>
<!-- Node14 -->
<g id="Node000014" class="node">
<title>Node14</title>
<g id="a_Node000014"><a xlink:href="../../dc/de1/struct_w_k_b_multi_point_z_m.html" target="_top" xlink:title="The WKBMultiPointZM struct.">
<polygon fill="white" stroke="transparent" points="387,-175 288,-175 288,-96 387,-96 387,-175"/>
<text text-anchor="start" x="293.5" y="-162.5" font-family="Monaco" font-size="10.00">WKBMultiPointZM</text>
<text text-anchor="start" x="299" y="-147.5" font-family="Monaco" font-size="10.00">+</text>
<text text-anchor="start" x="318.5" y="-147.5" font-family="Monaco" font-size="10.00">byteOrder</text>
<text text-anchor="start" x="299" y="-132.5" font-family="Monaco" font-size="10.00">+</text>
<text text-anchor="start" x="318.5" y="-132.5" font-family="Monaco" font-size="10.00">numPoints</text>
<text text-anchor="start" x="299" y="-117.5" font-family="Monaco" font-size="10.00">+</text>
<text text-anchor="start" x="318.5" y="-117.5" font-family="Monaco" font-size="10.00">wkbType</text>
<text text-anchor="start" x="336" y="-102.5" font-family="Monaco" font-size="10.00"> </text>
<polygon fill="#666666" stroke="#666666" points="288.5,-157.5 288.5,-157.5 387.5,-157.5 387.5,-157.5 288.5,-157.5"/>
<polygon fill="#666666" stroke="#666666" points="288.5,-112.5 288.5,-112.5 316.5,-112.5 316.5,-112.5 288.5,-112.5"/>
<polygon fill="#666666" stroke="#666666" points="316.5,-112.5 316.5,-112.5 387.5,-112.5 387.5,-112.5 316.5,-112.5"/>
<polygon fill="none" stroke="#666666" points="288,-96 288,-175 387,-175 387,-96 288,-96"/>
</a>
</g>
</g>
<!-- Node3&#45;&gt;Node14 -->
<g id="edge18_Node000014_Node000003" class="edge">
<title>Node3&#45;&gt;Node14</title>
<g id="a_edge18_Node000014_Node000003"><a xlink:title=" ">
<path fill="none" stroke="#63b8ff" d="M337.5,-297.22C337.5,-267.51 337.5,-222.3 337.5,-187.4"/>
<polygon fill="none" stroke="#63b8ff" points="337.5,-187.05 333.5,-181.05 337.5,-175.05 341.5,-181.05 337.5,-187.05"/>
</a>
</g>
<text text-anchor="middle" x="358.5" y="-230" font-family="Monaco" font-size="10.00" fill="grey"> +points</text>
</g>
<!-- Node4 -->
<g id="Node000004" class="node">
<title>Node4</title>
<g id="a_Node000004"><a xlink:href="../../d7/ded/struct_point_z_m.html" target="_top" xlink:title="The PointZM struct.">
<polygon fill="white" stroke="transparent" points="592,-606 541,-606 541,-512 592,-512 592,-606"/>
<text text-anchor="start" x="546.5" y="-594" font-family="Monaco" font-size="10.00">PointZM</text>
<text text-anchor="start" x="550.5" y="-579" font-family="Monaco" font-size="10.00">+</text>
<text text-anchor="start" x="568.5" y="-579" font-family="Monaco" font-size="10.00">x</text>
<text text-anchor="start" x="550.5" y="-564" font-family="Monaco" font-size="10.00">+</text>
<text text-anchor="start" x="568.5" y="-564" font-family="Monaco" font-size="10.00">y</text>
<text text-anchor="start" x="550.5" y="-549" font-family="Monaco" font-size="10.00">+</text>
<text text-anchor="start" x="568.5" y="-549" font-family="Monaco" font-size="10.00">z</text>
<text text-anchor="start" x="550.5" y="-534" font-family="Monaco" font-size="10.00">+</text>
<text text-anchor="start" x="568.5" y="-534" font-family="Monaco" font-size="10.00">m</text>
<text text-anchor="start" x="565" y="-519" font-family="Monaco" font-size="10.00"> </text>
<polygon fill="#666666" stroke="#666666" points="541.5,-589 541.5,-589 592.5,-589 592.5,-589 541.5,-589"/>
<polygon fill="#666666" stroke="#666666" points="541.5,-529 541.5,-529 566.5,-529 566.5,-529 541.5,-529"/>
<polygon fill="#666666" stroke="#666666" points="566.5,-529 566.5,-529 592.5,-529 592.5,-529 566.5,-529"/>
<polygon fill="none" stroke="#666666" points="541,-512 541,-606 592,-606 592,-512 541,-512"/>
</a>
</g>
</g>
<!-- Node4&#45;&gt;Node3 -->
<g id="edge3_Node000003_Node000004" class="edge">
<title>Node4&#45;&gt;Node3</title>
<g id="a_edge3_Node000003_Node000004"><a xlink:title=" ">
<path fill="none" stroke="#63b8ff" d="M540.68,-532.35C501.01,-492.93 424.74,-417.17 377.77,-370.51"/>
<polygon fill="none" stroke="#63b8ff" points="377.59,-370.32 370.51,-368.93 369.07,-361.87 376.15,-363.26 377.59,-370.32"/>
</a>
</g>
<text text-anchor="middle" x="490" y="-438" font-family="Monaco" font-size="10.00" fill="grey"> +point</text>
</g>
<!-- Node5 -->
<g id="Node000005" class="node">
<title>Node5</title>
<g id="a_Node000005"><a xlink:href="../../df/d44/struct_w_k_b_line_string_z_m.html" target="_top" xlink:title="The WKBLineStringZM struct.">
<polygon fill="white" stroke="transparent" points="615.5,-369 517.5,-369 517.5,-290 615.5,-290 615.5,-369"/>
<text text-anchor="start" x="522.5" y="-356.5" font-family="Monaco" font-size="10.00">WKBLineStringZM</text>
<text text-anchor="start" x="527.5" y="-341.5" font-family="Monaco" font-size="10.00">+</text>
<text text-anchor="start" x="546.5" y="-341.5" font-family="Monaco" font-size="10.00">byteOrder</text>
<text text-anchor="start" x="527.5" y="-326.5" font-family="Monaco" font-size="10.00">+</text>
<text text-anchor="start" x="546.5" y="-326.5" font-family="Monaco" font-size="10.00">numPoints</text>
<text text-anchor="start" x="527.5" y="-311.5" font-family="Monaco" font-size="10.00">+</text>
<text text-anchor="start" x="546.5" y="-311.5" font-family="Monaco" font-size="10.00">wkbType</text>
<text text-anchor="start" x="564.5" y="-296.5" font-family="Monaco" font-size="10.00"> </text>
<polygon fill="#666666" stroke="#666666" points="517.5,-351.5 517.5,-351.5 615.5,-351.5 615.5,-351.5 517.5,-351.5"/>
<polygon fill="#666666" stroke="#666666" points="517.5,-306.5 517.5,-306.5 544.5,-306.5 544.5,-306.5 517.5,-306.5"/>
<polygon fill="#666666" stroke="#666666" points="544.5,-306.5 544.5,-306.5 615.5,-306.5 615.5,-306.5 544.5,-306.5"/>
<polygon fill="none" stroke="#666666" points="517.5,-290 517.5,-369 615.5,-369 615.5,-290 517.5,-290"/>
</a>
</g>
</g>
<!-- Node4&#45;&gt;Node5 -->
<g id="edge5_Node000005_Node000004" class="edge">
<title>Node4&#45;&gt;Node5</title>
<g id="a_edge5_Node000005_Node000004"><a xlink:title=" ">
<path fill="none" stroke="#63b8ff" d="M566.5,-511.96C566.5,-474.12 566.5,-420.56 566.5,-381.44"/>
<polygon fill="none" stroke="#63b8ff" points="566.5,-381.28 562.5,-375.28 566.5,-369.28 570.5,-375.28 566.5,-381.28"/>
</a>
</g>
<text text-anchor="middle" x="587.5" y="-438" font-family="Monaco" font-size="10.00" fill="grey"> +points</text>
</g>
<!-- Node7 -->
<g id="Node000007" class="node">
<title>Node7</title>
<g id="a_Node000007"><a xlink:href="../../dc/dd2/struct_linear_ring_z_m.html" target="_top" xlink:title="The LinearRingZM struct.">
<polygon fill="white" stroke="transparent" points="740.5,-465 662.5,-465 662.5,-416 740.5,-416 740.5,-465"/>
<text text-anchor="start" x="667.5" y="-452.5" font-family="Monaco" font-size="10.00">LinearRingZM</text>
<text text-anchor="start" x="667.5" y="-437.5" font-family="Monaco" font-size="10.00">+</text>
<text text-anchor="start" x="681.5" y="-437.5" font-family="Monaco" font-size="10.00">numPoints</text>
<text text-anchor="start" x="699.5" y="-422.5" font-family="Monaco" font-size="10.00"> </text>
<polygon fill="#666666" stroke="#666666" points="662.5,-447.5 662.5,-447.5 740.5,-447.5 740.5,-447.5 662.5,-447.5"/>
<polygon fill="#666666" stroke="#666666" points="662.5,-432.5 662.5,-432.5 679.5,-432.5 679.5,-432.5 662.5,-432.5"/>
<polygon fill="#666666" stroke="#666666" points="679.5,-432.5 679.5,-432.5 740.5,-432.5 740.5,-432.5 679.5,-432.5"/>
<polygon fill="none" stroke="#666666" points="662.5,-416 662.5,-465 740.5,-465 740.5,-416 662.5,-416"/>
</a>
</g>
</g>
<!-- Node4&#45;&gt;Node7 -->
<g id="edge8_Node000007_Node000004" class="edge">
<title>Node4&#45;&gt;Node7</title>
<g id="a_edge8_Node000007_Node000004"><a xlink:title=" ">
<path fill="none" stroke="#63b8ff" d="M592.21,-535.81C612.79,-518.06 641.9,-492.93 664.91,-473.08"/>
<polygon fill="none" stroke="#63b8ff" points="664.94,-473.05 666.87,-466.1 674.03,-465.21 672.1,-472.15 664.94,-473.05"/>
</a>
</g>
<text text-anchor="middle" x="671.5" y="-486" font-family="Monaco" font-size="10.00" fill="grey"> +points</text>
</g>
<!-- Node5&#45;&gt;Node2 -->
<g id="edge4_Node000002_Node000005" class="edge">
<title>Node5&#45;&gt;Node2</title>
<g id="a_edge4_Node000002_Node000005"><a xlink:title=" ">
<path fill="none" stroke="#63b8ff" d="M517.1,-290.16C463.43,-243.68 390.58,-163.2 432.5,-96 450.79,-66.68 485.2,-49.22 515.8,-39.01"/>
<polygon fill="none" stroke="#63b8ff" points="515.84,-39 520.38,-33.4 527.3,-35.44 522.76,-41.04 515.84,-39"/>
</a>
</g>
<text text-anchor="middle" x="469" y="-133" font-family="Monaco" font-size="10.00" fill="grey"> +linestringzm</text>
</g>
<!-- Node15 -->
<g id="Node000015" class="node">
<title>Node15</title>
<g id="a_Node000015"><a xlink:href="../../d5/dd8/struct_w_k_b_multi_line_string_z_m.html" target="_top" xlink:title="The WKBMultiLineStringZM struct.">
<polygon fill="white" stroke="transparent" points="638,-175 515,-175 515,-96 638,-96 638,-175"/>
<text text-anchor="start" x="520.5" y="-162.5" font-family="Monaco" font-size="10.00">WKBMultiLineStringZM</text>
<text text-anchor="start" x="526" y="-147.5" font-family="Monaco" font-size="10.00">+</text>
<text text-anchor="start" x="545.5" y="-147.5" font-family="Monaco" font-size="10.00">byteOrder</text>
<text text-anchor="start" x="526" y="-132.5" font-family="Monaco" font-size="10.00">+</text>
<text text-anchor="start" x="545.5" y="-132.5" font-family="Monaco" font-size="10.00">numLineStrings</text>
<text text-anchor="start" x="526" y="-117.5" font-family="Monaco" font-size="10.00">+</text>
<text text-anchor="start" x="545.5" y="-117.5" font-family="Monaco" font-size="10.00">wkbType</text>
<text text-anchor="start" x="575" y="-102.5" font-family="Monaco" font-size="10.00"> </text>
<polygon fill="#666666" stroke="#666666" points="515.5,-157.5 515.5,-157.5 638.5,-157.5 638.5,-157.5 515.5,-157.5"/>
<polygon fill="#666666" stroke="#666666" points="515.5,-112.5 515.5,-112.5 543.5,-112.5 543.5,-112.5 515.5,-112.5"/>
<polygon fill="#666666" stroke="#666666" points="543.5,-112.5 543.5,-112.5 638.5,-112.5 638.5,-112.5 543.5,-112.5"/>
<polygon fill="none" stroke="#666666" points="515,-96 515,-175 638,-175 638,-96 515,-96"/>
</a>
</g>
</g>
<!-- Node5&#45;&gt;Node15 -->
<g id="edge20_Node000015_Node000005" class="edge">
<title>Node5&#45;&gt;Node15</title>
<g id="a_edge20_Node000015_Node000005"><a xlink:title=" ">
<path fill="none" stroke="#63b8ff" d="M568.52,-289.65C570.06,-260.24 572.17,-219.58 573.84,-187.55"/>
<polygon fill="none" stroke="#63b8ff" points="573.86,-187.28 570.17,-181.08 574.48,-175.3 578.16,-181.5 573.86,-187.28"/>
</a>
</g>
<text text-anchor="middle" x="606.5" y="-230" font-family="Monaco" font-size="10.00" fill="grey"> +lineStrings</text>
</g>
<!-- Node6 -->
<g id="Node000006" class="node">
<title>Node6</title>
<g id="a_Node000006"><a xlink:href="../../d0/dac/struct_w_k_b_polygon_z_m.html" target="_top" xlink:title="The WKBPolygonZM struct.">
<polygon fill="white" stroke="transparent" points="746,-369 657,-369 657,-290 746,-290 746,-369"/>
<text text-anchor="start" x="662.5" y="-356.5" font-family="Monaco" font-size="10.00">WKBPolygonZM</text>
<text text-anchor="start" x="666" y="-341.5" font-family="Monaco" font-size="10.00">+</text>
<text text-anchor="start" x="683.5" y="-341.5" font-family="Monaco" font-size="10.00">byteOrder</text>
<text text-anchor="start" x="666" y="-326.5" font-family="Monaco" font-size="10.00">+</text>
<text text-anchor="start" x="683.5" y="-326.5" font-family="Monaco" font-size="10.00">numRings</text>
<text text-anchor="start" x="666" y="-311.5" font-family="Monaco" font-size="10.00">+</text>
<text text-anchor="start" x="683.5" y="-311.5" font-family="Monaco" font-size="10.00">wkbType</text>
<text text-anchor="start" x="700" y="-296.5" font-family="Monaco" font-size="10.00"> </text>
<polygon fill="#666666" stroke="#666666" points="657.5,-351.5 657.5,-351.5 746.5,-351.5 746.5,-351.5 657.5,-351.5"/>
<polygon fill="#666666" stroke="#666666" points="657.5,-306.5 657.5,-306.5 681.5,-306.5 681.5,-306.5 657.5,-306.5"/>
<polygon fill="#666666" stroke="#666666" points="681.5,-306.5 681.5,-306.5 746.5,-306.5 746.5,-306.5 681.5,-306.5"/>
<polygon fill="none" stroke="#666666" points="657,-290 657,-369 746,-369 746,-290 657,-290"/>
</a>
</g>
</g>
<!-- Node6&#45;&gt;Node2 -->
<g id="edge6_Node000002_Node000006" class="edge">
<title>Node6&#45;&gt;Node2</title>
<g id="a_edge6_Node000002_Node000006"><a xlink:title=" ">
<path fill="none" stroke="#63b8ff" d="M697.43,-289.91C689.92,-221.54 673.49,-84.68 660.5,-67 654.2,-58.43 645.64,-51.53 636.38,-46.01"/>
<polygon fill="none" stroke="#63b8ff" points="636.32,-45.97 629.14,-46.69 625.72,-40.34 632.89,-39.62 636.32,-45.97"/>
</a>
</g>
<text text-anchor="middle" x="716.5" y="-133" font-family="Monaco" font-size="10.00" fill="grey"> +polygonzm</text>
</g>
<!-- Node13 -->
<g id="Node000013" class="node">
<title>Node13</title>
<g id="a_Node000013"><a xlink:href="../../d6/d04/struct_w_k_b_t_i_n_z_m.html" target="_top" xlink:title="The WKBTINZM struct.">
<polygon fill="white" stroke="transparent" points="846.5,-175 758.5,-175 758.5,-96 846.5,-96 846.5,-175"/>
<text text-anchor="start" x="774.5" y="-162.5" font-family="Monaco" font-size="10.00">WKBTINZM</text>
<text text-anchor="start" x="762.5" y="-147.5" font-family="Monaco" font-size="10.00">+</text>
<text text-anchor="start" x="775.5" y="-147.5" font-family="Monaco" font-size="10.00">byteOrder</text>
<text text-anchor="start" x="762.5" y="-132.5" font-family="Monaco" font-size="10.00">+</text>
<text text-anchor="start" x="775.5" y="-132.5" font-family="Monaco" font-size="10.00">numPolygons</text>
<text text-anchor="start" x="762.5" y="-117.5" font-family="Monaco" font-size="10.00">+</text>
<text text-anchor="start" x="775.5" y="-117.5" font-family="Monaco" font-size="10.00">wkbType</text>
<text text-anchor="start" x="800.5" y="-102.5" font-family="Monaco" font-size="10.00"> </text>
<polygon fill="#666666" stroke="#666666" points="758.5,-157.5 758.5,-157.5 846.5,-157.5 846.5,-157.5 758.5,-157.5"/>
<polygon fill="#666666" stroke="#666666" points="758.5,-112.5 758.5,-112.5 773.5,-112.5 773.5,-112.5 758.5,-112.5"/>
<polygon fill="#666666" stroke="#666666" points="773.5,-112.5 773.5,-112.5 846.5,-112.5 846.5,-112.5 773.5,-112.5"/>
<polygon fill="none" stroke="#666666" points="758.5,-96 758.5,-175 846.5,-175 846.5,-96 758.5,-96"/>
</a>
</g>
</g>
<!-- Node6&#45;&gt;Node13 -->
<g id="edge16_Node000013_Node000006" class="edge">
<title>Node6&#45;&gt;Node13</title>
<g id="a_edge16_Node000013_Node000006"><a xlink:title=" ">
<path fill="none" stroke="#63b8ff" d="M705.99,-289.91C710.68,-261.41 720.06,-222.6 738.5,-193 741.75,-187.79 745.62,-182.78 749.83,-178.05"/>
<polygon fill="none" stroke="#63b8ff" points="749.93,-177.95 751.22,-170.85 758.27,-169.32 756.98,-176.41 749.93,-177.95"/>
</a>
</g>
<text text-anchor="middle" x="766.5" y="-230" font-family="Monaco" font-size="10.00" fill="grey"> +polygons</text>
</g>
<!-- Node7&#45;&gt;Node6 -->
<g id="edge7_Node000006_Node000007" class="edge">
<title>Node7&#45;&gt;Node6</title>
<g id="a_edge7_Node000006_Node000007"><a xlink:title=" ">
<path fill="none" stroke="#63b8ff" d="M701.5,-415.85C701.5,-405.72 701.5,-393.47 701.5,-381.45"/>
<polygon fill="none" stroke="#63b8ff" points="701.5,-381.1 697.5,-375.1 701.5,-369.1 705.5,-375.1 701.5,-381.1"/>
</a>
</g>
<text text-anchor="middle" x="719.5" y="-390" font-family="Monaco" font-size="10.00" fill="grey"> +rings</text>
</g>
<!-- Node8 -->
<g id="Node000008" class="node">
<title>Node8</title>
<g id="a_Node000008"><a xlink:href="../../d2/d4d/struct_w_k_b_triangle_z_m.html" target="_top" xlink:title="The WKBTriangleZM struct.">
<polygon fill="white" stroke="transparent" points="891.5,-272 803.5,-272 803.5,-193 891.5,-193 891.5,-272"/>
<text text-anchor="start" x="808.5" y="-259.5" font-family="Monaco" font-size="10.00">WKBTriangleZM</text>
<text text-anchor="start" x="812" y="-244.5" font-family="Monaco" font-size="10.00">+</text>
<text text-anchor="start" x="829.5" y="-244.5" font-family="Monaco" font-size="10.00">byteOrder</text>
<text text-anchor="start" x="812" y="-229.5" font-family="Monaco" font-size="10.00">+</text>
<text text-anchor="start" x="829.5" y="-229.5" font-family="Monaco" font-size="10.00">numRings</text>
<text text-anchor="start" x="812" y="-214.5" font-family="Monaco" font-size="10.00">+</text>
<text text-anchor="start" x="829.5" y="-214.5" font-family="Monaco" font-size="10.00">wkbType</text>
<text text-anchor="start" x="845.5" y="-199.5" font-family="Monaco" font-size="10.00"> </text>
<polygon fill="#666666" stroke="#666666" points="803.5,-254.5 803.5,-254.5 891.5,-254.5 891.5,-254.5 803.5,-254.5"/>
<polygon fill="#666666" stroke="#666666" points="803.5,-209.5 803.5,-209.5 827.5,-209.5 827.5,-209.5 803.5,-209.5"/>
<polygon fill="#666666" stroke="#666666" points="827.5,-209.5 827.5,-209.5 891.5,-209.5 891.5,-209.5 827.5,-209.5"/>
<polygon fill="none" stroke="#666666" points="803.5,-193 803.5,-272 891.5,-272 891.5,-193 803.5,-193"/>
</a>
</g>
</g>
<!-- Node7&#45;&gt;Node8 -->
<g id="edge10_Node000008_Node000007" class="edge">
<title>Node7&#45;&gt;Node8</title>
<g id="a_edge10_Node000008_Node000007"><a xlink:title=" ">
<path fill="none" stroke="#63b8ff" d="M726.02,-415.64C731.34,-410.04 736.78,-403.96 741.5,-398 770.62,-361.23 799.16,-316.27 819.27,-282.66"/>
<polygon fill="none" stroke="#63b8ff" points="819.38,-282.49 819,-275.29 825.5,-272.17 825.88,-279.37 819.38,-282.49"/>
</a>
</g>
<text text-anchor="middle" x="766.5" y="-390" font-family="Monaco" font-size="10.00" fill="grey"> +rings</text>
</g>
<!-- Node8&#45;&gt;Node2 -->
<g id="edge9_Node000002_Node000008" class="edge">
<title>Node8&#45;&gt;Node2</title>
<g id="a_edge9_Node000002_Node000008"><a xlink:title=" ">
<path fill="none" stroke="#63b8ff" d="M862.2,-192.88C870.69,-163.44 876.09,-123.41 855.5,-96 829.56,-61.47 711.43,-41.43 637.44,-32.05"/>
<polygon fill="none" stroke="#63b8ff" points="637.43,-32.05 630.98,-35.29 625.52,-30.58 631.96,-27.35 637.43,-32.05"/>
</a>
</g>
<text text-anchor="middle" x="902.5" y="-133" font-family="Monaco" font-size="10.00" fill="grey"> +trianglezm</text>
</g>
<!-- Node9 -->
<g id="Node000009" class="node">
<title>Node9</title>
<g id="a_Node000009"><a xlink:href="../../d0/d5c/struct_w_k_b_polyhedral_surface_m.html" target="_top" xlink:title="The WKBPolyhedralSurfaceM struct.">
<polygon fill="white" stroke="transparent" points="1096,-175 965,-175 965,-96 1096,-96 1096,-175"/>
<text text-anchor="start" x="970.5" y="-162.5" font-family="Monaco" font-size="10.00">WKBPolyhedralSurfaceM</text>
<text text-anchor="start" x="980" y="-147.5" font-family="Monaco" font-size="10.00">+</text>
<text text-anchor="start" x="1003.5" y="-147.5" font-family="Monaco" font-size="10.00">byteOrder</text>
<text text-anchor="start" x="980" y="-132.5" font-family="Monaco" font-size="10.00">+</text>
<text text-anchor="start" x="1003.5" y="-132.5" font-family="Monaco" font-size="10.00">numPolygons</text>
<text text-anchor="start" x="980" y="-117.5" font-family="Monaco" font-size="10.00">+</text>
<text text-anchor="start" x="1003.5" y="-117.5" font-family="Monaco" font-size="10.00">wkbType</text>
<text text-anchor="start" x="1029" y="-102.5" font-family="Monaco" font-size="10.00"> </text>
<polygon fill="#666666" stroke="#666666" points="965.5,-157.5 965.5,-157.5 1096.5,-157.5 1096.5,-157.5 965.5,-157.5"/>
<polygon fill="#666666" stroke="#666666" points="965.5,-112.5 965.5,-112.5 1001.5,-112.5 1001.5,-112.5 965.5,-112.5"/>
<polygon fill="#666666" stroke="#666666" points="1001.5,-112.5 1001.5,-112.5 1096.5,-112.5 1096.5,-112.5 1001.5,-112.5"/>
<polygon fill="none" stroke="#666666" points="965,-96 965,-175 1096,-175 1096,-96 965,-96"/>
</a>
</g>
</g>
<!-- Node9&#45;&gt;Node2 -->
<g id="edge11_Node000002_Node000009" class="edge">
<title>Node9&#45;&gt;Node2</title>
<g id="a_edge11_Node000002_Node000009"><a xlink:title=" ">
<path fill="none" stroke="#63b8ff" d="M964.87,-95.9C943.68,-84.96 919.66,-74.11 896.5,-67 809.08,-40.17 703.04,-30.68 637.67,-27.33"/>
<polygon fill="none" stroke="#63b8ff" points="637.54,-27.32 631.36,-31.03 625.56,-26.75 631.74,-23.04 637.54,-27.32"/>
</a>
</g>
<text text-anchor="middle" x="981" y="-70" font-family="Monaco" font-size="10.00" fill="grey"> +Polyhedralsurfacezm</text>
</g>
<!-- Node10 -->
<g id="Node000010" class="node">
<title>Node10</title>
<g id="a_Node000010"><a xlink:href="../../d0/d5d/struct_w_k_b_polygon_m.html" target="_top" xlink:title="The WKBPolygonM struct.">
<polygon fill="white" stroke="transparent" points="1071.5,-369 989.5,-369 989.5,-290 1071.5,-290 1071.5,-369"/>
<text text-anchor="start" x="994.5" y="-356.5" font-family="Monaco" font-size="10.00">WKBPolygonM</text>
<text text-anchor="start" x="996.5" y="-341.5" font-family="Monaco" font-size="10.00">+</text>
<text text-anchor="start" x="1012.5" y="-341.5" font-family="Monaco" font-size="10.00">byteOrder</text>
<text text-anchor="start" x="996.5" y="-326.5" font-family="Monaco" font-size="10.00">+</text>
<text text-anchor="start" x="1012.5" y="-326.5" font-family="Monaco" font-size="10.00">numRings</text>
<text text-anchor="start" x="996.5" y="-311.5" font-family="Monaco" font-size="10.00">+</text>
<text text-anchor="start" x="1012.5" y="-311.5" font-family="Monaco" font-size="10.00">wkbType</text>
<text text-anchor="start" x="1028.5" y="-296.5" font-family="Monaco" font-size="10.00"> </text>
<polygon fill="#666666" stroke="#666666" points="989.5,-351.5 989.5,-351.5 1071.5,-351.5 1071.5,-351.5 989.5,-351.5"/>
<polygon fill="#666666" stroke="#666666" points="989.5,-306.5 989.5,-306.5 1010.5,-306.5 1010.5,-306.5 989.5,-306.5"/>
<polygon fill="#666666" stroke="#666666" points="1010.5,-306.5 1010.5,-306.5 1071.5,-306.5 1071.5,-306.5 1010.5,-306.5"/>
<polygon fill="none" stroke="#666666" points="989.5,-290 989.5,-369 1071.5,-369 1071.5,-290 989.5,-290"/>
</a>
</g>
</g>
<!-- Node10&#45;&gt;Node9 -->
<g id="edge12_Node000009_Node000010" class="edge">
<title>Node10&#45;&gt;Node9</title>
<g id="a_edge12_Node000009_Node000010"><a xlink:title=" ">
<path fill="none" stroke="#63b8ff" d="M1030.5,-289.65C1030.5,-260.24 1030.5,-219.58 1030.5,-187.55"/>
<polygon fill="none" stroke="#63b8ff" points="1030.5,-187.3 1026.5,-181.3 1030.5,-175.3 1034.5,-181.3 1030.5,-187.3"/>
</a>
</g>
<text text-anchor="middle" x="1058.5" y="-230" font-family="Monaco" font-size="10.00" fill="grey"> +polygons</text>
</g>
<!-- Node11 -->
<g id="Node000011" class="node">
<title>Node11</title>
<g id="a_Node000011"><a xlink:href="../../d0/d1b/struct_linear_ring_m.html" target="_top" xlink:title="The LinearRingM struct.">
<polygon fill="white" stroke="transparent" points="1067,-465 994,-465 994,-416 1067,-416 1067,-465"/>
<text text-anchor="start" x="1000.5" y="-452.5" font-family="Monaco" font-size="10.00">LinearRingM</text>
<text text-anchor="start" x="998.5" y="-437.5" font-family="Monaco" font-size="10.00">+</text>
<text text-anchor="start" x="1011.5" y="-437.5" font-family="Monaco" font-size="10.00">numPoints</text>
<text text-anchor="start" x="1029" y="-422.5" font-family="Monaco" font-size="10.00"> </text>
<polygon fill="#666666" stroke="#666666" points="994.5,-447.5 994.5,-447.5 1067.5,-447.5 1067.5,-447.5 994.5,-447.5"/>
<polygon fill="#666666" stroke="#666666" points="994.5,-432.5 994.5,-432.5 1009.5,-432.5 1009.5,-432.5 994.5,-432.5"/>
<polygon fill="#666666" stroke="#666666" points="1009.5,-432.5 1009.5,-432.5 1067.5,-432.5 1067.5,-432.5 1009.5,-432.5"/>
<polygon fill="none" stroke="#666666" points="994,-416 994,-465 1067,-465 1067,-416 994,-416"/>
</a>
</g>
</g>
<!-- Node11&#45;&gt;Node10 -->
<g id="edge13_Node000010_Node000011" class="edge">
<title>Node11&#45;&gt;Node10</title>
<g id="a_edge13_Node000010_Node000011"><a xlink:title=" ">
<path fill="none" stroke="#63b8ff" d="M1030.5,-415.85C1030.5,-405.72 1030.5,-393.47 1030.5,-381.45"/>
<polygon fill="none" stroke="#63b8ff" points="1030.5,-381.1 1026.5,-375.1 1030.5,-369.1 1034.5,-375.1 1030.5,-381.1"/>
</a>
</g>
<text text-anchor="middle" x="1048.5" y="-390" font-family="Monaco" font-size="10.00" fill="grey"> +rings</text>
</g>
<!-- Node12 -->
<g id="Node000012" class="node">
<title>Node12</title>
<g id="a_Node000012"><a xlink:href="../../de/d55/struct_point_m.html" target="_top" xlink:title="The PointM struct.">
<polygon fill="white" stroke="transparent" points="1052.5,-598.5 1008.5,-598.5 1008.5,-519.5 1052.5,-519.5 1052.5,-598.5"/>
<text text-anchor="start" x="1013.5" y="-586" font-family="Monaco" font-size="10.00">PointM</text>
<text text-anchor="start" x="1015.5" y="-571" font-family="Monaco" font-size="10.00">+</text>
<text text-anchor="start" x="1031.5" y="-571" font-family="Monaco" font-size="10.00">x</text>
<text text-anchor="start" x="1015.5" y="-556" font-family="Monaco" font-size="10.00">+</text>
<text text-anchor="start" x="1031.5" y="-556" font-family="Monaco" font-size="10.00">y</text>
<text text-anchor="start" x="1015.5" y="-541" font-family="Monaco" font-size="10.00">+</text>
<text text-anchor="start" x="1031.5" y="-541" font-family="Monaco" font-size="10.00">m</text>
<text text-anchor="start" x="1028.5" y="-526" font-family="Monaco" font-size="10.00"> </text>
<polygon fill="#666666" stroke="#666666" points="1008.5,-581 1008.5,-581 1052.5,-581 1052.5,-581 1008.5,-581"/>
<polygon fill="#666666" stroke="#666666" points="1008.5,-536 1008.5,-536 1029.5,-536 1029.5,-536 1008.5,-536"/>
<polygon fill="#666666" stroke="#666666" points="1029.5,-536 1029.5,-536 1052.5,-536 1052.5,-536 1029.5,-536"/>
<polygon fill="none" stroke="#666666" points="1008.5,-519.5 1008.5,-598.5 1052.5,-598.5 1052.5,-519.5 1008.5,-519.5"/>
</a>
</g>
</g>
<!-- Node12&#45;&gt;Node11 -->
<g id="edge14_Node000011_Node000012" class="edge">
<title>Node12&#45;&gt;Node11</title>
<g id="a_edge14_Node000011_Node000012"><a xlink:title=" ">
<path fill="none" stroke="#63b8ff" d="M1030.5,-519.21C1030.5,-505.66 1030.5,-490.54 1030.5,-477.25"/>
<polygon fill="none" stroke="#63b8ff" points="1030.5,-477.19 1026.5,-471.19 1030.5,-465.19 1034.5,-471.19 1030.5,-477.19"/>
</a>
</g>
<text text-anchor="middle" x="1051.5" y="-486" font-family="Monaco" font-size="10.00" fill="grey"> +points</text>
</g>
<!-- Node13&#45;&gt;Node2 -->
<g id="edge15_Node000002_Node000013" class="edge">
<title>Node13&#45;&gt;Node2</title>
<g id="a_edge15_Node000002_Node000013"><a xlink:title=" ">
<path fill="none" stroke="#63b8ff" d="M758.48,-104.57C753.8,-101.6 749.08,-98.7 744.5,-96 720.34,-81.78 714.13,-78.34 688.5,-67 672.01,-59.71 653.81,-52.58 636.95,-46.35"/>
<polygon fill="none" stroke="#63b8ff" points="636.81,-46.3 629.8,-48 625.53,-42.19 632.54,-40.49 636.81,-46.3"/>
</a>
</g>
<text text-anchor="middle" x="731.5" y="-70" font-family="Monaco" font-size="10.00" fill="grey"> +tinzm</text>
</g>
<!-- Node14&#45;&gt;Node2 -->
<g id="edge17_Node000002_Node000014" class="edge">
<title>Node14&#45;&gt;Node2</title>
<g id="a_edge17_Node000002_Node000014"><a xlink:title=" ">
<path fill="none" stroke="#63b8ff" d="M335.93,-95.78C337.43,-85.23 341.01,-74.63 348.5,-67 371.2,-43.88 455.57,-33.43 515.03,-28.85"/>
<polygon fill="none" stroke="#63b8ff" points="515.34,-28.83 521.04,-24.41 527.31,-27.96 521.62,-32.38 515.34,-28.83"/>
</a>
</g>
<text text-anchor="middle" x="379" y="-70" font-family="Monaco" font-size="10.00" fill="grey"> +mpointzm</text>
</g>
<!-- Node15&#45;&gt;Node2 -->
<g id="edge19_Node000002_Node000015" class="edge">
<title>Node15&#45;&gt;Node2</title>
<g id="a_edge19_Node000002_Node000015"><a xlink:title=" ">
<path fill="none" stroke="#63b8ff" d="M576.5,-95.76C576.5,-84.59 576.5,-72.45 576.5,-61.46"/>
<polygon fill="none" stroke="#63b8ff" points="576.5,-61.2 572.5,-55.2 576.5,-49.2 580.5,-55.2 576.5,-61.2"/>
</a>
</g>
<text text-anchor="middle" x="617.5" y="-70" font-family="Monaco" font-size="10.00" fill="grey"> +mlinestringzm</text>
</g>
<!-- Node16 -->
<g id="Node000016" class="node">
<title>Node16</title>
<g id="a_Node000016"><a xlink:href="../../de/dad/struct_w_k_b_multi_polygon_z.html" target="_top" xlink:title="The WKBMultiPolygonZ struct.">
<polygon fill="white" stroke="transparent" points="1218.5,-175 1114.5,-175 1114.5,-96 1218.5,-96 1218.5,-175"/>
<text text-anchor="start" x="1119.5" y="-162.5" font-family="Monaco" font-size="10.00">WKBMultiPolygonZ</text>
<text text-anchor="start" x="1122.5" y="-147.5" font-family="Monaco" font-size="10.00">+</text>
<text text-anchor="start" x="1139.5" y="-147.5" font-family="Monaco" font-size="10.00">byteOrder</text>
<text text-anchor="start" x="1122.5" y="-132.5" font-family="Monaco" font-size="10.00">+</text>
<text text-anchor="start" x="1139.5" y="-132.5" font-family="Monaco" font-size="10.00">numPolygons</text>
<text text-anchor="start" x="1122.5" y="-117.5" font-family="Monaco" font-size="10.00">+</text>
<text text-anchor="start" x="1139.5" y="-117.5" font-family="Monaco" font-size="10.00">wkbType</text>
<text text-anchor="start" x="1164.5" y="-102.5" font-family="Monaco" font-size="10.00"> </text>
<polygon fill="#666666" stroke="#666666" points="1114.5,-157.5 1114.5,-157.5 1218.5,-157.5 1218.5,-157.5 1114.5,-157.5"/>
<polygon fill="#666666" stroke="#666666" points="1114.5,-112.5 1114.5,-112.5 1137.5,-112.5 1137.5,-112.5 1114.5,-112.5"/>
<polygon fill="#666666" stroke="#666666" points="1137.5,-112.5 1137.5,-112.5 1218.5,-112.5 1218.5,-112.5 1137.5,-112.5"/>
<polygon fill="none" stroke="#666666" points="1114.5,-96 1114.5,-175 1218.5,-175 1218.5,-96 1114.5,-96"/>
</a>
</g>
</g>
<!-- Node16&#45;&gt;Node2 -->
<g id="edge21_Node000002_Node000016" class="edge">
<title>Node16&#45;&gt;Node2</title>
<g id="a_edge21_Node000002_Node000016"><a xlink:title=" ">
<path fill="none" stroke="#63b8ff" d="M1114.21,-98.92C1092.92,-86.37 1067.47,-73.73 1042.5,-67 967.83,-46.88 746.43,-33.73 637.89,-28.32"/>
<polygon fill="none" stroke="#63b8ff" points="637.84,-28.31 631.65,-32.01 625.86,-27.72 632.05,-24.02 637.84,-28.31"/>
</a>
</g>
<text text-anchor="middle" x="1110.5" y="-70" font-family="Monaco" font-size="10.00" fill="grey"> +mpolygonzm</text>
</g>
<!-- Node17 -->
<g id="Node000017" class="node">
<title>Node17</title>
<g id="a_Node000017"><a xlink:href="../../db/dad/struct_w_k_b_polygon_z.html" target="_top" xlink:title="The WKBPolygonZ struct.">
<polygon fill="white" stroke="transparent" points="1206.5,-369 1126.5,-369 1126.5,-290 1206.5,-290 1206.5,-369"/>
<text text-anchor="start" x="1131.5" y="-356.5" font-family="Monaco" font-size="10.00">WKBPolygonZ</text>
<text text-anchor="start" x="1133" y="-341.5" font-family="Monaco" font-size="10.00">+</text>
<text text-anchor="start" x="1148.5" y="-341.5" font-family="Monaco" font-size="10.00">byteOrder</text>
<text text-anchor="start" x="1133" y="-326.5" font-family="Monaco" font-size="10.00">+</text>
<text text-anchor="start" x="1148.5" y="-326.5" font-family="Monaco" font-size="10.00">numRings</text>
<text text-anchor="start" x="1133" y="-311.5" font-family="Monaco" font-size="10.00">+</text>
<text text-anchor="start" x="1148.5" y="-311.5" font-family="Monaco" font-size="10.00">wkbType</text>
<text text-anchor="start" x="1164.5" y="-296.5" font-family="Monaco" font-size="10.00"> </text>
<polygon fill="#666666" stroke="#666666" points="1126.5,-351.5 1126.5,-351.5 1206.5,-351.5 1206.5,-351.5 1126.5,-351.5"/>
<polygon fill="#666666" stroke="#666666" points="1126.5,-306.5 1126.5,-306.5 1146.5,-306.5 1146.5,-306.5 1126.5,-306.5"/>
<polygon fill="#666666" stroke="#666666" points="1146.5,-306.5 1146.5,-306.5 1206.5,-306.5 1206.5,-306.5 1146.5,-306.5"/>
<polygon fill="none" stroke="#666666" points="1126.5,-290 1126.5,-369 1206.5,-369 1206.5,-290 1126.5,-290"/>
</a>
</g>
</g>
<!-- Node17&#45;&gt;Node16 -->
<g id="edge22_Node000016_Node000017" class="edge">
<title>Node17&#45;&gt;Node16</title>
<g id="a_edge22_Node000016_Node000017"><a xlink:title=" ">
<path fill="none" stroke="#63b8ff" d="M1166.5,-289.65C1166.5,-260.24 1166.5,-219.58 1166.5,-187.55"/>
<polygon fill="none" stroke="#63b8ff" points="1166.5,-187.3 1162.5,-181.3 1166.5,-175.3 1170.5,-181.3 1166.5,-187.3"/>
</a>
</g>
<text text-anchor="middle" x="1194.5" y="-230" font-family="Monaco" font-size="10.00" fill="grey"> +polygons</text>
</g>
<!-- Node18 -->
<g id="Node000018" class="node">
<title>Node18</title>
<g id="a_Node000018"><a xlink:href="../../d2/d2c/struct_linear_ring_z.html" target="_top" xlink:title="The LinearRingZ struct.">
<polygon fill="white" stroke="transparent" points="1203,-465 1130,-465 1130,-416 1203,-416 1203,-465"/>
<text text-anchor="start" x="1137.5" y="-452.5" font-family="Monaco" font-size="10.00">LinearRingZ</text>
<text text-anchor="start" x="1134.5" y="-437.5" font-family="Monaco" font-size="10.00">+</text>
<text text-anchor="start" x="1147.5" y="-437.5" font-family="Monaco" font-size="10.00">numPoints</text>
<text text-anchor="start" x="1165" y="-422.5" font-family="Monaco" font-size="10.00"> </text>
<polygon fill="#666666" stroke="#666666" points="1130.5,-447.5 1130.5,-447.5 1203.5,-447.5 1203.5,-447.5 1130.5,-447.5"/>
<polygon fill="#666666" stroke="#666666" points="1130.5,-432.5 1130.5,-432.5 1145.5,-432.5 1145.5,-432.5 1130.5,-432.5"/>
<polygon fill="#666666" stroke="#666666" points="1145.5,-432.5 1145.5,-432.5 1203.5,-432.5 1203.5,-432.5 1145.5,-432.5"/>
<polygon fill="none" stroke="#666666" points="1130,-416 1130,-465 1203,-465 1203,-416 1130,-416"/>
</a>
</g>
</g>
<!-- Node18&#45;&gt;Node17 -->
<g id="edge23_Node000017_Node000018" class="edge">
<title>Node18&#45;&gt;Node17</title>
<g id="a_edge23_Node000017_Node000018"><a xlink:title=" ">
<path fill="none" stroke="#63b8ff" d="M1166.5,-415.85C1166.5,-405.72 1166.5,-393.47 1166.5,-381.45"/>
<polygon fill="none" stroke="#63b8ff" points="1166.5,-381.1 1162.5,-375.1 1166.5,-369.1 1170.5,-375.1 1166.5,-381.1"/>
</a>
</g>
<text text-anchor="middle" x="1184.5" y="-390" font-family="Monaco" font-size="10.00" fill="grey"> +rings</text>
</g>
<!-- Node19 -->
<g id="Node000019" class="node">
<title>Node19</title>
<g id="a_Node000019"><a xlink:href="../../d6/d0c/struct_point_z.html" target="_top" xlink:title="The PointZ struct.">
<polygon fill="white" stroke="transparent" points="1187.5,-598.5 1145.5,-598.5 1145.5,-519.5 1187.5,-519.5 1187.5,-598.5"/>
<text text-anchor="start" x="1150.5" y="-586" font-family="Monaco" font-size="10.00">PointZ</text>
<text text-anchor="start" x="1153" y="-571" font-family="Monaco" font-size="10.00">+</text>
<text text-anchor="start" x="1169.5" y="-571" font-family="Monaco" font-size="10.00">x</text>
<text text-anchor="start" x="1153" y="-556" font-family="Monaco" font-size="10.00">+</text>
<text text-anchor="start" x="1169.5" y="-556" font-family="Monaco" font-size="10.00">y</text>
<text text-anchor="start" x="1153" y="-541" font-family="Monaco" font-size="10.00">+</text>
<text text-anchor="start" x="1169.5" y="-541" font-family="Monaco" font-size="10.00">z</text>
<text text-anchor="start" x="1164.5" y="-526" font-family="Monaco" font-size="10.00"> </text>
<polygon fill="#666666" stroke="#666666" points="1145.5,-581 1145.5,-581 1187.5,-581 1187.5,-581 1145.5,-581"/>
<polygon fill="#666666" stroke="#666666" points="1145.5,-536 1145.5,-536 1167.5,-536 1167.5,-536 1145.5,-536"/>
<polygon fill="#666666" stroke="#666666" points="1167.5,-536 1167.5,-536 1187.5,-536 1187.5,-536 1167.5,-536"/>
<polygon fill="none" stroke="#666666" points="1145.5,-519.5 1145.5,-598.5 1187.5,-598.5 1187.5,-519.5 1145.5,-519.5"/>
</a>
</g>
</g>
<!-- Node19&#45;&gt;Node18 -->
<g id="edge24_Node000018_Node000019" class="edge">
<title>Node19&#45;&gt;Node18</title>
<g id="a_edge24_Node000018_Node000019"><a xlink:title=" ">
<path fill="none" stroke="#63b8ff" d="M1166.5,-519.21C1166.5,-505.66 1166.5,-490.54 1166.5,-477.25"/>
<polygon fill="none" stroke="#63b8ff" points="1166.5,-477.19 1162.5,-471.19 1166.5,-465.19 1170.5,-471.19 1166.5,-477.19"/>
</a>
</g>
<text text-anchor="middle" x="1187.5" y="-486" font-family="Monaco" font-size="10.00" fill="grey"> +points</text>
</g>
</g>
</svg>

<g id="navigator" transform="translate(0 0)" fill="#404254">
  <rect fill="#f2f5e9" fill-opacity="0.5" stroke="#606060" stroke-width=".5" x="0" y="0" width="60" height="60"/>
  <use id="zoomplus" xlink:href="#zoomPlus" x="17" y="9" onmousedown="handleZoom(evt,'in')"/>
  <use id="zoomminus" xlink:href="#zoomMin" x="42" y="9" onmousedown="handleZoom(evt,'out')"/>
  <use id="reset" xlink:href="#resetDef" x="30" y="36" onmousedown="handleReset()"/>
   <use id="arrowup" xlink:href="#arrowUp" x="0" y="0" onmousedown="handlePan(0,-1)"/>
  <use id="arrowright" xlink:href="#arrowRight" x="0" y="0" onmousedown="handlePan(1,0)"/>
  <use id="arrowdown" xlink:href="#arrowDown" x="0" y="0" onmousedown="handlePan(0,1)"/>
  <use id="arrowleft" xlink:href="#arrowLeft" x="0" y="0" onmousedown="handlePan(-1,0)"/>
</g>
<svg viewBox="0 0 15 15" width="100%" height="30px" preserveAspectRatio="xMaxYMin meet">
 <g id="arrow_out" transform="scale(0.3 0.3)">
  <a xlink:href="struct_w_k_b_geometry_collection_z_m__coll__graph_org.svg" target="_base">
   <rect id="button" ry="5" rx="5" y="6" x="6" height="38" width="38"
        fill="#f2f5e9" fill-opacity="0.5" stroke="#606060" stroke-width="1.0"/>
   <path id="arrow"
     d="M 11.500037,31.436501 C 11.940474,20.09759 22.043105,11.32322 32.158766,21.979434 L 37.068811,17.246167 C 37.068811,17.246167 37.088388,32 37.088388,32 L 22.160133,31.978069 C 22.160133,31.978069 26.997745,27.140456 26.997745,27.140456 C 18.528582,18.264221 13.291696,25.230495 11.500037,31.436501 z"
     style="fill:#404040;"/>
  </a>
 </g>
</svg>

<style type='text/css'>
<![CDATA[
[data-mouse-over-selected='false'] { opacity: 0.7; }
[data-mouse-over-selected='true']  { opacity: 1.0; }
]]>
</style>
<script type="application/ecmascript"><![CDATA[
document.addEventListener('DOMContentLoaded', (event) => {
  highlightEdges();
  highlightAdjacentNodes();
});
]]></script>
</svg>
