<?xml version="1.0" encoding="UTF-8" standalone="no"?>
<!DOCTYPE svg PUBLIC "-//W3C//DTD SVG 1.1//EN"
 "http://www.w3.org/Graphics/SVG/1.1/DTD/svg11.dtd">
<!-- Generated by graphviz version 2.43.0 (0)
 -->
<!-- Title: HydroCouple::Spatial::ITIN Pages: 1 -->
<svg width="156pt" height="1271pt"
 viewBox="0.00 0.00 156.00 1271.00" xmlns="http://www.w3.org/2000/svg" xmlns:xlink="http://www.w3.org/1999/xlink">
<g id="graph0" class="graph" transform="scale(1 1) rotate(0) translate(4 1267)">
<title>HydroCouple::Spatial::ITIN</title>
<!-- Node1 -->
<g id="Node000001" class="node">
<title>Node1</title>
<g id="a_Node000001"><a xlink:title="An ITIN is a triangulated irregular network IPolyhedralSurface consisting only of ITriangle patches.">
<polygon fill="#999999" stroke="transparent" points="130.5,-75 17.5,-75 17.5,0 130.5,0 130.5,-75"/>
<text text-anchor="start" x="23" y="-62.5" font-family="Monaco" font-size="10.00">HydroCouple::Spatial</text>
<text text-anchor="start" x="61.5" y="-51.5" font-family="Monaco" font-size="10.00">::ITIN</text>
<text text-anchor="start" x="72.5" y="-36.5" font-family="Monaco" font-size="10.00"> </text>
<text text-anchor="start" x="33.5" y="-21.5" font-family="Monaco" font-size="10.00">+</text>
<text text-anchor="start" x="58" y="-21.5" font-family="Monaco" font-size="10.00">~ITIN()</text>
<text text-anchor="start" x="33.5" y="-6.5" font-family="Monaco" font-size="10.00">+</text>
<text text-anchor="start" x="58" y="-6.5" font-family="Monaco" font-size="10.00">triangle()</text>
<polygon fill="#666666" stroke="#666666" points="18,-46.5 18,-46.5 131,-46.5 131,-46.5 18,-46.5"/>
<polygon fill="#666666" stroke="#666666" points="18,-31.5 18,-31.5 131,-31.5 131,-31.5 18,-31.5"/>
<polygon fill="none" stroke="#666666" points="17.5,0 17.5,-75 130.5,-75 130.5,0 17.5,0"/>
</a>
</g>
</g>
<!-- Node2 -->
<g id="Node000002" class="node">
<title>Node2</title>
<g id="a_Node000002"><a xlink:href="../../d3/d0f/class_hydro_couple_1_1_spatial_1_1_i_polyhedral_surface.html" target="_top" xlink:title="An IPolyhedralSurface is a contiguous collection of polygons, which share common boundary segments.">
<polygon fill="white" stroke="transparent" points="138.5,-261 9.5,-261 9.5,-111 138.5,-111 138.5,-261"/>
<text text-anchor="start" x="23" y="-249" font-family="Monaco" font-size="10.00">HydroCouple::Spatial</text>
<text text-anchor="start" x="25.5" y="-238" font-family="Monaco" font-size="10.00">::IPolyhedralSurface</text>
<text text-anchor="start" x="72.5" y="-223" font-family="Monaco" font-size="10.00"> </text>
<text text-anchor="start" x="14" y="-208" font-family="Monaco" font-size="10.00">+</text>
<text text-anchor="start" x="27" y="-208" font-family="Monaco" font-size="10.00">~IPolyhedralSurface()</text>
<text text-anchor="start" x="14" y="-193" font-family="Monaco" font-size="10.00">+</text>
<text text-anchor="start" x="27" y="-193" font-family="Monaco" font-size="10.00">patchCount()</text>
<text text-anchor="start" x="14" y="-178" font-family="Monaco" font-size="10.00">+</text>
<text text-anchor="start" x="27" y="-178" font-family="Monaco" font-size="10.00">patch()</text>
<text text-anchor="start" x="14" y="-163" font-family="Monaco" font-size="10.00">+</text>
<text text-anchor="start" x="27" y="-163" font-family="Monaco" font-size="10.00">vertexCount()</text>
<text text-anchor="start" x="14" y="-148" font-family="Monaco" font-size="10.00">+</text>
<text text-anchor="start" x="27" y="-148" font-family="Monaco" font-size="10.00">vertex()</text>
<text text-anchor="start" x="14" y="-133" font-family="Monaco" font-size="10.00">+</text>
<text text-anchor="start" x="27" y="-133" font-family="Monaco" font-size="10.00">boundingPolygons()</text>
<text text-anchor="start" x="14" y="-118" font-family="Monaco" font-size="10.00">+</text>
<text text-anchor="start" x="27" y="-118" font-family="Monaco" font-size="10.00">isClosed()</text>
<polygon fill="#666666" stroke="#666666" points="10,-233 10,-233 139,-233 139,-233 10,-233"/>
<polygon fill="#666666" stroke="#666666" points="10,-218 10,-218 139,-218 139,-218 10,-218"/>
<polygon fill="none" stroke="#666666" points="9.5,-111 9.5,-261 138.5,-261 138.5,-111 9.5,-111"/>
</a>
</g>
</g>
<!-- Node2&#45;&gt;Node1 -->
<g id="edge1_Node000001_Node000002" class="edge">
<title>Node2&#45;&gt;Node1</title>
<g id="a_edge1_Node000001_Node000002"><a xlink:title=" ">
<path fill="none" stroke="#63b8ff" d="M74,-100.8C74,-91.91 74,-83.25 74,-75.35"/>
<polygon fill="none" stroke="#63b8ff" points="70.5,-100.89 74,-110.89 77.5,-100.89 70.5,-100.89"/>
</a>
</g>
</g>
<!-- Node3 -->
<g id="Node000003" class="node">
<title>Node3</title>
<g id="a_Node000003"><a xlink:href="../../de/de8/class_hydro_couple_1_1_spatial_1_1_i_surface.html" target="_top" xlink:title="A ISurface is a 2&#45;dimensional IGeometry object.">
<polygon fill="white" stroke="transparent" points="138,-417 10,-417 10,-297 138,-297 138,-417"/>
<text text-anchor="start" x="22.5" y="-405" font-family="Monaco" font-size="10.00">HydroCouple::Spatial</text>
<text text-anchor="start" x="51" y="-394" font-family="Monaco" font-size="10.00">::ISurface</text>
<text text-anchor="start" x="72" y="-379" font-family="Monaco" font-size="10.00"> </text>
<text text-anchor="start" x="14" y="-364" font-family="Monaco" font-size="10.00">+</text>
<text text-anchor="start" x="27" y="-364" font-family="Monaco" font-size="10.00">~ISurface()</text>
<text text-anchor="start" x="14" y="-349" font-family="Monaco" font-size="10.00">+</text>
<text text-anchor="start" x="27" y="-349" font-family="Monaco" font-size="10.00">area()</text>
<text text-anchor="start" x="14" y="-334" font-family="Monaco" font-size="10.00">+</text>
<text text-anchor="start" x="27" y="-334" font-family="Monaco" font-size="10.00">centroid()</text>
<text text-anchor="start" x="14" y="-319" font-family="Monaco" font-size="10.00">+</text>
<text text-anchor="start" x="27" y="-319" font-family="Monaco" font-size="10.00">pointOnSurface()</text>
<text text-anchor="start" x="14" y="-304" font-family="Monaco" font-size="10.00">+</text>
<text text-anchor="start" x="27" y="-304" font-family="Monaco" font-size="10.00">boundaryMultiCurve()</text>
<polygon fill="#666666" stroke="#666666" points="10,-389 10,-389 138,-389 138,-389 10,-389"/>
<polygon fill="#666666" stroke="#666666" points="10,-374 10,-374 138,-374 138,-374 10,-374"/>
<polygon fill="none" stroke="#666666" points="10,-297 10,-417 138,-417 138,-297 10,-297"/>
</a>
</g>
</g>
<!-- Node3&#45;&gt;Node2 -->
<g id="edge2_Node000002_Node000003" class="edge">
<title>Node3&#45;&gt;Node2</title>
<g id="a_edge2_Node000002_Node000003"><a xlink:title=" ">
<path fill="none" stroke="#63b8ff" d="M74,-286.75C74,-278.34 74,-269.71 74,-261.23"/>
<polygon fill="none" stroke="#63b8ff" points="70.5,-286.89 74,-296.89 77.5,-286.89 70.5,-286.89"/>
</a>
</g>
</g>
<!-- Node4 -->
<g id="Node000004" class="node">
<title>Node4</title>
<g id="a_Node000004"><a xlink:href="../../d3/d92/class_hydro_couple_1_1_spatial_1_1_i_geometry.html" target="_top" xlink:title="IGeometry is the root class of the geometry hierarchy.">
<polygon fill="white" stroke="transparent" points="148,-1263 0,-1263 0,-453 148,-453 148,-1263"/>
<text text-anchor="start" x="22.5" y="-1251" font-family="Monaco" font-size="10.00">HydroCouple::Spatial</text>
<text text-anchor="start" x="45" y="-1240" font-family="Monaco" font-size="10.00">::IGeometry</text>
<text text-anchor="start" x="72" y="-1225" font-family="Monaco" font-size="10.00"> </text>
<text text-anchor="start" x="4" y="-1210" font-family="Monaco" font-size="10.00">+</text>
<text text-anchor="start" x="17" y="-1210" font-family="Monaco" font-size="10.00">~IGeometry()</text>
<text text-anchor="start" x="4" y="-1195" font-family="Monaco" font-size="10.00">+</text>
<text text-anchor="start" x="17" y="-1195" font-family="Monaco" font-size="10.00">id()</text>
<text text-anchor="start" x="4" y="-1180" font-family="Monaco" font-size="10.00">+</text>
<text text-anchor="start" x="17" y="-1180" font-family="Monaco" font-size="10.00">index()</text>
<text text-anchor="start" x="4" y="-1165" font-family="Monaco" font-size="10.00">+</text>
<text text-anchor="start" x="17" y="-1165" font-family="Monaco" font-size="10.00">dimension()</text>
<text text-anchor="start" x="4" y="-1150" font-family="Monaco" font-size="10.00">+</text>
<text text-anchor="start" x="17" y="-1150" font-family="Monaco" font-size="10.00">coordinateDimension()</text>
<text text-anchor="start" x="4" y="-1135" font-family="Monaco" font-size="10.00">+</text>
<text text-anchor="start" x="17" y="-1135" font-family="Monaco" font-size="10.00">geometryType()</text>
<text text-anchor="start" x="4" y="-1120" font-family="Monaco" font-size="10.00">+</text>
<text text-anchor="start" x="17" y="-1120" font-family="Monaco" font-size="10.00">spatialReferenceSystem()</text>
<text text-anchor="start" x="4" y="-1105" font-family="Monaco" font-size="10.00">+</text>
<text text-anchor="start" x="17" y="-1105" font-family="Monaco" font-size="10.00">envelope()</text>
<text text-anchor="start" x="4" y="-1090" font-family="Monaco" font-size="10.00">+</text>
<text text-anchor="start" x="17" y="-1090" font-family="Monaco" font-size="10.00">getWKT()</text>
<text text-anchor="start" x="4" y="-1075" font-family="Monaco" font-size="10.00">+</text>
<text text-anchor="start" x="17" y="-1075" font-family="Monaco" font-size="10.00">getWKB()</text>
<text text-anchor="start" x="4" y="-1060" font-family="Monaco" font-size="10.00">+</text>
<text text-anchor="start" x="17" y="-1060" font-family="Monaco" font-size="10.00">isEmpty()</text>
<text text-anchor="start" x="4" y="-1045" font-family="Monaco" font-size="10.00">+</text>
<text text-anchor="start" x="17" y="-1045" font-family="Monaco" font-size="10.00">isSimple()</text>
<text text-anchor="start" x="4" y="-1030" font-family="Monaco" font-size="10.00">+</text>
<text text-anchor="start" x="17" y="-1030" font-family="Monaco" font-size="10.00">is3D()</text>
<text text-anchor="start" x="4" y="-1015" font-family="Monaco" font-size="10.00">+</text>
<text text-anchor="start" x="17" y="-1015" font-family="Monaco" font-size="10.00">isMeasured()</text>
<text text-anchor="start" x="4" y="-1000" font-family="Monaco" font-size="10.00">+</text>
<text text-anchor="start" x="17" y="-1000" font-family="Monaco" font-size="10.00">boundary()</text>
<text text-anchor="start" x="4" y="-985" font-family="Monaco" font-size="10.00">+</text>
<text text-anchor="start" x="17" y="-985" font-family="Monaco" font-size="10.00">equals()</text>
<text text-anchor="start" x="4" y="-970" font-family="Monaco" font-size="10.00">+</text>
<text text-anchor="start" x="17" y="-970" font-family="Monaco" font-size="10.00">disjoint()</text>
<text text-anchor="start" x="4" y="-955" font-family="Monaco" font-size="10.00">+</text>
<text text-anchor="start" x="17" y="-955" font-family="Monaco" font-size="10.00">intersects()</text>
<text text-anchor="start" x="4" y="-940" font-family="Monaco" font-size="10.00">+</text>
<text text-anchor="start" x="17" y="-940" font-family="Monaco" font-size="10.00">touches()</text>
<text text-anchor="start" x="4" y="-925" font-family="Monaco" font-size="10.00">+</text>
<text text-anchor="start" x="17" y="-925" font-family="Monaco" font-size="10.00">crosses()</text>
<text text-anchor="start" x="4" y="-910" font-family="Monaco" font-size="10.00">+</text>
<text text-anchor="start" x="17" y="-910" font-family="Monaco" font-size="10.00">within()</text>
<text text-anchor="start" x="4" y="-895" font-family="Monaco" font-size="10.00">+</text>
<text text-anchor="start" x="17" y="-895" font-family="Monaco" font-size="10.00">contains()</text>
<text text-anchor="start" x="4" y="-880" font-family="Monaco" font-size="10.00">+</text>
<text text-anchor="start" x="17" y="-880" font-family="Monaco" font-size="10.00">overlaps()</text>
<text text-anchor="start" x="4" y="-865" font-family="Monaco" font-size="10.00">+</text>
<text text-anchor="start" x="17" y="-865" font-family="Monaco" font-size="10.00">relate()</text>
<text text-anchor="start" x="4" y="-850" font-family="Monaco" font-size="10.00">+</text>
<text text-anchor="start" x="17" y="-850" font-family="Monaco" font-size="10.00">locateAlong()</text>
<text text-anchor="start" x="4" y="-835" font-family="Monaco" font-size="10.00">+</text>
<text text-anchor="start" x="17" y="-835" font-family="Monaco" font-size="10.00">locateBetween()</text>
<text text-anchor="start" x="4" y="-820" font-family="Monaco" font-size="10.00">+</text>
<text text-anchor="start" x="17" y="-820" font-family="Monaco" font-size="10.00">distance()</text>
<text text-anchor="start" x="4" y="-805" font-family="Monaco" font-size="10.00">+</text>
<text text-anchor="start" x="17" y="-805" font-family="Monaco" font-size="10.00">buffer()</text>
<text text-anchor="start" x="4" y="-790" font-family="Monaco" font-size="10.00">+</text>
<text text-anchor="start" x="17" y="-790" font-family="Monaco" font-size="10.00">convexHull()</text>
<text text-anchor="start" x="4" y="-775" font-family="Monaco" font-size="10.00">+</text>
<text text-anchor="start" x="17" y="-775" font-family="Monaco" font-size="10.00">intersection()</text>
<text text-anchor="start" x="4" y="-760" font-family="Monaco" font-size="10.00">+</text>
<text text-anchor="start" x="17" y="-760" font-family="Monaco" font-size="10.00">unionG()</text>
<text text-anchor="start" x="4" y="-745" font-family="Monaco" font-size="10.00">+</text>
<text text-anchor="start" x="17" y="-745" font-family="Monaco" font-size="10.00">difference()</text>
<text text-anchor="start" x="4" y="-730" font-family="Monaco" font-size="10.00">+</text>
<text text-anchor="start" x="17" y="-730" font-family="Monaco" font-size="10.00">symmetricDifference()</text>
<text text-anchor="start" x="5.5" y="-715" font-family="Monaco" font-size="10.00">*</text>
<text text-anchor="start" x="17" y="-715" font-family="Monaco" font-size="10.00">equals()</text>
<text text-anchor="start" x="5.5" y="-700" font-family="Monaco" font-size="10.00">*</text>
<text text-anchor="start" x="17" y="-700" font-family="Monaco" font-size="10.00">disjoint()</text>
<text text-anchor="start" x="5.5" y="-685" font-family="Monaco" font-size="10.00">*</text>
<text text-anchor="start" x="17" y="-685" font-family="Monaco" font-size="10.00">intersects()</text>
<text text-anchor="start" x="5.5" y="-670" font-family="Monaco" font-size="10.00">*</text>
<text text-anchor="start" x="17" y="-670" font-family="Monaco" font-size="10.00">touches()</text>
<text text-anchor="start" x="5.5" y="-655" font-family="Monaco" font-size="10.00">*</text>
<text text-anchor="start" x="17" y="-655" font-family="Monaco" font-size="10.00">crosses()</text>
<text text-anchor="start" x="5.5" y="-640" font-family="Monaco" font-size="10.00">*</text>
<text text-anchor="start" x="17" y="-640" font-family="Monaco" font-size="10.00">within()</text>
<text text-anchor="start" x="5.5" y="-625" font-family="Monaco" font-size="10.00">*</text>
<text text-anchor="start" x="17" y="-625" font-family="Monaco" font-size="10.00">contains()</text>
<text text-anchor="start" x="5.5" y="-610" font-family="Monaco" font-size="10.00">*</text>
<text text-anchor="start" x="17" y="-610" font-family="Monaco" font-size="10.00">overlaps()</text>
<text text-anchor="start" x="5.5" y="-595" font-family="Monaco" font-size="10.00">*</text>
<text text-anchor="start" x="17" y="-595" font-family="Monaco" font-size="10.00">relate()</text>
<text text-anchor="start" x="5.5" y="-580" font-family="Monaco" font-size="10.00">*</text>
<text text-anchor="start" x="17" y="-580" font-family="Monaco" font-size="10.00">locateAlong()</text>
<text text-anchor="start" x="5.5" y="-565" font-family="Monaco" font-size="10.00">*</text>
<text text-anchor="start" x="17" y="-565" font-family="Monaco" font-size="10.00">locateBetween()</text>
<text text-anchor="start" x="5.5" y="-550" font-family="Monaco" font-size="10.00">*</text>
<text text-anchor="start" x="17" y="-550" font-family="Monaco" font-size="10.00">distance()</text>
<text text-anchor="start" x="5.5" y="-535" font-family="Monaco" font-size="10.00">*</text>
<text text-anchor="start" x="17" y="-535" font-family="Monaco" font-size="10.00">buffer()</text>
<text text-anchor="start" x="5.5" y="-520" font-family="Monaco" font-size="10.00">*</text>
<text text-anchor="start" x="17" y="-520" font-family="Monaco" font-size="10.00">convexHull()</text>
<text text-anchor="start" x="5.5" y="-505" font-family="Monaco" font-size="10.00">*</text>
<text text-anchor="start" x="17" y="-505" font-family="Monaco" font-size="10.00">intersection()</text>
<text text-anchor="start" x="5.5" y="-490" font-family="Monaco" font-size="10.00">*</text>
<text text-anchor="start" x="17" y="-490" font-family="Monaco" font-size="10.00">unionG()</text>
<text text-anchor="start" x="5.5" y="-475" font-family="Monaco" font-size="10.00">*</text>
<text text-anchor="start" x="17" y="-475" font-family="Monaco" font-size="10.00">difference()</text>
<text text-anchor="start" x="5.5" y="-460" font-family="Monaco" font-size="10.00">*</text>
<text text-anchor="start" x="17" y="-460" font-family="Monaco" font-size="10.00">symmetricDifference()</text>
<polygon fill="#666666" stroke="#666666" points="0,-1235 0,-1235 148,-1235 148,-1235 0,-1235"/>
<polygon fill="#666666" stroke="#666666" points="0,-1220 0,-1220 148,-1220 148,-1220 0,-1220"/>
<polygon fill="none" stroke="#666666" points="0,-453 0,-1263 148,-1263 148,-453 0,-453"/>
</a>
</g>
</g>
<!-- Node4&#45;&gt;Node3 -->
<g id="edge3_Node000003_Node000004" class="edge">
<title>Node4&#45;&gt;Node3</title>
<g id="a_edge3_Node000003_Node000004"><a xlink:title=" ">
<path fill="none" stroke="#63b8ff" d="M74,-442.66C74,-433.56 74,-424.99 74,-417.05"/>
<polygon fill="none" stroke="#63b8ff" points="70.5,-442.74 74,-452.74 77.5,-442.74 70.5,-442.74"/>
</a>
</g>
</g>
</g>
</svg>
