<?xml version="1.0" encoding="UTF-8" standalone="no"?>
<!DOCTYPE svg PUBLIC "-//W3C//DTD SVG 1.1//EN"
 "http://www.w3.org/Graphics/SVG/1.1/DTD/svg11.dtd">
<!-- Generated by graphviz version 2.43.0 (0)
 -->
<!-- Title: HydroCouple::SpatioTemporal::ITimeTINComponentDataItem Pages: 1 -->
<!--zoomable 1026 -->
<svg id="main" version="1.1" xmlns="http://www.w3.org/2000/svg" xmlns:xlink="http://www.w3.org/1999/xlink" xml:space="preserve" onload="init(evt)">
<style type="text/css"><![CDATA[
.edge:hover path { stroke: red; }
.edge:hover polygon { stroke: red; fill: red; }
]]></style>
<script type="text/javascript"><![CDATA[
var edges = document.getElementsByTagName('g');
if (edges && edges.length) {
  for (var i=0;i<edges.length;i++) {
    if (edges[i].id.substr(0,4)=='edge') {
      edges[i].setAttribute('class','edge');
    }
  }
}
]]></script>
        <defs>
                <circle id="rim" cx="0" cy="0" r="7"/>
                <circle id="rim2" cx="0" cy="0" r="3.5"/>
                <g id="zoomPlus">
                        <use xlink:href="#rim" fill="#404040">
                                <set attributeName="fill" to="#808080" begin="zoomplus.mouseover" end="zoomplus.mouseout"/>
                        </use>
                        <path d="M-4,0h8M0,-4v8" fill="none" stroke="white" stroke-width="1.5" pointer-events="none"/>
                </g>
                <g id="zoomMin">
                        <use xlink:href="#rim" fill="#404040">
                                <set attributeName="fill" to="#808080" begin="zoomminus.mouseover" end="zoomminus.mouseout"/>
                        </use>
                        <path d="M-4,0h8" fill="none" stroke="white" stroke-width="1.5" pointer-events="none"/>
                </g>
                <g id="dirArrow">
                        <path fill="none" stroke="white" stroke-width="1.5" d="M0,-3.0v7 M-2.5,-0.5L0,-3.0L2.5,-0.5"/>
                </g>
               <g id="resetDef">
                       <use xlink:href="#rim2" fill="#404040">
                               <set attributeName="fill" to="#808080" begin="reset.mouseover" end="reset.mouseout"/>
                       </use>
               </g>
        </defs>

<script type="text/javascript">
var viewWidth = 217;
var viewHeight = 1026;
var sectionId = 'dynsection-1';
</script>
<script xlink:href="../../svgpan.js"/>
<svg id="graph" class="graph">
<g id="viewport">
<title>HydroCouple::SpatioTemporal::ITimeTINComponentDataItem</title>
<!-- Node1 -->
<g id="node1" class="node">
<title>Node1</title>
<g id="a_node1"><a xlink:title="The ITINComponentItem class.">
<polygon fill="#bfbfbf" stroke="black" points="9.5,-0.5 9.5,-79.5 199.5,-79.5 199.5,-0.5 9.5,-0.5"/>
<text text-anchor="start" x="17.5" y="-67.5" font-family="Monaco" font-size="10.00">HydroCouple::SpatioTemporal</text>
<text text-anchor="middle" x="104.5" y="-56.5" font-family="Monaco" font-size="10.00">::ITimeTINComponentDataItem</text>
<polyline fill="none" stroke="black" points="9.5,-49.5 199.5,-49.5 "/>
<text text-anchor="middle" x="104.5" y="-37.5" font-family="Monaco" font-size="10.00"> </text>
<polyline fill="none" stroke="black" points="9.5,-30.5 199.5,-30.5 "/>
<text text-anchor="start" x="17.5" y="-18.5" font-family="Monaco" font-size="10.00">+ ~ITimeTINComponentDataItem()</text>
<text text-anchor="start" x="17.5" y="-7.5" font-family="Monaco" font-size="10.00">+ TIN()</text>
</a>
</g>
</g>
<!-- Node2 -->
<g id="node2" class="node">
<title>Node2</title>
<g id="a_node2"><a xlink:href="../../d2/d80/class_hydro_couple_1_1_spatio_temporal_1_1_i_time_polyhedral_surface_component_data_item.html" target="_top" xlink:title="The ITimePolyhedralSurfaceComponentItem class.">
<polygon fill="none" stroke="black" points="0,-116.5 0,-283.5 209,-283.5 209,-116.5 0,-116.5"/>
<text text-anchor="start" x="8" y="-271.5" font-family="Monaco" font-size="10.00">HydroCouple::SpatioTemporal</text>
<text text-anchor="start" x="8" y="-260.5" font-family="Monaco" font-size="10.00">::ITimePolyhedralSurfaceComponent</text>
<text text-anchor="middle" x="104.5" y="-249.5" font-family="Monaco" font-size="10.00">DataItem</text>
<polyline fill="none" stroke="black" points="0,-242.5 209,-242.5 "/>
<text text-anchor="middle" x="104.5" y="-230.5" font-family="Monaco" font-size="10.00"> </text>
<polyline fill="none" stroke="black" points="0,-223.5 209,-223.5 "/>
<text text-anchor="start" x="8" y="-211.5" font-family="Monaco" font-size="10.00">+ ~ITimePolyhedralSurfaceComponent</text>
<text text-anchor="start" x="8" y="-200.5" font-family="Monaco" font-size="10.00">DataItem()</text>
<text text-anchor="start" x="8" y="-189.5" font-family="Monaco" font-size="10.00">+ meshDataType()</text>
<text text-anchor="start" x="8" y="-178.5" font-family="Monaco" font-size="10.00">+ polyhedralSurface()</text>
<text text-anchor="start" x="8" y="-167.5" font-family="Monaco" font-size="10.00">+ cellDimension()</text>
<text text-anchor="start" x="8" y="-156.5" font-family="Monaco" font-size="10.00">+ edgeDimension()</text>
<text text-anchor="start" x="8" y="-145.5" font-family="Monaco" font-size="10.00">+ nodeDimension()</text>
<text text-anchor="start" x="8" y="-134.5" font-family="Monaco" font-size="10.00">+ getValue()</text>
<text text-anchor="start" x="8" y="-123.5" font-family="Monaco" font-size="10.00">+ setValue()</text>
</a>
</g>
</g>
<!-- Node2&#45;&gt;Node1 -->
<g id="edge1" class="edge">
<title>Node2&#45;&gt;Node1</title>
<path fill="none" stroke="midnightblue" d="M104.5,-106.12C104.5,-96.81 104.5,-87.76 104.5,-79.52"/>
<polygon fill="none" stroke="midnightblue" points="101,-106.3 104.5,-116.3 108,-106.3 101,-106.3"/>
</g>
<!-- Node3 -->
<g id="node3" class="node">
<title>Node3</title>
<g id="a_node3"><a xlink:href="../../d9/d05/class_hydro_couple_1_1_temporal_1_1_i_time_component_data_item.html" target="_top" xlink:title="ITimeComponentItem is an IComponentItem with a temporal attribute. This class cannot be directly inst...">
<polygon fill="none" stroke="black" points="18,-320.5 18,-443.5 191,-443.5 191,-320.5 18,-320.5"/>
<text text-anchor="start" x="26" y="-431.5" font-family="Monaco" font-size="10.00">HydroCouple::Temporal</text>
<text text-anchor="middle" x="104.5" y="-420.5" font-family="Monaco" font-size="10.00">::ITimeComponentDataItem</text>
<polyline fill="none" stroke="black" points="18,-413.5 191,-413.5 "/>
<text text-anchor="middle" x="104.5" y="-401.5" font-family="Monaco" font-size="10.00"> </text>
<polyline fill="none" stroke="black" points="18,-394.5 191,-394.5 "/>
<text text-anchor="start" x="26" y="-382.5" font-family="Monaco" font-size="10.00">+ ~ITimeComponentDataItem()</text>
<text text-anchor="start" x="26" y="-371.5" font-family="Monaco" font-size="10.00">+ times()</text>
<text text-anchor="start" x="26" y="-360.5" font-family="Monaco" font-size="10.00">+ time()</text>
<text text-anchor="start" x="26" y="-349.5" font-family="Monaco" font-size="10.00">+ timeCount()</text>
<text text-anchor="start" x="26" y="-338.5" font-family="Monaco" font-size="10.00">+ timeSpan()</text>
<text text-anchor="start" x="26" y="-327.5" font-family="Monaco" font-size="10.00">+ timeDimension()</text>
</a>
</g>
</g>
<!-- Node3&#45;&gt;Node2 -->
<g id="edge2" class="edge">
<title>Node3&#45;&gt;Node2</title>
<path fill="none" stroke="midnightblue" d="M104.5,-310.25C104.5,-301.57 104.5,-292.63 104.5,-283.79"/>
<polygon fill="none" stroke="midnightblue" points="101,-310.31 104.5,-320.31 108,-310.31 101,-310.31"/>
</g>
<!-- Node4 -->
<g id="node4" class="node">
<title>Node4</title>
<g id="a_node4"><a xlink:href="../../d8/d52/class_hydro_couple_1_1_i_component_data_item.html" target="_top" xlink:title="IComponentItem is a fundamental unit of data for a component.">
<polygon fill="none" stroke="black" points="9,-480.5 9,-647.5 200,-647.5 200,-480.5 9,-480.5"/>
<text text-anchor="middle" x="104.5" y="-635.5" font-family="Monaco" font-size="10.00">HydroCouple::IComponentDataItem</text>
<polyline fill="none" stroke="black" points="9,-628.5 200,-628.5 "/>
<text text-anchor="middle" x="104.5" y="-616.5" font-family="Monaco" font-size="10.00"> </text>
<polyline fill="none" stroke="black" points="9,-609.5 200,-609.5 "/>
<text text-anchor="start" x="17" y="-597.5" font-family="Monaco" font-size="10.00">+ ~IComponentDataItem()</text>
<text text-anchor="start" x="17" y="-586.5" font-family="Monaco" font-size="10.00">+ modelComponent()</text>
<text text-anchor="start" x="17" y="-575.5" font-family="Monaco" font-size="10.00">+ dimensions()</text>
<text text-anchor="start" x="17" y="-564.5" font-family="Monaco" font-size="10.00">+ dimensionLength()</text>
<text text-anchor="start" x="17" y="-553.5" font-family="Monaco" font-size="10.00">+ valueDefinition()</text>
<text text-anchor="start" x="17" y="-542.5" font-family="Monaco" font-size="10.00">+ getValue()</text>
<text text-anchor="start" x="17" y="-531.5" font-family="Monaco" font-size="10.00">+ setValue()</text>
<text text-anchor="start" x="17" y="-520.5" font-family="Monaco" font-size="10.00">+ hasEditor()</text>
<text text-anchor="start" x="17" y="-509.5" font-family="Monaco" font-size="10.00">+ showEditor()</text>
<text text-anchor="start" x="17" y="-498.5" font-family="Monaco" font-size="10.00">+ hasViewer()</text>
<text text-anchor="start" x="17" y="-487.5" font-family="Monaco" font-size="10.00">+ showViewer()</text>
</a>
</g>
</g>
<!-- Node4&#45;&gt;Node3 -->
<g id="edge3" class="edge">
<title>Node4&#45;&gt;Node3</title>
<path fill="none" stroke="midnightblue" d="M104.5,-470.19C104.5,-461.17 104.5,-452.19 104.5,-443.61"/>
<polygon fill="none" stroke="midnightblue" points="101,-470.38 104.5,-480.38 108,-470.38 101,-470.38"/>
</g>
<!-- Node5 -->
<g id="node5" class="node">
<title>Node5</title>
<g id="a_node5"><a xlink:href="../../d2/d2a/class_hydro_couple_1_1_i_identity.html" target="_top" xlink:title="IIdentity interface class defines a method to get the Id of an HydroCouple entity.">
<polygon fill="none" stroke="black" points="41.5,-684.5 41.5,-752.5 167.5,-752.5 167.5,-684.5 41.5,-684.5"/>
<text text-anchor="middle" x="104.5" y="-740.5" font-family="Monaco" font-size="10.00">HydroCouple::IIdentity</text>
<polyline fill="none" stroke="black" points="41.5,-733.5 167.5,-733.5 "/>
<text text-anchor="middle" x="104.5" y="-721.5" font-family="Monaco" font-size="10.00"> </text>
<polyline fill="none" stroke="black" points="41.5,-714.5 167.5,-714.5 "/>
<text text-anchor="start" x="49.5" y="-702.5" font-family="Monaco" font-size="10.00">+ ~IIdentity()</text>
<text text-anchor="start" x="49.5" y="-691.5" font-family="Monaco" font-size="10.00">+ id()</text>
</a>
</g>
</g>
<!-- Node5&#45;&gt;Node4 -->
<g id="edge4" class="edge">
<title>Node5&#45;&gt;Node4</title>
<path fill="none" stroke="midnightblue" d="M104.5,-674.23C104.5,-665.88 104.5,-656.89 104.5,-647.76"/>
<polygon fill="none" stroke="midnightblue" points="101,-674.41 104.5,-684.41 108,-674.41 101,-674.41"/>
</g>
<!-- Node6 -->
<g id="node6" class="node">
<title>Node6</title>
<g id="a_node6"><a xlink:href="../../db/d64/class_hydro_couple_1_1_i_description.html" target="_top" xlink:title="IDescription interface class provides descriptive information on a HydroCouple object.">
<polygon fill="none" stroke="black" points="32.5,-789.5 32.5,-890.5 176.5,-890.5 176.5,-789.5 32.5,-789.5"/>
<text text-anchor="middle" x="104.5" y="-878.5" font-family="Monaco" font-size="10.00">HydroCouple::IDescription</text>
<polyline fill="none" stroke="black" points="32.5,-871.5 176.5,-871.5 "/>
<text text-anchor="middle" x="104.5" y="-859.5" font-family="Monaco" font-size="10.00"> </text>
<polyline fill="none" stroke="black" points="32.5,-852.5 176.5,-852.5 "/>
<text text-anchor="start" x="40.5" y="-840.5" font-family="Monaco" font-size="10.00">+ ~IDescription()</text>
<text text-anchor="start" x="40.5" y="-829.5" font-family="Monaco" font-size="10.00">+ caption()</text>
<text text-anchor="start" x="40.5" y="-818.5" font-family="Monaco" font-size="10.00">+ setCaption()</text>
<text text-anchor="start" x="40.5" y="-807.5" font-family="Monaco" font-size="10.00">+ description()</text>
<text text-anchor="start" x="40.5" y="-796.5" font-family="Monaco" font-size="10.00">+ setDescription()</text>
</a>
</g>
</g>
<!-- Node6&#45;&gt;Node5 -->
<g id="edge5" class="edge">
<title>Node6&#45;&gt;Node5</title>
<path fill="none" stroke="midnightblue" d="M104.5,-779.17C104.5,-770.11 104.5,-761.05 104.5,-752.83"/>
<polygon fill="none" stroke="midnightblue" points="101,-779.36 104.5,-789.36 108,-779.36 101,-779.36"/>
</g>
<!-- Node7 -->
<g id="node7" class="node">
<title>Node7</title>
<g id="a_node7"><a xlink:href="../../dd/dbf/class_hydro_couple_1_1_i_property_changed.html" target="_top" xlink:title="IPropertyChanged interface is used to emit signal/event when a property of an object changes.">
<polygon fill="none" stroke="black" points="6.5,-927.5 6.5,-1017.5 202.5,-1017.5 202.5,-927.5 6.5,-927.5"/>
<text text-anchor="middle" x="104.5" y="-1005.5" font-family="Monaco" font-size="10.00">HydroCouple::IPropertyChanged</text>
<polyline fill="none" stroke="black" points="6.5,-998.5 202.5,-998.5 "/>
<text text-anchor="middle" x="104.5" y="-986.5" font-family="Monaco" font-size="10.00"> </text>
<polyline fill="none" stroke="black" points="6.5,-979.5 202.5,-979.5 "/>
<text text-anchor="start" x="14.5" y="-967.5" font-family="Monaco" font-size="10.00">+ ~IPropertyChanged()</text>
<text text-anchor="start" x="14.5" y="-956.5" font-family="Monaco" font-size="10.00">+ registerPropertyChangedListener()</text>
<text text-anchor="start" x="14.5" y="-945.5" font-family="Monaco" font-size="10.00">+ deRegisterPropertyChanged</text>
<text text-anchor="start" x="14.5" y="-934.5" font-family="Monaco" font-size="10.00">Listener()</text>
</a>
</g>
</g>
<!-- Node7&#45;&gt;Node6 -->
<g id="edge6" class="edge">
<title>Node7&#45;&gt;Node6</title>
<path fill="none" stroke="midnightblue" d="M104.5,-917.13C104.5,-908.31 104.5,-899.22 104.5,-890.52"/>
<polygon fill="none" stroke="midnightblue" points="101,-917.32 104.5,-927.32 108,-917.32 101,-917.32"/>
</g>
</g>
</svg>
        <g id="navigator" transform="translate(0 0)" fill="#404254">
                <rect fill="#f2f5e9" fill-opacity="0.5" stroke="#606060" stroke-width=".5" x="0" y="0" width="60" height="60"/>
                <use id="zoomplus" xlink:href="#zoomPlus" x="17" y="9" onmousedown="handleZoom(evt,'in')"/>
                <use id="zoomminus" xlink:href="#zoomMin" x="42" y="9" onmousedown="handleZoom(evt,'out')"/>
                <use id="reset" xlink:href="#resetDef" x="30" y="36" onmousedown="handleReset()"/>
                <g id="arrowUp" xlink:href="#dirArrow" transform="translate(30 24)" onmousedown="handlePan(0,-1)">
                  <use xlink:href="#rim" fill="#404040">
                        <set attributeName="fill" to="#808080" begin="arrowUp.mouseover" end="arrowUp.mouseout"/>
                  </use>
                  <path fill="none" stroke="white" stroke-width="1.5" d="M0,-3.0v7 M-2.5,-0.5L0,-3.0L2.5,-0.5"/>
                </g>
                <g id="arrowRight" xlink:href="#dirArrow" transform="rotate(90) translate(36 -43)" onmousedown="handlePan(1,0)">
                  <use xlink:href="#rim" fill="#404040">
                        <set attributeName="fill" to="#808080" begin="arrowRight.mouseover" end="arrowRight.mouseout"/>
                  </use>
                  <path fill="none" stroke="white" stroke-width="1.5" d="M0,-3.0v7 M-2.5,-0.5L0,-3.0L2.5,-0.5"/>
                </g>
                <g id="arrowDown" xlink:href="#dirArrow" transform="rotate(180) translate(-30 -48)" onmousedown="handlePan(0,1)">
                  <use xlink:href="#rim" fill="#404040">
                        <set attributeName="fill" to="#808080" begin="arrowDown.mouseover" end="arrowDown.mouseout"/>
                  </use>
                  <path fill="none" stroke="white" stroke-width="1.5" d="M0,-3.0v7 M-2.5,-0.5L0,-3.0L2.5,-0.5"/>
                </g>
                <g id="arrowLeft" xlink:href="#dirArrow" transform="rotate(270) translate(-36 17)" onmousedown="handlePan(-1,0)">
                  <use xlink:href="#rim" fill="#404040">
                        <set attributeName="fill" to="#808080" begin="arrowLeft.mouseover" end="arrowLeft.mouseout"/>
                  </use>
                  <path fill="none" stroke="white" stroke-width="1.5" d="M0,-3.0v7 M-2.5,-0.5L0,-3.0L2.5,-0.5"/>
                </g>
        </g>
        <svg viewBox="0 0 15 15" width="100%" height="30px" preserveAspectRatio="xMaxYMin meet">
         <g id="arrow_out" transform="scale(0.3 0.3)">
          <a xlink:href="class_hydro_couple_1_1_spatio_temporal_1_1_i_time_t_i_n_component_data_item__coll__graph_org.svg" target="_base">
           <rect id="button" ry="5" rx="5" y="6" x="6" height="38" width="38"
                fill="#f2f5e9" fill-opacity="0.5" stroke="#606060" stroke-width="1.0"/>
           <path id="arrow"
             d="M 11.500037,31.436501 C 11.940474,20.09759 22.043105,11.32322 32.158766,21.979434 L 37.068811,17.246167 C 37.068811,17.246167 37.088388,32 37.088388,32 L 22.160133,31.978069 C 22.160133,31.978069 26.997745,27.140456 26.997745,27.140456 C 18.528582,18.264221 13.291696,25.230495 11.500037,31.436501 z"
             style="fill:#404040;"/>
          </a>
         </g>
        </svg>
</svg>
