<?xml version="1.0" encoding="UTF-8" standalone="no"?>
<!DOCTYPE svg PUBLIC "-//W3C//DTD SVG 1.1//EN"
 "http://www.w3.org/Graphics/SVG/1.1/DTD/svg11.dtd">
<!-- Generated by graphviz version 2.43.0 (0)
 -->
<!-- Title: WKBMultiPolygon Pages: 1 -->
<svg width="113pt" height="420pt"
 viewBox="0.00 0.00 113.00 420.00" xmlns="http://www.w3.org/2000/svg" xmlns:xlink="http://www.w3.org/1999/xlink">
<g id="graph0" class="graph" transform="scale(1 1) rotate(0) translate(4 416)">
<title>WKBMultiPolygon</title>
<!-- Node1 -->
<g id="Node000001" class="node">
<title>Node1</title>
<g id="a_Node000001"><a xlink:title="The WKBMultiPolygon struct.">
<polygon fill="#999999" stroke="transparent" points="98,-79 0,-79 0,0 98,0 98,-79"/>
<text text-anchor="start" x="5" y="-66.5" font-family="Monaco" font-size="10.00">WKBMultiPolygon</text>
<text text-anchor="start" x="6.5" y="-51.5" font-family="Monaco" font-size="10.00">+</text>
<text text-anchor="start" x="22" y="-51.5" font-family="Monaco" font-size="10.00">byteOrder</text>
<text text-anchor="start" x="6.5" y="-36.5" font-family="Monaco" font-size="10.00">+</text>
<text text-anchor="start" x="22" y="-36.5" font-family="Monaco" font-size="10.00">numPolygons</text>
<text text-anchor="start" x="6.5" y="-21.5" font-family="Monaco" font-size="10.00">+</text>
<text text-anchor="start" x="22" y="-21.5" font-family="Monaco" font-size="10.00">wkbType</text>
<text text-anchor="start" x="47" y="-6.5" font-family="Monaco" font-size="10.00"> </text>
<polygon fill="#666666" stroke="#666666" points="0,-61.5 0,-61.5 98,-61.5 98,-61.5 0,-61.5"/>
<polygon fill="#666666" stroke="#666666" points="0,-16.5 0,-16.5 20,-16.5 20,-16.5 0,-16.5"/>
<polygon fill="#666666" stroke="#666666" points="20,-16.5 20,-16.5 98,-16.5 98,-16.5 20,-16.5"/>
<polygon fill="none" stroke="#666666" points="0,0 0,-79 98,-79 98,0 0,0"/>
</a>
</g>
</g>
<!-- Node2 -->
<g id="Node000002" class="node">
<title>Node2</title>
<g id="a_Node000002"><a xlink:href="../../df/df9/struct_w_k_b_polygon.html" target="_top" xlink:title="The WKBPolygon struct.">
<polygon fill="white" stroke="transparent" points="85.5,-205 12.5,-205 12.5,-126 85.5,-126 85.5,-205"/>
<text text-anchor="start" x="18" y="-192.5" font-family="Monaco" font-size="10.00">WKBPolygon</text>
<text text-anchor="start" x="17.5" y="-177.5" font-family="Monaco" font-size="10.00">+</text>
<text text-anchor="start" x="31" y="-177.5" font-family="Monaco" font-size="10.00">byteOrder</text>
<text text-anchor="start" x="17.5" y="-162.5" font-family="Monaco" font-size="10.00">+</text>
<text text-anchor="start" x="31" y="-162.5" font-family="Monaco" font-size="10.00">numRings</text>
<text text-anchor="start" x="17.5" y="-147.5" font-family="Monaco" font-size="10.00">+</text>
<text text-anchor="start" x="31" y="-147.5" font-family="Monaco" font-size="10.00">wkbType</text>
<text text-anchor="start" x="47.5" y="-132.5" font-family="Monaco" font-size="10.00"> </text>
<polygon fill="#666666" stroke="#666666" points="13,-187.5 13,-187.5 86,-187.5 86,-187.5 13,-187.5"/>
<polygon fill="#666666" stroke="#666666" points="13,-142.5 13,-142.5 29,-142.5 29,-142.5 13,-142.5"/>
<polygon fill="#666666" stroke="#666666" points="29,-142.5 29,-142.5 86,-142.5 86,-142.5 29,-142.5"/>
<polygon fill="none" stroke="#666666" points="12.5,-126 12.5,-205 85.5,-205 85.5,-126 12.5,-126"/>
</a>
</g>
</g>
<!-- Node2&#45;&gt;Node1 -->
<g id="edge1_Node000001_Node000002" class="edge">
<title>Node2&#45;&gt;Node1</title>
<g id="a_edge1_Node000001_Node000002"><a xlink:title=" ">
<path fill="none" stroke="#63b8ff" d="M49,-125.95C49,-114.98 49,-102.87 49,-91.3"/>
<polygon fill="none" stroke="#63b8ff" points="49,-91.03 45,-85.03 49,-79.03 53,-85.03 49,-91.03"/>
</a>
</g>
<text text-anchor="middle" x="77" y="-100" font-family="Monaco" font-size="10.00" fill="grey"> +polygons</text>
</g>
<!-- Node3 -->
<g id="Node000003" class="node">
<title>Node3</title>
<g id="a_Node000003"><a xlink:href="../../d6/db5/struct_linear_ring.html" target="_top" xlink:title="The LinearRing struct.">
<polygon fill="white" stroke="transparent" points="85.5,-301 12.5,-301 12.5,-252 85.5,-252 85.5,-301"/>
<text text-anchor="start" x="23.5" y="-288.5" font-family="Monaco" font-size="10.00">LinearRing</text>
<text text-anchor="start" x="17" y="-273.5" font-family="Monaco" font-size="10.00">+</text>
<text text-anchor="start" x="30" y="-273.5" font-family="Monaco" font-size="10.00">numPoints</text>
<text text-anchor="start" x="47.5" y="-258.5" font-family="Monaco" font-size="10.00"> </text>
<polygon fill="#666666" stroke="#666666" points="13,-283.5 13,-283.5 86,-283.5 86,-283.5 13,-283.5"/>
<polygon fill="#666666" stroke="#666666" points="13,-268.5 13,-268.5 28,-268.5 28,-268.5 13,-268.5"/>
<polygon fill="#666666" stroke="#666666" points="28,-268.5 28,-268.5 86,-268.5 86,-268.5 28,-268.5"/>
<polygon fill="none" stroke="#666666" points="12.5,-252 12.5,-301 85.5,-301 85.5,-252 12.5,-252"/>
</a>
</g>
</g>
<!-- Node3&#45;&gt;Node2 -->
<g id="edge2_Node000002_Node000003" class="edge">
<title>Node3&#45;&gt;Node2</title>
<g id="a_edge2_Node000002_Node000003"><a xlink:title=" ">
<path fill="none" stroke="#63b8ff" d="M49,-251.85C49,-241.72 49,-229.47 49,-217.45"/>
<polygon fill="none" stroke="#63b8ff" points="49,-217.1 45,-211.1 49,-205.1 53,-211.1 49,-217.1"/>
</a>
</g>
<text text-anchor="middle" x="67" y="-226" font-family="Monaco" font-size="10.00" fill="grey"> +rings</text>
</g>
<!-- Node4 -->
<g id="Node000004" class="node">
<title>Node4</title>
<g id="a_Node000004"><a xlink:href="../../d8/dc8/struct_point.html" target="_top" xlink:title="The Point struct.">
<polygon fill="white" stroke="transparent" points="66.5,-412 31.5,-412 31.5,-348 66.5,-348 66.5,-412"/>
<text text-anchor="start" x="37" y="-400" font-family="Monaco" font-size="10.00">Point</text>
<text text-anchor="start" x="37.5" y="-385" font-family="Monaco" font-size="10.00">+</text>
<text text-anchor="start" x="52" y="-385" font-family="Monaco" font-size="10.00">x</text>
<text text-anchor="start" x="37.5" y="-370" font-family="Monaco" font-size="10.00">+</text>
<text text-anchor="start" x="52" y="-370" font-family="Monaco" font-size="10.00">y</text>
<text text-anchor="start" x="47.5" y="-355" font-family="Monaco" font-size="10.00"> </text>
<polygon fill="#666666" stroke="#666666" points="32,-395 32,-395 67,-395 67,-395 32,-395"/>
<polygon fill="#666666" stroke="#666666" points="32,-365 32,-365 50,-365 50,-365 32,-365"/>
<polygon fill="#666666" stroke="#666666" points="50,-365 50,-365 67,-365 67,-365 50,-365"/>
<polygon fill="none" stroke="#666666" points="31.5,-348 31.5,-412 66.5,-412 66.5,-348 31.5,-348"/>
</a>
</g>
</g>
<!-- Node4&#45;&gt;Node3 -->
<g id="edge3_Node000003_Node000004" class="edge">
<title>Node4&#45;&gt;Node3</title>
<g id="a_edge3_Node000003_Node000004"><a xlink:title=" ">
<path fill="none" stroke="#63b8ff" d="M49,-348C49,-337.07 49,-324.69 49,-313.39"/>
<polygon fill="none" stroke="#63b8ff" points="49,-313.23 45,-307.23 49,-301.23 53,-307.23 49,-313.23"/>
</a>
</g>
<text text-anchor="middle" x="70" y="-322" font-family="Monaco" font-size="10.00" fill="grey"> +points</text>
</g>
</g>
</svg>
