<?xml version="1.0" encoding="UTF-8" standalone="no"?>
<!DOCTYPE svg PUBLIC "-//W3C//DTD SVG 1.1//EN"
 "http://www.w3.org/Graphics/SVG/1.1/DTD/svg11.dtd">
<!-- Generated by graphviz version 2.38.0 (20140413.2041)
 -->
<!-- Title: writeCookie Pages: 1 -->
<svg width="338pt" height="30pt"
 viewBox="0.00 0.00 338.03 30.33" xmlns="http://www.w3.org/2000/svg" xmlns:xlink="http://www.w3.org/1999/xlink">
<g id="graph0" class="graph" transform="scale(1 1) rotate(0) translate(4 26.335)">
<title>writeCookie</title>
<!-- Node1 -->
<g id="node1" class="node"><title>Node1</title>
<polygon fill="#bfbfbf" stroke="black" points="0,-0.5 0,-21.835 82.0107,-21.835 82.0107,-0.5 0,-0.5"/>
<text text-anchor="middle" x="41.0054" y="-9.83496" font-family="Monaco" font-size="10.00">writeCookie</text>
</g>
<!-- Node2 -->
<g id="node2" class="node"><title>Node2</title>
<g id="a_node2"><a xlink:href="../../da/d95/resize_8js.html#a99942f5b5c75445364f2437051090367" target="_top" xlink:title="resizeWidth">
<polygon fill="none" stroke="black" points="118.011,-0.5 118.011,-21.835 200.021,-21.835 200.021,-0.5 118.011,-0.5"/>
<text text-anchor="middle" x="159.016" y="-9.83496" font-family="Monaco" font-size="10.00">resizeWidth</text>
</a>
</g>
</g>
<!-- Node1&#45;&gt;Node2 -->
<g id="edge1" class="edge"><title>Node1&#45;&gt;Node2</title>
<path fill="none" stroke="midnightblue" d="M92.452,-11.1675C100.942,-11.1675 109.652,-11.1675 117.838,-11.1675"/>
<polygon fill="midnightblue" stroke="midnightblue" points="92.2548,-7.66758 82.2547,-11.1675 92.2547,-14.6676 92.2548,-7.66758"/>
</g>
<!-- Node3 -->
<g id="node3" class="node"><title>Node3</title>
<g id="a_node3"><a xlink:href="../../da/d95/resize_8js.html#a4d56aa7aa73d0ddf385565075fdfe271" target="_top" xlink:title="initResizable">
<polygon fill="none" stroke="black" points="236.021,-0.5 236.021,-21.835 330.034,-21.835 330.034,-0.5 236.021,-0.5"/>
<text text-anchor="middle" x="283.028" y="-9.83496" font-family="Monaco" font-size="10.00">initResizable</text>
</a>
</g>
</g>
<!-- Node2&#45;&gt;Node3 -->
<g id="edge2" class="edge"><title>Node2&#45;&gt;Node3</title>
<path fill="none" stroke="midnightblue" d="M210.406,-11.1675C218.837,-11.1675 227.547,-11.1675 235.865,-11.1675"/>
<polygon fill="midnightblue" stroke="midnightblue" points="210.305,-7.66758 200.305,-11.1675 210.305,-14.6676 210.305,-7.66758"/>
</g>
</g>
</svg>
