<?xml version="1.0" encoding="UTF-8" standalone="no"?>
<!DOCTYPE svg PUBLIC "-//W3C//DTD SVG 1.1//EN"
 "http://www.w3.org/Graphics/SVG/1.1/DTD/svg11.dtd">
<!-- Generated by graphviz version 2.43.0 (0)
 -->
<!-- Title: HydroCouple::Spatial::IRegularGrid2D Pages: 1 -->
<svg width="204pt" height="513pt"
 viewBox="0.00 0.00 204.00 513.00" xmlns="http://www.w3.org/2000/svg" xmlns:xlink="http://www.w3.org/1999/xlink">
<g id="graph0" class="graph" transform="scale(1 1) rotate(0) translate(4 509)">
<title>HydroCouple::Spatial::IRegularGrid2D</title>
<!-- Node1 -->
<g id="node1" class="node">
<title>Node1</title>
<g id="a_node1"><a xlink:title="The IRegularGrid2D class.">
<polygon fill="#bfbfbf" stroke="black" points="38.5,-0.5 38.5,-134.5 157.5,-134.5 157.5,-0.5 38.5,-0.5"/>
<text text-anchor="start" x="46.5" y="-122.5" font-family="Monaco" font-size="10.00">HydroCouple::Spatial</text>
<text text-anchor="middle" x="98" y="-111.5" font-family="Monaco" font-size="10.00">::IRegularGrid2D</text>
<polyline fill="none" stroke="black" points="38.5,-104.5 157.5,-104.5 "/>
<text text-anchor="middle" x="98" y="-92.5" font-family="Monaco" font-size="10.00"> </text>
<polyline fill="none" stroke="black" points="38.5,-85.5 157.5,-85.5 "/>
<text text-anchor="start" x="46.5" y="-73.5" font-family="Monaco" font-size="10.00">+ ~IRegularGrid2D()</text>
<text text-anchor="start" x="46.5" y="-62.5" font-family="Monaco" font-size="10.00">+ gridType()</text>
<text text-anchor="start" x="46.5" y="-51.5" font-family="Monaco" font-size="10.00">+ numXNodes()</text>
<text text-anchor="start" x="46.5" y="-40.5" font-family="Monaco" font-size="10.00">+ numYNodes()</text>
<text text-anchor="start" x="46.5" y="-29.5" font-family="Monaco" font-size="10.00">+ xNodeLocation()</text>
<text text-anchor="start" x="46.5" y="-18.5" font-family="Monaco" font-size="10.00">+ yNodeLocation()</text>
<text text-anchor="start" x="46.5" y="-7.5" font-family="Monaco" font-size="10.00">+ isActive()</text>
</a>
</g>
</g>
<!-- Node2 -->
<g id="node2" class="node">
<title>Node2</title>
<g id="a_node2"><a xlink:href="../../d2/d2a/class_hydro_couple_1_1_i_identity.html" target="_top" xlink:title="IIdentity interface class defines a method to get the Id of an HydroCouple entity.">
<polygon fill="none" stroke="black" points="35,-171.5 35,-239.5 161,-239.5 161,-171.5 35,-171.5"/>
<text text-anchor="middle" x="98" y="-227.5" font-family="Monaco" font-size="10.00">HydroCouple::IIdentity</text>
<polyline fill="none" stroke="black" points="35,-220.5 161,-220.5 "/>
<text text-anchor="middle" x="98" y="-208.5" font-family="Monaco" font-size="10.00"> </text>
<polyline fill="none" stroke="black" points="35,-201.5 161,-201.5 "/>
<text text-anchor="start" x="43" y="-189.5" font-family="Monaco" font-size="10.00">+ ~IIdentity()</text>
<text text-anchor="start" x="43" y="-178.5" font-family="Monaco" font-size="10.00">+ id()</text>
</a>
</g>
</g>
<!-- Node2&#45;&gt;Node1 -->
<g id="edge1" class="edge">
<title>Node2&#45;&gt;Node1</title>
<path fill="none" stroke="midnightblue" d="M98,-160.96C98,-152.57 98,-143.6 98,-134.68"/>
<polygon fill="none" stroke="midnightblue" points="94.5,-161.23 98,-171.23 101.5,-161.23 94.5,-161.23"/>
</g>
<!-- Node3 -->
<g id="node3" class="node">
<title>Node3</title>
<g id="a_node3"><a xlink:href="../../db/d64/class_hydro_couple_1_1_i_description.html" target="_top" xlink:title="IDescription interface class provides descriptive information on a HydroCouple object.">
<polygon fill="none" stroke="black" points="26,-276.5 26,-377.5 170,-377.5 170,-276.5 26,-276.5"/>
<text text-anchor="middle" x="98" y="-365.5" font-family="Monaco" font-size="10.00">HydroCouple::IDescription</text>
<polyline fill="none" stroke="black" points="26,-358.5 170,-358.5 "/>
<text text-anchor="middle" x="98" y="-346.5" font-family="Monaco" font-size="10.00"> </text>
<polyline fill="none" stroke="black" points="26,-339.5 170,-339.5 "/>
<text text-anchor="start" x="34" y="-327.5" font-family="Monaco" font-size="10.00">+ ~IDescription()</text>
<text text-anchor="start" x="34" y="-316.5" font-family="Monaco" font-size="10.00">+ caption()</text>
<text text-anchor="start" x="34" y="-305.5" font-family="Monaco" font-size="10.00">+ setCaption()</text>
<text text-anchor="start" x="34" y="-294.5" font-family="Monaco" font-size="10.00">+ description()</text>
<text text-anchor="start" x="34" y="-283.5" font-family="Monaco" font-size="10.00">+ setDescription()</text>
</a>
</g>
</g>
<!-- Node3&#45;&gt;Node2 -->
<g id="edge2" class="edge">
<title>Node3&#45;&gt;Node2</title>
<path fill="none" stroke="midnightblue" d="M98,-266.17C98,-257.11 98,-248.05 98,-239.83"/>
<polygon fill="none" stroke="midnightblue" points="94.5,-266.36 98,-276.36 101.5,-266.36 94.5,-266.36"/>
</g>
<!-- Node4 -->
<g id="node4" class="node">
<title>Node4</title>
<g id="a_node4"><a xlink:href="../../dd/dbf/class_hydro_couple_1_1_i_property_changed.html" target="_top" xlink:title="IPropertyChanged interface is used to emit signal/event when a property of an object changes.">
<polygon fill="none" stroke="black" points="0,-414.5 0,-504.5 196,-504.5 196,-414.5 0,-414.5"/>
<text text-anchor="middle" x="98" y="-492.5" font-family="Monaco" font-size="10.00">HydroCouple::IPropertyChanged</text>
<polyline fill="none" stroke="black" points="0,-485.5 196,-485.5 "/>
<text text-anchor="middle" x="98" y="-473.5" font-family="Monaco" font-size="10.00"> </text>
<polyline fill="none" stroke="black" points="0,-466.5 196,-466.5 "/>
<text text-anchor="start" x="8" y="-454.5" font-family="Monaco" font-size="10.00">+ ~IPropertyChanged()</text>
<text text-anchor="start" x="8" y="-443.5" font-family="Monaco" font-size="10.00">+ registerPropertyChangedListener()</text>
<text text-anchor="start" x="8" y="-432.5" font-family="Monaco" font-size="10.00">+ deRegisterPropertyChanged</text>
<text text-anchor="start" x="8" y="-421.5" font-family="Monaco" font-size="10.00">Listener()</text>
</a>
</g>
</g>
<!-- Node4&#45;&gt;Node3 -->
<g id="edge3" class="edge">
<title>Node4&#45;&gt;Node3</title>
<path fill="none" stroke="midnightblue" d="M98,-404.13C98,-395.31 98,-386.22 98,-377.52"/>
<polygon fill="none" stroke="midnightblue" points="94.5,-404.32 98,-414.32 101.5,-404.32 94.5,-404.32"/>
</g>
</g>
</svg>
