<?xml version="1.0" encoding="UTF-8" standalone="no"?>
<!DOCTYPE svg PUBLIC "-//W3C//DTD SVG 1.1//EN"
 "http://www.w3.org/Graphics/SVG/1.1/DTD/svg11.dtd">
<!-- Generated by graphviz version 2.43.0 (0)
 -->
<!-- Title: HydroCouple::Spatial::IRegularGrid2D Pages: 1 -->
<svg width="175pt" height="659pt"
 viewBox="0.00 0.00 175.00 659.00" xmlns="http://www.w3.org/2000/svg" xmlns:xlink="http://www.w3.org/1999/xlink">
<g id="graph0" class="graph" transform="scale(1 1) rotate(0) translate(4 655)">
<title>HydroCouple::Spatial::IRegularGrid2D</title>
<!-- Node1 -->
<g id="Node000001" class="node">
<title>Node1</title>
<g id="a_Node000001"><a xlink:title="The IRegularGrid2D class.">
<polygon fill="#999999" stroke="transparent" points="157.5,-165 9.5,-165 9.5,0 157.5,0 157.5,-165"/>
<text text-anchor="start" x="32" y="-152.5" font-family="Monaco" font-size="10.00">HydroCouple::Spatial</text>
<text text-anchor="start" x="43" y="-141.5" font-family="Monaco" font-size="10.00">::IRegularGrid2D</text>
<text text-anchor="start" x="81.5" y="-126.5" font-family="Monaco" font-size="10.00"> </text>
<text text-anchor="start" x="13.5" y="-111.5" font-family="Monaco" font-size="10.00">+</text>
<text text-anchor="start" x="26.5" y="-111.5" font-family="Monaco" font-size="10.00">~IRegularGrid2D()</text>
<text text-anchor="start" x="13.5" y="-96.5" font-family="Monaco" font-size="10.00">+</text>
<text text-anchor="start" x="26.5" y="-96.5" font-family="Monaco" font-size="10.00">spatialReferenceSystem()</text>
<text text-anchor="start" x="13.5" y="-81.5" font-family="Monaco" font-size="10.00">+</text>
<text text-anchor="start" x="26.5" y="-81.5" font-family="Monaco" font-size="10.00">gridType()</text>
<text text-anchor="start" x="13.5" y="-66.5" font-family="Monaco" font-size="10.00">+</text>
<text text-anchor="start" x="26.5" y="-66.5" font-family="Monaco" font-size="10.00">numXNodes()</text>
<text text-anchor="start" x="13.5" y="-51.5" font-family="Monaco" font-size="10.00">+</text>
<text text-anchor="start" x="26.5" y="-51.5" font-family="Monaco" font-size="10.00">numYNodes()</text>
<text text-anchor="start" x="13.5" y="-36.5" font-family="Monaco" font-size="10.00">+</text>
<text text-anchor="start" x="26.5" y="-36.5" font-family="Monaco" font-size="10.00">xNodeLocation()</text>
<text text-anchor="start" x="13.5" y="-21.5" font-family="Monaco" font-size="10.00">+</text>
<text text-anchor="start" x="26.5" y="-21.5" font-family="Monaco" font-size="10.00">yNodeLocation()</text>
<text text-anchor="start" x="13.5" y="-6.5" font-family="Monaco" font-size="10.00">+</text>
<text text-anchor="start" x="26.5" y="-6.5" font-family="Monaco" font-size="10.00">isActive()</text>
<polygon fill="#666666" stroke="#666666" points="9.5,-136.5 9.5,-136.5 157.5,-136.5 157.5,-136.5 9.5,-136.5"/>
<polygon fill="#666666" stroke="#666666" points="9.5,-121.5 9.5,-121.5 157.5,-121.5 157.5,-121.5 9.5,-121.5"/>
<polygon fill="none" stroke="#666666" points="9.5,0 9.5,-165 157.5,-165 157.5,0 9.5,0"/>
</a>
</g>
</g>
<!-- Node2 -->
<g id="Node000002" class="node">
<title>Node2</title>
<g id="a_Node000002"><a xlink:href="../../d2/d2a/class_hydro_couple_1_1_i_identity.html" target="_top" xlink:title="IIdentity interface class defines a method to get the Id of an HydroCouple entity.">
<polygon fill="white" stroke="transparent" points="143.5,-265 23.5,-265 23.5,-201 143.5,-201 143.5,-265"/>
<text text-anchor="start" x="28.5" y="-253" font-family="Monaco" font-size="10.00">HydroCouple::IIdentity</text>
<text text-anchor="start" x="81.5" y="-238" font-family="Monaco" font-size="10.00"> </text>
<text text-anchor="start" x="38" y="-223" font-family="Monaco" font-size="10.00">+</text>
<text text-anchor="start" x="61.5" y="-223" font-family="Monaco" font-size="10.00">~IIdentity()</text>
<text text-anchor="start" x="38" y="-208" font-family="Monaco" font-size="10.00">+</text>
<text text-anchor="start" x="61.5" y="-208" font-family="Monaco" font-size="10.00">id()</text>
<polygon fill="#666666" stroke="#666666" points="23.5,-248 23.5,-248 143.5,-248 143.5,-248 23.5,-248"/>
<polygon fill="#666666" stroke="#666666" points="23.5,-233 23.5,-233 143.5,-233 143.5,-233 23.5,-233"/>
<polygon fill="none" stroke="#666666" points="23.5,-201 23.5,-265 143.5,-265 143.5,-201 23.5,-201"/>
</a>
</g>
</g>
<!-- Node2&#45;&gt;Node1 -->
<g id="edge1_Node000001_Node000002" class="edge">
<title>Node2&#45;&gt;Node1</title>
<g id="a_edge1_Node000001_Node000002"><a xlink:title=" ">
<path fill="none" stroke="#63b8ff" d="M83.5,-190.69C83.5,-182.63 83.5,-173.93 83.5,-165.08"/>
<polygon fill="none" stroke="#63b8ff" points="80,-190.87 83.5,-200.87 87,-190.87 80,-190.87"/>
</a>
</g>
</g>
<!-- Node3 -->
<g id="Node000003" class="node">
<title>Node3</title>
<g id="a_Node000003"><a xlink:href="../../db/d64/class_hydro_couple_1_1_i_description.html" target="_top" xlink:title="IDescription interface class provides descriptive information on a HydroCouple object.">
<polygon fill="white" stroke="transparent" points="152.5,-410 14.5,-410 14.5,-301 152.5,-301 152.5,-410"/>
<text text-anchor="start" x="19.5" y="-397.5" font-family="Monaco" font-size="10.00">HydroCouple::IDescription</text>
<text text-anchor="start" x="81.5" y="-382.5" font-family="Monaco" font-size="10.00"> </text>
<text text-anchor="start" x="28" y="-367.5" font-family="Monaco" font-size="10.00">+</text>
<text text-anchor="start" x="50.5" y="-367.5" font-family="Monaco" font-size="10.00">~IDescription()</text>
<text text-anchor="start" x="28" y="-352.5" font-family="Monaco" font-size="10.00">+</text>
<text text-anchor="start" x="50.5" y="-352.5" font-family="Monaco" font-size="10.00">caption()</text>
<text text-anchor="start" x="28" y="-337.5" font-family="Monaco" font-size="10.00">+</text>
<text text-anchor="start" x="50.5" y="-337.5" font-family="Monaco" font-size="10.00">setCaption()</text>
<text text-anchor="start" x="28" y="-322.5" font-family="Monaco" font-size="10.00">+</text>
<text text-anchor="start" x="50.5" y="-322.5" font-family="Monaco" font-size="10.00">description()</text>
<text text-anchor="start" x="28" y="-307.5" font-family="Monaco" font-size="10.00">+</text>
<text text-anchor="start" x="50.5" y="-307.5" font-family="Monaco" font-size="10.00">setDescription()</text>
<polygon fill="#666666" stroke="#666666" points="14.5,-392.5 14.5,-392.5 152.5,-392.5 152.5,-392.5 14.5,-392.5"/>
<polygon fill="#666666" stroke="#666666" points="14.5,-377.5 14.5,-377.5 152.5,-377.5 152.5,-377.5 14.5,-377.5"/>
<polygon fill="none" stroke="#666666" points="14.5,-301 14.5,-410 152.5,-410 152.5,-301 14.5,-301"/>
</a>
</g>
</g>
<!-- Node3&#45;&gt;Node2 -->
<g id="edge2_Node000002_Node000003" class="edge">
<title>Node3&#45;&gt;Node2</title>
<g id="a_edge2_Node000002_Node000003"><a xlink:title=" ">
<path fill="none" stroke="#63b8ff" d="M83.5,-290.9C83.5,-282 83.5,-273.2 83.5,-265.28"/>
<polygon fill="none" stroke="#63b8ff" points="80,-290.95 83.5,-300.95 87,-290.95 80,-290.95"/>
</a>
</g>
</g>
<!-- Node4 -->
<g id="Node000004" class="node">
<title>Node4</title>
<g id="a_Node000004"><a xlink:href="../../dd/dbf/class_hydro_couple_1_1_i_property_changed.html" target="_top" xlink:title="IPropertyChanged interface is used to emit signal/event when a property of an object changes.">
<polygon fill="white" stroke="transparent" points="167,-495 0,-495 0,-446 167,-446 167,-495"/>
<text text-anchor="start" x="5.5" y="-482.5" font-family="Monaco" font-size="10.00">HydroCouple::IPropertyChanged</text>
<text text-anchor="start" x="82" y="-467.5" font-family="Monaco" font-size="10.00"> </text>
<text text-anchor="start" x="15" y="-452.5" font-family="Monaco" font-size="10.00">+</text>
<text text-anchor="start" x="38.5" y="-452.5" font-family="Monaco" font-size="10.00">~IPropertyChanged()</text>
<polygon fill="#666666" stroke="#666666" points="0.5,-477.5 0.5,-477.5 167.5,-477.5 167.5,-477.5 0.5,-477.5"/>
<polygon fill="#666666" stroke="#666666" points="0.5,-462.5 0.5,-462.5 167.5,-462.5 167.5,-462.5 0.5,-462.5"/>
<polygon fill="none" stroke="#666666" points="0,-446 0,-495 167,-495 167,-446 0,-446"/>
</a>
</g>
</g>
<!-- Node4&#45;&gt;Node3 -->
<g id="edge3_Node000003_Node000004" class="edge">
<title>Node4&#45;&gt;Node3</title>
<g id="a_edge3_Node000003_Node000004"><a xlink:title=" ">
<path fill="none" stroke="#63b8ff" d="M83.5,-435.79C83.5,-427.79 83.5,-419.06 83.5,-410.41"/>
<polygon fill="none" stroke="#63b8ff" points="80,-435.81 83.5,-445.81 87,-435.81 80,-435.81"/>
</a>
</g>
</g>
<!-- Node5 -->
<g id="Node000005" class="node">
<title>Node5</title>
<g id="a_Node000005"><a xlink:href="../../d5/d8b/class_hydro_couple_1_1_i_signal.html" target="_top" xlink:title=" ">
<polygon fill="white" stroke="transparent" points="140,-651 27,-651 27,-531 140,-531 140,-651"/>
<text text-anchor="start" x="32.5" y="-639" font-family="Monaco" font-size="10.00">HydroCouple::ISignal</text>
<text text-anchor="start" x="58.5" y="-628" font-family="Monaco" font-size="10.00">&lt; string &gt;</text>
<text text-anchor="start" x="82" y="-613" font-family="Monaco" font-size="10.00"> </text>
<text text-anchor="start" x="37" y="-598" font-family="Monaco" font-size="10.00">+</text>
<text text-anchor="start" x="55.5" y="-598" font-family="Monaco" font-size="10.00">~ISignal()</text>
<text text-anchor="start" x="37" y="-583" font-family="Monaco" font-size="10.00">+</text>
<text text-anchor="start" x="55.5" y="-583" font-family="Monaco" font-size="10.00">connect()</text>
<text text-anchor="start" x="37" y="-568" font-family="Monaco" font-size="10.00">+</text>
<text text-anchor="start" x="55.5" y="-568" font-family="Monaco" font-size="10.00">disconnect()</text>
<text text-anchor="start" x="37" y="-553" font-family="Monaco" font-size="10.00">+</text>
<text text-anchor="start" x="55.5" y="-553" font-family="Monaco" font-size="10.00">blockSignals()</text>
<text text-anchor="start" x="37" y="-538" font-family="Monaco" font-size="10.00">#</text>
<text text-anchor="start" x="55.5" y="-538" font-family="Monaco" font-size="10.00">emit()</text>
<polygon fill="#666666" stroke="#666666" points="27.5,-623 27.5,-623 140.5,-623 140.5,-623 27.5,-623"/>
<polygon fill="#666666" stroke="#666666" points="27.5,-608 27.5,-608 140.5,-608 140.5,-608 27.5,-608"/>
<polygon fill="none" stroke="#666666" points="27,-531 27,-651 140,-651 140,-531 27,-531"/>
</a>
</g>
</g>
<!-- Node5&#45;&gt;Node4 -->
<g id="edge4_Node000004_Node000005" class="edge">
<title>Node5&#45;&gt;Node4</title>
<g id="a_edge4_Node000004_Node000005"><a xlink:title=" ">
<path fill="none" stroke="#63b8ff" d="M83.5,-520.74C83.5,-511.6 83.5,-502.78 83.5,-495.2"/>
<polygon fill="none" stroke="#63b8ff" points="80,-520.75 83.5,-530.75 87,-520.75 80,-520.75"/>
</a>
</g>
</g>
</g>
</svg>
