<?xml version="1.0" encoding="UTF-8" standalone="no"?>
<!DOCTYPE svg PUBLIC "-//W3C//DTD SVG 1.1//EN"
 "http://www.w3.org/Graphics/SVG/1.1/DTD/svg11.dtd">
<!-- Generated by graphviz version 2.43.0 (0)
 -->
<!-- Title: HydroCouple::IArgument Pages: 1 -->
<!--zoomable 1025 -->

<svg id="main" version="1.1" xmlns="http://www.w3.org/2000/svg" xmlns:xlink="http://www.w3.org/1999/xlink" xml:space="preserve" onload="init(evt)">
<style type="text/css"><![CDATA[
.node, .edge {opacity: 0.7;}
.node.selected, .edge.selected {opacity: 1;}
.edge:hover path { stroke: red; }
.edge:hover polygon { stroke: red; fill: red; }
]]></style>

<defs>
  <circle id="rim" cx="0" cy="0" r="7"/>
  <circle id="rim2" cx="0" cy="0" r="3.5"/>
  <g id="zoomPlus">
    <use xlink:href="#rim" fill="#404040"><set attributeName="fill" to="#808080" begin="zoomplus.mouseover" end="zoomplus.mouseout"/></use>
    <path d="M-4,0h8M0,-4v8" fill="none" stroke="white" stroke-width="1.5" pointer-events="none"/>
  </g>
  <g id="zoomMin">
    <use xlink:href="#rim" fill="#404040"><set attributeName="fill" to="#808080" begin="zoomminus.mouseover" end="zoomminus.mouseout"/></use>
    <path d="M-4,0h8" fill="none" stroke="white" stroke-width="1.5" pointer-events="none"/>
  </g>
  <g id="arrowUp" transform="translate(30 24)">
    <use xlink:href="#rim"/>
    <path pointer-events="none" fill="none" stroke="white" stroke-width="1.5" d="M0,-3.0v7 M-2.5,-0.5L0,-3.0L2.5,-0.5"/>
  </g>
  <g id="arrowRight" transform="rotate(90) translate(36 -43)">
    <use xlink:href="#rim"/>
    <path pointer-events="none" fill="none" stroke="white" stroke-width="1.5" d="M0,-3.0v7 M-2.5,-0.5L0,-3.0L2.5,-0.5"/>
  </g>
  <g id="arrowDown" transform="rotate(180) translate(-30 -48)">
    <use xlink:href="#rim"/>
    <path pointer-events="none" fill="none" stroke="white" stroke-width="1.5" d="M0,-3.0v7 M-2.5,-0.5L0,-3.0L2.5,-0.5"/>
  </g>
  <g id="arrowLeft" transform="rotate(270) translate(-36 17)">
    <use xlink:href="#rim"/>
    <path pointer-events="none" fill="none" stroke="white" stroke-width="1.5" d="M0,-3.0v7 M-2.5,-0.5L0,-3.0L2.5,-0.5"/>
  </g>
  <g id="resetDef">
    <use xlink:href="#rim2" fill="#404040"><set attributeName="fill" to="#808080" begin="reset.mouseover" end="reset.mouseout"/></use>
  </g>
</defs>
<script type="application/ecmascript">
var viewWidth = 343;
var viewHeight = 1025;
var sectionId = 'dynsection-1';
</script>
<script type="application/ecmascript" xlink:href="../../svg.min.js"/>
<svg id="graph" class="graph">
<g id="viewport">
<title>HydroCouple::IArgument</title>
<!-- Node1 -->
<g id="Node000001" class="node">
<title>Node1</title>
<g id="a_Node000001"><a xlink:title="IArgument interface class used to set the arguments for components. They can be complex or simple mul...">
<polygon fill="#999999" stroke="transparent" points="257,-199 74,-199 74,0 257,0 257,-199"/>
<text text-anchor="start" x="105.5" y="-186.5" font-family="Monaco" font-size="10.00">HydroCouple::IArgument</text>
<text text-anchor="start" x="164" y="-171.5" font-family="Monaco" font-size="10.00"> </text>
<text text-anchor="start" x="78.5" y="-156.5" font-family="Monaco" font-size="10.00">+</text>
<text text-anchor="start" x="91.5" y="-156.5" font-family="Monaco" font-size="10.00">~IArgument()</text>
<text text-anchor="start" x="78.5" y="-141.5" font-family="Monaco" font-size="10.00">+</text>
<text text-anchor="start" x="91.5" y="-141.5" font-family="Monaco" font-size="10.00">isOptional()</text>
<text text-anchor="start" x="78.5" y="-126.5" font-family="Monaco" font-size="10.00">+</text>
<text text-anchor="start" x="91.5" y="-126.5" font-family="Monaco" font-size="10.00">isReadOnly()</text>
<text text-anchor="start" x="78.5" y="-111.5" font-family="Monaco" font-size="10.00">+</text>
<text text-anchor="start" x="91.5" y="-111.5" font-family="Monaco" font-size="10.00">toString()</text>
<text text-anchor="start" x="78.5" y="-96.5" font-family="Monaco" font-size="10.00">+</text>
<text text-anchor="start" x="91.5" y="-96.5" font-family="Monaco" font-size="10.00">saveData()</text>
<text text-anchor="start" x="78.5" y="-81.5" font-family="Monaco" font-size="10.00">+</text>
<text text-anchor="start" x="91.5" y="-81.5" font-family="Monaco" font-size="10.00">fileFilters()</text>
<text text-anchor="start" x="78.5" y="-66.5" font-family="Monaco" font-size="10.00">+</text>
<text text-anchor="start" x="91.5" y="-66.5" font-family="Monaco" font-size="10.00">validComponentDataItemTypes()</text>
<text text-anchor="start" x="78.5" y="-51.5" font-family="Monaco" font-size="10.00">+</text>
<text text-anchor="start" x="91.5" y="-51.5" font-family="Monaco" font-size="10.00">isValidArgType()</text>
<text text-anchor="start" x="78.5" y="-36.5" font-family="Monaco" font-size="10.00">+</text>
<text text-anchor="start" x="91.5" y="-36.5" font-family="Monaco" font-size="10.00">currentArgumentInputType()</text>
<text text-anchor="start" x="78.5" y="-21.5" font-family="Monaco" font-size="10.00">+</text>
<text text-anchor="start" x="91.5" y="-21.5" font-family="Monaco" font-size="10.00">initialize()</text>
<text text-anchor="start" x="78.5" y="-6.5" font-family="Monaco" font-size="10.00">+</text>
<text text-anchor="start" x="91.5" y="-6.5" font-family="Monaco" font-size="10.00">initialize()</text>
<polygon fill="#666666" stroke="#666666" points="74.5,-181.5 74.5,-181.5 257.5,-181.5 257.5,-181.5 74.5,-181.5"/>
<polygon fill="#666666" stroke="#666666" points="74.5,-166.5 74.5,-166.5 257.5,-166.5 257.5,-166.5 74.5,-166.5"/>
<polygon fill="none" stroke="#666666" points="74,0 74,-199 257,-199 257,0 74,0"/>
</a>
</g>
</g>
<!-- Node2 -->
<g id="Node000002" class="node">
<title>Node2</title>
<g id="a_Node000002"><a xlink:href="../../d8/d52/class_hydro_couple_1_1_i_component_data_item.html" target="_top" xlink:title="IComponentItem is a fundamental unit of data for a component.">
<polygon fill="white" stroke="transparent" points="258,-464 73,-464 73,-235 258,-235 258,-464"/>
<text text-anchor="start" x="78.5" y="-451.5" font-family="Monaco" font-size="10.00">HydroCouple::IComponentDataItem</text>
<text text-anchor="start" x="164" y="-436.5" font-family="Monaco" font-size="10.00"> </text>
<text text-anchor="start" x="88" y="-421.5" font-family="Monaco" font-size="10.00">+</text>
<text text-anchor="start" x="111.5" y="-421.5" font-family="Monaco" font-size="10.00">~IComponentDataItem()</text>
<text text-anchor="start" x="88" y="-406.5" font-family="Monaco" font-size="10.00">+</text>
<text text-anchor="start" x="111.5" y="-406.5" font-family="Monaco" font-size="10.00">modelComponent()</text>
<text text-anchor="start" x="88" y="-391.5" font-family="Monaco" font-size="10.00">+</text>
<text text-anchor="start" x="111.5" y="-391.5" font-family="Monaco" font-size="10.00">dimensions()</text>
<text text-anchor="start" x="88" y="-376.5" font-family="Monaco" font-size="10.00">+</text>
<text text-anchor="start" x="111.5" y="-376.5" font-family="Monaco" font-size="10.00">dimensionLength()</text>
<text text-anchor="start" x="88" y="-361.5" font-family="Monaco" font-size="10.00">+</text>
<text text-anchor="start" x="111.5" y="-361.5" font-family="Monaco" font-size="10.00">valueDefinition()</text>
<text text-anchor="start" x="88" y="-346.5" font-family="Monaco" font-size="10.00">+</text>
<text text-anchor="start" x="111.5" y="-346.5" font-family="Monaco" font-size="10.00">getValue()</text>
<text text-anchor="start" x="88" y="-331.5" font-family="Monaco" font-size="10.00">+</text>
<text text-anchor="start" x="111.5" y="-331.5" font-family="Monaco" font-size="10.00">getValues()</text>
<text text-anchor="start" x="88" y="-316.5" font-family="Monaco" font-size="10.00">+</text>
<text text-anchor="start" x="111.5" y="-316.5" font-family="Monaco" font-size="10.00">setValue()</text>
<text text-anchor="start" x="88" y="-301.5" font-family="Monaco" font-size="10.00">+</text>
<text text-anchor="start" x="111.5" y="-301.5" font-family="Monaco" font-size="10.00">setValues()</text>
<text text-anchor="start" x="88" y="-286.5" font-family="Monaco" font-size="10.00">+</text>
<text text-anchor="start" x="111.5" y="-286.5" font-family="Monaco" font-size="10.00">hasEditor()</text>
<text text-anchor="start" x="88" y="-271.5" font-family="Monaco" font-size="10.00">+</text>
<text text-anchor="start" x="111.5" y="-271.5" font-family="Monaco" font-size="10.00">showEditor()</text>
<text text-anchor="start" x="88" y="-256.5" font-family="Monaco" font-size="10.00">+</text>
<text text-anchor="start" x="111.5" y="-256.5" font-family="Monaco" font-size="10.00">hasViewer()</text>
<text text-anchor="start" x="88" y="-241.5" font-family="Monaco" font-size="10.00">+</text>
<text text-anchor="start" x="111.5" y="-241.5" font-family="Monaco" font-size="10.00">showViewer()</text>
<polygon fill="#666666" stroke="#666666" points="73.5,-446.5 73.5,-446.5 258.5,-446.5 258.5,-446.5 73.5,-446.5"/>
<polygon fill="#666666" stroke="#666666" points="73.5,-431.5 73.5,-431.5 258.5,-431.5 258.5,-431.5 73.5,-431.5"/>
<polygon fill="none" stroke="#666666" points="73,-235 73,-464 258,-464 258,-235 73,-235"/>
</a>
</g>
</g>
<!-- Node2&#45;&gt;Node1 -->
<g id="edge1_Node000001_Node000002" class="edge">
<title>Node2&#45;&gt;Node1</title>
<g id="a_edge1_Node000001_Node000002"><a xlink:title=" ">
<path fill="none" stroke="#63b8ff" d="M165.5,-224.65C165.5,-216.11 165.5,-207.58 165.5,-199.2"/>
<polygon fill="none" stroke="#63b8ff" points="162,-224.66 165.5,-234.66 169,-224.66 162,-224.66"/>
</a>
</g>
</g>
<!-- Node3 -->
<g id="Node000003" class="node">
<title>Node3</title>
<g id="a_Node000003"><a xlink:href="../../d2/d2a/class_hydro_couple_1_1_i_identity.html" target="_top" xlink:title="IIdentity interface class defines a method to get the Id of an HydroCouple entity.">
<polygon fill="white" stroke="transparent" points="143.5,-597.5 23.5,-597.5 23.5,-533.5 143.5,-533.5 143.5,-597.5"/>
<text text-anchor="start" x="28.5" y="-585.5" font-family="Monaco" font-size="10.00">HydroCouple::IIdentity</text>
<text text-anchor="start" x="81.5" y="-570.5" font-family="Monaco" font-size="10.00"> </text>
<text text-anchor="start" x="38" y="-555.5" font-family="Monaco" font-size="10.00">+</text>
<text text-anchor="start" x="61.5" y="-555.5" font-family="Monaco" font-size="10.00">~IIdentity()</text>
<text text-anchor="start" x="38" y="-540.5" font-family="Monaco" font-size="10.00">+</text>
<text text-anchor="start" x="61.5" y="-540.5" font-family="Monaco" font-size="10.00">id()</text>
<polygon fill="#666666" stroke="#666666" points="23.5,-580.5 23.5,-580.5 143.5,-580.5 143.5,-580.5 23.5,-580.5"/>
<polygon fill="#666666" stroke="#666666" points="23.5,-565.5 23.5,-565.5 143.5,-565.5 143.5,-565.5 23.5,-565.5"/>
<polygon fill="none" stroke="#666666" points="23.5,-533.5 23.5,-597.5 143.5,-597.5 143.5,-533.5 23.5,-533.5"/>
</a>
</g>
</g>
<!-- Node3&#45;&gt;Node2 -->
<g id="edge2_Node000002_Node000003" class="edge">
<title>Node3&#45;&gt;Node2</title>
<g id="a_edge2_Node000002_Node000003"><a xlink:title=" ">
<path fill="none" stroke="#63b8ff" d="M99.13,-523.71C105.72,-506.5 113.76,-485.52 121.94,-464.19"/>
<polygon fill="none" stroke="#63b8ff" points="95.73,-522.79 95.42,-533.38 102.27,-525.3 95.73,-522.79"/>
</a>
</g>
</g>
<!-- Node4 -->
<g id="Node000004" class="node">
<title>Node4</title>
<g id="a_Node000004"><a xlink:href="../../db/d64/class_hydro_couple_1_1_i_description.html" target="_top" xlink:title="IDescription interface class provides descriptive information on a HydroCouple object.">
<polygon fill="white" stroke="transparent" points="152.5,-776 14.5,-776 14.5,-667 152.5,-667 152.5,-776"/>
<text text-anchor="start" x="19.5" y="-763.5" font-family="Monaco" font-size="10.00">HydroCouple::IDescription</text>
<text text-anchor="start" x="81.5" y="-748.5" font-family="Monaco" font-size="10.00"> </text>
<text text-anchor="start" x="28" y="-733.5" font-family="Monaco" font-size="10.00">+</text>
<text text-anchor="start" x="50.5" y="-733.5" font-family="Monaco" font-size="10.00">~IDescription()</text>
<text text-anchor="start" x="28" y="-718.5" font-family="Monaco" font-size="10.00">+</text>
<text text-anchor="start" x="50.5" y="-718.5" font-family="Monaco" font-size="10.00">caption()</text>
<text text-anchor="start" x="28" y="-703.5" font-family="Monaco" font-size="10.00">+</text>
<text text-anchor="start" x="50.5" y="-703.5" font-family="Monaco" font-size="10.00">setCaption()</text>
<text text-anchor="start" x="28" y="-688.5" font-family="Monaco" font-size="10.00">+</text>
<text text-anchor="start" x="50.5" y="-688.5" font-family="Monaco" font-size="10.00">description()</text>
<text text-anchor="start" x="28" y="-673.5" font-family="Monaco" font-size="10.00">+</text>
<text text-anchor="start" x="50.5" y="-673.5" font-family="Monaco" font-size="10.00">setDescription()</text>
<polygon fill="#666666" stroke="#666666" points="14.5,-758.5 14.5,-758.5 152.5,-758.5 152.5,-758.5 14.5,-758.5"/>
<polygon fill="#666666" stroke="#666666" points="14.5,-743.5 14.5,-743.5 152.5,-743.5 152.5,-743.5 14.5,-743.5"/>
<polygon fill="none" stroke="#666666" points="14.5,-667 14.5,-776 152.5,-776 152.5,-667 14.5,-667"/>
</a>
</g>
</g>
<!-- Node4&#45;&gt;Node3 -->
<g id="edge3_Node000003_Node000004" class="edge">
<title>Node4&#45;&gt;Node3</title>
<g id="a_edge3_Node000003_Node000004"><a xlink:title=" ">
<path fill="none" stroke="#63b8ff" d="M83.5,-656.47C83.5,-636.15 83.5,-614.58 83.5,-597.66"/>
<polygon fill="none" stroke="#63b8ff" points="80,-656.64 83.5,-666.64 87,-656.64 80,-656.64"/>
</a>
</g>
</g>
<!-- Node5 -->
<g id="Node000005" class="node">
<title>Node5</title>
<g id="a_Node000005"><a xlink:href="../../dd/dbf/class_hydro_couple_1_1_i_property_changed.html" target="_top" xlink:title="IPropertyChanged interface is used to emit signal/event when a property of an object changes.">
<polygon fill="white" stroke="transparent" points="167,-861 0,-861 0,-812 167,-812 167,-861"/>
<text text-anchor="start" x="5.5" y="-848.5" font-family="Monaco" font-size="10.00">HydroCouple::IPropertyChanged</text>
<text text-anchor="start" x="82" y="-833.5" font-family="Monaco" font-size="10.00"> </text>
<text text-anchor="start" x="15" y="-818.5" font-family="Monaco" font-size="10.00">+</text>
<text text-anchor="start" x="38.5" y="-818.5" font-family="Monaco" font-size="10.00">~IPropertyChanged()</text>
<polygon fill="#666666" stroke="#666666" points="0.5,-843.5 0.5,-843.5 167.5,-843.5 167.5,-843.5 0.5,-843.5"/>
<polygon fill="#666666" stroke="#666666" points="0.5,-828.5 0.5,-828.5 167.5,-828.5 167.5,-828.5 0.5,-828.5"/>
<polygon fill="none" stroke="#666666" points="0,-812 0,-861 167,-861 167,-812 0,-812"/>
</a>
</g>
</g>
<!-- Node5&#45;&gt;Node4 -->
<g id="edge4_Node000004_Node000005" class="edge">
<title>Node5&#45;&gt;Node4</title>
<g id="a_edge4_Node000004_Node000005"><a xlink:title=" ">
<path fill="none" stroke="#63b8ff" d="M83.5,-801.79C83.5,-793.79 83.5,-785.06 83.5,-776.41"/>
<polygon fill="none" stroke="#63b8ff" points="80,-801.81 83.5,-811.81 87,-801.81 80,-801.81"/>
</a>
</g>
</g>
<!-- Node6 -->
<g id="Node000006" class="node">
<title>Node6</title>
<g id="a_Node000006"><a xlink:href="../../d5/d8b/class_hydro_couple_1_1_i_signal.html" target="_top" xlink:title=" ">
<polygon fill="white" stroke="transparent" points="140,-1017 27,-1017 27,-897 140,-897 140,-1017"/>
<text text-anchor="start" x="32.5" y="-1005" font-family="Monaco" font-size="10.00">HydroCouple::ISignal</text>
<text text-anchor="start" x="58.5" y="-994" font-family="Monaco" font-size="10.00">&lt; string &gt;</text>
<text text-anchor="start" x="82" y="-979" font-family="Monaco" font-size="10.00"> </text>
<text text-anchor="start" x="37" y="-964" font-family="Monaco" font-size="10.00">+</text>
<text text-anchor="start" x="55.5" y="-964" font-family="Monaco" font-size="10.00">~ISignal()</text>
<text text-anchor="start" x="37" y="-949" font-family="Monaco" font-size="10.00">+</text>
<text text-anchor="start" x="55.5" y="-949" font-family="Monaco" font-size="10.00">connect()</text>
<text text-anchor="start" x="37" y="-934" font-family="Monaco" font-size="10.00">+</text>
<text text-anchor="start" x="55.5" y="-934" font-family="Monaco" font-size="10.00">disconnect()</text>
<text text-anchor="start" x="37" y="-919" font-family="Monaco" font-size="10.00">+</text>
<text text-anchor="start" x="55.5" y="-919" font-family="Monaco" font-size="10.00">blockSignals()</text>
<text text-anchor="start" x="37" y="-904" font-family="Monaco" font-size="10.00">#</text>
<text text-anchor="start" x="55.5" y="-904" font-family="Monaco" font-size="10.00">emit()</text>
<polygon fill="#666666" stroke="#666666" points="27.5,-989 27.5,-989 140.5,-989 140.5,-989 27.5,-989"/>
<polygon fill="#666666" stroke="#666666" points="27.5,-974 27.5,-974 140.5,-974 140.5,-974 27.5,-974"/>
<polygon fill="none" stroke="#666666" points="27,-897 27,-1017 140,-1017 140,-897 27,-897"/>
</a>
</g>
</g>
<!-- Node6&#45;&gt;Node5 -->
<g id="edge5_Node000005_Node000006" class="edge">
<title>Node6&#45;&gt;Node5</title>
<g id="a_edge5_Node000005_Node000006"><a xlink:title=" ">
<path fill="none" stroke="#63b8ff" d="M83.5,-886.74C83.5,-877.6 83.5,-868.78 83.5,-861.2"/>
<polygon fill="none" stroke="#63b8ff" points="80,-886.75 83.5,-896.75 87,-886.75 80,-886.75"/>
</a>
</g>
</g>
<!-- Node7 -->
<g id="Node000007" class="node">
<title>Node7</title>
<g id="a_Node000007"><a xlink:href="../../d5/d8b/class_hydro_couple_1_1_i_signal.html" target="_top" xlink:title=" ">
<polygon fill="white" stroke="transparent" points="335,-631 162,-631 162,-500 335,-500 335,-631"/>
<text text-anchor="start" x="167.5" y="-618.5" font-family="Monaco" font-size="10.00">HydroCouple::ISignal</text>
<text text-anchor="start" x="167.5" y="-607.5" font-family="Monaco" font-size="10.00">&lt; const shared_ptr&lt; IComponent</text>
<text text-anchor="start" x="174.5" y="-596.5" font-family="Monaco" font-size="10.00">DataItemValueChanged &gt; &amp; &gt;</text>
<text text-anchor="start" x="247" y="-581.5" font-family="Monaco" font-size="10.00"> </text>
<text text-anchor="start" x="187" y="-566.5" font-family="Monaco" font-size="10.00">+</text>
<text text-anchor="start" x="220.5" y="-566.5" font-family="Monaco" font-size="10.00">~ISignal()</text>
<text text-anchor="start" x="187" y="-551.5" font-family="Monaco" font-size="10.00">+</text>
<text text-anchor="start" x="220.5" y="-551.5" font-family="Monaco" font-size="10.00">connect()</text>
<text text-anchor="start" x="187" y="-536.5" font-family="Monaco" font-size="10.00">+</text>
<text text-anchor="start" x="220.5" y="-536.5" font-family="Monaco" font-size="10.00">disconnect()</text>
<text text-anchor="start" x="187" y="-521.5" font-family="Monaco" font-size="10.00">+</text>
<text text-anchor="start" x="220.5" y="-521.5" font-family="Monaco" font-size="10.00">blockSignals()</text>
<text text-anchor="start" x="187" y="-506.5" font-family="Monaco" font-size="10.00">#</text>
<text text-anchor="start" x="220.5" y="-506.5" font-family="Monaco" font-size="10.00">emit()</text>
<polygon fill="#666666" stroke="#666666" points="162.5,-591.5 162.5,-591.5 335.5,-591.5 335.5,-591.5 162.5,-591.5"/>
<polygon fill="#666666" stroke="#666666" points="162.5,-576.5 162.5,-576.5 335.5,-576.5 335.5,-576.5 162.5,-576.5"/>
<polygon fill="none" stroke="#666666" points="162,-500 162,-631 335,-631 335,-500 162,-500"/>
</a>
</g>
</g>
<!-- Node7&#45;&gt;Node2 -->
<g id="edge6_Node000002_Node000007" class="edge">
<title>Node7&#45;&gt;Node2</title>
<g id="a_edge6_Node000002_Node000007"><a xlink:title=" ">
<path fill="none" stroke="#63b8ff" d="M219.71,-490.27C216.42,-481.79 213.01,-472.99 209.58,-464.14"/>
<polygon fill="none" stroke="#63b8ff" points="216.49,-491.65 223.37,-499.71 223.02,-489.12 216.49,-491.65"/>
</a>
</g>
</g>
</g>
</svg>

<g id="navigator" transform="translate(0 0)" fill="#404254">
  <rect fill="#f2f5e9" fill-opacity="0.5" stroke="#606060" stroke-width=".5" x="0" y="0" width="60" height="60"/>
  <use id="zoomplus" xlink:href="#zoomPlus" x="17" y="9" onmousedown="handleZoom(evt,'in')"/>
  <use id="zoomminus" xlink:href="#zoomMin" x="42" y="9" onmousedown="handleZoom(evt,'out')"/>
  <use id="reset" xlink:href="#resetDef" x="30" y="36" onmousedown="handleReset()"/>
   <use id="arrowup" xlink:href="#arrowUp" x="0" y="0" onmousedown="handlePan(0,-1)"/>
  <use id="arrowright" xlink:href="#arrowRight" x="0" y="0" onmousedown="handlePan(1,0)"/>
  <use id="arrowdown" xlink:href="#arrowDown" x="0" y="0" onmousedown="handlePan(0,1)"/>
  <use id="arrowleft" xlink:href="#arrowLeft" x="0" y="0" onmousedown="handlePan(-1,0)"/>
</g>
<svg viewBox="0 0 15 15" width="100%" height="30px" preserveAspectRatio="xMaxYMin meet">
 <g id="arrow_out" transform="scale(0.3 0.3)">
  <a xlink:href="class_hydro_couple_1_1_i_argument__coll__graph_org.svg" target="_base">
   <rect id="button" ry="5" rx="5" y="6" x="6" height="38" width="38"
        fill="#f2f5e9" fill-opacity="0.5" stroke="#606060" stroke-width="1.0"/>
   <path id="arrow"
     d="M 11.500037,31.436501 C 11.940474,20.09759 22.043105,11.32322 32.158766,21.979434 L 37.068811,17.246167 C 37.068811,17.246167 37.088388,32 37.088388,32 L 22.160133,31.978069 C 22.160133,31.978069 26.997745,27.140456 26.997745,27.140456 C 18.528582,18.264221 13.291696,25.230495 11.500037,31.436501 z"
     style="fill:#404040;"/>
  </a>
 </g>
</svg>

<style type='text/css'>
<![CDATA[
[data-mouse-over-selected='false'] { opacity: 0.7; }
[data-mouse-over-selected='true']  { opacity: 1.0; }
]]>
</style>
<script type="application/ecmascript"><![CDATA[
document.addEventListener('DOMContentLoaded', (event) => {
  highlightEdges();
  highlightAdjacentNodes();
});
]]></script>
</svg>
