<?xml version="1.0" encoding="UTF-8" standalone="no"?>
<!DOCTYPE svg PUBLIC "-//W3C//DTD SVG 1.1//EN"
 "http://www.w3.org/Graphics/SVG/1.1/DTD/svg11.dtd">
<!-- Generated by graphviz version 2.43.0 (0)
 -->
<!-- Title: WKBTriangleZM Pages: 1 -->
<svg width="96pt" height="324pt"
 viewBox="0.00 0.00 96.00 324.00" xmlns="http://www.w3.org/2000/svg" xmlns:xlink="http://www.w3.org/1999/xlink">

<svg id="main" version="1.1" xmlns="http://www.w3.org/2000/svg" xmlns:xlink="http://www.w3.org/1999/xlink" xml:space="preserve" onload="init(evt)">
<style type="text/css"><![CDATA[
.node, .edge {opacity: 0.7;}
.node.selected, .edge.selected {opacity: 1;}
.edge:hover path { stroke: red; }
.edge:hover polygon { stroke: red; fill: red; }
]]></style>
<script type="application/ecmascript" xlink:href="../../svg.min.js"/>
<svg id="graph" class="graph">
<g id="graph0" class="graph" transform="scale(1 1) rotate(0) translate(4 320)">
<title>WKBTriangleZM</title>
<!-- Node1 -->
<g id="Node000001" class="node">
<title>Node1</title>
<g id="a_Node000001"><a xlink:title="The WKBTriangleZM struct.">
<polygon fill="#999999" stroke="transparent" points="88,-79 0,-79 0,0 88,0 88,-79"/>
<text text-anchor="start" x="5" y="-66.5" font-family="Monaco" font-size="10.00">WKBTriangleZM</text>
<text text-anchor="start" x="8.5" y="-51.5" font-family="Monaco" font-size="10.00">+</text>
<text text-anchor="start" x="26" y="-51.5" font-family="Monaco" font-size="10.00">byteOrder</text>
<text text-anchor="start" x="8.5" y="-36.5" font-family="Monaco" font-size="10.00">+</text>
<text text-anchor="start" x="26" y="-36.5" font-family="Monaco" font-size="10.00">numRings</text>
<text text-anchor="start" x="8.5" y="-21.5" font-family="Monaco" font-size="10.00">+</text>
<text text-anchor="start" x="26" y="-21.5" font-family="Monaco" font-size="10.00">wkbType</text>
<text text-anchor="start" x="42" y="-6.5" font-family="Monaco" font-size="10.00"> </text>
<polygon fill="#666666" stroke="#666666" points="0,-61.5 0,-61.5 88,-61.5 88,-61.5 0,-61.5"/>
<polygon fill="#666666" stroke="#666666" points="0,-16.5 0,-16.5 24,-16.5 24,-16.5 0,-16.5"/>
<polygon fill="#666666" stroke="#666666" points="24,-16.5 24,-16.5 88,-16.5 88,-16.5 24,-16.5"/>
<polygon fill="none" stroke="#666666" points="0,0 0,-79 88,-79 88,0 0,0"/>
</a>
</g>
</g>
<!-- Node2 -->
<g id="Node000002" class="node">
<title>Node2</title>
<g id="a_Node000002"><a xlink:href="../../dc/dd2/struct_linear_ring_z_m.html" target="_top" xlink:title="The LinearRingZM struct.">
<polygon fill="white" stroke="transparent" points="83,-175 5,-175 5,-126 83,-126 83,-175"/>
<text text-anchor="start" x="10" y="-162.5" font-family="Monaco" font-size="10.00">LinearRingZM</text>
<text text-anchor="start" x="10" y="-147.5" font-family="Monaco" font-size="10.00">+</text>
<text text-anchor="start" x="24" y="-147.5" font-family="Monaco" font-size="10.00">numPoints</text>
<text text-anchor="start" x="42" y="-132.5" font-family="Monaco" font-size="10.00"> </text>
<polygon fill="#666666" stroke="#666666" points="5,-157.5 5,-157.5 83,-157.5 83,-157.5 5,-157.5"/>
<polygon fill="#666666" stroke="#666666" points="5,-142.5 5,-142.5 22,-142.5 22,-142.5 5,-142.5"/>
<polygon fill="#666666" stroke="#666666" points="22,-142.5 22,-142.5 83,-142.5 83,-142.5 22,-142.5"/>
<polygon fill="none" stroke="#666666" points="5,-126 5,-175 83,-175 83,-126 5,-126"/>
</a>
</g>
</g>
<!-- Node2&#45;&gt;Node1 -->
<g id="edge1_Node000001_Node000002" class="edge">
<title>Node2&#45;&gt;Node1</title>
<g id="a_edge1_Node000001_Node000002"><a xlink:title=" ">
<path fill="none" stroke="#63b8ff" d="M44,-125.85C44,-115.72 44,-103.47 44,-91.45"/>
<polygon fill="none" stroke="#63b8ff" points="44,-91.1 40,-85.1 44,-79.1 48,-85.1 44,-91.1"/>
</a>
</g>
<text text-anchor="middle" x="62" y="-100" font-family="Monaco" font-size="10.00" fill="grey"> +rings</text>
</g>
<!-- Node3 -->
<g id="Node000003" class="node">
<title>Node3</title>
<g id="a_Node000003"><a xlink:href="../../d7/ded/struct_point_z_m.html" target="_top" xlink:title="The PointZM struct.">
<polygon fill="white" stroke="transparent" points="69.5,-316 18.5,-316 18.5,-222 69.5,-222 69.5,-316"/>
<text text-anchor="start" x="24" y="-304" font-family="Monaco" font-size="10.00">PointZM</text>
<text text-anchor="start" x="28" y="-289" font-family="Monaco" font-size="10.00">+</text>
<text text-anchor="start" x="46" y="-289" font-family="Monaco" font-size="10.00">x</text>
<text text-anchor="start" x="28" y="-274" font-family="Monaco" font-size="10.00">+</text>
<text text-anchor="start" x="46" y="-274" font-family="Monaco" font-size="10.00">y</text>
<text text-anchor="start" x="28" y="-259" font-family="Monaco" font-size="10.00">+</text>
<text text-anchor="start" x="46" y="-259" font-family="Monaco" font-size="10.00">z</text>
<text text-anchor="start" x="28" y="-244" font-family="Monaco" font-size="10.00">+</text>
<text text-anchor="start" x="46" y="-244" font-family="Monaco" font-size="10.00">m</text>
<text text-anchor="start" x="42.5" y="-229" font-family="Monaco" font-size="10.00"> </text>
<polygon fill="#666666" stroke="#666666" points="19,-299 19,-299 70,-299 70,-299 19,-299"/>
<polygon fill="#666666" stroke="#666666" points="19,-239 19,-239 44,-239 44,-239 19,-239"/>
<polygon fill="#666666" stroke="#666666" points="44,-239 44,-239 70,-239 70,-239 44,-239"/>
<polygon fill="none" stroke="#666666" points="18.5,-222 18.5,-316 69.5,-316 69.5,-222 18.5,-222"/>
</a>
</g>
</g>
<!-- Node3&#45;&gt;Node2 -->
<g id="edge2_Node000002_Node000003" class="edge">
<title>Node3&#45;&gt;Node2</title>
<g id="a_edge2_Node000002_Node000003"><a xlink:title=" ">
<path fill="none" stroke="#63b8ff" d="M44,-221.96C44,-210.44 44,-198.25 44,-187.31"/>
<polygon fill="none" stroke="#63b8ff" points="44,-187.15 40,-181.15 44,-175.15 48,-181.15 44,-187.15"/>
</a>
</g>
<text text-anchor="middle" x="65" y="-196" font-family="Monaco" font-size="10.00" fill="grey"> +points</text>
</g>
</g>
</svg>
</svg>

<style type='text/css'>
<![CDATA[
[data-mouse-over-selected='false'] { opacity: 0.7; }
[data-mouse-over-selected='true']  { opacity: 1.0; }
]]>
</style>
<script type="application/ecmascript"><![CDATA[
document.addEventListener('DOMContentLoaded', (event) => {
  highlightEdges();
  highlightAdjacentNodes();
});
]]></script>
</svg>
