<?xml version="1.0" encoding="UTF-8" standalone="no"?>
<!DOCTYPE svg PUBLIC "-//W3C//DTD SVG 1.1//EN"
 "http://www.w3.org/Graphics/SVG/1.1/DTD/svg11.dtd">
<!-- Generated by graphviz version 2.43.0 (0)
 -->
<!-- Title: HydroCouple::IValueDefinition Pages: 1 -->
<svg width="204pt" height="364pt"
 viewBox="0.00 0.00 204.00 364.00" xmlns="http://www.w3.org/2000/svg" xmlns:xlink="http://www.w3.org/1999/xlink">
<g id="graph0" class="graph" transform="scale(1 1) rotate(0) translate(4 360)">
<title>HydroCouple::IValueDefinition</title>
<!-- Node1 -->
<g id="node1" class="node">
<title>Node1</title>
<g id="a_node1"><a xlink:title="IValueDefinition describes a value returned by the getValues() function of IValueSet.">
<polygon fill="#bfbfbf" stroke="black" points="16.5,-0.5 16.5,-90.5 179.5,-90.5 179.5,-0.5 16.5,-0.5"/>
<text text-anchor="middle" x="98" y="-78.5" font-family="Monaco" font-size="10.00">HydroCouple::IValueDefinition</text>
<polyline fill="none" stroke="black" points="16.5,-71.5 179.5,-71.5 "/>
<text text-anchor="middle" x="98" y="-59.5" font-family="Monaco" font-size="10.00"> </text>
<polyline fill="none" stroke="black" points="16.5,-52.5 179.5,-52.5 "/>
<text text-anchor="start" x="24.5" y="-40.5" font-family="Monaco" font-size="10.00">+ ~IValueDefinition()</text>
<text text-anchor="start" x="24.5" y="-29.5" font-family="Monaco" font-size="10.00">+ type()</text>
<text text-anchor="start" x="24.5" y="-18.5" font-family="Monaco" font-size="10.00">+ missingValue()</text>
<text text-anchor="start" x="24.5" y="-7.5" font-family="Monaco" font-size="10.00">+ defaultValue()</text>
</a>
</g>
</g>
<!-- Node2 -->
<g id="node2" class="node">
<title>Node2</title>
<g id="a_node2"><a xlink:href="../../db/d64/class_hydro_couple_1_1_i_description.html" target="_top" xlink:title="IDescription interface class provides descriptive information on a HydroCouple object.">
<polygon fill="none" stroke="black" points="26,-127.5 26,-228.5 170,-228.5 170,-127.5 26,-127.5"/>
<text text-anchor="middle" x="98" y="-216.5" font-family="Monaco" font-size="10.00">HydroCouple::IDescription</text>
<polyline fill="none" stroke="black" points="26,-209.5 170,-209.5 "/>
<text text-anchor="middle" x="98" y="-197.5" font-family="Monaco" font-size="10.00"> </text>
<polyline fill="none" stroke="black" points="26,-190.5 170,-190.5 "/>
<text text-anchor="start" x="34" y="-178.5" font-family="Monaco" font-size="10.00">+ ~IDescription()</text>
<text text-anchor="start" x="34" y="-167.5" font-family="Monaco" font-size="10.00">+ caption()</text>
<text text-anchor="start" x="34" y="-156.5" font-family="Monaco" font-size="10.00">+ setCaption()</text>
<text text-anchor="start" x="34" y="-145.5" font-family="Monaco" font-size="10.00">+ description()</text>
<text text-anchor="start" x="34" y="-134.5" font-family="Monaco" font-size="10.00">+ setDescription()</text>
</a>
</g>
</g>
<!-- Node2&#45;&gt;Node1 -->
<g id="edge1" class="edge">
<title>Node2&#45;&gt;Node1</title>
<path fill="none" stroke="midnightblue" d="M98,-117.23C98,-108.24 98,-99.1 98,-90.52"/>
<polygon fill="none" stroke="midnightblue" points="94.5,-117.29 98,-127.29 101.5,-117.29 94.5,-117.29"/>
</g>
<!-- Node3 -->
<g id="node3" class="node">
<title>Node3</title>
<g id="a_node3"><a xlink:href="../../dd/dbf/class_hydro_couple_1_1_i_property_changed.html" target="_top" xlink:title="IPropertyChanged interface is used to emit signal/event when a property of an object changes.">
<polygon fill="none" stroke="black" points="0,-265.5 0,-355.5 196,-355.5 196,-265.5 0,-265.5"/>
<text text-anchor="middle" x="98" y="-343.5" font-family="Monaco" font-size="10.00">HydroCouple::IPropertyChanged</text>
<polyline fill="none" stroke="black" points="0,-336.5 196,-336.5 "/>
<text text-anchor="middle" x="98" y="-324.5" font-family="Monaco" font-size="10.00"> </text>
<polyline fill="none" stroke="black" points="0,-317.5 196,-317.5 "/>
<text text-anchor="start" x="8" y="-305.5" font-family="Monaco" font-size="10.00">+ ~IPropertyChanged()</text>
<text text-anchor="start" x="8" y="-294.5" font-family="Monaco" font-size="10.00">+ registerPropertyChangedListener()</text>
<text text-anchor="start" x="8" y="-283.5" font-family="Monaco" font-size="10.00">+ deRegisterPropertyChanged</text>
<text text-anchor="start" x="8" y="-272.5" font-family="Monaco" font-size="10.00">Listener()</text>
</a>
</g>
</g>
<!-- Node3&#45;&gt;Node2 -->
<g id="edge2" class="edge">
<title>Node3&#45;&gt;Node2</title>
<path fill="none" stroke="midnightblue" d="M98,-255.13C98,-246.31 98,-237.22 98,-228.52"/>
<polygon fill="none" stroke="midnightblue" points="94.5,-255.32 98,-265.32 101.5,-255.32 94.5,-255.32"/>
</g>
</g>
</svg>
