<?xml version="1.0" encoding="UTF-8" standalone="no"?>
<!DOCTYPE svg PUBLIC "-//W3C//DTD SVG 1.1//EN"
 "http://www.w3.org/Graphics/SVG/1.1/DTD/svg11.dtd">
<!-- Generated by graphviz version 2.43.0 (0)
 -->
<!-- Title: WKBTriangleM Pages: 1 -->
<svg width="95pt" height="320pt"
 viewBox="0.00 0.00 95.00 320.00" xmlns="http://www.w3.org/2000/svg" xmlns:xlink="http://www.w3.org/1999/xlink">
<g id="graph0" class="graph" transform="scale(1 1) rotate(0) translate(4 316)">
<title>WKBTriangleM</title>
<!-- Node1 -->
<g id="node1" class="node">
<title>Node1</title>
<g id="a_node1"><a xlink:title="The WKBTriangleM struct.">
<polygon fill="#bfbfbf" stroke="black" points="0,-0.5 0,-79.5 87,-79.5 87,-0.5 0,-0.5"/>
<text text-anchor="middle" x="43.5" y="-67.5" font-family="Monaco" font-size="10.00">WKBTriangleM</text>
<polyline fill="none" stroke="black" points="0,-60.5 87,-60.5 "/>
<text text-anchor="start" x="8" y="-48.5" font-family="Monaco" font-size="10.00">+ byteOrder</text>
<text text-anchor="start" x="8" y="-37.5" font-family="Monaco" font-size="10.00">+ numRings</text>
<text text-anchor="start" x="8" y="-26.5" font-family="Monaco" font-size="10.00">+ wkbType</text>
<polyline fill="none" stroke="black" points="0,-19.5 87,-19.5 "/>
<text text-anchor="middle" x="43.5" y="-7.5" font-family="Monaco" font-size="10.00"> </text>
</a>
</g>
</g>
<!-- Node2 -->
<g id="node2" class="node">
<title>Node2</title>
<g id="a_node2"><a xlink:href="../../d0/d1b/struct_linear_ring_m.html" target="_top" xlink:title="The LinearRingM struct.">
<polygon fill="none" stroke="black" points="3.5,-127.5 3.5,-184.5 83.5,-184.5 83.5,-127.5 3.5,-127.5"/>
<text text-anchor="middle" x="43.5" y="-172.5" font-family="Monaco" font-size="10.00">LinearRingM</text>
<polyline fill="none" stroke="black" points="3.5,-165.5 83.5,-165.5 "/>
<text text-anchor="start" x="11.5" y="-153.5" font-family="Monaco" font-size="10.00">+ numPoints</text>
<polyline fill="none" stroke="black" points="3.5,-146.5 83.5,-146.5 "/>
<text text-anchor="middle" x="43.5" y="-134.5" font-family="Monaco" font-size="10.00"> </text>
</a>
</g>
</g>
<!-- Node2&#45;&gt;Node1 -->
<g id="edge1" class="edge">
<title>Node2&#45;&gt;Node1</title>
<path fill="none" stroke="#404040" d="M43.5,-127.4C43.5,-116.63 43.5,-103.93 43.5,-91.62"/>
<polygon fill="none" stroke="#404040" points="43.5,-91.54 39.5,-85.54 43.5,-79.54 47.5,-85.54 43.5,-91.54"/>
<text text-anchor="middle" x="61.5" y="-101" font-family="Monaco" font-size="10.00"> +rings</text>
</g>
<!-- Node3 -->
<g id="node3" class="node">
<title>Node3</title>
<g id="a_node3"><a xlink:href="../../de/d55/struct_point_m.html" target="_top" xlink:title="The PointM struct.">
<polygon fill="none" stroke="black" points="18.5,-232.5 18.5,-311.5 68.5,-311.5 68.5,-232.5 18.5,-232.5"/>
<text text-anchor="middle" x="43.5" y="-299.5" font-family="Monaco" font-size="10.00">PointM</text>
<polyline fill="none" stroke="black" points="18.5,-292.5 68.5,-292.5 "/>
<text text-anchor="start" x="26.5" y="-280.5" font-family="Monaco" font-size="10.00">+ x</text>
<text text-anchor="start" x="26.5" y="-269.5" font-family="Monaco" font-size="10.00">+ y</text>
<text text-anchor="start" x="26.5" y="-258.5" font-family="Monaco" font-size="10.00">+ m</text>
<polyline fill="none" stroke="black" points="18.5,-251.5 68.5,-251.5 "/>
<text text-anchor="middle" x="43.5" y="-239.5" font-family="Monaco" font-size="10.00"> </text>
</a>
</g>
</g>
<!-- Node3&#45;&gt;Node2 -->
<g id="edge2" class="edge">
<title>Node3&#45;&gt;Node2</title>
<path fill="none" stroke="#404040" d="M43.5,-232.4C43.5,-220.93 43.5,-208.33 43.5,-196.78"/>
<polygon fill="none" stroke="#404040" points="43.5,-196.75 39.5,-190.75 43.5,-184.75 47.5,-190.75 43.5,-196.75"/>
<text text-anchor="middle" x="64.5" y="-206" font-family="Monaco" font-size="10.00"> +points</text>
</g>
</g>
</svg>
