<?xml version="1.0" encoding="UTF-8" standalone="no"?>
<!DOCTYPE svg PUBLIC "-//W3C//DTD SVG 1.1//EN"
 "http://www.w3.org/Graphics/SVG/1.1/DTD/svg11.dtd">
<!-- Generated by graphviz version 2.43.0 (0)
 -->
<!-- Title: WKBTriangleM Pages: 1 -->
<svg width="91pt" height="309pt"
 viewBox="0.00 0.00 90.50 309.00" xmlns="http://www.w3.org/2000/svg" xmlns:xlink="http://www.w3.org/1999/xlink">

<svg id="main" version="1.1" xmlns="http://www.w3.org/2000/svg" xmlns:xlink="http://www.w3.org/1999/xlink" xml:space="preserve" onload="init(evt)">
<style type="text/css"><![CDATA[
.node, .edge {opacity: 0.7;}
.node.selected, .edge.selected {opacity: 1;}
.edge:hover path { stroke: red; }
.edge:hover polygon { stroke: red; fill: red; }
]]></style>
<script type="application/ecmascript" xlink:href="../../svg.min.js"/>
<svg id="graph" class="graph">
<g id="graph0" class="graph" transform="scale(1 1) rotate(0) translate(4 305)">
<title>WKBTriangleM</title>
<!-- Node1 -->
<g id="Node000001" class="node">
<title>Node1</title>
<g id="a_Node000001"><a xlink:title="The WKBTriangleM struct.">
<polygon fill="#999999" stroke="transparent" points="81,-79 0,-79 0,0 81,0 81,-79"/>
<text text-anchor="start" x="5.5" y="-66.5" font-family="Monaco" font-size="10.00">WKBTriangleM</text>
<text text-anchor="start" x="7" y="-51.5" font-family="Monaco" font-size="10.00">+</text>
<text text-anchor="start" x="22.5" y="-51.5" font-family="Monaco" font-size="10.00">byteOrder</text>
<text text-anchor="start" x="7" y="-36.5" font-family="Monaco" font-size="10.00">+</text>
<text text-anchor="start" x="22.5" y="-36.5" font-family="Monaco" font-size="10.00">numRings</text>
<text text-anchor="start" x="7" y="-21.5" font-family="Monaco" font-size="10.00">+</text>
<text text-anchor="start" x="22.5" y="-21.5" font-family="Monaco" font-size="10.00">wkbType</text>
<text text-anchor="start" x="39" y="-6.5" font-family="Monaco" font-size="10.00"> </text>
<polygon fill="#666666" stroke="#666666" points="0.5,-61.5 0.5,-61.5 81.5,-61.5 81.5,-61.5 0.5,-61.5"/>
<polygon fill="#666666" stroke="#666666" points="0.5,-16.5 0.5,-16.5 20.5,-16.5 20.5,-16.5 0.5,-16.5"/>
<polygon fill="#666666" stroke="#666666" points="20.5,-16.5 20.5,-16.5 81.5,-16.5 81.5,-16.5 20.5,-16.5"/>
<polygon fill="none" stroke="#666666" points="0,0 0,-79 81,-79 81,0 0,0"/>
</a>
</g>
</g>
<!-- Node2 -->
<g id="Node000002" class="node">
<title>Node2</title>
<g id="a_Node000002"><a xlink:href="../../d0/d1b/struct_linear_ring_m.html" target="_top" xlink:title="The LinearRingM struct.">
<polygon fill="white" stroke="transparent" points="77,-175 4,-175 4,-126 77,-126 77,-175"/>
<text text-anchor="start" x="10.5" y="-162.5" font-family="Monaco" font-size="10.00">LinearRingM</text>
<text text-anchor="start" x="8.5" y="-147.5" font-family="Monaco" font-size="10.00">+</text>
<text text-anchor="start" x="21.5" y="-147.5" font-family="Monaco" font-size="10.00">numPoints</text>
<text text-anchor="start" x="39" y="-132.5" font-family="Monaco" font-size="10.00"> </text>
<polygon fill="#666666" stroke="#666666" points="4.5,-157.5 4.5,-157.5 77.5,-157.5 77.5,-157.5 4.5,-157.5"/>
<polygon fill="#666666" stroke="#666666" points="4.5,-142.5 4.5,-142.5 19.5,-142.5 19.5,-142.5 4.5,-142.5"/>
<polygon fill="#666666" stroke="#666666" points="19.5,-142.5 19.5,-142.5 77.5,-142.5 77.5,-142.5 19.5,-142.5"/>
<polygon fill="none" stroke="#666666" points="4,-126 4,-175 77,-175 77,-126 4,-126"/>
</a>
</g>
</g>
<!-- Node2&#45;&gt;Node1 -->
<g id="edge1_Node000001_Node000002" class="edge">
<title>Node2&#45;&gt;Node1</title>
<g id="a_edge1_Node000001_Node000002"><a xlink:title=" ">
<path fill="none" stroke="#63b8ff" d="M40.5,-125.85C40.5,-115.72 40.5,-103.47 40.5,-91.45"/>
<polygon fill="none" stroke="#63b8ff" points="40.5,-91.1 36.5,-85.1 40.5,-79.1 44.5,-85.1 40.5,-91.1"/>
</a>
</g>
<text text-anchor="middle" x="58.5" y="-100" font-family="Monaco" font-size="10.00" fill="grey"> +rings</text>
</g>
<!-- Node3 -->
<g id="Node000003" class="node">
<title>Node3</title>
<g id="a_Node000003"><a xlink:href="../../de/d55/struct_point_m.html" target="_top" xlink:title="The PointM struct.">
<polygon fill="white" stroke="transparent" points="62.5,-301 18.5,-301 18.5,-222 62.5,-222 62.5,-301"/>
<text text-anchor="start" x="23.5" y="-288.5" font-family="Monaco" font-size="10.00">PointM</text>
<text text-anchor="start" x="25.5" y="-273.5" font-family="Monaco" font-size="10.00">+</text>
<text text-anchor="start" x="41.5" y="-273.5" font-family="Monaco" font-size="10.00">x</text>
<text text-anchor="start" x="25.5" y="-258.5" font-family="Monaco" font-size="10.00">+</text>
<text text-anchor="start" x="41.5" y="-258.5" font-family="Monaco" font-size="10.00">y</text>
<text text-anchor="start" x="25.5" y="-243.5" font-family="Monaco" font-size="10.00">+</text>
<text text-anchor="start" x="41.5" y="-243.5" font-family="Monaco" font-size="10.00">m</text>
<text text-anchor="start" x="38.5" y="-228.5" font-family="Monaco" font-size="10.00"> </text>
<polygon fill="#666666" stroke="#666666" points="18.5,-283.5 18.5,-283.5 62.5,-283.5 62.5,-283.5 18.5,-283.5"/>
<polygon fill="#666666" stroke="#666666" points="18.5,-238.5 18.5,-238.5 39.5,-238.5 39.5,-238.5 18.5,-238.5"/>
<polygon fill="#666666" stroke="#666666" points="39.5,-238.5 39.5,-238.5 62.5,-238.5 62.5,-238.5 39.5,-238.5"/>
<polygon fill="none" stroke="#666666" points="18.5,-222 18.5,-301 62.5,-301 62.5,-222 18.5,-222"/>
</a>
</g>
</g>
<!-- Node3&#45;&gt;Node2 -->
<g id="edge2_Node000002_Node000003" class="edge">
<title>Node3&#45;&gt;Node2</title>
<g id="a_edge2_Node000002_Node000003"><a xlink:title=" ">
<path fill="none" stroke="#63b8ff" d="M40.5,-221.76C40.5,-210.59 40.5,-198.45 40.5,-187.46"/>
<polygon fill="none" stroke="#63b8ff" points="40.5,-187.2 36.5,-181.2 40.5,-175.2 44.5,-181.2 40.5,-187.2"/>
</a>
</g>
<text text-anchor="middle" x="61.5" y="-196" font-family="Monaco" font-size="10.00" fill="grey"> +points</text>
</g>
</g>
</svg>
</svg>

<style type='text/css'>
<![CDATA[
[data-mouse-over-selected='false'] { opacity: 0.7; }
[data-mouse-over-selected='true']  { opacity: 1.0; }
]]>
</style>
<script type="application/ecmascript"><![CDATA[
document.addEventListener('DOMContentLoaded', (event) => {
  highlightEdges();
  highlightAdjacentNodes();
});
]]></script>
</svg>
