<?xml version="1.0" encoding="UTF-8" standalone="no"?>
<!DOCTYPE svg PUBLIC "-//W3C//DTD SVG 1.1//EN"
 "http://www.w3.org/Graphics/SVG/1.1/DTD/svg11.dtd">
<!-- Generated by graphviz version 2.43.0 (0)
 -->
<!-- Title: WKBPolyhedralSurfaceZM Pages: 1 -->
<svg width="146pt" height="450pt"
 viewBox="0.00 0.00 146.00 450.00" xmlns="http://www.w3.org/2000/svg" xmlns:xlink="http://www.w3.org/1999/xlink">

<svg id="main" version="1.1" xmlns="http://www.w3.org/2000/svg" xmlns:xlink="http://www.w3.org/1999/xlink" xml:space="preserve" onload="init(evt)">
<style type="text/css"><![CDATA[
.node, .edge {opacity: 0.7;}
.node.selected, .edge.selected {opacity: 1;}
.edge:hover path { stroke: red; }
.edge:hover polygon { stroke: red; fill: red; }
]]></style>
<script type="application/ecmascript" xlink:href="../../svg.min.js"/>
<svg id="graph" class="graph">
<g id="graph0" class="graph" transform="scale(1 1) rotate(0) translate(4 446)">
<title>WKBPolyhedralSurfaceZM</title>
<!-- Node1 -->
<g id="Node000001" class="node">
<title>Node1</title>
<g id="a_Node000001"><a xlink:title="The WKBPolyhedralSurfaceZM struct.">
<polygon fill="#999999" stroke="transparent" points="138,-79 0,-79 0,0 138,0 138,-79"/>
<text text-anchor="start" x="5" y="-66.5" font-family="Monaco" font-size="10.00">WKBPolyhedralSurfaceZM</text>
<text text-anchor="start" x="16.5" y="-51.5" font-family="Monaco" font-size="10.00">+</text>
<text text-anchor="start" x="42" y="-51.5" font-family="Monaco" font-size="10.00">byteOrder</text>
<text text-anchor="start" x="16.5" y="-36.5" font-family="Monaco" font-size="10.00">+</text>
<text text-anchor="start" x="42" y="-36.5" font-family="Monaco" font-size="10.00">numPolygons</text>
<text text-anchor="start" x="16.5" y="-21.5" font-family="Monaco" font-size="10.00">+</text>
<text text-anchor="start" x="42" y="-21.5" font-family="Monaco" font-size="10.00">wkbType</text>
<text text-anchor="start" x="67" y="-6.5" font-family="Monaco" font-size="10.00"> </text>
<polygon fill="#666666" stroke="#666666" points="0,-61.5 0,-61.5 138,-61.5 138,-61.5 0,-61.5"/>
<polygon fill="#666666" stroke="#666666" points="0,-16.5 0,-16.5 40,-16.5 40,-16.5 0,-16.5"/>
<polygon fill="#666666" stroke="#666666" points="40,-16.5 40,-16.5 138,-16.5 138,-16.5 40,-16.5"/>
<polygon fill="none" stroke="#666666" points="0,0 0,-79 138,-79 138,0 0,0"/>
</a>
</g>
</g>
<!-- Node2 -->
<g id="Node000002" class="node">
<title>Node2</title>
<g id="a_Node000002"><a xlink:href="../../d0/dac/struct_w_k_b_polygon_z_m.html" target="_top" xlink:title="The WKBPolygonZM struct.">
<polygon fill="white" stroke="transparent" points="113.5,-205 24.5,-205 24.5,-126 113.5,-126 113.5,-205"/>
<text text-anchor="start" x="30" y="-192.5" font-family="Monaco" font-size="10.00">WKBPolygonZM</text>
<text text-anchor="start" x="33.5" y="-177.5" font-family="Monaco" font-size="10.00">+</text>
<text text-anchor="start" x="51" y="-177.5" font-family="Monaco" font-size="10.00">byteOrder</text>
<text text-anchor="start" x="33.5" y="-162.5" font-family="Monaco" font-size="10.00">+</text>
<text text-anchor="start" x="51" y="-162.5" font-family="Monaco" font-size="10.00">numRings</text>
<text text-anchor="start" x="33.5" y="-147.5" font-family="Monaco" font-size="10.00">+</text>
<text text-anchor="start" x="51" y="-147.5" font-family="Monaco" font-size="10.00">wkbType</text>
<text text-anchor="start" x="67.5" y="-132.5" font-family="Monaco" font-size="10.00"> </text>
<polygon fill="#666666" stroke="#666666" points="25,-187.5 25,-187.5 114,-187.5 114,-187.5 25,-187.5"/>
<polygon fill="#666666" stroke="#666666" points="25,-142.5 25,-142.5 49,-142.5 49,-142.5 25,-142.5"/>
<polygon fill="#666666" stroke="#666666" points="49,-142.5 49,-142.5 114,-142.5 114,-142.5 49,-142.5"/>
<polygon fill="none" stroke="#666666" points="24.5,-126 24.5,-205 113.5,-205 113.5,-126 24.5,-126"/>
</a>
</g>
</g>
<!-- Node2&#45;&gt;Node1 -->
<g id="edge1_Node000001_Node000002" class="edge">
<title>Node2&#45;&gt;Node1</title>
<g id="a_edge1_Node000001_Node000002"><a xlink:title=" ">
<path fill="none" stroke="#63b8ff" d="M69,-125.95C69,-114.98 69,-102.87 69,-91.3"/>
<polygon fill="none" stroke="#63b8ff" points="69,-91.03 65,-85.03 69,-79.03 73,-85.03 69,-91.03"/>
</a>
</g>
<text text-anchor="middle" x="97" y="-100" font-family="Monaco" font-size="10.00" fill="grey"> +polygons</text>
</g>
<!-- Node3 -->
<g id="Node000003" class="node">
<title>Node3</title>
<g id="a_Node000003"><a xlink:href="../../dc/dd2/struct_linear_ring_z_m.html" target="_top" xlink:title="The LinearRingZM struct.">
<polygon fill="white" stroke="transparent" points="108,-301 30,-301 30,-252 108,-252 108,-301"/>
<text text-anchor="start" x="35" y="-288.5" font-family="Monaco" font-size="10.00">LinearRingZM</text>
<text text-anchor="start" x="35" y="-273.5" font-family="Monaco" font-size="10.00">+</text>
<text text-anchor="start" x="49" y="-273.5" font-family="Monaco" font-size="10.00">numPoints</text>
<text text-anchor="start" x="67" y="-258.5" font-family="Monaco" font-size="10.00"> </text>
<polygon fill="#666666" stroke="#666666" points="30,-283.5 30,-283.5 108,-283.5 108,-283.5 30,-283.5"/>
<polygon fill="#666666" stroke="#666666" points="30,-268.5 30,-268.5 47,-268.5 47,-268.5 30,-268.5"/>
<polygon fill="#666666" stroke="#666666" points="47,-268.5 47,-268.5 108,-268.5 108,-268.5 47,-268.5"/>
<polygon fill="none" stroke="#666666" points="30,-252 30,-301 108,-301 108,-252 30,-252"/>
</a>
</g>
</g>
<!-- Node3&#45;&gt;Node2 -->
<g id="edge2_Node000002_Node000003" class="edge">
<title>Node3&#45;&gt;Node2</title>
<g id="a_edge2_Node000002_Node000003"><a xlink:title=" ">
<path fill="none" stroke="#63b8ff" d="M69,-251.85C69,-241.72 69,-229.47 69,-217.45"/>
<polygon fill="none" stroke="#63b8ff" points="69,-217.1 65,-211.1 69,-205.1 73,-211.1 69,-217.1"/>
</a>
</g>
<text text-anchor="middle" x="87" y="-226" font-family="Monaco" font-size="10.00" fill="grey"> +rings</text>
</g>
<!-- Node4 -->
<g id="Node000004" class="node">
<title>Node4</title>
<g id="a_Node000004"><a xlink:href="../../d7/ded/struct_point_z_m.html" target="_top" xlink:title="The PointZM struct.">
<polygon fill="white" stroke="transparent" points="94.5,-442 43.5,-442 43.5,-348 94.5,-348 94.5,-442"/>
<text text-anchor="start" x="49" y="-430" font-family="Monaco" font-size="10.00">PointZM</text>
<text text-anchor="start" x="53" y="-415" font-family="Monaco" font-size="10.00">+</text>
<text text-anchor="start" x="71" y="-415" font-family="Monaco" font-size="10.00">x</text>
<text text-anchor="start" x="53" y="-400" font-family="Monaco" font-size="10.00">+</text>
<text text-anchor="start" x="71" y="-400" font-family="Monaco" font-size="10.00">y</text>
<text text-anchor="start" x="53" y="-385" font-family="Monaco" font-size="10.00">+</text>
<text text-anchor="start" x="71" y="-385" font-family="Monaco" font-size="10.00">z</text>
<text text-anchor="start" x="53" y="-370" font-family="Monaco" font-size="10.00">+</text>
<text text-anchor="start" x="71" y="-370" font-family="Monaco" font-size="10.00">m</text>
<text text-anchor="start" x="67.5" y="-355" font-family="Monaco" font-size="10.00"> </text>
<polygon fill="#666666" stroke="#666666" points="44,-425 44,-425 95,-425 95,-425 44,-425"/>
<polygon fill="#666666" stroke="#666666" points="44,-365 44,-365 69,-365 69,-365 44,-365"/>
<polygon fill="#666666" stroke="#666666" points="69,-365 69,-365 95,-365 95,-365 69,-365"/>
<polygon fill="none" stroke="#666666" points="43.5,-348 43.5,-442 94.5,-442 94.5,-348 43.5,-348"/>
</a>
</g>
</g>
<!-- Node4&#45;&gt;Node3 -->
<g id="edge3_Node000003_Node000004" class="edge">
<title>Node4&#45;&gt;Node3</title>
<g id="a_edge3_Node000003_Node000004"><a xlink:title=" ">
<path fill="none" stroke="#63b8ff" d="M69,-347.96C69,-336.44 69,-324.25 69,-313.31"/>
<polygon fill="none" stroke="#63b8ff" points="69,-313.15 65,-307.15 69,-301.15 73,-307.15 69,-313.15"/>
</a>
</g>
<text text-anchor="middle" x="90" y="-322" font-family="Monaco" font-size="10.00" fill="grey"> +points</text>
</g>
</g>
</svg>
</svg>

<style type='text/css'>
<![CDATA[
[data-mouse-over-selected='false'] { opacity: 0.7; }
[data-mouse-over-selected='true']  { opacity: 1.0; }
]]>
</style>
<script type="application/ecmascript"><![CDATA[
document.addEventListener('DOMContentLoaded', (event) => {
  highlightEdges();
  highlightAdjacentNodes();
});
]]></script>
</svg>
