<?xml version="1.0" encoding="UTF-8" standalone="no"?>
<!DOCTYPE svg PUBLIC "-//W3C//DTD SVG 1.1//EN"
 "http://www.w3.org/Graphics/SVG/1.1/DTD/svg11.dtd">
<!-- Generated by graphviz version 2.43.0 (0)
 -->
<!-- Title: WKBPolyhedralSurfaceZM Pages: 1 -->
<svg width="152pt" height="458pt"
 viewBox="0.00 0.00 152.00 458.00" xmlns="http://www.w3.org/2000/svg" xmlns:xlink="http://www.w3.org/1999/xlink">
<g id="graph0" class="graph" transform="scale(1 1) rotate(0) translate(4 454)">
<title>WKBPolyhedralSurfaceZM</title>
<!-- Node1 -->
<g id="node1" class="node">
<title>Node1</title>
<g id="a_node1"><a xlink:title="The WKBPolyhedralSurfaceZM struct.">
<polygon fill="#bfbfbf" stroke="black" points="0,-0.5 0,-79.5 144,-79.5 144,-0.5 0,-0.5"/>
<text text-anchor="middle" x="72" y="-67.5" font-family="Monaco" font-size="10.00">WKBPolyhedralSurfaceZM</text>
<polyline fill="none" stroke="black" points="0,-60.5 144,-60.5 "/>
<text text-anchor="start" x="8" y="-48.5" font-family="Monaco" font-size="10.00">+ byteOrder</text>
<text text-anchor="start" x="8" y="-37.5" font-family="Monaco" font-size="10.00">+ numPolygons</text>
<text text-anchor="start" x="8" y="-26.5" font-family="Monaco" font-size="10.00">+ wkbType</text>
<polyline fill="none" stroke="black" points="0,-19.5 144,-19.5 "/>
<text text-anchor="middle" x="72" y="-7.5" font-family="Monaco" font-size="10.00"> </text>
</a>
</g>
</g>
<!-- Node2 -->
<g id="node2" class="node">
<title>Node2</title>
<g id="a_node2"><a xlink:href="../../d0/dac/struct_w_k_b_polygon_z_m.html" target="_top" xlink:title="The WKBPolygonZM struct.">
<polygon fill="none" stroke="black" points="24.5,-127.5 24.5,-206.5 119.5,-206.5 119.5,-127.5 24.5,-127.5"/>
<text text-anchor="middle" x="72" y="-194.5" font-family="Monaco" font-size="10.00">WKBPolygonZM</text>
<polyline fill="none" stroke="black" points="24.5,-187.5 119.5,-187.5 "/>
<text text-anchor="start" x="32.5" y="-175.5" font-family="Monaco" font-size="10.00">+ byteOrder</text>
<text text-anchor="start" x="32.5" y="-164.5" font-family="Monaco" font-size="10.00">+ numRings</text>
<text text-anchor="start" x="32.5" y="-153.5" font-family="Monaco" font-size="10.00">+ wkbType</text>
<polyline fill="none" stroke="black" points="24.5,-146.5 119.5,-146.5 "/>
<text text-anchor="middle" x="72" y="-134.5" font-family="Monaco" font-size="10.00"> </text>
</a>
</g>
</g>
<!-- Node2&#45;&gt;Node1 -->
<g id="edge1" class="edge">
<title>Node2&#45;&gt;Node1</title>
<path fill="none" stroke="#404040" d="M72,-127.48C72,-116.19 72,-103.67 72,-91.75"/>
<polygon fill="none" stroke="#404040" points="72,-91.61 68,-85.61 72,-79.61 76,-85.61 72,-91.61"/>
<text text-anchor="middle" x="100" y="-101" font-family="Monaco" font-size="10.00"> +polygons</text>
</g>
<!-- Node3 -->
<g id="node3" class="node">
<title>Node3</title>
<g id="a_node3"><a xlink:href="../../dc/dd2/struct_linear_ring_z_m.html" target="_top" xlink:title="The LinearRingZM struct.">
<polygon fill="none" stroke="black" points="30,-254.5 30,-311.5 114,-311.5 114,-254.5 30,-254.5"/>
<text text-anchor="middle" x="72" y="-299.5" font-family="Monaco" font-size="10.00">LinearRingZM</text>
<polyline fill="none" stroke="black" points="30,-292.5 114,-292.5 "/>
<text text-anchor="start" x="38" y="-280.5" font-family="Monaco" font-size="10.00">+ numPoints</text>
<polyline fill="none" stroke="black" points="30,-273.5 114,-273.5 "/>
<text text-anchor="middle" x="72" y="-261.5" font-family="Monaco" font-size="10.00"> </text>
</a>
</g>
</g>
<!-- Node3&#45;&gt;Node2 -->
<g id="edge2" class="edge">
<title>Node3&#45;&gt;Node2</title>
<path fill="none" stroke="#404040" d="M72,-254.4C72,-243.63 72,-230.93 72,-218.62"/>
<polygon fill="none" stroke="#404040" points="72,-218.54 68,-212.54 72,-206.54 76,-212.54 72,-218.54"/>
<text text-anchor="middle" x="90" y="-228" font-family="Monaco" font-size="10.00"> +rings</text>
</g>
<!-- Node4 -->
<g id="node4" class="node">
<title>Node4</title>
<g id="a_node4"><a xlink:href="../../d7/ded/struct_point_z_m.html" target="_top" xlink:title="The PointZM struct.">
<polygon fill="none" stroke="black" points="43.5,-359.5 43.5,-449.5 100.5,-449.5 100.5,-359.5 43.5,-359.5"/>
<text text-anchor="middle" x="72" y="-437.5" font-family="Monaco" font-size="10.00">PointZM</text>
<polyline fill="none" stroke="black" points="43.5,-430.5 100.5,-430.5 "/>
<text text-anchor="start" x="51.5" y="-418.5" font-family="Monaco" font-size="10.00">+ x</text>
<text text-anchor="start" x="51.5" y="-407.5" font-family="Monaco" font-size="10.00">+ y</text>
<text text-anchor="start" x="51.5" y="-396.5" font-family="Monaco" font-size="10.00">+ z</text>
<text text-anchor="start" x="51.5" y="-385.5" font-family="Monaco" font-size="10.00">+ m</text>
<polyline fill="none" stroke="black" points="43.5,-378.5 100.5,-378.5 "/>
<text text-anchor="middle" x="72" y="-366.5" font-family="Monaco" font-size="10.00"> </text>
</a>
</g>
</g>
<!-- Node4&#45;&gt;Node3 -->
<g id="edge3" class="edge">
<title>Node4&#45;&gt;Node3</title>
<path fill="none" stroke="#404040" d="M72,-359.34C72,-347.75 72,-335.31 72,-323.95"/>
<polygon fill="none" stroke="#404040" points="72,-323.69 68,-317.69 72,-311.69 76,-317.69 72,-323.69"/>
<text text-anchor="middle" x="93" y="-333" font-family="Monaco" font-size="10.00"> +points</text>
</g>
</g>
</svg>
