<?xml version="1.0" encoding="UTF-8" standalone="no"?>
<!DOCTYPE svg PUBLIC "-//W3C//DTD SVG 1.1//EN"
 "http://www.w3.org/Graphics/SVG/1.1/DTD/svg11.dtd">
<!-- Generated by graphviz version 2.43.0 (0)
 -->
<!-- Title: HydroCouple::IValueDefinition Pages: 1 -->
<svg width="270pt" height="618pt"
 viewBox="0.00 0.00 269.50 618.00" xmlns="http://www.w3.org/2000/svg" xmlns:xlink="http://www.w3.org/1999/xlink">
<g id="graph0" class="graph" transform="scale(1 1) rotate(0) translate(4 614)">
<title>HydroCouple::IValueDefinition</title>
<!-- Node1 -->
<g id="Node000001" class="node">
<title>Node1</title>
<g id="a_Node000001"><a xlink:title="IValueDefinition describes a value returned by the getValues() function of IValueSet.">
<polygon fill="#999999" stroke="transparent" points="207.5,-224 50.5,-224 50.5,-130 207.5,-130 207.5,-224"/>
<text text-anchor="start" x="56" y="-212" font-family="Monaco" font-size="10.00">HydroCouple::IValueDefinition</text>
<text text-anchor="start" x="127.5" y="-197" font-family="Monaco" font-size="10.00"> </text>
<text text-anchor="start" x="65.5" y="-182" font-family="Monaco" font-size="10.00">+</text>
<text text-anchor="start" x="89" y="-182" font-family="Monaco" font-size="10.00">~IValueDefinition()</text>
<text text-anchor="start" x="65.5" y="-167" font-family="Monaco" font-size="10.00">+</text>
<text text-anchor="start" x="89" y="-167" font-family="Monaco" font-size="10.00">type()</text>
<text text-anchor="start" x="65.5" y="-152" font-family="Monaco" font-size="10.00">+</text>
<text text-anchor="start" x="89" y="-152" font-family="Monaco" font-size="10.00">missingValue()</text>
<text text-anchor="start" x="65.5" y="-137" font-family="Monaco" font-size="10.00">+</text>
<text text-anchor="start" x="89" y="-137" font-family="Monaco" font-size="10.00">defaultValue()</text>
<polygon fill="#666666" stroke="#666666" points="51,-207 51,-207 208,-207 208,-207 51,-207"/>
<polygon fill="#666666" stroke="#666666" points="51,-192 51,-192 208,-192 208,-192 51,-192"/>
<polygon fill="none" stroke="#666666" points="50.5,-130 50.5,-224 207.5,-224 207.5,-130 50.5,-130"/>
</a>
</g>
</g>
<!-- Node5 -->
<g id="Node000005" class="node">
<title>Node5</title>
<g id="a_Node000005"><a xlink:href="../../d1/ddd/class_hydro_couple_1_1_i_quality.html" target="_top" xlink:title="Qualitative data described items in terms of some quality or categorization that may be &#39;informal&#39; or...">
<polygon fill="white" stroke="transparent" points="118,-86.5 0,-86.5 0,-7.5 118,-7.5 118,-86.5"/>
<text text-anchor="start" x="5" y="-74" font-family="Monaco" font-size="10.00">HydroCouple::IQuality</text>
<text text-anchor="start" x="57" y="-59" font-family="Monaco" font-size="10.00"> </text>
<text text-anchor="start" x="13.5" y="-44" font-family="Monaco" font-size="10.00">+</text>
<text text-anchor="start" x="36" y="-44" font-family="Monaco" font-size="10.00">~IQuality()</text>
<text text-anchor="start" x="13.5" y="-29" font-family="Monaco" font-size="10.00">+</text>
<text text-anchor="start" x="36" y="-29" font-family="Monaco" font-size="10.00">categories()</text>
<text text-anchor="start" x="13.5" y="-14" font-family="Monaco" font-size="10.00">+</text>
<text text-anchor="start" x="36" y="-14" font-family="Monaco" font-size="10.00">isOrdered()</text>
<polygon fill="#666666" stroke="#666666" points="0,-69 0,-69 118,-69 118,-69 0,-69"/>
<polygon fill="#666666" stroke="#666666" points="0,-54 0,-54 118,-54 118,-54 0,-54"/>
<polygon fill="none" stroke="#666666" points="0,-7.5 0,-86.5 118,-86.5 118,-7.5 0,-7.5"/>
</a>
</g>
</g>
<!-- Node1&#45;&gt;Node5 -->
<g id="edge4_Node000001_Node000005" class="edge">
<title>Node1&#45;&gt;Node5</title>
<g id="a_edge4_Node000001_Node000005"><a xlink:title=" ">
<path fill="none" stroke="#63b8ff" d="M98.75,-120.68C92.46,-109.18 85.96,-97.3 80.09,-86.56"/>
<polygon fill="none" stroke="#63b8ff" points="95.86,-122.69 103.73,-129.79 102,-119.34 95.86,-122.69"/>
</a>
</g>
</g>
<!-- Node6 -->
<g id="Node000006" class="node">
<title>Node6</title>
<g id="a_Node000006"><a xlink:href="../../dc/d3b/class_hydro_couple_1_1_i_quantity.html" target="_top" xlink:title="IQuantity specifies values as an amount of some unit, usually as a floating point number.">
<polygon fill="white" stroke="transparent" points="261.5,-94 136.5,-94 136.5,0 261.5,0 261.5,-94"/>
<text text-anchor="start" x="142" y="-82" font-family="Monaco" font-size="10.00">HydroCouple::IQuantity</text>
<text text-anchor="start" x="197.5" y="-67" font-family="Monaco" font-size="10.00"> </text>
<text text-anchor="start" x="151.5" y="-52" font-family="Monaco" font-size="10.00">+</text>
<text text-anchor="start" x="175" y="-52" font-family="Monaco" font-size="10.00">~IQuantity()</text>
<text text-anchor="start" x="151.5" y="-37" font-family="Monaco" font-size="10.00">+</text>
<text text-anchor="start" x="175" y="-37" font-family="Monaco" font-size="10.00">unit()</text>
<text text-anchor="start" x="151.5" y="-22" font-family="Monaco" font-size="10.00">+</text>
<text text-anchor="start" x="175" y="-22" font-family="Monaco" font-size="10.00">minValue()</text>
<text text-anchor="start" x="151.5" y="-7" font-family="Monaco" font-size="10.00">+</text>
<text text-anchor="start" x="175" y="-7" font-family="Monaco" font-size="10.00">maxValue()</text>
<polygon fill="#666666" stroke="#666666" points="137,-77 137,-77 262,-77 262,-77 137,-77"/>
<polygon fill="#666666" stroke="#666666" points="137,-62 137,-62 262,-62 262,-62 137,-62"/>
<polygon fill="none" stroke="#666666" points="136.5,0 136.5,-94 261.5,-94 261.5,0 136.5,0"/>
</a>
</g>
</g>
<!-- Node1&#45;&gt;Node6 -->
<g id="edge5_Node000001_Node000006" class="edge">
<title>Node1&#45;&gt;Node6</title>
<g id="a_edge5_Node000001_Node000006"><a xlink:title=" ">
<path fill="none" stroke="#63b8ff" d="M159.1,-120.96C163.99,-112.02 169.01,-102.84 173.77,-94.14"/>
<polygon fill="none" stroke="#63b8ff" points="156,-119.34 154.27,-129.79 162.14,-122.69 156,-119.34"/>
</a>
</g>
</g>
<!-- Node2 -->
<g id="Node000002" class="node">
<title>Node2</title>
<g id="a_Node000002"><a xlink:href="../../db/d64/class_hydro_couple_1_1_i_description.html" target="_top" xlink:title="IDescription interface class provides descriptive information on a HydroCouple object.">
<polygon fill="white" stroke="transparent" points="198,-369 60,-369 60,-260 198,-260 198,-369"/>
<text text-anchor="start" x="65" y="-356.5" font-family="Monaco" font-size="10.00">HydroCouple::IDescription</text>
<text text-anchor="start" x="127" y="-341.5" font-family="Monaco" font-size="10.00"> </text>
<text text-anchor="start" x="73.5" y="-326.5" font-family="Monaco" font-size="10.00">+</text>
<text text-anchor="start" x="96" y="-326.5" font-family="Monaco" font-size="10.00">~IDescription()</text>
<text text-anchor="start" x="73.5" y="-311.5" font-family="Monaco" font-size="10.00">+</text>
<text text-anchor="start" x="96" y="-311.5" font-family="Monaco" font-size="10.00">caption()</text>
<text text-anchor="start" x="73.5" y="-296.5" font-family="Monaco" font-size="10.00">+</text>
<text text-anchor="start" x="96" y="-296.5" font-family="Monaco" font-size="10.00">setCaption()</text>
<text text-anchor="start" x="73.5" y="-281.5" font-family="Monaco" font-size="10.00">+</text>
<text text-anchor="start" x="96" y="-281.5" font-family="Monaco" font-size="10.00">description()</text>
<text text-anchor="start" x="73.5" y="-266.5" font-family="Monaco" font-size="10.00">+</text>
<text text-anchor="start" x="96" y="-266.5" font-family="Monaco" font-size="10.00">setDescription()</text>
<polygon fill="#666666" stroke="#666666" points="60,-351.5 60,-351.5 198,-351.5 198,-351.5 60,-351.5"/>
<polygon fill="#666666" stroke="#666666" points="60,-336.5 60,-336.5 198,-336.5 198,-336.5 60,-336.5"/>
<polygon fill="none" stroke="#666666" points="60,-260 60,-369 198,-369 198,-260 60,-260"/>
</a>
</g>
</g>
<!-- Node2&#45;&gt;Node1 -->
<g id="edge1_Node000001_Node000002" class="edge">
<title>Node2&#45;&gt;Node1</title>
<g id="a_edge1_Node000001_Node000002"><a xlink:title=" ">
<path fill="none" stroke="#63b8ff" d="M129,-249.85C129,-241.19 129,-232.43 129,-224.16"/>
<polygon fill="none" stroke="#63b8ff" points="125.5,-249.95 129,-259.95 132.5,-249.95 125.5,-249.95"/>
</a>
</g>
</g>
<!-- Node3 -->
<g id="Node000003" class="node">
<title>Node3</title>
<g id="a_Node000003"><a xlink:href="../../dd/dbf/class_hydro_couple_1_1_i_property_changed.html" target="_top" xlink:title="IPropertyChanged interface is used to emit signal/event when a property of an object changes.">
<polygon fill="white" stroke="transparent" points="212.5,-454 45.5,-454 45.5,-405 212.5,-405 212.5,-454"/>
<text text-anchor="start" x="51" y="-441.5" font-family="Monaco" font-size="10.00">HydroCouple::IPropertyChanged</text>
<text text-anchor="start" x="127.5" y="-426.5" font-family="Monaco" font-size="10.00"> </text>
<text text-anchor="start" x="60.5" y="-411.5" font-family="Monaco" font-size="10.00">+</text>
<text text-anchor="start" x="84" y="-411.5" font-family="Monaco" font-size="10.00">~IPropertyChanged()</text>
<polygon fill="#666666" stroke="#666666" points="46,-436.5 46,-436.5 213,-436.5 213,-436.5 46,-436.5"/>
<polygon fill="#666666" stroke="#666666" points="46,-421.5 46,-421.5 213,-421.5 213,-421.5 46,-421.5"/>
<polygon fill="none" stroke="#666666" points="45.5,-405 45.5,-454 212.5,-454 212.5,-405 45.5,-405"/>
</a>
</g>
</g>
<!-- Node3&#45;&gt;Node2 -->
<g id="edge2_Node000002_Node000003" class="edge">
<title>Node3&#45;&gt;Node2</title>
<g id="a_edge2_Node000002_Node000003"><a xlink:title=" ">
<path fill="none" stroke="#63b8ff" d="M129,-394.79C129,-386.79 129,-378.06 129,-369.41"/>
<polygon fill="none" stroke="#63b8ff" points="125.5,-394.81 129,-404.81 132.5,-394.81 125.5,-394.81"/>
</a>
</g>
</g>
<!-- Node4 -->
<g id="Node000004" class="node">
<title>Node4</title>
<g id="a_Node000004"><a xlink:href="../../d5/d8b/class_hydro_couple_1_1_i_signal.html" target="_top" xlink:title=" ">
<polygon fill="white" stroke="transparent" points="185.5,-610 72.5,-610 72.5,-490 185.5,-490 185.5,-610"/>
<text text-anchor="start" x="78" y="-598" font-family="Monaco" font-size="10.00">HydroCouple::ISignal</text>
<text text-anchor="start" x="104" y="-587" font-family="Monaco" font-size="10.00">&lt; string &gt;</text>
<text text-anchor="start" x="127.5" y="-572" font-family="Monaco" font-size="10.00"> </text>
<text text-anchor="start" x="82.5" y="-557" font-family="Monaco" font-size="10.00">+</text>
<text text-anchor="start" x="101" y="-557" font-family="Monaco" font-size="10.00">~ISignal()</text>
<text text-anchor="start" x="82.5" y="-542" font-family="Monaco" font-size="10.00">+</text>
<text text-anchor="start" x="101" y="-542" font-family="Monaco" font-size="10.00">connect()</text>
<text text-anchor="start" x="82.5" y="-527" font-family="Monaco" font-size="10.00">+</text>
<text text-anchor="start" x="101" y="-527" font-family="Monaco" font-size="10.00">disconnect()</text>
<text text-anchor="start" x="82.5" y="-512" font-family="Monaco" font-size="10.00">+</text>
<text text-anchor="start" x="101" y="-512" font-family="Monaco" font-size="10.00">blockSignals()</text>
<text text-anchor="start" x="82.5" y="-497" font-family="Monaco" font-size="10.00">#</text>
<text text-anchor="start" x="101" y="-497" font-family="Monaco" font-size="10.00">emit()</text>
<polygon fill="#666666" stroke="#666666" points="73,-582 73,-582 186,-582 186,-582 73,-582"/>
<polygon fill="#666666" stroke="#666666" points="73,-567 73,-567 186,-567 186,-567 73,-567"/>
<polygon fill="none" stroke="#666666" points="72.5,-490 72.5,-610 185.5,-610 185.5,-490 72.5,-490"/>
</a>
</g>
</g>
<!-- Node4&#45;&gt;Node3 -->
<g id="edge3_Node000003_Node000004" class="edge">
<title>Node4&#45;&gt;Node3</title>
<g id="a_edge3_Node000003_Node000004"><a xlink:title=" ">
<path fill="none" stroke="#63b8ff" d="M129,-479.74C129,-470.6 129,-461.78 129,-454.2"/>
<polygon fill="none" stroke="#63b8ff" points="125.5,-479.75 129,-489.75 132.5,-479.75 125.5,-479.75"/>
</a>
</g>
</g>
</g>
</svg>
