<?xml version="1.0" encoding="UTF-8" standalone="no"?>
<!DOCTYPE svg PUBLIC "-//W3C//DTD SVG 1.1//EN"
 "http://www.w3.org/Graphics/SVG/1.1/DTD/svg11.dtd">
<!-- Generated by graphviz version 2.43.0 (0)
 -->
<!-- Title: HydroCouple::IValueDefinition Pages: 1 -->
<!--zoomable 491 -->
<svg id="main" version="1.1" xmlns="http://www.w3.org/2000/svg" xmlns:xlink="http://www.w3.org/1999/xlink" xml:space="preserve" onload="init(evt)">
<style type="text/css"><![CDATA[
.edge:hover path { stroke: red; }
.edge:hover polygon { stroke: red; fill: red; }
]]></style>
<script type="text/javascript"><![CDATA[
var edges = document.getElementsByTagName('g');
if (edges && edges.length) {
  for (var i=0;i<edges.length;i++) {
    if (edges[i].id.substr(0,4)=='edge') {
      edges[i].setAttribute('class','edge');
    }
  }
}
]]></script>
        <defs>
                <circle id="rim" cx="0" cy="0" r="7"/>
                <circle id="rim2" cx="0" cy="0" r="3.5"/>
                <g id="zoomPlus">
                        <use xlink:href="#rim" fill="#404040">
                                <set attributeName="fill" to="#808080" begin="zoomplus.mouseover" end="zoomplus.mouseout"/>
                        </use>
                        <path d="M-4,0h8M0,-4v8" fill="none" stroke="white" stroke-width="1.5" pointer-events="none"/>
                </g>
                <g id="zoomMin">
                        <use xlink:href="#rim" fill="#404040">
                                <set attributeName="fill" to="#808080" begin="zoomminus.mouseover" end="zoomminus.mouseout"/>
                        </use>
                        <path d="M-4,0h8" fill="none" stroke="white" stroke-width="1.5" pointer-events="none"/>
                </g>
                <g id="dirArrow">
                        <path fill="none" stroke="white" stroke-width="1.5" d="M0,-3.0v7 M-2.5,-0.5L0,-3.0L2.5,-0.5"/>
                </g>
               <g id="resetDef">
                       <use xlink:href="#rim2" fill="#404040">
                               <set attributeName="fill" to="#808080" begin="reset.mouseover" end="reset.mouseout"/>
                       </use>
               </g>
        </defs>

<script type="text/javascript">
var viewWidth = 282;
var viewHeight = 491;
var sectionId = 'dynsection-0';
</script>
<script xlink:href="../../svgpan.js"/>
<svg id="graph" class="graph">
<g id="viewport">
<title>HydroCouple::IValueDefinition</title>
<!-- Node1 -->
<g id="node1" class="node">
<title>Node1</title>
<g id="a_node1"><a xlink:title="IValueDefinition describes a value returned by the getValues() function of IValueSet.">
<polygon fill="#bfbfbf" stroke="black" points="53.5,-127.5 53.5,-217.5 216.5,-217.5 216.5,-127.5 53.5,-127.5"/>
<text text-anchor="middle" x="135" y="-205.5" font-family="Monaco" font-size="10.00">HydroCouple::IValueDefinition</text>
<polyline fill="none" stroke="black" points="53.5,-198.5 216.5,-198.5 "/>
<text text-anchor="middle" x="135" y="-186.5" font-family="Monaco" font-size="10.00"> </text>
<polyline fill="none" stroke="black" points="53.5,-179.5 216.5,-179.5 "/>
<text text-anchor="start" x="61.5" y="-167.5" font-family="Monaco" font-size="10.00">+ ~IValueDefinition()</text>
<text text-anchor="start" x="61.5" y="-156.5" font-family="Monaco" font-size="10.00">+ type()</text>
<text text-anchor="start" x="61.5" y="-145.5" font-family="Monaco" font-size="10.00">+ missingValue()</text>
<text text-anchor="start" x="61.5" y="-134.5" font-family="Monaco" font-size="10.00">+ defaultValue()</text>
</a>
</g>
</g>
<!-- Node4 -->
<g id="node4" class="node">
<title>Node4</title>
<g id="a_node4"><a xlink:href="../../d1/ddd/class_hydro_couple_1_1_i_quality.html" target="_top" xlink:title="Qualitative data described items in terms of some quality or categorization that may be &#39;informal&#39; or...">
<polygon fill="none" stroke="black" points="0,-6 0,-85 124,-85 124,-6 0,-6"/>
<text text-anchor="middle" x="62" y="-73" font-family="Monaco" font-size="10.00">HydroCouple::IQuality</text>
<polyline fill="none" stroke="black" points="0,-66 124,-66 "/>
<text text-anchor="middle" x="62" y="-54" font-family="Monaco" font-size="10.00"> </text>
<polyline fill="none" stroke="black" points="0,-47 124,-47 "/>
<text text-anchor="start" x="8" y="-35" font-family="Monaco" font-size="10.00">+ ~IQuality()</text>
<text text-anchor="start" x="8" y="-24" font-family="Monaco" font-size="10.00">+ categories()</text>
<text text-anchor="start" x="8" y="-13" font-family="Monaco" font-size="10.00">+ isOrdered()</text>
</a>
</g>
</g>
<!-- Node1&#45;&gt;Node4 -->
<g id="edge3" class="edge">
<title>Node1&#45;&gt;Node4</title>
<path fill="none" stroke="midnightblue" d="M104.09,-118.56C97.54,-107.36 90.76,-95.74 84.59,-85.19"/>
<polygon fill="none" stroke="midnightblue" points="101.2,-120.56 109.26,-127.43 107.24,-117.03 101.2,-120.56"/>
</g>
<!-- Node5 -->
<g id="node5" class="node">
<title>Node5</title>
<g id="a_node5"><a xlink:href="../../dc/d3b/class_hydro_couple_1_1_i_quantity.html" target="_top" xlink:title="IQuantity specifies values as an amount of some unit, usually as a floating point number.">
<polygon fill="none" stroke="black" points="142.5,-0.5 142.5,-90.5 273.5,-90.5 273.5,-0.5 142.5,-0.5"/>
<text text-anchor="middle" x="208" y="-78.5" font-family="Monaco" font-size="10.00">HydroCouple::IQuantity</text>
<polyline fill="none" stroke="black" points="142.5,-71.5 273.5,-71.5 "/>
<text text-anchor="middle" x="208" y="-59.5" font-family="Monaco" font-size="10.00"> </text>
<polyline fill="none" stroke="black" points="142.5,-52.5 273.5,-52.5 "/>
<text text-anchor="start" x="150.5" y="-40.5" font-family="Monaco" font-size="10.00">+ ~IQuantity()</text>
<text text-anchor="start" x="150.5" y="-29.5" font-family="Monaco" font-size="10.00">+ unit()</text>
<text text-anchor="start" x="150.5" y="-18.5" font-family="Monaco" font-size="10.00">+ minValue()</text>
<text text-anchor="start" x="150.5" y="-7.5" font-family="Monaco" font-size="10.00">+ maxValue()</text>
</a>
</g>
</g>
<!-- Node1&#45;&gt;Node5 -->
<g id="edge4" class="edge">
<title>Node1&#45;&gt;Node5</title>
<path fill="none" stroke="midnightblue" d="M165.89,-118.6C171.34,-109.27 176.96,-99.65 182.25,-90.59"/>
<polygon fill="none" stroke="midnightblue" points="162.76,-117.03 160.74,-127.43 168.8,-120.56 162.76,-117.03"/>
</g>
<!-- Node2 -->
<g id="node2" class="node">
<title>Node2</title>
<g id="a_node2"><a xlink:href="../../db/d64/class_hydro_couple_1_1_i_description.html" target="_top" xlink:title="IDescription interface class provides descriptive information on a HydroCouple object.">
<polygon fill="none" stroke="black" points="63,-254.5 63,-355.5 207,-355.5 207,-254.5 63,-254.5"/>
<text text-anchor="middle" x="135" y="-343.5" font-family="Monaco" font-size="10.00">HydroCouple::IDescription</text>
<polyline fill="none" stroke="black" points="63,-336.5 207,-336.5 "/>
<text text-anchor="middle" x="135" y="-324.5" font-family="Monaco" font-size="10.00"> </text>
<polyline fill="none" stroke="black" points="63,-317.5 207,-317.5 "/>
<text text-anchor="start" x="71" y="-305.5" font-family="Monaco" font-size="10.00">+ ~IDescription()</text>
<text text-anchor="start" x="71" y="-294.5" font-family="Monaco" font-size="10.00">+ caption()</text>
<text text-anchor="start" x="71" y="-283.5" font-family="Monaco" font-size="10.00">+ setCaption()</text>
<text text-anchor="start" x="71" y="-272.5" font-family="Monaco" font-size="10.00">+ description()</text>
<text text-anchor="start" x="71" y="-261.5" font-family="Monaco" font-size="10.00">+ setDescription()</text>
</a>
</g>
</g>
<!-- Node2&#45;&gt;Node1 -->
<g id="edge1" class="edge">
<title>Node2&#45;&gt;Node1</title>
<path fill="none" stroke="midnightblue" d="M135,-244.23C135,-235.24 135,-226.1 135,-217.52"/>
<polygon fill="none" stroke="midnightblue" points="131.5,-244.29 135,-254.29 138.5,-244.29 131.5,-244.29"/>
</g>
<!-- Node3 -->
<g id="node3" class="node">
<title>Node3</title>
<g id="a_node3"><a xlink:href="../../dd/dbf/class_hydro_couple_1_1_i_property_changed.html" target="_top" xlink:title="IPropertyChanged interface is used to emit signal/event when a property of an object changes.">
<polygon fill="none" stroke="black" points="37,-392.5 37,-482.5 233,-482.5 233,-392.5 37,-392.5"/>
<text text-anchor="middle" x="135" y="-470.5" font-family="Monaco" font-size="10.00">HydroCouple::IPropertyChanged</text>
<polyline fill="none" stroke="black" points="37,-463.5 233,-463.5 "/>
<text text-anchor="middle" x="135" y="-451.5" font-family="Monaco" font-size="10.00"> </text>
<polyline fill="none" stroke="black" points="37,-444.5 233,-444.5 "/>
<text text-anchor="start" x="45" y="-432.5" font-family="Monaco" font-size="10.00">+ ~IPropertyChanged()</text>
<text text-anchor="start" x="45" y="-421.5" font-family="Monaco" font-size="10.00">+ registerPropertyChangedListener()</text>
<text text-anchor="start" x="45" y="-410.5" font-family="Monaco" font-size="10.00">+ deRegisterPropertyChanged</text>
<text text-anchor="start" x="45" y="-399.5" font-family="Monaco" font-size="10.00">Listener()</text>
</a>
</g>
</g>
<!-- Node3&#45;&gt;Node2 -->
<g id="edge2" class="edge">
<title>Node3&#45;&gt;Node2</title>
<path fill="none" stroke="midnightblue" d="M135,-382.13C135,-373.31 135,-364.22 135,-355.52"/>
<polygon fill="none" stroke="midnightblue" points="131.5,-382.32 135,-392.32 138.5,-382.32 131.5,-382.32"/>
</g>
</g>
</svg>
        <g id="navigator" transform="translate(0 0)" fill="#404254">
                <rect fill="#f2f5e9" fill-opacity="0.5" stroke="#606060" stroke-width=".5" x="0" y="0" width="60" height="60"/>
                <use id="zoomplus" xlink:href="#zoomPlus" x="17" y="9" onmousedown="handleZoom(evt,'in')"/>
                <use id="zoomminus" xlink:href="#zoomMin" x="42" y="9" onmousedown="handleZoom(evt,'out')"/>
                <use id="reset" xlink:href="#resetDef" x="30" y="36" onmousedown="handleReset()"/>
                <g id="arrowUp" xlink:href="#dirArrow" transform="translate(30 24)" onmousedown="handlePan(0,-1)">
                  <use xlink:href="#rim" fill="#404040">
                        <set attributeName="fill" to="#808080" begin="arrowUp.mouseover" end="arrowUp.mouseout"/>
                  </use>
                  <path fill="none" stroke="white" stroke-width="1.5" d="M0,-3.0v7 M-2.5,-0.5L0,-3.0L2.5,-0.5"/>
                </g>
                <g id="arrowRight" xlink:href="#dirArrow" transform="rotate(90) translate(36 -43)" onmousedown="handlePan(1,0)">
                  <use xlink:href="#rim" fill="#404040">
                        <set attributeName="fill" to="#808080" begin="arrowRight.mouseover" end="arrowRight.mouseout"/>
                  </use>
                  <path fill="none" stroke="white" stroke-width="1.5" d="M0,-3.0v7 M-2.5,-0.5L0,-3.0L2.5,-0.5"/>
                </g>
                <g id="arrowDown" xlink:href="#dirArrow" transform="rotate(180) translate(-30 -48)" onmousedown="handlePan(0,1)">
                  <use xlink:href="#rim" fill="#404040">
                        <set attributeName="fill" to="#808080" begin="arrowDown.mouseover" end="arrowDown.mouseout"/>
                  </use>
                  <path fill="none" stroke="white" stroke-width="1.5" d="M0,-3.0v7 M-2.5,-0.5L0,-3.0L2.5,-0.5"/>
                </g>
                <g id="arrowLeft" xlink:href="#dirArrow" transform="rotate(270) translate(-36 17)" onmousedown="handlePan(-1,0)">
                  <use xlink:href="#rim" fill="#404040">
                        <set attributeName="fill" to="#808080" begin="arrowLeft.mouseover" end="arrowLeft.mouseout"/>
                  </use>
                  <path fill="none" stroke="white" stroke-width="1.5" d="M0,-3.0v7 M-2.5,-0.5L0,-3.0L2.5,-0.5"/>
                </g>
        </g>
        <svg viewBox="0 0 15 15" width="100%" height="30px" preserveAspectRatio="xMaxYMin meet">
         <g id="arrow_out" transform="scale(0.3 0.3)">
          <a xlink:href="class_hydro_couple_1_1_i_value_definition__inherit__graph_org.svg" target="_base">
           <rect id="button" ry="5" rx="5" y="6" x="6" height="38" width="38"
                fill="#f2f5e9" fill-opacity="0.5" stroke="#606060" stroke-width="1.0"/>
           <path id="arrow"
             d="M 11.500037,31.436501 C 11.940474,20.09759 22.043105,11.32322 32.158766,21.979434 L 37.068811,17.246167 C 37.068811,17.246167 37.088388,32 37.088388,32 L 22.160133,31.978069 C 22.160133,31.978069 26.997745,27.140456 26.997745,27.140456 C 18.528582,18.264221 13.291696,25.230495 11.500037,31.436501 z"
             style="fill:#404040;"/>
          </a>
         </g>
        </svg>
</svg>
