<?xml version="1.0" encoding="UTF-8" standalone="no"?>
<!DOCTYPE svg PUBLIC "-//W3C//DTD SVG 1.1//EN"
 "http://www.w3.org/Graphics/SVG/1.1/DTD/svg11.dtd">
<!-- Generated by graphviz version 2.43.0 (0)
 -->
<!-- Title: HydroCouple::Spatial::ITINComponentDataItem Pages: 1 -->
<svg width="258pt" height="866pt"
 viewBox="0.00 0.00 258.00 866.00" xmlns="http://www.w3.org/2000/svg" xmlns:xlink="http://www.w3.org/1999/xlink">
<g id="graph0" class="graph" transform="scale(1 1) rotate(0) translate(4 862)">
<title>HydroCouple::Spatial::ITINComponentDataItem</title>
<!-- Node1 -->
<g id="node1" class="node">
<title>Node1</title>
<g id="a_node1"><a xlink:title="ITINComponentDataItem represents ITIN IComponentDataItem.">
<polygon fill="#bfbfbf" stroke="black" points="15.5,-0.5 15.5,-79.5 180.5,-79.5 180.5,-0.5 15.5,-0.5"/>
<text text-anchor="start" x="23.5" y="-67.5" font-family="Monaco" font-size="10.00">HydroCouple::Spatial</text>
<text text-anchor="middle" x="98" y="-56.5" font-family="Monaco" font-size="10.00">::ITINComponentDataItem</text>
<polyline fill="none" stroke="black" points="15.5,-49.5 180.5,-49.5 "/>
<text text-anchor="middle" x="98" y="-37.5" font-family="Monaco" font-size="10.00"> </text>
<polyline fill="none" stroke="black" points="15.5,-30.5 180.5,-30.5 "/>
<text text-anchor="start" x="23.5" y="-18.5" font-family="Monaco" font-size="10.00">+ ~ITINComponentDataItem()</text>
<text text-anchor="start" x="23.5" y="-7.5" font-family="Monaco" font-size="10.00">+ TIN()</text>
</a>
</g>
</g>
<!-- Node2 -->
<g id="node2" class="node">
<title>Node2</title>
<g id="a_node2"><a xlink:href="../../d8/d52/class_hydro_couple_1_1_i_component_data_item.html" target="_top" xlink:title="IComponentItem is a fundamental unit of data for a component.">
<polygon fill="none" stroke="black" points="2.5,-320.5 2.5,-487.5 193.5,-487.5 193.5,-320.5 2.5,-320.5"/>
<text text-anchor="middle" x="98" y="-475.5" font-family="Monaco" font-size="10.00">HydroCouple::IComponentDataItem</text>
<polyline fill="none" stroke="black" points="2.5,-468.5 193.5,-468.5 "/>
<text text-anchor="middle" x="98" y="-456.5" font-family="Monaco" font-size="10.00"> </text>
<polyline fill="none" stroke="black" points="2.5,-449.5 193.5,-449.5 "/>
<text text-anchor="start" x="10.5" y="-437.5" font-family="Monaco" font-size="10.00">+ ~IComponentDataItem()</text>
<text text-anchor="start" x="10.5" y="-426.5" font-family="Monaco" font-size="10.00">+ modelComponent()</text>
<text text-anchor="start" x="10.5" y="-415.5" font-family="Monaco" font-size="10.00">+ dimensions()</text>
<text text-anchor="start" x="10.5" y="-404.5" font-family="Monaco" font-size="10.00">+ dimensionLength()</text>
<text text-anchor="start" x="10.5" y="-393.5" font-family="Monaco" font-size="10.00">+ valueDefinition()</text>
<text text-anchor="start" x="10.5" y="-382.5" font-family="Monaco" font-size="10.00">+ getValue()</text>
<text text-anchor="start" x="10.5" y="-371.5" font-family="Monaco" font-size="10.00">+ setValue()</text>
<text text-anchor="start" x="10.5" y="-360.5" font-family="Monaco" font-size="10.00">+ hasEditor()</text>
<text text-anchor="start" x="10.5" y="-349.5" font-family="Monaco" font-size="10.00">+ showEditor()</text>
<text text-anchor="start" x="10.5" y="-338.5" font-family="Monaco" font-size="10.00">+ hasViewer()</text>
<text text-anchor="start" x="10.5" y="-327.5" font-family="Monaco" font-size="10.00">+ showViewer()</text>
</a>
</g>
</g>
<!-- Node2&#45;&gt;Node1 -->
<g id="edge1" class="edge">
<title>Node2&#45;&gt;Node1</title>
<path fill="none" stroke="midnightblue" d="M62.91,-310.72C60.51,-301.79 58.47,-292.78 57,-284 44.67,-210.36 38.52,-188.34 57,-116 60.2,-103.49 65.95,-90.82 72.17,-79.55"/>
<polygon fill="none" stroke="midnightblue" points="59.54,-311.69 65.63,-320.37 66.28,-309.79 59.54,-311.69"/>
</g>
<!-- Node6 -->
<g id="node6" class="node">
<title>Node6</title>
<g id="a_node6"><a xlink:href="../../d0/da8/class_hydro_couple_1_1_spatial_1_1_i_polyhedral_surface_component_data_item.html" target="_top" xlink:title="IPolyhedralSurfaceComponentItem represents IPolyhedralSurface IComponentItem.">
<polygon fill="none" stroke="black" points="66,-116.5 66,-283.5 250,-283.5 250,-116.5 66,-116.5"/>
<text text-anchor="start" x="74" y="-271.5" font-family="Monaco" font-size="10.00">HydroCouple::Spatial</text>
<text text-anchor="start" x="74" y="-260.5" font-family="Monaco" font-size="10.00">::IPolyhedralSurfaceComponent</text>
<text text-anchor="middle" x="158" y="-249.5" font-family="Monaco" font-size="10.00">DataItem</text>
<polyline fill="none" stroke="black" points="66,-242.5 250,-242.5 "/>
<text text-anchor="middle" x="158" y="-230.5" font-family="Monaco" font-size="10.00"> </text>
<polyline fill="none" stroke="black" points="66,-223.5 250,-223.5 "/>
<text text-anchor="start" x="74" y="-211.5" font-family="Monaco" font-size="10.00">+ ~IPolyhedralSurfaceComponent</text>
<text text-anchor="start" x="74" y="-200.5" font-family="Monaco" font-size="10.00">DataItem()</text>
<text text-anchor="start" x="74" y="-189.5" font-family="Monaco" font-size="10.00">+ meshDataType()</text>
<text text-anchor="start" x="74" y="-178.5" font-family="Monaco" font-size="10.00">+ polyhedralSurface()</text>
<text text-anchor="start" x="74" y="-167.5" font-family="Monaco" font-size="10.00">+ cellDimension()</text>
<text text-anchor="start" x="74" y="-156.5" font-family="Monaco" font-size="10.00">+ edgeDimension()</text>
<text text-anchor="start" x="74" y="-145.5" font-family="Monaco" font-size="10.00">+ nodeDimension()</text>
<text text-anchor="start" x="74" y="-134.5" font-family="Monaco" font-size="10.00">+ getValue()</text>
<text text-anchor="start" x="74" y="-123.5" font-family="Monaco" font-size="10.00">+ setValue()</text>
</a>
</g>
</g>
<!-- Node2&#45;&gt;Node6 -->
<g id="edge6" class="edge">
<title>Node2&#45;&gt;Node6</title>
<path fill="none" stroke="midnightblue" d="M125.46,-310.56C128.13,-301.57 130.82,-292.49 133.46,-283.62"/>
<polygon fill="none" stroke="midnightblue" points="122.07,-309.67 122.58,-320.26 128.78,-311.67 122.07,-309.67"/>
</g>
<!-- Node3 -->
<g id="node3" class="node">
<title>Node3</title>
<g id="a_node3"><a xlink:href="../../d2/d2a/class_hydro_couple_1_1_i_identity.html" target="_top" xlink:title="IIdentity interface class defines a method to get the Id of an HydroCouple entity.">
<polygon fill="none" stroke="black" points="35,-524.5 35,-592.5 161,-592.5 161,-524.5 35,-524.5"/>
<text text-anchor="middle" x="98" y="-580.5" font-family="Monaco" font-size="10.00">HydroCouple::IIdentity</text>
<polyline fill="none" stroke="black" points="35,-573.5 161,-573.5 "/>
<text text-anchor="middle" x="98" y="-561.5" font-family="Monaco" font-size="10.00"> </text>
<polyline fill="none" stroke="black" points="35,-554.5 161,-554.5 "/>
<text text-anchor="start" x="43" y="-542.5" font-family="Monaco" font-size="10.00">+ ~IIdentity()</text>
<text text-anchor="start" x="43" y="-531.5" font-family="Monaco" font-size="10.00">+ id()</text>
</a>
</g>
</g>
<!-- Node3&#45;&gt;Node2 -->
<g id="edge2" class="edge">
<title>Node3&#45;&gt;Node2</title>
<path fill="none" stroke="midnightblue" d="M98,-514.23C98,-505.88 98,-496.89 98,-487.76"/>
<polygon fill="none" stroke="midnightblue" points="94.5,-514.41 98,-524.41 101.5,-514.41 94.5,-514.41"/>
</g>
<!-- Node4 -->
<g id="node4" class="node">
<title>Node4</title>
<g id="a_node4"><a xlink:href="../../db/d64/class_hydro_couple_1_1_i_description.html" target="_top" xlink:title="IDescription interface class provides descriptive information on a HydroCouple object.">
<polygon fill="none" stroke="black" points="26,-629.5 26,-730.5 170,-730.5 170,-629.5 26,-629.5"/>
<text text-anchor="middle" x="98" y="-718.5" font-family="Monaco" font-size="10.00">HydroCouple::IDescription</text>
<polyline fill="none" stroke="black" points="26,-711.5 170,-711.5 "/>
<text text-anchor="middle" x="98" y="-699.5" font-family="Monaco" font-size="10.00"> </text>
<polyline fill="none" stroke="black" points="26,-692.5 170,-692.5 "/>
<text text-anchor="start" x="34" y="-680.5" font-family="Monaco" font-size="10.00">+ ~IDescription()</text>
<text text-anchor="start" x="34" y="-669.5" font-family="Monaco" font-size="10.00">+ caption()</text>
<text text-anchor="start" x="34" y="-658.5" font-family="Monaco" font-size="10.00">+ setCaption()</text>
<text text-anchor="start" x="34" y="-647.5" font-family="Monaco" font-size="10.00">+ description()</text>
<text text-anchor="start" x="34" y="-636.5" font-family="Monaco" font-size="10.00">+ setDescription()</text>
</a>
</g>
</g>
<!-- Node4&#45;&gt;Node3 -->
<g id="edge3" class="edge">
<title>Node4&#45;&gt;Node3</title>
<path fill="none" stroke="midnightblue" d="M98,-619.17C98,-610.11 98,-601.05 98,-592.83"/>
<polygon fill="none" stroke="midnightblue" points="94.5,-619.36 98,-629.36 101.5,-619.36 94.5,-619.36"/>
</g>
<!-- Node5 -->
<g id="node5" class="node">
<title>Node5</title>
<g id="a_node5"><a xlink:href="../../dd/dbf/class_hydro_couple_1_1_i_property_changed.html" target="_top" xlink:title="IPropertyChanged interface is used to emit signal/event when a property of an object changes.">
<polygon fill="none" stroke="black" points="0,-767.5 0,-857.5 196,-857.5 196,-767.5 0,-767.5"/>
<text text-anchor="middle" x="98" y="-845.5" font-family="Monaco" font-size="10.00">HydroCouple::IPropertyChanged</text>
<polyline fill="none" stroke="black" points="0,-838.5 196,-838.5 "/>
<text text-anchor="middle" x="98" y="-826.5" font-family="Monaco" font-size="10.00"> </text>
<polyline fill="none" stroke="black" points="0,-819.5 196,-819.5 "/>
<text text-anchor="start" x="8" y="-807.5" font-family="Monaco" font-size="10.00">+ ~IPropertyChanged()</text>
<text text-anchor="start" x="8" y="-796.5" font-family="Monaco" font-size="10.00">+ registerPropertyChangedListener()</text>
<text text-anchor="start" x="8" y="-785.5" font-family="Monaco" font-size="10.00">+ deRegisterPropertyChanged</text>
<text text-anchor="start" x="8" y="-774.5" font-family="Monaco" font-size="10.00">Listener()</text>
</a>
</g>
</g>
<!-- Node5&#45;&gt;Node4 -->
<g id="edge4" class="edge">
<title>Node5&#45;&gt;Node4</title>
<path fill="none" stroke="midnightblue" d="M98,-757.13C98,-748.31 98,-739.22 98,-730.52"/>
<polygon fill="none" stroke="midnightblue" points="94.5,-757.32 98,-767.32 101.5,-757.32 94.5,-757.32"/>
</g>
<!-- Node6&#45;&gt;Node1 -->
<g id="edge5" class="edge">
<title>Node6&#45;&gt;Node1</title>
<path fill="none" stroke="midnightblue" d="M122.95,-106.71C119.34,-97.19 115.83,-87.94 112.63,-79.52"/>
<polygon fill="none" stroke="midnightblue" points="119.77,-108.19 126.59,-116.3 126.32,-105.71 119.77,-108.19"/>
</g>
</g>
</svg>
