<?xml version="1.0" encoding="UTF-8" standalone="no"?>
<!DOCTYPE svg PUBLIC "-//W3C//DTD SVG 1.1//EN"
 "http://www.w3.org/Graphics/SVG/1.1/DTD/svg11.dtd">
<!-- Generated by graphviz version 2.43.0 (0)
 -->
<!-- Title: HydroCouple::SpatioTemporal::ITimeGeometryComponentDataItem Pages: 1 -->
<svg width="471pt" height="1248pt"
 viewBox="0.00 0.00 471.00 1248.00" xmlns="http://www.w3.org/2000/svg" xmlns:xlink="http://www.w3.org/1999/xlink">
<g id="graph0" class="graph" transform="scale(1 1) rotate(0) translate(4 1244)">
<title>HydroCouple::SpatioTemporal::ITimeGeometryComponentDataItem</title>
<!-- Node1 -->
<g id="Node000001" class="node">
<title>Node1</title>
<g id="a_Node000001"><a xlink:title="ITimeGeometryComponentItem represents an IComponentItem with both temporal and geometric components.">
<polygon fill="#999999" stroke="transparent" points="364,-131 169,-131 169,0 364,0 364,-131"/>
<text text-anchor="start" x="174.5" y="-118.5" font-family="Monaco" font-size="10.00">HydroCouple::SpatioTemporal</text>
<text text-anchor="start" x="174.5" y="-107.5" font-family="Monaco" font-size="10.00">::ITimeGeometryComponentDataItem</text>
<text text-anchor="start" x="265" y="-92.5" font-family="Monaco" font-size="10.00"> </text>
<text text-anchor="start" x="175.5" y="-77.5" font-family="Monaco" font-size="10.00">+</text>
<text text-anchor="start" x="190.5" y="-77.5" font-family="Monaco" font-size="10.00">~ITimeGeometryComponentData</text>
<text text-anchor="start" x="190.5" y="-66.5" font-family="Monaco" font-size="10.00">Item()</text>
<text text-anchor="start" x="175.5" y="-51.5" font-family="Monaco" font-size="10.00">+</text>
<text text-anchor="start" x="190.5" y="-51.5" font-family="Monaco" font-size="10.00">getValue()</text>
<text text-anchor="start" x="175.5" y="-36.5" font-family="Monaco" font-size="10.00">+</text>
<text text-anchor="start" x="190.5" y="-36.5" font-family="Monaco" font-size="10.00">getValues()</text>
<text text-anchor="start" x="175.5" y="-21.5" font-family="Monaco" font-size="10.00">+</text>
<text text-anchor="start" x="190.5" y="-21.5" font-family="Monaco" font-size="10.00">setValue()</text>
<text text-anchor="start" x="175.5" y="-6.5" font-family="Monaco" font-size="10.00">+</text>
<text text-anchor="start" x="190.5" y="-6.5" font-family="Monaco" font-size="10.00">setValues()</text>
<polygon fill="#666666" stroke="#666666" points="169.5,-102.5 169.5,-102.5 364.5,-102.5 364.5,-102.5 169.5,-102.5"/>
<polygon fill="#666666" stroke="#666666" points="169.5,-87.5 169.5,-87.5 364.5,-87.5 364.5,-87.5 169.5,-87.5"/>
<polygon fill="none" stroke="#666666" points="169,0 169,-131 364,-131 364,0 169,0"/>
</a>
</g>
</g>
<!-- Node2 -->
<g id="Node000002" class="node">
<title>Node2</title>
<g id="a_Node000002"><a xlink:href="../../de/d0b/class_hydro_couple_1_1_temporal_1_1_i_time_series_component_data_item.html" target="_top" xlink:title="ITimeComponentItem is an IComponentItem with a temporal attribute. This class cannot be directly inst...">
<polygon fill="white" stroke="transparent" points="253.5,-410.5 77.5,-410.5 77.5,-178.5 253.5,-178.5 253.5,-410.5"/>
<text text-anchor="start" x="82.5" y="-398.5" font-family="Monaco" font-size="10.00">HydroCouple::Temporal</text>
<text text-anchor="start" x="82.5" y="-387.5" font-family="Monaco" font-size="10.00">::ITimeSeriesComponentDataItem</text>
<text text-anchor="start" x="163.5" y="-372.5" font-family="Monaco" font-size="10.00"> </text>
<text text-anchor="start" x="83.5" y="-357.5" font-family="Monaco" font-size="10.00">+</text>
<text text-anchor="start" x="98.5" y="-357.5" font-family="Monaco" font-size="10.00">~ITimeSeriesComponentData</text>
<text text-anchor="start" x="98.5" y="-346.5" font-family="Monaco" font-size="10.00">Item()</text>
<text text-anchor="start" x="83.5" y="-331.5" font-family="Monaco" font-size="10.00">+</text>
<text text-anchor="start" x="98.5" y="-331.5" font-family="Monaco" font-size="10.00">time()</text>
<text text-anchor="start" x="83.5" y="-316.5" font-family="Monaco" font-size="10.00">+</text>
<text text-anchor="start" x="98.5" y="-316.5" font-family="Monaco" font-size="10.00">timeCount()</text>
<text text-anchor="start" x="83.5" y="-301.5" font-family="Monaco" font-size="10.00">+</text>
<text text-anchor="start" x="98.5" y="-301.5" font-family="Monaco" font-size="10.00">timeSpan()</text>
<text text-anchor="start" x="83.5" y="-286.5" font-family="Monaco" font-size="10.00">+</text>
<text text-anchor="start" x="98.5" y="-286.5" font-family="Monaco" font-size="10.00">timeDimension()</text>
<text text-anchor="start" x="83.5" y="-271.5" font-family="Monaco" font-size="10.00">+</text>
<text text-anchor="start" x="98.5" y="-271.5" font-family="Monaco" font-size="10.00">getValue()</text>
<text text-anchor="start" x="83.5" y="-256.5" font-family="Monaco" font-size="10.00">+</text>
<text text-anchor="start" x="98.5" y="-256.5" font-family="Monaco" font-size="10.00">getValues()</text>
<text text-anchor="start" x="83.5" y="-241.5" font-family="Monaco" font-size="10.00">+</text>
<text text-anchor="start" x="98.5" y="-241.5" font-family="Monaco" font-size="10.00">setValue()</text>
<text text-anchor="start" x="83.5" y="-226.5" font-family="Monaco" font-size="10.00">+</text>
<text text-anchor="start" x="98.5" y="-226.5" font-family="Monaco" font-size="10.00">setValues()</text>
<text text-anchor="start" x="83.5" y="-211.5" font-family="Monaco" font-size="10.00">+</text>
<text text-anchor="start" x="98.5" y="-211.5" font-family="Monaco" font-size="10.00">~ITimeSeriesComponentData</text>
<text text-anchor="start" x="98.5" y="-200.5" font-family="Monaco" font-size="10.00">Item()</text>
<text text-anchor="start" x="98.5" y="-185.5" font-family="Monaco" font-size="10.00">and 12 more...</text>
<polygon fill="#666666" stroke="#666666" points="77.5,-382.5 77.5,-382.5 253.5,-382.5 253.5,-382.5 77.5,-382.5"/>
<polygon fill="#666666" stroke="#666666" points="77.5,-367.5 77.5,-367.5 253.5,-367.5 253.5,-367.5 77.5,-367.5"/>
<polygon fill="none" stroke="#666666" points="77.5,-178.5 77.5,-410.5 253.5,-410.5 253.5,-178.5 77.5,-178.5"/>
</a>
</g>
</g>
<!-- Node2&#45;&gt;Node1 -->
<g id="edge1_Node000001_Node000002" class="edge">
<title>Node2&#45;&gt;Node1</title>
<g id="a_edge1_Node000001_Node000002"><a xlink:title=" ">
<path fill="none" stroke="#63b8ff" d="M220.97,-168.84C226.76,-155.82 232.46,-143 237.77,-131.08"/>
<polygon fill="none" stroke="#63b8ff" points="217.61,-167.78 216.74,-178.34 224,-170.62 217.61,-167.78"/>
</a>
</g>
</g>
<!-- Node3 -->
<g id="Node000003" class="node">
<title>Node3</title>
<g id="a_Node000003"><a xlink:href="../../d8/d52/class_hydro_couple_1_1_i_component_data_item.html" target="_top" xlink:title="IComponentItem is a fundamental unit of data for a component.">
<polygon fill="white" stroke="transparent" points="258,-687 73,-687 73,-458 258,-458 258,-687"/>
<text text-anchor="start" x="78.5" y="-674.5" font-family="Monaco" font-size="10.00">HydroCouple::IComponentDataItem</text>
<text text-anchor="start" x="164" y="-659.5" font-family="Monaco" font-size="10.00"> </text>
<text text-anchor="start" x="88" y="-644.5" font-family="Monaco" font-size="10.00">+</text>
<text text-anchor="start" x="111.5" y="-644.5" font-family="Monaco" font-size="10.00">~IComponentDataItem()</text>
<text text-anchor="start" x="88" y="-629.5" font-family="Monaco" font-size="10.00">+</text>
<text text-anchor="start" x="111.5" y="-629.5" font-family="Monaco" font-size="10.00">modelComponent()</text>
<text text-anchor="start" x="88" y="-614.5" font-family="Monaco" font-size="10.00">+</text>
<text text-anchor="start" x="111.5" y="-614.5" font-family="Monaco" font-size="10.00">dimensions()</text>
<text text-anchor="start" x="88" y="-599.5" font-family="Monaco" font-size="10.00">+</text>
<text text-anchor="start" x="111.5" y="-599.5" font-family="Monaco" font-size="10.00">dimensionLength()</text>
<text text-anchor="start" x="88" y="-584.5" font-family="Monaco" font-size="10.00">+</text>
<text text-anchor="start" x="111.5" y="-584.5" font-family="Monaco" font-size="10.00">valueDefinition()</text>
<text text-anchor="start" x="88" y="-569.5" font-family="Monaco" font-size="10.00">+</text>
<text text-anchor="start" x="111.5" y="-569.5" font-family="Monaco" font-size="10.00">getValue()</text>
<text text-anchor="start" x="88" y="-554.5" font-family="Monaco" font-size="10.00">+</text>
<text text-anchor="start" x="111.5" y="-554.5" font-family="Monaco" font-size="10.00">getValues()</text>
<text text-anchor="start" x="88" y="-539.5" font-family="Monaco" font-size="10.00">+</text>
<text text-anchor="start" x="111.5" y="-539.5" font-family="Monaco" font-size="10.00">setValue()</text>
<text text-anchor="start" x="88" y="-524.5" font-family="Monaco" font-size="10.00">+</text>
<text text-anchor="start" x="111.5" y="-524.5" font-family="Monaco" font-size="10.00">setValues()</text>
<text text-anchor="start" x="88" y="-509.5" font-family="Monaco" font-size="10.00">+</text>
<text text-anchor="start" x="111.5" y="-509.5" font-family="Monaco" font-size="10.00">hasEditor()</text>
<text text-anchor="start" x="88" y="-494.5" font-family="Monaco" font-size="10.00">+</text>
<text text-anchor="start" x="111.5" y="-494.5" font-family="Monaco" font-size="10.00">showEditor()</text>
<text text-anchor="start" x="88" y="-479.5" font-family="Monaco" font-size="10.00">+</text>
<text text-anchor="start" x="111.5" y="-479.5" font-family="Monaco" font-size="10.00">hasViewer()</text>
<text text-anchor="start" x="88" y="-464.5" font-family="Monaco" font-size="10.00">+</text>
<text text-anchor="start" x="111.5" y="-464.5" font-family="Monaco" font-size="10.00">showViewer()</text>
<polygon fill="#666666" stroke="#666666" points="73.5,-669.5 73.5,-669.5 258.5,-669.5 258.5,-669.5 73.5,-669.5"/>
<polygon fill="#666666" stroke="#666666" points="73.5,-654.5 73.5,-654.5 258.5,-654.5 258.5,-654.5 73.5,-654.5"/>
<polygon fill="none" stroke="#666666" points="73,-458 73,-687 258,-687 258,-458 73,-458"/>
</a>
</g>
</g>
<!-- Node3&#45;&gt;Node2 -->
<g id="edge2_Node000002_Node000003" class="edge">
<title>Node3&#45;&gt;Node2</title>
<g id="a_edge2_Node000002_Node000003"><a xlink:title=" ">
<path fill="none" stroke="#63b8ff" d="M158.78,-447.46C158.73,-435.28 158.74,-422.96 158.83,-410.87"/>
<polygon fill="none" stroke="#63b8ff" points="155.28,-447.67 158.84,-457.65 162.28,-447.63 155.28,-447.67"/>
</a>
</g>
</g>
<!-- Node3&#45;&gt;Node2 -->
<g id="edge8_Node000002_Node000003" class="edge">
<title>Node3&#45;&gt;Node2</title>
<g id="a_edge8_Node000002_Node000003"><a xlink:title=" ">
<path fill="none" stroke="#63b8ff" d="M172.22,-447.46C172.27,-435.28 172.26,-422.96 172.17,-410.87"/>
<polygon fill="none" stroke="#63b8ff" points="168.72,-447.63 172.16,-457.65 175.72,-447.67 168.72,-447.63"/>
</a>
</g>
</g>
<!-- Node9 -->
<g id="Node000009" class="node">
<title>Node9</title>
<g id="a_Node000009"><a xlink:href="../../d7/d8d/class_hydro_couple_1_1_spatial_1_1_i_geometry_component_data_item.html" target="_top" xlink:title="IGeometryComponentItem represents IGeometryCollection IComponentItem. This class must be implemented ...">
<polygon fill="white" stroke="transparent" points="463,-422 272,-422 272,-167 463,-167 463,-422"/>
<text text-anchor="start" x="288" y="-409.5" font-family="Monaco" font-size="10.00">HydroCouple::Spatial</text>
<text text-anchor="start" x="288" y="-398.5" font-family="Monaco" font-size="10.00">::IGeometryComponentDataItem</text>
<text text-anchor="start" x="366" y="-383.5" font-family="Monaco" font-size="10.00"> </text>
<text text-anchor="start" x="276.5" y="-368.5" font-family="Monaco" font-size="10.00">+</text>
<text text-anchor="start" x="289.5" y="-368.5" font-family="Monaco" font-size="10.00">~IGeometryComponentDataItem()</text>
<text text-anchor="start" x="276.5" y="-353.5" font-family="Monaco" font-size="10.00">+</text>
<text text-anchor="start" x="289.5" y="-353.5" font-family="Monaco" font-size="10.00">geometryType()</text>
<text text-anchor="start" x="276.5" y="-338.5" font-family="Monaco" font-size="10.00">+</text>
<text text-anchor="start" x="289.5" y="-338.5" font-family="Monaco" font-size="10.00">geometryCount()</text>
<text text-anchor="start" x="276.5" y="-323.5" font-family="Monaco" font-size="10.00">+</text>
<text text-anchor="start" x="289.5" y="-323.5" font-family="Monaco" font-size="10.00">geometry()</text>
<text text-anchor="start" x="276.5" y="-308.5" font-family="Monaco" font-size="10.00">+</text>
<text text-anchor="start" x="289.5" y="-308.5" font-family="Monaco" font-size="10.00">geometryDimension()</text>
<text text-anchor="start" x="276.5" y="-293.5" font-family="Monaco" font-size="10.00">+</text>
<text text-anchor="start" x="289.5" y="-293.5" font-family="Monaco" font-size="10.00">envelope()</text>
<text text-anchor="start" x="276.5" y="-278.5" font-family="Monaco" font-size="10.00">+</text>
<text text-anchor="start" x="289.5" y="-278.5" font-family="Monaco" font-size="10.00">getValue()</text>
<text text-anchor="start" x="276.5" y="-263.5" font-family="Monaco" font-size="10.00">+</text>
<text text-anchor="start" x="289.5" y="-263.5" font-family="Monaco" font-size="10.00">getValues()</text>
<text text-anchor="start" x="276.5" y="-248.5" font-family="Monaco" font-size="10.00">+</text>
<text text-anchor="start" x="289.5" y="-248.5" font-family="Monaco" font-size="10.00">setValue()</text>
<text text-anchor="start" x="276.5" y="-233.5" font-family="Monaco" font-size="10.00">+</text>
<text text-anchor="start" x="289.5" y="-233.5" font-family="Monaco" font-size="10.00">setValues()</text>
<text text-anchor="start" x="276.5" y="-218.5" font-family="Monaco" font-size="10.00">+</text>
<text text-anchor="start" x="289.5" y="-218.5" font-family="Monaco" font-size="10.00">getValue()</text>
<text text-anchor="start" x="276.5" y="-203.5" font-family="Monaco" font-size="10.00">+</text>
<text text-anchor="start" x="289.5" y="-203.5" font-family="Monaco" font-size="10.00">getValues()</text>
<text text-anchor="start" x="276.5" y="-188.5" font-family="Monaco" font-size="10.00">+</text>
<text text-anchor="start" x="289.5" y="-188.5" font-family="Monaco" font-size="10.00">setValue()</text>
<text text-anchor="start" x="276.5" y="-173.5" font-family="Monaco" font-size="10.00">+</text>
<text text-anchor="start" x="289.5" y="-173.5" font-family="Monaco" font-size="10.00">setValues()</text>
<polygon fill="#666666" stroke="#666666" points="272.5,-393.5 272.5,-393.5 463.5,-393.5 463.5,-393.5 272.5,-393.5"/>
<polygon fill="#666666" stroke="#666666" points="272.5,-378.5 272.5,-378.5 463.5,-378.5 463.5,-378.5 272.5,-378.5"/>
<polygon fill="none" stroke="#666666" points="272,-167 272,-422 463,-422 463,-167 272,-167"/>
</a>
</g>
</g>
<!-- Node3&#45;&gt;Node9 -->
<g id="edge10_Node000009_Node000003" class="edge">
<title>Node3&#45;&gt;Node9</title>
<g id="a_edge10_Node000009_Node000003"><a xlink:title=" ">
<path fill="none" stroke="#63b8ff" d="M254.89,-449.36C261.52,-440.31 268.21,-431.17 274.85,-422.09"/>
<polygon fill="none" stroke="#63b8ff" points="251.91,-447.51 248.83,-457.65 257.56,-451.64 251.91,-447.51"/>
</a>
</g>
</g>
<!-- Node4 -->
<g id="Node000004" class="node">
<title>Node4</title>
<g id="a_Node000004"><a xlink:href="../../d2/d2a/class_hydro_couple_1_1_i_identity.html" target="_top" xlink:title="IIdentity interface class defines a method to get the Id of an HydroCouple entity.">
<polygon fill="white" stroke="transparent" points="143.5,-820.5 23.5,-820.5 23.5,-756.5 143.5,-756.5 143.5,-820.5"/>
<text text-anchor="start" x="28.5" y="-808.5" font-family="Monaco" font-size="10.00">HydroCouple::IIdentity</text>
<text text-anchor="start" x="81.5" y="-793.5" font-family="Monaco" font-size="10.00"> </text>
<text text-anchor="start" x="38" y="-778.5" font-family="Monaco" font-size="10.00">+</text>
<text text-anchor="start" x="61.5" y="-778.5" font-family="Monaco" font-size="10.00">~IIdentity()</text>
<text text-anchor="start" x="38" y="-763.5" font-family="Monaco" font-size="10.00">+</text>
<text text-anchor="start" x="61.5" y="-763.5" font-family="Monaco" font-size="10.00">id()</text>
<polygon fill="#666666" stroke="#666666" points="23.5,-803.5 23.5,-803.5 143.5,-803.5 143.5,-803.5 23.5,-803.5"/>
<polygon fill="#666666" stroke="#666666" points="23.5,-788.5 23.5,-788.5 143.5,-788.5 143.5,-788.5 23.5,-788.5"/>
<polygon fill="none" stroke="#666666" points="23.5,-756.5 23.5,-820.5 143.5,-820.5 143.5,-756.5 23.5,-756.5"/>
</a>
</g>
</g>
<!-- Node4&#45;&gt;Node3 -->
<g id="edge3_Node000003_Node000004" class="edge">
<title>Node4&#45;&gt;Node3</title>
<g id="a_edge3_Node000003_Node000004"><a xlink:title=" ">
<path fill="none" stroke="#63b8ff" d="M99.13,-746.71C105.72,-729.5 113.76,-708.52 121.94,-687.19"/>
<polygon fill="none" stroke="#63b8ff" points="95.73,-745.79 95.42,-756.38 102.27,-748.3 95.73,-745.79"/>
</a>
</g>
</g>
<!-- Node5 -->
<g id="Node000005" class="node">
<title>Node5</title>
<g id="a_Node000005"><a xlink:href="../../db/d64/class_hydro_couple_1_1_i_description.html" target="_top" xlink:title="IDescription interface class provides descriptive information on a HydroCouple object.">
<polygon fill="white" stroke="transparent" points="152.5,-999 14.5,-999 14.5,-890 152.5,-890 152.5,-999"/>
<text text-anchor="start" x="19.5" y="-986.5" font-family="Monaco" font-size="10.00">HydroCouple::IDescription</text>
<text text-anchor="start" x="81.5" y="-971.5" font-family="Monaco" font-size="10.00"> </text>
<text text-anchor="start" x="28" y="-956.5" font-family="Monaco" font-size="10.00">+</text>
<text text-anchor="start" x="50.5" y="-956.5" font-family="Monaco" font-size="10.00">~IDescription()</text>
<text text-anchor="start" x="28" y="-941.5" font-family="Monaco" font-size="10.00">+</text>
<text text-anchor="start" x="50.5" y="-941.5" font-family="Monaco" font-size="10.00">caption()</text>
<text text-anchor="start" x="28" y="-926.5" font-family="Monaco" font-size="10.00">+</text>
<text text-anchor="start" x="50.5" y="-926.5" font-family="Monaco" font-size="10.00">setCaption()</text>
<text text-anchor="start" x="28" y="-911.5" font-family="Monaco" font-size="10.00">+</text>
<text text-anchor="start" x="50.5" y="-911.5" font-family="Monaco" font-size="10.00">description()</text>
<text text-anchor="start" x="28" y="-896.5" font-family="Monaco" font-size="10.00">+</text>
<text text-anchor="start" x="50.5" y="-896.5" font-family="Monaco" font-size="10.00">setDescription()</text>
<polygon fill="#666666" stroke="#666666" points="14.5,-981.5 14.5,-981.5 152.5,-981.5 152.5,-981.5 14.5,-981.5"/>
<polygon fill="#666666" stroke="#666666" points="14.5,-966.5 14.5,-966.5 152.5,-966.5 152.5,-966.5 14.5,-966.5"/>
<polygon fill="none" stroke="#666666" points="14.5,-890 14.5,-999 152.5,-999 152.5,-890 14.5,-890"/>
</a>
</g>
</g>
<!-- Node5&#45;&gt;Node4 -->
<g id="edge4_Node000004_Node000005" class="edge">
<title>Node5&#45;&gt;Node4</title>
<g id="a_edge4_Node000004_Node000005"><a xlink:title=" ">
<path fill="none" stroke="#63b8ff" d="M83.5,-879.47C83.5,-859.15 83.5,-837.58 83.5,-820.66"/>
<polygon fill="none" stroke="#63b8ff" points="80,-879.64 83.5,-889.64 87,-879.64 80,-879.64"/>
</a>
</g>
</g>
<!-- Node6 -->
<g id="Node000006" class="node">
<title>Node6</title>
<g id="a_Node000006"><a xlink:href="../../dd/dbf/class_hydro_couple_1_1_i_property_changed.html" target="_top" xlink:title="IPropertyChanged interface is used to emit signal/event when a property of an object changes.">
<polygon fill="white" stroke="transparent" points="167,-1084 0,-1084 0,-1035 167,-1035 167,-1084"/>
<text text-anchor="start" x="5.5" y="-1071.5" font-family="Monaco" font-size="10.00">HydroCouple::IPropertyChanged</text>
<text text-anchor="start" x="82" y="-1056.5" font-family="Monaco" font-size="10.00"> </text>
<text text-anchor="start" x="15" y="-1041.5" font-family="Monaco" font-size="10.00">+</text>
<text text-anchor="start" x="38.5" y="-1041.5" font-family="Monaco" font-size="10.00">~IPropertyChanged()</text>
<polygon fill="#666666" stroke="#666666" points="0.5,-1066.5 0.5,-1066.5 167.5,-1066.5 167.5,-1066.5 0.5,-1066.5"/>
<polygon fill="#666666" stroke="#666666" points="0.5,-1051.5 0.5,-1051.5 167.5,-1051.5 167.5,-1051.5 0.5,-1051.5"/>
<polygon fill="none" stroke="#666666" points="0,-1035 0,-1084 167,-1084 167,-1035 0,-1035"/>
</a>
</g>
</g>
<!-- Node6&#45;&gt;Node5 -->
<g id="edge5_Node000005_Node000006" class="edge">
<title>Node6&#45;&gt;Node5</title>
<g id="a_edge5_Node000005_Node000006"><a xlink:title=" ">
<path fill="none" stroke="#63b8ff" d="M83.5,-1024.79C83.5,-1016.79 83.5,-1008.06 83.5,-999.41"/>
<polygon fill="none" stroke="#63b8ff" points="80,-1024.81 83.5,-1034.81 87,-1024.81 80,-1024.81"/>
</a>
</g>
</g>
<!-- Node7 -->
<g id="Node000007" class="node">
<title>Node7</title>
<g id="a_Node000007"><a xlink:href="../../d5/d8b/class_hydro_couple_1_1_i_signal.html" target="_top" xlink:title=" ">
<polygon fill="white" stroke="transparent" points="140,-1240 27,-1240 27,-1120 140,-1120 140,-1240"/>
<text text-anchor="start" x="32.5" y="-1228" font-family="Monaco" font-size="10.00">HydroCouple::ISignal</text>
<text text-anchor="start" x="58.5" y="-1217" font-family="Monaco" font-size="10.00">&lt; string &gt;</text>
<text text-anchor="start" x="82" y="-1202" font-family="Monaco" font-size="10.00"> </text>
<text text-anchor="start" x="37" y="-1187" font-family="Monaco" font-size="10.00">+</text>
<text text-anchor="start" x="55.5" y="-1187" font-family="Monaco" font-size="10.00">~ISignal()</text>
<text text-anchor="start" x="37" y="-1172" font-family="Monaco" font-size="10.00">+</text>
<text text-anchor="start" x="55.5" y="-1172" font-family="Monaco" font-size="10.00">connect()</text>
<text text-anchor="start" x="37" y="-1157" font-family="Monaco" font-size="10.00">+</text>
<text text-anchor="start" x="55.5" y="-1157" font-family="Monaco" font-size="10.00">disconnect()</text>
<text text-anchor="start" x="37" y="-1142" font-family="Monaco" font-size="10.00">+</text>
<text text-anchor="start" x="55.5" y="-1142" font-family="Monaco" font-size="10.00">blockSignals()</text>
<text text-anchor="start" x="37" y="-1127" font-family="Monaco" font-size="10.00">#</text>
<text text-anchor="start" x="55.5" y="-1127" font-family="Monaco" font-size="10.00">emit()</text>
<polygon fill="#666666" stroke="#666666" points="27.5,-1212 27.5,-1212 140.5,-1212 140.5,-1212 27.5,-1212"/>
<polygon fill="#666666" stroke="#666666" points="27.5,-1197 27.5,-1197 140.5,-1197 140.5,-1197 27.5,-1197"/>
<polygon fill="none" stroke="#666666" points="27,-1120 27,-1240 140,-1240 140,-1120 27,-1120"/>
</a>
</g>
</g>
<!-- Node7&#45;&gt;Node6 -->
<g id="edge6_Node000006_Node000007" class="edge">
<title>Node7&#45;&gt;Node6</title>
<g id="a_edge6_Node000006_Node000007"><a xlink:title=" ">
<path fill="none" stroke="#63b8ff" d="M83.5,-1109.74C83.5,-1100.6 83.5,-1091.78 83.5,-1084.2"/>
<polygon fill="none" stroke="#63b8ff" points="80,-1109.75 83.5,-1119.75 87,-1109.75 80,-1109.75"/>
</a>
</g>
</g>
<!-- Node8 -->
<g id="Node000008" class="node">
<title>Node8</title>
<g id="a_Node000008"><a xlink:href="../../d5/d8b/class_hydro_couple_1_1_i_signal.html" target="_top" xlink:title=" ">
<polygon fill="white" stroke="transparent" points="335,-854 162,-854 162,-723 335,-723 335,-854"/>
<text text-anchor="start" x="167.5" y="-841.5" font-family="Monaco" font-size="10.00">HydroCouple::ISignal</text>
<text text-anchor="start" x="167.5" y="-830.5" font-family="Monaco" font-size="10.00">&lt; const shared_ptr&lt; IComponent</text>
<text text-anchor="start" x="174.5" y="-819.5" font-family="Monaco" font-size="10.00">DataItemValueChanged &gt; &amp; &gt;</text>
<text text-anchor="start" x="247" y="-804.5" font-family="Monaco" font-size="10.00"> </text>
<text text-anchor="start" x="187" y="-789.5" font-family="Monaco" font-size="10.00">+</text>
<text text-anchor="start" x="220.5" y="-789.5" font-family="Monaco" font-size="10.00">~ISignal()</text>
<text text-anchor="start" x="187" y="-774.5" font-family="Monaco" font-size="10.00">+</text>
<text text-anchor="start" x="220.5" y="-774.5" font-family="Monaco" font-size="10.00">connect()</text>
<text text-anchor="start" x="187" y="-759.5" font-family="Monaco" font-size="10.00">+</text>
<text text-anchor="start" x="220.5" y="-759.5" font-family="Monaco" font-size="10.00">disconnect()</text>
<text text-anchor="start" x="187" y="-744.5" font-family="Monaco" font-size="10.00">+</text>
<text text-anchor="start" x="220.5" y="-744.5" font-family="Monaco" font-size="10.00">blockSignals()</text>
<text text-anchor="start" x="187" y="-729.5" font-family="Monaco" font-size="10.00">#</text>
<text text-anchor="start" x="220.5" y="-729.5" font-family="Monaco" font-size="10.00">emit()</text>
<polygon fill="#666666" stroke="#666666" points="162.5,-814.5 162.5,-814.5 335.5,-814.5 335.5,-814.5 162.5,-814.5"/>
<polygon fill="#666666" stroke="#666666" points="162.5,-799.5 162.5,-799.5 335.5,-799.5 335.5,-799.5 162.5,-799.5"/>
<polygon fill="none" stroke="#666666" points="162,-723 162,-854 335,-854 335,-723 162,-723"/>
</a>
</g>
</g>
<!-- Node8&#45;&gt;Node3 -->
<g id="edge7_Node000003_Node000008" class="edge">
<title>Node8&#45;&gt;Node3</title>
<g id="a_edge7_Node000003_Node000008"><a xlink:title=" ">
<path fill="none" stroke="#63b8ff" d="M219.71,-713.27C216.42,-704.79 213.01,-695.99 209.58,-687.14"/>
<polygon fill="none" stroke="#63b8ff" points="216.49,-714.65 223.37,-722.71 223.02,-712.12 216.49,-714.65"/>
</a>
</g>
</g>
<!-- Node9&#45;&gt;Node1 -->
<g id="edge9_Node000001_Node000009" class="edge">
<title>Node9&#45;&gt;Node1</title>
<g id="a_edge9_Node000001_Node000009"><a xlink:title=" ">
<path fill="none" stroke="#63b8ff" d="M307.02,-157.56C302.96,-148.45 299,-139.54 295.23,-131.08"/>
<polygon fill="none" stroke="#63b8ff" points="303.83,-159.01 311.09,-166.73 310.23,-156.17 303.83,-159.01"/>
</a>
</g>
</g>
</g>
</svg>
