<?xml version="1.0" encoding="UTF-8" standalone="no"?>
<!DOCTYPE svg PUBLIC "-//W3C//DTD SVG 1.1//EN"
 "http://www.w3.org/Graphics/SVG/1.1/DTD/svg11.dtd">
<!-- Generated by graphviz version 2.43.0 (0)
 -->
<!-- Title: WKBMultiPointZ Pages: 1 -->
<svg width="98pt" height="324pt"
 viewBox="0.00 0.00 98.00 324.00" xmlns="http://www.w3.org/2000/svg" xmlns:xlink="http://www.w3.org/1999/xlink">

<svg id="main" version="1.1" xmlns="http://www.w3.org/2000/svg" xmlns:xlink="http://www.w3.org/1999/xlink" xml:space="preserve" onload="init(evt)">
<style type="text/css"><![CDATA[
.node, .edge {opacity: 0.7;}
.node.selected, .edge.selected {opacity: 1;}
.edge:hover path { stroke: red; }
.edge:hover polygon { stroke: red; fill: red; }
]]></style>
<script type="application/ecmascript" xlink:href="../../svg.min.js"/>
<svg id="graph" class="graph">
<g id="graph0" class="graph" transform="scale(1 1) rotate(0) translate(4 320)">
<title>WKBMultiPointZ</title>
<!-- Node1 -->
<g id="Node000001" class="node">
<title>Node1</title>
<g id="a_Node000001"><a xlink:title="The WKBMultiPointZ struct.">
<polygon fill="#999999" stroke="transparent" points="90,-79 0,-79 0,0 90,0 90,-79"/>
<text text-anchor="start" x="5" y="-66.5" font-family="Monaco" font-size="10.00">WKBMultiPointZ</text>
<text text-anchor="start" x="8" y="-51.5" font-family="Monaco" font-size="10.00">+</text>
<text text-anchor="start" x="25" y="-51.5" font-family="Monaco" font-size="10.00">byteOrder</text>
<text text-anchor="start" x="8" y="-36.5" font-family="Monaco" font-size="10.00">+</text>
<text text-anchor="start" x="25" y="-36.5" font-family="Monaco" font-size="10.00">numPoints</text>
<text text-anchor="start" x="8" y="-21.5" font-family="Monaco" font-size="10.00">+</text>
<text text-anchor="start" x="25" y="-21.5" font-family="Monaco" font-size="10.00">wkbType</text>
<text text-anchor="start" x="43" y="-6.5" font-family="Monaco" font-size="10.00"> </text>
<polygon fill="#666666" stroke="#666666" points="0,-61.5 0,-61.5 90,-61.5 90,-61.5 0,-61.5"/>
<polygon fill="#666666" stroke="#666666" points="0,-16.5 0,-16.5 23,-16.5 23,-16.5 0,-16.5"/>
<polygon fill="#666666" stroke="#666666" points="23,-16.5 23,-16.5 90,-16.5 90,-16.5 23,-16.5"/>
<polygon fill="none" stroke="#666666" points="0,0 0,-79 90,-79 90,0 0,0"/>
</a>
</g>
</g>
<!-- Node2 -->
<g id="Node000002" class="node">
<title>Node2</title>
<g id="a_Node000002"><a xlink:href="../../d1/d27/struct_w_k_b_point_z.html" target="_top" xlink:title="The WKBPointZ struct.">
<polygon fill="white" stroke="transparent" points="80,-190 10,-190 10,-126 80,-126 80,-190"/>
<text text-anchor="start" x="17.5" y="-178" font-family="Monaco" font-size="10.00">WKBPointZ</text>
<text text-anchor="start" x="14" y="-163" font-family="Monaco" font-size="10.00">+</text>
<text text-anchor="start" x="27" y="-163" font-family="Monaco" font-size="10.00">byteOrder</text>
<text text-anchor="start" x="14" y="-148" font-family="Monaco" font-size="10.00">+</text>
<text text-anchor="start" x="27" y="-148" font-family="Monaco" font-size="10.00">wkbType</text>
<text text-anchor="start" x="43" y="-133" font-family="Monaco" font-size="10.00"> </text>
<polygon fill="#666666" stroke="#666666" points="10,-173 10,-173 80,-173 80,-173 10,-173"/>
<polygon fill="#666666" stroke="#666666" points="10,-143 10,-143 25,-143 25,-143 10,-143"/>
<polygon fill="#666666" stroke="#666666" points="25,-143 25,-143 80,-143 80,-143 25,-143"/>
<polygon fill="none" stroke="#666666" points="10,-126 10,-190 80,-190 80,-126 10,-126"/>
</a>
</g>
</g>
<!-- Node2&#45;&gt;Node1 -->
<g id="edge1_Node000001_Node000002" class="edge">
<title>Node2&#45;&gt;Node1</title>
<g id="a_edge1_Node000001_Node000002"><a xlink:title=" ">
<path fill="none" stroke="#63b8ff" d="M45,-125.78C45,-115.29 45,-103.29 45,-91.67"/>
<polygon fill="none" stroke="#63b8ff" points="45,-91.31 41,-85.31 45,-79.31 49,-85.31 45,-91.31"/>
</a>
</g>
<text text-anchor="middle" x="66" y="-100" font-family="Monaco" font-size="10.00" fill="grey"> +points</text>
</g>
<!-- Node3 -->
<g id="Node000003" class="node">
<title>Node3</title>
<g id="a_Node000003"><a xlink:href="../../d6/d0c/struct_point_z.html" target="_top" xlink:title="The PointZ struct.">
<polygon fill="white" stroke="transparent" points="66,-316 24,-316 24,-237 66,-237 66,-316"/>
<text text-anchor="start" x="29" y="-303.5" font-family="Monaco" font-size="10.00">PointZ</text>
<text text-anchor="start" x="31.5" y="-288.5" font-family="Monaco" font-size="10.00">+</text>
<text text-anchor="start" x="48" y="-288.5" font-family="Monaco" font-size="10.00">x</text>
<text text-anchor="start" x="31.5" y="-273.5" font-family="Monaco" font-size="10.00">+</text>
<text text-anchor="start" x="48" y="-273.5" font-family="Monaco" font-size="10.00">y</text>
<text text-anchor="start" x="31.5" y="-258.5" font-family="Monaco" font-size="10.00">+</text>
<text text-anchor="start" x="48" y="-258.5" font-family="Monaco" font-size="10.00">z</text>
<text text-anchor="start" x="43" y="-243.5" font-family="Monaco" font-size="10.00"> </text>
<polygon fill="#666666" stroke="#666666" points="24,-298.5 24,-298.5 66,-298.5 66,-298.5 24,-298.5"/>
<polygon fill="#666666" stroke="#666666" points="24,-253.5 24,-253.5 46,-253.5 46,-253.5 24,-253.5"/>
<polygon fill="#666666" stroke="#666666" points="46,-253.5 46,-253.5 66,-253.5 66,-253.5 46,-253.5"/>
<polygon fill="none" stroke="#666666" points="24,-237 24,-316 66,-316 66,-237 24,-237"/>
</a>
</g>
</g>
<!-- Node3&#45;&gt;Node2 -->
<g id="edge2_Node000002_Node000003" class="edge">
<title>Node3&#45;&gt;Node2</title>
<g id="a_edge2_Node000002_Node000003"><a xlink:title=" ">
<path fill="none" stroke="#63b8ff" d="M45,-236.71C45,-225.74 45,-213.74 45,-202.51"/>
<polygon fill="none" stroke="#63b8ff" points="45,-202.27 41,-196.27 45,-190.27 49,-196.27 45,-202.27"/>
</a>
</g>
<text text-anchor="middle" x="63.5" y="-211" font-family="Monaco" font-size="10.00" fill="grey"> +point</text>
</g>
</g>
</svg>
</svg>

<style type='text/css'>
<![CDATA[
[data-mouse-over-selected='false'] { opacity: 0.7; }
[data-mouse-over-selected='true']  { opacity: 1.0; }
]]>
</style>
<script type="application/ecmascript"><![CDATA[
document.addEventListener('DOMContentLoaded', (event) => {
  highlightEdges();
  highlightAdjacentNodes();
});
]]></script>
</svg>
