<?xml version="1.0" encoding="UTF-8" standalone="no"?>
<!DOCTYPE svg PUBLIC "-//W3C//DTD SVG 1.1//EN"
 "http://www.w3.org/Graphics/SVG/1.1/DTD/svg11.dtd">
<!-- Generated by graphviz version 2.43.0 (0)
 -->
<!-- Title: WKBMultiPointZ Pages: 1 -->
<svg width="104pt" height="331pt"
 viewBox="0.00 0.00 104.00 331.00" xmlns="http://www.w3.org/2000/svg" xmlns:xlink="http://www.w3.org/1999/xlink">
<g id="graph0" class="graph" transform="scale(1 1) rotate(0) translate(4 327)">
<title>WKBMultiPointZ</title>
<!-- Node1 -->
<g id="node1" class="node">
<title>Node1</title>
<g id="a_node1"><a xlink:title="The WKBMultiPointZ struct.">
<polygon fill="#bfbfbf" stroke="black" points="0,-0.5 0,-79.5 96,-79.5 96,-0.5 0,-0.5"/>
<text text-anchor="middle" x="48" y="-67.5" font-family="Monaco" font-size="10.00">WKBMultiPointZ</text>
<polyline fill="none" stroke="black" points="0,-60.5 96,-60.5 "/>
<text text-anchor="start" x="8" y="-48.5" font-family="Monaco" font-size="10.00">+ byteOrder</text>
<text text-anchor="start" x="8" y="-37.5" font-family="Monaco" font-size="10.00">+ numPoints</text>
<text text-anchor="start" x="8" y="-26.5" font-family="Monaco" font-size="10.00">+ wkbType</text>
<polyline fill="none" stroke="black" points="0,-19.5 96,-19.5 "/>
<text text-anchor="middle" x="48" y="-7.5" font-family="Monaco" font-size="10.00"> </text>
</a>
</g>
</g>
<!-- Node2 -->
<g id="node2" class="node">
<title>Node2</title>
<g id="a_node2"><a xlink:href="../../d1/d27/struct_w_k_b_point_z.html" target="_top" xlink:title="The WKBPointZ struct.">
<polygon fill="none" stroke="black" points="9.5,-127.5 9.5,-195.5 86.5,-195.5 86.5,-127.5 9.5,-127.5"/>
<text text-anchor="middle" x="48" y="-183.5" font-family="Monaco" font-size="10.00">WKBPointZ</text>
<polyline fill="none" stroke="black" points="9.5,-176.5 86.5,-176.5 "/>
<text text-anchor="start" x="17.5" y="-164.5" font-family="Monaco" font-size="10.00">+ byteOrder</text>
<text text-anchor="start" x="17.5" y="-153.5" font-family="Monaco" font-size="10.00">+ wkbType</text>
<polyline fill="none" stroke="black" points="9.5,-146.5 86.5,-146.5 "/>
<text text-anchor="middle" x="48" y="-134.5" font-family="Monaco" font-size="10.00"> </text>
</a>
</g>
</g>
<!-- Node2&#45;&gt;Node1 -->
<g id="edge1" class="edge">
<title>Node2&#45;&gt;Node1</title>
<path fill="none" stroke="#404040" d="M48,-127.21C48,-116.24 48,-103.78 48,-91.81"/>
<polygon fill="none" stroke="#404040" points="48,-91.6 44,-85.6 48,-79.6 52,-85.6 48,-91.6"/>
<text text-anchor="middle" x="69" y="-101" font-family="Monaco" font-size="10.00"> +points</text>
</g>
<!-- Node3 -->
<g id="node3" class="node">
<title>Node3</title>
<g id="a_node3"><a xlink:href="../../d6/d0c/struct_point_z.html" target="_top" xlink:title="The PointZ struct.">
<polygon fill="none" stroke="black" points="24,-243.5 24,-322.5 72,-322.5 72,-243.5 24,-243.5"/>
<text text-anchor="middle" x="48" y="-310.5" font-family="Monaco" font-size="10.00">PointZ</text>
<polyline fill="none" stroke="black" points="24,-303.5 72,-303.5 "/>
<text text-anchor="start" x="32" y="-291.5" font-family="Monaco" font-size="10.00">+ x</text>
<text text-anchor="start" x="32" y="-280.5" font-family="Monaco" font-size="10.00">+ y</text>
<text text-anchor="start" x="32" y="-269.5" font-family="Monaco" font-size="10.00">+ z</text>
<polyline fill="none" stroke="black" points="24,-262.5 72,-262.5 "/>
<text text-anchor="middle" x="48" y="-250.5" font-family="Monaco" font-size="10.00"> </text>
</a>
</g>
</g>
<!-- Node3&#45;&gt;Node2 -->
<g id="edge2" class="edge">
<title>Node3&#45;&gt;Node2</title>
<path fill="none" stroke="#404040" d="M48,-243.2C48,-231.99 48,-219.65 48,-208.07"/>
<polygon fill="none" stroke="#404040" points="48,-207.89 44,-201.89 48,-195.89 52,-201.89 48,-207.89"/>
<text text-anchor="middle" x="66.5" y="-217" font-family="Monaco" font-size="10.00"> +point</text>
</g>
</g>
</svg>
