<?xml version="1.0" encoding="UTF-8" standalone="no"?>
<!DOCTYPE svg PUBLIC "-//W3C//DTD SVG 1.1//EN"
 "http://www.w3.org/Graphics/SVG/1.1/DTD/svg11.dtd">
<!-- Generated by graphviz version 2.43.0 (0)
 -->
<!-- Title: HydroCouple::Spatial::IRegularGrid3D Pages: 1 -->
<svg width="175pt" height="689pt"
 viewBox="0.00 0.00 175.00 689.00" xmlns="http://www.w3.org/2000/svg" xmlns:xlink="http://www.w3.org/1999/xlink">
<g id="graph0" class="graph" transform="scale(1 1) rotate(0) translate(4 685)">
<title>HydroCouple::Spatial::IRegularGrid3D</title>
<!-- Node1 -->
<g id="Node000001" class="node">
<title>Node1</title>
<g id="a_Node000001"><a xlink:title="The IRegularGrid3D class.">
<polygon fill="#999999" stroke="transparent" points="157.5,-195 9.5,-195 9.5,0 157.5,0 157.5,-195"/>
<text text-anchor="start" x="32" y="-182.5" font-family="Monaco" font-size="10.00">HydroCouple::Spatial</text>
<text text-anchor="start" x="43" y="-171.5" font-family="Monaco" font-size="10.00">::IRegularGrid3D</text>
<text text-anchor="start" x="81.5" y="-156.5" font-family="Monaco" font-size="10.00"> </text>
<text text-anchor="start" x="13.5" y="-141.5" font-family="Monaco" font-size="10.00">+</text>
<text text-anchor="start" x="26.5" y="-141.5" font-family="Monaco" font-size="10.00">~IRegularGrid3D()</text>
<text text-anchor="start" x="13.5" y="-126.5" font-family="Monaco" font-size="10.00">+</text>
<text text-anchor="start" x="26.5" y="-126.5" font-family="Monaco" font-size="10.00">spatialReferenceSystem()</text>
<text text-anchor="start" x="13.5" y="-111.5" font-family="Monaco" font-size="10.00">+</text>
<text text-anchor="start" x="26.5" y="-111.5" font-family="Monaco" font-size="10.00">gridType()</text>
<text text-anchor="start" x="13.5" y="-96.5" font-family="Monaco" font-size="10.00">+</text>
<text text-anchor="start" x="26.5" y="-96.5" font-family="Monaco" font-size="10.00">numXNodes()</text>
<text text-anchor="start" x="13.5" y="-81.5" font-family="Monaco" font-size="10.00">+</text>
<text text-anchor="start" x="26.5" y="-81.5" font-family="Monaco" font-size="10.00">numYNodes()</text>
<text text-anchor="start" x="13.5" y="-66.5" font-family="Monaco" font-size="10.00">+</text>
<text text-anchor="start" x="26.5" y="-66.5" font-family="Monaco" font-size="10.00">numZNodes()</text>
<text text-anchor="start" x="13.5" y="-51.5" font-family="Monaco" font-size="10.00">+</text>
<text text-anchor="start" x="26.5" y="-51.5" font-family="Monaco" font-size="10.00">xNodeLocation()</text>
<text text-anchor="start" x="13.5" y="-36.5" font-family="Monaco" font-size="10.00">+</text>
<text text-anchor="start" x="26.5" y="-36.5" font-family="Monaco" font-size="10.00">yNodeLocation()</text>
<text text-anchor="start" x="13.5" y="-21.5" font-family="Monaco" font-size="10.00">+</text>
<text text-anchor="start" x="26.5" y="-21.5" font-family="Monaco" font-size="10.00">zNodeLocation()</text>
<text text-anchor="start" x="13.5" y="-6.5" font-family="Monaco" font-size="10.00">+</text>
<text text-anchor="start" x="26.5" y="-6.5" font-family="Monaco" font-size="10.00">isActive()</text>
<polygon fill="#666666" stroke="#666666" points="9.5,-166.5 9.5,-166.5 157.5,-166.5 157.5,-166.5 9.5,-166.5"/>
<polygon fill="#666666" stroke="#666666" points="9.5,-151.5 9.5,-151.5 157.5,-151.5 157.5,-151.5 9.5,-151.5"/>
<polygon fill="none" stroke="#666666" points="9.5,0 9.5,-195 157.5,-195 157.5,0 9.5,0"/>
</a>
</g>
</g>
<!-- Node2 -->
<g id="Node000002" class="node">
<title>Node2</title>
<g id="a_Node000002"><a xlink:href="../../d2/d2a/class_hydro_couple_1_1_i_identity.html" target="_top" xlink:title="IIdentity interface class defines a method to get the Id of an HydroCouple entity.">
<polygon fill="white" stroke="transparent" points="143.5,-295 23.5,-295 23.5,-231 143.5,-231 143.5,-295"/>
<text text-anchor="start" x="28.5" y="-283" font-family="Monaco" font-size="10.00">HydroCouple::IIdentity</text>
<text text-anchor="start" x="81.5" y="-268" font-family="Monaco" font-size="10.00"> </text>
<text text-anchor="start" x="38" y="-253" font-family="Monaco" font-size="10.00">+</text>
<text text-anchor="start" x="61.5" y="-253" font-family="Monaco" font-size="10.00">~IIdentity()</text>
<text text-anchor="start" x="38" y="-238" font-family="Monaco" font-size="10.00">+</text>
<text text-anchor="start" x="61.5" y="-238" font-family="Monaco" font-size="10.00">id()</text>
<polygon fill="#666666" stroke="#666666" points="23.5,-278 23.5,-278 143.5,-278 143.5,-278 23.5,-278"/>
<polygon fill="#666666" stroke="#666666" points="23.5,-263 23.5,-263 143.5,-263 143.5,-263 23.5,-263"/>
<polygon fill="none" stroke="#666666" points="23.5,-231 23.5,-295 143.5,-295 143.5,-231 23.5,-231"/>
</a>
</g>
</g>
<!-- Node2&#45;&gt;Node1 -->
<g id="edge1_Node000001_Node000002" class="edge">
<title>Node2&#45;&gt;Node1</title>
<g id="a_edge1_Node000001_Node000002"><a xlink:title=" ">
<path fill="none" stroke="#63b8ff" d="M83.5,-220.82C83.5,-212.85 83.5,-204.19 83.5,-195.29"/>
<polygon fill="none" stroke="#63b8ff" points="80,-220.86 83.5,-230.86 87,-220.86 80,-220.86"/>
</a>
</g>
</g>
<!-- Node3 -->
<g id="Node000003" class="node">
<title>Node3</title>
<g id="a_Node000003"><a xlink:href="../../db/d64/class_hydro_couple_1_1_i_description.html" target="_top" xlink:title="IDescription interface class provides descriptive information on a HydroCouple object.">
<polygon fill="white" stroke="transparent" points="152.5,-440 14.5,-440 14.5,-331 152.5,-331 152.5,-440"/>
<text text-anchor="start" x="19.5" y="-427.5" font-family="Monaco" font-size="10.00">HydroCouple::IDescription</text>
<text text-anchor="start" x="81.5" y="-412.5" font-family="Monaco" font-size="10.00"> </text>
<text text-anchor="start" x="28" y="-397.5" font-family="Monaco" font-size="10.00">+</text>
<text text-anchor="start" x="50.5" y="-397.5" font-family="Monaco" font-size="10.00">~IDescription()</text>
<text text-anchor="start" x="28" y="-382.5" font-family="Monaco" font-size="10.00">+</text>
<text text-anchor="start" x="50.5" y="-382.5" font-family="Monaco" font-size="10.00">caption()</text>
<text text-anchor="start" x="28" y="-367.5" font-family="Monaco" font-size="10.00">+</text>
<text text-anchor="start" x="50.5" y="-367.5" font-family="Monaco" font-size="10.00">setCaption()</text>
<text text-anchor="start" x="28" y="-352.5" font-family="Monaco" font-size="10.00">+</text>
<text text-anchor="start" x="50.5" y="-352.5" font-family="Monaco" font-size="10.00">description()</text>
<text text-anchor="start" x="28" y="-337.5" font-family="Monaco" font-size="10.00">+</text>
<text text-anchor="start" x="50.5" y="-337.5" font-family="Monaco" font-size="10.00">setDescription()</text>
<polygon fill="#666666" stroke="#666666" points="14.5,-422.5 14.5,-422.5 152.5,-422.5 152.5,-422.5 14.5,-422.5"/>
<polygon fill="#666666" stroke="#666666" points="14.5,-407.5 14.5,-407.5 152.5,-407.5 152.5,-407.5 14.5,-407.5"/>
<polygon fill="none" stroke="#666666" points="14.5,-331 14.5,-440 152.5,-440 152.5,-331 14.5,-331"/>
</a>
</g>
</g>
<!-- Node3&#45;&gt;Node2 -->
<g id="edge2_Node000002_Node000003" class="edge">
<title>Node3&#45;&gt;Node2</title>
<g id="a_edge2_Node000002_Node000003"><a xlink:title=" ">
<path fill="none" stroke="#63b8ff" d="M83.5,-320.9C83.5,-312 83.5,-303.2 83.5,-295.28"/>
<polygon fill="none" stroke="#63b8ff" points="80,-320.95 83.5,-330.95 87,-320.95 80,-320.95"/>
</a>
</g>
</g>
<!-- Node4 -->
<g id="Node000004" class="node">
<title>Node4</title>
<g id="a_Node000004"><a xlink:href="../../dd/dbf/class_hydro_couple_1_1_i_property_changed.html" target="_top" xlink:title="IPropertyChanged interface is used to emit signal/event when a property of an object changes.">
<polygon fill="white" stroke="transparent" points="167,-525 0,-525 0,-476 167,-476 167,-525"/>
<text text-anchor="start" x="5.5" y="-512.5" font-family="Monaco" font-size="10.00">HydroCouple::IPropertyChanged</text>
<text text-anchor="start" x="82" y="-497.5" font-family="Monaco" font-size="10.00"> </text>
<text text-anchor="start" x="15" y="-482.5" font-family="Monaco" font-size="10.00">+</text>
<text text-anchor="start" x="38.5" y="-482.5" font-family="Monaco" font-size="10.00">~IPropertyChanged()</text>
<polygon fill="#666666" stroke="#666666" points="0.5,-507.5 0.5,-507.5 167.5,-507.5 167.5,-507.5 0.5,-507.5"/>
<polygon fill="#666666" stroke="#666666" points="0.5,-492.5 0.5,-492.5 167.5,-492.5 167.5,-492.5 0.5,-492.5"/>
<polygon fill="none" stroke="#666666" points="0,-476 0,-525 167,-525 167,-476 0,-476"/>
</a>
</g>
</g>
<!-- Node4&#45;&gt;Node3 -->
<g id="edge3_Node000003_Node000004" class="edge">
<title>Node4&#45;&gt;Node3</title>
<g id="a_edge3_Node000003_Node000004"><a xlink:title=" ">
<path fill="none" stroke="#63b8ff" d="M83.5,-465.79C83.5,-457.79 83.5,-449.06 83.5,-440.41"/>
<polygon fill="none" stroke="#63b8ff" points="80,-465.81 83.5,-475.81 87,-465.81 80,-465.81"/>
</a>
</g>
</g>
<!-- Node5 -->
<g id="Node000005" class="node">
<title>Node5</title>
<g id="a_Node000005"><a xlink:href="../../d5/d8b/class_hydro_couple_1_1_i_signal.html" target="_top" xlink:title=" ">
<polygon fill="white" stroke="transparent" points="140,-681 27,-681 27,-561 140,-561 140,-681"/>
<text text-anchor="start" x="32.5" y="-669" font-family="Monaco" font-size="10.00">HydroCouple::ISignal</text>
<text text-anchor="start" x="58.5" y="-658" font-family="Monaco" font-size="10.00">&lt; string &gt;</text>
<text text-anchor="start" x="82" y="-643" font-family="Monaco" font-size="10.00"> </text>
<text text-anchor="start" x="37" y="-628" font-family="Monaco" font-size="10.00">+</text>
<text text-anchor="start" x="55.5" y="-628" font-family="Monaco" font-size="10.00">~ISignal()</text>
<text text-anchor="start" x="37" y="-613" font-family="Monaco" font-size="10.00">+</text>
<text text-anchor="start" x="55.5" y="-613" font-family="Monaco" font-size="10.00">connect()</text>
<text text-anchor="start" x="37" y="-598" font-family="Monaco" font-size="10.00">+</text>
<text text-anchor="start" x="55.5" y="-598" font-family="Monaco" font-size="10.00">disconnect()</text>
<text text-anchor="start" x="37" y="-583" font-family="Monaco" font-size="10.00">+</text>
<text text-anchor="start" x="55.5" y="-583" font-family="Monaco" font-size="10.00">blockSignals()</text>
<text text-anchor="start" x="37" y="-568" font-family="Monaco" font-size="10.00">#</text>
<text text-anchor="start" x="55.5" y="-568" font-family="Monaco" font-size="10.00">emit()</text>
<polygon fill="#666666" stroke="#666666" points="27.5,-653 27.5,-653 140.5,-653 140.5,-653 27.5,-653"/>
<polygon fill="#666666" stroke="#666666" points="27.5,-638 27.5,-638 140.5,-638 140.5,-638 27.5,-638"/>
<polygon fill="none" stroke="#666666" points="27,-561 27,-681 140,-681 140,-561 27,-561"/>
</a>
</g>
</g>
<!-- Node5&#45;&gt;Node4 -->
<g id="edge4_Node000004_Node000005" class="edge">
<title>Node5&#45;&gt;Node4</title>
<g id="a_edge4_Node000004_Node000005"><a xlink:title=" ">
<path fill="none" stroke="#63b8ff" d="M83.5,-550.74C83.5,-541.6 83.5,-532.78 83.5,-525.2"/>
<polygon fill="none" stroke="#63b8ff" points="80,-550.75 83.5,-560.75 87,-550.75 80,-550.75"/>
</a>
</g>
</g>
</g>
</svg>
