<?xml version="1.0" encoding="UTF-8" standalone="no"?>
<!DOCTYPE svg PUBLIC "-//W3C//DTD SVG 1.1//EN"
 "http://www.w3.org/Graphics/SVG/1.1/DTD/svg11.dtd">
<!-- Generated by graphviz version 2.43.0 (0)
 -->
<!-- Title: HydroCouple::SpatioTemporal::ITimeRegularGrid2DComponentDataItem Pages: 1 -->
<svg width="473pt" height="1274pt"
 viewBox="0.00 0.00 473.00 1274.00" xmlns="http://www.w3.org/2000/svg" xmlns:xlink="http://www.w3.org/1999/xlink">
<g id="graph0" class="graph" transform="scale(1 1) rotate(0) translate(4 1270)">
<title>HydroCouple::SpatioTemporal::ITimeRegularGrid2DComponentDataItem</title>
<!-- Node1 -->
<g id="Node000001" class="node">
<title>Node1</title>
<g id="a_Node000001"><a xlink:title="The ITimeRegularGrid2DComponentItem class.">
<polygon fill="#999999" stroke="transparent" points="375.5,-131 157.5,-131 157.5,0 375.5,0 375.5,-131"/>
<text text-anchor="start" x="162.5" y="-118.5" font-family="Monaco" font-size="10.00">HydroCouple::SpatioTemporal</text>
<text text-anchor="start" x="162.5" y="-107.5" font-family="Monaco" font-size="10.00">::ITimeRegularGrid2DComponentDataItem</text>
<text text-anchor="start" x="264.5" y="-92.5" font-family="Monaco" font-size="10.00"> </text>
<text text-anchor="start" x="169.5" y="-77.5" font-family="Monaco" font-size="10.00">+</text>
<text text-anchor="start" x="190.5" y="-77.5" font-family="Monaco" font-size="10.00">~ITimeRegularGrid2DComponent</text>
<text text-anchor="start" x="190.5" y="-66.5" font-family="Monaco" font-size="10.00">DataItem()</text>
<text text-anchor="start" x="169.5" y="-51.5" font-family="Monaco" font-size="10.00">+</text>
<text text-anchor="start" x="190.5" y="-51.5" font-family="Monaco" font-size="10.00">getValue()</text>
<text text-anchor="start" x="169.5" y="-36.5" font-family="Monaco" font-size="10.00">+</text>
<text text-anchor="start" x="190.5" y="-36.5" font-family="Monaco" font-size="10.00">getValues()</text>
<text text-anchor="start" x="169.5" y="-21.5" font-family="Monaco" font-size="10.00">+</text>
<text text-anchor="start" x="190.5" y="-21.5" font-family="Monaco" font-size="10.00">setValue()</text>
<text text-anchor="start" x="169.5" y="-6.5" font-family="Monaco" font-size="10.00">+</text>
<text text-anchor="start" x="190.5" y="-6.5" font-family="Monaco" font-size="10.00">setValues()</text>
<polygon fill="#666666" stroke="#666666" points="157.5,-102.5 157.5,-102.5 375.5,-102.5 375.5,-102.5 157.5,-102.5"/>
<polygon fill="#666666" stroke="#666666" points="157.5,-87.5 157.5,-87.5 375.5,-87.5 375.5,-87.5 157.5,-87.5"/>
<polygon fill="none" stroke="#666666" points="157.5,0 157.5,-131 375.5,-131 375.5,0 157.5,0"/>
</a>
</g>
</g>
<!-- Node2 -->
<g id="Node000002" class="node">
<title>Node2</title>
<g id="a_Node000002"><a xlink:href="../../de/d0b/class_hydro_couple_1_1_temporal_1_1_i_time_series_component_data_item.html" target="_top" xlink:title="ITimeComponentItem is an IComponentItem with a temporal attribute. This class cannot be directly inst...">
<polygon fill="white" stroke="transparent" points="253.5,-423.5 77.5,-423.5 77.5,-191.5 253.5,-191.5 253.5,-423.5"/>
<text text-anchor="start" x="82.5" y="-411.5" font-family="Monaco" font-size="10.00">HydroCouple::Temporal</text>
<text text-anchor="start" x="82.5" y="-400.5" font-family="Monaco" font-size="10.00">::ITimeSeriesComponentDataItem</text>
<text text-anchor="start" x="163.5" y="-385.5" font-family="Monaco" font-size="10.00"> </text>
<text text-anchor="start" x="83.5" y="-370.5" font-family="Monaco" font-size="10.00">+</text>
<text text-anchor="start" x="98.5" y="-370.5" font-family="Monaco" font-size="10.00">~ITimeSeriesComponentData</text>
<text text-anchor="start" x="98.5" y="-359.5" font-family="Monaco" font-size="10.00">Item()</text>
<text text-anchor="start" x="83.5" y="-344.5" font-family="Monaco" font-size="10.00">+</text>
<text text-anchor="start" x="98.5" y="-344.5" font-family="Monaco" font-size="10.00">time()</text>
<text text-anchor="start" x="83.5" y="-329.5" font-family="Monaco" font-size="10.00">+</text>
<text text-anchor="start" x="98.5" y="-329.5" font-family="Monaco" font-size="10.00">timeCount()</text>
<text text-anchor="start" x="83.5" y="-314.5" font-family="Monaco" font-size="10.00">+</text>
<text text-anchor="start" x="98.5" y="-314.5" font-family="Monaco" font-size="10.00">timeSpan()</text>
<text text-anchor="start" x="83.5" y="-299.5" font-family="Monaco" font-size="10.00">+</text>
<text text-anchor="start" x="98.5" y="-299.5" font-family="Monaco" font-size="10.00">timeDimension()</text>
<text text-anchor="start" x="83.5" y="-284.5" font-family="Monaco" font-size="10.00">+</text>
<text text-anchor="start" x="98.5" y="-284.5" font-family="Monaco" font-size="10.00">getValue()</text>
<text text-anchor="start" x="83.5" y="-269.5" font-family="Monaco" font-size="10.00">+</text>
<text text-anchor="start" x="98.5" y="-269.5" font-family="Monaco" font-size="10.00">getValues()</text>
<text text-anchor="start" x="83.5" y="-254.5" font-family="Monaco" font-size="10.00">+</text>
<text text-anchor="start" x="98.5" y="-254.5" font-family="Monaco" font-size="10.00">setValue()</text>
<text text-anchor="start" x="83.5" y="-239.5" font-family="Monaco" font-size="10.00">+</text>
<text text-anchor="start" x="98.5" y="-239.5" font-family="Monaco" font-size="10.00">setValues()</text>
<text text-anchor="start" x="83.5" y="-224.5" font-family="Monaco" font-size="10.00">+</text>
<text text-anchor="start" x="98.5" y="-224.5" font-family="Monaco" font-size="10.00">~ITimeSeriesComponentData</text>
<text text-anchor="start" x="98.5" y="-213.5" font-family="Monaco" font-size="10.00">Item()</text>
<text text-anchor="start" x="98.5" y="-198.5" font-family="Monaco" font-size="10.00">and 12 more...</text>
<polygon fill="#666666" stroke="#666666" points="77.5,-395.5 77.5,-395.5 253.5,-395.5 253.5,-395.5 77.5,-395.5"/>
<polygon fill="#666666" stroke="#666666" points="77.5,-380.5 77.5,-380.5 253.5,-380.5 253.5,-380.5 77.5,-380.5"/>
<polygon fill="none" stroke="#666666" points="77.5,-191.5 77.5,-423.5 253.5,-423.5 253.5,-191.5 77.5,-191.5"/>
</a>
</g>
</g>
<!-- Node2&#45;&gt;Node1 -->
<g id="edge1_Node000001_Node000002" class="edge">
<title>Node2&#45;&gt;Node1</title>
<g id="a_edge1_Node000001_Node000002"><a xlink:title=" ">
<path fill="none" stroke="#63b8ff" d="M217.81,-182.2C225.23,-164.58 232.59,-147.08 239.26,-131.23"/>
<polygon fill="none" stroke="#63b8ff" points="214.58,-180.85 213.93,-191.42 221.03,-183.56 214.58,-180.85"/>
</a>
</g>
</g>
<!-- Node3 -->
<g id="Node000003" class="node">
<title>Node3</title>
<g id="a_Node000003"><a xlink:href="../../d8/d52/class_hydro_couple_1_1_i_component_data_item.html" target="_top" xlink:title="IComponentItem is a fundamental unit of data for a component.">
<polygon fill="white" stroke="transparent" points="258,-713 73,-713 73,-484 258,-484 258,-713"/>
<text text-anchor="start" x="78.5" y="-700.5" font-family="Monaco" font-size="10.00">HydroCouple::IComponentDataItem</text>
<text text-anchor="start" x="164" y="-685.5" font-family="Monaco" font-size="10.00"> </text>
<text text-anchor="start" x="88" y="-670.5" font-family="Monaco" font-size="10.00">+</text>
<text text-anchor="start" x="111.5" y="-670.5" font-family="Monaco" font-size="10.00">~IComponentDataItem()</text>
<text text-anchor="start" x="88" y="-655.5" font-family="Monaco" font-size="10.00">+</text>
<text text-anchor="start" x="111.5" y="-655.5" font-family="Monaco" font-size="10.00">modelComponent()</text>
<text text-anchor="start" x="88" y="-640.5" font-family="Monaco" font-size="10.00">+</text>
<text text-anchor="start" x="111.5" y="-640.5" font-family="Monaco" font-size="10.00">dimensions()</text>
<text text-anchor="start" x="88" y="-625.5" font-family="Monaco" font-size="10.00">+</text>
<text text-anchor="start" x="111.5" y="-625.5" font-family="Monaco" font-size="10.00">dimensionLength()</text>
<text text-anchor="start" x="88" y="-610.5" font-family="Monaco" font-size="10.00">+</text>
<text text-anchor="start" x="111.5" y="-610.5" font-family="Monaco" font-size="10.00">valueDefinition()</text>
<text text-anchor="start" x="88" y="-595.5" font-family="Monaco" font-size="10.00">+</text>
<text text-anchor="start" x="111.5" y="-595.5" font-family="Monaco" font-size="10.00">getValue()</text>
<text text-anchor="start" x="88" y="-580.5" font-family="Monaco" font-size="10.00">+</text>
<text text-anchor="start" x="111.5" y="-580.5" font-family="Monaco" font-size="10.00">getValues()</text>
<text text-anchor="start" x="88" y="-565.5" font-family="Monaco" font-size="10.00">+</text>
<text text-anchor="start" x="111.5" y="-565.5" font-family="Monaco" font-size="10.00">setValue()</text>
<text text-anchor="start" x="88" y="-550.5" font-family="Monaco" font-size="10.00">+</text>
<text text-anchor="start" x="111.5" y="-550.5" font-family="Monaco" font-size="10.00">setValues()</text>
<text text-anchor="start" x="88" y="-535.5" font-family="Monaco" font-size="10.00">+</text>
<text text-anchor="start" x="111.5" y="-535.5" font-family="Monaco" font-size="10.00">hasEditor()</text>
<text text-anchor="start" x="88" y="-520.5" font-family="Monaco" font-size="10.00">+</text>
<text text-anchor="start" x="111.5" y="-520.5" font-family="Monaco" font-size="10.00">showEditor()</text>
<text text-anchor="start" x="88" y="-505.5" font-family="Monaco" font-size="10.00">+</text>
<text text-anchor="start" x="111.5" y="-505.5" font-family="Monaco" font-size="10.00">hasViewer()</text>
<text text-anchor="start" x="88" y="-490.5" font-family="Monaco" font-size="10.00">+</text>
<text text-anchor="start" x="111.5" y="-490.5" font-family="Monaco" font-size="10.00">showViewer()</text>
<polygon fill="#666666" stroke="#666666" points="73.5,-695.5 73.5,-695.5 258.5,-695.5 258.5,-695.5 73.5,-695.5"/>
<polygon fill="#666666" stroke="#666666" points="73.5,-680.5 73.5,-680.5 258.5,-680.5 258.5,-680.5 73.5,-680.5"/>
<polygon fill="none" stroke="#666666" points="73,-484 73,-713 258,-713 258,-484 73,-484"/>
</a>
</g>
</g>
<!-- Node3&#45;&gt;Node2 -->
<g id="edge2_Node000002_Node000003" class="edge">
<title>Node3&#45;&gt;Node2</title>
<g id="a_edge2_Node000002_Node000003"><a xlink:title=" ">
<path fill="none" stroke="#63b8ff" d="M158.81,-473.45C158.71,-456.91 158.73,-440 158.88,-423.62"/>
<polygon fill="none" stroke="#63b8ff" points="155.31,-473.72 158.89,-483.69 162.31,-473.67 155.31,-473.72"/>
</a>
</g>
</g>
<!-- Node3&#45;&gt;Node2 -->
<g id="edge8_Node000002_Node000003" class="edge">
<title>Node3&#45;&gt;Node2</title>
<g id="a_edge8_Node000002_Node000003"><a xlink:title=" ">
<path fill="none" stroke="#63b8ff" d="M172.19,-473.45C172.29,-456.91 172.27,-440 172.12,-423.62"/>
<polygon fill="none" stroke="#63b8ff" points="168.69,-473.67 172.11,-483.69 175.69,-473.72 168.69,-473.67"/>
</a>
</g>
</g>
<!-- Node9 -->
<g id="Node000009" class="node">
<title>Node9</title>
<g id="a_Node000009"><a xlink:href="../../d4/d5c/class_hydro_couple_1_1_spatial_1_1_i_regular_grid2_d_component_data_item.html" target="_top" xlink:title="An IRegularGrid2DComponentDataItem represents an IRegularGrid2D IComponentItem.">
<polygon fill="white" stroke="transparent" points="465,-448 272,-448 272,-167 465,-167 465,-448"/>
<text text-anchor="start" x="277.5" y="-435.5" font-family="Monaco" font-size="10.00">HydroCouple::Spatial</text>
<text text-anchor="start" x="277.5" y="-424.5" font-family="Monaco" font-size="10.00">::IRegularGrid2DComponentDataItem</text>
<text text-anchor="start" x="367" y="-409.5" font-family="Monaco" font-size="10.00"> </text>
<text text-anchor="start" x="284.5" y="-394.5" font-family="Monaco" font-size="10.00">+</text>
<text text-anchor="start" x="305.5" y="-394.5" font-family="Monaco" font-size="10.00">~IRegularGrid2DComponent</text>
<text text-anchor="start" x="305.5" y="-383.5" font-family="Monaco" font-size="10.00">DataItem()</text>
<text text-anchor="start" x="284.5" y="-368.5" font-family="Monaco" font-size="10.00">+</text>
<text text-anchor="start" x="305.5" y="-368.5" font-family="Monaco" font-size="10.00">grid()</text>
<text text-anchor="start" x="284.5" y="-353.5" font-family="Monaco" font-size="10.00">+</text>
<text text-anchor="start" x="305.5" y="-353.5" font-family="Monaco" font-size="10.00">meshDataObjectType()</text>
<text text-anchor="start" x="284.5" y="-338.5" font-family="Monaco" font-size="10.00">+</text>
<text text-anchor="start" x="305.5" y="-338.5" font-family="Monaco" font-size="10.00">xCellDimension()</text>
<text text-anchor="start" x="284.5" y="-323.5" font-family="Monaco" font-size="10.00">+</text>
<text text-anchor="start" x="305.5" y="-323.5" font-family="Monaco" font-size="10.00">yCellDimension()</text>
<text text-anchor="start" x="284.5" y="-308.5" font-family="Monaco" font-size="10.00">+</text>
<text text-anchor="start" x="305.5" y="-308.5" font-family="Monaco" font-size="10.00">cellEdgeDimension()</text>
<text text-anchor="start" x="284.5" y="-293.5" font-family="Monaco" font-size="10.00">+</text>
<text text-anchor="start" x="305.5" y="-293.5" font-family="Monaco" font-size="10.00">cellVertexDimension()</text>
<text text-anchor="start" x="284.5" y="-278.5" font-family="Monaco" font-size="10.00">+</text>
<text text-anchor="start" x="305.5" y="-278.5" font-family="Monaco" font-size="10.00">getValue()</text>
<text text-anchor="start" x="284.5" y="-263.5" font-family="Monaco" font-size="10.00">+</text>
<text text-anchor="start" x="305.5" y="-263.5" font-family="Monaco" font-size="10.00">getValues()</text>
<text text-anchor="start" x="284.5" y="-248.5" font-family="Monaco" font-size="10.00">+</text>
<text text-anchor="start" x="305.5" y="-248.5" font-family="Monaco" font-size="10.00">setValue()</text>
<text text-anchor="start" x="284.5" y="-233.5" font-family="Monaco" font-size="10.00">+</text>
<text text-anchor="start" x="305.5" y="-233.5" font-family="Monaco" font-size="10.00">setValues()</text>
<text text-anchor="start" x="284.5" y="-218.5" font-family="Monaco" font-size="10.00">+</text>
<text text-anchor="start" x="305.5" y="-218.5" font-family="Monaco" font-size="10.00">getValue()</text>
<text text-anchor="start" x="284.5" y="-203.5" font-family="Monaco" font-size="10.00">+</text>
<text text-anchor="start" x="305.5" y="-203.5" font-family="Monaco" font-size="10.00">getValues()</text>
<text text-anchor="start" x="284.5" y="-188.5" font-family="Monaco" font-size="10.00">+</text>
<text text-anchor="start" x="305.5" y="-188.5" font-family="Monaco" font-size="10.00">setValue()</text>
<text text-anchor="start" x="284.5" y="-173.5" font-family="Monaco" font-size="10.00">+</text>
<text text-anchor="start" x="305.5" y="-173.5" font-family="Monaco" font-size="10.00">setValues()</text>
<polygon fill="#666666" stroke="#666666" points="272.5,-419.5 272.5,-419.5 465.5,-419.5 465.5,-419.5 272.5,-419.5"/>
<polygon fill="#666666" stroke="#666666" points="272.5,-404.5 272.5,-404.5 465.5,-404.5 465.5,-404.5 272.5,-404.5"/>
<polygon fill="none" stroke="#666666" points="272,-167 272,-448 465,-448 465,-167 272,-167"/>
</a>
</g>
</g>
<!-- Node3&#45;&gt;Node9 -->
<g id="edge10_Node000009_Node000003" class="edge">
<title>Node3&#45;&gt;Node9</title>
<g id="a_edge10_Node000009_Node000003"><a xlink:title=" ">
<path fill="none" stroke="#63b8ff" d="M251.35,-475.28C258.11,-465.65 264.97,-455.89 271.79,-446.18"/>
<polygon fill="none" stroke="#63b8ff" points="248.32,-473.5 245.44,-483.69 254.05,-477.52 248.32,-473.5"/>
</a>
</g>
</g>
<!-- Node4 -->
<g id="Node000004" class="node">
<title>Node4</title>
<g id="a_Node000004"><a xlink:href="../../d2/d2a/class_hydro_couple_1_1_i_identity.html" target="_top" xlink:title="IIdentity interface class defines a method to get the Id of an HydroCouple entity.">
<polygon fill="white" stroke="transparent" points="143.5,-846.5 23.5,-846.5 23.5,-782.5 143.5,-782.5 143.5,-846.5"/>
<text text-anchor="start" x="28.5" y="-834.5" font-family="Monaco" font-size="10.00">HydroCouple::IIdentity</text>
<text text-anchor="start" x="81.5" y="-819.5" font-family="Monaco" font-size="10.00"> </text>
<text text-anchor="start" x="38" y="-804.5" font-family="Monaco" font-size="10.00">+</text>
<text text-anchor="start" x="61.5" y="-804.5" font-family="Monaco" font-size="10.00">~IIdentity()</text>
<text text-anchor="start" x="38" y="-789.5" font-family="Monaco" font-size="10.00">+</text>
<text text-anchor="start" x="61.5" y="-789.5" font-family="Monaco" font-size="10.00">id()</text>
<polygon fill="#666666" stroke="#666666" points="23.5,-829.5 23.5,-829.5 143.5,-829.5 143.5,-829.5 23.5,-829.5"/>
<polygon fill="#666666" stroke="#666666" points="23.5,-814.5 23.5,-814.5 143.5,-814.5 143.5,-814.5 23.5,-814.5"/>
<polygon fill="none" stroke="#666666" points="23.5,-782.5 23.5,-846.5 143.5,-846.5 143.5,-782.5 23.5,-782.5"/>
</a>
</g>
</g>
<!-- Node4&#45;&gt;Node3 -->
<g id="edge3_Node000003_Node000004" class="edge">
<title>Node4&#45;&gt;Node3</title>
<g id="a_edge3_Node000003_Node000004"><a xlink:title=" ">
<path fill="none" stroke="#63b8ff" d="M99.13,-772.71C105.72,-755.5 113.76,-734.52 121.94,-713.19"/>
<polygon fill="none" stroke="#63b8ff" points="95.73,-771.79 95.42,-782.38 102.27,-774.3 95.73,-771.79"/>
</a>
</g>
</g>
<!-- Node5 -->
<g id="Node000005" class="node">
<title>Node5</title>
<g id="a_Node000005"><a xlink:href="../../db/d64/class_hydro_couple_1_1_i_description.html" target="_top" xlink:title="IDescription interface class provides descriptive information on a HydroCouple object.">
<polygon fill="white" stroke="transparent" points="152.5,-1025 14.5,-1025 14.5,-916 152.5,-916 152.5,-1025"/>
<text text-anchor="start" x="19.5" y="-1012.5" font-family="Monaco" font-size="10.00">HydroCouple::IDescription</text>
<text text-anchor="start" x="81.5" y="-997.5" font-family="Monaco" font-size="10.00"> </text>
<text text-anchor="start" x="28" y="-982.5" font-family="Monaco" font-size="10.00">+</text>
<text text-anchor="start" x="50.5" y="-982.5" font-family="Monaco" font-size="10.00">~IDescription()</text>
<text text-anchor="start" x="28" y="-967.5" font-family="Monaco" font-size="10.00">+</text>
<text text-anchor="start" x="50.5" y="-967.5" font-family="Monaco" font-size="10.00">caption()</text>
<text text-anchor="start" x="28" y="-952.5" font-family="Monaco" font-size="10.00">+</text>
<text text-anchor="start" x="50.5" y="-952.5" font-family="Monaco" font-size="10.00">setCaption()</text>
<text text-anchor="start" x="28" y="-937.5" font-family="Monaco" font-size="10.00">+</text>
<text text-anchor="start" x="50.5" y="-937.5" font-family="Monaco" font-size="10.00">description()</text>
<text text-anchor="start" x="28" y="-922.5" font-family="Monaco" font-size="10.00">+</text>
<text text-anchor="start" x="50.5" y="-922.5" font-family="Monaco" font-size="10.00">setDescription()</text>
<polygon fill="#666666" stroke="#666666" points="14.5,-1007.5 14.5,-1007.5 152.5,-1007.5 152.5,-1007.5 14.5,-1007.5"/>
<polygon fill="#666666" stroke="#666666" points="14.5,-992.5 14.5,-992.5 152.5,-992.5 152.5,-992.5 14.5,-992.5"/>
<polygon fill="none" stroke="#666666" points="14.5,-916 14.5,-1025 152.5,-1025 152.5,-916 14.5,-916"/>
</a>
</g>
</g>
<!-- Node5&#45;&gt;Node4 -->
<g id="edge4_Node000004_Node000005" class="edge">
<title>Node5&#45;&gt;Node4</title>
<g id="a_edge4_Node000004_Node000005"><a xlink:title=" ">
<path fill="none" stroke="#63b8ff" d="M83.5,-905.47C83.5,-885.15 83.5,-863.58 83.5,-846.66"/>
<polygon fill="none" stroke="#63b8ff" points="80,-905.64 83.5,-915.64 87,-905.64 80,-905.64"/>
</a>
</g>
</g>
<!-- Node6 -->
<g id="Node000006" class="node">
<title>Node6</title>
<g id="a_Node000006"><a xlink:href="../../dd/dbf/class_hydro_couple_1_1_i_property_changed.html" target="_top" xlink:title="IPropertyChanged interface is used to emit signal/event when a property of an object changes.">
<polygon fill="white" stroke="transparent" points="167,-1110 0,-1110 0,-1061 167,-1061 167,-1110"/>
<text text-anchor="start" x="5.5" y="-1097.5" font-family="Monaco" font-size="10.00">HydroCouple::IPropertyChanged</text>
<text text-anchor="start" x="82" y="-1082.5" font-family="Monaco" font-size="10.00"> </text>
<text text-anchor="start" x="15" y="-1067.5" font-family="Monaco" font-size="10.00">+</text>
<text text-anchor="start" x="38.5" y="-1067.5" font-family="Monaco" font-size="10.00">~IPropertyChanged()</text>
<polygon fill="#666666" stroke="#666666" points="0.5,-1092.5 0.5,-1092.5 167.5,-1092.5 167.5,-1092.5 0.5,-1092.5"/>
<polygon fill="#666666" stroke="#666666" points="0.5,-1077.5 0.5,-1077.5 167.5,-1077.5 167.5,-1077.5 0.5,-1077.5"/>
<polygon fill="none" stroke="#666666" points="0,-1061 0,-1110 167,-1110 167,-1061 0,-1061"/>
</a>
</g>
</g>
<!-- Node6&#45;&gt;Node5 -->
<g id="edge5_Node000005_Node000006" class="edge">
<title>Node6&#45;&gt;Node5</title>
<g id="a_edge5_Node000005_Node000006"><a xlink:title=" ">
<path fill="none" stroke="#63b8ff" d="M83.5,-1050.79C83.5,-1042.79 83.5,-1034.06 83.5,-1025.41"/>
<polygon fill="none" stroke="#63b8ff" points="80,-1050.81 83.5,-1060.81 87,-1050.81 80,-1050.81"/>
</a>
</g>
</g>
<!-- Node7 -->
<g id="Node000007" class="node">
<title>Node7</title>
<g id="a_Node000007"><a xlink:href="../../d5/d8b/class_hydro_couple_1_1_i_signal.html" target="_top" xlink:title=" ">
<polygon fill="white" stroke="transparent" points="140,-1266 27,-1266 27,-1146 140,-1146 140,-1266"/>
<text text-anchor="start" x="32.5" y="-1254" font-family="Monaco" font-size="10.00">HydroCouple::ISignal</text>
<text text-anchor="start" x="58.5" y="-1243" font-family="Monaco" font-size="10.00">&lt; string &gt;</text>
<text text-anchor="start" x="82" y="-1228" font-family="Monaco" font-size="10.00"> </text>
<text text-anchor="start" x="37" y="-1213" font-family="Monaco" font-size="10.00">+</text>
<text text-anchor="start" x="55.5" y="-1213" font-family="Monaco" font-size="10.00">~ISignal()</text>
<text text-anchor="start" x="37" y="-1198" font-family="Monaco" font-size="10.00">+</text>
<text text-anchor="start" x="55.5" y="-1198" font-family="Monaco" font-size="10.00">connect()</text>
<text text-anchor="start" x="37" y="-1183" font-family="Monaco" font-size="10.00">+</text>
<text text-anchor="start" x="55.5" y="-1183" font-family="Monaco" font-size="10.00">disconnect()</text>
<text text-anchor="start" x="37" y="-1168" font-family="Monaco" font-size="10.00">+</text>
<text text-anchor="start" x="55.5" y="-1168" font-family="Monaco" font-size="10.00">blockSignals()</text>
<text text-anchor="start" x="37" y="-1153" font-family="Monaco" font-size="10.00">#</text>
<text text-anchor="start" x="55.5" y="-1153" font-family="Monaco" font-size="10.00">emit()</text>
<polygon fill="#666666" stroke="#666666" points="27.5,-1238 27.5,-1238 140.5,-1238 140.5,-1238 27.5,-1238"/>
<polygon fill="#666666" stroke="#666666" points="27.5,-1223 27.5,-1223 140.5,-1223 140.5,-1223 27.5,-1223"/>
<polygon fill="none" stroke="#666666" points="27,-1146 27,-1266 140,-1266 140,-1146 27,-1146"/>
</a>
</g>
</g>
<!-- Node7&#45;&gt;Node6 -->
<g id="edge6_Node000006_Node000007" class="edge">
<title>Node7&#45;&gt;Node6</title>
<g id="a_edge6_Node000006_Node000007"><a xlink:title=" ">
<path fill="none" stroke="#63b8ff" d="M83.5,-1135.74C83.5,-1126.6 83.5,-1117.78 83.5,-1110.2"/>
<polygon fill="none" stroke="#63b8ff" points="80,-1135.75 83.5,-1145.75 87,-1135.75 80,-1135.75"/>
</a>
</g>
</g>
<!-- Node8 -->
<g id="Node000008" class="node">
<title>Node8</title>
<g id="a_Node000008"><a xlink:href="../../d5/d8b/class_hydro_couple_1_1_i_signal.html" target="_top" xlink:title=" ">
<polygon fill="white" stroke="transparent" points="335,-880 162,-880 162,-749 335,-749 335,-880"/>
<text text-anchor="start" x="167.5" y="-867.5" font-family="Monaco" font-size="10.00">HydroCouple::ISignal</text>
<text text-anchor="start" x="167.5" y="-856.5" font-family="Monaco" font-size="10.00">&lt; const shared_ptr&lt; IComponent</text>
<text text-anchor="start" x="174.5" y="-845.5" font-family="Monaco" font-size="10.00">DataItemValueChanged &gt; &amp; &gt;</text>
<text text-anchor="start" x="247" y="-830.5" font-family="Monaco" font-size="10.00"> </text>
<text text-anchor="start" x="187" y="-815.5" font-family="Monaco" font-size="10.00">+</text>
<text text-anchor="start" x="220.5" y="-815.5" font-family="Monaco" font-size="10.00">~ISignal()</text>
<text text-anchor="start" x="187" y="-800.5" font-family="Monaco" font-size="10.00">+</text>
<text text-anchor="start" x="220.5" y="-800.5" font-family="Monaco" font-size="10.00">connect()</text>
<text text-anchor="start" x="187" y="-785.5" font-family="Monaco" font-size="10.00">+</text>
<text text-anchor="start" x="220.5" y="-785.5" font-family="Monaco" font-size="10.00">disconnect()</text>
<text text-anchor="start" x="187" y="-770.5" font-family="Monaco" font-size="10.00">+</text>
<text text-anchor="start" x="220.5" y="-770.5" font-family="Monaco" font-size="10.00">blockSignals()</text>
<text text-anchor="start" x="187" y="-755.5" font-family="Monaco" font-size="10.00">#</text>
<text text-anchor="start" x="220.5" y="-755.5" font-family="Monaco" font-size="10.00">emit()</text>
<polygon fill="#666666" stroke="#666666" points="162.5,-840.5 162.5,-840.5 335.5,-840.5 335.5,-840.5 162.5,-840.5"/>
<polygon fill="#666666" stroke="#666666" points="162.5,-825.5 162.5,-825.5 335.5,-825.5 335.5,-825.5 162.5,-825.5"/>
<polygon fill="none" stroke="#666666" points="162,-749 162,-880 335,-880 335,-749 162,-749"/>
</a>
</g>
</g>
<!-- Node8&#45;&gt;Node3 -->
<g id="edge7_Node000003_Node000008" class="edge">
<title>Node8&#45;&gt;Node3</title>
<g id="a_edge7_Node000003_Node000008"><a xlink:title=" ">
<path fill="none" stroke="#63b8ff" d="M219.71,-739.27C216.42,-730.79 213.01,-721.99 209.58,-713.14"/>
<polygon fill="none" stroke="#63b8ff" points="216.49,-740.65 223.37,-748.71 223.02,-738.12 216.49,-740.65"/>
</a>
</g>
</g>
<!-- Node9&#45;&gt;Node1 -->
<g id="edge9_Node000001_Node000009" class="edge">
<title>Node9&#45;&gt;Node1</title>
<g id="a_edge9_Node000001_Node000009"><a xlink:title=" ">
<path fill="none" stroke="#63b8ff" d="M305.25,-157.67C301.36,-148.52 297.57,-139.61 293.99,-131.17"/>
<polygon fill="none" stroke="#63b8ff" points="302.03,-159.06 309.17,-166.89 308.48,-156.32 302.03,-159.06"/>
</a>
</g>
</g>
</g>
</svg>
