<?xml version="1.0" encoding="UTF-8" standalone="no"?>
<!DOCTYPE svg PUBLIC "-//W3C//DTD SVG 1.1//EN"
 "http://www.w3.org/Graphics/SVG/1.1/DTD/svg11.dtd">
<!-- Generated by graphviz version 2.43.0 (0)
 -->
<!-- Title: HydroCouple::IIdentity Pages: 1 -->
<svg width="204pt" height="342pt"
 viewBox="0.00 0.00 204.00 342.00" xmlns="http://www.w3.org/2000/svg" xmlns:xlink="http://www.w3.org/1999/xlink">
<g id="graph0" class="graph" transform="scale(1 1) rotate(0) translate(4 338)">
<title>HydroCouple::IIdentity</title>
<!-- Node1 -->
<g id="node1" class="node">
<title>Node1</title>
<g id="a_node1"><a xlink:title="IIdentity interface class defines a method to get the Id of an HydroCouple entity.">
<polygon fill="#bfbfbf" stroke="black" points="35,-0.5 35,-68.5 161,-68.5 161,-0.5 35,-0.5"/>
<text text-anchor="middle" x="98" y="-56.5" font-family="Monaco" font-size="10.00">HydroCouple::IIdentity</text>
<polyline fill="none" stroke="black" points="35,-49.5 161,-49.5 "/>
<text text-anchor="middle" x="98" y="-37.5" font-family="Monaco" font-size="10.00"> </text>
<polyline fill="none" stroke="black" points="35,-30.5 161,-30.5 "/>
<text text-anchor="start" x="43" y="-18.5" font-family="Monaco" font-size="10.00">+ ~IIdentity()</text>
<text text-anchor="start" x="43" y="-7.5" font-family="Monaco" font-size="10.00">+ id()</text>
</a>
</g>
</g>
<!-- Node2 -->
<g id="node2" class="node">
<title>Node2</title>
<g id="a_node2"><a xlink:href="../../db/d64/class_hydro_couple_1_1_i_description.html" target="_top" xlink:title="IDescription interface class provides descriptive information on a HydroCouple object.">
<polygon fill="none" stroke="black" points="26,-105.5 26,-206.5 170,-206.5 170,-105.5 26,-105.5"/>
<text text-anchor="middle" x="98" y="-194.5" font-family="Monaco" font-size="10.00">HydroCouple::IDescription</text>
<polyline fill="none" stroke="black" points="26,-187.5 170,-187.5 "/>
<text text-anchor="middle" x="98" y="-175.5" font-family="Monaco" font-size="10.00"> </text>
<polyline fill="none" stroke="black" points="26,-168.5 170,-168.5 "/>
<text text-anchor="start" x="34" y="-156.5" font-family="Monaco" font-size="10.00">+ ~IDescription()</text>
<text text-anchor="start" x="34" y="-145.5" font-family="Monaco" font-size="10.00">+ caption()</text>
<text text-anchor="start" x="34" y="-134.5" font-family="Monaco" font-size="10.00">+ setCaption()</text>
<text text-anchor="start" x="34" y="-123.5" font-family="Monaco" font-size="10.00">+ description()</text>
<text text-anchor="start" x="34" y="-112.5" font-family="Monaco" font-size="10.00">+ setDescription()</text>
</a>
</g>
</g>
<!-- Node2&#45;&gt;Node1 -->
<g id="edge1" class="edge">
<title>Node2&#45;&gt;Node1</title>
<path fill="none" stroke="midnightblue" d="M98,-95.17C98,-86.11 98,-77.05 98,-68.83"/>
<polygon fill="none" stroke="midnightblue" points="94.5,-95.36 98,-105.36 101.5,-95.36 94.5,-95.36"/>
</g>
<!-- Node3 -->
<g id="node3" class="node">
<title>Node3</title>
<g id="a_node3"><a xlink:href="../../dd/dbf/class_hydro_couple_1_1_i_property_changed.html" target="_top" xlink:title="IPropertyChanged interface is used to emit signal/event when a property of an object changes.">
<polygon fill="none" stroke="black" points="0,-243.5 0,-333.5 196,-333.5 196,-243.5 0,-243.5"/>
<text text-anchor="middle" x="98" y="-321.5" font-family="Monaco" font-size="10.00">HydroCouple::IPropertyChanged</text>
<polyline fill="none" stroke="black" points="0,-314.5 196,-314.5 "/>
<text text-anchor="middle" x="98" y="-302.5" font-family="Monaco" font-size="10.00"> </text>
<polyline fill="none" stroke="black" points="0,-295.5 196,-295.5 "/>
<text text-anchor="start" x="8" y="-283.5" font-family="Monaco" font-size="10.00">+ ~IPropertyChanged()</text>
<text text-anchor="start" x="8" y="-272.5" font-family="Monaco" font-size="10.00">+ registerPropertyChangedListener()</text>
<text text-anchor="start" x="8" y="-261.5" font-family="Monaco" font-size="10.00">+ deRegisterPropertyChanged</text>
<text text-anchor="start" x="8" y="-250.5" font-family="Monaco" font-size="10.00">Listener()</text>
</a>
</g>
</g>
<!-- Node3&#45;&gt;Node2 -->
<g id="edge2" class="edge">
<title>Node3&#45;&gt;Node2</title>
<path fill="none" stroke="midnightblue" d="M98,-233.13C98,-224.31 98,-215.22 98,-206.52"/>
<polygon fill="none" stroke="midnightblue" points="94.5,-233.32 98,-243.32 101.5,-233.32 94.5,-233.32"/>
</g>
</g>
</svg>
