<?xml version="1.0" encoding="UTF-8" standalone="no"?>
<!DOCTYPE svg PUBLIC "-//W3C//DTD SVG 1.1//EN"
 "http://www.w3.org/Graphics/SVG/1.1/DTD/svg11.dtd">
<!-- Generated by graphviz version 2.38.0 (20140413.2041)
 -->
<!-- Title: /Users/calebbuahin/Documents/Projects/HydroCouple/HydroCoupleSDK/include/abstractmodelcomponent.h Pages: 1 -->
<svg width="292pt" height="277pt"
 viewBox="0.00 0.00 291.55 277.00" xmlns="http://www.w3.org/2000/svg" xmlns:xlink="http://www.w3.org/1999/xlink">
<g id="graph0" class="graph" transform="scale(1 1) rotate(0) translate(4 273)">
<title>/Users/calebbuahin/Documents/Projects/HydroCouple/HydroCoupleSDK/include/abstractmodelcomponent.h</title>
<polygon fill="white" stroke="none" points="-4,4 -4,-273 287.555,-273 287.555,4 -4,4"/>
<!-- Node1 -->
<g id="node1" class="node"><title>Node1</title>
<polygon fill="#bfbfbf" stroke="black" points="20.2563,-220.5 20.2563,-268.5 194.127,-268.5 194.127,-220.5 20.2563,-220.5"/>
<text text-anchor="start" x="28.2563" y="-256.5" font-family="Helvetica,sans-Serif" font-size="10.00">/Users/calebbuahin</text>
<text text-anchor="start" x="28.2563" y="-246.5" font-family="Helvetica,sans-Serif" font-size="10.00">/Documents/Projects</text>
<text text-anchor="start" x="28.2563" y="-236.5" font-family="Helvetica,sans-Serif" font-size="10.00">/HydroCouple/HydroCoupleSDK</text>
<text text-anchor="middle" x="107.192" y="-226.5" font-family="Helvetica,sans-Serif" font-size="10.00">/include/abstractmodelcomponent.h</text>
</g>
<!-- Node2 -->
<g id="node2" class="node"><title>Node2</title>
<g id="a_node2"><a xlink:href="identity_8h_source.html" target="_top" xlink:title="identity.h">
<polygon fill="white" stroke="black" points="79.5483,-165.5 79.5483,-183.5 134.835,-183.5 134.835,-165.5 79.5483,-165.5"/>
<text text-anchor="middle" x="107.192" y="-171.5" font-family="Helvetica,sans-Serif" font-size="10.00">identity.h</text>
</a>
</g>
</g>
<!-- Node1&#45;&gt;Node2 -->
<g id="edge1" class="edge"><title>Node1&#45;&gt;Node2</title>
<path fill="none" stroke="midnightblue" d="M107.192,-220.478C107.192,-211.684 107.192,-201.792 107.192,-193.528"/>
<polygon fill="midnightblue" stroke="midnightblue" points="110.692,-193.526 107.192,-183.526 103.692,-193.526 110.692,-193.526"/>
</g>
<!-- Node3 -->
<g id="node3" class="node"><title>Node3</title>
<g id="a_node3"><a xlink:href="hydrocouplesdk_8h_source.html" target="_top" xlink:title="hydrocouplesdk.h">
<polygon fill="white" stroke="black" points="0,-55.5 0,-73.5 94.3838,-73.5 94.3838,-55.5 0,-55.5"/>
<text text-anchor="middle" x="47.1919" y="-61.5" font-family="Helvetica,sans-Serif" font-size="10.00">hydrocouplesdk.h</text>
</a>
</g>
</g>
<!-- Node2&#45;&gt;Node3 -->
<g id="edge2" class="edge"><title>Node2&#45;&gt;Node3</title>
<path fill="none" stroke="midnightblue" d="M102.682,-165.382C92.9527,-147.869 69.8131,-106.218 56.6944,-82.6045"/>
<polygon fill="midnightblue" stroke="midnightblue" points="59.67,-80.7536 51.754,-73.7118 53.5509,-84.1531 59.67,-80.7536"/>
</g>
<!-- Node5 -->
<g id="node5" class="node"><title>Node5</title>
<g id="a_node5"><a xlink:href="description_8h_source.html" target="_top" xlink:title="description.h">
<polygon fill="white" stroke="black" points="102.842,-110.5 102.842,-128.5 175.542,-128.5 175.542,-110.5 102.842,-110.5"/>
<text text-anchor="middle" x="139.192" y="-116.5" font-family="Helvetica,sans-Serif" font-size="10.00">description.h</text>
</a>
</g>
</g>
<!-- Node2&#45;&gt;Node5 -->
<g id="edge4" class="edge"><title>Node2&#45;&gt;Node5</title>
<path fill="none" stroke="midnightblue" d="M112.192,-165.219C116.68,-157.786 123.406,-146.646 129.022,-137.345"/>
<polygon fill="midnightblue" stroke="midnightblue" points="132.159,-138.919 134.332,-128.55 126.167,-135.301 132.159,-138.919"/>
</g>
<!-- Node4 -->
<g id="node4" class="node"><title>Node4</title>
<polygon fill="white" stroke="#bfbfbf" points="77.3916,-0.5 77.3916,-18.5 168.992,-18.5 168.992,-0.5 77.3916,-0.5"/>
<text text-anchor="middle" x="123.192" y="-6.5" font-family="Helvetica,sans-Serif" font-size="10.00">QtCore/qglobal.h</text>
</g>
<!-- Node3&#45;&gt;Node4 -->
<g id="edge3" class="edge"><title>Node3&#45;&gt;Node4</title>
<path fill="none" stroke="midnightblue" d="M58.7347,-55.4504C70.4525,-47.2788 88.8336,-34.4604 102.974,-24.5996"/>
<polygon fill="midnightblue" stroke="midnightblue" points="105.34,-27.2163 111.541,-18.6253 101.336,-21.4746 105.34,-27.2163"/>
</g>
<!-- Node5&#45;&gt;Node3 -->
<g id="edge7" class="edge"><title>Node5&#45;&gt;Node3</title>
<path fill="none" stroke="midnightblue" d="M125.219,-110.45C110.629,-102.045 87.5055,-88.7241 70.2124,-78.7618"/>
<polygon fill="midnightblue" stroke="midnightblue" points="71.7084,-75.5844 61.2962,-73.6253 68.2141,-81.6499 71.7084,-75.5844"/>
</g>
<!-- Node6 -->
<g id="node6" class="node"><title>Node6</title>
<polygon fill="white" stroke="#bfbfbf" points="112.852,-55.5 112.852,-73.5 165.532,-73.5 165.532,-55.5 112.852,-55.5"/>
<text text-anchor="middle" x="139.192" y="-61.5" font-family="Helvetica,sans-Serif" font-size="10.00">QObject</text>
</g>
<!-- Node5&#45;&gt;Node6 -->
<g id="edge5" class="edge"><title>Node5&#45;&gt;Node6</title>
<path fill="none" stroke="midnightblue" d="M139.192,-110.219C139.192,-103.177 139.192,-92.8083 139.192,-83.8277"/>
<polygon fill="midnightblue" stroke="midnightblue" points="142.692,-83.5495 139.192,-73.5496 135.692,-83.5496 142.692,-83.5495"/>
</g>
<!-- Node7 -->
<g id="node7" class="node"><title>Node7</title>
<polygon fill="white" stroke="#bfbfbf" points="228.829,-0.5 228.829,-18.5 283.555,-18.5 283.555,-0.5 228.829,-0.5"/>
<text text-anchor="middle" x="256.192" y="-6.5" font-family="Helvetica,sans-Serif" font-size="10.00">QVariant</text>
</g>
<!-- Node5&#45;&gt;Node7 -->
<g id="edge6" class="edge"><title>Node5&#45;&gt;Node7</title>
<path fill="none" stroke="midnightblue" d="M175.62,-117.281C206.674,-114.079 249.608,-104.054 271.192,-74 280.976,-60.3771 274.424,-41.2709 267.161,-27.5811"/>
<polygon fill="midnightblue" stroke="midnightblue" points="270.046,-25.5825 261.969,-18.726 264.008,-29.1229 270.046,-25.5825"/>
</g>
<!-- Node8 -->
<g id="node8" class="node"><title>Node8</title>
<g id="a_node8"><a xlink:href="hydrocouple_8h.html" target="_top" xlink:title="hydrocouple.h">
<polygon fill="white" stroke="black" points="183.781,-55.5 183.781,-73.5 262.603,-73.5 262.603,-55.5 183.781,-55.5"/>
<text text-anchor="middle" x="223.192" y="-61.5" font-family="Helvetica,sans-Serif" font-size="10.00">hydrocouple.h</text>
</a>
</g>
</g>
<!-- Node5&#45;&gt;Node8 -->
<g id="edge8" class="edge"><title>Node5&#45;&gt;Node8</title>
<path fill="none" stroke="midnightblue" d="M151.95,-110.45C165.148,-102.123 185.994,-88.9704 201.733,-79.0394"/>
<polygon fill="midnightblue" stroke="midnightblue" points="203.724,-81.9216 210.314,-73.6253 199.989,-76.0014 203.724,-81.9216"/>
</g>
<!-- Node8&#45;&gt;Node4 -->
<g id="edge9" class="edge"><title>Node8&#45;&gt;Node4</title>
<path fill="none" stroke="midnightblue" d="M208.004,-55.4504C191.925,-46.9286 166.311,-33.3532 147.435,-23.3487"/>
<polygon fill="midnightblue" stroke="midnightblue" points="148.997,-20.2158 138.523,-18.6253 145.719,-26.4008 148.997,-20.2158"/>
</g>
<!-- Node8&#45;&gt;Node7 -->
<g id="edge10" class="edge"><title>Node8&#45;&gt;Node7</title>
<path fill="none" stroke="midnightblue" d="M228.348,-55.2188C233.025,-47.7074 240.059,-36.411 245.886,-27.0515"/>
<polygon fill="midnightblue" stroke="midnightblue" points="248.865,-28.8885 251.18,-18.5496 242.923,-25.1886 248.865,-28.8885"/>
</g>
</g>
</svg>
