<?xml version="1.0" encoding="UTF-8" standalone="no"?>
<!DOCTYPE svg PUBLIC "-//W3C//DTD SVG 1.1//EN"
 "http://www.w3.org/Graphics/SVG/1.1/DTD/svg11.dtd">
<!-- Generated by graphviz version 2.38.0 (20140413.2041)
 -->
<!-- Title: HydroCouple::Spatial::IPolyhedralSurfaceExchangeItem Pages: 1 -->
<svg width="430pt" height="738pt"
 viewBox="0.00 0.00 430.03 738.05" xmlns="http://www.w3.org/2000/svg" xmlns:xlink="http://www.w3.org/1999/xlink">
<g id="graph0" class="graph" transform="scale(1 1) rotate(0) translate(4 734.049)">
<title>HydroCouple::Spatial::IPolyhedralSurfaceExchangeItem</title>
<polygon fill="white" stroke="none" points="-4,4 -4,-734.049 426.03,-734.049 426.03,4 -4,4"/>
<!-- Node1 -->
<g id="node1" class="node"><title>Node1</title>
<polygon fill="#bfbfbf" stroke="black" points="82.9956,-0.5 82.9956,-77.8398 309.03,-77.8398 309.03,-0.5 82.9956,-0.5"/>
<text text-anchor="start" x="90.9956" y="-65.8398" font-family="Monaco" font-size="10.00">HydroCouple::Spatial</text>
<text text-anchor="middle" x="196.013" y="-52.5049" font-family="Monaco" font-size="10.00">::IPolyhedralSurfaceExchangeItem</text>
<polyline fill="none" stroke="black" points="82.9956,-43.1699 309.03,-43.1699 "/>
<text text-anchor="middle" x="196.013" y="-31.1699" font-family="Monaco" font-size="10.00"> </text>
<polyline fill="none" stroke="black" points="82.9956,-21.835 309.03,-21.835 "/>
<text text-anchor="start" x="90.9956" y="-9.83496" font-family="Monaco" font-size="10.00">+ ~IPolyhedralSurfaceExchangeItem()</text>
</g>
<!-- Node2 -->
<g id="node2" class="node"><title>Node2</title>
<g id="a_node2"><a xlink:href="class_hydro_couple_1_1_i_exchange_item.html" target="_top" xlink:title="IExchangeItem the base data item the can be exchanged between components at runtime. ">
<polygon fill="white" stroke="black" points="0,-134.842 0,-212.182 172.025,-212.182 172.025,-134.842 0,-134.842"/>
<text text-anchor="middle" x="86.0127" y="-200.182" font-family="Monaco" font-size="10.00">HydroCouple::IExchangeItem</text>
<polyline fill="none" stroke="black" points="0,-190.847 172.025,-190.847 "/>
<text text-anchor="middle" x="86.0127" y="-178.847" font-family="Monaco" font-size="10.00"> </text>
<polyline fill="none" stroke="black" points="0,-169.512 172.025,-169.512 "/>
<text text-anchor="start" x="8" y="-157.512" font-family="Monaco" font-size="10.00">+ ~IExchangeItem()</text>
<text text-anchor="start" x="8" y="-144.177" font-family="Monaco" font-size="10.00">+ itemChanged()</text>
</a>
</g>
</g>
<!-- Node2&#45;&gt;Node1 -->
<g id="edge1" class="edge"><title>Node2&#45;&gt;Node1</title>
<path fill="none" stroke="midnightblue" d="M124.258,-126.499C137.396,-110.693 151.944,-93.19 164.487,-78.0994"/>
<polygon fill="none" stroke="midnightblue" points="121.235,-124.661 117.534,-134.588 126.618,-129.135 121.235,-124.661"/>
</g>
<!-- Node3 -->
<g id="node3" class="node"><title>Node3</title>
<g id="a_node3"><a xlink:href="class_hydro_couple_1_1_i_component_item.html" target="_top" xlink:title="IComponentItem is a fundamental unit of data for a component. ">
<polygon fill="white" stroke="black" points="107,-269.185 107,-359.859 285.026,-359.859 285.026,-269.185 107,-269.185"/>
<text text-anchor="middle" x="196.013" y="-347.859" font-family="Monaco" font-size="10.00">HydroCouple::IComponentItem</text>
<polyline fill="none" stroke="black" points="107,-338.524 285.026,-338.524 "/>
<text text-anchor="middle" x="196.013" y="-326.524" font-family="Monaco" font-size="10.00"> </text>
<polyline fill="none" stroke="black" points="107,-317.189 285.026,-317.189 "/>
<text text-anchor="start" x="115" y="-305.189" font-family="Monaco" font-size="10.00">+ ~IComponentItem()</text>
<text text-anchor="start" x="115" y="-291.854" font-family="Monaco" font-size="10.00">+ modelComponent()</text>
<text text-anchor="start" x="115" y="-278.52" font-family="Monaco" font-size="10.00">+ dimensions()</text>
</a>
</g>
</g>
<!-- Node3&#45;&gt;Node2 -->
<g id="edge2" class="edge"><title>Node3&#45;&gt;Node2</title>
<path fill="none" stroke="midnightblue" d="M154.692,-261.304C141.834,-245.055 127.911,-227.46 115.983,-212.387"/>
<polygon fill="none" stroke="midnightblue" points="151.956,-263.486 160.906,-269.156 157.445,-259.143 151.956,-263.486"/>
</g>
<!-- Node7 -->
<g id="node7" class="node"><title>Node7</title>
<g id="a_node7"><a xlink:href="class_hydro_couple_1_1_spatial_1_1_i_polyhedral_surface_component_item.html" target="_top" xlink:title="IPolyhedralSurfaceComponentItem represents IPolyhedralSurface IComponentItem. ">
<polygon fill="white" stroke="black" points="189.995,-114.84 189.995,-232.185 422.03,-232.185 422.03,-114.84 189.995,-114.84"/>
<text text-anchor="start" x="197.995" y="-220.185" font-family="Monaco" font-size="10.00">HydroCouple::Spatial</text>
<text text-anchor="middle" x="306.013" y="-206.85" font-family="Monaco" font-size="10.00">::IPolyhedralSurfaceComponentItem</text>
<polyline fill="none" stroke="black" points="189.995,-197.515 422.03,-197.515 "/>
<text text-anchor="middle" x="306.013" y="-185.515" font-family="Monaco" font-size="10.00"> </text>
<polyline fill="none" stroke="black" points="189.995,-176.18 422.03,-176.18 "/>
<text text-anchor="start" x="197.995" y="-164.18" font-family="Monaco" font-size="10.00">+ ~IPolyhedralSurfaceComponentItem()</text>
<text text-anchor="start" x="197.995" y="-150.845" font-family="Monaco" font-size="10.00">+ patchDimension()</text>
<text text-anchor="start" x="197.995" y="-137.51" font-family="Monaco" font-size="10.00">+ polyhedralSurface()</text>
<text text-anchor="start" x="197.995" y="-124.175" font-family="Monaco" font-size="10.00">+ geometry()</text>
</a>
</g>
</g>
<!-- Node3&#45;&gt;Node7 -->
<g id="edge7" class="edge"><title>Node3&#45;&gt;Node7</title>
<path fill="none" stroke="midnightblue" d="M237.521,-261.067C244.923,-251.713 252.673,-241.919 260.187,-232.423"/>
<polygon fill="none" stroke="midnightblue" points="234.581,-259.143 231.12,-269.156 240.07,-263.486 234.581,-259.143"/>
</g>
<!-- Node4 -->
<g id="node4" class="node"><title>Node4</title>
<g id="a_node4"><a xlink:href="class_hydro_couple_1_1_i_identity.html" target="_top" xlink:title="IIdentity interface class defines a method to get the Id of an HydroCouple entity. ">
<polygon fill="white" stroke="black" points="122.002,-396.859 122.002,-474.199 270.023,-474.199 270.023,-396.859 122.002,-396.859"/>
<text text-anchor="middle" x="196.013" y="-462.199" font-family="Monaco" font-size="10.00">HydroCouple::IIdentity</text>
<polyline fill="none" stroke="black" points="122.002,-452.864 270.023,-452.864 "/>
<text text-anchor="middle" x="196.013" y="-440.864" font-family="Monaco" font-size="10.00"> </text>
<polyline fill="none" stroke="black" points="122.002,-431.529 270.023,-431.529 "/>
<text text-anchor="start" x="130.002" y="-419.529" font-family="Monaco" font-size="10.00">+ ~IIdentity()</text>
<text text-anchor="start" x="130.002" y="-406.194" font-family="Monaco" font-size="10.00">+ id()</text>
</a>
</g>
</g>
<!-- Node4&#45;&gt;Node3 -->
<g id="edge3" class="edge"><title>Node4&#45;&gt;Node3</title>
<path fill="none" stroke="midnightblue" d="M196.013,-386.54C196.013,-377.841 196.013,-368.801 196.013,-360.202"/>
<polygon fill="none" stroke="midnightblue" points="192.513,-386.547 196.013,-396.547 199.513,-386.547 192.513,-386.547"/>
</g>
<!-- Node5 -->
<g id="node5" class="node"><title>Node5</title>
<g id="a_node5"><a xlink:href="class_hydro_couple_1_1_i_description.html" target="_top" xlink:title="IDescription interface class provides descriptive information on a HydroCouple object. ">
<polygon fill="white" stroke="black" points="113,-511.199 113,-628.544 279.025,-628.544 279.025,-511.199 113,-511.199"/>
<text text-anchor="middle" x="196.013" y="-616.544" font-family="Monaco" font-size="10.00">HydroCouple::IDescription</text>
<polyline fill="none" stroke="black" points="113,-607.209 279.025,-607.209 "/>
<text text-anchor="middle" x="196.013" y="-595.209" font-family="Monaco" font-size="10.00"> </text>
<polyline fill="none" stroke="black" points="113,-585.874 279.025,-585.874 "/>
<text text-anchor="start" x="121" y="-573.874" font-family="Monaco" font-size="10.00">+ ~IDescription()</text>
<text text-anchor="start" x="121" y="-560.539" font-family="Monaco" font-size="10.00">+ getCaption()</text>
<text text-anchor="start" x="121" y="-547.204" font-family="Monaco" font-size="10.00">+ setCaption()</text>
<text text-anchor="start" x="121" y="-533.869" font-family="Monaco" font-size="10.00">+ getDescription()</text>
<text text-anchor="start" x="121" y="-520.534" font-family="Monaco" font-size="10.00">+ setDescription()</text>
</a>
</g>
</g>
<!-- Node5&#45;&gt;Node4 -->
<g id="edge4" class="edge"><title>Node5&#45;&gt;Node4</title>
<path fill="none" stroke="midnightblue" d="M196.013,-500.633C196.013,-491.594 196.013,-482.607 196.013,-474.347"/>
<polygon fill="none" stroke="midnightblue" points="192.513,-500.824 196.013,-510.824 199.513,-500.824 192.513,-500.824"/>
</g>
<!-- Node6 -->
<g id="node6" class="node"><title>Node6</title>
<g id="a_node6"><a xlink:href="class_hydro_couple_1_1_i_property_changed.html" target="_top" xlink:title="IPropertyChanged interface is used to emit signal/event when a property of an object changes...">
<polygon fill="white" stroke="black" points="100.999,-665.544 100.999,-729.549 291.027,-729.549 291.027,-665.544 100.999,-665.544"/>
<text text-anchor="middle" x="196.013" y="-717.549" font-family="Monaco" font-size="10.00">HydroCouple::IPropertyChanged</text>
<polyline fill="none" stroke="black" points="100.999,-708.214 291.027,-708.214 "/>
<text text-anchor="middle" x="196.013" y="-696.214" font-family="Monaco" font-size="10.00"> </text>
<polyline fill="none" stroke="black" points="100.999,-686.879 291.027,-686.879 "/>
<text text-anchor="start" x="108.999" y="-674.879" font-family="Monaco" font-size="10.00">+ ~IPropertyChanged()</text>
</a>
</g>
</g>
<!-- Node6&#45;&gt;Node5 -->
<g id="edge5" class="edge"><title>Node6&#45;&gt;Node5</title>
<path fill="none" stroke="midnightblue" d="M196.013,-655.224C196.013,-646.838 196.013,-637.872 196.013,-629.03"/>
<polygon fill="none" stroke="midnightblue" points="192.513,-655.481 196.013,-665.481 199.513,-655.481 192.513,-655.481"/>
</g>
<!-- Node7&#45;&gt;Node1 -->
<g id="edge6" class="edge"><title>Node7&#45;&gt;Node1</title>
<path fill="none" stroke="midnightblue" d="M251.234,-106.607C243.071,-96.7867 234.902,-86.9583 227.446,-77.9873"/>
<polygon fill="none" stroke="midnightblue" points="248.681,-109.012 257.765,-114.465 254.065,-104.537 248.681,-109.012"/>
</g>
</g>
</svg>
