<?xml version="1.0" encoding="UTF-8" standalone="no"?>
<!DOCTYPE svg PUBLIC "-//W3C//DTD SVG 1.1//EN"
 "http://www.w3.org/Graphics/SVG/1.1/DTD/svg11.dtd">
<!-- Generated by graphviz version 2.38.0 (20140413.2041)
 -->
<!-- Title: HydroCouple::Spatial::IRasterExhangeItem Pages: 1 -->
<!--zoomable 759 -->
<svg id="main" version="1.1" xmlns="http://www.w3.org/2000/svg" xmlns:xlink="http://www.w3.org/1999/xlink" xml:space="preserve" onload="init(evt)">
<style type="text/css"><![CDATA[
.edge:hover path { stroke: red; }
.edge:hover polygon { stroke: red; fill: red; }
]]></style>
<script type="text/javascript"><![CDATA[
var edges = document.getElementsByTagName('g');
if (edges && edges.length) {
  for (var i=0;i<edges.length;i++) {
    if (edges[i].id.substr(0,4)=='edge') {
      edges[i].setAttribute('class','edge');
    }
  }
}
]]></script>
        <defs>
                <circle id="rim" cx="0" cy="0" r="7"/>
                <circle id="rim2" cx="0" cy="0" r="3.5"/>
                <g id="zoomPlus">
                        <use xlink:href="#rim" fill="#404040">
                                <set attributeName="fill" to="#808080" begin="zoomplus.mouseover" end="zoomplus.mouseout"/>
                        </use>
                        <path d="M-4,0h8M0,-4v8" fill="none" stroke="white" stroke-width="1.5" pointer-events="none"/>
                </g>
                <g id="zoomMin">
                        <use xlink:href="#rim" fill="#404040">
                                <set attributeName="fill" to="#808080" begin="zoomminus.mouseover" end="zoomminus.mouseout"/>
                        </use>
                        <path d="M-4,0h8" fill="none" stroke="white" stroke-width="1.5" pointer-events="none"/>
                </g>
                <g id="dirArrow">
                        <path fill="none" stroke="white" stroke-width="1.5" d="M0,-3.0v7 M-2.5,-0.5L0,-3.0L2.5,-0.5"/>
                </g>
               <g id="resetDef">
                       <use xlink:href="#rim2" fill="#404040">
                               <set attributeName="fill" to="#808080" begin="reset.mouseover" end="reset.mouseout"/>
                       </use>
               </g>
        </defs>

<script type="text/javascript">
var viewWidth = 314;
var viewHeight = 759;
var sectionId = 'dynsection-0';
</script>
<script xlink:href="svgpan.js"/>
<svg id="graph" class="graph">
<g id="viewport">
<title>HydroCouple::Spatial::IRasterExhangeItem</title>
<polygon fill="white" stroke="none" points="-4,4 -4,-755 309.561,-755 309.561,4 -4,4"/>
<!-- Node1 -->
<g id="node1" class="node"><title>Node1</title>
<polygon fill="#bfbfbf" stroke="black" points="90.1748,-101.5 90.1748,-165.5 218.45,-165.5 218.45,-101.5 90.1748,-101.5"/>
<text text-anchor="start" x="98.1748" y="-153.5" font-family="Helvetica,sans-Serif" font-size="10.00">HydroCouple::Spatial</text>
<text text-anchor="middle" x="154.312" y="-143.5" font-family="Helvetica,sans-Serif" font-size="10.00">::IRasterExhangeItem</text>
<polyline fill="none" stroke="black" points="90.1748,-137.5 218.45,-137.5 "/>
<text text-anchor="middle" x="154.312" y="-125.5" font-family="Helvetica,sans-Serif" font-size="10.00"> </text>
<polyline fill="none" stroke="black" points="90.1748,-119.5 218.45,-119.5 "/>
<text text-anchor="start" x="98.1748" y="-107.5" font-family="Helvetica,sans-Serif" font-size="10.00">+ ~IRasterExhangeItem()</text>
</g>
<!-- Node8 -->
<g id="node8" class="node"><title>Node8</title>
<g id="a_node8"><a xlink:href="class_hydro_couple_1_1_spatio_temporal_1_1_i_time_raster_exchange_item.html" target="_top" xlink:title="The ITimeRasterExchangeItem class. ">
<polygon fill="white" stroke="black" points="50.6167,-0.5 50.6167,-64.5 258.008,-64.5 258.008,-0.5 50.6167,-0.5"/>
<text text-anchor="start" x="58.6167" y="-52.5" font-family="Helvetica,sans-Serif" font-size="10.00">HydroCouple::SpatioTemporal</text>
<text text-anchor="middle" x="154.312" y="-42.5" font-family="Helvetica,sans-Serif" font-size="10.00">::ITimeRasterExchangeItem</text>
<polyline fill="none" stroke="black" points="50.6167,-36.5 258.008,-36.5 "/>
<text text-anchor="middle" x="154.312" y="-24.5" font-family="Helvetica,sans-Serif" font-size="10.00"> </text>
<polyline fill="none" stroke="black" points="50.6167,-18.5 258.008,-18.5 "/>
<text text-anchor="start" x="58.6167" y="-6.5" font-family="Helvetica,sans-Serif" font-size="10.00">+ ~ITimePolyhedralSurfaceExchangeItem()</text>
</a>
</g>
</g>
<!-- Node1&#45;&gt;Node8 -->
<g id="edge8" class="edge"><title>Node1&#45;&gt;Node8</title>
<path fill="none" stroke="midnightblue" d="M154.312,-91.2823C154.312,-82.4203 154.312,-73.1938 154.312,-64.7828"/>
<polygon fill="none" stroke="midnightblue" points="150.813,-91.4474 154.312,-101.447 157.813,-91.4474 150.813,-91.4474"/>
</g>
<!-- Node2 -->
<g id="node2" class="node"><title>Node2</title>
<g id="a_node2"><a xlink:href="class_hydro_couple_1_1_i_exchange_item.html" target="_top" xlink:title="IExchangeItem the base data item the can be exchanged between components at runtime. ">
<polygon fill="white" stroke="black" points="0,-227.5 0,-291.5 146.625,-291.5 146.625,-227.5 0,-227.5"/>
<text text-anchor="middle" x="73.3125" y="-279.5" font-family="Helvetica,sans-Serif" font-size="10.00">HydroCouple::IExchangeItem</text>
<polyline fill="none" stroke="black" points="0,-273.5 146.625,-273.5 "/>
<text text-anchor="middle" x="73.3125" y="-261.5" font-family="Helvetica,sans-Serif" font-size="10.00"> </text>
<polyline fill="none" stroke="black" points="0,-255.5 146.625,-255.5 "/>
<text text-anchor="start" x="8" y="-243.5" font-family="Helvetica,sans-Serif" font-size="10.00">+ ~IExchangeItem()</text>
<text text-anchor="start" x="8" y="-233.5" font-family="Helvetica,sans-Serif" font-size="10.00">+ itemChanged()</text>
</a>
</g>
</g>
<!-- Node2&#45;&gt;Node1 -->
<g id="edge1" class="edge"><title>Node2&#45;&gt;Node1</title>
<path fill="none" stroke="midnightblue" d="M99.4162,-218.539C110.581,-201.447 123.424,-181.786 133.879,-165.78"/>
<polygon fill="none" stroke="midnightblue" points="96.2909,-216.923 93.7522,-227.21 102.151,-220.752 96.2909,-216.923"/>
</g>
<!-- Node3 -->
<g id="node3" class="node"><title>Node3</title>
<g id="a_node3"><a xlink:href="class_hydro_couple_1_1_i_component_item.html" target="_top" xlink:title="IComponentItem is a fundamental unit of data for a component. ">
<polygon fill="white" stroke="black" points="77.3892,-353.5 77.3892,-427.5 231.236,-427.5 231.236,-353.5 77.3892,-353.5"/>
<text text-anchor="middle" x="154.312" y="-415.5" font-family="Helvetica,sans-Serif" font-size="10.00">HydroCouple::IComponentItem</text>
<polyline fill="none" stroke="black" points="77.3892,-409.5 231.236,-409.5 "/>
<text text-anchor="middle" x="154.312" y="-397.5" font-family="Helvetica,sans-Serif" font-size="10.00"> </text>
<polyline fill="none" stroke="black" points="77.3892,-391.5 231.236,-391.5 "/>
<text text-anchor="start" x="85.3892" y="-379.5" font-family="Helvetica,sans-Serif" font-size="10.00">+ ~IComponentItem()</text>
<text text-anchor="start" x="85.3892" y="-369.5" font-family="Helvetica,sans-Serif" font-size="10.00">+ modelComponent()</text>
<text text-anchor="start" x="85.3892" y="-359.5" font-family="Helvetica,sans-Serif" font-size="10.00">+ dimensions()</text>
</a>
</g>
</g>
<!-- Node3&#45;&gt;Node2 -->
<g id="edge2" class="edge"><title>Node3&#45;&gt;Node2</title>
<path fill="none" stroke="midnightblue" d="M125.96,-344.345C115.037,-326.95 102.816,-307.487 92.8994,-291.694"/>
<polygon fill="none" stroke="midnightblue" points="123.252,-346.615 131.534,-353.223 129.18,-342.893 123.252,-346.615"/>
</g>
<!-- Node7 -->
<g id="node7" class="node"><title>Node7</title>
<g id="a_node7"><a xlink:href="class_hydro_couple_1_1_spatial_1_1_i_raster_component_item.html" target="_top" xlink:title="An IRasterComponentItem represents an IRaster IComponentItem. ">
<polygon fill="white" stroke="black" points="165.064,-202.5 165.064,-316.5 305.561,-316.5 305.561,-202.5 165.064,-202.5"/>
<text text-anchor="start" x="173.064" y="-304.5" font-family="Helvetica,sans-Serif" font-size="10.00">HydroCouple::Spatial</text>
<text text-anchor="middle" x="235.312" y="-294.5" font-family="Helvetica,sans-Serif" font-size="10.00">::IRasterComponentItem</text>
<polyline fill="none" stroke="black" points="165.064,-288.5 305.561,-288.5 "/>
<text text-anchor="middle" x="235.312" y="-276.5" font-family="Helvetica,sans-Serif" font-size="10.00"> </text>
<polyline fill="none" stroke="black" points="165.064,-270.5 305.561,-270.5 "/>
<text text-anchor="start" x="173.064" y="-258.5" font-family="Helvetica,sans-Serif" font-size="10.00">+ ~IRasterComponentItem()</text>
<text text-anchor="start" x="173.064" y="-248.5" font-family="Helvetica,sans-Serif" font-size="10.00">+ rasterDimension()</text>
<text text-anchor="start" x="173.064" y="-238.5" font-family="Helvetica,sans-Serif" font-size="10.00">+ xDimension()</text>
<text text-anchor="start" x="173.064" y="-228.5" font-family="Helvetica,sans-Serif" font-size="10.00">+ yDimension()</text>
<text text-anchor="start" x="173.064" y="-218.5" font-family="Helvetica,sans-Serif" font-size="10.00">+ bandDimension()</text>
<text text-anchor="start" x="173.064" y="-208.5" font-family="Helvetica,sans-Serif" font-size="10.00">+ raster()</text>
</a>
</g>
</g>
<!-- Node3&#45;&gt;Node7 -->
<g id="edge7" class="edge"><title>Node3&#45;&gt;Node7</title>
<path fill="none" stroke="midnightblue" d="M182.578,-344.485C188.198,-335.535 194.165,-326.031 199.987,-316.759"/>
<polygon fill="none" stroke="midnightblue" points="179.445,-342.893 177.091,-353.223 185.373,-346.615 179.445,-342.893"/>
</g>
<!-- Node4 -->
<g id="node4" class="node"><title>Node4</title>
<g id="a_node4"><a xlink:href="class_hydro_couple_1_1_i_identity.html" target="_top" xlink:title="IIdentity interface class defines a method to get the Id of an HydroCouple entity. ">
<polygon fill="white" stroke="black" points="96.8423,-464.5 96.8423,-528.5 211.783,-528.5 211.783,-464.5 96.8423,-464.5"/>
<text text-anchor="middle" x="154.312" y="-516.5" font-family="Helvetica,sans-Serif" font-size="10.00">HydroCouple::IIdentity</text>
<polyline fill="none" stroke="black" points="96.8423,-510.5 211.783,-510.5 "/>
<text text-anchor="middle" x="154.312" y="-498.5" font-family="Helvetica,sans-Serif" font-size="10.00"> </text>
<polyline fill="none" stroke="black" points="96.8423,-492.5 211.783,-492.5 "/>
<text text-anchor="start" x="104.842" y="-480.5" font-family="Helvetica,sans-Serif" font-size="10.00">+ ~IIdentity()</text>
<text text-anchor="start" x="104.842" y="-470.5" font-family="Helvetica,sans-Serif" font-size="10.00">+ id()</text>
</a>
</g>
</g>
<!-- Node4&#45;&gt;Node3 -->
<g id="edge3" class="edge"><title>Node4&#45;&gt;Node3</title>
<path fill="none" stroke="midnightblue" d="M154.312,-454.282C154.312,-445.531 154.312,-436.353 154.312,-427.801"/>
<polygon fill="none" stroke="midnightblue" points="150.813,-454.297 154.312,-464.297 157.813,-454.297 150.813,-454.297"/>
</g>
<!-- Node5 -->
<g id="node5" class="node"><title>Node5</title>
<g id="a_node5"><a xlink:href="class_hydro_couple_1_1_i_description.html" target="_top" xlink:title="IDescription interface class provides descriptive information on a HydroCouple object. ">
<polygon fill="white" stroke="black" points="87.9531,-565.5 87.9531,-659.5 220.672,-659.5 220.672,-565.5 87.9531,-565.5"/>
<text text-anchor="middle" x="154.312" y="-647.5" font-family="Helvetica,sans-Serif" font-size="10.00">HydroCouple::IDescription</text>
<polyline fill="none" stroke="black" points="87.9531,-641.5 220.672,-641.5 "/>
<text text-anchor="middle" x="154.312" y="-629.5" font-family="Helvetica,sans-Serif" font-size="10.00"> </text>
<polyline fill="none" stroke="black" points="87.9531,-623.5 220.672,-623.5 "/>
<text text-anchor="start" x="95.9531" y="-611.5" font-family="Helvetica,sans-Serif" font-size="10.00">+ ~IDescription()</text>
<text text-anchor="start" x="95.9531" y="-601.5" font-family="Helvetica,sans-Serif" font-size="10.00">+ getCaption()</text>
<text text-anchor="start" x="95.9531" y="-591.5" font-family="Helvetica,sans-Serif" font-size="10.00">+ setCaption()</text>
<text text-anchor="start" x="95.9531" y="-581.5" font-family="Helvetica,sans-Serif" font-size="10.00">+ getDescription()</text>
<text text-anchor="start" x="95.9531" y="-571.5" font-family="Helvetica,sans-Serif" font-size="10.00">+ setDescription()</text>
</a>
</g>
</g>
<!-- Node5&#45;&gt;Node4 -->
<g id="edge4" class="edge"><title>Node5&#45;&gt;Node4</title>
<path fill="none" stroke="midnightblue" d="M154.312,-555.212C154.312,-546.081 154.312,-536.926 154.312,-528.684"/>
<polygon fill="none" stroke="midnightblue" points="150.813,-555.46 154.312,-565.46 157.813,-555.46 150.813,-555.46"/>
</g>
<!-- Node6 -->
<g id="node6" class="node"><title>Node6</title>
<g id="a_node6"><a xlink:href="class_hydro_couple_1_1_i_property_changed.html" target="_top" xlink:title="IPropertyChanged interface is used to emit signal/event when a property of an object changes...">
<polygon fill="white" stroke="black" points="73.771,-696.5 73.771,-750.5 234.854,-750.5 234.854,-696.5 73.771,-696.5"/>
<text text-anchor="middle" x="154.312" y="-738.5" font-family="Helvetica,sans-Serif" font-size="10.00">HydroCouple::IPropertyChanged</text>
<polyline fill="none" stroke="black" points="73.771,-732.5 234.854,-732.5 "/>
<text text-anchor="middle" x="154.312" y="-720.5" font-family="Helvetica,sans-Serif" font-size="10.00"> </text>
<polyline fill="none" stroke="black" points="73.771,-714.5 234.854,-714.5 "/>
<text text-anchor="start" x="81.771" y="-702.5" font-family="Helvetica,sans-Serif" font-size="10.00">+ ~IPropertyChanged()</text>
</a>
</g>
</g>
<!-- Node6&#45;&gt;Node5 -->
<g id="edge5" class="edge"><title>Node6&#45;&gt;Node5</title>
<path fill="none" stroke="midnightblue" d="M154.312,-686.141C154.312,-677.716 154.312,-668.639 154.312,-659.851"/>
<polygon fill="none" stroke="midnightblue" points="150.813,-686.392 154.312,-696.392 157.813,-686.392 150.813,-686.392"/>
</g>
<!-- Node7&#45;&gt;Node1 -->
<g id="edge6" class="edge"><title>Node7&#45;&gt;Node1</title>
<path fill="none" stroke="midnightblue" d="M193.012,-193.743C186.647,-184 180.342,-174.347 174.726,-165.75"/>
<polygon fill="none" stroke="midnightblue" points="190.205,-195.847 198.604,-202.305 196.066,-192.019 190.205,-195.847"/>
</g>
</g>
</svg>
        <g id="navigator" transform="translate(0 0)" fill="#404254">
                <rect fill="#f2f5e9" fill-opacity="0.5" stroke="#606060" stroke-width=".5" x="0" y="0" width="60" height="60"/>
                <use id="zoomplus" xlink:href="#zoomPlus" x="17" y="9" onmousedown="handleZoom(evt,'in')"/>
                <use id="zoomminus" xlink:href="#zoomMin" x="42" y="9" onmousedown="handleZoom(evt,'out')"/>
                <use id="reset" xlink:href="#resetDef" x="30" y="36" onmousedown="handleReset()"/>
                <g id="arrowUp" xlink:href="#dirArrow" transform="translate(30 24)" onmousedown="handlePan(0,-1)">
                  <use xlink:href="#rim" fill="#404040">
                        <set attributeName="fill" to="#808080" begin="arrowUp.mouseover" end="arrowUp.mouseout"/>
                  </use>
                  <path fill="none" stroke="white" stroke-width="1.5" d="M0,-3.0v7 M-2.5,-0.5L0,-3.0L2.5,-0.5"/>
                </g>
                <g id="arrowRight" xlink:href="#dirArrow" transform="rotate(90) translate(36 -43)" onmousedown="handlePan(1,0)">
                  <use xlink:href="#rim" fill="#404040">
                        <set attributeName="fill" to="#808080" begin="arrowRight.mouseover" end="arrowRight.mouseout"/>
                  </use>
                  <path fill="none" stroke="white" stroke-width="1.5" d="M0,-3.0v7 M-2.5,-0.5L0,-3.0L2.5,-0.5"/>
                </g>
                <g id="arrowDown" xlink:href="#dirArrow" transform="rotate(180) translate(-30 -48)" onmousedown="handlePan(0,1)">
                  <use xlink:href="#rim" fill="#404040">
                        <set attributeName="fill" to="#808080" begin="arrowDown.mouseover" end="arrowDown.mouseout"/>
                  </use>
                  <path fill="none" stroke="white" stroke-width="1.5" d="M0,-3.0v7 M-2.5,-0.5L0,-3.0L2.5,-0.5"/>
                </g>
                <g id="arrowLeft" xlink:href="#dirArrow" transform="rotate(270) translate(-36 17)" onmousedown="handlePan(-1,0)">
                  <use xlink:href="#rim" fill="#404040">
                        <set attributeName="fill" to="#808080" begin="arrowLeft.mouseover" end="arrowLeft.mouseout"/>
                  </use>
                  <path fill="none" stroke="white" stroke-width="1.5" d="M0,-3.0v7 M-2.5,-0.5L0,-3.0L2.5,-0.5"/>
                </g>
        </g>
        <svg viewBox="0 0 15 15" width="100%" height="30px" preserveAspectRatio="xMaxYMin meet">
         <g id="arrow_out" transform="scale(0.3 0.3)">
          <a xlink:href="class_hydro_couple_1_1_spatial_1_1_i_raster_exhange_item__inherit__graph_org.svg" target="_base">
           <rect id="button" ry="5" rx="5" y="6" x="6" height="38" width="38"
                fill="#f2f5e9" fill-opacity="0.5" stroke="#606060" stroke-width="1.0"/>
           <path id="arrow"
             d="M 11.500037,31.436501 C 11.940474,20.09759 22.043105,11.32322 32.158766,21.979434 L 37.068811,17.246167 C 37.068811,17.246167 37.088388,32 37.088388,32 L 22.160133,31.978069 C 22.160133,31.978069 26.997745,27.140456 26.997745,27.140456 C 18.528582,18.264221 13.291696,25.230495 11.500037,31.436501 z"
             style="fill:#404040;"/>
          </a>
         </g>
        </svg>
</svg>
