<?xml version="1.0" encoding="UTF-8" standalone="no"?>
<!DOCTYPE svg PUBLIC "-//W3C//DTD SVG 1.1//EN"
 "http://www.w3.org/Graphics/SVG/1.1/DTD/svg11.dtd">
<!-- Generated by graphviz version 2.38.0 (20140413.2041)
 -->
<!-- Title: HydroCouple::IIdBasedComponentDataItem Pages: 1 -->
<svg width="222pt" height="885pt"
 viewBox="0.00 0.00 222.03 884.73" xmlns="http://www.w3.org/2000/svg" xmlns:xlink="http://www.w3.org/1999/xlink">
<g id="graph0" class="graph" transform="scale(1 1) rotate(0) translate(4 880.733)">
<title>HydroCouple::IIdBasedComponentDataItem</title>
<!-- Node1 -->
<g id="node1" class="node"><title>Node1</title>
<polygon fill="#bfbfbf" stroke="black" points="9.00146,-101.505 9.00146,-285.524 205.031,-285.524 205.031,-101.505 9.00146,-101.505"/>
<text text-anchor="start" x="17.0015" y="-273.524" font-family="Monaco" font-size="10.00">HydroCouple::IIdBasedComponent</text>
<text text-anchor="middle" x="107.016" y="-260.189" font-family="Monaco" font-size="10.00">DataItem</text>
<polyline fill="none" stroke="black" points="9.00146,-250.854 205.031,-250.854 "/>
<text text-anchor="middle" x="107.016" y="-238.854" font-family="Monaco" font-size="10.00"> </text>
<polyline fill="none" stroke="black" points="9.00146,-229.52 205.031,-229.52 "/>
<text text-anchor="start" x="17.0015" y="-217.52" font-family="Monaco" font-size="10.00">+ ~IIdBasedComponentDataItem()</text>
<text text-anchor="start" x="17.0015" y="-204.185" font-family="Monaco" font-size="10.00">+ identifiers()</text>
<text text-anchor="start" x="17.0015" y="-190.85" font-family="Monaco" font-size="10.00">+ identifierDimension()</text>
<text text-anchor="start" x="17.0015" y="-177.515" font-family="Monaco" font-size="10.00">+ getValue()</text>
<text text-anchor="start" x="17.0015" y="-164.18" font-family="Monaco" font-size="10.00">+ getValues()</text>
<text text-anchor="start" x="17.0015" y="-150.845" font-family="Monaco" font-size="10.00">+ getValues()</text>
<text text-anchor="start" x="17.0015" y="-137.51" font-family="Monaco" font-size="10.00">+ setValue()</text>
<text text-anchor="start" x="17.0015" y="-124.175" font-family="Monaco" font-size="10.00">+ setValues()</text>
<text text-anchor="start" x="17.0015" y="-110.84" font-family="Monaco" font-size="10.00">+ setValues()</text>
</g>
<!-- Node6 -->
<g id="node6" class="node"><title>Node6</title>
<g id="a_node6"><a xlink:href="class_hydro_couple_1_1_i_id_based_exchange_item.html" target="_top" xlink:title="The IIdBasedExchangeItem class. ">
<polygon fill="none" stroke="black" points="0,-0.5 0,-64.5049 214.032,-64.5049 214.032,-0.5 0,-0.5"/>
<text text-anchor="middle" x="107.016" y="-52.5049" font-family="Monaco" font-size="10.00">HydroCouple::IIdBasedExchangeItem</text>
<polyline fill="none" stroke="black" points="0,-43.1699 214.032,-43.1699 "/>
<text text-anchor="middle" x="107.016" y="-31.1699" font-family="Monaco" font-size="10.00"> </text>
<polyline fill="none" stroke="black" points="0,-21.835 214.032,-21.835 "/>
<text text-anchor="start" x="8" y="-9.83496" font-family="Monaco" font-size="10.00">+ ~IIdBasedExchangeItem()</text>
</a>
</g>
</g>
<!-- Node1&#45;&gt;Node6 -->
<g id="edge5" class="edge"><title>Node1&#45;&gt;Node6</title>
<path fill="none" stroke="midnightblue" d="M107.016,-91.3141C107.016,-81.769 107.016,-72.6755 107.016,-64.644"/>
<polygon fill="none" stroke="midnightblue" points="103.516,-91.3991 107.016,-101.399 110.516,-91.3992 103.516,-91.3991"/>
</g>
<!-- Node2 -->
<g id="node2" class="node"><title>Node2</title>
<g id="a_node2"><a xlink:href="class_hydro_couple_1_1_i_component_data_item.html" target="_top" xlink:title="IComponentItem is a fundamental unit of data for a component. ">
<polygon fill="none" stroke="black" points="6.00098,-322.524 6.00098,-506.544 208.031,-506.544 208.031,-322.524 6.00098,-322.524"/>
<text text-anchor="middle" x="107.016" y="-494.544" font-family="Monaco" font-size="10.00">HydroCouple::IComponentDataItem</text>
<polyline fill="none" stroke="black" points="6.00098,-485.209 208.031,-485.209 "/>
<text text-anchor="middle" x="107.016" y="-473.209" font-family="Monaco" font-size="10.00"> </text>
<polyline fill="none" stroke="black" points="6.00098,-463.874 208.031,-463.874 "/>
<text text-anchor="start" x="14.001" y="-451.874" font-family="Monaco" font-size="10.00">+ ~IComponentDataItem()</text>
<text text-anchor="start" x="14.001" y="-438.539" font-family="Monaco" font-size="10.00">+ modelComponent()</text>
<text text-anchor="start" x="14.001" y="-425.204" font-family="Monaco" font-size="10.00">+ dimensions()</text>
<text text-anchor="start" x="14.001" y="-411.869" font-family="Monaco" font-size="10.00">+ valueDefinition()</text>
<text text-anchor="start" x="14.001" y="-398.534" font-family="Monaco" font-size="10.00">+ getValue()</text>
<text text-anchor="start" x="14.001" y="-385.199" font-family="Monaco" font-size="10.00">+ getValues()</text>
<text text-anchor="start" x="14.001" y="-371.864" font-family="Monaco" font-size="10.00">+ getValues()</text>
<text text-anchor="start" x="14.001" y="-358.529" font-family="Monaco" font-size="10.00">+ setValue()</text>
<text text-anchor="start" x="14.001" y="-345.194" font-family="Monaco" font-size="10.00">+ setValues()</text>
<text text-anchor="start" x="14.001" y="-331.859" font-family="Monaco" font-size="10.00">+ setValues()</text>
</a>
</g>
</g>
<!-- Node2&#45;&gt;Node1 -->
<g id="edge1" class="edge"><title>Node2&#45;&gt;Node1</title>
<path fill="none" stroke="midnightblue" d="M107.016,-311.977C107.016,-303.199 107.016,-294.352 107.016,-285.665"/>
<polygon fill="none" stroke="midnightblue" points="103.516,-312.236 107.016,-322.236 110.516,-312.236 103.516,-312.236"/>
</g>
<!-- Node3 -->
<g id="node3" class="node"><title>Node3</title>
<g id="a_node3"><a xlink:href="class_hydro_couple_1_1_i_identity.html" target="_top" xlink:title="IIdentity interface class defines a method to get the Id of an HydroCouple entity. ">
<polygon fill="none" stroke="black" points="33.0054,-543.544 33.0054,-620.884 181.027,-620.884 181.027,-543.544 33.0054,-543.544"/>
<text text-anchor="middle" x="107.016" y="-608.884" font-family="Monaco" font-size="10.00">HydroCouple::IIdentity</text>
<polyline fill="none" stroke="black" points="33.0054,-599.549 181.027,-599.549 "/>
<text text-anchor="middle" x="107.016" y="-587.549" font-family="Monaco" font-size="10.00"> </text>
<polyline fill="none" stroke="black" points="33.0054,-578.214 181.027,-578.214 "/>
<text text-anchor="start" x="41.0054" y="-566.214" font-family="Monaco" font-size="10.00">+ ~IIdentity()</text>
<text text-anchor="start" x="41.0054" y="-552.879" font-family="Monaco" font-size="10.00">+ id()</text>
</a>
</g>
</g>
<!-- Node3&#45;&gt;Node2 -->
<g id="edge2" class="edge"><title>Node3&#45;&gt;Node2</title>
<path fill="none" stroke="midnightblue" d="M107.016,-532.962C107.016,-524.608 107.016,-515.683 107.016,-506.625"/>
<polygon fill="none" stroke="midnightblue" points="103.516,-533.204 107.016,-543.204 110.516,-533.204 103.516,-533.204"/>
</g>
<!-- Node4 -->
<g id="node4" class="node"><title>Node4</title>
<g id="a_node4"><a xlink:href="class_hydro_couple_1_1_i_description.html" target="_top" xlink:title="IDescription interface class provides descriptive information on a HydroCouple object. ">
<polygon fill="none" stroke="black" points="24.0039,-657.884 24.0039,-775.229 190.028,-775.229 190.028,-657.884 24.0039,-657.884"/>
<text text-anchor="middle" x="107.016" y="-763.229" font-family="Monaco" font-size="10.00">HydroCouple::IDescription</text>
<polyline fill="none" stroke="black" points="24.0039,-753.894 190.028,-753.894 "/>
<text text-anchor="middle" x="107.016" y="-741.894" font-family="Monaco" font-size="10.00"> </text>
<polyline fill="none" stroke="black" points="24.0039,-732.559 190.028,-732.559 "/>
<text text-anchor="start" x="32.0039" y="-720.559" font-family="Monaco" font-size="10.00">+ ~IDescription()</text>
<text text-anchor="start" x="32.0039" y="-707.224" font-family="Monaco" font-size="10.00">+ caption()</text>
<text text-anchor="start" x="32.0039" y="-693.889" font-family="Monaco" font-size="10.00">+ setCaption()</text>
<text text-anchor="start" x="32.0039" y="-680.554" font-family="Monaco" font-size="10.00">+ description()</text>
<text text-anchor="start" x="32.0039" y="-667.219" font-family="Monaco" font-size="10.00">+ setDescription()</text>
</a>
</g>
</g>
<!-- Node4&#45;&gt;Node3 -->
<g id="edge3" class="edge"><title>Node4&#45;&gt;Node3</title>
<path fill="none" stroke="midnightblue" d="M107.016,-647.318C107.016,-638.279 107.016,-629.292 107.016,-621.031"/>
<polygon fill="none" stroke="midnightblue" points="103.516,-647.509 107.016,-657.509 110.516,-647.509 103.516,-647.509"/>
</g>
<!-- Node5 -->
<g id="node5" class="node"><title>Node5</title>
<g id="a_node5"><a xlink:href="class_hydro_couple_1_1_i_property_changed.html" target="_top" xlink:title="IPropertyChanged interface is used to emit signal/event when a property of an object changes...">
<polygon fill="none" stroke="black" points="12.002,-812.229 12.002,-876.233 202.03,-876.233 202.03,-812.229 12.002,-812.229"/>
<text text-anchor="middle" x="107.016" y="-864.233" font-family="Monaco" font-size="10.00">HydroCouple::IPropertyChanged</text>
<polyline fill="none" stroke="black" points="12.002,-854.898 202.03,-854.898 "/>
<text text-anchor="middle" x="107.016" y="-842.898" font-family="Monaco" font-size="10.00"> </text>
<polyline fill="none" stroke="black" points="12.002,-833.563 202.03,-833.563 "/>
<text text-anchor="start" x="20.002" y="-821.563" font-family="Monaco" font-size="10.00">+ ~IPropertyChanged()</text>
</a>
</g>
</g>
<!-- Node5&#45;&gt;Node4 -->
<g id="edge4" class="edge"><title>Node5&#45;&gt;Node4</title>
<path fill="none" stroke="midnightblue" d="M107.016,-801.908C107.016,-793.523 107.016,-784.557 107.016,-775.715"/>
<polygon fill="none" stroke="midnightblue" points="103.516,-802.165 107.016,-812.165 110.516,-802.165 103.516,-802.165"/>
</g>
</g>
</svg>
