<?xml version="1.0" encoding="UTF-8" standalone="no"?>
<!DOCTYPE svg PUBLIC "-//W3C//DTD SVG 1.1//EN"
 "http://www.w3.org/Graphics/SVG/1.1/DTD/svg11.dtd">
<!-- Generated by graphviz version 2.38.0 (20140413.2041)
 -->
<!-- Title: HydroCouple::Temporal::ITimeIdBasedArgument Pages: 1 -->
<!--zoomable 1119 -->
<svg id="main" version="1.1" xmlns="http://www.w3.org/2000/svg" xmlns:xlink="http://www.w3.org/1999/xlink" xml:space="preserve" onload="init(evt)">
<style type="text/css"><![CDATA[
.edge:hover path { stroke: red; }
.edge:hover polygon { stroke: red; fill: red; }
]]></style>
<script type="text/javascript"><![CDATA[
var edges = document.getElementsByTagName('g');
if (edges && edges.length) {
  for (var i=0;i<edges.length;i++) {
    if (edges[i].id.substr(0,4)=='edge') {
      edges[i].setAttribute('class','edge');
    }
  }
}
]]></script>
        <defs>
                <circle id="rim" cx="0" cy="0" r="7"/>
                <circle id="rim2" cx="0" cy="0" r="3.5"/>
                <g id="zoomPlus">
                        <use xlink:href="#rim" fill="#404040">
                                <set attributeName="fill" to="#808080" begin="zoomplus.mouseover" end="zoomplus.mouseout"/>
                        </use>
                        <path d="M-4,0h8M0,-4v8" fill="none" stroke="white" stroke-width="1.5" pointer-events="none"/>
                </g>
                <g id="zoomMin">
                        <use xlink:href="#rim" fill="#404040">
                                <set attributeName="fill" to="#808080" begin="zoomminus.mouseover" end="zoomminus.mouseout"/>
                        </use>
                        <path d="M-4,0h8" fill="none" stroke="white" stroke-width="1.5" pointer-events="none"/>
                </g>
                <g id="dirArrow">
                        <path fill="none" stroke="white" stroke-width="1.5" d="M0,-3.0v7 M-2.5,-0.5L0,-3.0L2.5,-0.5"/>
                </g>
               <g id="resetDef">
                       <use xlink:href="#rim2" fill="#404040">
                               <set attributeName="fill" to="#808080" begin="reset.mouseover" end="reset.mouseout"/>
                       </use>
               </g>
        </defs>

<script type="text/javascript">
var viewWidth = 400;
var viewHeight = 1119;
var sectionId = 'dynsection-0';
</script>
<script xlink:href="svgpan.js"/>
<svg id="graph" class="graph">
<g id="viewport">
<title>HydroCouple::Temporal::ITimeIdBasedArgument</title>
<!-- Node1 -->
<g id="node1" class="node"><title>Node1</title>
<polygon fill="#bfbfbf" stroke="black" points="99,-0.5 99,-77.8398 265.024,-77.8398 265.024,-0.5 99,-0.5"/>
<text text-anchor="start" x="107" y="-65.8398" font-family="Monaco" font-size="10.00">HydroCouple::Temporal</text>
<text text-anchor="middle" x="182.012" y="-52.5049" font-family="Monaco" font-size="10.00">::ITimeIdBasedArgument</text>
<polyline fill="none" stroke="black" points="99,-43.1699 265.024,-43.1699 "/>
<text text-anchor="middle" x="182.012" y="-31.1699" font-family="Monaco" font-size="10.00"> </text>
<polyline fill="none" stroke="black" points="99,-21.835 265.024,-21.835 "/>
<text text-anchor="start" x="107" y="-9.83496" font-family="Monaco" font-size="10.00">+ ~ITimeIdBasedArgument()</text>
</g>
<!-- Node2 -->
<g id="node2" class="node"><title>Node2</title>
<g id="a_node2"><a xlink:href="class_hydro_couple_1_1_temporal_1_1_i_time_argument.html" target="_top" xlink:title="The ITimeArgument class. his class cannot be directly instantiated and must be implemented as as an a...">
<polygon fill="none" stroke="black" points="12.002,-168.18 12.002,-245.52 154.022,-245.52 154.022,-168.18 12.002,-168.18"/>
<text text-anchor="start" x="20.002" y="-233.52" font-family="Monaco" font-size="10.00">HydroCouple::Temporal</text>
<text text-anchor="middle" x="83.0122" y="-220.185" font-family="Monaco" font-size="10.00">::ITimeArgument</text>
<polyline fill="none" stroke="black" points="12.002,-210.85 154.022,-210.85 "/>
<text text-anchor="middle" x="83.0122" y="-198.85" font-family="Monaco" font-size="10.00"> </text>
<polyline fill="none" stroke="black" points="12.002,-189.515 154.022,-189.515 "/>
<text text-anchor="start" x="20.002" y="-177.515" font-family="Monaco" font-size="10.00">+ ~ITimeArgument()</text>
</a>
</g>
</g>
<!-- Node2&#45;&gt;Node1 -->
<g id="edge1" class="edge"><title>Node2&#45;&gt;Node1</title>
<path fill="none" stroke="midnightblue" d="M110.986,-159.034C126.299,-133.407 145.026,-102.067 159.405,-78.0033"/>
<polygon fill="none" stroke="midnightblue" points="107.85,-157.46 105.725,-167.839 113.859,-161.05 107.85,-157.46"/>
</g>
<!-- Node3 -->
<g id="node3" class="node"><title>Node3</title>
<g id="a_node3"><a xlink:href="class_hydro_couple_1_1_i_argument.html" target="_top" xlink:title="IArgument interface class used to set the arguments for components. They can be complex or simple mul...">
<polygon fill="none" stroke="black" points="0,-335.859 0,-519.879 166.024,-519.879 166.024,-335.859 0,-335.859"/>
<text text-anchor="middle" x="83.0122" y="-507.879" font-family="Monaco" font-size="10.00">HydroCouple::IArgument</text>
<polyline fill="none" stroke="black" points="0,-498.544 166.024,-498.544 "/>
<text text-anchor="middle" x="83.0122" y="-486.544" font-family="Monaco" font-size="10.00"> </text>
<polyline fill="none" stroke="black" points="0,-477.209 166.024,-477.209 "/>
<text text-anchor="start" x="8" y="-465.209" font-family="Monaco" font-size="10.00">+ ~IArgument()</text>
<text text-anchor="start" x="8" y="-451.874" font-family="Monaco" font-size="10.00">+ isOptional()</text>
<text text-anchor="start" x="8" y="-438.539" font-family="Monaco" font-size="10.00">+ isReadOnly()</text>
<text text-anchor="start" x="8" y="-425.204" font-family="Monaco" font-size="10.00">+ toString()</text>
<text text-anchor="start" x="8" y="-411.869" font-family="Monaco" font-size="10.00">+ inputFileTypeFilters()</text>
<text text-anchor="start" x="8" y="-398.534" font-family="Monaco" font-size="10.00">+ canReadFromFile()</text>
<text text-anchor="start" x="8" y="-385.199" font-family="Monaco" font-size="10.00">+ canReadFromString()</text>
<text text-anchor="start" x="8" y="-371.864" font-family="Monaco" font-size="10.00">+ currentArgumentIOType()</text>
<text text-anchor="start" x="8" y="-358.529" font-family="Monaco" font-size="10.00">+ readValues()</text>
<text text-anchor="start" x="8" y="-345.194" font-family="Monaco" font-size="10.00">+ readValues()</text>
</a>
</g>
</g>
<!-- Node3&#45;&gt;Node2 -->
<g id="edge2" class="edge"><title>Node3&#45;&gt;Node2</title>
<path fill="none" stroke="midnightblue" d="M83.0122,-325.562C83.0122,-297.141 83.0122,-267.979 83.0122,-245.791"/>
<polygon fill="none" stroke="midnightblue" points="79.5123,-325.571 83.0122,-335.571 86.5123,-325.571 79.5123,-325.571"/>
</g>
<!-- Node4 -->
<g id="node4" class="node"><title>Node4</title>
<g id="a_node4"><a xlink:href="class_hydro_couple_1_1_i_component_data_item.html" target="_top" xlink:title="IComponentItem is a fundamental unit of data for a component. ">
<polygon fill="none" stroke="black" points="76.9971,-556.879 76.9971,-740.898 279.027,-740.898 279.027,-556.879 76.9971,-556.879"/>
<text text-anchor="middle" x="178.012" y="-728.898" font-family="Monaco" font-size="10.00">HydroCouple::IComponentDataItem</text>
<polyline fill="none" stroke="black" points="76.9971,-719.563 279.027,-719.563 "/>
<text text-anchor="middle" x="178.012" y="-707.563" font-family="Monaco" font-size="10.00"> </text>
<polyline fill="none" stroke="black" points="76.9971,-698.229 279.027,-698.229 "/>
<text text-anchor="start" x="84.9971" y="-686.229" font-family="Monaco" font-size="10.00">+ ~IComponentDataItem()</text>
<text text-anchor="start" x="84.9971" y="-672.894" font-family="Monaco" font-size="10.00">+ modelComponent()</text>
<text text-anchor="start" x="84.9971" y="-659.559" font-family="Monaco" font-size="10.00">+ dimensions()</text>
<text text-anchor="start" x="84.9971" y="-646.224" font-family="Monaco" font-size="10.00">+ valueDefinition()</text>
<text text-anchor="start" x="84.9971" y="-632.889" font-family="Monaco" font-size="10.00">+ getValue()</text>
<text text-anchor="start" x="84.9971" y="-619.554" font-family="Monaco" font-size="10.00">+ getValues()</text>
<text text-anchor="start" x="84.9971" y="-606.219" font-family="Monaco" font-size="10.00">+ getValues()</text>
<text text-anchor="start" x="84.9971" y="-592.884" font-family="Monaco" font-size="10.00">+ setValue()</text>
<text text-anchor="start" x="84.9971" y="-579.549" font-family="Monaco" font-size="10.00">+ setValues()</text>
<text text-anchor="start" x="84.9971" y="-566.214" font-family="Monaco" font-size="10.00">+ setValues()</text>
</a>
</g>
</g>
<!-- Node4&#45;&gt;Node3 -->
<g id="edge3" class="edge"><title>Node4&#45;&gt;Node3</title>
<path fill="none" stroke="midnightblue" d="M134.334,-547.19C130.404,-538.13 126.44,-528.99 122.549,-520.019"/>
<polygon fill="none" stroke="midnightblue" points="131.221,-548.809 138.412,-556.591 137.643,-546.024 131.221,-548.809"/>
</g>
<!-- Node8 -->
<g id="node8" class="node"><title>Node8</title>
<g id="a_node8"><a xlink:href="class_hydro_couple_1_1_temporal_1_1_i_time_component_data_item.html" target="_top" xlink:title="ITimeComponentItem is an IComponentItem with a temporal attribute. This class cannot be directly inst...">
<polygon fill="none" stroke="black" points="183.999,-369.197 183.999,-486.542 362.025,-486.542 362.025,-369.197 183.999,-369.197"/>
<text text-anchor="start" x="191.999" y="-474.542" font-family="Monaco" font-size="10.00">HydroCouple::Temporal</text>
<text text-anchor="middle" x="273.012" y="-461.207" font-family="Monaco" font-size="10.00">::ITimeComponentDataItem</text>
<polyline fill="none" stroke="black" points="183.999,-451.872 362.025,-451.872 "/>
<text text-anchor="middle" x="273.012" y="-439.872" font-family="Monaco" font-size="10.00"> </text>
<polyline fill="none" stroke="black" points="183.999,-430.537 362.025,-430.537 "/>
<text text-anchor="start" x="191.999" y="-418.537" font-family="Monaco" font-size="10.00">+ ~ITimeComponentDataItem()</text>
<text text-anchor="start" x="191.999" y="-405.202" font-family="Monaco" font-size="10.00">+ times()</text>
<text text-anchor="start" x="191.999" y="-391.867" font-family="Monaco" font-size="10.00">+ timeSpan()</text>
<text text-anchor="start" x="191.999" y="-378.532" font-family="Monaco" font-size="10.00">+ timeDimension()</text>
</a>
</g>
</g>
<!-- Node4&#45;&gt;Node8 -->
<g id="edge8" class="edge"><title>Node4&#45;&gt;Node8</title>
<path fill="none" stroke="midnightblue" d="M221.611,-547.373C230.655,-526.523 239.888,-505.235 247.989,-486.56"/>
<polygon fill="none" stroke="midnightblue" points="218.381,-546.024 217.613,-556.591 224.803,-548.809 218.381,-546.024"/>
</g>
<!-- Node5 -->
<g id="node5" class="node"><title>Node5</title>
<g id="a_node5"><a xlink:href="class_hydro_couple_1_1_i_identity.html" target="_top" xlink:title="IIdentity interface class defines a method to get the Id of an HydroCouple entity. ">
<polygon fill="none" stroke="black" points="104.001,-777.898 104.001,-855.238 252.023,-855.238 252.023,-777.898 104.001,-777.898"/>
<text text-anchor="middle" x="178.012" y="-843.238" font-family="Monaco" font-size="10.00">HydroCouple::IIdentity</text>
<polyline fill="none" stroke="black" points="104.001,-833.903 252.023,-833.903 "/>
<text text-anchor="middle" x="178.012" y="-821.903" font-family="Monaco" font-size="10.00"> </text>
<polyline fill="none" stroke="black" points="104.001,-812.568 252.023,-812.568 "/>
<text text-anchor="start" x="112.001" y="-800.568" font-family="Monaco" font-size="10.00">+ ~IIdentity()</text>
<text text-anchor="start" x="112.001" y="-787.233" font-family="Monaco" font-size="10.00">+ id()</text>
</a>
</g>
</g>
<!-- Node5&#45;&gt;Node4 -->
<g id="edge4" class="edge"><title>Node5&#45;&gt;Node4</title>
<path fill="none" stroke="midnightblue" d="M178.012,-767.316C178.012,-758.963 178.012,-750.037 178.012,-740.979"/>
<polygon fill="none" stroke="midnightblue" points="174.512,-767.558 178.012,-777.558 181.512,-767.558 174.512,-767.558"/>
</g>
<!-- Node6 -->
<g id="node6" class="node"><title>Node6</title>
<g id="a_node6"><a xlink:href="class_hydro_couple_1_1_i_description.html" target="_top" xlink:title="IDescription interface class provides descriptive information on a HydroCouple object. ">
<polygon fill="none" stroke="black" points="95,-892.238 95,-1009.58 261.024,-1009.58 261.024,-892.238 95,-892.238"/>
<text text-anchor="middle" x="178.012" y="-997.583" font-family="Monaco" font-size="10.00">HydroCouple::IDescription</text>
<polyline fill="none" stroke="black" points="95,-988.248 261.024,-988.248 "/>
<text text-anchor="middle" x="178.012" y="-976.248" font-family="Monaco" font-size="10.00"> </text>
<polyline fill="none" stroke="black" points="95,-966.913 261.024,-966.913 "/>
<text text-anchor="start" x="103" y="-954.913" font-family="Monaco" font-size="10.00">+ ~IDescription()</text>
<text text-anchor="start" x="103" y="-941.578" font-family="Monaco" font-size="10.00">+ caption()</text>
<text text-anchor="start" x="103" y="-928.243" font-family="Monaco" font-size="10.00">+ setCaption()</text>
<text text-anchor="start" x="103" y="-914.908" font-family="Monaco" font-size="10.00">+ description()</text>
<text text-anchor="start" x="103" y="-901.573" font-family="Monaco" font-size="10.00">+ setDescription()</text>
</a>
</g>
</g>
<!-- Node6&#45;&gt;Node5 -->
<g id="edge5" class="edge"><title>Node6&#45;&gt;Node5</title>
<path fill="none" stroke="midnightblue" d="M178.012,-881.672C178.012,-872.634 178.012,-863.646 178.012,-855.386"/>
<polygon fill="none" stroke="midnightblue" points="174.512,-881.863 178.012,-891.863 181.512,-881.863 174.512,-881.863"/>
</g>
<!-- Node7 -->
<g id="node7" class="node"><title>Node7</title>
<g id="a_node7"><a xlink:href="class_hydro_couple_1_1_i_property_changed.html" target="_top" xlink:title="IPropertyChanged interface is used to emit signal/event when a property of an object changes...">
<polygon fill="none" stroke="black" points="82.998,-1046.58 82.998,-1110.59 273.026,-1110.59 273.026,-1046.58 82.998,-1046.58"/>
<text text-anchor="middle" x="178.012" y="-1098.59" font-family="Monaco" font-size="10.00">HydroCouple::IPropertyChanged</text>
<polyline fill="none" stroke="black" points="82.998,-1089.25 273.026,-1089.25 "/>
<text text-anchor="middle" x="178.012" y="-1077.25" font-family="Monaco" font-size="10.00"> </text>
<polyline fill="none" stroke="black" points="82.998,-1067.92 273.026,-1067.92 "/>
<text text-anchor="start" x="90.998" y="-1055.92" font-family="Monaco" font-size="10.00">+ ~IPropertyChanged()</text>
</a>
</g>
</g>
<!-- Node7&#45;&gt;Node6 -->
<g id="edge6" class="edge"><title>Node7&#45;&gt;Node6</title>
<path fill="none" stroke="midnightblue" d="M178.012,-1036.26C178.012,-1027.88 178.012,-1018.91 178.012,-1010.07"/>
<polygon fill="none" stroke="midnightblue" points="174.512,-1036.52 178.012,-1046.52 181.512,-1036.52 174.512,-1036.52"/>
</g>
<!-- Node8&#45;&gt;Node2 -->
<g id="edge7" class="edge"><title>Node8&#45;&gt;Node2</title>
<path fill="none" stroke="midnightblue" d="M215.974,-361.119C183.236,-323.382 143.3,-277.346 115.791,-245.635"/>
<polygon fill="none" stroke="midnightblue" points="213.647,-363.778 222.843,-369.038 218.934,-359.191 213.647,-363.778"/>
</g>
<!-- Node9 -->
<g id="node9" class="node"><title>Node9</title>
<g id="a_node9"><a xlink:href="class_hydro_couple_1_1_temporal_1_1_i_time_id_based_component_data_item.html" target="_top" xlink:title="The IIdBasedTimeComponentDataItem class. ">
<polygon fill="none" stroke="black" points="171.996,-114.84 171.996,-298.859 392.029,-298.859 392.029,-114.84 171.996,-114.84"/>
<text text-anchor="start" x="179.996" y="-286.859" font-family="Monaco" font-size="10.00">HydroCouple::Temporal</text>
<text text-anchor="middle" x="282.012" y="-273.524" font-family="Monaco" font-size="10.00">::ITimeIdBasedComponentDataItem</text>
<polyline fill="none" stroke="black" points="171.996,-264.189 392.029,-264.189 "/>
<text text-anchor="middle" x="282.012" y="-252.189" font-family="Monaco" font-size="10.00"> </text>
<polyline fill="none" stroke="black" points="171.996,-242.854 392.029,-242.854 "/>
<text text-anchor="start" x="179.996" y="-230.854" font-family="Monaco" font-size="10.00">+ ~ITimeIdBasedComponentDataItem()</text>
<text text-anchor="start" x="179.996" y="-217.52" font-family="Monaco" font-size="10.00">+ identifiers()</text>
<text text-anchor="start" x="179.996" y="-204.185" font-family="Monaco" font-size="10.00">+ identifierDimension()</text>
<text text-anchor="start" x="179.996" y="-190.85" font-family="Monaco" font-size="10.00">+ getValue()</text>
<text text-anchor="start" x="179.996" y="-177.515" font-family="Monaco" font-size="10.00">+ getValues()</text>
<text text-anchor="start" x="179.996" y="-164.18" font-family="Monaco" font-size="10.00">+ getValues()</text>
<text text-anchor="start" x="179.996" y="-150.845" font-family="Monaco" font-size="10.00">+ setValue()</text>
<text text-anchor="start" x="179.996" y="-137.51" font-family="Monaco" font-size="10.00">+ setValues()</text>
<text text-anchor="start" x="179.996" y="-124.175" font-family="Monaco" font-size="10.00">+ setValues()</text>
</a>
</g>
</g>
<!-- Node8&#45;&gt;Node9 -->
<g id="edge10" class="edge"><title>Node8&#45;&gt;Node9</title>
<path fill="none" stroke="midnightblue" d="M275.8,-359.027C276.579,-340.078 277.438,-319.173 278.262,-299.109"/>
<polygon fill="none" stroke="midnightblue" points="272.302,-358.903 275.389,-369.038 279.296,-359.19 272.302,-358.903"/>
</g>
<!-- Node9&#45;&gt;Node1 -->
<g id="edge9" class="edge"><title>Node9&#45;&gt;Node1</title>
<path fill="none" stroke="midnightblue" d="M221.767,-106.036C215.818,-96.1788 210.07,-86.6563 204.882,-78.0601"/>
<polygon fill="none" stroke="midnightblue" points="218.875,-108.017 227.039,-114.77 224.868,-104.4 218.875,-108.017"/>
</g>
</g>
</svg>
        <g id="navigator" transform="translate(0 0)" fill="#404254">
                <rect fill="#f2f5e9" fill-opacity="0.5" stroke="#606060" stroke-width=".5" x="0" y="0" width="60" height="60"/>
                <use id="zoomplus" xlink:href="#zoomPlus" x="17" y="9" onmousedown="handleZoom(evt,'in')"/>
                <use id="zoomminus" xlink:href="#zoomMin" x="42" y="9" onmousedown="handleZoom(evt,'out')"/>
                <use id="reset" xlink:href="#resetDef" x="30" y="36" onmousedown="handleReset()"/>
                <g id="arrowUp" xlink:href="#dirArrow" transform="translate(30 24)" onmousedown="handlePan(0,-1)">
                  <use xlink:href="#rim" fill="#404040">
                        <set attributeName="fill" to="#808080" begin="arrowUp.mouseover" end="arrowUp.mouseout"/>
                  </use>
                  <path fill="none" stroke="white" stroke-width="1.5" d="M0,-3.0v7 M-2.5,-0.5L0,-3.0L2.5,-0.5"/>
                </g>
                <g id="arrowRight" xlink:href="#dirArrow" transform="rotate(90) translate(36 -43)" onmousedown="handlePan(1,0)">
                  <use xlink:href="#rim" fill="#404040">
                        <set attributeName="fill" to="#808080" begin="arrowRight.mouseover" end="arrowRight.mouseout"/>
                  </use>
                  <path fill="none" stroke="white" stroke-width="1.5" d="M0,-3.0v7 M-2.5,-0.5L0,-3.0L2.5,-0.5"/>
                </g>
                <g id="arrowDown" xlink:href="#dirArrow" transform="rotate(180) translate(-30 -48)" onmousedown="handlePan(0,1)">
                  <use xlink:href="#rim" fill="#404040">
                        <set attributeName="fill" to="#808080" begin="arrowDown.mouseover" end="arrowDown.mouseout"/>
                  </use>
                  <path fill="none" stroke="white" stroke-width="1.5" d="M0,-3.0v7 M-2.5,-0.5L0,-3.0L2.5,-0.5"/>
                </g>
                <g id="arrowLeft" xlink:href="#dirArrow" transform="rotate(270) translate(-36 17)" onmousedown="handlePan(-1,0)">
                  <use xlink:href="#rim" fill="#404040">
                        <set attributeName="fill" to="#808080" begin="arrowLeft.mouseover" end="arrowLeft.mouseout"/>
                  </use>
                  <path fill="none" stroke="white" stroke-width="1.5" d="M0,-3.0v7 M-2.5,-0.5L0,-3.0L2.5,-0.5"/>
                </g>
        </g>
        <svg viewBox="0 0 15 15" width="100%" height="30px" preserveAspectRatio="xMaxYMin meet">
         <g id="arrow_out" transform="scale(0.3 0.3)">
          <a xlink:href="class_hydro_couple_1_1_temporal_1_1_i_time_id_based_argument__inherit__graph_org.svg" target="_base">
           <rect id="button" ry="5" rx="5" y="6" x="6" height="38" width="38"
                fill="#f2f5e9" fill-opacity="0.5" stroke="#606060" stroke-width="1.0"/>
           <path id="arrow"
             d="M 11.500037,31.436501 C 11.940474,20.09759 22.043105,11.32322 32.158766,21.979434 L 37.068811,17.246167 C 37.068811,17.246167 37.088388,32 37.088388,32 L 22.160133,31.978069 C 22.160133,31.978069 26.997745,27.140456 26.997745,27.140456 C 18.528582,18.264221 13.291696,25.230495 11.500037,31.436501 z"
             style="fill:#404040;"/>
          </a>
         </g>
        </svg>
</svg>
