<?xml version="1.0" encoding="UTF-8" standalone="no"?>
<!DOCTYPE svg PUBLIC "-//W3C//DTD SVG 1.1//EN"
 "http://www.w3.org/Graphics/SVG/1.1/DTD/svg11.dtd">
<!-- Generated by graphviz version 2.38.0 (20140413.2041)
 -->
<!-- Title: HydroCouple::IOutput Pages: 1 -->
<svg width="198pt" height="831pt"
 viewBox="0.00 0.00 198.03 831.39" xmlns="http://www.w3.org/2000/svg" xmlns:xlink="http://www.w3.org/1999/xlink">
<g id="graph0" class="graph" transform="scale(1 1) rotate(0) translate(4 827.394)">
<title>HydroCouple::IOutput</title>
<polygon fill="white" stroke="none" points="-4,4 -4,-827.394 194.028,-827.394 194.028,4 -4,4"/>
<!-- Node1 -->
<g id="node1" class="node"><title>Node1</title>
<polygon fill="#bfbfbf" stroke="black" points="18.0029,-0.5 18.0029,-157.85 172.025,-157.85 172.025,-0.5 18.0029,-0.5"/>
<text text-anchor="middle" x="95.0142" y="-145.85" font-family="Monaco" font-size="10.00">HydroCouple::IOutput</text>
<polyline fill="none" stroke="black" points="18.0029,-136.515 172.025,-136.515 "/>
<text text-anchor="middle" x="95.0142" y="-124.515" font-family="Monaco" font-size="10.00"> </text>
<polyline fill="none" stroke="black" points="18.0029,-115.18 172.025,-115.18 "/>
<text text-anchor="start" x="26.0029" y="-103.18" font-family="Monaco" font-size="10.00">+ ~IOutput()</text>
<text text-anchor="start" x="26.0029" y="-89.8447" font-family="Monaco" font-size="10.00">+ consumers()</text>
<text text-anchor="start" x="26.0029" y="-76.5098" font-family="Monaco" font-size="10.00">+ addConsumer()</text>
<text text-anchor="start" x="26.0029" y="-63.1748" font-family="Monaco" font-size="10.00">+ removeConsumer()</text>
<text text-anchor="start" x="26.0029" y="-49.8398" font-family="Monaco" font-size="10.00">+ adaptedOutputs()</text>
<text text-anchor="start" x="26.0029" y="-36.5049" font-family="Monaco" font-size="10.00">+ addAdaptedOutput()</text>
<text text-anchor="start" x="26.0029" y="-23.1699" font-family="Monaco" font-size="10.00">+ removeAdaptedOutput()</text>
<text text-anchor="start" x="26.0029" y="-9.83496" font-family="Monaco" font-size="10.00">+ updateValues()</text>
</g>
<!-- Node2 -->
<g id="node2" class="node"><title>Node2</title>
<g id="a_node2"><a xlink:href="class_hydro_couple_1_1_i_exchange_item.html" target="_top" xlink:title="IExchangeItem the base data item the can be exchanged between components at runtime. ">
<polygon fill="white" stroke="black" points="9.00146,-194.85 9.00146,-285.524 181.027,-285.524 181.027,-194.85 9.00146,-194.85"/>
<text text-anchor="middle" x="95.0142" y="-273.524" font-family="Monaco" font-size="10.00">HydroCouple::IExchangeItem</text>
<polyline fill="none" stroke="black" points="9.00146,-264.189 181.027,-264.189 "/>
<text text-anchor="middle" x="95.0142" y="-252.189" font-family="Monaco" font-size="10.00"> </text>
<polyline fill="none" stroke="black" points="9.00146,-242.854 181.027,-242.854 "/>
<text text-anchor="start" x="17.0015" y="-230.854" font-family="Monaco" font-size="10.00">+ ~IExchangeItem()</text>
<text text-anchor="start" x="17.0015" y="-217.52" font-family="Monaco" font-size="10.00">+ values()</text>
<text text-anchor="start" x="17.0015" y="-204.185" font-family="Monaco" font-size="10.00">+ itemChanged()</text>
</a>
</g>
</g>
<!-- Node2&#45;&gt;Node1 -->
<g id="edge1" class="edge"><title>Node2&#45;&gt;Node1</title>
<path fill="none" stroke="midnightblue" d="M95.0142,-184.325C95.0142,-175.813 95.0142,-166.883 95.0142,-157.981"/>
<polygon fill="none" stroke="midnightblue" points="91.5143,-184.47 95.0142,-194.47 98.5143,-184.47 91.5143,-184.47"/>
</g>
<!-- Node3 -->
<g id="node3" class="node"><title>Node3</title>
<g id="a_node3"><a xlink:href="class_hydro_couple_1_1_i_component_item.html" target="_top" xlink:title="IComponentItem is a fundamental unit of data for a component. ">
<polygon fill="white" stroke="black" points="6.00098,-322.524 6.00098,-426.534 184.027,-426.534 184.027,-322.524 6.00098,-322.524"/>
<text text-anchor="middle" x="95.0142" y="-414.534" font-family="Monaco" font-size="10.00">HydroCouple::IComponentItem</text>
<polyline fill="none" stroke="black" points="6.00098,-405.199 184.027,-405.199 "/>
<text text-anchor="middle" x="95.0142" y="-393.199" font-family="Monaco" font-size="10.00"> </text>
<polyline fill="none" stroke="black" points="6.00098,-383.864 184.027,-383.864 "/>
<text text-anchor="start" x="14.001" y="-371.864" font-family="Monaco" font-size="10.00">+ ~IComponentItem()</text>
<text text-anchor="start" x="14.001" y="-358.529" font-family="Monaco" font-size="10.00">+ modelComponent()</text>
<text text-anchor="start" x="14.001" y="-345.194" font-family="Monaco" font-size="10.00">+ modelComponentId()</text>
<text text-anchor="start" x="14.001" y="-331.859" font-family="Monaco" font-size="10.00">+ dimensions()</text>
</a>
</g>
</g>
<!-- Node3&#45;&gt;Node2 -->
<g id="edge2" class="edge"><title>Node3&#45;&gt;Node2</title>
<path fill="none" stroke="midnightblue" d="M95.0142,-312.335C95.0142,-303.377 95.0142,-294.296 95.0142,-285.754"/>
<polygon fill="none" stroke="midnightblue" points="91.5143,-312.362 95.0142,-322.362 98.5143,-312.362 91.5143,-312.362"/>
</g>
<!-- Node4 -->
<g id="node4" class="node"><title>Node4</title>
<g id="a_node4"><a xlink:href="class_hydro_couple_1_1_i_identity.html" target="_top" xlink:title="IIdentity interface class defines a method to get the Id of an HydroCouple entity. ">
<polygon fill="white" stroke="black" points="21.0034,-463.534 21.0034,-567.544 169.025,-567.544 169.025,-463.534 21.0034,-463.534"/>
<text text-anchor="middle" x="95.0142" y="-555.544" font-family="Monaco" font-size="10.00">HydroCouple::IIdentity</text>
<polyline fill="none" stroke="black" points="21.0034,-546.209 169.025,-546.209 "/>
<text text-anchor="middle" x="95.0142" y="-534.209" font-family="Monaco" font-size="10.00"> </text>
<polyline fill="none" stroke="black" points="21.0034,-524.874 169.025,-524.874 "/>
<text text-anchor="start" x="29.0034" y="-512.874" font-family="Monaco" font-size="10.00">+ ~IIdentity()</text>
<text text-anchor="start" x="29.0034" y="-499.539" font-family="Monaco" font-size="10.00">+ MPI_Comm()</text>
<text text-anchor="start" x="29.0034" y="-486.204" font-family="Monaco" font-size="10.00">+ MPI_Rank()</text>
<text text-anchor="start" x="29.0034" y="-472.869" font-family="Monaco" font-size="10.00">+ id()</text>
</a>
</g>
</g>
<!-- Node4&#45;&gt;Node3 -->
<g id="edge3" class="edge"><title>Node4&#45;&gt;Node3</title>
<path fill="none" stroke="midnightblue" d="M95.0142,-452.975C95.0142,-444.193 95.0142,-435.239 95.0142,-426.685"/>
<polygon fill="none" stroke="midnightblue" points="91.5143,-453.172 95.0142,-463.172 98.5143,-453.172 91.5143,-453.172"/>
</g>
<!-- Node5 -->
<g id="node5" class="node"><title>Node5</title>
<g id="a_node5"><a xlink:href="class_hydro_couple_1_1_i_description.html" target="_top" xlink:title="IDescription interface class provides descriptive information on a HydroCouple object. ">
<polygon fill="white" stroke="black" points="12.002,-604.544 12.002,-721.889 178.026,-721.889 178.026,-604.544 12.002,-604.544"/>
<text text-anchor="middle" x="95.0142" y="-709.889" font-family="Monaco" font-size="10.00">HydroCouple::IDescription</text>
<polyline fill="none" stroke="black" points="12.002,-700.554 178.026,-700.554 "/>
<text text-anchor="middle" x="95.0142" y="-688.554" font-family="Monaco" font-size="10.00"> </text>
<polyline fill="none" stroke="black" points="12.002,-679.219 178.026,-679.219 "/>
<text text-anchor="start" x="20.002" y="-667.219" font-family="Monaco" font-size="10.00">+ ~IDescription()</text>
<text text-anchor="start" x="20.002" y="-653.884" font-family="Monaco" font-size="10.00">+ getCaption()</text>
<text text-anchor="start" x="20.002" y="-640.549" font-family="Monaco" font-size="10.00">+ setCaption()</text>
<text text-anchor="start" x="20.002" y="-627.214" font-family="Monaco" font-size="10.00">+ getDescription()</text>
<text text-anchor="start" x="20.002" y="-613.879" font-family="Monaco" font-size="10.00">+ setDescription()</text>
</a>
</g>
</g>
<!-- Node5&#45;&gt;Node4 -->
<g id="edge4" class="edge"><title>Node5&#45;&gt;Node4</title>
<path fill="none" stroke="midnightblue" d="M95.0142,-593.943C95.0142,-585.125 95.0142,-576.217 95.0142,-567.739"/>
<polygon fill="none" stroke="midnightblue" points="91.5143,-594.222 95.0142,-604.222 98.5143,-594.222 91.5143,-594.222"/>
</g>
<!-- Node6 -->
<g id="node6" class="node"><title>Node6</title>
<g id="a_node6"><a xlink:href="class_hydro_couple_1_1_i_property_changed.html" target="_top" xlink:title="IPropertyChanged interface is used to emit signal/event when a property of an object changes...">
<polygon fill="white" stroke="black" points="0,-758.889 0,-822.894 190.028,-822.894 190.028,-758.889 0,-758.889"/>
<text text-anchor="middle" x="95.0142" y="-810.894" font-family="Monaco" font-size="10.00">HydroCouple::IPropertyChanged</text>
<polyline fill="none" stroke="black" points="0,-801.559 190.028,-801.559 "/>
<text text-anchor="middle" x="95.0142" y="-789.559" font-family="Monaco" font-size="10.00"> </text>
<polyline fill="none" stroke="black" points="0,-780.224 190.028,-780.224 "/>
<text text-anchor="start" x="8" y="-768.224" font-family="Monaco" font-size="10.00">+ ~IPropertyChanged()</text>
</a>
</g>
</g>
<!-- Node6&#45;&gt;Node5 -->
<g id="edge5" class="edge"><title>Node6&#45;&gt;Node5</title>
<path fill="none" stroke="midnightblue" d="M95.0142,-748.568C95.0142,-740.183 95.0142,-731.217 95.0142,-722.375"/>
<polygon fill="none" stroke="midnightblue" points="91.5143,-748.825 95.0142,-758.825 98.5143,-748.825 91.5143,-748.825"/>
</g>
</g>
</svg>
