<?xml version="1.0" encoding="UTF-8" standalone="no"?>
<!DOCTYPE svg PUBLIC "-//W3C//DTD SVG 1.1//EN"
 "http://www.w3.org/Graphics/SVG/1.1/DTD/svg11.dtd">
<!-- Generated by graphviz version 2.38.0 (20140413.2041)
 -->
<!-- Title: HydroCouple::Spatial::ITINArgument Pages: 1 -->
<svg width="364pt" height="1012pt"
 viewBox="0.00 0.00 364.02 1012.41" xmlns="http://www.w3.org/2000/svg" xmlns:xlink="http://www.w3.org/1999/xlink">
<g id="graph0" class="graph" transform="scale(1 1) rotate(0) translate(4 1008.41)">
<title>HydroCouple::Spatial::ITINArgument</title>
<!-- Node1 -->
<g id="node1" class="node"><title>Node1</title>
<polygon fill="#bfbfbf" stroke="black" points="108.002,-114.84 108.002,-192.18 244.022,-192.18 244.022,-114.84 108.002,-114.84"/>
<text text-anchor="start" x="116.002" y="-180.18" font-family="Monaco" font-size="10.00">HydroCouple::Spatial</text>
<text text-anchor="middle" x="176.012" y="-166.845" font-family="Monaco" font-size="10.00">::ITINArgument</text>
<polyline fill="none" stroke="black" points="108.002,-157.51 244.022,-157.51 "/>
<text text-anchor="middle" x="176.012" y="-145.51" font-family="Monaco" font-size="10.00"> </text>
<polyline fill="none" stroke="black" points="108.002,-136.175 244.022,-136.175 "/>
<text text-anchor="start" x="116.002" y="-124.175" font-family="Monaco" font-size="10.00">+ ~ITINArgument()</text>
</g>
<!-- Node8 -->
<g id="node8" class="node"><title>Node8</title>
<g id="a_node8"><a xlink:href="class_hydro_couple_1_1_spatial_1_1_i_t_i_n_only_argument.html" target="_top" xlink:title="The ITINArgument class. ">
<polygon fill="none" stroke="black" points="16.002,-0.5 16.002,-77.8398 158.022,-77.8398 158.022,-0.5 16.002,-0.5"/>
<text text-anchor="start" x="24.002" y="-65.8398" font-family="Monaco" font-size="10.00">HydroCouple::Spatial</text>
<text text-anchor="middle" x="87.0122" y="-52.5049" font-family="Monaco" font-size="10.00">::ITINOnlyArgument</text>
<polyline fill="none" stroke="black" points="16.002,-43.1699 158.022,-43.1699 "/>
<text text-anchor="middle" x="87.0122" y="-31.1699" font-family="Monaco" font-size="10.00"> </text>
<polyline fill="none" stroke="black" points="16.002,-21.835 158.022,-21.835 "/>
<text text-anchor="start" x="24.002" y="-9.83496" font-family="Monaco" font-size="10.00">+ ~ITINOnlyArgument()</text>
</a>
</g>
</g>
<!-- Node1&#45;&gt;Node8 -->
<g id="edge8" class="edge"><title>Node1&#45;&gt;Node8</title>
<path fill="none" stroke="midnightblue" d="M139.845,-106.858C132.246,-97.2657 124.31,-87.2491 116.968,-77.9816"/>
<polygon fill="none" stroke="midnightblue" points="137.176,-109.125 146.129,-114.79 142.662,-104.778 137.176,-109.125"/>
</g>
<!-- Node9 -->
<g id="node9" class="node"><title>Node9</title>
<g id="a_node9"><a xlink:href="class_hydro_couple_1_1_spatio_temporal_1_1_i_time_t_i_n_argument.html" target="_top" xlink:title="The ITimeTINArgument class. ">
<polygon fill="none" stroke="black" points="175.999,-0.5 175.999,-77.8398 354.025,-77.8398 354.025,-0.5 175.999,-0.5"/>
<text text-anchor="start" x="183.999" y="-65.8398" font-family="Monaco" font-size="10.00">HydroCouple::SpatioTemporal</text>
<text text-anchor="middle" x="265.012" y="-52.5049" font-family="Monaco" font-size="10.00">::ITimeTINArgument</text>
<polyline fill="none" stroke="black" points="175.999,-43.1699 354.025,-43.1699 "/>
<text text-anchor="middle" x="265.012" y="-31.1699" font-family="Monaco" font-size="10.00"> </text>
<polyline fill="none" stroke="black" points="175.999,-21.835 354.025,-21.835 "/>
<text text-anchor="start" x="183.999" y="-9.83496" font-family="Monaco" font-size="10.00">+ ~ITimeTINArgument()</text>
</a>
</g>
</g>
<!-- Node1&#45;&gt;Node9 -->
<g id="edge9" class="edge"><title>Node1&#45;&gt;Node9</title>
<path fill="none" stroke="midnightblue" d="M212.179,-106.858C219.779,-97.2657 227.714,-87.2491 235.056,-77.9816"/>
<polygon fill="none" stroke="midnightblue" points="209.362,-104.778 205.896,-114.79 214.849,-109.125 209.362,-104.778"/>
</g>
<!-- Node2 -->
<g id="node2" class="node"><title>Node2</title>
<g id="a_node2"><a xlink:href="class_hydro_couple_1_1_i_argument.html" target="_top" xlink:title="IArgument interface class used to set the arguments for components. They can be complex or simple mul...">
<polygon fill="none" stroke="black" points="0,-229.18 0,-413.199 166.024,-413.199 166.024,-229.18 0,-229.18"/>
<text text-anchor="middle" x="83.0122" y="-401.199" font-family="Monaco" font-size="10.00">HydroCouple::IArgument</text>
<polyline fill="none" stroke="black" points="0,-391.864 166.024,-391.864 "/>
<text text-anchor="middle" x="83.0122" y="-379.864" font-family="Monaco" font-size="10.00"> </text>
<polyline fill="none" stroke="black" points="0,-370.529 166.024,-370.529 "/>
<text text-anchor="start" x="8" y="-358.529" font-family="Monaco" font-size="10.00">+ ~IArgument()</text>
<text text-anchor="start" x="8" y="-345.194" font-family="Monaco" font-size="10.00">+ isOptional()</text>
<text text-anchor="start" x="8" y="-331.859" font-family="Monaco" font-size="10.00">+ isReadOnly()</text>
<text text-anchor="start" x="8" y="-318.524" font-family="Monaco" font-size="10.00">+ toString()</text>
<text text-anchor="start" x="8" y="-305.189" font-family="Monaco" font-size="10.00">+ inputFileTypeFilters()</text>
<text text-anchor="start" x="8" y="-291.854" font-family="Monaco" font-size="10.00">+ canReadFromFile()</text>
<text text-anchor="start" x="8" y="-278.52" font-family="Monaco" font-size="10.00">+ canReadFromString()</text>
<text text-anchor="start" x="8" y="-265.185" font-family="Monaco" font-size="10.00">+ currentArgumentIOType()</text>
<text text-anchor="start" x="8" y="-251.85" font-family="Monaco" font-size="10.00">+ readValues()</text>
<text text-anchor="start" x="8" y="-238.515" font-family="Monaco" font-size="10.00">+ readValues()</text>
</a>
</g>
</g>
<!-- Node2&#45;&gt;Node1 -->
<g id="edge1" class="edge"><title>Node2&#45;&gt;Node1</title>
<path fill="none" stroke="midnightblue" d="M139.04,-220.376C144.573,-210.519 149.918,-200.996 154.744,-192.4"/>
<polygon fill="none" stroke="midnightblue" points="135.98,-218.677 134.137,-229.11 142.084,-222.103 135.98,-218.677"/>
</g>
<!-- Node3 -->
<g id="node3" class="node"><title>Node3</title>
<g id="a_node3"><a xlink:href="class_hydro_couple_1_1_i_component_data_item.html" target="_top" xlink:title="IComponentItem is a fundamental unit of data for a component. ">
<polygon fill="none" stroke="black" points="74.9971,-450.199 74.9971,-634.219 277.027,-634.219 277.027,-450.199 74.9971,-450.199"/>
<text text-anchor="middle" x="176.012" y="-622.219" font-family="Monaco" font-size="10.00">HydroCouple::IComponentDataItem</text>
<polyline fill="none" stroke="black" points="74.9971,-612.884 277.027,-612.884 "/>
<text text-anchor="middle" x="176.012" y="-600.884" font-family="Monaco" font-size="10.00"> </text>
<polyline fill="none" stroke="black" points="74.9971,-591.549 277.027,-591.549 "/>
<text text-anchor="start" x="82.9971" y="-579.549" font-family="Monaco" font-size="10.00">+ ~IComponentDataItem()</text>
<text text-anchor="start" x="82.9971" y="-566.214" font-family="Monaco" font-size="10.00">+ modelComponent()</text>
<text text-anchor="start" x="82.9971" y="-552.879" font-family="Monaco" font-size="10.00">+ dimensions()</text>
<text text-anchor="start" x="82.9971" y="-539.544" font-family="Monaco" font-size="10.00">+ valueDefinition()</text>
<text text-anchor="start" x="82.9971" y="-526.209" font-family="Monaco" font-size="10.00">+ getValue()</text>
<text text-anchor="start" x="82.9971" y="-512.874" font-family="Monaco" font-size="10.00">+ getValues()</text>
<text text-anchor="start" x="82.9971" y="-499.539" font-family="Monaco" font-size="10.00">+ getValues()</text>
<text text-anchor="start" x="82.9971" y="-486.204" font-family="Monaco" font-size="10.00">+ setValue()</text>
<text text-anchor="start" x="82.9971" y="-472.869" font-family="Monaco" font-size="10.00">+ setValues()</text>
<text text-anchor="start" x="82.9971" y="-459.534" font-family="Monaco" font-size="10.00">+ setValues()</text>
</a>
</g>
</g>
<!-- Node3&#45;&gt;Node2 -->
<g id="edge2" class="edge"><title>Node3&#45;&gt;Node2</title>
<path fill="none" stroke="midnightblue" d="M133.253,-440.51C129.407,-431.451 125.526,-422.311 121.716,-413.34"/>
<polygon fill="none" stroke="midnightblue" points="130.115,-442.074 137.245,-449.911 136.558,-439.338 130.115,-442.074"/>
</g>
<!-- Node7 -->
<g id="node7" class="node"><title>Node7</title>
<g id="a_node7"><a xlink:href="class_hydro_couple_1_1_spatial_1_1_i_t_i_n_component_data_item.html" target="_top" xlink:title="ITINComponentDataItem represents ITIN IComponentDataItem. ">
<polygon fill="none" stroke="black" points="184,-262.517 184,-379.862 356.025,-379.862 356.025,-262.517 184,-262.517"/>
<text text-anchor="start" x="192" y="-367.862" font-family="Monaco" font-size="10.00">HydroCouple::Spatial</text>
<text text-anchor="middle" x="270.012" y="-354.527" font-family="Monaco" font-size="10.00">::ITINComponentDataItem</text>
<polyline fill="none" stroke="black" points="184,-345.192 356.025,-345.192 "/>
<text text-anchor="middle" x="270.012" y="-333.192" font-family="Monaco" font-size="10.00"> </text>
<polyline fill="none" stroke="black" points="184,-323.857 356.025,-323.857 "/>
<text text-anchor="start" x="192" y="-311.857" font-family="Monaco" font-size="10.00">+ ~ITINComponentDataItem()</text>
<text text-anchor="start" x="192" y="-298.522" font-family="Monaco" font-size="10.00">+ TIN()</text>
<text text-anchor="start" x="192" y="-285.187" font-family="Monaco" font-size="10.00">+ triangle()</text>
<text text-anchor="start" x="192" y="-271.852" font-family="Monaco" font-size="10.00">+ TINPatchDimension()</text>
</a>
</g>
</g>
<!-- Node3&#45;&gt;Node7 -->
<g id="edge7" class="edge"><title>Node3&#45;&gt;Node7</title>
<path fill="none" stroke="midnightblue" d="M219.152,-440.693C228.101,-419.843 237.237,-398.556 245.252,-379.881"/>
<polygon fill="none" stroke="midnightblue" points="215.924,-439.341 215.196,-449.911 222.356,-442.102 215.924,-439.341"/>
</g>
<!-- Node4 -->
<g id="node4" class="node"><title>Node4</title>
<g id="a_node4"><a xlink:href="class_hydro_couple_1_1_i_identity.html" target="_top" xlink:title="IIdentity interface class defines a method to get the Id of an HydroCouple entity. ">
<polygon fill="none" stroke="black" points="102.001,-671.219 102.001,-748.559 250.023,-748.559 250.023,-671.219 102.001,-671.219"/>
<text text-anchor="middle" x="176.012" y="-736.559" font-family="Monaco" font-size="10.00">HydroCouple::IIdentity</text>
<polyline fill="none" stroke="black" points="102.001,-727.224 250.023,-727.224 "/>
<text text-anchor="middle" x="176.012" y="-715.224" font-family="Monaco" font-size="10.00"> </text>
<polyline fill="none" stroke="black" points="102.001,-705.889 250.023,-705.889 "/>
<text text-anchor="start" x="110.001" y="-693.889" font-family="Monaco" font-size="10.00">+ ~IIdentity()</text>
<text text-anchor="start" x="110.001" y="-680.554" font-family="Monaco" font-size="10.00">+ id()</text>
</a>
</g>
</g>
<!-- Node4&#45;&gt;Node3 -->
<g id="edge3" class="edge"><title>Node4&#45;&gt;Node3</title>
<path fill="none" stroke="midnightblue" d="M176.012,-660.636C176.012,-652.283 176.012,-643.358 176.012,-634.3"/>
<polygon fill="none" stroke="midnightblue" points="172.512,-660.878 176.012,-670.878 179.512,-660.878 172.512,-660.878"/>
</g>
<!-- Node5 -->
<g id="node5" class="node"><title>Node5</title>
<g id="a_node5"><a xlink:href="class_hydro_couple_1_1_i_description.html" target="_top" xlink:title="IDescription interface class provides descriptive information on a HydroCouple object. ">
<polygon fill="none" stroke="black" points="93,-785.559 93,-902.903 259.024,-902.903 259.024,-785.559 93,-785.559"/>
<text text-anchor="middle" x="176.012" y="-890.903" font-family="Monaco" font-size="10.00">HydroCouple::IDescription</text>
<polyline fill="none" stroke="black" points="93,-881.568 259.024,-881.568 "/>
<text text-anchor="middle" x="176.012" y="-869.568" font-family="Monaco" font-size="10.00"> </text>
<polyline fill="none" stroke="black" points="93,-860.233 259.024,-860.233 "/>
<text text-anchor="start" x="101" y="-848.233" font-family="Monaco" font-size="10.00">+ ~IDescription()</text>
<text text-anchor="start" x="101" y="-834.898" font-family="Monaco" font-size="10.00">+ caption()</text>
<text text-anchor="start" x="101" y="-821.563" font-family="Monaco" font-size="10.00">+ setCaption()</text>
<text text-anchor="start" x="101" y="-808.229" font-family="Monaco" font-size="10.00">+ description()</text>
<text text-anchor="start" x="101" y="-794.894" font-family="Monaco" font-size="10.00">+ setDescription()</text>
</a>
</g>
</g>
<!-- Node5&#45;&gt;Node4 -->
<g id="edge4" class="edge"><title>Node5&#45;&gt;Node4</title>
<path fill="none" stroke="midnightblue" d="M176.012,-774.993C176.012,-765.954 176.012,-756.966 176.012,-748.706"/>
<polygon fill="none" stroke="midnightblue" points="172.512,-775.184 176.012,-785.184 179.512,-775.184 172.512,-775.184"/>
</g>
<!-- Node6 -->
<g id="node6" class="node"><title>Node6</title>
<g id="a_node6"><a xlink:href="class_hydro_couple_1_1_i_property_changed.html" target="_top" xlink:title="IPropertyChanged interface is used to emit signal/event when a property of an object changes...">
<polygon fill="none" stroke="black" points="80.998,-939.903 80.998,-1003.91 271.026,-1003.91 271.026,-939.903 80.998,-939.903"/>
<text text-anchor="middle" x="176.012" y="-991.908" font-family="Monaco" font-size="10.00">HydroCouple::IPropertyChanged</text>
<polyline fill="none" stroke="black" points="80.998,-982.573 271.026,-982.573 "/>
<text text-anchor="middle" x="176.012" y="-970.573" font-family="Monaco" font-size="10.00"> </text>
<polyline fill="none" stroke="black" points="80.998,-961.238 271.026,-961.238 "/>
<text text-anchor="start" x="88.998" y="-949.238" font-family="Monaco" font-size="10.00">+ ~IPropertyChanged()</text>
</a>
</g>
</g>
<!-- Node6&#45;&gt;Node5 -->
<g id="edge5" class="edge"><title>Node6&#45;&gt;Node5</title>
<path fill="none" stroke="midnightblue" d="M176.012,-929.583C176.012,-921.198 176.012,-912.231 176.012,-903.389"/>
<polygon fill="none" stroke="midnightblue" points="172.512,-929.84 176.012,-939.84 179.512,-929.84 172.512,-929.84"/>
</g>
<!-- Node7&#45;&gt;Node1 -->
<g id="edge6" class="edge"><title>Node7&#45;&gt;Node1</title>
<path fill="none" stroke="midnightblue" d="M232.145,-253.447C220.365,-232.684 207.79,-210.519 197.533,-192.442"/>
<polygon fill="none" stroke="midnightblue" points="229.157,-255.272 237.136,-262.243 235.245,-251.818 229.157,-255.272"/>
</g>
</g>
</svg>
