<?xml version="1.0" encoding="UTF-8" standalone="no"?>
<!DOCTYPE svg PUBLIC "-//W3C//DTD SVG 1.1//EN"
 "http://www.w3.org/Graphics/SVG/1.1/DTD/svg11.dtd">
<!-- Generated by graphviz version 2.38.0 (20140413.2041)
 -->
<!-- Title: HydroCouple::IAdaptedOutputFactory Pages: 1 -->
<svg width="234pt" height="637pt"
 viewBox="0.00 0.00 234.03 637.04" xmlns="http://www.w3.org/2000/svg" xmlns:xlink="http://www.w3.org/1999/xlink">
<g id="graph0" class="graph" transform="scale(1 1) rotate(0) translate(4 633.044)">
<title>HydroCouple::IAdaptedOutputFactory</title>
<polygon fill="white" stroke="none" points="-4,4 -4,-633.044 230.034,-633.044 230.034,4 -4,4"/>
<!-- Node1 -->
<g id="node1" class="node"><title>Node1</title>
<polygon fill="#bfbfbf" stroke="black" points="9.00146,-128.175 9.00146,-232.185 217.033,-232.185 217.033,-128.175 9.00146,-128.175"/>
<text text-anchor="start" x="17.0015" y="-220.185" font-family="Monaco" font-size="10.00">HydroCouple::IAdaptedOutput</text>
<text text-anchor="middle" x="113.017" y="-206.85" font-family="Monaco" font-size="10.00">Factory</text>
<polyline fill="none" stroke="black" points="9.00146,-197.515 217.033,-197.515 "/>
<text text-anchor="middle" x="113.017" y="-185.515" font-family="Monaco" font-size="10.00"> </text>
<polyline fill="none" stroke="black" points="9.00146,-176.18 217.033,-176.18 "/>
<text text-anchor="start" x="17.0015" y="-164.18" font-family="Monaco" font-size="10.00">+ ~IAdaptedOutputFactory()</text>
<text text-anchor="start" x="17.0015" y="-150.845" font-family="Monaco" font-size="10.00">+ getAvailableAdaptedOutputIds()</text>
<text text-anchor="start" x="17.0015" y="-137.51" font-family="Monaco" font-size="10.00">+ createAdaptedOutput()</text>
</g>
<!-- Node5 -->
<g id="node5" class="node"><title>Node5</title>
<g id="a_node5"><a xlink:href="class_hydro_couple_1_1_i_adapted_output_factory_component.html" target="_top" xlink:title="IAdaptedOutputFactoryComponent is an IAdaptedOutputFactory generated from an IAdaptedOutputFactoryCom...">
<polygon fill="white" stroke="black" points="0,-0.5 0,-91.1748 226.034,-91.1748 226.034,-0.5 0,-0.5"/>
<text text-anchor="start" x="8" y="-79.1748" font-family="Monaco" font-size="10.00">HydroCouple::IAdaptedOutput</text>
<text text-anchor="middle" x="113.017" y="-65.8398" font-family="Monaco" font-size="10.00">FactoryComponent</text>
<polyline fill="none" stroke="black" points="0,-56.5049 226.034,-56.5049 "/>
<text text-anchor="middle" x="113.017" y="-44.5049" font-family="Monaco" font-size="10.00"> </text>
<polyline fill="none" stroke="black" points="0,-35.1699 226.034,-35.1699 "/>
<text text-anchor="start" x="8" y="-23.1699" font-family="Monaco" font-size="10.00">+ ~IAdaptedOutputFactoryComponent()</text>
<text text-anchor="start" x="8" y="-9.83496" font-family="Monaco" font-size="10.00">+ componentInfo()</text>
</a>
</g>
</g>
<!-- Node1&#45;&gt;Node5 -->
<g id="edge4" class="edge"><title>Node1&#45;&gt;Node5</title>
<path fill="none" stroke="midnightblue" d="M113.017,-117.985C113.017,-109.027 113.017,-99.9461 113.017,-91.4047"/>
<polygon fill="none" stroke="midnightblue" points="109.517,-118.013 113.017,-128.013 116.517,-118.013 109.517,-118.013"/>
</g>
<!-- Node2 -->
<g id="node2" class="node"><title>Node2</title>
<g id="a_node2"><a xlink:href="class_hydro_couple_1_1_i_identity.html" target="_top" xlink:title="IIdentity interface class defines a method to get the Id of an HydroCouple entity. ">
<polygon fill="white" stroke="black" points="39.0063,-269.185 39.0063,-373.194 187.028,-373.194 187.028,-269.185 39.0063,-269.185"/>
<text text-anchor="middle" x="113.017" y="-361.194" font-family="Monaco" font-size="10.00">HydroCouple::IIdentity</text>
<polyline fill="none" stroke="black" points="39.0063,-351.859 187.028,-351.859 "/>
<text text-anchor="middle" x="113.017" y="-339.859" font-family="Monaco" font-size="10.00"> </text>
<polyline fill="none" stroke="black" points="39.0063,-330.524 187.028,-330.524 "/>
<text text-anchor="start" x="47.0063" y="-318.524" font-family="Monaco" font-size="10.00">+ ~IIdentity()</text>
<text text-anchor="start" x="47.0063" y="-305.189" font-family="Monaco" font-size="10.00">+ MPI_Comm()</text>
<text text-anchor="start" x="47.0063" y="-291.854" font-family="Monaco" font-size="10.00">+ MPI_Rank()</text>
<text text-anchor="start" x="47.0063" y="-278.52" font-family="Monaco" font-size="10.00">+ id()</text>
</a>
</g>
</g>
<!-- Node2&#45;&gt;Node1 -->
<g id="edge1" class="edge"><title>Node2&#45;&gt;Node1</title>
<path fill="none" stroke="midnightblue" d="M113.017,-258.626C113.017,-249.843 113.017,-240.89 113.017,-232.336"/>
<polygon fill="none" stroke="midnightblue" points="109.517,-258.822 113.017,-268.822 116.517,-258.822 109.517,-258.822"/>
</g>
<!-- Node3 -->
<g id="node3" class="node"><title>Node3</title>
<g id="a_node3"><a xlink:href="class_hydro_couple_1_1_i_description.html" target="_top" xlink:title="IDescription interface class provides descriptive information on a HydroCouple object. ">
<polygon fill="white" stroke="black" points="30.0049,-410.194 30.0049,-527.539 196.029,-527.539 196.029,-410.194 30.0049,-410.194"/>
<text text-anchor="middle" x="113.017" y="-515.539" font-family="Monaco" font-size="10.00">HydroCouple::IDescription</text>
<polyline fill="none" stroke="black" points="30.0049,-506.204 196.029,-506.204 "/>
<text text-anchor="middle" x="113.017" y="-494.204" font-family="Monaco" font-size="10.00"> </text>
<polyline fill="none" stroke="black" points="30.0049,-484.869 196.029,-484.869 "/>
<text text-anchor="start" x="38.0049" y="-472.869" font-family="Monaco" font-size="10.00">+ ~IDescription()</text>
<text text-anchor="start" x="38.0049" y="-459.534" font-family="Monaco" font-size="10.00">+ getCaption()</text>
<text text-anchor="start" x="38.0049" y="-446.199" font-family="Monaco" font-size="10.00">+ setCaption()</text>
<text text-anchor="start" x="38.0049" y="-432.864" font-family="Monaco" font-size="10.00">+ getDescription()</text>
<text text-anchor="start" x="38.0049" y="-419.529" font-family="Monaco" font-size="10.00">+ setDescription()</text>
</a>
</g>
</g>
<!-- Node3&#45;&gt;Node2 -->
<g id="edge2" class="edge"><title>Node3&#45;&gt;Node2</title>
<path fill="none" stroke="midnightblue" d="M113.017,-399.593C113.017,-390.775 113.017,-381.867 113.017,-373.39"/>
<polygon fill="none" stroke="midnightblue" points="109.517,-399.873 113.017,-409.873 116.517,-399.873 109.517,-399.873"/>
</g>
<!-- Node4 -->
<g id="node4" class="node"><title>Node4</title>
<g id="a_node4"><a xlink:href="class_hydro_couple_1_1_i_property_changed.html" target="_top" xlink:title="IPropertyChanged interface is used to emit signal/event when a property of an object changes...">
<polygon fill="white" stroke="black" points="18.0029,-564.539 18.0029,-628.544 208.031,-628.544 208.031,-564.539 18.0029,-564.539"/>
<text text-anchor="middle" x="113.017" y="-616.544" font-family="Monaco" font-size="10.00">HydroCouple::IPropertyChanged</text>
<polyline fill="none" stroke="black" points="18.0029,-607.209 208.031,-607.209 "/>
<text text-anchor="middle" x="113.017" y="-595.209" font-family="Monaco" font-size="10.00"> </text>
<polyline fill="none" stroke="black" points="18.0029,-585.874 208.031,-585.874 "/>
<text text-anchor="start" x="26.0029" y="-573.874" font-family="Monaco" font-size="10.00">+ ~IPropertyChanged()</text>
</a>
</g>
</g>
<!-- Node4&#45;&gt;Node3 -->
<g id="edge3" class="edge"><title>Node4&#45;&gt;Node3</title>
<path fill="none" stroke="midnightblue" d="M113.017,-554.219C113.017,-545.834 113.017,-536.867 113.017,-528.025"/>
<polygon fill="none" stroke="midnightblue" points="109.517,-554.476 113.017,-564.476 116.517,-554.476 109.517,-554.476"/>
</g>
</g>
</svg>
