<?xml version="1.0" encoding="UTF-8" standalone="no"?>
<!DOCTYPE svg PUBLIC "-//W3C//DTD SVG 1.1//EN"
 "http://www.w3.org/Graphics/SVG/1.1/DTD/svg11.dtd">
<!-- Generated by graphviz version 2.38.0 (20140413.2041)
 -->
<!-- Title: HydroCouple::IPropertyChanged::propertyChanged Pages: 1 -->
<svg width="424pt" height="124pt"
 viewBox="0.00 0.00 424.06 124.00" xmlns="http://www.w3.org/2000/svg" xmlns:xlink="http://www.w3.org/1999/xlink">
<g id="graph0" class="graph" transform="scale(1 1) rotate(0) translate(4 120.002)">
<title>HydroCouple::IPropertyChanged::propertyChanged</title>
<polygon fill="white" stroke="none" points="-4,4 -4,-120.002 420.057,-120.002 420.057,4 -4,4"/>
<!-- Node1 -->
<g id="node1" class="node"><title>Node1</title>
<polygon fill="#bfbfbf" stroke="black" points="0,-33.8325 0,-68.5024 190.028,-68.5024 190.028,-33.8325 0,-33.8325"/>
<text text-anchor="start" x="8" y="-56.5024" font-family="Monaco" font-size="10.00">HydroCouple::IPropertyChanged</text>
<text text-anchor="middle" x="95.0142" y="-43.1675" font-family="Monaco" font-size="10.00">::propertyChanged</text>
</g>
<!-- Node2 -->
<g id="node2" class="node"><title>Node2</title>
<g id="a_node2"><a xlink:href="class_hydro_couple_1_1_i_property_changed.html#a810e76722859d2a63dfe0e541c84ab98" target="_top" xlink:title="HydroCouple::IPropertyChanged\l::~IPropertyChanged">
<polygon fill="white" stroke="black" points="226.028,-80.8325 226.028,-115.502 416.057,-115.502 416.057,-80.8325 226.028,-80.8325"/>
<text text-anchor="start" x="234.028" y="-103.502" font-family="Monaco" font-size="10.00">HydroCouple::IPropertyChanged</text>
<text text-anchor="middle" x="321.042" y="-90.1675" font-family="Monaco" font-size="10.00">::~IPropertyChanged</text>
</a>
</g>
</g>
<!-- Node1&#45;&gt;Node2 -->
<g id="edge1" class="edge"><title>Node1&#45;&gt;Node2</title>
<path fill="none" stroke="midnightblue" d="M188.726,-70.618C204.805,-73.9913 221.432,-77.4794 237.226,-80.7929"/>
<polygon fill="midnightblue" stroke="midnightblue" points="189.303,-67.1629 178.798,-68.535 187.866,-74.0138 189.303,-67.1629"/>
</g>
<!-- Node3 -->
<g id="node3" class="node"><title>Node3</title>
<g id="a_node3"><a xlink:href="class_component_info.html#a1fddc56aee6bd7337690931b1eacdad1" target="_top" xlink:title="ComponentInfo::~ComponentInfo">
<polygon fill="white" stroke="black" points="226.028,-40.5 226.028,-61.835 416.057,-61.835 416.057,-40.5 226.028,-40.5"/>
<text text-anchor="middle" x="321.042" y="-49.835" font-family="Monaco" font-size="10.00">ComponentInfo::~ComponentInfo</text>
</a>
</g>
</g>
<!-- Node1&#45;&gt;Node3 -->
<g id="edge2" class="edge"><title>Node1&#45;&gt;Node3</title>
<path fill="none" stroke="midnightblue" d="M200.104,-51.1675C208.705,-51.1675 217.368,-51.1675 225.89,-51.1675"/>
<polygon fill="midnightblue" stroke="midnightblue" points="200.049,-47.6676 190.049,-51.1675 200.049,-54.6676 200.049,-47.6676"/>
</g>
<!-- Node4 -->
<g id="node4" class="node"><title>Node4</title>
<g id="a_node4"><a xlink:href="class_description.html#a263503014a6b08eab327305f280ad751" target="_top" xlink:title="~Description ">
<polygon fill="white" stroke="black" points="238.03,-0.5 238.03,-21.835 404.055,-21.835 404.055,-0.5 238.03,-0.5"/>
<text text-anchor="middle" x="321.042" y="-9.83496" font-family="Monaco" font-size="10.00">Description::~Description</text>
</a>
</g>
</g>
<!-- Node1&#45;&gt;Node4 -->
<g id="edge3" class="edge"><title>Node1&#45;&gt;Node4</title>
<path fill="none" stroke="midnightblue" d="M200.104,-32.5824C220.671,-28.9102 241.596,-25.1741 260.086,-21.8726"/>
<polygon fill="midnightblue" stroke="midnightblue" points="199.278,-29.1745 190.049,-34.3777 200.508,-36.0655 199.278,-29.1745"/>
</g>
</g>
</svg>
