<?xml version="1.0" encoding="UTF-8" standalone="no"?>
<!DOCTYPE svg PUBLIC "-//W3C//DTD SVG 1.1//EN"
 "http://www.w3.org/Graphics/SVG/1.1/DTD/svg11.dtd">
<!-- Generated by graphviz version 2.38.0 (20140413.2041)
 -->
<!-- Title: HydroCouple::Spatial::IGeometryExchangeItem Pages: 1 -->
<svg width="328pt" height="739pt"
 viewBox="0.00 0.00 327.79 739.00" xmlns="http://www.w3.org/2000/svg" xmlns:xlink="http://www.w3.org/1999/xlink">
<g id="graph0" class="graph" transform="scale(1 1) rotate(0) translate(4 735)">
<title>HydroCouple::Spatial::IGeometryExchangeItem</title>
<polygon fill="white" stroke="none" points="-4,4 -4,-735 323.785,-735 323.785,4 -4,4"/>
<!-- Node1 -->
<g id="node1" class="node"><title>Node1</title>
<polygon fill="#bfbfbf" stroke="black" points="83.4507,-101.5 83.4507,-165.5 231.174,-165.5 231.174,-101.5 83.4507,-101.5"/>
<text text-anchor="start" x="91.4507" y="-153.5" font-family="Helvetica,sans-Serif" font-size="10.00">HydroCouple::Spatial</text>
<text text-anchor="middle" x="157.312" y="-143.5" font-family="Helvetica,sans-Serif" font-size="10.00">::IGeometryExchangeItem</text>
<polyline fill="none" stroke="black" points="83.4507,-137.5 231.174,-137.5 "/>
<text text-anchor="middle" x="157.312" y="-125.5" font-family="Helvetica,sans-Serif" font-size="10.00"> </text>
<polyline fill="none" stroke="black" points="83.4507,-119.5 231.174,-119.5 "/>
<text text-anchor="start" x="91.4507" y="-107.5" font-family="Helvetica,sans-Serif" font-size="10.00">+ ~IGeometryExchangeItem()</text>
</g>
<!-- Node8 -->
<g id="node8" class="node"><title>Node8</title>
<g id="a_node8"><a xlink:href="class_hydro_couple_1_1_spatio_temporal_1_1_i_time_geometry_exchange_item.html" target="_top" xlink:title="The ITimeGeometryExchangeItem class. ">
<polygon fill="white" stroke="black" points="72.5229,-0.5 72.5229,-64.5 242.102,-64.5 242.102,-0.5 72.5229,-0.5"/>
<text text-anchor="start" x="80.5229" y="-52.5" font-family="Helvetica,sans-Serif" font-size="10.00">HydroCouple::SpatioTemporal</text>
<text text-anchor="middle" x="157.312" y="-42.5" font-family="Helvetica,sans-Serif" font-size="10.00">::ITimeGeometryExchangeItem</text>
<polyline fill="none" stroke="black" points="72.5229,-36.5 242.102,-36.5 "/>
<text text-anchor="middle" x="157.312" y="-24.5" font-family="Helvetica,sans-Serif" font-size="10.00"> </text>
<polyline fill="none" stroke="black" points="72.5229,-18.5 242.102,-18.5 "/>
<text text-anchor="start" x="80.5229" y="-6.5" font-family="Helvetica,sans-Serif" font-size="10.00">+ ~ITimeGeometryExchangeItem()</text>
</a>
</g>
</g>
<!-- Node1&#45;&gt;Node8 -->
<g id="edge8" class="edge"><title>Node1&#45;&gt;Node8</title>
<path fill="none" stroke="midnightblue" d="M157.312,-91.2823C157.312,-82.4203 157.312,-73.1938 157.312,-64.7828"/>
<polygon fill="none" stroke="midnightblue" points="153.813,-91.4474 157.312,-101.447 160.813,-91.4474 153.813,-91.4474"/>
</g>
<!-- Node2 -->
<g id="node2" class="node"><title>Node2</title>
<g id="a_node2"><a xlink:href="class_hydro_couple_1_1_i_exchange_item.html" target="_top" xlink:title="IExchangeItem the base data item the can be exchanged between components at runtime. ">
<polygon fill="white" stroke="black" points="0,-217.5 0,-281.5 146.625,-281.5 146.625,-217.5 0,-217.5"/>
<text text-anchor="middle" x="73.3125" y="-269.5" font-family="Helvetica,sans-Serif" font-size="10.00">HydroCouple::IExchangeItem</text>
<polyline fill="none" stroke="black" points="0,-263.5 146.625,-263.5 "/>
<text text-anchor="middle" x="73.3125" y="-251.5" font-family="Helvetica,sans-Serif" font-size="10.00"> </text>
<polyline fill="none" stroke="black" points="0,-245.5 146.625,-245.5 "/>
<text text-anchor="start" x="8" y="-233.5" font-family="Helvetica,sans-Serif" font-size="10.00">+ ~IExchangeItem()</text>
<text text-anchor="start" x="8" y="-223.5" font-family="Helvetica,sans-Serif" font-size="10.00">+ itemChanged()</text>
</a>
</g>
</g>
<!-- Node2&#45;&gt;Node1 -->
<g id="edge1" class="edge"><title>Node2&#45;&gt;Node1</title>
<path fill="none" stroke="midnightblue" d="M102.284,-209.181C112.781,-194.936 124.482,-179.055 134.387,-165.613"/>
<polygon fill="none" stroke="midnightblue" points="99.3802,-207.222 96.2659,-217.349 105.016,-211.375 99.3802,-207.222"/>
</g>
<!-- Node3 -->
<g id="node3" class="node"><title>Node3</title>
<g id="a_node3"><a xlink:href="class_hydro_couple_1_1_i_component_item.html" target="_top" xlink:title="IComponentItem is a fundamental unit of data for a component. ">
<polygon fill="white" stroke="black" points="80.3892,-333.5 80.3892,-407.5 234.236,-407.5 234.236,-333.5 80.3892,-333.5"/>
<text text-anchor="middle" x="157.312" y="-395.5" font-family="Helvetica,sans-Serif" font-size="10.00">HydroCouple::IComponentItem</text>
<polyline fill="none" stroke="black" points="80.3892,-389.5 234.236,-389.5 "/>
<text text-anchor="middle" x="157.312" y="-377.5" font-family="Helvetica,sans-Serif" font-size="10.00"> </text>
<polyline fill="none" stroke="black" points="80.3892,-371.5 234.236,-371.5 "/>
<text text-anchor="start" x="88.3892" y="-359.5" font-family="Helvetica,sans-Serif" font-size="10.00">+ ~IComponentItem()</text>
<text text-anchor="start" x="88.3892" y="-349.5" font-family="Helvetica,sans-Serif" font-size="10.00">+ modelComponent()</text>
<text text-anchor="start" x="88.3892" y="-339.5" font-family="Helvetica,sans-Serif" font-size="10.00">+ dimensions()</text>
</a>
</g>
</g>
<!-- Node3&#45;&gt;Node2 -->
<g id="edge2" class="edge"><title>Node3&#45;&gt;Node2</title>
<path fill="none" stroke="midnightblue" d="M125.986,-325.12C115.76,-310.634 104.631,-294.868 95.248,-281.575"/>
<polygon fill="none" stroke="midnightblue" points="123.256,-327.322 131.882,-333.473 128.974,-323.285 123.256,-327.322"/>
</g>
<!-- Node7 -->
<g id="node7" class="node"><title>Node7</title>
<g id="a_node7"><a xlink:href="class_hydro_couple_1_1_spatial_1_1_i_geometry_component_item.html" target="_top" xlink:title="IGeometryComponentItem represents IGeometryCollection IComponentItem. ">
<polygon fill="white" stroke="black" points="164.84,-202.5 164.84,-296.5 319.785,-296.5 319.785,-202.5 164.84,-202.5"/>
<text text-anchor="start" x="172.84" y="-284.5" font-family="Helvetica,sans-Serif" font-size="10.00">HydroCouple::Spatial</text>
<text text-anchor="middle" x="242.312" y="-274.5" font-family="Helvetica,sans-Serif" font-size="10.00">::IGeometryComponentItem</text>
<polyline fill="none" stroke="black" points="164.84,-268.5 319.785,-268.5 "/>
<text text-anchor="middle" x="242.312" y="-256.5" font-family="Helvetica,sans-Serif" font-size="10.00"> </text>
<polyline fill="none" stroke="black" points="164.84,-250.5 319.785,-250.5 "/>
<text text-anchor="start" x="172.84" y="-238.5" font-family="Helvetica,sans-Serif" font-size="10.00">+ ~IGeometryComponentItem()</text>
<text text-anchor="start" x="172.84" y="-228.5" font-family="Helvetica,sans-Serif" font-size="10.00">+ geometryDimension()</text>
<text text-anchor="start" x="172.84" y="-218.5" font-family="Helvetica,sans-Serif" font-size="10.00">+ geometryCollection()</text>
<text text-anchor="start" x="172.84" y="-208.5" font-family="Helvetica,sans-Serif" font-size="10.00">+ geometry()</text>
</a>
</g>
</g>
<!-- Node3&#45;&gt;Node7 -->
<g id="edge7" class="edge"><title>Node3&#45;&gt;Node7</title>
<path fill="none" stroke="midnightblue" d="M189.034,-325.09C195.692,-315.769 202.728,-305.918 209.427,-296.539"/>
<polygon fill="none" stroke="midnightblue" points="186.01,-323.301 183.046,-333.473 191.706,-327.37 186.01,-323.301"/>
</g>
<!-- Node4 -->
<g id="node4" class="node"><title>Node4</title>
<g id="a_node4"><a xlink:href="class_hydro_couple_1_1_i_identity.html" target="_top" xlink:title="IIdentity interface class defines a method to get the Id of an HydroCouple entity. ">
<polygon fill="white" stroke="black" points="99.8423,-444.5 99.8423,-508.5 214.783,-508.5 214.783,-444.5 99.8423,-444.5"/>
<text text-anchor="middle" x="157.312" y="-496.5" font-family="Helvetica,sans-Serif" font-size="10.00">HydroCouple::IIdentity</text>
<polyline fill="none" stroke="black" points="99.8423,-490.5 214.783,-490.5 "/>
<text text-anchor="middle" x="157.312" y="-478.5" font-family="Helvetica,sans-Serif" font-size="10.00"> </text>
<polyline fill="none" stroke="black" points="99.8423,-472.5 214.783,-472.5 "/>
<text text-anchor="start" x="107.842" y="-460.5" font-family="Helvetica,sans-Serif" font-size="10.00">+ ~IIdentity()</text>
<text text-anchor="start" x="107.842" y="-450.5" font-family="Helvetica,sans-Serif" font-size="10.00">+ id()</text>
</a>
</g>
</g>
<!-- Node4&#45;&gt;Node3 -->
<g id="edge3" class="edge"><title>Node4&#45;&gt;Node3</title>
<path fill="none" stroke="midnightblue" d="M157.312,-434.282C157.312,-425.531 157.312,-416.353 157.312,-407.801"/>
<polygon fill="none" stroke="midnightblue" points="153.813,-434.297 157.312,-444.297 160.813,-434.297 153.813,-434.297"/>
</g>
<!-- Node5 -->
<g id="node5" class="node"><title>Node5</title>
<g id="a_node5"><a xlink:href="class_hydro_couple_1_1_i_description.html" target="_top" xlink:title="IDescription interface class provides descriptive information on a HydroCouple object. ">
<polygon fill="white" stroke="black" points="90.9531,-545.5 90.9531,-639.5 223.672,-639.5 223.672,-545.5 90.9531,-545.5"/>
<text text-anchor="middle" x="157.312" y="-627.5" font-family="Helvetica,sans-Serif" font-size="10.00">HydroCouple::IDescription</text>
<polyline fill="none" stroke="black" points="90.9531,-621.5 223.672,-621.5 "/>
<text text-anchor="middle" x="157.312" y="-609.5" font-family="Helvetica,sans-Serif" font-size="10.00"> </text>
<polyline fill="none" stroke="black" points="90.9531,-603.5 223.672,-603.5 "/>
<text text-anchor="start" x="98.9531" y="-591.5" font-family="Helvetica,sans-Serif" font-size="10.00">+ ~IDescription()</text>
<text text-anchor="start" x="98.9531" y="-581.5" font-family="Helvetica,sans-Serif" font-size="10.00">+ getCaption()</text>
<text text-anchor="start" x="98.9531" y="-571.5" font-family="Helvetica,sans-Serif" font-size="10.00">+ setCaption()</text>
<text text-anchor="start" x="98.9531" y="-561.5" font-family="Helvetica,sans-Serif" font-size="10.00">+ getDescription()</text>
<text text-anchor="start" x="98.9531" y="-551.5" font-family="Helvetica,sans-Serif" font-size="10.00">+ setDescription()</text>
</a>
</g>
</g>
<!-- Node5&#45;&gt;Node4 -->
<g id="edge4" class="edge"><title>Node5&#45;&gt;Node4</title>
<path fill="none" stroke="midnightblue" d="M157.312,-535.212C157.312,-526.081 157.312,-516.926 157.312,-508.684"/>
<polygon fill="none" stroke="midnightblue" points="153.813,-535.46 157.312,-545.46 160.813,-535.46 153.813,-535.46"/>
</g>
<!-- Node6 -->
<g id="node6" class="node"><title>Node6</title>
<g id="a_node6"><a xlink:href="class_hydro_couple_1_1_i_property_changed.html" target="_top" xlink:title="IPropertyChanged interface is used to emit signal/event when a property of an object changes...">
<polygon fill="white" stroke="black" points="76.771,-676.5 76.771,-730.5 237.854,-730.5 237.854,-676.5 76.771,-676.5"/>
<text text-anchor="middle" x="157.312" y="-718.5" font-family="Helvetica,sans-Serif" font-size="10.00">HydroCouple::IPropertyChanged</text>
<polyline fill="none" stroke="black" points="76.771,-712.5 237.854,-712.5 "/>
<text text-anchor="middle" x="157.312" y="-700.5" font-family="Helvetica,sans-Serif" font-size="10.00"> </text>
<polyline fill="none" stroke="black" points="76.771,-694.5 237.854,-694.5 "/>
<text text-anchor="start" x="84.771" y="-682.5" font-family="Helvetica,sans-Serif" font-size="10.00">+ ~IPropertyChanged()</text>
</a>
</g>
</g>
<!-- Node6&#45;&gt;Node5 -->
<g id="edge5" class="edge"><title>Node6&#45;&gt;Node5</title>
<path fill="none" stroke="midnightblue" d="M157.312,-666.141C157.312,-657.716 157.312,-648.639 157.312,-639.851"/>
<polygon fill="none" stroke="midnightblue" points="153.813,-666.392 157.312,-676.392 160.813,-666.392 153.813,-666.392"/>
</g>
<!-- Node7&#45;&gt;Node1 -->
<g id="edge6" class="edge"><title>Node7&#45;&gt;Node1</title>
<path fill="none" stroke="midnightblue" d="M201.88,-194.273C194.567,-184.464 187.172,-174.546 180.564,-165.684"/>
<polygon fill="none" stroke="midnightblue" points="199.201,-196.536 207.985,-202.46 204.813,-192.351 199.201,-196.536"/>
</g>
</g>
</svg>
