<?xml version="1.0" encoding="UTF-8" standalone="no"?>
<!DOCTYPE svg PUBLIC "-//W3C//DTD SVG 1.1//EN"
 "http://www.w3.org/Graphics/SVG/1.1/DTD/svg11.dtd">
<!-- Generated by graphviz version 2.38.0 (20140413.2041)
 -->
<!-- Title: HydroCouple::Spatial::I2DRegularGridArgument Pages: 1 -->
<svg width="330pt" height="809pt"
 viewBox="0.00 0.00 329.90 809.00" xmlns="http://www.w3.org/2000/svg" xmlns:xlink="http://www.w3.org/1999/xlink">
<g id="graph0" class="graph" transform="scale(1 1) rotate(0) translate(4 805)">
<title>HydroCouple::Spatial::I2DRegularGridArgument</title>
<polygon fill="white" stroke="none" points="-4,4 -4,-805 325.896,-805 325.896,4 -4,4"/>
<!-- Node1 -->
<g id="node1" class="node"><title>Node1</title>
<polygon fill="#bfbfbf" stroke="black" points="73.0542,-101.5 73.0542,-175.5 223,-175.5 223,-101.5 73.0542,-101.5"/>
<text text-anchor="start" x="81.0542" y="-163.5" font-family="Helvetica,sans-Serif" font-size="10.00">HydroCouple::Spatial</text>
<text text-anchor="middle" x="148.027" y="-153.5" font-family="Helvetica,sans-Serif" font-size="10.00">::I2DRegularGridArgument</text>
<polyline fill="none" stroke="black" points="73.0542,-147.5 223,-147.5 "/>
<text text-anchor="middle" x="148.027" y="-135.5" font-family="Helvetica,sans-Serif" font-size="10.00"> </text>
<polyline fill="none" stroke="black" points="73.0542,-129.5 223,-129.5 "/>
<text text-anchor="start" x="81.0542" y="-117.5" font-family="Helvetica,sans-Serif" font-size="10.00">+ ~I2DRegularGridArgument()</text>
<text text-anchor="start" x="81.0542" y="-107.5" font-family="Helvetica,sans-Serif" font-size="10.00">+ setGrid()</text>
</g>
<!-- Node8 -->
<g id="node8" class="node"><title>Node8</title>
<g id="a_node8"><a xlink:href="class_hydro_couple_1_1_spatio_temporal_1_1_i_time2_d_regular_grid_argument.html" target="_top" xlink:title="The ITime2DRegularGridArgument class. ">
<polygon fill="white" stroke="black" points="62.1265,-0.5 62.1265,-64.5 233.927,-64.5 233.927,-0.5 62.1265,-0.5"/>
<text text-anchor="start" x="70.1265" y="-52.5" font-family="Helvetica,sans-Serif" font-size="10.00">HydroCouple::SpatioTemporal</text>
<text text-anchor="middle" x="148.027" y="-42.5" font-family="Helvetica,sans-Serif" font-size="10.00">::ITime2DRegularGridArgument</text>
<polyline fill="none" stroke="black" points="62.1265,-36.5 233.927,-36.5 "/>
<text text-anchor="middle" x="148.027" y="-24.5" font-family="Helvetica,sans-Serif" font-size="10.00"> </text>
<polyline fill="none" stroke="black" points="62.1265,-18.5 233.927,-18.5 "/>
<text text-anchor="start" x="70.1265" y="-6.5" font-family="Helvetica,sans-Serif" font-size="10.00">+ ~ITime2DRegularGridArgument()</text>
</a>
</g>
</g>
<!-- Node1&#45;&gt;Node8 -->
<g id="edge8" class="edge"><title>Node1&#45;&gt;Node8</title>
<path fill="none" stroke="midnightblue" d="M148.027,-91.38C148.027,-82.3468 148.027,-73.0739 148.027,-64.6704"/>
<polygon fill="none" stroke="midnightblue" points="144.527,-91.4177 148.027,-101.418 151.527,-91.4178 144.527,-91.4177"/>
</g>
<!-- Node2 -->
<g id="node2" class="node"><title>Node2</title>
<g id="a_node2"><a xlink:href="class_hydro_couple_1_1_i_argument.html" target="_top" xlink:title="IArgument interface class used to set the arguments for components. They can be complex or simple mul...">
<polygon fill="white" stroke="black" points="0,-212.5 0,-366.5 126.054,-366.5 126.054,-212.5 0,-212.5"/>
<text text-anchor="middle" x="63.0269" y="-354.5" font-family="Helvetica,sans-Serif" font-size="10.00">HydroCouple::IArgument</text>
<polyline fill="none" stroke="black" points="0,-348.5 126.054,-348.5 "/>
<text text-anchor="middle" x="63.0269" y="-336.5" font-family="Helvetica,sans-Serif" font-size="10.00"> </text>
<polyline fill="none" stroke="black" points="0,-330.5 126.054,-330.5 "/>
<text text-anchor="start" x="8" y="-318.5" font-family="Helvetica,sans-Serif" font-size="10.00">+ ~IArgument()</text>
<text text-anchor="start" x="8" y="-308.5" font-family="Helvetica,sans-Serif" font-size="10.00">+ isOptional()</text>
<text text-anchor="start" x="8" y="-298.5" font-family="Helvetica,sans-Serif" font-size="10.00">+ isReadOnly()</text>
<text text-anchor="start" x="8" y="-288.5" font-family="Helvetica,sans-Serif" font-size="10.00">+ clone()</text>
<text text-anchor="start" x="8" y="-278.5" font-family="Helvetica,sans-Serif" font-size="10.00">+ valueSets()</text>
<text text-anchor="start" x="8" y="-268.5" font-family="Helvetica,sans-Serif" font-size="10.00">+ toString()</text>
<text text-anchor="start" x="8" y="-258.5" font-family="Helvetica,sans-Serif" font-size="10.00">+ fileExtensions()</text>
<text text-anchor="start" x="8" y="-248.5" font-family="Helvetica,sans-Serif" font-size="10.00">+ canReadFromFile()</text>
<text text-anchor="start" x="8" y="-238.5" font-family="Helvetica,sans-Serif" font-size="10.00">+ canReadFromString()</text>
<text text-anchor="start" x="8" y="-228.5" font-family="Helvetica,sans-Serif" font-size="10.00">+ readValues()</text>
<text text-anchor="start" x="8" y="-218.5" font-family="Helvetica,sans-Serif" font-size="10.00">+ readValues()</text>
</a>
</g>
</g>
<!-- Node2&#45;&gt;Node1 -->
<g id="edge1" class="edge"><title>Node2&#45;&gt;Node1</title>
<path fill="none" stroke="midnightblue" d="M111.618,-203.323C117.134,-193.653 122.511,-184.228 127.366,-175.717"/>
<polygon fill="none" stroke="midnightblue" points="108.438,-201.834 106.523,-212.254 114.518,-205.302 108.438,-201.834"/>
</g>
<!-- Node3 -->
<g id="node3" class="node"><title>Node3</title>
<g id="a_node3"><a xlink:href="class_hydro_couple_1_1_i_component_item.html" target="_top" xlink:title="IComponentItem is a fundamental unit of data for a component. ">
<polygon fill="white" stroke="black" points="71.1035,-403.5 71.1035,-477.5 224.95,-477.5 224.95,-403.5 71.1035,-403.5"/>
<text text-anchor="middle" x="148.027" y="-465.5" font-family="Helvetica,sans-Serif" font-size="10.00">HydroCouple::IComponentItem</text>
<polyline fill="none" stroke="black" points="71.1035,-459.5 224.95,-459.5 "/>
<text text-anchor="middle" x="148.027" y="-447.5" font-family="Helvetica,sans-Serif" font-size="10.00"> </text>
<polyline fill="none" stroke="black" points="71.1035,-441.5 224.95,-441.5 "/>
<text text-anchor="start" x="79.1035" y="-429.5" font-family="Helvetica,sans-Serif" font-size="10.00">+ ~IComponentItem()</text>
<text text-anchor="start" x="79.1035" y="-419.5" font-family="Helvetica,sans-Serif" font-size="10.00">+ modelComponent()</text>
<text text-anchor="start" x="79.1035" y="-409.5" font-family="Helvetica,sans-Serif" font-size="10.00">+ dimensions()</text>
</a>
</g>
</g>
<!-- Node3&#45;&gt;Node2 -->
<g id="edge2" class="edge"><title>Node3&#45;&gt;Node2</title>
<path fill="none" stroke="midnightblue" d="M122.344,-394.48C117.299,-385.635 111.876,-376.129 106.433,-366.589"/>
<polygon fill="none" stroke="midnightblue" points="119.455,-396.48 127.451,-403.431 125.536,-393.011 119.455,-396.48"/>
</g>
<!-- Node7 -->
<g id="node7" class="node"><title>Node7</title>
<g id="a_node7"><a xlink:href="class_hydro_couple_1_1_spatial_1_1_i2_d_regular_grid_component_item.html" target="_top" xlink:title="An I2DRegularGridComponentItem represents an I2DRegularGrid IComponentItem. ">
<polygon fill="white" stroke="black" points="144.158,-232.5 144.158,-346.5 321.896,-346.5 321.896,-232.5 144.158,-232.5"/>
<text text-anchor="start" x="152.158" y="-334.5" font-family="Helvetica,sans-Serif" font-size="10.00">HydroCouple::Spatial</text>
<text text-anchor="middle" x="233.027" y="-324.5" font-family="Helvetica,sans-Serif" font-size="10.00">::I2DRegularGridComponentItem</text>
<polyline fill="none" stroke="black" points="144.158,-318.5 321.896,-318.5 "/>
<text text-anchor="middle" x="233.027" y="-306.5" font-family="Helvetica,sans-Serif" font-size="10.00"> </text>
<polyline fill="none" stroke="black" points="144.158,-300.5 321.896,-300.5 "/>
<text text-anchor="start" x="152.158" y="-288.5" font-family="Helvetica,sans-Serif" font-size="10.00">+ ~I2DRegularGridComponentItem()</text>
<text text-anchor="start" x="152.158" y="-278.5" font-family="Helvetica,sans-Serif" font-size="10.00">+ numXNodesDimension()</text>
<text text-anchor="start" x="152.158" y="-268.5" font-family="Helvetica,sans-Serif" font-size="10.00">+ numYNodesDimension()</text>
<text text-anchor="start" x="152.158" y="-258.5" font-family="Helvetica,sans-Serif" font-size="10.00">+ numXCellsDimension()</text>
<text text-anchor="start" x="152.158" y="-248.5" font-family="Helvetica,sans-Serif" font-size="10.00">+ numYCellsDimension()</text>
<text text-anchor="start" x="152.158" y="-238.5" font-family="Helvetica,sans-Serif" font-size="10.00">+ grid()</text>
</a>
</g>
</g>
<!-- Node3&#45;&gt;Node7 -->
<g id="edge7" class="edge"><title>Node3&#45;&gt;Node7</title>
<path fill="none" stroke="midnightblue" d="M173.79,-394.338C182.372,-379.295 192.037,-362.353 201.032,-346.585"/>
<polygon fill="none" stroke="midnightblue" points="170.518,-393.011 168.603,-403.431 176.598,-396.48 170.518,-393.011"/>
</g>
<!-- Node4 -->
<g id="node4" class="node"><title>Node4</title>
<g id="a_node4"><a xlink:href="class_hydro_couple_1_1_i_identity.html" target="_top" xlink:title="IIdentity interface class defines a method to get the Id of an HydroCouple entity. ">
<polygon fill="white" stroke="black" points="90.5566,-514.5 90.5566,-578.5 205.497,-578.5 205.497,-514.5 90.5566,-514.5"/>
<text text-anchor="middle" x="148.027" y="-566.5" font-family="Helvetica,sans-Serif" font-size="10.00">HydroCouple::IIdentity</text>
<polyline fill="none" stroke="black" points="90.5566,-560.5 205.497,-560.5 "/>
<text text-anchor="middle" x="148.027" y="-548.5" font-family="Helvetica,sans-Serif" font-size="10.00"> </text>
<polyline fill="none" stroke="black" points="90.5566,-542.5 205.497,-542.5 "/>
<text text-anchor="start" x="98.5566" y="-530.5" font-family="Helvetica,sans-Serif" font-size="10.00">+ ~IIdentity()</text>
<text text-anchor="start" x="98.5566" y="-520.5" font-family="Helvetica,sans-Serif" font-size="10.00">+ id()</text>
</a>
</g>
</g>
<!-- Node4&#45;&gt;Node3 -->
<g id="edge3" class="edge"><title>Node4&#45;&gt;Node3</title>
<path fill="none" stroke="midnightblue" d="M148.027,-504.282C148.027,-495.531 148.027,-486.353 148.027,-477.801"/>
<polygon fill="none" stroke="midnightblue" points="144.527,-504.297 148.027,-514.297 151.527,-504.297 144.527,-504.297"/>
</g>
<!-- Node5 -->
<g id="node5" class="node"><title>Node5</title>
<g id="a_node5"><a xlink:href="class_hydro_couple_1_1_i_description.html" target="_top" xlink:title="IDescription interface class provides descriptive information on a HydroCouple object. ">
<polygon fill="white" stroke="black" points="81.6675,-615.5 81.6675,-709.5 214.386,-709.5 214.386,-615.5 81.6675,-615.5"/>
<text text-anchor="middle" x="148.027" y="-697.5" font-family="Helvetica,sans-Serif" font-size="10.00">HydroCouple::IDescription</text>
<polyline fill="none" stroke="black" points="81.6675,-691.5 214.386,-691.5 "/>
<text text-anchor="middle" x="148.027" y="-679.5" font-family="Helvetica,sans-Serif" font-size="10.00"> </text>
<polyline fill="none" stroke="black" points="81.6675,-673.5 214.386,-673.5 "/>
<text text-anchor="start" x="89.6675" y="-661.5" font-family="Helvetica,sans-Serif" font-size="10.00">+ ~IDescription()</text>
<text text-anchor="start" x="89.6675" y="-651.5" font-family="Helvetica,sans-Serif" font-size="10.00">+ getCaption()</text>
<text text-anchor="start" x="89.6675" y="-641.5" font-family="Helvetica,sans-Serif" font-size="10.00">+ setCaption()</text>
<text text-anchor="start" x="89.6675" y="-631.5" font-family="Helvetica,sans-Serif" font-size="10.00">+ getDescription()</text>
<text text-anchor="start" x="89.6675" y="-621.5" font-family="Helvetica,sans-Serif" font-size="10.00">+ setDescription()</text>
</a>
</g>
</g>
<!-- Node5&#45;&gt;Node4 -->
<g id="edge4" class="edge"><title>Node5&#45;&gt;Node4</title>
<path fill="none" stroke="midnightblue" d="M148.027,-605.212C148.027,-596.081 148.027,-586.926 148.027,-578.684"/>
<polygon fill="none" stroke="midnightblue" points="144.527,-605.46 148.027,-615.46 151.527,-605.46 144.527,-605.46"/>
</g>
<!-- Node6 -->
<g id="node6" class="node"><title>Node6</title>
<g id="a_node6"><a xlink:href="class_hydro_couple_1_1_i_property_changed.html" target="_top" xlink:title="IPropertyChanged interface is used to emit signal/event when a property of an object changes...">
<polygon fill="white" stroke="black" points="67.4854,-746.5 67.4854,-800.5 228.568,-800.5 228.568,-746.5 67.4854,-746.5"/>
<text text-anchor="middle" x="148.027" y="-788.5" font-family="Helvetica,sans-Serif" font-size="10.00">HydroCouple::IPropertyChanged</text>
<polyline fill="none" stroke="black" points="67.4854,-782.5 228.568,-782.5 "/>
<text text-anchor="middle" x="148.027" y="-770.5" font-family="Helvetica,sans-Serif" font-size="10.00"> </text>
<polyline fill="none" stroke="black" points="67.4854,-764.5 228.568,-764.5 "/>
<text text-anchor="start" x="75.4854" y="-752.5" font-family="Helvetica,sans-Serif" font-size="10.00">+ ~IPropertyChanged()</text>
</a>
</g>
</g>
<!-- Node6&#45;&gt;Node5 -->
<g id="edge5" class="edge"><title>Node6&#45;&gt;Node5</title>
<path fill="none" stroke="midnightblue" d="M148.027,-736.141C148.027,-727.716 148.027,-718.639 148.027,-709.851"/>
<polygon fill="none" stroke="midnightblue" points="144.527,-736.392 148.027,-746.392 151.527,-736.392 144.527,-736.392"/>
</g>
<!-- Node7&#45;&gt;Node1 -->
<g id="edge6" class="edge"><title>Node7&#45;&gt;Node1</title>
<path fill="none" stroke="midnightblue" d="M195.765,-223.183C186.453,-206.859 176.8,-189.938 168.632,-175.619"/>
<polygon fill="none" stroke="midnightblue" points="192.897,-225.218 200.892,-232.169 198.977,-221.749 192.897,-225.218"/>
</g>
</g>
</svg>
