<?xml version="1.0" encoding="UTF-8" standalone="no"?>
<!DOCTYPE svg PUBLIC "-//W3C//DTD SVG 1.1//EN"
 "http://www.w3.org/Graphics/SVG/1.1/DTD/svg11.dtd">
<!-- Generated by graphviz version 2.38.0 (20140413.2041)
 -->
<!-- Title: HydroCouple::SpatioTemporal::ITimeRasterComponentItem Pages: 1 -->
<!--zoomable 765 -->
<svg id="main" version="1.1" xmlns="http://www.w3.org/2000/svg" xmlns:xlink="http://www.w3.org/1999/xlink" xml:space="preserve" onload="init(evt)">
<style type="text/css"><![CDATA[
.edge:hover path { stroke: red; }
.edge:hover polygon { stroke: red; fill: red; }
]]></style>
<script type="text/javascript"><![CDATA[
var edges = document.getElementsByTagName('g');
if (edges && edges.length) {
  for (var i=0;i<edges.length;i++) {
    if (edges[i].id.substr(0,4)=='edge') {
      edges[i].setAttribute('class','edge');
    }
  }
}
]]></script>
        <defs>
                <circle id="rim" cx="0" cy="0" r="7"/>
                <circle id="rim2" cx="0" cy="0" r="3.5"/>
                <g id="zoomPlus">
                        <use xlink:href="#rim" fill="#404040">
                                <set attributeName="fill" to="#808080" begin="zoomplus.mouseover" end="zoomplus.mouseout"/>
                        </use>
                        <path d="M-4,0h8M0,-4v8" fill="none" stroke="white" stroke-width="1.5" pointer-events="none"/>
                </g>
                <g id="zoomMin">
                        <use xlink:href="#rim" fill="#404040">
                                <set attributeName="fill" to="#808080" begin="zoomminus.mouseover" end="zoomminus.mouseout"/>
                        </use>
                        <path d="M-4,0h8" fill="none" stroke="white" stroke-width="1.5" pointer-events="none"/>
                </g>
                <g id="dirArrow">
                        <path fill="none" stroke="white" stroke-width="1.5" d="M0,-3.0v7 M-2.5,-0.5L0,-3.0L2.5,-0.5"/>
                </g>
               <g id="resetDef">
                       <use xlink:href="#rim2" fill="#404040">
                               <set attributeName="fill" to="#808080" begin="reset.mouseover" end="reset.mouseout"/>
                       </use>
               </g>
        </defs>

<script type="text/javascript">
var viewWidth = 346;
var viewHeight = 765;
var sectionId = 'dynsection-1';
</script>
<script xlink:href="svgpan.js"/>
<svg id="graph" class="graph">
<g id="viewport">
<title>HydroCouple::SpatioTemporal::ITimeRasterComponentItem</title>
<polygon fill="white" stroke="none" points="-4,4 -4,-760.719 342.023,-760.719 342.023,4 -4,4"/>
<!-- Node1 -->
<g id="node1" class="node"><title>Node1</title>
<polygon fill="#bfbfbf" stroke="black" points="70.9971,-0.5 70.9971,-77.8398 261.025,-77.8398 261.025,-0.5 70.9971,-0.5"/>
<text text-anchor="start" x="78.9971" y="-65.8398" font-family="Monaco" font-size="10.00">HydroCouple::SpatioTemporal</text>
<text text-anchor="middle" x="166.011" y="-52.5049" font-family="Monaco" font-size="10.00">::ITimeRasterComponentItem</text>
<polyline fill="none" stroke="black" points="70.9971,-43.1699 261.025,-43.1699 "/>
<text text-anchor="middle" x="166.011" y="-31.1699" font-family="Monaco" font-size="10.00"> </text>
<polyline fill="none" stroke="black" points="70.9971,-21.835 261.025,-21.835 "/>
<text text-anchor="start" x="78.9971" y="-9.83496" font-family="Monaco" font-size="10.00">+ ~ITimeRasterComponentItem()</text>
</g>
<!-- Node2 -->
<g id="node2" class="node"><title>Node2</title>
<g id="a_node2"><a xlink:href="class_hydro_couple_1_1_temporal_1_1_i_time_component_item.html" target="_top" xlink:title="ITimeComponentItem is an IComponentItem with a temporal attribute. ">
<polygon fill="white" stroke="black" points="0,-121.507 0,-252.187 154.022,-252.187 154.022,-121.507 0,-121.507"/>
<text text-anchor="start" x="8" y="-240.187" font-family="Monaco" font-size="10.00">HydroCouple::Temporal</text>
<text text-anchor="middle" x="77.0112" y="-226.852" font-family="Monaco" font-size="10.00">::ITimeComponentItem</text>
<polyline fill="none" stroke="black" points="0,-217.517 154.022,-217.517 "/>
<text text-anchor="middle" x="77.0112" y="-205.517" font-family="Monaco" font-size="10.00"> </text>
<polyline fill="none" stroke="black" points="0,-196.182 154.022,-196.182 "/>
<text text-anchor="start" x="8" y="-184.182" font-family="Monaco" font-size="10.00">+ ~ITimeComponentItem()</text>
<text text-anchor="start" x="8" y="-170.847" font-family="Monaco" font-size="10.00">+ timeDimension()</text>
<text text-anchor="start" x="8" y="-157.512" font-family="Monaco" font-size="10.00">+ times()</text>
<text text-anchor="start" x="8" y="-144.177" font-family="Monaco" font-size="10.00">+ timeSpan()</text>
<text text-anchor="start" x="8" y="-130.842" font-family="Monaco" font-size="10.00">+ time()</text>
</a>
</g>
</g>
<!-- Node2&#45;&gt;Node1 -->
<g id="edge1" class="edge"><title>Node2&#45;&gt;Node1</title>
<path fill="none" stroke="midnightblue" d="M121.864,-112.432C129.151,-100.504 136.426,-88.5962 142.906,-77.989"/>
<polygon fill="none" stroke="midnightblue" points="118.793,-110.744 116.566,-121.103 124.766,-114.394 118.793,-110.744"/>
</g>
<!-- Node3 -->
<g id="node3" class="node"><title>Node3</title>
<g id="a_node3"><a xlink:href="class_hydro_couple_1_1_i_component_item.html" target="_top" xlink:title="IComponentItem is a fundamental unit of data for a component. ">
<polygon fill="white" stroke="black" points="76.998,-295.854 76.998,-386.529 255.024,-386.529 255.024,-295.854 76.998,-295.854"/>
<text text-anchor="middle" x="166.011" y="-374.529" font-family="Monaco" font-size="10.00">HydroCouple::IComponentItem</text>
<polyline fill="none" stroke="black" points="76.998,-365.194 255.024,-365.194 "/>
<text text-anchor="middle" x="166.011" y="-353.194" font-family="Monaco" font-size="10.00"> </text>
<polyline fill="none" stroke="black" points="76.998,-343.859 255.024,-343.859 "/>
<text text-anchor="start" x="84.998" y="-331.859" font-family="Monaco" font-size="10.00">+ ~IComponentItem()</text>
<text text-anchor="start" x="84.998" y="-318.524" font-family="Monaco" font-size="10.00">+ modelComponent()</text>
<text text-anchor="start" x="84.998" y="-305.189" font-family="Monaco" font-size="10.00">+ dimensions()</text>
</a>
</g>
</g>
<!-- Node3&#45;&gt;Node2 -->
<g id="edge2" class="edge"><title>Node3&#45;&gt;Node2</title>
<path fill="none" stroke="midnightblue" d="M134.881,-286.905C128.332,-275.695 121.357,-263.756 114.601,-252.19"/>
<polygon fill="none" stroke="midnightblue" points="131.963,-288.849 140.029,-295.718 138.007,-285.318 131.963,-288.849"/>
</g>
<!-- Node7 -->
<g id="node7" class="node"><title>Node7</title>
<g id="a_node7"><a xlink:href="class_hydro_couple_1_1_spatial_1_1_i_raster_component_item.html" target="_top" xlink:title="An IRasterComponentItem represents an IRaster IComponentItem. ">
<polygon fill="white" stroke="black" points="171.999,-114.84 171.999,-258.854 338.023,-258.854 338.023,-114.84 171.999,-114.84"/>
<text text-anchor="start" x="179.999" y="-246.854" font-family="Monaco" font-size="10.00">HydroCouple::Spatial</text>
<text text-anchor="middle" x="255.011" y="-233.52" font-family="Monaco" font-size="10.00">::IRasterComponentItem</text>
<polyline fill="none" stroke="black" points="171.999,-224.185 338.023,-224.185 "/>
<text text-anchor="middle" x="255.011" y="-212.185" font-family="Monaco" font-size="10.00"> </text>
<polyline fill="none" stroke="black" points="171.999,-202.85 338.023,-202.85 "/>
<text text-anchor="start" x="179.999" y="-190.85" font-family="Monaco" font-size="10.00">+ ~IRasterComponentItem()</text>
<text text-anchor="start" x="179.999" y="-177.515" font-family="Monaco" font-size="10.00">+ rasterDimension()</text>
<text text-anchor="start" x="179.999" y="-164.18" font-family="Monaco" font-size="10.00">+ xDimension()</text>
<text text-anchor="start" x="179.999" y="-150.845" font-family="Monaco" font-size="10.00">+ yDimension()</text>
<text text-anchor="start" x="179.999" y="-137.51" font-family="Monaco" font-size="10.00">+ bandDimension()</text>
<text text-anchor="start" x="179.999" y="-124.175" font-family="Monaco" font-size="10.00">+ raster()</text>
</a>
</g>
</g>
<!-- Node3&#45;&gt;Node7 -->
<g id="edge7" class="edge"><title>Node3&#45;&gt;Node7</title>
<path fill="none" stroke="midnightblue" d="M197.15,-286.89C202.411,-277.884 207.947,-268.409 213.424,-259.034"/>
<polygon fill="none" stroke="midnightblue" points="194.015,-285.318 191.993,-295.718 200.059,-288.849 194.015,-285.318"/>
</g>
<!-- Node4 -->
<g id="node4" class="node"><title>Node4</title>
<g id="a_node4"><a xlink:href="class_hydro_couple_1_1_i_identity.html" target="_top" xlink:title="IIdentity interface class defines a method to get the Id of an HydroCouple entity. ">
<polygon fill="white" stroke="black" points="92.0005,-423.529 92.0005,-500.869 240.022,-500.869 240.022,-423.529 92.0005,-423.529"/>
<text text-anchor="middle" x="166.011" y="-488.869" font-family="Monaco" font-size="10.00">HydroCouple::IIdentity</text>
<polyline fill="none" stroke="black" points="92.0005,-479.534 240.022,-479.534 "/>
<text text-anchor="middle" x="166.011" y="-467.534" font-family="Monaco" font-size="10.00"> </text>
<polyline fill="none" stroke="black" points="92.0005,-458.199 240.022,-458.199 "/>
<text text-anchor="start" x="100" y="-446.199" font-family="Monaco" font-size="10.00">+ ~IIdentity()</text>
<text text-anchor="start" x="100" y="-432.864" font-family="Monaco" font-size="10.00">+ id()</text>
</a>
</g>
</g>
<!-- Node4&#45;&gt;Node3 -->
<g id="edge3" class="edge"><title>Node4&#45;&gt;Node3</title>
<path fill="none" stroke="midnightblue" d="M166.011,-413.21C166.011,-404.511 166.011,-395.471 166.011,-386.872"/>
<polygon fill="none" stroke="midnightblue" points="162.511,-413.217 166.011,-423.217 169.511,-413.217 162.511,-413.217"/>
</g>
<!-- Node5 -->
<g id="node5" class="node"><title>Node5</title>
<g id="a_node5"><a xlink:href="class_hydro_couple_1_1_i_description.html" target="_top" xlink:title="IDescription interface class provides descriptive information on a HydroCouple object. ">
<polygon fill="white" stroke="black" points="82.999,-537.869 82.999,-655.214 249.023,-655.214 249.023,-537.869 82.999,-537.869"/>
<text text-anchor="middle" x="166.011" y="-643.214" font-family="Monaco" font-size="10.00">HydroCouple::IDescription</text>
<polyline fill="none" stroke="black" points="82.999,-633.879 249.023,-633.879 "/>
<text text-anchor="middle" x="166.011" y="-621.879" font-family="Monaco" font-size="10.00"> </text>
<polyline fill="none" stroke="black" points="82.999,-612.544 249.023,-612.544 "/>
<text text-anchor="start" x="90.999" y="-600.544" font-family="Monaco" font-size="10.00">+ ~IDescription()</text>
<text text-anchor="start" x="90.999" y="-587.209" font-family="Monaco" font-size="10.00">+ getCaption()</text>
<text text-anchor="start" x="90.999" y="-573.874" font-family="Monaco" font-size="10.00">+ setCaption()</text>
<text text-anchor="start" x="90.999" y="-560.539" font-family="Monaco" font-size="10.00">+ getDescription()</text>
<text text-anchor="start" x="90.999" y="-547.204" font-family="Monaco" font-size="10.00">+ setDescription()</text>
</a>
</g>
</g>
<!-- Node5&#45;&gt;Node4 -->
<g id="edge4" class="edge"><title>Node5&#45;&gt;Node4</title>
<path fill="none" stroke="midnightblue" d="M166.011,-527.303C166.011,-518.264 166.011,-509.277 166.011,-501.017"/>
<polygon fill="none" stroke="midnightblue" points="162.511,-527.494 166.011,-537.494 169.511,-527.494 162.511,-527.494"/>
</g>
<!-- Node6 -->
<g id="node6" class="node"><title>Node6</title>
<g id="a_node6"><a xlink:href="class_hydro_couple_1_1_i_property_changed.html" target="_top" xlink:title="IPropertyChanged interface is used to emit signal/event when a property of an object changes...">
<polygon fill="white" stroke="black" points="70.9971,-692.214 70.9971,-756.219 261.025,-756.219 261.025,-692.214 70.9971,-692.214"/>
<text text-anchor="middle" x="166.011" y="-744.219" font-family="Monaco" font-size="10.00">HydroCouple::IPropertyChanged</text>
<polyline fill="none" stroke="black" points="70.9971,-734.884 261.025,-734.884 "/>
<text text-anchor="middle" x="166.011" y="-722.884" font-family="Monaco" font-size="10.00"> </text>
<polyline fill="none" stroke="black" points="70.9971,-713.549 261.025,-713.549 "/>
<text text-anchor="start" x="78.9971" y="-701.549" font-family="Monaco" font-size="10.00">+ ~IPropertyChanged()</text>
</a>
</g>
</g>
<!-- Node6&#45;&gt;Node5 -->
<g id="edge5" class="edge"><title>Node6&#45;&gt;Node5</title>
<path fill="none" stroke="midnightblue" d="M166.011,-681.893C166.011,-673.508 166.011,-664.542 166.011,-655.7"/>
<polygon fill="none" stroke="midnightblue" points="162.511,-682.151 166.011,-692.151 169.511,-682.151 162.511,-682.151"/>
</g>
<!-- Node7&#45;&gt;Node1 -->
<g id="edge6" class="edge"><title>Node7&#45;&gt;Node1</title>
<path fill="none" stroke="midnightblue" d="M206.28,-106.083C200.296,-96.2885 194.415,-86.6626 189.076,-77.9223"/>
<polygon fill="none" stroke="midnightblue" points="203.354,-108.007 211.554,-114.716 209.327,-104.357 203.354,-108.007"/>
</g>
</g>
</svg>
        <g id="navigator" transform="translate(0 0)" fill="#404254">
                <rect fill="#f2f5e9" fill-opacity="0.5" stroke="#606060" stroke-width=".5" x="0" y="0" width="60" height="60"/>
                <use id="zoomplus" xlink:href="#zoomPlus" x="17" y="9" onmousedown="handleZoom(evt,'in')"/>
                <use id="zoomminus" xlink:href="#zoomMin" x="42" y="9" onmousedown="handleZoom(evt,'out')"/>
                <use id="reset" xlink:href="#resetDef" x="30" y="36" onmousedown="handleReset()"/>
                <g id="arrowUp" xlink:href="#dirArrow" transform="translate(30 24)" onmousedown="handlePan(0,-1)">
                  <use xlink:href="#rim" fill="#404040">
                        <set attributeName="fill" to="#808080" begin="arrowUp.mouseover" end="arrowUp.mouseout"/>
                  </use>
                  <path fill="none" stroke="white" stroke-width="1.5" d="M0,-3.0v7 M-2.5,-0.5L0,-3.0L2.5,-0.5"/>
                </g>
                <g id="arrowRight" xlink:href="#dirArrow" transform="rotate(90) translate(36 -43)" onmousedown="handlePan(1,0)">
                  <use xlink:href="#rim" fill="#404040">
                        <set attributeName="fill" to="#808080" begin="arrowRight.mouseover" end="arrowRight.mouseout"/>
                  </use>
                  <path fill="none" stroke="white" stroke-width="1.5" d="M0,-3.0v7 M-2.5,-0.5L0,-3.0L2.5,-0.5"/>
                </g>
                <g id="arrowDown" xlink:href="#dirArrow" transform="rotate(180) translate(-30 -48)" onmousedown="handlePan(0,1)">
                  <use xlink:href="#rim" fill="#404040">
                        <set attributeName="fill" to="#808080" begin="arrowDown.mouseover" end="arrowDown.mouseout"/>
                  </use>
                  <path fill="none" stroke="white" stroke-width="1.5" d="M0,-3.0v7 M-2.5,-0.5L0,-3.0L2.5,-0.5"/>
                </g>
                <g id="arrowLeft" xlink:href="#dirArrow" transform="rotate(270) translate(-36 17)" onmousedown="handlePan(-1,0)">
                  <use xlink:href="#rim" fill="#404040">
                        <set attributeName="fill" to="#808080" begin="arrowLeft.mouseover" end="arrowLeft.mouseout"/>
                  </use>
                  <path fill="none" stroke="white" stroke-width="1.5" d="M0,-3.0v7 M-2.5,-0.5L0,-3.0L2.5,-0.5"/>
                </g>
        </g>
        <svg viewBox="0 0 15 15" width="100%" height="30px" preserveAspectRatio="xMaxYMin meet">
         <g id="arrow_out" transform="scale(0.3 0.3)">
          <a xlink:href="class_hydro_couple_1_1_spatio_temporal_1_1_i_time_raster_component_item__coll__graph_org.svg" target="_base">
           <rect id="button" ry="5" rx="5" y="6" x="6" height="38" width="38"
                fill="#f2f5e9" fill-opacity="0.5" stroke="#606060" stroke-width="1.0"/>
           <path id="arrow"
             d="M 11.500037,31.436501 C 11.940474,20.09759 22.043105,11.32322 32.158766,21.979434 L 37.068811,17.246167 C 37.068811,17.246167 37.088388,32 37.088388,32 L 22.160133,31.978069 C 22.160133,31.978069 26.997745,27.140456 26.997745,27.140456 C 18.528582,18.264221 13.291696,25.230495 11.500037,31.436501 z"
             style="fill:#404040;"/>
          </a>
         </g>
        </svg>
</svg>
