<?xml version="1.0" encoding="UTF-8" standalone="no"?>
<!DOCTYPE svg PUBLIC "-//W3C//DTD SVG 1.1//EN"
 "http://www.w3.org/Graphics/SVG/1.1/DTD/svg11.dtd">
<!-- Generated by graphviz version 2.38.0 (20140413.2041)
 -->
<!-- Title: HydroCouple::Spatial::IPolyhedralSurfaceArgument Pages: 1 -->
<!--zoomable 1012 -->
<svg id="main" version="1.1" xmlns="http://www.w3.org/2000/svg" xmlns:xlink="http://www.w3.org/1999/xlink" xml:space="preserve" onload="init(evt)">
<style type="text/css"><![CDATA[
.edge:hover path { stroke: red; }
.edge:hover polygon { stroke: red; fill: red; }
]]></style>
<script type="text/javascript"><![CDATA[
var edges = document.getElementsByTagName('g');
if (edges && edges.length) {
  for (var i=0;i<edges.length;i++) {
    if (edges[i].id.substr(0,4)=='edge') {
      edges[i].setAttribute('class','edge');
    }
  }
}
]]></script>
        <defs>
                <circle id="rim" cx="0" cy="0" r="7"/>
                <circle id="rim2" cx="0" cy="0" r="3.5"/>
                <g id="zoomPlus">
                        <use xlink:href="#rim" fill="#404040">
                                <set attributeName="fill" to="#808080" begin="zoomplus.mouseover" end="zoomplus.mouseout"/>
                        </use>
                        <path d="M-4,0h8M0,-4v8" fill="none" stroke="white" stroke-width="1.5" pointer-events="none"/>
                </g>
                <g id="zoomMin">
                        <use xlink:href="#rim" fill="#404040">
                                <set attributeName="fill" to="#808080" begin="zoomminus.mouseover" end="zoomminus.mouseout"/>
                        </use>
                        <path d="M-4,0h8" fill="none" stroke="white" stroke-width="1.5" pointer-events="none"/>
                </g>
                <g id="dirArrow">
                        <path fill="none" stroke="white" stroke-width="1.5" d="M0,-3.0v7 M-2.5,-0.5L0,-3.0L2.5,-0.5"/>
                </g>
               <g id="resetDef">
                       <use xlink:href="#rim2" fill="#404040">
                               <set attributeName="fill" to="#808080" begin="reset.mouseover" end="reset.mouseout"/>
                       </use>
               </g>
        </defs>

<script type="text/javascript">
var viewWidth = 478;
var viewHeight = 1012;
var sectionId = 'dynsection-0';
</script>
<script xlink:href="svgpan.js"/>
<svg id="graph" class="graph">
<g id="viewport">
<title>HydroCouple::Spatial::IPolyhedralSurfaceArgument</title>
<!-- Node1 -->
<g id="node1" class="node"><title>Node1</title>
<polygon fill="#bfbfbf" stroke="black" points="134.002,-114.84 134.002,-192.18 336.032,-192.18 336.032,-114.84 134.002,-114.84"/>
<text text-anchor="start" x="142.002" y="-180.18" font-family="Monaco" font-size="10.00">HydroCouple::Spatial</text>
<text text-anchor="middle" x="235.017" y="-166.845" font-family="Monaco" font-size="10.00">::IPolyhedralSurfaceArgument</text>
<polyline fill="none" stroke="black" points="134.002,-157.51 336.032,-157.51 "/>
<text text-anchor="middle" x="235.017" y="-145.51" font-family="Monaco" font-size="10.00"> </text>
<polyline fill="none" stroke="black" points="134.002,-136.175 336.032,-136.175 "/>
<text text-anchor="start" x="142.002" y="-124.175" font-family="Monaco" font-size="10.00">+ ~IPolyhedralSurfaceArgument()</text>
</g>
<!-- Node8 -->
<g id="node8" class="node"><title>Node8</title>
<g id="a_node8"><a xlink:href="class_hydro_couple_1_1_spatial_1_1_i_polyhedral_surface_only_argument.html" target="_top" xlink:title="An IPolyhedralSurfaceOnlyArgument class with an IPolyhedralSurface component. ">
<polygon fill="none" stroke="black" points="0,-0.5 0,-77.8398 226.034,-77.8398 226.034,-0.5 0,-0.5"/>
<text text-anchor="start" x="8" y="-65.8398" font-family="Monaco" font-size="10.00">HydroCouple::Spatial</text>
<text text-anchor="middle" x="113.017" y="-52.5049" font-family="Monaco" font-size="10.00">::IPolyhedralSurfaceOnlyArgument</text>
<polyline fill="none" stroke="black" points="0,-43.1699 226.034,-43.1699 "/>
<text text-anchor="middle" x="113.017" y="-31.1699" font-family="Monaco" font-size="10.00"> </text>
<polyline fill="none" stroke="black" points="0,-21.835 226.034,-21.835 "/>
<text text-anchor="start" x="8" y="-9.83496" font-family="Monaco" font-size="10.00">+ ~IPolyhedralSurfaceOnlyArgument()</text>
</a>
</g>
</g>
<!-- Node1&#45;&gt;Node8 -->
<g id="edge8" class="edge"><title>Node1&#45;&gt;Node8</title>
<path fill="none" stroke="midnightblue" d="M186.687,-108.007C175.894,-98.0682 164.547,-87.6198 154.08,-77.9816"/>
<polygon fill="none" stroke="midnightblue" points="184.326,-110.591 194.053,-114.79 189.068,-105.441 184.326,-110.591"/>
</g>
<!-- Node9 -->
<g id="node9" class="node"><title>Node9</title>
<g id="a_node9"><a xlink:href="class_hydro_couple_1_1_spatio_temporal_1_1_i_time_polyhedral_surface_argument.html" target="_top" xlink:title="The ITimePolyhedralSurfaceArgument class. ">
<polygon fill="none" stroke="black" points="244,-0.5 244,-77.8398 470.034,-77.8398 470.034,-0.5 244,-0.5"/>
<text text-anchor="start" x="252" y="-65.8398" font-family="Monaco" font-size="10.00">HydroCouple::SpatioTemporal</text>
<text text-anchor="middle" x="357.017" y="-52.5049" font-family="Monaco" font-size="10.00">::ITimePolyhedralSurfaceArgument</text>
<polyline fill="none" stroke="black" points="244,-43.1699 470.034,-43.1699 "/>
<text text-anchor="middle" x="357.017" y="-31.1699" font-family="Monaco" font-size="10.00"> </text>
<polyline fill="none" stroke="black" points="244,-21.835 470.034,-21.835 "/>
<text text-anchor="start" x="252" y="-9.83496" font-family="Monaco" font-size="10.00">+ ~ITimePolyhedralSurfaceArgument()</text>
</a>
</g>
</g>
<!-- Node1&#45;&gt;Node9 -->
<g id="edge9" class="edge"><title>Node1&#45;&gt;Node9</title>
<path fill="none" stroke="midnightblue" d="M283.347,-108.007C294.14,-98.0682 305.487,-87.6198 315.954,-77.9816"/>
<polygon fill="none" stroke="midnightblue" points="280.966,-105.441 275.981,-114.79 285.708,-110.591 280.966,-105.441"/>
</g>
<!-- Node2 -->
<g id="node2" class="node"><title>Node2</title>
<g id="a_node2"><a xlink:href="class_hydro_couple_1_1_i_argument.html" target="_top" xlink:title="IArgument interface class used to set the arguments for components. They can be complex or simple mul...">
<polygon fill="none" stroke="black" points="45.0049,-229.18 45.0049,-413.199 211.029,-413.199 211.029,-229.18 45.0049,-229.18"/>
<text text-anchor="middle" x="128.017" y="-401.199" font-family="Monaco" font-size="10.00">HydroCouple::IArgument</text>
<polyline fill="none" stroke="black" points="45.0049,-391.864 211.029,-391.864 "/>
<text text-anchor="middle" x="128.017" y="-379.864" font-family="Monaco" font-size="10.00"> </text>
<polyline fill="none" stroke="black" points="45.0049,-370.529 211.029,-370.529 "/>
<text text-anchor="start" x="53.0049" y="-358.529" font-family="Monaco" font-size="10.00">+ ~IArgument()</text>
<text text-anchor="start" x="53.0049" y="-345.194" font-family="Monaco" font-size="10.00">+ isOptional()</text>
<text text-anchor="start" x="53.0049" y="-331.859" font-family="Monaco" font-size="10.00">+ isReadOnly()</text>
<text text-anchor="start" x="53.0049" y="-318.524" font-family="Monaco" font-size="10.00">+ toString()</text>
<text text-anchor="start" x="53.0049" y="-305.189" font-family="Monaco" font-size="10.00">+ inputFileTypeFilters()</text>
<text text-anchor="start" x="53.0049" y="-291.854" font-family="Monaco" font-size="10.00">+ canReadFromFile()</text>
<text text-anchor="start" x="53.0049" y="-278.52" font-family="Monaco" font-size="10.00">+ canReadFromString()</text>
<text text-anchor="start" x="53.0049" y="-265.185" font-family="Monaco" font-size="10.00">+ currentArgumentIOType()</text>
<text text-anchor="start" x="53.0049" y="-251.85" font-family="Monaco" font-size="10.00">+ readValues()</text>
<text text-anchor="start" x="53.0049" y="-238.515" font-family="Monaco" font-size="10.00">+ readValues()</text>
</a>
</g>
</g>
<!-- Node2&#45;&gt;Node1 -->
<g id="edge1" class="edge"><title>Node2&#45;&gt;Node1</title>
<path fill="none" stroke="midnightblue" d="M192.286,-220.675C198.721,-210.711 204.939,-201.083 210.547,-192.4"/>
<polygon fill="none" stroke="midnightblue" points="189.323,-218.811 186.838,-229.11 195.204,-222.609 189.323,-218.811"/>
</g>
<!-- Node3 -->
<g id="node3" class="node"><title>Node3</title>
<g id="a_node3"><a xlink:href="class_hydro_couple_1_1_i_component_data_item.html" target="_top" xlink:title="IComponentItem is a fundamental unit of data for a component. ">
<polygon fill="none" stroke="black" points="134.002,-450.199 134.002,-634.219 336.032,-634.219 336.032,-450.199 134.002,-450.199"/>
<text text-anchor="middle" x="235.017" y="-622.219" font-family="Monaco" font-size="10.00">HydroCouple::IComponentDataItem</text>
<polyline fill="none" stroke="black" points="134.002,-612.884 336.032,-612.884 "/>
<text text-anchor="middle" x="235.017" y="-600.884" font-family="Monaco" font-size="10.00"> </text>
<polyline fill="none" stroke="black" points="134.002,-591.549 336.032,-591.549 "/>
<text text-anchor="start" x="142.002" y="-579.549" font-family="Monaco" font-size="10.00">+ ~IComponentDataItem()</text>
<text text-anchor="start" x="142.002" y="-566.214" font-family="Monaco" font-size="10.00">+ modelComponent()</text>
<text text-anchor="start" x="142.002" y="-552.879" font-family="Monaco" font-size="10.00">+ dimensions()</text>
<text text-anchor="start" x="142.002" y="-539.544" font-family="Monaco" font-size="10.00">+ valueDefinition()</text>
<text text-anchor="start" x="142.002" y="-526.209" font-family="Monaco" font-size="10.00">+ getValue()</text>
<text text-anchor="start" x="142.002" y="-512.874" font-family="Monaco" font-size="10.00">+ getValues()</text>
<text text-anchor="start" x="142.002" y="-499.539" font-family="Monaco" font-size="10.00">+ getValues()</text>
<text text-anchor="start" x="142.002" y="-486.204" font-family="Monaco" font-size="10.00">+ setValue()</text>
<text text-anchor="start" x="142.002" y="-472.869" font-family="Monaco" font-size="10.00">+ setValues()</text>
<text text-anchor="start" x="142.002" y="-459.534" font-family="Monaco" font-size="10.00">+ setValues()</text>
</a>
</g>
</g>
<!-- Node3&#45;&gt;Node2 -->
<g id="edge2" class="edge"><title>Node3&#45;&gt;Node2</title>
<path fill="none" stroke="midnightblue" d="M185.961,-440.796C181.49,-431.643 176.976,-422.405 172.548,-413.34"/>
<polygon fill="none" stroke="midnightblue" points="182.88,-442.462 190.414,-449.911 189.169,-439.389 182.88,-442.462"/>
</g>
<!-- Node7 -->
<g id="node7" class="node"><title>Node7</title>
<g id="a_node7"><a xlink:href="class_hydro_couple_1_1_spatial_1_1_i_polyhedral_surface_component_data_item.html" target="_top" xlink:title="IPolyhedralSurfaceComponentItem represents IPolyhedralSurface IComponentItem. ">
<polygon fill="none" stroke="black" points="229,-249.182 229,-393.197 455.034,-393.197 455.034,-249.182 229,-249.182"/>
<text text-anchor="start" x="237" y="-381.197" font-family="Monaco" font-size="10.00">HydroCouple::Spatial</text>
<text text-anchor="start" x="237" y="-367.862" font-family="Monaco" font-size="10.00">::IPolyhedralSurfaceComponent</text>
<text text-anchor="middle" x="342.017" y="-354.527" font-family="Monaco" font-size="10.00">DataItem</text>
<polyline fill="none" stroke="black" points="229,-345.192 455.034,-345.192 "/>
<text text-anchor="middle" x="342.017" y="-333.192" font-family="Monaco" font-size="10.00"> </text>
<polyline fill="none" stroke="black" points="229,-323.857 455.034,-323.857 "/>
<text text-anchor="start" x="237" y="-311.857" font-family="Monaco" font-size="10.00">+ ~IPolyhedralSurfaceComponent</text>
<text text-anchor="start" x="237" y="-298.522" font-family="Monaco" font-size="10.00">DataItem()</text>
<text text-anchor="start" x="237" y="-285.187" font-family="Monaco" font-size="10.00">+ polyhedralSurface()</text>
<text text-anchor="start" x="237" y="-271.852" font-family="Monaco" font-size="10.00">+ polygon()</text>
<text text-anchor="start" x="237" y="-258.517" font-family="Monaco" font-size="10.00">+ polyhedralSurfacePatchDimension()</text>
</a>
</g>
</g>
<!-- Node3&#45;&gt;Node7 -->
<g id="edge7" class="edge"><title>Node3&#45;&gt;Node7</title>
<path fill="none" stroke="midnightblue" d="M284.188,-440.56C291.98,-424.611 299.895,-408.41 307.266,-393.322"/>
<polygon fill="none" stroke="midnightblue" points="280.865,-439.389 279.62,-449.911 287.154,-442.462 280.865,-439.389"/>
</g>
<!-- Node4 -->
<g id="node4" class="node"><title>Node4</title>
<g id="a_node4"><a xlink:href="class_hydro_couple_1_1_i_identity.html" target="_top" xlink:title="IIdentity interface class defines a method to get the Id of an HydroCouple entity. ">
<polygon fill="none" stroke="black" points="161.006,-671.219 161.006,-748.559 309.028,-748.559 309.028,-671.219 161.006,-671.219"/>
<text text-anchor="middle" x="235.017" y="-736.559" font-family="Monaco" font-size="10.00">HydroCouple::IIdentity</text>
<polyline fill="none" stroke="black" points="161.006,-727.224 309.028,-727.224 "/>
<text text-anchor="middle" x="235.017" y="-715.224" font-family="Monaco" font-size="10.00"> </text>
<polyline fill="none" stroke="black" points="161.006,-705.889 309.028,-705.889 "/>
<text text-anchor="start" x="169.006" y="-693.889" font-family="Monaco" font-size="10.00">+ ~IIdentity()</text>
<text text-anchor="start" x="169.006" y="-680.554" font-family="Monaco" font-size="10.00">+ id()</text>
</a>
</g>
</g>
<!-- Node4&#45;&gt;Node3 -->
<g id="edge3" class="edge"><title>Node4&#45;&gt;Node3</title>
<path fill="none" stroke="midnightblue" d="M235.017,-660.636C235.017,-652.283 235.017,-643.358 235.017,-634.3"/>
<polygon fill="none" stroke="midnightblue" points="231.517,-660.878 235.017,-670.878 238.517,-660.878 231.517,-660.878"/>
</g>
<!-- Node5 -->
<g id="node5" class="node"><title>Node5</title>
<g id="a_node5"><a xlink:href="class_hydro_couple_1_1_i_description.html" target="_top" xlink:title="IDescription interface class provides descriptive information on a HydroCouple object. ">
<polygon fill="none" stroke="black" points="152.005,-785.559 152.005,-902.903 318.029,-902.903 318.029,-785.559 152.005,-785.559"/>
<text text-anchor="middle" x="235.017" y="-890.903" font-family="Monaco" font-size="10.00">HydroCouple::IDescription</text>
<polyline fill="none" stroke="black" points="152.005,-881.568 318.029,-881.568 "/>
<text text-anchor="middle" x="235.017" y="-869.568" font-family="Monaco" font-size="10.00"> </text>
<polyline fill="none" stroke="black" points="152.005,-860.233 318.029,-860.233 "/>
<text text-anchor="start" x="160.005" y="-848.233" font-family="Monaco" font-size="10.00">+ ~IDescription()</text>
<text text-anchor="start" x="160.005" y="-834.898" font-family="Monaco" font-size="10.00">+ caption()</text>
<text text-anchor="start" x="160.005" y="-821.563" font-family="Monaco" font-size="10.00">+ setCaption()</text>
<text text-anchor="start" x="160.005" y="-808.229" font-family="Monaco" font-size="10.00">+ description()</text>
<text text-anchor="start" x="160.005" y="-794.894" font-family="Monaco" font-size="10.00">+ setDescription()</text>
</a>
</g>
</g>
<!-- Node5&#45;&gt;Node4 -->
<g id="edge4" class="edge"><title>Node5&#45;&gt;Node4</title>
<path fill="none" stroke="midnightblue" d="M235.017,-774.993C235.017,-765.954 235.017,-756.966 235.017,-748.706"/>
<polygon fill="none" stroke="midnightblue" points="231.517,-775.184 235.017,-785.184 238.517,-775.184 231.517,-775.184"/>
</g>
<!-- Node6 -->
<g id="node6" class="node"><title>Node6</title>
<g id="a_node6"><a xlink:href="class_hydro_couple_1_1_i_property_changed.html" target="_top" xlink:title="IPropertyChanged interface is used to emit signal/event when a property of an object changes...">
<polygon fill="none" stroke="black" points="140.003,-939.903 140.003,-1003.91 330.031,-1003.91 330.031,-939.903 140.003,-939.903"/>
<text text-anchor="middle" x="235.017" y="-991.908" font-family="Monaco" font-size="10.00">HydroCouple::IPropertyChanged</text>
<polyline fill="none" stroke="black" points="140.003,-982.573 330.031,-982.573 "/>
<text text-anchor="middle" x="235.017" y="-970.573" font-family="Monaco" font-size="10.00"> </text>
<polyline fill="none" stroke="black" points="140.003,-961.238 330.031,-961.238 "/>
<text text-anchor="start" x="148.003" y="-949.238" font-family="Monaco" font-size="10.00">+ ~IPropertyChanged()</text>
</a>
</g>
</g>
<!-- Node6&#45;&gt;Node5 -->
<g id="edge5" class="edge"><title>Node6&#45;&gt;Node5</title>
<path fill="none" stroke="midnightblue" d="M235.017,-929.583C235.017,-921.198 235.017,-912.231 235.017,-903.389"/>
<polygon fill="none" stroke="midnightblue" points="231.517,-929.84 235.017,-939.84 238.517,-929.84 231.517,-929.84"/>
</g>
<!-- Node7&#45;&gt;Node1 -->
<g id="edge6" class="edge"><title>Node7&#45;&gt;Node1</title>
<path fill="none" stroke="midnightblue" d="M290.391,-240.251C279.594,-223.533 268.695,-206.657 259.456,-192.351"/>
<polygon fill="none" stroke="midnightblue" points="287.653,-242.463 296.018,-248.965 293.533,-238.666 287.653,-242.463"/>
</g>
</g>
</svg>
        <g id="navigator" transform="translate(0 0)" fill="#404254">
                <rect fill="#f2f5e9" fill-opacity="0.5" stroke="#606060" stroke-width=".5" x="0" y="0" width="60" height="60"/>
                <use id="zoomplus" xlink:href="#zoomPlus" x="17" y="9" onmousedown="handleZoom(evt,'in')"/>
                <use id="zoomminus" xlink:href="#zoomMin" x="42" y="9" onmousedown="handleZoom(evt,'out')"/>
                <use id="reset" xlink:href="#resetDef" x="30" y="36" onmousedown="handleReset()"/>
                <g id="arrowUp" xlink:href="#dirArrow" transform="translate(30 24)" onmousedown="handlePan(0,-1)">
                  <use xlink:href="#rim" fill="#404040">
                        <set attributeName="fill" to="#808080" begin="arrowUp.mouseover" end="arrowUp.mouseout"/>
                  </use>
                  <path fill="none" stroke="white" stroke-width="1.5" d="M0,-3.0v7 M-2.5,-0.5L0,-3.0L2.5,-0.5"/>
                </g>
                <g id="arrowRight" xlink:href="#dirArrow" transform="rotate(90) translate(36 -43)" onmousedown="handlePan(1,0)">
                  <use xlink:href="#rim" fill="#404040">
                        <set attributeName="fill" to="#808080" begin="arrowRight.mouseover" end="arrowRight.mouseout"/>
                  </use>
                  <path fill="none" stroke="white" stroke-width="1.5" d="M0,-3.0v7 M-2.5,-0.5L0,-3.0L2.5,-0.5"/>
                </g>
                <g id="arrowDown" xlink:href="#dirArrow" transform="rotate(180) translate(-30 -48)" onmousedown="handlePan(0,1)">
                  <use xlink:href="#rim" fill="#404040">
                        <set attributeName="fill" to="#808080" begin="arrowDown.mouseover" end="arrowDown.mouseout"/>
                  </use>
                  <path fill="none" stroke="white" stroke-width="1.5" d="M0,-3.0v7 M-2.5,-0.5L0,-3.0L2.5,-0.5"/>
                </g>
                <g id="arrowLeft" xlink:href="#dirArrow" transform="rotate(270) translate(-36 17)" onmousedown="handlePan(-1,0)">
                  <use xlink:href="#rim" fill="#404040">
                        <set attributeName="fill" to="#808080" begin="arrowLeft.mouseover" end="arrowLeft.mouseout"/>
                  </use>
                  <path fill="none" stroke="white" stroke-width="1.5" d="M0,-3.0v7 M-2.5,-0.5L0,-3.0L2.5,-0.5"/>
                </g>
        </g>
        <svg viewBox="0 0 15 15" width="100%" height="30px" preserveAspectRatio="xMaxYMin meet">
         <g id="arrow_out" transform="scale(0.3 0.3)">
          <a xlink:href="class_hydro_couple_1_1_spatial_1_1_i_polyhedral_surface_argument__inherit__graph_org.svg" target="_base">
           <rect id="button" ry="5" rx="5" y="6" x="6" height="38" width="38"
                fill="#f2f5e9" fill-opacity="0.5" stroke="#606060" stroke-width="1.0"/>
           <path id="arrow"
             d="M 11.500037,31.436501 C 11.940474,20.09759 22.043105,11.32322 32.158766,21.979434 L 37.068811,17.246167 C 37.068811,17.246167 37.088388,32 37.088388,32 L 22.160133,31.978069 C 22.160133,31.978069 26.997745,27.140456 26.997745,27.140456 C 18.528582,18.264221 13.291696,25.230495 11.500037,31.436501 z"
             style="fill:#404040;"/>
          </a>
         </g>
        </svg>
</svg>
