<?xml version="1.0" encoding="UTF-8" standalone="no"?>
<!DOCTYPE svg PUBLIC "-//W3C//DTD SVG 1.1//EN"
 "http://www.w3.org/Graphics/SVG/1.1/DTD/svg11.dtd">
<!-- Generated by graphviz version 2.38.0 (20140413.2041)
 -->
<!-- Title: HydroCouple::Spatial::IPolygon Pages: 1 -->
<svg width="198pt" height="1511pt"
 viewBox="0.00 0.00 198.03 1511.48" xmlns="http://www.w3.org/2000/svg" xmlns:xlink="http://www.w3.org/1999/xlink">
<g id="graph0" class="graph" transform="scale(1 1) rotate(0) translate(4 1507.48)">
<title>HydroCouple::Spatial::IPolygon</title>
<polygon fill="white" stroke="none" points="-4,4 -4,-1507.48 194.028,-1507.48 194.028,4 -4,4"/>
<!-- Node1 -->
<g id="node1" class="node"><title>Node1</title>
<polygon fill="#bfbfbf" stroke="black" points="24.0039,-0.5 24.0039,-171.185 166.024,-171.185 166.024,-0.5 24.0039,-0.5"/>
<text text-anchor="start" x="32.0039" y="-159.185" font-family="Monaco" font-size="10.00">HydroCouple::Spatial</text>
<text text-anchor="middle" x="95.0142" y="-145.85" font-family="Monaco" font-size="10.00">::IPolygon</text>
<polyline fill="none" stroke="black" points="24.0039,-136.515 166.024,-136.515 "/>
<text text-anchor="middle" x="95.0142" y="-124.515" font-family="Monaco" font-size="10.00"> </text>
<polyline fill="none" stroke="black" points="24.0039,-115.18 166.024,-115.18 "/>
<text text-anchor="start" x="32.0039" y="-103.18" font-family="Monaco" font-size="10.00">+ ~IPolygon()</text>
<text text-anchor="start" x="32.0039" y="-89.8447" font-family="Monaco" font-size="10.00">+ exteriorRing()</text>
<text text-anchor="start" x="32.0039" y="-76.5098" font-family="Monaco" font-size="10.00">+ interiorRingCount()</text>
<text text-anchor="start" x="32.0039" y="-63.1748" font-family="Monaco" font-size="10.00">+ interiorRing()</text>
<text text-anchor="start" x="32.0039" y="-49.8398" font-family="Monaco" font-size="10.00">+ edge()</text>
<text text-anchor="start" x="32.0039" y="-36.5049" font-family="Monaco" font-size="10.00">+ addEdge()</text>
<text text-anchor="start" x="32.0039" y="-23.1699" font-family="Monaco" font-size="10.00">+ removeEdge()</text>
<text text-anchor="start" x="32.0039" y="-9.83496" font-family="Monaco" font-size="10.00">+ polyhydralSurface()</text>
</g>
<!-- Node2 -->
<g id="node2" class="node"><title>Node2</title>
<g id="a_node2"><a xlink:href="class_hydro_couple_1_1_spatial_1_1_i_surface.html" target="_top" xlink:title="A ISurface is a 2&#45;dimensional IGeometry object. ">
<polygon fill="white" stroke="black" points="21.0034,-208.185 21.0034,-338.864 169.025,-338.864 169.025,-208.185 21.0034,-208.185"/>
<text text-anchor="start" x="29.0034" y="-326.864" font-family="Monaco" font-size="10.00">HydroCouple::Spatial</text>
<text text-anchor="middle" x="95.0142" y="-313.529" font-family="Monaco" font-size="10.00">::ISurface</text>
<polyline fill="none" stroke="black" points="21.0034,-304.194 169.025,-304.194 "/>
<text text-anchor="middle" x="95.0142" y="-292.194" font-family="Monaco" font-size="10.00"> </text>
<polyline fill="none" stroke="black" points="21.0034,-282.859 169.025,-282.859 "/>
<text text-anchor="start" x="29.0034" y="-270.859" font-family="Monaco" font-size="10.00">+ ~ISurface()</text>
<text text-anchor="start" x="29.0034" y="-257.524" font-family="Monaco" font-size="10.00">+ area()</text>
<text text-anchor="start" x="29.0034" y="-244.189" font-family="Monaco" font-size="10.00">+ centroid()</text>
<text text-anchor="start" x="29.0034" y="-230.854" font-family="Monaco" font-size="10.00">+ pointOnSurface()</text>
<text text-anchor="start" x="29.0034" y="-217.52" font-family="Monaco" font-size="10.00">+ boundaryMultiCurve()</text>
</a>
</g>
</g>
<!-- Node2&#45;&gt;Node1 -->
<g id="edge1" class="edge"><title>Node2&#45;&gt;Node1</title>
<path fill="none" stroke="midnightblue" d="M95.0142,-197.974C95.0142,-189.241 95.0142,-180.283 95.0142,-171.426"/>
<polygon fill="none" stroke="midnightblue" points="91.5143,-198.103 95.0142,-208.103 98.5143,-198.103 91.5143,-198.103"/>
</g>
<!-- Node3 -->
<g id="node3" class="node"><title>Node3</title>
<g id="a_node3"><a xlink:href="class_hydro_couple_1_1_spatial_1_1_i_geometry.html" target="_top" xlink:title="IGeometry is the root class of the hierarchy. ">
<polygon fill="white" stroke="black" points="9.00146,-375.864 9.00146,-1106.62 181.027,-1106.62 181.027,-375.864 9.00146,-375.864"/>
<text text-anchor="start" x="17.0015" y="-1094.62" font-family="Monaco" font-size="10.00">HydroCouple::Spatial</text>
<text text-anchor="middle" x="95.0142" y="-1081.28" font-family="Monaco" font-size="10.00">::IGeometry</text>
<polyline fill="none" stroke="black" points="9.00146,-1071.95 181.027,-1071.95 "/>
<text text-anchor="middle" x="95.0142" y="-1059.95" font-family="Monaco" font-size="10.00"> </text>
<polyline fill="none" stroke="black" points="9.00146,-1050.61 181.027,-1050.61 "/>
<text text-anchor="start" x="17.0015" y="-1038.61" font-family="Monaco" font-size="10.00">+ ~IGeometry()</text>
<text text-anchor="start" x="17.0015" y="-1025.28" font-family="Monaco" font-size="10.00">+ index()</text>
<text text-anchor="start" x="17.0015" y="-1011.94" font-family="Monaco" font-size="10.00">+ dimension()</text>
<text text-anchor="start" x="17.0015" y="-998.607" font-family="Monaco" font-size="10.00">+ coordinateDimension()</text>
<text text-anchor="start" x="17.0015" y="-985.272" font-family="Monaco" font-size="10.00">+ geometryType()</text>
<text text-anchor="start" x="17.0015" y="-971.938" font-family="Monaco" font-size="10.00">+ spatialReferenceSystem()</text>
<text text-anchor="start" x="17.0015" y="-958.603" font-family="Monaco" font-size="10.00">+ envelope()</text>
<text text-anchor="start" x="17.0015" y="-945.268" font-family="Monaco" font-size="10.00">+ wkt()</text>
<text text-anchor="start" x="17.0015" y="-931.933" font-family="Monaco" font-size="10.00">+ wkb()</text>
<text text-anchor="start" x="17.0015" y="-918.598" font-family="Monaco" font-size="10.00">+ isEmpty()</text>
<text text-anchor="start" x="17.0015" y="-905.263" font-family="Monaco" font-size="10.00">+ isSimple()</text>
<text text-anchor="start" x="17.0015" y="-891.928" font-family="Monaco" font-size="10.00">+ is3D()</text>
<text text-anchor="start" x="17.0015" y="-878.593" font-family="Monaco" font-size="10.00">+ isMeasured()</text>
<text text-anchor="start" x="17.0015" y="-865.258" font-family="Monaco" font-size="10.00">+ boundary()</text>
<text text-anchor="start" x="17.0015" y="-851.923" font-family="Monaco" font-size="10.00">+ equals()</text>
<text text-anchor="start" x="17.0015" y="-838.588" font-family="Monaco" font-size="10.00">+ disjoint()</text>
<text text-anchor="start" x="17.0015" y="-825.253" font-family="Monaco" font-size="10.00">+ intersects()</text>
<text text-anchor="start" x="17.0015" y="-811.918" font-family="Monaco" font-size="10.00">+ touches()</text>
<text text-anchor="start" x="17.0015" y="-798.583" font-family="Monaco" font-size="10.00">+ crosses()</text>
<text text-anchor="start" x="17.0015" y="-785.248" font-family="Monaco" font-size="10.00">+ within()</text>
<text text-anchor="start" x="17.0015" y="-771.913" font-family="Monaco" font-size="10.00">+ contains()</text>
<text text-anchor="start" x="17.0015" y="-758.578" font-family="Monaco" font-size="10.00">+ overlaps()</text>
<text text-anchor="start" x="17.0015" y="-745.243" font-family="Monaco" font-size="10.00">+ relate()</text>
<text text-anchor="start" x="17.0015" y="-731.908" font-family="Monaco" font-size="10.00">+ loocateAlong()</text>
<text text-anchor="start" x="17.0015" y="-718.573" font-family="Monaco" font-size="10.00">+ locateBetween()</text>
<text text-anchor="start" x="17.0015" y="-705.238" font-family="Monaco" font-size="10.00">+ distance()</text>
<text text-anchor="start" x="17.0015" y="-691.903" font-family="Monaco" font-size="10.00">+ buffer()</text>
<text text-anchor="start" x="17.0015" y="-678.568" font-family="Monaco" font-size="10.00">+ convexHull()</text>
<text text-anchor="start" x="17.0015" y="-665.233" font-family="Monaco" font-size="10.00">+ intersection()</text>
<text text-anchor="start" x="17.0015" y="-651.898" font-family="Monaco" font-size="10.00">+ uniong()</text>
<text text-anchor="start" x="17.0015" y="-638.563" font-family="Monaco" font-size="10.00">+ difference()</text>
<text text-anchor="start" x="17.0015" y="-625.229" font-family="Monaco" font-size="10.00">+ symmetricDifference()</text>
<text text-anchor="start" x="17.0015" y="-611.894" font-family="Monaco" font-size="10.00">* equals()</text>
<text text-anchor="start" x="17.0015" y="-598.559" font-family="Monaco" font-size="10.00">* disjoint()</text>
<text text-anchor="start" x="17.0015" y="-585.224" font-family="Monaco" font-size="10.00">* intersects()</text>
<text text-anchor="start" x="17.0015" y="-571.889" font-family="Monaco" font-size="10.00">* touches()</text>
<text text-anchor="start" x="17.0015" y="-558.554" font-family="Monaco" font-size="10.00">* crosses()</text>
<text text-anchor="start" x="17.0015" y="-545.219" font-family="Monaco" font-size="10.00">* within()</text>
<text text-anchor="start" x="17.0015" y="-531.884" font-family="Monaco" font-size="10.00">* contains()</text>
<text text-anchor="start" x="17.0015" y="-518.549" font-family="Monaco" font-size="10.00">* overlaps()</text>
<text text-anchor="start" x="17.0015" y="-505.214" font-family="Monaco" font-size="10.00">* relate()</text>
<text text-anchor="start" x="17.0015" y="-491.879" font-family="Monaco" font-size="10.00">* loocateAlong()</text>
<text text-anchor="start" x="17.0015" y="-478.544" font-family="Monaco" font-size="10.00">* locateBetween()</text>
<text text-anchor="start" x="17.0015" y="-465.209" font-family="Monaco" font-size="10.00">* distance()</text>
<text text-anchor="start" x="17.0015" y="-451.874" font-family="Monaco" font-size="10.00">* buffer()</text>
<text text-anchor="start" x="17.0015" y="-438.539" font-family="Monaco" font-size="10.00">* convexHull()</text>
<text text-anchor="start" x="17.0015" y="-425.204" font-family="Monaco" font-size="10.00">* intersection()</text>
<text text-anchor="start" x="17.0015" y="-411.869" font-family="Monaco" font-size="10.00">* uniong()</text>
<text text-anchor="start" x="17.0015" y="-398.534" font-family="Monaco" font-size="10.00">* difference()</text>
<text text-anchor="start" x="17.0015" y="-385.199" font-family="Monaco" font-size="10.00">* symmetricDifference()</text>
</a>
</g>
</g>
<!-- Node3&#45;&gt;Node2 -->
<g id="edge2" class="edge"><title>Node3&#45;&gt;Node2</title>
<path fill="none" stroke="midnightblue" d="M95.0142,-365.305C95.0142,-356.01 95.0142,-347.204 95.0142,-338.997"/>
<polygon fill="none" stroke="midnightblue" points="91.5143,-365.578 95.0142,-375.578 98.5143,-365.578 91.5143,-365.578"/>
</g>
<!-- Node4 -->
<g id="node4" class="node"><title>Node4</title>
<g id="a_node4"><a xlink:href="class_hydro_couple_1_1_i_identity.html" target="_top" xlink:title="IIdentity interface class defines a method to get the Id of an HydroCouple entity. ">
<polygon fill="white" stroke="black" points="21.0034,-1143.62 21.0034,-1247.63 169.025,-1247.63 169.025,-1143.62 21.0034,-1143.62"/>
<text text-anchor="middle" x="95.0142" y="-1235.63" font-family="Monaco" font-size="10.00">HydroCouple::IIdentity</text>
<polyline fill="none" stroke="black" points="21.0034,-1226.29 169.025,-1226.29 "/>
<text text-anchor="middle" x="95.0142" y="-1214.29" font-family="Monaco" font-size="10.00"> </text>
<polyline fill="none" stroke="black" points="21.0034,-1204.96 169.025,-1204.96 "/>
<text text-anchor="start" x="29.0034" y="-1192.96" font-family="Monaco" font-size="10.00">+ ~IIdentity()</text>
<text text-anchor="start" x="29.0034" y="-1179.62" font-family="Monaco" font-size="10.00">+ MPI_Comm()</text>
<text text-anchor="start" x="29.0034" y="-1166.29" font-family="Monaco" font-size="10.00">+ MPI_Rank()</text>
<text text-anchor="start" x="29.0034" y="-1152.95" font-family="Monaco" font-size="10.00">+ id()</text>
</a>
</g>
</g>
<!-- Node4&#45;&gt;Node3 -->
<g id="edge3" class="edge"><title>Node4&#45;&gt;Node3</title>
<path fill="none" stroke="midnightblue" d="M95.0142,-1133.47C95.0142,-1125.18 95.0142,-1116.24 95.0142,-1106.78"/>
<polygon fill="none" stroke="midnightblue" points="91.5143,-1133.61 95.0142,-1143.61 98.5143,-1133.61 91.5143,-1133.61"/>
</g>
<!-- Node5 -->
<g id="node5" class="node"><title>Node5</title>
<g id="a_node5"><a xlink:href="class_hydro_couple_1_1_i_description.html" target="_top" xlink:title="IDescription interface class provides descriptive information on a HydroCouple object. ">
<polygon fill="white" stroke="black" points="12.002,-1284.63 12.002,-1401.97 178.026,-1401.97 178.026,-1284.63 12.002,-1284.63"/>
<text text-anchor="middle" x="95.0142" y="-1389.97" font-family="Monaco" font-size="10.00">HydroCouple::IDescription</text>
<polyline fill="none" stroke="black" points="12.002,-1380.64 178.026,-1380.64 "/>
<text text-anchor="middle" x="95.0142" y="-1368.64" font-family="Monaco" font-size="10.00"> </text>
<polyline fill="none" stroke="black" points="12.002,-1359.3 178.026,-1359.3 "/>
<text text-anchor="start" x="20.002" y="-1347.3" font-family="Monaco" font-size="10.00">+ ~IDescription()</text>
<text text-anchor="start" x="20.002" y="-1333.97" font-family="Monaco" font-size="10.00">+ getCaption()</text>
<text text-anchor="start" x="20.002" y="-1320.63" font-family="Monaco" font-size="10.00">+ setCaption()</text>
<text text-anchor="start" x="20.002" y="-1307.3" font-family="Monaco" font-size="10.00">+ getDescription()</text>
<text text-anchor="start" x="20.002" y="-1293.96" font-family="Monaco" font-size="10.00">+ setDescription()</text>
</a>
</g>
</g>
<!-- Node5&#45;&gt;Node4 -->
<g id="edge4" class="edge"><title>Node5&#45;&gt;Node4</title>
<path fill="none" stroke="midnightblue" d="M95.0142,-1274.03C95.0142,-1265.21 95.0142,-1256.3 95.0142,-1247.82"/>
<polygon fill="none" stroke="midnightblue" points="91.5143,-1274.31 95.0142,-1284.31 98.5143,-1274.31 91.5143,-1274.31"/>
</g>
<!-- Node6 -->
<g id="node6" class="node"><title>Node6</title>
<g id="a_node6"><a xlink:href="class_hydro_couple_1_1_i_property_changed.html" target="_top" xlink:title="IPropertyChanged interface is used to emit signal/event when a property of an object changes...">
<polygon fill="white" stroke="black" points="0,-1438.97 0,-1502.98 190.028,-1502.98 190.028,-1438.97 0,-1438.97"/>
<text text-anchor="middle" x="95.0142" y="-1490.98" font-family="Monaco" font-size="10.00">HydroCouple::IPropertyChanged</text>
<polyline fill="none" stroke="black" points="0,-1481.64 190.028,-1481.64 "/>
<text text-anchor="middle" x="95.0142" y="-1469.64" font-family="Monaco" font-size="10.00"> </text>
<polyline fill="none" stroke="black" points="0,-1460.31 190.028,-1460.31 "/>
<text text-anchor="start" x="8" y="-1448.31" font-family="Monaco" font-size="10.00">+ ~IPropertyChanged()</text>
</a>
</g>
</g>
<!-- Node6&#45;&gt;Node5 -->
<g id="edge5" class="edge"><title>Node6&#45;&gt;Node5</title>
<path fill="none" stroke="midnightblue" d="M95.0142,-1428.65C95.0142,-1420.27 95.0142,-1411.3 95.0142,-1402.46"/>
<polygon fill="none" stroke="midnightblue" points="91.5143,-1428.91 95.0142,-1438.91 98.5143,-1428.91 91.5143,-1428.91"/>
</g>
</g>
</svg>
