<?xml version="1.0" encoding="UTF-8" standalone="no"?>
<!DOCTYPE svg PUBLIC "-//W3C//DTD SVG 1.1//EN"
 "http://www.w3.org/Graphics/SVG/1.1/DTD/svg11.dtd">
<!-- Generated by graphviz version 2.38.0 (20140413.2041)
 -->
<!-- Title: HydroCouple::Spatial::IPolyhedralSurfaceExchangeItem Pages: 1 -->
<!--zoomable 852 -->
<svg id="main" version="1.1" xmlns="http://www.w3.org/2000/svg" xmlns:xlink="http://www.w3.org/1999/xlink" xml:space="preserve" onload="init(evt)">
<style type="text/css"><![CDATA[
.edge:hover path { stroke: red; }
.edge:hover polygon { stroke: red; fill: red; }
]]></style>
<script type="text/javascript"><![CDATA[
var edges = document.getElementsByTagName('g');
if (edges && edges.length) {
  for (var i=0;i<edges.length;i++) {
    if (edges[i].id.substr(0,4)=='edge') {
      edges[i].setAttribute('class','edge');
    }
  }
}
]]></script>
        <defs>
                <circle id="rim" cx="0" cy="0" r="7"/>
                <circle id="rim2" cx="0" cy="0" r="3.5"/>
                <g id="zoomPlus">
                        <use xlink:href="#rim" fill="#404040">
                                <set attributeName="fill" to="#808080" begin="zoomplus.mouseover" end="zoomplus.mouseout"/>
                        </use>
                        <path d="M-4,0h8M0,-4v8" fill="none" stroke="white" stroke-width="1.5" pointer-events="none"/>
                </g>
                <g id="zoomMin">
                        <use xlink:href="#rim" fill="#404040">
                                <set attributeName="fill" to="#808080" begin="zoomminus.mouseover" end="zoomminus.mouseout"/>
                        </use>
                        <path d="M-4,0h8" fill="none" stroke="white" stroke-width="1.5" pointer-events="none"/>
                </g>
                <g id="dirArrow">
                        <path fill="none" stroke="white" stroke-width="1.5" d="M0,-3.0v7 M-2.5,-0.5L0,-3.0L2.5,-0.5"/>
                </g>
               <g id="resetDef">
                       <use xlink:href="#rim2" fill="#404040">
                               <set attributeName="fill" to="#808080" begin="reset.mouseover" end="reset.mouseout"/>
                       </use>
               </g>
        </defs>

<script type="text/javascript">
var viewWidth = 430;
var viewHeight = 852;
var sectionId = 'dynsection-0';
</script>
<script xlink:href="svgpan.js"/>
<svg id="graph" class="graph">
<g id="viewport">
<title>HydroCouple::Spatial::IPolyhedralSurfaceExchangeItem</title>
<polygon fill="white" stroke="none" points="-4,4 -4,-848.389 426.03,-848.389 426.03,4 -4,4"/>
<!-- Node1 -->
<g id="node1" class="node"><title>Node1</title>
<polygon fill="#bfbfbf" stroke="black" points="82.9956,-114.84 82.9956,-192.18 309.03,-192.18 309.03,-114.84 82.9956,-114.84"/>
<text text-anchor="start" x="90.9956" y="-180.18" font-family="Monaco" font-size="10.00">HydroCouple::Spatial</text>
<text text-anchor="middle" x="196.013" y="-166.845" font-family="Monaco" font-size="10.00">::IPolyhedralSurfaceExchangeItem</text>
<polyline fill="none" stroke="black" points="82.9956,-157.51 309.03,-157.51 "/>
<text text-anchor="middle" x="196.013" y="-145.51" font-family="Monaco" font-size="10.00"> </text>
<polyline fill="none" stroke="black" points="82.9956,-136.175 309.03,-136.175 "/>
<text text-anchor="start" x="90.9956" y="-124.175" font-family="Monaco" font-size="10.00">+ ~IPolyhedralSurfaceExchangeItem()</text>
</g>
<!-- Node8 -->
<g id="node8" class="node"><title>Node8</title>
<g id="a_node8"><a xlink:href="class_hydro_couple_1_1_spatio_temporal_1_1_i_time_polyhedral_surface_exchange_item.html" target="_top" xlink:title="The ITimePolyhedralSurfaceExchangeItem class. ">
<polygon fill="white" stroke="black" points="70.9937,-0.5 70.9937,-77.8398 321.032,-77.8398 321.032,-0.5 70.9937,-0.5"/>
<text text-anchor="start" x="78.9937" y="-65.8398" font-family="Monaco" font-size="10.00">HydroCouple::SpatioTemporal</text>
<text text-anchor="middle" x="196.013" y="-52.5049" font-family="Monaco" font-size="10.00">::ITimePolyhedralSurfaceExchangeItem</text>
<polyline fill="none" stroke="black" points="70.9937,-43.1699 321.032,-43.1699 "/>
<text text-anchor="middle" x="196.013" y="-31.1699" font-family="Monaco" font-size="10.00"> </text>
<polyline fill="none" stroke="black" points="70.9937,-21.835 321.032,-21.835 "/>
<text text-anchor="start" x="78.9937" y="-9.83496" font-family="Monaco" font-size="10.00">+ ~ITimePolyhedralSurfaceExchangeItem()</text>
</a>
</g>
</g>
<!-- Node1&#45;&gt;Node8 -->
<g id="edge8" class="edge"><title>Node1&#45;&gt;Node8</title>
<path fill="none" stroke="midnightblue" d="M196.013,-104.548C196.013,-95.6678 196.013,-86.5077 196.013,-77.9816"/>
<polygon fill="none" stroke="midnightblue" points="192.513,-104.79 196.013,-114.79 199.513,-104.79 192.513,-104.79"/>
</g>
<!-- Node2 -->
<g id="node2" class="node"><title>Node2</title>
<g id="a_node2"><a xlink:href="class_hydro_couple_1_1_i_exchange_item.html" target="_top" xlink:title="IExchangeItem the base data item the can be exchanged between components at runtime. ">
<polygon fill="white" stroke="black" points="0,-249.182 0,-326.522 172.025,-326.522 172.025,-249.182 0,-249.182"/>
<text text-anchor="middle" x="86.0127" y="-314.522" font-family="Monaco" font-size="10.00">HydroCouple::IExchangeItem</text>
<polyline fill="none" stroke="black" points="0,-305.187 172.025,-305.187 "/>
<text text-anchor="middle" x="86.0127" y="-293.187" font-family="Monaco" font-size="10.00"> </text>
<polyline fill="none" stroke="black" points="0,-283.852 172.025,-283.852 "/>
<text text-anchor="start" x="8" y="-271.852" font-family="Monaco" font-size="10.00">+ ~IExchangeItem()</text>
<text text-anchor="start" x="8" y="-258.517" font-family="Monaco" font-size="10.00">+ itemChanged()</text>
</a>
</g>
</g>
<!-- Node2&#45;&gt;Node1 -->
<g id="edge1" class="edge"><title>Node2&#45;&gt;Node1</title>
<path fill="none" stroke="midnightblue" d="M124.258,-240.839C137.396,-225.033 151.944,-207.53 164.487,-192.439"/>
<polygon fill="none" stroke="midnightblue" points="121.235,-239 117.534,-248.928 126.618,-243.475 121.235,-239"/>
</g>
<!-- Node3 -->
<g id="node3" class="node"><title>Node3</title>
<g id="a_node3"><a xlink:href="class_hydro_couple_1_1_i_component_item.html" target="_top" xlink:title="IComponentItem is a fundamental unit of data for a component. ">
<polygon fill="white" stroke="black" points="107,-383.524 107,-474.199 285.026,-474.199 285.026,-383.524 107,-383.524"/>
<text text-anchor="middle" x="196.013" y="-462.199" font-family="Monaco" font-size="10.00">HydroCouple::IComponentItem</text>
<polyline fill="none" stroke="black" points="107,-452.864 285.026,-452.864 "/>
<text text-anchor="middle" x="196.013" y="-440.864" font-family="Monaco" font-size="10.00"> </text>
<polyline fill="none" stroke="black" points="107,-431.529 285.026,-431.529 "/>
<text text-anchor="start" x="115" y="-419.529" font-family="Monaco" font-size="10.00">+ ~IComponentItem()</text>
<text text-anchor="start" x="115" y="-406.194" font-family="Monaco" font-size="10.00">+ modelComponent()</text>
<text text-anchor="start" x="115" y="-392.859" font-family="Monaco" font-size="10.00">+ dimensions()</text>
</a>
</g>
</g>
<!-- Node3&#45;&gt;Node2 -->
<g id="edge2" class="edge"><title>Node3&#45;&gt;Node2</title>
<path fill="none" stroke="midnightblue" d="M154.692,-375.644C141.834,-359.395 127.911,-341.799 115.983,-326.727"/>
<polygon fill="none" stroke="midnightblue" points="151.956,-377.826 160.906,-383.496 157.445,-373.482 151.956,-377.826"/>
</g>
<!-- Node7 -->
<g id="node7" class="node"><title>Node7</title>
<g id="a_node7"><a xlink:href="class_hydro_couple_1_1_spatial_1_1_i_polyhedral_surface_component_item.html" target="_top" xlink:title="IPolyhedralSurfaceComponentItem represents IPolyhedralSurface IComponentItem. ">
<polygon fill="white" stroke="black" points="189.995,-229.18 189.995,-346.524 422.03,-346.524 422.03,-229.18 189.995,-229.18"/>
<text text-anchor="start" x="197.995" y="-334.524" font-family="Monaco" font-size="10.00">HydroCouple::Spatial</text>
<text text-anchor="middle" x="306.013" y="-321.189" font-family="Monaco" font-size="10.00">::IPolyhedralSurfaceComponentItem</text>
<polyline fill="none" stroke="black" points="189.995,-311.854 422.03,-311.854 "/>
<text text-anchor="middle" x="306.013" y="-299.854" font-family="Monaco" font-size="10.00"> </text>
<polyline fill="none" stroke="black" points="189.995,-290.52 422.03,-290.52 "/>
<text text-anchor="start" x="197.995" y="-278.52" font-family="Monaco" font-size="10.00">+ ~IPolyhedralSurfaceComponentItem()</text>
<text text-anchor="start" x="197.995" y="-265.185" font-family="Monaco" font-size="10.00">+ patchDimension()</text>
<text text-anchor="start" x="197.995" y="-251.85" font-family="Monaco" font-size="10.00">+ polyhedralSurface()</text>
<text text-anchor="start" x="197.995" y="-238.515" font-family="Monaco" font-size="10.00">+ geometry()</text>
</a>
</g>
</g>
<!-- Node3&#45;&gt;Node7 -->
<g id="edge7" class="edge"><title>Node3&#45;&gt;Node7</title>
<path fill="none" stroke="midnightblue" d="M237.521,-375.407C244.923,-366.053 252.673,-356.259 260.187,-346.763"/>
<polygon fill="none" stroke="midnightblue" points="234.581,-373.482 231.12,-383.496 240.07,-377.826 234.581,-373.482"/>
</g>
<!-- Node4 -->
<g id="node4" class="node"><title>Node4</title>
<g id="a_node4"><a xlink:href="class_hydro_couple_1_1_i_identity.html" target="_top" xlink:title="IIdentity interface class defines a method to get the Id of an HydroCouple entity. ">
<polygon fill="white" stroke="black" points="122.002,-511.199 122.002,-588.539 270.023,-588.539 270.023,-511.199 122.002,-511.199"/>
<text text-anchor="middle" x="196.013" y="-576.539" font-family="Monaco" font-size="10.00">HydroCouple::IIdentity</text>
<polyline fill="none" stroke="black" points="122.002,-567.204 270.023,-567.204 "/>
<text text-anchor="middle" x="196.013" y="-555.204" font-family="Monaco" font-size="10.00"> </text>
<polyline fill="none" stroke="black" points="122.002,-545.869 270.023,-545.869 "/>
<text text-anchor="start" x="130.002" y="-533.869" font-family="Monaco" font-size="10.00">+ ~IIdentity()</text>
<text text-anchor="start" x="130.002" y="-520.534" font-family="Monaco" font-size="10.00">+ id()</text>
</a>
</g>
</g>
<!-- Node4&#45;&gt;Node3 -->
<g id="edge3" class="edge"><title>Node4&#45;&gt;Node3</title>
<path fill="none" stroke="midnightblue" d="M196.013,-500.88C196.013,-492.181 196.013,-483.141 196.013,-474.542"/>
<polygon fill="none" stroke="midnightblue" points="192.513,-500.887 196.013,-510.887 199.513,-500.887 192.513,-500.887"/>
</g>
<!-- Node5 -->
<g id="node5" class="node"><title>Node5</title>
<g id="a_node5"><a xlink:href="class_hydro_couple_1_1_i_description.html" target="_top" xlink:title="IDescription interface class provides descriptive information on a HydroCouple object. ">
<polygon fill="white" stroke="black" points="113,-625.539 113,-742.884 279.025,-742.884 279.025,-625.539 113,-625.539"/>
<text text-anchor="middle" x="196.013" y="-730.884" font-family="Monaco" font-size="10.00">HydroCouple::IDescription</text>
<polyline fill="none" stroke="black" points="113,-721.549 279.025,-721.549 "/>
<text text-anchor="middle" x="196.013" y="-709.549" font-family="Monaco" font-size="10.00"> </text>
<polyline fill="none" stroke="black" points="113,-700.214 279.025,-700.214 "/>
<text text-anchor="start" x="121" y="-688.214" font-family="Monaco" font-size="10.00">+ ~IDescription()</text>
<text text-anchor="start" x="121" y="-674.879" font-family="Monaco" font-size="10.00">+ getCaption()</text>
<text text-anchor="start" x="121" y="-661.544" font-family="Monaco" font-size="10.00">+ setCaption()</text>
<text text-anchor="start" x="121" y="-648.209" font-family="Monaco" font-size="10.00">+ getDescription()</text>
<text text-anchor="start" x="121" y="-634.874" font-family="Monaco" font-size="10.00">+ setDescription()</text>
</a>
</g>
</g>
<!-- Node5&#45;&gt;Node4 -->
<g id="edge4" class="edge"><title>Node5&#45;&gt;Node4</title>
<path fill="none" stroke="midnightblue" d="M196.013,-614.973C196.013,-605.934 196.013,-596.947 196.013,-588.687"/>
<polygon fill="none" stroke="midnightblue" points="192.513,-615.164 196.013,-625.164 199.513,-615.164 192.513,-615.164"/>
</g>
<!-- Node6 -->
<g id="node6" class="node"><title>Node6</title>
<g id="a_node6"><a xlink:href="class_hydro_couple_1_1_i_property_changed.html" target="_top" xlink:title="IPropertyChanged interface is used to emit signal/event when a property of an object changes...">
<polygon fill="white" stroke="black" points="100.999,-779.884 100.999,-843.889 291.027,-843.889 291.027,-779.884 100.999,-779.884"/>
<text text-anchor="middle" x="196.013" y="-831.889" font-family="Monaco" font-size="10.00">HydroCouple::IPropertyChanged</text>
<polyline fill="none" stroke="black" points="100.999,-822.554 291.027,-822.554 "/>
<text text-anchor="middle" x="196.013" y="-810.554" font-family="Monaco" font-size="10.00"> </text>
<polyline fill="none" stroke="black" points="100.999,-801.219 291.027,-801.219 "/>
<text text-anchor="start" x="108.999" y="-789.219" font-family="Monaco" font-size="10.00">+ ~IPropertyChanged()</text>
</a>
</g>
</g>
<!-- Node6&#45;&gt;Node5 -->
<g id="edge5" class="edge"><title>Node6&#45;&gt;Node5</title>
<path fill="none" stroke="midnightblue" d="M196.013,-769.563C196.013,-761.178 196.013,-752.212 196.013,-743.37"/>
<polygon fill="none" stroke="midnightblue" points="192.513,-769.821 196.013,-779.821 199.513,-769.821 192.513,-769.821"/>
</g>
<!-- Node7&#45;&gt;Node1 -->
<g id="edge6" class="edge"><title>Node7&#45;&gt;Node1</title>
<path fill="none" stroke="midnightblue" d="M251.234,-220.947C243.071,-211.127 234.902,-201.298 227.446,-192.327"/>
<polygon fill="none" stroke="midnightblue" points="248.681,-223.352 257.765,-228.805 254.065,-218.877 248.681,-223.352"/>
</g>
</g>
</svg>
        <g id="navigator" transform="translate(0 0)" fill="#404254">
                <rect fill="#f2f5e9" fill-opacity="0.5" stroke="#606060" stroke-width=".5" x="0" y="0" width="60" height="60"/>
                <use id="zoomplus" xlink:href="#zoomPlus" x="17" y="9" onmousedown="handleZoom(evt,'in')"/>
                <use id="zoomminus" xlink:href="#zoomMin" x="42" y="9" onmousedown="handleZoom(evt,'out')"/>
                <use id="reset" xlink:href="#resetDef" x="30" y="36" onmousedown="handleReset()"/>
                <g id="arrowUp" xlink:href="#dirArrow" transform="translate(30 24)" onmousedown="handlePan(0,-1)">
                  <use xlink:href="#rim" fill="#404040">
                        <set attributeName="fill" to="#808080" begin="arrowUp.mouseover" end="arrowUp.mouseout"/>
                  </use>
                  <path fill="none" stroke="white" stroke-width="1.5" d="M0,-3.0v7 M-2.5,-0.5L0,-3.0L2.5,-0.5"/>
                </g>
                <g id="arrowRight" xlink:href="#dirArrow" transform="rotate(90) translate(36 -43)" onmousedown="handlePan(1,0)">
                  <use xlink:href="#rim" fill="#404040">
                        <set attributeName="fill" to="#808080" begin="arrowRight.mouseover" end="arrowRight.mouseout"/>
                  </use>
                  <path fill="none" stroke="white" stroke-width="1.5" d="M0,-3.0v7 M-2.5,-0.5L0,-3.0L2.5,-0.5"/>
                </g>
                <g id="arrowDown" xlink:href="#dirArrow" transform="rotate(180) translate(-30 -48)" onmousedown="handlePan(0,1)">
                  <use xlink:href="#rim" fill="#404040">
                        <set attributeName="fill" to="#808080" begin="arrowDown.mouseover" end="arrowDown.mouseout"/>
                  </use>
                  <path fill="none" stroke="white" stroke-width="1.5" d="M0,-3.0v7 M-2.5,-0.5L0,-3.0L2.5,-0.5"/>
                </g>
                <g id="arrowLeft" xlink:href="#dirArrow" transform="rotate(270) translate(-36 17)" onmousedown="handlePan(-1,0)">
                  <use xlink:href="#rim" fill="#404040">
                        <set attributeName="fill" to="#808080" begin="arrowLeft.mouseover" end="arrowLeft.mouseout"/>
                  </use>
                  <path fill="none" stroke="white" stroke-width="1.5" d="M0,-3.0v7 M-2.5,-0.5L0,-3.0L2.5,-0.5"/>
                </g>
        </g>
        <svg viewBox="0 0 15 15" width="100%" height="30px" preserveAspectRatio="xMaxYMin meet">
         <g id="arrow_out" transform="scale(0.3 0.3)">
          <a xlink:href="class_hydro_couple_1_1_spatial_1_1_i_polyhedral_surface_exchange_item__inherit__graph_org.svg" target="_base">
           <rect id="button" ry="5" rx="5" y="6" x="6" height="38" width="38"
                fill="#f2f5e9" fill-opacity="0.5" stroke="#606060" stroke-width="1.0"/>
           <path id="arrow"
             d="M 11.500037,31.436501 C 11.940474,20.09759 22.043105,11.32322 32.158766,21.979434 L 37.068811,17.246167 C 37.068811,17.246167 37.088388,32 37.088388,32 L 22.160133,31.978069 C 22.160133,31.978069 26.997745,27.140456 26.997745,27.140456 C 18.528582,18.264221 13.291696,25.230495 11.500037,31.436501 z"
             style="fill:#404040;"/>
          </a>
         </g>
        </svg>
</svg>
