<?xml version="1.0" encoding="UTF-8" standalone="no"?>
<!DOCTYPE svg PUBLIC "-//W3C//DTD SVG 1.1//EN"
 "http://www.w3.org/Graphics/SVG/1.1/DTD/svg11.dtd">
<!-- Generated by graphviz version 2.38.0 (20140413.2041)
 -->
<!-- Title: Description Pages: 1 -->
<svg width="226pt" height="375pt"
 viewBox="0.00 0.00 225.88 375.00" xmlns="http://www.w3.org/2000/svg" xmlns:xlink="http://www.w3.org/1999/xlink">
<g id="graph0" class="graph" transform="scale(1 1) rotate(0) translate(4 371)">
<title>Description</title>
<polygon fill="white" stroke="none" points="-4,4 -4,-371 221.881,-371 221.881,4 -4,4"/>
<!-- Node1 -->
<g id="node1" class="node"><title>Node1</title>
<polygon fill="#bfbfbf" stroke="black" points="33.7402,-0.5 33.7402,-144.5 128.939,-144.5 128.939,-0.5 33.7402,-0.5"/>
<text text-anchor="middle" x="81.3398" y="-132.5" font-family="Helvetica,sans-Serif" font-size="10.00">Description</text>
<polyline fill="none" stroke="black" points="33.7402,-126.5 128.939,-126.5 "/>
<text text-anchor="start" x="41.7402" y="-114.5" font-family="Helvetica,sans-Serif" font-size="10.00">+ Caption</text>
<text text-anchor="start" x="41.7402" y="-104.5" font-family="Helvetica,sans-Serif" font-size="10.00">+ Description</text>
<text text-anchor="start" x="41.7402" y="-94.5" font-family="Helvetica,sans-Serif" font-size="10.00"># m_caption</text>
<text text-anchor="start" x="41.7402" y="-84.5" font-family="Helvetica,sans-Serif" font-size="10.00"># m_description</text>
<polyline fill="none" stroke="black" points="33.7402,-78.5 128.939,-78.5 "/>
<text text-anchor="start" x="41.7402" y="-66.5" font-family="Helvetica,sans-Serif" font-size="10.00">+ Description()</text>
<text text-anchor="start" x="41.7402" y="-56.5" font-family="Helvetica,sans-Serif" font-size="10.00">+ Description()</text>
<text text-anchor="start" x="41.7402" y="-46.5" font-family="Helvetica,sans-Serif" font-size="10.00">+ ~Description()</text>
<text text-anchor="start" x="41.7402" y="-36.5" font-family="Helvetica,sans-Serif" font-size="10.00">+ getCaption()</text>
<text text-anchor="start" x="41.7402" y="-26.5" font-family="Helvetica,sans-Serif" font-size="10.00">+ setCaption()</text>
<text text-anchor="start" x="41.7402" y="-16.5" font-family="Helvetica,sans-Serif" font-size="10.00">+ getDescription()</text>
<text text-anchor="start" x="41.7402" y="-6.5" font-family="Helvetica,sans-Serif" font-size="10.00">+ setDescription()</text>
</g>
<!-- Node2 -->
<g id="node2" class="node"><title>Node2</title>
<polygon fill="white" stroke="#bfbfbf" points="0,-201.5 0,-255.5 52.6797,-255.5 52.6797,-201.5 0,-201.5"/>
<text text-anchor="middle" x="26.3398" y="-243.5" font-family="Helvetica,sans-Serif" font-size="10.00">QObject</text>
<polyline fill="none" stroke="#bfbfbf" points="0,-237.5 52.6797,-237.5 "/>
<text text-anchor="middle" x="26.3398" y="-225.5" font-family="Helvetica,sans-Serif" font-size="10.00"> </text>
<polyline fill="none" stroke="#bfbfbf" points="0,-219.5 52.6797,-219.5 "/>
<text text-anchor="middle" x="26.3398" y="-207.5" font-family="Helvetica,sans-Serif" font-size="10.00"> </text>
</g>
<!-- Node2&#45;&gt;Node1 -->
<g id="edge1" class="edge"><title>Node2&#45;&gt;Node1</title>
<path fill="none" stroke="midnightblue" d="M39.1499,-191.632C44.1747,-177.562 50.1257,-160.9 55.9497,-144.592"/>
<polygon fill="none" stroke="midnightblue" points="35.7372,-190.781 35.6698,-201.376 42.3294,-193.136 35.7372,-190.781"/>
</g>
<!-- Node3 -->
<g id="node3" class="node"><title>Node3</title>
<g id="a_node3"><a xlink:href="class_hydro_couple_1_1_i_description.html" target="_top" xlink:title="IDescription interface class provides descriptive information on a HydroCouple object. ">
<polygon fill="white" stroke="black" points="70.9805,-181.5 70.9805,-275.5 203.699,-275.5 203.699,-181.5 70.9805,-181.5"/>
<text text-anchor="middle" x="137.34" y="-263.5" font-family="Helvetica,sans-Serif" font-size="10.00">HydroCouple::IDescription</text>
<polyline fill="none" stroke="black" points="70.9805,-257.5 203.699,-257.5 "/>
<text text-anchor="middle" x="137.34" y="-245.5" font-family="Helvetica,sans-Serif" font-size="10.00"> </text>
<polyline fill="none" stroke="black" points="70.9805,-239.5 203.699,-239.5 "/>
<text text-anchor="start" x="78.9805" y="-227.5" font-family="Helvetica,sans-Serif" font-size="10.00">+ ~IDescription()</text>
<text text-anchor="start" x="78.9805" y="-217.5" font-family="Helvetica,sans-Serif" font-size="10.00">+ getCaption()</text>
<text text-anchor="start" x="78.9805" y="-207.5" font-family="Helvetica,sans-Serif" font-size="10.00">+ setCaption()</text>
<text text-anchor="start" x="78.9805" y="-197.5" font-family="Helvetica,sans-Serif" font-size="10.00">+ getDescription()</text>
<text text-anchor="start" x="78.9805" y="-187.5" font-family="Helvetica,sans-Serif" font-size="10.00">+ setDescription()</text>
</a>
</g>
</g>
<!-- Node3&#45;&gt;Node1 -->
<g id="edge2" class="edge"><title>Node3&#45;&gt;Node1</title>
<path fill="none" stroke="midnightblue" d="M117.022,-171.627C113.846,-162.892 110.527,-153.764 107.246,-144.742"/>
<polygon fill="none" stroke="midnightblue" points="113.831,-173.093 120.538,-181.295 120.41,-170.701 113.831,-173.093"/>
</g>
<!-- Node4 -->
<g id="node4" class="node"><title>Node4</title>
<g id="a_node4"><a xlink:href="class_hydro_couple_1_1_i_property_changed.html" target="_top" xlink:title="IPropertyChanged interface is used to emit signal/event when a property of an object changes...">
<polygon fill="white" stroke="black" points="56.7983,-312.5 56.7983,-366.5 217.881,-366.5 217.881,-312.5 56.7983,-312.5"/>
<text text-anchor="middle" x="137.34" y="-354.5" font-family="Helvetica,sans-Serif" font-size="10.00">HydroCouple::IPropertyChanged</text>
<polyline fill="none" stroke="black" points="56.7983,-348.5 217.881,-348.5 "/>
<text text-anchor="middle" x="137.34" y="-336.5" font-family="Helvetica,sans-Serif" font-size="10.00"> </text>
<polyline fill="none" stroke="black" points="56.7983,-330.5 217.881,-330.5 "/>
<text text-anchor="start" x="64.7983" y="-318.5" font-family="Helvetica,sans-Serif" font-size="10.00">+ ~IPropertyChanged()</text>
</a>
</g>
</g>
<!-- Node4&#45;&gt;Node3 -->
<g id="edge3" class="edge"><title>Node4&#45;&gt;Node3</title>
<path fill="none" stroke="midnightblue" d="M137.34,-302.141C137.34,-293.716 137.34,-284.639 137.34,-275.851"/>
<polygon fill="none" stroke="midnightblue" points="133.84,-302.392 137.34,-312.392 140.84,-302.392 133.84,-302.392"/>
</g>
</g>
</svg>
