<?xml version="1.0" encoding="UTF-8" standalone="no"?>
<!DOCTYPE svg PUBLIC "-//W3C//DTD SVG 1.1//EN"
 "http://www.w3.org/Graphics/SVG/1.1/DTD/svg11.dtd">
<!-- Generated by graphviz version 2.38.0 (20140413.2041)
 -->
<!-- Title: HydroCouple::Temporal::ITimeExchangeItem Pages: 1 -->
<svg width="376pt" height="946pt"
 viewBox="0.00 0.00 376.03 945.73" xmlns="http://www.w3.org/2000/svg" xmlns:xlink="http://www.w3.org/1999/xlink">
<g id="graph0" class="graph" transform="scale(1 1) rotate(0) translate(4 941.733)">
<title>HydroCouple::Temporal::ITimeExchangeItem</title>
<!-- Node1 -->
<g id="node1" class="node"><title>Node1</title>
<polygon fill="#bfbfbf" stroke="black" points="108.002,-114.84 108.002,-192.18 256.023,-192.18 256.023,-114.84 108.002,-114.84"/>
<text text-anchor="start" x="116.002" y="-180.18" font-family="Monaco" font-size="10.00">HydroCouple::Temporal</text>
<text text-anchor="middle" x="182.013" y="-166.845" font-family="Monaco" font-size="10.00">::ITimeExchangeItem</text>
<polyline fill="none" stroke="black" points="108.002,-157.51 256.023,-157.51 "/>
<text text-anchor="middle" x="182.013" y="-145.51" font-family="Monaco" font-size="10.00"> </text>
<polyline fill="none" stroke="black" points="108.002,-136.175 256.023,-136.175 "/>
<text text-anchor="start" x="116.002" y="-124.175" font-family="Monaco" font-size="10.00">+ ~ITimeExchangeItem()</text>
</g>
<!-- Node8 -->
<g id="node8" class="node"><title>Node8</title>
<g id="a_node8"><a xlink:href="class_hydro_couple_1_1_temporal_1_1_i_time_series_exchange_item.html" target="_top" xlink:title="The ITimeSeriesExchangeItem class. ">
<polygon fill="none" stroke="black" points="89.999,-0.5 89.999,-77.8398 274.026,-77.8398 274.026,-0.5 89.999,-0.5"/>
<text text-anchor="start" x="97.999" y="-65.8398" font-family="Monaco" font-size="10.00">HydroCouple::Temporal</text>
<text text-anchor="middle" x="182.013" y="-52.5049" font-family="Monaco" font-size="10.00">::ITimeSeriesExchangeItem</text>
<polyline fill="none" stroke="black" points="89.999,-43.1699 274.026,-43.1699 "/>
<text text-anchor="middle" x="182.013" y="-31.1699" font-family="Monaco" font-size="10.00"> </text>
<polyline fill="none" stroke="black" points="89.999,-21.835 274.026,-21.835 "/>
<text text-anchor="start" x="97.999" y="-9.83496" font-family="Monaco" font-size="10.00">+ ~ITimeSeriesExchangeItem()</text>
</a>
</g>
</g>
<!-- Node1&#45;&gt;Node8 -->
<g id="edge8" class="edge"><title>Node1&#45;&gt;Node8</title>
<path fill="none" stroke="midnightblue" d="M182.013,-104.548C182.013,-95.6678 182.013,-86.5077 182.013,-77.9816"/>
<polygon fill="none" stroke="midnightblue" points="178.513,-104.79 182.013,-114.79 185.513,-104.79 178.513,-104.79"/>
</g>
<!-- Node2 -->
<g id="node2" class="node"><title>Node2</title>
<g id="a_node2"><a xlink:href="class_hydro_couple_1_1_i_exchange_item.html" target="_top" xlink:title="IExchangeItem the base data item the can be exchanged between components at runtime. ">
<polygon fill="none" stroke="black" points="0,-249.182 0,-326.522 172.025,-326.522 172.025,-249.182 0,-249.182"/>
<text text-anchor="middle" x="86.0127" y="-314.522" font-family="Monaco" font-size="10.00">HydroCouple::IExchangeItem</text>
<polyline fill="none" stroke="black" points="0,-305.187 172.025,-305.187 "/>
<text text-anchor="middle" x="86.0127" y="-293.187" font-family="Monaco" font-size="10.00"> </text>
<polyline fill="none" stroke="black" points="0,-283.852 172.025,-283.852 "/>
<text text-anchor="start" x="8" y="-271.852" font-family="Monaco" font-size="10.00">+ ~IExchangeItem()</text>
<text text-anchor="start" x="8" y="-258.517" font-family="Monaco" font-size="10.00">+ itemChanged()</text>
</a>
</g>
</g>
<!-- Node2&#45;&gt;Node1 -->
<g id="edge1" class="edge"><title>Node2&#45;&gt;Node1</title>
<path fill="none" stroke="midnightblue" d="M119.706,-240.403C131.089,-224.712 143.653,-207.391 154.499,-192.439"/>
<polygon fill="none" stroke="midnightblue" points="116.561,-238.778 113.522,-248.928 122.227,-242.889 116.561,-238.778"/>
</g>
<!-- Node3 -->
<g id="node3" class="node"><title>Node3</title>
<g id="a_node3"><a xlink:href="class_hydro_couple_1_1_i_component_data_item.html" target="_top" xlink:title="IComponentItem is a fundamental unit of data for a component. ">
<polygon fill="none" stroke="black" points="80.9976,-383.524 80.9976,-567.544 283.028,-567.544 283.028,-383.524 80.9976,-383.524"/>
<text text-anchor="middle" x="182.013" y="-555.544" font-family="Monaco" font-size="10.00">HydroCouple::IComponentDataItem</text>
<polyline fill="none" stroke="black" points="80.9976,-546.209 283.028,-546.209 "/>
<text text-anchor="middle" x="182.013" y="-534.209" font-family="Monaco" font-size="10.00"> </text>
<polyline fill="none" stroke="black" points="80.9976,-524.874 283.028,-524.874 "/>
<text text-anchor="start" x="88.9976" y="-512.874" font-family="Monaco" font-size="10.00">+ ~IComponentDataItem()</text>
<text text-anchor="start" x="88.9976" y="-499.539" font-family="Monaco" font-size="10.00">+ modelComponent()</text>
<text text-anchor="start" x="88.9976" y="-486.204" font-family="Monaco" font-size="10.00">+ dimensions()</text>
<text text-anchor="start" x="88.9976" y="-472.869" font-family="Monaco" font-size="10.00">+ valueDefinition()</text>
<text text-anchor="start" x="88.9976" y="-459.534" font-family="Monaco" font-size="10.00">+ getValue()</text>
<text text-anchor="start" x="88.9976" y="-446.199" font-family="Monaco" font-size="10.00">+ getValues()</text>
<text text-anchor="start" x="88.9976" y="-432.864" font-family="Monaco" font-size="10.00">+ getValues()</text>
<text text-anchor="start" x="88.9976" y="-419.529" font-family="Monaco" font-size="10.00">+ setValue()</text>
<text text-anchor="start" x="88.9976" y="-406.194" font-family="Monaco" font-size="10.00">+ setValues()</text>
<text text-anchor="start" x="88.9976" y="-392.859" font-family="Monaco" font-size="10.00">+ setValues()</text>
</a>
</g>
</g>
<!-- Node3&#45;&gt;Node2 -->
<g id="edge2" class="edge"><title>Node3&#45;&gt;Node2</title>
<path fill="none" stroke="midnightblue" d="M130.256,-374.427C121.476,-357.445 112.865,-340.789 105.607,-326.751"/>
<polygon fill="none" stroke="midnightblue" points="127.155,-376.049 134.856,-383.325 133.373,-372.835 127.155,-376.049"/>
</g>
<!-- Node7 -->
<g id="node7" class="node"><title>Node7</title>
<g id="a_node7"><a xlink:href="class_hydro_couple_1_1_temporal_1_1_i_time_component_data_item.html" target="_top" xlink:title="ITimeComponentItem is an IComponentItem with a temporal attribute. ">
<polygon fill="none" stroke="black" points="190,-229.18 190,-346.524 368.026,-346.524 368.026,-229.18 190,-229.18"/>
<text text-anchor="start" x="198" y="-334.524" font-family="Monaco" font-size="10.00">HydroCouple::Temporal</text>
<text text-anchor="middle" x="279.013" y="-321.189" font-family="Monaco" font-size="10.00">::ITimeComponentDataItem</text>
<polyline fill="none" stroke="black" points="190,-311.854 368.026,-311.854 "/>
<text text-anchor="middle" x="279.013" y="-299.854" font-family="Monaco" font-size="10.00"> </text>
<polyline fill="none" stroke="black" points="190,-290.52 368.026,-290.52 "/>
<text text-anchor="start" x="198" y="-278.52" font-family="Monaco" font-size="10.00">+ ~ITimeComponentDataItem()</text>
<text text-anchor="start" x="198" y="-265.185" font-family="Monaco" font-size="10.00">+ times()</text>
<text text-anchor="start" x="198" y="-251.85" font-family="Monaco" font-size="10.00">+ timeSpan()</text>
<text text-anchor="start" x="198" y="-238.515" font-family="Monaco" font-size="10.00">+ timeDimension()</text>
</a>
</g>
</g>
<!-- Node3&#45;&gt;Node7 -->
<g id="edge7" class="edge"><title>Node3&#45;&gt;Node7</title>
<path fill="none" stroke="midnightblue" d="M234.391,-374.268C239.316,-364.842 244.187,-355.518 248.799,-346.688"/>
<polygon fill="none" stroke="midnightblue" points="231.188,-372.841 229.66,-383.325 237.393,-376.082 231.188,-372.841"/>
</g>
<!-- Node4 -->
<g id="node4" class="node"><title>Node4</title>
<g id="a_node4"><a xlink:href="class_hydro_couple_1_1_i_identity.html" target="_top" xlink:title="IIdentity interface class defines a method to get the Id of an HydroCouple entity. ">
<polygon fill="none" stroke="black" points="108.002,-604.544 108.002,-681.884 256.023,-681.884 256.023,-604.544 108.002,-604.544"/>
<text text-anchor="middle" x="182.013" y="-669.884" font-family="Monaco" font-size="10.00">HydroCouple::IIdentity</text>
<polyline fill="none" stroke="black" points="108.002,-660.549 256.023,-660.549 "/>
<text text-anchor="middle" x="182.013" y="-648.549" font-family="Monaco" font-size="10.00"> </text>
<polyline fill="none" stroke="black" points="108.002,-639.214 256.023,-639.214 "/>
<text text-anchor="start" x="116.002" y="-627.214" font-family="Monaco" font-size="10.00">+ ~IIdentity()</text>
<text text-anchor="start" x="116.002" y="-613.879" font-family="Monaco" font-size="10.00">+ id()</text>
</a>
</g>
</g>
<!-- Node4&#45;&gt;Node3 -->
<g id="edge3" class="edge"><title>Node4&#45;&gt;Node3</title>
<path fill="none" stroke="midnightblue" d="M182.013,-593.962C182.013,-585.608 182.013,-576.683 182.013,-567.625"/>
<polygon fill="none" stroke="midnightblue" points="178.513,-594.204 182.013,-604.204 185.513,-594.204 178.513,-594.204"/>
</g>
<!-- Node5 -->
<g id="node5" class="node"><title>Node5</title>
<g id="a_node5"><a xlink:href="class_hydro_couple_1_1_i_description.html" target="_top" xlink:title="IDescription interface class provides descriptive information on a HydroCouple object. ">
<polygon fill="none" stroke="black" points="99.0005,-718.884 99.0005,-836.229 265.025,-836.229 265.025,-718.884 99.0005,-718.884"/>
<text text-anchor="middle" x="182.013" y="-824.229" font-family="Monaco" font-size="10.00">HydroCouple::IDescription</text>
<polyline fill="none" stroke="black" points="99.0005,-814.894 265.025,-814.894 "/>
<text text-anchor="middle" x="182.013" y="-802.894" font-family="Monaco" font-size="10.00"> </text>
<polyline fill="none" stroke="black" points="99.0005,-793.559 265.025,-793.559 "/>
<text text-anchor="start" x="107" y="-781.559" font-family="Monaco" font-size="10.00">+ ~IDescription()</text>
<text text-anchor="start" x="107" y="-768.224" font-family="Monaco" font-size="10.00">+ caption()</text>
<text text-anchor="start" x="107" y="-754.889" font-family="Monaco" font-size="10.00">+ setCaption()</text>
<text text-anchor="start" x="107" y="-741.554" font-family="Monaco" font-size="10.00">+ description()</text>
<text text-anchor="start" x="107" y="-728.219" font-family="Monaco" font-size="10.00">+ setDescription()</text>
</a>
</g>
</g>
<!-- Node5&#45;&gt;Node4 -->
<g id="edge4" class="edge"><title>Node5&#45;&gt;Node4</title>
<path fill="none" stroke="midnightblue" d="M182.013,-708.318C182.013,-699.279 182.013,-690.292 182.013,-682.031"/>
<polygon fill="none" stroke="midnightblue" points="178.513,-708.509 182.013,-718.509 185.513,-708.509 178.513,-708.509"/>
</g>
<!-- Node6 -->
<g id="node6" class="node"><title>Node6</title>
<g id="a_node6"><a xlink:href="class_hydro_couple_1_1_i_property_changed.html" target="_top" xlink:title="IPropertyChanged interface is used to emit signal/event when a property of an object changes...">
<polygon fill="none" stroke="black" points="86.9985,-873.229 86.9985,-937.233 277.027,-937.233 277.027,-873.229 86.9985,-873.229"/>
<text text-anchor="middle" x="182.013" y="-925.233" font-family="Monaco" font-size="10.00">HydroCouple::IPropertyChanged</text>
<polyline fill="none" stroke="black" points="86.9985,-915.898 277.027,-915.898 "/>
<text text-anchor="middle" x="182.013" y="-903.898" font-family="Monaco" font-size="10.00"> </text>
<polyline fill="none" stroke="black" points="86.9985,-894.563 277.027,-894.563 "/>
<text text-anchor="start" x="94.9985" y="-882.563" font-family="Monaco" font-size="10.00">+ ~IPropertyChanged()</text>
</a>
</g>
</g>
<!-- Node6&#45;&gt;Node5 -->
<g id="edge5" class="edge"><title>Node6&#45;&gt;Node5</title>
<path fill="none" stroke="midnightblue" d="M182.013,-862.908C182.013,-854.523 182.013,-845.557 182.013,-836.715"/>
<polygon fill="none" stroke="midnightblue" points="178.513,-863.165 182.013,-873.165 185.513,-863.165 178.513,-863.165"/>
</g>
<!-- Node7&#45;&gt;Node1 -->
<g id="edge6" class="edge"><title>Node7&#45;&gt;Node1</title>
<path fill="none" stroke="midnightblue" d="M230.494,-220.655C223.367,-210.932 216.241,-201.209 209.731,-192.327"/>
<polygon fill="none" stroke="midnightblue" points="227.732,-222.808 236.467,-228.805 233.378,-218.67 227.732,-222.808"/>
</g>
</g>
</svg>
