<?xml version="1.0" encoding="UTF-8" standalone="no"?>
<!DOCTYPE svg PUBLIC "-//W3C//DTD SVG 1.1//EN"
 "http://www.w3.org/Graphics/SVG/1.1/DTD/svg11.dtd">
<!-- Generated by graphviz version 2.38.0 (20140413.2041)
 -->
<!-- Title: HydroCouple::IExchangeItem Pages: 1 -->
<!--zoomable 819 -->
<svg id="main" version="1.1" xmlns="http://www.w3.org/2000/svg" xmlns:xlink="http://www.w3.org/1999/xlink" xml:space="preserve" onload="init(evt)">
<style type="text/css"><![CDATA[
.edge:hover path { stroke: red; }
.edge:hover polygon { stroke: red; fill: red; }
]]></style>
<script type="text/javascript"><![CDATA[
var edges = document.getElementsByTagName('g');
if (edges && edges.length) {
  for (var i=0;i<edges.length;i++) {
    if (edges[i].id.substr(0,4)=='edge') {
      edges[i].setAttribute('class','edge');
    }
  }
}
]]></script>
        <defs>
                <circle id="rim" cx="0" cy="0" r="7"/>
                <circle id="rim2" cx="0" cy="0" r="3.5"/>
                <g id="zoomPlus">
                        <use xlink:href="#rim" fill="#404040">
                                <set attributeName="fill" to="#808080" begin="zoomplus.mouseover" end="zoomplus.mouseout"/>
                        </use>
                        <path d="M-4,0h8M0,-4v8" fill="none" stroke="white" stroke-width="1.5" pointer-events="none"/>
                </g>
                <g id="zoomMin">
                        <use xlink:href="#rim" fill="#404040">
                                <set attributeName="fill" to="#808080" begin="zoomminus.mouseover" end="zoomminus.mouseout"/>
                        </use>
                        <path d="M-4,0h8" fill="none" stroke="white" stroke-width="1.5" pointer-events="none"/>
                </g>
                <g id="dirArrow">
                        <path fill="none" stroke="white" stroke-width="1.5" d="M0,-3.0v7 M-2.5,-0.5L0,-3.0L2.5,-0.5"/>
                </g>
               <g id="resetDef">
                       <use xlink:href="#rim2" fill="#404040">
                               <set attributeName="fill" to="#808080" begin="reset.mouseover" end="reset.mouseout"/>
                       </use>
               </g>
        </defs>

<script type="text/javascript">
var viewWidth = 271;
var viewHeight = 819;
var sectionId = 'dynsection-0';
</script>
<script xlink:href="svgpan.js"/>
<svg id="graph" class="graph">
<g id="viewport">
<title>HydroCouple::IExchangeItem</title>
<polygon fill="white" stroke="none" points="-4,4 -4,-815 267.458,-815 267.458,4 -4,4"/>
<!-- Node1 -->
<g id="node1" class="node"><title>Node1</title>
<polygon fill="#bfbfbf" stroke="black" points="47.1577,-312.5 47.1577,-376.5 193.783,-376.5 193.783,-312.5 47.1577,-312.5"/>
<text text-anchor="middle" x="120.47" y="-364.5" font-family="Helvetica,sans-Serif" font-size="10.00">HydroCouple::IExchangeItem</text>
<polyline fill="none" stroke="black" points="47.1577,-358.5 193.783,-358.5 "/>
<text text-anchor="middle" x="120.47" y="-346.5" font-family="Helvetica,sans-Serif" font-size="10.00"> </text>
<polyline fill="none" stroke="black" points="47.1577,-340.5 193.783,-340.5 "/>
<text text-anchor="start" x="55.1577" y="-328.5" font-family="Helvetica,sans-Serif" font-size="10.00">+ ~IExchangeItem()</text>
<text text-anchor="start" x="55.1577" y="-318.5" font-family="Helvetica,sans-Serif" font-size="10.00">+ itemChanged()</text>
</g>
<!-- Node6 -->
<g id="node6" class="node"><title>Node6</title>
<g id="a_node6"><a xlink:href="class_hydro_couple_1_1_i_input.html" target="_top" xlink:title="An IInput item that can accept values for an IModelComponent. ">
<polygon fill="white" stroke="black" points="0,-171.5 0,-255.5 104.94,-255.5 104.94,-171.5 0,-171.5"/>
<text text-anchor="middle" x="52.4702" y="-243.5" font-family="Helvetica,sans-Serif" font-size="10.00">HydroCouple::IInput</text>
<polyline fill="none" stroke="black" points="0,-237.5 104.94,-237.5 "/>
<text text-anchor="middle" x="52.4702" y="-225.5" font-family="Helvetica,sans-Serif" font-size="10.00"> </text>
<polyline fill="none" stroke="black" points="0,-219.5 104.94,-219.5 "/>
<text text-anchor="start" x="8" y="-207.5" font-family="Helvetica,sans-Serif" font-size="10.00">+ ~IInput()</text>
<text text-anchor="start" x="8" y="-197.5" font-family="Helvetica,sans-Serif" font-size="10.00">+ getProvider()</text>
<text text-anchor="start" x="8" y="-187.5" font-family="Helvetica,sans-Serif" font-size="10.00">+ setProvider()</text>
<text text-anchor="start" x="8" y="-177.5" font-family="Helvetica,sans-Serif" font-size="10.00">+ canConsume()</text>
</a>
</g>
</g>
<!-- Node1&#45;&gt;Node6 -->
<g id="edge5" class="edge"><title>Node1&#45;&gt;Node6</title>
<path fill="none" stroke="midnightblue" d="M99.2091,-303.166C91.2426,-288.053 82.1852,-270.871 74.1786,-255.682"/>
<polygon fill="none" stroke="midnightblue" points="96.25,-305.059 104.009,-312.273 102.442,-301.794 96.25,-305.059"/>
</g>
<!-- Node7 -->
<g id="node7" class="node"><title>Node7</title>
<g id="a_node7"><a xlink:href="class_hydro_couple_1_1_i_output.html" target="_top" xlink:title="An output exchange item that can deliver values from an IModelComponent. ">
<polygon fill="white" stroke="black" points="122.521,-151.5 122.521,-275.5 254.419,-275.5 254.419,-151.5 122.521,-151.5"/>
<text text-anchor="middle" x="188.47" y="-263.5" font-family="Helvetica,sans-Serif" font-size="10.00">HydroCouple::IOutput</text>
<polyline fill="none" stroke="black" points="122.521,-257.5 254.419,-257.5 "/>
<text text-anchor="middle" x="188.47" y="-245.5" font-family="Helvetica,sans-Serif" font-size="10.00"> </text>
<polyline fill="none" stroke="black" points="122.521,-239.5 254.419,-239.5 "/>
<text text-anchor="start" x="130.521" y="-227.5" font-family="Helvetica,sans-Serif" font-size="10.00">+ ~IOutput()</text>
<text text-anchor="start" x="130.521" y="-217.5" font-family="Helvetica,sans-Serif" font-size="10.00">+ consumers()</text>
<text text-anchor="start" x="130.521" y="-207.5" font-family="Helvetica,sans-Serif" font-size="10.00">+ addConsumer()</text>
<text text-anchor="start" x="130.521" y="-197.5" font-family="Helvetica,sans-Serif" font-size="10.00">+ removeConsumer()</text>
<text text-anchor="start" x="130.521" y="-187.5" font-family="Helvetica,sans-Serif" font-size="10.00">+ adaptedOutputs()</text>
<text text-anchor="start" x="130.521" y="-177.5" font-family="Helvetica,sans-Serif" font-size="10.00">+ addAdaptedOutput()</text>
<text text-anchor="start" x="130.521" y="-167.5" font-family="Helvetica,sans-Serif" font-size="10.00">+ removeAdaptedOutput()</text>
<text text-anchor="start" x="130.521" y="-157.5" font-family="Helvetica,sans-Serif" font-size="10.00">+ updateValues()</text>
</a>
</g>
</g>
<!-- Node1&#45;&gt;Node7 -->
<g id="edge6" class="edge"><title>Node1&#45;&gt;Node7</title>
<path fill="none" stroke="midnightblue" d="M141.601,-303.414C146.229,-294.635 151.229,-285.148 156.182,-275.753"/>
<polygon fill="none" stroke="midnightblue" points="138.498,-301.794 136.931,-312.273 144.69,-305.059 138.498,-301.794"/>
</g>
<!-- Node2 -->
<g id="node2" class="node"><title>Node2</title>
<g id="a_node2"><a xlink:href="class_hydro_couple_1_1_i_component_item.html" target="_top" xlink:title="IComponentItem is a fundamental unit of data for a component. ">
<polygon fill="white" stroke="black" points="43.5469,-413.5 43.5469,-487.5 197.394,-487.5 197.394,-413.5 43.5469,-413.5"/>
<text text-anchor="middle" x="120.47" y="-475.5" font-family="Helvetica,sans-Serif" font-size="10.00">HydroCouple::IComponentItem</text>
<polyline fill="none" stroke="black" points="43.5469,-469.5 197.394,-469.5 "/>
<text text-anchor="middle" x="120.47" y="-457.5" font-family="Helvetica,sans-Serif" font-size="10.00"> </text>
<polyline fill="none" stroke="black" points="43.5469,-451.5 197.394,-451.5 "/>
<text text-anchor="start" x="51.5469" y="-439.5" font-family="Helvetica,sans-Serif" font-size="10.00">+ ~IComponentItem()</text>
<text text-anchor="start" x="51.5469" y="-429.5" font-family="Helvetica,sans-Serif" font-size="10.00">+ modelComponent()</text>
<text text-anchor="start" x="51.5469" y="-419.5" font-family="Helvetica,sans-Serif" font-size="10.00">+ dimensions()</text>
</a>
</g>
</g>
<!-- Node2&#45;&gt;Node1 -->
<g id="edge1" class="edge"><title>Node2&#45;&gt;Node1</title>
<path fill="none" stroke="midnightblue" d="M120.47,-403.38C120.47,-394.347 120.47,-385.074 120.47,-376.67"/>
<polygon fill="none" stroke="midnightblue" points="116.97,-403.418 120.47,-413.418 123.97,-403.418 116.97,-403.418"/>
</g>
<!-- Node3 -->
<g id="node3" class="node"><title>Node3</title>
<g id="a_node3"><a xlink:href="class_hydro_couple_1_1_i_identity.html" target="_top" xlink:title="IIdentity interface class defines a method to get the Id of an HydroCouple entity. ">
<polygon fill="white" stroke="black" points="63,-524.5 63,-588.5 177.94,-588.5 177.94,-524.5 63,-524.5"/>
<text text-anchor="middle" x="120.47" y="-576.5" font-family="Helvetica,sans-Serif" font-size="10.00">HydroCouple::IIdentity</text>
<polyline fill="none" stroke="black" points="63,-570.5 177.94,-570.5 "/>
<text text-anchor="middle" x="120.47" y="-558.5" font-family="Helvetica,sans-Serif" font-size="10.00"> </text>
<polyline fill="none" stroke="black" points="63,-552.5 177.94,-552.5 "/>
<text text-anchor="start" x="71" y="-540.5" font-family="Helvetica,sans-Serif" font-size="10.00">+ ~IIdentity()</text>
<text text-anchor="start" x="71" y="-530.5" font-family="Helvetica,sans-Serif" font-size="10.00">+ id()</text>
</a>
</g>
</g>
<!-- Node3&#45;&gt;Node2 -->
<g id="edge2" class="edge"><title>Node3&#45;&gt;Node2</title>
<path fill="none" stroke="midnightblue" d="M120.47,-514.282C120.47,-505.531 120.47,-496.353 120.47,-487.801"/>
<polygon fill="none" stroke="midnightblue" points="116.97,-514.297 120.47,-524.297 123.97,-514.297 116.97,-514.297"/>
</g>
<!-- Node4 -->
<g id="node4" class="node"><title>Node4</title>
<g id="a_node4"><a xlink:href="class_hydro_couple_1_1_i_description.html" target="_top" xlink:title="IDescription interface class provides descriptive information on a HydroCouple object. ">
<polygon fill="white" stroke="black" points="54.1108,-625.5 54.1108,-719.5 186.83,-719.5 186.83,-625.5 54.1108,-625.5"/>
<text text-anchor="middle" x="120.47" y="-707.5" font-family="Helvetica,sans-Serif" font-size="10.00">HydroCouple::IDescription</text>
<polyline fill="none" stroke="black" points="54.1108,-701.5 186.83,-701.5 "/>
<text text-anchor="middle" x="120.47" y="-689.5" font-family="Helvetica,sans-Serif" font-size="10.00"> </text>
<polyline fill="none" stroke="black" points="54.1108,-683.5 186.83,-683.5 "/>
<text text-anchor="start" x="62.1108" y="-671.5" font-family="Helvetica,sans-Serif" font-size="10.00">+ ~IDescription()</text>
<text text-anchor="start" x="62.1108" y="-661.5" font-family="Helvetica,sans-Serif" font-size="10.00">+ getCaption()</text>
<text text-anchor="start" x="62.1108" y="-651.5" font-family="Helvetica,sans-Serif" font-size="10.00">+ setCaption()</text>
<text text-anchor="start" x="62.1108" y="-641.5" font-family="Helvetica,sans-Serif" font-size="10.00">+ getDescription()</text>
<text text-anchor="start" x="62.1108" y="-631.5" font-family="Helvetica,sans-Serif" font-size="10.00">+ setDescription()</text>
</a>
</g>
</g>
<!-- Node4&#45;&gt;Node3 -->
<g id="edge3" class="edge"><title>Node4&#45;&gt;Node3</title>
<path fill="none" stroke="midnightblue" d="M120.47,-615.212C120.47,-606.081 120.47,-596.926 120.47,-588.684"/>
<polygon fill="none" stroke="midnightblue" points="116.97,-615.46 120.47,-625.46 123.97,-615.46 116.97,-615.46"/>
</g>
<!-- Node5 -->
<g id="node5" class="node"><title>Node5</title>
<g id="a_node5"><a xlink:href="class_hydro_couple_1_1_i_property_changed.html" target="_top" xlink:title="IPropertyChanged interface is used to emit signal/event when a property of an object changes...">
<polygon fill="white" stroke="black" points="39.9287,-756.5 39.9287,-810.5 201.012,-810.5 201.012,-756.5 39.9287,-756.5"/>
<text text-anchor="middle" x="120.47" y="-798.5" font-family="Helvetica,sans-Serif" font-size="10.00">HydroCouple::IPropertyChanged</text>
<polyline fill="none" stroke="black" points="39.9287,-792.5 201.012,-792.5 "/>
<text text-anchor="middle" x="120.47" y="-780.5" font-family="Helvetica,sans-Serif" font-size="10.00"> </text>
<polyline fill="none" stroke="black" points="39.9287,-774.5 201.012,-774.5 "/>
<text text-anchor="start" x="47.9287" y="-762.5" font-family="Helvetica,sans-Serif" font-size="10.00">+ ~IPropertyChanged()</text>
</a>
</g>
</g>
<!-- Node5&#45;&gt;Node4 -->
<g id="edge4" class="edge"><title>Node5&#45;&gt;Node4</title>
<path fill="none" stroke="midnightblue" d="M120.47,-746.141C120.47,-737.716 120.47,-728.639 120.47,-719.851"/>
<polygon fill="none" stroke="midnightblue" points="116.97,-746.392 120.47,-756.392 123.97,-746.392 116.97,-746.392"/>
</g>
<!-- Node8 -->
<g id="node8" class="node"><title>Node8</title>
<g id="a_node8"><a xlink:href="class_hydro_couple_1_1_i_adapted_output.html" target="_top" xlink:title="An IAdaptedOutput adds one or more data operations on top of an IOutput. ">
<polygon fill="white" stroke="black" points="113.483,-0.5 113.483,-114.5 263.458,-114.5 263.458,-0.5 113.483,-0.5"/>
<text text-anchor="middle" x="188.47" y="-102.5" font-family="Helvetica,sans-Serif" font-size="10.00">HydroCouple::IAdaptedOutput</text>
<polyline fill="none" stroke="black" points="113.483,-96.5 263.458,-96.5 "/>
<text text-anchor="middle" x="188.47" y="-84.5" font-family="Helvetica,sans-Serif" font-size="10.00"> </text>
<polyline fill="none" stroke="black" points="113.483,-78.5 263.458,-78.5 "/>
<text text-anchor="start" x="121.483" y="-66.5" font-family="Helvetica,sans-Serif" font-size="10.00">+ ~IAdaptedOutput()</text>
<text text-anchor="start" x="121.483" y="-56.5" font-family="Helvetica,sans-Serif" font-size="10.00">+ adaptedOutputFactory()</text>
<text text-anchor="start" x="121.483" y="-46.5" font-family="Helvetica,sans-Serif" font-size="10.00">+ arguments()</text>
<text text-anchor="start" x="121.483" y="-36.5" font-family="Helvetica,sans-Serif" font-size="10.00">+ setArgument()</text>
<text text-anchor="start" x="121.483" y="-26.5" font-family="Helvetica,sans-Serif" font-size="10.00">+ initialize()</text>
<text text-anchor="start" x="121.483" y="-16.5" font-family="Helvetica,sans-Serif" font-size="10.00">+ adaptee()</text>
<text text-anchor="start" x="121.483" y="-6.5" font-family="Helvetica,sans-Serif" font-size="10.00">+ refresh()</text>
</a>
</g>
</g>
<!-- Node7&#45;&gt;Node8 -->
<g id="edge7" class="edge"><title>Node7&#45;&gt;Node8</title>
<path fill="none" stroke="midnightblue" d="M188.47,-141.19C188.47,-132.268 188.47,-123.245 188.47,-114.601"/>
<polygon fill="none" stroke="midnightblue" points="184.97,-141.193 188.47,-151.193 191.97,-141.193 184.97,-141.193"/>
</g>
</g>
</svg>
        <g id="navigator" transform="translate(0 0)" fill="#404254">
                <rect fill="#f2f5e9" fill-opacity="0.5" stroke="#606060" stroke-width=".5" x="0" y="0" width="60" height="60"/>
                <use id="zoomplus" xlink:href="#zoomPlus" x="17" y="9" onmousedown="handleZoom(evt,'in')"/>
                <use id="zoomminus" xlink:href="#zoomMin" x="42" y="9" onmousedown="handleZoom(evt,'out')"/>
                <use id="reset" xlink:href="#resetDef" x="30" y="36" onmousedown="handleReset()"/>
                <g id="arrowUp" xlink:href="#dirArrow" transform="translate(30 24)" onmousedown="handlePan(0,-1)">
                  <use xlink:href="#rim" fill="#404040">
                        <set attributeName="fill" to="#808080" begin="arrowUp.mouseover" end="arrowUp.mouseout"/>
                  </use>
                  <path fill="none" stroke="white" stroke-width="1.5" d="M0,-3.0v7 M-2.5,-0.5L0,-3.0L2.5,-0.5"/>
                </g>
                <g id="arrowRight" xlink:href="#dirArrow" transform="rotate(90) translate(36 -43)" onmousedown="handlePan(1,0)">
                  <use xlink:href="#rim" fill="#404040">
                        <set attributeName="fill" to="#808080" begin="arrowRight.mouseover" end="arrowRight.mouseout"/>
                  </use>
                  <path fill="none" stroke="white" stroke-width="1.5" d="M0,-3.0v7 M-2.5,-0.5L0,-3.0L2.5,-0.5"/>
                </g>
                <g id="arrowDown" xlink:href="#dirArrow" transform="rotate(180) translate(-30 -48)" onmousedown="handlePan(0,1)">
                  <use xlink:href="#rim" fill="#404040">
                        <set attributeName="fill" to="#808080" begin="arrowDown.mouseover" end="arrowDown.mouseout"/>
                  </use>
                  <path fill="none" stroke="white" stroke-width="1.5" d="M0,-3.0v7 M-2.5,-0.5L0,-3.0L2.5,-0.5"/>
                </g>
                <g id="arrowLeft" xlink:href="#dirArrow" transform="rotate(270) translate(-36 17)" onmousedown="handlePan(-1,0)">
                  <use xlink:href="#rim" fill="#404040">
                        <set attributeName="fill" to="#808080" begin="arrowLeft.mouseover" end="arrowLeft.mouseout"/>
                  </use>
                  <path fill="none" stroke="white" stroke-width="1.5" d="M0,-3.0v7 M-2.5,-0.5L0,-3.0L2.5,-0.5"/>
                </g>
        </g>
        <svg viewBox="0 0 15 15" width="100%" height="30px" preserveAspectRatio="xMaxYMin meet">
         <g id="arrow_out" transform="scale(0.3 0.3)">
          <a xlink:href="class_hydro_couple_1_1_i_exchange_item__inherit__graph_org.svg" target="_base">
           <rect id="button" ry="5" rx="5" y="6" x="6" height="38" width="38"
                fill="#f2f5e9" fill-opacity="0.5" stroke="#606060" stroke-width="1.0"/>
           <path id="arrow"
             d="M 11.500037,31.436501 C 11.940474,20.09759 22.043105,11.32322 32.158766,21.979434 L 37.068811,17.246167 C 37.068811,17.246167 37.088388,32 37.088388,32 L 22.160133,31.978069 C 22.160133,31.978069 26.997745,27.140456 26.997745,27.140456 C 18.528582,18.264221 13.291696,25.230495 11.500037,31.436501 z"
             style="fill:#404040;"/>
          </a>
         </g>
        </svg>
</svg>
