<?xml version="1.0" encoding="UTF-8" standalone="no"?>
<!DOCTYPE svg PUBLIC "-//W3C//DTD SVG 1.1//EN"
 "http://www.w3.org/Graphics/SVG/1.1/DTD/svg11.dtd">
<!-- Generated by graphviz version 2.38.0 (20140413.2041)
 -->
<!-- Title: HydroCouple::SpatioTemporal::ITimePolyhedralSurfaceArgument Pages: 1 -->
<!--zoomable 1066 -->
<svg id="main" version="1.1" xmlns="http://www.w3.org/2000/svg" xmlns:xlink="http://www.w3.org/1999/xlink" xml:space="preserve" onload="init(evt)">
<style type="text/css"><![CDATA[
.edge:hover path { stroke: red; }
.edge:hover polygon { stroke: red; fill: red; }
]]></style>
<script type="text/javascript"><![CDATA[
var edges = document.getElementsByTagName('g');
if (edges && edges.length) {
  for (var i=0;i<edges.length;i++) {
    if (edges[i].id.substr(0,4)=='edge') {
      edges[i].setAttribute('class','edge');
    }
  }
}
]]></script>
        <defs>
                <circle id="rim" cx="0" cy="0" r="7"/>
                <circle id="rim2" cx="0" cy="0" r="3.5"/>
                <g id="zoomPlus">
                        <use xlink:href="#rim" fill="#404040">
                                <set attributeName="fill" to="#808080" begin="zoomplus.mouseover" end="zoomplus.mouseout"/>
                        </use>
                        <path d="M-4,0h8M0,-4v8" fill="none" stroke="white" stroke-width="1.5" pointer-events="none"/>
                </g>
                <g id="zoomMin">
                        <use xlink:href="#rim" fill="#404040">
                                <set attributeName="fill" to="#808080" begin="zoomminus.mouseover" end="zoomminus.mouseout"/>
                        </use>
                        <path d="M-4,0h8" fill="none" stroke="white" stroke-width="1.5" pointer-events="none"/>
                </g>
                <g id="dirArrow">
                        <path fill="none" stroke="white" stroke-width="1.5" d="M0,-3.0v7 M-2.5,-0.5L0,-3.0L2.5,-0.5"/>
                </g>
               <g id="resetDef">
                       <use xlink:href="#rim2" fill="#404040">
                               <set attributeName="fill" to="#808080" begin="reset.mouseover" end="reset.mouseout"/>
                       </use>
               </g>
        </defs>

<script type="text/javascript">
var viewWidth = 514;
var viewHeight = 1066;
var sectionId = 'dynsection-0';
</script>
<script xlink:href="svgpan.js"/>
<svg id="graph" class="graph">
<g id="viewport">
<title>HydroCouple::SpatioTemporal::ITimePolyhedralSurfaceArgument</title>
<polygon fill="white" stroke="none" points="-4,4 -4,-1061.75 510.028,-1061.75 510.028,4 -4,4"/>
<!-- Node1 -->
<g id="node1" class="node"><title>Node1</title>
<polygon fill="#bfbfbf" stroke="black" points="70.9937,-0.5 70.9937,-117.845 297.028,-117.845 297.028,-0.5 70.9937,-0.5"/>
<text text-anchor="start" x="78.9937" y="-105.845" font-family="Monaco" font-size="10.00">HydroCouple::SpatioTemporal</text>
<text text-anchor="middle" x="184.011" y="-92.5098" font-family="Monaco" font-size="10.00">::ITimePolyhedralSurfaceArgument</text>
<polyline fill="none" stroke="black" points="70.9937,-83.1748 297.028,-83.1748 "/>
<text text-anchor="middle" x="184.011" y="-71.1748" font-family="Monaco" font-size="10.00"> </text>
<polyline fill="none" stroke="black" points="70.9937,-61.8398 297.028,-61.8398 "/>
<text text-anchor="start" x="78.9937" y="-49.8398" font-family="Monaco" font-size="10.00">+ ~ITimePolyhedralSurfaceArgument()</text>
<text text-anchor="start" x="78.9937" y="-36.5049" font-family="Monaco" font-size="10.00">+ setTimes()</text>
<text text-anchor="start" x="78.9937" y="-23.1699" font-family="Monaco" font-size="10.00">+ setPolyhedralSurface()</text>
<text text-anchor="start" x="78.9937" y="-9.83496" font-family="Monaco" font-size="10.00">+ timePatchValueSets()</text>
</g>
<!-- Node2 -->
<g id="node2" class="node"><title>Node2</title>
<g id="a_node2"><a xlink:href="class_hydro_couple_1_1_i_argument.html" target="_top" xlink:title="IArgument interface class used to set the arguments for components. They can be complex or simple mul...">
<polygon fill="white" stroke="black" points="0,-154.845 0,-352.199 148.021,-352.199 148.021,-154.845 0,-154.845"/>
<text text-anchor="middle" x="74.0107" y="-340.199" font-family="Monaco" font-size="10.00">HydroCouple::IArgument</text>
<polyline fill="none" stroke="black" points="0,-330.864 148.021,-330.864 "/>
<text text-anchor="middle" x="74.0107" y="-318.864" font-family="Monaco" font-size="10.00"> </text>
<polyline fill="none" stroke="black" points="0,-309.529 148.021,-309.529 "/>
<text text-anchor="start" x="8" y="-297.529" font-family="Monaco" font-size="10.00">+ ~IArgument()</text>
<text text-anchor="start" x="8" y="-284.194" font-family="Monaco" font-size="10.00">+ isOptional()</text>
<text text-anchor="start" x="8" y="-270.859" font-family="Monaco" font-size="10.00">+ isReadOnly()</text>
<text text-anchor="start" x="8" y="-257.524" font-family="Monaco" font-size="10.00">+ clone()</text>
<text text-anchor="start" x="8" y="-244.189" font-family="Monaco" font-size="10.00">+ valueSets()</text>
<text text-anchor="start" x="8" y="-230.854" font-family="Monaco" font-size="10.00">+ toString()</text>
<text text-anchor="start" x="8" y="-217.52" font-family="Monaco" font-size="10.00">+ fileExtensions()</text>
<text text-anchor="start" x="8" y="-204.185" font-family="Monaco" font-size="10.00">+ canReadFromFile()</text>
<text text-anchor="start" x="8" y="-190.85" font-family="Monaco" font-size="10.00">+ canReadFromString()</text>
<text text-anchor="start" x="8" y="-177.515" font-family="Monaco" font-size="10.00">+ readValues()</text>
<text text-anchor="start" x="8" y="-164.18" font-family="Monaco" font-size="10.00">+ readValues()</text>
</a>
</g>
</g>
<!-- Node2&#45;&gt;Node1 -->
<g id="edge1" class="edge"><title>Node2&#45;&gt;Node1</title>
<path fill="none" stroke="midnightblue" d="M135.006,-145.864C140.463,-136.321 145.841,-126.918 150.92,-118.035"/>
<polygon fill="none" stroke="midnightblue" points="131.904,-144.238 129.977,-154.657 137.98,-147.713 131.904,-144.238"/>
</g>
<!-- Node3 -->
<g id="node3" class="node"><title>Node3</title>
<g id="a_node3"><a xlink:href="class_hydro_couple_1_1_i_component_item.html" target="_top" xlink:title="IComponentItem is a fundamental unit of data for a component. ">
<polygon fill="white" stroke="black" points="89.9976,-556.879 89.9976,-660.889 268.024,-660.889 268.024,-556.879 89.9976,-556.879"/>
<text text-anchor="middle" x="179.011" y="-648.889" font-family="Monaco" font-size="10.00">HydroCouple::IComponentItem</text>
<polyline fill="none" stroke="black" points="89.9976,-639.554 268.024,-639.554 "/>
<text text-anchor="middle" x="179.011" y="-627.554" font-family="Monaco" font-size="10.00"> </text>
<polyline fill="none" stroke="black" points="89.9976,-618.219 268.024,-618.219 "/>
<text text-anchor="start" x="97.9976" y="-606.219" font-family="Monaco" font-size="10.00">+ ~IComponentItem()</text>
<text text-anchor="start" x="97.9976" y="-592.884" font-family="Monaco" font-size="10.00">+ modelComponent()</text>
<text text-anchor="start" x="97.9976" y="-579.549" font-family="Monaco" font-size="10.00">+ modelComponentId()</text>
<text text-anchor="start" x="97.9976" y="-566.214" font-family="Monaco" font-size="10.00">+ dimensions()</text>
</a>
</g>
</g>
<!-- Node3&#45;&gt;Node2 -->
<g id="edge2" class="edge"><title>Node3&#45;&gt;Node2</title>
<path fill="none" stroke="midnightblue" d="M110.609,-548.614C103.653,-539.819 97.5064,-530.338 93.0107,-520.379 69.4502,-468.187 64.2281,-404.33 65.1204,-352.282"/>
<polygon fill="none" stroke="midnightblue" points="108.1,-551.069 117.201,-556.492 113.468,-546.577 108.1,-551.069"/>
</g>
<!-- Node8 -->
<g id="node8" class="node"><title>Node8</title>
<g id="a_node8"><a xlink:href="class_hydro_couple_1_1_temporal_1_1_i_time_component_item.html" target="_top" xlink:title="ITimeComponentItem is an IComponentItem with a temporal attribute. ">
<polygon fill="white" stroke="black" points="102,-389.199 102,-519.879 256.022,-519.879 256.022,-389.199 102,-389.199"/>
<text text-anchor="start" x="110" y="-507.879" font-family="Monaco" font-size="10.00">HydroCouple::Temporal</text>
<text text-anchor="middle" x="179.011" y="-494.544" font-family="Monaco" font-size="10.00">::ITimeComponentItem</text>
<polyline fill="none" stroke="black" points="102,-485.209 256.022,-485.209 "/>
<text text-anchor="middle" x="179.011" y="-473.209" font-family="Monaco" font-size="10.00"> </text>
<polyline fill="none" stroke="black" points="102,-463.874 256.022,-463.874 "/>
<text text-anchor="start" x="110" y="-451.874" font-family="Monaco" font-size="10.00">+ ~ITimeComponentItem()</text>
<text text-anchor="start" x="110" y="-438.539" font-family="Monaco" font-size="10.00">+ timeDimension()</text>
<text text-anchor="start" x="110" y="-425.204" font-family="Monaco" font-size="10.00">+ times()</text>
<text text-anchor="start" x="110" y="-411.869" font-family="Monaco" font-size="10.00">+ timeSpan()</text>
<text text-anchor="start" x="110" y="-398.534" font-family="Monaco" font-size="10.00">+ time()</text>
</a>
</g>
</g>
<!-- Node3&#45;&gt;Node8 -->
<g id="edge8" class="edge"><title>Node3&#45;&gt;Node8</title>
<path fill="none" stroke="midnightblue" d="M179.011,-546.629C179.011,-537.892 179.011,-528.882 179.011,-520.085"/>
<polygon fill="none" stroke="midnightblue" points="175.511,-546.731 179.011,-556.731 182.511,-546.731 175.511,-546.731"/>
</g>
<!-- Node9 -->
<g id="node9" class="node"><title>Node9</title>
<g id="a_node9"><a xlink:href="class_hydro_couple_1_1_spatial_1_1_i_polyhedral_surface_component_item.html" target="_top" xlink:title="IPolyhedralSurfaceComponentItem represents IPolyhedralSurface IComponentItem. ">
<polygon fill="white" stroke="black" points="273.993,-395.867 273.993,-513.211 506.028,-513.211 506.028,-395.867 273.993,-395.867"/>
<text text-anchor="start" x="281.993" y="-501.211" font-family="Monaco" font-size="10.00">HydroCouple::Spatial</text>
<text text-anchor="middle" x="390.011" y="-487.876" font-family="Monaco" font-size="10.00">::IPolyhedralSurfaceComponentItem</text>
<polyline fill="none" stroke="black" points="273.993,-478.542 506.028,-478.542 "/>
<text text-anchor="middle" x="390.011" y="-466.542" font-family="Monaco" font-size="10.00"> </text>
<polyline fill="none" stroke="black" points="273.993,-457.207 506.028,-457.207 "/>
<text text-anchor="start" x="281.993" y="-445.207" font-family="Monaco" font-size="10.00">+ ~IPolyhedralSurfaceComponentItem()</text>
<text text-anchor="start" x="281.993" y="-431.872" font-family="Monaco" font-size="10.00">+ patchDimension()</text>
<text text-anchor="start" x="281.993" y="-418.537" font-family="Monaco" font-size="10.00">+ polyhedralSurface()</text>
<text text-anchor="start" x="281.993" y="-405.202" font-family="Monaco" font-size="10.00">+ geometry()</text>
</a>
</g>
</g>
<!-- Node3&#45;&gt;Node9 -->
<g id="edge10" class="edge"><title>Node3&#45;&gt;Node9</title>
<path fill="none" stroke="midnightblue" d="M258.084,-550.792C275.017,-538.566 292.922,-525.639 309.894,-513.384"/>
<polygon fill="none" stroke="midnightblue" points="255.916,-548.04 249.858,-556.731 260.014,-553.715 255.916,-548.04"/>
</g>
<!-- Node4 -->
<g id="node4" class="node"><title>Node4</title>
<g id="a_node4"><a xlink:href="class_hydro_couple_1_1_i_identity.html" target="_top" xlink:title="IIdentity interface class defines a method to get the Id of an HydroCouple entity. ">
<polygon fill="white" stroke="black" points="105,-697.889 105,-801.898 253.021,-801.898 253.021,-697.889 105,-697.889"/>
<text text-anchor="middle" x="179.011" y="-789.898" font-family="Monaco" font-size="10.00">HydroCouple::IIdentity</text>
<polyline fill="none" stroke="black" points="105,-780.563 253.021,-780.563 "/>
<text text-anchor="middle" x="179.011" y="-768.563" font-family="Monaco" font-size="10.00"> </text>
<polyline fill="none" stroke="black" points="105,-759.229 253.021,-759.229 "/>
<text text-anchor="start" x="113" y="-747.229" font-family="Monaco" font-size="10.00">+ ~IIdentity()</text>
<text text-anchor="start" x="113" y="-733.894" font-family="Monaco" font-size="10.00">+ MPI_Comm()</text>
<text text-anchor="start" x="113" y="-720.559" font-family="Monaco" font-size="10.00">+ MPI_Rank()</text>
<text text-anchor="start" x="113" y="-707.224" font-family="Monaco" font-size="10.00">+ id()</text>
</a>
</g>
</g>
<!-- Node4&#45;&gt;Node3 -->
<g id="edge3" class="edge"><title>Node4&#45;&gt;Node3</title>
<path fill="none" stroke="midnightblue" d="M179.011,-687.33C179.011,-678.548 179.011,-669.594 179.011,-661.04"/>
<polygon fill="none" stroke="midnightblue" points="175.511,-687.526 179.011,-697.526 182.511,-687.526 175.511,-687.526"/>
</g>
<!-- Node5 -->
<g id="node5" class="node"><title>Node5</title>
<g id="a_node5"><a xlink:href="class_hydro_couple_1_1_i_description.html" target="_top" xlink:title="IDescription interface class provides descriptive information on a HydroCouple object. ">
<polygon fill="white" stroke="black" points="95.9985,-838.898 95.9985,-956.243 262.023,-956.243 262.023,-838.898 95.9985,-838.898"/>
<text text-anchor="middle" x="179.011" y="-944.243" font-family="Monaco" font-size="10.00">HydroCouple::IDescription</text>
<polyline fill="none" stroke="black" points="95.9985,-934.908 262.023,-934.908 "/>
<text text-anchor="middle" x="179.011" y="-922.908" font-family="Monaco" font-size="10.00"> </text>
<polyline fill="none" stroke="black" points="95.9985,-913.573 262.023,-913.573 "/>
<text text-anchor="start" x="103.999" y="-901.573" font-family="Monaco" font-size="10.00">+ ~IDescription()</text>
<text text-anchor="start" x="103.999" y="-888.238" font-family="Monaco" font-size="10.00">+ getCaption()</text>
<text text-anchor="start" x="103.999" y="-874.903" font-family="Monaco" font-size="10.00">+ setCaption()</text>
<text text-anchor="start" x="103.999" y="-861.568" font-family="Monaco" font-size="10.00">+ getDescription()</text>
<text text-anchor="start" x="103.999" y="-848.233" font-family="Monaco" font-size="10.00">+ setDescription()</text>
</a>
</g>
</g>
<!-- Node5&#45;&gt;Node4 -->
<g id="edge4" class="edge"><title>Node5&#45;&gt;Node4</title>
<path fill="none" stroke="midnightblue" d="M179.011,-828.297C179.011,-819.479 179.011,-810.571 179.011,-802.094"/>
<polygon fill="none" stroke="midnightblue" points="175.511,-828.577 179.011,-838.577 182.511,-828.577 175.511,-828.577"/>
</g>
<!-- Node6 -->
<g id="node6" class="node"><title>Node6</title>
<g id="a_node6"><a xlink:href="class_hydro_couple_1_1_i_property_changed.html" target="_top" xlink:title="IPropertyChanged interface is used to emit signal/event when a property of an object changes...">
<polygon fill="white" stroke="black" points="83.9966,-993.243 83.9966,-1057.25 274.025,-1057.25 274.025,-993.243 83.9966,-993.243"/>
<text text-anchor="middle" x="179.011" y="-1045.25" font-family="Monaco" font-size="10.00">HydroCouple::IPropertyChanged</text>
<polyline fill="none" stroke="black" points="83.9966,-1035.91 274.025,-1035.91 "/>
<text text-anchor="middle" x="179.011" y="-1023.91" font-family="Monaco" font-size="10.00"> </text>
<polyline fill="none" stroke="black" points="83.9966,-1014.58 274.025,-1014.58 "/>
<text text-anchor="start" x="91.9966" y="-1002.58" font-family="Monaco" font-size="10.00">+ ~IPropertyChanged()</text>
</a>
</g>
</g>
<!-- Node6&#45;&gt;Node5 -->
<g id="edge5" class="edge"><title>Node6&#45;&gt;Node5</title>
<path fill="none" stroke="midnightblue" d="M179.011,-982.923C179.011,-974.538 179.011,-965.571 179.011,-956.729"/>
<polygon fill="none" stroke="midnightblue" points="175.511,-983.18 179.011,-993.18 182.511,-983.18 175.511,-983.18"/>
</g>
<!-- Node7 -->
<g id="node7" class="node"><title>Node7</title>
<g id="a_node7"><a xlink:href="class_hydro_couple_1_1_spatio_temporal_1_1_i_time_polyhedral_surface_component_item.html" target="_top" xlink:title="The ITimePolyhedralSurfaceComponentItem class. ">
<polygon fill="white" stroke="black" points="165.991,-214.852 165.991,-292.192 422.03,-292.192 422.03,-214.852 165.991,-214.852"/>
<text text-anchor="start" x="173.991" y="-280.192" font-family="Monaco" font-size="10.00">HydroCouple::SpatioTemporal</text>
<text text-anchor="middle" x="294.011" y="-266.857" font-family="Monaco" font-size="10.00">::ITimePolyhedralSurfaceComponentItem</text>
<polyline fill="none" stroke="black" points="165.991,-257.522 422.03,-257.522 "/>
<text text-anchor="middle" x="294.011" y="-245.522" font-family="Monaco" font-size="10.00"> </text>
<polyline fill="none" stroke="black" points="165.991,-236.187 422.03,-236.187 "/>
<text text-anchor="start" x="173.991" y="-224.187" font-family="Monaco" font-size="10.00">+ ~ITimePolyhedralSurfaceComponentItem()</text>
</a>
</g>
</g>
<!-- Node7&#45;&gt;Node1 -->
<g id="edge6" class="edge"><title>Node7&#45;&gt;Node1</title>
<path fill="none" stroke="midnightblue" d="M267.123,-205.505C252.064,-179.172 233.159,-146.115 217.186,-118.183"/>
<polygon fill="none" stroke="midnightblue" points="264.276,-207.577 272.278,-214.52 270.352,-204.102 264.276,-207.577"/>
</g>
<!-- Node8&#45;&gt;Node7 -->
<g id="edge7" class="edge"><title>Node8&#45;&gt;Node7</title>
<path fill="none" stroke="midnightblue" d="M221.248,-380.443C238.551,-350.499 257.842,-317.116 272.211,-292.249"/>
<polygon fill="none" stroke="midnightblue" points="218.162,-378.789 216.189,-389.199 224.223,-382.291 218.162,-378.789"/>
</g>
<!-- Node9&#45;&gt;Node7 -->
<g id="edge9" class="edge"><title>Node9&#45;&gt;Node7</title>
<path fill="none" stroke="midnightblue" d="M357.706,-386.567C342.563,-355.175 325.079,-318.929 312.264,-292.363"/>
<polygon fill="none" stroke="midnightblue" points="354.617,-388.221 362.115,-395.708 360.922,-385.18 354.617,-388.221"/>
</g>
</g>
</svg>
        <g id="navigator" transform="translate(0 0)" fill="#404254">
                <rect fill="#f2f5e9" fill-opacity="0.5" stroke="#606060" stroke-width=".5" x="0" y="0" width="60" height="60"/>
                <use id="zoomplus" xlink:href="#zoomPlus" x="17" y="9" onmousedown="handleZoom(evt,'in')"/>
                <use id="zoomminus" xlink:href="#zoomMin" x="42" y="9" onmousedown="handleZoom(evt,'out')"/>
                <use id="reset" xlink:href="#resetDef" x="30" y="36" onmousedown="handleReset()"/>
                <g id="arrowUp" xlink:href="#dirArrow" transform="translate(30 24)" onmousedown="handlePan(0,-1)">
                  <use xlink:href="#rim" fill="#404040">
                        <set attributeName="fill" to="#808080" begin="arrowUp.mouseover" end="arrowUp.mouseout"/>
                  </use>
                  <path fill="none" stroke="white" stroke-width="1.5" d="M0,-3.0v7 M-2.5,-0.5L0,-3.0L2.5,-0.5"/>
                </g>
                <g id="arrowRight" xlink:href="#dirArrow" transform="rotate(90) translate(36 -43)" onmousedown="handlePan(1,0)">
                  <use xlink:href="#rim" fill="#404040">
                        <set attributeName="fill" to="#808080" begin="arrowRight.mouseover" end="arrowRight.mouseout"/>
                  </use>
                  <path fill="none" stroke="white" stroke-width="1.5" d="M0,-3.0v7 M-2.5,-0.5L0,-3.0L2.5,-0.5"/>
                </g>
                <g id="arrowDown" xlink:href="#dirArrow" transform="rotate(180) translate(-30 -48)" onmousedown="handlePan(0,1)">
                  <use xlink:href="#rim" fill="#404040">
                        <set attributeName="fill" to="#808080" begin="arrowDown.mouseover" end="arrowDown.mouseout"/>
                  </use>
                  <path fill="none" stroke="white" stroke-width="1.5" d="M0,-3.0v7 M-2.5,-0.5L0,-3.0L2.5,-0.5"/>
                </g>
                <g id="arrowLeft" xlink:href="#dirArrow" transform="rotate(270) translate(-36 17)" onmousedown="handlePan(-1,0)">
                  <use xlink:href="#rim" fill="#404040">
                        <set attributeName="fill" to="#808080" begin="arrowLeft.mouseover" end="arrowLeft.mouseout"/>
                  </use>
                  <path fill="none" stroke="white" stroke-width="1.5" d="M0,-3.0v7 M-2.5,-0.5L0,-3.0L2.5,-0.5"/>
                </g>
        </g>
        <svg viewBox="0 0 15 15" width="100%" height="30px" preserveAspectRatio="xMaxYMin meet">
         <g id="arrow_out" transform="scale(0.3 0.3)">
          <a xlink:href="class_hydro_couple_1_1_spatio_temporal_1_1_i_time_polyhedral_surface_argument__inherit__graph_org.svg" target="_base">
           <rect id="button" ry="5" rx="5" y="6" x="6" height="38" width="38"
                fill="#f2f5e9" fill-opacity="0.5" stroke="#606060" stroke-width="1.0"/>
           <path id="arrow"
             d="M 11.500037,31.436501 C 11.940474,20.09759 22.043105,11.32322 32.158766,21.979434 L 37.068811,17.246167 C 37.068811,17.246167 37.088388,32 37.088388,32 L 22.160133,31.978069 C 22.160133,31.978069 26.997745,27.140456 26.997745,27.140456 C 18.528582,18.264221 13.291696,25.230495 11.500037,31.436501 z"
             style="fill:#404040;"/>
          </a>
         </g>
        </svg>
</svg>
