<?xml version="1.0" encoding="UTF-8" standalone="no"?>
<!DOCTYPE svg PUBLIC "-//W3C//DTD SVG 1.1//EN"
 "http://www.w3.org/Graphics/SVG/1.1/DTD/svg11.dtd">
<!-- Generated by graphviz version 2.38.0 (20140413.2041)
 -->
<!-- Title: HydroCouple::Spatial::ITINExchangeItem Pages: 1 -->
<!--zoomable 791 -->
<svg id="main" version="1.1" xmlns="http://www.w3.org/2000/svg" xmlns:xlink="http://www.w3.org/1999/xlink" xml:space="preserve" onload="init(evt)">
<style type="text/css"><![CDATA[
.edge:hover path { stroke: red; }
.edge:hover polygon { stroke: red; fill: red; }
]]></style>
<script type="text/javascript"><![CDATA[
var edges = document.getElementsByTagName('g');
if (edges && edges.length) {
  for (var i=0;i<edges.length;i++) {
    if (edges[i].id.substr(0,4)=='edge') {
      edges[i].setAttribute('class','edge');
    }
  }
}
]]></script>
        <defs>
                <circle id="rim" cx="0" cy="0" r="7"/>
                <circle id="rim2" cx="0" cy="0" r="3.5"/>
                <g id="zoomPlus">
                        <use xlink:href="#rim" fill="#404040">
                                <set attributeName="fill" to="#808080" begin="zoomplus.mouseover" end="zoomplus.mouseout"/>
                        </use>
                        <path d="M-4,0h8M0,-4v8" fill="none" stroke="white" stroke-width="1.5" pointer-events="none"/>
                </g>
                <g id="zoomMin">
                        <use xlink:href="#rim" fill="#404040">
                                <set attributeName="fill" to="#808080" begin="zoomminus.mouseover" end="zoomminus.mouseout"/>
                        </use>
                        <path d="M-4,0h8" fill="none" stroke="white" stroke-width="1.5" pointer-events="none"/>
                </g>
                <g id="dirArrow">
                        <path fill="none" stroke="white" stroke-width="1.5" d="M0,-3.0v7 M-2.5,-0.5L0,-3.0L2.5,-0.5"/>
                </g>
               <g id="resetDef">
                       <use xlink:href="#rim2" fill="#404040">
                               <set attributeName="fill" to="#808080" begin="reset.mouseover" end="reset.mouseout"/>
                       </use>
               </g>
        </defs>

<script type="text/javascript">
var viewWidth = 346;
var viewHeight = 791;
var sectionId = 'dynsection-1';
</script>
<script xlink:href="svgpan.js"/>
<svg id="graph" class="graph">
<g id="viewport">
<title>HydroCouple::Spatial::ITINExchangeItem</title>
<polygon fill="white" stroke="none" points="-4,4 -4,-787.389 342.023,-787.389 342.023,4 -4,4"/>
<!-- Node1 -->
<g id="node1" class="node"><title>Node1</title>
<polygon fill="#bfbfbf" stroke="black" points="104.002,-0.5 104.002,-91.1748 246.023,-91.1748 246.023,-0.5 104.002,-0.5"/>
<text text-anchor="start" x="112.002" y="-79.1748" font-family="Monaco" font-size="10.00">HydroCouple::Spatial</text>
<text text-anchor="middle" x="175.013" y="-65.8398" font-family="Monaco" font-size="10.00">::ITINExchangeItem</text>
<polyline fill="none" stroke="black" points="104.002,-56.5049 246.023,-56.5049 "/>
<text text-anchor="middle" x="175.013" y="-44.5049" font-family="Monaco" font-size="10.00"> </text>
<polyline fill="none" stroke="black" points="104.002,-35.1699 246.023,-35.1699 "/>
<text text-anchor="start" x="112.002" y="-23.1699" font-family="Monaco" font-size="10.00">+ ~ITINExchangeItem()</text>
<text text-anchor="start" x="112.002" y="-9.83496" font-family="Monaco" font-size="10.00">+ patchValues()</text>
</g>
<!-- Node2 -->
<g id="node2" class="node"><title>Node2</title>
<g id="a_node2"><a xlink:href="class_hydro_couple_1_1_i_exchange_item.html" target="_top" xlink:title="IExchangeItem the base data item the can be exchanged between components at runtime. ">
<polygon fill="white" stroke="black" points="0,-141.51 0,-232.185 172.025,-232.185 172.025,-141.51 0,-141.51"/>
<text text-anchor="middle" x="86.0127" y="-220.185" font-family="Monaco" font-size="10.00">HydroCouple::IExchangeItem</text>
<polyline fill="none" stroke="black" points="0,-210.85 172.025,-210.85 "/>
<text text-anchor="middle" x="86.0127" y="-198.85" font-family="Monaco" font-size="10.00"> </text>
<polyline fill="none" stroke="black" points="0,-189.515 172.025,-189.515 "/>
<text text-anchor="start" x="8" y="-177.515" font-family="Monaco" font-size="10.00">+ ~IExchangeItem()</text>
<text text-anchor="start" x="8" y="-164.18" font-family="Monaco" font-size="10.00">+ values()</text>
<text text-anchor="start" x="8" y="-150.845" font-family="Monaco" font-size="10.00">+ itemChanged()</text>
</a>
</g>
</g>
<!-- Node2&#45;&gt;Node1 -->
<g id="edge1" class="edge"><title>Node2&#45;&gt;Node1</title>
<path fill="none" stroke="midnightblue" d="M119.82,-133.043C128.642,-119.264 138.06,-104.554 146.572,-91.2585"/>
<polygon fill="none" stroke="midnightblue" points="116.862,-131.172 114.418,-141.481 122.757,-134.947 116.862,-131.172"/>
</g>
<!-- Node3 -->
<g id="node3" class="node"><title>Node3</title>
<g id="a_node3"><a xlink:href="class_hydro_couple_1_1_i_component_item.html" target="_top" xlink:title="IComponentItem is a fundamental unit of data for a component. ">
<polygon fill="white" stroke="black" points="85.9995,-282.52 85.9995,-386.529 264.026,-386.529 264.026,-282.52 85.9995,-282.52"/>
<text text-anchor="middle" x="175.013" y="-374.529" font-family="Monaco" font-size="10.00">HydroCouple::IComponentItem</text>
<polyline fill="none" stroke="black" points="85.9995,-365.194 264.026,-365.194 "/>
<text text-anchor="middle" x="175.013" y="-353.194" font-family="Monaco" font-size="10.00"> </text>
<polyline fill="none" stroke="black" points="85.9995,-343.859 264.026,-343.859 "/>
<text text-anchor="start" x="93.9995" y="-331.859" font-family="Monaco" font-size="10.00">+ ~IComponentItem()</text>
<text text-anchor="start" x="93.9995" y="-318.524" font-family="Monaco" font-size="10.00">+ modelComponent()</text>
<text text-anchor="start" x="93.9995" y="-305.189" font-family="Monaco" font-size="10.00">+ modelComponentId()</text>
<text text-anchor="start" x="93.9995" y="-291.854" font-family="Monaco" font-size="10.00">+ dimensions()</text>
</a>
</g>
</g>
<!-- Node3&#45;&gt;Node2 -->
<g id="edge2" class="edge"><title>Node3&#45;&gt;Node2</title>
<path fill="none" stroke="midnightblue" d="M138.214,-273.291C129.863,-259.622 121.139,-245.342 113.266,-232.457"/>
<polygon fill="none" stroke="midnightblue" points="135.434,-275.455 143.635,-282.164 141.408,-271.806 135.434,-275.455"/>
</g>
<!-- Node7 -->
<g id="node7" class="node"><title>Node7</title>
<g id="a_node7"><a xlink:href="class_hydro_couple_1_1_spatial_1_1_i_t_i_n_component_item.html" target="_top" xlink:title="ITINComponentItem represents ITIN IComponentItem. ">
<polygon fill="white" stroke="black" points="190.002,-128.175 190.002,-245.52 338.023,-245.52 338.023,-128.175 190.002,-128.175"/>
<text text-anchor="start" x="198.002" y="-233.52" font-family="Monaco" font-size="10.00">HydroCouple::Spatial</text>
<text text-anchor="middle" x="264.013" y="-220.185" font-family="Monaco" font-size="10.00">::ITINComponentItem</text>
<polyline fill="none" stroke="black" points="190.002,-210.85 338.023,-210.85 "/>
<text text-anchor="middle" x="264.013" y="-198.85" font-family="Monaco" font-size="10.00"> </text>
<polyline fill="none" stroke="black" points="190.002,-189.515 338.023,-189.515 "/>
<text text-anchor="start" x="198.002" y="-177.515" font-family="Monaco" font-size="10.00">+ ~ITINComponentItem()</text>
<text text-anchor="start" x="198.002" y="-164.18" font-family="Monaco" font-size="10.00">+ patchDimension()</text>
<text text-anchor="start" x="198.002" y="-150.845" font-family="Monaco" font-size="10.00">+ polyhedralSurface()</text>
<text text-anchor="start" x="198.002" y="-137.51" font-family="Monaco" font-size="10.00">+ geometry()</text>
</a>
</g>
</g>
<!-- Node3&#45;&gt;Node7 -->
<g id="edge7" class="edge"><title>Node3&#45;&gt;Node7</title>
<path fill="none" stroke="midnightblue" d="M211.703,-273.468C217.312,-264.288 223.091,-254.828 228.67,-245.697"/>
<polygon fill="none" stroke="midnightblue" points="208.618,-271.806 206.391,-282.164 214.591,-275.455 208.618,-271.806"/>
</g>
<!-- Node4 -->
<g id="node4" class="node"><title>Node4</title>
<g id="a_node4"><a xlink:href="class_hydro_couple_1_1_i_identity.html" target="_top" xlink:title="IIdentity interface class defines a method to get the Id of an HydroCouple entity. ">
<polygon fill="white" stroke="black" points="101.002,-423.529 101.002,-527.539 249.023,-527.539 249.023,-423.529 101.002,-423.529"/>
<text text-anchor="middle" x="175.013" y="-515.539" font-family="Monaco" font-size="10.00">HydroCouple::IIdentity</text>
<polyline fill="none" stroke="black" points="101.002,-506.204 249.023,-506.204 "/>
<text text-anchor="middle" x="175.013" y="-494.204" font-family="Monaco" font-size="10.00"> </text>
<polyline fill="none" stroke="black" points="101.002,-484.869 249.023,-484.869 "/>
<text text-anchor="start" x="109.002" y="-472.869" font-family="Monaco" font-size="10.00">+ ~IIdentity()</text>
<text text-anchor="start" x="109.002" y="-459.534" font-family="Monaco" font-size="10.00">+ MPI_Comm()</text>
<text text-anchor="start" x="109.002" y="-446.199" font-family="Monaco" font-size="10.00">+ MPI_Rank()</text>
<text text-anchor="start" x="109.002" y="-432.864" font-family="Monaco" font-size="10.00">+ id()</text>
</a>
</g>
</g>
<!-- Node4&#45;&gt;Node3 -->
<g id="edge3" class="edge"><title>Node4&#45;&gt;Node3</title>
<path fill="none" stroke="midnightblue" d="M175.013,-412.97C175.013,-404.188 175.013,-395.235 175.013,-386.68"/>
<polygon fill="none" stroke="midnightblue" points="171.513,-413.167 175.013,-423.167 178.513,-413.167 171.513,-413.167"/>
</g>
<!-- Node5 -->
<g id="node5" class="node"><title>Node5</title>
<g id="a_node5"><a xlink:href="class_hydro_couple_1_1_i_description.html" target="_top" xlink:title="IDescription interface class provides descriptive information on a HydroCouple object. ">
<polygon fill="white" stroke="black" points="92.0005,-564.539 92.0005,-681.884 258.025,-681.884 258.025,-564.539 92.0005,-564.539"/>
<text text-anchor="middle" x="175.013" y="-669.884" font-family="Monaco" font-size="10.00">HydroCouple::IDescription</text>
<polyline fill="none" stroke="black" points="92.0005,-660.549 258.025,-660.549 "/>
<text text-anchor="middle" x="175.013" y="-648.549" font-family="Monaco" font-size="10.00"> </text>
<polyline fill="none" stroke="black" points="92.0005,-639.214 258.025,-639.214 "/>
<text text-anchor="start" x="100" y="-627.214" font-family="Monaco" font-size="10.00">+ ~IDescription()</text>
<text text-anchor="start" x="100" y="-613.879" font-family="Monaco" font-size="10.00">+ getCaption()</text>
<text text-anchor="start" x="100" y="-600.544" font-family="Monaco" font-size="10.00">+ setCaption()</text>
<text text-anchor="start" x="100" y="-587.209" font-family="Monaco" font-size="10.00">+ getDescription()</text>
<text text-anchor="start" x="100" y="-573.874" font-family="Monaco" font-size="10.00">+ setDescription()</text>
</a>
</g>
</g>
<!-- Node5&#45;&gt;Node4 -->
<g id="edge4" class="edge"><title>Node5&#45;&gt;Node4</title>
<path fill="none" stroke="midnightblue" d="M175.013,-553.938C175.013,-545.12 175.013,-536.212 175.013,-527.734"/>
<polygon fill="none" stroke="midnightblue" points="171.513,-554.217 175.013,-564.217 178.513,-554.217 171.513,-554.217"/>
</g>
<!-- Node6 -->
<g id="node6" class="node"><title>Node6</title>
<g id="a_node6"><a xlink:href="class_hydro_couple_1_1_i_property_changed.html" target="_top" xlink:title="IPropertyChanged interface is used to emit signal/event when a property of an object changes...">
<polygon fill="white" stroke="black" points="79.9985,-718.884 79.9985,-782.889 270.027,-782.889 270.027,-718.884 79.9985,-718.884"/>
<text text-anchor="middle" x="175.013" y="-770.889" font-family="Monaco" font-size="10.00">HydroCouple::IPropertyChanged</text>
<polyline fill="none" stroke="black" points="79.9985,-761.554 270.027,-761.554 "/>
<text text-anchor="middle" x="175.013" y="-749.554" font-family="Monaco" font-size="10.00"> </text>
<polyline fill="none" stroke="black" points="79.9985,-740.219 270.027,-740.219 "/>
<text text-anchor="start" x="87.9985" y="-728.219" font-family="Monaco" font-size="10.00">+ ~IPropertyChanged()</text>
</a>
</g>
</g>
<!-- Node6&#45;&gt;Node5 -->
<g id="edge5" class="edge"><title>Node6&#45;&gt;Node5</title>
<path fill="none" stroke="midnightblue" d="M175.013,-708.563C175.013,-700.178 175.013,-691.212 175.013,-682.37"/>
<polygon fill="none" stroke="midnightblue" points="171.513,-708.821 175.013,-718.821 178.513,-708.821 171.513,-708.821"/>
</g>
<!-- Node7&#45;&gt;Node1 -->
<g id="edge6" class="edge"><title>Node7&#45;&gt;Node1</title>
<path fill="none" stroke="midnightblue" d="M221.495,-119.438C215.425,-109.958 209.307,-100.402 203.592,-91.4754"/>
<polygon fill="none" stroke="midnightblue" points="218.702,-121.568 227.042,-128.102 224.597,-117.793 218.702,-121.568"/>
</g>
</g>
</svg>
        <g id="navigator" transform="translate(0 0)" fill="#404254">
                <rect fill="#f2f5e9" fill-opacity="0.5" stroke="#606060" stroke-width=".5" x="0" y="0" width="60" height="60"/>
                <use id="zoomplus" xlink:href="#zoomPlus" x="17" y="9" onmousedown="handleZoom(evt,'in')"/>
                <use id="zoomminus" xlink:href="#zoomMin" x="42" y="9" onmousedown="handleZoom(evt,'out')"/>
                <use id="reset" xlink:href="#resetDef" x="30" y="36" onmousedown="handleReset()"/>
                <g id="arrowUp" xlink:href="#dirArrow" transform="translate(30 24)" onmousedown="handlePan(0,-1)">
                  <use xlink:href="#rim" fill="#404040">
                        <set attributeName="fill" to="#808080" begin="arrowUp.mouseover" end="arrowUp.mouseout"/>
                  </use>
                  <path fill="none" stroke="white" stroke-width="1.5" d="M0,-3.0v7 M-2.5,-0.5L0,-3.0L2.5,-0.5"/>
                </g>
                <g id="arrowRight" xlink:href="#dirArrow" transform="rotate(90) translate(36 -43)" onmousedown="handlePan(1,0)">
                  <use xlink:href="#rim" fill="#404040">
                        <set attributeName="fill" to="#808080" begin="arrowRight.mouseover" end="arrowRight.mouseout"/>
                  </use>
                  <path fill="none" stroke="white" stroke-width="1.5" d="M0,-3.0v7 M-2.5,-0.5L0,-3.0L2.5,-0.5"/>
                </g>
                <g id="arrowDown" xlink:href="#dirArrow" transform="rotate(180) translate(-30 -48)" onmousedown="handlePan(0,1)">
                  <use xlink:href="#rim" fill="#404040">
                        <set attributeName="fill" to="#808080" begin="arrowDown.mouseover" end="arrowDown.mouseout"/>
                  </use>
                  <path fill="none" stroke="white" stroke-width="1.5" d="M0,-3.0v7 M-2.5,-0.5L0,-3.0L2.5,-0.5"/>
                </g>
                <g id="arrowLeft" xlink:href="#dirArrow" transform="rotate(270) translate(-36 17)" onmousedown="handlePan(-1,0)">
                  <use xlink:href="#rim" fill="#404040">
                        <set attributeName="fill" to="#808080" begin="arrowLeft.mouseover" end="arrowLeft.mouseout"/>
                  </use>
                  <path fill="none" stroke="white" stroke-width="1.5" d="M0,-3.0v7 M-2.5,-0.5L0,-3.0L2.5,-0.5"/>
                </g>
        </g>
        <svg viewBox="0 0 15 15" width="100%" height="30px" preserveAspectRatio="xMaxYMin meet">
         <g id="arrow_out" transform="scale(0.3 0.3)">
          <a xlink:href="class_hydro_couple_1_1_spatial_1_1_i_t_i_n_exchange_item__coll__graph_org.svg" target="_base">
           <rect id="button" ry="5" rx="5" y="6" x="6" height="38" width="38"
                fill="#f2f5e9" fill-opacity="0.5" stroke="#606060" stroke-width="1.0"/>
           <path id="arrow"
             d="M 11.500037,31.436501 C 11.940474,20.09759 22.043105,11.32322 32.158766,21.979434 L 37.068811,17.246167 C 37.068811,17.246167 37.088388,32 37.088388,32 L 22.160133,31.978069 C 22.160133,31.978069 26.997745,27.140456 26.997745,27.140456 C 18.528582,18.264221 13.291696,25.230495 11.500037,31.436501 z"
             style="fill:#404040;"/>
          </a>
         </g>
        </svg>
</svg>
