<?xml version="1.0" encoding="UTF-8" standalone="no"?>
<!DOCTYPE svg PUBLIC "-//W3C//DTD SVG 1.1//EN"
 "http://www.w3.org/Graphics/SVG/1.1/DTD/svg11.dtd">
<!-- Generated by graphviz version 2.38.0 (20140413.2041)
 -->
<!-- Title: HydroCouple::IIdentity::id Pages: 1 -->
<svg width="352pt" height="84pt"
 viewBox="0.00 0.00 352.04 84.00" xmlns="http://www.w3.org/2000/svg" xmlns:xlink="http://www.w3.org/1999/xlink">
<g id="graph0" class="graph" transform="scale(1 1) rotate(0) translate(4 80.0024)">
<title>HydroCouple::IIdentity::id</title>
<polygon fill="white" stroke="none" points="-4,4 -4,-80.0024 348.045,-80.0024 348.045,4 -4,4"/>
<!-- Node1 -->
<g id="node1" class="node"><title>Node1</title>
<polygon fill="#bfbfbf" stroke="black" points="0,-23.5 0,-44.835 172.025,-44.835 172.025,-23.5 0,-23.5"/>
<text text-anchor="middle" x="86.0127" y="-32.835" font-family="Monaco" font-size="10.00">HydroCouple::IIdentity::id</text>
</g>
<!-- Node2 -->
<g id="node2" class="node"><title>Node2</title>
<g id="a_node2"><a xlink:href="class_hydro_couple_1_1_spatial_1_1_i_edge.html#a51412d1413313e0a570b9d44ac82746b" target="_top" xlink:title="HydroCouple::Spatial\l::IEdge::~IEdge">
<polygon fill="white" stroke="black" points="208.025,-40.8325 208.025,-75.5024 344.045,-75.5024 344.045,-40.8325 208.025,-40.8325"/>
<text text-anchor="start" x="216.025" y="-63.5024" font-family="Monaco" font-size="10.00">HydroCouple::Spatial</text>
<text text-anchor="middle" x="276.035" y="-50.1675" font-family="Monaco" font-size="10.00">::IEdge::~IEdge</text>
</a>
</g>
</g>
<!-- Node1&#45;&gt;Node2 -->
<g id="edge1" class="edge"><title>Node1&#45;&gt;Node2</title>
<path fill="none" stroke="midnightblue" d="M180.796,-46.1384C189.977,-47.3103 199.161,-48.4826 207.998,-49.6106"/>
<polygon fill="midnightblue" stroke="midnightblue" points="181.214,-42.6634 170.851,-44.869 180.327,-49.6071 181.214,-42.6634"/>
</g>
<!-- Node3 -->
<g id="node3" class="node"><title>Node3</title>
<g id="a_node3"><a xlink:href="class_identity.html#aea6966e4e4e3734a196f611880dc3acb" target="_top" xlink:title="~Identity ">
<polygon fill="white" stroke="black" points="211.026,-0.5 211.026,-21.835 341.044,-21.835 341.044,-0.5 211.026,-0.5"/>
<text text-anchor="middle" x="276.035" y="-9.83496" font-family="Monaco" font-size="10.00">Identity::~Identity</text>
</a>
</g>
</g>
<!-- Node1&#45;&gt;Node3 -->
<g id="edge2" class="edge"><title>Node1&#45;&gt;Node3</title>
<path fill="none" stroke="midnightblue" d="M182.32,-22.5089C192.02,-21.3223 201.702,-20.138 210.953,-19.0064"/>
<polygon fill="midnightblue" stroke="midnightblue" points="181.723,-19.0558 172.222,-23.7442 182.573,-26.004 181.723,-19.0558"/>
</g>
</g>
</svg>
