<?xml version="1.0" encoding="UTF-8" standalone="no"?>
<!DOCTYPE svg PUBLIC "-//W3C//DTD SVG 1.1//EN"
 "http://www.w3.org/Graphics/SVG/1.1/DTD/svg11.dtd">
<!-- Generated by graphviz version 2.38.0 (20140413.2041)
 -->
<!-- Title: HydroCouple::Spatial::IRegularGrid3DArgument Pages: 1 -->
<svg width="406pt" height="1012pt"
 viewBox="0.00 0.00 406.03 1012.41" xmlns="http://www.w3.org/2000/svg" xmlns:xlink="http://www.w3.org/1999/xlink">
<g id="graph0" class="graph" transform="scale(1 1) rotate(0) translate(4 1008.41)">
<title>HydroCouple::Spatial::IRegularGrid3DArgument</title>
<!-- Node1 -->
<g id="node1" class="node"><title>Node1</title>
<polygon fill="#bfbfbf" stroke="black" points="97.999,-114.84 97.999,-192.18 276.025,-192.18 276.025,-114.84 97.999,-114.84"/>
<text text-anchor="start" x="105.999" y="-180.18" font-family="Monaco" font-size="10.00">HydroCouple::Spatial</text>
<text text-anchor="middle" x="187.012" y="-166.845" font-family="Monaco" font-size="10.00">::IRegularGrid3DArgument</text>
<polyline fill="none" stroke="black" points="97.999,-157.51 276.025,-157.51 "/>
<text text-anchor="middle" x="187.012" y="-145.51" font-family="Monaco" font-size="10.00"> </text>
<polyline fill="none" stroke="black" points="97.999,-136.175 276.025,-136.175 "/>
<text text-anchor="start" x="105.999" y="-124.175" font-family="Monaco" font-size="10.00">+ ~IRegularGrid3DArgument()</text>
</g>
<!-- Node8 -->
<g id="node8" class="node"><title>Node8</title>
<g id="a_node8"><a xlink:href="class_hydro_couple_1_1_spatio_temporal_1_1_i_time_regular_grid3_d_argument.html" target="_top" xlink:title="The ITimeRegularGrid3DExchangeItem class. ">
<polygon fill="none" stroke="black" points="85.9971,-0.5 85.9971,-77.8398 288.027,-77.8398 288.027,-0.5 85.9971,-0.5"/>
<text text-anchor="start" x="93.9971" y="-65.8398" font-family="Monaco" font-size="10.00">HydroCouple::SpatioTemporal</text>
<text text-anchor="middle" x="187.012" y="-52.5049" font-family="Monaco" font-size="10.00">::ITimeRegularGrid3DArgument</text>
<polyline fill="none" stroke="black" points="85.9971,-43.1699 288.027,-43.1699 "/>
<text text-anchor="middle" x="187.012" y="-31.1699" font-family="Monaco" font-size="10.00"> </text>
<polyline fill="none" stroke="black" points="85.9971,-21.835 288.027,-21.835 "/>
<text text-anchor="start" x="93.9971" y="-9.83496" font-family="Monaco" font-size="10.00">+ ~ITimeRegularGrid3DArgument()</text>
</a>
</g>
</g>
<!-- Node1&#45;&gt;Node8 -->
<g id="edge8" class="edge"><title>Node1&#45;&gt;Node8</title>
<path fill="none" stroke="midnightblue" d="M187.012,-104.548C187.012,-95.6678 187.012,-86.5077 187.012,-77.9816"/>
<polygon fill="none" stroke="midnightblue" points="183.512,-104.79 187.012,-114.79 190.512,-104.79 183.512,-104.79"/>
</g>
<!-- Node2 -->
<g id="node2" class="node"><title>Node2</title>
<g id="a_node2"><a xlink:href="class_hydro_couple_1_1_i_argument.html" target="_top" xlink:title="IArgument interface class used to set the arguments for components. They can be complex or simple mul...">
<polygon fill="none" stroke="black" points="0,-229.18 0,-413.199 166.024,-413.199 166.024,-229.18 0,-229.18"/>
<text text-anchor="middle" x="83.0122" y="-401.199" font-family="Monaco" font-size="10.00">HydroCouple::IArgument</text>
<polyline fill="none" stroke="black" points="0,-391.864 166.024,-391.864 "/>
<text text-anchor="middle" x="83.0122" y="-379.864" font-family="Monaco" font-size="10.00"> </text>
<polyline fill="none" stroke="black" points="0,-370.529 166.024,-370.529 "/>
<text text-anchor="start" x="8" y="-358.529" font-family="Monaco" font-size="10.00">+ ~IArgument()</text>
<text text-anchor="start" x="8" y="-345.194" font-family="Monaco" font-size="10.00">+ isOptional()</text>
<text text-anchor="start" x="8" y="-331.859" font-family="Monaco" font-size="10.00">+ isReadOnly()</text>
<text text-anchor="start" x="8" y="-318.524" font-family="Monaco" font-size="10.00">+ toString()</text>
<text text-anchor="start" x="8" y="-305.189" font-family="Monaco" font-size="10.00">+ inputFileTypeFilters()</text>
<text text-anchor="start" x="8" y="-291.854" font-family="Monaco" font-size="10.00">+ canReadFromFile()</text>
<text text-anchor="start" x="8" y="-278.52" font-family="Monaco" font-size="10.00">+ canReadFromString()</text>
<text text-anchor="start" x="8" y="-265.185" font-family="Monaco" font-size="10.00">+ currentArgumentIOType()</text>
<text text-anchor="start" x="8" y="-251.85" font-family="Monaco" font-size="10.00">+ readValues()</text>
<text text-anchor="start" x="8" y="-238.515" font-family="Monaco" font-size="10.00">+ readValues()</text>
</a>
</g>
</g>
<!-- Node2&#45;&gt;Node1 -->
<g id="edge1" class="edge"><title>Node2&#45;&gt;Node1</title>
<path fill="none" stroke="midnightblue" d="M145.667,-220.376C151.854,-210.519 157.832,-200.996 163.228,-192.4"/>
<polygon fill="none" stroke="midnightblue" points="142.536,-218.78 140.184,-229.11 148.465,-222.501 142.536,-218.78"/>
</g>
<!-- Node3 -->
<g id="node3" class="node"><title>Node3</title>
<g id="a_node3"><a xlink:href="class_hydro_couple_1_1_i_component_data_item.html" target="_top" xlink:title="IComponentItem is a fundamental unit of data for a component. ">
<polygon fill="none" stroke="black" points="85.9971,-450.199 85.9971,-634.219 288.027,-634.219 288.027,-450.199 85.9971,-450.199"/>
<text text-anchor="middle" x="187.012" y="-622.219" font-family="Monaco" font-size="10.00">HydroCouple::IComponentDataItem</text>
<polyline fill="none" stroke="black" points="85.9971,-612.884 288.027,-612.884 "/>
<text text-anchor="middle" x="187.012" y="-600.884" font-family="Monaco" font-size="10.00"> </text>
<polyline fill="none" stroke="black" points="85.9971,-591.549 288.027,-591.549 "/>
<text text-anchor="start" x="93.9971" y="-579.549" font-family="Monaco" font-size="10.00">+ ~IComponentDataItem()</text>
<text text-anchor="start" x="93.9971" y="-566.214" font-family="Monaco" font-size="10.00">+ modelComponent()</text>
<text text-anchor="start" x="93.9971" y="-552.879" font-family="Monaco" font-size="10.00">+ dimensions()</text>
<text text-anchor="start" x="93.9971" y="-539.544" font-family="Monaco" font-size="10.00">+ valueDefinition()</text>
<text text-anchor="start" x="93.9971" y="-526.209" font-family="Monaco" font-size="10.00">+ getValue()</text>
<text text-anchor="start" x="93.9971" y="-512.874" font-family="Monaco" font-size="10.00">+ getValues()</text>
<text text-anchor="start" x="93.9971" y="-499.539" font-family="Monaco" font-size="10.00">+ getValues()</text>
<text text-anchor="start" x="93.9971" y="-486.204" font-family="Monaco" font-size="10.00">+ setValue()</text>
<text text-anchor="start" x="93.9971" y="-472.869" font-family="Monaco" font-size="10.00">+ setValues()</text>
<text text-anchor="start" x="93.9971" y="-459.534" font-family="Monaco" font-size="10.00">+ setValues()</text>
</a>
</g>
</g>
<!-- Node3&#45;&gt;Node2 -->
<g id="edge2" class="edge"><title>Node3&#45;&gt;Node2</title>
<path fill="none" stroke="midnightblue" d="M139.332,-440.796C134.986,-431.643 130.599,-422.405 126.294,-413.34"/>
<polygon fill="none" stroke="midnightblue" points="136.209,-442.379 143.66,-449.911 142.532,-439.376 136.209,-442.379"/>
</g>
<!-- Node7 -->
<g id="node7" class="node"><title>Node7</title>
<g id="a_node7"><a xlink:href="class_hydro_couple_1_1_spatial_1_1_i_regular_grid3_d_component_data_item.html" target="_top" xlink:title="An IRegularGrid3DComponentItem represents an IRegularGrid3D IComponentItem. ">
<polygon fill="none" stroke="black" points="183.996,-249.182 183.996,-393.197 398.028,-393.197 398.028,-249.182 183.996,-249.182"/>
<text text-anchor="start" x="191.996" y="-381.197" font-family="Monaco" font-size="10.00">HydroCouple::Spatial</text>
<text text-anchor="middle" x="291.012" y="-367.862" font-family="Monaco" font-size="10.00">::IRegularGrid3DComponentDataItem</text>
<polyline fill="none" stroke="black" points="183.996,-358.527 398.028,-358.527 "/>
<text text-anchor="middle" x="291.012" y="-346.527" font-family="Monaco" font-size="10.00"> </text>
<polyline fill="none" stroke="black" points="183.996,-337.192 398.028,-337.192 "/>
<text text-anchor="start" x="191.996" y="-325.192" font-family="Monaco" font-size="10.00">+ ~IRegularGrid3DComponent</text>
<text text-anchor="start" x="191.996" y="-311.857" font-family="Monaco" font-size="10.00">DataItem()</text>
<text text-anchor="start" x="191.996" y="-298.522" font-family="Monaco" font-size="10.00">+ numXCellsDimension()</text>
<text text-anchor="start" x="191.996" y="-285.187" font-family="Monaco" font-size="10.00">+ numYCellsDimension()</text>
<text text-anchor="start" x="191.996" y="-271.852" font-family="Monaco" font-size="10.00">+ numZCellsDimension()</text>
<text text-anchor="start" x="191.996" y="-258.517" font-family="Monaco" font-size="10.00">+ grid()</text>
</a>
</g>
</g>
<!-- Node3&#45;&gt;Node7 -->
<g id="edge7" class="edge"><title>Node3&#45;&gt;Node7</title>
<path fill="none" stroke="midnightblue" d="M234.805,-440.56C242.378,-424.611 250.071,-408.41 257.235,-393.322"/>
<polygon fill="none" stroke="midnightblue" points="231.492,-439.376 230.364,-449.911 237.816,-442.379 231.492,-439.376"/>
</g>
<!-- Node4 -->
<g id="node4" class="node"><title>Node4</title>
<g id="a_node4"><a xlink:href="class_hydro_couple_1_1_i_identity.html" target="_top" xlink:title="IIdentity interface class defines a method to get the Id of an HydroCouple entity. ">
<polygon fill="none" stroke="black" points="113.001,-671.219 113.001,-748.559 261.023,-748.559 261.023,-671.219 113.001,-671.219"/>
<text text-anchor="middle" x="187.012" y="-736.559" font-family="Monaco" font-size="10.00">HydroCouple::IIdentity</text>
<polyline fill="none" stroke="black" points="113.001,-727.224 261.023,-727.224 "/>
<text text-anchor="middle" x="187.012" y="-715.224" font-family="Monaco" font-size="10.00"> </text>
<polyline fill="none" stroke="black" points="113.001,-705.889 261.023,-705.889 "/>
<text text-anchor="start" x="121.001" y="-693.889" font-family="Monaco" font-size="10.00">+ ~IIdentity()</text>
<text text-anchor="start" x="121.001" y="-680.554" font-family="Monaco" font-size="10.00">+ id()</text>
</a>
</g>
</g>
<!-- Node4&#45;&gt;Node3 -->
<g id="edge3" class="edge"><title>Node4&#45;&gt;Node3</title>
<path fill="none" stroke="midnightblue" d="M187.012,-660.636C187.012,-652.283 187.012,-643.358 187.012,-634.3"/>
<polygon fill="none" stroke="midnightblue" points="183.512,-660.878 187.012,-670.878 190.512,-660.878 183.512,-660.878"/>
</g>
<!-- Node5 -->
<g id="node5" class="node"><title>Node5</title>
<g id="a_node5"><a xlink:href="class_hydro_couple_1_1_i_description.html" target="_top" xlink:title="IDescription interface class provides descriptive information on a HydroCouple object. ">
<polygon fill="none" stroke="black" points="104,-785.559 104,-902.903 270.024,-902.903 270.024,-785.559 104,-785.559"/>
<text text-anchor="middle" x="187.012" y="-890.903" font-family="Monaco" font-size="10.00">HydroCouple::IDescription</text>
<polyline fill="none" stroke="black" points="104,-881.568 270.024,-881.568 "/>
<text text-anchor="middle" x="187.012" y="-869.568" font-family="Monaco" font-size="10.00"> </text>
<polyline fill="none" stroke="black" points="104,-860.233 270.024,-860.233 "/>
<text text-anchor="start" x="112" y="-848.233" font-family="Monaco" font-size="10.00">+ ~IDescription()</text>
<text text-anchor="start" x="112" y="-834.898" font-family="Monaco" font-size="10.00">+ caption()</text>
<text text-anchor="start" x="112" y="-821.563" font-family="Monaco" font-size="10.00">+ setCaption()</text>
<text text-anchor="start" x="112" y="-808.229" font-family="Monaco" font-size="10.00">+ description()</text>
<text text-anchor="start" x="112" y="-794.894" font-family="Monaco" font-size="10.00">+ setDescription()</text>
</a>
</g>
</g>
<!-- Node5&#45;&gt;Node4 -->
<g id="edge4" class="edge"><title>Node5&#45;&gt;Node4</title>
<path fill="none" stroke="midnightblue" d="M187.012,-774.993C187.012,-765.954 187.012,-756.966 187.012,-748.706"/>
<polygon fill="none" stroke="midnightblue" points="183.512,-775.184 187.012,-785.184 190.512,-775.184 183.512,-775.184"/>
</g>
<!-- Node6 -->
<g id="node6" class="node"><title>Node6</title>
<g id="a_node6"><a xlink:href="class_hydro_couple_1_1_i_property_changed.html" target="_top" xlink:title="IPropertyChanged interface is used to emit signal/event when a property of an object changes...">
<polygon fill="none" stroke="black" points="91.998,-939.903 91.998,-1003.91 282.026,-1003.91 282.026,-939.903 91.998,-939.903"/>
<text text-anchor="middle" x="187.012" y="-991.908" font-family="Monaco" font-size="10.00">HydroCouple::IPropertyChanged</text>
<polyline fill="none" stroke="black" points="91.998,-982.573 282.026,-982.573 "/>
<text text-anchor="middle" x="187.012" y="-970.573" font-family="Monaco" font-size="10.00"> </text>
<polyline fill="none" stroke="black" points="91.998,-961.238 282.026,-961.238 "/>
<text text-anchor="start" x="99.998" y="-949.238" font-family="Monaco" font-size="10.00">+ ~IPropertyChanged()</text>
</a>
</g>
</g>
<!-- Node6&#45;&gt;Node5 -->
<g id="edge5" class="edge"><title>Node6&#45;&gt;Node5</title>
<path fill="none" stroke="midnightblue" d="M187.012,-929.583C187.012,-921.198 187.012,-912.231 187.012,-903.389"/>
<polygon fill="none" stroke="midnightblue" points="183.512,-929.84 187.012,-939.84 190.512,-929.84 183.512,-929.84"/>
</g>
<!-- Node7&#45;&gt;Node1 -->
<g id="edge6" class="edge"><title>Node7&#45;&gt;Node1</title>
<path fill="none" stroke="midnightblue" d="M240.834,-240.251C230.339,-223.533 219.746,-206.657 210.766,-192.351"/>
<polygon fill="none" stroke="midnightblue" points="238.022,-242.356 246.303,-248.965 243.951,-238.634 238.022,-242.356"/>
</g>
</g>
</svg>
