<?xml version="1.0" encoding="UTF-8" standalone="no"?>
<!DOCTYPE svg PUBLIC "-//W3C//DTD SVG 1.1//EN"
 "http://www.w3.org/Graphics/SVG/1.1/DTD/svg11.dtd">
<!-- Generated by graphviz version 2.38.0 (20140413.2041)
 -->
<!-- Title: HydroCouple::IInput Pages: 1 -->
<svg width="198pt" height="725pt"
 viewBox="0.00 0.00 198.03 724.71" xmlns="http://www.w3.org/2000/svg" xmlns:xlink="http://www.w3.org/1999/xlink">
<g id="graph0" class="graph" transform="scale(1 1) rotate(0) translate(4 720.714)">
<title>HydroCouple::IInput</title>
<polygon fill="white" stroke="none" points="-4,4 -4,-720.714 194.028,-720.714 194.028,4 -4,4"/>
<!-- Node1 -->
<g id="node1" class="node"><title>Node1</title>
<polygon fill="#bfbfbf" stroke="black" points="30.0049,-0.5 30.0049,-104.51 160.023,-104.51 160.023,-0.5 30.0049,-0.5"/>
<text text-anchor="middle" x="95.0142" y="-92.5098" font-family="Monaco" font-size="10.00">HydroCouple::IInput</text>
<polyline fill="none" stroke="black" points="30.0049,-83.1748 160.023,-83.1748 "/>
<text text-anchor="middle" x="95.0142" y="-71.1748" font-family="Monaco" font-size="10.00"> </text>
<polyline fill="none" stroke="black" points="30.0049,-61.8398 160.023,-61.8398 "/>
<text text-anchor="start" x="38.0049" y="-49.8398" font-family="Monaco" font-size="10.00">+ ~IInput()</text>
<text text-anchor="start" x="38.0049" y="-36.5049" font-family="Monaco" font-size="10.00">+ getProvider()</text>
<text text-anchor="start" x="38.0049" y="-23.1699" font-family="Monaco" font-size="10.00">+ setProvider()</text>
<text text-anchor="start" x="38.0049" y="-9.83496" font-family="Monaco" font-size="10.00">+ canConsume()</text>
</g>
<!-- Node2 -->
<g id="node2" class="node"><title>Node2</title>
<g id="a_node2"><a xlink:href="class_hydro_couple_1_1_i_exchange_item.html" target="_top" xlink:title="IExchangeItem the base data item the can be exchanged between components at runtime. ">
<polygon fill="white" stroke="black" points="9.00146,-141.51 9.00146,-218.85 181.027,-218.85 181.027,-141.51 9.00146,-141.51"/>
<text text-anchor="middle" x="95.0142" y="-206.85" font-family="Monaco" font-size="10.00">HydroCouple::IExchangeItem</text>
<polyline fill="none" stroke="black" points="9.00146,-197.515 181.027,-197.515 "/>
<text text-anchor="middle" x="95.0142" y="-185.515" font-family="Monaco" font-size="10.00"> </text>
<polyline fill="none" stroke="black" points="9.00146,-176.18 181.027,-176.18 "/>
<text text-anchor="start" x="17.0015" y="-164.18" font-family="Monaco" font-size="10.00">+ ~IExchangeItem()</text>
<text text-anchor="start" x="17.0015" y="-150.845" font-family="Monaco" font-size="10.00">+ itemChanged()</text>
</a>
</g>
</g>
<!-- Node2&#45;&gt;Node1 -->
<g id="edge1" class="edge"><title>Node2&#45;&gt;Node1</title>
<path fill="none" stroke="midnightblue" d="M95.0142,-131.434C95.0142,-122.681 95.0142,-113.514 95.0142,-104.667"/>
<polygon fill="none" stroke="midnightblue" points="91.5143,-131.473 95.0142,-141.473 98.5143,-131.473 91.5143,-131.473"/>
</g>
<!-- Node3 -->
<g id="node3" class="node"><title>Node3</title>
<g id="a_node3"><a xlink:href="class_hydro_couple_1_1_i_component_item.html" target="_top" xlink:title="IComponentItem is a fundamental unit of data for a component. ">
<polygon fill="white" stroke="black" points="6.00098,-255.85 6.00098,-346.524 184.027,-346.524 184.027,-255.85 6.00098,-255.85"/>
<text text-anchor="middle" x="95.0142" y="-334.524" font-family="Monaco" font-size="10.00">HydroCouple::IComponentItem</text>
<polyline fill="none" stroke="black" points="6.00098,-325.189 184.027,-325.189 "/>
<text text-anchor="middle" x="95.0142" y="-313.189" font-family="Monaco" font-size="10.00"> </text>
<polyline fill="none" stroke="black" points="6.00098,-303.854 184.027,-303.854 "/>
<text text-anchor="start" x="14.001" y="-291.854" font-family="Monaco" font-size="10.00">+ ~IComponentItem()</text>
<text text-anchor="start" x="14.001" y="-278.52" font-family="Monaco" font-size="10.00">+ modelComponent()</text>
<text text-anchor="start" x="14.001" y="-265.185" font-family="Monaco" font-size="10.00">+ dimensions()</text>
</a>
</g>
</g>
<!-- Node3&#45;&gt;Node2 -->
<g id="edge2" class="edge"><title>Node3&#45;&gt;Node2</title>
<path fill="none" stroke="midnightblue" d="M95.0142,-245.249C95.0142,-236.394 95.0142,-227.404 95.0142,-219.068"/>
<polygon fill="none" stroke="midnightblue" points="91.5143,-245.534 95.0142,-255.534 98.5143,-245.535 91.5143,-245.534"/>
</g>
<!-- Node4 -->
<g id="node4" class="node"><title>Node4</title>
<g id="a_node4"><a xlink:href="class_hydro_couple_1_1_i_identity.html" target="_top" xlink:title="IIdentity interface class defines a method to get the Id of an HydroCouple entity. ">
<polygon fill="white" stroke="black" points="21.0034,-383.524 21.0034,-460.864 169.025,-460.864 169.025,-383.524 21.0034,-383.524"/>
<text text-anchor="middle" x="95.0142" y="-448.864" font-family="Monaco" font-size="10.00">HydroCouple::IIdentity</text>
<polyline fill="none" stroke="black" points="21.0034,-439.529 169.025,-439.529 "/>
<text text-anchor="middle" x="95.0142" y="-427.529" font-family="Monaco" font-size="10.00"> </text>
<polyline fill="none" stroke="black" points="21.0034,-418.194 169.025,-418.194 "/>
<text text-anchor="start" x="29.0034" y="-406.194" font-family="Monaco" font-size="10.00">+ ~IIdentity()</text>
<text text-anchor="start" x="29.0034" y="-392.859" font-family="Monaco" font-size="10.00">+ id()</text>
</a>
</g>
</g>
<!-- Node4&#45;&gt;Node3 -->
<g id="edge3" class="edge"><title>Node4&#45;&gt;Node3</title>
<path fill="none" stroke="midnightblue" d="M95.0142,-373.205C95.0142,-364.506 95.0142,-355.466 95.0142,-346.867"/>
<polygon fill="none" stroke="midnightblue" points="91.5143,-373.212 95.0142,-383.212 98.5143,-373.213 91.5143,-373.212"/>
</g>
<!-- Node5 -->
<g id="node5" class="node"><title>Node5</title>
<g id="a_node5"><a xlink:href="class_hydro_couple_1_1_i_description.html" target="_top" xlink:title="IDescription interface class provides descriptive information on a HydroCouple object. ">
<polygon fill="white" stroke="black" points="12.002,-497.864 12.002,-615.209 178.026,-615.209 178.026,-497.864 12.002,-497.864"/>
<text text-anchor="middle" x="95.0142" y="-603.209" font-family="Monaco" font-size="10.00">HydroCouple::IDescription</text>
<polyline fill="none" stroke="black" points="12.002,-593.874 178.026,-593.874 "/>
<text text-anchor="middle" x="95.0142" y="-581.874" font-family="Monaco" font-size="10.00"> </text>
<polyline fill="none" stroke="black" points="12.002,-572.539 178.026,-572.539 "/>
<text text-anchor="start" x="20.002" y="-560.539" font-family="Monaco" font-size="10.00">+ ~IDescription()</text>
<text text-anchor="start" x="20.002" y="-547.204" font-family="Monaco" font-size="10.00">+ getCaption()</text>
<text text-anchor="start" x="20.002" y="-533.869" font-family="Monaco" font-size="10.00">+ setCaption()</text>
<text text-anchor="start" x="20.002" y="-520.534" font-family="Monaco" font-size="10.00">+ getDescription()</text>
<text text-anchor="start" x="20.002" y="-507.199" font-family="Monaco" font-size="10.00">+ setDescription()</text>
</a>
</g>
</g>
<!-- Node5&#45;&gt;Node4 -->
<g id="edge4" class="edge"><title>Node5&#45;&gt;Node4</title>
<path fill="none" stroke="midnightblue" d="M95.0142,-487.298C95.0142,-478.26 95.0142,-469.272 95.0142,-461.012"/>
<polygon fill="none" stroke="midnightblue" points="91.5143,-487.489 95.0142,-497.489 98.5143,-487.489 91.5143,-487.489"/>
</g>
<!-- Node6 -->
<g id="node6" class="node"><title>Node6</title>
<g id="a_node6"><a xlink:href="class_hydro_couple_1_1_i_property_changed.html" target="_top" xlink:title="IPropertyChanged interface is used to emit signal/event when a property of an object changes...">
<polygon fill="white" stroke="black" points="0,-652.209 0,-716.214 190.028,-716.214 190.028,-652.209 0,-652.209"/>
<text text-anchor="middle" x="95.0142" y="-704.214" font-family="Monaco" font-size="10.00">HydroCouple::IPropertyChanged</text>
<polyline fill="none" stroke="black" points="0,-694.879 190.028,-694.879 "/>
<text text-anchor="middle" x="95.0142" y="-682.879" font-family="Monaco" font-size="10.00"> </text>
<polyline fill="none" stroke="black" points="0,-673.544 190.028,-673.544 "/>
<text text-anchor="start" x="8" y="-661.544" font-family="Monaco" font-size="10.00">+ ~IPropertyChanged()</text>
</a>
</g>
</g>
<!-- Node6&#45;&gt;Node5 -->
<g id="edge5" class="edge"><title>Node6&#45;&gt;Node5</title>
<path fill="none" stroke="midnightblue" d="M95.0142,-641.889C95.0142,-633.504 95.0142,-624.537 95.0142,-615.695"/>
<polygon fill="none" stroke="midnightblue" points="91.5143,-642.146 95.0142,-652.146 98.5143,-642.146 91.5143,-642.146"/>
</g>
</g>
</svg>
