<?xml version="1.0" encoding="UTF-8" standalone="no"?>
<!DOCTYPE svg PUBLIC "-//W3C//DTD SVG 1.1//EN"
 "http://www.w3.org/Graphics/SVG/1.1/DTD/svg11.dtd">
<!-- Generated by graphviz version 2.38.0 (20140413.2041)
 -->
<!-- Title: HydroCouple::IExchangeItem Pages: 1 -->
<svg width="198pt" height="584pt"
 viewBox="0.00 0.00 198.03 583.70" xmlns="http://www.w3.org/2000/svg" xmlns:xlink="http://www.w3.org/1999/xlink">
<g id="graph0" class="graph" transform="scale(1 1) rotate(0) translate(4 579.704)">
<title>HydroCouple::IExchangeItem</title>
<polygon fill="white" stroke="none" points="-4,4 -4,-579.704 194.028,-579.704 194.028,4 -4,4"/>
<!-- Node1 -->
<g id="node1" class="node"><title>Node1</title>
<polygon fill="#bfbfbf" stroke="black" points="9.00146,-0.5 9.00146,-77.8398 181.027,-77.8398 181.027,-0.5 9.00146,-0.5"/>
<text text-anchor="middle" x="95.0142" y="-65.8398" font-family="Monaco" font-size="10.00">HydroCouple::IExchangeItem</text>
<polyline fill="none" stroke="black" points="9.00146,-56.5049 181.027,-56.5049 "/>
<text text-anchor="middle" x="95.0142" y="-44.5049" font-family="Monaco" font-size="10.00"> </text>
<polyline fill="none" stroke="black" points="9.00146,-35.1699 181.027,-35.1699 "/>
<text text-anchor="start" x="17.0015" y="-23.1699" font-family="Monaco" font-size="10.00">+ ~IExchangeItem()</text>
<text text-anchor="start" x="17.0015" y="-9.83496" font-family="Monaco" font-size="10.00">+ itemChanged()</text>
</g>
<!-- Node2 -->
<g id="node2" class="node"><title>Node2</title>
<g id="a_node2"><a xlink:href="class_hydro_couple_1_1_i_component_item.html" target="_top" xlink:title="IComponentItem is a fundamental unit of data for a component. ">
<polygon fill="white" stroke="black" points="6.00098,-114.84 6.00098,-205.515 184.027,-205.515 184.027,-114.84 6.00098,-114.84"/>
<text text-anchor="middle" x="95.0142" y="-193.515" font-family="Monaco" font-size="10.00">HydroCouple::IComponentItem</text>
<polyline fill="none" stroke="black" points="6.00098,-184.18 184.027,-184.18 "/>
<text text-anchor="middle" x="95.0142" y="-172.18" font-family="Monaco" font-size="10.00"> </text>
<polyline fill="none" stroke="black" points="6.00098,-162.845 184.027,-162.845 "/>
<text text-anchor="start" x="14.001" y="-150.845" font-family="Monaco" font-size="10.00">+ ~IComponentItem()</text>
<text text-anchor="start" x="14.001" y="-137.51" font-family="Monaco" font-size="10.00">+ modelComponent()</text>
<text text-anchor="start" x="14.001" y="-124.175" font-family="Monaco" font-size="10.00">+ dimensions()</text>
</a>
</g>
</g>
<!-- Node2&#45;&gt;Node1 -->
<g id="edge1" class="edge"><title>Node2&#45;&gt;Node1</title>
<path fill="none" stroke="midnightblue" d="M95.0142,-104.24C95.0142,-95.3846 95.0142,-86.394 95.0142,-78.0584"/>
<polygon fill="none" stroke="midnightblue" points="91.5143,-104.525 95.0142,-114.525 98.5143,-104.525 91.5143,-104.525"/>
</g>
<!-- Node3 -->
<g id="node3" class="node"><title>Node3</title>
<g id="a_node3"><a xlink:href="class_hydro_couple_1_1_i_identity.html" target="_top" xlink:title="IIdentity interface class defines a method to get the Id of an HydroCouple entity. ">
<polygon fill="white" stroke="black" points="21.0034,-242.515 21.0034,-319.854 169.025,-319.854 169.025,-242.515 21.0034,-242.515"/>
<text text-anchor="middle" x="95.0142" y="-307.854" font-family="Monaco" font-size="10.00">HydroCouple::IIdentity</text>
<polyline fill="none" stroke="black" points="21.0034,-298.52 169.025,-298.52 "/>
<text text-anchor="middle" x="95.0142" y="-286.52" font-family="Monaco" font-size="10.00"> </text>
<polyline fill="none" stroke="black" points="21.0034,-277.185 169.025,-277.185 "/>
<text text-anchor="start" x="29.0034" y="-265.185" font-family="Monaco" font-size="10.00">+ ~IIdentity()</text>
<text text-anchor="start" x="29.0034" y="-251.85" font-family="Monaco" font-size="10.00">+ id()</text>
</a>
</g>
</g>
<!-- Node3&#45;&gt;Node2 -->
<g id="edge2" class="edge"><title>Node3&#45;&gt;Node2</title>
<path fill="none" stroke="midnightblue" d="M95.0142,-232.195C95.0142,-223.496 95.0142,-214.456 95.0142,-205.858"/>
<polygon fill="none" stroke="midnightblue" points="91.5143,-232.203 95.0142,-242.203 98.5143,-232.203 91.5143,-232.203"/>
</g>
<!-- Node4 -->
<g id="node4" class="node"><title>Node4</title>
<g id="a_node4"><a xlink:href="class_hydro_couple_1_1_i_description.html" target="_top" xlink:title="IDescription interface class provides descriptive information on a HydroCouple object. ">
<polygon fill="white" stroke="black" points="12.002,-356.854 12.002,-474.199 178.026,-474.199 178.026,-356.854 12.002,-356.854"/>
<text text-anchor="middle" x="95.0142" y="-462.199" font-family="Monaco" font-size="10.00">HydroCouple::IDescription</text>
<polyline fill="none" stroke="black" points="12.002,-452.864 178.026,-452.864 "/>
<text text-anchor="middle" x="95.0142" y="-440.864" font-family="Monaco" font-size="10.00"> </text>
<polyline fill="none" stroke="black" points="12.002,-431.529 178.026,-431.529 "/>
<text text-anchor="start" x="20.002" y="-419.529" font-family="Monaco" font-size="10.00">+ ~IDescription()</text>
<text text-anchor="start" x="20.002" y="-406.194" font-family="Monaco" font-size="10.00">+ getCaption()</text>
<text text-anchor="start" x="20.002" y="-392.859" font-family="Monaco" font-size="10.00">+ setCaption()</text>
<text text-anchor="start" x="20.002" y="-379.524" font-family="Monaco" font-size="10.00">+ getDescription()</text>
<text text-anchor="start" x="20.002" y="-366.189" font-family="Monaco" font-size="10.00">+ setDescription()</text>
</a>
</g>
</g>
<!-- Node4&#45;&gt;Node3 -->
<g id="edge3" class="edge"><title>Node4&#45;&gt;Node3</title>
<path fill="none" stroke="midnightblue" d="M95.0142,-346.289C95.0142,-337.25 95.0142,-328.262 95.0142,-320.002"/>
<polygon fill="none" stroke="midnightblue" points="91.5143,-346.48 95.0142,-356.48 98.5143,-346.48 91.5143,-346.48"/>
</g>
<!-- Node5 -->
<g id="node5" class="node"><title>Node5</title>
<g id="a_node5"><a xlink:href="class_hydro_couple_1_1_i_property_changed.html" target="_top" xlink:title="IPropertyChanged interface is used to emit signal/event when a property of an object changes...">
<polygon fill="white" stroke="black" points="0,-511.199 0,-575.204 190.028,-575.204 190.028,-511.199 0,-511.199"/>
<text text-anchor="middle" x="95.0142" y="-563.204" font-family="Monaco" font-size="10.00">HydroCouple::IPropertyChanged</text>
<polyline fill="none" stroke="black" points="0,-553.869 190.028,-553.869 "/>
<text text-anchor="middle" x="95.0142" y="-541.869" font-family="Monaco" font-size="10.00"> </text>
<polyline fill="none" stroke="black" points="0,-532.534 190.028,-532.534 "/>
<text text-anchor="start" x="8" y="-520.534" font-family="Monaco" font-size="10.00">+ ~IPropertyChanged()</text>
</a>
</g>
</g>
<!-- Node5&#45;&gt;Node4 -->
<g id="edge4" class="edge"><title>Node5&#45;&gt;Node4</title>
<path fill="none" stroke="midnightblue" d="M95.0142,-500.879C95.0142,-492.494 95.0142,-483.527 95.0142,-474.685"/>
<polygon fill="none" stroke="midnightblue" points="91.5143,-501.136 95.0142,-511.136 98.5143,-501.136 91.5143,-501.136"/>
</g>
</g>
</svg>
