<?xml version="1.0" encoding="UTF-8" standalone="no"?>
<!DOCTYPE svg PUBLIC "-//W3C//DTD SVG 1.1//EN"
 "http://www.w3.org/Graphics/SVG/1.1/DTD/svg11.dtd">
<!-- Generated by graphviz version 2.38.0 (20140413.2041)
 -->
<!-- Title: HydroCouple::Spatial::IPolyhedralSurfaceExchangeItem Pages: 1 -->
<!--zoomable 972 -->
<svg id="main" version="1.1" xmlns="http://www.w3.org/2000/svg" xmlns:xlink="http://www.w3.org/1999/xlink" xml:space="preserve" onload="init(evt)">
<style type="text/css"><![CDATA[
.edge:hover path { stroke: red; }
.edge:hover polygon { stroke: red; fill: red; }
]]></style>
<script type="text/javascript"><![CDATA[
var edges = document.getElementsByTagName('g');
if (edges && edges.length) {
  for (var i=0;i<edges.length;i++) {
    if (edges[i].id.substr(0,4)=='edge') {
      edges[i].setAttribute('class','edge');
    }
  }
}
]]></script>
        <defs>
                <circle id="rim" cx="0" cy="0" r="7"/>
                <circle id="rim2" cx="0" cy="0" r="3.5"/>
                <g id="zoomPlus">
                        <use xlink:href="#rim" fill="#404040">
                                <set attributeName="fill" to="#808080" begin="zoomplus.mouseover" end="zoomplus.mouseout"/>
                        </use>
                        <path d="M-4,0h8M0,-4v8" fill="none" stroke="white" stroke-width="1.5" pointer-events="none"/>
                </g>
                <g id="zoomMin">
                        <use xlink:href="#rim" fill="#404040">
                                <set attributeName="fill" to="#808080" begin="zoomminus.mouseover" end="zoomminus.mouseout"/>
                        </use>
                        <path d="M-4,0h8" fill="none" stroke="white" stroke-width="1.5" pointer-events="none"/>
                </g>
                <g id="dirArrow">
                        <path fill="none" stroke="white" stroke-width="1.5" d="M0,-3.0v7 M-2.5,-0.5L0,-3.0L2.5,-0.5"/>
                </g>
               <g id="resetDef">
                       <use xlink:href="#rim2" fill="#404040">
                               <set attributeName="fill" to="#808080" begin="reset.mouseover" end="reset.mouseout"/>
                       </use>
               </g>
        </defs>

<script type="text/javascript">
var viewWidth = 526;
var viewHeight = 972;
var sectionId = 'dynsection-0';
</script>
<script xlink:href="svgpan.js"/>
<svg id="graph" class="graph">
<g id="viewport">
<title>HydroCouple::Spatial::IPolyhedralSurfaceExchangeItem</title>
<!-- Node1 -->
<g id="node1" class="node"><title>Node1</title>
<polygon fill="#bfbfbf" stroke="black" points="146.002,-114.84 146.002,-192.18 372.036,-192.18 372.036,-114.84 146.002,-114.84"/>
<text text-anchor="start" x="154.002" y="-180.18" font-family="Monaco" font-size="10.00">HydroCouple::Spatial</text>
<text text-anchor="middle" x="259.019" y="-166.845" font-family="Monaco" font-size="10.00">::IPolyhedralSurfaceExchangeItem</text>
<polyline fill="none" stroke="black" points="146.002,-157.51 372.036,-157.51 "/>
<text text-anchor="middle" x="259.019" y="-145.51" font-family="Monaco" font-size="10.00"> </text>
<polyline fill="none" stroke="black" points="146.002,-136.175 372.036,-136.175 "/>
<text text-anchor="start" x="154.002" y="-124.175" font-family="Monaco" font-size="10.00">+ ~IPolyhedralSurfaceExchangeItem()</text>
</g>
<!-- Node8 -->
<g id="node8" class="node"><title>Node8</title>
<g id="a_node8"><a xlink:href="class_hydro_couple_1_1_spatial_1_1_i_polyhedral_surface_only_exchange_item.html" target="_top" xlink:title="An IPolyhedralSurfaceOnlyExchangeItem class with an IPolyhedralSurface component. ...">
<polygon fill="none" stroke="black" points="0,-0.5 0,-77.8398 250.038,-77.8398 250.038,-0.5 0,-0.5"/>
<text text-anchor="start" x="8" y="-65.8398" font-family="Monaco" font-size="10.00">HydroCouple::Spatial</text>
<text text-anchor="middle" x="125.019" y="-52.5049" font-family="Monaco" font-size="10.00">::IPolyhedralSurfaceOnlyExchangeItem</text>
<polyline fill="none" stroke="black" points="0,-43.1699 250.038,-43.1699 "/>
<text text-anchor="middle" x="125.019" y="-31.1699" font-family="Monaco" font-size="10.00"> </text>
<polyline fill="none" stroke="black" points="0,-21.835 250.038,-21.835 "/>
<text text-anchor="start" x="8" y="-9.83496" font-family="Monaco" font-size="10.00">+ ~IPolyhedralSurfaceOnlyExchangeItem()</text>
</a>
</g>
</g>
<!-- Node1&#45;&gt;Node8 -->
<g id="edge8" class="edge"><title>Node1&#45;&gt;Node8</title>
<path fill="none" stroke="midnightblue" d="M206.277,-108.293C194.32,-98.2692 181.728,-87.7125 170.121,-77.9816"/>
<polygon fill="none" stroke="midnightblue" points="204.114,-111.047 214.026,-114.79 208.612,-105.683 204.114,-111.047"/>
</g>
<!-- Node9 -->
<g id="node9" class="node"><title>Node9</title>
<g id="a_node9"><a xlink:href="class_hydro_couple_1_1_spatio_temporal_1_1_i_time_polyhedral_surface_exchange_item.html" target="_top" xlink:title="The ITimePolyhedralSurfaceExchangeItem class. ">
<polygon fill="none" stroke="black" points="268,-0.5 268,-77.8398 518.038,-77.8398 518.038,-0.5 268,-0.5"/>
<text text-anchor="start" x="276" y="-65.8398" font-family="Monaco" font-size="10.00">HydroCouple::SpatioTemporal</text>
<text text-anchor="middle" x="393.019" y="-52.5049" font-family="Monaco" font-size="10.00">::ITimePolyhedralSurfaceExchangeItem</text>
<polyline fill="none" stroke="black" points="268,-43.1699 518.038,-43.1699 "/>
<text text-anchor="middle" x="393.019" y="-31.1699" font-family="Monaco" font-size="10.00"> </text>
<polyline fill="none" stroke="black" points="268,-21.835 518.038,-21.835 "/>
<text text-anchor="start" x="276" y="-9.83496" font-family="Monaco" font-size="10.00">+ ~ITimePolyhedralSurfaceExchangeItem()</text>
</a>
</g>
</g>
<!-- Node1&#45;&gt;Node9 -->
<g id="edge9" class="edge"><title>Node1&#45;&gt;Node9</title>
<path fill="none" stroke="midnightblue" d="M311.761,-108.293C323.718,-98.2692 336.31,-87.7125 347.917,-77.9816"/>
<polygon fill="none" stroke="midnightblue" points="309.427,-105.683 304.012,-114.79 313.924,-111.047 309.427,-105.683"/>
</g>
<!-- Node2 -->
<g id="node2" class="node"><title>Node2</title>
<g id="a_node2"><a xlink:href="class_hydro_couple_1_1_i_exchange_item.html" target="_top" xlink:title="IExchangeItem the base data item the can be exchanged between components at runtime. ">
<polygon fill="none" stroke="black" points="65.0063,-262.517 65.0063,-339.857 237.032,-339.857 237.032,-262.517 65.0063,-262.517"/>
<text text-anchor="middle" x="151.019" y="-327.857" font-family="Monaco" font-size="10.00">HydroCouple::IExchangeItem</text>
<polyline fill="none" stroke="black" points="65.0063,-318.522 237.032,-318.522 "/>
<text text-anchor="middle" x="151.019" y="-306.522" font-family="Monaco" font-size="10.00"> </text>
<polyline fill="none" stroke="black" points="65.0063,-297.187 237.032,-297.187 "/>
<text text-anchor="start" x="73.0063" y="-285.187" font-family="Monaco" font-size="10.00">+ ~IExchangeItem()</text>
<text text-anchor="start" x="73.0063" y="-271.852" font-family="Monaco" font-size="10.00">+ itemChanged()</text>
</a>
</g>
</g>
<!-- Node2&#45;&gt;Node1 -->
<g id="edge1" class="edge"><title>Node2&#45;&gt;Node1</title>
<path fill="none" stroke="midnightblue" d="M185.086,-254.235C199.892,-234.264 217.024,-211.155 231.066,-192.215"/>
<polygon fill="none" stroke="midnightblue" points="182.257,-252.175 179.113,-262.292 187.88,-256.344 182.257,-252.175"/>
</g>
<!-- Node3 -->
<g id="node3" class="node"><title>Node3</title>
<g id="a_node3"><a xlink:href="class_hydro_couple_1_1_i_component_data_item.html" target="_top" xlink:title="IComponentItem is a fundamental unit of data for a component. ">
<polygon fill="none" stroke="black" points="158.004,-410.194 158.004,-594.214 360.034,-594.214 360.034,-410.194 158.004,-410.194"/>
<text text-anchor="middle" x="259.019" y="-582.214" font-family="Monaco" font-size="10.00">HydroCouple::IComponentDataItem</text>
<polyline fill="none" stroke="black" points="158.004,-572.879 360.034,-572.879 "/>
<text text-anchor="middle" x="259.019" y="-560.879" font-family="Monaco" font-size="10.00"> </text>
<polyline fill="none" stroke="black" points="158.004,-551.544 360.034,-551.544 "/>
<text text-anchor="start" x="166.004" y="-539.544" font-family="Monaco" font-size="10.00">+ ~IComponentDataItem()</text>
<text text-anchor="start" x="166.004" y="-526.209" font-family="Monaco" font-size="10.00">+ modelComponent()</text>
<text text-anchor="start" x="166.004" y="-512.874" font-family="Monaco" font-size="10.00">+ dimensions()</text>
<text text-anchor="start" x="166.004" y="-499.539" font-family="Monaco" font-size="10.00">+ valueDefinition()</text>
<text text-anchor="start" x="166.004" y="-486.204" font-family="Monaco" font-size="10.00">+ getValue()</text>
<text text-anchor="start" x="166.004" y="-472.869" font-family="Monaco" font-size="10.00">+ getValues()</text>
<text text-anchor="start" x="166.004" y="-459.534" font-family="Monaco" font-size="10.00">+ getValues()</text>
<text text-anchor="start" x="166.004" y="-446.199" font-family="Monaco" font-size="10.00">+ setValue()</text>
<text text-anchor="start" x="166.004" y="-432.864" font-family="Monaco" font-size="10.00">+ setValues()</text>
<text text-anchor="start" x="166.004" y="-419.529" font-family="Monaco" font-size="10.00">+ setValues()</text>
</a>
</g>
</g>
<!-- Node3&#45;&gt;Node2 -->
<g id="edge2" class="edge"><title>Node3&#45;&gt;Node2</title>
<path fill="none" stroke="midnightblue" d="M204.708,-401.123C192.857,-379.284 181.025,-357.481 171.497,-339.923"/>
<polygon fill="none" stroke="midnightblue" points="201.756,-403.021 209.602,-410.141 207.909,-399.682 201.756,-403.021"/>
</g>
<!-- Node7 -->
<g id="node7" class="node"><title>Node7</title>
<g id="a_node7"><a xlink:href="class_hydro_couple_1_1_spatial_1_1_i_polyhedral_surface_component_data_item.html" target="_top" xlink:title="IPolyhedralSurfaceComponentItem represents IPolyhedralSurface IComponentItem. ">
<polygon fill="none" stroke="black" points="255.002,-229.18 255.002,-373.194 481.036,-373.194 481.036,-229.18 255.002,-229.18"/>
<text text-anchor="start" x="263.002" y="-361.194" font-family="Monaco" font-size="10.00">HydroCouple::Spatial</text>
<text text-anchor="start" x="263.002" y="-347.859" font-family="Monaco" font-size="10.00">::IPolyhedralSurfaceComponent</text>
<text text-anchor="middle" x="368.019" y="-334.524" font-family="Monaco" font-size="10.00">DataItem</text>
<polyline fill="none" stroke="black" points="255.002,-325.189 481.036,-325.189 "/>
<text text-anchor="middle" x="368.019" y="-313.189" font-family="Monaco" font-size="10.00"> </text>
<polyline fill="none" stroke="black" points="255.002,-303.854 481.036,-303.854 "/>
<text text-anchor="start" x="263.002" y="-291.854" font-family="Monaco" font-size="10.00">+ ~IPolyhedralSurfaceComponent</text>
<text text-anchor="start" x="263.002" y="-278.52" font-family="Monaco" font-size="10.00">DataItem()</text>
<text text-anchor="start" x="263.002" y="-265.185" font-family="Monaco" font-size="10.00">+ polyhedralSurface()</text>
<text text-anchor="start" x="263.002" y="-251.85" font-family="Monaco" font-size="10.00">+ polygon()</text>
<text text-anchor="start" x="263.002" y="-238.515" font-family="Monaco" font-size="10.00">+ polyhedralSurfacePatchDimension()</text>
</a>
</g>
</g>
<!-- Node3&#45;&gt;Node7 -->
<g id="edge7" class="edge"><title>Node3&#45;&gt;Node7</title>
<path fill="none" stroke="midnightblue" d="M313.833,-401.123C318.989,-391.708 324.142,-382.299 329.107,-373.235"/>
<polygon fill="none" stroke="midnightblue" points="310.628,-399.689 308.894,-410.141 316.767,-403.051 310.628,-399.689"/>
</g>
<!-- Node4 -->
<g id="node4" class="node"><title>Node4</title>
<g id="a_node4"><a xlink:href="class_hydro_couple_1_1_i_identity.html" target="_top" xlink:title="IIdentity interface class defines a method to get the Id of an HydroCouple entity. ">
<polygon fill="none" stroke="black" points="185.008,-631.214 185.008,-708.554 333.03,-708.554 333.03,-631.214 185.008,-631.214"/>
<text text-anchor="middle" x="259.019" y="-696.554" font-family="Monaco" font-size="10.00">HydroCouple::IIdentity</text>
<polyline fill="none" stroke="black" points="185.008,-687.219 333.03,-687.219 "/>
<text text-anchor="middle" x="259.019" y="-675.219" font-family="Monaco" font-size="10.00"> </text>
<polyline fill="none" stroke="black" points="185.008,-665.884 333.03,-665.884 "/>
<text text-anchor="start" x="193.008" y="-653.884" font-family="Monaco" font-size="10.00">+ ~IIdentity()</text>
<text text-anchor="start" x="193.008" y="-640.549" font-family="Monaco" font-size="10.00">+ id()</text>
</a>
</g>
</g>
<!-- Node4&#45;&gt;Node3 -->
<g id="edge3" class="edge"><title>Node4&#45;&gt;Node3</title>
<path fill="none" stroke="midnightblue" d="M259.019,-620.632C259.019,-612.278 259.019,-603.353 259.019,-594.295"/>
<polygon fill="none" stroke="midnightblue" points="255.519,-620.873 259.019,-630.874 262.519,-620.874 255.519,-620.873"/>
</g>
<!-- Node5 -->
<g id="node5" class="node"><title>Node5</title>
<g id="a_node5"><a xlink:href="class_hydro_couple_1_1_i_description.html" target="_top" xlink:title="IDescription interface class provides descriptive information on a HydroCouple object. ">
<polygon fill="none" stroke="black" points="176.007,-745.554 176.007,-862.898 342.031,-862.898 342.031,-745.554 176.007,-745.554"/>
<text text-anchor="middle" x="259.019" y="-850.898" font-family="Monaco" font-size="10.00">HydroCouple::IDescription</text>
<polyline fill="none" stroke="black" points="176.007,-841.563 342.031,-841.563 "/>
<text text-anchor="middle" x="259.019" y="-829.563" font-family="Monaco" font-size="10.00"> </text>
<polyline fill="none" stroke="black" points="176.007,-820.229 342.031,-820.229 "/>
<text text-anchor="start" x="184.007" y="-808.229" font-family="Monaco" font-size="10.00">+ ~IDescription()</text>
<text text-anchor="start" x="184.007" y="-794.894" font-family="Monaco" font-size="10.00">+ caption()</text>
<text text-anchor="start" x="184.007" y="-781.559" font-family="Monaco" font-size="10.00">+ setCaption()</text>
<text text-anchor="start" x="184.007" y="-768.224" font-family="Monaco" font-size="10.00">+ description()</text>
<text text-anchor="start" x="184.007" y="-754.889" font-family="Monaco" font-size="10.00">+ setDescription()</text>
</a>
</g>
</g>
<!-- Node5&#45;&gt;Node4 -->
<g id="edge4" class="edge"><title>Node5&#45;&gt;Node4</title>
<path fill="none" stroke="midnightblue" d="M259.019,-734.988C259.019,-725.949 259.019,-716.962 259.019,-708.701"/>
<polygon fill="none" stroke="midnightblue" points="255.519,-735.179 259.019,-745.179 262.519,-735.179 255.519,-735.179"/>
</g>
<!-- Node6 -->
<g id="node6" class="node"><title>Node6</title>
<g id="a_node6"><a xlink:href="class_hydro_couple_1_1_i_property_changed.html" target="_top" xlink:title="IPropertyChanged interface is used to emit signal/event when a property of an object changes...">
<polygon fill="none" stroke="black" points="164.005,-899.898 164.005,-963.903 354.033,-963.903 354.033,-899.898 164.005,-899.898"/>
<text text-anchor="middle" x="259.019" y="-951.903" font-family="Monaco" font-size="10.00">HydroCouple::IPropertyChanged</text>
<polyline fill="none" stroke="black" points="164.005,-942.568 354.033,-942.568 "/>
<text text-anchor="middle" x="259.019" y="-930.568" font-family="Monaco" font-size="10.00"> </text>
<polyline fill="none" stroke="black" points="164.005,-921.233 354.033,-921.233 "/>
<text text-anchor="start" x="172.005" y="-909.233" font-family="Monaco" font-size="10.00">+ ~IPropertyChanged()</text>
</a>
</g>
</g>
<!-- Node6&#45;&gt;Node5 -->
<g id="edge5" class="edge"><title>Node6&#45;&gt;Node5</title>
<path fill="none" stroke="midnightblue" d="M259.019,-889.578C259.019,-881.193 259.019,-872.227 259.019,-863.384"/>
<polygon fill="none" stroke="midnightblue" points="255.519,-889.835 259.019,-899.835 262.519,-889.835 255.519,-889.835"/>
</g>
<!-- Node7&#45;&gt;Node1 -->
<g id="edge6" class="edge"><title>Node7&#45;&gt;Node1</title>
<path fill="none" stroke="midnightblue" d="M308.781,-221.017C301.3,-211.018 293.938,-201.179 287.266,-192.262"/>
<polygon fill="none" stroke="midnightblue" points="306.003,-223.145 314.796,-229.055 311.608,-218.952 306.003,-223.145"/>
</g>
</g>
</svg>
        <g id="navigator" transform="translate(0 0)" fill="#404254">
                <rect fill="#f2f5e9" fill-opacity="0.5" stroke="#606060" stroke-width=".5" x="0" y="0" width="60" height="60"/>
                <use id="zoomplus" xlink:href="#zoomPlus" x="17" y="9" onmousedown="handleZoom(evt,'in')"/>
                <use id="zoomminus" xlink:href="#zoomMin" x="42" y="9" onmousedown="handleZoom(evt,'out')"/>
                <use id="reset" xlink:href="#resetDef" x="30" y="36" onmousedown="handleReset()"/>
                <g id="arrowUp" xlink:href="#dirArrow" transform="translate(30 24)" onmousedown="handlePan(0,-1)">
                  <use xlink:href="#rim" fill="#404040">
                        <set attributeName="fill" to="#808080" begin="arrowUp.mouseover" end="arrowUp.mouseout"/>
                  </use>
                  <path fill="none" stroke="white" stroke-width="1.5" d="M0,-3.0v7 M-2.5,-0.5L0,-3.0L2.5,-0.5"/>
                </g>
                <g id="arrowRight" xlink:href="#dirArrow" transform="rotate(90) translate(36 -43)" onmousedown="handlePan(1,0)">
                  <use xlink:href="#rim" fill="#404040">
                        <set attributeName="fill" to="#808080" begin="arrowRight.mouseover" end="arrowRight.mouseout"/>
                  </use>
                  <path fill="none" stroke="white" stroke-width="1.5" d="M0,-3.0v7 M-2.5,-0.5L0,-3.0L2.5,-0.5"/>
                </g>
                <g id="arrowDown" xlink:href="#dirArrow" transform="rotate(180) translate(-30 -48)" onmousedown="handlePan(0,1)">
                  <use xlink:href="#rim" fill="#404040">
                        <set attributeName="fill" to="#808080" begin="arrowDown.mouseover" end="arrowDown.mouseout"/>
                  </use>
                  <path fill="none" stroke="white" stroke-width="1.5" d="M0,-3.0v7 M-2.5,-0.5L0,-3.0L2.5,-0.5"/>
                </g>
                <g id="arrowLeft" xlink:href="#dirArrow" transform="rotate(270) translate(-36 17)" onmousedown="handlePan(-1,0)">
                  <use xlink:href="#rim" fill="#404040">
                        <set attributeName="fill" to="#808080" begin="arrowLeft.mouseover" end="arrowLeft.mouseout"/>
                  </use>
                  <path fill="none" stroke="white" stroke-width="1.5" d="M0,-3.0v7 M-2.5,-0.5L0,-3.0L2.5,-0.5"/>
                </g>
        </g>
        <svg viewBox="0 0 15 15" width="100%" height="30px" preserveAspectRatio="xMaxYMin meet">
         <g id="arrow_out" transform="scale(0.3 0.3)">
          <a xlink:href="class_hydro_couple_1_1_spatial_1_1_i_polyhedral_surface_exchange_item__inherit__graph_org.svg" target="_base">
           <rect id="button" ry="5" rx="5" y="6" x="6" height="38" width="38"
                fill="#f2f5e9" fill-opacity="0.5" stroke="#606060" stroke-width="1.0"/>
           <path id="arrow"
             d="M 11.500037,31.436501 C 11.940474,20.09759 22.043105,11.32322 32.158766,21.979434 L 37.068811,17.246167 C 37.068811,17.246167 37.088388,32 37.088388,32 L 22.160133,31.978069 C 22.160133,31.978069 26.997745,27.140456 26.997745,27.140456 C 18.528582,18.264221 13.291696,25.230495 11.500037,31.436501 z"
             style="fill:#404040;"/>
          </a>
         </g>
        </svg>
</svg>
