<?xml version="1.0" encoding="UTF-8" standalone="no"?>
<!DOCTYPE svg PUBLIC "-//W3C//DTD SVG 1.1//EN"
 "http://www.w3.org/Graphics/SVG/1.1/DTD/svg11.dtd">
<!-- Generated by graphviz version 2.38.0 (20140413.2041)
 -->
<!-- Title: HydroCouple::IArgument Pages: 1 -->
<svg width="2526pt" height="898pt"
 viewBox="0.00 0.00 2526.02 898.07" xmlns="http://www.w3.org/2000/svg" xmlns:xlink="http://www.w3.org/1999/xlink">
<g id="graph0" class="graph" transform="scale(1 1) rotate(0) translate(4 894.068)">
<title>HydroCouple::IArgument</title>
<polygon fill="white" stroke="none" points="-4,4 -4,-894.068 2522.02,-894.068 2522.02,4 -4,4"/>
<!-- Node1 -->
<g id="node1" class="node"><title>Node1</title>
<polygon fill="#bfbfbf" stroke="black" points="1119,-154.845 1119,-352.199 1267.02,-352.199 1267.02,-154.845 1119,-154.845"/>
<text text-anchor="middle" x="1193.01" y="-340.199" font-family="Monaco" font-size="10.00">HydroCouple::IArgument</text>
<polyline fill="none" stroke="black" points="1119,-330.864 1267.02,-330.864 "/>
<text text-anchor="middle" x="1193.01" y="-318.864" font-family="Monaco" font-size="10.00"> </text>
<polyline fill="none" stroke="black" points="1119,-309.529 1267.02,-309.529 "/>
<text text-anchor="start" x="1127" y="-297.529" font-family="Monaco" font-size="10.00">+ ~IArgument()</text>
<text text-anchor="start" x="1127" y="-284.194" font-family="Monaco" font-size="10.00">+ isOptional()</text>
<text text-anchor="start" x="1127" y="-270.859" font-family="Monaco" font-size="10.00">+ isReadOnly()</text>
<text text-anchor="start" x="1127" y="-257.524" font-family="Monaco" font-size="10.00">+ clone()</text>
<text text-anchor="start" x="1127" y="-244.189" font-family="Monaco" font-size="10.00">+ valueSets()</text>
<text text-anchor="start" x="1127" y="-230.854" font-family="Monaco" font-size="10.00">+ toString()</text>
<text text-anchor="start" x="1127" y="-217.52" font-family="Monaco" font-size="10.00">+ fileExtensions()</text>
<text text-anchor="start" x="1127" y="-204.185" font-family="Monaco" font-size="10.00">+ canReadFromFile()</text>
<text text-anchor="start" x="1127" y="-190.85" font-family="Monaco" font-size="10.00">+ canReadFromString()</text>
<text text-anchor="start" x="1127" y="-177.515" font-family="Monaco" font-size="10.00">+ readValues()</text>
<text text-anchor="start" x="1127" y="-164.18" font-family="Monaco" font-size="10.00">+ readValues()</text>
</g>
<!-- Node6 -->
<g id="node6" class="node"><title>Node6</title>
<g id="a_node6"><a xlink:href="class_hydro_couple_1_1_spatial_1_1_i_geometry_argument.html" target="_top" xlink:title="An IGeometryArgument class is an IArgument class with a geometry component. ">
<polygon fill="white" stroke="black" points="0,-7.16748 0,-111.177 166.024,-111.177 166.024,-7.16748 0,-7.16748"/>
<text text-anchor="start" x="8" y="-99.1772" font-family="Monaco" font-size="10.00">HydroCouple::Spatial</text>
<text text-anchor="middle" x="83.0122" y="-85.8423" font-family="Monaco" font-size="10.00">::IGeometryArgument</text>
<polyline fill="none" stroke="black" points="0,-76.5073 166.024,-76.5073 "/>
<text text-anchor="middle" x="83.0122" y="-64.5073" font-family="Monaco" font-size="10.00"> </text>
<polyline fill="none" stroke="black" points="0,-55.1724 166.024,-55.1724 "/>
<text text-anchor="start" x="8" y="-43.1724" font-family="Monaco" font-size="10.00">+ ~IGeometryArgument()</text>
<text text-anchor="start" x="8" y="-29.8374" font-family="Monaco" font-size="10.00">+ setGeometryCollection()</text>
<text text-anchor="start" x="8" y="-16.5024" font-family="Monaco" font-size="10.00">+ geometryValueSets()</text>
</a>
</g>
</g>
<!-- Node1&#45;&gt;Node6 -->
<g id="edge5" class="edge"><title>Node1&#45;&gt;Node6</title>
<path fill="none" stroke="midnightblue" d="M1108.8,-253.482C930.793,-252.945 505.498,-238.025 175.012,-118.345 169.415,-116.318 163.803,-113.909 158.263,-111.243"/>
<polygon fill="none" stroke="midnightblue" points="1108.88,-256.982 1118.89,-253.497 1108.89,-249.982 1108.88,-256.982"/>
</g>
<!-- Node7 -->
<g id="node7" class="node"><title>Node7</title>
<g id="a_node7"><a xlink:href="class_hydro_couple_1_1_spatial_1_1_i_polyhedral_surface_argument.html" target="_top" xlink:title="An IPolyhedralSurfaceArgument class is an IArgument class with an IPolyhedralSurface component...">
<polygon fill="white" stroke="black" points="183.997,-7.16748 183.997,-111.177 386.027,-111.177 386.027,-7.16748 183.997,-7.16748"/>
<text text-anchor="start" x="191.997" y="-99.1772" font-family="Monaco" font-size="10.00">HydroCouple::Spatial</text>
<text text-anchor="middle" x="285.012" y="-85.8423" font-family="Monaco" font-size="10.00">::IPolyhedralSurfaceArgument</text>
<polyline fill="none" stroke="black" points="183.997,-76.5073 386.027,-76.5073 "/>
<text text-anchor="middle" x="285.012" y="-64.5073" font-family="Monaco" font-size="10.00"> </text>
<polyline fill="none" stroke="black" points="183.997,-55.1724 386.027,-55.1724 "/>
<text text-anchor="start" x="191.997" y="-43.1724" font-family="Monaco" font-size="10.00">+ ~IPolyhedralSurfaceArgument()</text>
<text text-anchor="start" x="191.997" y="-29.8374" font-family="Monaco" font-size="10.00">+ setPolyhedralSurface()</text>
<text text-anchor="start" x="191.997" y="-16.5024" font-family="Monaco" font-size="10.00">+ patchValueSets()</text>
</a>
</g>
</g>
<!-- Node1&#45;&gt;Node7 -->
<g id="edge6" class="edge"><title>Node1&#45;&gt;Node7</title>
<path fill="none" stroke="midnightblue" d="M1108.38,-247.189C960.271,-235.919 645.969,-203.328 395.012,-118.345 388.874,-116.266 382.663,-113.876 376.482,-111.275"/>
<polygon fill="none" stroke="midnightblue" points="1108.52,-250.71 1118.75,-247.964 1109.04,-243.729 1108.52,-250.71"/>
</g>
<!-- Node8 -->
<g id="node8" class="node"><title>Node8</title>
<g id="a_node8"><a xlink:href="class_hydro_couple_1_1_spatial_1_1_i_raster_argument.html" target="_top" xlink:title="An IRasterArgument is an IArgument with an IRaster. ">
<polygon fill="white" stroke="black" points="404.002,-7.16748 404.002,-111.177 540.022,-111.177 540.022,-7.16748 404.002,-7.16748"/>
<text text-anchor="start" x="412.002" y="-99.1772" font-family="Monaco" font-size="10.00">HydroCouple::Spatial</text>
<text text-anchor="middle" x="472.012" y="-85.8423" font-family="Monaco" font-size="10.00">::IRasterArgument</text>
<polyline fill="none" stroke="black" points="404.002,-76.5073 540.022,-76.5073 "/>
<text text-anchor="middle" x="472.012" y="-64.5073" font-family="Monaco" font-size="10.00"> </text>
<polyline fill="none" stroke="black" points="404.002,-55.1724 540.022,-55.1724 "/>
<text text-anchor="start" x="412.002" y="-43.1724" font-family="Monaco" font-size="10.00">+ ~IRasterArgument()</text>
<text text-anchor="start" x="412.002" y="-29.8374" font-family="Monaco" font-size="10.00">+ setRaster()</text>
<text text-anchor="start" x="412.002" y="-16.5024" font-family="Monaco" font-size="10.00">+ rasterValueSets()</text>
</a>
</g>
</g>
<!-- Node1&#45;&gt;Node8 -->
<g id="edge7" class="edge"><title>Node1&#45;&gt;Node8</title>
<path fill="none" stroke="midnightblue" d="M1108.75,-246.788C982.144,-235.612 737.586,-203.964 549.012,-118.345 544.436,-116.267 539.874,-113.877 535.387,-111.277"/>
<polygon fill="none" stroke="midnightblue" points="1108.51,-250.281 1118.78,-247.652 1109.11,-243.306 1108.51,-250.281"/>
</g>
<!-- Node9 -->
<g id="node9" class="node"><title>Node9</title>
<g id="a_node9"><a xlink:href="class_hydro_couple_1_1_spatial_1_1_i_regular_grid2_d_argument.html" target="_top" xlink:title="An IRegularGrid2DArgument is an IArgument with an IRegularGrid2DComponentItem. ">
<polygon fill="white" stroke="black" points="557.999,-7.16748 557.999,-111.177 736.025,-111.177 736.025,-7.16748 557.999,-7.16748"/>
<text text-anchor="start" x="565.999" y="-99.1772" font-family="Monaco" font-size="10.00">HydroCouple::Spatial</text>
<text text-anchor="middle" x="647.012" y="-85.8423" font-family="Monaco" font-size="10.00">::IRegularGrid2DArgument</text>
<polyline fill="none" stroke="black" points="557.999,-76.5073 736.025,-76.5073 "/>
<text text-anchor="middle" x="647.012" y="-64.5073" font-family="Monaco" font-size="10.00"> </text>
<polyline fill="none" stroke="black" points="557.999,-55.1724 736.025,-55.1724 "/>
<text text-anchor="start" x="565.999" y="-43.1724" font-family="Monaco" font-size="10.00">+ ~IRegularGrid2DArgument()</text>
<text text-anchor="start" x="565.999" y="-29.8374" font-family="Monaco" font-size="10.00">+ setGrid()</text>
<text text-anchor="start" x="565.999" y="-16.5024" font-family="Monaco" font-size="10.00">+ regular2DValueSets()</text>
</a>
</g>
</g>
<!-- Node1&#45;&gt;Node9 -->
<g id="edge8" class="edge"><title>Node1&#45;&gt;Node9</title>
<path fill="none" stroke="midnightblue" d="M1109.11,-233.915C1017.44,-212.1 867.328,-171.995 745.012,-118.345 740.029,-116.159 734.986,-113.772 729.953,-111.251"/>
<polygon fill="none" stroke="midnightblue" points="1108.36,-237.333 1118.9,-236.226 1109.97,-230.521 1108.36,-237.333"/>
</g>
<!-- Node10 -->
<g id="node10" class="node"><title>Node10</title>
<g id="a_node10"><a xlink:href="class_hydro_couple_1_1_spatial_1_1_i_regular_grid3_d_argument.html" target="_top" xlink:title="An IRegularGrid3DArgument is an IArgument with an IRegularGrid3DComponentItem. ">
<polygon fill="white" stroke="black" points="753.999,-7.16748 753.999,-111.177 932.025,-111.177 932.025,-7.16748 753.999,-7.16748"/>
<text text-anchor="start" x="761.999" y="-99.1772" font-family="Monaco" font-size="10.00">HydroCouple::Spatial</text>
<text text-anchor="middle" x="843.012" y="-85.8423" font-family="Monaco" font-size="10.00">::IRegularGrid3DArgument</text>
<polyline fill="none" stroke="black" points="753.999,-76.5073 932.025,-76.5073 "/>
<text text-anchor="middle" x="843.012" y="-64.5073" font-family="Monaco" font-size="10.00"> </text>
<polyline fill="none" stroke="black" points="753.999,-55.1724 932.025,-55.1724 "/>
<text text-anchor="start" x="761.999" y="-43.1724" font-family="Monaco" font-size="10.00">+ ~IRegularGrid3DArgument()</text>
<text text-anchor="start" x="761.999" y="-29.8374" font-family="Monaco" font-size="10.00">+ setGrid()</text>
<text text-anchor="start" x="761.999" y="-16.5024" font-family="Monaco" font-size="10.00">+ regular3DValueSets()</text>
</a>
</g>
</g>
<!-- Node1&#45;&gt;Node10 -->
<g id="edge9" class="edge"><title>Node1&#45;&gt;Node10</title>
<path fill="none" stroke="midnightblue" d="M1109.87,-209.493C1060.49,-183.631 996.827,-149.747 941.012,-118.345 936.96,-116.065 932.826,-113.713 928.659,-111.323"/>
<polygon fill="none" stroke="midnightblue" points="1108.44,-212.692 1118.92,-214.226 1111.68,-206.489 1108.44,-212.692"/>
</g>
<!-- Node11 -->
<g id="node11" class="node"><title>Node11</title>
<g id="a_node11"><a xlink:href="class_hydro_couple_1_1_spatial_1_1_i_t_i_n_argument.html" target="_top" xlink:title="An ITINArgument class is an IArgument class with an ITIN component. ">
<polygon fill="white" stroke="black" points="950.002,-7.16748 950.002,-111.177 1086.02,-111.177 1086.02,-7.16748 950.002,-7.16748"/>
<text text-anchor="start" x="958.002" y="-99.1772" font-family="Monaco" font-size="10.00">HydroCouple::Spatial</text>
<text text-anchor="middle" x="1018.01" y="-85.8423" font-family="Monaco" font-size="10.00">::ITINArgument</text>
<polyline fill="none" stroke="black" points="950.002,-76.5073 1086.02,-76.5073 "/>
<text text-anchor="middle" x="1018.01" y="-64.5073" font-family="Monaco" font-size="10.00"> </text>
<polyline fill="none" stroke="black" points="950.002,-55.1724 1086.02,-55.1724 "/>
<text text-anchor="start" x="958.002" y="-43.1724" font-family="Monaco" font-size="10.00">+ ~ITINArgument()</text>
<text text-anchor="start" x="958.002" y="-29.8374" font-family="Monaco" font-size="10.00">+ setTIN()</text>
<text text-anchor="start" x="958.002" y="-16.5024" font-family="Monaco" font-size="10.00">+ patchValueSets()</text>
</a>
</g>
</g>
<!-- Node1&#45;&gt;Node11 -->
<g id="edge10" class="edge"><title>Node1&#45;&gt;Node11</title>
<path fill="none" stroke="midnightblue" d="M1111.85,-163.312C1095.58,-145.429 1079.02,-127.224 1064.42,-111.186"/>
<polygon fill="none" stroke="midnightblue" points="1109.48,-165.907 1118.8,-170.948 1114.66,-161.196 1109.48,-165.907"/>
</g>
<!-- Node12 -->
<g id="node12" class="node"><title>Node12</title>
<g id="a_node12"><a xlink:href="class_hydro_couple_1_1_spatio_temporal_1_1_i_time_geometry_argument.html" target="_top" xlink:title="The ITimeGeometryArgument class. ">
<polygon fill="white" stroke="black" points="1104,-0.5 1104,-117.845 1282.03,-117.845 1282.03,-0.5 1104,-0.5"/>
<text text-anchor="start" x="1112" y="-105.845" font-family="Monaco" font-size="10.00">HydroCouple::SpatioTemporal</text>
<text text-anchor="middle" x="1193.01" y="-92.5098" font-family="Monaco" font-size="10.00">::ITimeGeometryArgument</text>
<polyline fill="none" stroke="black" points="1104,-83.1748 1282.03,-83.1748 "/>
<text text-anchor="middle" x="1193.01" y="-71.1748" font-family="Monaco" font-size="10.00"> </text>
<polyline fill="none" stroke="black" points="1104,-61.8398 1282.03,-61.8398 "/>
<text text-anchor="start" x="1112" y="-49.8398" font-family="Monaco" font-size="10.00">+ ~ITimeGeometryArgument()</text>
<text text-anchor="start" x="1112" y="-36.5049" font-family="Monaco" font-size="10.00">+ setTimes()</text>
<text text-anchor="start" x="1112" y="-23.1699" font-family="Monaco" font-size="10.00">+ setGeometryCollection()</text>
<text text-anchor="start" x="1112" y="-9.83496" font-family="Monaco" font-size="10.00">+ timeGeometryValueSets()</text>
</a>
</g>
</g>
<!-- Node1&#45;&gt;Node12 -->
<g id="edge11" class="edge"><title>Node1&#45;&gt;Node12</title>
<path fill="none" stroke="midnightblue" d="M1193.01,-144.405C1193.01,-135.363 1193.01,-126.465 1193.01,-118.035"/>
<polygon fill="none" stroke="midnightblue" points="1189.51,-144.657 1193.01,-154.657 1196.51,-144.657 1189.51,-144.657"/>
</g>
<!-- Node13 -->
<g id="node13" class="node"><title>Node13</title>
<g id="a_node13"><a xlink:href="class_hydro_couple_1_1_spatio_temporal_1_1_i_time_polyhedral_surface_argument.html" target="_top" xlink:title="The ITimePolyhedralSurfaceArgument class. ">
<polygon fill="white" stroke="black" points="1300,-0.5 1300,-117.845 1526.03,-117.845 1526.03,-0.5 1300,-0.5"/>
<text text-anchor="start" x="1308" y="-105.845" font-family="Monaco" font-size="10.00">HydroCouple::SpatioTemporal</text>
<text text-anchor="middle" x="1413.01" y="-92.5098" font-family="Monaco" font-size="10.00">::ITimePolyhedralSurfaceArgument</text>
<polyline fill="none" stroke="black" points="1300,-83.1748 1526.03,-83.1748 "/>
<text text-anchor="middle" x="1413.01" y="-71.1748" font-family="Monaco" font-size="10.00"> </text>
<polyline fill="none" stroke="black" points="1300,-61.8398 1526.03,-61.8398 "/>
<text text-anchor="start" x="1308" y="-49.8398" font-family="Monaco" font-size="10.00">+ ~ITimePolyhedralSurfaceArgument()</text>
<text text-anchor="start" x="1308" y="-36.5049" font-family="Monaco" font-size="10.00">+ setTimes()</text>
<text text-anchor="start" x="1308" y="-23.1699" font-family="Monaco" font-size="10.00">+ setPolyhedralSurface()</text>
<text text-anchor="start" x="1308" y="-9.83496" font-family="Monaco" font-size="10.00">+ timePatchValueSets()</text>
</a>
</g>
</g>
<!-- Node1&#45;&gt;Node13 -->
<g id="edge12" class="edge"><title>Node1&#45;&gt;Node13</title>
<path fill="none" stroke="midnightblue" d="M1274.83,-180.987C1298.6,-160.209 1324.24,-137.786 1346.91,-117.966"/>
<polygon fill="none" stroke="midnightblue" points="1272.41,-178.452 1267.19,-187.669 1277.02,-183.722 1272.41,-178.452"/>
</g>
<!-- Node14 -->
<g id="node14" class="node"><title>Node14</title>
<g id="a_node14"><a xlink:href="class_hydro_couple_1_1_spatio_temporal_1_1_i_time_raster_argument.html" target="_top" xlink:title="The ITimeRasterArgument class. ">
<polygon fill="white" stroke="black" points="1544,-0.5 1544,-117.845 1722.03,-117.845 1722.03,-0.5 1544,-0.5"/>
<text text-anchor="start" x="1552" y="-105.845" font-family="Monaco" font-size="10.00">HydroCouple::SpatioTemporal</text>
<text text-anchor="middle" x="1633.01" y="-92.5098" font-family="Monaco" font-size="10.00">::ITimeRasterArgument</text>
<polyline fill="none" stroke="black" points="1544,-83.1748 1722.03,-83.1748 "/>
<text text-anchor="middle" x="1633.01" y="-71.1748" font-family="Monaco" font-size="10.00"> </text>
<polyline fill="none" stroke="black" points="1544,-61.8398 1722.03,-61.8398 "/>
<text text-anchor="start" x="1552" y="-49.8398" font-family="Monaco" font-size="10.00">+ ~ITimeRasterArgument()</text>
<text text-anchor="start" x="1552" y="-36.5049" font-family="Monaco" font-size="10.00">+ setTimes()</text>
<text text-anchor="start" x="1552" y="-23.1699" font-family="Monaco" font-size="10.00">+ setRaster()</text>
<text text-anchor="start" x="1552" y="-9.83496" font-family="Monaco" font-size="10.00">+ timeRasterValueSets()</text>
</a>
</g>
</g>
<!-- Node1&#45;&gt;Node14 -->
<g id="edge13" class="edge"><title>Node1&#45;&gt;Node14</title>
<path fill="none" stroke="midnightblue" d="M1276.9,-223.91C1347.15,-198.939 1449.37,-160.222 1535.01,-118.345 1537.94,-116.911 1540.91,-115.42 1543.88,-113.885"/>
<polygon fill="none" stroke="midnightblue" points="1275.47,-220.705 1267.21,-227.341 1277.8,-227.304 1275.47,-220.705"/>
</g>
<!-- Node15 -->
<g id="node15" class="node"><title>Node15</title>
<g id="a_node15"><a xlink:href="class_hydro_couple_1_1_spatio_temporal_1_1_i_time_regular_grid2_d_argument.html" target="_top" xlink:title="The ITimeRegularGrid2DArgument class. ">
<polygon fill="white" stroke="black" points="1740,-0.5 1740,-117.845 1942.03,-117.845 1942.03,-0.5 1740,-0.5"/>
<text text-anchor="start" x="1748" y="-105.845" font-family="Monaco" font-size="10.00">HydroCouple::SpatioTemporal</text>
<text text-anchor="middle" x="1841.01" y="-92.5098" font-family="Monaco" font-size="10.00">::ITimeRegularGrid2DArgument</text>
<polyline fill="none" stroke="black" points="1740,-83.1748 1942.03,-83.1748 "/>
<text text-anchor="middle" x="1841.01" y="-71.1748" font-family="Monaco" font-size="10.00"> </text>
<polyline fill="none" stroke="black" points="1740,-61.8398 1942.03,-61.8398 "/>
<text text-anchor="start" x="1748" y="-49.8398" font-family="Monaco" font-size="10.00">+ ~ITimeRegularGrid2DArgument()</text>
<text text-anchor="start" x="1748" y="-36.5049" font-family="Monaco" font-size="10.00">+ setTimes()</text>
<text text-anchor="start" x="1748" y="-23.1699" font-family="Monaco" font-size="10.00">+ setGrid()</text>
<text text-anchor="start" x="1748" y="-9.83496" font-family="Monaco" font-size="10.00">+ timeRegular2DValueSets()</text>
</a>
</g>
</g>
<!-- Node1&#45;&gt;Node15 -->
<g id="edge14" class="edge"><title>Node1&#45;&gt;Node15</title>
<path fill="none" stroke="midnightblue" d="M1277.55,-238.011C1385.17,-218.061 1575.76,-177.747 1731.01,-118.345 1733.94,-117.225 1736.88,-116.046 1739.84,-114.817"/>
<polygon fill="none" stroke="midnightblue" points="1276.6,-234.627 1267.4,-239.878 1277.87,-241.512 1276.6,-234.627"/>
</g>
<!-- Node16 -->
<g id="node16" class="node"><title>Node16</title>
<g id="a_node16"><a xlink:href="class_hydro_couple_1_1_spatio_temporal_1_1_i_time_regular_grid3_d_argument.html" target="_top" xlink:title="The ITimeRegularGrid3DArgument class. ">
<polygon fill="white" stroke="black" points="1960,-0.5 1960,-117.845 2162.03,-117.845 2162.03,-0.5 1960,-0.5"/>
<text text-anchor="start" x="1968" y="-105.845" font-family="Monaco" font-size="10.00">HydroCouple::SpatioTemporal</text>
<text text-anchor="middle" x="2061.01" y="-92.5098" font-family="Monaco" font-size="10.00">::ITimeRegularGrid3DArgument</text>
<polyline fill="none" stroke="black" points="1960,-83.1748 2162.03,-83.1748 "/>
<text text-anchor="middle" x="2061.01" y="-71.1748" font-family="Monaco" font-size="10.00"> </text>
<polyline fill="none" stroke="black" points="1960,-61.8398 2162.03,-61.8398 "/>
<text text-anchor="start" x="1968" y="-49.8398" font-family="Monaco" font-size="10.00">+ ~ITimeRegularGrid3DArgument()</text>
<text text-anchor="start" x="1968" y="-36.5049" font-family="Monaco" font-size="10.00">+ setTimes()</text>
<text text-anchor="start" x="1968" y="-23.1699" font-family="Monaco" font-size="10.00">+ setGrid()</text>
<text text-anchor="start" x="1968" y="-9.83496" font-family="Monaco" font-size="10.00">+ timeRegular3DValueSets()</text>
</a>
</g>
</g>
<!-- Node1&#45;&gt;Node16 -->
<g id="edge15" class="edge"><title>Node1&#45;&gt;Node16</title>
<path fill="none" stroke="midnightblue" d="M1276.99,-246.228C1419.1,-233.704 1714.64,-199.528 1951.01,-118.345 1953.97,-117.327 1956.95,-116.238 1959.94,-115.089"/>
<polygon fill="none" stroke="midnightblue" points="1276.68,-242.741 1267.02,-247.093 1277.29,-249.715 1276.68,-242.741"/>
</g>
<!-- Node17 -->
<g id="node17" class="node"><title>Node17</title>
<g id="a_node17"><a xlink:href="class_hydro_couple_1_1_spatio_temporal_1_1_i_time_t_i_n_argument.html" target="_top" xlink:title="The ITimeTINArgument class. ">
<polygon fill="white" stroke="black" points="2180,-0.5 2180,-117.845 2358.03,-117.845 2358.03,-0.5 2180,-0.5"/>
<text text-anchor="start" x="2188" y="-105.845" font-family="Monaco" font-size="10.00">HydroCouple::SpatioTemporal</text>
<text text-anchor="middle" x="2269.01" y="-92.5098" font-family="Monaco" font-size="10.00">::ITimeTINArgument</text>
<polyline fill="none" stroke="black" points="2180,-83.1748 2358.03,-83.1748 "/>
<text text-anchor="middle" x="2269.01" y="-71.1748" font-family="Monaco" font-size="10.00"> </text>
<polyline fill="none" stroke="black" points="2180,-61.8398 2358.03,-61.8398 "/>
<text text-anchor="start" x="2188" y="-49.8398" font-family="Monaco" font-size="10.00">+ ~ITimeTINArgument()</text>
<text text-anchor="start" x="2188" y="-36.5049" font-family="Monaco" font-size="10.00">+ setTimes()</text>
<text text-anchor="start" x="2188" y="-23.1699" font-family="Monaco" font-size="10.00">+ setTIN()</text>
<text text-anchor="start" x="2188" y="-9.83496" font-family="Monaco" font-size="10.00">+ timeTINValueSets()</text>
</a>
</g>
</g>
<!-- Node1&#45;&gt;Node17 -->
<g id="edge16" class="edge"><title>Node1&#45;&gt;Node17</title>
<path fill="none" stroke="midnightblue" d="M1277.14,-252.11C1449.7,-248.885 1854.13,-229.019 2171.01,-118.345 2174,-117.301 2177,-116.16 2179.99,-114.939"/>
<polygon fill="none" stroke="midnightblue" points="1277.04,-248.612 1267.1,-252.284 1277.16,-255.61 1277.04,-248.612"/>
</g>
<!-- Node18 -->
<g id="node18" class="node"><title>Node18</title>
<g id="a_node18"><a xlink:href="class_hydro_couple_1_1_temporal_1_1_i_time_argument.html" target="_top" xlink:title="The ITimeArgument class. ">
<polygon fill="white" stroke="black" points="2376,-7.16748 2376,-111.177 2518.02,-111.177 2518.02,-7.16748 2376,-7.16748"/>
<text text-anchor="start" x="2384" y="-99.1772" font-family="Monaco" font-size="10.00">HydroCouple::Temporal</text>
<text text-anchor="middle" x="2447.01" y="-85.8423" font-family="Monaco" font-size="10.00">::ITimeArgument</text>
<polyline fill="none" stroke="black" points="2376,-76.5073 2518.02,-76.5073 "/>
<text text-anchor="middle" x="2447.01" y="-64.5073" font-family="Monaco" font-size="10.00"> </text>
<polyline fill="none" stroke="black" points="2376,-55.1724 2518.02,-55.1724 "/>
<text text-anchor="start" x="2384" y="-43.1724" font-family="Monaco" font-size="10.00">+ ~ITimeArgument()</text>
<text text-anchor="start" x="2384" y="-29.8374" font-family="Monaco" font-size="10.00">+ setTimes()</text>
<text text-anchor="start" x="2384" y="-16.5024" font-family="Monaco" font-size="10.00">+ timeValueSets()</text>
</a>
</g>
</g>
<!-- Node1&#45;&gt;Node18 -->
<g id="edge17" class="edge"><title>Node1&#45;&gt;Node18</title>
<path fill="none" stroke="midnightblue" d="M1277.35,-248.461C1511.83,-236.293 2167.34,-196.079 2367.01,-118.345 2372.13,-116.351 2377.22,-113.947 2382.21,-111.266"/>
<polygon fill="none" stroke="midnightblue" points="1276.98,-244.975 1267.18,-248.985 1277.34,-251.966 1276.98,-244.975"/>
</g>
<!-- Node2 -->
<g id="node2" class="node"><title>Node2</title>
<g id="a_node2"><a xlink:href="class_hydro_couple_1_1_i_component_item.html" target="_top" xlink:title="IComponentItem is a fundamental unit of data for a component. ">
<polygon fill="white" stroke="black" points="1104,-389.199 1104,-493.209 1282.03,-493.209 1282.03,-389.199 1104,-389.199"/>
<text text-anchor="middle" x="1193.01" y="-481.209" font-family="Monaco" font-size="10.00">HydroCouple::IComponentItem</text>
<polyline fill="none" stroke="black" points="1104,-471.874 1282.03,-471.874 "/>
<text text-anchor="middle" x="1193.01" y="-459.874" font-family="Monaco" font-size="10.00"> </text>
<polyline fill="none" stroke="black" points="1104,-450.539 1282.03,-450.539 "/>
<text text-anchor="start" x="1112" y="-438.539" font-family="Monaco" font-size="10.00">+ ~IComponentItem()</text>
<text text-anchor="start" x="1112" y="-425.204" font-family="Monaco" font-size="10.00">+ modelComponent()</text>
<text text-anchor="start" x="1112" y="-411.869" font-family="Monaco" font-size="10.00">+ modelComponentId()</text>
<text text-anchor="start" x="1112" y="-398.534" font-family="Monaco" font-size="10.00">+ dimensions()</text>
</a>
</g>
</g>
<!-- Node2&#45;&gt;Node1 -->
<g id="edge1" class="edge"><title>Node2&#45;&gt;Node1</title>
<path fill="none" stroke="midnightblue" d="M1193.01,-378.768C1193.01,-370.218 1193.01,-361.266 1193.01,-352.252"/>
<polygon fill="none" stroke="midnightblue" points="1189.51,-378.974 1193.01,-388.974 1196.51,-378.974 1189.51,-378.974"/>
</g>
<!-- Node3 -->
<g id="node3" class="node"><title>Node3</title>
<g id="a_node3"><a xlink:href="class_hydro_couple_1_1_i_identity.html" target="_top" xlink:title="IIdentity interface class defines a method to get the Id of an HydroCouple entity. ">
<polygon fill="white" stroke="black" points="1119,-530.209 1119,-634.219 1267.02,-634.219 1267.02,-530.209 1119,-530.209"/>
<text text-anchor="middle" x="1193.01" y="-622.219" font-family="Monaco" font-size="10.00">HydroCouple::IIdentity</text>
<polyline fill="none" stroke="black" points="1119,-612.884 1267.02,-612.884 "/>
<text text-anchor="middle" x="1193.01" y="-600.884" font-family="Monaco" font-size="10.00"> </text>
<polyline fill="none" stroke="black" points="1119,-591.549 1267.02,-591.549 "/>
<text text-anchor="start" x="1127" y="-579.549" font-family="Monaco" font-size="10.00">+ ~IIdentity()</text>
<text text-anchor="start" x="1127" y="-566.214" font-family="Monaco" font-size="10.00">+ MPI_Comm()</text>
<text text-anchor="start" x="1127" y="-552.879" font-family="Monaco" font-size="10.00">+ MPI_Rank()</text>
<text text-anchor="start" x="1127" y="-539.544" font-family="Monaco" font-size="10.00">+ id()</text>
</a>
</g>
</g>
<!-- Node3&#45;&gt;Node2 -->
<g id="edge2" class="edge"><title>Node3&#45;&gt;Node2</title>
<path fill="none" stroke="midnightblue" d="M1193.01,-519.65C1193.01,-510.868 1193.01,-501.914 1193.01,-493.36"/>
<polygon fill="none" stroke="midnightblue" points="1189.51,-519.847 1193.01,-529.847 1196.51,-519.847 1189.51,-519.847"/>
</g>
<!-- Node4 -->
<g id="node4" class="node"><title>Node4</title>
<g id="a_node4"><a xlink:href="class_hydro_couple_1_1_i_description.html" target="_top" xlink:title="IDescription interface class provides descriptive information on a HydroCouple object. ">
<polygon fill="white" stroke="black" points="1110,-671.219 1110,-788.563 1276.02,-788.563 1276.02,-671.219 1110,-671.219"/>
<text text-anchor="middle" x="1193.01" y="-776.563" font-family="Monaco" font-size="10.00">HydroCouple::IDescription</text>
<polyline fill="none" stroke="black" points="1110,-767.229 1276.02,-767.229 "/>
<text text-anchor="middle" x="1193.01" y="-755.229" font-family="Monaco" font-size="10.00"> </text>
<polyline fill="none" stroke="black" points="1110,-745.894 1276.02,-745.894 "/>
<text text-anchor="start" x="1118" y="-733.894" font-family="Monaco" font-size="10.00">+ ~IDescription()</text>
<text text-anchor="start" x="1118" y="-720.559" font-family="Monaco" font-size="10.00">+ getCaption()</text>
<text text-anchor="start" x="1118" y="-707.224" font-family="Monaco" font-size="10.00">+ setCaption()</text>
<text text-anchor="start" x="1118" y="-693.889" font-family="Monaco" font-size="10.00">+ getDescription()</text>
<text text-anchor="start" x="1118" y="-680.554" font-family="Monaco" font-size="10.00">+ setDescription()</text>
</a>
</g>
</g>
<!-- Node4&#45;&gt;Node3 -->
<g id="edge3" class="edge"><title>Node4&#45;&gt;Node3</title>
<path fill="none" stroke="midnightblue" d="M1193.01,-660.618C1193.01,-651.799 1193.01,-642.892 1193.01,-634.414"/>
<polygon fill="none" stroke="midnightblue" points="1189.51,-660.897 1193.01,-670.897 1196.51,-660.897 1189.51,-660.897"/>
</g>
<!-- Node5 -->
<g id="node5" class="node"><title>Node5</title>
<g id="a_node5"><a xlink:href="class_hydro_couple_1_1_i_property_changed.html" target="_top" xlink:title="IPropertyChanged interface is used to emit signal/event when a property of an object changes...">
<polygon fill="white" stroke="black" points="1098,-825.563 1098,-889.568 1288.03,-889.568 1288.03,-825.563 1098,-825.563"/>
<text text-anchor="middle" x="1193.01" y="-877.568" font-family="Monaco" font-size="10.00">HydroCouple::IPropertyChanged</text>
<polyline fill="none" stroke="black" points="1098,-868.233 1288.03,-868.233 "/>
<text text-anchor="middle" x="1193.01" y="-856.233" font-family="Monaco" font-size="10.00"> </text>
<polyline fill="none" stroke="black" points="1098,-846.898 1288.03,-846.898 "/>
<text text-anchor="start" x="1106" y="-834.898" font-family="Monaco" font-size="10.00">+ ~IPropertyChanged()</text>
</a>
</g>
</g>
<!-- Node5&#45;&gt;Node4 -->
<g id="edge4" class="edge"><title>Node5&#45;&gt;Node4</title>
<path fill="none" stroke="midnightblue" d="M1193.01,-815.243C1193.01,-806.858 1193.01,-797.892 1193.01,-789.049"/>
<polygon fill="none" stroke="midnightblue" points="1189.51,-815.5 1193.01,-825.5 1196.51,-815.5 1189.51,-815.5"/>
</g>
</g>
</svg>
