<?xml version="1.0" encoding="UTF-8" standalone="no"?>
<!DOCTYPE svg PUBLIC "-//W3C//DTD SVG 1.1//EN"
 "http://www.w3.org/Graphics/SVG/1.1/DTD/svg11.dtd">
<!-- Generated by graphviz version 2.38.0 (20140413.2041)
 -->
<!-- Title: HydroCouple::Spatial::I3DRegularGridComponentItem Pages: 1 -->
<svg width="560pt" height="910pt"
 viewBox="0.00 0.00 559.73 910.00" xmlns="http://www.w3.org/2000/svg" xmlns:xlink="http://www.w3.org/1999/xlink">
<g id="graph0" class="graph" transform="scale(1 1) rotate(0) translate(4 906)">
<title>HydroCouple::Spatial::I3DRegularGridComponentItem</title>
<polygon fill="white" stroke="none" points="-4,4 -4,-906 555.731,-906 555.731,4 -4,4"/>
<!-- Node1 -->
<g id="node1" class="node"><title>Node1</title>
<polygon fill="#bfbfbf" stroke="black" points="179.104,-222.5 179.104,-316.5 356.842,-316.5 356.842,-222.5 179.104,-222.5"/>
<text text-anchor="start" x="187.104" y="-304.5" font-family="Helvetica,sans-Serif" font-size="10.00">HydroCouple::Spatial</text>
<text text-anchor="middle" x="267.973" y="-294.5" font-family="Helvetica,sans-Serif" font-size="10.00">::I3DRegularGridComponentItem</text>
<polyline fill="none" stroke="black" points="179.104,-288.5 356.842,-288.5 "/>
<text text-anchor="middle" x="267.973" y="-276.5" font-family="Helvetica,sans-Serif" font-size="10.00"> </text>
<polyline fill="none" stroke="black" points="179.104,-270.5 356.842,-270.5 "/>
<text text-anchor="start" x="187.104" y="-258.5" font-family="Helvetica,sans-Serif" font-size="10.00">+ ~I2DRegularGridComponentItem()</text>
<text text-anchor="start" x="187.104" y="-248.5" font-family="Helvetica,sans-Serif" font-size="10.00">+ numZNodesDimension()</text>
<text text-anchor="start" x="187.104" y="-238.5" font-family="Helvetica,sans-Serif" font-size="10.00">+ numZCellsDimension()</text>
<text text-anchor="start" x="187.104" y="-228.5" font-family="Helvetica,sans-Serif" font-size="10.00">+ grid()</text>
</g>
<!-- Node7 -->
<g id="node7" class="node"><title>Node7</title>
<g id="a_node7"><a xlink:href="class_hydro_couple_1_1_spatial_1_1_i3_d_regular_grid_argument.html" target="_top" xlink:title="An I3DRegularGridArgument is an IArgument with an I3DRegularGridComponentItem. ">
<polygon fill="white" stroke="black" points="0,-111.5 0,-185.5 149.945,-185.5 149.945,-111.5 0,-111.5"/>
<text text-anchor="start" x="8" y="-173.5" font-family="Helvetica,sans-Serif" font-size="10.00">HydroCouple::Spatial</text>
<text text-anchor="middle" x="74.9727" y="-163.5" font-family="Helvetica,sans-Serif" font-size="10.00">::I3DRegularGridArgument</text>
<polyline fill="none" stroke="black" points="0,-157.5 149.945,-157.5 "/>
<text text-anchor="middle" x="74.9727" y="-145.5" font-family="Helvetica,sans-Serif" font-size="10.00"> </text>
<polyline fill="none" stroke="black" points="0,-139.5 149.945,-139.5 "/>
<text text-anchor="start" x="8" y="-127.5" font-family="Helvetica,sans-Serif" font-size="10.00">+ ~I3DRegularGridArgument()</text>
<text text-anchor="start" x="8" y="-117.5" font-family="Helvetica,sans-Serif" font-size="10.00">+ setGrid()</text>
</a>
</g>
</g>
<!-- Node1&#45;&gt;Node7 -->
<g id="edge6" class="edge"><title>Node1&#45;&gt;Node7</title>
<path fill="none" stroke="midnightblue" d="M184.446,-216.999C167.293,-206.423 149.583,-195.503 133.537,-185.61"/>
<polygon fill="none" stroke="midnightblue" points="183.005,-220.222 193.354,-222.491 186.679,-214.264 183.005,-220.222"/>
</g>
<!-- Node9 -->
<g id="node9" class="node"><title>Node9</title>
<g id="a_node9"><a xlink:href="class_hydro_couple_1_1_spatial_1_1_i3_d_regular_grid_exhange_item.html" target="_top" xlink:title="An I3DRegularGridExhangeItem is an IExchangeItem with an I3DRegularGridComponentItem. ">
<polygon fill="white" stroke="black" points="386.214,-116.5 386.214,-180.5 551.731,-180.5 551.731,-116.5 386.214,-116.5"/>
<text text-anchor="start" x="394.214" y="-168.5" font-family="Helvetica,sans-Serif" font-size="10.00">HydroCouple::Spatial</text>
<text text-anchor="middle" x="468.973" y="-158.5" font-family="Helvetica,sans-Serif" font-size="10.00">::I3DRegularGridExhangeItem</text>
<polyline fill="none" stroke="black" points="386.214,-152.5 551.731,-152.5 "/>
<text text-anchor="middle" x="468.973" y="-140.5" font-family="Helvetica,sans-Serif" font-size="10.00"> </text>
<polyline fill="none" stroke="black" points="386.214,-134.5 551.731,-134.5 "/>
<text text-anchor="start" x="394.214" y="-122.5" font-family="Helvetica,sans-Serif" font-size="10.00">+ ~I3DRegularGridExhangeItem()</text>
</a>
</g>
</g>
<!-- Node1&#45;&gt;Node9 -->
<g id="edge8" class="edge"><title>Node1&#45;&gt;Node9</title>
<path fill="none" stroke="midnightblue" d="M354.341,-217.367C375.425,-204.884 397.355,-191.9 416.32,-180.672"/>
<polygon fill="none" stroke="midnightblue" points="352.506,-214.385 345.685,-222.491 356.073,-220.409 352.506,-214.385"/>
</g>
<!-- Node11 -->
<g id="node11" class="node"><title>Node11</title>
<g id="a_node11"><a xlink:href="class_hydro_couple_1_1_spatio_temporal_1_1_i_time3_d_regular_grid_component_item.html" target="_top" xlink:title="The ITime3DRegularGridComponentItem class. ">
<polygon fill="white" stroke="black" points="168.176,-116.5 168.176,-180.5 367.77,-180.5 367.77,-116.5 168.176,-116.5"/>
<text text-anchor="start" x="176.176" y="-168.5" font-family="Helvetica,sans-Serif" font-size="10.00">HydroCouple::SpatioTemporal</text>
<text text-anchor="middle" x="267.973" y="-158.5" font-family="Helvetica,sans-Serif" font-size="10.00">::ITime3DRegularGridComponentItem</text>
<polyline fill="none" stroke="black" points="168.176,-152.5 367.77,-152.5 "/>
<text text-anchor="middle" x="267.973" y="-140.5" font-family="Helvetica,sans-Serif" font-size="10.00"> </text>
<polyline fill="none" stroke="black" points="168.176,-134.5 367.77,-134.5 "/>
<text text-anchor="start" x="176.176" y="-122.5" font-family="Helvetica,sans-Serif" font-size="10.00">+ ~ITime3DRegularGridComponentItem()</text>
</a>
</g>
</g>
<!-- Node1&#45;&gt;Node11 -->
<g id="edge11" class="edge"><title>Node1&#45;&gt;Node11</title>
<path fill="none" stroke="midnightblue" d="M267.973,-212.184C267.973,-201.34 267.973,-190.353 267.973,-180.672"/>
<polygon fill="none" stroke="midnightblue" points="264.473,-212.491 267.973,-222.491 271.473,-212.492 264.473,-212.491"/>
</g>
<!-- Node2 -->
<g id="node2" class="node"><title>Node2</title>
<g id="a_node2"><a xlink:href="class_hydro_couple_1_1_spatial_1_1_i2_d_regular_grid_component_item.html" target="_top" xlink:title="An I2DRegularGridComponentItem represents an I2DRegularGrid IComponentItem. ">
<polygon fill="white" stroke="black" points="179.104,-353.5 179.104,-467.5 356.842,-467.5 356.842,-353.5 179.104,-353.5"/>
<text text-anchor="start" x="187.104" y="-455.5" font-family="Helvetica,sans-Serif" font-size="10.00">HydroCouple::Spatial</text>
<text text-anchor="middle" x="267.973" y="-445.5" font-family="Helvetica,sans-Serif" font-size="10.00">::I2DRegularGridComponentItem</text>
<polyline fill="none" stroke="black" points="179.104,-439.5 356.842,-439.5 "/>
<text text-anchor="middle" x="267.973" y="-427.5" font-family="Helvetica,sans-Serif" font-size="10.00"> </text>
<polyline fill="none" stroke="black" points="179.104,-421.5 356.842,-421.5 "/>
<text text-anchor="start" x="187.104" y="-409.5" font-family="Helvetica,sans-Serif" font-size="10.00">+ ~I2DRegularGridComponentItem()</text>
<text text-anchor="start" x="187.104" y="-399.5" font-family="Helvetica,sans-Serif" font-size="10.00">+ numXNodesDimension()</text>
<text text-anchor="start" x="187.104" y="-389.5" font-family="Helvetica,sans-Serif" font-size="10.00">+ numYNodesDimension()</text>
<text text-anchor="start" x="187.104" y="-379.5" font-family="Helvetica,sans-Serif" font-size="10.00">+ numXCellsDimension()</text>
<text text-anchor="start" x="187.104" y="-369.5" font-family="Helvetica,sans-Serif" font-size="10.00">+ numYCellsDimension()</text>
<text text-anchor="start" x="187.104" y="-359.5" font-family="Helvetica,sans-Serif" font-size="10.00">+ grid()</text>
</a>
</g>
</g>
<!-- Node2&#45;&gt;Node1 -->
<g id="edge1" class="edge"><title>Node2&#45;&gt;Node1</title>
<path fill="none" stroke="midnightblue" d="M267.973,-343.255C267.973,-334.246 267.973,-325.163 267.973,-316.615"/>
<polygon fill="none" stroke="midnightblue" points="264.473,-343.364 267.973,-353.364 271.473,-343.364 264.473,-343.364"/>
</g>
<!-- Node3 -->
<g id="node3" class="node"><title>Node3</title>
<g id="a_node3"><a xlink:href="class_hydro_couple_1_1_i_component_item.html" target="_top" xlink:title="IComponentItem is a fundamental unit of data for a component. ">
<polygon fill="white" stroke="black" points="191.049,-504.5 191.049,-578.5 344.896,-578.5 344.896,-504.5 191.049,-504.5"/>
<text text-anchor="middle" x="267.973" y="-566.5" font-family="Helvetica,sans-Serif" font-size="10.00">HydroCouple::IComponentItem</text>
<polyline fill="none" stroke="black" points="191.049,-560.5 344.896,-560.5 "/>
<text text-anchor="middle" x="267.973" y="-548.5" font-family="Helvetica,sans-Serif" font-size="10.00"> </text>
<polyline fill="none" stroke="black" points="191.049,-542.5 344.896,-542.5 "/>
<text text-anchor="start" x="199.049" y="-530.5" font-family="Helvetica,sans-Serif" font-size="10.00">+ ~IComponentItem()</text>
<text text-anchor="start" x="199.049" y="-520.5" font-family="Helvetica,sans-Serif" font-size="10.00">+ modelComponent()</text>
<text text-anchor="start" x="199.049" y="-510.5" font-family="Helvetica,sans-Serif" font-size="10.00">+ dimensions()</text>
</a>
</g>
</g>
<!-- Node3&#45;&gt;Node2 -->
<g id="edge2" class="edge"><title>Node3&#45;&gt;Node2</title>
<path fill="none" stroke="midnightblue" d="M267.973,-494.082C267.973,-485.545 267.973,-476.548 267.973,-467.759"/>
<polygon fill="none" stroke="midnightblue" points="264.473,-494.223 267.973,-504.223 271.473,-494.223 264.473,-494.223"/>
</g>
<!-- Node4 -->
<g id="node4" class="node"><title>Node4</title>
<g id="a_node4"><a xlink:href="class_hydro_couple_1_1_i_identity.html" target="_top" xlink:title="IIdentity interface class defines a method to get the Id of an HydroCouple entity. ">
<polygon fill="white" stroke="black" points="210.502,-615.5 210.502,-679.5 325.443,-679.5 325.443,-615.5 210.502,-615.5"/>
<text text-anchor="middle" x="267.973" y="-667.5" font-family="Helvetica,sans-Serif" font-size="10.00">HydroCouple::IIdentity</text>
<polyline fill="none" stroke="black" points="210.502,-661.5 325.443,-661.5 "/>
<text text-anchor="middle" x="267.973" y="-649.5" font-family="Helvetica,sans-Serif" font-size="10.00"> </text>
<polyline fill="none" stroke="black" points="210.502,-643.5 325.443,-643.5 "/>
<text text-anchor="start" x="218.502" y="-631.5" font-family="Helvetica,sans-Serif" font-size="10.00">+ ~IIdentity()</text>
<text text-anchor="start" x="218.502" y="-621.5" font-family="Helvetica,sans-Serif" font-size="10.00">+ id()</text>
</a>
</g>
</g>
<!-- Node4&#45;&gt;Node3 -->
<g id="edge3" class="edge"><title>Node4&#45;&gt;Node3</title>
<path fill="none" stroke="midnightblue" d="M267.973,-605.282C267.973,-596.531 267.973,-587.353 267.973,-578.801"/>
<polygon fill="none" stroke="midnightblue" points="264.473,-605.297 267.973,-615.297 271.473,-605.297 264.473,-605.297"/>
</g>
<!-- Node5 -->
<g id="node5" class="node"><title>Node5</title>
<g id="a_node5"><a xlink:href="class_hydro_couple_1_1_i_description.html" target="_top" xlink:title="IDescription interface class provides descriptive information on a HydroCouple object. ">
<polygon fill="white" stroke="black" points="201.613,-716.5 201.613,-810.5 334.332,-810.5 334.332,-716.5 201.613,-716.5"/>
<text text-anchor="middle" x="267.973" y="-798.5" font-family="Helvetica,sans-Serif" font-size="10.00">HydroCouple::IDescription</text>
<polyline fill="none" stroke="black" points="201.613,-792.5 334.332,-792.5 "/>
<text text-anchor="middle" x="267.973" y="-780.5" font-family="Helvetica,sans-Serif" font-size="10.00"> </text>
<polyline fill="none" stroke="black" points="201.613,-774.5 334.332,-774.5 "/>
<text text-anchor="start" x="209.613" y="-762.5" font-family="Helvetica,sans-Serif" font-size="10.00">+ ~IDescription()</text>
<text text-anchor="start" x="209.613" y="-752.5" font-family="Helvetica,sans-Serif" font-size="10.00">+ getCaption()</text>
<text text-anchor="start" x="209.613" y="-742.5" font-family="Helvetica,sans-Serif" font-size="10.00">+ setCaption()</text>
<text text-anchor="start" x="209.613" y="-732.5" font-family="Helvetica,sans-Serif" font-size="10.00">+ getDescription()</text>
<text text-anchor="start" x="209.613" y="-722.5" font-family="Helvetica,sans-Serif" font-size="10.00">+ setDescription()</text>
</a>
</g>
</g>
<!-- Node5&#45;&gt;Node4 -->
<g id="edge4" class="edge"><title>Node5&#45;&gt;Node4</title>
<path fill="none" stroke="midnightblue" d="M267.973,-706.212C267.973,-697.081 267.973,-687.926 267.973,-679.684"/>
<polygon fill="none" stroke="midnightblue" points="264.473,-706.46 267.973,-716.46 271.473,-706.46 264.473,-706.46"/>
</g>
<!-- Node6 -->
<g id="node6" class="node"><title>Node6</title>
<g id="a_node6"><a xlink:href="class_hydro_couple_1_1_i_property_changed.html" target="_top" xlink:title="IPropertyChanged interface is used to emit signal/event when a property of an object changes...">
<polygon fill="white" stroke="black" points="187.431,-847.5 187.431,-901.5 348.514,-901.5 348.514,-847.5 187.431,-847.5"/>
<text text-anchor="middle" x="267.973" y="-889.5" font-family="Helvetica,sans-Serif" font-size="10.00">HydroCouple::IPropertyChanged</text>
<polyline fill="none" stroke="black" points="187.431,-883.5 348.514,-883.5 "/>
<text text-anchor="middle" x="267.973" y="-871.5" font-family="Helvetica,sans-Serif" font-size="10.00"> </text>
<polyline fill="none" stroke="black" points="187.431,-865.5 348.514,-865.5 "/>
<text text-anchor="start" x="195.431" y="-853.5" font-family="Helvetica,sans-Serif" font-size="10.00">+ ~IPropertyChanged()</text>
</a>
</g>
</g>
<!-- Node6&#45;&gt;Node5 -->
<g id="edge5" class="edge"><title>Node6&#45;&gt;Node5</title>
<path fill="none" stroke="midnightblue" d="M267.973,-837.141C267.973,-828.716 267.973,-819.639 267.973,-810.851"/>
<polygon fill="none" stroke="midnightblue" points="264.473,-837.392 267.973,-847.392 271.473,-837.392 264.473,-837.392"/>
</g>
<!-- Node8 -->
<g id="node8" class="node"><title>Node8</title>
<g id="a_node8"><a xlink:href="class_hydro_couple_1_1_spatio_temporal_1_1_i_time3_d_regular_grid_argument.html" target="_top" xlink:title="The ITime3DRegularGridArgument class. ">
<polygon fill="white" stroke="black" points="85.0723,-5.5 85.0723,-69.5 256.873,-69.5 256.873,-5.5 85.0723,-5.5"/>
<text text-anchor="start" x="93.0723" y="-57.5" font-family="Helvetica,sans-Serif" font-size="10.00">HydroCouple::SpatioTemporal</text>
<text text-anchor="middle" x="170.973" y="-47.5" font-family="Helvetica,sans-Serif" font-size="10.00">::ITime3DRegularGridArgument</text>
<polyline fill="none" stroke="black" points="85.0723,-41.5 256.873,-41.5 "/>
<text text-anchor="middle" x="170.973" y="-29.5" font-family="Helvetica,sans-Serif" font-size="10.00"> </text>
<polyline fill="none" stroke="black" points="85.0723,-23.5 256.873,-23.5 "/>
<text text-anchor="start" x="93.0723" y="-11.5" font-family="Helvetica,sans-Serif" font-size="10.00">+ ~ITime3DRegularGridArgument()</text>
</a>
</g>
</g>
<!-- Node7&#45;&gt;Node8 -->
<g id="edge7" class="edge"><title>Node7&#45;&gt;Node8</title>
<path fill="none" stroke="midnightblue" d="M113.762,-103.458C123.777,-92.0869 134.348,-80.0842 143.642,-69.5322"/>
<polygon fill="none" stroke="midnightblue" points="110.922,-101.387 106.939,-111.205 116.175,-106.013 110.922,-101.387"/>
</g>
<!-- Node10 -->
<g id="node10" class="node"><title>Node10</title>
<g id="a_node10"><a xlink:href="class_hydro_couple_1_1_spatio_temporal_1_1_i_time3_d_regular_grid_exchange_item.html" target="_top" xlink:title="The ITime3DRegularGridExchangeItem class. ">
<polygon fill="white" stroke="black" points="323.787,-0.5 323.787,-74.5 516.159,-74.5 516.159,-0.5 323.787,-0.5"/>
<text text-anchor="start" x="331.787" y="-62.5" font-family="Helvetica,sans-Serif" font-size="10.00">HydroCouple::SpatioTemporal</text>
<text text-anchor="middle" x="419.973" y="-52.5" font-family="Helvetica,sans-Serif" font-size="10.00">::ITime3DRegularGridExchangeItem</text>
<polyline fill="none" stroke="black" points="323.787,-46.5 516.159,-46.5 "/>
<text text-anchor="middle" x="419.973" y="-34.5" font-family="Helvetica,sans-Serif" font-size="10.00"> </text>
<polyline fill="none" stroke="black" points="323.787,-28.5 516.159,-28.5 "/>
<text text-anchor="start" x="331.787" y="-16.5" font-family="Helvetica,sans-Serif" font-size="10.00">+ ~ITime3RegularGridExchangeItem()</text>
<text text-anchor="start" x="331.787" y="-6.5" font-family="Helvetica,sans-Serif" font-size="10.00">+ ~ITime3DRegularGridExchangeItem()</text>
</a>
</g>
</g>
<!-- Node9&#45;&gt;Node10 -->
<g id="edge9" class="edge"><title>Node9&#45;&gt;Node10</title>
<path fill="none" stroke="midnightblue" d="M444.299,-107.169C439.204,-96.5407 434.126,-85.1402 429.864,-74.7422"/>
<polygon fill="none" stroke="midnightblue" points="441.215,-108.828 448.761,-116.265 447.499,-105.745 441.215,-108.828"/>
</g>
<!-- Node9&#45;&gt;Node10 -->
<g id="edge10" class="edge"><title>Node9&#45;&gt;Node10</title>
<path fill="none" stroke="midnightblue" d="M457.25,-106.846C452.82,-96.3105 447.701,-85.0351 442.666,-74.7422"/>
<polygon fill="none" stroke="midnightblue" points="454.077,-108.334 461.102,-116.265 460.556,-105.684 454.077,-108.334"/>
</g>
<!-- Node11&#45;&gt;Node8 -->
<g id="edge12" class="edge"><title>Node11&#45;&gt;Node8</title>
<path fill="none" stroke="midnightblue" d="M233.288,-108.524C221.957,-95.7921 209.529,-81.8264 198.773,-69.7396"/>
<polygon fill="none" stroke="midnightblue" points="230.914,-111.121 240.176,-116.265 236.143,-106.468 230.914,-111.121"/>
</g>
<!-- Node11&#45;&gt;Node10 -->
<g id="edge13" class="edge"><title>Node11&#45;&gt;Node10</title>
<path fill="none" stroke="midnightblue" d="M313.795,-110.016C329.388,-98.5335 346.981,-85.931 363.312,-74.5465"/>
<polygon fill="none" stroke="midnightblue" points="311.311,-107.5 305.359,-116.265 315.478,-113.125 311.311,-107.5"/>
</g>
<!-- Node11&#45;&gt;Node10 -->
<g id="edge14" class="edge"><title>Node11&#45;&gt;Node10</title>
<path fill="none" stroke="midnightblue" d="M326.237,-110.335C342.799,-98.767 360.537,-86.0364 376.1,-74.5465"/>
<polygon fill="none" stroke="midnightblue" points="323.916,-107.685 317.7,-116.265 327.91,-113.434 323.916,-107.685"/>
</g>
</g>
</svg>
