<?xml version="1.0" encoding="UTF-8" standalone="no"?>
<!DOCTYPE svg PUBLIC "-//W3C//DTD SVG 1.1//EN"
 "http://www.w3.org/Graphics/SVG/1.1/DTD/svg11.dtd">
<!-- Generated by graphviz version 2.38.0 (20140413.2041)
 -->
<!-- Title: HydroCouple::Spatial::IRegularGrid2DExhangeItem Pages: 1 -->
<!--zoomable 959 -->
<svg id="main" version="1.1" xmlns="http://www.w3.org/2000/svg" xmlns:xlink="http://www.w3.org/1999/xlink" xml:space="preserve" onload="init(evt)">
<style type="text/css"><![CDATA[
.edge:hover path { stroke: red; }
.edge:hover polygon { stroke: red; fill: red; }
]]></style>
<script type="text/javascript"><![CDATA[
var edges = document.getElementsByTagName('g');
if (edges && edges.length) {
  for (var i=0;i<edges.length;i++) {
    if (edges[i].id.substr(0,4)=='edge') {
      edges[i].setAttribute('class','edge');
    }
  }
}
]]></script>
        <defs>
                <circle id="rim" cx="0" cy="0" r="7"/>
                <circle id="rim2" cx="0" cy="0" r="3.5"/>
                <g id="zoomPlus">
                        <use xlink:href="#rim" fill="#404040">
                                <set attributeName="fill" to="#808080" begin="zoomplus.mouseover" end="zoomplus.mouseout"/>
                        </use>
                        <path d="M-4,0h8M0,-4v8" fill="none" stroke="white" stroke-width="1.5" pointer-events="none"/>
                </g>
                <g id="zoomMin">
                        <use xlink:href="#rim" fill="#404040">
                                <set attributeName="fill" to="#808080" begin="zoomminus.mouseover" end="zoomminus.mouseout"/>
                        </use>
                        <path d="M-4,0h8" fill="none" stroke="white" stroke-width="1.5" pointer-events="none"/>
                </g>
                <g id="dirArrow">
                        <path fill="none" stroke="white" stroke-width="1.5" d="M0,-3.0v7 M-2.5,-0.5L0,-3.0L2.5,-0.5"/>
                </g>
               <g id="resetDef">
                       <use xlink:href="#rim2" fill="#404040">
                               <set attributeName="fill" to="#808080" begin="reset.mouseover" end="reset.mouseout"/>
                       </use>
               </g>
        </defs>

<script type="text/javascript">
var viewWidth = 472;
var viewHeight = 959;
var sectionId = 'dynsection-0';
</script>
<script xlink:href="svgpan.js"/>
<svg id="graph" class="graph">
<g id="viewport">
<title>HydroCouple::Spatial::IRegularGrid2DExhangeItem</title>
<!-- Node1 -->
<g id="node1" class="node"><title>Node1</title>
<polygon fill="#bfbfbf" stroke="black" points="132.002,-114.84 132.002,-192.18 328.031,-192.18 328.031,-114.84 132.002,-114.84"/>
<text text-anchor="start" x="140.002" y="-180.18" font-family="Monaco" font-size="10.00">HydroCouple::Spatial</text>
<text text-anchor="middle" x="230.017" y="-166.845" font-family="Monaco" font-size="10.00">::IRegularGrid2DExhangeItem</text>
<polyline fill="none" stroke="black" points="132.002,-157.51 328.031,-157.51 "/>
<text text-anchor="middle" x="230.017" y="-145.51" font-family="Monaco" font-size="10.00"> </text>
<polyline fill="none" stroke="black" points="132.002,-136.175 328.031,-136.175 "/>
<text text-anchor="start" x="140.002" y="-124.175" font-family="Monaco" font-size="10.00">+ ~IRegularGrid2DExhangeItem()</text>
</g>
<!-- Node8 -->
<g id="node8" class="node"><title>Node8</title>
<g id="a_node8"><a xlink:href="class_hydro_couple_1_1_spatial_1_1_i_regular_grid2_d_only_exhange_item.html" target="_top" xlink:title="An IRegularGrid2DOnlyExhangeItem is an IExchangeItem with an IRegularGrid2DComponentItem. ">
<polygon fill="none" stroke="black" points="0,-0.5 0,-77.8398 220.033,-77.8398 220.033,-0.5 0,-0.5"/>
<text text-anchor="start" x="8" y="-65.8398" font-family="Monaco" font-size="10.00">HydroCouple::Spatial</text>
<text text-anchor="middle" x="110.017" y="-52.5049" font-family="Monaco" font-size="10.00">::IRegularGrid2DOnlyExhangeItem</text>
<polyline fill="none" stroke="black" points="0,-43.1699 220.033,-43.1699 "/>
<text text-anchor="middle" x="110.017" y="-31.1699" font-family="Monaco" font-size="10.00"> </text>
<polyline fill="none" stroke="black" points="0,-21.835 220.033,-21.835 "/>
<text text-anchor="start" x="8" y="-9.83496" font-family="Monaco" font-size="10.00">+ ~IRegularGrid2DOnlyExhangeItem()</text>
</a>
</g>
</g>
<!-- Node1&#45;&gt;Node8 -->
<g id="edge8" class="edge"><title>Node1&#45;&gt;Node8</title>
<path fill="none" stroke="midnightblue" d="M182.173,-107.72C171.648,-97.8674 160.603,-87.5271 150.407,-77.9816"/>
<polygon fill="none" stroke="midnightblue" points="180.032,-110.511 189.725,-114.79 184.816,-105.4 180.032,-110.511"/>
</g>
<!-- Node9 -->
<g id="node9" class="node"><title>Node9</title>
<g id="a_node9"><a xlink:href="class_hydro_couple_1_1_spatio_temporal_1_1_i_time_regular_grid2_d_exchange_item.html" target="_top" xlink:title="The ITimeRegularGrid2DExchangeItem class. ">
<polygon fill="none" stroke="black" points="238,-0.5 238,-77.8398 464.034,-77.8398 464.034,-0.5 238,-0.5"/>
<text text-anchor="start" x="246" y="-65.8398" font-family="Monaco" font-size="10.00">HydroCouple::SpatioTemporal</text>
<text text-anchor="middle" x="351.017" y="-52.5049" font-family="Monaco" font-size="10.00">::ITimeRegularGrid2DExchangeItem</text>
<polyline fill="none" stroke="black" points="238,-43.1699 464.034,-43.1699 "/>
<text text-anchor="middle" x="351.017" y="-31.1699" font-family="Monaco" font-size="10.00"> </text>
<polyline fill="none" stroke="black" points="238,-21.835 464.034,-21.835 "/>
<text text-anchor="start" x="246" y="-9.83496" font-family="Monaco" font-size="10.00">+ ~ITimeRegularGrid2DExchangeItem()</text>
</a>
</g>
</g>
<!-- Node1&#45;&gt;Node9 -->
<g id="edge9" class="edge"><title>Node1&#45;&gt;Node9</title>
<path fill="none" stroke="midnightblue" d="M278.259,-107.72C288.871,-97.8674 300.009,-87.5271 310.29,-77.9816"/>
<polygon fill="none" stroke="midnightblue" points="275.592,-105.421 270.644,-114.79 280.354,-110.551 275.592,-105.421"/>
</g>
<!-- Node2 -->
<g id="node2" class="node"><title>Node2</title>
<g id="a_node2"><a xlink:href="class_hydro_couple_1_1_i_exchange_item.html" target="_top" xlink:title="IExchangeItem the base data item the can be exchanged between components at runtime. ">
<polygon fill="none" stroke="black" points="39.0039,-262.517 39.0039,-326.522 211.029,-326.522 211.029,-262.517 39.0039,-262.517"/>
<text text-anchor="middle" x="125.017" y="-314.522" font-family="Monaco" font-size="10.00">HydroCouple::IExchangeItem</text>
<polyline fill="none" stroke="black" points="39.0039,-305.187 211.029,-305.187 "/>
<text text-anchor="middle" x="125.017" y="-293.187" font-family="Monaco" font-size="10.00"> </text>
<polyline fill="none" stroke="black" points="39.0039,-283.852 211.029,-283.852 "/>
<text text-anchor="start" x="47.0039" y="-271.852" font-family="Monaco" font-size="10.00">+ ~IExchangeItem()</text>
</a>
</g>
</g>
<!-- Node2&#45;&gt;Node1 -->
<g id="edge1" class="edge"><title>Node2&#45;&gt;Node1</title>
<path fill="none" stroke="midnightblue" d="M154.67,-254.262C169.341,-234.838 186.97,-211.499 201.486,-192.282"/>
<polygon fill="none" stroke="midnightblue" points="151.815,-252.234 148.581,-262.323 157.401,-256.453 151.815,-252.234"/>
</g>
<!-- Node3 -->
<g id="node3" class="node"><title>Node3</title>
<g id="a_node3"><a xlink:href="class_hydro_couple_1_1_i_component_data_item.html" target="_top" xlink:title="IComponentItem is a fundamental unit of data for a component. ">
<polygon fill="none" stroke="black" points="129.001,-396.859 129.001,-580.879 331.032,-580.879 331.032,-396.859 129.001,-396.859"/>
<text text-anchor="middle" x="230.017" y="-568.879" font-family="Monaco" font-size="10.00">HydroCouple::IComponentDataItem</text>
<polyline fill="none" stroke="black" points="129.001,-559.544 331.032,-559.544 "/>
<text text-anchor="middle" x="230.017" y="-547.544" font-family="Monaco" font-size="10.00"> </text>
<polyline fill="none" stroke="black" points="129.001,-538.209 331.032,-538.209 "/>
<text text-anchor="start" x="137.001" y="-526.209" font-family="Monaco" font-size="10.00">+ ~IComponentDataItem()</text>
<text text-anchor="start" x="137.001" y="-512.874" font-family="Monaco" font-size="10.00">+ modelComponent()</text>
<text text-anchor="start" x="137.001" y="-499.539" font-family="Monaco" font-size="10.00">+ dimensions()</text>
<text text-anchor="start" x="137.001" y="-486.204" font-family="Monaco" font-size="10.00">+ valueDefinition()</text>
<text text-anchor="start" x="137.001" y="-472.869" font-family="Monaco" font-size="10.00">+ getValue()</text>
<text text-anchor="start" x="137.001" y="-459.534" font-family="Monaco" font-size="10.00">+ getValues()</text>
<text text-anchor="start" x="137.001" y="-446.199" font-family="Monaco" font-size="10.00">+ getValues()</text>
<text text-anchor="start" x="137.001" y="-432.864" font-family="Monaco" font-size="10.00">+ setValue()</text>
<text text-anchor="start" x="137.001" y="-419.529" font-family="Monaco" font-size="10.00">+ setValues()</text>
<text text-anchor="start" x="137.001" y="-406.194" font-family="Monaco" font-size="10.00">+ setValues()</text>
</a>
</g>
</g>
<!-- Node3&#45;&gt;Node2 -->
<g id="edge2" class="edge"><title>Node3&#45;&gt;Node2</title>
<path fill="none" stroke="midnightblue" d="M175.435,-387.88C163.261,-365.58 151.238,-343.554 141.987,-326.608"/>
<polygon fill="none" stroke="midnightblue" points="172.42,-389.664 180.284,-396.764 178.565,-386.31 172.42,-389.664"/>
</g>
<!-- Node7 -->
<g id="node7" class="node"><title>Node7</title>
<g id="a_node7"><a xlink:href="class_hydro_couple_1_1_spatial_1_1_i_regular_grid2_d_component_data_item.html" target="_top" xlink:title="An IRegularGrid2DComponentDataItem represents an IRegularGrid2D IComponentItem. ">
<polygon fill="none" stroke="black" points="229,-229.18 229,-359.859 443.033,-359.859 443.033,-229.18 229,-229.18"/>
<text text-anchor="start" x="237" y="-347.859" font-family="Monaco" font-size="10.00">HydroCouple::Spatial</text>
<text text-anchor="middle" x="336.017" y="-334.524" font-family="Monaco" font-size="10.00">::IRegularGrid2DComponentDataItem</text>
<polyline fill="none" stroke="black" points="229,-325.189 443.033,-325.189 "/>
<text text-anchor="middle" x="336.017" y="-313.189" font-family="Monaco" font-size="10.00"> </text>
<polyline fill="none" stroke="black" points="229,-303.854 443.033,-303.854 "/>
<text text-anchor="start" x="237" y="-291.854" font-family="Monaco" font-size="10.00">+ ~IRegularGrid2DComponent</text>
<text text-anchor="start" x="237" y="-278.52" font-family="Monaco" font-size="10.00">DataItem()</text>
<text text-anchor="start" x="237" y="-265.185" font-family="Monaco" font-size="10.00">+ numXCellsDimension()</text>
<text text-anchor="start" x="237" y="-251.85" font-family="Monaco" font-size="10.00">+ numYCellsDimension()</text>
<text text-anchor="start" x="237" y="-238.515" font-family="Monaco" font-size="10.00">+ grid()</text>
</a>
</g>
</g>
<!-- Node3&#45;&gt;Node7 -->
<g id="edge7" class="edge"><title>Node3&#45;&gt;Node7</title>
<path fill="none" stroke="midnightblue" d="M285.204,-387.725C290.397,-378.302 295.562,-368.929 300.499,-359.97"/>
<polygon fill="none" stroke="midnightblue" points="281.984,-386.317 280.223,-396.764 288.115,-389.695 281.984,-386.317"/>
</g>
<!-- Node4 -->
<g id="node4" class="node"><title>Node4</title>
<g id="a_node4"><a xlink:href="class_hydro_couple_1_1_i_identity.html" target="_top" xlink:title="IIdentity interface class defines a method to get the Id of an HydroCouple entity. ">
<polygon fill="none" stroke="black" points="156.006,-617.879 156.006,-695.219 304.027,-695.219 304.027,-617.879 156.006,-617.879"/>
<text text-anchor="middle" x="230.017" y="-683.219" font-family="Monaco" font-size="10.00">HydroCouple::IIdentity</text>
<polyline fill="none" stroke="black" points="156.006,-673.884 304.027,-673.884 "/>
<text text-anchor="middle" x="230.017" y="-661.884" font-family="Monaco" font-size="10.00"> </text>
<polyline fill="none" stroke="black" points="156.006,-652.549 304.027,-652.549 "/>
<text text-anchor="start" x="164.006" y="-640.549" font-family="Monaco" font-size="10.00">+ ~IIdentity()</text>
<text text-anchor="start" x="164.006" y="-627.214" font-family="Monaco" font-size="10.00">+ id()</text>
</a>
</g>
</g>
<!-- Node4&#45;&gt;Node3 -->
<g id="edge3" class="edge"><title>Node4&#45;&gt;Node3</title>
<path fill="none" stroke="midnightblue" d="M230.017,-607.297C230.017,-598.943 230.017,-590.018 230.017,-580.96"/>
<polygon fill="none" stroke="midnightblue" points="226.517,-607.539 230.017,-617.539 233.517,-607.539 226.517,-607.539"/>
</g>
<!-- Node5 -->
<g id="node5" class="node"><title>Node5</title>
<g id="a_node5"><a xlink:href="class_hydro_couple_1_1_i_description.html" target="_top" xlink:title="IDescription interface class provides descriptive information on a HydroCouple object. ">
<polygon fill="none" stroke="black" points="147.004,-732.219 147.004,-849.563 313.029,-849.563 313.029,-732.219 147.004,-732.219"/>
<text text-anchor="middle" x="230.017" y="-837.563" font-family="Monaco" font-size="10.00">HydroCouple::IDescription</text>
<polyline fill="none" stroke="black" points="147.004,-828.229 313.029,-828.229 "/>
<text text-anchor="middle" x="230.017" y="-816.229" font-family="Monaco" font-size="10.00"> </text>
<polyline fill="none" stroke="black" points="147.004,-806.894 313.029,-806.894 "/>
<text text-anchor="start" x="155.004" y="-794.894" font-family="Monaco" font-size="10.00">+ ~IDescription()</text>
<text text-anchor="start" x="155.004" y="-781.559" font-family="Monaco" font-size="10.00">+ caption()</text>
<text text-anchor="start" x="155.004" y="-768.224" font-family="Monaco" font-size="10.00">+ setCaption()</text>
<text text-anchor="start" x="155.004" y="-754.889" font-family="Monaco" font-size="10.00">+ description()</text>
<text text-anchor="start" x="155.004" y="-741.554" font-family="Monaco" font-size="10.00">+ setDescription()</text>
</a>
</g>
</g>
<!-- Node5&#45;&gt;Node4 -->
<g id="edge4" class="edge"><title>Node5&#45;&gt;Node4</title>
<path fill="none" stroke="midnightblue" d="M230.017,-721.653C230.017,-712.614 230.017,-703.627 230.017,-695.366"/>
<polygon fill="none" stroke="midnightblue" points="226.517,-721.844 230.017,-731.844 233.517,-721.844 226.517,-721.844"/>
</g>
<!-- Node6 -->
<g id="node6" class="node"><title>Node6</title>
<g id="a_node6"><a xlink:href="class_hydro_couple_1_1_i_property_changed.html" target="_top" xlink:title="IPropertyChanged interface is used to emit signal/event when a property of an object changes...">
<polygon fill="none" stroke="black" points="135.002,-886.563 135.002,-950.568 325.031,-950.568 325.031,-886.563 135.002,-886.563"/>
<text text-anchor="middle" x="230.017" y="-938.568" font-family="Monaco" font-size="10.00">HydroCouple::IPropertyChanged</text>
<polyline fill="none" stroke="black" points="135.002,-929.233 325.031,-929.233 "/>
<text text-anchor="middle" x="230.017" y="-917.233" font-family="Monaco" font-size="10.00"> </text>
<polyline fill="none" stroke="black" points="135.002,-907.898 325.031,-907.898 "/>
<text text-anchor="start" x="143.002" y="-895.898" font-family="Monaco" font-size="10.00">+ ~IPropertyChanged()</text>
</a>
</g>
</g>
<!-- Node6&#45;&gt;Node5 -->
<g id="edge5" class="edge"><title>Node6&#45;&gt;Node5</title>
<path fill="none" stroke="midnightblue" d="M230.017,-876.243C230.017,-867.858 230.017,-858.892 230.017,-850.049"/>
<polygon fill="none" stroke="midnightblue" points="226.517,-876.5 230.017,-886.5 233.517,-876.5 226.517,-876.5"/>
</g>
<!-- Node7&#45;&gt;Node1 -->
<g id="edge6" class="edge"><title>Node7&#45;&gt;Node1</title>
<path fill="none" stroke="midnightblue" d="M280.486,-220.696C273.043,-210.935 265.667,-201.262 258.947,-192.449"/>
<polygon fill="none" stroke="midnightblue" points="277.894,-223.068 286.74,-228.898 283.46,-218.824 277.894,-223.068"/>
</g>
</g>
</svg>
        <g id="navigator" transform="translate(0 0)" fill="#404254">
                <rect fill="#f2f5e9" fill-opacity="0.5" stroke="#606060" stroke-width=".5" x="0" y="0" width="60" height="60"/>
                <use id="zoomplus" xlink:href="#zoomPlus" x="17" y="9" onmousedown="handleZoom(evt,'in')"/>
                <use id="zoomminus" xlink:href="#zoomMin" x="42" y="9" onmousedown="handleZoom(evt,'out')"/>
                <use id="reset" xlink:href="#resetDef" x="30" y="36" onmousedown="handleReset()"/>
                <g id="arrowUp" xlink:href="#dirArrow" transform="translate(30 24)" onmousedown="handlePan(0,-1)">
                  <use xlink:href="#rim" fill="#404040">
                        <set attributeName="fill" to="#808080" begin="arrowUp.mouseover" end="arrowUp.mouseout"/>
                  </use>
                  <path fill="none" stroke="white" stroke-width="1.5" d="M0,-3.0v7 M-2.5,-0.5L0,-3.0L2.5,-0.5"/>
                </g>
                <g id="arrowRight" xlink:href="#dirArrow" transform="rotate(90) translate(36 -43)" onmousedown="handlePan(1,0)">
                  <use xlink:href="#rim" fill="#404040">
                        <set attributeName="fill" to="#808080" begin="arrowRight.mouseover" end="arrowRight.mouseout"/>
                  </use>
                  <path fill="none" stroke="white" stroke-width="1.5" d="M0,-3.0v7 M-2.5,-0.5L0,-3.0L2.5,-0.5"/>
                </g>
                <g id="arrowDown" xlink:href="#dirArrow" transform="rotate(180) translate(-30 -48)" onmousedown="handlePan(0,1)">
                  <use xlink:href="#rim" fill="#404040">
                        <set attributeName="fill" to="#808080" begin="arrowDown.mouseover" end="arrowDown.mouseout"/>
                  </use>
                  <path fill="none" stroke="white" stroke-width="1.5" d="M0,-3.0v7 M-2.5,-0.5L0,-3.0L2.5,-0.5"/>
                </g>
                <g id="arrowLeft" xlink:href="#dirArrow" transform="rotate(270) translate(-36 17)" onmousedown="handlePan(-1,0)">
                  <use xlink:href="#rim" fill="#404040">
                        <set attributeName="fill" to="#808080" begin="arrowLeft.mouseover" end="arrowLeft.mouseout"/>
                  </use>
                  <path fill="none" stroke="white" stroke-width="1.5" d="M0,-3.0v7 M-2.5,-0.5L0,-3.0L2.5,-0.5"/>
                </g>
        </g>
        <svg viewBox="0 0 15 15" width="100%" height="30px" preserveAspectRatio="xMaxYMin meet">
         <g id="arrow_out" transform="scale(0.3 0.3)">
          <a xlink:href="class_hydro_couple_1_1_spatial_1_1_i_regular_grid2_d_exhange_item__inherit__graph_org.svg" target="_base">
           <rect id="button" ry="5" rx="5" y="6" x="6" height="38" width="38"
                fill="#f2f5e9" fill-opacity="0.5" stroke="#606060" stroke-width="1.0"/>
           <path id="arrow"
             d="M 11.500037,31.436501 C 11.940474,20.09759 22.043105,11.32322 32.158766,21.979434 L 37.068811,17.246167 C 37.068811,17.246167 37.088388,32 37.088388,32 L 22.160133,31.978069 C 22.160133,31.978069 26.997745,27.140456 26.997745,27.140456 C 18.528582,18.264221 13.291696,25.230495 11.500037,31.436501 z"
             style="fill:#404040;"/>
          </a>
         </g>
        </svg>
</svg>
