<?xml version="1.0" encoding="UTF-8" standalone="no"?>
<!DOCTYPE svg PUBLIC "-//W3C//DTD SVG 1.1//EN"
 "http://www.w3.org/Graphics/SVG/1.1/DTD/svg11.dtd">
<!-- Generated by graphviz version 2.38.0 (20140413.2041)
 -->
<!-- Title: HydroCouple::Spatial::IGeometryComponentDataItem Pages: 1 -->
<svg width="834pt" height="1026pt"
 viewBox="0.00 0.00 834.03 1025.74" xmlns="http://www.w3.org/2000/svg" xmlns:xlink="http://www.w3.org/1999/xlink">
<g id="graph0" class="graph" transform="scale(1 1) rotate(0) translate(4 1021.74)">
<title>HydroCouple::Spatial::IGeometryComponentDataItem</title>
<!-- Node1 -->
<g id="node1" class="node"><title>Node1</title>
<polygon fill="#bfbfbf" stroke="black" points="306.002,-309.189 306.002,-426.534 508.032,-426.534 508.032,-309.189 306.002,-309.189"/>
<text text-anchor="start" x="314.002" y="-414.534" font-family="Monaco" font-size="10.00">HydroCouple::Spatial</text>
<text text-anchor="middle" x="407.017" y="-401.199" font-family="Monaco" font-size="10.00">::IGeometryComponentDataItem</text>
<polyline fill="none" stroke="black" points="306.002,-391.864 508.032,-391.864 "/>
<text text-anchor="middle" x="407.017" y="-379.864" font-family="Monaco" font-size="10.00"> </text>
<polyline fill="none" stroke="black" points="306.002,-370.529 508.032,-370.529 "/>
<text text-anchor="start" x="314.002" y="-358.529" font-family="Monaco" font-size="10.00">+ ~IGeometryComponentDataItem()</text>
<text text-anchor="start" x="314.002" y="-345.194" font-family="Monaco" font-size="10.00">+ geometryCollection()</text>
<text text-anchor="start" x="314.002" y="-331.859" font-family="Monaco" font-size="10.00">+ geometry()</text>
<text text-anchor="start" x="314.002" y="-318.524" font-family="Monaco" font-size="10.00">+ geometryDimension()</text>
</g>
<!-- Node6 -->
<g id="node6" class="node"><title>Node6</title>
<g id="a_node6"><a xlink:href="class_hydro_couple_1_1_spatial_1_1_i_geometry_argument.html" target="_top" xlink:title="The IGeometryArgument class. ">
<polygon fill="none" stroke="black" points="244.006,-154.845 244.006,-232.185 392.028,-232.185 392.028,-154.845 244.006,-154.845"/>
<text text-anchor="start" x="252.006" y="-220.185" font-family="Monaco" font-size="10.00">HydroCouple::Spatial</text>
<text text-anchor="middle" x="318.017" y="-206.85" font-family="Monaco" font-size="10.00">::IGeometryArgument</text>
<polyline fill="none" stroke="black" points="244.006,-197.515 392.028,-197.515 "/>
<text text-anchor="middle" x="318.017" y="-185.515" font-family="Monaco" font-size="10.00"> </text>
<polyline fill="none" stroke="black" points="244.006,-176.18 392.028,-176.18 "/>
<text text-anchor="start" x="252.006" y="-164.18" font-family="Monaco" font-size="10.00">+ ~IGeometryArgument()</text>
</a>
</g>
</g>
<!-- Node1&#45;&gt;Node6 -->
<g id="edge5" class="edge"><title>Node1&#45;&gt;Node6</title>
<path fill="none" stroke="midnightblue" d="M372.466,-299.954C360.591,-276.959 347.72,-252.034 337.475,-232.195"/>
<polygon fill="none" stroke="midnightblue" points="369.436,-301.714 377.134,-308.993 375.655,-298.502 369.436,-301.714"/>
</g>
<!-- Node9 -->
<g id="node9" class="node"><title>Node9</title>
<g id="a_node9"><a xlink:href="class_hydro_couple_1_1_spatial_1_1_i_geometry_exchange_item.html" target="_top" xlink:title="An IExchangeItem class with a geometry component. ">
<polygon fill="none" stroke="black" points="410.004,-154.845 410.004,-232.185 582.03,-232.185 582.03,-154.845 410.004,-154.845"/>
<text text-anchor="start" x="418.004" y="-220.185" font-family="Monaco" font-size="10.00">HydroCouple::Spatial</text>
<text text-anchor="middle" x="496.017" y="-206.85" font-family="Monaco" font-size="10.00">::IGeometryExchangeItem</text>
<polyline fill="none" stroke="black" points="410.004,-197.515 582.03,-197.515 "/>
<text text-anchor="middle" x="496.017" y="-185.515" font-family="Monaco" font-size="10.00"> </text>
<polyline fill="none" stroke="black" points="410.004,-176.18 582.03,-176.18 "/>
<text text-anchor="start" x="418.004" y="-164.18" font-family="Monaco" font-size="10.00">+ ~IGeometryExchangeItem()</text>
</a>
</g>
</g>
<!-- Node1&#45;&gt;Node9 -->
<g id="edge8" class="edge"><title>Node1&#45;&gt;Node9</title>
<path fill="none" stroke="midnightblue" d="M441.568,-299.954C453.443,-276.959 466.314,-252.034 476.559,-232.195"/>
<polygon fill="none" stroke="midnightblue" points="438.379,-298.502 436.9,-308.993 444.599,-301.714 438.379,-298.502"/>
</g>
<!-- Node12 -->
<g id="node12" class="node"><title>Node12</title>
<g id="a_node12"><a xlink:href="class_hydro_couple_1_1_spatial_1_1_i_geometry_only_component_data_item.html" target="_top" xlink:title="IGeometryOnlyComponentDataItem represents IGeometryCollection IComponentItem. ">
<polygon fill="none" stroke="black" points="0,-114.84 0,-272.189 226.034,-272.189 226.034,-114.84 0,-114.84"/>
<text text-anchor="start" x="8" y="-260.189" font-family="Monaco" font-size="10.00">HydroCouple::Spatial</text>
<text text-anchor="middle" x="113.017" y="-246.854" font-family="Monaco" font-size="10.00">::IGeometryOnlyComponentDataItem</text>
<polyline fill="none" stroke="black" points="0,-237.52 226.034,-237.52 "/>
<text text-anchor="middle" x="113.017" y="-225.52" font-family="Monaco" font-size="10.00"> </text>
<polyline fill="none" stroke="black" points="0,-216.185 226.034,-216.185 "/>
<text text-anchor="start" x="8" y="-204.185" font-family="Monaco" font-size="10.00">+ ~IGeometryOnlyComponentDataItem()</text>
<text text-anchor="start" x="8" y="-190.85" font-family="Monaco" font-size="10.00">+ getValue()</text>
<text text-anchor="start" x="8" y="-177.515" font-family="Monaco" font-size="10.00">+ getValues()</text>
<text text-anchor="start" x="8" y="-164.18" font-family="Monaco" font-size="10.00">+ getValues()</text>
<text text-anchor="start" x="8" y="-150.845" font-family="Monaco" font-size="10.00">+ setValue()</text>
<text text-anchor="start" x="8" y="-137.51" font-family="Monaco" font-size="10.00">+ setValues()</text>
<text text-anchor="start" x="8" y="-124.175" font-family="Monaco" font-size="10.00">+ setValues()</text>
</a>
</g>
</g>
<!-- Node1&#45;&gt;Node12 -->
<g id="edge11" class="edge"><title>Node1&#45;&gt;Node12</title>
<path fill="none" stroke="midnightblue" d="M297.019,-308.106C276.278,-296.614 254.873,-284.468 235.017,-272.689 232.096,-270.957 229.144,-269.19 226.172,-267.396"/>
<polygon fill="none" stroke="midnightblue" points="295.414,-311.219 305.86,-312.989 298.798,-305.091 295.414,-311.219"/>
</g>
<!-- Node13 -->
<g id="node13" class="node"><title>Node13</title>
<g id="a_node13"><a xlink:href="class_hydro_couple_1_1_spatio_temporal_1_1_i_time_geometry_component_data_item.html" target="_top" xlink:title="ITimeGeometryComponentItem represents an IComponentItem with both temporal and geometric components...">
<polygon fill="none" stroke="black" points="600,-114.84 600,-272.189 826.034,-272.189 826.034,-114.84 600,-114.84"/>
<text text-anchor="start" x="608" y="-260.189" font-family="Monaco" font-size="10.00">HydroCouple::SpatioTemporal</text>
<text text-anchor="middle" x="713.017" y="-246.854" font-family="Monaco" font-size="10.00">::ITimeGeometryComponentDataItem</text>
<polyline fill="none" stroke="black" points="600,-237.52 826.034,-237.52 "/>
<text text-anchor="middle" x="713.017" y="-225.52" font-family="Monaco" font-size="10.00"> </text>
<polyline fill="none" stroke="black" points="600,-216.185 826.034,-216.185 "/>
<text text-anchor="start" x="608" y="-204.185" font-family="Monaco" font-size="10.00">+ ~ITimeGeometryComponentDataItem()</text>
<text text-anchor="start" x="608" y="-190.85" font-family="Monaco" font-size="10.00">+ getValue()</text>
<text text-anchor="start" x="608" y="-177.515" font-family="Monaco" font-size="10.00">+ getValues()</text>
<text text-anchor="start" x="608" y="-164.18" font-family="Monaco" font-size="10.00">+ getValues()</text>
<text text-anchor="start" x="608" y="-150.845" font-family="Monaco" font-size="10.00">+ setValue()</text>
<text text-anchor="start" x="608" y="-137.51" font-family="Monaco" font-size="10.00">+ setValues()</text>
<text text-anchor="start" x="608" y="-124.175" font-family="Monaco" font-size="10.00">+ setValues()</text>
</a>
</g>
</g>
<!-- Node1&#45;&gt;Node13 -->
<g id="edge14" class="edge"><title>Node1&#45;&gt;Node13</title>
<path fill="none" stroke="midnightblue" d="M517.21,-312.662C541.747,-299.986 567.461,-286.222 591.017,-272.689 593.962,-270.998 596.935,-269.267 599.926,-267.506"/>
<polygon fill="none" stroke="midnightblue" points="515.522,-309.594 508.23,-317.28 518.724,-315.819 515.522,-309.594"/>
</g>
<!-- Node2 -->
<g id="node2" class="node"><title>Node2</title>
<g id="a_node2"><a xlink:href="class_hydro_couple_1_1_i_component_data_item.html" target="_top" xlink:title="IComponentItem is a fundamental unit of data for a component. ">
<polygon fill="none" stroke="black" points="306.002,-463.534 306.002,-647.554 508.032,-647.554 508.032,-463.534 306.002,-463.534"/>
<text text-anchor="middle" x="407.017" y="-635.554" font-family="Monaco" font-size="10.00">HydroCouple::IComponentDataItem</text>
<polyline fill="none" stroke="black" points="306.002,-626.219 508.032,-626.219 "/>
<text text-anchor="middle" x="407.017" y="-614.219" font-family="Monaco" font-size="10.00"> </text>
<polyline fill="none" stroke="black" points="306.002,-604.884 508.032,-604.884 "/>
<text text-anchor="start" x="314.002" y="-592.884" font-family="Monaco" font-size="10.00">+ ~IComponentDataItem()</text>
<text text-anchor="start" x="314.002" y="-579.549" font-family="Monaco" font-size="10.00">+ modelComponent()</text>
<text text-anchor="start" x="314.002" y="-566.214" font-family="Monaco" font-size="10.00">+ dimensions()</text>
<text text-anchor="start" x="314.002" y="-552.879" font-family="Monaco" font-size="10.00">+ valueDefinition()</text>
<text text-anchor="start" x="314.002" y="-539.544" font-family="Monaco" font-size="10.00">+ getValue()</text>
<text text-anchor="start" x="314.002" y="-526.209" font-family="Monaco" font-size="10.00">+ getValues()</text>
<text text-anchor="start" x="314.002" y="-512.874" font-family="Monaco" font-size="10.00">+ getValues()</text>
<text text-anchor="start" x="314.002" y="-499.539" font-family="Monaco" font-size="10.00">+ setValue()</text>
<text text-anchor="start" x="314.002" y="-486.204" font-family="Monaco" font-size="10.00">+ setValues()</text>
<text text-anchor="start" x="314.002" y="-472.869" font-family="Monaco" font-size="10.00">+ setValues()</text>
</a>
</g>
</g>
<!-- Node2&#45;&gt;Node1 -->
<g id="edge1" class="edge"><title>Node2&#45;&gt;Node1</title>
<path fill="none" stroke="midnightblue" d="M407.017,-453.112C407.017,-444.083 407.017,-435.163 407.017,-426.698"/>
<polygon fill="none" stroke="midnightblue" points="403.517,-453.335 407.017,-463.335 410.517,-453.335 403.517,-453.335"/>
</g>
<!-- Node3 -->
<g id="node3" class="node"><title>Node3</title>
<g id="a_node3"><a xlink:href="class_hydro_couple_1_1_i_identity.html" target="_top" xlink:title="IIdentity interface class defines a method to get the Id of an HydroCouple entity. ">
<polygon fill="none" stroke="black" points="333.006,-684.554 333.006,-761.894 481.028,-761.894 481.028,-684.554 333.006,-684.554"/>
<text text-anchor="middle" x="407.017" y="-749.894" font-family="Monaco" font-size="10.00">HydroCouple::IIdentity</text>
<polyline fill="none" stroke="black" points="333.006,-740.559 481.028,-740.559 "/>
<text text-anchor="middle" x="407.017" y="-728.559" font-family="Monaco" font-size="10.00"> </text>
<polyline fill="none" stroke="black" points="333.006,-719.224 481.028,-719.224 "/>
<text text-anchor="start" x="341.006" y="-707.224" font-family="Monaco" font-size="10.00">+ ~IIdentity()</text>
<text text-anchor="start" x="341.006" y="-693.889" font-family="Monaco" font-size="10.00">+ id()</text>
</a>
</g>
</g>
<!-- Node3&#45;&gt;Node2 -->
<g id="edge2" class="edge"><title>Node3&#45;&gt;Node2</title>
<path fill="none" stroke="midnightblue" d="M407.017,-673.971C407.017,-665.618 407.017,-656.693 407.017,-647.635"/>
<polygon fill="none" stroke="midnightblue" points="403.517,-674.213 407.017,-684.213 410.517,-674.213 403.517,-674.213"/>
</g>
<!-- Node4 -->
<g id="node4" class="node"><title>Node4</title>
<g id="a_node4"><a xlink:href="class_hydro_couple_1_1_i_description.html" target="_top" xlink:title="IDescription interface class provides descriptive information on a HydroCouple object. ">
<polygon fill="none" stroke="black" points="324.005,-798.894 324.005,-916.238 490.029,-916.238 490.029,-798.894 324.005,-798.894"/>
<text text-anchor="middle" x="407.017" y="-904.238" font-family="Monaco" font-size="10.00">HydroCouple::IDescription</text>
<polyline fill="none" stroke="black" points="324.005,-894.903 490.029,-894.903 "/>
<text text-anchor="middle" x="407.017" y="-882.903" font-family="Monaco" font-size="10.00"> </text>
<polyline fill="none" stroke="black" points="324.005,-873.568 490.029,-873.568 "/>
<text text-anchor="start" x="332.005" y="-861.568" font-family="Monaco" font-size="10.00">+ ~IDescription()</text>
<text text-anchor="start" x="332.005" y="-848.233" font-family="Monaco" font-size="10.00">+ caption()</text>
<text text-anchor="start" x="332.005" y="-834.898" font-family="Monaco" font-size="10.00">+ setCaption()</text>
<text text-anchor="start" x="332.005" y="-821.563" font-family="Monaco" font-size="10.00">+ description()</text>
<text text-anchor="start" x="332.005" y="-808.229" font-family="Monaco" font-size="10.00">+ setDescription()</text>
</a>
</g>
</g>
<!-- Node4&#45;&gt;Node3 -->
<g id="edge3" class="edge"><title>Node4&#45;&gt;Node3</title>
<path fill="none" stroke="midnightblue" d="M407.017,-788.328C407.017,-779.289 407.017,-770.301 407.017,-762.041"/>
<polygon fill="none" stroke="midnightblue" points="403.517,-788.519 407.017,-798.519 410.517,-788.519 403.517,-788.519"/>
</g>
<!-- Node5 -->
<g id="node5" class="node"><title>Node5</title>
<g id="a_node5"><a xlink:href="class_hydro_couple_1_1_i_property_changed.html" target="_top" xlink:title="IPropertyChanged interface is used to emit signal/event when a property of an object changes...">
<polygon fill="none" stroke="black" points="312.003,-953.238 312.003,-1017.24 502.031,-1017.24 502.031,-953.238 312.003,-953.238"/>
<text text-anchor="middle" x="407.017" y="-1005.24" font-family="Monaco" font-size="10.00">HydroCouple::IPropertyChanged</text>
<polyline fill="none" stroke="black" points="312.003,-995.908 502.031,-995.908 "/>
<text text-anchor="middle" x="407.017" y="-983.908" font-family="Monaco" font-size="10.00"> </text>
<polyline fill="none" stroke="black" points="312.003,-974.573 502.031,-974.573 "/>
<text text-anchor="start" x="320.003" y="-962.573" font-family="Monaco" font-size="10.00">+ ~IPropertyChanged()</text>
</a>
</g>
</g>
<!-- Node5&#45;&gt;Node4 -->
<g id="edge4" class="edge"><title>Node5&#45;&gt;Node4</title>
<path fill="none" stroke="midnightblue" d="M407.017,-942.918C407.017,-934.533 407.017,-925.566 407.017,-916.724"/>
<polygon fill="none" stroke="midnightblue" points="403.517,-943.175 407.017,-953.175 410.517,-943.175 403.517,-943.175"/>
</g>
<!-- Node7 -->
<g id="node7" class="node"><title>Node7</title>
<g id="a_node7"><a xlink:href="class_hydro_couple_1_1_spatial_1_1_i_geometry_only_argument.html" target="_top" xlink:title="The IGeometryOnlyArgument class. ">
<polygon fill="none" stroke="black" points="21.0044,-0.5 21.0044,-77.8398 193.03,-77.8398 193.03,-0.5 21.0044,-0.5"/>
<text text-anchor="start" x="29.0044" y="-65.8398" font-family="Monaco" font-size="10.00">HydroCouple::Spatial</text>
<text text-anchor="middle" x="107.017" y="-52.5049" font-family="Monaco" font-size="10.00">::IGeometryOnlyArgument</text>
<polyline fill="none" stroke="black" points="21.0044,-43.1699 193.03,-43.1699 "/>
<text text-anchor="middle" x="107.017" y="-31.1699" font-family="Monaco" font-size="10.00"> </text>
<polyline fill="none" stroke="black" points="21.0044,-21.835 193.03,-21.835 "/>
<text text-anchor="start" x="29.0044" y="-9.83496" font-family="Monaco" font-size="10.00">+ ~IGeometryOnlyArgument()</text>
</a>
</g>
</g>
<!-- Node6&#45;&gt;Node7 -->
<g id="edge6" class="edge"><title>Node6&#45;&gt;Node7</title>
<path fill="none" stroke="midnightblue" d="M274.222,-147.711C262.022,-136.238 248.425,-124.33 235.017,-114.34 217.614,-101.374 197.754,-88.8862 178.955,-77.9742"/>
<polygon fill="none" stroke="midnightblue" points="271.974,-150.404 281.624,-154.778 276.808,-145.341 271.974,-150.404"/>
</g>
<!-- Node8 -->
<g id="node8" class="node"><title>Node8</title>
<g id="a_node8"><a xlink:href="class_hydro_couple_1_1_spatio_temporal_1_1_i_time_geometry_argument.html" target="_top" xlink:title="The ITimeGeometryArgument class. ">
<polygon fill="none" stroke="black" points="425.004,-0.5 425.004,-77.8398 603.03,-77.8398 603.03,-0.5 425.004,-0.5"/>
<text text-anchor="start" x="433.004" y="-65.8398" font-family="Monaco" font-size="10.00">HydroCouple::SpatioTemporal</text>
<text text-anchor="middle" x="514.017" y="-52.5049" font-family="Monaco" font-size="10.00">::ITimeGeometryArgument</text>
<polyline fill="none" stroke="black" points="425.004,-43.1699 603.03,-43.1699 "/>
<text text-anchor="middle" x="514.017" y="-31.1699" font-family="Monaco" font-size="10.00"> </text>
<polyline fill="none" stroke="black" points="425.004,-21.835 603.03,-21.835 "/>
<text text-anchor="start" x="433.004" y="-9.83496" font-family="Monaco" font-size="10.00">+ ~ITimeGeometryArgument()</text>
</a>
</g>
</g>
<!-- Node6&#45;&gt;Node8 -->
<g id="edge7" class="edge"><title>Node6&#45;&gt;Node8</title>
<path fill="none" stroke="midnightblue" d="M362.913,-147.533C374.921,-136.262 388.149,-124.496 401.017,-114.34 417.043,-101.691 435.227,-89.0738 452.251,-77.9269"/>
<polygon fill="none" stroke="midnightblue" points="360.45,-145.045 355.607,-154.468 365.269,-150.122 360.45,-145.045"/>
</g>
<!-- Node10 -->
<g id="node10" class="node"><title>Node10</title>
<g id="a_node10"><a xlink:href="class_hydro_couple_1_1_spatial_1_1_i_geometry_only_exchange_item.html" target="_top" xlink:title="An IExchangeItem class which has data associated with only the geometry dimension. ">
<polygon fill="none" stroke="black" points="211.002,-0.5 211.002,-77.8398 407.032,-77.8398 407.032,-0.5 211.002,-0.5"/>
<text text-anchor="start" x="219.002" y="-65.8398" font-family="Monaco" font-size="10.00">HydroCouple::Spatial</text>
<text text-anchor="middle" x="309.017" y="-52.5049" font-family="Monaco" font-size="10.00">::IGeometryOnlyExchangeItem</text>
<polyline fill="none" stroke="black" points="211.002,-43.1699 407.032,-43.1699 "/>
<text text-anchor="middle" x="309.017" y="-31.1699" font-family="Monaco" font-size="10.00"> </text>
<polyline fill="none" stroke="black" points="211.002,-21.835 407.032,-21.835 "/>
<text text-anchor="start" x="219.002" y="-9.83496" font-family="Monaco" font-size="10.00">+ ~IGeometryOnlyExchangeItem()</text>
</a>
</g>
</g>
<!-- Node9&#45;&gt;Node10 -->
<g id="edge9" class="edge"><title>Node9&#45;&gt;Node10</title>
<path fill="none" stroke="midnightblue" d="M442.379,-148.219C428.898,-137.129 414.446,-125.278 401.017,-114.34 386.541,-102.549 370.732,-89.769 356.366,-78.1926"/>
<polygon fill="none" stroke="midnightblue" points="440.244,-150.994 450.189,-154.647 444.693,-145.59 440.244,-150.994"/>
</g>
<!-- Node11 -->
<g id="node11" class="node"><title>Node11</title>
<g id="a_node11"><a xlink:href="class_hydro_couple_1_1_spatio_temporal_1_1_i_time_geometry_exchange_item.html" target="_top" xlink:title="The ITimeGeometryExchangeItem class. ">
<polygon fill="none" stroke="black" points="621.002,-0.5 621.002,-77.8398 817.032,-77.8398 817.032,-0.5 621.002,-0.5"/>
<text text-anchor="start" x="629.002" y="-65.8398" font-family="Monaco" font-size="10.00">HydroCouple::SpatioTemporal</text>
<text text-anchor="middle" x="719.017" y="-52.5049" font-family="Monaco" font-size="10.00">::ITimeGeometryExchangeItem</text>
<polyline fill="none" stroke="black" points="621.002,-43.1699 817.032,-43.1699 "/>
<text text-anchor="middle" x="719.017" y="-31.1699" font-family="Monaco" font-size="10.00"> </text>
<polyline fill="none" stroke="black" points="621.002,-21.835 817.032,-21.835 "/>
<text text-anchor="start" x="629.002" y="-9.83496" font-family="Monaco" font-size="10.00">+ ~ITimeGeometryExchangeItem()</text>
</a>
</g>
</g>
<!-- Node9&#45;&gt;Node11 -->
<g id="edge10" class="edge"><title>Node9&#45;&gt;Node11</title>
<path fill="none" stroke="midnightblue" d="M546.872,-148.099C560.828,-136.628 576.204,-124.624 591.017,-114.34 609.266,-101.67 629.797,-89.0945 648.984,-77.9957"/>
<polygon fill="none" stroke="midnightblue" points="544.291,-145.692 538.834,-154.774 548.764,-151.077 544.291,-145.692"/>
</g>
<!-- Node12&#45;&gt;Node7 -->
<g id="edge12" class="edge"><title>Node12&#45;&gt;Node7</title>
<path fill="none" stroke="midnightblue" d="M109.549,-104.447C109.184,-95.1928 108.829,-86.1783 108.506,-77.9688"/>
<polygon fill="none" stroke="midnightblue" points="106.056,-104.703 109.947,-114.557 113.05,-104.427 106.056,-104.703"/>
</g>
<!-- Node12&#45;&gt;Node10 -->
<g id="edge13" class="edge"><title>Node12&#45;&gt;Node10</title>
<path fill="none" stroke="midnightblue" d="M221.095,-108.509C234.76,-97.8874 248.161,-87.4712 260.22,-78.0982"/>
<polygon fill="none" stroke="midnightblue" points="218.774,-105.88 213.027,-114.78 223.07,-111.407 218.774,-105.88"/>
</g>
<!-- Node13&#45;&gt;Node8 -->
<g id="edge15" class="edge"><title>Node13&#45;&gt;Node8</title>
<path fill="none" stroke="midnightblue" d="M603.238,-108.473C589.284,-97.7909 575.603,-87.3174 563.308,-77.905"/>
<polygon fill="none" stroke="midnightblue" points="601.409,-111.481 611.477,-114.78 605.664,-105.922 601.409,-111.481"/>
</g>
<!-- Node13&#45;&gt;Node11 -->
<g id="edge16" class="edge"><title>Node13&#45;&gt;Node11</title>
<path fill="none" stroke="midnightblue" d="M716.486,-104.447C716.85,-95.1928 717.205,-86.1783 717.528,-77.9688"/>
<polygon fill="none" stroke="midnightblue" points="712.984,-104.427 716.087,-114.557 719.978,-104.703 712.984,-104.427"/>
</g>
</g>
</svg>
