<?xml version="1.0" encoding="UTF-8" standalone="no"?>
<!DOCTYPE svg PUBLIC "-//W3C//DTD SVG 1.1//EN"
 "http://www.w3.org/Graphics/SVG/1.1/DTD/svg11.dtd">
<!-- Generated by graphviz version 2.38.0 (20140413.2041)
 -->
<!-- Title: HydroCouple::SpatioTemporal::ITime3DRegularGridComponentItem Pages: 1 -->
<!--zoomable 910 -->
<svg id="main" version="1.1" xmlns="http://www.w3.org/2000/svg" xmlns:xlink="http://www.w3.org/1999/xlink" xml:space="preserve" onload="init(evt)">
<style type="text/css"><![CDATA[
.edge:hover path { stroke: red; }
.edge:hover polygon { stroke: red; fill: red; }
]]></style>
<script type="text/javascript"><![CDATA[
var edges = document.getElementsByTagName('g');
if (edges && edges.length) {
  for (var i=0;i<edges.length;i++) {
    if (edges[i].id.substr(0,4)=='edge') {
      edges[i].setAttribute('class','edge');
    }
  }
}
]]></script>
        <defs>
                <circle id="rim" cx="0" cy="0" r="7"/>
                <circle id="rim2" cx="0" cy="0" r="3.5"/>
                <g id="zoomPlus">
                        <use xlink:href="#rim" fill="#404040">
                                <set attributeName="fill" to="#808080" begin="zoomplus.mouseover" end="zoomplus.mouseout"/>
                        </use>
                        <path d="M-4,0h8M0,-4v8" fill="none" stroke="white" stroke-width="1.5" pointer-events="none"/>
                </g>
                <g id="zoomMin">
                        <use xlink:href="#rim" fill="#404040">
                                <set attributeName="fill" to="#808080" begin="zoomminus.mouseover" end="zoomminus.mouseout"/>
                        </use>
                        <path d="M-4,0h8" fill="none" stroke="white" stroke-width="1.5" pointer-events="none"/>
                </g>
                <g id="dirArrow">
                        <path fill="none" stroke="white" stroke-width="1.5" d="M0,-3.0v7 M-2.5,-0.5L0,-3.0L2.5,-0.5"/>
                </g>
               <g id="resetDef">
                       <use xlink:href="#rim2" fill="#404040">
                               <set attributeName="fill" to="#808080" begin="reset.mouseover" end="reset.mouseout"/>
                       </use>
               </g>
        </defs>

<script type="text/javascript">
var viewWidth = 470;
var viewHeight = 910;
var sectionId = 'dynsection-0';
</script>
<script xlink:href="svgpan.js"/>
<svg id="graph" class="graph">
<g id="viewport">
<title>HydroCouple::SpatioTemporal::ITime3DRegularGridComponentItem</title>
<polygon fill="white" stroke="none" points="-4,4 -4,-906 465.77,-906 465.77,4 -4,4"/>
<!-- Node1 -->
<g id="node1" class="node"><title>Node1</title>
<polygon fill="#bfbfbf" stroke="black" points="186.104,-111.5 186.104,-175.5 385.697,-175.5 385.697,-111.5 186.104,-111.5"/>
<text text-anchor="start" x="194.104" y="-163.5" font-family="Helvetica,sans-Serif" font-size="10.00">HydroCouple::SpatioTemporal</text>
<text text-anchor="middle" x="285.9" y="-153.5" font-family="Helvetica,sans-Serif" font-size="10.00">::ITime3DRegularGridComponentItem</text>
<polyline fill="none" stroke="black" points="186.104,-147.5 385.697,-147.5 "/>
<text text-anchor="middle" x="285.9" y="-135.5" font-family="Helvetica,sans-Serif" font-size="10.00"> </text>
<polyline fill="none" stroke="black" points="186.104,-129.5 385.697,-129.5 "/>
<text text-anchor="start" x="194.104" y="-117.5" font-family="Helvetica,sans-Serif" font-size="10.00">+ ~ITime3DRegularGridComponentItem()</text>
</g>
<!-- Node9 -->
<g id="node9" class="node"><title>Node9</title>
<g id="a_node9"><a xlink:href="class_hydro_couple_1_1_spatio_temporal_1_1_i_time3_d_regular_grid_argument.html" target="_top" xlink:title="The ITime3DRegularGridArgument class. ">
<polygon fill="white" stroke="black" points="0,-5.5 0,-69.5 171.801,-69.5 171.801,-5.5 0,-5.5"/>
<text text-anchor="start" x="8" y="-57.5" font-family="Helvetica,sans-Serif" font-size="10.00">HydroCouple::SpatioTemporal</text>
<text text-anchor="middle" x="85.9004" y="-47.5" font-family="Helvetica,sans-Serif" font-size="10.00">::ITime3DRegularGridArgument</text>
<polyline fill="none" stroke="black" points="0,-41.5 171.801,-41.5 "/>
<text text-anchor="middle" x="85.9004" y="-29.5" font-family="Helvetica,sans-Serif" font-size="10.00"> </text>
<polyline fill="none" stroke="black" points="0,-23.5 171.801,-23.5 "/>
<text text-anchor="start" x="8" y="-11.5" font-family="Helvetica,sans-Serif" font-size="10.00">+ ~ITime3DRegularGridArgument()</text>
</a>
</g>
</g>
<!-- Node1&#45;&gt;Node9 -->
<g id="edge9" class="edge"><title>Node1&#45;&gt;Node9</title>
<path fill="none" stroke="midnightblue" d="M217.063,-106.705C193.844,-94.6306 168.134,-81.2616 145.674,-69.5821"/>
<polygon fill="none" stroke="midnightblue" points="215.678,-109.929 226.165,-111.437 218.907,-103.719 215.678,-109.929"/>
</g>
<!-- Node10 -->
<g id="node10" class="node"><title>Node10</title>
<g id="a_node10"><a xlink:href="class_hydro_couple_1_1_spatio_temporal_1_1_i_time3_d_regular_grid_exchange_item.html" target="_top" xlink:title="The ITime3DRegularGridExchangeItem class. ">
<polygon fill="white" stroke="black" points="189.714,-0.5 189.714,-74.5 382.086,-74.5 382.086,-0.5 189.714,-0.5"/>
<text text-anchor="start" x="197.714" y="-62.5" font-family="Helvetica,sans-Serif" font-size="10.00">HydroCouple::SpatioTemporal</text>
<text text-anchor="middle" x="285.9" y="-52.5" font-family="Helvetica,sans-Serif" font-size="10.00">::ITime3DRegularGridExchangeItem</text>
<polyline fill="none" stroke="black" points="189.714,-46.5 382.086,-46.5 "/>
<text text-anchor="middle" x="285.9" y="-34.5" font-family="Helvetica,sans-Serif" font-size="10.00"> </text>
<polyline fill="none" stroke="black" points="189.714,-28.5 382.086,-28.5 "/>
<text text-anchor="start" x="197.714" y="-16.5" font-family="Helvetica,sans-Serif" font-size="10.00">+ ~ITime3RegularGridExchangeItem()</text>
<text text-anchor="start" x="197.714" y="-6.5" font-family="Helvetica,sans-Serif" font-size="10.00">+ ~ITime3DRegularGridExchangeItem()</text>
</a>
</g>
</g>
<!-- Node1&#45;&gt;Node10 -->
<g id="edge10" class="edge"><title>Node1&#45;&gt;Node10</title>
<path fill="none" stroke="midnightblue" d="M279.281,-101.282C279.066,-92.5308 279.116,-83.3534 279.432,-74.8011"/>
<polygon fill="none" stroke="midnightblue" points="275.784,-101.434 279.655,-111.297 282.779,-101.173 275.784,-101.434"/>
</g>
<!-- Node1&#45;&gt;Node10 -->
<g id="edge11" class="edge"><title>Node1&#45;&gt;Node10</title>
<path fill="none" stroke="midnightblue" d="M292.52,-101.282C292.735,-92.5308 292.684,-83.3534 292.369,-74.8011"/>
<polygon fill="none" stroke="midnightblue" points="289.021,-101.173 292.146,-111.297 296.017,-101.434 289.021,-101.173"/>
</g>
<!-- Node2 -->
<g id="node2" class="node"><title>Node2</title>
<g id="a_node2"><a xlink:href="class_hydro_couple_1_1_temporal_1_1_i_time_component_item.html" target="_top" xlink:title="ITimeComponentItem is an IComponentItem with a temporal attribute. ">
<polygon fill="white" stroke="black" points="133.451,-212.5 133.451,-316.5 266.35,-316.5 266.35,-212.5 133.451,-212.5"/>
<text text-anchor="start" x="141.451" y="-304.5" font-family="Helvetica,sans-Serif" font-size="10.00">HydroCouple::Temporal</text>
<text text-anchor="middle" x="199.9" y="-294.5" font-family="Helvetica,sans-Serif" font-size="10.00">::ITimeComponentItem</text>
<polyline fill="none" stroke="black" points="133.451,-288.5 266.35,-288.5 "/>
<text text-anchor="middle" x="199.9" y="-276.5" font-family="Helvetica,sans-Serif" font-size="10.00"> </text>
<polyline fill="none" stroke="black" points="133.451,-270.5 266.35,-270.5 "/>
<text text-anchor="start" x="141.451" y="-258.5" font-family="Helvetica,sans-Serif" font-size="10.00">+ ~ITimeComponentItem()</text>
<text text-anchor="start" x="141.451" y="-248.5" font-family="Helvetica,sans-Serif" font-size="10.00">+ timeDimension()</text>
<text text-anchor="start" x="141.451" y="-238.5" font-family="Helvetica,sans-Serif" font-size="10.00">+ times()</text>
<text text-anchor="start" x="141.451" y="-228.5" font-family="Helvetica,sans-Serif" font-size="10.00">+ timeSpan()</text>
<text text-anchor="start" x="141.451" y="-218.5" font-family="Helvetica,sans-Serif" font-size="10.00">+ time()</text>
</a>
</g>
</g>
<!-- Node2&#45;&gt;Node1 -->
<g id="edge1" class="edge"><title>Node2&#45;&gt;Node1</title>
<path fill="none" stroke="midnightblue" d="M242.821,-204.109C249.926,-194.278 257.034,-184.444 263.368,-175.678"/>
<polygon fill="none" stroke="midnightblue" points="239.892,-202.188 236.871,-212.343 245.565,-206.288 239.892,-202.188"/>
</g>
<!-- Node3 -->
<g id="node3" class="node"><title>Node3</title>
<g id="a_node3"><a xlink:href="class_hydro_couple_1_1_i_component_item.html" target="_top" xlink:title="IComponentItem is a fundamental unit of data for a component. ">
<polygon fill="white" stroke="black" points="194.977,-504.5 194.977,-578.5 348.824,-578.5 348.824,-504.5 194.977,-504.5"/>
<text text-anchor="middle" x="271.9" y="-566.5" font-family="Helvetica,sans-Serif" font-size="10.00">HydroCouple::IComponentItem</text>
<polyline fill="none" stroke="black" points="194.977,-560.5 348.824,-560.5 "/>
<text text-anchor="middle" x="271.9" y="-548.5" font-family="Helvetica,sans-Serif" font-size="10.00"> </text>
<polyline fill="none" stroke="black" points="194.977,-542.5 348.824,-542.5 "/>
<text text-anchor="start" x="202.977" y="-530.5" font-family="Helvetica,sans-Serif" font-size="10.00">+ ~IComponentItem()</text>
<text text-anchor="start" x="202.977" y="-520.5" font-family="Helvetica,sans-Serif" font-size="10.00">+ modelComponent()</text>
<text text-anchor="start" x="202.977" y="-510.5" font-family="Helvetica,sans-Serif" font-size="10.00">+ dimensions()</text>
</a>
</g>
</g>
<!-- Node3&#45;&gt;Node2 -->
<g id="edge2" class="edge"><title>Node3&#45;&gt;Node2</title>
<path fill="none" stroke="midnightblue" d="M259.869,-494.545C247.018,-445.463 226.7,-367.86 213.335,-316.813"/>
<polygon fill="none" stroke="midnightblue" points="256.495,-495.478 262.414,-504.266 263.267,-493.705 256.495,-495.478"/>
</g>
<!-- Node8 -->
<g id="node8" class="node"><title>Node8</title>
<g id="a_node8"><a xlink:href="class_hydro_couple_1_1_spatial_1_1_i2_d_regular_grid_component_item.html" target="_top" xlink:title="An I2DRegularGridComponentItem represents an I2DRegularGrid IComponentItem. ">
<polygon fill="white" stroke="black" points="270.031,-353.5 270.031,-467.5 447.77,-467.5 447.77,-353.5 270.031,-353.5"/>
<text text-anchor="start" x="278.031" y="-455.5" font-family="Helvetica,sans-Serif" font-size="10.00">HydroCouple::Spatial</text>
<text text-anchor="middle" x="358.9" y="-445.5" font-family="Helvetica,sans-Serif" font-size="10.00">::I2DRegularGridComponentItem</text>
<polyline fill="none" stroke="black" points="270.031,-439.5 447.77,-439.5 "/>
<text text-anchor="middle" x="358.9" y="-427.5" font-family="Helvetica,sans-Serif" font-size="10.00"> </text>
<polyline fill="none" stroke="black" points="270.031,-421.5 447.77,-421.5 "/>
<text text-anchor="start" x="278.031" y="-409.5" font-family="Helvetica,sans-Serif" font-size="10.00">+ ~I2DRegularGridComponentItem()</text>
<text text-anchor="start" x="278.031" y="-399.5" font-family="Helvetica,sans-Serif" font-size="10.00">+ numXNodesDimension()</text>
<text text-anchor="start" x="278.031" y="-389.5" font-family="Helvetica,sans-Serif" font-size="10.00">+ numYNodesDimension()</text>
<text text-anchor="start" x="278.031" y="-379.5" font-family="Helvetica,sans-Serif" font-size="10.00">+ numXCellsDimension()</text>
<text text-anchor="start" x="278.031" y="-369.5" font-family="Helvetica,sans-Serif" font-size="10.00">+ numYCellsDimension()</text>
<text text-anchor="start" x="278.031" y="-359.5" font-family="Helvetica,sans-Serif" font-size="10.00">+ grid()</text>
</a>
</g>
</g>
<!-- Node3&#45;&gt;Node8 -->
<g id="edge8" class="edge"><title>Node3&#45;&gt;Node8</title>
<path fill="none" stroke="midnightblue" d="M302.071,-495.765C308.162,-486.733 314.64,-477.128 320.958,-467.759"/>
<polygon fill="none" stroke="midnightblue" points="299.056,-493.975 296.366,-504.223 304.859,-497.889 299.056,-493.975"/>
</g>
<!-- Node4 -->
<g id="node4" class="node"><title>Node4</title>
<g id="a_node4"><a xlink:href="class_hydro_couple_1_1_i_identity.html" target="_top" xlink:title="IIdentity interface class defines a method to get the Id of an HydroCouple entity. ">
<polygon fill="white" stroke="black" points="214.43,-615.5 214.43,-679.5 329.371,-679.5 329.371,-615.5 214.43,-615.5"/>
<text text-anchor="middle" x="271.9" y="-667.5" font-family="Helvetica,sans-Serif" font-size="10.00">HydroCouple::IIdentity</text>
<polyline fill="none" stroke="black" points="214.43,-661.5 329.371,-661.5 "/>
<text text-anchor="middle" x="271.9" y="-649.5" font-family="Helvetica,sans-Serif" font-size="10.00"> </text>
<polyline fill="none" stroke="black" points="214.43,-643.5 329.371,-643.5 "/>
<text text-anchor="start" x="222.43" y="-631.5" font-family="Helvetica,sans-Serif" font-size="10.00">+ ~IIdentity()</text>
<text text-anchor="start" x="222.43" y="-621.5" font-family="Helvetica,sans-Serif" font-size="10.00">+ id()</text>
</a>
</g>
</g>
<!-- Node4&#45;&gt;Node3 -->
<g id="edge3" class="edge"><title>Node4&#45;&gt;Node3</title>
<path fill="none" stroke="midnightblue" d="M271.9,-605.282C271.9,-596.531 271.9,-587.353 271.9,-578.801"/>
<polygon fill="none" stroke="midnightblue" points="268.4,-605.297 271.9,-615.297 275.4,-605.297 268.4,-605.297"/>
</g>
<!-- Node5 -->
<g id="node5" class="node"><title>Node5</title>
<g id="a_node5"><a xlink:href="class_hydro_couple_1_1_i_description.html" target="_top" xlink:title="IDescription interface class provides descriptive information on a HydroCouple object. ">
<polygon fill="white" stroke="black" points="205.541,-716.5 205.541,-810.5 338.26,-810.5 338.26,-716.5 205.541,-716.5"/>
<text text-anchor="middle" x="271.9" y="-798.5" font-family="Helvetica,sans-Serif" font-size="10.00">HydroCouple::IDescription</text>
<polyline fill="none" stroke="black" points="205.541,-792.5 338.26,-792.5 "/>
<text text-anchor="middle" x="271.9" y="-780.5" font-family="Helvetica,sans-Serif" font-size="10.00"> </text>
<polyline fill="none" stroke="black" points="205.541,-774.5 338.26,-774.5 "/>
<text text-anchor="start" x="213.541" y="-762.5" font-family="Helvetica,sans-Serif" font-size="10.00">+ ~IDescription()</text>
<text text-anchor="start" x="213.541" y="-752.5" font-family="Helvetica,sans-Serif" font-size="10.00">+ getCaption()</text>
<text text-anchor="start" x="213.541" y="-742.5" font-family="Helvetica,sans-Serif" font-size="10.00">+ setCaption()</text>
<text text-anchor="start" x="213.541" y="-732.5" font-family="Helvetica,sans-Serif" font-size="10.00">+ getDescription()</text>
<text text-anchor="start" x="213.541" y="-722.5" font-family="Helvetica,sans-Serif" font-size="10.00">+ setDescription()</text>
</a>
</g>
</g>
<!-- Node5&#45;&gt;Node4 -->
<g id="edge4" class="edge"><title>Node5&#45;&gt;Node4</title>
<path fill="none" stroke="midnightblue" d="M271.9,-706.212C271.9,-697.081 271.9,-687.926 271.9,-679.684"/>
<polygon fill="none" stroke="midnightblue" points="268.4,-706.46 271.9,-716.46 275.4,-706.46 268.4,-706.46"/>
</g>
<!-- Node6 -->
<g id="node6" class="node"><title>Node6</title>
<g id="a_node6"><a xlink:href="class_hydro_couple_1_1_i_property_changed.html" target="_top" xlink:title="IPropertyChanged interface is used to emit signal/event when a property of an object changes...">
<polygon fill="white" stroke="black" points="191.359,-847.5 191.359,-901.5 352.442,-901.5 352.442,-847.5 191.359,-847.5"/>
<text text-anchor="middle" x="271.9" y="-889.5" font-family="Helvetica,sans-Serif" font-size="10.00">HydroCouple::IPropertyChanged</text>
<polyline fill="none" stroke="black" points="191.359,-883.5 352.442,-883.5 "/>
<text text-anchor="middle" x="271.9" y="-871.5" font-family="Helvetica,sans-Serif" font-size="10.00"> </text>
<polyline fill="none" stroke="black" points="191.359,-865.5 352.442,-865.5 "/>
<text text-anchor="start" x="199.359" y="-853.5" font-family="Helvetica,sans-Serif" font-size="10.00">+ ~IPropertyChanged()</text>
</a>
</g>
</g>
<!-- Node6&#45;&gt;Node5 -->
<g id="edge5" class="edge"><title>Node6&#45;&gt;Node5</title>
<path fill="none" stroke="midnightblue" d="M271.9,-837.141C271.9,-828.716 271.9,-819.639 271.9,-810.851"/>
<polygon fill="none" stroke="midnightblue" points="268.4,-837.392 271.9,-847.392 275.4,-837.392 268.4,-837.392"/>
</g>
<!-- Node7 -->
<g id="node7" class="node"><title>Node7</title>
<g id="a_node7"><a xlink:href="class_hydro_couple_1_1_spatial_1_1_i3_d_regular_grid_component_item.html" target="_top" xlink:title="An I3DRegularGridComponentItem represents an I3DRegularGrid IComponentItem. ">
<polygon fill="white" stroke="black" points="284.031,-217.5 284.031,-311.5 461.77,-311.5 461.77,-217.5 284.031,-217.5"/>
<text text-anchor="start" x="292.031" y="-299.5" font-family="Helvetica,sans-Serif" font-size="10.00">HydroCouple::Spatial</text>
<text text-anchor="middle" x="372.9" y="-289.5" font-family="Helvetica,sans-Serif" font-size="10.00">::I3DRegularGridComponentItem</text>
<polyline fill="none" stroke="black" points="284.031,-283.5 461.77,-283.5 "/>
<text text-anchor="middle" x="372.9" y="-271.5" font-family="Helvetica,sans-Serif" font-size="10.00"> </text>
<polyline fill="none" stroke="black" points="284.031,-265.5 461.77,-265.5 "/>
<text text-anchor="start" x="292.031" y="-253.5" font-family="Helvetica,sans-Serif" font-size="10.00">+ ~I2DRegularGridComponentItem()</text>
<text text-anchor="start" x="292.031" y="-243.5" font-family="Helvetica,sans-Serif" font-size="10.00">+ numZNodesDimension()</text>
<text text-anchor="start" x="292.031" y="-233.5" font-family="Helvetica,sans-Serif" font-size="10.00">+ numZCellsDimension()</text>
<text text-anchor="start" x="292.031" y="-223.5" font-family="Helvetica,sans-Serif" font-size="10.00">+ grid()</text>
</a>
</g>
</g>
<!-- Node7&#45;&gt;Node1 -->
<g id="edge6" class="edge"><title>Node7&#45;&gt;Node1</title>
<path fill="none" stroke="midnightblue" d="M333.198,-209.195C324.797,-197.704 316.206,-185.952 308.69,-175.672"/>
<polygon fill="none" stroke="midnightblue" points="330.537,-211.484 339.264,-217.491 336.187,-207.353 330.537,-211.484"/>
</g>
<!-- Node8&#45;&gt;Node7 -->
<g id="edge7" class="edge"><title>Node8&#45;&gt;Node7</title>
<path fill="none" stroke="midnightblue" d="M365.335,-343.317C366.367,-332.7 367.416,-321.914 368.39,-311.889"/>
<polygon fill="none" stroke="midnightblue" points="361.837,-343.122 364.353,-353.414 368.805,-343.799 361.837,-343.122"/>
</g>
</g>
</svg>
        <g id="navigator" transform="translate(0 0)" fill="#404254">
                <rect fill="#f2f5e9" fill-opacity="0.5" stroke="#606060" stroke-width=".5" x="0" y="0" width="60" height="60"/>
                <use id="zoomplus" xlink:href="#zoomPlus" x="17" y="9" onmousedown="handleZoom(evt,'in')"/>
                <use id="zoomminus" xlink:href="#zoomMin" x="42" y="9" onmousedown="handleZoom(evt,'out')"/>
                <use id="reset" xlink:href="#resetDef" x="30" y="36" onmousedown="handleReset()"/>
                <g id="arrowUp" xlink:href="#dirArrow" transform="translate(30 24)" onmousedown="handlePan(0,-1)">
                  <use xlink:href="#rim" fill="#404040">
                        <set attributeName="fill" to="#808080" begin="arrowUp.mouseover" end="arrowUp.mouseout"/>
                  </use>
                  <path fill="none" stroke="white" stroke-width="1.5" d="M0,-3.0v7 M-2.5,-0.5L0,-3.0L2.5,-0.5"/>
                </g>
                <g id="arrowRight" xlink:href="#dirArrow" transform="rotate(90) translate(36 -43)" onmousedown="handlePan(1,0)">
                  <use xlink:href="#rim" fill="#404040">
                        <set attributeName="fill" to="#808080" begin="arrowRight.mouseover" end="arrowRight.mouseout"/>
                  </use>
                  <path fill="none" stroke="white" stroke-width="1.5" d="M0,-3.0v7 M-2.5,-0.5L0,-3.0L2.5,-0.5"/>
                </g>
                <g id="arrowDown" xlink:href="#dirArrow" transform="rotate(180) translate(-30 -48)" onmousedown="handlePan(0,1)">
                  <use xlink:href="#rim" fill="#404040">
                        <set attributeName="fill" to="#808080" begin="arrowDown.mouseover" end="arrowDown.mouseout"/>
                  </use>
                  <path fill="none" stroke="white" stroke-width="1.5" d="M0,-3.0v7 M-2.5,-0.5L0,-3.0L2.5,-0.5"/>
                </g>
                <g id="arrowLeft" xlink:href="#dirArrow" transform="rotate(270) translate(-36 17)" onmousedown="handlePan(-1,0)">
                  <use xlink:href="#rim" fill="#404040">
                        <set attributeName="fill" to="#808080" begin="arrowLeft.mouseover" end="arrowLeft.mouseout"/>
                  </use>
                  <path fill="none" stroke="white" stroke-width="1.5" d="M0,-3.0v7 M-2.5,-0.5L0,-3.0L2.5,-0.5"/>
                </g>
        </g>
        <svg viewBox="0 0 15 15" width="100%" height="30px" preserveAspectRatio="xMaxYMin meet">
         <g id="arrow_out" transform="scale(0.3 0.3)">
          <a xlink:href="class_hydro_couple_1_1_spatio_temporal_1_1_i_time3_d_regular_grid_component_item__inherit__graph_org.svg" target="_base">
           <rect id="button" ry="5" rx="5" y="6" x="6" height="38" width="38"
                fill="#f2f5e9" fill-opacity="0.5" stroke="#606060" stroke-width="1.0"/>
           <path id="arrow"
             d="M 11.500037,31.436501 C 11.940474,20.09759 22.043105,11.32322 32.158766,21.979434 L 37.068811,17.246167 C 37.068811,17.246167 37.088388,32 37.088388,32 L 22.160133,31.978069 C 22.160133,31.978069 26.997745,27.140456 26.997745,27.140456 C 18.528582,18.264221 13.291696,25.230495 11.500037,31.436501 z"
             style="fill:#404040;"/>
          </a>
         </g>
        </svg>
</svg>
