<?xml version="1.0" encoding="UTF-8" standalone="no"?>
<!DOCTYPE svg PUBLIC "-//W3C//DTD SVG 1.1//EN"
 "http://www.w3.org/Graphics/SVG/1.1/DTD/svg11.dtd">
<!-- Generated by graphviz version 2.38.0 (20140413.2041)
 -->
<!-- Title: HydroCouple::IDescription Pages: 1 -->
<svg width="169pt" height="194pt"
 viewBox="0.00 0.00 169.08 194.00" xmlns="http://www.w3.org/2000/svg" xmlns:xlink="http://www.w3.org/1999/xlink">
<g id="graph0" class="graph" transform="scale(1 1) rotate(0) translate(4 190)">
<title>HydroCouple::IDescription</title>
<polygon fill="white" stroke="none" points="-4,4 -4,-190 165.083,-190 165.083,4 -4,4"/>
<!-- Node1 -->
<g id="node1" class="node"><title>Node1</title>
<polygon fill="#bfbfbf" stroke="black" points="14.1821,-0.5 14.1821,-94.5 146.901,-94.5 146.901,-0.5 14.1821,-0.5"/>
<text text-anchor="middle" x="80.5415" y="-82.5" font-family="Helvetica,sans-Serif" font-size="10.00">HydroCouple::IDescription</text>
<polyline fill="none" stroke="black" points="14.1821,-76.5 146.901,-76.5 "/>
<text text-anchor="middle" x="80.5415" y="-64.5" font-family="Helvetica,sans-Serif" font-size="10.00"> </text>
<polyline fill="none" stroke="black" points="14.1821,-58.5 146.901,-58.5 "/>
<text text-anchor="start" x="22.1821" y="-46.5" font-family="Helvetica,sans-Serif" font-size="10.00">+ ~IDescription()</text>
<text text-anchor="start" x="22.1821" y="-36.5" font-family="Helvetica,sans-Serif" font-size="10.00">+ getCaption()</text>
<text text-anchor="start" x="22.1821" y="-26.5" font-family="Helvetica,sans-Serif" font-size="10.00">+ setCaption()</text>
<text text-anchor="start" x="22.1821" y="-16.5" font-family="Helvetica,sans-Serif" font-size="10.00">+ getDescription()</text>
<text text-anchor="start" x="22.1821" y="-6.5" font-family="Helvetica,sans-Serif" font-size="10.00">+ setDescription()</text>
</g>
<!-- Node2 -->
<g id="node2" class="node"><title>Node2</title>
<g id="a_node2"><a xlink:href="class_hydro_couple_1_1_i_property_changed.html" target="_top" xlink:title="IPropertyChanged interface is used to emit signal/event when a property of an object changes...">
<polygon fill="white" stroke="black" points="0,-131.5 0,-185.5 161.083,-185.5 161.083,-131.5 0,-131.5"/>
<text text-anchor="middle" x="80.5415" y="-173.5" font-family="Helvetica,sans-Serif" font-size="10.00">HydroCouple::IPropertyChanged</text>
<polyline fill="none" stroke="black" points="0,-167.5 161.083,-167.5 "/>
<text text-anchor="middle" x="80.5415" y="-155.5" font-family="Helvetica,sans-Serif" font-size="10.00"> </text>
<polyline fill="none" stroke="black" points="0,-149.5 161.083,-149.5 "/>
<text text-anchor="start" x="8" y="-137.5" font-family="Helvetica,sans-Serif" font-size="10.00">+ ~IPropertyChanged()</text>
</a>
</g>
</g>
<!-- Node2&#45;&gt;Node1 -->
<g id="edge1" class="edge"><title>Node2&#45;&gt;Node1</title>
<path fill="none" stroke="midnightblue" d="M80.5415,-121.141C80.5415,-112.716 80.5415,-103.639 80.5415,-94.8505"/>
<polygon fill="none" stroke="midnightblue" points="77.0416,-121.392 80.5415,-131.392 84.0416,-121.392 77.0416,-121.392"/>
</g>
</g>
</svg>
