<?xml version="1.0" encoding="UTF-8" standalone="no"?>
<!DOCTYPE svg PUBLIC "-//W3C//DTD SVG 1.1//EN"
 "http://www.w3.org/Graphics/SVG/1.1/DTD/svg11.dtd">
<!-- Generated by graphviz version 2.38.0 (20140413.2041)
 -->
<!-- Title: HydroCouple::Spatial::ISpatialReferenceSystem Pages: 1 -->
<svg width="198pt" height="523pt"
 viewBox="0.00 0.00 198.03 522.70" xmlns="http://www.w3.org/2000/svg" xmlns:xlink="http://www.w3.org/1999/xlink">
<g id="graph0" class="graph" transform="scale(1 1) rotate(0) translate(4 518.704)">
<title>HydroCouple::Spatial::ISpatialReferenceSystem</title>
<polygon fill="white" stroke="none" points="-4,4 -4,-518.704 194.028,-518.704 194.028,4 -4,4"/>
<!-- Node1 -->
<g id="node1" class="node"><title>Node1</title>
<polygon fill="#bfbfbf" stroke="black" points="3.00049,-0.5 3.00049,-117.845 187.028,-117.845 187.028,-0.5 3.00049,-0.5"/>
<text text-anchor="start" x="11.0005" y="-105.845" font-family="Monaco" font-size="10.00">HydroCouple::Spatial</text>
<text text-anchor="middle" x="95.0142" y="-92.5098" font-family="Monaco" font-size="10.00">::ISpatialReferenceSystem</text>
<polyline fill="none" stroke="black" points="3.00049,-83.1748 187.028,-83.1748 "/>
<text text-anchor="middle" x="95.0142" y="-71.1748" font-family="Monaco" font-size="10.00"> </text>
<polyline fill="none" stroke="black" points="3.00049,-61.8398 187.028,-61.8398 "/>
<text text-anchor="start" x="11.0005" y="-49.8398" font-family="Monaco" font-size="10.00">+ ~ISpatialReferenceSystem()</text>
<text text-anchor="start" x="11.0005" y="-36.5049" font-family="Monaco" font-size="10.00">+ authSRID()</text>
<text text-anchor="start" x="11.0005" y="-23.1699" font-family="Monaco" font-size="10.00">+ authName()</text>
<text text-anchor="start" x="11.0005" y="-9.83496" font-family="Monaco" font-size="10.00">+ srText()</text>
</g>
<!-- Node2 -->
<g id="node2" class="node"><title>Node2</title>
<g id="a_node2"><a xlink:href="class_hydro_couple_1_1_i_identity.html" target="_top" xlink:title="IIdentity interface class defines a method to get the Id of an HydroCouple entity. ">
<polygon fill="white" stroke="black" points="21.0034,-154.845 21.0034,-258.854 169.025,-258.854 169.025,-154.845 21.0034,-154.845"/>
<text text-anchor="middle" x="95.0142" y="-246.854" font-family="Monaco" font-size="10.00">HydroCouple::IIdentity</text>
<polyline fill="none" stroke="black" points="21.0034,-237.52 169.025,-237.52 "/>
<text text-anchor="middle" x="95.0142" y="-225.52" font-family="Monaco" font-size="10.00"> </text>
<polyline fill="none" stroke="black" points="21.0034,-216.185 169.025,-216.185 "/>
<text text-anchor="start" x="29.0034" y="-204.185" font-family="Monaco" font-size="10.00">+ ~IIdentity()</text>
<text text-anchor="start" x="29.0034" y="-190.85" font-family="Monaco" font-size="10.00">+ MPI_Comm()</text>
<text text-anchor="start" x="29.0034" y="-177.515" font-family="Monaco" font-size="10.00">+ MPI_Rank()</text>
<text text-anchor="start" x="29.0034" y="-164.18" font-family="Monaco" font-size="10.00">+ id()</text>
</a>
</g>
</g>
<!-- Node2&#45;&gt;Node1 -->
<g id="edge1" class="edge"><title>Node2&#45;&gt;Node1</title>
<path fill="none" stroke="midnightblue" d="M95.0142,-144.372C95.0142,-135.639 95.0142,-126.683 95.0142,-118.023"/>
<polygon fill="none" stroke="midnightblue" points="91.5143,-144.489 95.0142,-154.489 98.5143,-144.489 91.5143,-144.489"/>
</g>
<!-- Node3 -->
<g id="node3" class="node"><title>Node3</title>
<g id="a_node3"><a xlink:href="class_hydro_couple_1_1_i_description.html" target="_top" xlink:title="IDescription interface class provides descriptive information on a HydroCouple object. ">
<polygon fill="white" stroke="black" points="12.002,-295.854 12.002,-413.199 178.026,-413.199 178.026,-295.854 12.002,-295.854"/>
<text text-anchor="middle" x="95.0142" y="-401.199" font-family="Monaco" font-size="10.00">HydroCouple::IDescription</text>
<polyline fill="none" stroke="black" points="12.002,-391.864 178.026,-391.864 "/>
<text text-anchor="middle" x="95.0142" y="-379.864" font-family="Monaco" font-size="10.00"> </text>
<polyline fill="none" stroke="black" points="12.002,-370.529 178.026,-370.529 "/>
<text text-anchor="start" x="20.002" y="-358.529" font-family="Monaco" font-size="10.00">+ ~IDescription()</text>
<text text-anchor="start" x="20.002" y="-345.194" font-family="Monaco" font-size="10.00">+ getCaption()</text>
<text text-anchor="start" x="20.002" y="-331.859" font-family="Monaco" font-size="10.00">+ setCaption()</text>
<text text-anchor="start" x="20.002" y="-318.524" font-family="Monaco" font-size="10.00">+ getDescription()</text>
<text text-anchor="start" x="20.002" y="-305.189" font-family="Monaco" font-size="10.00">+ setDescription()</text>
</a>
</g>
</g>
<!-- Node3&#45;&gt;Node2 -->
<g id="edge2" class="edge"><title>Node3&#45;&gt;Node2</title>
<path fill="none" stroke="midnightblue" d="M95.0142,-285.253C95.0142,-276.435 95.0142,-267.528 95.0142,-259.05"/>
<polygon fill="none" stroke="midnightblue" points="91.5143,-285.533 95.0142,-295.533 98.5143,-285.533 91.5143,-285.533"/>
</g>
<!-- Node4 -->
<g id="node4" class="node"><title>Node4</title>
<g id="a_node4"><a xlink:href="class_hydro_couple_1_1_i_property_changed.html" target="_top" xlink:title="IPropertyChanged interface is used to emit signal/event when a property of an object changes...">
<polygon fill="white" stroke="black" points="0,-450.199 0,-514.204 190.028,-514.204 190.028,-450.199 0,-450.199"/>
<text text-anchor="middle" x="95.0142" y="-502.204" font-family="Monaco" font-size="10.00">HydroCouple::IPropertyChanged</text>
<polyline fill="none" stroke="black" points="0,-492.869 190.028,-492.869 "/>
<text text-anchor="middle" x="95.0142" y="-480.869" font-family="Monaco" font-size="10.00"> </text>
<polyline fill="none" stroke="black" points="0,-471.534 190.028,-471.534 "/>
<text text-anchor="start" x="8" y="-459.534" font-family="Monaco" font-size="10.00">+ ~IPropertyChanged()</text>
</a>
</g>
</g>
<!-- Node4&#45;&gt;Node3 -->
<g id="edge3" class="edge"><title>Node4&#45;&gt;Node3</title>
<path fill="none" stroke="midnightblue" d="M95.0142,-439.879C95.0142,-431.494 95.0142,-422.527 95.0142,-413.685"/>
<polygon fill="none" stroke="midnightblue" points="91.5143,-440.136 95.0142,-450.136 98.5143,-440.136 91.5143,-440.136"/>
</g>
</g>
</svg>
