<?xml version="1.0" encoding="UTF-8" standalone="no"?>
<!DOCTYPE svg PUBLIC "-//W3C//DTD SVG 1.1//EN"
 "http://www.w3.org/Graphics/SVG/1.1/DTD/svg11.dtd">
<!-- Generated by graphviz version 2.38.0 (20140413.2041)
 -->
<!-- Title: HydroCouple::Spatial::IGeometry Pages: 1 -->
<!--zoomable 1940 -->
<svg id="main" version="1.1" xmlns="http://www.w3.org/2000/svg" xmlns:xlink="http://www.w3.org/1999/xlink" xml:space="preserve" onload="init(evt)">
<style type="text/css"><![CDATA[
.edge:hover path { stroke: red; }
.edge:hover polygon { stroke: red; fill: red; }
]]></style>
<script type="text/javascript"><![CDATA[
var edges = document.getElementsByTagName('g');
if (edges && edges.length) {
  for (var i=0;i<edges.length;i++) {
    if (edges[i].id.substr(0,4)=='edge') {
      edges[i].setAttribute('class','edge');
    }
  }
}
]]></script>
        <defs>
                <circle id="rim" cx="0" cy="0" r="7"/>
                <circle id="rim2" cx="0" cy="0" r="3.5"/>
                <g id="zoomPlus">
                        <use xlink:href="#rim" fill="#404040">
                                <set attributeName="fill" to="#808080" begin="zoomplus.mouseover" end="zoomplus.mouseout"/>
                        </use>
                        <path d="M-4,0h8M0,-4v8" fill="none" stroke="white" stroke-width="1.5" pointer-events="none"/>
                </g>
                <g id="zoomMin">
                        <use xlink:href="#rim" fill="#404040">
                                <set attributeName="fill" to="#808080" begin="zoomminus.mouseover" end="zoomminus.mouseout"/>
                        </use>
                        <path d="M-4,0h8" fill="none" stroke="white" stroke-width="1.5" pointer-events="none"/>
                </g>
                <g id="dirArrow">
                        <path fill="none" stroke="white" stroke-width="1.5" d="M0,-3.0v7 M-2.5,-0.5L0,-3.0L2.5,-0.5"/>
                </g>
               <g id="resetDef">
                       <use xlink:href="#rim2" fill="#404040">
                               <set attributeName="fill" to="#808080" begin="reset.mouseover" end="reset.mouseout"/>
                       </use>
               </g>
        </defs>

<script type="text/javascript">
var viewWidth = 1247;
var viewHeight = 1940;
var sectionId = 'dynsection-0';
</script>
<script xlink:href="svgpan.js"/>
<svg id="graph" class="graph">
<g id="viewport">
<title>HydroCouple::Spatial::IGeometry</title>
<polygon fill="white" stroke="none" points="-4,4 -4,-1936.18 1243.02,-1936.18 1243.02,4 -4,4"/>
<!-- Node1 -->
<g id="node1" class="node"><title>Node1</title>
<polygon fill="#bfbfbf" stroke="black" points="579.997,-804.568 579.997,-1535.32 752.022,-1535.32 752.022,-804.568 579.997,-804.568"/>
<text text-anchor="start" x="587.997" y="-1523.32" font-family="Monaco" font-size="10.00">HydroCouple::Spatial</text>
<text text-anchor="middle" x="666.01" y="-1509.99" font-family="Monaco" font-size="10.00">::IGeometry</text>
<polyline fill="none" stroke="black" points="579.997,-1500.65 752.022,-1500.65 "/>
<text text-anchor="middle" x="666.01" y="-1488.65" font-family="Monaco" font-size="10.00"> </text>
<polyline fill="none" stroke="black" points="579.997,-1479.32 752.022,-1479.32 "/>
<text text-anchor="start" x="587.997" y="-1467.32" font-family="Monaco" font-size="10.00">+ ~IGeometry()</text>
<text text-anchor="start" x="587.997" y="-1453.98" font-family="Monaco" font-size="10.00">+ index()</text>
<text text-anchor="start" x="587.997" y="-1440.65" font-family="Monaco" font-size="10.00">+ dimension()</text>
<text text-anchor="start" x="587.997" y="-1427.31" font-family="Monaco" font-size="10.00">+ coordinateDimension()</text>
<text text-anchor="start" x="587.997" y="-1413.98" font-family="Monaco" font-size="10.00">+ geometryType()</text>
<text text-anchor="start" x="587.997" y="-1400.64" font-family="Monaco" font-size="10.00">+ spatialReferenceSystem()</text>
<text text-anchor="start" x="587.997" y="-1387.31" font-family="Monaco" font-size="10.00">+ envelope()</text>
<text text-anchor="start" x="587.997" y="-1373.97" font-family="Monaco" font-size="10.00">+ wkt()</text>
<text text-anchor="start" x="587.997" y="-1360.64" font-family="Monaco" font-size="10.00">+ wkb()</text>
<text text-anchor="start" x="587.997" y="-1347.3" font-family="Monaco" font-size="10.00">+ isEmpty()</text>
<text text-anchor="start" x="587.997" y="-1333.97" font-family="Monaco" font-size="10.00">+ isSimple()</text>
<text text-anchor="start" x="587.997" y="-1320.63" font-family="Monaco" font-size="10.00">+ is3D()</text>
<text text-anchor="start" x="587.997" y="-1307.3" font-family="Monaco" font-size="10.00">+ isMeasured()</text>
<text text-anchor="start" x="587.997" y="-1293.96" font-family="Monaco" font-size="10.00">+ boundary()</text>
<text text-anchor="start" x="587.997" y="-1280.63" font-family="Monaco" font-size="10.00">+ equals()</text>
<text text-anchor="start" x="587.997" y="-1267.29" font-family="Monaco" font-size="10.00">+ disjoint()</text>
<text text-anchor="start" x="587.997" y="-1253.96" font-family="Monaco" font-size="10.00">+ intersects()</text>
<text text-anchor="start" x="587.997" y="-1240.62" font-family="Monaco" font-size="10.00">+ touches()</text>
<text text-anchor="start" x="587.997" y="-1227.29" font-family="Monaco" font-size="10.00">+ crosses()</text>
<text text-anchor="start" x="587.997" y="-1213.95" font-family="Monaco" font-size="10.00">+ within()</text>
<text text-anchor="start" x="587.997" y="-1200.62" font-family="Monaco" font-size="10.00">+ contains()</text>
<text text-anchor="start" x="587.997" y="-1187.28" font-family="Monaco" font-size="10.00">+ overlaps()</text>
<text text-anchor="start" x="587.997" y="-1173.95" font-family="Monaco" font-size="10.00">+ relate()</text>
<text text-anchor="start" x="587.997" y="-1160.61" font-family="Monaco" font-size="10.00">+ loocateAlong()</text>
<text text-anchor="start" x="587.997" y="-1147.28" font-family="Monaco" font-size="10.00">+ locateBetween()</text>
<text text-anchor="start" x="587.997" y="-1133.94" font-family="Monaco" font-size="10.00">+ distance()</text>
<text text-anchor="start" x="587.997" y="-1120.61" font-family="Monaco" font-size="10.00">+ buffer()</text>
<text text-anchor="start" x="587.997" y="-1107.27" font-family="Monaco" font-size="10.00">+ convexHull()</text>
<text text-anchor="start" x="587.997" y="-1093.94" font-family="Monaco" font-size="10.00">+ intersection()</text>
<text text-anchor="start" x="587.997" y="-1080.6" font-family="Monaco" font-size="10.00">+ uniong()</text>
<text text-anchor="start" x="587.997" y="-1067.27" font-family="Monaco" font-size="10.00">+ difference()</text>
<text text-anchor="start" x="587.997" y="-1053.93" font-family="Monaco" font-size="10.00">+ symmetricDifference()</text>
<text text-anchor="start" x="587.997" y="-1040.6" font-family="Monaco" font-size="10.00">* equals()</text>
<text text-anchor="start" x="587.997" y="-1027.26" font-family="Monaco" font-size="10.00">* disjoint()</text>
<text text-anchor="start" x="587.997" y="-1013.93" font-family="Monaco" font-size="10.00">* intersects()</text>
<text text-anchor="start" x="587.997" y="-1000.59" font-family="Monaco" font-size="10.00">* touches()</text>
<text text-anchor="start" x="587.997" y="-987.258" font-family="Monaco" font-size="10.00">* crosses()</text>
<text text-anchor="start" x="587.997" y="-973.923" font-family="Monaco" font-size="10.00">* within()</text>
<text text-anchor="start" x="587.997" y="-960.588" font-family="Monaco" font-size="10.00">* contains()</text>
<text text-anchor="start" x="587.997" y="-947.253" font-family="Monaco" font-size="10.00">* overlaps()</text>
<text text-anchor="start" x="587.997" y="-933.918" font-family="Monaco" font-size="10.00">* relate()</text>
<text text-anchor="start" x="587.997" y="-920.583" font-family="Monaco" font-size="10.00">* loocateAlong()</text>
<text text-anchor="start" x="587.997" y="-907.248" font-family="Monaco" font-size="10.00">* locateBetween()</text>
<text text-anchor="start" x="587.997" y="-893.913" font-family="Monaco" font-size="10.00">* distance()</text>
<text text-anchor="start" x="587.997" y="-880.578" font-family="Monaco" font-size="10.00">* buffer()</text>
<text text-anchor="start" x="587.997" y="-867.243" font-family="Monaco" font-size="10.00">* convexHull()</text>
<text text-anchor="start" x="587.997" y="-853.908" font-family="Monaco" font-size="10.00">* intersection()</text>
<text text-anchor="start" x="587.997" y="-840.573" font-family="Monaco" font-size="10.00">* uniong()</text>
<text text-anchor="start" x="587.997" y="-827.238" font-family="Monaco" font-size="10.00">* difference()</text>
<text text-anchor="start" x="587.997" y="-813.903" font-family="Monaco" font-size="10.00">* symmetricDifference()</text>
</g>
<!-- Node5 -->
<g id="node5" class="node"><title>Node5</title>
<g id="a_node5"><a xlink:href="class_hydro_couple_1_1_spatial_1_1_i_curve.html" target="_top" xlink:title="A Curve is a 1&#45;dimensional geometric object usually stored as a sequence of IPoints, with the subtype of ICurve specifying the form of the interpolation between IPoints. ">
<polygon fill="white" stroke="black" points="261,-623.554 261,-767.568 397.02,-767.568 397.02,-623.554 261,-623.554"/>
<text text-anchor="start" x="269" y="-755.568" font-family="Monaco" font-size="10.00">HydroCouple::Spatial</text>
<text text-anchor="middle" x="329.01" y="-742.233" font-family="Monaco" font-size="10.00">::ICurve</text>
<polyline fill="none" stroke="black" points="261,-732.898 397.02,-732.898 "/>
<text text-anchor="middle" x="329.01" y="-720.898" font-family="Monaco" font-size="10.00"> </text>
<polyline fill="none" stroke="black" points="261,-711.563 397.02,-711.563 "/>
<text text-anchor="start" x="269" y="-699.563" font-family="Monaco" font-size="10.00">+ ~ICurve()</text>
<text text-anchor="start" x="269" y="-686.229" font-family="Monaco" font-size="10.00">+ length()</text>
<text text-anchor="start" x="269" y="-672.894" font-family="Monaco" font-size="10.00">+ startPoint()</text>
<text text-anchor="start" x="269" y="-659.559" font-family="Monaco" font-size="10.00">+ endPoint()</text>
<text text-anchor="start" x="269" y="-646.224" font-family="Monaco" font-size="10.00">+ isClosed()</text>
<text text-anchor="start" x="269" y="-632.889" font-family="Monaco" font-size="10.00">+ isRing()</text>
</a>
</g>
</g>
<!-- Node1&#45;&gt;Node5 -->
<g id="edge4" class="edge"><title>Node1&#45;&gt;Node5</title>
<path fill="none" stroke="midnightblue" d="M573.889,-1039.82C511.389,-952.207 431.106,-839.672 379.841,-767.812"/>
<polygon fill="none" stroke="midnightblue" points="571.223,-1042.11 579.88,-1048.21 576.922,-1038.04 571.223,-1042.11"/>
</g>
<!-- Node10 -->
<g id="node10" class="node"><title>Node10</title>
<g id="a_node10"><a xlink:href="class_hydro_couple_1_1_spatial_1_1_i_geometry_collection.html" target="_top" xlink:title="An IGeometryCollection is a geometric object that is a collection of some number of IGeometry objects...">
<polygon fill="white" stroke="black" points="485.998,-643.556 485.998,-747.566 646.021,-747.566 646.021,-643.556 485.998,-643.556"/>
<text text-anchor="start" x="493.998" y="-735.566" font-family="Monaco" font-size="10.00">HydroCouple::Spatial</text>
<text text-anchor="middle" x="566.01" y="-722.231" font-family="Monaco" font-size="10.00">::IGeometryCollection</text>
<polyline fill="none" stroke="black" points="485.998,-712.896 646.021,-712.896 "/>
<text text-anchor="middle" x="566.01" y="-700.896" font-family="Monaco" font-size="10.00"> </text>
<polyline fill="none" stroke="black" points="485.998,-691.561 646.021,-691.561 "/>
<text text-anchor="start" x="493.998" y="-679.561" font-family="Monaco" font-size="10.00">+ ~IGeometryCollection()</text>
<text text-anchor="start" x="493.998" y="-666.226" font-family="Monaco" font-size="10.00">+ geometryCount()</text>
<text text-anchor="start" x="493.998" y="-652.891" font-family="Monaco" font-size="10.00">+ geometry()</text>
</a>
</g>
</g>
<!-- Node1&#45;&gt;Node10 -->
<g id="edge9" class="edge"><title>Node1&#45;&gt;Node10</title>
<path fill="none" stroke="midnightblue" d="M586.75,-794.535C583.072,-777.158 579.719,-761.321 576.832,-747.684"/>
<polygon fill="none" stroke="midnightblue" points="583.331,-795.285 588.826,-804.343 590.179,-793.835 583.331,-795.285"/>
</g>
<!-- Node17 -->
<g id="node17" class="node"><title>Node17</title>
<g id="a_node17"><a xlink:href="class_hydro_couple_1_1_spatial_1_1_i_point.html" target="_top" xlink:title="An IPoint is a 0&#45;dimensional geometric object and represents a single location in coordinate space...">
<polygon fill="white" stroke="black" points="699,-630.221 699,-760.901 835.02,-760.901 835.02,-630.221 699,-630.221"/>
<text text-anchor="start" x="707" y="-748.901" font-family="Monaco" font-size="10.00">HydroCouple::Spatial</text>
<text text-anchor="middle" x="767.01" y="-735.566" font-family="Monaco" font-size="10.00">::IPoint</text>
<polyline fill="none" stroke="black" points="699,-726.231 835.02,-726.231 "/>
<text text-anchor="middle" x="767.01" y="-714.231" font-family="Monaco" font-size="10.00"> </text>
<polyline fill="none" stroke="black" points="699,-704.896 835.02,-704.896 "/>
<text text-anchor="start" x="707" y="-692.896" font-family="Monaco" font-size="10.00">+ ~IPoint()</text>
<text text-anchor="start" x="707" y="-679.561" font-family="Monaco" font-size="10.00">+ x()</text>
<text text-anchor="start" x="707" y="-666.226" font-family="Monaco" font-size="10.00">+ y()</text>
<text text-anchor="start" x="707" y="-652.891" font-family="Monaco" font-size="10.00">+ z()</text>
<text text-anchor="start" x="707" y="-639.556" font-family="Monaco" font-size="10.00">+ m()</text>
</a>
</g>
</g>
<!-- Node1&#45;&gt;Node17 -->
<g id="edge16" class="edge"><title>Node1&#45;&gt;Node17</title>
<path fill="none" stroke="midnightblue" d="M746.124,-794.247C748.652,-782.422 751.027,-771.314 753.204,-761.13"/>
<polygon fill="none" stroke="midnightblue" points="742.633,-793.833 743.965,-804.343 749.478,-795.296 742.633,-793.833"/>
</g>
<!-- Node19 -->
<g id="node19" class="node"><title>Node19</title>
<g id="a_node19"><a xlink:href="class_hydro_couple_1_1_spatial_1_1_i_surface.html" target="_top" xlink:title="A ISurface is a 2&#45;dimensional IGeometry object. ">
<polygon fill="white" stroke="black" points="921.999,-630.221 921.999,-760.901 1070.02,-760.901 1070.02,-630.221 921.999,-630.221"/>
<text text-anchor="start" x="929.999" y="-748.901" font-family="Monaco" font-size="10.00">HydroCouple::Spatial</text>
<text text-anchor="middle" x="996.01" y="-735.566" font-family="Monaco" font-size="10.00">::ISurface</text>
<polyline fill="none" stroke="black" points="921.999,-726.231 1070.02,-726.231 "/>
<text text-anchor="middle" x="996.01" y="-714.231" font-family="Monaco" font-size="10.00"> </text>
<polyline fill="none" stroke="black" points="921.999,-704.896 1070.02,-704.896 "/>
<text text-anchor="start" x="929.999" y="-692.896" font-family="Monaco" font-size="10.00">+ ~ISurface()</text>
<text text-anchor="start" x="929.999" y="-679.561" font-family="Monaco" font-size="10.00">+ area()</text>
<text text-anchor="start" x="929.999" y="-666.226" font-family="Monaco" font-size="10.00">+ centroid()</text>
<text text-anchor="start" x="929.999" y="-652.891" font-family="Monaco" font-size="10.00">+ pointOnSurface()</text>
<text text-anchor="start" x="929.999" y="-639.556" font-family="Monaco" font-size="10.00">+ boundaryMultiCurve()</text>
</a>
</g>
</g>
<!-- Node1&#45;&gt;Node19 -->
<g id="edge18" class="edge"><title>Node1&#45;&gt;Node19</title>
<path fill="none" stroke="midnightblue" d="M757.906,-1037.4C820.824,-947.333 901.518,-831.822 950.957,-761.053"/>
<polygon fill="none" stroke="midnightblue" points="754.925,-1035.55 752.067,-1045.76 760.663,-1039.56 754.925,-1035.55"/>
</g>
<!-- Node2 -->
<g id="node2" class="node"><title>Node2</title>
<g id="a_node2"><a xlink:href="class_hydro_couple_1_1_i_identity.html" target="_top" xlink:title="IIdentity interface class defines a method to get the Id of an HydroCouple entity. ">
<polygon fill="white" stroke="black" points="591.999,-1572.32 591.999,-1676.33 740.021,-1676.33 740.021,-1572.32 591.999,-1572.32"/>
<text text-anchor="middle" x="666.01" y="-1664.33" font-family="Monaco" font-size="10.00">HydroCouple::IIdentity</text>
<polyline fill="none" stroke="black" points="591.999,-1655 740.021,-1655 "/>
<text text-anchor="middle" x="666.01" y="-1643" font-family="Monaco" font-size="10.00"> </text>
<polyline fill="none" stroke="black" points="591.999,-1633.66 740.021,-1633.66 "/>
<text text-anchor="start" x="599.999" y="-1621.66" font-family="Monaco" font-size="10.00">+ ~IIdentity()</text>
<text text-anchor="start" x="599.999" y="-1608.33" font-family="Monaco" font-size="10.00">+ MPI_Comm()</text>
<text text-anchor="start" x="599.999" y="-1594.99" font-family="Monaco" font-size="10.00">+ MPI_Rank()</text>
<text text-anchor="start" x="599.999" y="-1581.66" font-family="Monaco" font-size="10.00">+ id()</text>
</a>
</g>
</g>
<!-- Node2&#45;&gt;Node1 -->
<g id="edge1" class="edge"><title>Node2&#45;&gt;Node1</title>
<path fill="none" stroke="midnightblue" d="M666.01,-1562.17C666.01,-1553.88 666.01,-1544.95 666.01,-1535.49"/>
<polygon fill="none" stroke="midnightblue" points="662.51,-1562.31 666.01,-1572.31 669.51,-1562.31 662.51,-1562.31"/>
</g>
<!-- Node3 -->
<g id="node3" class="node"><title>Node3</title>
<g id="a_node3"><a xlink:href="class_hydro_couple_1_1_i_description.html" target="_top" xlink:title="IDescription interface class provides descriptive information on a HydroCouple object. ">
<polygon fill="white" stroke="black" points="582.998,-1713.33 582.998,-1830.68 749.022,-1830.68 749.022,-1713.33 582.998,-1713.33"/>
<text text-anchor="middle" x="666.01" y="-1818.68" font-family="Monaco" font-size="10.00">HydroCouple::IDescription</text>
<polyline fill="none" stroke="black" points="582.998,-1809.34 749.022,-1809.34 "/>
<text text-anchor="middle" x="666.01" y="-1797.34" font-family="Monaco" font-size="10.00"> </text>
<polyline fill="none" stroke="black" points="582.998,-1788.01 749.022,-1788.01 "/>
<text text-anchor="start" x="590.998" y="-1776.01" font-family="Monaco" font-size="10.00">+ ~IDescription()</text>
<text text-anchor="start" x="590.998" y="-1762.67" font-family="Monaco" font-size="10.00">+ getCaption()</text>
<text text-anchor="start" x="590.998" y="-1749.34" font-family="Monaco" font-size="10.00">+ setCaption()</text>
<text text-anchor="start" x="590.998" y="-1736" font-family="Monaco" font-size="10.00">+ getDescription()</text>
<text text-anchor="start" x="590.998" y="-1722.67" font-family="Monaco" font-size="10.00">+ setDescription()</text>
</a>
</g>
</g>
<!-- Node3&#45;&gt;Node2 -->
<g id="edge2" class="edge"><title>Node3&#45;&gt;Node2</title>
<path fill="none" stroke="midnightblue" d="M666.01,-1702.73C666.01,-1693.91 666.01,-1685 666.01,-1676.53"/>
<polygon fill="none" stroke="midnightblue" points="662.51,-1703.01 666.01,-1713.01 669.51,-1703.01 662.51,-1703.01"/>
</g>
<!-- Node4 -->
<g id="node4" class="node"><title>Node4</title>
<g id="a_node4"><a xlink:href="class_hydro_couple_1_1_i_property_changed.html" target="_top" xlink:title="IPropertyChanged interface is used to emit signal/event when a property of an object changes...">
<polygon fill="white" stroke="black" points="570.996,-1867.68 570.996,-1931.68 761.024,-1931.68 761.024,-1867.68 570.996,-1867.68"/>
<text text-anchor="middle" x="666.01" y="-1919.68" font-family="Monaco" font-size="10.00">HydroCouple::IPropertyChanged</text>
<polyline fill="none" stroke="black" points="570.996,-1910.35 761.024,-1910.35 "/>
<text text-anchor="middle" x="666.01" y="-1898.35" font-family="Monaco" font-size="10.00"> </text>
<polyline fill="none" stroke="black" points="570.996,-1889.01 761.024,-1889.01 "/>
<text text-anchor="start" x="578.996" y="-1877.01" font-family="Monaco" font-size="10.00">+ ~IPropertyChanged()</text>
</a>
</g>
</g>
<!-- Node4&#45;&gt;Node3 -->
<g id="edge3" class="edge"><title>Node4&#45;&gt;Node3</title>
<path fill="none" stroke="midnightblue" d="M666.01,-1857.36C666.01,-1848.97 666.01,-1840 666.01,-1831.16"/>
<polygon fill="none" stroke="midnightblue" points="662.51,-1857.61 666.01,-1867.61 669.51,-1857.61 662.51,-1857.61"/>
</g>
<!-- Node6 -->
<g id="node6" class="node"><title>Node6</title>
<g id="a_node6"><a xlink:href="class_hydro_couple_1_1_spatial_1_1_i_line_string.html" target="_top" xlink:title="An ILineString is a Curve with linear interpolation between Points. Each consecutive pair of Points d...">
<polygon fill="white" stroke="black" points="154,-442.539 154,-546.549 290.02,-546.549 290.02,-442.539 154,-442.539"/>
<text text-anchor="start" x="162" y="-534.549" font-family="Monaco" font-size="10.00">HydroCouple::Spatial</text>
<text text-anchor="middle" x="222.01" y="-521.214" font-family="Monaco" font-size="10.00">::ILineString</text>
<polyline fill="none" stroke="black" points="154,-511.879 290.02,-511.879 "/>
<text text-anchor="middle" x="222.01" y="-499.879" font-family="Monaco" font-size="10.00"> </text>
<polyline fill="none" stroke="black" points="154,-490.544 290.02,-490.544 "/>
<text text-anchor="start" x="162" y="-478.544" font-family="Monaco" font-size="10.00">+ ~ILineString()</text>
<text text-anchor="start" x="162" y="-465.209" font-family="Monaco" font-size="10.00">+ pointCount()</text>
<text text-anchor="start" x="162" y="-451.874" font-family="Monaco" font-size="10.00">+ point()</text>
</a>
</g>
</g>
<!-- Node5&#45;&gt;Node6 -->
<g id="edge5" class="edge"><title>Node5&#45;&gt;Node6</title>
<path fill="none" stroke="midnightblue" d="M285.844,-614.275C273.58,-591.462 260.561,-567.249 249.502,-546.68"/>
<polygon fill="none" stroke="midnightblue" points="282.864,-616.123 290.683,-623.273 289.03,-612.808 282.864,-616.123"/>
</g>
<!-- Node7 -->
<g id="node7" class="node"><title>Node7</title>
<g id="a_node7"><a xlink:href="class_hydro_couple_1_1_spatial_1_1_i_line.html" target="_top" xlink:title="The ILine class is an ILineString with exactly 2 IPoints. ">
<polygon fill="white" stroke="black" points="0,-268.192 0,-345.532 136.02,-345.532 136.02,-268.192 0,-268.192"/>
<text text-anchor="start" x="8" y="-333.532" font-family="Monaco" font-size="10.00">HydroCouple::Spatial</text>
<text text-anchor="middle" x="68.0098" y="-320.197" font-family="Monaco" font-size="10.00">::ILine</text>
<polyline fill="none" stroke="black" points="0,-310.862 136.02,-310.862 "/>
<text text-anchor="middle" x="68.0098" y="-298.862" font-family="Monaco" font-size="10.00"> </text>
<polyline fill="none" stroke="black" points="0,-289.527 136.02,-289.527 "/>
<text text-anchor="start" x="8" y="-277.527" font-family="Monaco" font-size="10.00">+ ~ILine()</text>
</a>
</g>
</g>
<!-- Node6&#45;&gt;Node7 -->
<g id="edge6" class="edge"><title>Node6&#45;&gt;Node7</title>
<path fill="none" stroke="midnightblue" d="M172.849,-434.27C148.766,-405.232 120.485,-371.133 99.369,-345.673"/>
<polygon fill="none" stroke="midnightblue" points="170.443,-436.851 179.521,-442.314 175.831,-432.382 170.443,-436.851"/>
</g>
<!-- Node9 -->
<g id="node9" class="node"><title>Node9</title>
<g id="a_node9"><a xlink:href="class_hydro_couple_1_1_spatial_1_1_i_linear_ring.html" target="_top" xlink:title="An ILinearRing is an ILineString that is both isClosed() and isSimple(). ">
<polygon fill="white" stroke="black" points="154,-268.192 154,-345.532 290.02,-345.532 290.02,-268.192 154,-268.192"/>
<text text-anchor="start" x="162" y="-333.532" font-family="Monaco" font-size="10.00">HydroCouple::Spatial</text>
<text text-anchor="middle" x="222.01" y="-320.197" font-family="Monaco" font-size="10.00">::ILinearRing</text>
<polyline fill="none" stroke="black" points="154,-310.862 290.02,-310.862 "/>
<text text-anchor="middle" x="222.01" y="-298.862" font-family="Monaco" font-size="10.00"> </text>
<polyline fill="none" stroke="black" points="154,-289.527 290.02,-289.527 "/>
<text text-anchor="start" x="162" y="-277.527" font-family="Monaco" font-size="10.00">+ ~ILinearRing()</text>
</a>
</g>
</g>
<!-- Node6&#45;&gt;Node9 -->
<g id="edge8" class="edge"><title>Node6&#45;&gt;Node9</title>
<path fill="none" stroke="midnightblue" d="M222.01,-432.026C222.01,-403.489 222.01,-370.48 222.01,-345.673"/>
<polygon fill="none" stroke="midnightblue" points="218.51,-432.314 222.01,-442.314 225.51,-432.314 218.51,-432.314"/>
</g>
<!-- Node8 -->
<g id="node8" class="node"><title>Node8</title>
<g id="a_node8"><a xlink:href="class_hydro_couple_1_1_spatial_1_1_i_edge.html" target="_top" xlink:title="A directed edge from one vertex to another, adjacent to two faces. Based on Dani Lischinski&#39;s code fr...">
<polygon fill="white" stroke="black" points="0,-0.5 0,-211.189 136.02,-211.189 136.02,-0.5 0,-0.5"/>
<text text-anchor="start" x="8" y="-199.189" font-family="Monaco" font-size="10.00">HydroCouple::Spatial</text>
<text text-anchor="middle" x="68.0098" y="-185.854" font-family="Monaco" font-size="10.00">::IEdge</text>
<polyline fill="none" stroke="black" points="0,-176.52 136.02,-176.52 "/>
<text text-anchor="middle" x="68.0098" y="-164.52" font-family="Monaco" font-size="10.00"> </text>
<polyline fill="none" stroke="black" points="0,-155.185 136.02,-155.185 "/>
<text text-anchor="start" x="8" y="-143.185" font-family="Monaco" font-size="10.00">+ ~IEdge()</text>
<text text-anchor="start" x="8" y="-129.85" font-family="Monaco" font-size="10.00">+ index()</text>
<text text-anchor="start" x="8" y="-116.515" font-family="Monaco" font-size="10.00">+ setId()</text>
<text text-anchor="start" x="8" y="-103.18" font-family="Monaco" font-size="10.00">+ orig()</text>
<text text-anchor="start" x="8" y="-89.8447" font-family="Monaco" font-size="10.00">+ setOrig()</text>
<text text-anchor="start" x="8" y="-76.5098" font-family="Monaco" font-size="10.00">+ dest()</text>
<text text-anchor="start" x="8" y="-63.1748" font-family="Monaco" font-size="10.00">+ setDest()</text>
<text text-anchor="start" x="8" y="-49.8398" font-family="Monaco" font-size="10.00">+ left()</text>
<text text-anchor="start" x="8" y="-36.5049" font-family="Monaco" font-size="10.00">+ right()</text>
<text text-anchor="start" x="8" y="-23.1699" font-family="Monaco" font-size="10.00">+ setLeft()</text>
<text text-anchor="start" x="8" y="-9.83496" font-family="Monaco" font-size="10.00">and 12 more...</text>
</a>
</g>
</g>
<!-- Node7&#45;&gt;Node8 -->
<g id="edge7" class="edge"><title>Node7&#45;&gt;Node8</title>
<path fill="none" stroke="midnightblue" d="M68.0098,-257.57C68.0098,-243.465 68.0098,-227.473 68.0098,-211.306"/>
<polygon fill="none" stroke="midnightblue" points="64.5099,-257.96 68.0098,-267.96 71.5099,-257.96 64.5099,-257.96"/>
</g>
<!-- Node11 -->
<g id="node11" class="node"><title>Node11</title>
<g id="a_node11"><a xlink:href="class_hydro_couple_1_1_spatial_1_1_i_multi_curve.html" target="_top" xlink:title="An IMultiCurve is a 1&#45;dimensional IGeometryCollection whose elements are ICurves. ...">
<polygon fill="white" stroke="black" points="309,-442.539 309,-546.549 445.02,-546.549 445.02,-442.539 309,-442.539"/>
<text text-anchor="start" x="317" y="-534.549" font-family="Monaco" font-size="10.00">HydroCouple::Spatial</text>
<text text-anchor="middle" x="377.01" y="-521.214" font-family="Monaco" font-size="10.00">::IMultiCurve</text>
<polyline fill="none" stroke="black" points="309,-511.879 445.02,-511.879 "/>
<text text-anchor="middle" x="377.01" y="-499.879" font-family="Monaco" font-size="10.00"> </text>
<polyline fill="none" stroke="black" points="309,-490.544 445.02,-490.544 "/>
<text text-anchor="start" x="317" y="-478.544" font-family="Monaco" font-size="10.00">+ ~IMultiCurve()</text>
<text text-anchor="start" x="317" y="-465.209" font-family="Monaco" font-size="10.00">+ isClosed()</text>
<text text-anchor="start" x="317" y="-451.874" font-family="Monaco" font-size="10.00">+ length()</text>
</a>
</g>
</g>
<!-- Node10&#45;&gt;Node11 -->
<g id="edge10" class="edge"><title>Node10&#45;&gt;Node11</title>
<path fill="none" stroke="midnightblue" d="M503.047,-636.382C486.735,-620.703 469.428,-603.516 454.01,-587.054 442.087,-574.324 429.698,-560.096 418.433,-546.723"/>
<polygon fill="none" stroke="midnightblue" points="500.815,-639.091 510.461,-643.472 505.653,-634.032 500.815,-639.091"/>
</g>
<!-- Node14 -->
<g id="node14" class="node"><title>Node14</title>
<g id="a_node14"><a xlink:href="class_hydro_couple_1_1_spatial_1_1_i_multi_point.html" target="_top" xlink:title="An IMultiPoint is a 0&#45;dimensional IGeometryCollection. ">
<polygon fill="white" stroke="black" points="463,-449.207 463,-539.881 599.02,-539.881 599.02,-449.207 463,-449.207"/>
<text text-anchor="start" x="471" y="-527.881" font-family="Monaco" font-size="10.00">HydroCouple::Spatial</text>
<text text-anchor="middle" x="531.01" y="-514.546" font-family="Monaco" font-size="10.00">::IMultiPoint</text>
<polyline fill="none" stroke="black" points="463,-505.211 599.02,-505.211 "/>
<text text-anchor="middle" x="531.01" y="-493.211" font-family="Monaco" font-size="10.00"> </text>
<polyline fill="none" stroke="black" points="463,-483.876 599.02,-483.876 "/>
<text text-anchor="start" x="471" y="-471.876" font-family="Monaco" font-size="10.00">+ ~IMultiPoint()</text>
<text text-anchor="start" x="471" y="-458.542" font-family="Monaco" font-size="10.00">+ point()</text>
</a>
</g>
</g>
<!-- Node10&#45;&gt;Node14 -->
<g id="edge13" class="edge"><title>Node10&#45;&gt;Node14</title>
<path fill="none" stroke="midnightblue" d="M555.243,-633.338C549.953,-603.257 543.694,-567.668 538.862,-540.194"/>
<polygon fill="none" stroke="midnightblue" points="551.817,-634.067 556.996,-643.309 558.711,-632.854 551.817,-634.067"/>
</g>
<!-- Node15 -->
<g id="node15" class="node"><title>Node15</title>
<g id="a_node15"><a xlink:href="class_hydro_couple_1_1_spatial_1_1_i_multi_surface.html" target="_top" xlink:title="A MultiSurface is a 2&#45;dimensional GeometryCollection whose elements are Surfaces, all using coordinat...">
<polygon fill="white" stroke="black" points="617,-435.872 617,-553.216 753.02,-553.216 753.02,-435.872 617,-435.872"/>
<text text-anchor="start" x="625" y="-541.216" font-family="Monaco" font-size="10.00">HydroCouple::Spatial</text>
<text text-anchor="middle" x="685.01" y="-527.881" font-family="Monaco" font-size="10.00">::IMultiSurface</text>
<polyline fill="none" stroke="black" points="617,-518.546 753.02,-518.546 "/>
<text text-anchor="middle" x="685.01" y="-506.546" font-family="Monaco" font-size="10.00"> </text>
<polyline fill="none" stroke="black" points="617,-497.211 753.02,-497.211 "/>
<text text-anchor="start" x="625" y="-485.211" font-family="Monaco" font-size="10.00">+ ~IMultiSurface()</text>
<text text-anchor="start" x="625" y="-471.876" font-family="Monaco" font-size="10.00">+ area()</text>
<text text-anchor="start" x="625" y="-458.542" font-family="Monaco" font-size="10.00">+ centroid()</text>
<text text-anchor="start" x="625" y="-445.207" font-family="Monaco" font-size="10.00">+ pointOnSurface()</text>
</a>
</g>
</g>
<!-- Node10&#45;&gt;Node15 -->
<g id="edge14" class="edge"><title>Node10&#45;&gt;Node15</title>
<path fill="none" stroke="midnightblue" d="M601.984,-634.397C617.369,-608.668 635.254,-578.756 650.476,-553.298"/>
<polygon fill="none" stroke="midnightblue" points="598.783,-632.93 596.655,-643.309 604.791,-636.523 598.783,-632.93"/>
</g>
<!-- Node12 -->
<g id="node12" class="node"><title>Node12</title>
<g id="a_node12"><a xlink:href="class_hydro_couple_1_1_spatial_1_1_i_multi_line_string.html" target="_top" xlink:title="An IMultiLineString is an IMultiCurve whose elements are ILineStrings. ">
<polygon fill="white" stroke="black" points="308,-261.524 308,-352.199 450.02,-352.199 450.02,-261.524 308,-261.524"/>
<text text-anchor="start" x="316" y="-340.199" font-family="Monaco" font-size="10.00">HydroCouple::Spatial</text>
<text text-anchor="middle" x="379.01" y="-326.864" font-family="Monaco" font-size="10.00">::IMultiLineString</text>
<polyline fill="none" stroke="black" points="308,-317.529 450.02,-317.529 "/>
<text text-anchor="middle" x="379.01" y="-305.529" font-family="Monaco" font-size="10.00"> </text>
<polyline fill="none" stroke="black" points="308,-296.194 450.02,-296.194 "/>
<text text-anchor="start" x="316" y="-284.194" font-family="Monaco" font-size="10.00">+ ~IMultiLineString()</text>
<text text-anchor="start" x="316" y="-270.859" font-family="Monaco" font-size="10.00">+ element()</text>
</a>
</g>
</g>
<!-- Node11&#45;&gt;Node12 -->
<g id="edge11" class="edge"><title>Node11&#45;&gt;Node12</title>
<path fill="none" stroke="midnightblue" d="M377.671,-432.145C377.952,-406.053 378.274,-376.204 378.531,-352.3"/>
<polygon fill="none" stroke="midnightblue" points="374.17,-432.277 377.562,-442.314 381.169,-432.352 374.17,-432.277"/>
</g>
<!-- Node13 -->
<g id="node13" class="node"><title>Node13</title>
<g id="a_node13"><a xlink:href="class_hydro_couple_1_1_spatial_1_1_i_network.html" target="_top" xlink:title="The INetwork class. ">
<polygon fill="white" stroke="black" points="311,-60.5073 311,-151.182 447.02,-151.182 447.02,-60.5073 311,-60.5073"/>
<text text-anchor="start" x="319" y="-139.182" font-family="Monaco" font-size="10.00">HydroCouple::Spatial</text>
<text text-anchor="middle" x="379.01" y="-125.847" font-family="Monaco" font-size="10.00">::INetwork</text>
<polyline fill="none" stroke="black" points="311,-116.512 447.02,-116.512 "/>
<text text-anchor="middle" x="379.01" y="-104.512" font-family="Monaco" font-size="10.00"> </text>
<polyline fill="none" stroke="black" points="311,-95.1772 447.02,-95.1772 "/>
<text text-anchor="start" x="319" y="-83.1772" font-family="Monaco" font-size="10.00">+ ~INetwork()</text>
<text text-anchor="start" x="319" y="-69.8423" font-family="Monaco" font-size="10.00">+ vertex()</text>
</a>
</g>
</g>
<!-- Node12&#45;&gt;Node13 -->
<g id="edge12" class="edge"><title>Node12&#45;&gt;Node13</title>
<path fill="none" stroke="midnightblue" d="M379.01,-250.879C379.01,-219.539 379.01,-180.775 379.01,-151.359"/>
<polygon fill="none" stroke="midnightblue" points="375.51,-251.198 379.01,-261.198 382.51,-251.199 375.51,-251.198"/>
</g>
<!-- Node16 -->
<g id="node16" class="node"><title>Node16</title>
<g id="a_node16"><a xlink:href="class_hydro_couple_1_1_spatial_1_1_i_multi_polygon.html" target="_top" xlink:title="An IMultiPolygon is an IMultiSurface whose elements are IPolygons. ">
<polygon fill="white" stroke="black" points="617,-261.524 617,-352.199 753.02,-352.199 753.02,-261.524 617,-261.524"/>
<text text-anchor="start" x="625" y="-340.199" font-family="Monaco" font-size="10.00">HydroCouple::Spatial</text>
<text text-anchor="middle" x="685.01" y="-326.864" font-family="Monaco" font-size="10.00">::IMultiPolygon</text>
<polyline fill="none" stroke="black" points="617,-317.529 753.02,-317.529 "/>
<text text-anchor="middle" x="685.01" y="-305.529" font-family="Monaco" font-size="10.00"> </text>
<polyline fill="none" stroke="black" points="617,-296.194 753.02,-296.194 "/>
<text text-anchor="start" x="625" y="-284.194" font-family="Monaco" font-size="10.00">+ ~IMultiPolygon()</text>
<text text-anchor="start" x="625" y="-270.859" font-family="Monaco" font-size="10.00">+ element()</text>
</a>
</g>
</g>
<!-- Node15&#45;&gt;Node16 -->
<g id="edge15" class="edge"><title>Node15&#45;&gt;Node16</title>
<path fill="none" stroke="midnightblue" d="M685.01,-425.515C685.01,-401.089 685.01,-374.19 685.01,-352.284"/>
<polygon fill="none" stroke="midnightblue" points="681.51,-425.811 685.01,-435.811 688.51,-425.811 681.51,-425.811"/>
</g>
<!-- Node18 -->
<g id="node18" class="node"><title>Node18</title>
<g id="a_node18"><a xlink:href="class_hydro_couple_1_1_spatial_1_1_i_vertex.html" target="_top" xlink:title="The IVertex class is an IPoint of a topologically aware IGeometry. ">
<polygon fill="white" stroke="black" points="771,-435.872 771,-553.216 907.02,-553.216 907.02,-435.872 771,-435.872"/>
<text text-anchor="start" x="779" y="-541.216" font-family="Monaco" font-size="10.00">HydroCouple::Spatial</text>
<text text-anchor="middle" x="839.01" y="-527.881" font-family="Monaco" font-size="10.00">::IVertex</text>
<polyline fill="none" stroke="black" points="771,-518.546 907.02,-518.546 "/>
<text text-anchor="middle" x="839.01" y="-506.546" font-family="Monaco" font-size="10.00"> </text>
<polyline fill="none" stroke="black" points="771,-497.211 907.02,-497.211 "/>
<text text-anchor="start" x="779" y="-485.211" font-family="Monaco" font-size="10.00">+ ~IVertex()</text>
<text text-anchor="start" x="779" y="-471.876" font-family="Monaco" font-size="10.00">+ edge()</text>
<text text-anchor="start" x="779" y="-458.542" font-family="Monaco" font-size="10.00">+ addEdge()</text>
<text text-anchor="start" x="779" y="-445.207" font-family="Monaco" font-size="10.00">+ removeEdge()</text>
</a>
</g>
</g>
<!-- Node17&#45;&gt;Node18 -->
<g id="edge17" class="edge"><title>Node17&#45;&gt;Node18</title>
<path fill="none" stroke="midnightblue" d="M793.697,-620.795C801.761,-598.503 810.496,-574.361 818.124,-553.276"/>
<polygon fill="none" stroke="midnightblue" points="790.397,-619.626 790.287,-630.221 796.98,-622.008 790.397,-619.626"/>
</g>
<!-- Node20 -->
<g id="node20" class="node"><title>Node20</title>
<g id="a_node20"><a xlink:href="class_hydro_couple_1_1_spatial_1_1_i_polygon.html" target="_top" xlink:title="A IPolygon is a planar ISurface defined by 1 exterior boundary and 0 or more interior boundaries...">
<polygon fill="white" stroke="black" points="925,-409.202 925,-579.886 1067.02,-579.886 1067.02,-409.202 925,-409.202"/>
<text text-anchor="start" x="933" y="-567.886" font-family="Monaco" font-size="10.00">HydroCouple::Spatial</text>
<text text-anchor="middle" x="996.01" y="-554.551" font-family="Monaco" font-size="10.00">::IPolygon</text>
<polyline fill="none" stroke="black" points="925,-545.216 1067.02,-545.216 "/>
<text text-anchor="middle" x="996.01" y="-533.216" font-family="Monaco" font-size="10.00"> </text>
<polyline fill="none" stroke="black" points="925,-523.881 1067.02,-523.881 "/>
<text text-anchor="start" x="933" y="-511.881" font-family="Monaco" font-size="10.00">+ ~IPolygon()</text>
<text text-anchor="start" x="933" y="-498.546" font-family="Monaco" font-size="10.00">+ exteriorRing()</text>
<text text-anchor="start" x="933" y="-485.211" font-family="Monaco" font-size="10.00">+ interiorRingCount()</text>
<text text-anchor="start" x="933" y="-471.876" font-family="Monaco" font-size="10.00">+ interiorRing()</text>
<text text-anchor="start" x="933" y="-458.542" font-family="Monaco" font-size="10.00">+ edge()</text>
<text text-anchor="start" x="933" y="-445.207" font-family="Monaco" font-size="10.00">+ addEdge()</text>
<text text-anchor="start" x="933" y="-431.872" font-family="Monaco" font-size="10.00">+ removeEdge()</text>
<text text-anchor="start" x="933" y="-418.537" font-family="Monaco" font-size="10.00">+ polyhydralSurface()</text>
</a>
</g>
</g>
<!-- Node19&#45;&gt;Node20 -->
<g id="edge19" class="edge"><title>Node19&#45;&gt;Node20</title>
<path fill="none" stroke="midnightblue" d="M996.01,-619.92C996.01,-606.89 996.01,-593.253 996.01,-579.982"/>
<polygon fill="none" stroke="midnightblue" points="992.51,-620.221 996.01,-630.221 999.51,-620.221 992.51,-620.221"/>
</g>
<!-- Node22 -->
<g id="node22" class="node"><title>Node22</title>
<g id="a_node22"><a xlink:href="class_hydro_couple_1_1_spatial_1_1_i_polyhedral_surface.html" target="_top" xlink:title="An IPolyhedralSurface is a contiguous collection of polygons, which share common boundary segments...">
<polygon fill="white" stroke="black" points="1085,-402.534 1085,-586.554 1239.02,-586.554 1239.02,-402.534 1085,-402.534"/>
<text text-anchor="start" x="1093" y="-574.554" font-family="Monaco" font-size="10.00">HydroCouple::Spatial</text>
<text text-anchor="middle" x="1162.01" y="-561.219" font-family="Monaco" font-size="10.00">::IPolyhedralSurface</text>
<polyline fill="none" stroke="black" points="1085,-551.884 1239.02,-551.884 "/>
<text text-anchor="middle" x="1162.01" y="-539.884" font-family="Monaco" font-size="10.00"> </text>
<polyline fill="none" stroke="black" points="1085,-530.549 1239.02,-530.549 "/>
<text text-anchor="start" x="1093" y="-518.549" font-family="Monaco" font-size="10.00">+ ~IPolyhedralSurface()</text>
<text text-anchor="start" x="1093" y="-505.214" font-family="Monaco" font-size="10.00">+ patchCount()</text>
<text text-anchor="start" x="1093" y="-491.879" font-family="Monaco" font-size="10.00">+ patch()</text>
<text text-anchor="start" x="1093" y="-478.544" font-family="Monaco" font-size="10.00">+ boundingPolygons()</text>
<text text-anchor="start" x="1093" y="-465.209" font-family="Monaco" font-size="10.00">+ isClosed()</text>
<text text-anchor="start" x="1093" y="-451.874" font-family="Monaco" font-size="10.00">+ makeVertexEdge()</text>
<text text-anchor="start" x="1093" y="-438.539" font-family="Monaco" font-size="10.00">+ deleteVertexEdge()</text>
<text text-anchor="start" x="1093" y="-425.204" font-family="Monaco" font-size="10.00">+ makeFaceEdge()</text>
<text text-anchor="start" x="1093" y="-411.869" font-family="Monaco" font-size="10.00">+ deleteFaceEdge()</text>
</a>
</g>
</g>
<!-- Node19&#45;&gt;Node22 -->
<g id="edge21" class="edge"><title>Node19&#45;&gt;Node22</title>
<path fill="none" stroke="midnightblue" d="M1056.26,-622.326C1065.89,-610.787 1075.95,-598.718 1085.89,-586.808"/>
<polygon fill="none" stroke="midnightblue" points="1053.39,-620.3 1049.68,-630.221 1058.77,-624.783 1053.39,-620.3"/>
</g>
<!-- Node21 -->
<g id="node21" class="node"><title>Node21</title>
<g id="a_node21"><a xlink:href="class_hydro_couple_1_1_spatial_1_1_i_triangle.html" target="_top" xlink:title="An ITriangle is a IPolygon with 3 distinct, non&#45;collinear vertices and no interior boundary...">
<polygon fill="white" stroke="black" points="928,-248.189 928,-365.534 1064.02,-365.534 1064.02,-248.189 928,-248.189"/>
<text text-anchor="start" x="936" y="-353.534" font-family="Monaco" font-size="10.00">HydroCouple::Spatial</text>
<text text-anchor="middle" x="996.01" y="-340.199" font-family="Monaco" font-size="10.00">::ITriangle</text>
<polyline fill="none" stroke="black" points="928,-330.864 1064.02,-330.864 "/>
<text text-anchor="middle" x="996.01" y="-318.864" font-family="Monaco" font-size="10.00"> </text>
<polyline fill="none" stroke="black" points="928,-309.529 1064.02,-309.529 "/>
<text text-anchor="start" x="936" y="-297.529" font-family="Monaco" font-size="10.00">+ ~ITriangle()</text>
<text text-anchor="start" x="936" y="-284.194" font-family="Monaco" font-size="10.00">+ p1()</text>
<text text-anchor="start" x="936" y="-270.859" font-family="Monaco" font-size="10.00">+ p2()</text>
<text text-anchor="start" x="936" y="-257.524" font-family="Monaco" font-size="10.00">+ p3()</text>
</a>
</g>
</g>
<!-- Node20&#45;&gt;Node21 -->
<g id="edge20" class="edge"><title>Node20&#45;&gt;Node21</title>
<path fill="none" stroke="midnightblue" d="M996.01,-398.791C996.01,-387.529 996.01,-376.305 996.01,-365.782"/>
<polygon fill="none" stroke="midnightblue" points="992.51,-399.124 996.01,-409.124 999.51,-399.124 992.51,-399.124"/>
</g>
<!-- Node23 -->
<g id="node23" class="node"><title>Node23</title>
<g id="a_node23"><a xlink:href="class_hydro_couple_1_1_spatial_1_1_i_t_i_n.html" target="_top" xlink:title="An ITIN is a triangulated irregular network IPolyhedralSurface consisting only of ITriangle patches...">
<polygon fill="white" stroke="black" points="1094,-261.524 1094,-352.199 1230.02,-352.199 1230.02,-261.524 1094,-261.524"/>
<text text-anchor="start" x="1102" y="-340.199" font-family="Monaco" font-size="10.00">HydroCouple::Spatial</text>
<text text-anchor="middle" x="1162.01" y="-326.864" font-family="Monaco" font-size="10.00">::ITIN</text>
<polyline fill="none" stroke="black" points="1094,-317.529 1230.02,-317.529 "/>
<text text-anchor="middle" x="1162.01" y="-305.529" font-family="Monaco" font-size="10.00"> </text>
<polyline fill="none" stroke="black" points="1094,-296.194 1230.02,-296.194 "/>
<text text-anchor="start" x="1102" y="-284.194" font-family="Monaco" font-size="10.00">+ ~ITIN()</text>
<text text-anchor="start" x="1102" y="-270.859" font-family="Monaco" font-size="10.00">+ patch()</text>
</a>
</g>
</g>
<!-- Node22&#45;&gt;Node23 -->
<g id="edge22" class="edge"><title>Node22&#45;&gt;Node23</title>
<path fill="none" stroke="midnightblue" d="M1162.01,-392.134C1162.01,-378.163 1162.01,-364.453 1162.01,-352.284"/>
<polygon fill="none" stroke="midnightblue" points="1158.51,-392.335 1162.01,-402.335 1165.51,-392.335 1158.51,-392.335"/>
</g>
</g>
</svg>
        <g id="navigator" transform="translate(0 0)" fill="#404254">
                <rect fill="#f2f5e9" fill-opacity="0.5" stroke="#606060" stroke-width=".5" x="0" y="0" width="60" height="60"/>
                <use id="zoomplus" xlink:href="#zoomPlus" x="17" y="9" onmousedown="handleZoom(evt,'in')"/>
                <use id="zoomminus" xlink:href="#zoomMin" x="42" y="9" onmousedown="handleZoom(evt,'out')"/>
                <use id="reset" xlink:href="#resetDef" x="30" y="36" onmousedown="handleReset()"/>
                <g id="arrowUp" xlink:href="#dirArrow" transform="translate(30 24)" onmousedown="handlePan(0,-1)">
                  <use xlink:href="#rim" fill="#404040">
                        <set attributeName="fill" to="#808080" begin="arrowUp.mouseover" end="arrowUp.mouseout"/>
                  </use>
                  <path fill="none" stroke="white" stroke-width="1.5" d="M0,-3.0v7 M-2.5,-0.5L0,-3.0L2.5,-0.5"/>
                </g>
                <g id="arrowRight" xlink:href="#dirArrow" transform="rotate(90) translate(36 -43)" onmousedown="handlePan(1,0)">
                  <use xlink:href="#rim" fill="#404040">
                        <set attributeName="fill" to="#808080" begin="arrowRight.mouseover" end="arrowRight.mouseout"/>
                  </use>
                  <path fill="none" stroke="white" stroke-width="1.5" d="M0,-3.0v7 M-2.5,-0.5L0,-3.0L2.5,-0.5"/>
                </g>
                <g id="arrowDown" xlink:href="#dirArrow" transform="rotate(180) translate(-30 -48)" onmousedown="handlePan(0,1)">
                  <use xlink:href="#rim" fill="#404040">
                        <set attributeName="fill" to="#808080" begin="arrowDown.mouseover" end="arrowDown.mouseout"/>
                  </use>
                  <path fill="none" stroke="white" stroke-width="1.5" d="M0,-3.0v7 M-2.5,-0.5L0,-3.0L2.5,-0.5"/>
                </g>
                <g id="arrowLeft" xlink:href="#dirArrow" transform="rotate(270) translate(-36 17)" onmousedown="handlePan(-1,0)">
                  <use xlink:href="#rim" fill="#404040">
                        <set attributeName="fill" to="#808080" begin="arrowLeft.mouseover" end="arrowLeft.mouseout"/>
                  </use>
                  <path fill="none" stroke="white" stroke-width="1.5" d="M0,-3.0v7 M-2.5,-0.5L0,-3.0L2.5,-0.5"/>
                </g>
        </g>
        <svg viewBox="0 0 15 15" width="100%" height="30px" preserveAspectRatio="xMaxYMin meet">
         <g id="arrow_out" transform="scale(0.3 0.3)">
          <a xlink:href="class_hydro_couple_1_1_spatial_1_1_i_geometry__inherit__graph_org.svg" target="_base">
           <rect id="button" ry="5" rx="5" y="6" x="6" height="38" width="38"
                fill="#f2f5e9" fill-opacity="0.5" stroke="#606060" stroke-width="1.0"/>
           <path id="arrow"
             d="M 11.500037,31.436501 C 11.940474,20.09759 22.043105,11.32322 32.158766,21.979434 L 37.068811,17.246167 C 37.068811,17.246167 37.088388,32 37.088388,32 L 22.160133,31.978069 C 22.160133,31.978069 26.997745,27.140456 26.997745,27.140456 C 18.528582,18.264221 13.291696,25.230495 11.500037,31.436501 z"
             style="fill:#404040;"/>
          </a>
         </g>
        </svg>
</svg>
