<?xml version="1.0" encoding="UTF-8" standalone="no"?>
<!DOCTYPE svg PUBLIC "-//W3C//DTD SVG 1.1//EN"
 "http://www.w3.org/Graphics/SVG/1.1/DTD/svg11.dtd">
<!-- Generated by graphviz version 2.38.0 (20140413.2041)
 -->
<!-- Title: HydroCouple::SpatioTemporal::ITimeRasterExchangeItem Pages: 1 -->
<svg width="548pt" height="879pt"
 viewBox="0.00 0.00 548.03 879.06" xmlns="http://www.w3.org/2000/svg" xmlns:xlink="http://www.w3.org/1999/xlink">
<g id="graph0" class="graph" transform="scale(1 1) rotate(0) translate(4 875.059)">
<title>HydroCouple::SpatioTemporal::ITimeRasterExchangeItem</title>
<polygon fill="white" stroke="none" points="-4,4 -4,-875.059 544.027,-875.059 544.027,4 -4,4"/>
<!-- Node1 -->
<g id="node1" class="node"><title>Node1</title>
<polygon fill="#bfbfbf" stroke="black" points="129.994,-0.5 129.994,-77.8398 380.032,-77.8398 380.032,-0.5 129.994,-0.5"/>
<text text-anchor="start" x="137.994" y="-65.8398" font-family="Monaco" font-size="10.00">HydroCouple::SpatioTemporal</text>
<text text-anchor="middle" x="255.013" y="-52.5049" font-family="Monaco" font-size="10.00">::ITimeRasterExchangeItem</text>
<polyline fill="none" stroke="black" points="129.994,-43.1699 380.032,-43.1699 "/>
<text text-anchor="middle" x="255.013" y="-31.1699" font-family="Monaco" font-size="10.00"> </text>
<polyline fill="none" stroke="black" points="129.994,-21.835 380.032,-21.835 "/>
<text text-anchor="start" x="137.994" y="-9.83496" font-family="Monaco" font-size="10.00">+ ~ITimePolyhedralSurfaceExchangeItem()</text>
</g>
<!-- Node2 -->
<g id="node2" class="node"><title>Node2</title>
<g id="a_node2"><a xlink:href="class_hydro_couple_1_1_temporal_1_1_i_time_exchange_item.html" target="_top" xlink:title="The ITimeExchangeItem class. ">
<polygon fill="white" stroke="black" points="12.002,-114.84 12.002,-192.18 160.023,-192.18 160.023,-114.84 12.002,-114.84"/>
<text text-anchor="start" x="20.002" y="-180.18" font-family="Monaco" font-size="10.00">HydroCouple::Temporal</text>
<text text-anchor="middle" x="86.0127" y="-166.845" font-family="Monaco" font-size="10.00">::ITimeExchangeItem</text>
<polyline fill="none" stroke="black" points="12.002,-157.51 160.023,-157.51 "/>
<text text-anchor="middle" x="86.0127" y="-145.51" font-family="Monaco" font-size="10.00"> </text>
<polyline fill="none" stroke="black" points="12.002,-136.175 160.023,-136.175 "/>
<text text-anchor="start" x="20.002" y="-124.175" font-family="Monaco" font-size="10.00">+ ~ITimeExchangeItem()</text>
</a>
</g>
</g>
<!-- Node2&#45;&gt;Node1 -->
<g id="edge1" class="edge"><title>Node2&#45;&gt;Node1</title>
<path fill="none" stroke="midnightblue" d="M151.24,-109.151C166.702,-98.8731 183.073,-87.9905 198.13,-77.9816"/>
<polygon fill="none" stroke="midnightblue" points="149.148,-106.339 142.757,-114.79 153.023,-112.169 149.148,-106.339"/>
</g>
<!-- Node3 -->
<g id="node3" class="node"><title>Node3</title>
<g id="a_node3"><a xlink:href="class_hydro_couple_1_1_i_exchange_item.html" target="_top" xlink:title="IExchangeItem the base data item the can be exchanged between components at runtime. ">
<polygon fill="white" stroke="black" points="0,-262.517 0,-339.857 172.025,-339.857 172.025,-262.517 0,-262.517"/>
<text text-anchor="middle" x="86.0127" y="-327.857" font-family="Monaco" font-size="10.00">HydroCouple::IExchangeItem</text>
<polyline fill="none" stroke="black" points="0,-318.522 172.025,-318.522 "/>
<text text-anchor="middle" x="86.0127" y="-306.522" font-family="Monaco" font-size="10.00"> </text>
<polyline fill="none" stroke="black" points="0,-297.187 172.025,-297.187 "/>
<text text-anchor="start" x="8" y="-285.187" font-family="Monaco" font-size="10.00">+ ~IExchangeItem()</text>
<text text-anchor="start" x="8" y="-271.852" font-family="Monaco" font-size="10.00">+ itemChanged()</text>
</a>
</g>
</g>
<!-- Node3&#45;&gt;Node2 -->
<g id="edge2" class="edge"><title>Node3&#45;&gt;Node2</title>
<path fill="none" stroke="midnightblue" d="M86.0127,-252.093C86.0127,-232.626 86.0127,-210.482 86.0127,-192.215"/>
<polygon fill="none" stroke="midnightblue" points="82.5128,-252.292 86.0127,-262.292 89.5128,-252.292 82.5128,-252.292"/>
</g>
<!-- Node9 -->
<g id="node9" class="node"><title>Node9</title>
<g id="a_node9"><a xlink:href="class_hydro_couple_1_1_spatial_1_1_i_raster_exhange_item.html" target="_top" xlink:title="An IRasterExhangeItem is an IExchangeItem with an IRaster. ">
<polygon fill="white" stroke="black" points="178.001,-114.84 178.001,-192.18 332.024,-192.18 332.024,-114.84 178.001,-114.84"/>
<text text-anchor="start" x="186.001" y="-180.18" font-family="Monaco" font-size="10.00">HydroCouple::Spatial</text>
<text text-anchor="middle" x="255.013" y="-166.845" font-family="Monaco" font-size="10.00">::IRasterExhangeItem</text>
<polyline fill="none" stroke="black" points="178.001,-157.51 332.024,-157.51 "/>
<text text-anchor="middle" x="255.013" y="-145.51" font-family="Monaco" font-size="10.00"> </text>
<polyline fill="none" stroke="black" points="178.001,-136.175 332.024,-136.175 "/>
<text text-anchor="start" x="186.001" y="-124.175" font-family="Monaco" font-size="10.00">+ ~IRasterExhangeItem()</text>
</a>
</g>
</g>
<!-- Node3&#45;&gt;Node9 -->
<g id="edge10" class="edge"><title>Node3&#45;&gt;Node9</title>
<path fill="none" stroke="midnightblue" d="M137.782,-255.562C161.296,-235.293 188.81,-211.576 211.271,-192.215"/>
<polygon fill="none" stroke="midnightblue" points="135.263,-253.112 129.974,-262.292 139.834,-258.414 135.263,-253.112"/>
</g>
<!-- Node4 -->
<g id="node4" class="node"><title>Node4</title>
<g id="a_node4"><a xlink:href="class_hydro_couple_1_1_i_component_item.html" target="_top" xlink:title="IComponentItem is a fundamental unit of data for a component. ">
<polygon fill="white" stroke="black" points="178,-410.194 178,-500.869 356.026,-500.869 356.026,-410.194 178,-410.194"/>
<text text-anchor="middle" x="267.013" y="-488.869" font-family="Monaco" font-size="10.00">HydroCouple::IComponentItem</text>
<polyline fill="none" stroke="black" points="178,-479.534 356.026,-479.534 "/>
<text text-anchor="middle" x="267.013" y="-467.534" font-family="Monaco" font-size="10.00"> </text>
<polyline fill="none" stroke="black" points="178,-458.199 356.026,-458.199 "/>
<text text-anchor="start" x="186" y="-446.199" font-family="Monaco" font-size="10.00">+ ~IComponentItem()</text>
<text text-anchor="start" x="186" y="-432.864" font-family="Monaco" font-size="10.00">+ modelComponent()</text>
<text text-anchor="start" x="186" y="-419.529" font-family="Monaco" font-size="10.00">+ dimensions()</text>
</a>
</g>
</g>
<!-- Node4&#45;&gt;Node3 -->
<g id="edge3" class="edge"><title>Node4&#45;&gt;Node3</title>
<path fill="none" stroke="midnightblue" d="M206.301,-403.432C181.663,-382.694 153.708,-359.165 130.953,-340.013"/>
<polygon fill="none" stroke="midnightblue" points="204.269,-406.296 214.173,-410.058 208.777,-400.941 204.269,-406.296"/>
</g>
<!-- Node8 -->
<g id="node8" class="node"><title>Node8</title>
<g id="a_node8"><a xlink:href="class_hydro_couple_1_1_temporal_1_1_i_time_component_item.html" target="_top" xlink:title="ITimeComponentItem is an IComponentItem with a temporal attribute. ">
<polygon fill="white" stroke="black" points="190.001,-235.847 190.001,-366.527 344.024,-366.527 344.024,-235.847 190.001,-235.847"/>
<text text-anchor="start" x="198.001" y="-354.527" font-family="Monaco" font-size="10.00">HydroCouple::Temporal</text>
<text text-anchor="middle" x="267.013" y="-341.192" font-family="Monaco" font-size="10.00">::ITimeComponentItem</text>
<polyline fill="none" stroke="black" points="190.001,-331.857 344.024,-331.857 "/>
<text text-anchor="middle" x="267.013" y="-319.857" font-family="Monaco" font-size="10.00"> </text>
<polyline fill="none" stroke="black" points="190.001,-310.522 344.024,-310.522 "/>
<text text-anchor="start" x="198.001" y="-298.522" font-family="Monaco" font-size="10.00">+ ~ITimeComponentItem()</text>
<text text-anchor="start" x="198.001" y="-285.187" font-family="Monaco" font-size="10.00">+ timeDimension()</text>
<text text-anchor="start" x="198.001" y="-271.852" font-family="Monaco" font-size="10.00">+ times()</text>
<text text-anchor="start" x="198.001" y="-258.517" font-family="Monaco" font-size="10.00">+ timeSpan()</text>
<text text-anchor="start" x="198.001" y="-245.182" font-family="Monaco" font-size="10.00">+ time()</text>
</a>
</g>
</g>
<!-- Node4&#45;&gt;Node8 -->
<g id="edge8" class="edge"><title>Node4&#45;&gt;Node8</title>
<path fill="none" stroke="midnightblue" d="M267.013,-399.91C267.013,-389.09 267.013,-377.638 267.013,-366.53"/>
<polygon fill="none" stroke="midnightblue" points="263.513,-400.058 267.013,-410.058 270.513,-400.058 263.513,-400.058"/>
</g>
<!-- Node10 -->
<g id="node10" class="node"><title>Node10</title>
<g id="a_node10"><a xlink:href="class_hydro_couple_1_1_spatial_1_1_i_raster_component_item.html" target="_top" xlink:title="An IRasterComponentItem represents an IRaster IComponentItem. ">
<polygon fill="white" stroke="black" points="362,-229.18 362,-373.194 528.025,-373.194 528.025,-229.18 362,-229.18"/>
<text text-anchor="start" x="370" y="-361.194" font-family="Monaco" font-size="10.00">HydroCouple::Spatial</text>
<text text-anchor="middle" x="445.013" y="-347.859" font-family="Monaco" font-size="10.00">::IRasterComponentItem</text>
<polyline fill="none" stroke="black" points="362,-338.524 528.025,-338.524 "/>
<text text-anchor="middle" x="445.013" y="-326.524" font-family="Monaco" font-size="10.00"> </text>
<polyline fill="none" stroke="black" points="362,-317.189 528.025,-317.189 "/>
<text text-anchor="start" x="370" y="-305.189" font-family="Monaco" font-size="10.00">+ ~IRasterComponentItem()</text>
<text text-anchor="start" x="370" y="-291.854" font-family="Monaco" font-size="10.00">+ rasterDimension()</text>
<text text-anchor="start" x="370" y="-278.52" font-family="Monaco" font-size="10.00">+ xDimension()</text>
<text text-anchor="start" x="370" y="-265.185" font-family="Monaco" font-size="10.00">+ yDimension()</text>
<text text-anchor="start" x="370" y="-251.85" font-family="Monaco" font-size="10.00">+ bandDimension()</text>
<text text-anchor="start" x="370" y="-238.515" font-family="Monaco" font-size="10.00">+ raster()</text>
</a>
</g>
</g>
<!-- Node4&#45;&gt;Node10 -->
<g id="edge12" class="edge"><title>Node4&#45;&gt;Node10</title>
<path fill="none" stroke="midnightblue" d="M326.672,-403.471C337.967,-393.804 349.972,-383.53 361.838,-373.374"/>
<polygon fill="none" stroke="midnightblue" points="324.298,-400.896 318.976,-410.058 328.849,-406.215 324.298,-400.896"/>
</g>
<!-- Node5 -->
<g id="node5" class="node"><title>Node5</title>
<g id="a_node5"><a xlink:href="class_hydro_couple_1_1_i_identity.html" target="_top" xlink:title="IIdentity interface class defines a method to get the Id of an HydroCouple entity. ">
<polygon fill="white" stroke="black" points="193.002,-537.869 193.002,-615.209 341.023,-615.209 341.023,-537.869 193.002,-537.869"/>
<text text-anchor="middle" x="267.013" y="-603.209" font-family="Monaco" font-size="10.00">HydroCouple::IIdentity</text>
<polyline fill="none" stroke="black" points="193.002,-593.874 341.023,-593.874 "/>
<text text-anchor="middle" x="267.013" y="-581.874" font-family="Monaco" font-size="10.00"> </text>
<polyline fill="none" stroke="black" points="193.002,-572.539 341.023,-572.539 "/>
<text text-anchor="start" x="201.002" y="-560.539" font-family="Monaco" font-size="10.00">+ ~IIdentity()</text>
<text text-anchor="start" x="201.002" y="-547.204" font-family="Monaco" font-size="10.00">+ id()</text>
</a>
</g>
</g>
<!-- Node5&#45;&gt;Node4 -->
<g id="edge4" class="edge"><title>Node5&#45;&gt;Node4</title>
<path fill="none" stroke="midnightblue" d="M267.013,-527.549C267.013,-518.851 267.013,-509.811 267.013,-501.212"/>
<polygon fill="none" stroke="midnightblue" points="263.513,-527.557 267.013,-537.557 270.513,-527.557 263.513,-527.557"/>
</g>
<!-- Node6 -->
<g id="node6" class="node"><title>Node6</title>
<g id="a_node6"><a xlink:href="class_hydro_couple_1_1_i_description.html" target="_top" xlink:title="IDescription interface class provides descriptive information on a HydroCouple object. ">
<polygon fill="white" stroke="black" points="184,-652.209 184,-769.554 350.025,-769.554 350.025,-652.209 184,-652.209"/>
<text text-anchor="middle" x="267.013" y="-757.554" font-family="Monaco" font-size="10.00">HydroCouple::IDescription</text>
<polyline fill="none" stroke="black" points="184,-748.219 350.025,-748.219 "/>
<text text-anchor="middle" x="267.013" y="-736.219" font-family="Monaco" font-size="10.00"> </text>
<polyline fill="none" stroke="black" points="184,-726.884 350.025,-726.884 "/>
<text text-anchor="start" x="192" y="-714.884" font-family="Monaco" font-size="10.00">+ ~IDescription()</text>
<text text-anchor="start" x="192" y="-701.549" font-family="Monaco" font-size="10.00">+ getCaption()</text>
<text text-anchor="start" x="192" y="-688.214" font-family="Monaco" font-size="10.00">+ setCaption()</text>
<text text-anchor="start" x="192" y="-674.879" font-family="Monaco" font-size="10.00">+ getDescription()</text>
<text text-anchor="start" x="192" y="-661.544" font-family="Monaco" font-size="10.00">+ setDescription()</text>
</a>
</g>
</g>
<!-- Node6&#45;&gt;Node5 -->
<g id="edge5" class="edge"><title>Node6&#45;&gt;Node5</title>
<path fill="none" stroke="midnightblue" d="M267.013,-641.643C267.013,-632.604 267.013,-623.617 267.013,-615.356"/>
<polygon fill="none" stroke="midnightblue" points="263.513,-641.834 267.013,-651.834 270.513,-641.834 263.513,-641.834"/>
</g>
<!-- Node7 -->
<g id="node7" class="node"><title>Node7</title>
<g id="a_node7"><a xlink:href="class_hydro_couple_1_1_i_property_changed.html" target="_top" xlink:title="IPropertyChanged interface is used to emit signal/event when a property of an object changes...">
<polygon fill="white" stroke="black" points="171.999,-806.554 171.999,-870.559 362.027,-870.559 362.027,-806.554 171.999,-806.554"/>
<text text-anchor="middle" x="267.013" y="-858.559" font-family="Monaco" font-size="10.00">HydroCouple::IPropertyChanged</text>
<polyline fill="none" stroke="black" points="171.999,-849.224 362.027,-849.224 "/>
<text text-anchor="middle" x="267.013" y="-837.224" font-family="Monaco" font-size="10.00"> </text>
<polyline fill="none" stroke="black" points="171.999,-827.889 362.027,-827.889 "/>
<text text-anchor="start" x="179.999" y="-815.889" font-family="Monaco" font-size="10.00">+ ~IPropertyChanged()</text>
</a>
</g>
</g>
<!-- Node7&#45;&gt;Node6 -->
<g id="edge6" class="edge"><title>Node7&#45;&gt;Node6</title>
<path fill="none" stroke="midnightblue" d="M267.013,-796.233C267.013,-787.848 267.013,-778.882 267.013,-770.04"/>
<polygon fill="none" stroke="midnightblue" points="263.513,-796.49 267.013,-806.49 270.513,-796.49 263.513,-796.49"/>
</g>
<!-- Node8&#45;&gt;Node2 -->
<g id="edge7" class="edge"><title>Node8&#45;&gt;Node2</title>
<path fill="none" stroke="midnightblue" d="M181.822,-229.332C181.552,-229.114 181.282,-228.897 181.013,-228.68 166.186,-216.732 149.896,-203.907 135.057,-192.337"/>
<polygon fill="none" stroke="midnightblue" points="179.777,-232.18 189.75,-235.755 184.183,-226.74 179.777,-232.18"/>
</g>
<!-- Node11 -->
<g id="node11" class="node"><title>Node11</title>
<g id="a_node11"><a xlink:href="class_hydro_couple_1_1_spatio_temporal_1_1_i_time_raster_component_item.html" target="_top" xlink:title="The ITimeRasterComponentItem class. ">
<polygon fill="white" stroke="black" points="349.999,-114.84 349.999,-192.18 540.027,-192.18 540.027,-114.84 349.999,-114.84"/>
<text text-anchor="start" x="357.999" y="-180.18" font-family="Monaco" font-size="10.00">HydroCouple::SpatioTemporal</text>
<text text-anchor="middle" x="445.013" y="-166.845" font-family="Monaco" font-size="10.00">::ITimeRasterComponentItem</text>
<polyline fill="none" stroke="black" points="349.999,-157.51 540.027,-157.51 "/>
<text text-anchor="middle" x="445.013" y="-145.51" font-family="Monaco" font-size="10.00"> </text>
<polyline fill="none" stroke="black" points="349.999,-136.175 540.027,-136.175 "/>
<text text-anchor="start" x="357.999" y="-124.175" font-family="Monaco" font-size="10.00">+ ~ITimeRasterComponentItem()</text>
</a>
</g>
</g>
<!-- Node8&#45;&gt;Node11 -->
<g id="edge14" class="edge"><title>Node8&#45;&gt;Node11</title>
<path fill="none" stroke="midnightblue" d="M352.209,-229.338C352.477,-229.118 352.745,-228.899 353.013,-228.68 367.458,-216.852 383.259,-204.061 397.626,-192.487"/>
<polygon fill="none" stroke="midnightblue" points="349.831,-226.762 344.322,-235.812 354.272,-232.173 349.831,-226.762"/>
</g>
<!-- Node9&#45;&gt;Node1 -->
<g id="edge9" class="edge"><title>Node9&#45;&gt;Node1</title>
<path fill="none" stroke="midnightblue" d="M255.013,-104.548C255.013,-95.6678 255.013,-86.5077 255.013,-77.9816"/>
<polygon fill="none" stroke="midnightblue" points="251.513,-104.79 255.013,-114.79 258.513,-104.79 251.513,-104.79"/>
</g>
<!-- Node10&#45;&gt;Node9 -->
<g id="edge11" class="edge"><title>Node10&#45;&gt;Node9</title>
<path fill="none" stroke="midnightblue" d="M353.827,-229.304C353.555,-229.096 353.284,-228.887 353.013,-228.68 337.521,-216.798 320.584,-203.934 305.214,-192.309"/>
<polygon fill="none" stroke="midnightblue" points="351.744,-232.117 361.805,-235.437 356.01,-226.568 351.744,-232.117"/>
</g>
<!-- Node10&#45;&gt;Node11 -->
<g id="edge15" class="edge"><title>Node10&#45;&gt;Node11</title>
<path fill="none" stroke="midnightblue" d="M445.013,-218.94C445.013,-209.658 445.013,-200.561 445.013,-192.262"/>
<polygon fill="none" stroke="midnightblue" points="441.513,-219.055 445.013,-229.055 448.513,-219.055 441.513,-219.055"/>
</g>
<!-- Node11&#45;&gt;Node1 -->
<g id="edge13" class="edge"><title>Node11&#45;&gt;Node1</title>
<path fill="none" stroke="midnightblue" d="M372.163,-109.437C354.638,-99.0747 336.048,-88.0832 318.964,-77.9816"/>
<polygon fill="none" stroke="midnightblue" points="370.828,-112.713 381.217,-114.79 374.39,-106.687 370.828,-112.713"/>
</g>
</g>
</svg>
