<?xml version="1.0" encoding="UTF-8" standalone="no"?>
<!DOCTYPE svg PUBLIC "-//W3C//DTD SVG 1.1//EN"
 "http://www.w3.org/Graphics/SVG/1.1/DTD/svg11.dtd">
<!-- Generated by graphviz version 2.38.0 (20140413.2041)
 -->
<!-- Title: HydroCouple::IInput Pages: 1 -->
<svg width="210pt" height="959pt"
 viewBox="0.00 0.00 210.03 959.07" xmlns="http://www.w3.org/2000/svg" xmlns:xlink="http://www.w3.org/1999/xlink">
<g id="graph0" class="graph" transform="scale(1 1) rotate(0) translate(4 955.068)">
<title>HydroCouple::IInput</title>
<polygon fill="white" stroke="none" points="-4,4 -4,-955.068 206.03,-955.068 206.03,4 -4,4"/>
<!-- Node1 -->
<g id="node1" class="node"><title>Node1</title>
<polygon fill="#bfbfbf" stroke="black" points="36.0059,-141.51 36.0059,-245.52 166.024,-245.52 166.024,-141.51 36.0059,-141.51"/>
<text text-anchor="middle" x="101.015" y="-233.52" font-family="Monaco" font-size="10.00">HydroCouple::IInput</text>
<polyline fill="none" stroke="black" points="36.0059,-224.185 166.024,-224.185 "/>
<text text-anchor="middle" x="101.015" y="-212.185" font-family="Monaco" font-size="10.00"> </text>
<polyline fill="none" stroke="black" points="36.0059,-202.85 166.024,-202.85 "/>
<text text-anchor="start" x="44.0059" y="-190.85" font-family="Monaco" font-size="10.00">+ ~IInput()</text>
<text text-anchor="start" x="44.0059" y="-177.515" font-family="Monaco" font-size="10.00">+ provider()</text>
<text text-anchor="start" x="44.0059" y="-164.18" font-family="Monaco" font-size="10.00">+ setProvider()</text>
<text text-anchor="start" x="44.0059" y="-150.845" font-family="Monaco" font-size="10.00">+ canConsume()</text>
</g>
<!-- Node7 -->
<g id="node7" class="node"><title>Node7</title>
<g id="a_node7"><a xlink:href="class_hydro_couple_1_1_i_multi_input.html" target="_top" xlink:title="The IMultiInput class is an IInput class that has multiple outputs supplying data to it...">
<polygon fill="white" stroke="black" points="21.0034,-0.5 21.0034,-104.51 181.027,-104.51 181.027,-0.5 21.0034,-0.5"/>
<text text-anchor="middle" x="101.015" y="-92.5098" font-family="Monaco" font-size="10.00">HydroCouple::IMultiInput</text>
<polyline fill="none" stroke="black" points="21.0034,-83.1748 181.027,-83.1748 "/>
<text text-anchor="middle" x="101.015" y="-71.1748" font-family="Monaco" font-size="10.00"> </text>
<polyline fill="none" stroke="black" points="21.0034,-61.8398 181.027,-61.8398 "/>
<text text-anchor="start" x="29.0034" y="-49.8398" font-family="Monaco" font-size="10.00">+ ~IMultiInput()</text>
<text text-anchor="start" x="29.0034" y="-36.5049" font-family="Monaco" font-size="10.00">+ providers()</text>
<text text-anchor="start" x="29.0034" y="-23.1699" font-family="Monaco" font-size="10.00">+ addProvider()</text>
<text text-anchor="start" x="29.0034" y="-9.83496" font-family="Monaco" font-size="10.00">+ removeProvider()</text>
</a>
</g>
</g>
<!-- Node1&#45;&gt;Node7 -->
<g id="edge6" class="edge"><title>Node1&#45;&gt;Node7</title>
<path fill="none" stroke="midnightblue" d="M101.015,-130.951C101.015,-122.169 101.015,-113.215 101.015,-104.661"/>
<polygon fill="none" stroke="midnightblue" points="97.5152,-131.147 101.015,-141.147 104.515,-131.148 97.5152,-131.147"/>
</g>
<!-- Node2 -->
<g id="node2" class="node"><title>Node2</title>
<g id="a_node2"><a xlink:href="class_hydro_couple_1_1_i_exchange_item.html" target="_top" xlink:title="IExchangeItem the base data item the can be exchanged between components at runtime. ">
<polygon fill="white" stroke="black" points="15.0024,-282.52 15.0024,-359.859 187.028,-359.859 187.028,-282.52 15.0024,-282.52"/>
<text text-anchor="middle" x="101.015" y="-347.859" font-family="Monaco" font-size="10.00">HydroCouple::IExchangeItem</text>
<polyline fill="none" stroke="black" points="15.0024,-338.524 187.028,-338.524 "/>
<text text-anchor="middle" x="101.015" y="-326.524" font-family="Monaco" font-size="10.00"> </text>
<polyline fill="none" stroke="black" points="15.0024,-317.189 187.028,-317.189 "/>
<text text-anchor="start" x="23.0024" y="-305.189" font-family="Monaco" font-size="10.00">+ ~IExchangeItem()</text>
<text text-anchor="start" x="23.0024" y="-291.854" font-family="Monaco" font-size="10.00">+ itemChanged()</text>
</a>
</g>
</g>
<!-- Node2&#45;&gt;Node1 -->
<g id="edge1" class="edge"><title>Node2&#45;&gt;Node1</title>
<path fill="none" stroke="midnightblue" d="M101.015,-272.443C101.015,-263.691 101.015,-254.524 101.015,-245.677"/>
<polygon fill="none" stroke="midnightblue" points="97.5152,-272.483 101.015,-282.483 104.515,-272.483 97.5152,-272.483"/>
</g>
<!-- Node3 -->
<g id="node3" class="node"><title>Node3</title>
<g id="a_node3"><a xlink:href="class_hydro_couple_1_1_i_component_data_item.html" target="_top" xlink:title="IComponentItem is a fundamental unit of data for a component. ">
<polygon fill="white" stroke="black" points="0,-396.859 0,-580.879 202.03,-580.879 202.03,-396.859 0,-396.859"/>
<text text-anchor="middle" x="101.015" y="-568.879" font-family="Monaco" font-size="10.00">HydroCouple::IComponentDataItem</text>
<polyline fill="none" stroke="black" points="0,-559.544 202.03,-559.544 "/>
<text text-anchor="middle" x="101.015" y="-547.544" font-family="Monaco" font-size="10.00"> </text>
<polyline fill="none" stroke="black" points="0,-538.209 202.03,-538.209 "/>
<text text-anchor="start" x="8" y="-526.209" font-family="Monaco" font-size="10.00">+ ~IComponentDataItem()</text>
<text text-anchor="start" x="8" y="-512.874" font-family="Monaco" font-size="10.00">+ modelComponent()</text>
<text text-anchor="start" x="8" y="-499.539" font-family="Monaco" font-size="10.00">+ dimensions()</text>
<text text-anchor="start" x="8" y="-486.204" font-family="Monaco" font-size="10.00">+ valueDefinition()</text>
<text text-anchor="start" x="8" y="-472.869" font-family="Monaco" font-size="10.00">+ getValue()</text>
<text text-anchor="start" x="8" y="-459.534" font-family="Monaco" font-size="10.00">+ getValues()</text>
<text text-anchor="start" x="8" y="-446.199" font-family="Monaco" font-size="10.00">+ getValues()</text>
<text text-anchor="start" x="8" y="-432.864" font-family="Monaco" font-size="10.00">+ setValue()</text>
<text text-anchor="start" x="8" y="-419.529" font-family="Monaco" font-size="10.00">+ setValues()</text>
<text text-anchor="start" x="8" y="-406.194" font-family="Monaco" font-size="10.00">+ setValues()</text>
</a>
</g>
</g>
<!-- Node3&#45;&gt;Node2 -->
<g id="edge2" class="edge"><title>Node3&#45;&gt;Node2</title>
<path fill="none" stroke="midnightblue" d="M101.015,-386.565C101.015,-377.239 101.015,-368.242 101.015,-360.08"/>
<polygon fill="none" stroke="midnightblue" points="97.5152,-386.79 101.015,-396.79 104.515,-386.79 97.5152,-386.79"/>
</g>
<!-- Node4 -->
<g id="node4" class="node"><title>Node4</title>
<g id="a_node4"><a xlink:href="class_hydro_couple_1_1_i_identity.html" target="_top" xlink:title="IIdentity interface class defines a method to get the Id of an HydroCouple entity. ">
<polygon fill="white" stroke="black" points="27.0044,-617.879 27.0044,-695.219 175.026,-695.219 175.026,-617.879 27.0044,-617.879"/>
<text text-anchor="middle" x="101.015" y="-683.219" font-family="Monaco" font-size="10.00">HydroCouple::IIdentity</text>
<polyline fill="none" stroke="black" points="27.0044,-673.884 175.026,-673.884 "/>
<text text-anchor="middle" x="101.015" y="-661.884" font-family="Monaco" font-size="10.00"> </text>
<polyline fill="none" stroke="black" points="27.0044,-652.549 175.026,-652.549 "/>
<text text-anchor="start" x="35.0044" y="-640.549" font-family="Monaco" font-size="10.00">+ ~IIdentity()</text>
<text text-anchor="start" x="35.0044" y="-627.214" font-family="Monaco" font-size="10.00">+ id()</text>
</a>
</g>
</g>
<!-- Node4&#45;&gt;Node3 -->
<g id="edge3" class="edge"><title>Node4&#45;&gt;Node3</title>
<path fill="none" stroke="midnightblue" d="M101.015,-607.297C101.015,-598.943 101.015,-590.018 101.015,-580.96"/>
<polygon fill="none" stroke="midnightblue" points="97.5152,-607.539 101.015,-617.539 104.515,-607.539 97.5152,-607.539"/>
</g>
<!-- Node5 -->
<g id="node5" class="node"><title>Node5</title>
<g id="a_node5"><a xlink:href="class_hydro_couple_1_1_i_description.html" target="_top" xlink:title="IDescription interface class provides descriptive information on a HydroCouple object. ">
<polygon fill="white" stroke="black" points="18.0029,-732.219 18.0029,-849.563 184.027,-849.563 184.027,-732.219 18.0029,-732.219"/>
<text text-anchor="middle" x="101.015" y="-837.563" font-family="Monaco" font-size="10.00">HydroCouple::IDescription</text>
<polyline fill="none" stroke="black" points="18.0029,-828.229 184.027,-828.229 "/>
<text text-anchor="middle" x="101.015" y="-816.229" font-family="Monaco" font-size="10.00"> </text>
<polyline fill="none" stroke="black" points="18.0029,-806.894 184.027,-806.894 "/>
<text text-anchor="start" x="26.0029" y="-794.894" font-family="Monaco" font-size="10.00">+ ~IDescription()</text>
<text text-anchor="start" x="26.0029" y="-781.559" font-family="Monaco" font-size="10.00">+ caption()</text>
<text text-anchor="start" x="26.0029" y="-768.224" font-family="Monaco" font-size="10.00">+ setCaption()</text>
<text text-anchor="start" x="26.0029" y="-754.889" font-family="Monaco" font-size="10.00">+ description()</text>
<text text-anchor="start" x="26.0029" y="-741.554" font-family="Monaco" font-size="10.00">+ setDescription()</text>
</a>
</g>
</g>
<!-- Node5&#45;&gt;Node4 -->
<g id="edge4" class="edge"><title>Node5&#45;&gt;Node4</title>
<path fill="none" stroke="midnightblue" d="M101.015,-721.653C101.015,-712.614 101.015,-703.627 101.015,-695.366"/>
<polygon fill="none" stroke="midnightblue" points="97.5152,-721.844 101.015,-731.844 104.515,-721.844 97.5152,-721.844"/>
</g>
<!-- Node6 -->
<g id="node6" class="node"><title>Node6</title>
<g id="a_node6"><a xlink:href="class_hydro_couple_1_1_i_property_changed.html" target="_top" xlink:title="IPropertyChanged interface is used to emit signal/event when a property of an object changes...">
<polygon fill="white" stroke="black" points="6.00098,-886.563 6.00098,-950.568 196.029,-950.568 196.029,-886.563 6.00098,-886.563"/>
<text text-anchor="middle" x="101.015" y="-938.568" font-family="Monaco" font-size="10.00">HydroCouple::IPropertyChanged</text>
<polyline fill="none" stroke="black" points="6.00098,-929.233 196.029,-929.233 "/>
<text text-anchor="middle" x="101.015" y="-917.233" font-family="Monaco" font-size="10.00"> </text>
<polyline fill="none" stroke="black" points="6.00098,-907.898 196.029,-907.898 "/>
<text text-anchor="start" x="14.001" y="-895.898" font-family="Monaco" font-size="10.00">+ ~IPropertyChanged()</text>
</a>
</g>
</g>
<!-- Node6&#45;&gt;Node5 -->
<g id="edge5" class="edge"><title>Node6&#45;&gt;Node5</title>
<path fill="none" stroke="midnightblue" d="M101.015,-876.243C101.015,-867.858 101.015,-858.892 101.015,-850.049"/>
<polygon fill="none" stroke="midnightblue" points="97.5152,-876.5 101.015,-886.5 104.515,-876.5 97.5152,-876.5"/>
</g>
</g>
</svg>
