<?xml version="1.0" encoding="UTF-8" standalone="no"?>
<!DOCTYPE svg PUBLIC "-//W3C//DTD SVG 1.1//EN"
 "http://www.w3.org/Graphics/SVG/1.1/DTD/svg11.dtd">
<!-- Generated by graphviz version 2.38.0 (20140413.2041)
 -->
<!-- Title: HydroCouple::IAdaptedOutput Pages: 1 -->
<!--zoomable 1012 -->
<svg id="main" version="1.1" xmlns="http://www.w3.org/2000/svg" xmlns:xlink="http://www.w3.org/1999/xlink" xml:space="preserve" onload="init(evt)">
<style type="text/css"><![CDATA[
.edge:hover path { stroke: red; }
.edge:hover polygon { stroke: red; fill: red; }
]]></style>
<script type="text/javascript"><![CDATA[
var edges = document.getElementsByTagName('g');
if (edges && edges.length) {
  for (var i=0;i<edges.length;i++) {
    if (edges[i].id.substr(0,4)=='edge') {
      edges[i].setAttribute('class','edge');
    }
  }
}
]]></script>
        <defs>
                <circle id="rim" cx="0" cy="0" r="7"/>
                <circle id="rim2" cx="0" cy="0" r="3.5"/>
                <g id="zoomPlus">
                        <use xlink:href="#rim" fill="#404040">
                                <set attributeName="fill" to="#808080" begin="zoomplus.mouseover" end="zoomplus.mouseout"/>
                        </use>
                        <path d="M-4,0h8M0,-4v8" fill="none" stroke="white" stroke-width="1.5" pointer-events="none"/>
                </g>
                <g id="zoomMin">
                        <use xlink:href="#rim" fill="#404040">
                                <set attributeName="fill" to="#808080" begin="zoomminus.mouseover" end="zoomminus.mouseout"/>
                        </use>
                        <path d="M-4,0h8" fill="none" stroke="white" stroke-width="1.5" pointer-events="none"/>
                </g>
                <g id="dirArrow">
                        <path fill="none" stroke="white" stroke-width="1.5" d="M0,-3.0v7 M-2.5,-0.5L0,-3.0L2.5,-0.5"/>
                </g>
               <g id="resetDef">
                       <use xlink:href="#rim2" fill="#404040">
                               <set attributeName="fill" to="#808080" begin="reset.mouseover" end="reset.mouseout"/>
                       </use>
               </g>
        </defs>

<script type="text/javascript">
var viewWidth = 198;
var viewHeight = 1012;
var sectionId = 'dynsection-0';
</script>
<script xlink:href="svgpan.js"/>
<svg id="graph" class="graph">
<g id="viewport">
<title>HydroCouple::IAdaptedOutput</title>
<polygon fill="white" stroke="none" points="-4,4 -4,-1008.41 194.028,-1008.41 194.028,4 -4,4"/>
<!-- Node1 -->
<g id="node1" class="node"><title>Node1</title>
<polygon fill="#bfbfbf" stroke="black" points="6.00098,-0.5 6.00098,-144.515 184.027,-144.515 184.027,-0.5 6.00098,-0.5"/>
<text text-anchor="middle" x="95.0142" y="-132.515" font-family="Monaco" font-size="10.00">HydroCouple::IAdaptedOutput</text>
<polyline fill="none" stroke="black" points="6.00098,-123.18 184.027,-123.18 "/>
<text text-anchor="middle" x="95.0142" y="-111.18" font-family="Monaco" font-size="10.00"> </text>
<polyline fill="none" stroke="black" points="6.00098,-101.845 184.027,-101.845 "/>
<text text-anchor="start" x="14.001" y="-89.8447" font-family="Monaco" font-size="10.00">+ ~IAdaptedOutput()</text>
<text text-anchor="start" x="14.001" y="-76.5098" font-family="Monaco" font-size="10.00">+ adaptedOutputFactory()</text>
<text text-anchor="start" x="14.001" y="-63.1748" font-family="Monaco" font-size="10.00">+ arguments()</text>
<text text-anchor="start" x="14.001" y="-49.8398" font-family="Monaco" font-size="10.00">+ setArgument()</text>
<text text-anchor="start" x="14.001" y="-36.5049" font-family="Monaco" font-size="10.00">+ initialize()</text>
<text text-anchor="start" x="14.001" y="-23.1699" font-family="Monaco" font-size="10.00">+ adaptee()</text>
<text text-anchor="start" x="14.001" y="-9.83496" font-family="Monaco" font-size="10.00">+ refresh()</text>
</g>
<!-- Node2 -->
<g id="node2" class="node"><title>Node2</title>
<g id="a_node2"><a xlink:href="class_hydro_couple_1_1_i_output.html" target="_top" xlink:title="An output exchange item that can deliver values from an IModelComponent. ">
<polygon fill="white" stroke="black" points="18.0029,-181.515 18.0029,-338.864 172.025,-338.864 172.025,-181.515 18.0029,-181.515"/>
<text text-anchor="middle" x="95.0142" y="-326.864" font-family="Monaco" font-size="10.00">HydroCouple::IOutput</text>
<polyline fill="none" stroke="black" points="18.0029,-317.529 172.025,-317.529 "/>
<text text-anchor="middle" x="95.0142" y="-305.529" font-family="Monaco" font-size="10.00"> </text>
<polyline fill="none" stroke="black" points="18.0029,-296.194 172.025,-296.194 "/>
<text text-anchor="start" x="26.0029" y="-284.194" font-family="Monaco" font-size="10.00">+ ~IOutput()</text>
<text text-anchor="start" x="26.0029" y="-270.859" font-family="Monaco" font-size="10.00">+ consumers()</text>
<text text-anchor="start" x="26.0029" y="-257.524" font-family="Monaco" font-size="10.00">+ addConsumer()</text>
<text text-anchor="start" x="26.0029" y="-244.189" font-family="Monaco" font-size="10.00">+ removeConsumer()</text>
<text text-anchor="start" x="26.0029" y="-230.854" font-family="Monaco" font-size="10.00">+ adaptedOutputs()</text>
<text text-anchor="start" x="26.0029" y="-217.52" font-family="Monaco" font-size="10.00">+ addAdaptedOutput()</text>
<text text-anchor="start" x="26.0029" y="-204.185" font-family="Monaco" font-size="10.00">+ removeAdaptedOutput()</text>
<text text-anchor="start" x="26.0029" y="-190.85" font-family="Monaco" font-size="10.00">+ updateValues()</text>
</a>
</g>
</g>
<!-- Node2&#45;&gt;Node1 -->
<g id="edge1" class="edge"><title>Node2&#45;&gt;Node1</title>
<path fill="none" stroke="midnightblue" d="M95.0142,-170.971C95.0142,-162.177 95.0142,-153.327 95.0142,-144.738"/>
<polygon fill="none" stroke="midnightblue" points="91.5143,-171.251 95.0142,-181.251 98.5143,-171.251 91.5143,-171.251"/>
</g>
<!-- Node3 -->
<g id="node3" class="node"><title>Node3</title>
<g id="a_node3"><a xlink:href="class_hydro_couple_1_1_i_exchange_item.html" target="_top" xlink:title="IExchangeItem the base data item the can be exchanged between components at runtime. ">
<polygon fill="white" stroke="black" points="9.00146,-375.864 9.00146,-466.539 181.027,-466.539 181.027,-375.864 9.00146,-375.864"/>
<text text-anchor="middle" x="95.0142" y="-454.539" font-family="Monaco" font-size="10.00">HydroCouple::IExchangeItem</text>
<polyline fill="none" stroke="black" points="9.00146,-445.204 181.027,-445.204 "/>
<text text-anchor="middle" x="95.0142" y="-433.204" font-family="Monaco" font-size="10.00"> </text>
<polyline fill="none" stroke="black" points="9.00146,-423.869 181.027,-423.869 "/>
<text text-anchor="start" x="17.0015" y="-411.869" font-family="Monaco" font-size="10.00">+ ~IExchangeItem()</text>
<text text-anchor="start" x="17.0015" y="-398.534" font-family="Monaco" font-size="10.00">+ values()</text>
<text text-anchor="start" x="17.0015" y="-385.199" font-family="Monaco" font-size="10.00">+ itemChanged()</text>
</a>
</g>
</g>
<!-- Node3&#45;&gt;Node2 -->
<g id="edge2" class="edge"><title>Node3&#45;&gt;Node2</title>
<path fill="none" stroke="midnightblue" d="M95.0142,-365.34C95.0142,-356.828 95.0142,-347.898 95.0142,-338.996"/>
<polygon fill="none" stroke="midnightblue" points="91.5143,-365.485 95.0142,-375.485 98.5143,-365.485 91.5143,-365.485"/>
</g>
<!-- Node4 -->
<g id="node4" class="node"><title>Node4</title>
<g id="a_node4"><a xlink:href="class_hydro_couple_1_1_i_component_item.html" target="_top" xlink:title="IComponentItem is a fundamental unit of data for a component. ">
<polygon fill="white" stroke="black" points="6.00098,-503.539 6.00098,-607.549 184.027,-607.549 184.027,-503.539 6.00098,-503.539"/>
<text text-anchor="middle" x="95.0142" y="-595.549" font-family="Monaco" font-size="10.00">HydroCouple::IComponentItem</text>
<polyline fill="none" stroke="black" points="6.00098,-586.214 184.027,-586.214 "/>
<text text-anchor="middle" x="95.0142" y="-574.214" font-family="Monaco" font-size="10.00"> </text>
<polyline fill="none" stroke="black" points="6.00098,-564.879 184.027,-564.879 "/>
<text text-anchor="start" x="14.001" y="-552.879" font-family="Monaco" font-size="10.00">+ ~IComponentItem()</text>
<text text-anchor="start" x="14.001" y="-539.544" font-family="Monaco" font-size="10.00">+ modelComponent()</text>
<text text-anchor="start" x="14.001" y="-526.209" font-family="Monaco" font-size="10.00">+ modelComponentId()</text>
<text text-anchor="start" x="14.001" y="-512.874" font-family="Monaco" font-size="10.00">+ dimensions()</text>
</a>
</g>
</g>
<!-- Node4&#45;&gt;Node3 -->
<g id="edge3" class="edge"><title>Node4&#45;&gt;Node3</title>
<path fill="none" stroke="midnightblue" d="M95.0142,-493.35C95.0142,-484.391 95.0142,-475.31 95.0142,-466.769"/>
<polygon fill="none" stroke="midnightblue" points="91.5143,-493.377 95.0142,-503.377 98.5143,-493.377 91.5143,-493.377"/>
</g>
<!-- Node5 -->
<g id="node5" class="node"><title>Node5</title>
<g id="a_node5"><a xlink:href="class_hydro_couple_1_1_i_identity.html" target="_top" xlink:title="IIdentity interface class defines a method to get the Id of an HydroCouple entity. ">
<polygon fill="white" stroke="black" points="21.0034,-644.549 21.0034,-748.559 169.025,-748.559 169.025,-644.549 21.0034,-644.549"/>
<text text-anchor="middle" x="95.0142" y="-736.559" font-family="Monaco" font-size="10.00">HydroCouple::IIdentity</text>
<polyline fill="none" stroke="black" points="21.0034,-727.224 169.025,-727.224 "/>
<text text-anchor="middle" x="95.0142" y="-715.224" font-family="Monaco" font-size="10.00"> </text>
<polyline fill="none" stroke="black" points="21.0034,-705.889 169.025,-705.889 "/>
<text text-anchor="start" x="29.0034" y="-693.889" font-family="Monaco" font-size="10.00">+ ~IIdentity()</text>
<text text-anchor="start" x="29.0034" y="-680.554" font-family="Monaco" font-size="10.00">+ MPI_Comm()</text>
<text text-anchor="start" x="29.0034" y="-667.219" font-family="Monaco" font-size="10.00">+ MPI_Rank()</text>
<text text-anchor="start" x="29.0034" y="-653.884" font-family="Monaco" font-size="10.00">+ id()</text>
</a>
</g>
</g>
<!-- Node5&#45;&gt;Node4 -->
<g id="edge4" class="edge"><title>Node5&#45;&gt;Node4</title>
<path fill="none" stroke="midnightblue" d="M95.0142,-633.99C95.0142,-625.208 95.0142,-616.254 95.0142,-607.7"/>
<polygon fill="none" stroke="midnightblue" points="91.5143,-634.187 95.0142,-644.187 98.5143,-634.187 91.5143,-634.187"/>
</g>
<!-- Node6 -->
<g id="node6" class="node"><title>Node6</title>
<g id="a_node6"><a xlink:href="class_hydro_couple_1_1_i_description.html" target="_top" xlink:title="IDescription interface class provides descriptive information on a HydroCouple object. ">
<polygon fill="white" stroke="black" points="12.002,-785.559 12.002,-902.903 178.026,-902.903 178.026,-785.559 12.002,-785.559"/>
<text text-anchor="middle" x="95.0142" y="-890.903" font-family="Monaco" font-size="10.00">HydroCouple::IDescription</text>
<polyline fill="none" stroke="black" points="12.002,-881.568 178.026,-881.568 "/>
<text text-anchor="middle" x="95.0142" y="-869.568" font-family="Monaco" font-size="10.00"> </text>
<polyline fill="none" stroke="black" points="12.002,-860.233 178.026,-860.233 "/>
<text text-anchor="start" x="20.002" y="-848.233" font-family="Monaco" font-size="10.00">+ ~IDescription()</text>
<text text-anchor="start" x="20.002" y="-834.898" font-family="Monaco" font-size="10.00">+ getCaption()</text>
<text text-anchor="start" x="20.002" y="-821.563" font-family="Monaco" font-size="10.00">+ setCaption()</text>
<text text-anchor="start" x="20.002" y="-808.229" font-family="Monaco" font-size="10.00">+ getDescription()</text>
<text text-anchor="start" x="20.002" y="-794.894" font-family="Monaco" font-size="10.00">+ setDescription()</text>
</a>
</g>
</g>
<!-- Node6&#45;&gt;Node5 -->
<g id="edge5" class="edge"><title>Node6&#45;&gt;Node5</title>
<path fill="none" stroke="midnightblue" d="M95.0142,-774.957C95.0142,-766.139 95.0142,-757.232 95.0142,-748.754"/>
<polygon fill="none" stroke="midnightblue" points="91.5143,-775.237 95.0142,-785.237 98.5143,-775.237 91.5143,-775.237"/>
</g>
<!-- Node7 -->
<g id="node7" class="node"><title>Node7</title>
<g id="a_node7"><a xlink:href="class_hydro_couple_1_1_i_property_changed.html" target="_top" xlink:title="IPropertyChanged interface is used to emit signal/event when a property of an object changes...">
<polygon fill="white" stroke="black" points="0,-939.903 0,-1003.91 190.028,-1003.91 190.028,-939.903 0,-939.903"/>
<text text-anchor="middle" x="95.0142" y="-991.908" font-family="Monaco" font-size="10.00">HydroCouple::IPropertyChanged</text>
<polyline fill="none" stroke="black" points="0,-982.573 190.028,-982.573 "/>
<text text-anchor="middle" x="95.0142" y="-970.573" font-family="Monaco" font-size="10.00"> </text>
<polyline fill="none" stroke="black" points="0,-961.238 190.028,-961.238 "/>
<text text-anchor="start" x="8" y="-949.238" font-family="Monaco" font-size="10.00">+ ~IPropertyChanged()</text>
</a>
</g>
</g>
<!-- Node7&#45;&gt;Node6 -->
<g id="edge6" class="edge"><title>Node7&#45;&gt;Node6</title>
<path fill="none" stroke="midnightblue" d="M95.0142,-929.583C95.0142,-921.198 95.0142,-912.231 95.0142,-903.389"/>
<polygon fill="none" stroke="midnightblue" points="91.5143,-929.84 95.0142,-939.84 98.5143,-929.84 91.5143,-929.84"/>
</g>
</g>
</svg>
        <g id="navigator" transform="translate(0 0)" fill="#404254">
                <rect fill="#f2f5e9" fill-opacity="0.5" stroke="#606060" stroke-width=".5" x="0" y="0" width="60" height="60"/>
                <use id="zoomplus" xlink:href="#zoomPlus" x="17" y="9" onmousedown="handleZoom(evt,'in')"/>
                <use id="zoomminus" xlink:href="#zoomMin" x="42" y="9" onmousedown="handleZoom(evt,'out')"/>
                <use id="reset" xlink:href="#resetDef" x="30" y="36" onmousedown="handleReset()"/>
                <g id="arrowUp" xlink:href="#dirArrow" transform="translate(30 24)" onmousedown="handlePan(0,-1)">
                  <use xlink:href="#rim" fill="#404040">
                        <set attributeName="fill" to="#808080" begin="arrowUp.mouseover" end="arrowUp.mouseout"/>
                  </use>
                  <path fill="none" stroke="white" stroke-width="1.5" d="M0,-3.0v7 M-2.5,-0.5L0,-3.0L2.5,-0.5"/>
                </g>
                <g id="arrowRight" xlink:href="#dirArrow" transform="rotate(90) translate(36 -43)" onmousedown="handlePan(1,0)">
                  <use xlink:href="#rim" fill="#404040">
                        <set attributeName="fill" to="#808080" begin="arrowRight.mouseover" end="arrowRight.mouseout"/>
                  </use>
                  <path fill="none" stroke="white" stroke-width="1.5" d="M0,-3.0v7 M-2.5,-0.5L0,-3.0L2.5,-0.5"/>
                </g>
                <g id="arrowDown" xlink:href="#dirArrow" transform="rotate(180) translate(-30 -48)" onmousedown="handlePan(0,1)">
                  <use xlink:href="#rim" fill="#404040">
                        <set attributeName="fill" to="#808080" begin="arrowDown.mouseover" end="arrowDown.mouseout"/>
                  </use>
                  <path fill="none" stroke="white" stroke-width="1.5" d="M0,-3.0v7 M-2.5,-0.5L0,-3.0L2.5,-0.5"/>
                </g>
                <g id="arrowLeft" xlink:href="#dirArrow" transform="rotate(270) translate(-36 17)" onmousedown="handlePan(-1,0)">
                  <use xlink:href="#rim" fill="#404040">
                        <set attributeName="fill" to="#808080" begin="arrowLeft.mouseover" end="arrowLeft.mouseout"/>
                  </use>
                  <path fill="none" stroke="white" stroke-width="1.5" d="M0,-3.0v7 M-2.5,-0.5L0,-3.0L2.5,-0.5"/>
                </g>
        </g>
        <svg viewBox="0 0 15 15" width="100%" height="30px" preserveAspectRatio="xMaxYMin meet">
         <g id="arrow_out" transform="scale(0.3 0.3)">
          <a xlink:href="class_hydro_couple_1_1_i_adapted_output__inherit__graph_org.svg" target="_base">
           <rect id="button" ry="5" rx="5" y="6" x="6" height="38" width="38"
                fill="#f2f5e9" fill-opacity="0.5" stroke="#606060" stroke-width="1.0"/>
           <path id="arrow"
             d="M 11.500037,31.436501 C 11.940474,20.09759 22.043105,11.32322 32.158766,21.979434 L 37.068811,17.246167 C 37.068811,17.246167 37.088388,32 37.088388,32 L 22.160133,31.978069 C 22.160133,31.978069 26.997745,27.140456 26.997745,27.140456 C 18.528582,18.264221 13.291696,25.230495 11.500037,31.436501 z"
             style="fill:#404040;"/>
          </a>
         </g>
        </svg>
</svg>
