<?xml version="1.0" encoding="UTF-8" standalone="no"?>
<!DOCTYPE svg PUBLIC "-//W3C//DTD SVG 1.1//EN"
 "http://www.w3.org/Graphics/SVG/1.1/DTD/svg11.dtd">
<!-- Generated by graphviz version 2.38.0 (20140413.2041)
 -->
<!-- Title: HydroCouple::SpatioTemporal::ITimePolyhedralSurfaceArgument Pages: 1 -->
<svg width="545pt" height="809pt"
 viewBox="0.00 0.00 544.83 809.00" xmlns="http://www.w3.org/2000/svg" xmlns:xlink="http://www.w3.org/1999/xlink">
<g id="graph0" class="graph" transform="scale(1 1) rotate(0) translate(4 805)">
<title>HydroCouple::SpatioTemporal::ITimePolyhedralSurfaceArgument</title>
<polygon fill="white" stroke="none" points="-4,4 -4,-805 540.831,-805 540.831,4 -4,4"/>
<!-- Node1 -->
<g id="node1" class="node"><title>Node1</title>
<polygon fill="#bfbfbf" stroke="black" points="128.114,-0.5 128.114,-64.5 314.935,-64.5 314.935,-0.5 128.114,-0.5"/>
<text text-anchor="start" x="136.114" y="-52.5" font-family="Helvetica,sans-Serif" font-size="10.00">HydroCouple::SpatioTemporal</text>
<text text-anchor="middle" x="221.524" y="-42.5" font-family="Helvetica,sans-Serif" font-size="10.00">::ITimePolyhedralSurfaceArgument</text>
<polyline fill="none" stroke="black" points="128.114,-36.5 314.935,-36.5 "/>
<text text-anchor="middle" x="221.524" y="-24.5" font-family="Helvetica,sans-Serif" font-size="10.00"> </text>
<polyline fill="none" stroke="black" points="128.114,-18.5 314.935,-18.5 "/>
<text text-anchor="start" x="136.114" y="-6.5" font-family="Helvetica,sans-Serif" font-size="10.00">+ ~ITimePolyhedralSurfaceArgument()</text>
</g>
<!-- Node2 -->
<g id="node2" class="node"><title>Node2</title>
<g id="a_node2"><a xlink:href="class_hydro_couple_1_1_temporal_1_1_i_time_argument.html" target="_top" xlink:title="The ITimeArgument class. ">
<polygon fill="white" stroke="black" points="0,-101.5 0,-175.5 121.049,-175.5 121.049,-101.5 0,-101.5"/>
<text text-anchor="start" x="8" y="-163.5" font-family="Helvetica,sans-Serif" font-size="10.00">HydroCouple::Temporal</text>
<text text-anchor="middle" x="60.5244" y="-153.5" font-family="Helvetica,sans-Serif" font-size="10.00">::ITimeArgument</text>
<polyline fill="none" stroke="black" points="0,-147.5 121.049,-147.5 "/>
<text text-anchor="middle" x="60.5244" y="-135.5" font-family="Helvetica,sans-Serif" font-size="10.00"> </text>
<polyline fill="none" stroke="black" points="0,-129.5 121.049,-129.5 "/>
<text text-anchor="start" x="8" y="-117.5" font-family="Helvetica,sans-Serif" font-size="10.00">+ ~ITimeArgument()</text>
<text text-anchor="start" x="8" y="-107.5" font-family="Helvetica,sans-Serif" font-size="10.00">+ setTimes()</text>
</a>
</g>
</g>
<!-- Node2&#45;&gt;Node1 -->
<g id="edge1" class="edge"><title>Node2&#45;&gt;Node1</title>
<path fill="none" stroke="midnightblue" d="M124.787,-95.9885C141.049,-85.4842 158.233,-74.384 173.533,-64.5004"/>
<polygon fill="none" stroke="midnightblue" points="122.883,-93.0517 116.383,-101.418 126.682,-98.9316 122.883,-93.0517"/>
</g>
<!-- Node3 -->
<g id="node3" class="node"><title>Node3</title>
<g id="a_node3"><a xlink:href="class_hydro_couple_1_1_i_argument.html" target="_top" xlink:title="IArgument interface class used to set the arguments for components. They can be complex or simple mul...">
<polygon fill="white" stroke="black" points="17.4976,-212.5 17.4976,-366.5 143.551,-366.5 143.551,-212.5 17.4976,-212.5"/>
<text text-anchor="middle" x="80.5244" y="-354.5" font-family="Helvetica,sans-Serif" font-size="10.00">HydroCouple::IArgument</text>
<polyline fill="none" stroke="black" points="17.4976,-348.5 143.551,-348.5 "/>
<text text-anchor="middle" x="80.5244" y="-336.5" font-family="Helvetica,sans-Serif" font-size="10.00"> </text>
<polyline fill="none" stroke="black" points="17.4976,-330.5 143.551,-330.5 "/>
<text text-anchor="start" x="25.4976" y="-318.5" font-family="Helvetica,sans-Serif" font-size="10.00">+ ~IArgument()</text>
<text text-anchor="start" x="25.4976" y="-308.5" font-family="Helvetica,sans-Serif" font-size="10.00">+ isOptional()</text>
<text text-anchor="start" x="25.4976" y="-298.5" font-family="Helvetica,sans-Serif" font-size="10.00">+ isReadOnly()</text>
<text text-anchor="start" x="25.4976" y="-288.5" font-family="Helvetica,sans-Serif" font-size="10.00">+ clone()</text>
<text text-anchor="start" x="25.4976" y="-278.5" font-family="Helvetica,sans-Serif" font-size="10.00">+ valueSets()</text>
<text text-anchor="start" x="25.4976" y="-268.5" font-family="Helvetica,sans-Serif" font-size="10.00">+ toString()</text>
<text text-anchor="start" x="25.4976" y="-258.5" font-family="Helvetica,sans-Serif" font-size="10.00">+ fileExtensions()</text>
<text text-anchor="start" x="25.4976" y="-248.5" font-family="Helvetica,sans-Serif" font-size="10.00">+ canReadFromFile()</text>
<text text-anchor="start" x="25.4976" y="-238.5" font-family="Helvetica,sans-Serif" font-size="10.00">+ canReadFromString()</text>
<text text-anchor="start" x="25.4976" y="-228.5" font-family="Helvetica,sans-Serif" font-size="10.00">+ readValues()</text>
<text text-anchor="start" x="25.4976" y="-218.5" font-family="Helvetica,sans-Serif" font-size="10.00">+ readValues()</text>
</a>
</g>
</g>
<!-- Node3&#45;&gt;Node2 -->
<g id="edge2" class="edge"><title>Node3&#45;&gt;Node2</title>
<path fill="none" stroke="midnightblue" d="M68.9325,-202.14C67.6902,-192.885 66.4815,-183.88 65.3858,-175.717"/>
<polygon fill="none" stroke="midnightblue" points="65.4907,-202.809 70.2901,-212.254 72.4285,-201.877 65.4907,-202.809"/>
</g>
<!-- Node9 -->
<g id="node9" class="node"><title>Node9</title>
<g id="a_node9"><a xlink:href="class_hydro_couple_1_1_spatial_1_1_i_polyhedral_surface_argument.html" target="_top" xlink:title="An IPolyhedralSurfaceArgument class is an IArgument class with an IPolyhedralSurface component...">
<polygon fill="white" stroke="black" points="139.042,-101.5 139.042,-175.5 304.007,-175.5 304.007,-101.5 139.042,-101.5"/>
<text text-anchor="start" x="147.042" y="-163.5" font-family="Helvetica,sans-Serif" font-size="10.00">HydroCouple::Spatial</text>
<text text-anchor="middle" x="221.524" y="-153.5" font-family="Helvetica,sans-Serif" font-size="10.00">::IPolyhedralSurfaceArgument</text>
<polyline fill="none" stroke="black" points="139.042,-147.5 304.007,-147.5 "/>
<text text-anchor="middle" x="221.524" y="-135.5" font-family="Helvetica,sans-Serif" font-size="10.00"> </text>
<polyline fill="none" stroke="black" points="139.042,-129.5 304.007,-129.5 "/>
<text text-anchor="start" x="147.042" y="-117.5" font-family="Helvetica,sans-Serif" font-size="10.00">+ ~IPolyhedralSurfaceArgument()</text>
<text text-anchor="start" x="147.042" y="-107.5" font-family="Helvetica,sans-Serif" font-size="10.00">+ setPolyhedralSurface()</text>
</a>
</g>
</g>
<!-- Node3&#45;&gt;Node9 -->
<g id="edge10" class="edge"><title>Node3&#45;&gt;Node9</title>
<path fill="none" stroke="midnightblue" d="M150.623,-214.009C151.26,-213.336 151.894,-212.666 152.524,-212 163.752,-200.137 176.037,-187.211 187.09,-175.602"/>
<polygon fill="none" stroke="midnightblue" points="148.045,-211.641 143.719,-221.313 153.132,-216.45 148.045,-211.641"/>
</g>
<!-- Node4 -->
<g id="node4" class="node"><title>Node4</title>
<g id="a_node4"><a xlink:href="class_hydro_couple_1_1_i_component_item.html" target="_top" xlink:title="IComponentItem is a fundamental unit of data for a component. ">
<polygon fill="white" stroke="black" points="150.601,-403.5 150.601,-477.5 304.448,-477.5 304.448,-403.5 150.601,-403.5"/>
<text text-anchor="middle" x="227.524" y="-465.5" font-family="Helvetica,sans-Serif" font-size="10.00">HydroCouple::IComponentItem</text>
<polyline fill="none" stroke="black" points="150.601,-459.5 304.448,-459.5 "/>
<text text-anchor="middle" x="227.524" y="-447.5" font-family="Helvetica,sans-Serif" font-size="10.00"> </text>
<polyline fill="none" stroke="black" points="150.601,-441.5 304.448,-441.5 "/>
<text text-anchor="start" x="158.601" y="-429.5" font-family="Helvetica,sans-Serif" font-size="10.00">+ ~IComponentItem()</text>
<text text-anchor="start" x="158.601" y="-419.5" font-family="Helvetica,sans-Serif" font-size="10.00">+ modelComponent()</text>
<text text-anchor="start" x="158.601" y="-409.5" font-family="Helvetica,sans-Serif" font-size="10.00">+ dimensions()</text>
</a>
</g>
</g>
<!-- Node4&#45;&gt;Node3 -->
<g id="edge3" class="edge"><title>Node4&#45;&gt;Node3</title>
<path fill="none" stroke="midnightblue" d="M182.018,-396.178C172.205,-386.651 161.951,-376.553 152.524,-367 149.578,-364.014 146.58,-360.947 143.563,-357.838"/>
<polygon fill="none" stroke="midnightblue" points="179.793,-398.896 189.414,-403.333 184.66,-393.865 179.793,-398.896"/>
</g>
<!-- Node8 -->
<g id="node8" class="node"><title>Node8</title>
<g id="a_node8"><a xlink:href="class_hydro_couple_1_1_temporal_1_1_i_time_component_item.html" target="_top" xlink:title="ITimeComponentItem is an IComponentItem with a temporal attribute. ">
<polygon fill="white" stroke="black" points="161.075,-237.5 161.075,-341.5 293.974,-341.5 293.974,-237.5 161.075,-237.5"/>
<text text-anchor="start" x="169.075" y="-329.5" font-family="Helvetica,sans-Serif" font-size="10.00">HydroCouple::Temporal</text>
<text text-anchor="middle" x="227.524" y="-319.5" font-family="Helvetica,sans-Serif" font-size="10.00">::ITimeComponentItem</text>
<polyline fill="none" stroke="black" points="161.075,-313.5 293.974,-313.5 "/>
<text text-anchor="middle" x="227.524" y="-301.5" font-family="Helvetica,sans-Serif" font-size="10.00"> </text>
<polyline fill="none" stroke="black" points="161.075,-295.5 293.974,-295.5 "/>
<text text-anchor="start" x="169.075" y="-283.5" font-family="Helvetica,sans-Serif" font-size="10.00">+ ~ITimeComponentItem()</text>
<text text-anchor="start" x="169.075" y="-273.5" font-family="Helvetica,sans-Serif" font-size="10.00">+ timeDimension()</text>
<text text-anchor="start" x="169.075" y="-263.5" font-family="Helvetica,sans-Serif" font-size="10.00">+ times()</text>
<text text-anchor="start" x="169.075" y="-253.5" font-family="Helvetica,sans-Serif" font-size="10.00">+ timeSpan()</text>
<text text-anchor="start" x="169.075" y="-243.5" font-family="Helvetica,sans-Serif" font-size="10.00">+ time()</text>
</a>
</g>
</g>
<!-- Node4&#45;&gt;Node8 -->
<g id="edge8" class="edge"><title>Node4&#45;&gt;Node8</title>
<path fill="none" stroke="midnightblue" d="M227.524,-393.067C227.524,-376.775 227.524,-358.385 227.524,-341.722"/>
<polygon fill="none" stroke="midnightblue" points="224.025,-393.431 227.524,-403.431 231.025,-393.431 224.025,-393.431"/>
</g>
<!-- Node10 -->
<g id="node10" class="node"><title>Node10</title>
<g id="a_node10"><a xlink:href="class_hydro_couple_1_1_spatial_1_1_i_polyhedral_surface_component_item.html" target="_top" xlink:title="IPolyhedralSurfaceComponentItem represents IPolyhedralSurface IComponentItem. ">
<polygon fill="white" stroke="black" points="312.146,-242.5 312.146,-336.5 504.903,-336.5 504.903,-242.5 312.146,-242.5"/>
<text text-anchor="start" x="320.146" y="-324.5" font-family="Helvetica,sans-Serif" font-size="10.00">HydroCouple::Spatial</text>
<text text-anchor="middle" x="408.524" y="-314.5" font-family="Helvetica,sans-Serif" font-size="10.00">::IPolyhedralSurfaceComponentItem</text>
<polyline fill="none" stroke="black" points="312.146,-308.5 504.903,-308.5 "/>
<text text-anchor="middle" x="408.524" y="-296.5" font-family="Helvetica,sans-Serif" font-size="10.00"> </text>
<polyline fill="none" stroke="black" points="312.146,-290.5 504.903,-290.5 "/>
<text text-anchor="start" x="320.146" y="-278.5" font-family="Helvetica,sans-Serif" font-size="10.00">+ ~IPolyhedralSurfaceComponentItem()</text>
<text text-anchor="start" x="320.146" y="-268.5" font-family="Helvetica,sans-Serif" font-size="10.00">+ patchDimension()</text>
<text text-anchor="start" x="320.146" y="-258.5" font-family="Helvetica,sans-Serif" font-size="10.00">+ polyhedralSurface()</text>
<text text-anchor="start" x="320.146" y="-248.5" font-family="Helvetica,sans-Serif" font-size="10.00">+ geometry()</text>
</a>
</g>
</g>
<!-- Node4&#45;&gt;Node10 -->
<g id="edge12" class="edge"><title>Node4&#45;&gt;Node10</title>
<path fill="none" stroke="midnightblue" d="M279.248,-396.921C302.122,-378.091 329.071,-355.906 352.429,-336.678"/>
<polygon fill="none" stroke="midnightblue" points="276.836,-394.373 271.339,-403.431 281.284,-399.778 276.836,-394.373"/>
</g>
<!-- Node5 -->
<g id="node5" class="node"><title>Node5</title>
<g id="a_node5"><a xlink:href="class_hydro_couple_1_1_i_identity.html" target="_top" xlink:title="IIdentity interface class defines a method to get the Id of an HydroCouple entity. ">
<polygon fill="white" stroke="black" points="170.054,-514.5 170.054,-578.5 284.995,-578.5 284.995,-514.5 170.054,-514.5"/>
<text text-anchor="middle" x="227.524" y="-566.5" font-family="Helvetica,sans-Serif" font-size="10.00">HydroCouple::IIdentity</text>
<polyline fill="none" stroke="black" points="170.054,-560.5 284.995,-560.5 "/>
<text text-anchor="middle" x="227.524" y="-548.5" font-family="Helvetica,sans-Serif" font-size="10.00"> </text>
<polyline fill="none" stroke="black" points="170.054,-542.5 284.995,-542.5 "/>
<text text-anchor="start" x="178.054" y="-530.5" font-family="Helvetica,sans-Serif" font-size="10.00">+ ~IIdentity()</text>
<text text-anchor="start" x="178.054" y="-520.5" font-family="Helvetica,sans-Serif" font-size="10.00">+ id()</text>
</a>
</g>
</g>
<!-- Node5&#45;&gt;Node4 -->
<g id="edge4" class="edge"><title>Node5&#45;&gt;Node4</title>
<path fill="none" stroke="midnightblue" d="M227.524,-504.282C227.524,-495.531 227.524,-486.353 227.524,-477.801"/>
<polygon fill="none" stroke="midnightblue" points="224.025,-504.297 227.524,-514.297 231.025,-504.297 224.025,-504.297"/>
</g>
<!-- Node6 -->
<g id="node6" class="node"><title>Node6</title>
<g id="a_node6"><a xlink:href="class_hydro_couple_1_1_i_description.html" target="_top" xlink:title="IDescription interface class provides descriptive information on a HydroCouple object. ">
<polygon fill="white" stroke="black" points="161.165,-615.5 161.165,-709.5 293.884,-709.5 293.884,-615.5 161.165,-615.5"/>
<text text-anchor="middle" x="227.524" y="-697.5" font-family="Helvetica,sans-Serif" font-size="10.00">HydroCouple::IDescription</text>
<polyline fill="none" stroke="black" points="161.165,-691.5 293.884,-691.5 "/>
<text text-anchor="middle" x="227.524" y="-679.5" font-family="Helvetica,sans-Serif" font-size="10.00"> </text>
<polyline fill="none" stroke="black" points="161.165,-673.5 293.884,-673.5 "/>
<text text-anchor="start" x="169.165" y="-661.5" font-family="Helvetica,sans-Serif" font-size="10.00">+ ~IDescription()</text>
<text text-anchor="start" x="169.165" y="-651.5" font-family="Helvetica,sans-Serif" font-size="10.00">+ getCaption()</text>
<text text-anchor="start" x="169.165" y="-641.5" font-family="Helvetica,sans-Serif" font-size="10.00">+ setCaption()</text>
<text text-anchor="start" x="169.165" y="-631.5" font-family="Helvetica,sans-Serif" font-size="10.00">+ getDescription()</text>
<text text-anchor="start" x="169.165" y="-621.5" font-family="Helvetica,sans-Serif" font-size="10.00">+ setDescription()</text>
</a>
</g>
</g>
<!-- Node6&#45;&gt;Node5 -->
<g id="edge5" class="edge"><title>Node6&#45;&gt;Node5</title>
<path fill="none" stroke="midnightblue" d="M227.524,-605.212C227.524,-596.081 227.524,-586.926 227.524,-578.684"/>
<polygon fill="none" stroke="midnightblue" points="224.025,-605.46 227.524,-615.46 231.025,-605.46 224.025,-605.46"/>
</g>
<!-- Node7 -->
<g id="node7" class="node"><title>Node7</title>
<g id="a_node7"><a xlink:href="class_hydro_couple_1_1_i_property_changed.html" target="_top" xlink:title="IPropertyChanged interface is used to emit signal/event when a property of an object changes...">
<polygon fill="white" stroke="black" points="146.983,-746.5 146.983,-800.5 308.066,-800.5 308.066,-746.5 146.983,-746.5"/>
<text text-anchor="middle" x="227.524" y="-788.5" font-family="Helvetica,sans-Serif" font-size="10.00">HydroCouple::IPropertyChanged</text>
<polyline fill="none" stroke="black" points="146.983,-782.5 308.066,-782.5 "/>
<text text-anchor="middle" x="227.524" y="-770.5" font-family="Helvetica,sans-Serif" font-size="10.00"> </text>
<polyline fill="none" stroke="black" points="146.983,-764.5 308.066,-764.5 "/>
<text text-anchor="start" x="154.983" y="-752.5" font-family="Helvetica,sans-Serif" font-size="10.00">+ ~IPropertyChanged()</text>
</a>
</g>
</g>
<!-- Node7&#45;&gt;Node6 -->
<g id="edge6" class="edge"><title>Node7&#45;&gt;Node6</title>
<path fill="none" stroke="midnightblue" d="M227.524,-736.141C227.524,-727.716 227.524,-718.639 227.524,-709.851"/>
<polygon fill="none" stroke="midnightblue" points="224.025,-736.392 227.524,-746.392 231.025,-736.392 224.025,-736.392"/>
</g>
<!-- Node8&#45;&gt;Node2 -->
<g id="edge7" class="edge"><title>Node8&#45;&gt;Node2</title>
<path fill="none" stroke="midnightblue" d="M171.774,-230.058C165.393,-223.845 158.892,-217.714 152.524,-212 138.751,-199.641 123.145,-186.907 108.749,-175.627"/>
<polygon fill="none" stroke="midnightblue" points="169.614,-232.843 179.194,-237.369 174.527,-227.857 169.614,-232.843"/>
</g>
<!-- Node11 -->
<g id="node11" class="node"><title>Node11</title>
<g id="a_node11"><a xlink:href="class_hydro_couple_1_1_spatio_temporal_1_1_i_time_polyhedral_surface_component_item.html" target="_top" xlink:title="The ITimePolyhedralSurfaceComponentItem class. ">
<polygon fill="white" stroke="black" points="322.218,-106.5 322.218,-170.5 536.831,-170.5 536.831,-106.5 322.218,-106.5"/>
<text text-anchor="start" x="330.218" y="-158.5" font-family="Helvetica,sans-Serif" font-size="10.00">HydroCouple::SpatioTemporal</text>
<text text-anchor="middle" x="429.524" y="-148.5" font-family="Helvetica,sans-Serif" font-size="10.00">::ITimePolyhedralSurfaceComponentItem</text>
<polyline fill="none" stroke="black" points="322.218,-142.5 536.831,-142.5 "/>
<text text-anchor="middle" x="429.524" y="-130.5" font-family="Helvetica,sans-Serif" font-size="10.00"> </text>
<polyline fill="none" stroke="black" points="322.218,-124.5 536.831,-124.5 "/>
<text text-anchor="start" x="330.218" y="-112.5" font-family="Helvetica,sans-Serif" font-size="10.00">+ ~ITimePolyhedralSurfaceComponentItem()</text>
</a>
</g>
</g>
<!-- Node8&#45;&gt;Node11 -->
<g id="edge14" class="edge"><title>Node8&#45;&gt;Node11</title>
<path fill="none" stroke="midnightblue" d="M281.885,-230.382C288.918,-223.896 296.222,-217.614 303.524,-212 323.333,-196.772 346.664,-182.479 367.831,-170.676"/>
<polygon fill="none" stroke="midnightblue" points="279.239,-228.067 274.371,-237.478 284.045,-233.156 279.239,-228.067"/>
</g>
<!-- Node9&#45;&gt;Node1 -->
<g id="edge9" class="edge"><title>Node9&#45;&gt;Node1</title>
<path fill="none" stroke="midnightblue" d="M221.524,-91.38C221.524,-82.3468 221.524,-73.0739 221.524,-64.6704"/>
<polygon fill="none" stroke="midnightblue" points="218.025,-91.4177 221.524,-101.418 225.025,-91.4178 218.025,-91.4177"/>
</g>
<!-- Node10&#45;&gt;Node9 -->
<g id="edge11" class="edge"><title>Node10&#45;&gt;Node9</title>
<path fill="none" stroke="midnightblue" d="M342.627,-235.994C317.611,-216.061 289.699,-193.821 266.983,-175.721"/>
<polygon fill="none" stroke="midnightblue" points="340.635,-238.882 350.637,-242.376 344.997,-233.407 340.635,-238.882"/>
</g>
<!-- Node10&#45;&gt;Node11 -->
<g id="edge15" class="edge"><title>Node10&#45;&gt;Node11</title>
<path fill="none" stroke="midnightblue" d="M416.467,-232.146C419.401,-211.329 422.618,-188.5 425.125,-170.713"/>
<polygon fill="none" stroke="midnightblue" points="412.984,-231.782 415.054,-242.172 419.915,-232.759 412.984,-231.782"/>
</g>
<!-- Node11&#45;&gt;Node1 -->
<g id="edge13" class="edge"><title>Node11&#45;&gt;Node1</title>
<path fill="none" stroke="midnightblue" d="M358.254,-101.865C334.022,-89.749 307.151,-76.3133 283.689,-64.5821"/>
<polygon fill="none" stroke="midnightblue" points="356.89,-105.096 367.399,-106.437 360.02,-98.8348 356.89,-105.096"/>
</g>
</g>
</svg>
