<?xml version="1.0" encoding="UTF-8" standalone="no"?>
<!DOCTYPE svg PUBLIC "-//W3C//DTD SVG 1.1//EN"
 "http://www.w3.org/Graphics/SVG/1.1/DTD/svg11.dtd">
<!-- Generated by graphviz version 2.38.0 (20140413.2041)
 -->
<!-- Title: HydroCouple::Spatial::IRegularGrid3DArgument Pages: 1 -->
<!--zoomable 1039 -->
<svg id="main" version="1.1" xmlns="http://www.w3.org/2000/svg" xmlns:xlink="http://www.w3.org/1999/xlink" xml:space="preserve" onload="init(evt)">
<style type="text/css"><![CDATA[
.edge:hover path { stroke: red; }
.edge:hover polygon { stroke: red; fill: red; }
]]></style>
<script type="text/javascript"><![CDATA[
var edges = document.getElementsByTagName('g');
if (edges && edges.length) {
  for (var i=0;i<edges.length;i++) {
    if (edges[i].id.substr(0,4)=='edge') {
      edges[i].setAttribute('class','edge');
    }
  }
}
]]></script>
        <defs>
                <circle id="rim" cx="0" cy="0" r="7"/>
                <circle id="rim2" cx="0" cy="0" r="3.5"/>
                <g id="zoomPlus">
                        <use xlink:href="#rim" fill="#404040">
                                <set attributeName="fill" to="#808080" begin="zoomplus.mouseover" end="zoomplus.mouseout"/>
                        </use>
                        <path d="M-4,0h8M0,-4v8" fill="none" stroke="white" stroke-width="1.5" pointer-events="none"/>
                </g>
                <g id="zoomMin">
                        <use xlink:href="#rim" fill="#404040">
                                <set attributeName="fill" to="#808080" begin="zoomminus.mouseover" end="zoomminus.mouseout"/>
                        </use>
                        <path d="M-4,0h8" fill="none" stroke="white" stroke-width="1.5" pointer-events="none"/>
                </g>
                <g id="dirArrow">
                        <path fill="none" stroke="white" stroke-width="1.5" d="M0,-3.0v7 M-2.5,-0.5L0,-3.0L2.5,-0.5"/>
                </g>
               <g id="resetDef">
                       <use xlink:href="#rim2" fill="#404040">
                               <set attributeName="fill" to="#808080" begin="reset.mouseover" end="reset.mouseout"/>
                       </use>
               </g>
        </defs>

<script type="text/javascript">
var viewWidth = 382;
var viewHeight = 1039;
var sectionId = 'dynsection-0';
</script>
<script xlink:href="svgpan.js"/>
<svg id="graph" class="graph">
<g id="viewport">
<title>HydroCouple::Spatial::IRegularGrid3DArgument</title>
<polygon fill="white" stroke="none" points="-4,4 -4,-1035.08 378.026,-1035.08 378.026,4 -4,4"/>
<!-- Node1 -->
<g id="node1" class="node"><title>Node1</title>
<polygon fill="#bfbfbf" stroke="black" points="82.9976,-0.5 82.9976,-104.51 261.024,-104.51 261.024,-0.5 82.9976,-0.5"/>
<text text-anchor="start" x="90.9976" y="-92.5098" font-family="Monaco" font-size="10.00">HydroCouple::Spatial</text>
<text text-anchor="middle" x="172.011" y="-79.1748" font-family="Monaco" font-size="10.00">::IRegularGrid3DArgument</text>
<polyline fill="none" stroke="black" points="82.9976,-69.8398 261.024,-69.8398 "/>
<text text-anchor="middle" x="172.011" y="-57.8398" font-family="Monaco" font-size="10.00"> </text>
<polyline fill="none" stroke="black" points="82.9976,-48.5049 261.024,-48.5049 "/>
<text text-anchor="start" x="90.9976" y="-36.5049" font-family="Monaco" font-size="10.00">+ ~IRegularGrid3DArgument()</text>
<text text-anchor="start" x="90.9976" y="-23.1699" font-family="Monaco" font-size="10.00">+ setGrid()</text>
<text text-anchor="start" x="90.9976" y="-9.83496" font-family="Monaco" font-size="10.00">+ regular3DValueSets()</text>
</g>
<!-- Node2 -->
<g id="node2" class="node"><title>Node2</title>
<g id="a_node2"><a xlink:href="class_hydro_couple_1_1_i_argument.html" target="_top" xlink:title="IArgument interface class used to set the arguments for components. They can be complex or simple mul...">
<polygon fill="white" stroke="black" points="0,-141.51 0,-338.864 148.021,-338.864 148.021,-141.51 0,-141.51"/>
<text text-anchor="middle" x="74.0107" y="-326.864" font-family="Monaco" font-size="10.00">HydroCouple::IArgument</text>
<polyline fill="none" stroke="black" points="0,-317.529 148.021,-317.529 "/>
<text text-anchor="middle" x="74.0107" y="-305.529" font-family="Monaco" font-size="10.00"> </text>
<polyline fill="none" stroke="black" points="0,-296.194 148.021,-296.194 "/>
<text text-anchor="start" x="8" y="-284.194" font-family="Monaco" font-size="10.00">+ ~IArgument()</text>
<text text-anchor="start" x="8" y="-270.859" font-family="Monaco" font-size="10.00">+ isOptional()</text>
<text text-anchor="start" x="8" y="-257.524" font-family="Monaco" font-size="10.00">+ isReadOnly()</text>
<text text-anchor="start" x="8" y="-244.189" font-family="Monaco" font-size="10.00">+ clone()</text>
<text text-anchor="start" x="8" y="-230.854" font-family="Monaco" font-size="10.00">+ valueSets()</text>
<text text-anchor="start" x="8" y="-217.52" font-family="Monaco" font-size="10.00">+ toString()</text>
<text text-anchor="start" x="8" y="-204.185" font-family="Monaco" font-size="10.00">+ fileExtensions()</text>
<text text-anchor="start" x="8" y="-190.85" font-family="Monaco" font-size="10.00">+ canReadFromFile()</text>
<text text-anchor="start" x="8" y="-177.515" font-family="Monaco" font-size="10.00">+ canReadFromString()</text>
<text text-anchor="start" x="8" y="-164.18" font-family="Monaco" font-size="10.00">+ readValues()</text>
<text text-anchor="start" x="8" y="-150.845" font-family="Monaco" font-size="10.00">+ readValues()</text>
</a>
</g>
</g>
<!-- Node2&#45;&gt;Node1 -->
<g id="edge1" class="edge"><title>Node2&#45;&gt;Node1</title>
<path fill="none" stroke="midnightblue" d="M130.31,-132.516C135.42,-122.835 140.421,-113.359 145.085,-104.522"/>
<polygon fill="none" stroke="midnightblue" points="127.166,-130.975 125.594,-141.452 133.357,-134.242 127.166,-130.975"/>
</g>
<!-- Node3 -->
<g id="node3" class="node"><title>Node3</title>
<g id="a_node3"><a xlink:href="class_hydro_couple_1_1_i_component_item.html" target="_top" xlink:title="IComponentItem is a fundamental unit of data for a component. ">
<polygon fill="white" stroke="black" points="66.9976,-530.209 66.9976,-634.219 245.024,-634.219 245.024,-530.209 66.9976,-530.209"/>
<text text-anchor="middle" x="156.011" y="-622.219" font-family="Monaco" font-size="10.00">HydroCouple::IComponentItem</text>
<polyline fill="none" stroke="black" points="66.9976,-612.884 245.024,-612.884 "/>
<text text-anchor="middle" x="156.011" y="-600.884" font-family="Monaco" font-size="10.00"> </text>
<polyline fill="none" stroke="black" points="66.9976,-591.549 245.024,-591.549 "/>
<text text-anchor="start" x="74.9976" y="-579.549" font-family="Monaco" font-size="10.00">+ ~IComponentItem()</text>
<text text-anchor="start" x="74.9976" y="-566.214" font-family="Monaco" font-size="10.00">+ modelComponent()</text>
<text text-anchor="start" x="74.9976" y="-552.879" font-family="Monaco" font-size="10.00">+ modelComponentId()</text>
<text text-anchor="start" x="74.9976" y="-539.544" font-family="Monaco" font-size="10.00">+ dimensions()</text>
</a>
</g>
</g>
<!-- Node3&#45;&gt;Node2 -->
<g id="edge2" class="edge"><title>Node3&#45;&gt;Node2</title>
<path fill="none" stroke="midnightblue" d="M141.292,-520.181C129.158,-469.864 111.714,-397.531 97.6294,-339.126"/>
<polygon fill="none" stroke="midnightblue" points="137.899,-521.039 143.646,-529.94 144.704,-519.398 137.899,-521.039"/>
</g>
<!-- Node8 -->
<g id="node8" class="node"><title>Node8</title>
<g id="a_node8"><a xlink:href="class_hydro_couple_1_1_spatial_1_1_i_regular_grid2_d_component_item.html" target="_top" xlink:title="An IRegularGrid2DComponentItem represents an IRegularGrid2D IComponentItem. ">
<polygon fill="white" stroke="black" points="149.995,-375.864 149.995,-493.209 358.026,-493.209 358.026,-375.864 149.995,-375.864"/>
<text text-anchor="start" x="157.995" y="-481.209" font-family="Monaco" font-size="10.00">HydroCouple::Spatial</text>
<text text-anchor="middle" x="254.011" y="-467.874" font-family="Monaco" font-size="10.00">::IRegularGrid2DComponentItem</text>
<polyline fill="none" stroke="black" points="149.995,-458.539 358.026,-458.539 "/>
<text text-anchor="middle" x="254.011" y="-446.539" font-family="Monaco" font-size="10.00"> </text>
<polyline fill="none" stroke="black" points="149.995,-437.204 358.026,-437.204 "/>
<text text-anchor="start" x="157.995" y="-425.204" font-family="Monaco" font-size="10.00">+ ~IRegularGrid2DComponentItem()</text>
<text text-anchor="start" x="157.995" y="-411.869" font-family="Monaco" font-size="10.00">+ numXCellsDimension()</text>
<text text-anchor="start" x="157.995" y="-398.534" font-family="Monaco" font-size="10.00">+ numYCellsDimension()</text>
<text text-anchor="start" x="157.995" y="-385.199" font-family="Monaco" font-size="10.00">+ grid()</text>
</a>
</g>
</g>
<!-- Node3&#45;&gt;Node8 -->
<g id="edge8" class="edge"><title>Node3&#45;&gt;Node8</title>
<path fill="none" stroke="midnightblue" d="M196.221,-521.441C202.456,-512.173 208.888,-502.612 215.094,-493.387"/>
<polygon fill="none" stroke="midnightblue" points="193.24,-519.603 190.562,-529.854 199.048,-523.51 193.24,-519.603"/>
</g>
<!-- Node4 -->
<g id="node4" class="node"><title>Node4</title>
<g id="a_node4"><a xlink:href="class_hydro_couple_1_1_i_identity.html" target="_top" xlink:title="IIdentity interface class defines a method to get the Id of an HydroCouple entity. ">
<polygon fill="white" stroke="black" points="82,-671.219 82,-775.229 230.021,-775.229 230.021,-671.219 82,-671.219"/>
<text text-anchor="middle" x="156.011" y="-763.229" font-family="Monaco" font-size="10.00">HydroCouple::IIdentity</text>
<polyline fill="none" stroke="black" points="82,-753.894 230.021,-753.894 "/>
<text text-anchor="middle" x="156.011" y="-741.894" font-family="Monaco" font-size="10.00"> </text>
<polyline fill="none" stroke="black" points="82,-732.559 230.021,-732.559 "/>
<text text-anchor="start" x="90" y="-720.559" font-family="Monaco" font-size="10.00">+ ~IIdentity()</text>
<text text-anchor="start" x="90" y="-707.224" font-family="Monaco" font-size="10.00">+ MPI_Comm()</text>
<text text-anchor="start" x="90" y="-693.889" font-family="Monaco" font-size="10.00">+ MPI_Rank()</text>
<text text-anchor="start" x="90" y="-680.554" font-family="Monaco" font-size="10.00">+ id()</text>
</a>
</g>
</g>
<!-- Node4&#45;&gt;Node3 -->
<g id="edge3" class="edge"><title>Node4&#45;&gt;Node3</title>
<path fill="none" stroke="midnightblue" d="M156.011,-660.66C156.011,-651.878 156.011,-642.924 156.011,-634.37"/>
<polygon fill="none" stroke="midnightblue" points="152.511,-660.856 156.011,-670.856 159.511,-660.857 152.511,-660.856"/>
</g>
<!-- Node5 -->
<g id="node5" class="node"><title>Node5</title>
<g id="a_node5"><a xlink:href="class_hydro_couple_1_1_i_description.html" target="_top" xlink:title="IDescription interface class provides descriptive information on a HydroCouple object. ">
<polygon fill="white" stroke="black" points="72.9985,-812.229 72.9985,-929.573 239.023,-929.573 239.023,-812.229 72.9985,-812.229"/>
<text text-anchor="middle" x="156.011" y="-917.573" font-family="Monaco" font-size="10.00">HydroCouple::IDescription</text>
<polyline fill="none" stroke="black" points="72.9985,-908.238 239.023,-908.238 "/>
<text text-anchor="middle" x="156.011" y="-896.238" font-family="Monaco" font-size="10.00"> </text>
<polyline fill="none" stroke="black" points="72.9985,-886.903 239.023,-886.903 "/>
<text text-anchor="start" x="80.9985" y="-874.903" font-family="Monaco" font-size="10.00">+ ~IDescription()</text>
<text text-anchor="start" x="80.9985" y="-861.568" font-family="Monaco" font-size="10.00">+ getCaption()</text>
<text text-anchor="start" x="80.9985" y="-848.233" font-family="Monaco" font-size="10.00">+ setCaption()</text>
<text text-anchor="start" x="80.9985" y="-834.898" font-family="Monaco" font-size="10.00">+ getDescription()</text>
<text text-anchor="start" x="80.9985" y="-821.563" font-family="Monaco" font-size="10.00">+ setDescription()</text>
</a>
</g>
</g>
<!-- Node5&#45;&gt;Node4 -->
<g id="edge4" class="edge"><title>Node5&#45;&gt;Node4</title>
<path fill="none" stroke="midnightblue" d="M156.011,-801.627C156.011,-792.809 156.011,-783.902 156.011,-775.424"/>
<polygon fill="none" stroke="midnightblue" points="152.511,-801.907 156.011,-811.907 159.511,-801.907 152.511,-801.907"/>
</g>
<!-- Node6 -->
<g id="node6" class="node"><title>Node6</title>
<g id="a_node6"><a xlink:href="class_hydro_couple_1_1_i_property_changed.html" target="_top" xlink:title="IPropertyChanged interface is used to emit signal/event when a property of an object changes...">
<polygon fill="white" stroke="black" points="60.9966,-966.573 60.9966,-1030.58 251.025,-1030.58 251.025,-966.573 60.9966,-966.573"/>
<text text-anchor="middle" x="156.011" y="-1018.58" font-family="Monaco" font-size="10.00">HydroCouple::IPropertyChanged</text>
<polyline fill="none" stroke="black" points="60.9966,-1009.24 251.025,-1009.24 "/>
<text text-anchor="middle" x="156.011" y="-997.243" font-family="Monaco" font-size="10.00"> </text>
<polyline fill="none" stroke="black" points="60.9966,-987.908 251.025,-987.908 "/>
<text text-anchor="start" x="68.9966" y="-975.908" font-family="Monaco" font-size="10.00">+ ~IPropertyChanged()</text>
</a>
</g>
</g>
<!-- Node6&#45;&gt;Node5 -->
<g id="edge5" class="edge"><title>Node6&#45;&gt;Node5</title>
<path fill="none" stroke="midnightblue" d="M156.011,-956.253C156.011,-947.868 156.011,-938.901 156.011,-930.059"/>
<polygon fill="none" stroke="midnightblue" points="152.511,-956.51 156.011,-966.51 159.511,-956.51 152.511,-956.51"/>
</g>
<!-- Node7 -->
<g id="node7" class="node"><title>Node7</title>
<g id="a_node7"><a xlink:href="class_hydro_couple_1_1_spatial_1_1_i_regular_grid3_d_component_item.html" target="_top" xlink:title="An IRegularGrid3DComponentItem represents an IRegularGrid3D IComponentItem. ">
<polygon fill="white" stroke="black" points="165.995,-188.182 165.995,-292.192 374.026,-292.192 374.026,-188.182 165.995,-188.182"/>
<text text-anchor="start" x="173.995" y="-280.192" font-family="Monaco" font-size="10.00">HydroCouple::Spatial</text>
<text text-anchor="middle" x="270.011" y="-266.857" font-family="Monaco" font-size="10.00">::IRegularGrid3DComponentItem</text>
<polyline fill="none" stroke="black" points="165.995,-257.522 374.026,-257.522 "/>
<text text-anchor="middle" x="270.011" y="-245.522" font-family="Monaco" font-size="10.00"> </text>
<polyline fill="none" stroke="black" points="165.995,-236.187 374.026,-236.187 "/>
<text text-anchor="start" x="173.995" y="-224.187" font-family="Monaco" font-size="10.00">+ ~IRegularGrid3DComponentItem()</text>
<text text-anchor="start" x="173.995" y="-210.852" font-family="Monaco" font-size="10.00">+ numZCellsDimension()</text>
<text text-anchor="start" x="173.995" y="-197.517" font-family="Monaco" font-size="10.00">+ grid()</text>
</a>
</g>
</g>
<!-- Node7&#45;&gt;Node1 -->
<g id="edge6" class="edge"><title>Node7&#45;&gt;Node1</title>
<path fill="none" stroke="midnightblue" d="M238.21,-178.934C225.538,-154.923 211.107,-127.582 198.961,-104.568"/>
<polygon fill="none" stroke="midnightblue" points="235.209,-180.747 242.972,-187.957 241.4,-177.48 235.209,-180.747"/>
</g>
<!-- Node8&#45;&gt;Node7 -->
<g id="edge7" class="edge"><title>Node8&#45;&gt;Node7</title>
<path fill="none" stroke="midnightblue" d="M259.656,-365.666C261.663,-341.543 263.887,-314.811 265.757,-292.323"/>
<polygon fill="none" stroke="midnightblue" points="256.152,-365.57 258.811,-375.825 263.128,-366.15 256.152,-365.57"/>
</g>
</g>
</svg>
        <g id="navigator" transform="translate(0 0)" fill="#404254">
                <rect fill="#f2f5e9" fill-opacity="0.5" stroke="#606060" stroke-width=".5" x="0" y="0" width="60" height="60"/>
                <use id="zoomplus" xlink:href="#zoomPlus" x="17" y="9" onmousedown="handleZoom(evt,'in')"/>
                <use id="zoomminus" xlink:href="#zoomMin" x="42" y="9" onmousedown="handleZoom(evt,'out')"/>
                <use id="reset" xlink:href="#resetDef" x="30" y="36" onmousedown="handleReset()"/>
                <g id="arrowUp" xlink:href="#dirArrow" transform="translate(30 24)" onmousedown="handlePan(0,-1)">
                  <use xlink:href="#rim" fill="#404040">
                        <set attributeName="fill" to="#808080" begin="arrowUp.mouseover" end="arrowUp.mouseout"/>
                  </use>
                  <path fill="none" stroke="white" stroke-width="1.5" d="M0,-3.0v7 M-2.5,-0.5L0,-3.0L2.5,-0.5"/>
                </g>
                <g id="arrowRight" xlink:href="#dirArrow" transform="rotate(90) translate(36 -43)" onmousedown="handlePan(1,0)">
                  <use xlink:href="#rim" fill="#404040">
                        <set attributeName="fill" to="#808080" begin="arrowRight.mouseover" end="arrowRight.mouseout"/>
                  </use>
                  <path fill="none" stroke="white" stroke-width="1.5" d="M0,-3.0v7 M-2.5,-0.5L0,-3.0L2.5,-0.5"/>
                </g>
                <g id="arrowDown" xlink:href="#dirArrow" transform="rotate(180) translate(-30 -48)" onmousedown="handlePan(0,1)">
                  <use xlink:href="#rim" fill="#404040">
                        <set attributeName="fill" to="#808080" begin="arrowDown.mouseover" end="arrowDown.mouseout"/>
                  </use>
                  <path fill="none" stroke="white" stroke-width="1.5" d="M0,-3.0v7 M-2.5,-0.5L0,-3.0L2.5,-0.5"/>
                </g>
                <g id="arrowLeft" xlink:href="#dirArrow" transform="rotate(270) translate(-36 17)" onmousedown="handlePan(-1,0)">
                  <use xlink:href="#rim" fill="#404040">
                        <set attributeName="fill" to="#808080" begin="arrowLeft.mouseover" end="arrowLeft.mouseout"/>
                  </use>
                  <path fill="none" stroke="white" stroke-width="1.5" d="M0,-3.0v7 M-2.5,-0.5L0,-3.0L2.5,-0.5"/>
                </g>
        </g>
        <svg viewBox="0 0 15 15" width="100%" height="30px" preserveAspectRatio="xMaxYMin meet">
         <g id="arrow_out" transform="scale(0.3 0.3)">
          <a xlink:href="class_hydro_couple_1_1_spatial_1_1_i_regular_grid3_d_argument__inherit__graph_org.svg" target="_base">
           <rect id="button" ry="5" rx="5" y="6" x="6" height="38" width="38"
                fill="#f2f5e9" fill-opacity="0.5" stroke="#606060" stroke-width="1.0"/>
           <path id="arrow"
             d="M 11.500037,31.436501 C 11.940474,20.09759 22.043105,11.32322 32.158766,21.979434 L 37.068811,17.246167 C 37.068811,17.246167 37.088388,32 37.088388,32 L 22.160133,31.978069 C 22.160133,31.978069 26.997745,27.140456 26.997745,27.140456 C 18.528582,18.264221 13.291696,25.230495 11.500037,31.436501 z"
             style="fill:#404040;"/>
          </a>
         </g>
        </svg>
</svg>
