<?xml version="1.0" encoding="UTF-8" standalone="no"?>
<!DOCTYPE svg PUBLIC "-//W3C//DTD SVG 1.1//EN"
 "http://www.w3.org/Graphics/SVG/1.1/DTD/svg11.dtd">
<!-- Generated by graphviz version 2.38.0 (20140413.2041)
 -->
<!-- Title: HydroCouple::SpatioTemporal::ITime2DRegularGridArgument Pages: 1 -->
<svg width="514pt" height="809pt"
 viewBox="0.00 0.00 514.32 809.00" xmlns="http://www.w3.org/2000/svg" xmlns:xlink="http://www.w3.org/1999/xlink">
<g id="graph0" class="graph" transform="scale(1 1) rotate(0) translate(4 805)">
<title>HydroCouple::SpatioTemporal::ITime2DRegularGridArgument</title>
<polygon fill="white" stroke="none" points="-4,4 -4,-805 510.321,-805 510.321,4 -4,4"/>
<!-- Node1 -->
<g id="node1" class="node"><title>Node1</title>
<polygon fill="#bfbfbf" stroke="black" points="127.624,-0.5 127.624,-64.5 299.425,-64.5 299.425,-0.5 127.624,-0.5"/>
<text text-anchor="start" x="135.624" y="-52.5" font-family="Helvetica,sans-Serif" font-size="10.00">HydroCouple::SpatioTemporal</text>
<text text-anchor="middle" x="213.524" y="-42.5" font-family="Helvetica,sans-Serif" font-size="10.00">::ITime2DRegularGridArgument</text>
<polyline fill="none" stroke="black" points="127.624,-36.5 299.425,-36.5 "/>
<text text-anchor="middle" x="213.524" y="-24.5" font-family="Helvetica,sans-Serif" font-size="10.00"> </text>
<polyline fill="none" stroke="black" points="127.624,-18.5 299.425,-18.5 "/>
<text text-anchor="start" x="135.624" y="-6.5" font-family="Helvetica,sans-Serif" font-size="10.00">+ ~ITime2DRegularGridArgument()</text>
</g>
<!-- Node2 -->
<g id="node2" class="node"><title>Node2</title>
<g id="a_node2"><a xlink:href="class_hydro_couple_1_1_temporal_1_1_i_time_argument.html" target="_top" xlink:title="The ITimeArgument class. ">
<polygon fill="white" stroke="black" points="0,-101.5 0,-175.5 121.049,-175.5 121.049,-101.5 0,-101.5"/>
<text text-anchor="start" x="8" y="-163.5" font-family="Helvetica,sans-Serif" font-size="10.00">HydroCouple::Temporal</text>
<text text-anchor="middle" x="60.5244" y="-153.5" font-family="Helvetica,sans-Serif" font-size="10.00">::ITimeArgument</text>
<polyline fill="none" stroke="black" points="0,-147.5 121.049,-147.5 "/>
<text text-anchor="middle" x="60.5244" y="-135.5" font-family="Helvetica,sans-Serif" font-size="10.00"> </text>
<polyline fill="none" stroke="black" points="0,-129.5 121.049,-129.5 "/>
<text text-anchor="start" x="8" y="-117.5" font-family="Helvetica,sans-Serif" font-size="10.00">+ ~ITimeArgument()</text>
<text text-anchor="start" x="8" y="-107.5" font-family="Helvetica,sans-Serif" font-size="10.00">+ setTimes()</text>
</a>
</g>
</g>
<!-- Node2&#45;&gt;Node1 -->
<g id="edge1" class="edge"><title>Node2&#45;&gt;Node1</title>
<path fill="none" stroke="midnightblue" d="M121.978,-95.7275C137.229,-85.3607 153.311,-74.4293 167.668,-64.6704"/>
<polygon fill="none" stroke="midnightblue" points="119.91,-92.9015 113.607,-101.418 123.845,-98.6907 119.91,-92.9015"/>
</g>
<!-- Node3 -->
<g id="node3" class="node"><title>Node3</title>
<g id="a_node3"><a xlink:href="class_hydro_couple_1_1_i_argument.html" target="_top" xlink:title="IArgument interface class used to set the arguments for components. They can be complex or simple mul...">
<polygon fill="white" stroke="black" points="10.4976,-212.5 10.4976,-366.5 136.551,-366.5 136.551,-212.5 10.4976,-212.5"/>
<text text-anchor="middle" x="73.5244" y="-354.5" font-family="Helvetica,sans-Serif" font-size="10.00">HydroCouple::IArgument</text>
<polyline fill="none" stroke="black" points="10.4976,-348.5 136.551,-348.5 "/>
<text text-anchor="middle" x="73.5244" y="-336.5" font-family="Helvetica,sans-Serif" font-size="10.00"> </text>
<polyline fill="none" stroke="black" points="10.4976,-330.5 136.551,-330.5 "/>
<text text-anchor="start" x="18.4976" y="-318.5" font-family="Helvetica,sans-Serif" font-size="10.00">+ ~IArgument()</text>
<text text-anchor="start" x="18.4976" y="-308.5" font-family="Helvetica,sans-Serif" font-size="10.00">+ isOptional()</text>
<text text-anchor="start" x="18.4976" y="-298.5" font-family="Helvetica,sans-Serif" font-size="10.00">+ isReadOnly()</text>
<text text-anchor="start" x="18.4976" y="-288.5" font-family="Helvetica,sans-Serif" font-size="10.00">+ clone()</text>
<text text-anchor="start" x="18.4976" y="-278.5" font-family="Helvetica,sans-Serif" font-size="10.00">+ valueSets()</text>
<text text-anchor="start" x="18.4976" y="-268.5" font-family="Helvetica,sans-Serif" font-size="10.00">+ toString()</text>
<text text-anchor="start" x="18.4976" y="-258.5" font-family="Helvetica,sans-Serif" font-size="10.00">+ fileExtensions()</text>
<text text-anchor="start" x="18.4976" y="-248.5" font-family="Helvetica,sans-Serif" font-size="10.00">+ canReadFromFile()</text>
<text text-anchor="start" x="18.4976" y="-238.5" font-family="Helvetica,sans-Serif" font-size="10.00">+ canReadFromString()</text>
<text text-anchor="start" x="18.4976" y="-228.5" font-family="Helvetica,sans-Serif" font-size="10.00">+ readValues()</text>
<text text-anchor="start" x="18.4976" y="-218.5" font-family="Helvetica,sans-Serif" font-size="10.00">+ readValues()</text>
</a>
</g>
</g>
<!-- Node3&#45;&gt;Node2 -->
<g id="edge2" class="edge"><title>Node3&#45;&gt;Node2</title>
<path fill="none" stroke="midnightblue" d="M65.9897,-202.14C65.1822,-192.885 64.3965,-183.88 63.6843,-175.717"/>
<polygon fill="none" stroke="midnightblue" points="62.5161,-202.596 66.8721,-212.254 69.4896,-201.988 62.5161,-202.596"/>
</g>
<!-- Node9 -->
<g id="node9" class="node"><title>Node9</title>
<g id="a_node9"><a xlink:href="class_hydro_couple_1_1_spatial_1_1_i2_d_regular_grid_argument.html" target="_top" xlink:title="An I2DRegularGridArgument is an IArgument with an I2DRegularGridComponentItem. ">
<polygon fill="white" stroke="black" points="138.552,-101.5 138.552,-175.5 288.497,-175.5 288.497,-101.5 138.552,-101.5"/>
<text text-anchor="start" x="146.552" y="-163.5" font-family="Helvetica,sans-Serif" font-size="10.00">HydroCouple::Spatial</text>
<text text-anchor="middle" x="213.524" y="-153.5" font-family="Helvetica,sans-Serif" font-size="10.00">::I2DRegularGridArgument</text>
<polyline fill="none" stroke="black" points="138.552,-147.5 288.497,-147.5 "/>
<text text-anchor="middle" x="213.524" y="-135.5" font-family="Helvetica,sans-Serif" font-size="10.00"> </text>
<polyline fill="none" stroke="black" points="138.552,-129.5 288.497,-129.5 "/>
<text text-anchor="start" x="146.552" y="-117.5" font-family="Helvetica,sans-Serif" font-size="10.00">+ ~I2DRegularGridArgument()</text>
<text text-anchor="start" x="146.552" y="-107.5" font-family="Helvetica,sans-Serif" font-size="10.00">+ setGrid()</text>
</a>
</g>
</g>
<!-- Node3&#45;&gt;Node9 -->
<g id="edge10" class="edge"><title>Node3&#45;&gt;Node9</title>
<path fill="none" stroke="midnightblue" d="M143.523,-214.002C156.07,-200.647 168.618,-187.293 179.553,-175.655"/>
<polygon fill="none" stroke="midnightblue" points="140.859,-211.726 136.562,-221.41 145.96,-216.519 140.859,-211.726"/>
</g>
<!-- Node4 -->
<g id="node4" class="node"><title>Node4</title>
<g id="a_node4"><a xlink:href="class_hydro_couple_1_1_i_component_item.html" target="_top" xlink:title="IComponentItem is a fundamental unit of data for a component. ">
<polygon fill="white" stroke="black" points="143.601,-403.5 143.601,-477.5 297.448,-477.5 297.448,-403.5 143.601,-403.5"/>
<text text-anchor="middle" x="220.524" y="-465.5" font-family="Helvetica,sans-Serif" font-size="10.00">HydroCouple::IComponentItem</text>
<polyline fill="none" stroke="black" points="143.601,-459.5 297.448,-459.5 "/>
<text text-anchor="middle" x="220.524" y="-447.5" font-family="Helvetica,sans-Serif" font-size="10.00"> </text>
<polyline fill="none" stroke="black" points="143.601,-441.5 297.448,-441.5 "/>
<text text-anchor="start" x="151.601" y="-429.5" font-family="Helvetica,sans-Serif" font-size="10.00">+ ~IComponentItem()</text>
<text text-anchor="start" x="151.601" y="-419.5" font-family="Helvetica,sans-Serif" font-size="10.00">+ modelComponent()</text>
<text text-anchor="start" x="151.601" y="-409.5" font-family="Helvetica,sans-Serif" font-size="10.00">+ dimensions()</text>
</a>
</g>
</g>
<!-- Node4&#45;&gt;Node3 -->
<g id="edge3" class="edge"><title>Node4&#45;&gt;Node3</title>
<path fill="none" stroke="midnightblue" d="M175.018,-396.178C165.205,-386.651 154.951,-376.553 145.524,-367 142.578,-364.014 139.58,-360.947 136.563,-357.838"/>
<polygon fill="none" stroke="midnightblue" points="172.793,-398.896 182.414,-403.333 177.66,-393.865 172.793,-398.896"/>
</g>
<!-- Node8 -->
<g id="node8" class="node"><title>Node8</title>
<g id="a_node8"><a xlink:href="class_hydro_couple_1_1_temporal_1_1_i_time_component_item.html" target="_top" xlink:title="ITimeComponentItem is an IComponentItem with a temporal attribute. ">
<polygon fill="white" stroke="black" points="154.075,-237.5 154.075,-341.5 286.974,-341.5 286.974,-237.5 154.075,-237.5"/>
<text text-anchor="start" x="162.075" y="-329.5" font-family="Helvetica,sans-Serif" font-size="10.00">HydroCouple::Temporal</text>
<text text-anchor="middle" x="220.524" y="-319.5" font-family="Helvetica,sans-Serif" font-size="10.00">::ITimeComponentItem</text>
<polyline fill="none" stroke="black" points="154.075,-313.5 286.974,-313.5 "/>
<text text-anchor="middle" x="220.524" y="-301.5" font-family="Helvetica,sans-Serif" font-size="10.00"> </text>
<polyline fill="none" stroke="black" points="154.075,-295.5 286.974,-295.5 "/>
<text text-anchor="start" x="162.075" y="-283.5" font-family="Helvetica,sans-Serif" font-size="10.00">+ ~ITimeComponentItem()</text>
<text text-anchor="start" x="162.075" y="-273.5" font-family="Helvetica,sans-Serif" font-size="10.00">+ timeDimension()</text>
<text text-anchor="start" x="162.075" y="-263.5" font-family="Helvetica,sans-Serif" font-size="10.00">+ times()</text>
<text text-anchor="start" x="162.075" y="-253.5" font-family="Helvetica,sans-Serif" font-size="10.00">+ timeSpan()</text>
<text text-anchor="start" x="162.075" y="-243.5" font-family="Helvetica,sans-Serif" font-size="10.00">+ time()</text>
</a>
</g>
</g>
<!-- Node4&#45;&gt;Node8 -->
<g id="edge8" class="edge"><title>Node4&#45;&gt;Node8</title>
<path fill="none" stroke="midnightblue" d="M220.524,-393.067C220.524,-376.775 220.524,-358.385 220.524,-341.722"/>
<polygon fill="none" stroke="midnightblue" points="217.025,-393.431 220.524,-403.431 224.025,-393.431 217.025,-393.431"/>
</g>
<!-- Node10 -->
<g id="node10" class="node"><title>Node10</title>
<g id="a_node10"><a xlink:href="class_hydro_couple_1_1_spatial_1_1_i2_d_regular_grid_component_item.html" target="_top" xlink:title="An I2DRegularGridComponentItem represents an I2DRegularGrid IComponentItem. ">
<polygon fill="white" stroke="black" points="304.655,-232.5 304.655,-346.5 482.394,-346.5 482.394,-232.5 304.655,-232.5"/>
<text text-anchor="start" x="312.655" y="-334.5" font-family="Helvetica,sans-Serif" font-size="10.00">HydroCouple::Spatial</text>
<text text-anchor="middle" x="393.524" y="-324.5" font-family="Helvetica,sans-Serif" font-size="10.00">::I2DRegularGridComponentItem</text>
<polyline fill="none" stroke="black" points="304.655,-318.5 482.394,-318.5 "/>
<text text-anchor="middle" x="393.524" y="-306.5" font-family="Helvetica,sans-Serif" font-size="10.00"> </text>
<polyline fill="none" stroke="black" points="304.655,-300.5 482.394,-300.5 "/>
<text text-anchor="start" x="312.655" y="-288.5" font-family="Helvetica,sans-Serif" font-size="10.00">+ ~I2DRegularGridComponentItem()</text>
<text text-anchor="start" x="312.655" y="-278.5" font-family="Helvetica,sans-Serif" font-size="10.00">+ numXNodesDimension()</text>
<text text-anchor="start" x="312.655" y="-268.5" font-family="Helvetica,sans-Serif" font-size="10.00">+ numYNodesDimension()</text>
<text text-anchor="start" x="312.655" y="-258.5" font-family="Helvetica,sans-Serif" font-size="10.00">+ numXCellsDimension()</text>
<text text-anchor="start" x="312.655" y="-248.5" font-family="Helvetica,sans-Serif" font-size="10.00">+ numYCellsDimension()</text>
<text text-anchor="start" x="312.655" y="-238.5" font-family="Helvetica,sans-Serif" font-size="10.00">+ grid()</text>
</a>
</g>
</g>
<!-- Node4&#45;&gt;Node10 -->
<g id="edge12" class="edge"><title>Node4&#45;&gt;Node10</title>
<path fill="none" stroke="midnightblue" d="M270.017,-396.873C288.196,-381.217 309.062,-363.245 328.406,-346.585"/>
<polygon fill="none" stroke="midnightblue" points="267.696,-394.253 262.403,-403.431 272.264,-399.557 267.696,-394.253"/>
</g>
<!-- Node5 -->
<g id="node5" class="node"><title>Node5</title>
<g id="a_node5"><a xlink:href="class_hydro_couple_1_1_i_identity.html" target="_top" xlink:title="IIdentity interface class defines a method to get the Id of an HydroCouple entity. ">
<polygon fill="white" stroke="black" points="163.054,-514.5 163.054,-578.5 277.995,-578.5 277.995,-514.5 163.054,-514.5"/>
<text text-anchor="middle" x="220.524" y="-566.5" font-family="Helvetica,sans-Serif" font-size="10.00">HydroCouple::IIdentity</text>
<polyline fill="none" stroke="black" points="163.054,-560.5 277.995,-560.5 "/>
<text text-anchor="middle" x="220.524" y="-548.5" font-family="Helvetica,sans-Serif" font-size="10.00"> </text>
<polyline fill="none" stroke="black" points="163.054,-542.5 277.995,-542.5 "/>
<text text-anchor="start" x="171.054" y="-530.5" font-family="Helvetica,sans-Serif" font-size="10.00">+ ~IIdentity()</text>
<text text-anchor="start" x="171.054" y="-520.5" font-family="Helvetica,sans-Serif" font-size="10.00">+ id()</text>
</a>
</g>
</g>
<!-- Node5&#45;&gt;Node4 -->
<g id="edge4" class="edge"><title>Node5&#45;&gt;Node4</title>
<path fill="none" stroke="midnightblue" d="M220.524,-504.282C220.524,-495.531 220.524,-486.353 220.524,-477.801"/>
<polygon fill="none" stroke="midnightblue" points="217.025,-504.297 220.524,-514.297 224.025,-504.297 217.025,-504.297"/>
</g>
<!-- Node6 -->
<g id="node6" class="node"><title>Node6</title>
<g id="a_node6"><a xlink:href="class_hydro_couple_1_1_i_description.html" target="_top" xlink:title="IDescription interface class provides descriptive information on a HydroCouple object. ">
<polygon fill="white" stroke="black" points="154.165,-615.5 154.165,-709.5 286.884,-709.5 286.884,-615.5 154.165,-615.5"/>
<text text-anchor="middle" x="220.524" y="-697.5" font-family="Helvetica,sans-Serif" font-size="10.00">HydroCouple::IDescription</text>
<polyline fill="none" stroke="black" points="154.165,-691.5 286.884,-691.5 "/>
<text text-anchor="middle" x="220.524" y="-679.5" font-family="Helvetica,sans-Serif" font-size="10.00"> </text>
<polyline fill="none" stroke="black" points="154.165,-673.5 286.884,-673.5 "/>
<text text-anchor="start" x="162.165" y="-661.5" font-family="Helvetica,sans-Serif" font-size="10.00">+ ~IDescription()</text>
<text text-anchor="start" x="162.165" y="-651.5" font-family="Helvetica,sans-Serif" font-size="10.00">+ getCaption()</text>
<text text-anchor="start" x="162.165" y="-641.5" font-family="Helvetica,sans-Serif" font-size="10.00">+ setCaption()</text>
<text text-anchor="start" x="162.165" y="-631.5" font-family="Helvetica,sans-Serif" font-size="10.00">+ getDescription()</text>
<text text-anchor="start" x="162.165" y="-621.5" font-family="Helvetica,sans-Serif" font-size="10.00">+ setDescription()</text>
</a>
</g>
</g>
<!-- Node6&#45;&gt;Node5 -->
<g id="edge5" class="edge"><title>Node6&#45;&gt;Node5</title>
<path fill="none" stroke="midnightblue" d="M220.524,-605.212C220.524,-596.081 220.524,-586.926 220.524,-578.684"/>
<polygon fill="none" stroke="midnightblue" points="217.025,-605.46 220.524,-615.46 224.025,-605.46 217.025,-605.46"/>
</g>
<!-- Node7 -->
<g id="node7" class="node"><title>Node7</title>
<g id="a_node7"><a xlink:href="class_hydro_couple_1_1_i_property_changed.html" target="_top" xlink:title="IPropertyChanged interface is used to emit signal/event when a property of an object changes...">
<polygon fill="white" stroke="black" points="139.983,-746.5 139.983,-800.5 301.066,-800.5 301.066,-746.5 139.983,-746.5"/>
<text text-anchor="middle" x="220.524" y="-788.5" font-family="Helvetica,sans-Serif" font-size="10.00">HydroCouple::IPropertyChanged</text>
<polyline fill="none" stroke="black" points="139.983,-782.5 301.066,-782.5 "/>
<text text-anchor="middle" x="220.524" y="-770.5" font-family="Helvetica,sans-Serif" font-size="10.00"> </text>
<polyline fill="none" stroke="black" points="139.983,-764.5 301.066,-764.5 "/>
<text text-anchor="start" x="147.983" y="-752.5" font-family="Helvetica,sans-Serif" font-size="10.00">+ ~IPropertyChanged()</text>
</a>
</g>
</g>
<!-- Node7&#45;&gt;Node6 -->
<g id="edge6" class="edge"><title>Node7&#45;&gt;Node6</title>
<path fill="none" stroke="midnightblue" d="M220.524,-736.141C220.524,-727.716 220.524,-718.639 220.524,-709.851"/>
<polygon fill="none" stroke="midnightblue" points="217.025,-736.392 220.524,-746.392 224.025,-736.392 217.025,-736.392"/>
</g>
<!-- Node8&#45;&gt;Node2 -->
<g id="edge7" class="edge"><title>Node8&#45;&gt;Node2</title>
<path fill="none" stroke="midnightblue" d="M164.25,-230.011C158.008,-223.852 151.682,-217.745 145.524,-212 132.477,-199.827 117.83,-187.04 104.418,-175.652"/>
<polygon fill="none" stroke="midnightblue" points="161.967,-232.677 171.524,-237.249 166.904,-227.714 161.967,-232.677"/>
</g>
<!-- Node11 -->
<g id="node11" class="node"><title>Node11</title>
<g id="a_node11"><a xlink:href="class_hydro_couple_1_1_spatio_temporal_1_1_i_time2_d_regular_grid_component_item.html" target="_top" xlink:title="The ITime2DRegularGridComponentItem class. ">
<polygon fill="white" stroke="black" points="306.728,-106.5 306.728,-170.5 506.321,-170.5 506.321,-106.5 306.728,-106.5"/>
<text text-anchor="start" x="314.728" y="-158.5" font-family="Helvetica,sans-Serif" font-size="10.00">HydroCouple::SpatioTemporal</text>
<text text-anchor="middle" x="406.524" y="-148.5" font-family="Helvetica,sans-Serif" font-size="10.00">::ITime2DRegularGridComponentItem</text>
<polyline fill="none" stroke="black" points="306.728,-142.5 506.321,-142.5 "/>
<text text-anchor="middle" x="406.524" y="-130.5" font-family="Helvetica,sans-Serif" font-size="10.00"> </text>
<polyline fill="none" stroke="black" points="306.728,-124.5 506.321,-124.5 "/>
<text text-anchor="start" x="314.728" y="-112.5" font-family="Helvetica,sans-Serif" font-size="10.00">+ ~ITime2DRegularGridComponentItem()</text>
</a>
</g>
</g>
<!-- Node8&#45;&gt;Node11 -->
<g id="edge14" class="edge"><title>Node8&#45;&gt;Node11</title>
<path fill="none" stroke="midnightblue" d="M274.735,-230.46C281.535,-224.011 288.554,-217.717 295.524,-212 313.588,-197.184 334.777,-182.72 353.773,-170.657"/>
<polygon fill="none" stroke="midnightblue" points="272.212,-228.03 267.455,-237.497 277.078,-233.063 272.212,-228.03"/>
</g>
<!-- Node9&#45;&gt;Node1 -->
<g id="edge9" class="edge"><title>Node9&#45;&gt;Node1</title>
<path fill="none" stroke="midnightblue" d="M213.524,-91.38C213.524,-82.3468 213.524,-73.0739 213.524,-64.6704"/>
<polygon fill="none" stroke="midnightblue" points="210.025,-91.4177 213.524,-101.418 217.025,-91.4178 210.025,-91.4177"/>
</g>
<!-- Node10&#45;&gt;Node9 -->
<g id="edge11" class="edge"><title>Node10&#45;&gt;Node9</title>
<path fill="none" stroke="midnightblue" d="M317.837,-225.848C297.083,-208.668 275.287,-190.626 257.017,-175.502"/>
<polygon fill="none" stroke="midnightblue" points="315.796,-228.701 325.731,-232.382 320.259,-223.309 315.796,-228.701"/>
</g>
<!-- Node10&#45;&gt;Node11 -->
<g id="edge15" class="edge"><title>Node10&#45;&gt;Node11</title>
<path fill="none" stroke="midnightblue" d="M399.342,-221.817C400.891,-204.064 402.492,-185.712 403.789,-170.854"/>
<polygon fill="none" stroke="midnightblue" points="395.822,-221.903 398.439,-232.169 402.795,-222.512 395.822,-221.903"/>
</g>
<!-- Node11&#45;&gt;Node1 -->
<g id="edge13" class="edge"><title>Node11&#45;&gt;Node1</title>
<path fill="none" stroke="midnightblue" d="M339.799,-101.544C317.47,-89.5123 292.784,-76.2099 271.206,-64.5821"/>
<polygon fill="none" stroke="midnightblue" points="338.416,-104.775 348.879,-106.437 341.737,-98.6125 338.416,-104.775"/>
</g>
</g>
</svg>
