<?xml version="1.0" encoding="UTF-8" standalone="no"?>
<!DOCTYPE svg PUBLIC "-//W3C//DTD SVG 1.1//EN"
 "http://www.w3.org/Graphics/SVG/1.1/DTD/svg11.dtd">
<!-- Generated by graphviz version 2.38.0 (20140413.2041)
 -->
<!-- Title: HydroCouple::Temporal::ITimeArgument Pages: 1 -->
<svg width="910pt" height="809pt"
 viewBox="0.00 0.00 909.60 809.00" xmlns="http://www.w3.org/2000/svg" xmlns:xlink="http://www.w3.org/1999/xlink">
<g id="graph0" class="graph" transform="scale(1 1) rotate(0) translate(4 805)">
<title>HydroCouple::Temporal::ITimeArgument</title>
<polygon fill="white" stroke="none" points="-4,4 -4,-805 905.602,-805 905.602,4 -4,4"/>
<!-- Node1 -->
<g id="node1" class="node"><title>Node1</title>
<polygon fill="#bfbfbf" stroke="black" points="394.376,-101.5 394.376,-175.5 515.425,-175.5 515.425,-101.5 394.376,-101.5"/>
<text text-anchor="start" x="402.376" y="-163.5" font-family="Helvetica,sans-Serif" font-size="10.00">HydroCouple::Temporal</text>
<text text-anchor="middle" x="454.9" y="-153.5" font-family="Helvetica,sans-Serif" font-size="10.00">::ITimeArgument</text>
<polyline fill="none" stroke="black" points="394.376,-147.5 515.425,-147.5 "/>
<text text-anchor="middle" x="454.9" y="-135.5" font-family="Helvetica,sans-Serif" font-size="10.00"> </text>
<polyline fill="none" stroke="black" points="394.376,-129.5 515.425,-129.5 "/>
<text text-anchor="start" x="402.376" y="-117.5" font-family="Helvetica,sans-Serif" font-size="10.00">+ ~ITimeArgument()</text>
<text text-anchor="start" x="402.376" y="-107.5" font-family="Helvetica,sans-Serif" font-size="10.00">+ setTimes()</text>
</g>
<!-- Node8 -->
<g id="node8" class="node"><title>Node8</title>
<g id="a_node8"><a xlink:href="class_hydro_couple_1_1_spatio_temporal_1_1_i_time2_d_regular_grid_argument.html" target="_top" xlink:title="The ITime2DRegularGridArgument class. ">
<polygon fill="white" stroke="black" points="0,-0.5 0,-64.5 171.801,-64.5 171.801,-0.5 0,-0.5"/>
<text text-anchor="start" x="8" y="-52.5" font-family="Helvetica,sans-Serif" font-size="10.00">HydroCouple::SpatioTemporal</text>
<text text-anchor="middle" x="85.9004" y="-42.5" font-family="Helvetica,sans-Serif" font-size="10.00">::ITime2DRegularGridArgument</text>
<polyline fill="none" stroke="black" points="0,-36.5 171.801,-36.5 "/>
<text text-anchor="middle" x="85.9004" y="-24.5" font-family="Helvetica,sans-Serif" font-size="10.00"> </text>
<polyline fill="none" stroke="black" points="0,-18.5 171.801,-18.5 "/>
<text text-anchor="start" x="8" y="-6.5" font-family="Helvetica,sans-Serif" font-size="10.00">+ ~ITime2DRegularGridArgument()</text>
</a>
</g>
</g>
<!-- Node1&#45;&gt;Node8 -->
<g id="edge8" class="edge"><title>Node1&#45;&gt;Node8</title>
<path fill="none" stroke="midnightblue" d="M384.459,-120.13C328.919,-106.13 249.636,-85.4681 180.9,-65 177.986,-64.1322 175.026,-63.2358 172.041,-62.3188"/>
<polygon fill="none" stroke="midnightblue" points="383.648,-123.535 394.199,-122.579 385.354,-116.747 383.648,-123.535"/>
</g>
<!-- Node9 -->
<g id="node9" class="node"><title>Node9</title>
<g id="a_node9"><a xlink:href="class_hydro_couple_1_1_spatio_temporal_1_1_i_time3_d_regular_grid_argument.html" target="_top" xlink:title="The ITime3DRegularGridArgument class. ">
<polygon fill="white" stroke="black" points="190,-0.5 190,-64.5 361.801,-64.5 361.801,-0.5 190,-0.5"/>
<text text-anchor="start" x="198" y="-52.5" font-family="Helvetica,sans-Serif" font-size="10.00">HydroCouple::SpatioTemporal</text>
<text text-anchor="middle" x="275.9" y="-42.5" font-family="Helvetica,sans-Serif" font-size="10.00">::ITime3DRegularGridArgument</text>
<polyline fill="none" stroke="black" points="190,-36.5 361.801,-36.5 "/>
<text text-anchor="middle" x="275.9" y="-24.5" font-family="Helvetica,sans-Serif" font-size="10.00"> </text>
<polyline fill="none" stroke="black" points="190,-18.5 361.801,-18.5 "/>
<text text-anchor="start" x="198" y="-6.5" font-family="Helvetica,sans-Serif" font-size="10.00">+ ~ITime3DRegularGridArgument()</text>
</a>
</g>
</g>
<!-- Node1&#45;&gt;Node9 -->
<g id="edge9" class="edge"><title>Node1&#45;&gt;Node9</title>
<path fill="none" stroke="midnightblue" d="M385.568,-97.2177C366.969,-86.4115 347.144,-74.8932 329.538,-64.6638"/>
<polygon fill="none" stroke="midnightblue" points="383.894,-100.293 394.299,-102.29 387.411,-94.2403 383.894,-100.293"/>
</g>
<!-- Node10 -->
<g id="node10" class="node"><title>Node10</title>
<g id="a_node10"><a xlink:href="class_hydro_couple_1_1_spatio_temporal_1_1_i_time_geometry_argument.html" target="_top" xlink:title="The ITimeGeometryArgument class. ">
<polygon fill="white" stroke="black" points="380.199,-0.5 380.199,-64.5 529.602,-64.5 529.602,-0.5 380.199,-0.5"/>
<text text-anchor="start" x="388.199" y="-52.5" font-family="Helvetica,sans-Serif" font-size="10.00">HydroCouple::SpatioTemporal</text>
<text text-anchor="middle" x="454.9" y="-42.5" font-family="Helvetica,sans-Serif" font-size="10.00">::ITimeGeometryArgument</text>
<polyline fill="none" stroke="black" points="380.199,-36.5 529.602,-36.5 "/>
<text text-anchor="middle" x="454.9" y="-24.5" font-family="Helvetica,sans-Serif" font-size="10.00"> </text>
<polyline fill="none" stroke="black" points="380.199,-18.5 529.602,-18.5 "/>
<text text-anchor="start" x="388.199" y="-6.5" font-family="Helvetica,sans-Serif" font-size="10.00">+ ~ITimeGeometryArgument()</text>
</a>
</g>
</g>
<!-- Node1&#45;&gt;Node10 -->
<g id="edge10" class="edge"><title>Node1&#45;&gt;Node10</title>
<path fill="none" stroke="midnightblue" d="M454.9,-91.38C454.9,-82.3468 454.9,-73.0739 454.9,-64.6704"/>
<polygon fill="none" stroke="midnightblue" points="451.4,-91.4177 454.9,-101.418 458.4,-91.4178 451.4,-91.4177"/>
</g>
<!-- Node11 -->
<g id="node11" class="node"><title>Node11</title>
<g id="a_node11"><a xlink:href="class_hydro_couple_1_1_spatio_temporal_1_1_i_time_polyhedral_surface_argument.html" target="_top" xlink:title="The ITimePolyhedralSurfaceArgument class. ">
<polygon fill="white" stroke="black" points="547.49,-0.5 547.49,-64.5 734.311,-64.5 734.311,-0.5 547.49,-0.5"/>
<text text-anchor="start" x="555.49" y="-52.5" font-family="Helvetica,sans-Serif" font-size="10.00">HydroCouple::SpatioTemporal</text>
<text text-anchor="middle" x="640.9" y="-42.5" font-family="Helvetica,sans-Serif" font-size="10.00">::ITimePolyhedralSurfaceArgument</text>
<polyline fill="none" stroke="black" points="547.49,-36.5 734.311,-36.5 "/>
<text text-anchor="middle" x="640.9" y="-24.5" font-family="Helvetica,sans-Serif" font-size="10.00"> </text>
<polyline fill="none" stroke="black" points="547.49,-18.5 734.311,-18.5 "/>
<text text-anchor="start" x="555.49" y="-6.5" font-family="Helvetica,sans-Serif" font-size="10.00">+ ~ITimePolyhedralSurfaceArgument()</text>
</a>
</g>
</g>
<!-- Node1&#45;&gt;Node11 -->
<g id="edge11" class="edge"><title>Node1&#45;&gt;Node11</title>
<path fill="none" stroke="midnightblue" d="M524.368,-98.6579C544.502,-87.4002 566.211,-75.2618 585.372,-64.5483"/>
<polygon fill="none" stroke="midnightblue" points="522.567,-95.6552 515.546,-103.59 525.983,-101.765 522.567,-95.6552"/>
</g>
<!-- Node12 -->
<g id="node12" class="node"><title>Node12</title>
<g id="a_node12"><a xlink:href="class_hydro_couple_1_1_spatio_temporal_1_1_i_time_raster_argument.html" target="_top" xlink:title="The ITimeRasterArgument class. ">
<polygon fill="white" stroke="black" points="752.199,-0.5 752.199,-64.5 901.602,-64.5 901.602,-0.5 752.199,-0.5"/>
<text text-anchor="start" x="760.199" y="-52.5" font-family="Helvetica,sans-Serif" font-size="10.00">HydroCouple::SpatioTemporal</text>
<text text-anchor="middle" x="826.9" y="-42.5" font-family="Helvetica,sans-Serif" font-size="10.00">::ITimeRasterArgument</text>
<polyline fill="none" stroke="black" points="752.199,-36.5 901.602,-36.5 "/>
<text text-anchor="middle" x="826.9" y="-24.5" font-family="Helvetica,sans-Serif" font-size="10.00"> </text>
<polyline fill="none" stroke="black" points="752.199,-18.5 901.602,-18.5 "/>
<text text-anchor="start" x="760.199" y="-6.5" font-family="Helvetica,sans-Serif" font-size="10.00">+ ~ITimeRasterArgument()</text>
</a>
</g>
</g>
<!-- Node1&#45;&gt;Node12 -->
<g id="edge12" class="edge"><title>Node1&#45;&gt;Node12</title>
<path fill="none" stroke="midnightblue" d="M525.482,-122.062C584.167,-108.672 669.624,-87.8832 742.9,-65 745.874,-64.0714 748.895,-63.0957 751.939,-62.0859"/>
<polygon fill="none" stroke="midnightblue" points="524.551,-118.685 515.573,-124.311 526.1,-125.511 524.551,-118.685"/>
</g>
<!-- Node2 -->
<g id="node2" class="node"><title>Node2</title>
<g id="a_node2"><a xlink:href="class_hydro_couple_1_1_i_argument.html" target="_top" xlink:title="IArgument interface class used to set the arguments for components. They can be complex or simple mul...">
<polygon fill="white" stroke="black" points="318.874,-212.5 318.874,-366.5 444.927,-366.5 444.927,-212.5 318.874,-212.5"/>
<text text-anchor="middle" x="381.9" y="-354.5" font-family="Helvetica,sans-Serif" font-size="10.00">HydroCouple::IArgument</text>
<polyline fill="none" stroke="black" points="318.874,-348.5 444.927,-348.5 "/>
<text text-anchor="middle" x="381.9" y="-336.5" font-family="Helvetica,sans-Serif" font-size="10.00"> </text>
<polyline fill="none" stroke="black" points="318.874,-330.5 444.927,-330.5 "/>
<text text-anchor="start" x="326.874" y="-318.5" font-family="Helvetica,sans-Serif" font-size="10.00">+ ~IArgument()</text>
<text text-anchor="start" x="326.874" y="-308.5" font-family="Helvetica,sans-Serif" font-size="10.00">+ isOptional()</text>
<text text-anchor="start" x="326.874" y="-298.5" font-family="Helvetica,sans-Serif" font-size="10.00">+ isReadOnly()</text>
<text text-anchor="start" x="326.874" y="-288.5" font-family="Helvetica,sans-Serif" font-size="10.00">+ clone()</text>
<text text-anchor="start" x="326.874" y="-278.5" font-family="Helvetica,sans-Serif" font-size="10.00">+ valueSets()</text>
<text text-anchor="start" x="326.874" y="-268.5" font-family="Helvetica,sans-Serif" font-size="10.00">+ toString()</text>
<text text-anchor="start" x="326.874" y="-258.5" font-family="Helvetica,sans-Serif" font-size="10.00">+ fileExtensions()</text>
<text text-anchor="start" x="326.874" y="-248.5" font-family="Helvetica,sans-Serif" font-size="10.00">+ canReadFromFile()</text>
<text text-anchor="start" x="326.874" y="-238.5" font-family="Helvetica,sans-Serif" font-size="10.00">+ canReadFromString()</text>
<text text-anchor="start" x="326.874" y="-228.5" font-family="Helvetica,sans-Serif" font-size="10.00">+ readValues()</text>
<text text-anchor="start" x="326.874" y="-218.5" font-family="Helvetica,sans-Serif" font-size="10.00">+ readValues()</text>
</a>
</g>
</g>
<!-- Node2&#45;&gt;Node1 -->
<g id="edge1" class="edge"><title>Node2&#45;&gt;Node1</title>
<path fill="none" stroke="midnightblue" d="M423.776,-203.027C428.463,-193.461 433.029,-184.141 437.156,-175.717"/>
<polygon fill="none" stroke="midnightblue" points="420.512,-201.734 419.256,-212.254 426.799,-204.814 420.512,-201.734"/>
</g>
<!-- Node3 -->
<g id="node3" class="node"><title>Node3</title>
<g id="a_node3"><a xlink:href="class_hydro_couple_1_1_i_component_item.html" target="_top" xlink:title="IComponentItem is a fundamental unit of data for a component. ">
<polygon fill="white" stroke="black" points="377.977,-403.5 377.977,-477.5 531.824,-477.5 531.824,-403.5 377.977,-403.5"/>
<text text-anchor="middle" x="454.9" y="-465.5" font-family="Helvetica,sans-Serif" font-size="10.00">HydroCouple::IComponentItem</text>
<polyline fill="none" stroke="black" points="377.977,-459.5 531.824,-459.5 "/>
<text text-anchor="middle" x="454.9" y="-447.5" font-family="Helvetica,sans-Serif" font-size="10.00"> </text>
<polyline fill="none" stroke="black" points="377.977,-441.5 531.824,-441.5 "/>
<text text-anchor="start" x="385.977" y="-429.5" font-family="Helvetica,sans-Serif" font-size="10.00">+ ~IComponentItem()</text>
<text text-anchor="start" x="385.977" y="-419.5" font-family="Helvetica,sans-Serif" font-size="10.00">+ modelComponent()</text>
<text text-anchor="start" x="385.977" y="-409.5" font-family="Helvetica,sans-Serif" font-size="10.00">+ dimensions()</text>
</a>
</g>
</g>
<!-- Node3&#45;&gt;Node2 -->
<g id="edge2" class="edge"><title>Node3&#45;&gt;Node2</title>
<path fill="none" stroke="midnightblue" d="M432.707,-394.2C428.412,-385.435 423.804,-376.029 419.179,-366.589"/>
<polygon fill="none" stroke="midnightblue" points="429.686,-395.991 437.229,-403.431 435.972,-392.911 429.686,-395.991"/>
</g>
<!-- Node7 -->
<g id="node7" class="node"><title>Node7</title>
<g id="a_node7"><a xlink:href="class_hydro_couple_1_1_temporal_1_1_i_time_component_item.html" target="_top" xlink:title="ITimeComponentItem is an IComponentItem with a temporal attribute. ">
<polygon fill="white" stroke="black" points="462.451,-237.5 462.451,-341.5 595.35,-341.5 595.35,-237.5 462.451,-237.5"/>
<text text-anchor="start" x="470.451" y="-329.5" font-family="Helvetica,sans-Serif" font-size="10.00">HydroCouple::Temporal</text>
<text text-anchor="middle" x="528.9" y="-319.5" font-family="Helvetica,sans-Serif" font-size="10.00">::ITimeComponentItem</text>
<polyline fill="none" stroke="black" points="462.451,-313.5 595.35,-313.5 "/>
<text text-anchor="middle" x="528.9" y="-301.5" font-family="Helvetica,sans-Serif" font-size="10.00"> </text>
<polyline fill="none" stroke="black" points="462.451,-295.5 595.35,-295.5 "/>
<text text-anchor="start" x="470.451" y="-283.5" font-family="Helvetica,sans-Serif" font-size="10.00">+ ~ITimeComponentItem()</text>
<text text-anchor="start" x="470.451" y="-273.5" font-family="Helvetica,sans-Serif" font-size="10.00">+ timeDimension()</text>
<text text-anchor="start" x="470.451" y="-263.5" font-family="Helvetica,sans-Serif" font-size="10.00">+ times()</text>
<text text-anchor="start" x="470.451" y="-253.5" font-family="Helvetica,sans-Serif" font-size="10.00">+ timeSpan()</text>
<text text-anchor="start" x="470.451" y="-243.5" font-family="Helvetica,sans-Serif" font-size="10.00">+ time()</text>
</a>
</g>
</g>
<!-- Node3&#45;&gt;Node7 -->
<g id="edge7" class="edge"><title>Node3&#45;&gt;Node7</title>
<path fill="none" stroke="midnightblue" d="M477.27,-394.458C485.53,-377.827 494.949,-358.861 503.461,-341.722"/>
<polygon fill="none" stroke="midnightblue" points="474.127,-392.918 472.814,-403.431 480.397,-396.032 474.127,-392.918"/>
</g>
<!-- Node4 -->
<g id="node4" class="node"><title>Node4</title>
<g id="a_node4"><a xlink:href="class_hydro_couple_1_1_i_identity.html" target="_top" xlink:title="IIdentity interface class defines a method to get the Id of an HydroCouple entity. ">
<polygon fill="white" stroke="black" points="397.43,-514.5 397.43,-578.5 512.371,-578.5 512.371,-514.5 397.43,-514.5"/>
<text text-anchor="middle" x="454.9" y="-566.5" font-family="Helvetica,sans-Serif" font-size="10.00">HydroCouple::IIdentity</text>
<polyline fill="none" stroke="black" points="397.43,-560.5 512.371,-560.5 "/>
<text text-anchor="middle" x="454.9" y="-548.5" font-family="Helvetica,sans-Serif" font-size="10.00"> </text>
<polyline fill="none" stroke="black" points="397.43,-542.5 512.371,-542.5 "/>
<text text-anchor="start" x="405.43" y="-530.5" font-family="Helvetica,sans-Serif" font-size="10.00">+ ~IIdentity()</text>
<text text-anchor="start" x="405.43" y="-520.5" font-family="Helvetica,sans-Serif" font-size="10.00">+ id()</text>
</a>
</g>
</g>
<!-- Node4&#45;&gt;Node3 -->
<g id="edge3" class="edge"><title>Node4&#45;&gt;Node3</title>
<path fill="none" stroke="midnightblue" d="M454.9,-504.282C454.9,-495.531 454.9,-486.353 454.9,-477.801"/>
<polygon fill="none" stroke="midnightblue" points="451.4,-504.297 454.9,-514.297 458.4,-504.297 451.4,-504.297"/>
</g>
<!-- Node5 -->
<g id="node5" class="node"><title>Node5</title>
<g id="a_node5"><a xlink:href="class_hydro_couple_1_1_i_description.html" target="_top" xlink:title="IDescription interface class provides descriptive information on a HydroCouple object. ">
<polygon fill="white" stroke="black" points="388.541,-615.5 388.541,-709.5 521.26,-709.5 521.26,-615.5 388.541,-615.5"/>
<text text-anchor="middle" x="454.9" y="-697.5" font-family="Helvetica,sans-Serif" font-size="10.00">HydroCouple::IDescription</text>
<polyline fill="none" stroke="black" points="388.541,-691.5 521.26,-691.5 "/>
<text text-anchor="middle" x="454.9" y="-679.5" font-family="Helvetica,sans-Serif" font-size="10.00"> </text>
<polyline fill="none" stroke="black" points="388.541,-673.5 521.26,-673.5 "/>
<text text-anchor="start" x="396.541" y="-661.5" font-family="Helvetica,sans-Serif" font-size="10.00">+ ~IDescription()</text>
<text text-anchor="start" x="396.541" y="-651.5" font-family="Helvetica,sans-Serif" font-size="10.00">+ getCaption()</text>
<text text-anchor="start" x="396.541" y="-641.5" font-family="Helvetica,sans-Serif" font-size="10.00">+ setCaption()</text>
<text text-anchor="start" x="396.541" y="-631.5" font-family="Helvetica,sans-Serif" font-size="10.00">+ getDescription()</text>
<text text-anchor="start" x="396.541" y="-621.5" font-family="Helvetica,sans-Serif" font-size="10.00">+ setDescription()</text>
</a>
</g>
</g>
<!-- Node5&#45;&gt;Node4 -->
<g id="edge4" class="edge"><title>Node5&#45;&gt;Node4</title>
<path fill="none" stroke="midnightblue" d="M454.9,-605.212C454.9,-596.081 454.9,-586.926 454.9,-578.684"/>
<polygon fill="none" stroke="midnightblue" points="451.4,-605.46 454.9,-615.46 458.4,-605.46 451.4,-605.46"/>
</g>
<!-- Node6 -->
<g id="node6" class="node"><title>Node6</title>
<g id="a_node6"><a xlink:href="class_hydro_couple_1_1_i_property_changed.html" target="_top" xlink:title="IPropertyChanged interface is used to emit signal/event when a property of an object changes...">
<polygon fill="white" stroke="black" points="374.359,-746.5 374.359,-800.5 535.442,-800.5 535.442,-746.5 374.359,-746.5"/>
<text text-anchor="middle" x="454.9" y="-788.5" font-family="Helvetica,sans-Serif" font-size="10.00">HydroCouple::IPropertyChanged</text>
<polyline fill="none" stroke="black" points="374.359,-782.5 535.442,-782.5 "/>
<text text-anchor="middle" x="454.9" y="-770.5" font-family="Helvetica,sans-Serif" font-size="10.00"> </text>
<polyline fill="none" stroke="black" points="374.359,-764.5 535.442,-764.5 "/>
<text text-anchor="start" x="382.359" y="-752.5" font-family="Helvetica,sans-Serif" font-size="10.00">+ ~IPropertyChanged()</text>
</a>
</g>
</g>
<!-- Node6&#45;&gt;Node5 -->
<g id="edge5" class="edge"><title>Node6&#45;&gt;Node5</title>
<path fill="none" stroke="midnightblue" d="M454.9,-736.141C454.9,-727.716 454.9,-718.639 454.9,-709.851"/>
<polygon fill="none" stroke="midnightblue" points="451.4,-736.392 454.9,-746.392 458.4,-736.392 451.4,-736.392"/>
</g>
<!-- Node7&#45;&gt;Node1 -->
<g id="edge6" class="edge"><title>Node7&#45;&gt;Node1</title>
<path fill="none" stroke="midnightblue" d="M498.894,-228.081C490.095,-210.364 480.748,-191.545 472.944,-175.83"/>
<polygon fill="none" stroke="midnightblue" points="495.851,-229.823 503.434,-237.223 502.12,-226.71 495.851,-229.823"/>
</g>
</g>
</svg>
