<?xml version="1.0" encoding="UTF-8" standalone="no"?>
<!DOCTYPE svg PUBLIC "-//W3C//DTD SVG 1.1//EN"
 "http://www.w3.org/Graphics/SVG/1.1/DTD/svg11.dtd">
<!-- Generated by graphviz version 2.38.0 (20140413.2041)
 -->
<!-- Title: HydroCouple::Spatial::IRasterComponentItem Pages: 1 -->
<svg width="537pt" height="892pt"
 viewBox="0.00 0.00 537.03 892.39" xmlns="http://www.w3.org/2000/svg" xmlns:xlink="http://www.w3.org/1999/xlink">
<g id="graph0" class="graph" transform="scale(1 1) rotate(0) translate(4 888.394)">
<title>HydroCouple::Spatial::IRasterComponentItem</title>
<polygon fill="white" stroke="none" points="-4,4 -4,-888.394 533.029,-888.394 533.029,4 -4,4"/>
<!-- Node1 -->
<g id="node1" class="node"><title>Node1</title>
<polygon fill="#bfbfbf" stroke="black" points="165.998,-242.515 165.998,-386.529 332.022,-386.529 332.022,-242.515 165.998,-242.515"/>
<text text-anchor="start" x="173.998" y="-374.529" font-family="Monaco" font-size="10.00">HydroCouple::Spatial</text>
<text text-anchor="middle" x="249.01" y="-361.194" font-family="Monaco" font-size="10.00">::IRasterComponentItem</text>
<polyline fill="none" stroke="black" points="165.998,-351.859 332.022,-351.859 "/>
<text text-anchor="middle" x="249.01" y="-339.859" font-family="Monaco" font-size="10.00"> </text>
<polyline fill="none" stroke="black" points="165.998,-330.524 332.022,-330.524 "/>
<text text-anchor="start" x="173.998" y="-318.524" font-family="Monaco" font-size="10.00">+ ~IRasterComponentItem()</text>
<text text-anchor="start" x="173.998" y="-305.189" font-family="Monaco" font-size="10.00">+ rasterDimension()</text>
<text text-anchor="start" x="173.998" y="-291.854" font-family="Monaco" font-size="10.00">+ xDimension()</text>
<text text-anchor="start" x="173.998" y="-278.52" font-family="Monaco" font-size="10.00">+ yDimension()</text>
<text text-anchor="start" x="173.998" y="-265.185" font-family="Monaco" font-size="10.00">+ bandDimension()</text>
<text text-anchor="start" x="173.998" y="-251.85" font-family="Monaco" font-size="10.00">+ raster()</text>
</g>
<!-- Node6 -->
<g id="node6" class="node"><title>Node6</title>
<g id="a_node6"><a xlink:href="class_hydro_couple_1_1_spatial_1_1_i_raster_argument.html" target="_top" xlink:title="An IRasterArgument is an IArgument with an IRaster. ">
<polygon fill="white" stroke="black" points="0,-114.84 0,-205.515 136.02,-205.515 136.02,-114.84 0,-114.84"/>
<text text-anchor="start" x="8" y="-193.515" font-family="Monaco" font-size="10.00">HydroCouple::Spatial</text>
<text text-anchor="middle" x="68.0098" y="-180.18" font-family="Monaco" font-size="10.00">::IRasterArgument</text>
<polyline fill="none" stroke="black" points="0,-170.845 136.02,-170.845 "/>
<text text-anchor="middle" x="68.0098" y="-158.845" font-family="Monaco" font-size="10.00"> </text>
<polyline fill="none" stroke="black" points="0,-149.51 136.02,-149.51 "/>
<text text-anchor="start" x="8" y="-137.51" font-family="Monaco" font-size="10.00">+ ~IRasterArgument()</text>
<text text-anchor="start" x="8" y="-124.175" font-family="Monaco" font-size="10.00">+ setRaster()</text>
</a>
</g>
</g>
<!-- Node1&#45;&gt;Node6 -->
<g id="edge5" class="edge"><title>Node1&#45;&gt;Node6</title>
<path fill="none" stroke="midnightblue" d="M158.003,-236.923C145.267,-226.203 132.544,-215.495 120.843,-205.646"/>
<polygon fill="none" stroke="midnightblue" points="156.022,-239.83 165.926,-243.592 160.529,-234.475 156.022,-239.83"/>
</g>
<!-- Node8 -->
<g id="node8" class="node"><title>Node8</title>
<g id="a_node8"><a xlink:href="class_hydro_couple_1_1_spatial_1_1_i_raster_exhange_item.html" target="_top" xlink:title="An IRasterExhangeItem is an IExchangeItem with an IRaster. ">
<polygon fill="white" stroke="black" points="361.999,-121.507 361.999,-198.847 516.021,-198.847 516.021,-121.507 361.999,-121.507"/>
<text text-anchor="start" x="369.999" y="-186.847" font-family="Monaco" font-size="10.00">HydroCouple::Spatial</text>
<text text-anchor="middle" x="439.01" y="-173.512" font-family="Monaco" font-size="10.00">::IRasterExhangeItem</text>
<polyline fill="none" stroke="black" points="361.999,-164.177 516.021,-164.177 "/>
<text text-anchor="middle" x="439.01" y="-152.177" font-family="Monaco" font-size="10.00"> </text>
<polyline fill="none" stroke="black" points="361.999,-142.842 516.021,-142.842 "/>
<text text-anchor="start" x="369.999" y="-130.842" font-family="Monaco" font-size="10.00">+ ~IRasterExhangeItem()</text>
</a>
</g>
</g>
<!-- Node1&#45;&gt;Node8 -->
<g id="edge7" class="edge"><title>Node1&#45;&gt;Node8</title>
<path fill="none" stroke="midnightblue" d="M340.257,-240.359C358.122,-226.034 376.165,-211.567 391.852,-198.989"/>
<polygon fill="none" stroke="midnightblue" points="337.682,-237.937 332.07,-246.923 342.061,-243.398 337.682,-237.937"/>
</g>
<!-- Node10 -->
<g id="node10" class="node"><title>Node10</title>
<g id="a_node10"><a xlink:href="class_hydro_couple_1_1_spatio_temporal_1_1_i_time_raster_component_item.html" target="_top" xlink:title="The ITimeRasterComponentItem class. ">
<polygon fill="white" stroke="black" points="153.996,-121.507 153.996,-198.847 344.024,-198.847 344.024,-121.507 153.996,-121.507"/>
<text text-anchor="start" x="161.996" y="-186.847" font-family="Monaco" font-size="10.00">HydroCouple::SpatioTemporal</text>
<text text-anchor="middle" x="249.01" y="-173.512" font-family="Monaco" font-size="10.00">::ITimeRasterComponentItem</text>
<polyline fill="none" stroke="black" points="153.996,-164.177 344.024,-164.177 "/>
<text text-anchor="middle" x="249.01" y="-152.177" font-family="Monaco" font-size="10.00"> </text>
<polyline fill="none" stroke="black" points="153.996,-142.842 344.024,-142.842 "/>
<text text-anchor="start" x="161.996" y="-130.842" font-family="Monaco" font-size="10.00">+ ~ITimeRasterComponentItem()</text>
</a>
</g>
</g>
<!-- Node1&#45;&gt;Node10 -->
<g id="edge9" class="edge"><title>Node1&#45;&gt;Node10</title>
<path fill="none" stroke="midnightblue" d="M249.01,-232.138C249.01,-220.641 249.01,-209.303 249.01,-199.178"/>
<polygon fill="none" stroke="midnightblue" points="245.51,-232.256 249.01,-242.256 252.51,-232.256 245.51,-232.256"/>
</g>
<!-- Node2 -->
<g id="node2" class="node"><title>Node2</title>
<g id="a_node2"><a xlink:href="class_hydro_couple_1_1_i_component_item.html" target="_top" xlink:title="IComponentItem is a fundamental unit of data for a component. ">
<polygon fill="white" stroke="black" points="159.997,-423.529 159.997,-514.204 338.023,-514.204 338.023,-423.529 159.997,-423.529"/>
<text text-anchor="middle" x="249.01" y="-502.204" font-family="Monaco" font-size="10.00">HydroCouple::IComponentItem</text>
<polyline fill="none" stroke="black" points="159.997,-492.869 338.023,-492.869 "/>
<text text-anchor="middle" x="249.01" y="-480.869" font-family="Monaco" font-size="10.00"> </text>
<polyline fill="none" stroke="black" points="159.997,-471.534 338.023,-471.534 "/>
<text text-anchor="start" x="167.997" y="-459.534" font-family="Monaco" font-size="10.00">+ ~IComponentItem()</text>
<text text-anchor="start" x="167.997" y="-446.199" font-family="Monaco" font-size="10.00">+ modelComponent()</text>
<text text-anchor="start" x="167.997" y="-432.864" font-family="Monaco" font-size="10.00">+ dimensions()</text>
</a>
</g>
</g>
<!-- Node2&#45;&gt;Node1 -->
<g id="edge1" class="edge"><title>Node2&#45;&gt;Node1</title>
<path fill="none" stroke="midnightblue" d="M249.01,-413.154C249.01,-404.572 249.01,-395.595 249.01,-386.709"/>
<polygon fill="none" stroke="midnightblue" points="245.51,-413.393 249.01,-423.393 252.51,-413.393 245.51,-413.393"/>
</g>
<!-- Node3 -->
<g id="node3" class="node"><title>Node3</title>
<g id="a_node3"><a xlink:href="class_hydro_couple_1_1_i_identity.html" target="_top" xlink:title="IIdentity interface class defines a method to get the Id of an HydroCouple entity. ">
<polygon fill="white" stroke="black" points="174.999,-551.204 174.999,-628.544 323.021,-628.544 323.021,-551.204 174.999,-551.204"/>
<text text-anchor="middle" x="249.01" y="-616.544" font-family="Monaco" font-size="10.00">HydroCouple::IIdentity</text>
<polyline fill="none" stroke="black" points="174.999,-607.209 323.021,-607.209 "/>
<text text-anchor="middle" x="249.01" y="-595.209" font-family="Monaco" font-size="10.00"> </text>
<polyline fill="none" stroke="black" points="174.999,-585.874 323.021,-585.874 "/>
<text text-anchor="start" x="182.999" y="-573.874" font-family="Monaco" font-size="10.00">+ ~IIdentity()</text>
<text text-anchor="start" x="182.999" y="-560.539" font-family="Monaco" font-size="10.00">+ id()</text>
</a>
</g>
</g>
<!-- Node3&#45;&gt;Node2 -->
<g id="edge2" class="edge"><title>Node3&#45;&gt;Node2</title>
<path fill="none" stroke="midnightblue" d="M249.01,-540.884C249.01,-532.186 249.01,-523.146 249.01,-514.547"/>
<polygon fill="none" stroke="midnightblue" points="245.51,-540.892 249.01,-550.892 252.51,-540.892 245.51,-540.892"/>
</g>
<!-- Node4 -->
<g id="node4" class="node"><title>Node4</title>
<g id="a_node4"><a xlink:href="class_hydro_couple_1_1_i_description.html" target="_top" xlink:title="IDescription interface class provides descriptive information on a HydroCouple object. ">
<polygon fill="white" stroke="black" points="165.998,-665.544 165.998,-782.889 332.022,-782.889 332.022,-665.544 165.998,-665.544"/>
<text text-anchor="middle" x="249.01" y="-770.889" font-family="Monaco" font-size="10.00">HydroCouple::IDescription</text>
<polyline fill="none" stroke="black" points="165.998,-761.554 332.022,-761.554 "/>
<text text-anchor="middle" x="249.01" y="-749.554" font-family="Monaco" font-size="10.00"> </text>
<polyline fill="none" stroke="black" points="165.998,-740.219 332.022,-740.219 "/>
<text text-anchor="start" x="173.998" y="-728.219" font-family="Monaco" font-size="10.00">+ ~IDescription()</text>
<text text-anchor="start" x="173.998" y="-714.884" font-family="Monaco" font-size="10.00">+ getCaption()</text>
<text text-anchor="start" x="173.998" y="-701.549" font-family="Monaco" font-size="10.00">+ setCaption()</text>
<text text-anchor="start" x="173.998" y="-688.214" font-family="Monaco" font-size="10.00">+ getDescription()</text>
<text text-anchor="start" x="173.998" y="-674.879" font-family="Monaco" font-size="10.00">+ setDescription()</text>
</a>
</g>
</g>
<!-- Node4&#45;&gt;Node3 -->
<g id="edge3" class="edge"><title>Node4&#45;&gt;Node3</title>
<path fill="none" stroke="midnightblue" d="M249.01,-654.978C249.01,-645.939 249.01,-636.952 249.01,-628.691"/>
<polygon fill="none" stroke="midnightblue" points="245.51,-655.169 249.01,-665.169 252.51,-655.169 245.51,-655.169"/>
</g>
<!-- Node5 -->
<g id="node5" class="node"><title>Node5</title>
<g id="a_node5"><a xlink:href="class_hydro_couple_1_1_i_property_changed.html" target="_top" xlink:title="IPropertyChanged interface is used to emit signal/event when a property of an object changes...">
<polygon fill="white" stroke="black" points="153.996,-819.889 153.996,-883.894 344.024,-883.894 344.024,-819.889 153.996,-819.889"/>
<text text-anchor="middle" x="249.01" y="-871.894" font-family="Monaco" font-size="10.00">HydroCouple::IPropertyChanged</text>
<polyline fill="none" stroke="black" points="153.996,-862.559 344.024,-862.559 "/>
<text text-anchor="middle" x="249.01" y="-850.559" font-family="Monaco" font-size="10.00"> </text>
<polyline fill="none" stroke="black" points="153.996,-841.224 344.024,-841.224 "/>
<text text-anchor="start" x="161.996" y="-829.224" font-family="Monaco" font-size="10.00">+ ~IPropertyChanged()</text>
</a>
</g>
</g>
<!-- Node5&#45;&gt;Node4 -->
<g id="edge4" class="edge"><title>Node5&#45;&gt;Node4</title>
<path fill="none" stroke="midnightblue" d="M249.01,-809.568C249.01,-801.183 249.01,-792.217 249.01,-783.375"/>
<polygon fill="none" stroke="midnightblue" points="245.51,-809.825 249.01,-819.825 252.51,-809.825 245.51,-809.825"/>
</g>
<!-- Node7 -->
<g id="node7" class="node"><title>Node7</title>
<g id="a_node7"><a xlink:href="class_hydro_couple_1_1_spatio_temporal_1_1_i_time_raster_argument.html" target="_top" xlink:title="The ITimeRasterArgument class. ">
<polygon fill="white" stroke="black" points="47.9966,-0.5 47.9966,-77.8398 226.023,-77.8398 226.023,-0.5 47.9966,-0.5"/>
<text text-anchor="start" x="55.9966" y="-65.8398" font-family="Monaco" font-size="10.00">HydroCouple::SpatioTemporal</text>
<text text-anchor="middle" x="137.01" y="-52.5049" font-family="Monaco" font-size="10.00">::ITimeRasterArgument</text>
<polyline fill="none" stroke="black" points="47.9966,-43.1699 226.023,-43.1699 "/>
<text text-anchor="middle" x="137.01" y="-31.1699" font-family="Monaco" font-size="10.00"> </text>
<polyline fill="none" stroke="black" points="47.9966,-21.835 226.023,-21.835 "/>
<text text-anchor="start" x="55.9966" y="-9.83496" font-family="Monaco" font-size="10.00">+ ~ITimeRasterArgument()</text>
</a>
</g>
</g>
<!-- Node6&#45;&gt;Node7 -->
<g id="edge6" class="edge"><title>Node6&#45;&gt;Node7</title>
<path fill="none" stroke="midnightblue" d="M99.0262,-105.682C104.429,-96.3638 109.947,-86.8471 115.042,-78.0584"/>
<polygon fill="none" stroke="midnightblue" points="95.8872,-104.118 93.8991,-114.525 101.943,-107.629 95.8872,-104.118"/>
</g>
<!-- Node9 -->
<g id="node9" class="node"><title>Node9</title>
<g id="a_node9"><a xlink:href="class_hydro_couple_1_1_spatio_temporal_1_1_i_time_raster_exchange_item.html" target="_top" xlink:title="The ITimeRasterExchangeItem class. ">
<polygon fill="white" stroke="black" points="278.991,-0.5 278.991,-77.8398 529.029,-77.8398 529.029,-0.5 278.991,-0.5"/>
<text text-anchor="start" x="286.991" y="-65.8398" font-family="Monaco" font-size="10.00">HydroCouple::SpatioTemporal</text>
<text text-anchor="middle" x="404.01" y="-52.5049" font-family="Monaco" font-size="10.00">::ITimeRasterExchangeItem</text>
<polyline fill="none" stroke="black" points="278.991,-43.1699 529.029,-43.1699 "/>
<text text-anchor="middle" x="404.01" y="-31.1699" font-family="Monaco" font-size="10.00"> </text>
<polyline fill="none" stroke="black" points="278.991,-21.835 529.029,-21.835 "/>
<text text-anchor="start" x="286.991" y="-9.83496" font-family="Monaco" font-size="10.00">+ ~ITimePolyhedralSurfaceExchangeItem()</text>
</a>
</g>
</g>
<!-- Node8&#45;&gt;Node9 -->
<g id="edge8" class="edge"><title>Node8&#45;&gt;Node9</title>
<path fill="none" stroke="midnightblue" d="M424.925,-111.288C421.688,-100.281 418.289,-88.7226 415.194,-78.1991"/>
<polygon fill="none" stroke="midnightblue" points="421.66,-112.589 427.839,-121.195 428.376,-110.614 421.66,-112.589"/>
</g>
<!-- Node10&#45;&gt;Node7 -->
<g id="edge10" class="edge"><title>Node10&#45;&gt;Node7</title>
<path fill="none" stroke="midnightblue" d="M206.151,-113.637C195.14,-101.937 183.411,-89.4743 172.8,-78.1991"/>
<polygon fill="none" stroke="midnightblue" points="203.862,-116.312 213.264,-121.195 208.96,-111.514 203.862,-116.312"/>
</g>
<!-- Node10&#45;&gt;Node9 -->
<g id="edge11" class="edge"><title>Node10&#45;&gt;Node9</title>
<path fill="none" stroke="midnightblue" d="M306.627,-114.94C322.443,-102.796 339.444,-89.7427 354.745,-77.9951"/>
<polygon fill="none" stroke="midnightblue" points="304.279,-112.329 298.479,-121.195 308.542,-117.882 304.279,-112.329"/>
</g>
</g>
</svg>
