<?xml version="1.0" encoding="UTF-8" standalone="no"?>
<!DOCTYPE svg PUBLIC "-//W3C//DTD SVG 1.1//EN"
 "http://www.w3.org/Graphics/SVG/1.1/DTD/svg11.dtd">
<!-- Generated by graphviz version 2.38.0 (20140413.2041)
 -->
<!-- Title: HydroCouple::IComponentInfo Pages: 1 -->
<svg width="543pt" height="938pt"
 viewBox="0.00 0.00 543.09 938.00" xmlns="http://www.w3.org/2000/svg" xmlns:xlink="http://www.w3.org/1999/xlink">
<g id="graph0" class="graph" transform="scale(1 1) rotate(0) translate(4 934)">
<title>HydroCouple::IComponentInfo</title>
<polygon fill="white" stroke="none" points="-4,4 -4,-934 539.092,-934 539.092,4 -4,4"/>
<!-- Node1 -->
<g id="node1" class="node"><title>Node1</title>
<polygon fill="#bfbfbf" stroke="black" points="158.396,-422.5 158.396,-606.5 309.474,-606.5 309.474,-422.5 158.396,-422.5"/>
<text text-anchor="middle" x="233.935" y="-594.5" font-family="Helvetica,sans-Serif" font-size="10.00">HydroCouple::IComponentInfo</text>
<polyline fill="none" stroke="black" points="158.396,-588.5 309.474,-588.5 "/>
<text text-anchor="middle" x="233.935" y="-576.5" font-family="Helvetica,sans-Serif" font-size="10.00"> </text>
<polyline fill="none" stroke="black" points="158.396,-570.5 309.474,-570.5 "/>
<text text-anchor="start" x="166.396" y="-558.5" font-family="Helvetica,sans-Serif" font-size="10.00">+ ~IComponentInfo()</text>
<text text-anchor="start" x="166.396" y="-548.5" font-family="Helvetica,sans-Serif" font-size="10.00">+ name()</text>
<text text-anchor="start" x="166.396" y="-538.5" font-family="Helvetica,sans-Serif" font-size="10.00">+ libraryFilePath()</text>
<text text-anchor="start" x="166.396" y="-528.5" font-family="Helvetica,sans-Serif" font-size="10.00">+ setLibraryFilePath()</text>
<text text-anchor="start" x="166.396" y="-518.5" font-family="Helvetica,sans-Serif" font-size="10.00">+ iconFilePath()</text>
<text text-anchor="start" x="166.396" y="-508.5" font-family="Helvetica,sans-Serif" font-size="10.00">+ vendor()</text>
<text text-anchor="start" x="166.396" y="-498.5" font-family="Helvetica,sans-Serif" font-size="10.00">+ publications()</text>
<text text-anchor="start" x="166.396" y="-488.5" font-family="Helvetica,sans-Serif" font-size="10.00">+ license()</text>
<text text-anchor="start" x="166.396" y="-478.5" font-family="Helvetica,sans-Serif" font-size="10.00">+ copyright()</text>
<text text-anchor="start" x="166.396" y="-468.5" font-family="Helvetica,sans-Serif" font-size="10.00">+ url()</text>
<text text-anchor="start" x="166.396" y="-458.5" font-family="Helvetica,sans-Serif" font-size="10.00">+ email()</text>
<text text-anchor="start" x="166.396" y="-448.5" font-family="Helvetica,sans-Serif" font-size="10.00">+ version()</text>
<text text-anchor="start" x="166.396" y="-438.5" font-family="Helvetica,sans-Serif" font-size="10.00">+ category()</text>
<text text-anchor="start" x="166.396" y="-428.5" font-family="Helvetica,sans-Serif" font-size="10.00">+ hasValidLicense()</text>
</g>
<!-- Node5 -->
<g id="node5" class="node"><title>Node5</title>
<g id="a_node5"><a xlink:href="class_component_info.html" target="_top" xlink:title="Example implementation of the IComponentInfo. This is the core interface specifying meta data about a...">
<polygon fill="white" stroke="black" points="0,-91.5 0,-385.5 111.869,-385.5 111.869,-91.5 0,-91.5"/>
<text text-anchor="middle" x="55.9346" y="-373.5" font-family="Helvetica,sans-Serif" font-size="10.00">ComponentInfo</text>
<polyline fill="none" stroke="black" points="0,-367.5 111.869,-367.5 "/>
<text text-anchor="start" x="8" y="-355.5" font-family="Helvetica,sans-Serif" font-size="10.00"># m_name</text>
<text text-anchor="start" x="8" y="-345.5" font-family="Helvetica,sans-Serif" font-size="10.00"># m_iconFilePath</text>
<text text-anchor="start" x="8" y="-335.5" font-family="Helvetica,sans-Serif" font-size="10.00"># m_vendor</text>
<text text-anchor="start" x="8" y="-325.5" font-family="Helvetica,sans-Serif" font-size="10.00"># m_license</text>
<text text-anchor="start" x="8" y="-315.5" font-family="Helvetica,sans-Serif" font-size="10.00"># m_copyright</text>
<text text-anchor="start" x="8" y="-305.5" font-family="Helvetica,sans-Serif" font-size="10.00"># m_url</text>
<text text-anchor="start" x="8" y="-295.5" font-family="Helvetica,sans-Serif" font-size="10.00"># m_email</text>
<text text-anchor="start" x="8" y="-285.5" font-family="Helvetica,sans-Serif" font-size="10.00"># m_version</text>
<text text-anchor="start" x="8" y="-275.5" font-family="Helvetica,sans-Serif" font-size="10.00"># m_category</text>
<text text-anchor="start" x="8" y="-265.5" font-family="Helvetica,sans-Serif" font-size="10.00"># m_filePath</text>
<text text-anchor="start" x="8" y="-255.5" font-family="Helvetica,sans-Serif" font-size="10.00"># m_publications</text>
<polyline fill="none" stroke="black" points="0,-249.5 111.869,-249.5 "/>
<text text-anchor="start" x="8" y="-237.5" font-family="Helvetica,sans-Serif" font-size="10.00">+ ComponentInfo()</text>
<text text-anchor="start" x="8" y="-227.5" font-family="Helvetica,sans-Serif" font-size="10.00">+ ~ComponentInfo()</text>
<text text-anchor="start" x="8" y="-217.5" font-family="Helvetica,sans-Serif" font-size="10.00">+ name()</text>
<text text-anchor="start" x="8" y="-207.5" font-family="Helvetica,sans-Serif" font-size="10.00">+ libraryFilePath()</text>
<text text-anchor="start" x="8" y="-197.5" font-family="Helvetica,sans-Serif" font-size="10.00">+ setLibraryFilePath()</text>
<text text-anchor="start" x="8" y="-187.5" font-family="Helvetica,sans-Serif" font-size="10.00">+ iconFilePath()</text>
<text text-anchor="start" x="8" y="-177.5" font-family="Helvetica,sans-Serif" font-size="10.00">+ vendor()</text>
<text text-anchor="start" x="8" y="-167.5" font-family="Helvetica,sans-Serif" font-size="10.00">+ publications()</text>
<text text-anchor="start" x="8" y="-157.5" font-family="Helvetica,sans-Serif" font-size="10.00">+ license()</text>
<text text-anchor="start" x="8" y="-147.5" font-family="Helvetica,sans-Serif" font-size="10.00">+ copyright()</text>
<text text-anchor="start" x="8" y="-137.5" font-family="Helvetica,sans-Serif" font-size="10.00">+ url()</text>
<text text-anchor="start" x="8" y="-127.5" font-family="Helvetica,sans-Serif" font-size="10.00">+ email()</text>
<text text-anchor="start" x="8" y="-117.5" font-family="Helvetica,sans-Serif" font-size="10.00">+ version()</text>
<text text-anchor="start" x="8" y="-107.5" font-family="Helvetica,sans-Serif" font-size="10.00">+ category()</text>
<text text-anchor="start" x="8" y="-97.5" font-family="Helvetica,sans-Serif" font-size="10.00">+ hasValidLicense()</text>
</a>
</g>
</g>
<!-- Node1&#45;&gt;Node5 -->
<g id="edge4" class="edge"><title>Node1&#45;&gt;Node5</title>
<path fill="none" stroke="midnightblue" d="M151.683,-427.745C140.653,-414.291 130.027,-400.142 120.935,-386 117.85,-381.202 114.842,-376.233 111.919,-371.151"/>
<polygon fill="none" stroke="midnightblue" points="149.124,-430.141 158.216,-435.581 154.501,-425.659 149.124,-430.141"/>
</g>
<!-- Node7 -->
<g id="node7" class="node"><title>Node7</title>
<g id="a_node7"><a xlink:href="class_hydro_couple_1_1_i_adapted_output_factory_component_info.html" target="_top" xlink:title="IAdaptedOutputFactoryComponentInfo interface class provides information about an IAdaptedOutputFactor...">
<polygon fill="white" stroke="black" points="129.489,-201.5 129.489,-275.5 338.38,-275.5 338.38,-201.5 129.489,-201.5"/>
<text text-anchor="start" x="137.489" y="-263.5" font-family="Helvetica,sans-Serif" font-size="10.00">HydroCouple::IAdaptedOutput</text>
<text text-anchor="middle" x="233.935" y="-253.5" font-family="Helvetica,sans-Serif" font-size="10.00">FactoryComponentInfo</text>
<polyline fill="none" stroke="black" points="129.489,-247.5 338.38,-247.5 "/>
<text text-anchor="middle" x="233.935" y="-235.5" font-family="Helvetica,sans-Serif" font-size="10.00"> </text>
<polyline fill="none" stroke="black" points="129.489,-229.5 338.38,-229.5 "/>
<text text-anchor="start" x="137.489" y="-217.5" font-family="Helvetica,sans-Serif" font-size="10.00">+ ~IAdaptedOutputFactoryComponentInfo()</text>
<text text-anchor="start" x="137.489" y="-207.5" font-family="Helvetica,sans-Serif" font-size="10.00">+ createComponentInstance()</text>
</a>
</g>
</g>
<!-- Node1&#45;&gt;Node7 -->
<g id="edge6" class="edge"><title>Node1&#45;&gt;Node7</title>
<path fill="none" stroke="midnightblue" d="M233.935,-412.163C233.935,-364.348 233.935,-310.304 233.935,-275.616"/>
<polygon fill="none" stroke="midnightblue" points="230.435,-412.262 233.935,-422.262 237.435,-412.262 230.435,-412.262"/>
</g>
<!-- Node8 -->
<g id="node8" class="node"><title>Node8</title>
<g id="a_node8"><a xlink:href="class_hydro_couple_1_1_i_model_component_info.html" target="_top" xlink:title="IModelComponentInfo interface inherits from the IComponentInfo interface which provides detailed meta...">
<polygon fill="white" stroke="black" points="356.777,-206.5 356.777,-270.5 535.092,-270.5 535.092,-206.5 356.777,-206.5"/>
<text text-anchor="middle" x="445.935" y="-258.5" font-family="Helvetica,sans-Serif" font-size="10.00">HydroCouple::IModelComponentInfo</text>
<polyline fill="none" stroke="black" points="356.777,-252.5 535.092,-252.5 "/>
<text text-anchor="middle" x="445.935" y="-240.5" font-family="Helvetica,sans-Serif" font-size="10.00"> </text>
<polyline fill="none" stroke="black" points="356.777,-234.5 535.092,-234.5 "/>
<text text-anchor="start" x="364.777" y="-222.5" font-family="Helvetica,sans-Serif" font-size="10.00">+ ~IModelComponentInfo()</text>
<text text-anchor="start" x="364.777" y="-212.5" font-family="Helvetica,sans-Serif" font-size="10.00">+ createComponentInstance()</text>
</a>
</g>
</g>
<!-- Node1&#45;&gt;Node8 -->
<g id="edge7" class="edge"><title>Node1&#45;&gt;Node8</title>
<path fill="none" stroke="midnightblue" d="M316.285,-423.498C326.853,-411.109 337.327,-398.387 346.935,-386 376.661,-347.676 407.405,-300.854 426.587,-270.621"/>
<polygon fill="none" stroke="midnightblue" points="313.562,-421.297 309.7,-431.163 318.871,-425.859 313.562,-421.297"/>
</g>
<!-- Node2 -->
<g id="node2" class="node"><title>Node2</title>
<g id="a_node2"><a xlink:href="class_hydro_couple_1_1_i_identity.html" target="_top" xlink:title="IIdentity interface class defines a method to get the Id of an HydroCouple entity. &#160;IIdentity extends the IDescription interface class, and therefore has, next to the id, a caption and a description. ">
<polygon fill="white" stroke="black" points="176.464,-643.5 176.464,-707.5 291.405,-707.5 291.405,-643.5 176.464,-643.5"/>
<text text-anchor="middle" x="233.935" y="-695.5" font-family="Helvetica,sans-Serif" font-size="10.00">HydroCouple::IIdentity</text>
<polyline fill="none" stroke="black" points="176.464,-689.5 291.405,-689.5 "/>
<text text-anchor="middle" x="233.935" y="-677.5" font-family="Helvetica,sans-Serif" font-size="10.00"> </text>
<polyline fill="none" stroke="black" points="176.464,-671.5 291.405,-671.5 "/>
<text text-anchor="start" x="184.464" y="-659.5" font-family="Helvetica,sans-Serif" font-size="10.00">+ ~IIdentity()</text>
<text text-anchor="start" x="184.464" y="-649.5" font-family="Helvetica,sans-Serif" font-size="10.00">+ id()</text>
</a>
</g>
</g>
<!-- Node2&#45;&gt;Node1 -->
<g id="edge1" class="edge"><title>Node2&#45;&gt;Node1</title>
<path fill="none" stroke="midnightblue" d="M233.935,-633.332C233.935,-624.988 233.935,-615.903 233.935,-606.601"/>
<polygon fill="none" stroke="midnightblue" points="230.435,-633.466 233.935,-643.466 237.435,-633.466 230.435,-633.466"/>
</g>
<!-- Node3 -->
<g id="node3" class="node"><title>Node3</title>
<g id="a_node3"><a xlink:href="class_hydro_couple_1_1_i_description.html" target="_top" xlink:title="IDescription interface class provides descriptive information on a HydroCouple object. ">
<polygon fill="white" stroke="black" points="167.575,-744.5 167.575,-838.5 300.294,-838.5 300.294,-744.5 167.575,-744.5"/>
<text text-anchor="middle" x="233.935" y="-826.5" font-family="Helvetica,sans-Serif" font-size="10.00">HydroCouple::IDescription</text>
<polyline fill="none" stroke="black" points="167.575,-820.5 300.294,-820.5 "/>
<text text-anchor="middle" x="233.935" y="-808.5" font-family="Helvetica,sans-Serif" font-size="10.00"> </text>
<polyline fill="none" stroke="black" points="167.575,-802.5 300.294,-802.5 "/>
<text text-anchor="start" x="175.575" y="-790.5" font-family="Helvetica,sans-Serif" font-size="10.00">+ ~IDescription()</text>
<text text-anchor="start" x="175.575" y="-780.5" font-family="Helvetica,sans-Serif" font-size="10.00">+ getCaption()</text>
<text text-anchor="start" x="175.575" y="-770.5" font-family="Helvetica,sans-Serif" font-size="10.00">+ setCaption()</text>
<text text-anchor="start" x="175.575" y="-760.5" font-family="Helvetica,sans-Serif" font-size="10.00">+ getDescription()</text>
<text text-anchor="start" x="175.575" y="-750.5" font-family="Helvetica,sans-Serif" font-size="10.00">+ setDescription()</text>
</a>
</g>
</g>
<!-- Node3&#45;&gt;Node2 -->
<g id="edge2" class="edge"><title>Node3&#45;&gt;Node2</title>
<path fill="none" stroke="midnightblue" d="M233.935,-734.212C233.935,-725.081 233.935,-715.926 233.935,-707.684"/>
<polygon fill="none" stroke="midnightblue" points="230.435,-734.46 233.935,-744.46 237.435,-734.46 230.435,-734.46"/>
</g>
<!-- Node4 -->
<g id="node4" class="node"><title>Node4</title>
<g id="a_node4"><a xlink:href="class_hydro_couple_1_1_i_property_changed.html" target="_top" xlink:title="IPropertyChanged interface is used to emit signal/event when a property of an object changes...">
<polygon fill="white" stroke="black" points="153.393,-875.5 153.393,-929.5 314.476,-929.5 314.476,-875.5 153.393,-875.5"/>
<text text-anchor="middle" x="233.935" y="-917.5" font-family="Helvetica,sans-Serif" font-size="10.00">HydroCouple::IPropertyChanged</text>
<polyline fill="none" stroke="black" points="153.393,-911.5 314.476,-911.5 "/>
<text text-anchor="middle" x="233.935" y="-899.5" font-family="Helvetica,sans-Serif" font-size="10.00"> </text>
<polyline fill="none" stroke="black" points="153.393,-893.5 314.476,-893.5 "/>
<text text-anchor="start" x="161.393" y="-881.5" font-family="Helvetica,sans-Serif" font-size="10.00">+ ~IPropertyChanged()</text>
</a>
</g>
</g>
<!-- Node4&#45;&gt;Node3 -->
<g id="edge3" class="edge"><title>Node4&#45;&gt;Node3</title>
<path fill="none" stroke="midnightblue" d="M233.935,-865.141C233.935,-856.716 233.935,-847.639 233.935,-838.851"/>
<polygon fill="none" stroke="midnightblue" points="230.435,-865.392 233.935,-875.392 237.435,-865.392 230.435,-865.392"/>
</g>
<!-- Node6 -->
<g id="node6" class="node"><title>Node6</title>
<g id="a_node6"><a xlink:href="class_model_component_info.html" target="_top" xlink:title=" ">
<polygon fill="white" stroke="black" points="195.127,-0.5 195.127,-54.5 306.742,-54.5 306.742,-0.5 195.127,-0.5"/>
<text text-anchor="middle" x="250.935" y="-42.5" font-family="Helvetica,sans-Serif" font-size="10.00">ModelComponentInfo</text>
<polyline fill="none" stroke="black" points="195.127,-36.5 306.742,-36.5 "/>
<text text-anchor="middle" x="250.935" y="-24.5" font-family="Helvetica,sans-Serif" font-size="10.00"> </text>
<polyline fill="none" stroke="black" points="195.127,-18.5 306.742,-18.5 "/>
<text text-anchor="middle" x="250.935" y="-6.5" font-family="Helvetica,sans-Serif" font-size="10.00"> </text>
</a>
</g>
</g>
<!-- Node5&#45;&gt;Node6 -->
<g id="edge5" class="edge"><title>Node5&#45;&gt;Node6</title>
<path fill="none" stroke="midnightblue" d="M118.635,-93.4287C119.393,-92.6087 120.16,-91.7989 120.935,-91 141.159,-70.1478 169.747,-55.3603 194.967,-45.4227"/>
<polygon fill="none" stroke="midnightblue" points="115.921,-91.2163 112.032,-101.072 121.218,-95.7926 115.921,-91.2163"/>
</g>
<!-- Node8&#45;&gt;Node6 -->
<g id="edge8" class="edge"><title>Node8&#45;&gt;Node6</title>
<path fill="none" stroke="midnightblue" d="M424.707,-197.346C406.805,-165.967 379.013,-122.533 346.935,-91 332.894,-77.198 315.355,-64.7241 299.125,-54.6151"/>
<polygon fill="none" stroke="midnightblue" points="421.766,-199.257 429.714,-206.263 427.87,-195.83 421.766,-199.257"/>
</g>
</g>
</svg>
