<?xml version="1.0" encoding="UTF-8" standalone="no"?>
<!DOCTYPE svg PUBLIC "-//W3C//DTD SVG 1.1//EN"
 "http://www.w3.org/Graphics/SVG/1.1/DTD/svg11.dtd">
<!-- Generated by graphviz version 2.38.0 (20140413.2041)
 -->
<!-- Title: HydroCouple::SpatioTemporal::ITimeRasterComponentItem Pages: 1 -->
<svg width="454pt" height="879pt"
 viewBox="0.00 0.00 454.03 879.06" xmlns="http://www.w3.org/2000/svg" xmlns:xlink="http://www.w3.org/1999/xlink">
<g id="graph0" class="graph" transform="scale(1 1) rotate(0) translate(4 875.059)">
<title>HydroCouple::SpatioTemporal::ITimeRasterComponentItem</title>
<polygon fill="white" stroke="none" points="-4,4 -4,-875.059 450.032,-875.059 450.032,4 -4,4"/>
<!-- Node1 -->
<g id="node1" class="node"><title>Node1</title>
<polygon fill="#bfbfbf" stroke="black" points="109.999,-114.84 109.999,-192.18 300.027,-192.18 300.027,-114.84 109.999,-114.84"/>
<text text-anchor="start" x="117.999" y="-180.18" font-family="Monaco" font-size="10.00">HydroCouple::SpatioTemporal</text>
<text text-anchor="middle" x="205.013" y="-166.845" font-family="Monaco" font-size="10.00">::ITimeRasterComponentItem</text>
<polyline fill="none" stroke="black" points="109.999,-157.51 300.027,-157.51 "/>
<text text-anchor="middle" x="205.013" y="-145.51" font-family="Monaco" font-size="10.00"> </text>
<polyline fill="none" stroke="black" points="109.999,-136.175 300.027,-136.175 "/>
<text text-anchor="start" x="117.999" y="-124.175" font-family="Monaco" font-size="10.00">+ ~ITimeRasterComponentItem()</text>
</g>
<!-- Node8 -->
<g id="node8" class="node"><title>Node8</title>
<g id="a_node8"><a xlink:href="class_hydro_couple_1_1_spatio_temporal_1_1_i_time_raster_argument.html" target="_top" xlink:title="The ITimeRasterArgument class. ">
<polygon fill="white" stroke="black" points="0,-0.5 0,-77.8398 178.026,-77.8398 178.026,-0.5 0,-0.5"/>
<text text-anchor="start" x="8" y="-65.8398" font-family="Monaco" font-size="10.00">HydroCouple::SpatioTemporal</text>
<text text-anchor="middle" x="89.0132" y="-52.5049" font-family="Monaco" font-size="10.00">::ITimeRasterArgument</text>
<polyline fill="none" stroke="black" points="0,-43.1699 178.026,-43.1699 "/>
<text text-anchor="middle" x="89.0132" y="-31.1699" font-family="Monaco" font-size="10.00"> </text>
<polyline fill="none" stroke="black" points="0,-21.835 178.026,-21.835 "/>
<text text-anchor="start" x="8" y="-9.83496" font-family="Monaco" font-size="10.00">+ ~ITimeRasterArgument()</text>
</a>
</g>
</g>
<!-- Node1&#45;&gt;Node8 -->
<g id="edge8" class="edge"><title>Node1&#45;&gt;Node8</title>
<path fill="none" stroke="midnightblue" d="M158.764,-107.72C148.59,-97.8674 137.913,-87.5271 128.057,-77.9816"/>
<polygon fill="none" stroke="midnightblue" points="156.446,-110.347 166.064,-114.79 161.316,-105.319 156.446,-110.347"/>
</g>
<!-- Node9 -->
<g id="node9" class="node"><title>Node9</title>
<g id="a_node9"><a xlink:href="class_hydro_couple_1_1_spatio_temporal_1_1_i_time_raster_exchange_item.html" target="_top" xlink:title="The ITimeRasterExchangeItem class. ">
<polygon fill="white" stroke="black" points="195.994,-0.5 195.994,-77.8398 446.032,-77.8398 446.032,-0.5 195.994,-0.5"/>
<text text-anchor="start" x="203.994" y="-65.8398" font-family="Monaco" font-size="10.00">HydroCouple::SpatioTemporal</text>
<text text-anchor="middle" x="321.013" y="-52.5049" font-family="Monaco" font-size="10.00">::ITimeRasterExchangeItem</text>
<polyline fill="none" stroke="black" points="195.994,-43.1699 446.032,-43.1699 "/>
<text text-anchor="middle" x="321.013" y="-31.1699" font-family="Monaco" font-size="10.00"> </text>
<polyline fill="none" stroke="black" points="195.994,-21.835 446.032,-21.835 "/>
<text text-anchor="start" x="203.994" y="-9.83496" font-family="Monaco" font-size="10.00">+ ~ITimePolyhedralSurfaceExchangeItem()</text>
</a>
</g>
</g>
<!-- Node1&#45;&gt;Node9 -->
<g id="edge9" class="edge"><title>Node1&#45;&gt;Node9</title>
<path fill="none" stroke="midnightblue" d="M251.262,-107.72C261.436,-97.8674 272.113,-87.5271 281.97,-77.9816"/>
<polygon fill="none" stroke="midnightblue" points="248.711,-105.319 243.962,-114.79 253.581,-110.347 248.711,-105.319"/>
</g>
<!-- Node2 -->
<g id="node2" class="node"><title>Node2</title>
<g id="a_node2"><a xlink:href="class_hydro_couple_1_1_temporal_1_1_i_time_component_item.html" target="_top" xlink:title="ITimeComponentItem is an IComponentItem with a temporal attribute. ">
<polygon fill="white" stroke="black" points="39.002,-235.847 39.002,-366.527 193.024,-366.527 193.024,-235.847 39.002,-235.847"/>
<text text-anchor="start" x="47.002" y="-354.527" font-family="Monaco" font-size="10.00">HydroCouple::Temporal</text>
<text text-anchor="middle" x="116.013" y="-341.192" font-family="Monaco" font-size="10.00">::ITimeComponentItem</text>
<polyline fill="none" stroke="black" points="39.002,-331.857 193.024,-331.857 "/>
<text text-anchor="middle" x="116.013" y="-319.857" font-family="Monaco" font-size="10.00"> </text>
<polyline fill="none" stroke="black" points="39.002,-310.522 193.024,-310.522 "/>
<text text-anchor="start" x="47.002" y="-298.522" font-family="Monaco" font-size="10.00">+ ~ITimeComponentItem()</text>
<text text-anchor="start" x="47.002" y="-285.187" font-family="Monaco" font-size="10.00">+ timeDimension()</text>
<text text-anchor="start" x="47.002" y="-271.852" font-family="Monaco" font-size="10.00">+ times()</text>
<text text-anchor="start" x="47.002" y="-258.517" font-family="Monaco" font-size="10.00">+ timeSpan()</text>
<text text-anchor="start" x="47.002" y="-245.182" font-family="Monaco" font-size="10.00">+ time()</text>
</a>
</g>
</g>
<!-- Node2&#45;&gt;Node1 -->
<g id="edge1" class="edge"><title>Node2&#45;&gt;Node1</title>
<path fill="none" stroke="midnightblue" d="M160.866,-226.772C168.153,-214.844 175.428,-202.936 181.908,-192.329"/>
<polygon fill="none" stroke="midnightblue" points="157.795,-225.084 155.568,-235.442 163.768,-228.734 157.795,-225.084"/>
</g>
<!-- Node3 -->
<g id="node3" class="node"><title>Node3</title>
<g id="a_node3"><a xlink:href="class_hydro_couple_1_1_i_component_item.html" target="_top" xlink:title="IComponentItem is a fundamental unit of data for a component. ">
<polygon fill="white" stroke="black" points="116,-410.194 116,-500.869 294.026,-500.869 294.026,-410.194 116,-410.194"/>
<text text-anchor="middle" x="205.013" y="-488.869" font-family="Monaco" font-size="10.00">HydroCouple::IComponentItem</text>
<polyline fill="none" stroke="black" points="116,-479.534 294.026,-479.534 "/>
<text text-anchor="middle" x="205.013" y="-467.534" font-family="Monaco" font-size="10.00"> </text>
<polyline fill="none" stroke="black" points="116,-458.199 294.026,-458.199 "/>
<text text-anchor="start" x="124" y="-446.199" font-family="Monaco" font-size="10.00">+ ~IComponentItem()</text>
<text text-anchor="start" x="124" y="-432.864" font-family="Monaco" font-size="10.00">+ modelComponent()</text>
<text text-anchor="start" x="124" y="-419.529" font-family="Monaco" font-size="10.00">+ dimensions()</text>
</a>
</g>
</g>
<!-- Node3&#45;&gt;Node2 -->
<g id="edge2" class="edge"><title>Node3&#45;&gt;Node2</title>
<path fill="none" stroke="midnightblue" d="M173.883,-401.245C167.334,-390.035 160.359,-378.096 153.603,-366.53"/>
<polygon fill="none" stroke="midnightblue" points="170.965,-403.189 179.031,-410.058 177.009,-399.658 170.965,-403.189"/>
</g>
<!-- Node7 -->
<g id="node7" class="node"><title>Node7</title>
<g id="a_node7"><a xlink:href="class_hydro_couple_1_1_spatial_1_1_i_raster_component_item.html" target="_top" xlink:title="An IRasterComponentItem represents an IRaster IComponentItem. ">
<polygon fill="white" stroke="black" points="211.001,-229.18 211.001,-373.194 377.025,-373.194 377.025,-229.18 211.001,-229.18"/>
<text text-anchor="start" x="219.001" y="-361.194" font-family="Monaco" font-size="10.00">HydroCouple::Spatial</text>
<text text-anchor="middle" x="294.013" y="-347.859" font-family="Monaco" font-size="10.00">::IRasterComponentItem</text>
<polyline fill="none" stroke="black" points="211.001,-338.524 377.025,-338.524 "/>
<text text-anchor="middle" x="294.013" y="-326.524" font-family="Monaco" font-size="10.00"> </text>
<polyline fill="none" stroke="black" points="211.001,-317.189 377.025,-317.189 "/>
<text text-anchor="start" x="219.001" y="-305.189" font-family="Monaco" font-size="10.00">+ ~IRasterComponentItem()</text>
<text text-anchor="start" x="219.001" y="-291.854" font-family="Monaco" font-size="10.00">+ rasterDimension()</text>
<text text-anchor="start" x="219.001" y="-278.52" font-family="Monaco" font-size="10.00">+ xDimension()</text>
<text text-anchor="start" x="219.001" y="-265.185" font-family="Monaco" font-size="10.00">+ yDimension()</text>
<text text-anchor="start" x="219.001" y="-251.85" font-family="Monaco" font-size="10.00">+ bandDimension()</text>
<text text-anchor="start" x="219.001" y="-238.515" font-family="Monaco" font-size="10.00">+ raster()</text>
</a>
</g>
</g>
<!-- Node3&#45;&gt;Node7 -->
<g id="edge7" class="edge"><title>Node3&#45;&gt;Node7</title>
<path fill="none" stroke="midnightblue" d="M236.152,-401.23C241.413,-392.224 246.949,-382.748 252.426,-373.374"/>
<polygon fill="none" stroke="midnightblue" points="233.017,-399.658 230.995,-410.058 239.061,-403.189 233.017,-399.658"/>
</g>
<!-- Node4 -->
<g id="node4" class="node"><title>Node4</title>
<g id="a_node4"><a xlink:href="class_hydro_couple_1_1_i_identity.html" target="_top" xlink:title="IIdentity interface class defines a method to get the Id of an HydroCouple entity. ">
<polygon fill="white" stroke="black" points="131.002,-537.869 131.002,-615.209 279.024,-615.209 279.024,-537.869 131.002,-537.869"/>
<text text-anchor="middle" x="205.013" y="-603.209" font-family="Monaco" font-size="10.00">HydroCouple::IIdentity</text>
<polyline fill="none" stroke="black" points="131.002,-593.874 279.024,-593.874 "/>
<text text-anchor="middle" x="205.013" y="-581.874" font-family="Monaco" font-size="10.00"> </text>
<polyline fill="none" stroke="black" points="131.002,-572.539 279.024,-572.539 "/>
<text text-anchor="start" x="139.002" y="-560.539" font-family="Monaco" font-size="10.00">+ ~IIdentity()</text>
<text text-anchor="start" x="139.002" y="-547.204" font-family="Monaco" font-size="10.00">+ id()</text>
</a>
</g>
</g>
<!-- Node4&#45;&gt;Node3 -->
<g id="edge3" class="edge"><title>Node4&#45;&gt;Node3</title>
<path fill="none" stroke="midnightblue" d="M205.013,-527.549C205.013,-518.851 205.013,-509.811 205.013,-501.212"/>
<polygon fill="none" stroke="midnightblue" points="201.513,-527.557 205.013,-537.557 208.513,-527.557 201.513,-527.557"/>
</g>
<!-- Node5 -->
<g id="node5" class="node"><title>Node5</title>
<g id="a_node5"><a xlink:href="class_hydro_couple_1_1_i_description.html" target="_top" xlink:title="IDescription interface class provides descriptive information on a HydroCouple object. ">
<polygon fill="white" stroke="black" points="122.001,-652.209 122.001,-769.554 288.025,-769.554 288.025,-652.209 122.001,-652.209"/>
<text text-anchor="middle" x="205.013" y="-757.554" font-family="Monaco" font-size="10.00">HydroCouple::IDescription</text>
<polyline fill="none" stroke="black" points="122.001,-748.219 288.025,-748.219 "/>
<text text-anchor="middle" x="205.013" y="-736.219" font-family="Monaco" font-size="10.00"> </text>
<polyline fill="none" stroke="black" points="122.001,-726.884 288.025,-726.884 "/>
<text text-anchor="start" x="130.001" y="-714.884" font-family="Monaco" font-size="10.00">+ ~IDescription()</text>
<text text-anchor="start" x="130.001" y="-701.549" font-family="Monaco" font-size="10.00">+ getCaption()</text>
<text text-anchor="start" x="130.001" y="-688.214" font-family="Monaco" font-size="10.00">+ setCaption()</text>
<text text-anchor="start" x="130.001" y="-674.879" font-family="Monaco" font-size="10.00">+ getDescription()</text>
<text text-anchor="start" x="130.001" y="-661.544" font-family="Monaco" font-size="10.00">+ setDescription()</text>
</a>
</g>
</g>
<!-- Node5&#45;&gt;Node4 -->
<g id="edge4" class="edge"><title>Node5&#45;&gt;Node4</title>
<path fill="none" stroke="midnightblue" d="M205.013,-641.643C205.013,-632.604 205.013,-623.617 205.013,-615.356"/>
<polygon fill="none" stroke="midnightblue" points="201.513,-641.834 205.013,-651.834 208.513,-641.834 201.513,-641.834"/>
</g>
<!-- Node6 -->
<g id="node6" class="node"><title>Node6</title>
<g id="a_node6"><a xlink:href="class_hydro_couple_1_1_i_property_changed.html" target="_top" xlink:title="IPropertyChanged interface is used to emit signal/event when a property of an object changes...">
<polygon fill="white" stroke="black" points="109.999,-806.554 109.999,-870.559 300.027,-870.559 300.027,-806.554 109.999,-806.554"/>
<text text-anchor="middle" x="205.013" y="-858.559" font-family="Monaco" font-size="10.00">HydroCouple::IPropertyChanged</text>
<polyline fill="none" stroke="black" points="109.999,-849.224 300.027,-849.224 "/>
<text text-anchor="middle" x="205.013" y="-837.224" font-family="Monaco" font-size="10.00"> </text>
<polyline fill="none" stroke="black" points="109.999,-827.889 300.027,-827.889 "/>
<text text-anchor="start" x="117.999" y="-815.889" font-family="Monaco" font-size="10.00">+ ~IPropertyChanged()</text>
</a>
</g>
</g>
<!-- Node6&#45;&gt;Node5 -->
<g id="edge5" class="edge"><title>Node6&#45;&gt;Node5</title>
<path fill="none" stroke="midnightblue" d="M205.013,-796.233C205.013,-787.848 205.013,-778.882 205.013,-770.04"/>
<polygon fill="none" stroke="midnightblue" points="201.513,-796.49 205.013,-806.49 208.513,-796.49 201.513,-796.49"/>
</g>
<!-- Node7&#45;&gt;Node1 -->
<g id="edge6" class="edge"><title>Node7&#45;&gt;Node1</title>
<path fill="none" stroke="midnightblue" d="M245.282,-220.423C239.298,-210.628 233.417,-201.002 228.078,-192.262"/>
<polygon fill="none" stroke="midnightblue" points="242.356,-222.347 250.556,-229.055 248.329,-218.697 242.356,-222.347"/>
</g>
</g>
</svg>
