<?xml version="1.0" encoding="UTF-8" standalone="no"?>
<!DOCTYPE svg PUBLIC "-//W3C//DTD SVG 1.1//EN"
 "http://www.w3.org/Graphics/SVG/1.1/DTD/svg11.dtd">
<!-- Generated by graphviz version 2.38.0 (20140413.2041)
 -->
<!-- Title: HydroCouple::Spatial::ITINArgument Pages: 1 -->
<svg width="322pt" height="885pt"
 viewBox="0.00 0.00 322.02 884.73" xmlns="http://www.w3.org/2000/svg" xmlns:xlink="http://www.w3.org/1999/xlink">
<g id="graph0" class="graph" transform="scale(1 1) rotate(0) translate(4 880.733)">
<title>HydroCouple::Spatial::ITINArgument</title>
<polygon fill="white" stroke="none" points="-4,4 -4,-880.733 318.021,-880.733 318.021,4 -4,4"/>
<!-- Node1 -->
<g id="node1" class="node"><title>Node1</title>
<polygon fill="#bfbfbf" stroke="black" points="89.001,-0.5 89.001,-104.51 225.021,-104.51 225.021,-0.5 89.001,-0.5"/>
<text text-anchor="start" x="97.001" y="-92.5098" font-family="Monaco" font-size="10.00">HydroCouple::Spatial</text>
<text text-anchor="middle" x="157.011" y="-79.1748" font-family="Monaco" font-size="10.00">::ITINArgument</text>
<polyline fill="none" stroke="black" points="89.001,-69.8398 225.021,-69.8398 "/>
<text text-anchor="middle" x="157.011" y="-57.8398" font-family="Monaco" font-size="10.00"> </text>
<polyline fill="none" stroke="black" points="89.001,-48.5049 225.021,-48.5049 "/>
<text text-anchor="start" x="97.001" y="-36.5049" font-family="Monaco" font-size="10.00">+ ~ITINArgument()</text>
<text text-anchor="start" x="97.001" y="-23.1699" font-family="Monaco" font-size="10.00">+ setTIN()</text>
<text text-anchor="start" x="97.001" y="-9.83496" font-family="Monaco" font-size="10.00">+ patchValueSets()</text>
</g>
<!-- Node2 -->
<g id="node2" class="node"><title>Node2</title>
<g id="a_node2"><a xlink:href="class_hydro_couple_1_1_i_argument.html" target="_top" xlink:title="IArgument interface class used to set the arguments for components. They can be complex or simple mul...">
<polygon fill="white" stroke="black" points="0,-141.51 0,-338.864 148.021,-338.864 148.021,-141.51 0,-141.51"/>
<text text-anchor="middle" x="74.0107" y="-326.864" font-family="Monaco" font-size="10.00">HydroCouple::IArgument</text>
<polyline fill="none" stroke="black" points="0,-317.529 148.021,-317.529 "/>
<text text-anchor="middle" x="74.0107" y="-305.529" font-family="Monaco" font-size="10.00"> </text>
<polyline fill="none" stroke="black" points="0,-296.194 148.021,-296.194 "/>
<text text-anchor="start" x="8" y="-284.194" font-family="Monaco" font-size="10.00">+ ~IArgument()</text>
<text text-anchor="start" x="8" y="-270.859" font-family="Monaco" font-size="10.00">+ isOptional()</text>
<text text-anchor="start" x="8" y="-257.524" font-family="Monaco" font-size="10.00">+ isReadOnly()</text>
<text text-anchor="start" x="8" y="-244.189" font-family="Monaco" font-size="10.00">+ clone()</text>
<text text-anchor="start" x="8" y="-230.854" font-family="Monaco" font-size="10.00">+ valueSets()</text>
<text text-anchor="start" x="8" y="-217.52" font-family="Monaco" font-size="10.00">+ toString()</text>
<text text-anchor="start" x="8" y="-204.185" font-family="Monaco" font-size="10.00">+ fileExtensions()</text>
<text text-anchor="start" x="8" y="-190.85" font-family="Monaco" font-size="10.00">+ canReadFromFile()</text>
<text text-anchor="start" x="8" y="-177.515" font-family="Monaco" font-size="10.00">+ canReadFromString()</text>
<text text-anchor="start" x="8" y="-164.18" font-family="Monaco" font-size="10.00">+ readValues()</text>
<text text-anchor="start" x="8" y="-150.845" font-family="Monaco" font-size="10.00">+ readValues()</text>
</a>
</g>
</g>
<!-- Node2&#45;&gt;Node1 -->
<g id="edge1" class="edge"><title>Node2&#45;&gt;Node1</title>
<path fill="none" stroke="midnightblue" d="M121.825,-132.22C126.107,-122.641 130.296,-113.268 134.206,-104.522"/>
<polygon fill="none" stroke="midnightblue" points="118.584,-130.894 117.698,-141.452 124.975,-133.751 118.584,-130.894"/>
</g>
<!-- Node3 -->
<g id="node3" class="node"><title>Node3</title>
<g id="a_node3"><a xlink:href="class_hydro_couple_1_1_i_component_item.html" target="_top" xlink:title="IComponentItem is a fundamental unit of data for a component. ">
<polygon fill="white" stroke="black" points="67.9976,-375.864 67.9976,-479.874 246.024,-479.874 246.024,-375.864 67.9976,-375.864"/>
<text text-anchor="middle" x="157.011" y="-467.874" font-family="Monaco" font-size="10.00">HydroCouple::IComponentItem</text>
<polyline fill="none" stroke="black" points="67.9976,-458.539 246.024,-458.539 "/>
<text text-anchor="middle" x="157.011" y="-446.539" font-family="Monaco" font-size="10.00"> </text>
<polyline fill="none" stroke="black" points="67.9976,-437.204 246.024,-437.204 "/>
<text text-anchor="start" x="75.9976" y="-425.204" font-family="Monaco" font-size="10.00">+ ~IComponentItem()</text>
<text text-anchor="start" x="75.9976" y="-411.869" font-family="Monaco" font-size="10.00">+ modelComponent()</text>
<text text-anchor="start" x="75.9976" y="-398.534" font-family="Monaco" font-size="10.00">+ modelComponentId()</text>
<text text-anchor="start" x="75.9976" y="-385.199" font-family="Monaco" font-size="10.00">+ dimensions()</text>
</a>
</g>
</g>
<!-- Node3&#45;&gt;Node2 -->
<g id="edge2" class="edge"><title>Node3&#45;&gt;Node2</title>
<path fill="none" stroke="midnightblue" d="M129.926,-366.277C125.991,-357.474 121.858,-348.228 117.696,-338.917"/>
<polygon fill="none" stroke="midnightblue" points="126.835,-367.938 134.111,-375.639 133.225,-365.081 126.835,-367.938"/>
</g>
<!-- Node7 -->
<g id="node7" class="node"><title>Node7</title>
<g id="a_node7"><a xlink:href="class_hydro_couple_1_1_spatial_1_1_i_t_i_n_component_item.html" target="_top" xlink:title="ITINComponentItem represents ITIN IComponentItem. ">
<polygon fill="white" stroke="black" points="166,-181.515 166,-298.859 314.021,-298.859 314.021,-181.515 166,-181.515"/>
<text text-anchor="start" x="174" y="-286.859" font-family="Monaco" font-size="10.00">HydroCouple::Spatial</text>
<text text-anchor="middle" x="240.011" y="-273.524" font-family="Monaco" font-size="10.00">::ITINComponentItem</text>
<polyline fill="none" stroke="black" points="166,-264.189 314.021,-264.189 "/>
<text text-anchor="middle" x="240.011" y="-252.189" font-family="Monaco" font-size="10.00"> </text>
<polyline fill="none" stroke="black" points="166,-242.854 314.021,-242.854 "/>
<text text-anchor="start" x="174" y="-230.854" font-family="Monaco" font-size="10.00">+ ~ITINComponentItem()</text>
<text text-anchor="start" x="174" y="-217.52" font-family="Monaco" font-size="10.00">+ patchDimension()</text>
<text text-anchor="start" x="174" y="-204.185" font-family="Monaco" font-size="10.00">+ polyhedralSurface()</text>
<text text-anchor="start" x="174" y="-190.85" font-family="Monaco" font-size="10.00">+ geometry()</text>
</a>
</g>
</g>
<!-- Node3&#45;&gt;Node7 -->
<g id="edge7" class="edge"><title>Node3&#45;&gt;Node7</title>
<path fill="none" stroke="midnightblue" d="M184.105,-366.255C193.747,-344.684 204.574,-320.464 214.113,-299.124"/>
<polygon fill="none" stroke="midnightblue" points="180.796,-365.081 179.911,-375.639 187.187,-367.938 180.796,-365.081"/>
</g>
<!-- Node4 -->
<g id="node4" class="node"><title>Node4</title>
<g id="a_node4"><a xlink:href="class_hydro_couple_1_1_i_identity.html" target="_top" xlink:title="IIdentity interface class defines a method to get the Id of an HydroCouple entity. ">
<polygon fill="white" stroke="black" points="83,-516.874 83,-620.884 231.021,-620.884 231.021,-516.874 83,-516.874"/>
<text text-anchor="middle" x="157.011" y="-608.884" font-family="Monaco" font-size="10.00">HydroCouple::IIdentity</text>
<polyline fill="none" stroke="black" points="83,-599.549 231.021,-599.549 "/>
<text text-anchor="middle" x="157.011" y="-587.549" font-family="Monaco" font-size="10.00"> </text>
<polyline fill="none" stroke="black" points="83,-578.214 231.021,-578.214 "/>
<text text-anchor="start" x="91" y="-566.214" font-family="Monaco" font-size="10.00">+ ~IIdentity()</text>
<text text-anchor="start" x="91" y="-552.879" font-family="Monaco" font-size="10.00">+ MPI_Comm()</text>
<text text-anchor="start" x="91" y="-539.544" font-family="Monaco" font-size="10.00">+ MPI_Rank()</text>
<text text-anchor="start" x="91" y="-526.209" font-family="Monaco" font-size="10.00">+ id()</text>
</a>
</g>
</g>
<!-- Node4&#45;&gt;Node3 -->
<g id="edge3" class="edge"><title>Node4&#45;&gt;Node3</title>
<path fill="none" stroke="midnightblue" d="M157.011,-506.315C157.011,-497.533 157.011,-488.579 157.011,-480.025"/>
<polygon fill="none" stroke="midnightblue" points="153.511,-506.512 157.011,-516.512 160.511,-506.512 153.511,-506.512"/>
</g>
<!-- Node5 -->
<g id="node5" class="node"><title>Node5</title>
<g id="a_node5"><a xlink:href="class_hydro_couple_1_1_i_description.html" target="_top" xlink:title="IDescription interface class provides descriptive information on a HydroCouple object. ">
<polygon fill="white" stroke="black" points="73.9985,-657.884 73.9985,-775.229 240.023,-775.229 240.023,-657.884 73.9985,-657.884"/>
<text text-anchor="middle" x="157.011" y="-763.229" font-family="Monaco" font-size="10.00">HydroCouple::IDescription</text>
<polyline fill="none" stroke="black" points="73.9985,-753.894 240.023,-753.894 "/>
<text text-anchor="middle" x="157.011" y="-741.894" font-family="Monaco" font-size="10.00"> </text>
<polyline fill="none" stroke="black" points="73.9985,-732.559 240.023,-732.559 "/>
<text text-anchor="start" x="81.9985" y="-720.559" font-family="Monaco" font-size="10.00">+ ~IDescription()</text>
<text text-anchor="start" x="81.9985" y="-707.224" font-family="Monaco" font-size="10.00">+ getCaption()</text>
<text text-anchor="start" x="81.9985" y="-693.889" font-family="Monaco" font-size="10.00">+ setCaption()</text>
<text text-anchor="start" x="81.9985" y="-680.554" font-family="Monaco" font-size="10.00">+ getDescription()</text>
<text text-anchor="start" x="81.9985" y="-667.219" font-family="Monaco" font-size="10.00">+ setDescription()</text>
</a>
</g>
</g>
<!-- Node5&#45;&gt;Node4 -->
<g id="edge4" class="edge"><title>Node5&#45;&gt;Node4</title>
<path fill="none" stroke="midnightblue" d="M157.011,-647.283C157.011,-638.465 157.011,-629.557 157.011,-621.079"/>
<polygon fill="none" stroke="midnightblue" points="153.511,-647.562 157.011,-657.562 160.511,-647.562 153.511,-647.562"/>
</g>
<!-- Node6 -->
<g id="node6" class="node"><title>Node6</title>
<g id="a_node6"><a xlink:href="class_hydro_couple_1_1_i_property_changed.html" target="_top" xlink:title="IPropertyChanged interface is used to emit signal/event when a property of an object changes...">
<polygon fill="white" stroke="black" points="61.9966,-812.229 61.9966,-876.233 252.025,-876.233 252.025,-812.229 61.9966,-812.229"/>
<text text-anchor="middle" x="157.011" y="-864.233" font-family="Monaco" font-size="10.00">HydroCouple::IPropertyChanged</text>
<polyline fill="none" stroke="black" points="61.9966,-854.898 252.025,-854.898 "/>
<text text-anchor="middle" x="157.011" y="-842.898" font-family="Monaco" font-size="10.00"> </text>
<polyline fill="none" stroke="black" points="61.9966,-833.563 252.025,-833.563 "/>
<text text-anchor="start" x="69.9966" y="-821.563" font-family="Monaco" font-size="10.00">+ ~IPropertyChanged()</text>
</a>
</g>
</g>
<!-- Node6&#45;&gt;Node5 -->
<g id="edge5" class="edge"><title>Node6&#45;&gt;Node5</title>
<path fill="none" stroke="midnightblue" d="M157.011,-801.908C157.011,-793.523 157.011,-784.557 157.011,-775.715"/>
<polygon fill="none" stroke="midnightblue" points="153.511,-802.165 157.011,-812.165 160.511,-802.165 153.511,-802.165"/>
</g>
<!-- Node7&#45;&gt;Node1 -->
<g id="edge6" class="edge"><title>Node7&#45;&gt;Node1</title>
<path fill="none" stroke="midnightblue" d="M210.008,-172.068C200.065,-149.822 189.165,-125.438 179.85,-104.598"/>
<polygon fill="none" stroke="midnightblue" points="206.928,-173.753 214.204,-181.454 213.318,-170.896 206.928,-173.753"/>
</g>
</g>
</svg>
