<?xml version="1.0" encoding="UTF-8" standalone="no"?>
<!DOCTYPE svg PUBLIC "-//W3C//DTD SVG 1.1//EN"
 "http://www.w3.org/Graphics/SVG/1.1/DTD/svg11.dtd">
<!-- Generated by graphviz version 2.38.0 (20140413.2041)
 -->
<!-- Title: HydroCouple::Temporal::ITimeIdBasedComponentDataItem Pages: 1 -->
<svg width="382pt" height="1052pt"
 viewBox="0.00 0.00 382.03 1052.41" xmlns="http://www.w3.org/2000/svg" xmlns:xlink="http://www.w3.org/1999/xlink">
<g id="graph0" class="graph" transform="scale(1 1) rotate(0) translate(4 1048.41)">
<title>HydroCouple::Temporal::ITimeIdBasedComponentDataItem</title>
<!-- Node1 -->
<g id="node1" class="node"><title>Node1</title>
<polygon fill="#bfbfbf" stroke="black" points="70.9956,-114.84 70.9956,-298.859 291.029,-298.859 291.029,-114.84 70.9956,-114.84"/>
<text text-anchor="start" x="78.9956" y="-286.859" font-family="Monaco" font-size="10.00">HydroCouple::Temporal</text>
<text text-anchor="middle" x="181.012" y="-273.524" font-family="Monaco" font-size="10.00">::ITimeIdBasedComponentDataItem</text>
<polyline fill="none" stroke="black" points="70.9956,-264.189 291.029,-264.189 "/>
<text text-anchor="middle" x="181.012" y="-252.189" font-family="Monaco" font-size="10.00"> </text>
<polyline fill="none" stroke="black" points="70.9956,-242.854 291.029,-242.854 "/>
<text text-anchor="start" x="78.9956" y="-230.854" font-family="Monaco" font-size="10.00">+ ~ITimeIdBasedComponentDataItem()</text>
<text text-anchor="start" x="78.9956" y="-217.52" font-family="Monaco" font-size="10.00">+ identifiers()</text>
<text text-anchor="start" x="78.9956" y="-204.185" font-family="Monaco" font-size="10.00">+ identifierDimension()</text>
<text text-anchor="start" x="78.9956" y="-190.85" font-family="Monaco" font-size="10.00">+ getValue()</text>
<text text-anchor="start" x="78.9956" y="-177.515" font-family="Monaco" font-size="10.00">+ getValues()</text>
<text text-anchor="start" x="78.9956" y="-164.18" font-family="Monaco" font-size="10.00">+ getValues()</text>
<text text-anchor="start" x="78.9956" y="-150.845" font-family="Monaco" font-size="10.00">+ setValue()</text>
<text text-anchor="start" x="78.9956" y="-137.51" font-family="Monaco" font-size="10.00">+ setValues()</text>
<text text-anchor="start" x="78.9956" y="-124.175" font-family="Monaco" font-size="10.00">+ setValues()</text>
</g>
<!-- Node7 -->
<g id="node7" class="node"><title>Node7</title>
<g id="a_node7"><a xlink:href="class_hydro_couple_1_1_temporal_1_1_i_time_id_based_argument.html" target="_top" xlink:title="The IIdBasedTimeExchangeItem class. ">
<polygon fill="none" stroke="black" points="0,-0.5 0,-77.8398 166.024,-77.8398 166.024,-0.5 0,-0.5"/>
<text text-anchor="start" x="8" y="-65.8398" font-family="Monaco" font-size="10.00">HydroCouple::Temporal</text>
<text text-anchor="middle" x="83.0122" y="-52.5049" font-family="Monaco" font-size="10.00">::ITimeIdBasedArgument</text>
<polyline fill="none" stroke="black" points="0,-43.1699 166.024,-43.1699 "/>
<text text-anchor="middle" x="83.0122" y="-31.1699" font-family="Monaco" font-size="10.00"> </text>
<polyline fill="none" stroke="black" points="0,-21.835 166.024,-21.835 "/>
<text text-anchor="start" x="8" y="-9.83496" font-family="Monaco" font-size="10.00">+ ~ITimeIdBasedArgument()</text>
</a>
</g>
</g>
<!-- Node1&#45;&gt;Node7 -->
<g id="edge6" class="edge"><title>Node1&#45;&gt;Node7</title>
<path fill="none" stroke="midnightblue" d="M121.972,-106.036C116.142,-96.1788 110.509,-86.6563 105.424,-78.0601"/>
<polygon fill="none" stroke="midnightblue" points="119.035,-107.945 127.139,-114.77 125.06,-104.381 119.035,-107.945"/>
</g>
<!-- Node8 -->
<g id="node8" class="node"><title>Node8</title>
<g id="a_node8"><a xlink:href="class_hydro_couple_1_1_temporal_1_1_i_time_id_based_exchange_item.html" target="_top" xlink:title="The IIdBasedTimeExchangeItem class. ">
<polygon fill="none" stroke="black" points="183.998,-0.5 183.998,-77.8398 374.026,-77.8398 374.026,-0.5 183.998,-0.5"/>
<text text-anchor="start" x="191.998" y="-65.8398" font-family="Monaco" font-size="10.00">HydroCouple::Temporal</text>
<text text-anchor="middle" x="279.012" y="-52.5049" font-family="Monaco" font-size="10.00">::ITimeIdBasedExchangeItem</text>
<polyline fill="none" stroke="black" points="183.998,-43.1699 374.026,-43.1699 "/>
<text text-anchor="middle" x="279.012" y="-31.1699" font-family="Monaco" font-size="10.00"> </text>
<polyline fill="none" stroke="black" points="183.998,-21.835 374.026,-21.835 "/>
<text text-anchor="start" x="191.998" y="-9.83496" font-family="Monaco" font-size="10.00">+ ~ITimeIdBasedExchangeItem()</text>
</a>
</g>
</g>
<!-- Node1&#45;&gt;Node8 -->
<g id="edge7" class="edge"><title>Node1&#45;&gt;Node8</title>
<path fill="none" stroke="midnightblue" d="M240.052,-106.036C245.883,-96.1788 251.515,-86.6563 256.6,-78.0601"/>
<polygon fill="none" stroke="midnightblue" points="236.965,-104.381 234.886,-114.77 242.989,-107.945 236.965,-104.381"/>
</g>
<!-- Node2 -->
<g id="node2" class="node"><title>Node2</title>
<g id="a_node2"><a xlink:href="class_hydro_couple_1_1_temporal_1_1_i_time_component_data_item.html" target="_top" xlink:title="ITimeComponentItem is an IComponentItem with a temporal attribute. This class cannot be directly inst...">
<polygon fill="none" stroke="black" points="91.999,-335.859 91.999,-453.204 270.025,-453.204 270.025,-335.859 91.999,-335.859"/>
<text text-anchor="start" x="99.999" y="-441.204" font-family="Monaco" font-size="10.00">HydroCouple::Temporal</text>
<text text-anchor="middle" x="181.012" y="-427.869" font-family="Monaco" font-size="10.00">::ITimeComponentDataItem</text>
<polyline fill="none" stroke="black" points="91.999,-418.534 270.025,-418.534 "/>
<text text-anchor="middle" x="181.012" y="-406.534" font-family="Monaco" font-size="10.00"> </text>
<polyline fill="none" stroke="black" points="91.999,-397.199 270.025,-397.199 "/>
<text text-anchor="start" x="99.999" y="-385.199" font-family="Monaco" font-size="10.00">+ ~ITimeComponentDataItem()</text>
<text text-anchor="start" x="99.999" y="-371.864" font-family="Monaco" font-size="10.00">+ times()</text>
<text text-anchor="start" x="99.999" y="-358.529" font-family="Monaco" font-size="10.00">+ timeSpan()</text>
<text text-anchor="start" x="99.999" y="-345.194" font-family="Monaco" font-size="10.00">+ timeDimension()</text>
</a>
</g>
</g>
<!-- Node2&#45;&gt;Node1 -->
<g id="edge1" class="edge"><title>Node2&#45;&gt;Node1</title>
<path fill="none" stroke="midnightblue" d="M181.012,-325.731C181.012,-317.013 181.012,-307.976 181.012,-298.961"/>
<polygon fill="none" stroke="midnightblue" points="177.512,-325.799 181.012,-335.799 184.512,-325.799 177.512,-325.799"/>
</g>
<!-- Node3 -->
<g id="node3" class="node"><title>Node3</title>
<g id="a_node3"><a xlink:href="class_hydro_couple_1_1_i_component_data_item.html" target="_top" xlink:title="IComponentItem is a fundamental unit of data for a component. ">
<polygon fill="none" stroke="black" points="79.9971,-490.204 79.9971,-674.224 282.027,-674.224 282.027,-490.204 79.9971,-490.204"/>
<text text-anchor="middle" x="181.012" y="-662.224" font-family="Monaco" font-size="10.00">HydroCouple::IComponentDataItem</text>
<polyline fill="none" stroke="black" points="79.9971,-652.889 282.027,-652.889 "/>
<text text-anchor="middle" x="181.012" y="-640.889" font-family="Monaco" font-size="10.00"> </text>
<polyline fill="none" stroke="black" points="79.9971,-631.554 282.027,-631.554 "/>
<text text-anchor="start" x="87.9971" y="-619.554" font-family="Monaco" font-size="10.00">+ ~IComponentDataItem()</text>
<text text-anchor="start" x="87.9971" y="-606.219" font-family="Monaco" font-size="10.00">+ modelComponent()</text>
<text text-anchor="start" x="87.9971" y="-592.884" font-family="Monaco" font-size="10.00">+ dimensions()</text>
<text text-anchor="start" x="87.9971" y="-579.549" font-family="Monaco" font-size="10.00">+ valueDefinition()</text>
<text text-anchor="start" x="87.9971" y="-566.214" font-family="Monaco" font-size="10.00">+ getValue()</text>
<text text-anchor="start" x="87.9971" y="-552.879" font-family="Monaco" font-size="10.00">+ getValues()</text>
<text text-anchor="start" x="87.9971" y="-539.544" font-family="Monaco" font-size="10.00">+ getValues()</text>
<text text-anchor="start" x="87.9971" y="-526.209" font-family="Monaco" font-size="10.00">+ setValue()</text>
<text text-anchor="start" x="87.9971" y="-512.874" font-family="Monaco" font-size="10.00">+ setValues()</text>
<text text-anchor="start" x="87.9971" y="-499.539" font-family="Monaco" font-size="10.00">+ setValues()</text>
</a>
</g>
</g>
<!-- Node3&#45;&gt;Node2 -->
<g id="edge2" class="edge"><title>Node3&#45;&gt;Node2</title>
<path fill="none" stroke="midnightblue" d="M181.012,-479.782C181.012,-470.753 181.012,-461.833 181.012,-453.368"/>
<polygon fill="none" stroke="midnightblue" points="177.512,-480.005 181.012,-490.005 184.512,-480.005 177.512,-480.005"/>
</g>
<!-- Node4 -->
<g id="node4" class="node"><title>Node4</title>
<g id="a_node4"><a xlink:href="class_hydro_couple_1_1_i_identity.html" target="_top" xlink:title="IIdentity interface class defines a method to get the Id of an HydroCouple entity. ">
<polygon fill="none" stroke="black" points="107.001,-711.224 107.001,-788.563 255.023,-788.563 255.023,-711.224 107.001,-711.224"/>
<text text-anchor="middle" x="181.012" y="-776.563" font-family="Monaco" font-size="10.00">HydroCouple::IIdentity</text>
<polyline fill="none" stroke="black" points="107.001,-767.229 255.023,-767.229 "/>
<text text-anchor="middle" x="181.012" y="-755.229" font-family="Monaco" font-size="10.00"> </text>
<polyline fill="none" stroke="black" points="107.001,-745.894 255.023,-745.894 "/>
<text text-anchor="start" x="115.001" y="-733.894" font-family="Monaco" font-size="10.00">+ ~IIdentity()</text>
<text text-anchor="start" x="115.001" y="-720.559" font-family="Monaco" font-size="10.00">+ id()</text>
</a>
</g>
</g>
<!-- Node4&#45;&gt;Node3 -->
<g id="edge3" class="edge"><title>Node4&#45;&gt;Node3</title>
<path fill="none" stroke="midnightblue" d="M181.012,-700.641C181.012,-692.288 181.012,-683.363 181.012,-674.305"/>
<polygon fill="none" stroke="midnightblue" points="177.512,-700.883 181.012,-710.883 184.512,-700.883 177.512,-700.883"/>
</g>
<!-- Node5 -->
<g id="node5" class="node"><title>Node5</title>
<g id="a_node5"><a xlink:href="class_hydro_couple_1_1_i_description.html" target="_top" xlink:title="IDescription interface class provides descriptive information on a HydroCouple object. ">
<polygon fill="none" stroke="black" points="98,-825.563 98,-942.908 264.024,-942.908 264.024,-825.563 98,-825.563"/>
<text text-anchor="middle" x="181.012" y="-930.908" font-family="Monaco" font-size="10.00">HydroCouple::IDescription</text>
<polyline fill="none" stroke="black" points="98,-921.573 264.024,-921.573 "/>
<text text-anchor="middle" x="181.012" y="-909.573" font-family="Monaco" font-size="10.00"> </text>
<polyline fill="none" stroke="black" points="98,-900.238 264.024,-900.238 "/>
<text text-anchor="start" x="106" y="-888.238" font-family="Monaco" font-size="10.00">+ ~IDescription()</text>
<text text-anchor="start" x="106" y="-874.903" font-family="Monaco" font-size="10.00">+ caption()</text>
<text text-anchor="start" x="106" y="-861.568" font-family="Monaco" font-size="10.00">+ setCaption()</text>
<text text-anchor="start" x="106" y="-848.233" font-family="Monaco" font-size="10.00">+ description()</text>
<text text-anchor="start" x="106" y="-834.898" font-family="Monaco" font-size="10.00">+ setDescription()</text>
</a>
</g>
</g>
<!-- Node5&#45;&gt;Node4 -->
<g id="edge4" class="edge"><title>Node5&#45;&gt;Node4</title>
<path fill="none" stroke="midnightblue" d="M181.012,-814.998C181.012,-805.959 181.012,-796.971 181.012,-788.711"/>
<polygon fill="none" stroke="midnightblue" points="177.512,-815.189 181.012,-825.189 184.512,-815.189 177.512,-815.189"/>
</g>
<!-- Node6 -->
<g id="node6" class="node"><title>Node6</title>
<g id="a_node6"><a xlink:href="class_hydro_couple_1_1_i_property_changed.html" target="_top" xlink:title="IPropertyChanged interface is used to emit signal/event when a property of an object changes...">
<polygon fill="none" stroke="black" points="85.998,-979.908 85.998,-1043.91 276.026,-1043.91 276.026,-979.908 85.998,-979.908"/>
<text text-anchor="middle" x="181.012" y="-1031.91" font-family="Monaco" font-size="10.00">HydroCouple::IPropertyChanged</text>
<polyline fill="none" stroke="black" points="85.998,-1022.58 276.026,-1022.58 "/>
<text text-anchor="middle" x="181.012" y="-1010.58" font-family="Monaco" font-size="10.00"> </text>
<polyline fill="none" stroke="black" points="85.998,-1001.24 276.026,-1001.24 "/>
<text text-anchor="start" x="93.998" y="-989.243" font-family="Monaco" font-size="10.00">+ ~IPropertyChanged()</text>
</a>
</g>
</g>
<!-- Node6&#45;&gt;Node5 -->
<g id="edge5" class="edge"><title>Node6&#45;&gt;Node5</title>
<path fill="none" stroke="midnightblue" d="M181.012,-969.588C181.012,-961.203 181.012,-952.236 181.012,-943.394"/>
<polygon fill="none" stroke="midnightblue" points="177.512,-969.845 181.012,-979.845 184.512,-969.845 177.512,-969.845"/>
</g>
</g>
</svg>
