<?xml version="1.0" encoding="UTF-8" standalone="no"?>
<!DOCTYPE svg PUBLIC "-//W3C//DTD SVG 1.1//EN"
 "http://www.w3.org/Graphics/SVG/1.1/DTD/svg11.dtd">
<!-- Generated by graphviz version 2.38.0 (20140413.2041)
 -->
<!-- Title: HydroCouple::Spatial::IRasterArgument Pages: 1 -->
<!--zoomable 831 -->
<svg id="main" version="1.1" xmlns="http://www.w3.org/2000/svg" xmlns:xlink="http://www.w3.org/1999/xlink" xml:space="preserve" onload="init(evt)">
<style type="text/css"><![CDATA[
.edge:hover path { stroke: red; }
.edge:hover polygon { stroke: red; fill: red; }
]]></style>
<script type="text/javascript"><![CDATA[
var edges = document.getElementsByTagName('g');
if (edges && edges.length) {
  for (var i=0;i<edges.length;i++) {
    if (edges[i].id.substr(0,4)=='edge') {
      edges[i].setAttribute('class','edge');
    }
  }
}
]]></script>
        <defs>
                <circle id="rim" cx="0" cy="0" r="7"/>
                <circle id="rim2" cx="0" cy="0" r="3.5"/>
                <g id="zoomPlus">
                        <use xlink:href="#rim" fill="#404040">
                                <set attributeName="fill" to="#808080" begin="zoomplus.mouseover" end="zoomplus.mouseout"/>
                        </use>
                        <path d="M-4,0h8M0,-4v8" fill="none" stroke="white" stroke-width="1.5" pointer-events="none"/>
                </g>
                <g id="zoomMin">
                        <use xlink:href="#rim" fill="#404040">
                                <set attributeName="fill" to="#808080" begin="zoomminus.mouseover" end="zoomminus.mouseout"/>
                        </use>
                        <path d="M-4,0h8" fill="none" stroke="white" stroke-width="1.5" pointer-events="none"/>
                </g>
                <g id="dirArrow">
                        <path fill="none" stroke="white" stroke-width="1.5" d="M0,-3.0v7 M-2.5,-0.5L0,-3.0L2.5,-0.5"/>
                </g>
               <g id="resetDef">
                       <use xlink:href="#rim2" fill="#404040">
                               <set attributeName="fill" to="#808080" begin="reset.mouseover" end="reset.mouseout"/>
                       </use>
               </g>
        </defs>

<script type="text/javascript">
var viewWidth = 340;
var viewHeight = 831;
var sectionId = 'dynsection-1';
</script>
<script xlink:href="svgpan.js"/>
<svg id="graph" class="graph">
<g id="viewport">
<title>HydroCouple::Spatial::IRasterArgument</title>
<polygon fill="white" stroke="none" points="-4,4 -4,-827.394 336.023,-827.394 336.023,4 -4,4"/>
<!-- Node1 -->
<g id="node1" class="node"><title>Node1</title>
<polygon fill="#bfbfbf" stroke="black" points="93.001,-0.5 93.001,-91.1748 229.021,-91.1748 229.021,-0.5 93.001,-0.5"/>
<text text-anchor="start" x="101.001" y="-79.1748" font-family="Monaco" font-size="10.00">HydroCouple::Spatial</text>
<text text-anchor="middle" x="161.011" y="-65.8398" font-family="Monaco" font-size="10.00">::IRasterArgument</text>
<polyline fill="none" stroke="black" points="93.001,-56.5049 229.021,-56.5049 "/>
<text text-anchor="middle" x="161.011" y="-44.5049" font-family="Monaco" font-size="10.00"> </text>
<polyline fill="none" stroke="black" points="93.001,-35.1699 229.021,-35.1699 "/>
<text text-anchor="start" x="101.001" y="-23.1699" font-family="Monaco" font-size="10.00">+ ~IRasterArgument()</text>
<text text-anchor="start" x="101.001" y="-9.83496" font-family="Monaco" font-size="10.00">+ setRaster()</text>
</g>
<!-- Node2 -->
<g id="node2" class="node"><title>Node2</title>
<g id="a_node2"><a xlink:href="class_hydro_couple_1_1_i_argument.html" target="_top" xlink:title="IArgument interface class used to set the arguments for components. They can be complex or simple mul...">
<polygon fill="white" stroke="black" points="0,-128.175 0,-325.529 148.021,-325.529 148.021,-128.175 0,-128.175"/>
<text text-anchor="middle" x="74.0107" y="-313.529" font-family="Monaco" font-size="10.00">HydroCouple::IArgument</text>
<polyline fill="none" stroke="black" points="0,-304.194 148.021,-304.194 "/>
<text text-anchor="middle" x="74.0107" y="-292.194" font-family="Monaco" font-size="10.00"> </text>
<polyline fill="none" stroke="black" points="0,-282.859 148.021,-282.859 "/>
<text text-anchor="start" x="8" y="-270.859" font-family="Monaco" font-size="10.00">+ ~IArgument()</text>
<text text-anchor="start" x="8" y="-257.524" font-family="Monaco" font-size="10.00">+ isOptional()</text>
<text text-anchor="start" x="8" y="-244.189" font-family="Monaco" font-size="10.00">+ isReadOnly()</text>
<text text-anchor="start" x="8" y="-230.854" font-family="Monaco" font-size="10.00">+ clone()</text>
<text text-anchor="start" x="8" y="-217.52" font-family="Monaco" font-size="10.00">+ valueSets()</text>
<text text-anchor="start" x="8" y="-204.185" font-family="Monaco" font-size="10.00">+ toString()</text>
<text text-anchor="start" x="8" y="-190.85" font-family="Monaco" font-size="10.00">+ fileExtensions()</text>
<text text-anchor="start" x="8" y="-177.515" font-family="Monaco" font-size="10.00">+ canReadFromFile()</text>
<text text-anchor="start" x="8" y="-164.18" font-family="Monaco" font-size="10.00">+ canReadFromString()</text>
<text text-anchor="start" x="8" y="-150.845" font-family="Monaco" font-size="10.00">+ readValues()</text>
<text text-anchor="start" x="8" y="-137.51" font-family="Monaco" font-size="10.00">+ readValues()</text>
</a>
</g>
</g>
<!-- Node2&#45;&gt;Node1 -->
<g id="edge1" class="edge"><title>Node2&#45;&gt;Node1</title>
<path fill="none" stroke="midnightblue" d="M126.053,-118.767C130.68,-109.248 135.172,-100.004 139.309,-91.491"/>
<polygon fill="none" stroke="midnightblue" points="122.807,-117.44 121.584,-127.964 129.103,-120.5 122.807,-117.44"/>
</g>
<!-- Node3 -->
<g id="node3" class="node"><title>Node3</title>
<g id="a_node3"><a xlink:href="class_hydro_couple_1_1_i_component_item.html" target="_top" xlink:title="IComponentItem is a fundamental unit of data for a component. ">
<polygon fill="white" stroke="black" points="71.9976,-362.529 71.9976,-453.204 250.024,-453.204 250.024,-362.529 71.9976,-362.529"/>
<text text-anchor="middle" x="161.011" y="-441.204" font-family="Monaco" font-size="10.00">HydroCouple::IComponentItem</text>
<polyline fill="none" stroke="black" points="71.9976,-431.869 250.024,-431.869 "/>
<text text-anchor="middle" x="161.011" y="-419.869" font-family="Monaco" font-size="10.00"> </text>
<polyline fill="none" stroke="black" points="71.9976,-410.534 250.024,-410.534 "/>
<text text-anchor="start" x="79.9976" y="-398.534" font-family="Monaco" font-size="10.00">+ ~IComponentItem()</text>
<text text-anchor="start" x="79.9976" y="-385.199" font-family="Monaco" font-size="10.00">+ modelComponent()</text>
<text text-anchor="start" x="79.9976" y="-371.864" font-family="Monaco" font-size="10.00">+ dimensions()</text>
</a>
</g>
</g>
<!-- Node3&#45;&gt;Node2 -->
<g id="edge2" class="edge"><title>Node3&#45;&gt;Node2</title>
<path fill="none" stroke="midnightblue" d="M134.83,-352.996C130.626,-344.345 126.163,-335.163 121.641,-325.858"/>
<polygon fill="none" stroke="midnightblue" points="131.762,-354.691 139.281,-362.156 138.058,-351.632 131.762,-354.691"/>
</g>
<!-- Node7 -->
<g id="node7" class="node"><title>Node7</title>
<g id="a_node7"><a xlink:href="class_hydro_couple_1_1_spatial_1_1_i_raster_component_item.html" target="_top" xlink:title="An IRasterComponentItem represents an IRaster IComponentItem. ">
<polygon fill="white" stroke="black" points="165.999,-154.845 165.999,-298.859 332.023,-298.859 332.023,-154.845 165.999,-154.845"/>
<text text-anchor="start" x="173.999" y="-286.859" font-family="Monaco" font-size="10.00">HydroCouple::Spatial</text>
<text text-anchor="middle" x="249.011" y="-273.524" font-family="Monaco" font-size="10.00">::IRasterComponentItem</text>
<polyline fill="none" stroke="black" points="165.999,-264.189 332.023,-264.189 "/>
<text text-anchor="middle" x="249.011" y="-252.189" font-family="Monaco" font-size="10.00"> </text>
<polyline fill="none" stroke="black" points="165.999,-242.854 332.023,-242.854 "/>
<text text-anchor="start" x="173.999" y="-230.854" font-family="Monaco" font-size="10.00">+ ~IRasterComponentItem()</text>
<text text-anchor="start" x="173.999" y="-217.52" font-family="Monaco" font-size="10.00">+ rasterDimension()</text>
<text text-anchor="start" x="173.999" y="-204.185" font-family="Monaco" font-size="10.00">+ xDimension()</text>
<text text-anchor="start" x="173.999" y="-190.85" font-family="Monaco" font-size="10.00">+ yDimension()</text>
<text text-anchor="start" x="173.999" y="-177.515" font-family="Monaco" font-size="10.00">+ bandDimension()</text>
<text text-anchor="start" x="173.999" y="-164.18" font-family="Monaco" font-size="10.00">+ raster()</text>
</a>
</g>
</g>
<!-- Node3&#45;&gt;Node7 -->
<g id="edge7" class="edge"><title>Node3&#45;&gt;Node7</title>
<path fill="none" stroke="midnightblue" d="M187.503,-352.976C195.828,-336.04 205.152,-317.072 213.974,-299.126"/>
<polygon fill="none" stroke="midnightblue" points="184.26,-351.637 182.99,-362.156 190.543,-354.725 184.26,-351.637"/>
</g>
<!-- Node4 -->
<g id="node4" class="node"><title>Node4</title>
<g id="a_node4"><a xlink:href="class_hydro_couple_1_1_i_identity.html" target="_top" xlink:title="IIdentity interface class defines a method to get the Id of an HydroCouple entity. ">
<polygon fill="white" stroke="black" points="87,-490.204 87,-567.544 235.021,-567.544 235.021,-490.204 87,-490.204"/>
<text text-anchor="middle" x="161.011" y="-555.544" font-family="Monaco" font-size="10.00">HydroCouple::IIdentity</text>
<polyline fill="none" stroke="black" points="87,-546.209 235.021,-546.209 "/>
<text text-anchor="middle" x="161.011" y="-534.209" font-family="Monaco" font-size="10.00"> </text>
<polyline fill="none" stroke="black" points="87,-524.874 235.021,-524.874 "/>
<text text-anchor="start" x="95" y="-512.874" font-family="Monaco" font-size="10.00">+ ~IIdentity()</text>
<text text-anchor="start" x="95" y="-499.539" font-family="Monaco" font-size="10.00">+ id()</text>
</a>
</g>
</g>
<!-- Node4&#45;&gt;Node3 -->
<g id="edge3" class="edge"><title>Node4&#45;&gt;Node3</title>
<path fill="none" stroke="midnightblue" d="M161.011,-479.884C161.011,-471.186 161.011,-462.146 161.011,-453.547"/>
<polygon fill="none" stroke="midnightblue" points="157.511,-479.892 161.011,-489.892 164.511,-479.892 157.511,-479.892"/>
</g>
<!-- Node5 -->
<g id="node5" class="node"><title>Node5</title>
<g id="a_node5"><a xlink:href="class_hydro_couple_1_1_i_description.html" target="_top" xlink:title="IDescription interface class provides descriptive information on a HydroCouple object. ">
<polygon fill="white" stroke="black" points="77.9985,-604.544 77.9985,-721.889 244.023,-721.889 244.023,-604.544 77.9985,-604.544"/>
<text text-anchor="middle" x="161.011" y="-709.889" font-family="Monaco" font-size="10.00">HydroCouple::IDescription</text>
<polyline fill="none" stroke="black" points="77.9985,-700.554 244.023,-700.554 "/>
<text text-anchor="middle" x="161.011" y="-688.554" font-family="Monaco" font-size="10.00"> </text>
<polyline fill="none" stroke="black" points="77.9985,-679.219 244.023,-679.219 "/>
<text text-anchor="start" x="85.9985" y="-667.219" font-family="Monaco" font-size="10.00">+ ~IDescription()</text>
<text text-anchor="start" x="85.9985" y="-653.884" font-family="Monaco" font-size="10.00">+ getCaption()</text>
<text text-anchor="start" x="85.9985" y="-640.549" font-family="Monaco" font-size="10.00">+ setCaption()</text>
<text text-anchor="start" x="85.9985" y="-627.214" font-family="Monaco" font-size="10.00">+ getDescription()</text>
<text text-anchor="start" x="85.9985" y="-613.879" font-family="Monaco" font-size="10.00">+ setDescription()</text>
</a>
</g>
</g>
<!-- Node5&#45;&gt;Node4 -->
<g id="edge4" class="edge"><title>Node5&#45;&gt;Node4</title>
<path fill="none" stroke="midnightblue" d="M161.011,-593.978C161.011,-584.939 161.011,-575.952 161.011,-567.691"/>
<polygon fill="none" stroke="midnightblue" points="157.511,-594.169 161.011,-604.169 164.511,-594.169 157.511,-594.169"/>
</g>
<!-- Node6 -->
<g id="node6" class="node"><title>Node6</title>
<g id="a_node6"><a xlink:href="class_hydro_couple_1_1_i_property_changed.html" target="_top" xlink:title="IPropertyChanged interface is used to emit signal/event when a property of an object changes...">
<polygon fill="white" stroke="black" points="65.9966,-758.889 65.9966,-822.894 256.025,-822.894 256.025,-758.889 65.9966,-758.889"/>
<text text-anchor="middle" x="161.011" y="-810.894" font-family="Monaco" font-size="10.00">HydroCouple::IPropertyChanged</text>
<polyline fill="none" stroke="black" points="65.9966,-801.559 256.025,-801.559 "/>
<text text-anchor="middle" x="161.011" y="-789.559" font-family="Monaco" font-size="10.00"> </text>
<polyline fill="none" stroke="black" points="65.9966,-780.224 256.025,-780.224 "/>
<text text-anchor="start" x="73.9966" y="-768.224" font-family="Monaco" font-size="10.00">+ ~IPropertyChanged()</text>
</a>
</g>
</g>
<!-- Node6&#45;&gt;Node5 -->
<g id="edge5" class="edge"><title>Node6&#45;&gt;Node5</title>
<path fill="none" stroke="midnightblue" d="M161.011,-748.568C161.011,-740.183 161.011,-731.217 161.011,-722.375"/>
<polygon fill="none" stroke="midnightblue" points="157.511,-748.825 161.011,-758.825 164.511,-748.825 157.511,-748.825"/>
</g>
<!-- Node7&#45;&gt;Node1 -->
<g id="edge6" class="edge"><title>Node7&#45;&gt;Node1</title>
<path fill="none" stroke="midnightblue" d="M209.615,-145.71C200.409,-126.984 190.932,-107.706 182.819,-91.2014"/>
<polygon fill="none" stroke="midnightblue" points="206.552,-147.413 214.104,-154.844 212.834,-144.325 206.552,-147.413"/>
</g>
</g>
</svg>
        <g id="navigator" transform="translate(0 0)" fill="#404254">
                <rect fill="#f2f5e9" fill-opacity="0.5" stroke="#606060" stroke-width=".5" x="0" y="0" width="60" height="60"/>
                <use id="zoomplus" xlink:href="#zoomPlus" x="17" y="9" onmousedown="handleZoom(evt,'in')"/>
                <use id="zoomminus" xlink:href="#zoomMin" x="42" y="9" onmousedown="handleZoom(evt,'out')"/>
                <use id="reset" xlink:href="#resetDef" x="30" y="36" onmousedown="handleReset()"/>
                <g id="arrowUp" xlink:href="#dirArrow" transform="translate(30 24)" onmousedown="handlePan(0,-1)">
                  <use xlink:href="#rim" fill="#404040">
                        <set attributeName="fill" to="#808080" begin="arrowUp.mouseover" end="arrowUp.mouseout"/>
                  </use>
                  <path fill="none" stroke="white" stroke-width="1.5" d="M0,-3.0v7 M-2.5,-0.5L0,-3.0L2.5,-0.5"/>
                </g>
                <g id="arrowRight" xlink:href="#dirArrow" transform="rotate(90) translate(36 -43)" onmousedown="handlePan(1,0)">
                  <use xlink:href="#rim" fill="#404040">
                        <set attributeName="fill" to="#808080" begin="arrowRight.mouseover" end="arrowRight.mouseout"/>
                  </use>
                  <path fill="none" stroke="white" stroke-width="1.5" d="M0,-3.0v7 M-2.5,-0.5L0,-3.0L2.5,-0.5"/>
                </g>
                <g id="arrowDown" xlink:href="#dirArrow" transform="rotate(180) translate(-30 -48)" onmousedown="handlePan(0,1)">
                  <use xlink:href="#rim" fill="#404040">
                        <set attributeName="fill" to="#808080" begin="arrowDown.mouseover" end="arrowDown.mouseout"/>
                  </use>
                  <path fill="none" stroke="white" stroke-width="1.5" d="M0,-3.0v7 M-2.5,-0.5L0,-3.0L2.5,-0.5"/>
                </g>
                <g id="arrowLeft" xlink:href="#dirArrow" transform="rotate(270) translate(-36 17)" onmousedown="handlePan(-1,0)">
                  <use xlink:href="#rim" fill="#404040">
                        <set attributeName="fill" to="#808080" begin="arrowLeft.mouseover" end="arrowLeft.mouseout"/>
                  </use>
                  <path fill="none" stroke="white" stroke-width="1.5" d="M0,-3.0v7 M-2.5,-0.5L0,-3.0L2.5,-0.5"/>
                </g>
        </g>
        <svg viewBox="0 0 15 15" width="100%" height="30px" preserveAspectRatio="xMaxYMin meet">
         <g id="arrow_out" transform="scale(0.3 0.3)">
          <a xlink:href="class_hydro_couple_1_1_spatial_1_1_i_raster_argument__coll__graph_org.svg" target="_base">
           <rect id="button" ry="5" rx="5" y="6" x="6" height="38" width="38"
                fill="#f2f5e9" fill-opacity="0.5" stroke="#606060" stroke-width="1.0"/>
           <path id="arrow"
             d="M 11.500037,31.436501 C 11.940474,20.09759 22.043105,11.32322 32.158766,21.979434 L 37.068811,17.246167 C 37.068811,17.246167 37.088388,32 37.088388,32 L 22.160133,31.978069 C 22.160133,31.978069 26.997745,27.140456 26.997745,27.140456 C 18.528582,18.264221 13.291696,25.230495 11.500037,31.436501 z"
             style="fill:#404040;"/>
          </a>
         </g>
        </svg>
</svg>
