<?xml version="1.0" encoding="UTF-8" standalone="no"?>
<!DOCTYPE svg PUBLIC "-//W3C//DTD SVG 1.1//EN"
 "http://www.w3.org/Graphics/SVG/1.1/DTD/svg11.dtd">
<!-- Generated by graphviz version 2.38.0 (20140413.2041)
 -->
<!-- Title: HydroCouple::IArgument Pages: 1 -->
<!--zoomable 704 -->
<svg id="main" version="1.1" xmlns="http://www.w3.org/2000/svg" xmlns:xlink="http://www.w3.org/1999/xlink" xml:space="preserve" onload="init(evt)">
<style type="text/css"><![CDATA[
.edge:hover path { stroke: red; }
.edge:hover polygon { stroke: red; fill: red; }
]]></style>
<script type="text/javascript"><![CDATA[
var edges = document.getElementsByTagName('g');
if (edges && edges.length) {
  for (var i=0;i<edges.length;i++) {
    if (edges[i].id.substr(0,4)=='edge') {
      edges[i].setAttribute('class','edge');
    }
  }
}
]]></script>
        <defs>
                <circle id="rim" cx="0" cy="0" r="7"/>
                <circle id="rim2" cx="0" cy="0" r="3.5"/>
                <g id="zoomPlus">
                        <use xlink:href="#rim" fill="#404040">
                                <set attributeName="fill" to="#808080" begin="zoomplus.mouseover" end="zoomplus.mouseout"/>
                        </use>
                        <path d="M-4,0h8M0,-4v8" fill="none" stroke="white" stroke-width="1.5" pointer-events="none"/>
                </g>
                <g id="zoomMin">
                        <use xlink:href="#rim" fill="#404040">
                                <set attributeName="fill" to="#808080" begin="zoomminus.mouseover" end="zoomminus.mouseout"/>
                        </use>
                        <path d="M-4,0h8" fill="none" stroke="white" stroke-width="1.5" pointer-events="none"/>
                </g>
                <g id="dirArrow">
                        <path fill="none" stroke="white" stroke-width="1.5" d="M0,-3.0v7 M-2.5,-0.5L0,-3.0L2.5,-0.5"/>
                </g>
               <g id="resetDef">
                       <use xlink:href="#rim2" fill="#404040">
                               <set attributeName="fill" to="#808080" begin="reset.mouseover" end="reset.mouseout"/>
                       </use>
               </g>
        </defs>

<script type="text/javascript">
var viewWidth = 198;
var viewHeight = 704;
var sectionId = 'dynsection-1';
</script>
<script xlink:href="svgpan.js"/>
<svg id="graph" class="graph">
<g id="viewport">
<title>HydroCouple::IArgument</title>
<polygon fill="white" stroke="none" points="-4,4 -4,-699.719 194.028,-699.719 194.028,4 -4,4"/>
<!-- Node1 -->
<g id="node1" class="node"><title>Node1</title>
<polygon fill="#bfbfbf" stroke="black" points="21.0034,-0.5 21.0034,-197.854 169.025,-197.854 169.025,-0.5 21.0034,-0.5"/>
<text text-anchor="middle" x="95.0142" y="-185.854" font-family="Monaco" font-size="10.00">HydroCouple::IArgument</text>
<polyline fill="none" stroke="black" points="21.0034,-176.52 169.025,-176.52 "/>
<text text-anchor="middle" x="95.0142" y="-164.52" font-family="Monaco" font-size="10.00"> </text>
<polyline fill="none" stroke="black" points="21.0034,-155.185 169.025,-155.185 "/>
<text text-anchor="start" x="29.0034" y="-143.185" font-family="Monaco" font-size="10.00">+ ~IArgument()</text>
<text text-anchor="start" x="29.0034" y="-129.85" font-family="Monaco" font-size="10.00">+ isOptional()</text>
<text text-anchor="start" x="29.0034" y="-116.515" font-family="Monaco" font-size="10.00">+ isReadOnly()</text>
<text text-anchor="start" x="29.0034" y="-103.18" font-family="Monaco" font-size="10.00">+ clone()</text>
<text text-anchor="start" x="29.0034" y="-89.8447" font-family="Monaco" font-size="10.00">+ valueSets()</text>
<text text-anchor="start" x="29.0034" y="-76.5098" font-family="Monaco" font-size="10.00">+ toString()</text>
<text text-anchor="start" x="29.0034" y="-63.1748" font-family="Monaco" font-size="10.00">+ fileExtensions()</text>
<text text-anchor="start" x="29.0034" y="-49.8398" font-family="Monaco" font-size="10.00">+ canReadFromFile()</text>
<text text-anchor="start" x="29.0034" y="-36.5049" font-family="Monaco" font-size="10.00">+ canReadFromString()</text>
<text text-anchor="start" x="29.0034" y="-23.1699" font-family="Monaco" font-size="10.00">+ readValues()</text>
<text text-anchor="start" x="29.0034" y="-9.83496" font-family="Monaco" font-size="10.00">+ readValues()</text>
</g>
<!-- Node2 -->
<g id="node2" class="node"><title>Node2</title>
<g id="a_node2"><a xlink:href="class_hydro_couple_1_1_i_component_item.html" target="_top" xlink:title="IComponentItem is a fundamental unit of data for a component. ">
<polygon fill="white" stroke="black" points="6.00098,-234.854 6.00098,-325.529 184.027,-325.529 184.027,-234.854 6.00098,-234.854"/>
<text text-anchor="middle" x="95.0142" y="-313.529" font-family="Monaco" font-size="10.00">HydroCouple::IComponentItem</text>
<polyline fill="none" stroke="black" points="6.00098,-304.194 184.027,-304.194 "/>
<text text-anchor="middle" x="95.0142" y="-292.194" font-family="Monaco" font-size="10.00"> </text>
<polyline fill="none" stroke="black" points="6.00098,-282.859 184.027,-282.859 "/>
<text text-anchor="start" x="14.001" y="-270.859" font-family="Monaco" font-size="10.00">+ ~IComponentItem()</text>
<text text-anchor="start" x="14.001" y="-257.524" font-family="Monaco" font-size="10.00">+ modelComponent()</text>
<text text-anchor="start" x="14.001" y="-244.189" font-family="Monaco" font-size="10.00">+ dimensions()</text>
</a>
</g>
</g>
<!-- Node2&#45;&gt;Node1 -->
<g id="edge1" class="edge"><title>Node2&#45;&gt;Node1</title>
<path fill="none" stroke="midnightblue" d="M95.0142,-224.214C95.0142,-215.889 95.0142,-207.093 95.0142,-198.183"/>
<polygon fill="none" stroke="midnightblue" points="91.5143,-224.481 95.0142,-234.481 98.5143,-224.481 91.5143,-224.481"/>
</g>
<!-- Node3 -->
<g id="node3" class="node"><title>Node3</title>
<g id="a_node3"><a xlink:href="class_hydro_couple_1_1_i_identity.html" target="_top" xlink:title="IIdentity interface class defines a method to get the Id of an HydroCouple entity. ">
<polygon fill="white" stroke="black" points="21.0034,-362.529 21.0034,-439.869 169.025,-439.869 169.025,-362.529 21.0034,-362.529"/>
<text text-anchor="middle" x="95.0142" y="-427.869" font-family="Monaco" font-size="10.00">HydroCouple::IIdentity</text>
<polyline fill="none" stroke="black" points="21.0034,-418.534 169.025,-418.534 "/>
<text text-anchor="middle" x="95.0142" y="-406.534" font-family="Monaco" font-size="10.00"> </text>
<polyline fill="none" stroke="black" points="21.0034,-397.199 169.025,-397.199 "/>
<text text-anchor="start" x="29.0034" y="-385.199" font-family="Monaco" font-size="10.00">+ ~IIdentity()</text>
<text text-anchor="start" x="29.0034" y="-371.864" font-family="Monaco" font-size="10.00">+ id()</text>
</a>
</g>
</g>
<!-- Node3&#45;&gt;Node2 -->
<g id="edge2" class="edge"><title>Node3&#45;&gt;Node2</title>
<path fill="none" stroke="midnightblue" d="M95.0142,-352.21C95.0142,-343.511 95.0142,-334.471 95.0142,-325.872"/>
<polygon fill="none" stroke="midnightblue" points="91.5143,-352.217 95.0142,-362.217 98.5143,-352.217 91.5143,-352.217"/>
</g>
<!-- Node4 -->
<g id="node4" class="node"><title>Node4</title>
<g id="a_node4"><a xlink:href="class_hydro_couple_1_1_i_description.html" target="_top" xlink:title="IDescription interface class provides descriptive information on a HydroCouple object. ">
<polygon fill="white" stroke="black" points="12.002,-476.869 12.002,-594.214 178.026,-594.214 178.026,-476.869 12.002,-476.869"/>
<text text-anchor="middle" x="95.0142" y="-582.214" font-family="Monaco" font-size="10.00">HydroCouple::IDescription</text>
<polyline fill="none" stroke="black" points="12.002,-572.879 178.026,-572.879 "/>
<text text-anchor="middle" x="95.0142" y="-560.879" font-family="Monaco" font-size="10.00"> </text>
<polyline fill="none" stroke="black" points="12.002,-551.544 178.026,-551.544 "/>
<text text-anchor="start" x="20.002" y="-539.544" font-family="Monaco" font-size="10.00">+ ~IDescription()</text>
<text text-anchor="start" x="20.002" y="-526.209" font-family="Monaco" font-size="10.00">+ getCaption()</text>
<text text-anchor="start" x="20.002" y="-512.874" font-family="Monaco" font-size="10.00">+ setCaption()</text>
<text text-anchor="start" x="20.002" y="-499.539" font-family="Monaco" font-size="10.00">+ getDescription()</text>
<text text-anchor="start" x="20.002" y="-486.204" font-family="Monaco" font-size="10.00">+ setDescription()</text>
</a>
</g>
</g>
<!-- Node4&#45;&gt;Node3 -->
<g id="edge3" class="edge"><title>Node4&#45;&gt;Node3</title>
<path fill="none" stroke="midnightblue" d="M95.0142,-466.303C95.0142,-457.264 95.0142,-448.277 95.0142,-440.017"/>
<polygon fill="none" stroke="midnightblue" points="91.5143,-466.494 95.0142,-476.494 98.5143,-466.494 91.5143,-466.494"/>
</g>
<!-- Node5 -->
<g id="node5" class="node"><title>Node5</title>
<g id="a_node5"><a xlink:href="class_hydro_couple_1_1_i_property_changed.html" target="_top" xlink:title="IPropertyChanged interface is used to emit signal/event when a property of an object changes...">
<polygon fill="white" stroke="black" points="0,-631.214 0,-695.219 190.028,-695.219 190.028,-631.214 0,-631.214"/>
<text text-anchor="middle" x="95.0142" y="-683.219" font-family="Monaco" font-size="10.00">HydroCouple::IPropertyChanged</text>
<polyline fill="none" stroke="black" points="0,-673.884 190.028,-673.884 "/>
<text text-anchor="middle" x="95.0142" y="-661.884" font-family="Monaco" font-size="10.00"> </text>
<polyline fill="none" stroke="black" points="0,-652.549 190.028,-652.549 "/>
<text text-anchor="start" x="8" y="-640.549" font-family="Monaco" font-size="10.00">+ ~IPropertyChanged()</text>
</a>
</g>
</g>
<!-- Node5&#45;&gt;Node4 -->
<g id="edge4" class="edge"><title>Node5&#45;&gt;Node4</title>
<path fill="none" stroke="midnightblue" d="M95.0142,-620.893C95.0142,-612.508 95.0142,-603.542 95.0142,-594.7"/>
<polygon fill="none" stroke="midnightblue" points="91.5143,-621.151 95.0142,-631.151 98.5143,-621.151 91.5143,-621.151"/>
</g>
</g>
</svg>
        <g id="navigator" transform="translate(0 0)" fill="#404254">
                <rect fill="#f2f5e9" fill-opacity="0.5" stroke="#606060" stroke-width=".5" x="0" y="0" width="60" height="60"/>
                <use id="zoomplus" xlink:href="#zoomPlus" x="17" y="9" onmousedown="handleZoom(evt,'in')"/>
                <use id="zoomminus" xlink:href="#zoomMin" x="42" y="9" onmousedown="handleZoom(evt,'out')"/>
                <use id="reset" xlink:href="#resetDef" x="30" y="36" onmousedown="handleReset()"/>
                <g id="arrowUp" xlink:href="#dirArrow" transform="translate(30 24)" onmousedown="handlePan(0,-1)">
                  <use xlink:href="#rim" fill="#404040">
                        <set attributeName="fill" to="#808080" begin="arrowUp.mouseover" end="arrowUp.mouseout"/>
                  </use>
                  <path fill="none" stroke="white" stroke-width="1.5" d="M0,-3.0v7 M-2.5,-0.5L0,-3.0L2.5,-0.5"/>
                </g>
                <g id="arrowRight" xlink:href="#dirArrow" transform="rotate(90) translate(36 -43)" onmousedown="handlePan(1,0)">
                  <use xlink:href="#rim" fill="#404040">
                        <set attributeName="fill" to="#808080" begin="arrowRight.mouseover" end="arrowRight.mouseout"/>
                  </use>
                  <path fill="none" stroke="white" stroke-width="1.5" d="M0,-3.0v7 M-2.5,-0.5L0,-3.0L2.5,-0.5"/>
                </g>
                <g id="arrowDown" xlink:href="#dirArrow" transform="rotate(180) translate(-30 -48)" onmousedown="handlePan(0,1)">
                  <use xlink:href="#rim" fill="#404040">
                        <set attributeName="fill" to="#808080" begin="arrowDown.mouseover" end="arrowDown.mouseout"/>
                  </use>
                  <path fill="none" stroke="white" stroke-width="1.5" d="M0,-3.0v7 M-2.5,-0.5L0,-3.0L2.5,-0.5"/>
                </g>
                <g id="arrowLeft" xlink:href="#dirArrow" transform="rotate(270) translate(-36 17)" onmousedown="handlePan(-1,0)">
                  <use xlink:href="#rim" fill="#404040">
                        <set attributeName="fill" to="#808080" begin="arrowLeft.mouseover" end="arrowLeft.mouseout"/>
                  </use>
                  <path fill="none" stroke="white" stroke-width="1.5" d="M0,-3.0v7 M-2.5,-0.5L0,-3.0L2.5,-0.5"/>
                </g>
        </g>
        <svg viewBox="0 0 15 15" width="100%" height="30px" preserveAspectRatio="xMaxYMin meet">
         <g id="arrow_out" transform="scale(0.3 0.3)">
          <a xlink:href="class_hydro_couple_1_1_i_argument__coll__graph_org.svg" target="_base">
           <rect id="button" ry="5" rx="5" y="6" x="6" height="38" width="38"
                fill="#f2f5e9" fill-opacity="0.5" stroke="#606060" stroke-width="1.0"/>
           <path id="arrow"
             d="M 11.500037,31.436501 C 11.940474,20.09759 22.043105,11.32322 32.158766,21.979434 L 37.068811,17.246167 C 37.068811,17.246167 37.088388,32 37.088388,32 L 22.160133,31.978069 C 22.160133,31.978069 26.997745,27.140456 26.997745,27.140456 C 18.528582,18.264221 13.291696,25.230495 11.500037,31.436501 z"
             style="fill:#404040;"/>
          </a>
         </g>
        </svg>
</svg>
