<?xml version="1.0" encoding="UTF-8" standalone="no"?>
<!DOCTYPE svg PUBLIC "-//W3C//DTD SVG 1.1//EN"
 "http://www.w3.org/Graphics/SVG/1.1/DTD/svg11.dtd">
<!-- Generated by graphviz version 2.38.0 (20140413.2041)
 -->
<!-- Title: HydroCouple::Spatial::IRasterArgument Pages: 1 -->
<svg width="340pt" height="946pt"
 viewBox="0.00 0.00 340.02 945.73" xmlns="http://www.w3.org/2000/svg" xmlns:xlink="http://www.w3.org/1999/xlink">
<g id="graph0" class="graph" transform="scale(1 1) rotate(0) translate(4 941.733)">
<title>HydroCouple::Spatial::IRasterArgument</title>
<polygon fill="white" stroke="none" points="-4,4 -4,-941.733 336.023,-941.733 336.023,4 -4,4"/>
<!-- Node1 -->
<g id="node1" class="node"><title>Node1</title>
<polygon fill="#bfbfbf" stroke="black" points="93.001,-114.84 93.001,-205.515 229.021,-205.515 229.021,-114.84 93.001,-114.84"/>
<text text-anchor="start" x="101.001" y="-193.515" font-family="Monaco" font-size="10.00">HydroCouple::Spatial</text>
<text text-anchor="middle" x="161.011" y="-180.18" font-family="Monaco" font-size="10.00">::IRasterArgument</text>
<polyline fill="none" stroke="black" points="93.001,-170.845 229.021,-170.845 "/>
<text text-anchor="middle" x="161.011" y="-158.845" font-family="Monaco" font-size="10.00"> </text>
<polyline fill="none" stroke="black" points="93.001,-149.51 229.021,-149.51 "/>
<text text-anchor="start" x="101.001" y="-137.51" font-family="Monaco" font-size="10.00">+ ~IRasterArgument()</text>
<text text-anchor="start" x="101.001" y="-124.175" font-family="Monaco" font-size="10.00">+ setRaster()</text>
</g>
<!-- Node8 -->
<g id="node8" class="node"><title>Node8</title>
<g id="a_node8"><a xlink:href="class_hydro_couple_1_1_spatio_temporal_1_1_i_time_raster_argument.html" target="_top" xlink:title="The ITimeRasterArgument class. ">
<polygon fill="white" stroke="black" points="71.9976,-0.5 71.9976,-77.8398 250.024,-77.8398 250.024,-0.5 71.9976,-0.5"/>
<text text-anchor="start" x="79.9976" y="-65.8398" font-family="Monaco" font-size="10.00">HydroCouple::SpatioTemporal</text>
<text text-anchor="middle" x="161.011" y="-52.5049" font-family="Monaco" font-size="10.00">::ITimeRasterArgument</text>
<polyline fill="none" stroke="black" points="71.9976,-43.1699 250.024,-43.1699 "/>
<text text-anchor="middle" x="161.011" y="-31.1699" font-family="Monaco" font-size="10.00"> </text>
<polyline fill="none" stroke="black" points="71.9976,-21.835 250.024,-21.835 "/>
<text text-anchor="start" x="79.9976" y="-9.83496" font-family="Monaco" font-size="10.00">+ ~ITimeRasterArgument()</text>
</a>
</g>
</g>
<!-- Node1&#45;&gt;Node8 -->
<g id="edge8" class="edge"><title>Node1&#45;&gt;Node8</title>
<path fill="none" stroke="midnightblue" d="M161.011,-104.24C161.011,-95.3846 161.011,-86.394 161.011,-78.0584"/>
<polygon fill="none" stroke="midnightblue" points="157.511,-104.525 161.011,-114.525 164.511,-104.525 157.511,-104.525"/>
</g>
<!-- Node2 -->
<g id="node2" class="node"><title>Node2</title>
<g id="a_node2"><a xlink:href="class_hydro_couple_1_1_i_argument.html" target="_top" xlink:title="IArgument interface class used to set the arguments for components. They can be complex or simple mul...">
<polygon fill="white" stroke="black" points="0,-242.515 0,-439.869 148.021,-439.869 148.021,-242.515 0,-242.515"/>
<text text-anchor="middle" x="74.0107" y="-427.869" font-family="Monaco" font-size="10.00">HydroCouple::IArgument</text>
<polyline fill="none" stroke="black" points="0,-418.534 148.021,-418.534 "/>
<text text-anchor="middle" x="74.0107" y="-406.534" font-family="Monaco" font-size="10.00"> </text>
<polyline fill="none" stroke="black" points="0,-397.199 148.021,-397.199 "/>
<text text-anchor="start" x="8" y="-385.199" font-family="Monaco" font-size="10.00">+ ~IArgument()</text>
<text text-anchor="start" x="8" y="-371.864" font-family="Monaco" font-size="10.00">+ isOptional()</text>
<text text-anchor="start" x="8" y="-358.529" font-family="Monaco" font-size="10.00">+ isReadOnly()</text>
<text text-anchor="start" x="8" y="-345.194" font-family="Monaco" font-size="10.00">+ clone()</text>
<text text-anchor="start" x="8" y="-331.859" font-family="Monaco" font-size="10.00">+ valueSets()</text>
<text text-anchor="start" x="8" y="-318.524" font-family="Monaco" font-size="10.00">+ toString()</text>
<text text-anchor="start" x="8" y="-305.189" font-family="Monaco" font-size="10.00">+ fileExtensions()</text>
<text text-anchor="start" x="8" y="-291.854" font-family="Monaco" font-size="10.00">+ canReadFromFile()</text>
<text text-anchor="start" x="8" y="-278.52" font-family="Monaco" font-size="10.00">+ canReadFromString()</text>
<text text-anchor="start" x="8" y="-265.185" font-family="Monaco" font-size="10.00">+ readValues()</text>
<text text-anchor="start" x="8" y="-251.85" font-family="Monaco" font-size="10.00">+ readValues()</text>
</a>
</g>
</g>
<!-- Node2&#45;&gt;Node1 -->
<g id="edge1" class="edge"><title>Node2&#45;&gt;Node1</title>
<path fill="none" stroke="midnightblue" d="M126.053,-233.107C130.68,-223.588 135.172,-214.344 139.309,-205.831"/>
<polygon fill="none" stroke="midnightblue" points="122.807,-231.78 121.584,-242.304 129.103,-234.84 122.807,-231.78"/>
</g>
<!-- Node3 -->
<g id="node3" class="node"><title>Node3</title>
<g id="a_node3"><a xlink:href="class_hydro_couple_1_1_i_component_item.html" target="_top" xlink:title="IComponentItem is a fundamental unit of data for a component. ">
<polygon fill="white" stroke="black" points="71.9976,-476.869 71.9976,-567.544 250.024,-567.544 250.024,-476.869 71.9976,-476.869"/>
<text text-anchor="middle" x="161.011" y="-555.544" font-family="Monaco" font-size="10.00">HydroCouple::IComponentItem</text>
<polyline fill="none" stroke="black" points="71.9976,-546.209 250.024,-546.209 "/>
<text text-anchor="middle" x="161.011" y="-534.209" font-family="Monaco" font-size="10.00"> </text>
<polyline fill="none" stroke="black" points="71.9976,-524.874 250.024,-524.874 "/>
<text text-anchor="start" x="79.9976" y="-512.874" font-family="Monaco" font-size="10.00">+ ~IComponentItem()</text>
<text text-anchor="start" x="79.9976" y="-499.539" font-family="Monaco" font-size="10.00">+ modelComponent()</text>
<text text-anchor="start" x="79.9976" y="-486.204" font-family="Monaco" font-size="10.00">+ dimensions()</text>
</a>
</g>
</g>
<!-- Node3&#45;&gt;Node2 -->
<g id="edge2" class="edge"><title>Node3&#45;&gt;Node2</title>
<path fill="none" stroke="midnightblue" d="M134.83,-467.336C130.626,-458.685 126.163,-449.503 121.641,-440.198"/>
<polygon fill="none" stroke="midnightblue" points="131.762,-469.031 139.281,-476.495 138.058,-465.971 131.762,-469.031"/>
</g>
<!-- Node7 -->
<g id="node7" class="node"><title>Node7</title>
<g id="a_node7"><a xlink:href="class_hydro_couple_1_1_spatial_1_1_i_raster_component_item.html" target="_top" xlink:title="An IRasterComponentItem represents an IRaster IComponentItem. ">
<polygon fill="white" stroke="black" points="165.999,-269.185 165.999,-413.199 332.023,-413.199 332.023,-269.185 165.999,-269.185"/>
<text text-anchor="start" x="173.999" y="-401.199" font-family="Monaco" font-size="10.00">HydroCouple::Spatial</text>
<text text-anchor="middle" x="249.011" y="-387.864" font-family="Monaco" font-size="10.00">::IRasterComponentItem</text>
<polyline fill="none" stroke="black" points="165.999,-378.529 332.023,-378.529 "/>
<text text-anchor="middle" x="249.011" y="-366.529" font-family="Monaco" font-size="10.00"> </text>
<polyline fill="none" stroke="black" points="165.999,-357.194 332.023,-357.194 "/>
<text text-anchor="start" x="173.999" y="-345.194" font-family="Monaco" font-size="10.00">+ ~IRasterComponentItem()</text>
<text text-anchor="start" x="173.999" y="-331.859" font-family="Monaco" font-size="10.00">+ rasterDimension()</text>
<text text-anchor="start" x="173.999" y="-318.524" font-family="Monaco" font-size="10.00">+ xDimension()</text>
<text text-anchor="start" x="173.999" y="-305.189" font-family="Monaco" font-size="10.00">+ yDimension()</text>
<text text-anchor="start" x="173.999" y="-291.854" font-family="Monaco" font-size="10.00">+ bandDimension()</text>
<text text-anchor="start" x="173.999" y="-278.52" font-family="Monaco" font-size="10.00">+ raster()</text>
</a>
</g>
</g>
<!-- Node3&#45;&gt;Node7 -->
<g id="edge7" class="edge"><title>Node3&#45;&gt;Node7</title>
<path fill="none" stroke="midnightblue" d="M187.503,-467.315C195.828,-450.38 205.152,-431.412 213.974,-413.466"/>
<polygon fill="none" stroke="midnightblue" points="184.26,-465.977 182.99,-476.495 190.543,-469.065 184.26,-465.977"/>
</g>
<!-- Node4 -->
<g id="node4" class="node"><title>Node4</title>
<g id="a_node4"><a xlink:href="class_hydro_couple_1_1_i_identity.html" target="_top" xlink:title="IIdentity interface class defines a method to get the Id of an HydroCouple entity. ">
<polygon fill="white" stroke="black" points="87,-604.544 87,-681.884 235.021,-681.884 235.021,-604.544 87,-604.544"/>
<text text-anchor="middle" x="161.011" y="-669.884" font-family="Monaco" font-size="10.00">HydroCouple::IIdentity</text>
<polyline fill="none" stroke="black" points="87,-660.549 235.021,-660.549 "/>
<text text-anchor="middle" x="161.011" y="-648.549" font-family="Monaco" font-size="10.00"> </text>
<polyline fill="none" stroke="black" points="87,-639.214 235.021,-639.214 "/>
<text text-anchor="start" x="95" y="-627.214" font-family="Monaco" font-size="10.00">+ ~IIdentity()</text>
<text text-anchor="start" x="95" y="-613.879" font-family="Monaco" font-size="10.00">+ id()</text>
</a>
</g>
</g>
<!-- Node4&#45;&gt;Node3 -->
<g id="edge3" class="edge"><title>Node4&#45;&gt;Node3</title>
<path fill="none" stroke="midnightblue" d="M161.011,-594.224C161.011,-585.526 161.011,-576.486 161.011,-567.887"/>
<polygon fill="none" stroke="midnightblue" points="157.511,-594.232 161.011,-604.232 164.511,-594.232 157.511,-594.232"/>
</g>
<!-- Node5 -->
<g id="node5" class="node"><title>Node5</title>
<g id="a_node5"><a xlink:href="class_hydro_couple_1_1_i_description.html" target="_top" xlink:title="IDescription interface class provides descriptive information on a HydroCouple object. ">
<polygon fill="white" stroke="black" points="77.9985,-718.884 77.9985,-836.229 244.023,-836.229 244.023,-718.884 77.9985,-718.884"/>
<text text-anchor="middle" x="161.011" y="-824.229" font-family="Monaco" font-size="10.00">HydroCouple::IDescription</text>
<polyline fill="none" stroke="black" points="77.9985,-814.894 244.023,-814.894 "/>
<text text-anchor="middle" x="161.011" y="-802.894" font-family="Monaco" font-size="10.00"> </text>
<polyline fill="none" stroke="black" points="77.9985,-793.559 244.023,-793.559 "/>
<text text-anchor="start" x="85.9985" y="-781.559" font-family="Monaco" font-size="10.00">+ ~IDescription()</text>
<text text-anchor="start" x="85.9985" y="-768.224" font-family="Monaco" font-size="10.00">+ getCaption()</text>
<text text-anchor="start" x="85.9985" y="-754.889" font-family="Monaco" font-size="10.00">+ setCaption()</text>
<text text-anchor="start" x="85.9985" y="-741.554" font-family="Monaco" font-size="10.00">+ getDescription()</text>
<text text-anchor="start" x="85.9985" y="-728.219" font-family="Monaco" font-size="10.00">+ setDescription()</text>
</a>
</g>
</g>
<!-- Node5&#45;&gt;Node4 -->
<g id="edge4" class="edge"><title>Node5&#45;&gt;Node4</title>
<path fill="none" stroke="midnightblue" d="M161.011,-708.318C161.011,-699.279 161.011,-690.292 161.011,-682.031"/>
<polygon fill="none" stroke="midnightblue" points="157.511,-708.509 161.011,-718.509 164.511,-708.509 157.511,-708.509"/>
</g>
<!-- Node6 -->
<g id="node6" class="node"><title>Node6</title>
<g id="a_node6"><a xlink:href="class_hydro_couple_1_1_i_property_changed.html" target="_top" xlink:title="IPropertyChanged interface is used to emit signal/event when a property of an object changes...">
<polygon fill="white" stroke="black" points="65.9966,-873.229 65.9966,-937.233 256.025,-937.233 256.025,-873.229 65.9966,-873.229"/>
<text text-anchor="middle" x="161.011" y="-925.233" font-family="Monaco" font-size="10.00">HydroCouple::IPropertyChanged</text>
<polyline fill="none" stroke="black" points="65.9966,-915.898 256.025,-915.898 "/>
<text text-anchor="middle" x="161.011" y="-903.898" font-family="Monaco" font-size="10.00"> </text>
<polyline fill="none" stroke="black" points="65.9966,-894.563 256.025,-894.563 "/>
<text text-anchor="start" x="73.9966" y="-882.563" font-family="Monaco" font-size="10.00">+ ~IPropertyChanged()</text>
</a>
</g>
</g>
<!-- Node6&#45;&gt;Node5 -->
<g id="edge5" class="edge"><title>Node6&#45;&gt;Node5</title>
<path fill="none" stroke="midnightblue" d="M161.011,-862.908C161.011,-854.523 161.011,-845.557 161.011,-836.715"/>
<polygon fill="none" stroke="midnightblue" points="157.511,-863.165 161.011,-873.165 164.511,-863.165 157.511,-863.165"/>
</g>
<!-- Node7&#45;&gt;Node1 -->
<g id="edge6" class="edge"><title>Node7&#45;&gt;Node1</title>
<path fill="none" stroke="midnightblue" d="M209.615,-260.05C200.409,-241.324 190.932,-222.046 182.819,-205.541"/>
<polygon fill="none" stroke="midnightblue" points="206.552,-261.753 214.104,-269.183 212.834,-258.665 206.552,-261.753"/>
</g>
</g>
</svg>
