<?xml version="1.0" encoding="UTF-8" standalone="no"?>
<!DOCTYPE svg PUBLIC "-//W3C//DTD SVG 1.1//EN"
 "http://www.w3.org/Graphics/SVG/1.1/DTD/svg11.dtd">
<!-- Generated by graphviz version 2.38.0 (20140413.2041)
 -->
<!-- Title: HydroCouple::SpatioTemporal::ITimePolyhedralSurfaceComponentDataItem Pages: 1 -->
<svg width="234pt" height="864pt"
 viewBox="0.00 0.00 234.03 863.74" xmlns="http://www.w3.org/2000/svg" xmlns:xlink="http://www.w3.org/1999/xlink">
<g id="graph0" class="graph" transform="scale(1 1) rotate(0) translate(4 859.738)">
<title>HydroCouple::SpatioTemporal::ITimePolyhedralSurfaceComponentDataItem</title>
<polygon fill="white" stroke="none" points="-4,4 -4,-859.738 230.034,-859.738 230.034,4 -4,4"/>
<!-- Node1 -->
<g id="node1" class="node"><title>Node1</title>
<polygon fill="#bfbfbf" stroke="black" points="0,-0.5 0,-264.529 226.034,-264.529 226.034,-0.5 0,-0.5"/>
<text text-anchor="start" x="8" y="-252.529" font-family="Monaco" font-size="10.00">HydroCouple::SpatioTemporal</text>
<text text-anchor="start" x="8" y="-239.194" font-family="Monaco" font-size="10.00">::ITimePolyhedralSurfaceComponent</text>
<text text-anchor="middle" x="113.017" y="-225.859" font-family="Monaco" font-size="10.00">DataItem</text>
<polyline fill="none" stroke="black" points="0,-216.524 226.034,-216.524 "/>
<text text-anchor="middle" x="113.017" y="-204.524" font-family="Monaco" font-size="10.00"> </text>
<polyline fill="none" stroke="black" points="0,-195.189 226.034,-195.189 "/>
<text text-anchor="start" x="8" y="-183.189" font-family="Monaco" font-size="10.00">+ ~ITimePolyhedralSurfaceComponent</text>
<text text-anchor="start" x="8" y="-169.854" font-family="Monaco" font-size="10.00">DataItem()</text>
<text text-anchor="start" x="8" y="-156.52" font-family="Monaco" font-size="10.00">+ polyhedralSurface()</text>
<text text-anchor="start" x="8" y="-143.185" font-family="Monaco" font-size="10.00">+ polygon()</text>
<text text-anchor="start" x="8" y="-129.85" font-family="Monaco" font-size="10.00">+ polyhedralSurfacePatchDimension()</text>
<text text-anchor="start" x="8" y="-116.515" font-family="Monaco" font-size="10.00">+ times()</text>
<text text-anchor="start" x="8" y="-103.18" font-family="Monaco" font-size="10.00">+ timeSpan()</text>
<text text-anchor="start" x="8" y="-89.8447" font-family="Monaco" font-size="10.00">+ timeDimension()</text>
<text text-anchor="start" x="8" y="-76.5098" font-family="Monaco" font-size="10.00">+ getValue()</text>
<text text-anchor="start" x="8" y="-63.1748" font-family="Monaco" font-size="10.00">+ getValues()</text>
<text text-anchor="start" x="8" y="-49.8398" font-family="Monaco" font-size="10.00">+ getValues()</text>
<text text-anchor="start" x="8" y="-36.5049" font-family="Monaco" font-size="10.00">+ setValue()</text>
<text text-anchor="start" x="8" y="-23.1699" font-family="Monaco" font-size="10.00">+ setValues()</text>
<text text-anchor="start" x="8" y="-9.83496" font-family="Monaco" font-size="10.00">+ setValues()</text>
</g>
<!-- Node2 -->
<g id="node2" class="node"><title>Node2</title>
<g id="a_node2"><a xlink:href="class_hydro_couple_1_1_i_component_data_item.html" target="_top" xlink:title="IComponentItem is a fundamental unit of data for a component. ">
<polygon fill="white" stroke="black" points="12.002,-301.529 12.002,-485.549 214.032,-485.549 214.032,-301.529 12.002,-301.529"/>
<text text-anchor="middle" x="113.017" y="-473.549" font-family="Monaco" font-size="10.00">HydroCouple::IComponentDataItem</text>
<polyline fill="none" stroke="black" points="12.002,-464.214 214.032,-464.214 "/>
<text text-anchor="middle" x="113.017" y="-452.214" font-family="Monaco" font-size="10.00"> </text>
<polyline fill="none" stroke="black" points="12.002,-442.879 214.032,-442.879 "/>
<text text-anchor="start" x="20.002" y="-430.879" font-family="Monaco" font-size="10.00">+ ~IComponentDataItem()</text>
<text text-anchor="start" x="20.002" y="-417.544" font-family="Monaco" font-size="10.00">+ modelComponent()</text>
<text text-anchor="start" x="20.002" y="-404.209" font-family="Monaco" font-size="10.00">+ dimensions()</text>
<text text-anchor="start" x="20.002" y="-390.874" font-family="Monaco" font-size="10.00">+ valueDefinition()</text>
<text text-anchor="start" x="20.002" y="-377.539" font-family="Monaco" font-size="10.00">+ getValue()</text>
<text text-anchor="start" x="20.002" y="-364.204" font-family="Monaco" font-size="10.00">+ getValues()</text>
<text text-anchor="start" x="20.002" y="-350.869" font-family="Monaco" font-size="10.00">+ getValues()</text>
<text text-anchor="start" x="20.002" y="-337.534" font-family="Monaco" font-size="10.00">+ setValue()</text>
<text text-anchor="start" x="20.002" y="-324.199" font-family="Monaco" font-size="10.00">+ setValues()</text>
<text text-anchor="start" x="20.002" y="-310.864" font-family="Monaco" font-size="10.00">+ setValues()</text>
</a>
</g>
</g>
<!-- Node2&#45;&gt;Node1 -->
<g id="edge1" class="edge"><title>Node2&#45;&gt;Node1</title>
<path fill="none" stroke="midnightblue" d="M113.017,-291.162C113.017,-282.52 113.017,-273.702 113.017,-264.872"/>
<polygon fill="none" stroke="midnightblue" points="109.517,-291.217 113.017,-301.217 116.517,-291.217 109.517,-291.217"/>
</g>
<!-- Node3 -->
<g id="node3" class="node"><title>Node3</title>
<g id="a_node3"><a xlink:href="class_hydro_couple_1_1_i_identity.html" target="_top" xlink:title="IIdentity interface class defines a method to get the Id of an HydroCouple entity. ">
<polygon fill="white" stroke="black" points="39.0063,-522.549 39.0063,-599.889 187.028,-599.889 187.028,-522.549 39.0063,-522.549"/>
<text text-anchor="middle" x="113.017" y="-587.889" font-family="Monaco" font-size="10.00">HydroCouple::IIdentity</text>
<polyline fill="none" stroke="black" points="39.0063,-578.554 187.028,-578.554 "/>
<text text-anchor="middle" x="113.017" y="-566.554" font-family="Monaco" font-size="10.00"> </text>
<polyline fill="none" stroke="black" points="39.0063,-557.219 187.028,-557.219 "/>
<text text-anchor="start" x="47.0063" y="-545.219" font-family="Monaco" font-size="10.00">+ ~IIdentity()</text>
<text text-anchor="start" x="47.0063" y="-531.884" font-family="Monaco" font-size="10.00">+ id()</text>
</a>
</g>
</g>
<!-- Node3&#45;&gt;Node2 -->
<g id="edge2" class="edge"><title>Node3&#45;&gt;Node2</title>
<path fill="none" stroke="midnightblue" d="M113.017,-511.966C113.017,-503.613 113.017,-494.688 113.017,-485.63"/>
<polygon fill="none" stroke="midnightblue" points="109.517,-512.208 113.017,-522.208 116.517,-512.209 109.517,-512.208"/>
</g>
<!-- Node4 -->
<g id="node4" class="node"><title>Node4</title>
<g id="a_node4"><a xlink:href="class_hydro_couple_1_1_i_description.html" target="_top" xlink:title="IDescription interface class provides descriptive information on a HydroCouple object. ">
<polygon fill="white" stroke="black" points="30.0049,-636.889 30.0049,-754.233 196.029,-754.233 196.029,-636.889 30.0049,-636.889"/>
<text text-anchor="middle" x="113.017" y="-742.233" font-family="Monaco" font-size="10.00">HydroCouple::IDescription</text>
<polyline fill="none" stroke="black" points="30.0049,-732.898 196.029,-732.898 "/>
<text text-anchor="middle" x="113.017" y="-720.898" font-family="Monaco" font-size="10.00"> </text>
<polyline fill="none" stroke="black" points="30.0049,-711.563 196.029,-711.563 "/>
<text text-anchor="start" x="38.0049" y="-699.563" font-family="Monaco" font-size="10.00">+ ~IDescription()</text>
<text text-anchor="start" x="38.0049" y="-686.229" font-family="Monaco" font-size="10.00">+ caption()</text>
<text text-anchor="start" x="38.0049" y="-672.894" font-family="Monaco" font-size="10.00">+ setCaption()</text>
<text text-anchor="start" x="38.0049" y="-659.559" font-family="Monaco" font-size="10.00">+ description()</text>
<text text-anchor="start" x="38.0049" y="-646.224" font-family="Monaco" font-size="10.00">+ setDescription()</text>
</a>
</g>
</g>
<!-- Node4&#45;&gt;Node3 -->
<g id="edge3" class="edge"><title>Node4&#45;&gt;Node3</title>
<path fill="none" stroke="midnightblue" d="M113.017,-626.323C113.017,-617.284 113.017,-608.297 113.017,-600.036"/>
<polygon fill="none" stroke="midnightblue" points="109.517,-626.514 113.017,-636.514 116.517,-626.514 109.517,-626.514"/>
</g>
<!-- Node5 -->
<g id="node5" class="node"><title>Node5</title>
<g id="a_node5"><a xlink:href="class_hydro_couple_1_1_i_property_changed.html" target="_top" xlink:title="IPropertyChanged interface is used to emit signal/event when a property of an object changes...">
<polygon fill="white" stroke="black" points="18.0029,-791.233 18.0029,-855.238 208.031,-855.238 208.031,-791.233 18.0029,-791.233"/>
<text text-anchor="middle" x="113.017" y="-843.238" font-family="Monaco" font-size="10.00">HydroCouple::IPropertyChanged</text>
<polyline fill="none" stroke="black" points="18.0029,-833.903 208.031,-833.903 "/>
<text text-anchor="middle" x="113.017" y="-821.903" font-family="Monaco" font-size="10.00"> </text>
<polyline fill="none" stroke="black" points="18.0029,-812.568 208.031,-812.568 "/>
<text text-anchor="start" x="26.0029" y="-800.568" font-family="Monaco" font-size="10.00">+ ~IPropertyChanged()</text>
</a>
</g>
</g>
<!-- Node5&#45;&gt;Node4 -->
<g id="edge4" class="edge"><title>Node5&#45;&gt;Node4</title>
<path fill="none" stroke="midnightblue" d="M113.017,-780.913C113.017,-772.528 113.017,-763.562 113.017,-754.719"/>
<polygon fill="none" stroke="midnightblue" points="109.517,-781.17 113.017,-791.17 116.517,-781.17 109.517,-781.17"/>
</g>
</g>
</svg>
