<?xml version="1.0" encoding="UTF-8" standalone="no"?>
<!DOCTYPE svg PUBLIC "-//W3C//DTD SVG 1.1//EN"
 "http://www.w3.org/Graphics/SVG/1.1/DTD/svg11.dtd">
<!-- Generated by graphviz version 2.38.0 (20140413.2041)
 -->
<!-- Title: HydroCouple::SpatioTemporal::ITimeRegularGrid3DExchangeItem Pages: 1 -->
<!--zoomable 1092 -->
<svg id="main" version="1.1" xmlns="http://www.w3.org/2000/svg" xmlns:xlink="http://www.w3.org/1999/xlink" xml:space="preserve" onload="init(evt)">
<style type="text/css"><![CDATA[
.edge:hover path { stroke: red; }
.edge:hover polygon { stroke: red; fill: red; }
]]></style>
<script type="text/javascript"><![CDATA[
var edges = document.getElementsByTagName('g');
if (edges && edges.length) {
  for (var i=0;i<edges.length;i++) {
    if (edges[i].id.substr(0,4)=='edge') {
      edges[i].setAttribute('class','edge');
    }
  }
}
]]></script>
        <defs>
                <circle id="rim" cx="0" cy="0" r="7"/>
                <circle id="rim2" cx="0" cy="0" r="3.5"/>
                <g id="zoomPlus">
                        <use xlink:href="#rim" fill="#404040">
                                <set attributeName="fill" to="#808080" begin="zoomplus.mouseover" end="zoomplus.mouseout"/>
                        </use>
                        <path d="M-4,0h8M0,-4v8" fill="none" stroke="white" stroke-width="1.5" pointer-events="none"/>
                </g>
                <g id="zoomMin">
                        <use xlink:href="#rim" fill="#404040">
                                <set attributeName="fill" to="#808080" begin="zoomminus.mouseover" end="zoomminus.mouseout"/>
                        </use>
                        <path d="M-4,0h8" fill="none" stroke="white" stroke-width="1.5" pointer-events="none"/>
                </g>
                <g id="dirArrow">
                        <path fill="none" stroke="white" stroke-width="1.5" d="M0,-3.0v7 M-2.5,-0.5L0,-3.0L2.5,-0.5"/>
                </g>
               <g id="resetDef">
                       <use xlink:href="#rim2" fill="#404040">
                               <set attributeName="fill" to="#808080" begin="reset.mouseover" end="reset.mouseout"/>
                       </use>
               </g>
        </defs>

<script type="text/javascript">
var viewWidth = 436;
var viewHeight = 1092;
var sectionId = 'dynsection-0';
</script>
<script xlink:href="svgpan.js"/>
<svg id="graph" class="graph">
<g id="viewport">
<title>HydroCouple::SpatioTemporal::ITimeRegularGrid3DExchangeItem</title>
<!-- Node1 -->
<g id="node1" class="node"><title>Node1</title>
<polygon fill="#bfbfbf" stroke="black" points="83.9956,-0.5 83.9956,-77.8398 310.03,-77.8398 310.03,-0.5 83.9956,-0.5"/>
<text text-anchor="start" x="91.9956" y="-65.8398" font-family="Monaco" font-size="10.00">HydroCouple::SpatioTemporal</text>
<text text-anchor="middle" x="197.013" y="-52.5049" font-family="Monaco" font-size="10.00">::ITimeRegularGrid3DExchangeItem</text>
<polyline fill="none" stroke="black" points="83.9956,-43.1699 310.03,-43.1699 "/>
<text text-anchor="middle" x="197.013" y="-31.1699" font-family="Monaco" font-size="10.00"> </text>
<polyline fill="none" stroke="black" points="83.9956,-21.835 310.03,-21.835 "/>
<text text-anchor="start" x="91.9956" y="-9.83496" font-family="Monaco" font-size="10.00">+ ~ITimeRegularGrid3DExchangeItem()</text>
</g>
<!-- Node2 -->
<g id="node2" class="node"><title>Node2</title>
<g id="a_node2"><a xlink:href="class_hydro_couple_1_1_i_exchange_item.html" target="_top" xlink:title="IExchangeItem the base data item the can be exchanged between components at runtime. ">
<polygon fill="none" stroke="black" points="0,-188.182 0,-265.522 172.025,-265.522 172.025,-188.182 0,-188.182"/>
<text text-anchor="middle" x="86.0127" y="-253.522" font-family="Monaco" font-size="10.00">HydroCouple::IExchangeItem</text>
<polyline fill="none" stroke="black" points="0,-244.187 172.025,-244.187 "/>
<text text-anchor="middle" x="86.0127" y="-232.187" font-family="Monaco" font-size="10.00"> </text>
<polyline fill="none" stroke="black" points="0,-222.852 172.025,-222.852 "/>
<text text-anchor="start" x="8" y="-210.852" font-family="Monaco" font-size="10.00">+ ~IExchangeItem()</text>
<text text-anchor="start" x="8" y="-197.517" font-family="Monaco" font-size="10.00">+ itemChanged()</text>
</a>
</g>
</g>
<!-- Node2&#45;&gt;Node1 -->
<g id="edge1" class="edge"><title>Node2&#45;&gt;Node1</title>
<path fill="none" stroke="midnightblue" d="M114.091,-178.883C132.732,-147.699 156.887,-107.293 174.313,-78.1427"/>
<polygon fill="none" stroke="midnightblue" points="110.87,-177.449 108.743,-187.828 116.878,-181.041 110.87,-177.449"/>
</g>
<!-- Node3 -->
<g id="node3" class="node"><title>Node3</title>
<g id="a_node3"><a xlink:href="class_hydro_couple_1_1_i_component_data_item.html" target="_top" xlink:title="IComponentItem is a fundamental unit of data for a component. ">
<polygon fill="none" stroke="black" points="68.9976,-530.209 68.9976,-714.229 271.028,-714.229 271.028,-530.209 68.9976,-530.209"/>
<text text-anchor="middle" x="170.013" y="-702.229" font-family="Monaco" font-size="10.00">HydroCouple::IComponentDataItem</text>
<polyline fill="none" stroke="black" points="68.9976,-692.894 271.028,-692.894 "/>
<text text-anchor="middle" x="170.013" y="-680.894" font-family="Monaco" font-size="10.00"> </text>
<polyline fill="none" stroke="black" points="68.9976,-671.559 271.028,-671.559 "/>
<text text-anchor="start" x="76.9976" y="-659.559" font-family="Monaco" font-size="10.00">+ ~IComponentDataItem()</text>
<text text-anchor="start" x="76.9976" y="-646.224" font-family="Monaco" font-size="10.00">+ modelComponent()</text>
<text text-anchor="start" x="76.9976" y="-632.889" font-family="Monaco" font-size="10.00">+ dimensions()</text>
<text text-anchor="start" x="76.9976" y="-619.554" font-family="Monaco" font-size="10.00">+ valueDefinition()</text>
<text text-anchor="start" x="76.9976" y="-606.219" font-family="Monaco" font-size="10.00">+ getValue()</text>
<text text-anchor="start" x="76.9976" y="-592.884" font-family="Monaco" font-size="10.00">+ getValues()</text>
<text text-anchor="start" x="76.9976" y="-579.549" font-family="Monaco" font-size="10.00">+ getValues()</text>
<text text-anchor="start" x="76.9976" y="-566.214" font-family="Monaco" font-size="10.00">+ setValue()</text>
<text text-anchor="start" x="76.9976" y="-552.879" font-family="Monaco" font-size="10.00">+ setValues()</text>
<text text-anchor="start" x="76.9976" y="-539.544" font-family="Monaco" font-size="10.00">+ setValues()</text>
</a>
</g>
</g>
<!-- Node3&#45;&gt;Node2 -->
<g id="edge2" class="edge"><title>Node3&#45;&gt;Node2</title>
<path fill="none" stroke="midnightblue" d="M148.4,-520.009C130.664,-436.953 106.525,-323.909 94.1146,-265.793"/>
<polygon fill="none" stroke="midnightblue" points="145.019,-520.935 150.53,-529.984 151.865,-519.473 145.019,-520.935"/>
</g>
<!-- Node8 -->
<g id="node8" class="node"><title>Node8</title>
<g id="a_node8"><a xlink:href="class_hydro_couple_1_1_temporal_1_1_i_time_component_data_item.html" target="_top" xlink:title="ITimeComponentItem is an IComponentItem with a temporal attribute. ">
<polygon fill="none" stroke="black" points="193,-375.864 193,-493.209 371.026,-493.209 371.026,-375.864 193,-375.864"/>
<text text-anchor="start" x="201" y="-481.209" font-family="Monaco" font-size="10.00">HydroCouple::Temporal</text>
<text text-anchor="middle" x="282.013" y="-467.874" font-family="Monaco" font-size="10.00">::ITimeComponentDataItem</text>
<polyline fill="none" stroke="black" points="193,-458.539 371.026,-458.539 "/>
<text text-anchor="middle" x="282.013" y="-446.539" font-family="Monaco" font-size="10.00"> </text>
<polyline fill="none" stroke="black" points="193,-437.204 371.026,-437.204 "/>
<text text-anchor="start" x="201" y="-425.204" font-family="Monaco" font-size="10.00">+ ~ITimeComponentDataItem()</text>
<text text-anchor="start" x="201" y="-411.869" font-family="Monaco" font-size="10.00">+ times()</text>
<text text-anchor="start" x="201" y="-398.534" font-family="Monaco" font-size="10.00">+ timeSpan()</text>
<text text-anchor="start" x="201" y="-385.199" font-family="Monaco" font-size="10.00">+ timeDimension()</text>
</a>
</g>
</g>
<!-- Node3&#45;&gt;Node8 -->
<g id="edge8" class="edge"><title>Node3&#45;&gt;Node8</title>
<path fill="none" stroke="midnightblue" d="M230.315,-521.244C236.061,-511.718 241.746,-502.293 247.127,-493.373"/>
<polygon fill="none" stroke="midnightblue" points="227.196,-519.639 225.028,-530.01 233.19,-523.254 227.196,-519.639"/>
</g>
<!-- Node4 -->
<g id="node4" class="node"><title>Node4</title>
<g id="a_node4"><a xlink:href="class_hydro_couple_1_1_i_identity.html" target="_top" xlink:title="IIdentity interface class defines a method to get the Id of an HydroCouple entity. ">
<polygon fill="none" stroke="black" points="96.002,-751.229 96.002,-828.568 244.023,-828.568 244.023,-751.229 96.002,-751.229"/>
<text text-anchor="middle" x="170.013" y="-816.568" font-family="Monaco" font-size="10.00">HydroCouple::IIdentity</text>
<polyline fill="none" stroke="black" points="96.002,-807.233 244.023,-807.233 "/>
<text text-anchor="middle" x="170.013" y="-795.233" font-family="Monaco" font-size="10.00"> </text>
<polyline fill="none" stroke="black" points="96.002,-785.898 244.023,-785.898 "/>
<text text-anchor="start" x="104.002" y="-773.898" font-family="Monaco" font-size="10.00">+ ~IIdentity()</text>
<text text-anchor="start" x="104.002" y="-760.563" font-family="Monaco" font-size="10.00">+ id()</text>
</a>
</g>
</g>
<!-- Node4&#45;&gt;Node3 -->
<g id="edge3" class="edge"><title>Node4&#45;&gt;Node3</title>
<path fill="none" stroke="midnightblue" d="M170.013,-740.646C170.013,-732.293 170.013,-723.368 170.013,-714.309"/>
<polygon fill="none" stroke="midnightblue" points="166.513,-740.888 170.013,-750.888 173.513,-740.888 166.513,-740.888"/>
</g>
<!-- Node5 -->
<g id="node5" class="node"><title>Node5</title>
<g id="a_node5"><a xlink:href="class_hydro_couple_1_1_i_description.html" target="_top" xlink:title="IDescription interface class provides descriptive information on a HydroCouple object. ">
<polygon fill="none" stroke="black" points="87.0005,-865.568 87.0005,-982.913 253.025,-982.913 253.025,-865.568 87.0005,-865.568"/>
<text text-anchor="middle" x="170.013" y="-970.913" font-family="Monaco" font-size="10.00">HydroCouple::IDescription</text>
<polyline fill="none" stroke="black" points="87.0005,-961.578 253.025,-961.578 "/>
<text text-anchor="middle" x="170.013" y="-949.578" font-family="Monaco" font-size="10.00"> </text>
<polyline fill="none" stroke="black" points="87.0005,-940.243 253.025,-940.243 "/>
<text text-anchor="start" x="95.0005" y="-928.243" font-family="Monaco" font-size="10.00">+ ~IDescription()</text>
<text text-anchor="start" x="95.0005" y="-914.908" font-family="Monaco" font-size="10.00">+ caption()</text>
<text text-anchor="start" x="95.0005" y="-901.573" font-family="Monaco" font-size="10.00">+ setCaption()</text>
<text text-anchor="start" x="95.0005" y="-888.238" font-family="Monaco" font-size="10.00">+ description()</text>
<text text-anchor="start" x="95.0005" y="-874.903" font-family="Monaco" font-size="10.00">+ setDescription()</text>
</a>
</g>
</g>
<!-- Node5&#45;&gt;Node4 -->
<g id="edge4" class="edge"><title>Node5&#45;&gt;Node4</title>
<path fill="none" stroke="midnightblue" d="M170.013,-855.002C170.013,-845.964 170.013,-836.976 170.013,-828.716"/>
<polygon fill="none" stroke="midnightblue" points="166.513,-855.193 170.013,-865.193 173.513,-855.194 166.513,-855.193"/>
</g>
<!-- Node6 -->
<g id="node6" class="node"><title>Node6</title>
<g id="a_node6"><a xlink:href="class_hydro_couple_1_1_i_property_changed.html" target="_top" xlink:title="IPropertyChanged interface is used to emit signal/event when a property of an object changes...">
<polygon fill="none" stroke="black" points="74.9985,-1019.91 74.9985,-1083.92 265.027,-1083.92 265.027,-1019.91 74.9985,-1019.91"/>
<text text-anchor="middle" x="170.013" y="-1071.92" font-family="Monaco" font-size="10.00">HydroCouple::IPropertyChanged</text>
<polyline fill="none" stroke="black" points="74.9985,-1062.58 265.027,-1062.58 "/>
<text text-anchor="middle" x="170.013" y="-1050.58" font-family="Monaco" font-size="10.00"> </text>
<polyline fill="none" stroke="black" points="74.9985,-1041.25 265.027,-1041.25 "/>
<text text-anchor="start" x="82.9985" y="-1029.25" font-family="Monaco" font-size="10.00">+ ~IPropertyChanged()</text>
</a>
</g>
</g>
<!-- Node6&#45;&gt;Node5 -->
<g id="edge5" class="edge"><title>Node6&#45;&gt;Node5</title>
<path fill="none" stroke="midnightblue" d="M170.013,-1009.59C170.013,-1001.21 170.013,-992.241 170.013,-983.399"/>
<polygon fill="none" stroke="midnightblue" points="166.513,-1009.85 170.013,-1019.85 173.513,-1009.85 166.513,-1009.85"/>
</g>
<!-- Node7 -->
<g id="node7" class="node"><title>Node7</title>
<g id="a_node7"><a xlink:href="class_hydro_couple_1_1_spatio_temporal_1_1_i_time_regular_grid3_d_component_data_item.html" target="_top" xlink:title="The ITimeRegularGrid3DComponentItem class. ">
<polygon fill="none" stroke="black" points="189.995,-114.84 189.995,-338.864 428.031,-338.864 428.031,-114.84 189.995,-114.84"/>
<text text-anchor="start" x="197.995" y="-326.864" font-family="Monaco" font-size="10.00">HydroCouple::SpatioTemporal</text>
<text text-anchor="middle" x="309.013" y="-313.529" font-family="Monaco" font-size="10.00">::ITimeRegularGrid3DComponentDataItem</text>
<polyline fill="none" stroke="black" points="189.995,-304.194 428.031,-304.194 "/>
<text text-anchor="middle" x="309.013" y="-292.194" font-family="Monaco" font-size="10.00"> </text>
<polyline fill="none" stroke="black" points="189.995,-282.859 428.031,-282.859 "/>
<text text-anchor="start" x="197.995" y="-270.859" font-family="Monaco" font-size="10.00">+ ~ITimeRegularGrid3DComponent</text>
<text text-anchor="start" x="197.995" y="-257.524" font-family="Monaco" font-size="10.00">DataItem()</text>
<text text-anchor="start" x="197.995" y="-244.189" font-family="Monaco" font-size="10.00">+ numXCellsDimension()</text>
<text text-anchor="start" x="197.995" y="-230.854" font-family="Monaco" font-size="10.00">+ numYCellsDimension()</text>
<text text-anchor="start" x="197.995" y="-217.52" font-family="Monaco" font-size="10.00">+ numZCellsDimension()</text>
<text text-anchor="start" x="197.995" y="-204.185" font-family="Monaco" font-size="10.00">+ grid()</text>
<text text-anchor="start" x="197.995" y="-190.85" font-family="Monaco" font-size="10.00">+ getValue()</text>
<text text-anchor="start" x="197.995" y="-177.515" font-family="Monaco" font-size="10.00">+ getValues()</text>
<text text-anchor="start" x="197.995" y="-164.18" font-family="Monaco" font-size="10.00">+ getValues()</text>
<text text-anchor="start" x="197.995" y="-150.845" font-family="Monaco" font-size="10.00">+ setValue()</text>
<text text-anchor="start" x="197.995" y="-137.51" font-family="Monaco" font-size="10.00">+ setValues()</text>
<text text-anchor="start" x="197.995" y="-124.175" font-family="Monaco" font-size="10.00">+ setValues()</text>
</a>
</g>
</g>
<!-- Node7&#45;&gt;Node1 -->
<g id="edge6" class="edge"><title>Node7&#45;&gt;Node1</title>
<path fill="none" stroke="midnightblue" d="M236.594,-105.791C230.603,-95.8589 224.887,-86.3825 219.756,-77.8748"/>
<polygon fill="none" stroke="midnightblue" points="233.76,-107.869 241.922,-114.624 239.754,-104.253 233.76,-107.869"/>
</g>
<!-- Node8&#45;&gt;Node7 -->
<g id="edge7" class="edge"><title>Node8&#45;&gt;Node7</title>
<path fill="none" stroke="midnightblue" d="M290.909,-365.764C292.041,-357.144 293.221,-348.151 294.413,-339.069"/>
<polygon fill="none" stroke="midnightblue" points="287.437,-365.324 289.606,-375.695 294.377,-366.235 287.437,-365.324"/>
</g>
</g>
</svg>
        <g id="navigator" transform="translate(0 0)" fill="#404254">
                <rect fill="#f2f5e9" fill-opacity="0.5" stroke="#606060" stroke-width=".5" x="0" y="0" width="60" height="60"/>
                <use id="zoomplus" xlink:href="#zoomPlus" x="17" y="9" onmousedown="handleZoom(evt,'in')"/>
                <use id="zoomminus" xlink:href="#zoomMin" x="42" y="9" onmousedown="handleZoom(evt,'out')"/>
                <use id="reset" xlink:href="#resetDef" x="30" y="36" onmousedown="handleReset()"/>
                <g id="arrowUp" xlink:href="#dirArrow" transform="translate(30 24)" onmousedown="handlePan(0,-1)">
                  <use xlink:href="#rim" fill="#404040">
                        <set attributeName="fill" to="#808080" begin="arrowUp.mouseover" end="arrowUp.mouseout"/>
                  </use>
                  <path fill="none" stroke="white" stroke-width="1.5" d="M0,-3.0v7 M-2.5,-0.5L0,-3.0L2.5,-0.5"/>
                </g>
                <g id="arrowRight" xlink:href="#dirArrow" transform="rotate(90) translate(36 -43)" onmousedown="handlePan(1,0)">
                  <use xlink:href="#rim" fill="#404040">
                        <set attributeName="fill" to="#808080" begin="arrowRight.mouseover" end="arrowRight.mouseout"/>
                  </use>
                  <path fill="none" stroke="white" stroke-width="1.5" d="M0,-3.0v7 M-2.5,-0.5L0,-3.0L2.5,-0.5"/>
                </g>
                <g id="arrowDown" xlink:href="#dirArrow" transform="rotate(180) translate(-30 -48)" onmousedown="handlePan(0,1)">
                  <use xlink:href="#rim" fill="#404040">
                        <set attributeName="fill" to="#808080" begin="arrowDown.mouseover" end="arrowDown.mouseout"/>
                  </use>
                  <path fill="none" stroke="white" stroke-width="1.5" d="M0,-3.0v7 M-2.5,-0.5L0,-3.0L2.5,-0.5"/>
                </g>
                <g id="arrowLeft" xlink:href="#dirArrow" transform="rotate(270) translate(-36 17)" onmousedown="handlePan(-1,0)">
                  <use xlink:href="#rim" fill="#404040">
                        <set attributeName="fill" to="#808080" begin="arrowLeft.mouseover" end="arrowLeft.mouseout"/>
                  </use>
                  <path fill="none" stroke="white" stroke-width="1.5" d="M0,-3.0v7 M-2.5,-0.5L0,-3.0L2.5,-0.5"/>
                </g>
        </g>
        <svg viewBox="0 0 15 15" width="100%" height="30px" preserveAspectRatio="xMaxYMin meet">
         <g id="arrow_out" transform="scale(0.3 0.3)">
          <a xlink:href="class_hydro_couple_1_1_spatio_temporal_1_1_i_time_regular_grid3_d_exchange_item__inherit__graph_org.svg" target="_base">
           <rect id="button" ry="5" rx="5" y="6" x="6" height="38" width="38"
                fill="#f2f5e9" fill-opacity="0.5" stroke="#606060" stroke-width="1.0"/>
           <path id="arrow"
             d="M 11.500037,31.436501 C 11.940474,20.09759 22.043105,11.32322 32.158766,21.979434 L 37.068811,17.246167 C 37.068811,17.246167 37.088388,32 37.088388,32 L 22.160133,31.978069 C 22.160133,31.978069 26.997745,27.140456 26.997745,27.140456 C 18.528582,18.264221 13.291696,25.230495 11.500037,31.436501 z"
             style="fill:#404040;"/>
          </a>
         </g>
        </svg>
</svg>
