<?xml version="1.0" encoding="UTF-8" standalone="no"?>
<!DOCTYPE svg PUBLIC "-//W3C//DTD SVG 1.1//EN"
 "http://www.w3.org/Graphics/SVG/1.1/DTD/svg11.dtd">
<!-- Generated by graphviz version 2.38.0 (20140413.2041)
 -->
<!-- Title: HydroCouple::Spatial::IPolyhedralSurfaceExchangeItem Pages: 1 -->
<svg width="430pt" height="791pt"
 viewBox="0.00 0.00 430.03 791.39" xmlns="http://www.w3.org/2000/svg" xmlns:xlink="http://www.w3.org/1999/xlink">
<g id="graph0" class="graph" transform="scale(1 1) rotate(0) translate(4 787.389)">
<title>HydroCouple::Spatial::IPolyhedralSurfaceExchangeItem</title>
<polygon fill="white" stroke="none" points="-4,4 -4,-787.389 426.03,-787.389 426.03,4 -4,4"/>
<!-- Node1 -->
<g id="node1" class="node"><title>Node1</title>
<polygon fill="#bfbfbf" stroke="black" points="82.9956,-0.5 82.9956,-91.1748 309.03,-91.1748 309.03,-0.5 82.9956,-0.5"/>
<text text-anchor="start" x="90.9956" y="-79.1748" font-family="Monaco" font-size="10.00">HydroCouple::Spatial</text>
<text text-anchor="middle" x="196.013" y="-65.8398" font-family="Monaco" font-size="10.00">::IPolyhedralSurfaceExchangeItem</text>
<polyline fill="none" stroke="black" points="82.9956,-56.5049 309.03,-56.5049 "/>
<text text-anchor="middle" x="196.013" y="-44.5049" font-family="Monaco" font-size="10.00"> </text>
<polyline fill="none" stroke="black" points="82.9956,-35.1699 309.03,-35.1699 "/>
<text text-anchor="start" x="90.9956" y="-23.1699" font-family="Monaco" font-size="10.00">+ ~IPolyhedralSurfaceExchangeItem()</text>
<text text-anchor="start" x="90.9956" y="-9.83496" font-family="Monaco" font-size="10.00">+ patchValues()</text>
</g>
<!-- Node2 -->
<g id="node2" class="node"><title>Node2</title>
<g id="a_node2"><a xlink:href="class_hydro_couple_1_1_i_exchange_item.html" target="_top" xlink:title="IExchangeItem the base data item the can be exchanged between components at runtime. ">
<polygon fill="white" stroke="black" points="0,-141.51 0,-232.185 172.025,-232.185 172.025,-141.51 0,-141.51"/>
<text text-anchor="middle" x="86.0127" y="-220.185" font-family="Monaco" font-size="10.00">HydroCouple::IExchangeItem</text>
<polyline fill="none" stroke="black" points="0,-210.85 172.025,-210.85 "/>
<text text-anchor="middle" x="86.0127" y="-198.85" font-family="Monaco" font-size="10.00"> </text>
<polyline fill="none" stroke="black" points="0,-189.515 172.025,-189.515 "/>
<text text-anchor="start" x="8" y="-177.515" font-family="Monaco" font-size="10.00">+ ~IExchangeItem()</text>
<text text-anchor="start" x="8" y="-164.18" font-family="Monaco" font-size="10.00">+ values()</text>
<text text-anchor="start" x="8" y="-150.845" font-family="Monaco" font-size="10.00">+ itemChanged()</text>
</a>
</g>
</g>
<!-- Node2&#45;&gt;Node1 -->
<g id="edge1" class="edge"><title>Node2&#45;&gt;Node1</title>
<path fill="none" stroke="midnightblue" d="M127.489,-133.433C138.481,-119.542 150.242,-104.68 160.862,-91.2585"/>
<polygon fill="none" stroke="midnightblue" points="124.581,-131.468 121.12,-141.481 130.07,-135.811 124.581,-131.468"/>
</g>
<!-- Node3 -->
<g id="node3" class="node"><title>Node3</title>
<g id="a_node3"><a xlink:href="class_hydro_couple_1_1_i_component_item.html" target="_top" xlink:title="IComponentItem is a fundamental unit of data for a component. ">
<polygon fill="white" stroke="black" points="107,-282.52 107,-386.529 285.026,-386.529 285.026,-282.52 107,-282.52"/>
<text text-anchor="middle" x="196.013" y="-374.529" font-family="Monaco" font-size="10.00">HydroCouple::IComponentItem</text>
<polyline fill="none" stroke="black" points="107,-365.194 285.026,-365.194 "/>
<text text-anchor="middle" x="196.013" y="-353.194" font-family="Monaco" font-size="10.00"> </text>
<polyline fill="none" stroke="black" points="107,-343.859 285.026,-343.859 "/>
<text text-anchor="start" x="115" y="-331.859" font-family="Monaco" font-size="10.00">+ ~IComponentItem()</text>
<text text-anchor="start" x="115" y="-318.524" font-family="Monaco" font-size="10.00">+ modelComponent()</text>
<text text-anchor="start" x="115" y="-305.189" font-family="Monaco" font-size="10.00">+ modelComponentId()</text>
<text text-anchor="start" x="115" y="-291.854" font-family="Monaco" font-size="10.00">+ dimensions()</text>
</a>
</g>
</g>
<!-- Node3&#45;&gt;Node2 -->
<g id="edge2" class="edge"><title>Node3&#45;&gt;Node2</title>
<path fill="none" stroke="midnightblue" d="M151.12,-274.071C140.62,-260.166 129.612,-245.588 119.697,-232.457"/>
<polygon fill="none" stroke="midnightblue" points="148.412,-276.293 157.231,-282.164 153.998,-272.074 148.412,-276.293"/>
</g>
<!-- Node7 -->
<g id="node7" class="node"><title>Node7</title>
<g id="a_node7"><a xlink:href="class_hydro_couple_1_1_spatial_1_1_i_polyhedral_surface_component_item.html" target="_top" xlink:title="IPolyhedralSurfaceComponentItem represents IPolyhedralSurface IComponentItem. ">
<polygon fill="white" stroke="black" points="189.995,-128.175 189.995,-245.52 422.03,-245.52 422.03,-128.175 189.995,-128.175"/>
<text text-anchor="start" x="197.995" y="-233.52" font-family="Monaco" font-size="10.00">HydroCouple::Spatial</text>
<text text-anchor="middle" x="306.013" y="-220.185" font-family="Monaco" font-size="10.00">::IPolyhedralSurfaceComponentItem</text>
<polyline fill="none" stroke="black" points="189.995,-210.85 422.03,-210.85 "/>
<text text-anchor="middle" x="306.013" y="-198.85" font-family="Monaco" font-size="10.00"> </text>
<polyline fill="none" stroke="black" points="189.995,-189.515 422.03,-189.515 "/>
<text text-anchor="start" x="197.995" y="-177.515" font-family="Monaco" font-size="10.00">+ ~IPolyhedralSurfaceComponentItem()</text>
<text text-anchor="start" x="197.995" y="-164.18" font-family="Monaco" font-size="10.00">+ patchDimension()</text>
<text text-anchor="start" x="197.995" y="-150.845" font-family="Monaco" font-size="10.00">+ polyhedralSurface()</text>
<text text-anchor="start" x="197.995" y="-137.51" font-family="Monaco" font-size="10.00">+ geometry()</text>
</a>
</g>
</g>
<!-- Node3&#45;&gt;Node7 -->
<g id="edge7" class="edge"><title>Node3&#45;&gt;Node7</title>
<path fill="none" stroke="midnightblue" d="M240.932,-274.036C247.998,-264.678 255.293,-255.017 262.33,-245.697"/>
<polygon fill="none" stroke="midnightblue" points="238.027,-272.074 234.795,-282.164 243.614,-276.293 238.027,-272.074"/>
</g>
<!-- Node4 -->
<g id="node4" class="node"><title>Node4</title>
<g id="a_node4"><a xlink:href="class_hydro_couple_1_1_i_identity.html" target="_top" xlink:title="IIdentity interface class defines a method to get the Id of an HydroCouple entity. ">
<polygon fill="white" stroke="black" points="122.002,-423.529 122.002,-527.539 270.023,-527.539 270.023,-423.529 122.002,-423.529"/>
<text text-anchor="middle" x="196.013" y="-515.539" font-family="Monaco" font-size="10.00">HydroCouple::IIdentity</text>
<polyline fill="none" stroke="black" points="122.002,-506.204 270.023,-506.204 "/>
<text text-anchor="middle" x="196.013" y="-494.204" font-family="Monaco" font-size="10.00"> </text>
<polyline fill="none" stroke="black" points="122.002,-484.869 270.023,-484.869 "/>
<text text-anchor="start" x="130.002" y="-472.869" font-family="Monaco" font-size="10.00">+ ~IIdentity()</text>
<text text-anchor="start" x="130.002" y="-459.534" font-family="Monaco" font-size="10.00">+ MPI_Comm()</text>
<text text-anchor="start" x="130.002" y="-446.199" font-family="Monaco" font-size="10.00">+ MPI_Rank()</text>
<text text-anchor="start" x="130.002" y="-432.864" font-family="Monaco" font-size="10.00">+ id()</text>
</a>
</g>
</g>
<!-- Node4&#45;&gt;Node3 -->
<g id="edge3" class="edge"><title>Node4&#45;&gt;Node3</title>
<path fill="none" stroke="midnightblue" d="M196.013,-412.97C196.013,-404.188 196.013,-395.235 196.013,-386.68"/>
<polygon fill="none" stroke="midnightblue" points="192.513,-413.167 196.013,-423.167 199.513,-413.167 192.513,-413.167"/>
</g>
<!-- Node5 -->
<g id="node5" class="node"><title>Node5</title>
<g id="a_node5"><a xlink:href="class_hydro_couple_1_1_i_description.html" target="_top" xlink:title="IDescription interface class provides descriptive information on a HydroCouple object. ">
<polygon fill="white" stroke="black" points="113,-564.539 113,-681.884 279.025,-681.884 279.025,-564.539 113,-564.539"/>
<text text-anchor="middle" x="196.013" y="-669.884" font-family="Monaco" font-size="10.00">HydroCouple::IDescription</text>
<polyline fill="none" stroke="black" points="113,-660.549 279.025,-660.549 "/>
<text text-anchor="middle" x="196.013" y="-648.549" font-family="Monaco" font-size="10.00"> </text>
<polyline fill="none" stroke="black" points="113,-639.214 279.025,-639.214 "/>
<text text-anchor="start" x="121" y="-627.214" font-family="Monaco" font-size="10.00">+ ~IDescription()</text>
<text text-anchor="start" x="121" y="-613.879" font-family="Monaco" font-size="10.00">+ getCaption()</text>
<text text-anchor="start" x="121" y="-600.544" font-family="Monaco" font-size="10.00">+ setCaption()</text>
<text text-anchor="start" x="121" y="-587.209" font-family="Monaco" font-size="10.00">+ getDescription()</text>
<text text-anchor="start" x="121" y="-573.874" font-family="Monaco" font-size="10.00">+ setDescription()</text>
</a>
</g>
</g>
<!-- Node5&#45;&gt;Node4 -->
<g id="edge4" class="edge"><title>Node5&#45;&gt;Node4</title>
<path fill="none" stroke="midnightblue" d="M196.013,-553.938C196.013,-545.12 196.013,-536.212 196.013,-527.734"/>
<polygon fill="none" stroke="midnightblue" points="192.513,-554.217 196.013,-564.217 199.513,-554.217 192.513,-554.217"/>
</g>
<!-- Node6 -->
<g id="node6" class="node"><title>Node6</title>
<g id="a_node6"><a xlink:href="class_hydro_couple_1_1_i_property_changed.html" target="_top" xlink:title="IPropertyChanged interface is used to emit signal/event when a property of an object changes...">
<polygon fill="white" stroke="black" points="100.999,-718.884 100.999,-782.889 291.027,-782.889 291.027,-718.884 100.999,-718.884"/>
<text text-anchor="middle" x="196.013" y="-770.889" font-family="Monaco" font-size="10.00">HydroCouple::IPropertyChanged</text>
<polyline fill="none" stroke="black" points="100.999,-761.554 291.027,-761.554 "/>
<text text-anchor="middle" x="196.013" y="-749.554" font-family="Monaco" font-size="10.00"> </text>
<polyline fill="none" stroke="black" points="100.999,-740.219 291.027,-740.219 "/>
<text text-anchor="start" x="108.999" y="-728.219" font-family="Monaco" font-size="10.00">+ ~IPropertyChanged()</text>
</a>
</g>
</g>
<!-- Node6&#45;&gt;Node5 -->
<g id="edge5" class="edge"><title>Node6&#45;&gt;Node5</title>
<path fill="none" stroke="midnightblue" d="M196.013,-708.563C196.013,-700.178 196.013,-691.212 196.013,-682.37"/>
<polygon fill="none" stroke="midnightblue" points="192.513,-708.821 196.013,-718.821 199.513,-708.821 192.513,-708.821"/>
</g>
<!-- Node7&#45;&gt;Node1 -->
<g id="edge6" class="edge"><title>Node7&#45;&gt;Node1</title>
<path fill="none" stroke="midnightblue" d="M253.922,-120.018C246.27,-110.349 238.543,-100.584 231.335,-91.4754"/>
<polygon fill="none" stroke="midnightblue" points="251.368,-122.432 260.318,-128.102 256.858,-118.088 251.368,-122.432"/>
</g>
</g>
</svg>
