<?xml version="1.0" encoding="UTF-8" standalone="no"?>
<!DOCTYPE svg PUBLIC "-//W3C//DTD SVG 1.1//EN"
 "http://www.w3.org/Graphics/SVG/1.1/DTD/svg11.dtd">
<!-- Generated by graphviz version 2.38.0 (20140413.2041)
 -->
<!-- Title: HydroCouple::Spatial::IRasterExhangeItem Pages: 1 -->
<svg width="391pt" height="959pt"
 viewBox="0.00 0.00 391.03 959.07" xmlns="http://www.w3.org/2000/svg" xmlns:xlink="http://www.w3.org/1999/xlink">
<g id="graph0" class="graph" transform="scale(1 1) rotate(0) translate(4 955.068)">
<title>HydroCouple::Spatial::IRasterExhangeItem</title>
<!-- Node1 -->
<g id="node1" class="node"><title>Node1</title>
<polygon fill="#bfbfbf" stroke="black" points="111.002,-114.84 111.002,-192.18 265.024,-192.18 265.024,-114.84 111.002,-114.84"/>
<text text-anchor="start" x="119.002" y="-180.18" font-family="Monaco" font-size="10.00">HydroCouple::Spatial</text>
<text text-anchor="middle" x="188.013" y="-166.845" font-family="Monaco" font-size="10.00">::IRasterExhangeItem</text>
<polyline fill="none" stroke="black" points="111.002,-157.51 265.024,-157.51 "/>
<text text-anchor="middle" x="188.013" y="-145.51" font-family="Monaco" font-size="10.00"> </text>
<polyline fill="none" stroke="black" points="111.002,-136.175 265.024,-136.175 "/>
<text text-anchor="start" x="119.002" y="-124.175" font-family="Monaco" font-size="10.00">+ ~IRasterExhangeItem()</text>
</g>
<!-- Node8 -->
<g id="node8" class="node"><title>Node8</title>
<g id="a_node8"><a xlink:href="class_hydro_couple_1_1_spatial_1_1_i_raster_only_exhange_item.html" target="_top" xlink:title="An IRasterOnlyExhangeItem is an IExchangeItem with an IRaster. ">
<polygon fill="none" stroke="black" points="0,-0.5 0,-77.8398 178.026,-77.8398 178.026,-0.5 0,-0.5"/>
<text text-anchor="start" x="8" y="-65.8398" font-family="Monaco" font-size="10.00">HydroCouple::Spatial</text>
<text text-anchor="middle" x="89.0132" y="-52.5049" font-family="Monaco" font-size="10.00">::IRasterOnlyExhangeItem</text>
<polyline fill="none" stroke="black" points="0,-43.1699 178.026,-43.1699 "/>
<text text-anchor="middle" x="89.0132" y="-31.1699" font-family="Monaco" font-size="10.00"> </text>
<polyline fill="none" stroke="black" points="0,-21.835 178.026,-21.835 "/>
<text text-anchor="start" x="8" y="-9.83496" font-family="Monaco" font-size="10.00">+ ~IRasterOnlyExhangeItem()</text>
</a>
</g>
</g>
<!-- Node1&#45;&gt;Node8 -->
<g id="edge8" class="edge"><title>Node1&#45;&gt;Node8</title>
<path fill="none" stroke="midnightblue" d="M148.036,-107.145C139.506,-97.4661 130.584,-87.3418 122.335,-77.9816"/>
<polygon fill="none" stroke="midnightblue" points="145.535,-109.601 154.772,-114.79 150.786,-104.973 145.535,-109.601"/>
</g>
<!-- Node9 -->
<g id="node9" class="node"><title>Node9</title>
<g id="a_node9"><a xlink:href="class_hydro_couple_1_1_spatio_temporal_1_1_i_time_raster_exchange_item.html" target="_top" xlink:title="The ITimeRasterExchangeItem class. ">
<polygon fill="none" stroke="black" points="196,-0.5 196,-77.8398 380.027,-77.8398 380.027,-0.5 196,-0.5"/>
<text text-anchor="start" x="204" y="-65.8398" font-family="Monaco" font-size="10.00">HydroCouple::SpatioTemporal</text>
<text text-anchor="middle" x="288.013" y="-52.5049" font-family="Monaco" font-size="10.00">::ITimeRasterExchangeItem</text>
<polyline fill="none" stroke="black" points="196,-43.1699 380.027,-43.1699 "/>
<text text-anchor="middle" x="288.013" y="-31.1699" font-family="Monaco" font-size="10.00"> </text>
<polyline fill="none" stroke="black" points="196,-21.835 380.027,-21.835 "/>
<text text-anchor="start" x="204" y="-9.83496" font-family="Monaco" font-size="10.00">+ ~ITimeRasterExchangeItem()</text>
</a>
</g>
</g>
<!-- Node1&#45;&gt;Node9 -->
<g id="edge9" class="edge"><title>Node1&#45;&gt;Node9</title>
<path fill="none" stroke="midnightblue" d="M228.394,-107.145C237.011,-97.4661 246.023,-87.3418 254.355,-77.9816"/>
<polygon fill="none" stroke="midnightblue" points="225.625,-104.993 221.59,-114.79 230.853,-109.647 225.625,-104.993"/>
</g>
<!-- Node2 -->
<g id="node2" class="node"><title>Node2</title>
<g id="a_node2"><a xlink:href="class_hydro_couple_1_1_i_exchange_item.html" target="_top" xlink:title="IExchangeItem the base data item the can be exchanged between components at runtime. ">
<polygon fill="none" stroke="black" points="3.00049,-262.517 3.00049,-326.522 175.026,-326.522 175.026,-262.517 3.00049,-262.517"/>
<text text-anchor="middle" x="89.0132" y="-314.522" font-family="Monaco" font-size="10.00">HydroCouple::IExchangeItem</text>
<polyline fill="none" stroke="black" points="3.00049,-305.187 175.026,-305.187 "/>
<text text-anchor="middle" x="89.0132" y="-293.187" font-family="Monaco" font-size="10.00"> </text>
<polyline fill="none" stroke="black" points="3.00049,-283.852 175.026,-283.852 "/>
<text text-anchor="start" x="11.0005" y="-271.852" font-family="Monaco" font-size="10.00">+ ~IExchangeItem()</text>
</a>
</g>
</g>
<!-- Node2&#45;&gt;Node1 -->
<g id="edge1" class="edge"><title>Node2&#45;&gt;Node1</title>
<path fill="none" stroke="midnightblue" d="M117.157,-254.001C130.953,-234.63 147.487,-211.414 161.113,-192.282"/>
<polygon fill="none" stroke="midnightblue" points="114.181,-252.147 111.231,-262.323 119.883,-256.208 114.181,-252.147"/>
</g>
<!-- Node3 -->
<g id="node3" class="node"><title>Node3</title>
<g id="a_node3"><a xlink:href="class_hydro_couple_1_1_i_component_data_item.html" target="_top" xlink:title="IComponentItem is a fundamental unit of data for a component. ">
<polygon fill="none" stroke="black" points="86.998,-396.859 86.998,-580.879 289.028,-580.879 289.028,-396.859 86.998,-396.859"/>
<text text-anchor="middle" x="188.013" y="-568.879" font-family="Monaco" font-size="10.00">HydroCouple::IComponentDataItem</text>
<polyline fill="none" stroke="black" points="86.998,-559.544 289.028,-559.544 "/>
<text text-anchor="middle" x="188.013" y="-547.544" font-family="Monaco" font-size="10.00"> </text>
<polyline fill="none" stroke="black" points="86.998,-538.209 289.028,-538.209 "/>
<text text-anchor="start" x="94.998" y="-526.209" font-family="Monaco" font-size="10.00">+ ~IComponentDataItem()</text>
<text text-anchor="start" x="94.998" y="-512.874" font-family="Monaco" font-size="10.00">+ modelComponent()</text>
<text text-anchor="start" x="94.998" y="-499.539" font-family="Monaco" font-size="10.00">+ dimensions()</text>
<text text-anchor="start" x="94.998" y="-486.204" font-family="Monaco" font-size="10.00">+ valueDefinition()</text>
<text text-anchor="start" x="94.998" y="-472.869" font-family="Monaco" font-size="10.00">+ getValue()</text>
<text text-anchor="start" x="94.998" y="-459.534" font-family="Monaco" font-size="10.00">+ getValues()</text>
<text text-anchor="start" x="94.998" y="-446.199" font-family="Monaco" font-size="10.00">+ getValues()</text>
<text text-anchor="start" x="94.998" y="-432.864" font-family="Monaco" font-size="10.00">+ setValue()</text>
<text text-anchor="start" x="94.998" y="-419.529" font-family="Monaco" font-size="10.00">+ setValues()</text>
<text text-anchor="start" x="94.998" y="-406.194" font-family="Monaco" font-size="10.00">+ setValues()</text>
</a>
</g>
</g>
<!-- Node3&#45;&gt;Node2 -->
<g id="edge2" class="edge"><title>Node3&#45;&gt;Node2</title>
<path fill="none" stroke="midnightblue" d="M136.398,-387.584C124.972,-365.385 113.697,-343.479 105.014,-326.608"/>
<polygon fill="none" stroke="midnightblue" points="133.434,-389.474 141.122,-396.764 139.658,-386.271 133.434,-389.474"/>
</g>
<!-- Node7 -->
<g id="node7" class="node"><title>Node7</title>
<g id="a_node7"><a xlink:href="class_hydro_couple_1_1_spatial_1_1_i_raster_component_data_item.html" target="_top" xlink:title="An IRasterComponentDataItem represents an IRaster IComponentItem. ">
<polygon fill="none" stroke="black" points="192.999,-229.18 192.999,-359.859 383.027,-359.859 383.027,-229.18 192.999,-229.18"/>
<text text-anchor="start" x="200.999" y="-347.859" font-family="Monaco" font-size="10.00">HydroCouple::Spatial</text>
<text text-anchor="middle" x="288.013" y="-334.524" font-family="Monaco" font-size="10.00">::IRasterComponentDataItem</text>
<polyline fill="none" stroke="black" points="192.999,-325.189 383.027,-325.189 "/>
<text text-anchor="middle" x="288.013" y="-313.189" font-family="Monaco" font-size="10.00"> </text>
<polyline fill="none" stroke="black" points="192.999,-303.854 383.027,-303.854 "/>
<text text-anchor="start" x="200.999" y="-291.854" font-family="Monaco" font-size="10.00">+ ~IRasterComponentDataItem()</text>
<text text-anchor="start" x="200.999" y="-278.52" font-family="Monaco" font-size="10.00">+ xDimension()</text>
<text text-anchor="start" x="200.999" y="-265.185" font-family="Monaco" font-size="10.00">+ yDimension()</text>
<text text-anchor="start" x="200.999" y="-251.85" font-family="Monaco" font-size="10.00">+ bandDimension()</text>
<text text-anchor="start" x="200.999" y="-238.515" font-family="Monaco" font-size="10.00">+ raster()</text>
</a>
</g>
</g>
<!-- Node3&#45;&gt;Node7 -->
<g id="edge7" class="edge"><title>Node3&#45;&gt;Node7</title>
<path fill="none" stroke="midnightblue" d="M240.077,-387.725C244.976,-378.302 249.848,-368.929 254.506,-359.97"/>
<polygon fill="none" stroke="midnightblue" points="236.885,-386.277 235.378,-396.764 243.096,-389.506 236.885,-386.277"/>
</g>
<!-- Node4 -->
<g id="node4" class="node"><title>Node4</title>
<g id="a_node4"><a xlink:href="class_hydro_couple_1_1_i_identity.html" target="_top" xlink:title="IIdentity interface class defines a method to get the Id of an HydroCouple entity. ">
<polygon fill="none" stroke="black" points="114.002,-617.879 114.002,-695.219 262.024,-695.219 262.024,-617.879 114.002,-617.879"/>
<text text-anchor="middle" x="188.013" y="-683.219" font-family="Monaco" font-size="10.00">HydroCouple::IIdentity</text>
<polyline fill="none" stroke="black" points="114.002,-673.884 262.024,-673.884 "/>
<text text-anchor="middle" x="188.013" y="-661.884" font-family="Monaco" font-size="10.00"> </text>
<polyline fill="none" stroke="black" points="114.002,-652.549 262.024,-652.549 "/>
<text text-anchor="start" x="122.002" y="-640.549" font-family="Monaco" font-size="10.00">+ ~IIdentity()</text>
<text text-anchor="start" x="122.002" y="-627.214" font-family="Monaco" font-size="10.00">+ id()</text>
</a>
</g>
</g>
<!-- Node4&#45;&gt;Node3 -->
<g id="edge3" class="edge"><title>Node4&#45;&gt;Node3</title>
<path fill="none" stroke="midnightblue" d="M188.013,-607.297C188.013,-598.943 188.013,-590.018 188.013,-580.96"/>
<polygon fill="none" stroke="midnightblue" points="184.513,-607.539 188.013,-617.539 191.513,-607.539 184.513,-607.539"/>
</g>
<!-- Node5 -->
<g id="node5" class="node"><title>Node5</title>
<g id="a_node5"><a xlink:href="class_hydro_couple_1_1_i_description.html" target="_top" xlink:title="IDescription interface class provides descriptive information on a HydroCouple object. ">
<polygon fill="none" stroke="black" points="105.001,-732.219 105.001,-849.563 271.025,-849.563 271.025,-732.219 105.001,-732.219"/>
<text text-anchor="middle" x="188.013" y="-837.563" font-family="Monaco" font-size="10.00">HydroCouple::IDescription</text>
<polyline fill="none" stroke="black" points="105.001,-828.229 271.025,-828.229 "/>
<text text-anchor="middle" x="188.013" y="-816.229" font-family="Monaco" font-size="10.00"> </text>
<polyline fill="none" stroke="black" points="105.001,-806.894 271.025,-806.894 "/>
<text text-anchor="start" x="113.001" y="-794.894" font-family="Monaco" font-size="10.00">+ ~IDescription()</text>
<text text-anchor="start" x="113.001" y="-781.559" font-family="Monaco" font-size="10.00">+ caption()</text>
<text text-anchor="start" x="113.001" y="-768.224" font-family="Monaco" font-size="10.00">+ setCaption()</text>
<text text-anchor="start" x="113.001" y="-754.889" font-family="Monaco" font-size="10.00">+ description()</text>
<text text-anchor="start" x="113.001" y="-741.554" font-family="Monaco" font-size="10.00">+ setDescription()</text>
</a>
</g>
</g>
<!-- Node5&#45;&gt;Node4 -->
<g id="edge4" class="edge"><title>Node5&#45;&gt;Node4</title>
<path fill="none" stroke="midnightblue" d="M188.013,-721.653C188.013,-712.614 188.013,-703.627 188.013,-695.366"/>
<polygon fill="none" stroke="midnightblue" points="184.513,-721.844 188.013,-731.844 191.513,-721.844 184.513,-721.844"/>
</g>
<!-- Node6 -->
<g id="node6" class="node"><title>Node6</title>
<g id="a_node6"><a xlink:href="class_hydro_couple_1_1_i_property_changed.html" target="_top" xlink:title="IPropertyChanged interface is used to emit signal/event when a property of an object changes...">
<polygon fill="none" stroke="black" points="92.999,-886.563 92.999,-950.568 283.027,-950.568 283.027,-886.563 92.999,-886.563"/>
<text text-anchor="middle" x="188.013" y="-938.568" font-family="Monaco" font-size="10.00">HydroCouple::IPropertyChanged</text>
<polyline fill="none" stroke="black" points="92.999,-929.233 283.027,-929.233 "/>
<text text-anchor="middle" x="188.013" y="-917.233" font-family="Monaco" font-size="10.00"> </text>
<polyline fill="none" stroke="black" points="92.999,-907.898 283.027,-907.898 "/>
<text text-anchor="start" x="100.999" y="-895.898" font-family="Monaco" font-size="10.00">+ ~IPropertyChanged()</text>
</a>
</g>
</g>
<!-- Node6&#45;&gt;Node5 -->
<g id="edge5" class="edge"><title>Node6&#45;&gt;Node5</title>
<path fill="none" stroke="midnightblue" d="M188.013,-876.243C188.013,-867.858 188.013,-858.892 188.013,-850.049"/>
<polygon fill="none" stroke="midnightblue" points="184.513,-876.5 188.013,-886.5 191.513,-876.5 184.513,-876.5"/>
</g>
<!-- Node7&#45;&gt;Node1 -->
<g id="edge6" class="edge"><title>Node7&#45;&gt;Node1</title>
<path fill="none" stroke="midnightblue" d="M235.626,-220.696C228.604,-210.935 221.646,-201.262 215.306,-192.449"/>
<polygon fill="none" stroke="midnightblue" points="232.845,-222.824 241.526,-228.898 238.528,-218.736 232.845,-222.824"/>
</g>
</g>
</svg>
