<?xml version="1.0" encoding="UTF-8" standalone="no"?>
<!DOCTYPE svg PUBLIC "-//W3C//DTD SVG 1.1//EN"
 "http://www.w3.org/Graphics/SVG/1.1/DTD/svg11.dtd">
<!-- Generated by graphviz version 2.38.0 (20140413.2041)
 -->
<!-- Title: HydroCouple::SpatioTemporal::ITimePolyhedralSurfaceComponentItem Pages: 1 -->
<!--zoomable 866 -->
<svg id="main" version="1.1" xmlns="http://www.w3.org/2000/svg" xmlns:xlink="http://www.w3.org/1999/xlink" xml:space="preserve" onload="init(evt)">
<style type="text/css"><![CDATA[
.edge:hover path { stroke: red; }
.edge:hover polygon { stroke: red; fill: red; }
]]></style>
<script type="text/javascript"><![CDATA[
var edges = document.getElementsByTagName('g');
if (edges && edges.length) {
  for (var i=0;i<edges.length;i++) {
    if (edges[i].id.substr(0,4)=='edge') {
      edges[i].setAttribute('class','edge');
    }
  }
}
]]></script>
        <defs>
                <circle id="rim" cx="0" cy="0" r="7"/>
                <circle id="rim2" cx="0" cy="0" r="3.5"/>
                <g id="zoomPlus">
                        <use xlink:href="#rim" fill="#404040">
                                <set attributeName="fill" to="#808080" begin="zoomplus.mouseover" end="zoomplus.mouseout"/>
                        </use>
                        <path d="M-4,0h8M0,-4v8" fill="none" stroke="white" stroke-width="1.5" pointer-events="none"/>
                </g>
                <g id="zoomMin">
                        <use xlink:href="#rim" fill="#404040">
                                <set attributeName="fill" to="#808080" begin="zoomminus.mouseover" end="zoomminus.mouseout"/>
                        </use>
                        <path d="M-4,0h8" fill="none" stroke="white" stroke-width="1.5" pointer-events="none"/>
                </g>
                <g id="dirArrow">
                        <path fill="none" stroke="white" stroke-width="1.5" d="M0,-3.0v7 M-2.5,-0.5L0,-3.0L2.5,-0.5"/>
                </g>
               <g id="resetDef">
                       <use xlink:href="#rim2" fill="#404040">
                               <set attributeName="fill" to="#808080" begin="reset.mouseover" end="reset.mouseout"/>
                       </use>
               </g>
        </defs>

<script type="text/javascript">
var viewWidth = 412;
var viewHeight = 866;
var sectionId = 'dynsection-0';
</script>
<script xlink:href="svgpan.js"/>
<svg id="graph" class="graph">
<g id="viewport">
<title>HydroCouple::SpatioTemporal::ITimePolyhedralSurfaceComponentItem</title>
<polygon fill="white" stroke="none" points="-4,4 -4,-861.724 408.029,-861.724 408.029,4 -4,4"/>
<!-- Node1 -->
<g id="node1" class="node"><title>Node1</title>
<polygon fill="#bfbfbf" stroke="black" points="53.9917,-114.84 53.9917,-192.18 310.031,-192.18 310.031,-114.84 53.9917,-114.84"/>
<text text-anchor="start" x="61.9917" y="-180.18" font-family="Monaco" font-size="10.00">HydroCouple::SpatioTemporal</text>
<text text-anchor="middle" x="182.011" y="-166.845" font-family="Monaco" font-size="10.00">::ITimePolyhedralSurfaceComponentItem</text>
<polyline fill="none" stroke="black" points="53.9917,-157.51 310.031,-157.51 "/>
<text text-anchor="middle" x="182.011" y="-145.51" font-family="Monaco" font-size="10.00"> </text>
<polyline fill="none" stroke="black" points="53.9917,-136.175 310.031,-136.175 "/>
<text text-anchor="start" x="61.9917" y="-124.175" font-family="Monaco" font-size="10.00">+ ~ITimePolyhedralSurfaceComponentItem()</text>
</g>
<!-- Node8 -->
<g id="node8" class="node"><title>Node8</title>
<g id="a_node8"><a xlink:href="class_hydro_couple_1_1_spatio_temporal_1_1_i_time_polyhedral_surface_argument.html" target="_top" xlink:title="The ITimePolyhedralSurfaceArgument class. ">
<polygon fill="white" stroke="black" points="68.9941,-0.5 68.9941,-77.8398 295.028,-77.8398 295.028,-0.5 68.9941,-0.5"/>
<text text-anchor="start" x="76.9941" y="-65.8398" font-family="Monaco" font-size="10.00">HydroCouple::SpatioTemporal</text>
<text text-anchor="middle" x="182.011" y="-52.5049" font-family="Monaco" font-size="10.00">::ITimePolyhedralSurfaceArgument</text>
<polyline fill="none" stroke="black" points="68.9941,-43.1699 295.028,-43.1699 "/>
<text text-anchor="middle" x="182.011" y="-31.1699" font-family="Monaco" font-size="10.00"> </text>
<polyline fill="none" stroke="black" points="68.9941,-21.835 295.028,-21.835 "/>
<text text-anchor="start" x="76.9941" y="-9.83496" font-family="Monaco" font-size="10.00">+ ~ITimePolyhedralSurfaceArgument()</text>
</a>
</g>
</g>
<!-- Node1&#45;&gt;Node8 -->
<g id="edge8" class="edge"><title>Node1&#45;&gt;Node8</title>
<path fill="none" stroke="midnightblue" d="M182.011,-104.548C182.011,-95.6678 182.011,-86.5077 182.011,-77.9816"/>
<polygon fill="none" stroke="midnightblue" points="178.511,-104.79 182.011,-114.79 185.511,-104.79 178.511,-104.79"/>
</g>
<!-- Node2 -->
<g id="node2" class="node"><title>Node2</title>
<g id="a_node2"><a xlink:href="class_hydro_couple_1_1_temporal_1_1_i_time_component_item.html" target="_top" xlink:title="ITimeComponentItem is an IComponentItem with a temporal attribute. ">
<polygon fill="white" stroke="black" points="0,-229.18 0,-359.859 154.022,-359.859 154.022,-229.18 0,-229.18"/>
<text text-anchor="start" x="8" y="-347.859" font-family="Monaco" font-size="10.00">HydroCouple::Temporal</text>
<text text-anchor="middle" x="77.0112" y="-334.524" font-family="Monaco" font-size="10.00">::ITimeComponentItem</text>
<polyline fill="none" stroke="black" points="0,-325.189 154.022,-325.189 "/>
<text text-anchor="middle" x="77.0112" y="-313.189" font-family="Monaco" font-size="10.00"> </text>
<polyline fill="none" stroke="black" points="0,-303.854 154.022,-303.854 "/>
<text text-anchor="start" x="8" y="-291.854" font-family="Monaco" font-size="10.00">+ ~ITimeComponentItem()</text>
<text text-anchor="start" x="8" y="-278.52" font-family="Monaco" font-size="10.00">+ timeDimension()</text>
<text text-anchor="start" x="8" y="-265.185" font-family="Monaco" font-size="10.00">+ times()</text>
<text text-anchor="start" x="8" y="-251.85" font-family="Monaco" font-size="10.00">+ timeSpan()</text>
<text text-anchor="start" x="8" y="-238.515" font-family="Monaco" font-size="10.00">+ time()</text>
</a>
</g>
</g>
<!-- Node2&#45;&gt;Node1 -->
<g id="edge1" class="edge"><title>Node2&#45;&gt;Node1</title>
<path fill="none" stroke="midnightblue" d="M132.018,-220.696C139.391,-210.935 146.697,-201.262 153.354,-192.449"/>
<polygon fill="none" stroke="midnightblue" points="129.057,-218.809 125.823,-228.898 134.643,-223.028 129.057,-218.809"/>
</g>
<!-- Node3 -->
<g id="node3" class="node"><title>Node3</title>
<g id="a_node3"><a xlink:href="class_hydro_couple_1_1_i_component_item.html" target="_top" xlink:title="IComponentItem is a fundamental unit of data for a component. ">
<polygon fill="white" stroke="black" points="92.998,-396.859 92.998,-487.534 271.024,-487.534 271.024,-396.859 92.998,-396.859"/>
<text text-anchor="middle" x="182.011" y="-475.534" font-family="Monaco" font-size="10.00">HydroCouple::IComponentItem</text>
<polyline fill="none" stroke="black" points="92.998,-466.199 271.024,-466.199 "/>
<text text-anchor="middle" x="182.011" y="-454.199" font-family="Monaco" font-size="10.00"> </text>
<polyline fill="none" stroke="black" points="92.998,-444.864 271.024,-444.864 "/>
<text text-anchor="start" x="100.998" y="-432.864" font-family="Monaco" font-size="10.00">+ ~IComponentItem()</text>
<text text-anchor="start" x="100.998" y="-419.529" font-family="Monaco" font-size="10.00">+ modelComponent()</text>
<text text-anchor="start" x="100.998" y="-406.194" font-family="Monaco" font-size="10.00">+ dimensions()</text>
</a>
</g>
</g>
<!-- Node3&#45;&gt;Node2 -->
<g id="edge2" class="edge"><title>Node3&#45;&gt;Node2</title>
<path fill="none" stroke="midnightblue" d="M143.965,-388.411C137.346,-379.227 130.394,-369.582 123.577,-360.125"/>
<polygon fill="none" stroke="midnightblue" points="141.251,-390.631 149.937,-396.697 146.929,-386.538 141.251,-390.631"/>
</g>
<!-- Node7 -->
<g id="node7" class="node"><title>Node7</title>
<g id="a_node7"><a xlink:href="class_hydro_couple_1_1_spatial_1_1_i_polyhedral_surface_component_item.html" target="_top" xlink:title="IPolyhedralSurfaceComponentItem represents IPolyhedralSurface IComponentItem. ">
<polygon fill="white" stroke="black" points="171.994,-235.847 171.994,-353.192 404.029,-353.192 404.029,-235.847 171.994,-235.847"/>
<text text-anchor="start" x="179.994" y="-341.192" font-family="Monaco" font-size="10.00">HydroCouple::Spatial</text>
<text text-anchor="middle" x="288.011" y="-327.857" font-family="Monaco" font-size="10.00">::IPolyhedralSurfaceComponentItem</text>
<polyline fill="none" stroke="black" points="171.994,-318.522 404.029,-318.522 "/>
<text text-anchor="middle" x="288.011" y="-306.522" font-family="Monaco" font-size="10.00"> </text>
<polyline fill="none" stroke="black" points="171.994,-297.187 404.029,-297.187 "/>
<text text-anchor="start" x="179.994" y="-285.187" font-family="Monaco" font-size="10.00">+ ~IPolyhedralSurfaceComponentItem()</text>
<text text-anchor="start" x="179.994" y="-271.852" font-family="Monaco" font-size="10.00">+ patchDimension()</text>
<text text-anchor="start" x="179.994" y="-258.517" font-family="Monaco" font-size="10.00">+ polyhedralSurface()</text>
<text text-anchor="start" x="179.994" y="-245.182" font-family="Monaco" font-size="10.00">+ geometry()</text>
</a>
</g>
</g>
<!-- Node3&#45;&gt;Node7 -->
<g id="edge7" class="edge"><title>Node3&#45;&gt;Node7</title>
<path fill="none" stroke="midnightblue" d="M220.323,-388.544C228.615,-377.148 237.428,-365.037 245.858,-353.451"/>
<polygon fill="none" stroke="midnightblue" points="217.444,-386.552 214.391,-396.697 223.104,-390.671 217.444,-386.552"/>
</g>
<!-- Node4 -->
<g id="node4" class="node"><title>Node4</title>
<g id="a_node4"><a xlink:href="class_hydro_couple_1_1_i_identity.html" target="_top" xlink:title="IIdentity interface class defines a method to get the Id of an HydroCouple entity. ">
<polygon fill="white" stroke="black" points="108,-524.534 108,-601.874 256.022,-601.874 256.022,-524.534 108,-524.534"/>
<text text-anchor="middle" x="182.011" y="-589.874" font-family="Monaco" font-size="10.00">HydroCouple::IIdentity</text>
<polyline fill="none" stroke="black" points="108,-580.539 256.022,-580.539 "/>
<text text-anchor="middle" x="182.011" y="-568.539" font-family="Monaco" font-size="10.00"> </text>
<polyline fill="none" stroke="black" points="108,-559.204 256.022,-559.204 "/>
<text text-anchor="start" x="116" y="-547.204" font-family="Monaco" font-size="10.00">+ ~IIdentity()</text>
<text text-anchor="start" x="116" y="-533.869" font-family="Monaco" font-size="10.00">+ id()</text>
</a>
</g>
</g>
<!-- Node4&#45;&gt;Node3 -->
<g id="edge3" class="edge"><title>Node4&#45;&gt;Node3</title>
<path fill="none" stroke="midnightblue" d="M182.011,-514.214C182.011,-505.516 182.011,-496.476 182.011,-487.877"/>
<polygon fill="none" stroke="midnightblue" points="178.511,-514.222 182.011,-524.222 185.511,-514.222 178.511,-514.222"/>
</g>
<!-- Node5 -->
<g id="node5" class="node"><title>Node5</title>
<g id="a_node5"><a xlink:href="class_hydro_couple_1_1_i_description.html" target="_top" xlink:title="IDescription interface class provides descriptive information on a HydroCouple object. ">
<polygon fill="white" stroke="black" points="98.999,-638.874 98.999,-756.219 265.023,-756.219 265.023,-638.874 98.999,-638.874"/>
<text text-anchor="middle" x="182.011" y="-744.219" font-family="Monaco" font-size="10.00">HydroCouple::IDescription</text>
<polyline fill="none" stroke="black" points="98.999,-734.884 265.023,-734.884 "/>
<text text-anchor="middle" x="182.011" y="-722.884" font-family="Monaco" font-size="10.00"> </text>
<polyline fill="none" stroke="black" points="98.999,-713.549 265.023,-713.549 "/>
<text text-anchor="start" x="106.999" y="-701.549" font-family="Monaco" font-size="10.00">+ ~IDescription()</text>
<text text-anchor="start" x="106.999" y="-688.214" font-family="Monaco" font-size="10.00">+ getCaption()</text>
<text text-anchor="start" x="106.999" y="-674.879" font-family="Monaco" font-size="10.00">+ setCaption()</text>
<text text-anchor="start" x="106.999" y="-661.544" font-family="Monaco" font-size="10.00">+ getDescription()</text>
<text text-anchor="start" x="106.999" y="-648.209" font-family="Monaco" font-size="10.00">+ setDescription()</text>
</a>
</g>
</g>
<!-- Node5&#45;&gt;Node4 -->
<g id="edge4" class="edge"><title>Node5&#45;&gt;Node4</title>
<path fill="none" stroke="midnightblue" d="M182.011,-628.308C182.011,-619.269 182.011,-610.282 182.011,-602.022"/>
<polygon fill="none" stroke="midnightblue" points="178.511,-628.499 182.011,-638.499 185.511,-628.499 178.511,-628.499"/>
</g>
<!-- Node6 -->
<g id="node6" class="node"><title>Node6</title>
<g id="a_node6"><a xlink:href="class_hydro_couple_1_1_i_property_changed.html" target="_top" xlink:title="IPropertyChanged interface is used to emit signal/event when a property of an object changes...">
<polygon fill="white" stroke="black" points="86.9971,-793.219 86.9971,-857.224 277.025,-857.224 277.025,-793.219 86.9971,-793.219"/>
<text text-anchor="middle" x="182.011" y="-845.224" font-family="Monaco" font-size="10.00">HydroCouple::IPropertyChanged</text>
<polyline fill="none" stroke="black" points="86.9971,-835.889 277.025,-835.889 "/>
<text text-anchor="middle" x="182.011" y="-823.889" font-family="Monaco" font-size="10.00"> </text>
<polyline fill="none" stroke="black" points="86.9971,-814.554 277.025,-814.554 "/>
<text text-anchor="start" x="94.9971" y="-802.554" font-family="Monaco" font-size="10.00">+ ~IPropertyChanged()</text>
</a>
</g>
</g>
<!-- Node6&#45;&gt;Node5 -->
<g id="edge5" class="edge"><title>Node6&#45;&gt;Node5</title>
<path fill="none" stroke="midnightblue" d="M182.011,-782.898C182.011,-774.513 182.011,-765.547 182.011,-756.705"/>
<polygon fill="none" stroke="midnightblue" points="178.511,-783.155 182.011,-793.156 185.511,-783.156 178.511,-783.155"/>
</g>
<!-- Node7&#45;&gt;Node1 -->
<g id="edge6" class="edge"><title>Node7&#45;&gt;Node1</title>
<path fill="none" stroke="midnightblue" d="M237.663,-227.493C228.497,-215.472 219.226,-203.313 210.948,-192.457"/>
<polygon fill="none" stroke="midnightblue" points="235.132,-229.945 243.979,-235.775 240.698,-225.7 235.132,-229.945"/>
</g>
</g>
</svg>
        <g id="navigator" transform="translate(0 0)" fill="#404254">
                <rect fill="#f2f5e9" fill-opacity="0.5" stroke="#606060" stroke-width=".5" x="0" y="0" width="60" height="60"/>
                <use id="zoomplus" xlink:href="#zoomPlus" x="17" y="9" onmousedown="handleZoom(evt,'in')"/>
                <use id="zoomminus" xlink:href="#zoomMin" x="42" y="9" onmousedown="handleZoom(evt,'out')"/>
                <use id="reset" xlink:href="#resetDef" x="30" y="36" onmousedown="handleReset()"/>
                <g id="arrowUp" xlink:href="#dirArrow" transform="translate(30 24)" onmousedown="handlePan(0,-1)">
                  <use xlink:href="#rim" fill="#404040">
                        <set attributeName="fill" to="#808080" begin="arrowUp.mouseover" end="arrowUp.mouseout"/>
                  </use>
                  <path fill="none" stroke="white" stroke-width="1.5" d="M0,-3.0v7 M-2.5,-0.5L0,-3.0L2.5,-0.5"/>
                </g>
                <g id="arrowRight" xlink:href="#dirArrow" transform="rotate(90) translate(36 -43)" onmousedown="handlePan(1,0)">
                  <use xlink:href="#rim" fill="#404040">
                        <set attributeName="fill" to="#808080" begin="arrowRight.mouseover" end="arrowRight.mouseout"/>
                  </use>
                  <path fill="none" stroke="white" stroke-width="1.5" d="M0,-3.0v7 M-2.5,-0.5L0,-3.0L2.5,-0.5"/>
                </g>
                <g id="arrowDown" xlink:href="#dirArrow" transform="rotate(180) translate(-30 -48)" onmousedown="handlePan(0,1)">
                  <use xlink:href="#rim" fill="#404040">
                        <set attributeName="fill" to="#808080" begin="arrowDown.mouseover" end="arrowDown.mouseout"/>
                  </use>
                  <path fill="none" stroke="white" stroke-width="1.5" d="M0,-3.0v7 M-2.5,-0.5L0,-3.0L2.5,-0.5"/>
                </g>
                <g id="arrowLeft" xlink:href="#dirArrow" transform="rotate(270) translate(-36 17)" onmousedown="handlePan(-1,0)">
                  <use xlink:href="#rim" fill="#404040">
                        <set attributeName="fill" to="#808080" begin="arrowLeft.mouseover" end="arrowLeft.mouseout"/>
                  </use>
                  <path fill="none" stroke="white" stroke-width="1.5" d="M0,-3.0v7 M-2.5,-0.5L0,-3.0L2.5,-0.5"/>
                </g>
        </g>
        <svg viewBox="0 0 15 15" width="100%" height="30px" preserveAspectRatio="xMaxYMin meet">
         <g id="arrow_out" transform="scale(0.3 0.3)">
          <a xlink:href="class_hydro_couple_1_1_spatio_temporal_1_1_i_time_polyhedral_surface_component_item__inherit__graph_org.svg" target="_base">
           <rect id="button" ry="5" rx="5" y="6" x="6" height="38" width="38"
                fill="#f2f5e9" fill-opacity="0.5" stroke="#606060" stroke-width="1.0"/>
           <path id="arrow"
             d="M 11.500037,31.436501 C 11.940474,20.09759 22.043105,11.32322 32.158766,21.979434 L 37.068811,17.246167 C 37.068811,17.246167 37.088388,32 37.088388,32 L 22.160133,31.978069 C 22.160133,31.978069 26.997745,27.140456 26.997745,27.140456 C 18.528582,18.264221 13.291696,25.230495 11.500037,31.436501 z"
             style="fill:#404040;"/>
          </a>
         </g>
        </svg>
</svg>
