<?xml version="1.0" encoding="UTF-8" standalone="no"?>
<!DOCTYPE svg PUBLIC "-//W3C//DTD SVG 1.1//EN"
 "http://www.w3.org/Graphics/SVG/1.1/DTD/svg11.dtd">
<!-- Generated by graphviz version 2.38.0 (20140413.2041)
 -->
<!-- Title: HydroCouple::Spatial::IRegularGrid3DExhangeItem Pages: 1 -->
<svg width="391pt" height="791pt"
 viewBox="0.00 0.00 391.03 791.39" xmlns="http://www.w3.org/2000/svg" xmlns:xlink="http://www.w3.org/1999/xlink">
<g id="graph0" class="graph" transform="scale(1 1) rotate(0) translate(4 787.389)">
<title>HydroCouple::Spatial::IRegularGrid3DExhangeItem</title>
<!-- Node1 -->
<g id="node1" class="node"><title>Node1</title>
<polygon fill="#bfbfbf" stroke="black" points="99.0005,-0.5 99.0005,-77.8398 295.03,-77.8398 295.03,-0.5 99.0005,-0.5"/>
<text text-anchor="start" x="107" y="-65.8398" font-family="Monaco" font-size="10.00">HydroCouple::Spatial</text>
<text text-anchor="middle" x="197.015" y="-52.5049" font-family="Monaco" font-size="10.00">::IRegularGrid3DExhangeItem</text>
<polyline fill="none" stroke="black" points="99.0005,-43.1699 295.03,-43.1699 "/>
<text text-anchor="middle" x="197.015" y="-31.1699" font-family="Monaco" font-size="10.00"> </text>
<polyline fill="none" stroke="black" points="99.0005,-21.835 295.03,-21.835 "/>
<text text-anchor="start" x="107" y="-9.83496" font-family="Monaco" font-size="10.00">+ ~IRegularGrid3DExhangeItem()</text>
</g>
<!-- Node2 -->
<g id="node2" class="node"><title>Node2</title>
<g id="a_node2"><a xlink:href="class_hydro_couple_1_1_i_exchange_item.html" target="_top" xlink:title="IExchangeItem the base data item the can be exchanged between components at runtime. ">
<polygon fill="none" stroke="black" points="15.0024,-114.84 15.0024,-192.18 187.028,-192.18 187.028,-114.84 15.0024,-114.84"/>
<text text-anchor="middle" x="101.015" y="-180.18" font-family="Monaco" font-size="10.00">HydroCouple::IExchangeItem</text>
<polyline fill="none" stroke="black" points="15.0024,-170.845 187.028,-170.845 "/>
<text text-anchor="middle" x="101.015" y="-158.845" font-family="Monaco" font-size="10.00"> </text>
<polyline fill="none" stroke="black" points="15.0024,-149.51 187.028,-149.51 "/>
<text text-anchor="start" x="23.0024" y="-137.51" font-family="Monaco" font-size="10.00">+ ~IExchangeItem()</text>
<text text-anchor="start" x="23.0024" y="-124.175" font-family="Monaco" font-size="10.00">+ itemChanged()</text>
</a>
</g>
</g>
<!-- Node2&#45;&gt;Node1 -->
<g id="edge1" class="edge"><title>Node2&#45;&gt;Node1</title>
<path fill="none" stroke="midnightblue" d="M139.781,-107.145C148.053,-97.4661 156.704,-87.3418 164.703,-77.9816"/>
<polygon fill="none" stroke="midnightblue" points="137.085,-104.914 133.249,-114.79 142.406,-109.461 137.085,-104.914"/>
</g>
<!-- Node3 -->
<g id="node3" class="node"><title>Node3</title>
<g id="a_node3"><a xlink:href="class_hydro_couple_1_1_i_component_data_item.html" target="_top" xlink:title="IComponentItem is a fundamental unit of data for a component. ">
<polygon fill="none" stroke="black" points="0,-229.18 0,-413.199 202.03,-413.199 202.03,-229.18 0,-229.18"/>
<text text-anchor="middle" x="101.015" y="-401.199" font-family="Monaco" font-size="10.00">HydroCouple::IComponentDataItem</text>
<polyline fill="none" stroke="black" points="0,-391.864 202.03,-391.864 "/>
<text text-anchor="middle" x="101.015" y="-379.864" font-family="Monaco" font-size="10.00"> </text>
<polyline fill="none" stroke="black" points="0,-370.529 202.03,-370.529 "/>
<text text-anchor="start" x="8" y="-358.529" font-family="Monaco" font-size="10.00">+ ~IComponentDataItem()</text>
<text text-anchor="start" x="8" y="-345.194" font-family="Monaco" font-size="10.00">+ modelComponent()</text>
<text text-anchor="start" x="8" y="-331.859" font-family="Monaco" font-size="10.00">+ dimensions()</text>
<text text-anchor="start" x="8" y="-318.524" font-family="Monaco" font-size="10.00">+ valueDefinition()</text>
<text text-anchor="start" x="8" y="-305.189" font-family="Monaco" font-size="10.00">+ getValue()</text>
<text text-anchor="start" x="8" y="-291.854" font-family="Monaco" font-size="10.00">+ getValues()</text>
<text text-anchor="start" x="8" y="-278.52" font-family="Monaco" font-size="10.00">+ getValues()</text>
<text text-anchor="start" x="8" y="-265.185" font-family="Monaco" font-size="10.00">+ setValue()</text>
<text text-anchor="start" x="8" y="-251.85" font-family="Monaco" font-size="10.00">+ setValues()</text>
<text text-anchor="start" x="8" y="-238.515" font-family="Monaco" font-size="10.00">+ setValues()</text>
</a>
</g>
</g>
<!-- Node3&#45;&gt;Node2 -->
<g id="edge2" class="edge"><title>Node3&#45;&gt;Node2</title>
<path fill="none" stroke="midnightblue" d="M101.015,-218.885C101.015,-209.559 101.015,-200.562 101.015,-192.4"/>
<polygon fill="none" stroke="midnightblue" points="97.5152,-219.11 101.015,-229.11 104.515,-219.11 97.5152,-219.11"/>
</g>
<!-- Node4 -->
<g id="node4" class="node"><title>Node4</title>
<g id="a_node4"><a xlink:href="class_hydro_couple_1_1_i_identity.html" target="_top" xlink:title="IIdentity interface class defines a method to get the Id of an HydroCouple entity. ">
<polygon fill="none" stroke="black" points="27.0044,-450.199 27.0044,-527.539 175.026,-527.539 175.026,-450.199 27.0044,-450.199"/>
<text text-anchor="middle" x="101.015" y="-515.539" font-family="Monaco" font-size="10.00">HydroCouple::IIdentity</text>
<polyline fill="none" stroke="black" points="27.0044,-506.204 175.026,-506.204 "/>
<text text-anchor="middle" x="101.015" y="-494.204" font-family="Monaco" font-size="10.00"> </text>
<polyline fill="none" stroke="black" points="27.0044,-484.869 175.026,-484.869 "/>
<text text-anchor="start" x="35.0044" y="-472.869" font-family="Monaco" font-size="10.00">+ ~IIdentity()</text>
<text text-anchor="start" x="35.0044" y="-459.534" font-family="Monaco" font-size="10.00">+ id()</text>
</a>
</g>
</g>
<!-- Node4&#45;&gt;Node3 -->
<g id="edge3" class="edge"><title>Node4&#45;&gt;Node3</title>
<path fill="none" stroke="midnightblue" d="M101.015,-439.617C101.015,-431.264 101.015,-422.338 101.015,-413.28"/>
<polygon fill="none" stroke="midnightblue" points="97.5152,-439.859 101.015,-449.859 104.515,-439.859 97.5152,-439.859"/>
</g>
<!-- Node5 -->
<g id="node5" class="node"><title>Node5</title>
<g id="a_node5"><a xlink:href="class_hydro_couple_1_1_i_description.html" target="_top" xlink:title="IDescription interface class provides descriptive information on a HydroCouple object. ">
<polygon fill="none" stroke="black" points="18.0029,-564.539 18.0029,-681.884 184.027,-681.884 184.027,-564.539 18.0029,-564.539"/>
<text text-anchor="middle" x="101.015" y="-669.884" font-family="Monaco" font-size="10.00">HydroCouple::IDescription</text>
<polyline fill="none" stroke="black" points="18.0029,-660.549 184.027,-660.549 "/>
<text text-anchor="middle" x="101.015" y="-648.549" font-family="Monaco" font-size="10.00"> </text>
<polyline fill="none" stroke="black" points="18.0029,-639.214 184.027,-639.214 "/>
<text text-anchor="start" x="26.0029" y="-627.214" font-family="Monaco" font-size="10.00">+ ~IDescription()</text>
<text text-anchor="start" x="26.0029" y="-613.879" font-family="Monaco" font-size="10.00">+ caption()</text>
<text text-anchor="start" x="26.0029" y="-600.544" font-family="Monaco" font-size="10.00">+ setCaption()</text>
<text text-anchor="start" x="26.0029" y="-587.209" font-family="Monaco" font-size="10.00">+ description()</text>
<text text-anchor="start" x="26.0029" y="-573.874" font-family="Monaco" font-size="10.00">+ setDescription()</text>
</a>
</g>
</g>
<!-- Node5&#45;&gt;Node4 -->
<g id="edge4" class="edge"><title>Node5&#45;&gt;Node4</title>
<path fill="none" stroke="midnightblue" d="M101.015,-553.973C101.015,-544.934 101.015,-535.947 101.015,-527.687"/>
<polygon fill="none" stroke="midnightblue" points="97.5152,-554.164 101.015,-564.164 104.515,-554.164 97.5152,-554.164"/>
</g>
<!-- Node6 -->
<g id="node6" class="node"><title>Node6</title>
<g id="a_node6"><a xlink:href="class_hydro_couple_1_1_i_property_changed.html" target="_top" xlink:title="IPropertyChanged interface is used to emit signal/event when a property of an object changes...">
<polygon fill="none" stroke="black" points="6.00098,-718.884 6.00098,-782.889 196.029,-782.889 196.029,-718.884 6.00098,-718.884"/>
<text text-anchor="middle" x="101.015" y="-770.889" font-family="Monaco" font-size="10.00">HydroCouple::IPropertyChanged</text>
<polyline fill="none" stroke="black" points="6.00098,-761.554 196.029,-761.554 "/>
<text text-anchor="middle" x="101.015" y="-749.554" font-family="Monaco" font-size="10.00"> </text>
<polyline fill="none" stroke="black" points="6.00098,-740.219 196.029,-740.219 "/>
<text text-anchor="start" x="14.001" y="-728.219" font-family="Monaco" font-size="10.00">+ ~IPropertyChanged()</text>
</a>
</g>
</g>
<!-- Node6&#45;&gt;Node5 -->
<g id="edge5" class="edge"><title>Node6&#45;&gt;Node5</title>
<path fill="none" stroke="midnightblue" d="M101.015,-708.563C101.015,-700.178 101.015,-691.212 101.015,-682.37"/>
<polygon fill="none" stroke="midnightblue" points="97.5152,-708.821 101.015,-718.821 104.515,-708.821 97.5152,-708.821"/>
</g>
<!-- Node7 -->
<g id="node7" class="node"><title>Node7</title>
<polygon fill="none" stroke="#bfbfbf" points="205.002,-121.507 205.002,-185.512 383.028,-185.512 383.028,-121.507 205.002,-121.507"/>
<text text-anchor="middle" x="294.015" y="-173.512" font-family="Monaco" font-size="10.00">IRegularGrid3DComponentItem</text>
<polyline fill="none" stroke="#bfbfbf" points="205.002,-164.177 383.028,-164.177 "/>
<text text-anchor="middle" x="294.015" y="-152.177" font-family="Monaco" font-size="10.00"> </text>
<polyline fill="none" stroke="#bfbfbf" points="205.002,-142.842 383.028,-142.842 "/>
<text text-anchor="middle" x="294.015" y="-130.842" font-family="Monaco" font-size="10.00"> </text>
</g>
<!-- Node7&#45;&gt;Node1 -->
<g id="edge6" class="edge"><title>Node7&#45;&gt;Node1</title>
<path fill="none" stroke="midnightblue" d="M260.308,-113.472C250.405,-102.003 239.592,-89.4806 229.751,-78.0831"/>
<polygon fill="none" stroke="midnightblue" points="257.811,-115.935 266.995,-121.217 263.109,-111.361 257.811,-115.935"/>
</g>
</g>
</svg>
