<?xml version="1.0" encoding="UTF-8" standalone="no"?>
<!DOCTYPE svg PUBLIC "-//W3C//DTD SVG 1.1//EN"
 "http://www.w3.org/Graphics/SVG/1.1/DTD/svg11.dtd">
<!-- Generated by graphviz version 2.38.0 (20140413.2041)
 -->
<!-- Title: HydroCouple::SpatioTemporal::ITimeGeometryComponentDataItem Pages: 1 -->
<svg width="234pt" height="951pt"
 viewBox="0.00 0.00 234.03 951.41" xmlns="http://www.w3.org/2000/svg" xmlns:xlink="http://www.w3.org/1999/xlink">
<g id="graph0" class="graph" transform="scale(1 1) rotate(0) translate(4 947.408)">
<title>HydroCouple::SpatioTemporal::ITimeGeometryComponentDataItem</title>
<polygon fill="white" stroke="none" points="-4,4 -4,-947.408 230.034,-947.408 230.034,4 -4,4"/>
<!-- Node1 -->
<g id="node1" class="node"><title>Node1</title>
<polygon fill="#bfbfbf" stroke="black" points="0,-114.84 0,-352.199 226.034,-352.199 226.034,-114.84 0,-114.84"/>
<text text-anchor="start" x="8" y="-340.199" font-family="Monaco" font-size="10.00">HydroCouple::SpatioTemporal</text>
<text text-anchor="middle" x="113.017" y="-326.864" font-family="Monaco" font-size="10.00">::ITimeGeometryComponentDataItem</text>
<polyline fill="none" stroke="black" points="0,-317.529 226.034,-317.529 "/>
<text text-anchor="middle" x="113.017" y="-305.529" font-family="Monaco" font-size="10.00"> </text>
<polyline fill="none" stroke="black" points="0,-296.194 226.034,-296.194 "/>
<text text-anchor="start" x="8" y="-284.194" font-family="Monaco" font-size="10.00">+ ~ITimeGeometryComponentDataItem()</text>
<text text-anchor="start" x="8" y="-270.859" font-family="Monaco" font-size="10.00">+ geometryCollection()</text>
<text text-anchor="start" x="8" y="-257.524" font-family="Monaco" font-size="10.00">+ geometry()</text>
<text text-anchor="start" x="8" y="-244.189" font-family="Monaco" font-size="10.00">+ geometryDimension()</text>
<text text-anchor="start" x="8" y="-230.854" font-family="Monaco" font-size="10.00">+ times()</text>
<text text-anchor="start" x="8" y="-217.52" font-family="Monaco" font-size="10.00">+ timeSpan()</text>
<text text-anchor="start" x="8" y="-204.185" font-family="Monaco" font-size="10.00">+ timeDimension()</text>
<text text-anchor="start" x="8" y="-190.85" font-family="Monaco" font-size="10.00">+ getValue()</text>
<text text-anchor="start" x="8" y="-177.515" font-family="Monaco" font-size="10.00">+ getValues()</text>
<text text-anchor="start" x="8" y="-164.18" font-family="Monaco" font-size="10.00">+ getValues()</text>
<text text-anchor="start" x="8" y="-150.845" font-family="Monaco" font-size="10.00">+ setValue()</text>
<text text-anchor="start" x="8" y="-137.51" font-family="Monaco" font-size="10.00">+ setValues()</text>
<text text-anchor="start" x="8" y="-124.175" font-family="Monaco" font-size="10.00">+ setValues()</text>
</g>
<!-- Node6 -->
<g id="node6" class="node"><title>Node6</title>
<g id="a_node6"><a xlink:href="class_hydro_couple_1_1_spatio_temporal_1_1_i_time_geometry_exchange_item.html" target="_top" xlink:title="The ITimeGeometryExchangeItem class. ">
<polygon fill="white" stroke="black" points="15.0024,-0.5 15.0024,-77.8398 211.032,-77.8398 211.032,-0.5 15.0024,-0.5"/>
<text text-anchor="start" x="23.0024" y="-65.8398" font-family="Monaco" font-size="10.00">HydroCouple::SpatioTemporal</text>
<text text-anchor="middle" x="113.017" y="-52.5049" font-family="Monaco" font-size="10.00">::ITimeGeometryExchangeItem</text>
<polyline fill="none" stroke="black" points="15.0024,-43.1699 211.032,-43.1699 "/>
<text text-anchor="middle" x="113.017" y="-31.1699" font-family="Monaco" font-size="10.00"> </text>
<polyline fill="none" stroke="black" points="15.0024,-21.835 211.032,-21.835 "/>
<text text-anchor="start" x="23.0024" y="-9.83496" font-family="Monaco" font-size="10.00">+ ~ITimeGeometryExchangeItem()</text>
</a>
</g>
</g>
<!-- Node1&#45;&gt;Node6 -->
<g id="edge5" class="edge"><title>Node1&#45;&gt;Node6</title>
<path fill="none" stroke="midnightblue" d="M113.017,-104.691C113.017,-95.1245 113.017,-86.028 113.017,-77.8431"/>
<polygon fill="none" stroke="midnightblue" points="109.517,-104.813 113.017,-114.813 116.517,-104.813 109.517,-104.813"/>
</g>
<!-- Node2 -->
<g id="node2" class="node"><title>Node2</title>
<g id="a_node2"><a xlink:href="class_hydro_couple_1_1_i_component_data_item.html" target="_top" xlink:title="IComponentItem is a fundamental unit of data for a component. ">
<polygon fill="white" stroke="black" points="12.002,-389.199 12.002,-573.219 214.032,-573.219 214.032,-389.199 12.002,-389.199"/>
<text text-anchor="middle" x="113.017" y="-561.219" font-family="Monaco" font-size="10.00">HydroCouple::IComponentDataItem</text>
<polyline fill="none" stroke="black" points="12.002,-551.884 214.032,-551.884 "/>
<text text-anchor="middle" x="113.017" y="-539.884" font-family="Monaco" font-size="10.00"> </text>
<polyline fill="none" stroke="black" points="12.002,-530.549 214.032,-530.549 "/>
<text text-anchor="start" x="20.002" y="-518.549" font-family="Monaco" font-size="10.00">+ ~IComponentDataItem()</text>
<text text-anchor="start" x="20.002" y="-505.214" font-family="Monaco" font-size="10.00">+ modelComponent()</text>
<text text-anchor="start" x="20.002" y="-491.879" font-family="Monaco" font-size="10.00">+ dimensions()</text>
<text text-anchor="start" x="20.002" y="-478.544" font-family="Monaco" font-size="10.00">+ valueDefinition()</text>
<text text-anchor="start" x="20.002" y="-465.209" font-family="Monaco" font-size="10.00">+ getValue()</text>
<text text-anchor="start" x="20.002" y="-451.874" font-family="Monaco" font-size="10.00">+ getValues()</text>
<text text-anchor="start" x="20.002" y="-438.539" font-family="Monaco" font-size="10.00">+ getValues()</text>
<text text-anchor="start" x="20.002" y="-425.204" font-family="Monaco" font-size="10.00">+ setValue()</text>
<text text-anchor="start" x="20.002" y="-411.869" font-family="Monaco" font-size="10.00">+ setValues()</text>
<text text-anchor="start" x="20.002" y="-398.534" font-family="Monaco" font-size="10.00">+ setValues()</text>
</a>
</g>
</g>
<!-- Node2&#45;&gt;Node1 -->
<g id="edge1" class="edge"><title>Node2&#45;&gt;Node1</title>
<path fill="none" stroke="midnightblue" d="M113.017,-378.841C113.017,-370.056 113.017,-361.12 113.017,-352.22"/>
<polygon fill="none" stroke="midnightblue" points="109.517,-379.072 113.017,-389.072 116.517,-379.072 109.517,-379.072"/>
</g>
<!-- Node3 -->
<g id="node3" class="node"><title>Node3</title>
<g id="a_node3"><a xlink:href="class_hydro_couple_1_1_i_identity.html" target="_top" xlink:title="IIdentity interface class defines a method to get the Id of an HydroCouple entity. ">
<polygon fill="white" stroke="black" points="39.0063,-610.219 39.0063,-687.559 187.028,-687.559 187.028,-610.219 39.0063,-610.219"/>
<text text-anchor="middle" x="113.017" y="-675.559" font-family="Monaco" font-size="10.00">HydroCouple::IIdentity</text>
<polyline fill="none" stroke="black" points="39.0063,-666.224 187.028,-666.224 "/>
<text text-anchor="middle" x="113.017" y="-654.224" font-family="Monaco" font-size="10.00"> </text>
<polyline fill="none" stroke="black" points="39.0063,-644.889 187.028,-644.889 "/>
<text text-anchor="start" x="47.0063" y="-632.889" font-family="Monaco" font-size="10.00">+ ~IIdentity()</text>
<text text-anchor="start" x="47.0063" y="-619.554" font-family="Monaco" font-size="10.00">+ id()</text>
</a>
</g>
</g>
<!-- Node3&#45;&gt;Node2 -->
<g id="edge2" class="edge"><title>Node3&#45;&gt;Node2</title>
<path fill="none" stroke="midnightblue" d="M113.017,-599.636C113.017,-591.283 113.017,-582.358 113.017,-573.3"/>
<polygon fill="none" stroke="midnightblue" points="109.517,-599.878 113.017,-609.878 116.517,-599.878 109.517,-599.878"/>
</g>
<!-- Node4 -->
<g id="node4" class="node"><title>Node4</title>
<g id="a_node4"><a xlink:href="class_hydro_couple_1_1_i_description.html" target="_top" xlink:title="IDescription interface class provides descriptive information on a HydroCouple object. ">
<polygon fill="white" stroke="black" points="30.0049,-724.559 30.0049,-841.903 196.029,-841.903 196.029,-724.559 30.0049,-724.559"/>
<text text-anchor="middle" x="113.017" y="-829.903" font-family="Monaco" font-size="10.00">HydroCouple::IDescription</text>
<polyline fill="none" stroke="black" points="30.0049,-820.568 196.029,-820.568 "/>
<text text-anchor="middle" x="113.017" y="-808.568" font-family="Monaco" font-size="10.00"> </text>
<polyline fill="none" stroke="black" points="30.0049,-799.233 196.029,-799.233 "/>
<text text-anchor="start" x="38.0049" y="-787.233" font-family="Monaco" font-size="10.00">+ ~IDescription()</text>
<text text-anchor="start" x="38.0049" y="-773.898" font-family="Monaco" font-size="10.00">+ caption()</text>
<text text-anchor="start" x="38.0049" y="-760.563" font-family="Monaco" font-size="10.00">+ setCaption()</text>
<text text-anchor="start" x="38.0049" y="-747.229" font-family="Monaco" font-size="10.00">+ description()</text>
<text text-anchor="start" x="38.0049" y="-733.894" font-family="Monaco" font-size="10.00">+ setDescription()</text>
</a>
</g>
</g>
<!-- Node4&#45;&gt;Node3 -->
<g id="edge3" class="edge"><title>Node4&#45;&gt;Node3</title>
<path fill="none" stroke="midnightblue" d="M113.017,-713.993C113.017,-704.954 113.017,-695.966 113.017,-687.706"/>
<polygon fill="none" stroke="midnightblue" points="109.517,-714.184 113.017,-724.184 116.517,-714.184 109.517,-714.184"/>
</g>
<!-- Node5 -->
<g id="node5" class="node"><title>Node5</title>
<g id="a_node5"><a xlink:href="class_hydro_couple_1_1_i_property_changed.html" target="_top" xlink:title="IPropertyChanged interface is used to emit signal/event when a property of an object changes...">
<polygon fill="white" stroke="black" points="18.0029,-878.903 18.0029,-942.908 208.031,-942.908 208.031,-878.903 18.0029,-878.903"/>
<text text-anchor="middle" x="113.017" y="-930.908" font-family="Monaco" font-size="10.00">HydroCouple::IPropertyChanged</text>
<polyline fill="none" stroke="black" points="18.0029,-921.573 208.031,-921.573 "/>
<text text-anchor="middle" x="113.017" y="-909.573" font-family="Monaco" font-size="10.00"> </text>
<polyline fill="none" stroke="black" points="18.0029,-900.238 208.031,-900.238 "/>
<text text-anchor="start" x="26.0029" y="-888.238" font-family="Monaco" font-size="10.00">+ ~IPropertyChanged()</text>
</a>
</g>
</g>
<!-- Node5&#45;&gt;Node4 -->
<g id="edge4" class="edge"><title>Node5&#45;&gt;Node4</title>
<path fill="none" stroke="midnightblue" d="M113.017,-868.583C113.017,-860.198 113.017,-851.231 113.017,-842.389"/>
<polygon fill="none" stroke="midnightblue" points="109.517,-868.84 113.017,-878.84 116.517,-868.84 109.517,-868.84"/>
</g>
</g>
</svg>
