<?xml version="1.0" encoding="UTF-8" standalone="no"?>
<!DOCTYPE svg PUBLIC "-//W3C//DTD SVG 1.1//EN"
 "http://www.w3.org/Graphics/SVG/1.1/DTD/svg11.dtd">
<!-- Generated by graphviz version 2.38.0 (20140413.2041)
 -->
<!-- Title: HydroCouple::Spatial::IGeometryComponentItem Pages: 1 -->
<svg width="584pt" height="866pt"
 viewBox="0.00 0.00 584.02 865.72" xmlns="http://www.w3.org/2000/svg" xmlns:xlink="http://www.w3.org/1999/xlink">
<g id="graph0" class="graph" transform="scale(1 1) rotate(0) translate(4 861.724)">
<title>HydroCouple::Spatial::IGeometryComponentItem</title>
<polygon fill="white" stroke="none" points="-4,4 -4,-861.724 580.025,-861.724 580.025,4 -4,4"/>
<!-- Node1 -->
<g id="node1" class="node"><title>Node1</title>
<polygon fill="#bfbfbf" stroke="black" points="195.999,-242.515 195.999,-359.859 374.025,-359.859 374.025,-242.515 195.999,-242.515"/>
<text text-anchor="start" x="203.999" y="-347.859" font-family="Monaco" font-size="10.00">HydroCouple::Spatial</text>
<text text-anchor="middle" x="285.012" y="-334.524" font-family="Monaco" font-size="10.00">::IGeometryComponentItem</text>
<polyline fill="none" stroke="black" points="195.999,-325.189 374.025,-325.189 "/>
<text text-anchor="middle" x="285.012" y="-313.189" font-family="Monaco" font-size="10.00"> </text>
<polyline fill="none" stroke="black" points="195.999,-303.854 374.025,-303.854 "/>
<text text-anchor="start" x="203.999" y="-291.854" font-family="Monaco" font-size="10.00">+ ~IGeometryComponentItem()</text>
<text text-anchor="start" x="203.999" y="-278.52" font-family="Monaco" font-size="10.00">+ geometryDimension()</text>
<text text-anchor="start" x="203.999" y="-265.185" font-family="Monaco" font-size="10.00">+ geometryCollection()</text>
<text text-anchor="start" x="203.999" y="-251.85" font-family="Monaco" font-size="10.00">+ geometry()</text>
</g>
<!-- Node6 -->
<g id="node6" class="node"><title>Node6</title>
<g id="a_node6"><a xlink:href="class_hydro_couple_1_1_spatial_1_1_i_geometry_argument.html" target="_top" xlink:title="An IGeometryArgument class is an IArgument class with a geometry component. ">
<polygon fill="white" stroke="black" points="0,-114.84 0,-205.515 166.024,-205.515 166.024,-114.84 0,-114.84"/>
<text text-anchor="start" x="8" y="-193.515" font-family="Monaco" font-size="10.00">HydroCouple::Spatial</text>
<text text-anchor="middle" x="83.0122" y="-180.18" font-family="Monaco" font-size="10.00">::IGeometryArgument</text>
<polyline fill="none" stroke="black" points="0,-170.845 166.024,-170.845 "/>
<text text-anchor="middle" x="83.0122" y="-158.845" font-family="Monaco" font-size="10.00"> </text>
<polyline fill="none" stroke="black" points="0,-149.51 166.024,-149.51 "/>
<text text-anchor="start" x="8" y="-137.51" font-family="Monaco" font-size="10.00">+ ~IGeometryArgument()</text>
<text text-anchor="start" x="8" y="-124.175" font-family="Monaco" font-size="10.00">+ setGeometryCollection()</text>
</a>
</g>
</g>
<!-- Node1&#45;&gt;Node6 -->
<g id="edge5" class="edge"><title>Node1&#45;&gt;Node6</title>
<path fill="none" stroke="midnightblue" d="M192.672,-236.642C177.435,-226.156 161.933,-215.488 147.567,-205.602"/>
<polygon fill="none" stroke="midnightblue" points="190.879,-239.656 201.101,-242.442 194.847,-233.89 190.879,-239.656"/>
</g>
<!-- Node8 -->
<g id="node8" class="node"><title>Node8</title>
<g id="a_node8"><a xlink:href="class_hydro_couple_1_1_spatial_1_1_i_geometry_exchange_item.html" target="_top" xlink:title="An IExchangeItem class with a geometry component. ">
<polygon fill="white" stroke="black" points="404,-121.507 404,-198.847 576.025,-198.847 576.025,-121.507 404,-121.507"/>
<text text-anchor="start" x="412" y="-186.847" font-family="Monaco" font-size="10.00">HydroCouple::Spatial</text>
<text text-anchor="middle" x="490.012" y="-173.512" font-family="Monaco" font-size="10.00">::IGeometryExchangeItem</text>
<polyline fill="none" stroke="black" points="404,-164.177 576.025,-164.177 "/>
<text text-anchor="middle" x="490.012" y="-152.177" font-family="Monaco" font-size="10.00"> </text>
<polyline fill="none" stroke="black" points="404,-142.842 576.025,-142.842 "/>
<text text-anchor="start" x="412" y="-130.842" font-family="Monaco" font-size="10.00">+ ~IGeometryExchangeItem()</text>
</a>
</g>
</g>
<!-- Node1&#45;&gt;Node8 -->
<g id="edge7" class="edge"><title>Node1&#45;&gt;Node8</title>
<path fill="none" stroke="midnightblue" d="M378.595,-236.729C397.654,-223.805 417.127,-210.601 434.351,-198.921"/>
<polygon fill="none" stroke="midnightblue" points="376.482,-233.933 370.17,-242.442 380.411,-239.726 376.482,-233.933"/>
</g>
<!-- Node10 -->
<g id="node10" class="node"><title>Node10</title>
<g id="a_node10"><a xlink:href="class_hydro_couple_1_1_spatio_temporal_1_1_i_time_geometry_component_item.html" target="_top" xlink:title="ITimeGeometryComponentItem represents an IComponentItem with both temporal and geometric components...">
<polygon fill="white" stroke="black" points="183.997,-121.507 183.997,-198.847 386.027,-198.847 386.027,-121.507 183.997,-121.507"/>
<text text-anchor="start" x="191.997" y="-186.847" font-family="Monaco" font-size="10.00">HydroCouple::SpatioTemporal</text>
<text text-anchor="middle" x="285.012" y="-173.512" font-family="Monaco" font-size="10.00">::ITimeGeometryComponentItem</text>
<polyline fill="none" stroke="black" points="183.997,-164.177 386.027,-164.177 "/>
<text text-anchor="middle" x="285.012" y="-152.177" font-family="Monaco" font-size="10.00"> </text>
<polyline fill="none" stroke="black" points="183.997,-142.842 386.027,-142.842 "/>
<text text-anchor="start" x="191.997" y="-130.842" font-family="Monaco" font-size="10.00">+ ~ITimeGeometryComponentItem()</text>
</a>
</g>
</g>
<!-- Node1&#45;&gt;Node10 -->
<g id="edge9" class="edge"><title>Node1&#45;&gt;Node10</title>
<path fill="none" stroke="midnightblue" d="M285.012,-232.426C285.012,-220.974 285.012,-209.459 285.012,-199.125"/>
<polygon fill="none" stroke="midnightblue" points="281.512,-232.442 285.012,-242.442 288.512,-232.442 281.512,-232.442"/>
</g>
<!-- Node2 -->
<g id="node2" class="node"><title>Node2</title>
<g id="a_node2"><a xlink:href="class_hydro_couple_1_1_i_component_item.html" target="_top" xlink:title="IComponentItem is a fundamental unit of data for a component. ">
<polygon fill="white" stroke="black" points="195.999,-396.859 195.999,-487.534 374.025,-487.534 374.025,-396.859 195.999,-396.859"/>
<text text-anchor="middle" x="285.012" y="-475.534" font-family="Monaco" font-size="10.00">HydroCouple::IComponentItem</text>
<polyline fill="none" stroke="black" points="195.999,-466.199 374.025,-466.199 "/>
<text text-anchor="middle" x="285.012" y="-454.199" font-family="Monaco" font-size="10.00"> </text>
<polyline fill="none" stroke="black" points="195.999,-444.864 374.025,-444.864 "/>
<text text-anchor="start" x="203.999" y="-432.864" font-family="Monaco" font-size="10.00">+ ~IComponentItem()</text>
<text text-anchor="start" x="203.999" y="-419.529" font-family="Monaco" font-size="10.00">+ modelComponent()</text>
<text text-anchor="start" x="203.999" y="-406.194" font-family="Monaco" font-size="10.00">+ dimensions()</text>
</a>
</g>
</g>
<!-- Node2&#45;&gt;Node1 -->
<g id="edge1" class="edge"><title>Node2&#45;&gt;Node1</title>
<path fill="none" stroke="midnightblue" d="M285.012,-386.751C285.012,-378.004 285.012,-368.923 285.012,-360.098"/>
<polygon fill="none" stroke="midnightblue" points="281.512,-386.831 285.012,-396.831 288.512,-386.831 281.512,-386.831"/>
</g>
<!-- Node3 -->
<g id="node3" class="node"><title>Node3</title>
<g id="a_node3"><a xlink:href="class_hydro_couple_1_1_i_identity.html" target="_top" xlink:title="IIdentity interface class defines a method to get the Id of an HydroCouple entity. ">
<polygon fill="white" stroke="black" points="211.001,-524.534 211.001,-601.874 359.023,-601.874 359.023,-524.534 211.001,-524.534"/>
<text text-anchor="middle" x="285.012" y="-589.874" font-family="Monaco" font-size="10.00">HydroCouple::IIdentity</text>
<polyline fill="none" stroke="black" points="211.001,-580.539 359.023,-580.539 "/>
<text text-anchor="middle" x="285.012" y="-568.539" font-family="Monaco" font-size="10.00"> </text>
<polyline fill="none" stroke="black" points="211.001,-559.204 359.023,-559.204 "/>
<text text-anchor="start" x="219.001" y="-547.204" font-family="Monaco" font-size="10.00">+ ~IIdentity()</text>
<text text-anchor="start" x="219.001" y="-533.869" font-family="Monaco" font-size="10.00">+ id()</text>
</a>
</g>
</g>
<!-- Node3&#45;&gt;Node2 -->
<g id="edge2" class="edge"><title>Node3&#45;&gt;Node2</title>
<path fill="none" stroke="midnightblue" d="M285.012,-514.214C285.012,-505.516 285.012,-496.476 285.012,-487.877"/>
<polygon fill="none" stroke="midnightblue" points="281.512,-514.222 285.012,-524.222 288.512,-514.222 281.512,-514.222"/>
</g>
<!-- Node4 -->
<g id="node4" class="node"><title>Node4</title>
<g id="a_node4"><a xlink:href="class_hydro_couple_1_1_i_description.html" target="_top" xlink:title="IDescription interface class provides descriptive information on a HydroCouple object. ">
<polygon fill="white" stroke="black" points="202,-638.874 202,-756.219 368.024,-756.219 368.024,-638.874 202,-638.874"/>
<text text-anchor="middle" x="285.012" y="-744.219" font-family="Monaco" font-size="10.00">HydroCouple::IDescription</text>
<polyline fill="none" stroke="black" points="202,-734.884 368.024,-734.884 "/>
<text text-anchor="middle" x="285.012" y="-722.884" font-family="Monaco" font-size="10.00"> </text>
<polyline fill="none" stroke="black" points="202,-713.549 368.024,-713.549 "/>
<text text-anchor="start" x="210" y="-701.549" font-family="Monaco" font-size="10.00">+ ~IDescription()</text>
<text text-anchor="start" x="210" y="-688.214" font-family="Monaco" font-size="10.00">+ getCaption()</text>
<text text-anchor="start" x="210" y="-674.879" font-family="Monaco" font-size="10.00">+ setCaption()</text>
<text text-anchor="start" x="210" y="-661.544" font-family="Monaco" font-size="10.00">+ getDescription()</text>
<text text-anchor="start" x="210" y="-648.209" font-family="Monaco" font-size="10.00">+ setDescription()</text>
</a>
</g>
</g>
<!-- Node4&#45;&gt;Node3 -->
<g id="edge3" class="edge"><title>Node4&#45;&gt;Node3</title>
<path fill="none" stroke="midnightblue" d="M285.012,-628.308C285.012,-619.269 285.012,-610.282 285.012,-602.022"/>
<polygon fill="none" stroke="midnightblue" points="281.512,-628.499 285.012,-638.499 288.512,-628.499 281.512,-628.499"/>
</g>
<!-- Node5 -->
<g id="node5" class="node"><title>Node5</title>
<g id="a_node5"><a xlink:href="class_hydro_couple_1_1_i_property_changed.html" target="_top" xlink:title="IPropertyChanged interface is used to emit signal/event when a property of an object changes...">
<polygon fill="white" stroke="black" points="189.998,-793.219 189.998,-857.224 380.026,-857.224 380.026,-793.219 189.998,-793.219"/>
<text text-anchor="middle" x="285.012" y="-845.224" font-family="Monaco" font-size="10.00">HydroCouple::IPropertyChanged</text>
<polyline fill="none" stroke="black" points="189.998,-835.889 380.026,-835.889 "/>
<text text-anchor="middle" x="285.012" y="-823.889" font-family="Monaco" font-size="10.00"> </text>
<polyline fill="none" stroke="black" points="189.998,-814.554 380.026,-814.554 "/>
<text text-anchor="start" x="197.998" y="-802.554" font-family="Monaco" font-size="10.00">+ ~IPropertyChanged()</text>
</a>
</g>
</g>
<!-- Node5&#45;&gt;Node4 -->
<g id="edge4" class="edge"><title>Node5&#45;&gt;Node4</title>
<path fill="none" stroke="midnightblue" d="M285.012,-782.898C285.012,-774.513 285.012,-765.547 285.012,-756.705"/>
<polygon fill="none" stroke="midnightblue" points="281.512,-783.155 285.012,-793.156 288.512,-783.156 281.512,-783.155"/>
</g>
<!-- Node7 -->
<g id="node7" class="node"><title>Node7</title>
<g id="a_node7"><a xlink:href="class_hydro_couple_1_1_spatio_temporal_1_1_i_time_geometry_argument.html" target="_top" xlink:title="The ITimeGeometryArgument class. ">
<polygon fill="white" stroke="black" points="94.999,-0.5 94.999,-77.8398 273.025,-77.8398 273.025,-0.5 94.999,-0.5"/>
<text text-anchor="start" x="102.999" y="-65.8398" font-family="Monaco" font-size="10.00">HydroCouple::SpatioTemporal</text>
<text text-anchor="middle" x="184.012" y="-52.5049" font-family="Monaco" font-size="10.00">::ITimeGeometryArgument</text>
<polyline fill="none" stroke="black" points="94.999,-43.1699 273.025,-43.1699 "/>
<text text-anchor="middle" x="184.012" y="-31.1699" font-family="Monaco" font-size="10.00"> </text>
<polyline fill="none" stroke="black" points="94.999,-21.835 273.025,-21.835 "/>
<text text-anchor="start" x="102.999" y="-9.83496" font-family="Monaco" font-size="10.00">+ ~ITimeGeometryArgument()</text>
</a>
</g>
</g>
<!-- Node6&#45;&gt;Node7 -->
<g id="edge6" class="edge"><title>Node6&#45;&gt;Node7</title>
<path fill="none" stroke="midnightblue" d="M127.436,-106.834C135.654,-97.1499 144.09,-87.2095 151.857,-78.0584"/>
<polygon fill="none" stroke="midnightblue" points="124.71,-104.636 120.908,-114.525 130.047,-109.165 124.71,-104.636"/>
</g>
<!-- Node9 -->
<g id="node9" class="node"><title>Node9</title>
<g id="a_node9"><a xlink:href="class_hydro_couple_1_1_spatio_temporal_1_1_i_time_geometry_exchange_item.html" target="_top" xlink:title="The ITimeGeometryExchangeItem class. ">
<polygon fill="white" stroke="black" points="340.998,-0.5 340.998,-77.8398 537.027,-77.8398 537.027,-0.5 340.998,-0.5"/>
<text text-anchor="start" x="348.998" y="-65.8398" font-family="Monaco" font-size="10.00">HydroCouple::SpatioTemporal</text>
<text text-anchor="middle" x="439.012" y="-52.5049" font-family="Monaco" font-size="10.00">::ITimeGeometryExchangeItem</text>
<polyline fill="none" stroke="black" points="340.998,-43.1699 537.027,-43.1699 "/>
<text text-anchor="middle" x="439.012" y="-31.1699" font-family="Monaco" font-size="10.00"> </text>
<polyline fill="none" stroke="black" points="340.998,-21.835 537.027,-21.835 "/>
<text text-anchor="start" x="348.998" y="-9.83496" font-family="Monaco" font-size="10.00">+ ~ITimeGeometryExchangeItem()</text>
</a>
</g>
</g>
<!-- Node8&#45;&gt;Node9 -->
<g id="edge8" class="edge"><title>Node8&#45;&gt;Node9</title>
<path fill="none" stroke="midnightblue" d="M469.778,-111.961C464.975,-100.753 459.911,-88.9373 455.309,-78.1991"/>
<polygon fill="none" stroke="midnightblue" points="466.579,-113.383 473.735,-121.195 473.013,-110.625 466.579,-113.383"/>
</g>
<!-- Node10&#45;&gt;Node7 -->
<g id="edge10" class="edge"><title>Node10&#45;&gt;Node7</title>
<path fill="none" stroke="midnightblue" d="M246.079,-113.303C236.232,-101.7 225.765,-89.3669 216.287,-78.1991"/>
<polygon fill="none" stroke="midnightblue" points="243.638,-115.836 252.777,-121.195 248.975,-111.306 243.638,-115.836"/>
</g>
<!-- Node10&#45;&gt;Node9 -->
<g id="edge11" class="edge"><title>Node10&#45;&gt;Node9</title>
<path fill="none" stroke="midnightblue" d="M342.257,-114.94C357.972,-102.796 374.863,-89.7427 390.065,-77.9951"/>
<polygon fill="none" stroke="midnightblue" points="339.935,-112.311 334.162,-121.195 344.215,-117.85 339.935,-112.311"/>
</g>
</g>
</svg>
