<?xml version="1.0" encoding="UTF-8" standalone="no"?>
<!DOCTYPE svg PUBLIC "-//W3C//DTD SVG 1.1//EN"
 "http://www.w3.org/Graphics/SVG/1.1/DTD/svg11.dtd">
<!-- Generated by graphviz version 2.38.0 (20140413.2041)
 -->
<!-- Title: HydroCouple::Spatial::IRasterComponentItem Pages: 1 -->
<!--zoomable 769 -->
<svg id="main" version="1.1" xmlns="http://www.w3.org/2000/svg" xmlns:xlink="http://www.w3.org/1999/xlink" xml:space="preserve" onload="init(evt)">
<style type="text/css"><![CDATA[
.edge:hover path { stroke: red; }
.edge:hover polygon { stroke: red; fill: red; }
]]></style>
<script type="text/javascript"><![CDATA[
var edges = document.getElementsByTagName('g');
if (edges && edges.length) {
  for (var i=0;i<edges.length;i++) {
    if (edges[i].id.substr(0,4)=='edge') {
      edges[i].setAttribute('class','edge');
    }
  }
}
]]></script>
        <defs>
                <circle id="rim" cx="0" cy="0" r="7"/>
                <circle id="rim2" cx="0" cy="0" r="3.5"/>
                <g id="zoomPlus">
                        <use xlink:href="#rim" fill="#404040">
                                <set attributeName="fill" to="#808080" begin="zoomplus.mouseover" end="zoomplus.mouseout"/>
                        </use>
                        <path d="M-4,0h8M0,-4v8" fill="none" stroke="white" stroke-width="1.5" pointer-events="none"/>
                </g>
                <g id="zoomMin">
                        <use xlink:href="#rim" fill="#404040">
                                <set attributeName="fill" to="#808080" begin="zoomminus.mouseover" end="zoomminus.mouseout"/>
                        </use>
                        <path d="M-4,0h8" fill="none" stroke="white" stroke-width="1.5" pointer-events="none"/>
                </g>
                <g id="dirArrow">
                        <path fill="none" stroke="white" stroke-width="1.5" d="M0,-3.0v7 M-2.5,-0.5L0,-3.0L2.5,-0.5"/>
                </g>
               <g id="resetDef">
                       <use xlink:href="#rim2" fill="#404040">
                               <set attributeName="fill" to="#808080" begin="reset.mouseover" end="reset.mouseout"/>
                       </use>
               </g>
        </defs>

<script type="text/javascript">
var viewWidth = 456;
var viewHeight = 769;
var sectionId = 'dynsection-0';
</script>
<script xlink:href="svgpan.js"/>
<svg id="graph" class="graph">
<g id="viewport">
<title>HydroCouple::Spatial::IRasterComponentItem</title>
<polygon fill="white" stroke="none" points="-4,4 -4,-765 452.048,-765 452.048,4 -4,4"/>
<!-- Node1 -->
<g id="node1" class="node"><title>Node1</title>
<polygon fill="#bfbfbf" stroke="black" points="142.104,-212.5 142.104,-326.5 282.601,-326.5 282.601,-212.5 142.104,-212.5"/>
<text text-anchor="start" x="150.104" y="-314.5" font-family="Helvetica,sans-Serif" font-size="10.00">HydroCouple::Spatial</text>
<text text-anchor="middle" x="212.352" y="-304.5" font-family="Helvetica,sans-Serif" font-size="10.00">::IRasterComponentItem</text>
<polyline fill="none" stroke="black" points="142.104,-298.5 282.601,-298.5 "/>
<text text-anchor="middle" x="212.352" y="-286.5" font-family="Helvetica,sans-Serif" font-size="10.00"> </text>
<polyline fill="none" stroke="black" points="142.104,-280.5 282.601,-280.5 "/>
<text text-anchor="start" x="150.104" y="-268.5" font-family="Helvetica,sans-Serif" font-size="10.00">+ ~IRasterComponentItem()</text>
<text text-anchor="start" x="150.104" y="-258.5" font-family="Helvetica,sans-Serif" font-size="10.00">+ rasterDimension()</text>
<text text-anchor="start" x="150.104" y="-248.5" font-family="Helvetica,sans-Serif" font-size="10.00">+ xDimension()</text>
<text text-anchor="start" x="150.104" y="-238.5" font-family="Helvetica,sans-Serif" font-size="10.00">+ yDimension()</text>
<text text-anchor="start" x="150.104" y="-228.5" font-family="Helvetica,sans-Serif" font-size="10.00">+ bandDimension()</text>
<text text-anchor="start" x="150.104" y="-218.5" font-family="Helvetica,sans-Serif" font-size="10.00">+ raster()</text>
</g>
<!-- Node6 -->
<g id="node6" class="node"><title>Node6</title>
<g id="a_node6"><a xlink:href="class_hydro_couple_1_1_spatial_1_1_i_raster_argument.html" target="_top" xlink:title="An IRasterArgument is an IArgument with an IRaster. ">
<polygon fill="white" stroke="black" points="0,-101.5 0,-175.5 112.704,-175.5 112.704,-101.5 0,-101.5"/>
<text text-anchor="start" x="8" y="-163.5" font-family="Helvetica,sans-Serif" font-size="10.00">HydroCouple::Spatial</text>
<text text-anchor="middle" x="56.3521" y="-153.5" font-family="Helvetica,sans-Serif" font-size="10.00">::IRasterArgument</text>
<polyline fill="none" stroke="black" points="0,-147.5 112.704,-147.5 "/>
<text text-anchor="middle" x="56.3521" y="-135.5" font-family="Helvetica,sans-Serif" font-size="10.00"> </text>
<polyline fill="none" stroke="black" points="0,-129.5 112.704,-129.5 "/>
<text text-anchor="start" x="8" y="-117.5" font-family="Helvetica,sans-Serif" font-size="10.00">+ ~IRasterArgument()</text>
<text text-anchor="start" x="8" y="-107.5" font-family="Helvetica,sans-Serif" font-size="10.00">+ setRaster()</text>
</a>
</g>
</g>
<!-- Node1&#45;&gt;Node6 -->
<g id="edge5" class="edge"><title>Node1&#45;&gt;Node6</title>
<path fill="none" stroke="midnightblue" d="M136.644,-205.895C124.182,-195.59 111.641,-185.22 100.297,-175.839"/>
<polygon fill="none" stroke="midnightblue" points="134.445,-208.619 144.382,-212.294 138.906,-203.224 134.445,-208.619"/>
</g>
<!-- Node8 -->
<g id="node8" class="node"><title>Node8</title>
<g id="a_node8"><a xlink:href="class_hydro_couple_1_1_spatial_1_1_i_raster_exhange_item.html" target="_top" xlink:title="An IRasterExhangeItem is an IExchangeItem with an IRaster. ">
<polygon fill="white" stroke="black" points="311.214,-106.5 311.214,-170.5 439.49,-170.5 439.49,-106.5 311.214,-106.5"/>
<text text-anchor="start" x="319.214" y="-158.5" font-family="Helvetica,sans-Serif" font-size="10.00">HydroCouple::Spatial</text>
<text text-anchor="middle" x="375.352" y="-148.5" font-family="Helvetica,sans-Serif" font-size="10.00">::IRasterExhangeItem</text>
<polyline fill="none" stroke="black" points="311.214,-142.5 439.49,-142.5 "/>
<text text-anchor="middle" x="375.352" y="-130.5" font-family="Helvetica,sans-Serif" font-size="10.00"> </text>
<polyline fill="none" stroke="black" points="311.214,-124.5 439.49,-124.5 "/>
<text text-anchor="start" x="319.214" y="-112.5" font-family="Helvetica,sans-Serif" font-size="10.00">+ ~IRasterExhangeItem()</text>
</a>
</g>
</g>
<!-- Node1&#45;&gt;Node8 -->
<g id="edge7" class="edge"><title>Node1&#45;&gt;Node8</title>
<path fill="none" stroke="midnightblue" d="M291.058,-206.211C306.709,-193.825 322.498,-181.329 336.112,-170.555"/>
<polygon fill="none" stroke="midnightblue" points="288.568,-203.719 282.898,-212.669 292.912,-209.208 288.568,-203.719"/>
</g>
<!-- Node10 -->
<g id="node10" class="node"><title>Node10</title>
<g id="a_node10"><a xlink:href="class_hydro_couple_1_1_spatio_temporal_1_1_i_time_raster_component_item.html" target="_top" xlink:title="The ITimeRasterComponentItem class. ">
<polygon fill="white" stroke="black" points="131.176,-106.5 131.176,-170.5 293.528,-170.5 293.528,-106.5 131.176,-106.5"/>
<text text-anchor="start" x="139.176" y="-158.5" font-family="Helvetica,sans-Serif" font-size="10.00">HydroCouple::SpatioTemporal</text>
<text text-anchor="middle" x="212.352" y="-148.5" font-family="Helvetica,sans-Serif" font-size="10.00">::ITimeRasterComponentItem</text>
<polyline fill="none" stroke="black" points="131.176,-142.5 293.528,-142.5 "/>
<text text-anchor="middle" x="212.352" y="-130.5" font-family="Helvetica,sans-Serif" font-size="10.00"> </text>
<polyline fill="none" stroke="black" points="131.176,-124.5 293.528,-124.5 "/>
<text text-anchor="start" x="139.176" y="-112.5" font-family="Helvetica,sans-Serif" font-size="10.00">+ ~ITimeRasterComponentItem()</text>
</a>
</g>
</g>
<!-- Node1&#45;&gt;Node10 -->
<g id="edge9" class="edge"><title>Node1&#45;&gt;Node10</title>
<path fill="none" stroke="midnightblue" d="M212.352,-202.215C212.352,-191.221 212.352,-180.296 212.352,-170.72"/>
<polygon fill="none" stroke="midnightblue" points="208.852,-202.294 212.352,-212.294 215.852,-202.294 208.852,-202.294"/>
</g>
<!-- Node2 -->
<g id="node2" class="node"><title>Node2</title>
<g id="a_node2"><a xlink:href="class_hydro_couple_1_1_i_component_item.html" target="_top" xlink:title="IComponentItem is a fundamental unit of data for a component. ">
<polygon fill="white" stroke="black" points="135.429,-363.5 135.429,-437.5 289.275,-437.5 289.275,-363.5 135.429,-363.5"/>
<text text-anchor="middle" x="212.352" y="-425.5" font-family="Helvetica,sans-Serif" font-size="10.00">HydroCouple::IComponentItem</text>
<polyline fill="none" stroke="black" points="135.429,-419.5 289.275,-419.5 "/>
<text text-anchor="middle" x="212.352" y="-407.5" font-family="Helvetica,sans-Serif" font-size="10.00"> </text>
<polyline fill="none" stroke="black" points="135.429,-401.5 289.275,-401.5 "/>
<text text-anchor="start" x="143.429" y="-389.5" font-family="Helvetica,sans-Serif" font-size="10.00">+ ~IComponentItem()</text>
<text text-anchor="start" x="143.429" y="-379.5" font-family="Helvetica,sans-Serif" font-size="10.00">+ modelComponent()</text>
<text text-anchor="start" x="143.429" y="-369.5" font-family="Helvetica,sans-Serif" font-size="10.00">+ dimensions()</text>
</a>
</g>
</g>
<!-- Node2&#45;&gt;Node1 -->
<g id="edge1" class="edge"><title>Node2&#45;&gt;Node1</title>
<path fill="none" stroke="midnightblue" d="M212.352,-353.082C212.352,-344.545 212.352,-335.548 212.352,-326.759"/>
<polygon fill="none" stroke="midnightblue" points="208.852,-353.223 212.352,-363.223 215.852,-353.223 208.852,-353.223"/>
</g>
<!-- Node3 -->
<g id="node3" class="node"><title>Node3</title>
<g id="a_node3"><a xlink:href="class_hydro_couple_1_1_i_identity.html" target="_top" xlink:title="IIdentity interface class defines a method to get the Id of an HydroCouple entity. ">
<polygon fill="white" stroke="black" points="154.882,-474.5 154.882,-538.5 269.822,-538.5 269.822,-474.5 154.882,-474.5"/>
<text text-anchor="middle" x="212.352" y="-526.5" font-family="Helvetica,sans-Serif" font-size="10.00">HydroCouple::IIdentity</text>
<polyline fill="none" stroke="black" points="154.882,-520.5 269.822,-520.5 "/>
<text text-anchor="middle" x="212.352" y="-508.5" font-family="Helvetica,sans-Serif" font-size="10.00"> </text>
<polyline fill="none" stroke="black" points="154.882,-502.5 269.822,-502.5 "/>
<text text-anchor="start" x="162.882" y="-490.5" font-family="Helvetica,sans-Serif" font-size="10.00">+ ~IIdentity()</text>
<text text-anchor="start" x="162.882" y="-480.5" font-family="Helvetica,sans-Serif" font-size="10.00">+ id()</text>
</a>
</g>
</g>
<!-- Node3&#45;&gt;Node2 -->
<g id="edge2" class="edge"><title>Node3&#45;&gt;Node2</title>
<path fill="none" stroke="midnightblue" d="M212.352,-464.282C212.352,-455.531 212.352,-446.353 212.352,-437.801"/>
<polygon fill="none" stroke="midnightblue" points="208.852,-464.297 212.352,-474.297 215.852,-464.297 208.852,-464.297"/>
</g>
<!-- Node4 -->
<g id="node4" class="node"><title>Node4</title>
<g id="a_node4"><a xlink:href="class_hydro_couple_1_1_i_description.html" target="_top" xlink:title="IDescription interface class provides descriptive information on a HydroCouple object. ">
<polygon fill="white" stroke="black" points="145.993,-575.5 145.993,-669.5 278.711,-669.5 278.711,-575.5 145.993,-575.5"/>
<text text-anchor="middle" x="212.352" y="-657.5" font-family="Helvetica,sans-Serif" font-size="10.00">HydroCouple::IDescription</text>
<polyline fill="none" stroke="black" points="145.993,-651.5 278.711,-651.5 "/>
<text text-anchor="middle" x="212.352" y="-639.5" font-family="Helvetica,sans-Serif" font-size="10.00"> </text>
<polyline fill="none" stroke="black" points="145.993,-633.5 278.711,-633.5 "/>
<text text-anchor="start" x="153.993" y="-621.5" font-family="Helvetica,sans-Serif" font-size="10.00">+ ~IDescription()</text>
<text text-anchor="start" x="153.993" y="-611.5" font-family="Helvetica,sans-Serif" font-size="10.00">+ getCaption()</text>
<text text-anchor="start" x="153.993" y="-601.5" font-family="Helvetica,sans-Serif" font-size="10.00">+ setCaption()</text>
<text text-anchor="start" x="153.993" y="-591.5" font-family="Helvetica,sans-Serif" font-size="10.00">+ getDescription()</text>
<text text-anchor="start" x="153.993" y="-581.5" font-family="Helvetica,sans-Serif" font-size="10.00">+ setDescription()</text>
</a>
</g>
</g>
<!-- Node4&#45;&gt;Node3 -->
<g id="edge3" class="edge"><title>Node4&#45;&gt;Node3</title>
<path fill="none" stroke="midnightblue" d="M212.352,-565.212C212.352,-556.081 212.352,-546.926 212.352,-538.684"/>
<polygon fill="none" stroke="midnightblue" points="208.852,-565.46 212.352,-575.46 215.852,-565.46 208.852,-565.46"/>
</g>
<!-- Node5 -->
<g id="node5" class="node"><title>Node5</title>
<g id="a_node5"><a xlink:href="class_hydro_couple_1_1_i_property_changed.html" target="_top" xlink:title="IPropertyChanged interface is used to emit signal/event when a property of an object changes...">
<polygon fill="white" stroke="black" points="131.811,-706.5 131.811,-760.5 292.894,-760.5 292.894,-706.5 131.811,-706.5"/>
<text text-anchor="middle" x="212.352" y="-748.5" font-family="Helvetica,sans-Serif" font-size="10.00">HydroCouple::IPropertyChanged</text>
<polyline fill="none" stroke="black" points="131.811,-742.5 292.894,-742.5 "/>
<text text-anchor="middle" x="212.352" y="-730.5" font-family="Helvetica,sans-Serif" font-size="10.00"> </text>
<polyline fill="none" stroke="black" points="131.811,-724.5 292.894,-724.5 "/>
<text text-anchor="start" x="139.811" y="-712.5" font-family="Helvetica,sans-Serif" font-size="10.00">+ ~IPropertyChanged()</text>
</a>
</g>
</g>
<!-- Node5&#45;&gt;Node4 -->
<g id="edge4" class="edge"><title>Node5&#45;&gt;Node4</title>
<path fill="none" stroke="midnightblue" d="M212.352,-696.141C212.352,-687.716 212.352,-678.639 212.352,-669.851"/>
<polygon fill="none" stroke="midnightblue" points="208.852,-696.392 212.352,-706.392 215.852,-696.392 208.852,-696.392"/>
</g>
<!-- Node7 -->
<g id="node7" class="node"><title>Node7</title>
<g id="a_node7"><a xlink:href="class_hydro_couple_1_1_spatio_temporal_1_1_i_time_raster_argument.html" target="_top" xlink:title="The ITimeRasterArgument class. ">
<polygon fill="white" stroke="black" points="42.6504,-0.5 42.6504,-64.5 192.054,-64.5 192.054,-0.5 42.6504,-0.5"/>
<text text-anchor="start" x="50.6504" y="-52.5" font-family="Helvetica,sans-Serif" font-size="10.00">HydroCouple::SpatioTemporal</text>
<text text-anchor="middle" x="117.352" y="-42.5" font-family="Helvetica,sans-Serif" font-size="10.00">::ITimeRasterArgument</text>
<polyline fill="none" stroke="black" points="42.6504,-36.5 192.054,-36.5 "/>
<text text-anchor="middle" x="117.352" y="-24.5" font-family="Helvetica,sans-Serif" font-size="10.00"> </text>
<polyline fill="none" stroke="black" points="42.6504,-18.5 192.054,-18.5 "/>
<text text-anchor="start" x="50.6504" y="-6.5" font-family="Helvetica,sans-Serif" font-size="10.00">+ ~ITimeRasterArgument()</text>
</a>
</g>
</g>
<!-- Node6&#45;&gt;Node7 -->
<g id="edge6" class="edge"><title>Node6&#45;&gt;Node7</title>
<path fill="none" stroke="midnightblue" d="M82.7204,-92.5441C88.2327,-83.1461 93.9285,-73.4353 99.0694,-64.6704"/>
<polygon fill="none" stroke="midnightblue" points="79.5561,-91.0212 77.5157,-101.418 85.5941,-94.5628 79.5561,-91.0212"/>
</g>
<!-- Node9 -->
<g id="node9" class="node"><title>Node9</title>
<g id="a_node9"><a xlink:href="class_hydro_couple_1_1_spatio_temporal_1_1_i_time_raster_exchange_item.html" target="_top" xlink:title="The ITimeRasterExchangeItem class. ">
<polygon fill="white" stroke="black" points="240.656,-0.5 240.656,-64.5 448.048,-64.5 448.048,-0.5 240.656,-0.5"/>
<text text-anchor="start" x="248.656" y="-52.5" font-family="Helvetica,sans-Serif" font-size="10.00">HydroCouple::SpatioTemporal</text>
<text text-anchor="middle" x="344.352" y="-42.5" font-family="Helvetica,sans-Serif" font-size="10.00">::ITimeRasterExchangeItem</text>
<polyline fill="none" stroke="black" points="240.656,-36.5 448.048,-36.5 "/>
<text text-anchor="middle" x="344.352" y="-24.5" font-family="Helvetica,sans-Serif" font-size="10.00"> </text>
<polyline fill="none" stroke="black" points="240.656,-18.5 448.048,-18.5 "/>
<text text-anchor="start" x="248.656" y="-6.5" font-family="Helvetica,sans-Serif" font-size="10.00">+ ~ITimePolyhedralSurfaceExchangeItem()</text>
</a>
</g>
</g>
<!-- Node8&#45;&gt;Node9 -->
<g id="edge8" class="edge"><title>Node8&#45;&gt;Node9</title>
<path fill="none" stroke="midnightblue" d="M363.107,-96.4188C359.957,-85.8517 356.619,-74.6547 353.647,-64.6814"/>
<polygon fill="none" stroke="midnightblue" points="359.84,-97.7131 366.051,-106.297 366.549,-95.7134 359.84,-97.7131"/>
</g>
<!-- Node10&#45;&gt;Node7 -->
<g id="edge10" class="edge"><title>Node10&#45;&gt;Node7</title>
<path fill="none" stroke="midnightblue" d="M176.906,-98.696C166.655,-87.4742 155.603,-75.3744 145.835,-64.6814"/>
<polygon fill="none" stroke="midnightblue" points="174.52,-101.274 183.849,-106.297 179.689,-96.5527 174.52,-101.274"/>
</g>
<!-- Node10&#45;&gt;Node9 -->
<g id="edge11" class="edge"><title>Node10&#45;&gt;Node9</title>
<path fill="none" stroke="midnightblue" d="M259.965,-99.9868C274.662,-88.407 290.682,-75.7857 304.776,-64.6814"/>
<polygon fill="none" stroke="midnightblue" points="257.645,-97.3586 251.956,-106.297 261.977,-102.857 257.645,-97.3586"/>
</g>
</g>
</svg>
        <g id="navigator" transform="translate(0 0)" fill="#404254">
                <rect fill="#f2f5e9" fill-opacity="0.5" stroke="#606060" stroke-width=".5" x="0" y="0" width="60" height="60"/>
                <use id="zoomplus" xlink:href="#zoomPlus" x="17" y="9" onmousedown="handleZoom(evt,'in')"/>
                <use id="zoomminus" xlink:href="#zoomMin" x="42" y="9" onmousedown="handleZoom(evt,'out')"/>
                <use id="reset" xlink:href="#resetDef" x="30" y="36" onmousedown="handleReset()"/>
                <g id="arrowUp" xlink:href="#dirArrow" transform="translate(30 24)" onmousedown="handlePan(0,-1)">
                  <use xlink:href="#rim" fill="#404040">
                        <set attributeName="fill" to="#808080" begin="arrowUp.mouseover" end="arrowUp.mouseout"/>
                  </use>
                  <path fill="none" stroke="white" stroke-width="1.5" d="M0,-3.0v7 M-2.5,-0.5L0,-3.0L2.5,-0.5"/>
                </g>
                <g id="arrowRight" xlink:href="#dirArrow" transform="rotate(90) translate(36 -43)" onmousedown="handlePan(1,0)">
                  <use xlink:href="#rim" fill="#404040">
                        <set attributeName="fill" to="#808080" begin="arrowRight.mouseover" end="arrowRight.mouseout"/>
                  </use>
                  <path fill="none" stroke="white" stroke-width="1.5" d="M0,-3.0v7 M-2.5,-0.5L0,-3.0L2.5,-0.5"/>
                </g>
                <g id="arrowDown" xlink:href="#dirArrow" transform="rotate(180) translate(-30 -48)" onmousedown="handlePan(0,1)">
                  <use xlink:href="#rim" fill="#404040">
                        <set attributeName="fill" to="#808080" begin="arrowDown.mouseover" end="arrowDown.mouseout"/>
                  </use>
                  <path fill="none" stroke="white" stroke-width="1.5" d="M0,-3.0v7 M-2.5,-0.5L0,-3.0L2.5,-0.5"/>
                </g>
                <g id="arrowLeft" xlink:href="#dirArrow" transform="rotate(270) translate(-36 17)" onmousedown="handlePan(-1,0)">
                  <use xlink:href="#rim" fill="#404040">
                        <set attributeName="fill" to="#808080" begin="arrowLeft.mouseover" end="arrowLeft.mouseout"/>
                  </use>
                  <path fill="none" stroke="white" stroke-width="1.5" d="M0,-3.0v7 M-2.5,-0.5L0,-3.0L2.5,-0.5"/>
                </g>
        </g>
        <svg viewBox="0 0 15 15" width="100%" height="30px" preserveAspectRatio="xMaxYMin meet">
         <g id="arrow_out" transform="scale(0.3 0.3)">
          <a xlink:href="class_hydro_couple_1_1_spatial_1_1_i_raster_component_item__inherit__graph_org.svg" target="_base">
           <rect id="button" ry="5" rx="5" y="6" x="6" height="38" width="38"
                fill="#f2f5e9" fill-opacity="0.5" stroke="#606060" stroke-width="1.0"/>
           <path id="arrow"
             d="M 11.500037,31.436501 C 11.940474,20.09759 22.043105,11.32322 32.158766,21.979434 L 37.068811,17.246167 C 37.068811,17.246167 37.088388,32 37.088388,32 L 22.160133,31.978069 C 22.160133,31.978069 26.997745,27.140456 26.997745,27.140456 C 18.528582,18.264221 13.291696,25.230495 11.500037,31.436501 z"
             style="fill:#404040;"/>
          </a>
         </g>
        </svg>
</svg>
