<?xml version="1.0" encoding="UTF-8" standalone="no"?>
<!DOCTYPE svg PUBLIC "-//W3C//DTD SVG 1.1//EN"
 "http://www.w3.org/Graphics/SVG/1.1/DTD/svg11.dtd">
<!-- Generated by graphviz version 2.38.0 (20140413.2041)
 -->
<!-- Title: HydroCouple::Spatial::IPolyhedralSurfaceExchangeItem Pages: 1 -->
<!--zoomable 739 -->
<svg id="main" version="1.1" xmlns="http://www.w3.org/2000/svg" xmlns:xlink="http://www.w3.org/1999/xlink" xml:space="preserve" onload="init(evt)">
<style type="text/css"><![CDATA[
.edge:hover path { stroke: red; }
.edge:hover polygon { stroke: red; fill: red; }
]]></style>
<script type="text/javascript"><![CDATA[
var edges = document.getElementsByTagName('g');
if (edges && edges.length) {
  for (var i=0;i<edges.length;i++) {
    if (edges[i].id.substr(0,4)=='edge') {
      edges[i].setAttribute('class','edge');
    }
  }
}
]]></script>
        <defs>
                <circle id="rim" cx="0" cy="0" r="7"/>
                <circle id="rim2" cx="0" cy="0" r="3.5"/>
                <g id="zoomPlus">
                        <use xlink:href="#rim" fill="#404040">
                                <set attributeName="fill" to="#808080" begin="zoomplus.mouseover" end="zoomplus.mouseout"/>
                        </use>
                        <path d="M-4,0h8M0,-4v8" fill="none" stroke="white" stroke-width="1.5" pointer-events="none"/>
                </g>
                <g id="zoomMin">
                        <use xlink:href="#rim" fill="#404040">
                                <set attributeName="fill" to="#808080" begin="zoomminus.mouseover" end="zoomminus.mouseout"/>
                        </use>
                        <path d="M-4,0h8" fill="none" stroke="white" stroke-width="1.5" pointer-events="none"/>
                </g>
                <g id="dirArrow">
                        <path fill="none" stroke="white" stroke-width="1.5" d="M0,-3.0v7 M-2.5,-0.5L0,-3.0L2.5,-0.5"/>
                </g>
               <g id="resetDef">
                       <use xlink:href="#rim2" fill="#404040">
                               <set attributeName="fill" to="#808080" begin="reset.mouseover" end="reset.mouseout"/>
                       </use>
               </g>
        </defs>

<script type="text/javascript">
var viewWidth = 366;
var viewHeight = 739;
var sectionId = 'dynsection-0';
</script>
<script xlink:href="svgpan.js"/>
<svg id="graph" class="graph">
<g id="viewport">
<title>HydroCouple::Spatial::IPolyhedralSurfaceExchangeItem</title>
<polygon fill="white" stroke="none" points="-4,4 -4,-735 361.691,-735 361.691,4 -4,4"/>
<!-- Node1 -->
<g id="node1" class="node"><title>Node1</title>
<polygon fill="#bfbfbf" stroke="black" points="74.5444,-101.5 74.5444,-165.5 260.081,-165.5 260.081,-101.5 74.5444,-101.5"/>
<text text-anchor="start" x="82.5444" y="-153.5" font-family="Helvetica,sans-Serif" font-size="10.00">HydroCouple::Spatial</text>
<text text-anchor="middle" x="167.312" y="-143.5" font-family="Helvetica,sans-Serif" font-size="10.00">::IPolyhedralSurfaceExchangeItem</text>
<polyline fill="none" stroke="black" points="74.5444,-137.5 260.081,-137.5 "/>
<text text-anchor="middle" x="167.312" y="-125.5" font-family="Helvetica,sans-Serif" font-size="10.00"> </text>
<polyline fill="none" stroke="black" points="74.5444,-119.5 260.081,-119.5 "/>
<text text-anchor="start" x="82.5444" y="-107.5" font-family="Helvetica,sans-Serif" font-size="10.00">+ ~IPolyhedralSurfaceExchangeItem()</text>
</g>
<!-- Node8 -->
<g id="node8" class="node"><title>Node8</title>
<g id="a_node8"><a xlink:href="class_hydro_couple_1_1_spatio_temporal_1_1_i_time_polyhedral_surface_exchange_item.html" target="_top" xlink:title="The ITimePolyhedralSurfaceExchangeItem class. ">
<polygon fill="white" stroke="black" points="63.6167,-0.5 63.6167,-64.5 271.008,-64.5 271.008,-0.5 63.6167,-0.5"/>
<text text-anchor="start" x="71.6167" y="-52.5" font-family="Helvetica,sans-Serif" font-size="10.00">HydroCouple::SpatioTemporal</text>
<text text-anchor="middle" x="167.312" y="-42.5" font-family="Helvetica,sans-Serif" font-size="10.00">::ITimePolyhedralSurfaceExchangeItem</text>
<polyline fill="none" stroke="black" points="63.6167,-36.5 271.008,-36.5 "/>
<text text-anchor="middle" x="167.312" y="-24.5" font-family="Helvetica,sans-Serif" font-size="10.00"> </text>
<polyline fill="none" stroke="black" points="63.6167,-18.5 271.008,-18.5 "/>
<text text-anchor="start" x="71.6167" y="-6.5" font-family="Helvetica,sans-Serif" font-size="10.00">+ ~ITimePolyhedralSurfaceExchangeItem()</text>
</a>
</g>
</g>
<!-- Node1&#45;&gt;Node8 -->
<g id="edge8" class="edge"><title>Node1&#45;&gt;Node8</title>
<path fill="none" stroke="midnightblue" d="M167.312,-91.2823C167.312,-82.4203 167.312,-73.1938 167.312,-64.7828"/>
<polygon fill="none" stroke="midnightblue" points="163.813,-91.4474 167.312,-101.447 170.813,-91.4474 163.813,-91.4474"/>
</g>
<!-- Node2 -->
<g id="node2" class="node"><title>Node2</title>
<g id="a_node2"><a xlink:href="class_hydro_couple_1_1_i_exchange_item.html" target="_top" xlink:title="IExchangeItem the base data item the can be exchanged between components at runtime. ">
<polygon fill="white" stroke="black" points="0,-217.5 0,-281.5 146.625,-281.5 146.625,-217.5 0,-217.5"/>
<text text-anchor="middle" x="73.3125" y="-269.5" font-family="Helvetica,sans-Serif" font-size="10.00">HydroCouple::IExchangeItem</text>
<polyline fill="none" stroke="black" points="0,-263.5 146.625,-263.5 "/>
<text text-anchor="middle" x="73.3125" y="-251.5" font-family="Helvetica,sans-Serif" font-size="10.00"> </text>
<polyline fill="none" stroke="black" points="0,-245.5 146.625,-245.5 "/>
<text text-anchor="start" x="8" y="-233.5" font-family="Helvetica,sans-Serif" font-size="10.00">+ ~IExchangeItem()</text>
<text text-anchor="start" x="8" y="-223.5" font-family="Helvetica,sans-Serif" font-size="10.00">+ itemChanged()</text>
</a>
</g>
</g>
<!-- Node2&#45;&gt;Node1 -->
<g id="edge1" class="edge"><title>Node2&#45;&gt;Node1</title>
<path fill="none" stroke="midnightblue" d="M105.404,-209.58C117.234,-195.233 130.47,-179.181 141.658,-165.613"/>
<polygon fill="none" stroke="midnightblue" points="102.66,-207.407 98.9984,-217.349 108.061,-211.86 102.66,-207.407"/>
</g>
<!-- Node3 -->
<g id="node3" class="node"><title>Node3</title>
<g id="a_node3"><a xlink:href="class_hydro_couple_1_1_i_component_item.html" target="_top" xlink:title="IComponentItem is a fundamental unit of data for a component. ">
<polygon fill="white" stroke="black" points="90.3892,-333.5 90.3892,-407.5 244.236,-407.5 244.236,-333.5 90.3892,-333.5"/>
<text text-anchor="middle" x="167.312" y="-395.5" font-family="Helvetica,sans-Serif" font-size="10.00">HydroCouple::IComponentItem</text>
<polyline fill="none" stroke="black" points="90.3892,-389.5 244.236,-389.5 "/>
<text text-anchor="middle" x="167.312" y="-377.5" font-family="Helvetica,sans-Serif" font-size="10.00"> </text>
<polyline fill="none" stroke="black" points="90.3892,-371.5 244.236,-371.5 "/>
<text text-anchor="start" x="98.3892" y="-359.5" font-family="Helvetica,sans-Serif" font-size="10.00">+ ~IComponentItem()</text>
<text text-anchor="start" x="98.3892" y="-349.5" font-family="Helvetica,sans-Serif" font-size="10.00">+ modelComponent()</text>
<text text-anchor="start" x="98.3892" y="-339.5" font-family="Helvetica,sans-Serif" font-size="10.00">+ dimensions()</text>
</a>
</g>
</g>
<!-- Node3&#45;&gt;Node2 -->
<g id="edge2" class="edge"><title>Node3&#45;&gt;Node2</title>
<path fill="none" stroke="midnightblue" d="M132.577,-325.526C121.047,-310.929 108.457,-294.992 97.8593,-281.575"/>
<polygon fill="none" stroke="midnightblue" points="129.909,-327.795 138.854,-333.473 135.402,-323.456 129.909,-327.795"/>
</g>
<!-- Node7 -->
<g id="node7" class="node"><title>Node7</title>
<g id="a_node7"><a xlink:href="class_hydro_couple_1_1_spatial_1_1_i_polyhedral_surface_component_item.html" target="_top" xlink:title="IPolyhedralSurfaceComponentItem represents IPolyhedralSurface IComponentItem. ">
<polygon fill="white" stroke="black" points="164.934,-202.5 164.934,-296.5 357.691,-296.5 357.691,-202.5 164.934,-202.5"/>
<text text-anchor="start" x="172.934" y="-284.5" font-family="Helvetica,sans-Serif" font-size="10.00">HydroCouple::Spatial</text>
<text text-anchor="middle" x="261.312" y="-274.5" font-family="Helvetica,sans-Serif" font-size="10.00">::IPolyhedralSurfaceComponentItem</text>
<polyline fill="none" stroke="black" points="164.934,-268.5 357.691,-268.5 "/>
<text text-anchor="middle" x="261.312" y="-256.5" font-family="Helvetica,sans-Serif" font-size="10.00"> </text>
<polyline fill="none" stroke="black" points="164.934,-250.5 357.691,-250.5 "/>
<text text-anchor="start" x="172.934" y="-238.5" font-family="Helvetica,sans-Serif" font-size="10.00">+ ~IPolyhedralSurfaceComponentItem()</text>
<text text-anchor="start" x="172.934" y="-228.5" font-family="Helvetica,sans-Serif" font-size="10.00">+ patchDimension()</text>
<text text-anchor="start" x="172.934" y="-218.5" font-family="Helvetica,sans-Serif" font-size="10.00">+ polyhedralSurface()</text>
<text text-anchor="start" x="172.934" y="-208.5" font-family="Helvetica,sans-Serif" font-size="10.00">+ geometry()</text>
</a>
</g>
</g>
<!-- Node3&#45;&gt;Node7 -->
<g id="edge7" class="edge"><title>Node3&#45;&gt;Node7</title>
<path fill="none" stroke="midnightblue" d="M202.167,-325.375C209.597,-315.97 217.461,-306.014 224.945,-296.539"/>
<polygon fill="none" stroke="midnightblue" points="199.223,-323.456 195.771,-333.473 204.716,-327.795 199.223,-323.456"/>
</g>
<!-- Node4 -->
<g id="node4" class="node"><title>Node4</title>
<g id="a_node4"><a xlink:href="class_hydro_couple_1_1_i_identity.html" target="_top" xlink:title="IIdentity interface class defines a method to get the Id of an HydroCouple entity. ">
<polygon fill="white" stroke="black" points="109.842,-444.5 109.842,-508.5 224.783,-508.5 224.783,-444.5 109.842,-444.5"/>
<text text-anchor="middle" x="167.312" y="-496.5" font-family="Helvetica,sans-Serif" font-size="10.00">HydroCouple::IIdentity</text>
<polyline fill="none" stroke="black" points="109.842,-490.5 224.783,-490.5 "/>
<text text-anchor="middle" x="167.312" y="-478.5" font-family="Helvetica,sans-Serif" font-size="10.00"> </text>
<polyline fill="none" stroke="black" points="109.842,-472.5 224.783,-472.5 "/>
<text text-anchor="start" x="117.842" y="-460.5" font-family="Helvetica,sans-Serif" font-size="10.00">+ ~IIdentity()</text>
<text text-anchor="start" x="117.842" y="-450.5" font-family="Helvetica,sans-Serif" font-size="10.00">+ id()</text>
</a>
</g>
</g>
<!-- Node4&#45;&gt;Node3 -->
<g id="edge3" class="edge"><title>Node4&#45;&gt;Node3</title>
<path fill="none" stroke="midnightblue" d="M167.312,-434.282C167.312,-425.531 167.312,-416.353 167.312,-407.801"/>
<polygon fill="none" stroke="midnightblue" points="163.813,-434.297 167.312,-444.297 170.813,-434.297 163.813,-434.297"/>
</g>
<!-- Node5 -->
<g id="node5" class="node"><title>Node5</title>
<g id="a_node5"><a xlink:href="class_hydro_couple_1_1_i_description.html" target="_top" xlink:title="IDescription interface class provides descriptive information on a HydroCouple object. ">
<polygon fill="white" stroke="black" points="100.953,-545.5 100.953,-639.5 233.672,-639.5 233.672,-545.5 100.953,-545.5"/>
<text text-anchor="middle" x="167.312" y="-627.5" font-family="Helvetica,sans-Serif" font-size="10.00">HydroCouple::IDescription</text>
<polyline fill="none" stroke="black" points="100.953,-621.5 233.672,-621.5 "/>
<text text-anchor="middle" x="167.312" y="-609.5" font-family="Helvetica,sans-Serif" font-size="10.00"> </text>
<polyline fill="none" stroke="black" points="100.953,-603.5 233.672,-603.5 "/>
<text text-anchor="start" x="108.953" y="-591.5" font-family="Helvetica,sans-Serif" font-size="10.00">+ ~IDescription()</text>
<text text-anchor="start" x="108.953" y="-581.5" font-family="Helvetica,sans-Serif" font-size="10.00">+ getCaption()</text>
<text text-anchor="start" x="108.953" y="-571.5" font-family="Helvetica,sans-Serif" font-size="10.00">+ setCaption()</text>
<text text-anchor="start" x="108.953" y="-561.5" font-family="Helvetica,sans-Serif" font-size="10.00">+ getDescription()</text>
<text text-anchor="start" x="108.953" y="-551.5" font-family="Helvetica,sans-Serif" font-size="10.00">+ setDescription()</text>
</a>
</g>
</g>
<!-- Node5&#45;&gt;Node4 -->
<g id="edge4" class="edge"><title>Node5&#45;&gt;Node4</title>
<path fill="none" stroke="midnightblue" d="M167.312,-535.212C167.312,-526.081 167.312,-516.926 167.312,-508.684"/>
<polygon fill="none" stroke="midnightblue" points="163.813,-535.46 167.312,-545.46 170.813,-535.46 163.813,-535.46"/>
</g>
<!-- Node6 -->
<g id="node6" class="node"><title>Node6</title>
<g id="a_node6"><a xlink:href="class_hydro_couple_1_1_i_property_changed.html" target="_top" xlink:title="IPropertyChanged interface is used to emit signal/event when a property of an object changes...">
<polygon fill="white" stroke="black" points="86.771,-676.5 86.771,-730.5 247.854,-730.5 247.854,-676.5 86.771,-676.5"/>
<text text-anchor="middle" x="167.312" y="-718.5" font-family="Helvetica,sans-Serif" font-size="10.00">HydroCouple::IPropertyChanged</text>
<polyline fill="none" stroke="black" points="86.771,-712.5 247.854,-712.5 "/>
<text text-anchor="middle" x="167.312" y="-700.5" font-family="Helvetica,sans-Serif" font-size="10.00"> </text>
<polyline fill="none" stroke="black" points="86.771,-694.5 247.854,-694.5 "/>
<text text-anchor="start" x="94.771" y="-682.5" font-family="Helvetica,sans-Serif" font-size="10.00">+ ~IPropertyChanged()</text>
</a>
</g>
</g>
<!-- Node6&#45;&gt;Node5 -->
<g id="edge5" class="edge"><title>Node6&#45;&gt;Node5</title>
<path fill="none" stroke="midnightblue" d="M167.312,-666.141C167.312,-657.716 167.312,-648.639 167.312,-639.851"/>
<polygon fill="none" stroke="midnightblue" points="163.813,-666.392 167.312,-676.392 170.813,-666.392 163.813,-666.392"/>
</g>
<!-- Node7&#45;&gt;Node1 -->
<g id="edge6" class="edge"><title>Node7&#45;&gt;Node1</title>
<path fill="none" stroke="midnightblue" d="M216.841,-194.567C208.675,-184.663 200.406,-174.635 193.026,-165.684"/>
<polygon fill="none" stroke="midnightblue" points="214.288,-196.972 223.35,-202.46 219.689,-192.518 214.288,-196.972"/>
</g>
</g>
</svg>
        <g id="navigator" transform="translate(0 0)" fill="#404254">
                <rect fill="#f2f5e9" fill-opacity="0.5" stroke="#606060" stroke-width=".5" x="0" y="0" width="60" height="60"/>
                <use id="zoomplus" xlink:href="#zoomPlus" x="17" y="9" onmousedown="handleZoom(evt,'in')"/>
                <use id="zoomminus" xlink:href="#zoomMin" x="42" y="9" onmousedown="handleZoom(evt,'out')"/>
                <use id="reset" xlink:href="#resetDef" x="30" y="36" onmousedown="handleReset()"/>
                <g id="arrowUp" xlink:href="#dirArrow" transform="translate(30 24)" onmousedown="handlePan(0,-1)">
                  <use xlink:href="#rim" fill="#404040">
                        <set attributeName="fill" to="#808080" begin="arrowUp.mouseover" end="arrowUp.mouseout"/>
                  </use>
                  <path fill="none" stroke="white" stroke-width="1.5" d="M0,-3.0v7 M-2.5,-0.5L0,-3.0L2.5,-0.5"/>
                </g>
                <g id="arrowRight" xlink:href="#dirArrow" transform="rotate(90) translate(36 -43)" onmousedown="handlePan(1,0)">
                  <use xlink:href="#rim" fill="#404040">
                        <set attributeName="fill" to="#808080" begin="arrowRight.mouseover" end="arrowRight.mouseout"/>
                  </use>
                  <path fill="none" stroke="white" stroke-width="1.5" d="M0,-3.0v7 M-2.5,-0.5L0,-3.0L2.5,-0.5"/>
                </g>
                <g id="arrowDown" xlink:href="#dirArrow" transform="rotate(180) translate(-30 -48)" onmousedown="handlePan(0,1)">
                  <use xlink:href="#rim" fill="#404040">
                        <set attributeName="fill" to="#808080" begin="arrowDown.mouseover" end="arrowDown.mouseout"/>
                  </use>
                  <path fill="none" stroke="white" stroke-width="1.5" d="M0,-3.0v7 M-2.5,-0.5L0,-3.0L2.5,-0.5"/>
                </g>
                <g id="arrowLeft" xlink:href="#dirArrow" transform="rotate(270) translate(-36 17)" onmousedown="handlePan(-1,0)">
                  <use xlink:href="#rim" fill="#404040">
                        <set attributeName="fill" to="#808080" begin="arrowLeft.mouseover" end="arrowLeft.mouseout"/>
                  </use>
                  <path fill="none" stroke="white" stroke-width="1.5" d="M0,-3.0v7 M-2.5,-0.5L0,-3.0L2.5,-0.5"/>
                </g>
        </g>
        <svg viewBox="0 0 15 15" width="100%" height="30px" preserveAspectRatio="xMaxYMin meet">
         <g id="arrow_out" transform="scale(0.3 0.3)">
          <a xlink:href="class_hydro_couple_1_1_spatial_1_1_i_polyhedral_surface_exchange_item__inherit__graph_org.svg" target="_base">
           <rect id="button" ry="5" rx="5" y="6" x="6" height="38" width="38"
                fill="#f2f5e9" fill-opacity="0.5" stroke="#606060" stroke-width="1.0"/>
           <path id="arrow"
             d="M 11.500037,31.436501 C 11.940474,20.09759 22.043105,11.32322 32.158766,21.979434 L 37.068811,17.246167 C 37.068811,17.246167 37.088388,32 37.088388,32 L 22.160133,31.978069 C 22.160133,31.978069 26.997745,27.140456 26.997745,27.140456 C 18.528582,18.264221 13.291696,25.230495 11.500037,31.436501 z"
             style="fill:#404040;"/>
          </a>
         </g>
        </svg>
</svg>
