<?xml version="1.0" encoding="UTF-8" standalone="no"?>
<!DOCTYPE svg PUBLIC "-//W3C//DTD SVG 1.1//EN"
 "http://www.w3.org/Graphics/SVG/1.1/DTD/svg11.dtd">
<!-- Generated by graphviz version 2.38.0 (20140413.2041)
 -->
<!-- Title: HydroCouple::SpatioTemporal::ITimeRasterComponentDataItem::~ITimeRasterComponentDataItem Pages: 1 -->
<svg width="496pt" height="445pt"
 viewBox="0.00 0.00 496.07 445.34" xmlns="http://www.w3.org/2000/svg" xmlns:xlink="http://www.w3.org/1999/xlink">
<g id="graph0" class="graph" transform="scale(1 1) rotate(0) translate(4 441.337)">
<title>HydroCouple::SpatioTemporal::ITimeRasterComponentDataItem::~ITimeRasterComponentDataItem</title>
<polygon fill="white" stroke="none" points="-4,4 -4,-441.337 492.068,-441.337 492.068,4 -4,4"/>
<!-- Node1 -->
<g id="node1" class="node"><title>Node1</title>
<polygon fill="#bfbfbf" stroke="black" points="0,-201.5 0,-249.505 202.03,-249.505 202.03,-201.5 0,-201.5"/>
<text text-anchor="start" x="8" y="-237.505" font-family="Monaco" font-size="10.00">HydroCouple::SpatioTemporal</text>
<text text-anchor="start" x="8" y="-224.17" font-family="Monaco" font-size="10.00">::ITimeRasterComponentDataItem</text>
<text text-anchor="middle" x="101.015" y="-210.835" font-family="Monaco" font-size="10.00">::~ITimeRasterComponentDataItem</text>
</g>
<!-- Node2 -->
<g id="node2" class="node"><title>Node2</title>
<g id="a_node2"><a xlink:href="class_hydro_couple_1_1_spatio_temporal_1_1_i_time_geometry_component_data_item.html#a8124d933673088f379a8fd6817787543" target="_top" xlink:title="ITimes associated with this dimension. ">
<polygon fill="white" stroke="black" points="238.03,-402.167 238.03,-436.837 488.068,-436.837 488.068,-402.167 238.03,-402.167"/>
<text text-anchor="start" x="246.03" y="-424.837" font-family="Monaco" font-size="10.00">HydroCouple::SpatioTemporal</text>
<text text-anchor="middle" x="363.049" y="-411.502" font-family="Monaco" font-size="10.00">::ITimeGeometryComponentDataItem::times</text>
</a>
</g>
</g>
<!-- Node1&#45;&gt;Node2 -->
<g id="edge1" class="edge"><title>Node1&#45;&gt;Node2</title>
<path fill="none" stroke="midnightblue" d="M114.424,-249.655C134.862,-286.849 179.267,-357.601 238.03,-393.502 240.538,-395.035 243.122,-396.478 245.767,-397.837"/>
<polygon fill="midnightblue" stroke="midnightblue" points="244.434,-401.077 254.975,-402.142 247.399,-394.736 244.434,-401.077"/>
</g>
<!-- Node3 -->
<g id="node3" class="node"><title>Node3</title>
<g id="a_node3"><a xlink:href="class_hydro_couple_1_1_spatio_temporal_1_1_i_time_geometry_component_data_item.html#a522fcc2c80981bdd95920f5d519fb845" target="_top" xlink:title="ITimeSpan associated with this dimension. ">
<polygon fill="white" stroke="black" points="259.034,-335.5 259.034,-383.505 467.065,-383.505 467.065,-335.5 259.034,-335.5"/>
<text text-anchor="start" x="267.034" y="-371.505" font-family="Monaco" font-size="10.00">HydroCouple::SpatioTemporal</text>
<text text-anchor="start" x="267.034" y="-358.17" font-family="Monaco" font-size="10.00">::ITimeGeometryComponentDataItem</text>
<text text-anchor="middle" x="363.049" y="-344.835" font-family="Monaco" font-size="10.00">::timeSpan</text>
</a>
</g>
</g>
<!-- Node1&#45;&gt;Node3 -->
<g id="edge2" class="edge"><title>Node1&#45;&gt;Node3</title>
<path fill="none" stroke="midnightblue" d="M128.15,-249.698C154.172,-272.573 196.173,-306.314 238.03,-326.502 241.812,-328.326 245.709,-330.061 249.683,-331.708"/>
<polygon fill="midnightblue" stroke="midnightblue" points="248.494,-335.001 259.081,-335.398 251.052,-328.485 248.494,-335.001"/>
</g>
<!-- Node4 -->
<g id="node4" class="node"><title>Node4</title>
<g id="a_node4"><a xlink:href="class_hydro_couple_1_1_spatio_temporal_1_1_i_time_geometry_component_data_item.html#a6f899076e9b6b9676f7f241eca7c127f" target="_top" xlink:title="IDimension of the times. ">
<polygon fill="white" stroke="black" points="259.034,-268.5 259.034,-316.505 467.065,-316.505 467.065,-268.5 259.034,-268.5"/>
<text text-anchor="start" x="267.034" y="-304.505" font-family="Monaco" font-size="10.00">HydroCouple::SpatioTemporal</text>
<text text-anchor="start" x="267.034" y="-291.17" font-family="Monaco" font-size="10.00">::ITimeGeometryComponentDataItem</text>
<text text-anchor="middle" x="363.049" y="-277.835" font-family="Monaco" font-size="10.00">::timeDimension</text>
</a>
</g>
</g>
<!-- Node1&#45;&gt;Node4 -->
<g id="edge3" class="edge"><title>Node1&#45;&gt;Node4</title>
<path fill="none" stroke="midnightblue" d="M195.526,-249.596C216.015,-254.875 237.82,-260.494 258.669,-265.866"/>
<polygon fill="midnightblue" stroke="midnightblue" points="257.938,-269.291 268.495,-268.397 259.684,-262.513 257.938,-269.291"/>
</g>
<!-- Node5 -->
<g id="node5" class="node"><title>Node5</title>
<g id="a_node5"><a xlink:href="class_hydro_couple_1_1_spatio_temporal_1_1_i_time_geometry_component_data_item.html#a1fdfb452c3d3caf2aedae174f333a066" target="_top" xlink:title="Gets a single value for given time dimension index. ">
<polygon fill="white" stroke="black" points="259.034,-201.5 259.034,-249.505 467.065,-249.505 467.065,-201.5 259.034,-201.5"/>
<text text-anchor="start" x="267.034" y="-237.505" font-family="Monaco" font-size="10.00">HydroCouple::SpatioTemporal</text>
<text text-anchor="start" x="267.034" y="-224.17" font-family="Monaco" font-size="10.00">::ITimeGeometryComponentDataItem</text>
<text text-anchor="middle" x="363.049" y="-210.835" font-family="Monaco" font-size="10.00">::getValue</text>
</a>
</g>
</g>
<!-- Node1&#45;&gt;Node5 -->
<g id="edge4" class="edge"><title>Node1&#45;&gt;Node5</title>
<path fill="none" stroke="midnightblue" d="M202.179,-225.502C217.436,-225.502 233.273,-225.502 248.787,-225.502"/>
<polygon fill="midnightblue" stroke="midnightblue" points="248.925,-229.003 258.925,-225.502 248.925,-222.003 248.925,-229.003"/>
</g>
<!-- Node6 -->
<g id="node6" class="node"><title>Node6</title>
<g id="a_node6"><a xlink:href="class_hydro_couple_1_1_spatio_temporal_1_1_i_time_geometry_component_data_item.html#af32f2312af03540b6266d3efe3c078aa" target="_top" xlink:title="Gets a multi&#45;dimensional array of values for given dimension time dimension index and size for a hype...">
<polygon fill="white" stroke="black" points="259.034,-134.5 259.034,-182.505 467.065,-182.505 467.065,-134.5 259.034,-134.5"/>
<text text-anchor="start" x="267.034" y="-170.505" font-family="Monaco" font-size="10.00">HydroCouple::SpatioTemporal</text>
<text text-anchor="start" x="267.034" y="-157.17" font-family="Monaco" font-size="10.00">::ITimeGeometryComponentDataItem</text>
<text text-anchor="middle" x="363.049" y="-143.835" font-family="Monaco" font-size="10.00">::getValues</text>
</a>
</g>
</g>
<!-- Node1&#45;&gt;Node6 -->
<g id="edge5" class="edge"><title>Node1&#45;&gt;Node6</title>
<path fill="none" stroke="midnightblue" d="M195.526,-201.409C216.015,-196.129 237.82,-190.511 258.669,-185.139"/>
<polygon fill="midnightblue" stroke="midnightblue" points="259.684,-188.492 268.495,-182.608 257.938,-181.713 259.684,-188.492"/>
</g>
<!-- Node7 -->
<g id="node7" class="node"><title>Node7</title>
<g id="a_node7"><a xlink:href="class_hydro_couple_1_1_spatio_temporal_1_1_i_time_geometry_component_data_item.html#a91293b8701a718ae3114e2456acd5216" target="_top" xlink:title="Sets a single value for given time dimension index. ">
<polygon fill="white" stroke="black" points="259.034,-67.5 259.034,-115.505 467.065,-115.505 467.065,-67.5 259.034,-67.5"/>
<text text-anchor="start" x="267.034" y="-103.505" font-family="Monaco" font-size="10.00">HydroCouple::SpatioTemporal</text>
<text text-anchor="start" x="267.034" y="-90.1699" font-family="Monaco" font-size="10.00">::ITimeGeometryComponentDataItem</text>
<text text-anchor="middle" x="363.049" y="-76.835" font-family="Monaco" font-size="10.00">::setValue</text>
</a>
</g>
</g>
<!-- Node1&#45;&gt;Node7 -->
<g id="edge6" class="edge"><title>Node1&#45;&gt;Node7</title>
<path fill="none" stroke="midnightblue" d="M128.15,-201.307C154.172,-178.432 196.173,-144.69 238.03,-124.502 241.812,-122.679 245.709,-120.944 249.683,-119.297"/>
<polygon fill="midnightblue" stroke="midnightblue" points="251.052,-122.519 259.081,-115.607 248.494,-116.004 251.052,-122.519"/>
</g>
<!-- Node8 -->
<g id="node8" class="node"><title>Node8</title>
<g id="a_node8"><a xlink:href="class_hydro_couple_1_1_spatio_temporal_1_1_i_time_geometry_component_data_item.html#a79af6a7de3140685dc91d616853c2e0e" target="_top" xlink:title="Sets a multi&#45;dimensional array of values for given time dimension index and size for a hyperslab...">
<polygon fill="white" stroke="black" points="259.034,-0.5 259.034,-48.5049 467.065,-48.5049 467.065,-0.5 259.034,-0.5"/>
<text text-anchor="start" x="267.034" y="-36.5049" font-family="Monaco" font-size="10.00">HydroCouple::SpatioTemporal</text>
<text text-anchor="start" x="267.034" y="-23.1699" font-family="Monaco" font-size="10.00">::ITimeGeometryComponentDataItem</text>
<text text-anchor="middle" x="363.049" y="-9.83496" font-family="Monaco" font-size="10.00">::setValues</text>
</a>
</g>
</g>
<!-- Node1&#45;&gt;Node8 -->
<g id="edge7" class="edge"><title>Node1&#45;&gt;Node8</title>
<path fill="none" stroke="midnightblue" d="M114.83,-201.424C135.661,-164.655 180.404,-94.8585 238.03,-57.5024 241.813,-55.0501 245.773,-52.7794 249.858,-50.6767"/>
<polygon fill="midnightblue" stroke="midnightblue" points="251.454,-53.7934 258.981,-46.3369 248.447,-47.4722 251.454,-53.7934"/>
</g>
</g>
</svg>
