<?xml version="1.0" encoding="UTF-8" standalone="no"?>
<!DOCTYPE svg PUBLIC "-//W3C//DTD SVG 1.1//EN"
 "http://www.w3.org/Graphics/SVG/1.1/DTD/svg11.dtd">
<!-- Generated by graphviz version 2.38.0 (20140413.2041)
 -->
<!-- Title: HydroCouple::IQuantity Pages: 1 -->
<svg width="169pt" height="426pt"
 viewBox="0.00 0.00 169.08 426.00" xmlns="http://www.w3.org/2000/svg" xmlns:xlink="http://www.w3.org/1999/xlink">
<g id="graph0" class="graph" transform="scale(1 1) rotate(0) translate(4 422)">
<title>HydroCouple::IQuantity</title>
<polygon fill="white" stroke="none" points="-4,4 -4,-422 165.083,-422 165.083,4 -4,4"/>
<!-- Node1 -->
<g id="node1" class="node"><title>Node1</title>
<polygon fill="#bfbfbf" stroke="black" points="20.5713,-0.5 20.5713,-64.5 140.512,-64.5 140.512,-0.5 20.5713,-0.5"/>
<text text-anchor="middle" x="80.5415" y="-52.5" font-family="Helvetica,sans-Serif" font-size="10.00">HydroCouple::IQuantity</text>
<polyline fill="none" stroke="black" points="20.5713,-46.5 140.512,-46.5 "/>
<text text-anchor="middle" x="80.5415" y="-34.5" font-family="Helvetica,sans-Serif" font-size="10.00"> </text>
<polyline fill="none" stroke="black" points="20.5713,-28.5 140.512,-28.5 "/>
<text text-anchor="start" x="28.5713" y="-16.5" font-family="Helvetica,sans-Serif" font-size="10.00">+ ~IQuantity()</text>
<text text-anchor="start" x="28.5713" y="-6.5" font-family="Helvetica,sans-Serif" font-size="10.00">+ unit()</text>
</g>
<!-- Node2 -->
<g id="node2" class="node"><title>Node2</title>
<g id="a_node2"><a xlink:href="class_hydro_couple_1_1_i_value_definition.html" target="_top" xlink:title="IValueDefinition describes a value returned by the getValues function of IValueSet. ">
<polygon fill="white" stroke="black" points="5.92773,-101.5 5.92773,-195.5 155.155,-195.5 155.155,-101.5 5.92773,-101.5"/>
<text text-anchor="middle" x="80.5415" y="-183.5" font-family="Helvetica,sans-Serif" font-size="10.00">HydroCouple::IValueDefinition</text>
<polyline fill="none" stroke="black" points="5.92773,-177.5 155.155,-177.5 "/>
<text text-anchor="middle" x="80.5415" y="-165.5" font-family="Helvetica,sans-Serif" font-size="10.00"> </text>
<polyline fill="none" stroke="black" points="5.92773,-159.5 155.155,-159.5 "/>
<text text-anchor="start" x="13.9277" y="-147.5" font-family="Helvetica,sans-Serif" font-size="10.00">+ ~IValueDefinition()</text>
<text text-anchor="start" x="13.9277" y="-137.5" font-family="Helvetica,sans-Serif" font-size="10.00">+ type()</text>
<text text-anchor="start" x="13.9277" y="-127.5" font-family="Helvetica,sans-Serif" font-size="10.00">+ missingValue()</text>
<text text-anchor="start" x="13.9277" y="-117.5" font-family="Helvetica,sans-Serif" font-size="10.00">+ defaultValue()</text>
<text text-anchor="start" x="13.9277" y="-107.5" font-family="Helvetica,sans-Serif" font-size="10.00">+ possibleValues()</text>
</a>
</g>
</g>
<!-- Node2&#45;&gt;Node1 -->
<g id="edge1" class="edge"><title>Node2&#45;&gt;Node1</title>
<path fill="none" stroke="midnightblue" d="M80.5415,-91.2119C80.5415,-82.0811 80.5415,-72.926 80.5415,-64.684"/>
<polygon fill="none" stroke="midnightblue" points="77.0416,-91.4604 80.5415,-101.46 84.0416,-91.4605 77.0416,-91.4604"/>
</g>
<!-- Node3 -->
<g id="node3" class="node"><title>Node3</title>
<g id="a_node3"><a xlink:href="class_hydro_couple_1_1_i_description.html" target="_top" xlink:title="IDescription interface class provides descriptive information on a HydroCouple object. ">
<polygon fill="white" stroke="black" points="14.1821,-232.5 14.1821,-326.5 146.901,-326.5 146.901,-232.5 14.1821,-232.5"/>
<text text-anchor="middle" x="80.5415" y="-314.5" font-family="Helvetica,sans-Serif" font-size="10.00">HydroCouple::IDescription</text>
<polyline fill="none" stroke="black" points="14.1821,-308.5 146.901,-308.5 "/>
<text text-anchor="middle" x="80.5415" y="-296.5" font-family="Helvetica,sans-Serif" font-size="10.00"> </text>
<polyline fill="none" stroke="black" points="14.1821,-290.5 146.901,-290.5 "/>
<text text-anchor="start" x="22.1821" y="-278.5" font-family="Helvetica,sans-Serif" font-size="10.00">+ ~IDescription()</text>
<text text-anchor="start" x="22.1821" y="-268.5" font-family="Helvetica,sans-Serif" font-size="10.00">+ getCaption()</text>
<text text-anchor="start" x="22.1821" y="-258.5" font-family="Helvetica,sans-Serif" font-size="10.00">+ setCaption()</text>
<text text-anchor="start" x="22.1821" y="-248.5" font-family="Helvetica,sans-Serif" font-size="10.00">+ getDescription()</text>
<text text-anchor="start" x="22.1821" y="-238.5" font-family="Helvetica,sans-Serif" font-size="10.00">+ setDescription()</text>
</a>
</g>
</g>
<!-- Node3&#45;&gt;Node2 -->
<g id="edge2" class="edge"><title>Node3&#45;&gt;Node2</title>
<path fill="none" stroke="midnightblue" d="M80.5415,-222.115C80.5415,-213.332 80.5415,-204.344 80.5415,-195.819"/>
<polygon fill="none" stroke="midnightblue" points="77.0416,-222.292 80.5415,-232.292 84.0416,-222.292 77.0416,-222.292"/>
</g>
<!-- Node4 -->
<g id="node4" class="node"><title>Node4</title>
<g id="a_node4"><a xlink:href="class_hydro_couple_1_1_i_property_changed.html" target="_top" xlink:title="IPropertyChanged interface is used to emit signal/event when a property of an object changes...">
<polygon fill="white" stroke="black" points="0,-363.5 0,-417.5 161.083,-417.5 161.083,-363.5 0,-363.5"/>
<text text-anchor="middle" x="80.5415" y="-405.5" font-family="Helvetica,sans-Serif" font-size="10.00">HydroCouple::IPropertyChanged</text>
<polyline fill="none" stroke="black" points="0,-399.5 161.083,-399.5 "/>
<text text-anchor="middle" x="80.5415" y="-387.5" font-family="Helvetica,sans-Serif" font-size="10.00"> </text>
<polyline fill="none" stroke="black" points="0,-381.5 161.083,-381.5 "/>
<text text-anchor="start" x="8" y="-369.5" font-family="Helvetica,sans-Serif" font-size="10.00">+ ~IPropertyChanged()</text>
</a>
</g>
</g>
<!-- Node4&#45;&gt;Node3 -->
<g id="edge3" class="edge"><title>Node4&#45;&gt;Node3</title>
<path fill="none" stroke="midnightblue" d="M80.5415,-353.141C80.5415,-344.716 80.5415,-335.639 80.5415,-326.851"/>
<polygon fill="none" stroke="midnightblue" points="77.0416,-353.392 80.5415,-363.392 84.0416,-353.392 77.0416,-353.392"/>
</g>
</g>
</svg>
