<?xml version="1.0" encoding="UTF-8" standalone="no"?>
<!DOCTYPE svg PUBLIC "-//W3C//DTD SVG 1.1//EN"
 "http://www.w3.org/Graphics/SVG/1.1/DTD/svg11.dtd">
<!-- Generated by graphviz version 2.38.0 (20140413.2041)
 -->
<!-- Title: Identity Pages: 1 -->
<svg width="253pt" height="506pt"
 viewBox="0.00 0.00 253.14 506.00" xmlns="http://www.w3.org/2000/svg" xmlns:xlink="http://www.w3.org/1999/xlink">
<g id="graph0" class="graph" transform="scale(1 1) rotate(0) translate(4 502)">
<title>Identity</title>
<polygon fill="white" stroke="none" points="-4,4 -4,-502 249.141,-502 249.141,4 -4,4"/>
<!-- Node1 -->
<g id="node1" class="node"><title>Node1</title>
<polygon fill="#bfbfbf" stroke="black" points="73.9199,-0.5 73.9199,-94.5 143.279,-94.5 143.279,-0.5 73.9199,-0.5"/>
<text text-anchor="middle" x="108.6" y="-82.5" font-family="Helvetica,sans-Serif" font-size="10.00">Identity</text>
<polyline fill="none" stroke="black" points="73.9199,-76.5 143.279,-76.5 "/>
<text text-anchor="start" x="81.9199" y="-64.5" font-family="Helvetica,sans-Serif" font-size="10.00">+ Id</text>
<polyline fill="none" stroke="black" points="73.9199,-58.5 143.279,-58.5 "/>
<text text-anchor="start" x="81.9199" y="-46.5" font-family="Helvetica,sans-Serif" font-size="10.00">+ Identity()</text>
<text text-anchor="start" x="81.9199" y="-36.5" font-family="Helvetica,sans-Serif" font-size="10.00">+ Identity()</text>
<text text-anchor="start" x="81.9199" y="-26.5" font-family="Helvetica,sans-Serif" font-size="10.00">+ ~Identity()</text>
<text text-anchor="start" x="81.9199" y="-16.5" font-family="Helvetica,sans-Serif" font-size="10.00">+ id()</text>
<text text-anchor="start" x="81.9199" y="-6.5" font-family="Helvetica,sans-Serif" font-size="10.00"># setId()</text>
</g>
<!-- Node2 -->
<g id="node2" class="node"><title>Node2</title>
<g id="a_node2"><a xlink:href="class_description.html" target="_top" xlink:title="{Description\n|+ Caption\l+ Description\l# m_caption\l# m_description\l|+ Description()\l+ Description()\l+ ~Description()\l+ getCaption()\l+ setCaption()\l+ getDescription()\l+ setDescription()\l}">
<polygon fill="white" stroke="black" points="0,-131.5 0,-275.5 95.1992,-275.5 95.1992,-131.5 0,-131.5"/>
<text text-anchor="middle" x="47.5996" y="-263.5" font-family="Helvetica,sans-Serif" font-size="10.00">Description</text>
<polyline fill="none" stroke="black" points="0,-257.5 95.1992,-257.5 "/>
<text text-anchor="start" x="8" y="-245.5" font-family="Helvetica,sans-Serif" font-size="10.00">+ Caption</text>
<text text-anchor="start" x="8" y="-235.5" font-family="Helvetica,sans-Serif" font-size="10.00">+ Description</text>
<text text-anchor="start" x="8" y="-225.5" font-family="Helvetica,sans-Serif" font-size="10.00"># m_caption</text>
<text text-anchor="start" x="8" y="-215.5" font-family="Helvetica,sans-Serif" font-size="10.00"># m_description</text>
<polyline fill="none" stroke="black" points="0,-209.5 95.1992,-209.5 "/>
<text text-anchor="start" x="8" y="-197.5" font-family="Helvetica,sans-Serif" font-size="10.00">+ Description()</text>
<text text-anchor="start" x="8" y="-187.5" font-family="Helvetica,sans-Serif" font-size="10.00">+ Description()</text>
<text text-anchor="start" x="8" y="-177.5" font-family="Helvetica,sans-Serif" font-size="10.00">+ ~Description()</text>
<text text-anchor="start" x="8" y="-167.5" font-family="Helvetica,sans-Serif" font-size="10.00">+ getCaption()</text>
<text text-anchor="start" x="8" y="-157.5" font-family="Helvetica,sans-Serif" font-size="10.00">+ setCaption()</text>
<text text-anchor="start" x="8" y="-147.5" font-family="Helvetica,sans-Serif" font-size="10.00">+ getDescription()</text>
<text text-anchor="start" x="8" y="-137.5" font-family="Helvetica,sans-Serif" font-size="10.00">+ setDescription()</text>
</a>
</g>
</g>
<!-- Node2&#45;&gt;Node1 -->
<g id="edge1" class="edge"><title>Node2&#45;&gt;Node1</title>
<path fill="none" stroke="midnightblue" d="M79.4847,-122.003C83.1901,-112.649 86.8682,-103.363 90.2995,-94.7002"/>
<polygon fill="none" stroke="midnightblue" points="76.2071,-120.774 75.7784,-131.36 82.7151,-123.352 76.2071,-120.774"/>
</g>
<!-- Node3 -->
<g id="node3" class="node"><title>Node3</title>
<polygon fill="white" stroke="#bfbfbf" points="21.2598,-332.5 21.2598,-386.5 73.9395,-386.5 73.9395,-332.5 21.2598,-332.5"/>
<text text-anchor="middle" x="47.5996" y="-374.5" font-family="Helvetica,sans-Serif" font-size="10.00">QObject</text>
<polyline fill="none" stroke="#bfbfbf" points="21.2598,-368.5 73.9395,-368.5 "/>
<text text-anchor="middle" x="47.5996" y="-356.5" font-family="Helvetica,sans-Serif" font-size="10.00"> </text>
<polyline fill="none" stroke="#bfbfbf" points="21.2598,-350.5 73.9395,-350.5 "/>
<text text-anchor="middle" x="47.5996" y="-338.5" font-family="Helvetica,sans-Serif" font-size="10.00"> </text>
</g>
<!-- Node3&#45;&gt;Node2 -->
<g id="edge2" class="edge"><title>Node3&#45;&gt;Node2</title>
<path fill="none" stroke="midnightblue" d="M47.5996,-322.221C47.5996,-308.239 47.5996,-291.741 47.5996,-275.592"/>
<polygon fill="none" stroke="midnightblue" points="44.0997,-322.376 47.5996,-332.376 51.0997,-322.376 44.0997,-322.376"/>
</g>
<!-- Node4 -->
<g id="node4" class="node"><title>Node4</title>
<g id="a_node4"><a xlink:href="class_hydro_couple_1_1_i_description.html" target="_top" xlink:title="IDescription interface class provides descriptive information on a HydroCouple object. ">
<polygon fill="white" stroke="black" points="98.2402,-312.5 98.2402,-406.5 230.959,-406.5 230.959,-312.5 98.2402,-312.5"/>
<text text-anchor="middle" x="164.6" y="-394.5" font-family="Helvetica,sans-Serif" font-size="10.00">HydroCouple::IDescription</text>
<polyline fill="none" stroke="black" points="98.2402,-388.5 230.959,-388.5 "/>
<text text-anchor="middle" x="164.6" y="-376.5" font-family="Helvetica,sans-Serif" font-size="10.00"> </text>
<polyline fill="none" stroke="black" points="98.2402,-370.5 230.959,-370.5 "/>
<text text-anchor="start" x="106.24" y="-358.5" font-family="Helvetica,sans-Serif" font-size="10.00">+ ~IDescription()</text>
<text text-anchor="start" x="106.24" y="-348.5" font-family="Helvetica,sans-Serif" font-size="10.00">+ getCaption()</text>
<text text-anchor="start" x="106.24" y="-338.5" font-family="Helvetica,sans-Serif" font-size="10.00">+ setCaption()</text>
<text text-anchor="start" x="106.24" y="-328.5" font-family="Helvetica,sans-Serif" font-size="10.00">+ getDescription()</text>
<text text-anchor="start" x="106.24" y="-318.5" font-family="Helvetica,sans-Serif" font-size="10.00">+ setDescription()</text>
</a>
</g>
</g>
<!-- Node4&#45;&gt;Node2 -->
<g id="edge3" class="edge"><title>Node4&#45;&gt;Node2</title>
<path fill="none" stroke="midnightblue" d="M123.316,-304.161C114.233,-292.205 104.541,-279.449 95.2302,-267.193"/>
<polygon fill="none" stroke="midnightblue" points="120.659,-306.45 129.496,-312.295 126.233,-302.215 120.659,-306.45"/>
</g>
<!-- Node6 -->
<g id="node6" class="node"><title>Node6</title>
<g id="a_node6"><a xlink:href="class_hydro_couple_1_1_i_identity.html" target="_top" xlink:title="IIdentity interface class defines a method to get the Id of an HydroCouple entity. &#160;IIdentity extends the IDescription interface class, and therefore has, next to the id, a caption and a description. ">
<polygon fill="white" stroke="black" points="113.129,-171.5 113.129,-235.5 228.07,-235.5 228.07,-171.5 113.129,-171.5"/>
<text text-anchor="middle" x="170.6" y="-223.5" font-family="Helvetica,sans-Serif" font-size="10.00">HydroCouple::IIdentity</text>
<polyline fill="none" stroke="black" points="113.129,-217.5 228.07,-217.5 "/>
<text text-anchor="middle" x="170.6" y="-205.5" font-family="Helvetica,sans-Serif" font-size="10.00"> </text>
<polyline fill="none" stroke="black" points="113.129,-199.5 228.07,-199.5 "/>
<text text-anchor="start" x="121.129" y="-187.5" font-family="Helvetica,sans-Serif" font-size="10.00">+ ~IIdentity()</text>
<text text-anchor="start" x="121.129" y="-177.5" font-family="Helvetica,sans-Serif" font-size="10.00">+ id()</text>
</a>
</g>
</g>
<!-- Node4&#45;&gt;Node6 -->
<g id="edge6" class="edge"><title>Node4&#45;&gt;Node6</title>
<path fill="none" stroke="midnightblue" d="M166.794,-302.171C167.67,-279.681 168.646,-254.651 169.389,-235.56"/>
<polygon fill="none" stroke="midnightblue" points="163.292,-302.166 166.4,-312.295 170.287,-302.439 163.292,-302.166"/>
</g>
<!-- Node5 -->
<g id="node5" class="node"><title>Node5</title>
<g id="a_node5"><a xlink:href="class_hydro_couple_1_1_i_property_changed.html" target="_top" xlink:title="IPropertyChanged interface is used to emit signal/event when a property of an object changes...">
<polygon fill="white" stroke="black" points="84.0581,-443.5 84.0581,-497.5 245.141,-497.5 245.141,-443.5 84.0581,-443.5"/>
<text text-anchor="middle" x="164.6" y="-485.5" font-family="Helvetica,sans-Serif" font-size="10.00">HydroCouple::IPropertyChanged</text>
<polyline fill="none" stroke="black" points="84.0581,-479.5 245.141,-479.5 "/>
<text text-anchor="middle" x="164.6" y="-467.5" font-family="Helvetica,sans-Serif" font-size="10.00"> </text>
<polyline fill="none" stroke="black" points="84.0581,-461.5 245.141,-461.5 "/>
<text text-anchor="start" x="92.0581" y="-449.5" font-family="Helvetica,sans-Serif" font-size="10.00">+ ~IPropertyChanged()</text>
</a>
</g>
</g>
<!-- Node5&#45;&gt;Node4 -->
<g id="edge4" class="edge"><title>Node5&#45;&gt;Node4</title>
<path fill="none" stroke="midnightblue" d="M164.6,-433.141C164.6,-424.716 164.6,-415.639 164.6,-406.851"/>
<polygon fill="none" stroke="midnightblue" points="161.1,-433.392 164.6,-443.392 168.1,-433.392 161.1,-433.392"/>
</g>
<!-- Node6&#45;&gt;Node1 -->
<g id="edge5" class="edge"><title>Node6&#45;&gt;Node1</title>
<path fill="none" stroke="midnightblue" d="M154.245,-161.878C145.913,-141.182 135.748,-115.932 127.127,-94.5193"/>
<polygon fill="none" stroke="midnightblue" points="151.071,-163.367 158.053,-171.336 157.565,-160.752 151.071,-163.367"/>
</g>
</g>
</svg>
