<?xml version="1.0" encoding="UTF-8" standalone="no"?>
<!DOCTYPE svg PUBLIC "-//W3C//DTD SVG 1.1//EN"
 "http://www.w3.org/Graphics/SVG/1.1/DTD/svg11.dtd">
<!-- Generated by graphviz version 2.38.0 (20140413.2041)
 -->
<!-- Title: HydroCouple::SpatioTemporal::ITimeGeometryComponentItem Pages: 1 -->
<svg width="344pt" height="749pt"
 viewBox="0.00 0.00 344.49 749.00" xmlns="http://www.w3.org/2000/svg" xmlns:xlink="http://www.w3.org/1999/xlink">
<g id="graph0" class="graph" transform="scale(1 1) rotate(0) translate(4 745)">
<title>HydroCouple::SpatioTemporal::ITimeGeometryComponentItem</title>
<polygon fill="white" stroke="none" points="-4,4 -4,-745 340.491,-745 340.491,4 -4,4"/>
<!-- Node1 -->
<g id="node1" class="node"><title>Node1</title>
<polygon fill="#bfbfbf" stroke="black" points="74.3013,-101.5 74.3013,-165.5 251.102,-165.5 251.102,-101.5 74.3013,-101.5"/>
<text text-anchor="start" x="82.3013" y="-153.5" font-family="Helvetica,sans-Serif" font-size="10.00">HydroCouple::SpatioTemporal</text>
<text text-anchor="middle" x="162.702" y="-143.5" font-family="Helvetica,sans-Serif" font-size="10.00">::ITimeGeometryComponentItem</text>
<polyline fill="none" stroke="black" points="74.3013,-137.5 251.102,-137.5 "/>
<text text-anchor="middle" x="162.702" y="-125.5" font-family="Helvetica,sans-Serif" font-size="10.00"> </text>
<polyline fill="none" stroke="black" points="74.3013,-119.5 251.102,-119.5 "/>
<text text-anchor="start" x="82.3013" y="-107.5" font-family="Helvetica,sans-Serif" font-size="10.00">+ ~ITimeGeometryComponentItem()</text>
</g>
<!-- Node8 -->
<g id="node8" class="node"><title>Node8</title>
<g id="a_node8"><a xlink:href="class_hydro_couple_1_1_spatio_temporal_1_1_i_time_geometry_argument.html" target="_top" xlink:title="The ITimeGeometryArgument class. ">
<polygon fill="white" stroke="black" points="0,-0.5 0,-64.5 149.403,-64.5 149.403,-0.5 0,-0.5"/>
<text text-anchor="start" x="8" y="-52.5" font-family="Helvetica,sans-Serif" font-size="10.00">HydroCouple::SpatioTemporal</text>
<text text-anchor="middle" x="74.7017" y="-42.5" font-family="Helvetica,sans-Serif" font-size="10.00">::ITimeGeometryArgument</text>
<polyline fill="none" stroke="black" points="0,-36.5 149.403,-36.5 "/>
<text text-anchor="middle" x="74.7017" y="-24.5" font-family="Helvetica,sans-Serif" font-size="10.00"> </text>
<polyline fill="none" stroke="black" points="0,-18.5 149.403,-18.5 "/>
<text text-anchor="start" x="8" y="-6.5" font-family="Helvetica,sans-Serif" font-size="10.00">+ ~ITimeGeometryArgument()</text>
</a>
</g>
</g>
<!-- Node1&#45;&gt;Node8 -->
<g id="edge8" class="edge"><title>Node1&#45;&gt;Node8</title>
<path fill="none" stroke="midnightblue" d="M128.365,-93.8716C119.798,-84.2333 110.716,-74.0166 102.509,-64.7828"/>
<polygon fill="none" stroke="midnightblue" points="125.84,-96.2986 135.099,-101.447 131.072,-91.648 125.84,-96.2986"/>
</g>
<!-- Node9 -->
<g id="node9" class="node"><title>Node9</title>
<g id="a_node9"><a xlink:href="class_hydro_couple_1_1_spatio_temporal_1_1_i_time_geometry_exchange_item.html" target="_top" xlink:title="The ITimeGeometryExchangeItem class. ">
<polygon fill="white" stroke="black" points="166.912,-0.5 166.912,-64.5 336.491,-64.5 336.491,-0.5 166.912,-0.5"/>
<text text-anchor="start" x="174.912" y="-52.5" font-family="Helvetica,sans-Serif" font-size="10.00">HydroCouple::SpatioTemporal</text>
<text text-anchor="middle" x="251.702" y="-42.5" font-family="Helvetica,sans-Serif" font-size="10.00">::ITimeGeometryExchangeItem</text>
<polyline fill="none" stroke="black" points="166.912,-36.5 336.491,-36.5 "/>
<text text-anchor="middle" x="251.702" y="-24.5" font-family="Helvetica,sans-Serif" font-size="10.00"> </text>
<polyline fill="none" stroke="black" points="166.912,-18.5 336.491,-18.5 "/>
<text text-anchor="start" x="174.912" y="-6.5" font-family="Helvetica,sans-Serif" font-size="10.00">+ ~ITimeGeometryExchangeItem()</text>
</a>
</g>
</g>
<!-- Node1&#45;&gt;Node9 -->
<g id="edge9" class="edge"><title>Node1&#45;&gt;Node9</title>
<path fill="none" stroke="midnightblue" d="M197.428,-93.8716C206.093,-84.2333 215.278,-74.0166 223.579,-64.7828"/>
<polygon fill="none" stroke="midnightblue" points="194.7,-91.6708 190.618,-101.447 199.906,-96.3506 194.7,-91.6708"/>
</g>
<!-- Node2 -->
<g id="node2" class="node"><title>Node2</title>
<g id="a_node2"><a xlink:href="class_hydro_couple_1_1_temporal_1_1_i_time_component_item.html" target="_top" xlink:title="ITimeComponentItem is an IComponentItem with a temporal attribute. ">
<polygon fill="white" stroke="black" points="15.252,-202.5 15.252,-306.5 148.151,-306.5 148.151,-202.5 15.252,-202.5"/>
<text text-anchor="start" x="23.252" y="-294.5" font-family="Helvetica,sans-Serif" font-size="10.00">HydroCouple::Temporal</text>
<text text-anchor="middle" x="81.7017" y="-284.5" font-family="Helvetica,sans-Serif" font-size="10.00">::ITimeComponentItem</text>
<polyline fill="none" stroke="black" points="15.252,-278.5 148.151,-278.5 "/>
<text text-anchor="middle" x="81.7017" y="-266.5" font-family="Helvetica,sans-Serif" font-size="10.00"> </text>
<polyline fill="none" stroke="black" points="15.252,-260.5 148.151,-260.5 "/>
<text text-anchor="start" x="23.252" y="-248.5" font-family="Helvetica,sans-Serif" font-size="10.00">+ ~ITimeComponentItem()</text>
<text text-anchor="start" x="23.252" y="-238.5" font-family="Helvetica,sans-Serif" font-size="10.00">+ timeDimension()</text>
<text text-anchor="start" x="23.252" y="-228.5" font-family="Helvetica,sans-Serif" font-size="10.00">+ times()</text>
<text text-anchor="start" x="23.252" y="-218.5" font-family="Helvetica,sans-Serif" font-size="10.00">+ timeSpan()</text>
<text text-anchor="start" x="23.252" y="-208.5" font-family="Helvetica,sans-Serif" font-size="10.00">+ time()</text>
</a>
</g>
</g>
<!-- Node2&#45;&gt;Node1 -->
<g id="edge1" class="edge"><title>Node2&#45;&gt;Node1</title>
<path fill="none" stroke="midnightblue" d="M122.328,-193.814C128.953,-184.082 135.573,-174.356 141.479,-165.678"/>
<polygon fill="none" stroke="midnightblue" points="119.257,-192.107 116.523,-202.343 125.043,-196.045 119.257,-192.107"/>
</g>
<!-- Node3 -->
<g id="node3" class="node"><title>Node3</title>
<g id="a_node3"><a xlink:href="class_hydro_couple_1_1_i_component_item.html" target="_top" xlink:title="IComponentItem is a fundamental unit of data for a component. ">
<polygon fill="white" stroke="black" points="85.7783,-343.5 85.7783,-417.5 239.625,-417.5 239.625,-343.5 85.7783,-343.5"/>
<text text-anchor="middle" x="162.702" y="-405.5" font-family="Helvetica,sans-Serif" font-size="10.00">HydroCouple::IComponentItem</text>
<polyline fill="none" stroke="black" points="85.7783,-399.5 239.625,-399.5 "/>
<text text-anchor="middle" x="162.702" y="-387.5" font-family="Helvetica,sans-Serif" font-size="10.00"> </text>
<polyline fill="none" stroke="black" points="85.7783,-381.5 239.625,-381.5 "/>
<text text-anchor="start" x="93.7783" y="-369.5" font-family="Helvetica,sans-Serif" font-size="10.00">+ ~IComponentItem()</text>
<text text-anchor="start" x="93.7783" y="-359.5" font-family="Helvetica,sans-Serif" font-size="10.00">+ modelComponent()</text>
<text text-anchor="start" x="93.7783" y="-349.5" font-family="Helvetica,sans-Serif" font-size="10.00">+ dimensions()</text>
</a>
</g>
</g>
<!-- Node3&#45;&gt;Node2 -->
<g id="edge2" class="edge"><title>Node3&#45;&gt;Node2</title>
<path fill="none" stroke="midnightblue" d="M133.482,-334.768C127.536,-325.667 121.238,-316.025 115.159,-306.719"/>
<polygon fill="none" stroke="midnightblue" points="130.656,-336.843 139.055,-343.301 136.517,-333.015 130.656,-336.843"/>
</g>
<!-- Node7 -->
<g id="node7" class="node"><title>Node7</title>
<g id="a_node7"><a xlink:href="class_hydro_couple_1_1_spatial_1_1_i_geometry_component_item.html" target="_top" xlink:title="IGeometryComponentItem represents IGeometryCollection IComponentItem. ">
<polygon fill="white" stroke="black" points="166.229,-207.5 166.229,-301.5 321.174,-301.5 321.174,-207.5 166.229,-207.5"/>
<text text-anchor="start" x="174.229" y="-289.5" font-family="Helvetica,sans-Serif" font-size="10.00">HydroCouple::Spatial</text>
<text text-anchor="middle" x="243.702" y="-279.5" font-family="Helvetica,sans-Serif" font-size="10.00">::IGeometryComponentItem</text>
<polyline fill="none" stroke="black" points="166.229,-273.5 321.174,-273.5 "/>
<text text-anchor="middle" x="243.702" y="-261.5" font-family="Helvetica,sans-Serif" font-size="10.00"> </text>
<polyline fill="none" stroke="black" points="166.229,-255.5 321.174,-255.5 "/>
<text text-anchor="start" x="174.229" y="-243.5" font-family="Helvetica,sans-Serif" font-size="10.00">+ ~IGeometryComponentItem()</text>
<text text-anchor="start" x="174.229" y="-233.5" font-family="Helvetica,sans-Serif" font-size="10.00">+ geometryDimension()</text>
<text text-anchor="start" x="174.229" y="-223.5" font-family="Helvetica,sans-Serif" font-size="10.00">+ geometryCollection()</text>
<text text-anchor="start" x="174.229" y="-213.5" font-family="Helvetica,sans-Serif" font-size="10.00">+ geometry()</text>
</a>
</g>
</g>
<!-- Node3&#45;&gt;Node7 -->
<g id="edge7" class="edge"><title>Node3&#45;&gt;Node7</title>
<path fill="none" stroke="midnightblue" d="M191.869,-334.849C198.908,-324.073 206.444,-312.536 213.529,-301.691"/>
<polygon fill="none" stroke="midnightblue" points="188.887,-333.015 186.348,-343.301 194.747,-336.843 188.887,-333.015"/>
</g>
<!-- Node4 -->
<g id="node4" class="node"><title>Node4</title>
<g id="a_node4"><a xlink:href="class_hydro_couple_1_1_i_identity.html" target="_top" xlink:title="IIdentity interface class defines a method to get the Id of an HydroCouple entity. ">
<polygon fill="white" stroke="black" points="105.231,-454.5 105.231,-518.5 220.172,-518.5 220.172,-454.5 105.231,-454.5"/>
<text text-anchor="middle" x="162.702" y="-506.5" font-family="Helvetica,sans-Serif" font-size="10.00">HydroCouple::IIdentity</text>
<polyline fill="none" stroke="black" points="105.231,-500.5 220.172,-500.5 "/>
<text text-anchor="middle" x="162.702" y="-488.5" font-family="Helvetica,sans-Serif" font-size="10.00"> </text>
<polyline fill="none" stroke="black" points="105.231,-482.5 220.172,-482.5 "/>
<text text-anchor="start" x="113.231" y="-470.5" font-family="Helvetica,sans-Serif" font-size="10.00">+ ~IIdentity()</text>
<text text-anchor="start" x="113.231" y="-460.5" font-family="Helvetica,sans-Serif" font-size="10.00">+ id()</text>
</a>
</g>
</g>
<!-- Node4&#45;&gt;Node3 -->
<g id="edge3" class="edge"><title>Node4&#45;&gt;Node3</title>
<path fill="none" stroke="midnightblue" d="M162.702,-444.282C162.702,-435.531 162.702,-426.353 162.702,-417.801"/>
<polygon fill="none" stroke="midnightblue" points="159.202,-444.297 162.702,-454.297 166.202,-444.297 159.202,-444.297"/>
</g>
<!-- Node5 -->
<g id="node5" class="node"><title>Node5</title>
<g id="a_node5"><a xlink:href="class_hydro_couple_1_1_i_description.html" target="_top" xlink:title="IDescription interface class provides descriptive information on a HydroCouple object. ">
<polygon fill="white" stroke="black" points="96.3423,-555.5 96.3423,-649.5 229.061,-649.5 229.061,-555.5 96.3423,-555.5"/>
<text text-anchor="middle" x="162.702" y="-637.5" font-family="Helvetica,sans-Serif" font-size="10.00">HydroCouple::IDescription</text>
<polyline fill="none" stroke="black" points="96.3423,-631.5 229.061,-631.5 "/>
<text text-anchor="middle" x="162.702" y="-619.5" font-family="Helvetica,sans-Serif" font-size="10.00"> </text>
<polyline fill="none" stroke="black" points="96.3423,-613.5 229.061,-613.5 "/>
<text text-anchor="start" x="104.342" y="-601.5" font-family="Helvetica,sans-Serif" font-size="10.00">+ ~IDescription()</text>
<text text-anchor="start" x="104.342" y="-591.5" font-family="Helvetica,sans-Serif" font-size="10.00">+ getCaption()</text>
<text text-anchor="start" x="104.342" y="-581.5" font-family="Helvetica,sans-Serif" font-size="10.00">+ setCaption()</text>
<text text-anchor="start" x="104.342" y="-571.5" font-family="Helvetica,sans-Serif" font-size="10.00">+ getDescription()</text>
<text text-anchor="start" x="104.342" y="-561.5" font-family="Helvetica,sans-Serif" font-size="10.00">+ setDescription()</text>
</a>
</g>
</g>
<!-- Node5&#45;&gt;Node4 -->
<g id="edge4" class="edge"><title>Node5&#45;&gt;Node4</title>
<path fill="none" stroke="midnightblue" d="M162.702,-545.212C162.702,-536.081 162.702,-526.926 162.702,-518.684"/>
<polygon fill="none" stroke="midnightblue" points="159.202,-545.46 162.702,-555.46 166.202,-545.46 159.202,-545.46"/>
</g>
<!-- Node6 -->
<g id="node6" class="node"><title>Node6</title>
<g id="a_node6"><a xlink:href="class_hydro_couple_1_1_i_property_changed.html" target="_top" xlink:title="IPropertyChanged interface is used to emit signal/event when a property of an object changes...">
<polygon fill="white" stroke="black" points="82.1602,-686.5 82.1602,-740.5 243.243,-740.5 243.243,-686.5 82.1602,-686.5"/>
<text text-anchor="middle" x="162.702" y="-728.5" font-family="Helvetica,sans-Serif" font-size="10.00">HydroCouple::IPropertyChanged</text>
<polyline fill="none" stroke="black" points="82.1602,-722.5 243.243,-722.5 "/>
<text text-anchor="middle" x="162.702" y="-710.5" font-family="Helvetica,sans-Serif" font-size="10.00"> </text>
<polyline fill="none" stroke="black" points="82.1602,-704.5 243.243,-704.5 "/>
<text text-anchor="start" x="90.1602" y="-692.5" font-family="Helvetica,sans-Serif" font-size="10.00">+ ~IPropertyChanged()</text>
</a>
</g>
</g>
<!-- Node6&#45;&gt;Node5 -->
<g id="edge5" class="edge"><title>Node6&#45;&gt;Node5</title>
<path fill="none" stroke="midnightblue" d="M162.702,-676.141C162.702,-667.716 162.702,-658.639 162.702,-649.851"/>
<polygon fill="none" stroke="midnightblue" points="159.202,-676.392 162.702,-686.392 166.202,-676.392 159.202,-676.392"/>
</g>
<!-- Node7&#45;&gt;Node1 -->
<g id="edge6" class="edge"><title>Node7&#45;&gt;Node1</title>
<path fill="none" stroke="midnightblue" d="M206.738,-199.195C198.916,-187.704 190.917,-175.952 183.92,-165.672"/>
<polygon fill="none" stroke="midnightblue" points="203.865,-201.194 212.385,-207.491 209.651,-197.255 203.865,-201.194"/>
</g>
</g>
</svg>
