<?xml version="1.0" encoding="UTF-8" standalone="no"?>
<!DOCTYPE svg PUBLIC "-//W3C//DTD SVG 1.1//EN"
 "http://www.w3.org/Graphics/SVG/1.1/DTD/svg11.dtd">
<!-- Generated by graphviz version 2.38.0 (20140413.2041)
 -->
<!-- Title: HydroCouple::IModelComponentInfo Pages: 1 -->
<svg width="216pt" height="831pt"
 viewBox="0.00 0.00 216.03 831.39" xmlns="http://www.w3.org/2000/svg" xmlns:xlink="http://www.w3.org/1999/xlink">
<g id="graph0" class="graph" transform="scale(1 1) rotate(0) translate(4 827.394)">
<title>HydroCouple::IModelComponentInfo</title>
<polygon fill="white" stroke="none" points="-4,4 -4,-827.394 212.031,-827.394 212.031,4 -4,4"/>
<!-- Node1 -->
<g id="node1" class="node"><title>Node1</title>
<polygon fill="#bfbfbf" stroke="black" points="0,-101.505 0,-178.845 208.031,-178.845 208.031,-101.505 0,-101.505"/>
<text text-anchor="middle" x="104.016" y="-166.845" font-family="Monaco" font-size="10.00">HydroCouple::IModelComponentInfo</text>
<polyline fill="none" stroke="black" points="0,-157.51 208.031,-157.51 "/>
<text text-anchor="middle" x="104.016" y="-145.51" font-family="Monaco" font-size="10.00"> </text>
<polyline fill="none" stroke="black" points="0,-136.175 208.031,-136.175 "/>
<text text-anchor="start" x="8" y="-124.175" font-family="Monaco" font-size="10.00">+ ~IModelComponentInfo()</text>
<text text-anchor="start" x="8" y="-110.84" font-family="Monaco" font-size="10.00">+ createComponentInstance()</text>
</g>
<!-- Node6 -->
<g id="node6" class="node"><title>Node6</title>
<g id="a_node6"><a xlink:href="class_model_component_info.html" target="_top" xlink:title="The ModelComponentInfo class. ">
<polygon fill="white" stroke="black" points="42.0068,-0.5 42.0068,-64.5049 166.024,-64.5049 166.024,-0.5 42.0068,-0.5"/>
<text text-anchor="middle" x="104.016" y="-52.5049" font-family="Monaco" font-size="10.00">ModelComponentInfo</text>
<polyline fill="none" stroke="black" points="42.0068,-43.1699 166.024,-43.1699 "/>
<text text-anchor="middle" x="104.016" y="-31.1699" font-family="Monaco" font-size="10.00"> </text>
<polyline fill="none" stroke="black" points="42.0068,-21.835 166.024,-21.835 "/>
<text text-anchor="middle" x="104.016" y="-9.83496" font-family="Monaco" font-size="10.00"> </text>
</a>
</g>
</g>
<!-- Node1&#45;&gt;Node6 -->
<g id="edge5" class="edge"><title>Node1&#45;&gt;Node6</title>
<path fill="none" stroke="midnightblue" d="M104.016,-91.3154C104.016,-82.3288 104.016,-73.1485 104.016,-64.8267"/>
<polygon fill="none" stroke="midnightblue" points="100.516,-91.3231 104.016,-101.323 107.516,-91.3232 100.516,-91.3231"/>
</g>
<!-- Node2 -->
<g id="node2" class="node"><title>Node2</title>
<g id="a_node2"><a xlink:href="class_hydro_couple_1_1_i_component_info.html" target="_top" xlink:title="IComponentInfo interface class provides detailed metadata about a component. ">
<polygon fill="white" stroke="black" points="15.0024,-215.845 15.0024,-453.204 193.029,-453.204 193.029,-215.845 15.0024,-215.845"/>
<text text-anchor="middle" x="104.016" y="-441.204" font-family="Monaco" font-size="10.00">HydroCouple::IComponentInfo</text>
<polyline fill="none" stroke="black" points="15.0024,-431.869 193.029,-431.869 "/>
<text text-anchor="middle" x="104.016" y="-419.869" font-family="Monaco" font-size="10.00"> </text>
<polyline fill="none" stroke="black" points="15.0024,-410.534 193.029,-410.534 "/>
<text text-anchor="start" x="23.0024" y="-398.534" font-family="Monaco" font-size="10.00">+ ~IComponentInfo()</text>
<text text-anchor="start" x="23.0024" y="-385.199" font-family="Monaco" font-size="10.00">+ name()</text>
<text text-anchor="start" x="23.0024" y="-371.864" font-family="Monaco" font-size="10.00">+ libraryFilePath()</text>
<text text-anchor="start" x="23.0024" y="-358.529" font-family="Monaco" font-size="10.00">+ setLibraryFilePath()</text>
<text text-anchor="start" x="23.0024" y="-345.194" font-family="Monaco" font-size="10.00">+ iconFilePath()</text>
<text text-anchor="start" x="23.0024" y="-331.859" font-family="Monaco" font-size="10.00">+ vendor()</text>
<text text-anchor="start" x="23.0024" y="-318.524" font-family="Monaco" font-size="10.00">+ publications()</text>
<text text-anchor="start" x="23.0024" y="-305.189" font-family="Monaco" font-size="10.00">+ license()</text>
<text text-anchor="start" x="23.0024" y="-291.854" font-family="Monaco" font-size="10.00">+ copyright()</text>
<text text-anchor="start" x="23.0024" y="-278.52" font-family="Monaco" font-size="10.00">+ url()</text>
<text text-anchor="start" x="23.0024" y="-265.185" font-family="Monaco" font-size="10.00">+ email()</text>
<text text-anchor="start" x="23.0024" y="-251.85" font-family="Monaco" font-size="10.00">+ version()</text>
<text text-anchor="start" x="23.0024" y="-238.515" font-family="Monaco" font-size="10.00">+ category()</text>
<text text-anchor="start" x="23.0024" y="-225.18" font-family="Monaco" font-size="10.00">+ validateLicense()</text>
</a>
</g>
</g>
<!-- Node2&#45;&gt;Node1 -->
<g id="edge1" class="edge"><title>Node2&#45;&gt;Node1</title>
<path fill="none" stroke="midnightblue" d="M104.016,-205.696C104.016,-196.129 104.016,-187.033 104.016,-178.848"/>
<polygon fill="none" stroke="midnightblue" points="100.516,-205.817 104.016,-215.817 107.516,-205.818 100.516,-205.817"/>
</g>
<!-- Node3 -->
<g id="node3" class="node"><title>Node3</title>
<g id="a_node3"><a xlink:href="class_hydro_couple_1_1_i_identity.html" target="_top" xlink:title="IIdentity interface class defines a method to get the Id of an HydroCouple entity. ">
<polygon fill="white" stroke="black" points="30.0049,-490.204 30.0049,-567.544 178.026,-567.544 178.026,-490.204 30.0049,-490.204"/>
<text text-anchor="middle" x="104.016" y="-555.544" font-family="Monaco" font-size="10.00">HydroCouple::IIdentity</text>
<polyline fill="none" stroke="black" points="30.0049,-546.209 178.026,-546.209 "/>
<text text-anchor="middle" x="104.016" y="-534.209" font-family="Monaco" font-size="10.00"> </text>
<polyline fill="none" stroke="black" points="30.0049,-524.874 178.026,-524.874 "/>
<text text-anchor="start" x="38.0049" y="-512.874" font-family="Monaco" font-size="10.00">+ ~IIdentity()</text>
<text text-anchor="start" x="38.0049" y="-499.539" font-family="Monaco" font-size="10.00">+ id()</text>
</a>
</g>
</g>
<!-- Node3&#45;&gt;Node2 -->
<g id="edge2" class="edge"><title>Node3&#45;&gt;Node2</title>
<path fill="none" stroke="midnightblue" d="M104.016,-479.722C104.016,-471.416 104.016,-462.468 104.016,-453.24"/>
<polygon fill="none" stroke="midnightblue" points="100.516,-479.872 104.016,-489.872 107.516,-479.872 100.516,-479.872"/>
</g>
<!-- Node4 -->
<g id="node4" class="node"><title>Node4</title>
<g id="a_node4"><a xlink:href="class_hydro_couple_1_1_i_description.html" target="_top" xlink:title="IDescription interface class provides descriptive information on a HydroCouple object. ">
<polygon fill="white" stroke="black" points="21.0034,-604.544 21.0034,-721.889 187.028,-721.889 187.028,-604.544 21.0034,-604.544"/>
<text text-anchor="middle" x="104.016" y="-709.889" font-family="Monaco" font-size="10.00">HydroCouple::IDescription</text>
<polyline fill="none" stroke="black" points="21.0034,-700.554 187.028,-700.554 "/>
<text text-anchor="middle" x="104.016" y="-688.554" font-family="Monaco" font-size="10.00"> </text>
<polyline fill="none" stroke="black" points="21.0034,-679.219 187.028,-679.219 "/>
<text text-anchor="start" x="29.0034" y="-667.219" font-family="Monaco" font-size="10.00">+ ~IDescription()</text>
<text text-anchor="start" x="29.0034" y="-653.884" font-family="Monaco" font-size="10.00">+ getCaption()</text>
<text text-anchor="start" x="29.0034" y="-640.549" font-family="Monaco" font-size="10.00">+ setCaption()</text>
<text text-anchor="start" x="29.0034" y="-627.214" font-family="Monaco" font-size="10.00">+ getDescription()</text>
<text text-anchor="start" x="29.0034" y="-613.879" font-family="Monaco" font-size="10.00">+ setDescription()</text>
</a>
</g>
</g>
<!-- Node4&#45;&gt;Node3 -->
<g id="edge3" class="edge"><title>Node4&#45;&gt;Node3</title>
<path fill="none" stroke="midnightblue" d="M104.016,-593.978C104.016,-584.939 104.016,-575.952 104.016,-567.691"/>
<polygon fill="none" stroke="midnightblue" points="100.516,-594.169 104.016,-604.169 107.516,-594.169 100.516,-594.169"/>
</g>
<!-- Node5 -->
<g id="node5" class="node"><title>Node5</title>
<g id="a_node5"><a xlink:href="class_hydro_couple_1_1_i_property_changed.html" target="_top" xlink:title="IPropertyChanged interface is used to emit signal/event when a property of an object changes...">
<polygon fill="white" stroke="black" points="9.00146,-758.889 9.00146,-822.894 199.03,-822.894 199.03,-758.889 9.00146,-758.889"/>
<text text-anchor="middle" x="104.016" y="-810.894" font-family="Monaco" font-size="10.00">HydroCouple::IPropertyChanged</text>
<polyline fill="none" stroke="black" points="9.00146,-801.559 199.03,-801.559 "/>
<text text-anchor="middle" x="104.016" y="-789.559" font-family="Monaco" font-size="10.00"> </text>
<polyline fill="none" stroke="black" points="9.00146,-780.224 199.03,-780.224 "/>
<text text-anchor="start" x="17.0015" y="-768.224" font-family="Monaco" font-size="10.00">+ ~IPropertyChanged()</text>
</a>
</g>
</g>
<!-- Node5&#45;&gt;Node4 -->
<g id="edge4" class="edge"><title>Node5&#45;&gt;Node4</title>
<path fill="none" stroke="midnightblue" d="M104.016,-748.568C104.016,-740.183 104.016,-731.217 104.016,-722.375"/>
<polygon fill="none" stroke="midnightblue" points="100.516,-748.825 104.016,-758.825 107.516,-748.825 100.516,-748.825"/>
</g>
</g>
</svg>
