<?xml version="1.0" encoding="UTF-8" standalone="no"?>
<!DOCTYPE svg PUBLIC "-//W3C//DTD SVG 1.1//EN"
 "http://www.w3.org/Graphics/SVG/1.1/DTD/svg11.dtd">
<!-- Generated by graphviz version 2.38.0 (20140413.2041)
 -->
<!-- Title: HydroCouple::IModelComponentInfo Pages: 1 -->
<svg width="216pt" height="744pt"
 viewBox="0.00 0.00 216.03 743.72" xmlns="http://www.w3.org/2000/svg" xmlns:xlink="http://www.w3.org/1999/xlink">
<g id="graph0" class="graph" transform="scale(1 1) rotate(0) translate(4 739.724)">
<title>HydroCouple::IModelComponentInfo</title>
<!-- Node1 -->
<g id="node1" class="node"><title>Node1</title>
<polygon fill="#bfbfbf" stroke="black" points="0,-0.5 0,-77.8398 208.031,-77.8398 208.031,-0.5 0,-0.5"/>
<text text-anchor="middle" x="104.016" y="-65.8398" font-family="Monaco" font-size="10.00">HydroCouple::IModelComponentInfo</text>
<polyline fill="none" stroke="black" points="0,-56.5049 208.031,-56.5049 "/>
<text text-anchor="middle" x="104.016" y="-44.5049" font-family="Monaco" font-size="10.00"> </text>
<polyline fill="none" stroke="black" points="0,-35.1699 208.031,-35.1699 "/>
<text text-anchor="start" x="8" y="-23.1699" font-family="Monaco" font-size="10.00">+ ~IModelComponentInfo()</text>
<text text-anchor="start" x="8" y="-9.83496" font-family="Monaco" font-size="10.00">+ createComponentInstance()</text>
</g>
<!-- Node2 -->
<g id="node2" class="node"><title>Node2</title>
<g id="a_node2"><a xlink:href="class_hydro_couple_1_1_i_component_info.html" target="_top" xlink:title="IComponentInfo interface class provides detailed metadata about a component. ">
<polygon fill="none" stroke="black" points="15.0024,-114.84 15.0024,-365.534 193.029,-365.534 193.029,-114.84 15.0024,-114.84"/>
<text text-anchor="middle" x="104.016" y="-353.534" font-family="Monaco" font-size="10.00">HydroCouple::IComponentInfo</text>
<polyline fill="none" stroke="black" points="15.0024,-344.199 193.029,-344.199 "/>
<text text-anchor="middle" x="104.016" y="-332.199" font-family="Monaco" font-size="10.00"> </text>
<polyline fill="none" stroke="black" points="15.0024,-322.864 193.029,-322.864 "/>
<text text-anchor="start" x="23.0024" y="-310.864" font-family="Monaco" font-size="10.00">+ ~IComponentInfo()</text>
<text text-anchor="start" x="23.0024" y="-297.529" font-family="Monaco" font-size="10.00">+ name()</text>
<text text-anchor="start" x="23.0024" y="-284.194" font-family="Monaco" font-size="10.00">+ libraryFilePath()</text>
<text text-anchor="start" x="23.0024" y="-270.859" font-family="Monaco" font-size="10.00">+ setLibraryFilePath()</text>
<text text-anchor="start" x="23.0024" y="-257.524" font-family="Monaco" font-size="10.00">+ iconFilePath()</text>
<text text-anchor="start" x="23.0024" y="-244.189" font-family="Monaco" font-size="10.00">+ vendor()</text>
<text text-anchor="start" x="23.0024" y="-230.854" font-family="Monaco" font-size="10.00">+ publications()</text>
<text text-anchor="start" x="23.0024" y="-217.52" font-family="Monaco" font-size="10.00">+ license()</text>
<text text-anchor="start" x="23.0024" y="-204.185" font-family="Monaco" font-size="10.00">+ copyright()</text>
<text text-anchor="start" x="23.0024" y="-190.85" font-family="Monaco" font-size="10.00">+ url()</text>
<text text-anchor="start" x="23.0024" y="-177.515" font-family="Monaco" font-size="10.00">+ email()</text>
<text text-anchor="start" x="23.0024" y="-164.18" font-family="Monaco" font-size="10.00">+ version()</text>
<text text-anchor="start" x="23.0024" y="-150.845" font-family="Monaco" font-size="10.00">+ category()</text>
<text text-anchor="start" x="23.0024" y="-137.51" font-family="Monaco" font-size="10.00">+ hasValidLicense()</text>
<text text-anchor="start" x="23.0024" y="-124.175" font-family="Monaco" font-size="10.00">+ validateLicense()</text>
</a>
</g>
</g>
<!-- Node2&#45;&gt;Node1 -->
<g id="edge1" class="edge"><title>Node2&#45;&gt;Node1</title>
<path fill="none" stroke="midnightblue" d="M104.016,-104.523C104.016,-95.0454 104.016,-86.0559 104.016,-77.9657"/>
<polygon fill="none" stroke="midnightblue" points="100.516,-104.56 104.016,-114.56 107.516,-104.56 100.516,-104.56"/>
</g>
<!-- Node3 -->
<g id="node3" class="node"><title>Node3</title>
<g id="a_node3"><a xlink:href="class_hydro_couple_1_1_i_identity.html" target="_top" xlink:title="IIdentity interface class defines a method to get the Id of an HydroCouple entity. ">
<polygon fill="none" stroke="black" points="30.0049,-402.534 30.0049,-479.874 178.026,-479.874 178.026,-402.534 30.0049,-402.534"/>
<text text-anchor="middle" x="104.016" y="-467.874" font-family="Monaco" font-size="10.00">HydroCouple::IIdentity</text>
<polyline fill="none" stroke="black" points="30.0049,-458.539 178.026,-458.539 "/>
<text text-anchor="middle" x="104.016" y="-446.539" font-family="Monaco" font-size="10.00"> </text>
<polyline fill="none" stroke="black" points="30.0049,-437.204 178.026,-437.204 "/>
<text text-anchor="start" x="38.0049" y="-425.204" font-family="Monaco" font-size="10.00">+ ~IIdentity()</text>
<text text-anchor="start" x="38.0049" y="-411.869" font-family="Monaco" font-size="10.00">+ id()</text>
</a>
</g>
</g>
<!-- Node3&#45;&gt;Node2 -->
<g id="edge2" class="edge"><title>Node3&#45;&gt;Node2</title>
<path fill="none" stroke="midnightblue" d="M104.016,-392.152C104.016,-383.84 104.016,-374.866 104.016,-365.583"/>
<polygon fill="none" stroke="midnightblue" points="100.516,-392.302 104.016,-402.302 107.516,-392.302 100.516,-392.302"/>
</g>
<!-- Node4 -->
<g id="node4" class="node"><title>Node4</title>
<g id="a_node4"><a xlink:href="class_hydro_couple_1_1_i_description.html" target="_top" xlink:title="IDescription interface class provides descriptive information on a HydroCouple object. ">
<polygon fill="none" stroke="black" points="21.0034,-516.874 21.0034,-634.219 187.028,-634.219 187.028,-516.874 21.0034,-516.874"/>
<text text-anchor="middle" x="104.016" y="-622.219" font-family="Monaco" font-size="10.00">HydroCouple::IDescription</text>
<polyline fill="none" stroke="black" points="21.0034,-612.884 187.028,-612.884 "/>
<text text-anchor="middle" x="104.016" y="-600.884" font-family="Monaco" font-size="10.00"> </text>
<polyline fill="none" stroke="black" points="21.0034,-591.549 187.028,-591.549 "/>
<text text-anchor="start" x="29.0034" y="-579.549" font-family="Monaco" font-size="10.00">+ ~IDescription()</text>
<text text-anchor="start" x="29.0034" y="-566.214" font-family="Monaco" font-size="10.00">+ caption()</text>
<text text-anchor="start" x="29.0034" y="-552.879" font-family="Monaco" font-size="10.00">+ setCaption()</text>
<text text-anchor="start" x="29.0034" y="-539.544" font-family="Monaco" font-size="10.00">+ description()</text>
<text text-anchor="start" x="29.0034" y="-526.209" font-family="Monaco" font-size="10.00">+ setDescription()</text>
</a>
</g>
</g>
<!-- Node4&#45;&gt;Node3 -->
<g id="edge3" class="edge"><title>Node4&#45;&gt;Node3</title>
<path fill="none" stroke="midnightblue" d="M104.016,-506.308C104.016,-497.269 104.016,-488.282 104.016,-480.022"/>
<polygon fill="none" stroke="midnightblue" points="100.516,-506.499 104.016,-516.499 107.516,-506.499 100.516,-506.499"/>
</g>
<!-- Node5 -->
<g id="node5" class="node"><title>Node5</title>
<g id="a_node5"><a xlink:href="class_hydro_couple_1_1_i_property_changed.html" target="_top" xlink:title="IPropertyChanged interface is used to emit signal/event when a property of an object changes...">
<polygon fill="none" stroke="black" points="9.00146,-671.219 9.00146,-735.224 199.03,-735.224 199.03,-671.219 9.00146,-671.219"/>
<text text-anchor="middle" x="104.016" y="-723.224" font-family="Monaco" font-size="10.00">HydroCouple::IPropertyChanged</text>
<polyline fill="none" stroke="black" points="9.00146,-713.889 199.03,-713.889 "/>
<text text-anchor="middle" x="104.016" y="-701.889" font-family="Monaco" font-size="10.00"> </text>
<polyline fill="none" stroke="black" points="9.00146,-692.554 199.03,-692.554 "/>
<text text-anchor="start" x="17.0015" y="-680.554" font-family="Monaco" font-size="10.00">+ ~IPropertyChanged()</text>
</a>
</g>
</g>
<!-- Node5&#45;&gt;Node4 -->
<g id="edge4" class="edge"><title>Node5&#45;&gt;Node4</title>
<path fill="none" stroke="midnightblue" d="M104.016,-660.898C104.016,-652.513 104.016,-643.547 104.016,-634.705"/>
<polygon fill="none" stroke="midnightblue" points="100.516,-661.155 104.016,-671.156 107.516,-661.156 100.516,-661.155"/>
</g>
</g>
</svg>
