<?xml version="1.0" encoding="UTF-8" standalone="no"?>
<!DOCTYPE svg PUBLIC "-//W3C//DTD SVG 1.1//EN"
 "http://www.w3.org/Graphics/SVG/1.1/DTD/svg11.dtd">
<!-- Generated by graphviz version 2.38.0 (20140413.2041)
 -->
<!-- Title: HydroCouple::IValueSet Pages: 1 -->
<svg width="169pt" height="345pt"
 viewBox="0.00 0.00 169.08 345.00" xmlns="http://www.w3.org/2000/svg" xmlns:xlink="http://www.w3.org/1999/xlink">
<g id="graph0" class="graph" transform="scale(1 1) rotate(0) translate(4 341)">
<title>HydroCouple::IValueSet</title>
<polygon fill="white" stroke="none" points="-4,4 -4,-341 165.083,-341 165.083,4 -4,4"/>
<!-- Node1 -->
<g id="node1" class="node"><title>Node1</title>
<polygon fill="#bfbfbf" stroke="black" points="19.0381,-0.5 19.0381,-114.5 142.045,-114.5 142.045,-0.5 19.0381,-0.5"/>
<text text-anchor="middle" x="80.5415" y="-102.5" font-family="Helvetica,sans-Serif" font-size="10.00">HydroCouple::IValueSet</text>
<polyline fill="none" stroke="black" points="19.0381,-96.5 142.045,-96.5 "/>
<text text-anchor="middle" x="80.5415" y="-84.5" font-family="Helvetica,sans-Serif" font-size="10.00"> </text>
<polyline fill="none" stroke="black" points="19.0381,-78.5 142.045,-78.5 "/>
<text text-anchor="start" x="27.0381" y="-66.5" font-family="Helvetica,sans-Serif" font-size="10.00">+ ~IValueSet()</text>
<text text-anchor="start" x="27.0381" y="-56.5" font-family="Helvetica,sans-Serif" font-size="10.00">+ componentItem()</text>
<text text-anchor="start" x="27.0381" y="-46.5" font-family="Helvetica,sans-Serif" font-size="10.00">+ dimensions()</text>
<text text-anchor="start" x="27.0381" y="-36.5" font-family="Helvetica,sans-Serif" font-size="10.00">+ getDimensionLength()</text>
<text text-anchor="start" x="27.0381" y="-26.5" font-family="Helvetica,sans-Serif" font-size="10.00">+ getValue()</text>
<text text-anchor="start" x="27.0381" y="-16.5" font-family="Helvetica,sans-Serif" font-size="10.00">+ setValue()</text>
<text text-anchor="start" x="27.0381" y="-6.5" font-family="Helvetica,sans-Serif" font-size="10.00">+ valueDefinition()</text>
</g>
<!-- Node2 -->
<g id="node2" class="node"><title>Node2</title>
<g id="a_node2"><a xlink:href="class_hydro_couple_1_1_i_description.html" target="_top" xlink:title="IDescription interface class provides descriptive information on a HydroCouple object. ">
<polygon fill="white" stroke="black" points="14.1821,-151.5 14.1821,-245.5 146.901,-245.5 146.901,-151.5 14.1821,-151.5"/>
<text text-anchor="middle" x="80.5415" y="-233.5" font-family="Helvetica,sans-Serif" font-size="10.00">HydroCouple::IDescription</text>
<polyline fill="none" stroke="black" points="14.1821,-227.5 146.901,-227.5 "/>
<text text-anchor="middle" x="80.5415" y="-215.5" font-family="Helvetica,sans-Serif" font-size="10.00"> </text>
<polyline fill="none" stroke="black" points="14.1821,-209.5 146.901,-209.5 "/>
<text text-anchor="start" x="22.1821" y="-197.5" font-family="Helvetica,sans-Serif" font-size="10.00">+ ~IDescription()</text>
<text text-anchor="start" x="22.1821" y="-187.5" font-family="Helvetica,sans-Serif" font-size="10.00">+ getCaption()</text>
<text text-anchor="start" x="22.1821" y="-177.5" font-family="Helvetica,sans-Serif" font-size="10.00">+ setCaption()</text>
<text text-anchor="start" x="22.1821" y="-167.5" font-family="Helvetica,sans-Serif" font-size="10.00">+ getDescription()</text>
<text text-anchor="start" x="22.1821" y="-157.5" font-family="Helvetica,sans-Serif" font-size="10.00">+ setDescription()</text>
</a>
</g>
</g>
<!-- Node2&#45;&gt;Node1 -->
<g id="edge1" class="edge"><title>Node2&#45;&gt;Node1</title>
<path fill="none" stroke="midnightblue" d="M80.5415,-141.153C80.5415,-132.44 80.5415,-123.44 80.5415,-114.73"/>
<polygon fill="none" stroke="midnightblue" points="77.0416,-141.215 80.5415,-151.215 84.0416,-141.215 77.0416,-141.215"/>
</g>
<!-- Node3 -->
<g id="node3" class="node"><title>Node3</title>
<g id="a_node3"><a xlink:href="class_hydro_couple_1_1_i_property_changed.html" target="_top" xlink:title="IPropertyChanged interface is used to emit signal/event when a property of an object changes...">
<polygon fill="white" stroke="black" points="0,-282.5 0,-336.5 161.083,-336.5 161.083,-282.5 0,-282.5"/>
<text text-anchor="middle" x="80.5415" y="-324.5" font-family="Helvetica,sans-Serif" font-size="10.00">HydroCouple::IPropertyChanged</text>
<polyline fill="none" stroke="black" points="0,-318.5 161.083,-318.5 "/>
<text text-anchor="middle" x="80.5415" y="-306.5" font-family="Helvetica,sans-Serif" font-size="10.00"> </text>
<polyline fill="none" stroke="black" points="0,-300.5 161.083,-300.5 "/>
<text text-anchor="start" x="8" y="-288.5" font-family="Helvetica,sans-Serif" font-size="10.00">+ ~IPropertyChanged()</text>
</a>
</g>
</g>
<!-- Node3&#45;&gt;Node2 -->
<g id="edge2" class="edge"><title>Node3&#45;&gt;Node2</title>
<path fill="none" stroke="midnightblue" d="M80.5415,-272.141C80.5415,-263.716 80.5415,-254.639 80.5415,-245.851"/>
<polygon fill="none" stroke="midnightblue" points="77.0416,-272.392 80.5415,-282.392 84.0416,-272.392 77.0416,-272.392"/>
</g>
</g>
</svg>
