<?xml version="1.0" encoding="UTF-8" standalone="no"?>
<!DOCTYPE svg PUBLIC "-//W3C//DTD SVG 1.1//EN"
 "http://www.w3.org/Graphics/SVG/1.1/DTD/svg11.dtd">
<!-- Generated by graphviz version 2.38.0 (20140413.2041)
 -->
<!-- Title: HydroCouple::Temporal::ITimeExchangeItem Pages: 1 -->
<svg width="352pt" height="805pt"
 viewBox="0.00 0.00 352.02 804.72" xmlns="http://www.w3.org/2000/svg" xmlns:xlink="http://www.w3.org/1999/xlink">
<g id="graph0" class="graph" transform="scale(1 1) rotate(0) translate(4 800.724)">
<title>HydroCouple::Temporal::ITimeExchangeItem</title>
<polygon fill="white" stroke="none" points="-4,4 -4,-800.724 348.024,-800.724 348.024,4 -4,4"/>
<!-- Node1 -->
<g id="node1" class="node"><title>Node1</title>
<polygon fill="#bfbfbf" stroke="black" points="102.002,-0.5 102.002,-91.1748 250.023,-91.1748 250.023,-0.5 102.002,-0.5"/>
<text text-anchor="start" x="110.002" y="-79.1748" font-family="Monaco" font-size="10.00">HydroCouple::Temporal</text>
<text text-anchor="middle" x="176.013" y="-65.8398" font-family="Monaco" font-size="10.00">::ITimeExchangeItem</text>
<polyline fill="none" stroke="black" points="102.002,-56.5049 250.023,-56.5049 "/>
<text text-anchor="middle" x="176.013" y="-44.5049" font-family="Monaco" font-size="10.00"> </text>
<polyline fill="none" stroke="black" points="102.002,-35.1699 250.023,-35.1699 "/>
<text text-anchor="start" x="110.002" y="-23.1699" font-family="Monaco" font-size="10.00">+ ~ITimeExchangeItem()</text>
<text text-anchor="start" x="110.002" y="-9.83496" font-family="Monaco" font-size="10.00">+ timeValues()</text>
</g>
<!-- Node2 -->
<g id="node2" class="node"><title>Node2</title>
<g id="a_node2"><a xlink:href="class_hydro_couple_1_1_i_exchange_item.html" target="_top" xlink:title="IExchangeItem the base data item the can be exchanged between components at runtime. ">
<polygon fill="white" stroke="black" points="0,-148.177 0,-238.852 172.025,-238.852 172.025,-148.177 0,-148.177"/>
<text text-anchor="middle" x="86.0127" y="-226.852" font-family="Monaco" font-size="10.00">HydroCouple::IExchangeItem</text>
<polyline fill="none" stroke="black" points="0,-217.517 172.025,-217.517 "/>
<text text-anchor="middle" x="86.0127" y="-205.517" font-family="Monaco" font-size="10.00"> </text>
<polyline fill="none" stroke="black" points="0,-196.182 172.025,-196.182 "/>
<text text-anchor="start" x="8" y="-184.182" font-family="Monaco" font-size="10.00">+ ~IExchangeItem()</text>
<text text-anchor="start" x="8" y="-170.847" font-family="Monaco" font-size="10.00">+ values()</text>
<text text-anchor="start" x="8" y="-157.512" font-family="Monaco" font-size="10.00">+ itemChanged()</text>
</a>
</g>
</g>
<!-- Node2&#45;&gt;Node1 -->
<g id="edge1" class="edge"><title>Node2&#45;&gt;Node1</title>
<path fill="none" stroke="midnightblue" d="M118.825,-139.403C128.578,-123.616 139.158,-106.492 148.534,-91.3153"/>
<polygon fill="none" stroke="midnightblue" points="115.783,-137.668 113.505,-148.015 121.738,-141.347 115.783,-137.668"/>
</g>
<!-- Node3 -->
<g id="node3" class="node"><title>Node3</title>
<g id="a_node3"><a xlink:href="class_hydro_couple_1_1_i_component_item.html" target="_top" xlink:title="IComponentItem is a fundamental unit of data for a component. ">
<polygon fill="white" stroke="black" points="86.9995,-295.854 86.9995,-399.864 265.026,-399.864 265.026,-295.854 86.9995,-295.854"/>
<text text-anchor="middle" x="176.013" y="-387.864" font-family="Monaco" font-size="10.00">HydroCouple::IComponentItem</text>
<polyline fill="none" stroke="black" points="86.9995,-378.529 265.026,-378.529 "/>
<text text-anchor="middle" x="176.013" y="-366.529" font-family="Monaco" font-size="10.00"> </text>
<polyline fill="none" stroke="black" points="86.9995,-357.194 265.026,-357.194 "/>
<text text-anchor="start" x="94.9995" y="-345.194" font-family="Monaco" font-size="10.00">+ ~IComponentItem()</text>
<text text-anchor="start" x="94.9995" y="-331.859" font-family="Monaco" font-size="10.00">+ modelComponent()</text>
<text text-anchor="start" x="94.9995" y="-318.524" font-family="Monaco" font-size="10.00">+ modelComponentId()</text>
<text text-anchor="start" x="94.9995" y="-305.189" font-family="Monaco" font-size="10.00">+ dimensions()</text>
</a>
</g>
</g>
<!-- Node3&#45;&gt;Node2 -->
<g id="edge2" class="edge"><title>Node3&#45;&gt;Node2</title>
<path fill="none" stroke="midnightblue" d="M140.611,-286.935C131.153,-270.925 121.101,-253.91 112.235,-238.901"/>
<polygon fill="none" stroke="midnightblue" points="137.694,-288.877 145.794,-295.707 143.721,-285.317 137.694,-288.877"/>
</g>
<!-- Node7 -->
<g id="node7" class="node"><title>Node7</title>
<g id="a_node7"><a xlink:href="class_hydro_couple_1_1_temporal_1_1_i_time_component_item.html" target="_top" xlink:title="ITimeComponentItem is an IComponentItem with a temporal attribute. ">
<polygon fill="white" stroke="black" points="190.001,-128.175 190.001,-258.854 344.024,-258.854 344.024,-128.175 190.001,-128.175"/>
<text text-anchor="start" x="198.001" y="-246.854" font-family="Monaco" font-size="10.00">HydroCouple::Temporal</text>
<text text-anchor="middle" x="267.013" y="-233.52" font-family="Monaco" font-size="10.00">::ITimeComponentItem</text>
<polyline fill="none" stroke="black" points="190.001,-224.185 344.024,-224.185 "/>
<text text-anchor="middle" x="267.013" y="-212.185" font-family="Monaco" font-size="10.00"> </text>
<polyline fill="none" stroke="black" points="190.001,-202.85 344.024,-202.85 "/>
<text text-anchor="start" x="198.001" y="-190.85" font-family="Monaco" font-size="10.00">+ ~ITimeComponentItem()</text>
<text text-anchor="start" x="198.001" y="-177.515" font-family="Monaco" font-size="10.00">+ timeDimension()</text>
<text text-anchor="start" x="198.001" y="-164.18" font-family="Monaco" font-size="10.00">+ times()</text>
<text text-anchor="start" x="198.001" y="-150.845" font-family="Monaco" font-size="10.00">+ timeSpan()</text>
<text text-anchor="start" x="198.001" y="-137.51" font-family="Monaco" font-size="10.00">+ time()</text>
</a>
</g>
</g>
<!-- Node3&#45;&gt;Node7 -->
<g id="edge7" class="edge"><title>Node3&#45;&gt;Node7</title>
<path fill="none" stroke="midnightblue" d="M211.753,-287.027C217.235,-277.848 222.917,-268.336 228.458,-259.06"/>
<polygon fill="none" stroke="midnightblue" points="208.691,-285.327 206.568,-295.707 214.7,-288.917 208.691,-285.327"/>
</g>
<!-- Node4 -->
<g id="node4" class="node"><title>Node4</title>
<g id="a_node4"><a xlink:href="class_hydro_couple_1_1_i_identity.html" target="_top" xlink:title="IIdentity interface class defines a method to get the Id of an HydroCouple entity. ">
<polygon fill="white" stroke="black" points="102.002,-436.864 102.002,-540.874 250.023,-540.874 250.023,-436.864 102.002,-436.864"/>
<text text-anchor="middle" x="176.013" y="-528.874" font-family="Monaco" font-size="10.00">HydroCouple::IIdentity</text>
<polyline fill="none" stroke="black" points="102.002,-519.539 250.023,-519.539 "/>
<text text-anchor="middle" x="176.013" y="-507.539" font-family="Monaco" font-size="10.00"> </text>
<polyline fill="none" stroke="black" points="102.002,-498.204 250.023,-498.204 "/>
<text text-anchor="start" x="110.002" y="-486.204" font-family="Monaco" font-size="10.00">+ ~IIdentity()</text>
<text text-anchor="start" x="110.002" y="-472.869" font-family="Monaco" font-size="10.00">+ MPI_Comm()</text>
<text text-anchor="start" x="110.002" y="-459.534" font-family="Monaco" font-size="10.00">+ MPI_Rank()</text>
<text text-anchor="start" x="110.002" y="-446.199" font-family="Monaco" font-size="10.00">+ id()</text>
</a>
</g>
</g>
<!-- Node4&#45;&gt;Node3 -->
<g id="edge3" class="edge"><title>Node4&#45;&gt;Node3</title>
<path fill="none" stroke="midnightblue" d="M176.013,-426.305C176.013,-417.523 176.013,-408.57 176.013,-400.015"/>
<polygon fill="none" stroke="midnightblue" points="172.513,-426.502 176.013,-436.502 179.513,-426.502 172.513,-426.502"/>
</g>
<!-- Node5 -->
<g id="node5" class="node"><title>Node5</title>
<g id="a_node5"><a xlink:href="class_hydro_couple_1_1_i_description.html" target="_top" xlink:title="IDescription interface class provides descriptive information on a HydroCouple object. ">
<polygon fill="white" stroke="black" points="93.0005,-577.874 93.0005,-695.219 259.025,-695.219 259.025,-577.874 93.0005,-577.874"/>
<text text-anchor="middle" x="176.013" y="-683.219" font-family="Monaco" font-size="10.00">HydroCouple::IDescription</text>
<polyline fill="none" stroke="black" points="93.0005,-673.884 259.025,-673.884 "/>
<text text-anchor="middle" x="176.013" y="-661.884" font-family="Monaco" font-size="10.00"> </text>
<polyline fill="none" stroke="black" points="93.0005,-652.549 259.025,-652.549 "/>
<text text-anchor="start" x="101" y="-640.549" font-family="Monaco" font-size="10.00">+ ~IDescription()</text>
<text text-anchor="start" x="101" y="-627.214" font-family="Monaco" font-size="10.00">+ getCaption()</text>
<text text-anchor="start" x="101" y="-613.879" font-family="Monaco" font-size="10.00">+ setCaption()</text>
<text text-anchor="start" x="101" y="-600.544" font-family="Monaco" font-size="10.00">+ getDescription()</text>
<text text-anchor="start" x="101" y="-587.209" font-family="Monaco" font-size="10.00">+ setDescription()</text>
</a>
</g>
</g>
<!-- Node5&#45;&gt;Node4 -->
<g id="edge4" class="edge"><title>Node5&#45;&gt;Node4</title>
<path fill="none" stroke="midnightblue" d="M176.013,-567.273C176.013,-558.455 176.013,-549.547 176.013,-541.069"/>
<polygon fill="none" stroke="midnightblue" points="172.513,-567.552 176.013,-577.552 179.513,-567.552 172.513,-567.552"/>
</g>
<!-- Node6 -->
<g id="node6" class="node"><title>Node6</title>
<g id="a_node6"><a xlink:href="class_hydro_couple_1_1_i_property_changed.html" target="_top" xlink:title="IPropertyChanged interface is used to emit signal/event when a property of an object changes...">
<polygon fill="white" stroke="black" points="80.9985,-732.219 80.9985,-796.224 271.027,-796.224 271.027,-732.219 80.9985,-732.219"/>
<text text-anchor="middle" x="176.013" y="-784.224" font-family="Monaco" font-size="10.00">HydroCouple::IPropertyChanged</text>
<polyline fill="none" stroke="black" points="80.9985,-774.889 271.027,-774.889 "/>
<text text-anchor="middle" x="176.013" y="-762.889" font-family="Monaco" font-size="10.00"> </text>
<polyline fill="none" stroke="black" points="80.9985,-753.554 271.027,-753.554 "/>
<text text-anchor="start" x="88.9985" y="-741.554" font-family="Monaco" font-size="10.00">+ ~IPropertyChanged()</text>
</a>
</g>
</g>
<!-- Node6&#45;&gt;Node5 -->
<g id="edge5" class="edge"><title>Node6&#45;&gt;Node5</title>
<path fill="none" stroke="midnightblue" d="M176.013,-721.898C176.013,-713.513 176.013,-704.547 176.013,-695.705"/>
<polygon fill="none" stroke="midnightblue" points="172.513,-722.155 176.013,-732.156 179.513,-722.156 172.513,-722.155"/>
</g>
<!-- Node7&#45;&gt;Node1 -->
<g id="edge6" class="edge"><title>Node7&#45;&gt;Node1</title>
<path fill="none" stroke="midnightblue" d="M221.141,-119.081C215.221,-109.604 209.31,-100.141 203.807,-91.3323"/>
<polygon fill="none" stroke="midnightblue" points="218.302,-121.143 226.569,-127.77 224.239,-117.435 218.302,-121.143"/>
</g>
</g>
</svg>
