<?xml version="1.0" encoding="UTF-8" standalone="no"?>
<!DOCTYPE svg PUBLIC "-//W3C//DTD SVG 1.1//EN"
 "http://www.w3.org/Graphics/SVG/1.1/DTD/svg11.dtd">
<!-- Generated by graphviz version 2.38.0 (20140413.2041)
 -->
<!-- Title: HydroCouple::Spatial::IRegularGrid2DExhangeItem Pages: 1 -->
<svg width="472pt" height="959pt"
 viewBox="0.00 0.00 472.03 959.07" xmlns="http://www.w3.org/2000/svg" xmlns:xlink="http://www.w3.org/1999/xlink">
<g id="graph0" class="graph" transform="scale(1 1) rotate(0) translate(4 955.068)">
<title>HydroCouple::Spatial::IRegularGrid2DExhangeItem</title>
<!-- Node1 -->
<g id="node1" class="node"><title>Node1</title>
<polygon fill="#bfbfbf" stroke="black" points="132.002,-114.84 132.002,-192.18 328.031,-192.18 328.031,-114.84 132.002,-114.84"/>
<text text-anchor="start" x="140.002" y="-180.18" font-family="Monaco" font-size="10.00">HydroCouple::Spatial</text>
<text text-anchor="middle" x="230.017" y="-166.845" font-family="Monaco" font-size="10.00">::IRegularGrid2DExhangeItem</text>
<polyline fill="none" stroke="black" points="132.002,-157.51 328.031,-157.51 "/>
<text text-anchor="middle" x="230.017" y="-145.51" font-family="Monaco" font-size="10.00"> </text>
<polyline fill="none" stroke="black" points="132.002,-136.175 328.031,-136.175 "/>
<text text-anchor="start" x="140.002" y="-124.175" font-family="Monaco" font-size="10.00">+ ~IRegularGrid2DExhangeItem()</text>
</g>
<!-- Node8 -->
<g id="node8" class="node"><title>Node8</title>
<g id="a_node8"><a xlink:href="class_hydro_couple_1_1_spatial_1_1_i_regular_grid2_d_only_exhange_item.html" target="_top" xlink:title="An IRegularGrid2DOnlyExhangeItem is an IExchangeItem with an IRegularGrid2DComponentItem. ">
<polygon fill="none" stroke="black" points="0,-0.5 0,-77.8398 220.033,-77.8398 220.033,-0.5 0,-0.5"/>
<text text-anchor="start" x="8" y="-65.8398" font-family="Monaco" font-size="10.00">HydroCouple::Spatial</text>
<text text-anchor="middle" x="110.017" y="-52.5049" font-family="Monaco" font-size="10.00">::IRegularGrid2DOnlyExhangeItem</text>
<polyline fill="none" stroke="black" points="0,-43.1699 220.033,-43.1699 "/>
<text text-anchor="middle" x="110.017" y="-31.1699" font-family="Monaco" font-size="10.00"> </text>
<polyline fill="none" stroke="black" points="0,-21.835 220.033,-21.835 "/>
<text text-anchor="start" x="8" y="-9.83496" font-family="Monaco" font-size="10.00">+ ~IRegularGrid2DOnlyExhangeItem()</text>
</a>
</g>
</g>
<!-- Node1&#45;&gt;Node8 -->
<g id="edge8" class="edge"><title>Node1&#45;&gt;Node8</title>
<path fill="none" stroke="midnightblue" d="M182.173,-107.72C171.648,-97.8674 160.603,-87.5271 150.407,-77.9816"/>
<polygon fill="none" stroke="midnightblue" points="180.032,-110.511 189.725,-114.79 184.816,-105.4 180.032,-110.511"/>
</g>
<!-- Node9 -->
<g id="node9" class="node"><title>Node9</title>
<g id="a_node9"><a xlink:href="class_hydro_couple_1_1_spatio_temporal_1_1_i_time_regular_grid2_d_exchange_item.html" target="_top" xlink:title="The ITimeRegularGrid2DExchangeItem class. ">
<polygon fill="none" stroke="black" points="238,-0.5 238,-77.8398 464.034,-77.8398 464.034,-0.5 238,-0.5"/>
<text text-anchor="start" x="246" y="-65.8398" font-family="Monaco" font-size="10.00">HydroCouple::SpatioTemporal</text>
<text text-anchor="middle" x="351.017" y="-52.5049" font-family="Monaco" font-size="10.00">::ITimeRegularGrid2DExchangeItem</text>
<polyline fill="none" stroke="black" points="238,-43.1699 464.034,-43.1699 "/>
<text text-anchor="middle" x="351.017" y="-31.1699" font-family="Monaco" font-size="10.00"> </text>
<polyline fill="none" stroke="black" points="238,-21.835 464.034,-21.835 "/>
<text text-anchor="start" x="246" y="-9.83496" font-family="Monaco" font-size="10.00">+ ~ITimeRegularGrid2DExchangeItem()</text>
</a>
</g>
</g>
<!-- Node1&#45;&gt;Node9 -->
<g id="edge9" class="edge"><title>Node1&#45;&gt;Node9</title>
<path fill="none" stroke="midnightblue" d="M278.259,-107.72C288.871,-97.8674 300.009,-87.5271 310.29,-77.9816"/>
<polygon fill="none" stroke="midnightblue" points="275.592,-105.421 270.644,-114.79 280.354,-110.551 275.592,-105.421"/>
</g>
<!-- Node2 -->
<g id="node2" class="node"><title>Node2</title>
<g id="a_node2"><a xlink:href="class_hydro_couple_1_1_i_exchange_item.html" target="_top" xlink:title="IExchangeItem the base data item the can be exchanged between components at runtime. ">
<polygon fill="none" stroke="black" points="39.0039,-255.85 39.0039,-333.189 211.029,-333.189 211.029,-255.85 39.0039,-255.85"/>
<text text-anchor="middle" x="125.017" y="-321.189" font-family="Monaco" font-size="10.00">HydroCouple::IExchangeItem</text>
<polyline fill="none" stroke="black" points="39.0039,-311.854 211.029,-311.854 "/>
<text text-anchor="middle" x="125.017" y="-299.854" font-family="Monaco" font-size="10.00"> </text>
<polyline fill="none" stroke="black" points="39.0039,-290.52 211.029,-290.52 "/>
<text text-anchor="start" x="47.0039" y="-278.52" font-family="Monaco" font-size="10.00">+ ~IExchangeItem()</text>
<text text-anchor="start" x="47.0039" y="-265.185" font-family="Monaco" font-size="10.00">+ itemChanged()</text>
</a>
</g>
</g>
<!-- Node2&#45;&gt;Node1 -->
<g id="edge1" class="edge"><title>Node2&#45;&gt;Node1</title>
<path fill="none" stroke="midnightblue" d="M159.766,-247.514C173.255,-229.656 188.516,-209.453 201.36,-192.449"/>
<polygon fill="none" stroke="midnightblue" points="156.943,-245.445 153.708,-255.535 162.528,-249.665 156.943,-245.445"/>
</g>
<!-- Node3 -->
<g id="node3" class="node"><title>Node3</title>
<g id="a_node3"><a xlink:href="class_hydro_couple_1_1_i_component_data_item.html" target="_top" xlink:title="IComponentItem is a fundamental unit of data for a component. ">
<polygon fill="none" stroke="black" points="129.001,-396.859 129.001,-580.879 331.032,-580.879 331.032,-396.859 129.001,-396.859"/>
<text text-anchor="middle" x="230.017" y="-568.879" font-family="Monaco" font-size="10.00">HydroCouple::IComponentDataItem</text>
<polyline fill="none" stroke="black" points="129.001,-559.544 331.032,-559.544 "/>
<text text-anchor="middle" x="230.017" y="-547.544" font-family="Monaco" font-size="10.00"> </text>
<polyline fill="none" stroke="black" points="129.001,-538.209 331.032,-538.209 "/>
<text text-anchor="start" x="137.001" y="-526.209" font-family="Monaco" font-size="10.00">+ ~IComponentDataItem()</text>
<text text-anchor="start" x="137.001" y="-512.874" font-family="Monaco" font-size="10.00">+ modelComponent()</text>
<text text-anchor="start" x="137.001" y="-499.539" font-family="Monaco" font-size="10.00">+ dimensions()</text>
<text text-anchor="start" x="137.001" y="-486.204" font-family="Monaco" font-size="10.00">+ valueDefinition()</text>
<text text-anchor="start" x="137.001" y="-472.869" font-family="Monaco" font-size="10.00">+ getValue()</text>
<text text-anchor="start" x="137.001" y="-459.534" font-family="Monaco" font-size="10.00">+ getValues()</text>
<text text-anchor="start" x="137.001" y="-446.199" font-family="Monaco" font-size="10.00">+ getValues()</text>
<text text-anchor="start" x="137.001" y="-432.864" font-family="Monaco" font-size="10.00">+ setValue()</text>
<text text-anchor="start" x="137.001" y="-419.529" font-family="Monaco" font-size="10.00">+ setValues()</text>
<text text-anchor="start" x="137.001" y="-406.194" font-family="Monaco" font-size="10.00">+ setValues()</text>
</a>
</g>
</g>
<!-- Node3&#45;&gt;Node2 -->
<g id="edge2" class="edge"><title>Node3&#45;&gt;Node2</title>
<path fill="none" stroke="midnightblue" d="M175.422,-387.857C164.844,-368.48 154.38,-349.31 145.75,-333.502"/>
<polygon fill="none" stroke="midnightblue" points="172.42,-389.664 180.284,-396.764 178.565,-386.31 172.42,-389.664"/>
</g>
<!-- Node7 -->
<g id="node7" class="node"><title>Node7</title>
<g id="a_node7"><a xlink:href="class_hydro_couple_1_1_spatial_1_1_i_regular_grid2_d_component_data_item.html" target="_top" xlink:title="An IRegularGrid2DComponentDataItem represents an IRegularGrid2D IComponentItem. ">
<polygon fill="none" stroke="black" points="229,-229.18 229,-359.859 443.033,-359.859 443.033,-229.18 229,-229.18"/>
<text text-anchor="start" x="237" y="-347.859" font-family="Monaco" font-size="10.00">HydroCouple::Spatial</text>
<text text-anchor="middle" x="336.017" y="-334.524" font-family="Monaco" font-size="10.00">::IRegularGrid2DComponentDataItem</text>
<polyline fill="none" stroke="black" points="229,-325.189 443.033,-325.189 "/>
<text text-anchor="middle" x="336.017" y="-313.189" font-family="Monaco" font-size="10.00"> </text>
<polyline fill="none" stroke="black" points="229,-303.854 443.033,-303.854 "/>
<text text-anchor="start" x="237" y="-291.854" font-family="Monaco" font-size="10.00">+ ~IRegularGrid2DComponent</text>
<text text-anchor="start" x="237" y="-278.52" font-family="Monaco" font-size="10.00">DataItem()</text>
<text text-anchor="start" x="237" y="-265.185" font-family="Monaco" font-size="10.00">+ numXCellsDimension()</text>
<text text-anchor="start" x="237" y="-251.85" font-family="Monaco" font-size="10.00">+ numYCellsDimension()</text>
<text text-anchor="start" x="237" y="-238.515" font-family="Monaco" font-size="10.00">+ grid()</text>
</a>
</g>
</g>
<!-- Node3&#45;&gt;Node7 -->
<g id="edge7" class="edge"><title>Node3&#45;&gt;Node7</title>
<path fill="none" stroke="midnightblue" d="M285.204,-387.725C290.397,-378.302 295.562,-368.929 300.499,-359.97"/>
<polygon fill="none" stroke="midnightblue" points="281.984,-386.317 280.223,-396.764 288.115,-389.695 281.984,-386.317"/>
</g>
<!-- Node4 -->
<g id="node4" class="node"><title>Node4</title>
<g id="a_node4"><a xlink:href="class_hydro_couple_1_1_i_identity.html" target="_top" xlink:title="IIdentity interface class defines a method to get the Id of an HydroCouple entity. ">
<polygon fill="none" stroke="black" points="156.006,-617.879 156.006,-695.219 304.027,-695.219 304.027,-617.879 156.006,-617.879"/>
<text text-anchor="middle" x="230.017" y="-683.219" font-family="Monaco" font-size="10.00">HydroCouple::IIdentity</text>
<polyline fill="none" stroke="black" points="156.006,-673.884 304.027,-673.884 "/>
<text text-anchor="middle" x="230.017" y="-661.884" font-family="Monaco" font-size="10.00"> </text>
<polyline fill="none" stroke="black" points="156.006,-652.549 304.027,-652.549 "/>
<text text-anchor="start" x="164.006" y="-640.549" font-family="Monaco" font-size="10.00">+ ~IIdentity()</text>
<text text-anchor="start" x="164.006" y="-627.214" font-family="Monaco" font-size="10.00">+ id()</text>
</a>
</g>
</g>
<!-- Node4&#45;&gt;Node3 -->
<g id="edge3" class="edge"><title>Node4&#45;&gt;Node3</title>
<path fill="none" stroke="midnightblue" d="M230.017,-607.297C230.017,-598.943 230.017,-590.018 230.017,-580.96"/>
<polygon fill="none" stroke="midnightblue" points="226.517,-607.539 230.017,-617.539 233.517,-607.539 226.517,-607.539"/>
</g>
<!-- Node5 -->
<g id="node5" class="node"><title>Node5</title>
<g id="a_node5"><a xlink:href="class_hydro_couple_1_1_i_description.html" target="_top" xlink:title="IDescription interface class provides descriptive information on a HydroCouple object. ">
<polygon fill="none" stroke="black" points="147.004,-732.219 147.004,-849.563 313.029,-849.563 313.029,-732.219 147.004,-732.219"/>
<text text-anchor="middle" x="230.017" y="-837.563" font-family="Monaco" font-size="10.00">HydroCouple::IDescription</text>
<polyline fill="none" stroke="black" points="147.004,-828.229 313.029,-828.229 "/>
<text text-anchor="middle" x="230.017" y="-816.229" font-family="Monaco" font-size="10.00"> </text>
<polyline fill="none" stroke="black" points="147.004,-806.894 313.029,-806.894 "/>
<text text-anchor="start" x="155.004" y="-794.894" font-family="Monaco" font-size="10.00">+ ~IDescription()</text>
<text text-anchor="start" x="155.004" y="-781.559" font-family="Monaco" font-size="10.00">+ caption()</text>
<text text-anchor="start" x="155.004" y="-768.224" font-family="Monaco" font-size="10.00">+ setCaption()</text>
<text text-anchor="start" x="155.004" y="-754.889" font-family="Monaco" font-size="10.00">+ description()</text>
<text text-anchor="start" x="155.004" y="-741.554" font-family="Monaco" font-size="10.00">+ setDescription()</text>
</a>
</g>
</g>
<!-- Node5&#45;&gt;Node4 -->
<g id="edge4" class="edge"><title>Node5&#45;&gt;Node4</title>
<path fill="none" stroke="midnightblue" d="M230.017,-721.653C230.017,-712.614 230.017,-703.627 230.017,-695.366"/>
<polygon fill="none" stroke="midnightblue" points="226.517,-721.844 230.017,-731.844 233.517,-721.844 226.517,-721.844"/>
</g>
<!-- Node6 -->
<g id="node6" class="node"><title>Node6</title>
<g id="a_node6"><a xlink:href="class_hydro_couple_1_1_i_property_changed.html" target="_top" xlink:title="IPropertyChanged interface is used to emit signal/event when a property of an object changes...">
<polygon fill="none" stroke="black" points="135.002,-886.563 135.002,-950.568 325.031,-950.568 325.031,-886.563 135.002,-886.563"/>
<text text-anchor="middle" x="230.017" y="-938.568" font-family="Monaco" font-size="10.00">HydroCouple::IPropertyChanged</text>
<polyline fill="none" stroke="black" points="135.002,-929.233 325.031,-929.233 "/>
<text text-anchor="middle" x="230.017" y="-917.233" font-family="Monaco" font-size="10.00"> </text>
<polyline fill="none" stroke="black" points="135.002,-907.898 325.031,-907.898 "/>
<text text-anchor="start" x="143.002" y="-895.898" font-family="Monaco" font-size="10.00">+ ~IPropertyChanged()</text>
</a>
</g>
</g>
<!-- Node6&#45;&gt;Node5 -->
<g id="edge5" class="edge"><title>Node6&#45;&gt;Node5</title>
<path fill="none" stroke="midnightblue" d="M230.017,-876.243C230.017,-867.858 230.017,-858.892 230.017,-850.049"/>
<polygon fill="none" stroke="midnightblue" points="226.517,-876.5 230.017,-886.5 233.517,-876.5 226.517,-876.5"/>
</g>
<!-- Node7&#45;&gt;Node1 -->
<g id="edge6" class="edge"><title>Node7&#45;&gt;Node1</title>
<path fill="none" stroke="midnightblue" d="M280.486,-220.696C273.043,-210.935 265.667,-201.262 258.947,-192.449"/>
<polygon fill="none" stroke="midnightblue" points="277.894,-223.068 286.74,-228.898 283.46,-218.824 277.894,-223.068"/>
</g>
</g>
</svg>
