<?xml version="1.0" encoding="UTF-8" standalone="no"?>
<!DOCTYPE svg PUBLIC "-//W3C//DTD SVG 1.1//EN"
 "http://www.w3.org/Graphics/SVG/1.1/DTD/svg11.dtd">
<!-- Generated by graphviz version 2.38.0 (20140413.2041)
 -->
<!-- Title: HydroCouple::IModelComponent Pages: 1 -->
<svg width="198pt" height="970pt"
 viewBox="0.00 0.00 198.03 970.42" xmlns="http://www.w3.org/2000/svg" xmlns:xlink="http://www.w3.org/1999/xlink">
<g id="graph0" class="graph" transform="scale(1 1) rotate(0) translate(4 966.418)">
<title>HydroCouple::IModelComponent</title>
<polygon fill="white" stroke="none" points="-4,4 -4,-966.418 194.028,-966.418 194.028,4 -4,4"/>
<!-- Node1 -->
<g id="node1" class="node"><title>Node1</title>
<polygon fill="#bfbfbf" stroke="black" points="3.00049,-394.874 3.00049,-592.229 187.028,-592.229 187.028,-394.874 3.00049,-394.874"/>
<text text-anchor="middle" x="95.0142" y="-580.229" font-family="Monaco" font-size="10.00">HydroCouple::IModelComponent</text>
<polyline fill="none" stroke="black" points="3.00049,-570.894 187.028,-570.894 "/>
<text text-anchor="middle" x="95.0142" y="-558.894" font-family="Monaco" font-size="10.00"> </text>
<polyline fill="none" stroke="black" points="3.00049,-549.559 187.028,-549.559 "/>
<text text-anchor="start" x="11.0005" y="-537.559" font-family="Monaco" font-size="10.00">+ ~IModelComponent()</text>
<text text-anchor="start" x="11.0005" y="-524.224" font-family="Monaco" font-size="10.00">+ componentInfo()</text>
<text text-anchor="start" x="11.0005" y="-510.889" font-family="Monaco" font-size="10.00">+ parent()</text>
<text text-anchor="start" x="11.0005" y="-497.554" font-family="Monaco" font-size="10.00">+ clone()</text>
<text text-anchor="start" x="11.0005" y="-484.219" font-family="Monaco" font-size="10.00">+ children()</text>
<text text-anchor="start" x="11.0005" y="-470.884" font-family="Monaco" font-size="10.00">+ arguments()</text>
<text text-anchor="start" x="11.0005" y="-457.549" font-family="Monaco" font-size="10.00">+ status()</text>
<text text-anchor="start" x="11.0005" y="-444.214" font-family="Monaco" font-size="10.00">+ inputs()</text>
<text text-anchor="start" x="11.0005" y="-430.879" font-family="Monaco" font-size="10.00">+ outputs()</text>
<text text-anchor="start" x="11.0005" y="-417.544" font-family="Monaco" font-size="10.00">+ adaptedOutputFactories()</text>
<text text-anchor="start" x="11.0005" y="-404.209" font-family="Monaco" font-size="10.00">and 6 more...</text>
</g>
<!-- Node5 -->
<g id="node5" class="node"><title>Node5</title>
<g id="a_node5"><a xlink:href="class_abstract_model_component.html" target="_top" xlink:title="AbstractModelComponent class. ">
<polygon fill="white" stroke="black" points="6.00098,-0.5 6.00098,-357.874 184.027,-357.874 184.027,-0.5 6.00098,-0.5"/>
<text text-anchor="middle" x="95.0142" y="-345.874" font-family="Monaco" font-size="10.00">AbstractModelComponent</text>
<polyline fill="none" stroke="black" points="6.00098,-336.539 184.027,-336.539 "/>
<text text-anchor="start" x="14.001" y="-324.539" font-family="Monaco" font-size="10.00">+ ComponentInfo</text>
<text text-anchor="start" x="14.001" y="-311.204" font-family="Monaco" font-size="10.00">+ Parent</text>
<text text-anchor="start" x="14.001" y="-297.869" font-family="Monaco" font-size="10.00">+ Arguments</text>
<text text-anchor="start" x="14.001" y="-284.534" font-family="Monaco" font-size="10.00">+ Status</text>
<text text-anchor="start" x="14.001" y="-271.199" font-family="Monaco" font-size="10.00">+ Inputs</text>
<text text-anchor="start" x="14.001" y="-257.864" font-family="Monaco" font-size="10.00">+ Outputs</text>
<text text-anchor="start" x="14.001" y="-244.529" font-family="Monaco" font-size="10.00">+ AdaptedOutputFactories</text>
<text text-anchor="start" x="14.001" y="-231.194" font-family="Monaco" font-size="10.00"># m_children</text>
<text text-anchor="start" x="14.001" y="-217.859" font-family="Monaco" font-size="10.00"># m_status</text>
<text text-anchor="start" x="14.001" y="-204.524" font-family="Monaco" font-size="10.00"># m_inputs</text>
<text text-anchor="start" x="14.001" y="-191.189" font-family="Monaco" font-size="10.00"># m_outputs</text>
<text text-anchor="start" x="14.001" y="-177.854" font-family="Monaco" font-size="10.00"># m_adaptedOutputFactories</text>
<text text-anchor="start" x="14.001" y="-164.52" font-family="Monaco" font-size="10.00"># m_arguments</text>
<polyline fill="none" stroke="black" points="6.00098,-155.185 184.027,-155.185 "/>
<text text-anchor="start" x="14.001" y="-143.185" font-family="Monaco" font-size="10.00">+ AbstractModelComponent()</text>
<text text-anchor="start" x="14.001" y="-129.85" font-family="Monaco" font-size="10.00">+ AbstractModelComponent()</text>
<text text-anchor="start" x="14.001" y="-116.515" font-family="Monaco" font-size="10.00">+ ~AbstractModelComponent()</text>
<text text-anchor="start" x="14.001" y="-103.18" font-family="Monaco" font-size="10.00">+ componentInfo()</text>
<text text-anchor="start" x="14.001" y="-89.8447" font-family="Monaco" font-size="10.00">+ parent()</text>
<text text-anchor="start" x="14.001" y="-76.5098" font-family="Monaco" font-size="10.00">+ clone()</text>
<text text-anchor="start" x="14.001" y="-63.1748" font-family="Monaco" font-size="10.00">+ children()</text>
<text text-anchor="start" x="14.001" y="-49.8398" font-family="Monaco" font-size="10.00">+ arguments()</text>
<text text-anchor="start" x="14.001" y="-36.5049" font-family="Monaco" font-size="10.00">+ status()</text>
<text text-anchor="start" x="14.001" y="-23.1699" font-family="Monaco" font-size="10.00">+ inputs()</text>
<text text-anchor="start" x="14.001" y="-9.83496" font-family="Monaco" font-size="10.00">and 7 more...</text>
</a>
</g>
</g>
<!-- Node1&#45;&gt;Node5 -->
<g id="edge4" class="edge"><title>Node1&#45;&gt;Node5</title>
<path fill="none" stroke="midnightblue" d="M95.0142,-384.495C95.0142,-375.817 95.0142,-366.919 95.0142,-357.924"/>
<polygon fill="none" stroke="midnightblue" points="91.5143,-384.574 95.0142,-394.574 98.5143,-384.574 91.5143,-384.574"/>
</g>
<!-- Node2 -->
<g id="node2" class="node"><title>Node2</title>
<g id="a_node2"><a xlink:href="class_hydro_couple_1_1_i_identity.html" target="_top" xlink:title="IIdentity interface class defines a method to get the Id of an HydroCouple entity. ">
<polygon fill="white" stroke="black" points="21.0034,-629.229 21.0034,-706.568 169.025,-706.568 169.025,-629.229 21.0034,-629.229"/>
<text text-anchor="middle" x="95.0142" y="-694.568" font-family="Monaco" font-size="10.00">HydroCouple::IIdentity</text>
<polyline fill="none" stroke="black" points="21.0034,-685.233 169.025,-685.233 "/>
<text text-anchor="middle" x="95.0142" y="-673.233" font-family="Monaco" font-size="10.00"> </text>
<polyline fill="none" stroke="black" points="21.0034,-663.898 169.025,-663.898 "/>
<text text-anchor="start" x="29.0034" y="-651.898" font-family="Monaco" font-size="10.00">+ ~IIdentity()</text>
<text text-anchor="start" x="29.0034" y="-638.563" font-family="Monaco" font-size="10.00">+ id()</text>
</a>
</g>
</g>
<!-- Node2&#45;&gt;Node1 -->
<g id="edge1" class="edge"><title>Node2&#45;&gt;Node1</title>
<path fill="none" stroke="midnightblue" d="M95.0142,-618.806C95.0142,-610.418 95.0142,-601.428 95.0142,-592.26"/>
<polygon fill="none" stroke="midnightblue" points="91.5143,-619.076 95.0142,-629.076 98.5143,-619.076 91.5143,-619.076"/>
</g>
<!-- Node3 -->
<g id="node3" class="node"><title>Node3</title>
<g id="a_node3"><a xlink:href="class_hydro_couple_1_1_i_description.html" target="_top" xlink:title="IDescription interface class provides descriptive information on a HydroCouple object. ">
<polygon fill="white" stroke="black" points="12.002,-743.568 12.002,-860.913 178.026,-860.913 178.026,-743.568 12.002,-743.568"/>
<text text-anchor="middle" x="95.0142" y="-848.913" font-family="Monaco" font-size="10.00">HydroCouple::IDescription</text>
<polyline fill="none" stroke="black" points="12.002,-839.578 178.026,-839.578 "/>
<text text-anchor="middle" x="95.0142" y="-827.578" font-family="Monaco" font-size="10.00"> </text>
<polyline fill="none" stroke="black" points="12.002,-818.243 178.026,-818.243 "/>
<text text-anchor="start" x="20.002" y="-806.243" font-family="Monaco" font-size="10.00">+ ~IDescription()</text>
<text text-anchor="start" x="20.002" y="-792.908" font-family="Monaco" font-size="10.00">+ getCaption()</text>
<text text-anchor="start" x="20.002" y="-779.573" font-family="Monaco" font-size="10.00">+ setCaption()</text>
<text text-anchor="start" x="20.002" y="-766.238" font-family="Monaco" font-size="10.00">+ getDescription()</text>
<text text-anchor="start" x="20.002" y="-752.903" font-family="Monaco" font-size="10.00">+ setDescription()</text>
</a>
</g>
</g>
<!-- Node3&#45;&gt;Node2 -->
<g id="edge2" class="edge"><title>Node3&#45;&gt;Node2</title>
<path fill="none" stroke="midnightblue" d="M95.0142,-733.002C95.0142,-723.964 95.0142,-714.976 95.0142,-706.716"/>
<polygon fill="none" stroke="midnightblue" points="91.5143,-733.193 95.0142,-743.193 98.5143,-733.194 91.5143,-733.193"/>
</g>
<!-- Node4 -->
<g id="node4" class="node"><title>Node4</title>
<g id="a_node4"><a xlink:href="class_hydro_couple_1_1_i_property_changed.html" target="_top" xlink:title="IPropertyChanged interface is used to emit signal/event when a property of an object changes...">
<polygon fill="white" stroke="black" points="0,-897.913 0,-961.918 190.028,-961.918 190.028,-897.913 0,-897.913"/>
<text text-anchor="middle" x="95.0142" y="-949.918" font-family="Monaco" font-size="10.00">HydroCouple::IPropertyChanged</text>
<polyline fill="none" stroke="black" points="0,-940.583 190.028,-940.583 "/>
<text text-anchor="middle" x="95.0142" y="-928.583" font-family="Monaco" font-size="10.00"> </text>
<polyline fill="none" stroke="black" points="0,-919.248 190.028,-919.248 "/>
<text text-anchor="start" x="8" y="-907.248" font-family="Monaco" font-size="10.00">+ ~IPropertyChanged()</text>
</a>
</g>
</g>
<!-- Node4&#45;&gt;Node3 -->
<g id="edge3" class="edge"><title>Node4&#45;&gt;Node3</title>
<path fill="none" stroke="midnightblue" d="M95.0142,-887.593C95.0142,-879.208 95.0142,-870.241 95.0142,-861.399"/>
<polygon fill="none" stroke="midnightblue" points="91.5143,-887.85 95.0142,-897.85 98.5143,-887.85 91.5143,-887.85"/>
</g>
</g>
</svg>
