<?xml version="1.0" encoding="UTF-8" standalone="no"?>
<!DOCTYPE svg PUBLIC "-//W3C//DTD SVG 1.1//EN"
 "http://www.w3.org/Graphics/SVG/1.1/DTD/svg11.dtd">
<!-- Generated by graphviz version 2.38.0 (20140413.2041)
 -->
<!-- Title: HydroCouple::Spatial::IPolyhedralSurfaceComponentDataItem Pages: 1 -->
<svg width="234pt" height="744pt"
 viewBox="0.00 0.00 234.03 743.72" xmlns="http://www.w3.org/2000/svg" xmlns:xlink="http://www.w3.org/1999/xlink">
<g id="graph0" class="graph" transform="scale(1 1) rotate(0) translate(4 739.724)">
<title>HydroCouple::Spatial::IPolyhedralSurfaceComponentDataItem</title>
<!-- Node1 -->
<g id="node1" class="node"><title>Node1</title>
<polygon fill="#bfbfbf" stroke="black" points="0,-0.5 0,-144.515 226.034,-144.515 226.034,-0.5 0,-0.5"/>
<text text-anchor="start" x="8" y="-132.515" font-family="Monaco" font-size="10.00">HydroCouple::Spatial</text>
<text text-anchor="start" x="8" y="-119.18" font-family="Monaco" font-size="10.00">::IPolyhedralSurfaceComponent</text>
<text text-anchor="middle" x="113.017" y="-105.845" font-family="Monaco" font-size="10.00">DataItem</text>
<polyline fill="none" stroke="black" points="0,-96.5098 226.034,-96.5098 "/>
<text text-anchor="middle" x="113.017" y="-84.5098" font-family="Monaco" font-size="10.00"> </text>
<polyline fill="none" stroke="black" points="0,-75.1748 226.034,-75.1748 "/>
<text text-anchor="start" x="8" y="-63.1748" font-family="Monaco" font-size="10.00">+ ~IPolyhedralSurfaceComponent</text>
<text text-anchor="start" x="8" y="-49.8398" font-family="Monaco" font-size="10.00">DataItem()</text>
<text text-anchor="start" x="8" y="-36.5049" font-family="Monaco" font-size="10.00">+ polyhedralSurface()</text>
<text text-anchor="start" x="8" y="-23.1699" font-family="Monaco" font-size="10.00">+ polygon()</text>
<text text-anchor="start" x="8" y="-9.83496" font-family="Monaco" font-size="10.00">+ polyhedralSurfacePatchDimension()</text>
</g>
<!-- Node2 -->
<g id="node2" class="node"><title>Node2</title>
<g id="a_node2"><a xlink:href="class_hydro_couple_1_1_i_component_data_item.html" target="_top" xlink:title="IComponentItem is a fundamental unit of data for a component. ">
<polygon fill="none" stroke="black" points="12.002,-181.515 12.002,-365.534 214.032,-365.534 214.032,-181.515 12.002,-181.515"/>
<text text-anchor="middle" x="113.017" y="-353.534" font-family="Monaco" font-size="10.00">HydroCouple::IComponentDataItem</text>
<polyline fill="none" stroke="black" points="12.002,-344.199 214.032,-344.199 "/>
<text text-anchor="middle" x="113.017" y="-332.199" font-family="Monaco" font-size="10.00"> </text>
<polyline fill="none" stroke="black" points="12.002,-322.864 214.032,-322.864 "/>
<text text-anchor="start" x="20.002" y="-310.864" font-family="Monaco" font-size="10.00">+ ~IComponentDataItem()</text>
<text text-anchor="start" x="20.002" y="-297.529" font-family="Monaco" font-size="10.00">+ modelComponent()</text>
<text text-anchor="start" x="20.002" y="-284.194" font-family="Monaco" font-size="10.00">+ dimensions()</text>
<text text-anchor="start" x="20.002" y="-270.859" font-family="Monaco" font-size="10.00">+ valueDefinition()</text>
<text text-anchor="start" x="20.002" y="-257.524" font-family="Monaco" font-size="10.00">+ getValue()</text>
<text text-anchor="start" x="20.002" y="-244.189" font-family="Monaco" font-size="10.00">+ getValues()</text>
<text text-anchor="start" x="20.002" y="-230.854" font-family="Monaco" font-size="10.00">+ getValues()</text>
<text text-anchor="start" x="20.002" y="-217.52" font-family="Monaco" font-size="10.00">+ setValue()</text>
<text text-anchor="start" x="20.002" y="-204.185" font-family="Monaco" font-size="10.00">+ setValues()</text>
<text text-anchor="start" x="20.002" y="-190.85" font-family="Monaco" font-size="10.00">+ setValues()</text>
</a>
</g>
</g>
<!-- Node2&#45;&gt;Node1 -->
<g id="edge1" class="edge"><title>Node2&#45;&gt;Node1</title>
<path fill="none" stroke="midnightblue" d="M113.017,-171.278C113.017,-162.253 113.017,-153.246 113.017,-144.555"/>
<polygon fill="none" stroke="midnightblue" points="109.517,-171.461 113.017,-181.461 116.517,-171.461 109.517,-171.461"/>
</g>
<!-- Node3 -->
<g id="node3" class="node"><title>Node3</title>
<g id="a_node3"><a xlink:href="class_hydro_couple_1_1_i_identity.html" target="_top" xlink:title="IIdentity interface class defines a method to get the Id of an HydroCouple entity. ">
<polygon fill="none" stroke="black" points="39.0063,-402.534 39.0063,-479.874 187.028,-479.874 187.028,-402.534 39.0063,-402.534"/>
<text text-anchor="middle" x="113.017" y="-467.874" font-family="Monaco" font-size="10.00">HydroCouple::IIdentity</text>
<polyline fill="none" stroke="black" points="39.0063,-458.539 187.028,-458.539 "/>
<text text-anchor="middle" x="113.017" y="-446.539" font-family="Monaco" font-size="10.00"> </text>
<polyline fill="none" stroke="black" points="39.0063,-437.204 187.028,-437.204 "/>
<text text-anchor="start" x="47.0063" y="-425.204" font-family="Monaco" font-size="10.00">+ ~IIdentity()</text>
<text text-anchor="start" x="47.0063" y="-411.869" font-family="Monaco" font-size="10.00">+ id()</text>
</a>
</g>
</g>
<!-- Node3&#45;&gt;Node2 -->
<g id="edge2" class="edge"><title>Node3&#45;&gt;Node2</title>
<path fill="none" stroke="midnightblue" d="M113.017,-391.952C113.017,-383.598 113.017,-374.673 113.017,-365.615"/>
<polygon fill="none" stroke="midnightblue" points="109.517,-392.194 113.017,-402.194 116.517,-392.194 109.517,-392.194"/>
</g>
<!-- Node4 -->
<g id="node4" class="node"><title>Node4</title>
<g id="a_node4"><a xlink:href="class_hydro_couple_1_1_i_description.html" target="_top" xlink:title="IDescription interface class provides descriptive information on a HydroCouple object. ">
<polygon fill="none" stroke="black" points="30.0049,-516.874 30.0049,-634.219 196.029,-634.219 196.029,-516.874 30.0049,-516.874"/>
<text text-anchor="middle" x="113.017" y="-622.219" font-family="Monaco" font-size="10.00">HydroCouple::IDescription</text>
<polyline fill="none" stroke="black" points="30.0049,-612.884 196.029,-612.884 "/>
<text text-anchor="middle" x="113.017" y="-600.884" font-family="Monaco" font-size="10.00"> </text>
<polyline fill="none" stroke="black" points="30.0049,-591.549 196.029,-591.549 "/>
<text text-anchor="start" x="38.0049" y="-579.549" font-family="Monaco" font-size="10.00">+ ~IDescription()</text>
<text text-anchor="start" x="38.0049" y="-566.214" font-family="Monaco" font-size="10.00">+ caption()</text>
<text text-anchor="start" x="38.0049" y="-552.879" font-family="Monaco" font-size="10.00">+ setCaption()</text>
<text text-anchor="start" x="38.0049" y="-539.544" font-family="Monaco" font-size="10.00">+ description()</text>
<text text-anchor="start" x="38.0049" y="-526.209" font-family="Monaco" font-size="10.00">+ setDescription()</text>
</a>
</g>
</g>
<!-- Node4&#45;&gt;Node3 -->
<g id="edge3" class="edge"><title>Node4&#45;&gt;Node3</title>
<path fill="none" stroke="midnightblue" d="M113.017,-506.308C113.017,-497.269 113.017,-488.282 113.017,-480.022"/>
<polygon fill="none" stroke="midnightblue" points="109.517,-506.499 113.017,-516.499 116.517,-506.499 109.517,-506.499"/>
</g>
<!-- Node5 -->
<g id="node5" class="node"><title>Node5</title>
<g id="a_node5"><a xlink:href="class_hydro_couple_1_1_i_property_changed.html" target="_top" xlink:title="IPropertyChanged interface is used to emit signal/event when a property of an object changes...">
<polygon fill="none" stroke="black" points="18.0029,-671.219 18.0029,-735.224 208.031,-735.224 208.031,-671.219 18.0029,-671.219"/>
<text text-anchor="middle" x="113.017" y="-723.224" font-family="Monaco" font-size="10.00">HydroCouple::IPropertyChanged</text>
<polyline fill="none" stroke="black" points="18.0029,-713.889 208.031,-713.889 "/>
<text text-anchor="middle" x="113.017" y="-701.889" font-family="Monaco" font-size="10.00"> </text>
<polyline fill="none" stroke="black" points="18.0029,-692.554 208.031,-692.554 "/>
<text text-anchor="start" x="26.0029" y="-680.554" font-family="Monaco" font-size="10.00">+ ~IPropertyChanged()</text>
</a>
</g>
</g>
<!-- Node5&#45;&gt;Node4 -->
<g id="edge4" class="edge"><title>Node5&#45;&gt;Node4</title>
<path fill="none" stroke="midnightblue" d="M113.017,-660.898C113.017,-652.513 113.017,-643.547 113.017,-634.705"/>
<polygon fill="none" stroke="midnightblue" points="109.517,-661.155 113.017,-671.156 116.517,-661.156 109.517,-661.155"/>
</g>
</g>
</svg>
