<?xml version="1.0" encoding="UTF-8" standalone="no"?>
<!DOCTYPE svg PUBLIC "-//W3C//DTD SVG 1.1//EN"
 "http://www.w3.org/Graphics/SVG/1.1/DTD/svg11.dtd">
<!-- Generated by graphviz version 2.38.0 (20140413.2041)
 -->
<!-- Title: HydroCouple::Spatial::IRasterExhangeItem Pages: 1 -->
<svg width="388pt" height="845pt"
 viewBox="0.00 0.00 388.03 844.73" xmlns="http://www.w3.org/2000/svg" xmlns:xlink="http://www.w3.org/1999/xlink">
<g id="graph0" class="graph" transform="scale(1 1) rotate(0) translate(4 840.729)">
<title>HydroCouple::Spatial::IRasterExhangeItem</title>
<!-- Node1 -->
<g id="node1" class="node"><title>Node1</title>
<polygon fill="#bfbfbf" stroke="black" points="108.001,-0.5 108.001,-77.8398 262.024,-77.8398 262.024,-0.5 108.001,-0.5"/>
<text text-anchor="start" x="116.001" y="-65.8398" font-family="Monaco" font-size="10.00">HydroCouple::Spatial</text>
<text text-anchor="middle" x="185.013" y="-52.5049" font-family="Monaco" font-size="10.00">::IRasterExhangeItem</text>
<polyline fill="none" stroke="black" points="108.001,-43.1699 262.024,-43.1699 "/>
<text text-anchor="middle" x="185.013" y="-31.1699" font-family="Monaco" font-size="10.00"> </text>
<polyline fill="none" stroke="black" points="108.001,-21.835 262.024,-21.835 "/>
<text text-anchor="start" x="116.001" y="-9.83496" font-family="Monaco" font-size="10.00">+ ~IRasterExhangeItem()</text>
</g>
<!-- Node2 -->
<g id="node2" class="node"><title>Node2</title>
<g id="a_node2"><a xlink:href="class_hydro_couple_1_1_i_exchange_item.html" target="_top" xlink:title="IExchangeItem the base data item the can be exchanged between components at runtime. ">
<polygon fill="none" stroke="black" points="0,-148.177 0,-212.182 172.025,-212.182 172.025,-148.177 0,-148.177"/>
<text text-anchor="middle" x="86.0127" y="-200.182" font-family="Monaco" font-size="10.00">HydroCouple::IExchangeItem</text>
<polyline fill="none" stroke="black" points="0,-190.847 172.025,-190.847 "/>
<text text-anchor="middle" x="86.0127" y="-178.847" font-family="Monaco" font-size="10.00"> </text>
<polyline fill="none" stroke="black" points="0,-169.512 172.025,-169.512 "/>
<text text-anchor="start" x="8" y="-157.512" font-family="Monaco" font-size="10.00">+ ~IExchangeItem()</text>
</a>
</g>
</g>
<!-- Node2&#45;&gt;Node1 -->
<g id="edge1" class="edge"><title>Node2&#45;&gt;Node1</title>
<path fill="none" stroke="midnightblue" d="M114.157,-139.662C127.953,-120.29 144.487,-97.0737 158.112,-77.9419"/>
<polygon fill="none" stroke="midnightblue" points="111.18,-137.807 108.23,-147.983 116.882,-141.868 111.18,-137.807"/>
</g>
<!-- Node3 -->
<g id="node3" class="node"><title>Node3</title>
<g id="a_node3"><a xlink:href="class_hydro_couple_1_1_i_component_data_item.html" target="_top" xlink:title="IComponentItem is a fundamental unit of data for a component. ">
<polygon fill="none" stroke="black" points="83.9976,-282.52 83.9976,-466.539 286.028,-466.539 286.028,-282.52 83.9976,-282.52"/>
<text text-anchor="middle" x="185.013" y="-454.539" font-family="Monaco" font-size="10.00">HydroCouple::IComponentDataItem</text>
<polyline fill="none" stroke="black" points="83.9976,-445.204 286.028,-445.204 "/>
<text text-anchor="middle" x="185.013" y="-433.204" font-family="Monaco" font-size="10.00"> </text>
<polyline fill="none" stroke="black" points="83.9976,-423.869 286.028,-423.869 "/>
<text text-anchor="start" x="91.9976" y="-411.869" font-family="Monaco" font-size="10.00">+ ~IComponentDataItem()</text>
<text text-anchor="start" x="91.9976" y="-398.534" font-family="Monaco" font-size="10.00">+ modelComponent()</text>
<text text-anchor="start" x="91.9976" y="-385.199" font-family="Monaco" font-size="10.00">+ dimensions()</text>
<text text-anchor="start" x="91.9976" y="-371.864" font-family="Monaco" font-size="10.00">+ valueDefinition()</text>
<text text-anchor="start" x="91.9976" y="-358.529" font-family="Monaco" font-size="10.00">+ getValue()</text>
<text text-anchor="start" x="91.9976" y="-345.194" font-family="Monaco" font-size="10.00">+ getValues()</text>
<text text-anchor="start" x="91.9976" y="-331.859" font-family="Monaco" font-size="10.00">+ getValues()</text>
<text text-anchor="start" x="91.9976" y="-318.524" font-family="Monaco" font-size="10.00">+ setValue()</text>
<text text-anchor="start" x="91.9976" y="-305.189" font-family="Monaco" font-size="10.00">+ setValues()</text>
<text text-anchor="start" x="91.9976" y="-291.854" font-family="Monaco" font-size="10.00">+ setValues()</text>
</a>
</g>
</g>
<!-- Node3&#45;&gt;Node2 -->
<g id="edge2" class="edge"><title>Node3&#45;&gt;Node2</title>
<path fill="none" stroke="midnightblue" d="M133.397,-273.244C121.972,-251.046 110.697,-229.139 102.013,-212.268"/>
<polygon fill="none" stroke="midnightblue" points="130.434,-275.134 138.122,-282.424 136.658,-271.931 130.434,-275.134"/>
</g>
<!-- Node7 -->
<g id="node7" class="node"><title>Node7</title>
<g id="a_node7"><a xlink:href="class_hydro_couple_1_1_spatial_1_1_i_raster_component_data_item.html" target="_top" xlink:title="An IRasterComponentDataItem represents an IRaster IComponentItem. ">
<polygon fill="none" stroke="black" points="189.999,-114.84 189.999,-245.52 380.027,-245.52 380.027,-114.84 189.999,-114.84"/>
<text text-anchor="start" x="197.999" y="-233.52" font-family="Monaco" font-size="10.00">HydroCouple::Spatial</text>
<text text-anchor="middle" x="285.013" y="-220.185" font-family="Monaco" font-size="10.00">::IRasterComponentDataItem</text>
<polyline fill="none" stroke="black" points="189.999,-210.85 380.027,-210.85 "/>
<text text-anchor="middle" x="285.013" y="-198.85" font-family="Monaco" font-size="10.00"> </text>
<polyline fill="none" stroke="black" points="189.999,-189.515 380.027,-189.515 "/>
<text text-anchor="start" x="197.999" y="-177.515" font-family="Monaco" font-size="10.00">+ ~IRasterComponentDataItem()</text>
<text text-anchor="start" x="197.999" y="-164.18" font-family="Monaco" font-size="10.00">+ xDimension()</text>
<text text-anchor="start" x="197.999" y="-150.845" font-family="Monaco" font-size="10.00">+ yDimension()</text>
<text text-anchor="start" x="197.999" y="-137.51" font-family="Monaco" font-size="10.00">+ bandDimension()</text>
<text text-anchor="start" x="197.999" y="-124.175" font-family="Monaco" font-size="10.00">+ raster()</text>
</a>
</g>
</g>
<!-- Node3&#45;&gt;Node7 -->
<g id="edge7" class="edge"><title>Node3&#45;&gt;Node7</title>
<path fill="none" stroke="midnightblue" d="M237.076,-273.386C241.975,-263.962 246.848,-254.59 251.506,-245.631"/>
<polygon fill="none" stroke="midnightblue" points="233.884,-271.937 232.377,-282.424 240.095,-275.166 233.884,-271.937"/>
</g>
<!-- Node4 -->
<g id="node4" class="node"><title>Node4</title>
<g id="a_node4"><a xlink:href="class_hydro_couple_1_1_i_identity.html" target="_top" xlink:title="IIdentity interface class defines a method to get the Id of an HydroCouple entity. ">
<polygon fill="none" stroke="black" points="111.002,-503.539 111.002,-580.879 259.023,-580.879 259.023,-503.539 111.002,-503.539"/>
<text text-anchor="middle" x="185.013" y="-568.879" font-family="Monaco" font-size="10.00">HydroCouple::IIdentity</text>
<polyline fill="none" stroke="black" points="111.002,-559.544 259.023,-559.544 "/>
<text text-anchor="middle" x="185.013" y="-547.544" font-family="Monaco" font-size="10.00"> </text>
<polyline fill="none" stroke="black" points="111.002,-538.209 259.023,-538.209 "/>
<text text-anchor="start" x="119.002" y="-526.209" font-family="Monaco" font-size="10.00">+ ~IIdentity()</text>
<text text-anchor="start" x="119.002" y="-512.874" font-family="Monaco" font-size="10.00">+ id()</text>
</a>
</g>
</g>
<!-- Node4&#45;&gt;Node3 -->
<g id="edge3" class="edge"><title>Node4&#45;&gt;Node3</title>
<path fill="none" stroke="midnightblue" d="M185.013,-492.957C185.013,-484.603 185.013,-475.678 185.013,-466.62"/>
<polygon fill="none" stroke="midnightblue" points="181.513,-493.199 185.013,-503.199 188.513,-493.199 181.513,-493.199"/>
</g>
<!-- Node5 -->
<g id="node5" class="node"><title>Node5</title>
<g id="a_node5"><a xlink:href="class_hydro_couple_1_1_i_description.html" target="_top" xlink:title="IDescription interface class provides descriptive information on a HydroCouple object. ">
<polygon fill="none" stroke="black" points="102,-617.879 102,-735.224 268.025,-735.224 268.025,-617.879 102,-617.879"/>
<text text-anchor="middle" x="185.013" y="-723.224" font-family="Monaco" font-size="10.00">HydroCouple::IDescription</text>
<polyline fill="none" stroke="black" points="102,-713.889 268.025,-713.889 "/>
<text text-anchor="middle" x="185.013" y="-701.889" font-family="Monaco" font-size="10.00"> </text>
<polyline fill="none" stroke="black" points="102,-692.554 268.025,-692.554 "/>
<text text-anchor="start" x="110" y="-680.554" font-family="Monaco" font-size="10.00">+ ~IDescription()</text>
<text text-anchor="start" x="110" y="-667.219" font-family="Monaco" font-size="10.00">+ caption()</text>
<text text-anchor="start" x="110" y="-653.884" font-family="Monaco" font-size="10.00">+ setCaption()</text>
<text text-anchor="start" x="110" y="-640.549" font-family="Monaco" font-size="10.00">+ description()</text>
<text text-anchor="start" x="110" y="-627.214" font-family="Monaco" font-size="10.00">+ setDescription()</text>
</a>
</g>
</g>
<!-- Node5&#45;&gt;Node4 -->
<g id="edge4" class="edge"><title>Node5&#45;&gt;Node4</title>
<path fill="none" stroke="midnightblue" d="M185.013,-607.313C185.013,-598.274 185.013,-589.287 185.013,-581.026"/>
<polygon fill="none" stroke="midnightblue" points="181.513,-607.504 185.013,-617.504 188.513,-607.504 181.513,-607.504"/>
</g>
<!-- Node6 -->
<g id="node6" class="node"><title>Node6</title>
<g id="a_node6"><a xlink:href="class_hydro_couple_1_1_i_property_changed.html" target="_top" xlink:title="IPropertyChanged interface is used to emit signal/event when a property of an object changes...">
<polygon fill="none" stroke="black" points="89.9985,-772.224 89.9985,-836.229 280.027,-836.229 280.027,-772.224 89.9985,-772.224"/>
<text text-anchor="middle" x="185.013" y="-824.229" font-family="Monaco" font-size="10.00">HydroCouple::IPropertyChanged</text>
<polyline fill="none" stroke="black" points="89.9985,-814.894 280.027,-814.894 "/>
<text text-anchor="middle" x="185.013" y="-802.894" font-family="Monaco" font-size="10.00"> </text>
<polyline fill="none" stroke="black" points="89.9985,-793.559 280.027,-793.559 "/>
<text text-anchor="start" x="97.9985" y="-781.559" font-family="Monaco" font-size="10.00">+ ~IPropertyChanged()</text>
</a>
</g>
</g>
<!-- Node6&#45;&gt;Node5 -->
<g id="edge5" class="edge"><title>Node6&#45;&gt;Node5</title>
<path fill="none" stroke="midnightblue" d="M185.013,-761.903C185.013,-753.518 185.013,-744.552 185.013,-735.71"/>
<polygon fill="none" stroke="midnightblue" points="181.513,-762.16 185.013,-772.16 188.513,-762.16 181.513,-762.16"/>
</g>
<!-- Node7&#45;&gt;Node1 -->
<g id="edge6" class="edge"><title>Node7&#45;&gt;Node1</title>
<path fill="none" stroke="midnightblue" d="M232.625,-106.356C225.604,-96.5953 218.645,-86.9223 212.305,-78.109"/>
<polygon fill="none" stroke="midnightblue" points="229.845,-108.484 238.526,-114.558 235.527,-104.397 229.845,-108.484"/>
</g>
</g>
</svg>
