<?xml version="1.0" encoding="UTF-8" standalone="no"?>
<!DOCTYPE svg PUBLIC "-//W3C//DTD SVG 1.1//EN"
 "http://www.w3.org/Graphics/SVG/1.1/DTD/svg11.dtd">
<!-- Generated by graphviz version 2.38.0 (20140413.2041)
 -->
<!-- Title: HydroCouple::Spatial::IRasterComponentItem Pages: 1 -->
<svg width="198pt" height="650pt"
 viewBox="0.00 0.00 198.03 650.38" xmlns="http://www.w3.org/2000/svg" xmlns:xlink="http://www.w3.org/1999/xlink">
<g id="graph0" class="graph" transform="scale(1 1) rotate(0) translate(4 646.379)">
<title>HydroCouple::Spatial::IRasterComponentItem</title>
<polygon fill="white" stroke="none" points="-4,4 -4,-646.379 194.028,-646.379 194.028,4 -4,4"/>
<!-- Node1 -->
<g id="node1" class="node"><title>Node1</title>
<polygon fill="#bfbfbf" stroke="black" points="12.002,-0.5 12.002,-144.515 178.026,-144.515 178.026,-0.5 12.002,-0.5"/>
<text text-anchor="start" x="20.002" y="-132.515" font-family="Monaco" font-size="10.00">HydroCouple::Spatial</text>
<text text-anchor="middle" x="95.0142" y="-119.18" font-family="Monaco" font-size="10.00">::IRasterComponentItem</text>
<polyline fill="none" stroke="black" points="12.002,-109.845 178.026,-109.845 "/>
<text text-anchor="middle" x="95.0142" y="-97.8447" font-family="Monaco" font-size="10.00"> </text>
<polyline fill="none" stroke="black" points="12.002,-88.5098 178.026,-88.5098 "/>
<text text-anchor="start" x="20.002" y="-76.5098" font-family="Monaco" font-size="10.00">+ ~IRasterComponentItem()</text>
<text text-anchor="start" x="20.002" y="-63.1748" font-family="Monaco" font-size="10.00">+ rasterDimension()</text>
<text text-anchor="start" x="20.002" y="-49.8398" font-family="Monaco" font-size="10.00">+ xDimension()</text>
<text text-anchor="start" x="20.002" y="-36.5049" font-family="Monaco" font-size="10.00">+ yDimension()</text>
<text text-anchor="start" x="20.002" y="-23.1699" font-family="Monaco" font-size="10.00">+ bandDimension()</text>
<text text-anchor="start" x="20.002" y="-9.83496" font-family="Monaco" font-size="10.00">+ raster()</text>
</g>
<!-- Node2 -->
<g id="node2" class="node"><title>Node2</title>
<g id="a_node2"><a xlink:href="class_hydro_couple_1_1_i_component_item.html" target="_top" xlink:title="IComponentItem is a fundamental unit of data for a component. ">
<polygon fill="white" stroke="black" points="6.00098,-181.515 6.00098,-272.189 184.027,-272.189 184.027,-181.515 6.00098,-181.515"/>
<text text-anchor="middle" x="95.0142" y="-260.189" font-family="Monaco" font-size="10.00">HydroCouple::IComponentItem</text>
<polyline fill="none" stroke="black" points="6.00098,-250.854 184.027,-250.854 "/>
<text text-anchor="middle" x="95.0142" y="-238.854" font-family="Monaco" font-size="10.00"> </text>
<polyline fill="none" stroke="black" points="6.00098,-229.52 184.027,-229.52 "/>
<text text-anchor="start" x="14.001" y="-217.52" font-family="Monaco" font-size="10.00">+ ~IComponentItem()</text>
<text text-anchor="start" x="14.001" y="-204.185" font-family="Monaco" font-size="10.00">+ modelComponent()</text>
<text text-anchor="start" x="14.001" y="-190.85" font-family="Monaco" font-size="10.00">+ dimensions()</text>
</a>
</g>
</g>
<!-- Node2&#45;&gt;Node1 -->
<g id="edge1" class="edge"><title>Node2&#45;&gt;Node1</title>
<path fill="none" stroke="midnightblue" d="M95.0142,-171.139C95.0142,-162.558 95.0142,-153.58 95.0142,-144.694"/>
<polygon fill="none" stroke="midnightblue" points="91.5143,-171.378 95.0142,-181.378 98.5143,-171.378 91.5143,-171.378"/>
</g>
<!-- Node3 -->
<g id="node3" class="node"><title>Node3</title>
<g id="a_node3"><a xlink:href="class_hydro_couple_1_1_i_identity.html" target="_top" xlink:title="IIdentity interface class defines a method to get the Id of an HydroCouple entity. ">
<polygon fill="white" stroke="black" points="21.0034,-309.189 21.0034,-386.529 169.025,-386.529 169.025,-309.189 21.0034,-309.189"/>
<text text-anchor="middle" x="95.0142" y="-374.529" font-family="Monaco" font-size="10.00">HydroCouple::IIdentity</text>
<polyline fill="none" stroke="black" points="21.0034,-365.194 169.025,-365.194 "/>
<text text-anchor="middle" x="95.0142" y="-353.194" font-family="Monaco" font-size="10.00"> </text>
<polyline fill="none" stroke="black" points="21.0034,-343.859 169.025,-343.859 "/>
<text text-anchor="start" x="29.0034" y="-331.859" font-family="Monaco" font-size="10.00">+ ~IIdentity()</text>
<text text-anchor="start" x="29.0034" y="-318.524" font-family="Monaco" font-size="10.00">+ id()</text>
</a>
</g>
</g>
<!-- Node3&#45;&gt;Node2 -->
<g id="edge2" class="edge"><title>Node3&#45;&gt;Node2</title>
<path fill="none" stroke="midnightblue" d="M95.0142,-298.87C95.0142,-290.171 95.0142,-281.131 95.0142,-272.532"/>
<polygon fill="none" stroke="midnightblue" points="91.5143,-298.877 95.0142,-308.878 98.5143,-298.878 91.5143,-298.877"/>
</g>
<!-- Node4 -->
<g id="node4" class="node"><title>Node4</title>
<g id="a_node4"><a xlink:href="class_hydro_couple_1_1_i_description.html" target="_top" xlink:title="IDescription interface class provides descriptive information on a HydroCouple object. ">
<polygon fill="white" stroke="black" points="12.002,-423.529 12.002,-540.874 178.026,-540.874 178.026,-423.529 12.002,-423.529"/>
<text text-anchor="middle" x="95.0142" y="-528.874" font-family="Monaco" font-size="10.00">HydroCouple::IDescription</text>
<polyline fill="none" stroke="black" points="12.002,-519.539 178.026,-519.539 "/>
<text text-anchor="middle" x="95.0142" y="-507.539" font-family="Monaco" font-size="10.00"> </text>
<polyline fill="none" stroke="black" points="12.002,-498.204 178.026,-498.204 "/>
<text text-anchor="start" x="20.002" y="-486.204" font-family="Monaco" font-size="10.00">+ ~IDescription()</text>
<text text-anchor="start" x="20.002" y="-472.869" font-family="Monaco" font-size="10.00">+ getCaption()</text>
<text text-anchor="start" x="20.002" y="-459.534" font-family="Monaco" font-size="10.00">+ setCaption()</text>
<text text-anchor="start" x="20.002" y="-446.199" font-family="Monaco" font-size="10.00">+ getDescription()</text>
<text text-anchor="start" x="20.002" y="-432.864" font-family="Monaco" font-size="10.00">+ setDescription()</text>
</a>
</g>
</g>
<!-- Node4&#45;&gt;Node3 -->
<g id="edge3" class="edge"><title>Node4&#45;&gt;Node3</title>
<path fill="none" stroke="midnightblue" d="M95.0142,-412.963C95.0142,-403.925 95.0142,-394.937 95.0142,-386.677"/>
<polygon fill="none" stroke="midnightblue" points="91.5143,-413.154 95.0142,-423.154 98.5143,-413.154 91.5143,-413.154"/>
</g>
<!-- Node5 -->
<g id="node5" class="node"><title>Node5</title>
<g id="a_node5"><a xlink:href="class_hydro_couple_1_1_i_property_changed.html" target="_top" xlink:title="IPropertyChanged interface is used to emit signal/event when a property of an object changes...">
<polygon fill="white" stroke="black" points="0,-577.874 0,-641.879 190.028,-641.879 190.028,-577.874 0,-577.874"/>
<text text-anchor="middle" x="95.0142" y="-629.879" font-family="Monaco" font-size="10.00">HydroCouple::IPropertyChanged</text>
<polyline fill="none" stroke="black" points="0,-620.544 190.028,-620.544 "/>
<text text-anchor="middle" x="95.0142" y="-608.544" font-family="Monaco" font-size="10.00"> </text>
<polyline fill="none" stroke="black" points="0,-599.209 190.028,-599.209 "/>
<text text-anchor="start" x="8" y="-587.209" font-family="Monaco" font-size="10.00">+ ~IPropertyChanged()</text>
</a>
</g>
</g>
<!-- Node5&#45;&gt;Node4 -->
<g id="edge4" class="edge"><title>Node5&#45;&gt;Node4</title>
<path fill="none" stroke="midnightblue" d="M95.0142,-567.554C95.0142,-559.169 95.0142,-550.202 95.0142,-541.36"/>
<polygon fill="none" stroke="midnightblue" points="91.5143,-567.811 95.0142,-577.811 98.5143,-567.811 91.5143,-567.811"/>
</g>
</g>
</svg>
