<?xml version="1.0" encoding="UTF-8" standalone="no"?>
<!DOCTYPE svg PUBLIC "-//W3C//DTD SVG 1.1//EN"
 "http://www.w3.org/Graphics/SVG/1.1/DTD/svg11.dtd">
<!-- Generated by graphviz version 2.38.0 (20140413.2041)
 -->
<!-- Title: HydroCouple::IExchangeItem Pages: 1 -->
<!--zoomable 959 -->
<svg id="main" version="1.1" xmlns="http://www.w3.org/2000/svg" xmlns:xlink="http://www.w3.org/1999/xlink" xml:space="preserve" onload="init(evt)">
<style type="text/css"><![CDATA[
.edge:hover path { stroke: red; }
.edge:hover polygon { stroke: red; fill: red; }
]]></style>
<script type="text/javascript"><![CDATA[
var edges = document.getElementsByTagName('g');
if (edges && edges.length) {
  for (var i=0;i<edges.length;i++) {
    if (edges[i].id.substr(0,4)=='edge') {
      edges[i].setAttribute('class','edge');
    }
  }
}
]]></script>
        <defs>
                <circle id="rim" cx="0" cy="0" r="7"/>
                <circle id="rim2" cx="0" cy="0" r="3.5"/>
                <g id="zoomPlus">
                        <use xlink:href="#rim" fill="#404040">
                                <set attributeName="fill" to="#808080" begin="zoomplus.mouseover" end="zoomplus.mouseout"/>
                        </use>
                        <path d="M-4,0h8M0,-4v8" fill="none" stroke="white" stroke-width="1.5" pointer-events="none"/>
                </g>
                <g id="zoomMin">
                        <use xlink:href="#rim" fill="#404040">
                                <set attributeName="fill" to="#808080" begin="zoomminus.mouseover" end="zoomminus.mouseout"/>
                        </use>
                        <path d="M-4,0h8" fill="none" stroke="white" stroke-width="1.5" pointer-events="none"/>
                </g>
                <g id="dirArrow">
                        <path fill="none" stroke="white" stroke-width="1.5" d="M0,-3.0v7 M-2.5,-0.5L0,-3.0L2.5,-0.5"/>
                </g>
               <g id="resetDef">
                       <use xlink:href="#rim2" fill="#404040">
                               <set attributeName="fill" to="#808080" begin="reset.mouseover" end="reset.mouseout"/>
                       </use>
               </g>
        </defs>

<script type="text/javascript">
var viewWidth = 1554;
var viewHeight = 959;
var sectionId = 'dynsection-0';
</script>
<script xlink:href="svgpan.js"/>
<svg id="graph" class="graph">
<g id="viewport">
<title>HydroCouple::IExchangeItem</title>
<polygon fill="white" stroke="none" points="-4,4 -4,-955.068 1550.03,-955.068 1550.03,4 -4,4"/>
<!-- Node1 -->
<g id="node1" class="node"><title>Node1</title>
<polygon fill="#bfbfbf" stroke="black" points="640.997,-375.864 640.997,-453.204 813.022,-453.204 813.022,-375.864 640.997,-375.864"/>
<text text-anchor="middle" x="727.009" y="-441.204" font-family="Monaco" font-size="10.00">HydroCouple::IExchangeItem</text>
<polyline fill="none" stroke="black" points="640.997,-431.869 813.022,-431.869 "/>
<text text-anchor="middle" x="727.009" y="-419.869" font-family="Monaco" font-size="10.00"> </text>
<polyline fill="none" stroke="black" points="640.997,-410.534 813.022,-410.534 "/>
<text text-anchor="start" x="648.997" y="-398.534" font-family="Monaco" font-size="10.00">+ ~IExchangeItem()</text>
<text text-anchor="start" x="648.997" y="-385.199" font-family="Monaco" font-size="10.00">+ itemChanged()</text>
</g>
<!-- Node6 -->
<g id="node6" class="node"><title>Node6</title>
<g id="a_node6"><a xlink:href="class_hydro_couple_1_1_i_input.html" target="_top" xlink:title="An IInput item that can accept values for an IModelComponent. ">
<polygon fill="white" stroke="black" points="0,-208.185 0,-312.194 130.019,-312.194 130.019,-208.185 0,-208.185"/>
<text text-anchor="middle" x="65.0093" y="-300.194" font-family="Monaco" font-size="10.00">HydroCouple::IInput</text>
<polyline fill="none" stroke="black" points="0,-290.859 130.019,-290.859 "/>
<text text-anchor="middle" x="65.0093" y="-278.859" font-family="Monaco" font-size="10.00"> </text>
<polyline fill="none" stroke="black" points="0,-269.524 130.019,-269.524 "/>
<text text-anchor="start" x="8" y="-257.524" font-family="Monaco" font-size="10.00">+ ~IInput()</text>
<text text-anchor="start" x="8" y="-244.189" font-family="Monaco" font-size="10.00">+ getProvider()</text>
<text text-anchor="start" x="8" y="-230.854" font-family="Monaco" font-size="10.00">+ setProvider()</text>
<text text-anchor="start" x="8" y="-217.52" font-family="Monaco" font-size="10.00">+ canConsume()</text>
</a>
</g>
</g>
<!-- Node1&#45;&gt;Node6 -->
<g id="edge5" class="edge"><title>Node1&#45;&gt;Node6</title>
<path fill="none" stroke="midnightblue" d="M630.708,-409.231C486.617,-401.485 222.864,-381.87 139.009,-339.364 126.007,-332.774 114.059,-322.942 103.729,-312.456"/>
<polygon fill="none" stroke="midnightblue" points="630.701,-412.736 640.872,-409.769 631.071,-405.745 630.701,-412.736"/>
</g>
<!-- Node7 -->
<g id="node7" class="node"><title>Node7</title>
<g id="a_node7"><a xlink:href="class_hydro_couple_1_1_i_output.html" target="_top" xlink:title="An output exchange item that can deliver values from an IModelComponent. ">
<polygon fill="white" stroke="black" points="147.998,-181.515 147.998,-338.864 302.021,-338.864 302.021,-181.515 147.998,-181.515"/>
<text text-anchor="middle" x="225.009" y="-326.864" font-family="Monaco" font-size="10.00">HydroCouple::IOutput</text>
<polyline fill="none" stroke="black" points="147.998,-317.529 302.021,-317.529 "/>
<text text-anchor="middle" x="225.009" y="-305.529" font-family="Monaco" font-size="10.00"> </text>
<polyline fill="none" stroke="black" points="147.998,-296.194 302.021,-296.194 "/>
<text text-anchor="start" x="155.998" y="-284.194" font-family="Monaco" font-size="10.00">+ ~IOutput()</text>
<text text-anchor="start" x="155.998" y="-270.859" font-family="Monaco" font-size="10.00">+ consumers()</text>
<text text-anchor="start" x="155.998" y="-257.524" font-family="Monaco" font-size="10.00">+ addConsumer()</text>
<text text-anchor="start" x="155.998" y="-244.189" font-family="Monaco" font-size="10.00">+ removeConsumer()</text>
<text text-anchor="start" x="155.998" y="-230.854" font-family="Monaco" font-size="10.00">+ adaptedOutputs()</text>
<text text-anchor="start" x="155.998" y="-217.52" font-family="Monaco" font-size="10.00">+ addAdaptedOutput()</text>
<text text-anchor="start" x="155.998" y="-204.185" font-family="Monaco" font-size="10.00">+ removeAdaptedOutput()</text>
<text text-anchor="start" x="155.998" y="-190.85" font-family="Monaco" font-size="10.00">+ updateValues()</text>
</a>
</g>
</g>
<!-- Node1&#45;&gt;Node7 -->
<g id="edge6" class="edge"><title>Node1&#45;&gt;Node7</title>
<path fill="none" stroke="midnightblue" d="M630.453,-411.381C542.989,-406.022 412.642,-389.352 311.009,-339.364 308.022,-337.895 305.062,-336.29 302.139,-334.574"/>
<polygon fill="none" stroke="midnightblue" points="630.452,-414.887 640.636,-411.966 630.853,-407.898 630.452,-414.887"/>
</g>
<!-- Node9 -->
<g id="node9" class="node"><title>Node9</title>
<g id="a_node9"><a xlink:href="class_hydro_couple_1_1_spatial_1_1_i2_d_regular_grid_exhange_item.html" target="_top" xlink:title="An I2DRegularGridExhangeItem is an IExchangeItem with an I2DRegularGridComponentItem. ">
<polygon fill="white" stroke="black" points="319.995,-221.52 319.995,-298.859 516.024,-298.859 516.024,-221.52 319.995,-221.52"/>
<text text-anchor="start" x="327.995" y="-286.859" font-family="Monaco" font-size="10.00">HydroCouple::Spatial</text>
<text text-anchor="middle" x="418.009" y="-273.524" font-family="Monaco" font-size="10.00">::I2DRegularGridExhangeItem</text>
<polyline fill="none" stroke="black" points="319.995,-264.189 516.024,-264.189 "/>
<text text-anchor="middle" x="418.009" y="-252.189" font-family="Monaco" font-size="10.00"> </text>
<polyline fill="none" stroke="black" points="319.995,-242.854 516.024,-242.854 "/>
<text text-anchor="start" x="327.995" y="-230.854" font-family="Monaco" font-size="10.00">+ ~I2DRegularGridExhangeItem()</text>
</a>
</g>
</g>
<!-- Node1&#45;&gt;Node9 -->
<g id="edge8" class="edge"><title>Node1&#45;&gt;Node9</title>
<path fill="none" stroke="midnightblue" d="M631.116,-384.473C596.739,-372.472 558.278,-357.17 525.009,-339.364 503.813,-328.019 482.092,-312.91 463.807,-299"/>
<polygon fill="none" stroke="midnightblue" points="630.102,-387.825 640.697,-387.77 632.38,-381.206 630.102,-387.825"/>
</g>
<!-- Node10 -->
<g id="node10" class="node"><title>Node10</title>
<g id="a_node10"><a xlink:href="class_hydro_couple_1_1_spatial_1_1_i3_d_regular_grid_exhange_item.html" target="_top" xlink:title="An I3DRegularGridExhangeItem is an IExchangeItem with an I3DRegularGridComponentItem. ">
<polygon fill="white" stroke="black" points="533.995,-221.52 533.995,-298.859 730.024,-298.859 730.024,-221.52 533.995,-221.52"/>
<text text-anchor="start" x="541.995" y="-286.859" font-family="Monaco" font-size="10.00">HydroCouple::Spatial</text>
<text text-anchor="middle" x="632.009" y="-273.524" font-family="Monaco" font-size="10.00">::I3DRegularGridExhangeItem</text>
<polyline fill="none" stroke="black" points="533.995,-264.189 730.024,-264.189 "/>
<text text-anchor="middle" x="632.009" y="-252.189" font-family="Monaco" font-size="10.00"> </text>
<polyline fill="none" stroke="black" points="533.995,-242.854 730.024,-242.854 "/>
<text text-anchor="start" x="541.995" y="-230.854" font-family="Monaco" font-size="10.00">+ ~I3DRegularGridExhangeItem()</text>
</a>
</g>
</g>
<!-- Node1&#45;&gt;Node10 -->
<g id="edge9" class="edge"><title>Node1&#45;&gt;Node10</title>
<path fill="none" stroke="midnightblue" d="M697.829,-366.739C684.277,-345.008 668.377,-319.509 655.599,-299.018"/>
<polygon fill="none" stroke="midnightblue" points="695.021,-368.851 703.282,-375.484 700.96,-365.147 695.021,-368.851"/>
</g>
<!-- Node12 -->
<g id="node12" class="node"><title>Node12</title>
<g id="a_node12"><a xlink:href="class_hydro_couple_1_1_spatial_1_1_i_geometry_exchange_item.html" target="_top" xlink:title="An IExchangeItem class with a geometry component. ">
<polygon fill="white" stroke="black" points="913.997,-221.52 913.997,-298.859 1086.02,-298.859 1086.02,-221.52 913.997,-221.52"/>
<text text-anchor="start" x="921.997" y="-286.859" font-family="Monaco" font-size="10.00">HydroCouple::Spatial</text>
<text text-anchor="middle" x="1000.01" y="-273.524" font-family="Monaco" font-size="10.00">::IGeometryExchangeItem</text>
<polyline fill="none" stroke="black" points="913.997,-264.189 1086.02,-264.189 "/>
<text text-anchor="middle" x="1000.01" y="-252.189" font-family="Monaco" font-size="10.00"> </text>
<polyline fill="none" stroke="black" points="913.997,-242.854 1086.02,-242.854 "/>
<text text-anchor="start" x="921.997" y="-230.854" font-family="Monaco" font-size="10.00">+ ~IGeometryExchangeItem()</text>
</a>
</g>
</g>
<!-- Node1&#45;&gt;Node12 -->
<g id="edge12" class="edge"><title>Node1&#45;&gt;Node12</title>
<path fill="none" stroke="midnightblue" d="M822.828,-379.639C850.182,-368.373 879.477,-354.727 905.009,-339.364 924.043,-327.911 943.291,-312.862 959.437,-299.029"/>
<polygon fill="none" stroke="midnightblue" points="821.195,-376.524 813.242,-383.523 823.825,-383.011 821.195,-376.524"/>
</g>
<!-- Node14 -->
<g id="node14" class="node"><title>Node14</title>
<g id="a_node14"><a xlink:href="class_hydro_couple_1_1_spatial_1_1_i_polyhedral_surface_exchange_item.html" target="_top" xlink:title="An IPolyhedralSurfaceExchangeItem class with an IPolyhedralSurface component. ">
<polygon fill="white" stroke="black" points="1103.99,-221.52 1103.99,-298.859 1330.03,-298.859 1330.03,-221.52 1103.99,-221.52"/>
<text text-anchor="start" x="1111.99" y="-286.859" font-family="Monaco" font-size="10.00">HydroCouple::Spatial</text>
<text text-anchor="middle" x="1217.01" y="-273.524" font-family="Monaco" font-size="10.00">::IPolyhedralSurfaceExchangeItem</text>
<polyline fill="none" stroke="black" points="1103.99,-264.189 1330.03,-264.189 "/>
<text text-anchor="middle" x="1217.01" y="-252.189" font-family="Monaco" font-size="10.00"> </text>
<polyline fill="none" stroke="black" points="1103.99,-242.854 1330.03,-242.854 "/>
<text text-anchor="start" x="1111.99" y="-230.854" font-family="Monaco" font-size="10.00">+ ~IPolyhedralSurfaceExchangeItem()</text>
</a>
</g>
</g>
<!-- Node1&#45;&gt;Node14 -->
<g id="edge14" class="edge"><title>Node1&#45;&gt;Node14</title>
<path fill="none" stroke="midnightblue" d="M823.303,-404.021C899.235,-394.2 1006.69,-375.09 1095.01,-339.364 1120.31,-329.13 1146.08,-313.528 1167.38,-298.947"/>
<polygon fill="none" stroke="midnightblue" points="822.753,-400.563 813.27,-405.288 823.63,-407.508 822.753,-400.563"/>
</g>
<!-- Node16 -->
<g id="node16" class="node"><title>Node16</title>
<g id="a_node16"><a xlink:href="class_hydro_couple_1_1_spatial_1_1_i_raster_exhange_item.html" target="_top" xlink:title="An IRasterExhangeItem is an IExchangeItem with an IRaster. ">
<polygon fill="white" stroke="black" points="1348,-221.52 1348,-298.859 1502.02,-298.859 1502.02,-221.52 1348,-221.52"/>
<text text-anchor="start" x="1356" y="-286.859" font-family="Monaco" font-size="10.00">HydroCouple::Spatial</text>
<text text-anchor="middle" x="1425.01" y="-273.524" font-family="Monaco" font-size="10.00">::IRasterExhangeItem</text>
<polyline fill="none" stroke="black" points="1348,-264.189 1502.02,-264.189 "/>
<text text-anchor="middle" x="1425.01" y="-252.189" font-family="Monaco" font-size="10.00"> </text>
<polyline fill="none" stroke="black" points="1348,-242.854 1502.02,-242.854 "/>
<text text-anchor="start" x="1356" y="-230.854" font-family="Monaco" font-size="10.00">+ ~IRasterExhangeItem()</text>
</a>
</g>
</g>
<!-- Node1&#45;&gt;Node16 -->
<g id="edge16" class="edge"><title>Node1&#45;&gt;Node16</title>
<path fill="none" stroke="midnightblue" d="M823.118,-408.993C971.684,-400.788 1249.34,-380.398 1339.01,-339.364 1359.37,-330.044 1378.25,-314.109 1393.09,-299.048"/>
<polygon fill="none" stroke="midnightblue" points="822.88,-405.5 813.085,-409.539 823.261,-412.49 822.88,-405.5"/>
</g>
<!-- Node18 -->
<g id="node18" class="node"><title>Node18</title>
<g id="a_node18"><a xlink:href="class_hydro_couple_1_1_temporal_1_1_i_time_exchange_item.html" target="_top" xlink:title="The ITimeExchangeItem class. ">
<polygon fill="white" stroke="black" points="747.999,-221.52 747.999,-298.859 896.02,-298.859 896.02,-221.52 747.999,-221.52"/>
<text text-anchor="start" x="755.999" y="-286.859" font-family="Monaco" font-size="10.00">HydroCouple::Temporal</text>
<text text-anchor="middle" x="822.009" y="-273.524" font-family="Monaco" font-size="10.00">::ITimeExchangeItem</text>
<polyline fill="none" stroke="black" points="747.999,-264.189 896.02,-264.189 "/>
<text text-anchor="middle" x="822.009" y="-252.189" font-family="Monaco" font-size="10.00"> </text>
<polyline fill="none" stroke="black" points="747.999,-242.854 896.02,-242.854 "/>
<text text-anchor="start" x="755.999" y="-230.854" font-family="Monaco" font-size="10.00">+ ~ITimeExchangeItem()</text>
</a>
</g>
</g>
<!-- Node1&#45;&gt;Node18 -->
<g id="edge18" class="edge"><title>Node1&#45;&gt;Node18</title>
<path fill="none" stroke="midnightblue" d="M756.19,-366.739C769.741,-345.008 785.642,-319.509 798.42,-299.018"/>
<polygon fill="none" stroke="midnightblue" points="753.058,-365.147 750.737,-375.484 758.998,-368.851 753.058,-365.147"/>
</g>
<!-- Node2 -->
<g id="node2" class="node"><title>Node2</title>
<g id="a_node2"><a xlink:href="class_hydro_couple_1_1_i_component_item.html" target="_top" xlink:title="IComponentItem is a fundamental unit of data for a component. ">
<polygon fill="white" stroke="black" points="637.996,-490.204 637.996,-580.879 816.022,-580.879 816.022,-490.204 637.996,-490.204"/>
<text text-anchor="middle" x="727.009" y="-568.879" font-family="Monaco" font-size="10.00">HydroCouple::IComponentItem</text>
<polyline fill="none" stroke="black" points="637.996,-559.544 816.022,-559.544 "/>
<text text-anchor="middle" x="727.009" y="-547.544" font-family="Monaco" font-size="10.00"> </text>
<polyline fill="none" stroke="black" points="637.996,-538.209 816.022,-538.209 "/>
<text text-anchor="start" x="645.996" y="-526.209" font-family="Monaco" font-size="10.00">+ ~IComponentItem()</text>
<text text-anchor="start" x="645.996" y="-512.874" font-family="Monaco" font-size="10.00">+ modelComponent()</text>
<text text-anchor="start" x="645.996" y="-499.539" font-family="Monaco" font-size="10.00">+ dimensions()</text>
</a>
</g>
</g>
<!-- Node2&#45;&gt;Node1 -->
<g id="edge1" class="edge"><title>Node2&#45;&gt;Node1</title>
<path fill="none" stroke="midnightblue" d="M727.009,-479.604C727.009,-470.749 727.009,-461.758 727.009,-453.423"/>
<polygon fill="none" stroke="midnightblue" points="723.509,-479.889 727.009,-489.889 730.509,-479.889 723.509,-479.889"/>
</g>
<!-- Node3 -->
<g id="node3" class="node"><title>Node3</title>
<g id="a_node3"><a xlink:href="class_hydro_couple_1_1_i_identity.html" target="_top" xlink:title="IIdentity interface class defines a method to get the Id of an HydroCouple entity. ">
<polygon fill="white" stroke="black" points="652.999,-617.879 652.999,-695.219 801.02,-695.219 801.02,-617.879 652.999,-617.879"/>
<text text-anchor="middle" x="727.009" y="-683.219" font-family="Monaco" font-size="10.00">HydroCouple::IIdentity</text>
<polyline fill="none" stroke="black" points="652.999,-673.884 801.02,-673.884 "/>
<text text-anchor="middle" x="727.009" y="-661.884" font-family="Monaco" font-size="10.00"> </text>
<polyline fill="none" stroke="black" points="652.999,-652.549 801.02,-652.549 "/>
<text text-anchor="start" x="660.999" y="-640.549" font-family="Monaco" font-size="10.00">+ ~IIdentity()</text>
<text text-anchor="start" x="660.999" y="-627.214" font-family="Monaco" font-size="10.00">+ id()</text>
</a>
</g>
</g>
<!-- Node3&#45;&gt;Node2 -->
<g id="edge2" class="edge"><title>Node3&#45;&gt;Node2</title>
<path fill="none" stroke="midnightblue" d="M727.009,-607.559C727.009,-598.861 727.009,-589.821 727.009,-581.222"/>
<polygon fill="none" stroke="midnightblue" points="723.509,-607.567 727.009,-617.567 730.509,-607.567 723.509,-607.567"/>
</g>
<!-- Node4 -->
<g id="node4" class="node"><title>Node4</title>
<g id="a_node4"><a xlink:href="class_hydro_couple_1_1_i_description.html" target="_top" xlink:title="IDescription interface class provides descriptive information on a HydroCouple object. ">
<polygon fill="white" stroke="black" points="643.997,-732.219 643.997,-849.563 810.021,-849.563 810.021,-732.219 643.997,-732.219"/>
<text text-anchor="middle" x="727.009" y="-837.563" font-family="Monaco" font-size="10.00">HydroCouple::IDescription</text>
<polyline fill="none" stroke="black" points="643.997,-828.229 810.021,-828.229 "/>
<text text-anchor="middle" x="727.009" y="-816.229" font-family="Monaco" font-size="10.00"> </text>
<polyline fill="none" stroke="black" points="643.997,-806.894 810.021,-806.894 "/>
<text text-anchor="start" x="651.997" y="-794.894" font-family="Monaco" font-size="10.00">+ ~IDescription()</text>
<text text-anchor="start" x="651.997" y="-781.559" font-family="Monaco" font-size="10.00">+ getCaption()</text>
<text text-anchor="start" x="651.997" y="-768.224" font-family="Monaco" font-size="10.00">+ setCaption()</text>
<text text-anchor="start" x="651.997" y="-754.889" font-family="Monaco" font-size="10.00">+ getDescription()</text>
<text text-anchor="start" x="651.997" y="-741.554" font-family="Monaco" font-size="10.00">+ setDescription()</text>
</a>
</g>
</g>
<!-- Node4&#45;&gt;Node3 -->
<g id="edge3" class="edge"><title>Node4&#45;&gt;Node3</title>
<path fill="none" stroke="midnightblue" d="M727.009,-721.653C727.009,-712.614 727.009,-703.627 727.009,-695.366"/>
<polygon fill="none" stroke="midnightblue" points="723.509,-721.844 727.009,-731.844 730.509,-721.844 723.509,-721.844"/>
</g>
<!-- Node5 -->
<g id="node5" class="node"><title>Node5</title>
<g id="a_node5"><a xlink:href="class_hydro_couple_1_1_i_property_changed.html" target="_top" xlink:title="IPropertyChanged interface is used to emit signal/event when a property of an object changes...">
<polygon fill="white" stroke="black" points="631.995,-886.563 631.995,-950.568 822.023,-950.568 822.023,-886.563 631.995,-886.563"/>
<text text-anchor="middle" x="727.009" y="-938.568" font-family="Monaco" font-size="10.00">HydroCouple::IPropertyChanged</text>
<polyline fill="none" stroke="black" points="631.995,-929.233 822.023,-929.233 "/>
<text text-anchor="middle" x="727.009" y="-917.233" font-family="Monaco" font-size="10.00"> </text>
<polyline fill="none" stroke="black" points="631.995,-907.898 822.023,-907.898 "/>
<text text-anchor="start" x="639.995" y="-895.898" font-family="Monaco" font-size="10.00">+ ~IPropertyChanged()</text>
</a>
</g>
</g>
<!-- Node5&#45;&gt;Node4 -->
<g id="edge4" class="edge"><title>Node5&#45;&gt;Node4</title>
<path fill="none" stroke="midnightblue" d="M727.009,-876.243C727.009,-867.858 727.009,-858.892 727.009,-850.049"/>
<polygon fill="none" stroke="midnightblue" points="723.509,-876.5 727.009,-886.5 730.509,-876.5 723.509,-876.5"/>
</g>
<!-- Node8 -->
<g id="node8" class="node"><title>Node8</title>
<g id="a_node8"><a xlink:href="class_hydro_couple_1_1_i_adapted_output.html" target="_top" xlink:title="An IAdaptedOutput adds one or more data operations on top of an IOutput. ">
<polygon fill="white" stroke="black" points="135.996,-0.5 135.996,-144.515 314.022,-144.515 314.022,-0.5 135.996,-0.5"/>
<text text-anchor="middle" x="225.009" y="-132.515" font-family="Monaco" font-size="10.00">HydroCouple::IAdaptedOutput</text>
<polyline fill="none" stroke="black" points="135.996,-123.18 314.022,-123.18 "/>
<text text-anchor="middle" x="225.009" y="-111.18" font-family="Monaco" font-size="10.00"> </text>
<polyline fill="none" stroke="black" points="135.996,-101.845 314.022,-101.845 "/>
<text text-anchor="start" x="143.996" y="-89.8447" font-family="Monaco" font-size="10.00">+ ~IAdaptedOutput()</text>
<text text-anchor="start" x="143.996" y="-76.5098" font-family="Monaco" font-size="10.00">+ adaptedOutputFactory()</text>
<text text-anchor="start" x="143.996" y="-63.1748" font-family="Monaco" font-size="10.00">+ arguments()</text>
<text text-anchor="start" x="143.996" y="-49.8398" font-family="Monaco" font-size="10.00">+ setArgument()</text>
<text text-anchor="start" x="143.996" y="-36.5049" font-family="Monaco" font-size="10.00">+ initialize()</text>
<text text-anchor="start" x="143.996" y="-23.1699" font-family="Monaco" font-size="10.00">+ adaptee()</text>
<text text-anchor="start" x="143.996" y="-9.83496" font-family="Monaco" font-size="10.00">+ refresh()</text>
</a>
</g>
</g>
<!-- Node7&#45;&gt;Node8 -->
<g id="edge7" class="edge"><title>Node7&#45;&gt;Node8</title>
<path fill="none" stroke="midnightblue" d="M225.009,-170.971C225.009,-162.177 225.009,-153.327 225.009,-144.738"/>
<polygon fill="none" stroke="midnightblue" points="221.509,-171.251 225.009,-181.251 228.509,-171.251 221.509,-171.251"/>
</g>
<!-- Node11 -->
<g id="node11" class="node"><title>Node11</title>
<g id="a_node11"><a xlink:href="class_hydro_couple_1_1_spatio_temporal_1_1_i_time3_d_regular_grid_exchange_item.html" target="_top" xlink:title="The ITime3DRegularGridExchangeItem class. ">
<polygon fill="white" stroke="black" points="521.992,-27.1699 521.992,-117.845 748.026,-117.845 748.026,-27.1699 521.992,-27.1699"/>
<text text-anchor="start" x="529.992" y="-105.845" font-family="Monaco" font-size="10.00">HydroCouple::SpatioTemporal</text>
<text text-anchor="middle" x="635.009" y="-92.5098" font-family="Monaco" font-size="10.00">::ITime3DRegularGridExchangeItem</text>
<polyline fill="none" stroke="black" points="521.992,-83.1748 748.026,-83.1748 "/>
<text text-anchor="middle" x="635.009" y="-71.1748" font-family="Monaco" font-size="10.00"> </text>
<polyline fill="none" stroke="black" points="521.992,-61.8398 748.026,-61.8398 "/>
<text text-anchor="start" x="529.992" y="-49.8398" font-family="Monaco" font-size="10.00">+ ~ITime3RegularGridExchangeItem()</text>
<text text-anchor="start" x="529.992" y="-36.5049" font-family="Monaco" font-size="10.00">+ ~ITime3DRegularGridExchangeItem()</text>
</a>
</g>
</g>
<!-- Node10&#45;&gt;Node11 -->
<g id="edge10" class="edge"><title>Node10&#45;&gt;Node11</title>
<path fill="none" stroke="midnightblue" d="M626.785,-210.952C626.208,-182.234 626.841,-146.048 628.43,-118.014"/>
<polygon fill="none" stroke="midnightblue" points="623.292,-211.261 627.053,-221.166 630.289,-211.078 623.292,-211.261"/>
</g>
<!-- Node10&#45;&gt;Node11 -->
<g id="edge11" class="edge"><title>Node10&#45;&gt;Node11</title>
<path fill="none" stroke="midnightblue" d="M638.792,-210.952C640.297,-182.234 640.834,-146.048 640.151,-118.014"/>
<polygon fill="none" stroke="midnightblue" points="635.285,-210.978 638.194,-221.166 642.273,-211.387 635.285,-210.978"/>
</g>
<!-- Node13 -->
<g id="node13" class="node"><title>Node13</title>
<g id="a_node13"><a xlink:href="class_hydro_couple_1_1_spatio_temporal_1_1_i_time_geometry_exchange_item.html" target="_top" xlink:title="The ITimeGeometryExchangeItem class. ">
<polygon fill="white" stroke="black" points="772.995,-33.8374 772.995,-111.177 969.024,-111.177 969.024,-33.8374 772.995,-33.8374"/>
<text text-anchor="start" x="780.995" y="-99.1772" font-family="Monaco" font-size="10.00">HydroCouple::SpatioTemporal</text>
<text text-anchor="middle" x="871.009" y="-85.8423" font-family="Monaco" font-size="10.00">::ITimeGeometryExchangeItem</text>
<polyline fill="none" stroke="black" points="772.995,-76.5073 969.024,-76.5073 "/>
<text text-anchor="middle" x="871.009" y="-64.5073" font-family="Monaco" font-size="10.00"> </text>
<polyline fill="none" stroke="black" points="772.995,-55.1724 969.024,-55.1724 "/>
<text text-anchor="start" x="780.995" y="-43.1724" font-family="Monaco" font-size="10.00">+ ~ITimeGeometryExchangeItem()</text>
</a>
</g>
</g>
<!-- Node12&#45;&gt;Node13 -->
<g id="edge13" class="edge"><title>Node12&#45;&gt;Node13</title>
<path fill="none" stroke="midnightblue" d="M967.657,-212.621C945.955,-181.384 917.729,-140.756 897.39,-111.48"/>
<polygon fill="none" stroke="midnightblue" points="965.013,-214.95 973.593,-221.166 970.762,-210.956 965.013,-214.95"/>
</g>
<!-- Node15 -->
<g id="node15" class="node"><title>Node15</title>
<g id="a_node15"><a xlink:href="class_hydro_couple_1_1_spatio_temporal_1_1_i_time_polyhedral_surface_exchange_item.html" target="_top" xlink:title="The ITimePolyhedralSurfaceExchangeItem class. ">
<polygon fill="white" stroke="black" points="1000.99,-33.8374 1000.99,-111.177 1251.03,-111.177 1251.03,-33.8374 1000.99,-33.8374"/>
<text text-anchor="start" x="1008.99" y="-99.1772" font-family="Monaco" font-size="10.00">HydroCouple::SpatioTemporal</text>
<text text-anchor="middle" x="1126.01" y="-85.8423" font-family="Monaco" font-size="10.00">::ITimePolyhedralSurfaceExchangeItem</text>
<polyline fill="none" stroke="black" points="1000.99,-76.5073 1251.03,-76.5073 "/>
<text text-anchor="middle" x="1126.01" y="-64.5073" font-family="Monaco" font-size="10.00"> </text>
<polyline fill="none" stroke="black" points="1000.99,-55.1724 1251.03,-55.1724 "/>
<text text-anchor="start" x="1008.99" y="-43.1724" font-family="Monaco" font-size="10.00">+ ~ITimePolyhedralSurfaceExchangeItem()</text>
</a>
</g>
</g>
<!-- Node14&#45;&gt;Node15 -->
<g id="edge15" class="edge"><title>Node14&#45;&gt;Node15</title>
<path fill="none" stroke="midnightblue" d="M1193.79,-211.818C1178.54,-180.69 1158.84,-140.506 1144.62,-111.48"/>
<polygon fill="none" stroke="midnightblue" points="1190.83,-213.727 1198.37,-221.166 1197.12,-210.646 1190.83,-213.727"/>
</g>
<!-- Node17 -->
<g id="node17" class="node"><title>Node17</title>
<g id="a_node17"><a xlink:href="class_hydro_couple_1_1_spatio_temporal_1_1_i_time_raster_exchange_item.html" target="_top" xlink:title="The ITimeRasterExchangeItem class. ">
<polygon fill="white" stroke="black" points="1295.99,-33.8374 1295.99,-111.177 1546.03,-111.177 1546.03,-33.8374 1295.99,-33.8374"/>
<text text-anchor="start" x="1303.99" y="-99.1772" font-family="Monaco" font-size="10.00">HydroCouple::SpatioTemporal</text>
<text text-anchor="middle" x="1421.01" y="-85.8423" font-family="Monaco" font-size="10.00">::ITimeRasterExchangeItem</text>
<polyline fill="none" stroke="black" points="1295.99,-76.5073 1546.03,-76.5073 "/>
<text text-anchor="middle" x="1421.01" y="-64.5073" font-family="Monaco" font-size="10.00"> </text>
<polyline fill="none" stroke="black" points="1295.99,-55.1724 1546.03,-55.1724 "/>
<text text-anchor="start" x="1303.99" y="-43.1724" font-family="Monaco" font-size="10.00">+ ~ITimePolyhedralSurfaceExchangeItem()</text>
</a>
</g>
</g>
<!-- Node16&#45;&gt;Node17 -->
<g id="edge17" class="edge"><title>Node16&#45;&gt;Node17</title>
<path fill="none" stroke="midnightblue" d="M1423.97,-211.011C1423.3,-179.998 1422.45,-140.255 1421.83,-111.48"/>
<polygon fill="none" stroke="midnightblue" points="1420.48,-211.244 1424.19,-221.166 1427.47,-211.093 1420.48,-211.244"/>
</g>
<!-- Node18&#45;&gt;Node11 -->
<g id="edge19" class="edge"><title>Node18&#45;&gt;Node11</title>
<path fill="none" stroke="midnightblue" d="M770.556,-213.947C740.029,-184.784 702.019,-147.031 673.972,-118.014"/>
<polygon fill="none" stroke="midnightblue" points="768.487,-216.81 778.145,-221.166 773.312,-211.738 768.487,-216.81"/>
</g>
<!-- Node18&#45;&gt;Node11 -->
<g id="edge20" class="edge"><title>Node18&#45;&gt;Node11</title>
<path fill="none" stroke="midnightblue" d="M782.336,-213.947C754.122,-184.784 716.092,-147.031 685.692,-118.014"/>
<polygon fill="none" stroke="midnightblue" points="779.829,-216.39 789.287,-221.166 784.872,-211.535 779.829,-216.39"/>
</g>
<!-- Node18&#45;&gt;Node13 -->
<g id="edge21" class="edge"><title>Node18&#45;&gt;Node13</title>
<path fill="none" stroke="midnightblue" d="M834.616,-211.415C842.816,-180.344 853.362,-140.38 860.989,-111.48"/>
<polygon fill="none" stroke="midnightblue" points="831.211,-210.604 832.043,-221.166 837.979,-212.39 831.211,-210.604"/>
</g>
<!-- Node18&#45;&gt;Node15 -->
<g id="edge22" class="edge"><title>Node18&#45;&gt;Node15</title>
<path fill="none" stroke="midnightblue" d="M864.971,-214.061C877.263,-202.484 891.113,-190.606 905.009,-181.015 908.345,-178.712 985.631,-141.243 1047.87,-111.18"/>
<polygon fill="none" stroke="midnightblue" points="862.319,-211.755 857.532,-221.207 867.168,-216.803 862.319,-211.755"/>
</g>
<!-- Node18&#45;&gt;Node17 -->
<g id="edge23" class="edge"><title>Node18&#45;&gt;Node17</title>
<path fill="none" stroke="midnightblue" d="M859.827,-213.682C872.8,-201.011 888.301,-188.643 905.009,-181.015 1049.27,-115.154 1106.73,-185.71 1260.01,-145.015 1290.16,-137.009 1321.84,-124.031 1349.05,-111.314"/>
<polygon fill="none" stroke="midnightblue" points="857.006,-211.559 852.491,-221.143 861.998,-216.466 857.006,-211.559"/>
</g>
</g>
</svg>
        <g id="navigator" transform="translate(0 0)" fill="#404254">
                <rect fill="#f2f5e9" fill-opacity="0.5" stroke="#606060" stroke-width=".5" x="0" y="0" width="60" height="60"/>
                <use id="zoomplus" xlink:href="#zoomPlus" x="17" y="9" onmousedown="handleZoom(evt,'in')"/>
                <use id="zoomminus" xlink:href="#zoomMin" x="42" y="9" onmousedown="handleZoom(evt,'out')"/>
                <use id="reset" xlink:href="#resetDef" x="30" y="36" onmousedown="handleReset()"/>
                <g id="arrowUp" xlink:href="#dirArrow" transform="translate(30 24)" onmousedown="handlePan(0,-1)">
                  <use xlink:href="#rim" fill="#404040">
                        <set attributeName="fill" to="#808080" begin="arrowUp.mouseover" end="arrowUp.mouseout"/>
                  </use>
                  <path fill="none" stroke="white" stroke-width="1.5" d="M0,-3.0v7 M-2.5,-0.5L0,-3.0L2.5,-0.5"/>
                </g>
                <g id="arrowRight" xlink:href="#dirArrow" transform="rotate(90) translate(36 -43)" onmousedown="handlePan(1,0)">
                  <use xlink:href="#rim" fill="#404040">
                        <set attributeName="fill" to="#808080" begin="arrowRight.mouseover" end="arrowRight.mouseout"/>
                  </use>
                  <path fill="none" stroke="white" stroke-width="1.5" d="M0,-3.0v7 M-2.5,-0.5L0,-3.0L2.5,-0.5"/>
                </g>
                <g id="arrowDown" xlink:href="#dirArrow" transform="rotate(180) translate(-30 -48)" onmousedown="handlePan(0,1)">
                  <use xlink:href="#rim" fill="#404040">
                        <set attributeName="fill" to="#808080" begin="arrowDown.mouseover" end="arrowDown.mouseout"/>
                  </use>
                  <path fill="none" stroke="white" stroke-width="1.5" d="M0,-3.0v7 M-2.5,-0.5L0,-3.0L2.5,-0.5"/>
                </g>
                <g id="arrowLeft" xlink:href="#dirArrow" transform="rotate(270) translate(-36 17)" onmousedown="handlePan(-1,0)">
                  <use xlink:href="#rim" fill="#404040">
                        <set attributeName="fill" to="#808080" begin="arrowLeft.mouseover" end="arrowLeft.mouseout"/>
                  </use>
                  <path fill="none" stroke="white" stroke-width="1.5" d="M0,-3.0v7 M-2.5,-0.5L0,-3.0L2.5,-0.5"/>
                </g>
        </g>
        <svg viewBox="0 0 15 15" width="100%" height="30px" preserveAspectRatio="xMaxYMin meet">
         <g id="arrow_out" transform="scale(0.3 0.3)">
          <a xlink:href="class_hydro_couple_1_1_i_exchange_item__inherit__graph_org.svg" target="_base">
           <rect id="button" ry="5" rx="5" y="6" x="6" height="38" width="38"
                fill="#f2f5e9" fill-opacity="0.5" stroke="#606060" stroke-width="1.0"/>
           <path id="arrow"
             d="M 11.500037,31.436501 C 11.940474,20.09759 22.043105,11.32322 32.158766,21.979434 L 37.068811,17.246167 C 37.068811,17.246167 37.088388,32 37.088388,32 L 22.160133,31.978069 C 22.160133,31.978069 26.997745,27.140456 26.997745,27.140456 C 18.528582,18.264221 13.291696,25.230495 11.500037,31.436501 z"
             style="fill:#404040;"/>
          </a>
         </g>
        </svg>
</svg>
