<?xml version="1.0" encoding="UTF-8" standalone="no"?>
<!DOCTYPE svg PUBLIC "-//W3C//DTD SVG 1.1//EN"
 "http://www.w3.org/Graphics/SVG/1.1/DTD/svg11.dtd">
<!-- Generated by graphviz version 2.38.0 (20140413.2041)
 -->
<!-- Title: HydroCouple::Spatial::IPolyhedralSurfaceComponentItem Pages: 1 -->
<svg width="740pt" height="866pt"
 viewBox="0.00 0.00 740.03 865.72" xmlns="http://www.w3.org/2000/svg" xmlns:xlink="http://www.w3.org/1999/xlink">
<g id="graph0" class="graph" transform="scale(1 1) rotate(0) translate(4 861.724)">
<title>HydroCouple::Spatial::IPolyhedralSurfaceComponentItem</title>
<polygon fill="white" stroke="none" points="-4,4 -4,-861.724 736.034,-861.724 736.034,4 -4,4"/>
<!-- Node1 -->
<g id="node1" class="node"><title>Node1</title>
<polygon fill="#bfbfbf" stroke="black" points="231.998,-242.515 231.998,-359.859 464.033,-359.859 464.033,-242.515 231.998,-242.515"/>
<text text-anchor="start" x="239.998" y="-347.859" font-family="Monaco" font-size="10.00">HydroCouple::Spatial</text>
<text text-anchor="middle" x="348.015" y="-334.524" font-family="Monaco" font-size="10.00">::IPolyhedralSurfaceComponentItem</text>
<polyline fill="none" stroke="black" points="231.998,-325.189 464.033,-325.189 "/>
<text text-anchor="middle" x="348.015" y="-313.189" font-family="Monaco" font-size="10.00"> </text>
<polyline fill="none" stroke="black" points="231.998,-303.854 464.033,-303.854 "/>
<text text-anchor="start" x="239.998" y="-291.854" font-family="Monaco" font-size="10.00">+ ~IPolyhedralSurfaceComponentItem()</text>
<text text-anchor="start" x="239.998" y="-278.52" font-family="Monaco" font-size="10.00">+ patchDimension()</text>
<text text-anchor="start" x="239.998" y="-265.185" font-family="Monaco" font-size="10.00">+ polyhedralSurface()</text>
<text text-anchor="start" x="239.998" y="-251.85" font-family="Monaco" font-size="10.00">+ geometry()</text>
</g>
<!-- Node6 -->
<g id="node6" class="node"><title>Node6</title>
<g id="a_node6"><a xlink:href="class_hydro_couple_1_1_spatial_1_1_i_polyhedral_surface_argument.html" target="_top" xlink:title="An IPolyhedralSurfaceArgument class is an IArgument class with an IPolyhedralSurface component...">
<polygon fill="white" stroke="black" points="0,-114.84 0,-205.515 202.03,-205.515 202.03,-114.84 0,-114.84"/>
<text text-anchor="start" x="8" y="-193.515" font-family="Monaco" font-size="10.00">HydroCouple::Spatial</text>
<text text-anchor="middle" x="101.015" y="-180.18" font-family="Monaco" font-size="10.00">::IPolyhedralSurfaceArgument</text>
<polyline fill="none" stroke="black" points="0,-170.845 202.03,-170.845 "/>
<text text-anchor="middle" x="101.015" y="-158.845" font-family="Monaco" font-size="10.00"> </text>
<polyline fill="none" stroke="black" points="0,-149.51 202.03,-149.51 "/>
<text text-anchor="start" x="8" y="-137.51" font-family="Monaco" font-size="10.00">+ ~IPolyhedralSurfaceArgument()</text>
<text text-anchor="start" x="8" y="-124.175" font-family="Monaco" font-size="10.00">+ setPolyhedralSurface()</text>
</a>
</g>
</g>
<!-- Node1&#45;&gt;Node6 -->
<g id="edge5" class="edge"><title>Node1&#45;&gt;Node6</title>
<path fill="none" stroke="midnightblue" d="M236.656,-237.515C217.527,-226.749 198.006,-215.763 179.951,-205.602"/>
<polygon fill="none" stroke="midnightblue" points="234.979,-240.588 245.411,-242.442 238.413,-234.487 234.979,-240.588"/>
</g>
<!-- Node8 -->
<g id="node8" class="node"><title>Node8</title>
<g id="a_node8"><a xlink:href="class_hydro_couple_1_1_spatial_1_1_i_polyhedral_surface_exchange_item.html" target="_top" xlink:title="An IPolyhedralSurfaceExchangeItem class with an IPolyhedralSurface component. ">
<polygon fill="white" stroke="black" points="493.998,-121.507 493.998,-198.847 720.032,-198.847 720.032,-121.507 493.998,-121.507"/>
<text text-anchor="start" x="501.998" y="-186.847" font-family="Monaco" font-size="10.00">HydroCouple::Spatial</text>
<text text-anchor="middle" x="607.015" y="-173.512" font-family="Monaco" font-size="10.00">::IPolyhedralSurfaceExchangeItem</text>
<polyline fill="none" stroke="black" points="493.998,-164.177 720.032,-164.177 "/>
<text text-anchor="middle" x="607.015" y="-152.177" font-family="Monaco" font-size="10.00"> </text>
<polyline fill="none" stroke="black" points="493.998,-142.842 720.032,-142.842 "/>
<text text-anchor="start" x="501.998" y="-130.842" font-family="Monaco" font-size="10.00">+ ~IPolyhedralSurfaceExchangeItem()</text>
</a>
</g>
</g>
<!-- Node1&#45;&gt;Node8 -->
<g id="edge7" class="edge"><title>Node1&#45;&gt;Node8</title>
<path fill="none" stroke="midnightblue" d="M464.63,-237.598C489.223,-224.398 514.442,-210.863 536.693,-198.921"/>
<polygon fill="none" stroke="midnightblue" points="462.76,-234.629 455.604,-242.442 466.071,-240.797 462.76,-234.629"/>
</g>
<!-- Node10 -->
<g id="node10" class="node"><title>Node10</title>
<g id="a_node10"><a xlink:href="class_hydro_couple_1_1_spatio_temporal_1_1_i_time_polyhedral_surface_component_item.html" target="_top" xlink:title="The ITimePolyhedralSurfaceComponentItem class. ">
<polygon fill="white" stroke="black" points="219.996,-121.507 219.996,-198.847 476.035,-198.847 476.035,-121.507 219.996,-121.507"/>
<text text-anchor="start" x="227.996" y="-186.847" font-family="Monaco" font-size="10.00">HydroCouple::SpatioTemporal</text>
<text text-anchor="middle" x="348.015" y="-173.512" font-family="Monaco" font-size="10.00">::ITimePolyhedralSurfaceComponentItem</text>
<polyline fill="none" stroke="black" points="219.996,-164.177 476.035,-164.177 "/>
<text text-anchor="middle" x="348.015" y="-152.177" font-family="Monaco" font-size="10.00"> </text>
<polyline fill="none" stroke="black" points="219.996,-142.842 476.035,-142.842 "/>
<text text-anchor="start" x="227.996" y="-130.842" font-family="Monaco" font-size="10.00">+ ~ITimePolyhedralSurfaceComponentItem()</text>
</a>
</g>
</g>
<!-- Node1&#45;&gt;Node10 -->
<g id="edge9" class="edge"><title>Node1&#45;&gt;Node10</title>
<path fill="none" stroke="midnightblue" d="M348.015,-232.426C348.015,-220.974 348.015,-209.459 348.015,-199.125"/>
<polygon fill="none" stroke="midnightblue" points="344.515,-232.442 348.015,-242.442 351.515,-232.442 344.515,-232.442"/>
</g>
<!-- Node2 -->
<g id="node2" class="node"><title>Node2</title>
<g id="a_node2"><a xlink:href="class_hydro_couple_1_1_i_component_item.html" target="_top" xlink:title="IComponentItem is a fundamental unit of data for a component. ">
<polygon fill="white" stroke="black" points="259.002,-396.859 259.002,-487.534 437.028,-487.534 437.028,-396.859 259.002,-396.859"/>
<text text-anchor="middle" x="348.015" y="-475.534" font-family="Monaco" font-size="10.00">HydroCouple::IComponentItem</text>
<polyline fill="none" stroke="black" points="259.002,-466.199 437.028,-466.199 "/>
<text text-anchor="middle" x="348.015" y="-454.199" font-family="Monaco" font-size="10.00"> </text>
<polyline fill="none" stroke="black" points="259.002,-444.864 437.028,-444.864 "/>
<text text-anchor="start" x="267.002" y="-432.864" font-family="Monaco" font-size="10.00">+ ~IComponentItem()</text>
<text text-anchor="start" x="267.002" y="-419.529" font-family="Monaco" font-size="10.00">+ modelComponent()</text>
<text text-anchor="start" x="267.002" y="-406.194" font-family="Monaco" font-size="10.00">+ dimensions()</text>
</a>
</g>
</g>
<!-- Node2&#45;&gt;Node1 -->
<g id="edge1" class="edge"><title>Node2&#45;&gt;Node1</title>
<path fill="none" stroke="midnightblue" d="M348.015,-386.751C348.015,-378.004 348.015,-368.923 348.015,-360.098"/>
<polygon fill="none" stroke="midnightblue" points="344.515,-386.831 348.015,-396.831 351.515,-386.831 344.515,-386.831"/>
</g>
<!-- Node3 -->
<g id="node3" class="node"><title>Node3</title>
<g id="a_node3"><a xlink:href="class_hydro_couple_1_1_i_identity.html" target="_top" xlink:title="IIdentity interface class defines a method to get the Id of an HydroCouple entity. ">
<polygon fill="white" stroke="black" points="274.004,-524.534 274.004,-601.874 422.026,-601.874 422.026,-524.534 274.004,-524.534"/>
<text text-anchor="middle" x="348.015" y="-589.874" font-family="Monaco" font-size="10.00">HydroCouple::IIdentity</text>
<polyline fill="none" stroke="black" points="274.004,-580.539 422.026,-580.539 "/>
<text text-anchor="middle" x="348.015" y="-568.539" font-family="Monaco" font-size="10.00"> </text>
<polyline fill="none" stroke="black" points="274.004,-559.204 422.026,-559.204 "/>
<text text-anchor="start" x="282.004" y="-547.204" font-family="Monaco" font-size="10.00">+ ~IIdentity()</text>
<text text-anchor="start" x="282.004" y="-533.869" font-family="Monaco" font-size="10.00">+ id()</text>
</a>
</g>
</g>
<!-- Node3&#45;&gt;Node2 -->
<g id="edge2" class="edge"><title>Node3&#45;&gt;Node2</title>
<path fill="none" stroke="midnightblue" d="M348.015,-514.214C348.015,-505.516 348.015,-496.476 348.015,-487.877"/>
<polygon fill="none" stroke="midnightblue" points="344.515,-514.222 348.015,-524.222 351.515,-514.222 344.515,-514.222"/>
</g>
<!-- Node4 -->
<g id="node4" class="node"><title>Node4</title>
<g id="a_node4"><a xlink:href="class_hydro_couple_1_1_i_description.html" target="_top" xlink:title="IDescription interface class provides descriptive information on a HydroCouple object. ">
<polygon fill="white" stroke="black" points="265.003,-638.874 265.003,-756.219 431.027,-756.219 431.027,-638.874 265.003,-638.874"/>
<text text-anchor="middle" x="348.015" y="-744.219" font-family="Monaco" font-size="10.00">HydroCouple::IDescription</text>
<polyline fill="none" stroke="black" points="265.003,-734.884 431.027,-734.884 "/>
<text text-anchor="middle" x="348.015" y="-722.884" font-family="Monaco" font-size="10.00"> </text>
<polyline fill="none" stroke="black" points="265.003,-713.549 431.027,-713.549 "/>
<text text-anchor="start" x="273.003" y="-701.549" font-family="Monaco" font-size="10.00">+ ~IDescription()</text>
<text text-anchor="start" x="273.003" y="-688.214" font-family="Monaco" font-size="10.00">+ getCaption()</text>
<text text-anchor="start" x="273.003" y="-674.879" font-family="Monaco" font-size="10.00">+ setCaption()</text>
<text text-anchor="start" x="273.003" y="-661.544" font-family="Monaco" font-size="10.00">+ getDescription()</text>
<text text-anchor="start" x="273.003" y="-648.209" font-family="Monaco" font-size="10.00">+ setDescription()</text>
</a>
</g>
</g>
<!-- Node4&#45;&gt;Node3 -->
<g id="edge3" class="edge"><title>Node4&#45;&gt;Node3</title>
<path fill="none" stroke="midnightblue" d="M348.015,-628.308C348.015,-619.269 348.015,-610.282 348.015,-602.022"/>
<polygon fill="none" stroke="midnightblue" points="344.515,-628.499 348.015,-638.499 351.515,-628.499 344.515,-628.499"/>
</g>
<!-- Node5 -->
<g id="node5" class="node"><title>Node5</title>
<g id="a_node5"><a xlink:href="class_hydro_couple_1_1_i_property_changed.html" target="_top" xlink:title="IPropertyChanged interface is used to emit signal/event when a property of an object changes...">
<polygon fill="white" stroke="black" points="253.001,-793.219 253.001,-857.224 443.029,-857.224 443.029,-793.219 253.001,-793.219"/>
<text text-anchor="middle" x="348.015" y="-845.224" font-family="Monaco" font-size="10.00">HydroCouple::IPropertyChanged</text>
<polyline fill="none" stroke="black" points="253.001,-835.889 443.029,-835.889 "/>
<text text-anchor="middle" x="348.015" y="-823.889" font-family="Monaco" font-size="10.00"> </text>
<polyline fill="none" stroke="black" points="253.001,-814.554 443.029,-814.554 "/>
<text text-anchor="start" x="261.001" y="-802.554" font-family="Monaco" font-size="10.00">+ ~IPropertyChanged()</text>
</a>
</g>
</g>
<!-- Node5&#45;&gt;Node4 -->
<g id="edge4" class="edge"><title>Node5&#45;&gt;Node4</title>
<path fill="none" stroke="midnightblue" d="M348.015,-782.898C348.015,-774.513 348.015,-765.547 348.015,-756.705"/>
<polygon fill="none" stroke="midnightblue" points="344.515,-783.155 348.015,-793.156 351.515,-783.156 344.515,-783.155"/>
</g>
<!-- Node7 -->
<g id="node7" class="node"><title>Node7</title>
<g id="a_node7"><a xlink:href="class_hydro_couple_1_1_spatio_temporal_1_1_i_time_polyhedral_surface_argument.html" target="_top" xlink:title="The ITimePolyhedralSurfaceArgument class. ">
<polygon fill="white" stroke="black" points="111.998,-0.5 111.998,-77.8398 338.032,-77.8398 338.032,-0.5 111.998,-0.5"/>
<text text-anchor="start" x="119.998" y="-65.8398" font-family="Monaco" font-size="10.00">HydroCouple::SpatioTemporal</text>
<text text-anchor="middle" x="225.015" y="-52.5049" font-family="Monaco" font-size="10.00">::ITimePolyhedralSurfaceArgument</text>
<polyline fill="none" stroke="black" points="111.998,-43.1699 338.032,-43.1699 "/>
<text text-anchor="middle" x="225.015" y="-31.1699" font-family="Monaco" font-size="10.00"> </text>
<polyline fill="none" stroke="black" points="111.998,-21.835 338.032,-21.835 "/>
<text text-anchor="start" x="119.998" y="-9.83496" font-family="Monaco" font-size="10.00">+ ~ITimePolyhedralSurfaceArgument()</text>
</a>
</g>
</g>
<!-- Node6&#45;&gt;Node7 -->
<g id="edge6" class="edge"><title>Node6&#45;&gt;Node7</title>
<path fill="none" stroke="midnightblue" d="M154.956,-107.409C165.234,-97.5439 175.813,-87.3907 185.537,-78.0584"/>
<polygon fill="none" stroke="midnightblue" points="152.332,-105.075 147.541,-114.525 157.179,-110.126 152.332,-105.075"/>
</g>
<!-- Node9 -->
<g id="node9" class="node"><title>Node9</title>
<g id="a_node9"><a xlink:href="class_hydro_couple_1_1_spatio_temporal_1_1_i_time_polyhedral_surface_exchange_item.html" target="_top" xlink:title="The ITimePolyhedralSurfaceExchangeItem class. ">
<polygon fill="white" stroke="black" points="481.996,-0.5 481.996,-77.8398 732.034,-77.8398 732.034,-0.5 481.996,-0.5"/>
<text text-anchor="start" x="489.996" y="-65.8398" font-family="Monaco" font-size="10.00">HydroCouple::SpatioTemporal</text>
<text text-anchor="middle" x="607.015" y="-52.5049" font-family="Monaco" font-size="10.00">::ITimePolyhedralSurfaceExchangeItem</text>
<polyline fill="none" stroke="black" points="481.996,-43.1699 732.034,-43.1699 "/>
<text text-anchor="middle" x="607.015" y="-31.1699" font-family="Monaco" font-size="10.00"> </text>
<polyline fill="none" stroke="black" points="481.996,-21.835 732.034,-21.835 "/>
<text text-anchor="start" x="489.996" y="-9.83496" font-family="Monaco" font-size="10.00">+ ~ITimePolyhedralSurfaceExchangeItem()</text>
</a>
</g>
</g>
<!-- Node8&#45;&gt;Node9 -->
<g id="edge8" class="edge"><title>Node8&#45;&gt;Node9</title>
<path fill="none" stroke="midnightblue" d="M607.015,-110.951C607.015,-100.045 607.015,-88.6152 607.015,-78.1991"/>
<polygon fill="none" stroke="midnightblue" points="603.515,-111.195 607.015,-121.195 610.515,-111.195 603.515,-111.195"/>
</g>
<!-- Node10&#45;&gt;Node7 -->
<g id="edge10" class="edge"><title>Node10&#45;&gt;Node7</title>
<path fill="none" stroke="midnightblue" d="M301.293,-113.971C289.1,-102.175 276.085,-89.5816 264.32,-78.1991"/>
<polygon fill="none" stroke="midnightblue" points="299.138,-116.757 308.759,-121.195 304.006,-111.727 299.138,-116.757"/>
</g>
</g>
</svg>
