<?xml version="1.0" encoding="UTF-8" standalone="no"?>
<!DOCTYPE svg PUBLIC "-//W3C//DTD SVG 1.1//EN"
 "http://www.w3.org/Graphics/SVG/1.1/DTD/svg11.dtd">
<!-- Generated by graphviz version 2.38.0 (20140413.2041)
 -->
<!-- Title: HydroCouple::IAdaptedOutput Pages: 1 -->
<svg width="169pt" height="819pt"
 viewBox="0.00 0.00 169.08 819.00" xmlns="http://www.w3.org/2000/svg" xmlns:xlink="http://www.w3.org/1999/xlink">
<g id="graph0" class="graph" transform="scale(1 1) rotate(0) translate(4 815)">
<title>HydroCouple::IAdaptedOutput</title>
<polygon fill="white" stroke="none" points="-4,4 -4,-815 165.083,-815 165.083,4 -4,4"/>
<!-- Node1 -->
<g id="node1" class="node"><title>Node1</title>
<polygon fill="#bfbfbf" stroke="black" points="5.5542,-0.5 5.5542,-114.5 155.529,-114.5 155.529,-0.5 5.5542,-0.5"/>
<text text-anchor="middle" x="80.5415" y="-102.5" font-family="Helvetica,sans-Serif" font-size="10.00">HydroCouple::IAdaptedOutput</text>
<polyline fill="none" stroke="black" points="5.5542,-96.5 155.529,-96.5 "/>
<text text-anchor="middle" x="80.5415" y="-84.5" font-family="Helvetica,sans-Serif" font-size="10.00"> </text>
<polyline fill="none" stroke="black" points="5.5542,-78.5 155.529,-78.5 "/>
<text text-anchor="start" x="13.5542" y="-66.5" font-family="Helvetica,sans-Serif" font-size="10.00">+ ~IAdaptedOutput()</text>
<text text-anchor="start" x="13.5542" y="-56.5" font-family="Helvetica,sans-Serif" font-size="10.00">+ adaptedOutputFactory()</text>
<text text-anchor="start" x="13.5542" y="-46.5" font-family="Helvetica,sans-Serif" font-size="10.00">+ arguments()</text>
<text text-anchor="start" x="13.5542" y="-36.5" font-family="Helvetica,sans-Serif" font-size="10.00">+ setArgument()</text>
<text text-anchor="start" x="13.5542" y="-26.5" font-family="Helvetica,sans-Serif" font-size="10.00">+ initialize()</text>
<text text-anchor="start" x="13.5542" y="-16.5" font-family="Helvetica,sans-Serif" font-size="10.00">+ adaptee()</text>
<text text-anchor="start" x="13.5542" y="-6.5" font-family="Helvetica,sans-Serif" font-size="10.00">+ refresh()</text>
</g>
<!-- Node2 -->
<g id="node2" class="node"><title>Node2</title>
<g id="a_node2"><a xlink:href="class_hydro_couple_1_1_i_output.html" target="_top" xlink:title="An output exchange item that can deliver values from an IModelComponent. ">
<polygon fill="white" stroke="black" points="14.5923,-151.5 14.5923,-275.5 146.491,-275.5 146.491,-151.5 14.5923,-151.5"/>
<text text-anchor="middle" x="80.5415" y="-263.5" font-family="Helvetica,sans-Serif" font-size="10.00">HydroCouple::IOutput</text>
<polyline fill="none" stroke="black" points="14.5923,-257.5 146.491,-257.5 "/>
<text text-anchor="middle" x="80.5415" y="-245.5" font-family="Helvetica,sans-Serif" font-size="10.00"> </text>
<polyline fill="none" stroke="black" points="14.5923,-239.5 146.491,-239.5 "/>
<text text-anchor="start" x="22.5923" y="-227.5" font-family="Helvetica,sans-Serif" font-size="10.00">+ ~IOutput()</text>
<text text-anchor="start" x="22.5923" y="-217.5" font-family="Helvetica,sans-Serif" font-size="10.00">+ consumers()</text>
<text text-anchor="start" x="22.5923" y="-207.5" font-family="Helvetica,sans-Serif" font-size="10.00">+ addConsumer()</text>
<text text-anchor="start" x="22.5923" y="-197.5" font-family="Helvetica,sans-Serif" font-size="10.00">+ removeConsumer()</text>
<text text-anchor="start" x="22.5923" y="-187.5" font-family="Helvetica,sans-Serif" font-size="10.00">+ adaptedOutputs()</text>
<text text-anchor="start" x="22.5923" y="-177.5" font-family="Helvetica,sans-Serif" font-size="10.00">+ addAdaptedOutput()</text>
<text text-anchor="start" x="22.5923" y="-167.5" font-family="Helvetica,sans-Serif" font-size="10.00">+ removeAdaptedOutput()</text>
<text text-anchor="start" x="22.5923" y="-157.5" font-family="Helvetica,sans-Serif" font-size="10.00">+ updateValues()</text>
</a>
</g>
</g>
<!-- Node2&#45;&gt;Node1 -->
<g id="edge1" class="edge"><title>Node2&#45;&gt;Node1</title>
<path fill="none" stroke="midnightblue" d="M80.5415,-141.19C80.5415,-132.268 80.5415,-123.245 80.5415,-114.601"/>
<polygon fill="none" stroke="midnightblue" points="77.0416,-141.193 80.5415,-151.193 84.0416,-141.193 77.0416,-141.193"/>
</g>
<!-- Node3 -->
<g id="node3" class="node"><title>Node3</title>
<g id="a_node3"><a xlink:href="class_hydro_couple_1_1_i_exchange_item.html" target="_top" xlink:title="IExchangeItem the base data item the can be exchanged between components at runtime. ">
<polygon fill="white" stroke="black" points="7.229,-312.5 7.229,-376.5 153.854,-376.5 153.854,-312.5 7.229,-312.5"/>
<text text-anchor="middle" x="80.5415" y="-364.5" font-family="Helvetica,sans-Serif" font-size="10.00">HydroCouple::IExchangeItem</text>
<polyline fill="none" stroke="black" points="7.229,-358.5 153.854,-358.5 "/>
<text text-anchor="middle" x="80.5415" y="-346.5" font-family="Helvetica,sans-Serif" font-size="10.00"> </text>
<polyline fill="none" stroke="black" points="7.229,-340.5 153.854,-340.5 "/>
<text text-anchor="start" x="15.229" y="-328.5" font-family="Helvetica,sans-Serif" font-size="10.00">+ ~IExchangeItem()</text>
<text text-anchor="start" x="15.229" y="-318.5" font-family="Helvetica,sans-Serif" font-size="10.00">+ itemChanged()</text>
</a>
</g>
</g>
<!-- Node3&#45;&gt;Node2 -->
<g id="edge2" class="edge"><title>Node3&#45;&gt;Node2</title>
<path fill="none" stroke="midnightblue" d="M80.5415,-302.022C80.5415,-293.637 80.5415,-284.654 80.5415,-275.753"/>
<polygon fill="none" stroke="midnightblue" points="77.0416,-302.273 80.5415,-312.273 84.0416,-302.273 77.0416,-302.273"/>
</g>
<!-- Node4 -->
<g id="node4" class="node"><title>Node4</title>
<g id="a_node4"><a xlink:href="class_hydro_couple_1_1_i_component_item.html" target="_top" xlink:title="IComponentItem is a fundamental unit of data for a component. ">
<polygon fill="white" stroke="black" points="3.61816,-413.5 3.61816,-487.5 157.465,-487.5 157.465,-413.5 3.61816,-413.5"/>
<text text-anchor="middle" x="80.5415" y="-475.5" font-family="Helvetica,sans-Serif" font-size="10.00">HydroCouple::IComponentItem</text>
<polyline fill="none" stroke="black" points="3.61816,-469.5 157.465,-469.5 "/>
<text text-anchor="middle" x="80.5415" y="-457.5" font-family="Helvetica,sans-Serif" font-size="10.00"> </text>
<polyline fill="none" stroke="black" points="3.61816,-451.5 157.465,-451.5 "/>
<text text-anchor="start" x="11.6182" y="-439.5" font-family="Helvetica,sans-Serif" font-size="10.00">+ ~IComponentItem()</text>
<text text-anchor="start" x="11.6182" y="-429.5" font-family="Helvetica,sans-Serif" font-size="10.00">+ modelComponent()</text>
<text text-anchor="start" x="11.6182" y="-419.5" font-family="Helvetica,sans-Serif" font-size="10.00">+ dimensions()</text>
</a>
</g>
</g>
<!-- Node4&#45;&gt;Node3 -->
<g id="edge3" class="edge"><title>Node4&#45;&gt;Node3</title>
<path fill="none" stroke="midnightblue" d="M80.5415,-403.38C80.5415,-394.347 80.5415,-385.074 80.5415,-376.67"/>
<polygon fill="none" stroke="midnightblue" points="77.0416,-403.418 80.5415,-413.418 84.0416,-403.418 77.0416,-403.418"/>
</g>
<!-- Node5 -->
<g id="node5" class="node"><title>Node5</title>
<g id="a_node5"><a xlink:href="class_hydro_couple_1_1_i_identity.html" target="_top" xlink:title="IIdentity interface class defines a method to get the Id of an HydroCouple entity. ">
<polygon fill="white" stroke="black" points="23.0713,-524.5 23.0713,-588.5 138.012,-588.5 138.012,-524.5 23.0713,-524.5"/>
<text text-anchor="middle" x="80.5415" y="-576.5" font-family="Helvetica,sans-Serif" font-size="10.00">HydroCouple::IIdentity</text>
<polyline fill="none" stroke="black" points="23.0713,-570.5 138.012,-570.5 "/>
<text text-anchor="middle" x="80.5415" y="-558.5" font-family="Helvetica,sans-Serif" font-size="10.00"> </text>
<polyline fill="none" stroke="black" points="23.0713,-552.5 138.012,-552.5 "/>
<text text-anchor="start" x="31.0713" y="-540.5" font-family="Helvetica,sans-Serif" font-size="10.00">+ ~IIdentity()</text>
<text text-anchor="start" x="31.0713" y="-530.5" font-family="Helvetica,sans-Serif" font-size="10.00">+ id()</text>
</a>
</g>
</g>
<!-- Node5&#45;&gt;Node4 -->
<g id="edge4" class="edge"><title>Node5&#45;&gt;Node4</title>
<path fill="none" stroke="midnightblue" d="M80.5415,-514.282C80.5415,-505.531 80.5415,-496.353 80.5415,-487.801"/>
<polygon fill="none" stroke="midnightblue" points="77.0416,-514.297 80.5415,-524.297 84.0416,-514.297 77.0416,-514.297"/>
</g>
<!-- Node6 -->
<g id="node6" class="node"><title>Node6</title>
<g id="a_node6"><a xlink:href="class_hydro_couple_1_1_i_description.html" target="_top" xlink:title="IDescription interface class provides descriptive information on a HydroCouple object. ">
<polygon fill="white" stroke="black" points="14.1821,-625.5 14.1821,-719.5 146.901,-719.5 146.901,-625.5 14.1821,-625.5"/>
<text text-anchor="middle" x="80.5415" y="-707.5" font-family="Helvetica,sans-Serif" font-size="10.00">HydroCouple::IDescription</text>
<polyline fill="none" stroke="black" points="14.1821,-701.5 146.901,-701.5 "/>
<text text-anchor="middle" x="80.5415" y="-689.5" font-family="Helvetica,sans-Serif" font-size="10.00"> </text>
<polyline fill="none" stroke="black" points="14.1821,-683.5 146.901,-683.5 "/>
<text text-anchor="start" x="22.1821" y="-671.5" font-family="Helvetica,sans-Serif" font-size="10.00">+ ~IDescription()</text>
<text text-anchor="start" x="22.1821" y="-661.5" font-family="Helvetica,sans-Serif" font-size="10.00">+ getCaption()</text>
<text text-anchor="start" x="22.1821" y="-651.5" font-family="Helvetica,sans-Serif" font-size="10.00">+ setCaption()</text>
<text text-anchor="start" x="22.1821" y="-641.5" font-family="Helvetica,sans-Serif" font-size="10.00">+ getDescription()</text>
<text text-anchor="start" x="22.1821" y="-631.5" font-family="Helvetica,sans-Serif" font-size="10.00">+ setDescription()</text>
</a>
</g>
</g>
<!-- Node6&#45;&gt;Node5 -->
<g id="edge5" class="edge"><title>Node6&#45;&gt;Node5</title>
<path fill="none" stroke="midnightblue" d="M80.5415,-615.212C80.5415,-606.081 80.5415,-596.926 80.5415,-588.684"/>
<polygon fill="none" stroke="midnightblue" points="77.0416,-615.46 80.5415,-625.46 84.0416,-615.46 77.0416,-615.46"/>
</g>
<!-- Node7 -->
<g id="node7" class="node"><title>Node7</title>
<g id="a_node7"><a xlink:href="class_hydro_couple_1_1_i_property_changed.html" target="_top" xlink:title="IPropertyChanged interface is used to emit signal/event when a property of an object changes...">
<polygon fill="white" stroke="black" points="0,-756.5 0,-810.5 161.083,-810.5 161.083,-756.5 0,-756.5"/>
<text text-anchor="middle" x="80.5415" y="-798.5" font-family="Helvetica,sans-Serif" font-size="10.00">HydroCouple::IPropertyChanged</text>
<polyline fill="none" stroke="black" points="0,-792.5 161.083,-792.5 "/>
<text text-anchor="middle" x="80.5415" y="-780.5" font-family="Helvetica,sans-Serif" font-size="10.00"> </text>
<polyline fill="none" stroke="black" points="0,-774.5 161.083,-774.5 "/>
<text text-anchor="start" x="8" y="-762.5" font-family="Helvetica,sans-Serif" font-size="10.00">+ ~IPropertyChanged()</text>
</a>
</g>
</g>
<!-- Node7&#45;&gt;Node6 -->
<g id="edge6" class="edge"><title>Node7&#45;&gt;Node6</title>
<path fill="none" stroke="midnightblue" d="M80.5415,-746.141C80.5415,-737.716 80.5415,-728.639 80.5415,-719.851"/>
<polygon fill="none" stroke="midnightblue" points="77.0416,-746.392 80.5415,-756.392 84.0416,-746.392 77.0416,-746.392"/>
</g>
</g>
</svg>
