<?xml version="1.0" encoding="UTF-8" standalone="no"?>
<!DOCTYPE svg PUBLIC "-//W3C//DTD SVG 1.1//EN"
 "http://www.w3.org/Graphics/SVG/1.1/DTD/svg11.dtd">
<!-- Generated by graphviz version 2.38.0 (20140413.2041)
 -->
<!-- Title: HydroCouple::Spatial::IRasterComponentDataItem Pages: 1 -->
<!--zoomable 1039 -->
<svg id="main" version="1.1" xmlns="http://www.w3.org/2000/svg" xmlns:xlink="http://www.w3.org/1999/xlink" xml:space="preserve" onload="init(evt)">
<style type="text/css"><![CDATA[
.edge:hover path { stroke: red; }
.edge:hover polygon { stroke: red; fill: red; }
]]></style>
<script type="text/javascript"><![CDATA[
var edges = document.getElementsByTagName('g');
if (edges && edges.length) {
  for (var i=0;i<edges.length;i++) {
    if (edges[i].id.substr(0,4)=='edge') {
      edges[i].setAttribute('class','edge');
    }
  }
}
]]></script>
        <defs>
                <circle id="rim" cx="0" cy="0" r="7"/>
                <circle id="rim2" cx="0" cy="0" r="3.5"/>
                <g id="zoomPlus">
                        <use xlink:href="#rim" fill="#404040">
                                <set attributeName="fill" to="#808080" begin="zoomplus.mouseover" end="zoomplus.mouseout"/>
                        </use>
                        <path d="M-4,0h8M0,-4v8" fill="none" stroke="white" stroke-width="1.5" pointer-events="none"/>
                </g>
                <g id="zoomMin">
                        <use xlink:href="#rim" fill="#404040">
                                <set attributeName="fill" to="#808080" begin="zoomminus.mouseover" end="zoomminus.mouseout"/>
                        </use>
                        <path d="M-4,0h8" fill="none" stroke="white" stroke-width="1.5" pointer-events="none"/>
                </g>
                <g id="dirArrow">
                        <path fill="none" stroke="white" stroke-width="1.5" d="M0,-3.0v7 M-2.5,-0.5L0,-3.0L2.5,-0.5"/>
                </g>
               <g id="resetDef">
                       <use xlink:href="#rim2" fill="#404040">
                               <set attributeName="fill" to="#808080" begin="reset.mouseover" end="reset.mouseout"/>
                       </use>
               </g>
        </defs>

<script type="text/javascript">
var viewWidth = 780;
var viewHeight = 1039;
var sectionId = 'dynsection-0';
</script>
<script xlink:href="svgpan.js"/>
<svg id="graph" class="graph">
<g id="viewport">
<title>HydroCouple::Spatial::IRasterComponentDataItem</title>
<!-- Node1 -->
<g id="node1" class="node"><title>Node1</title>
<polygon fill="#bfbfbf" stroke="black" points="286.002,-309.189 286.002,-439.869 476.03,-439.869 476.03,-309.189 286.002,-309.189"/>
<text text-anchor="start" x="294.002" y="-427.869" font-family="Monaco" font-size="10.00">HydroCouple::Spatial</text>
<text text-anchor="middle" x="381.016" y="-414.534" font-family="Monaco" font-size="10.00">::IRasterComponentDataItem</text>
<polyline fill="none" stroke="black" points="286.002,-405.199 476.03,-405.199 "/>
<text text-anchor="middle" x="381.016" y="-393.199" font-family="Monaco" font-size="10.00"> </text>
<polyline fill="none" stroke="black" points="286.002,-383.864 476.03,-383.864 "/>
<text text-anchor="start" x="294.002" y="-371.864" font-family="Monaco" font-size="10.00">+ ~IRasterComponentDataItem()</text>
<text text-anchor="start" x="294.002" y="-358.529" font-family="Monaco" font-size="10.00">+ xDimension()</text>
<text text-anchor="start" x="294.002" y="-345.194" font-family="Monaco" font-size="10.00">+ yDimension()</text>
<text text-anchor="start" x="294.002" y="-331.859" font-family="Monaco" font-size="10.00">+ bandDimension()</text>
<text text-anchor="start" x="294.002" y="-318.524" font-family="Monaco" font-size="10.00">+ raster()</text>
</g>
<!-- Node6 -->
<g id="node6" class="node"><title>Node6</title>
<g id="a_node6"><a xlink:href="class_hydro_couple_1_1_spatial_1_1_i_raster_argument.html" target="_top" xlink:title="An IRasterArgument is an IExchangeItem with an IRaster. ">
<polygon fill="none" stroke="black" points="232.006,-154.845 232.006,-232.185 368.026,-232.185 368.026,-154.845 232.006,-154.845"/>
<text text-anchor="start" x="240.006" y="-220.185" font-family="Monaco" font-size="10.00">HydroCouple::Spatial</text>
<text text-anchor="middle" x="300.016" y="-206.85" font-family="Monaco" font-size="10.00">::IRasterArgument</text>
<polyline fill="none" stroke="black" points="232.006,-197.515 368.026,-197.515 "/>
<text text-anchor="middle" x="300.016" y="-185.515" font-family="Monaco" font-size="10.00"> </text>
<polyline fill="none" stroke="black" points="232.006,-176.18 368.026,-176.18 "/>
<text text-anchor="start" x="240.006" y="-164.18" font-family="Monaco" font-size="10.00">+ ~IRasterArgument()</text>
</a>
</g>
</g>
<!-- Node1&#45;&gt;Node6 -->
<g id="edge5" class="edge"><title>Node1&#45;&gt;Node6</title>
<path fill="none" stroke="midnightblue" d="M347.74,-299.988C337.219,-276.736 326.026,-251.998 317.126,-232.328"/>
<polygon fill="none" stroke="midnightblue" points="344.576,-301.486 351.888,-309.154 350.954,-298.6 344.576,-301.486"/>
</g>
<!-- Node9 -->
<g id="node9" class="node"><title>Node9</title>
<g id="a_node9"><a xlink:href="class_hydro_couple_1_1_spatial_1_1_i_raster_exhange_item.html" target="_top" xlink:title="An IRasterExhangeItem is an IExchangeItem with an IRaster. ">
<polygon fill="none" stroke="black" points="386.005,-154.845 386.005,-232.185 540.027,-232.185 540.027,-154.845 386.005,-154.845"/>
<text text-anchor="start" x="394.005" y="-220.185" font-family="Monaco" font-size="10.00">HydroCouple::Spatial</text>
<text text-anchor="middle" x="463.016" y="-206.85" font-family="Monaco" font-size="10.00">::IRasterExhangeItem</text>
<polyline fill="none" stroke="black" points="386.005,-197.515 540.027,-197.515 "/>
<text text-anchor="middle" x="463.016" y="-185.515" font-family="Monaco" font-size="10.00"> </text>
<polyline fill="none" stroke="black" points="386.005,-176.18 540.027,-176.18 "/>
<text text-anchor="start" x="394.005" y="-164.18" font-family="Monaco" font-size="10.00">+ ~IRasterExhangeItem()</text>
</a>
</g>
</g>
<!-- Node1&#45;&gt;Node9 -->
<g id="edge8" class="edge"><title>Node1&#45;&gt;Node9</title>
<path fill="none" stroke="midnightblue" d="M414.703,-299.988C425.354,-276.736 436.685,-251.998 445.695,-232.328"/>
<polygon fill="none" stroke="midnightblue" points="411.487,-298.605 410.504,-309.154 417.851,-301.52 411.487,-298.605"/>
</g>
<!-- Node12 -->
<g id="node12" class="node"><title>Node12</title>
<g id="a_node12"><a xlink:href="class_hydro_couple_1_1_spatial_1_1_i_raster_only_component_data_item.html" target="_top" xlink:title="An IRasterComponentDataItem represents an IRaster IComponentItem. ">
<polygon fill="none" stroke="black" points="0,-114.84 0,-272.189 214.032,-272.189 214.032,-114.84 0,-114.84"/>
<text text-anchor="start" x="8" y="-260.189" font-family="Monaco" font-size="10.00">HydroCouple::Spatial</text>
<text text-anchor="middle" x="107.016" y="-246.854" font-family="Monaco" font-size="10.00">::IRasterOnlyComponentDataItem</text>
<polyline fill="none" stroke="black" points="0,-237.52 214.032,-237.52 "/>
<text text-anchor="middle" x="107.016" y="-225.52" font-family="Monaco" font-size="10.00"> </text>
<polyline fill="none" stroke="black" points="0,-216.185 214.032,-216.185 "/>
<text text-anchor="start" x="8" y="-204.185" font-family="Monaco" font-size="10.00">+ ~IRasterOnlyComponentDataItem()</text>
<text text-anchor="start" x="8" y="-190.85" font-family="Monaco" font-size="10.00">+ getValue()</text>
<text text-anchor="start" x="8" y="-177.515" font-family="Monaco" font-size="10.00">+ getValues()</text>
<text text-anchor="start" x="8" y="-164.18" font-family="Monaco" font-size="10.00">+ getValues()</text>
<text text-anchor="start" x="8" y="-150.845" font-family="Monaco" font-size="10.00">+ setValue()</text>
<text text-anchor="start" x="8" y="-137.51" font-family="Monaco" font-size="10.00">+ setValues()</text>
<text text-anchor="start" x="8" y="-124.175" font-family="Monaco" font-size="10.00">+ setValues()</text>
</a>
</g>
</g>
<!-- Node1&#45;&gt;Node12 -->
<g id="edge11" class="edge"><title>Node1&#45;&gt;Node12</title>
<path fill="none" stroke="midnightblue" d="M277.11,-307.734C259.026,-296.135 240.437,-284.116 223.016,-272.689 220.072,-270.758 217.089,-268.795 214.081,-266.809"/>
<polygon fill="none" stroke="midnightblue" points="275.631,-310.943 285.94,-313.39 279.407,-305.049 275.631,-310.943"/>
</g>
<!-- Node13 -->
<g id="node13" class="node"><title>Node13</title>
<g id="a_node13"><a xlink:href="class_hydro_couple_1_1_spatio_temporal_1_1_i_time_raster_component_data_item.html" target="_top" xlink:title="The ITimeRasterComponentDataItem class. ">
<polygon fill="none" stroke="black" points="558,-114.84 558,-272.189 772.032,-272.189 772.032,-114.84 558,-114.84"/>
<text text-anchor="start" x="566" y="-260.189" font-family="Monaco" font-size="10.00">HydroCouple::SpatioTemporal</text>
<text text-anchor="middle" x="665.016" y="-246.854" font-family="Monaco" font-size="10.00">::ITimeRasterComponentDataItem</text>
<polyline fill="none" stroke="black" points="558,-237.52 772.032,-237.52 "/>
<text text-anchor="middle" x="665.016" y="-225.52" font-family="Monaco" font-size="10.00"> </text>
<polyline fill="none" stroke="black" points="558,-216.185 772.032,-216.185 "/>
<text text-anchor="start" x="566" y="-204.185" font-family="Monaco" font-size="10.00">+ ~ITimeRasterComponentDataItem()</text>
<text text-anchor="start" x="566" y="-190.85" font-family="Monaco" font-size="10.00">+ getValue()</text>
<text text-anchor="start" x="566" y="-177.515" font-family="Monaco" font-size="10.00">+ getValues()</text>
<text text-anchor="start" x="566" y="-164.18" font-family="Monaco" font-size="10.00">+ getValues()</text>
<text text-anchor="start" x="566" y="-150.845" font-family="Monaco" font-size="10.00">+ setValue()</text>
<text text-anchor="start" x="566" y="-137.51" font-family="Monaco" font-size="10.00">+ setValues()</text>
<text text-anchor="start" x="566" y="-124.175" font-family="Monaco" font-size="10.00">+ setValues()</text>
</a>
</g>
</g>
<!-- Node1&#45;&gt;Node13 -->
<g id="edge14" class="edge"><title>Node1&#45;&gt;Node13</title>
<path fill="none" stroke="midnightblue" d="M484.931,-312.315C506.254,-299.43 528.46,-285.773 549.016,-272.689 551.884,-270.864 554.786,-269.004 557.708,-267.12"/>
<polygon fill="none" stroke="midnightblue" points="482.932,-309.433 476.174,-317.593 486.546,-315.428 482.932,-309.433"/>
</g>
<!-- Node2 -->
<g id="node2" class="node"><title>Node2</title>
<g id="a_node2"><a xlink:href="class_hydro_couple_1_1_i_component_data_item.html" target="_top" xlink:title="IComponentItem is a fundamental unit of data for a component. ">
<polygon fill="none" stroke="black" points="280.001,-476.869 280.001,-660.889 482.031,-660.889 482.031,-476.869 280.001,-476.869"/>
<text text-anchor="middle" x="381.016" y="-648.889" font-family="Monaco" font-size="10.00">HydroCouple::IComponentDataItem</text>
<polyline fill="none" stroke="black" points="280.001,-639.554 482.031,-639.554 "/>
<text text-anchor="middle" x="381.016" y="-627.554" font-family="Monaco" font-size="10.00"> </text>
<polyline fill="none" stroke="black" points="280.001,-618.219 482.031,-618.219 "/>
<text text-anchor="start" x="288.001" y="-606.219" font-family="Monaco" font-size="10.00">+ ~IComponentDataItem()</text>
<text text-anchor="start" x="288.001" y="-592.884" font-family="Monaco" font-size="10.00">+ modelComponent()</text>
<text text-anchor="start" x="288.001" y="-579.549" font-family="Monaco" font-size="10.00">+ dimensions()</text>
<text text-anchor="start" x="288.001" y="-566.214" font-family="Monaco" font-size="10.00">+ valueDefinition()</text>
<text text-anchor="start" x="288.001" y="-552.879" font-family="Monaco" font-size="10.00">+ getValue()</text>
<text text-anchor="start" x="288.001" y="-539.544" font-family="Monaco" font-size="10.00">+ getValues()</text>
<text text-anchor="start" x="288.001" y="-526.209" font-family="Monaco" font-size="10.00">+ getValues()</text>
<text text-anchor="start" x="288.001" y="-512.874" font-family="Monaco" font-size="10.00">+ setValue()</text>
<text text-anchor="start" x="288.001" y="-499.539" font-family="Monaco" font-size="10.00">+ setValues()</text>
<text text-anchor="start" x="288.001" y="-486.204" font-family="Monaco" font-size="10.00">+ setValues()</text>
</a>
</g>
</g>
<!-- Node2&#45;&gt;Node1 -->
<g id="edge1" class="edge"><title>Node2&#45;&gt;Node1</title>
<path fill="none" stroke="midnightblue" d="M381.016,-466.57C381.016,-457.539 381.016,-448.57 381.016,-439.98"/>
<polygon fill="none" stroke="midnightblue" points="377.516,-466.774 381.016,-476.774 384.516,-466.774 377.516,-466.774"/>
</g>
<!-- Node3 -->
<g id="node3" class="node"><title>Node3</title>
<g id="a_node3"><a xlink:href="class_hydro_couple_1_1_i_identity.html" target="_top" xlink:title="IIdentity interface class defines a method to get the Id of an HydroCouple entity. ">
<polygon fill="none" stroke="black" points="307.005,-697.889 307.005,-775.229 455.027,-775.229 455.027,-697.889 307.005,-697.889"/>
<text text-anchor="middle" x="381.016" y="-763.229" font-family="Monaco" font-size="10.00">HydroCouple::IIdentity</text>
<polyline fill="none" stroke="black" points="307.005,-753.894 455.027,-753.894 "/>
<text text-anchor="middle" x="381.016" y="-741.894" font-family="Monaco" font-size="10.00"> </text>
<polyline fill="none" stroke="black" points="307.005,-732.559 455.027,-732.559 "/>
<text text-anchor="start" x="315.005" y="-720.559" font-family="Monaco" font-size="10.00">+ ~IIdentity()</text>
<text text-anchor="start" x="315.005" y="-707.224" font-family="Monaco" font-size="10.00">+ id()</text>
</a>
</g>
</g>
<!-- Node3&#45;&gt;Node2 -->
<g id="edge2" class="edge"><title>Node3&#45;&gt;Node2</title>
<path fill="none" stroke="midnightblue" d="M381.016,-687.306C381.016,-678.953 381.016,-670.028 381.016,-660.97"/>
<polygon fill="none" stroke="midnightblue" points="377.516,-687.548 381.016,-697.548 384.516,-687.548 377.516,-687.548"/>
</g>
<!-- Node4 -->
<g id="node4" class="node"><title>Node4</title>
<g id="a_node4"><a xlink:href="class_hydro_couple_1_1_i_description.html" target="_top" xlink:title="IDescription interface class provides descriptive information on a HydroCouple object. ">
<polygon fill="none" stroke="black" points="298.004,-812.229 298.004,-929.573 464.028,-929.573 464.028,-812.229 298.004,-812.229"/>
<text text-anchor="middle" x="381.016" y="-917.573" font-family="Monaco" font-size="10.00">HydroCouple::IDescription</text>
<polyline fill="none" stroke="black" points="298.004,-908.238 464.028,-908.238 "/>
<text text-anchor="middle" x="381.016" y="-896.238" font-family="Monaco" font-size="10.00"> </text>
<polyline fill="none" stroke="black" points="298.004,-886.903 464.028,-886.903 "/>
<text text-anchor="start" x="306.004" y="-874.903" font-family="Monaco" font-size="10.00">+ ~IDescription()</text>
<text text-anchor="start" x="306.004" y="-861.568" font-family="Monaco" font-size="10.00">+ caption()</text>
<text text-anchor="start" x="306.004" y="-848.233" font-family="Monaco" font-size="10.00">+ setCaption()</text>
<text text-anchor="start" x="306.004" y="-834.898" font-family="Monaco" font-size="10.00">+ description()</text>
<text text-anchor="start" x="306.004" y="-821.563" font-family="Monaco" font-size="10.00">+ setDescription()</text>
</a>
</g>
</g>
<!-- Node4&#45;&gt;Node3 -->
<g id="edge3" class="edge"><title>Node4&#45;&gt;Node3</title>
<path fill="none" stroke="midnightblue" d="M381.016,-801.663C381.016,-792.624 381.016,-783.636 381.016,-775.376"/>
<polygon fill="none" stroke="midnightblue" points="377.516,-801.854 381.016,-811.854 384.516,-801.854 377.516,-801.854"/>
</g>
<!-- Node5 -->
<g id="node5" class="node"><title>Node5</title>
<g id="a_node5"><a xlink:href="class_hydro_couple_1_1_i_property_changed.html" target="_top" xlink:title="IPropertyChanged interface is used to emit signal/event when a property of an object changes...">
<polygon fill="none" stroke="black" points="286.002,-966.573 286.002,-1030.58 476.03,-1030.58 476.03,-966.573 286.002,-966.573"/>
<text text-anchor="middle" x="381.016" y="-1018.58" font-family="Monaco" font-size="10.00">HydroCouple::IPropertyChanged</text>
<polyline fill="none" stroke="black" points="286.002,-1009.24 476.03,-1009.24 "/>
<text text-anchor="middle" x="381.016" y="-997.243" font-family="Monaco" font-size="10.00"> </text>
<polyline fill="none" stroke="black" points="286.002,-987.908 476.03,-987.908 "/>
<text text-anchor="start" x="294.002" y="-975.908" font-family="Monaco" font-size="10.00">+ ~IPropertyChanged()</text>
</a>
</g>
</g>
<!-- Node5&#45;&gt;Node4 -->
<g id="edge4" class="edge"><title>Node5&#45;&gt;Node4</title>
<path fill="none" stroke="midnightblue" d="M381.016,-956.253C381.016,-947.868 381.016,-938.901 381.016,-930.059"/>
<polygon fill="none" stroke="midnightblue" points="377.516,-956.51 381.016,-966.51 384.516,-956.51 377.516,-956.51"/>
</g>
<!-- Node7 -->
<g id="node7" class="node"><title>Node7</title>
<g id="a_node7"><a xlink:href="class_hydro_couple_1_1_spatial_1_1_i_raster_only_argument.html" target="_top" xlink:title="An IRasterOnlyArgument is an IExchangeItem with an IRaster. ">
<polygon fill="none" stroke="black" points="15.0044,-0.5 15.0044,-77.8398 175.028,-77.8398 175.028,-0.5 15.0044,-0.5"/>
<text text-anchor="start" x="23.0044" y="-65.8398" font-family="Monaco" font-size="10.00">HydroCouple::Spatial</text>
<text text-anchor="middle" x="95.0161" y="-52.5049" font-family="Monaco" font-size="10.00">::IRasterOnlyArgument</text>
<polyline fill="none" stroke="black" points="15.0044,-43.1699 175.028,-43.1699 "/>
<text text-anchor="middle" x="95.0161" y="-31.1699" font-family="Monaco" font-size="10.00"> </text>
<polyline fill="none" stroke="black" points="15.0044,-21.835 175.028,-21.835 "/>
<text text-anchor="start" x="23.0044" y="-9.83496" font-family="Monaco" font-size="10.00">+ ~IRasterOnlyArgument()</text>
</a>
</g>
</g>
<!-- Node6&#45;&gt;Node7 -->
<g id="edge6" class="edge"><title>Node6&#45;&gt;Node7</title>
<path fill="none" stroke="midnightblue" d="M259.446,-147.204C248.207,-135.832 235.617,-124.101 223.016,-114.34 206.062,-101.207 186.55,-88.7503 167.953,-77.9261"/>
<polygon fill="none" stroke="midnightblue" points="257.148,-149.861 266.624,-154.6 262.171,-144.986 257.148,-149.861"/>
</g>
<!-- Node8 -->
<g id="node8" class="node"><title>Node8</title>
<g id="a_node8"><a xlink:href="class_hydro_couple_1_1_spatio_temporal_1_1_i_time_raster_argument.html" target="_top" xlink:title="The ITimeRasterArgument class. ">
<polygon fill="none" stroke="black" points="389.003,-0.5 389.003,-77.8398 567.029,-77.8398 567.029,-0.5 389.003,-0.5"/>
<text text-anchor="start" x="397.003" y="-65.8398" font-family="Monaco" font-size="10.00">HydroCouple::SpatioTemporal</text>
<text text-anchor="middle" x="478.016" y="-52.5049" font-family="Monaco" font-size="10.00">::ITimeRasterArgument</text>
<polyline fill="none" stroke="black" points="389.003,-43.1699 567.029,-43.1699 "/>
<text text-anchor="middle" x="478.016" y="-31.1699" font-family="Monaco" font-size="10.00"> </text>
<polyline fill="none" stroke="black" points="389.003,-21.835 567.029,-21.835 "/>
<text text-anchor="start" x="397.003" y="-9.83496" font-family="Monaco" font-size="10.00">+ ~ITimeRasterArgument()</text>
</a>
</g>
</g>
<!-- Node6&#45;&gt;Node8 -->
<g id="edge7" class="edge"><title>Node6&#45;&gt;Node8</title>
<path fill="none" stroke="midnightblue" d="M341.991,-147.441C353.047,-136.262 365.198,-124.564 377.016,-114.34 391.495,-101.815 407.954,-89.1363 423.321,-77.8901"/>
<polygon fill="none" stroke="midnightblue" points="339.389,-145.095 334.898,-154.691 344.393,-149.99 339.389,-145.095"/>
</g>
<!-- Node10 -->
<g id="node10" class="node"><title>Node10</title>
<g id="a_node10"><a xlink:href="class_hydro_couple_1_1_spatial_1_1_i_raster_only_exhange_item.html" target="_top" xlink:title="An IRasterOnlyExhangeItem is an IExchangeItem with an IRaster. ">
<polygon fill="none" stroke="black" points="193.003,-0.5 193.003,-77.8398 371.029,-77.8398 371.029,-0.5 193.003,-0.5"/>
<text text-anchor="start" x="201.003" y="-65.8398" font-family="Monaco" font-size="10.00">HydroCouple::Spatial</text>
<text text-anchor="middle" x="282.016" y="-52.5049" font-family="Monaco" font-size="10.00">::IRasterOnlyExhangeItem</text>
<polyline fill="none" stroke="black" points="193.003,-43.1699 371.029,-43.1699 "/>
<text text-anchor="middle" x="282.016" y="-31.1699" font-family="Monaco" font-size="10.00"> </text>
<polyline fill="none" stroke="black" points="193.003,-21.835 371.029,-21.835 "/>
<text text-anchor="start" x="201.003" y="-9.83496" font-family="Monaco" font-size="10.00">+ ~IRasterOnlyExhangeItem()</text>
</a>
</g>
</g>
<!-- Node9&#45;&gt;Node10 -->
<g id="edge9" class="edge"><title>Node9&#45;&gt;Node10</title>
<path fill="none" stroke="midnightblue" d="M414.987,-147.696C402.762,-136.612 389.537,-124.893 377.016,-114.34 362.617,-102.203 346.6,-89.4331 331.883,-77.9748"/>
<polygon fill="none" stroke="midnightblue" points="412.705,-150.352 422.454,-154.5 417.419,-145.178 412.705,-150.352"/>
</g>
<!-- Node11 -->
<g id="node11" class="node"><title>Node11</title>
<g id="a_node11"><a xlink:href="class_hydro_couple_1_1_spatio_temporal_1_1_i_time_raster_exchange_item.html" target="_top" xlink:title="The ITimeRasterExchangeItem class. ">
<polygon fill="none" stroke="black" points="585.002,-0.5 585.002,-77.8398 769.03,-77.8398 769.03,-0.5 585.002,-0.5"/>
<text text-anchor="start" x="593.002" y="-65.8398" font-family="Monaco" font-size="10.00">HydroCouple::SpatioTemporal</text>
<text text-anchor="middle" x="677.016" y="-52.5049" font-family="Monaco" font-size="10.00">::ITimeRasterExchangeItem</text>
<polyline fill="none" stroke="black" points="585.002,-43.1699 769.03,-43.1699 "/>
<text text-anchor="middle" x="677.016" y="-31.1699" font-family="Monaco" font-size="10.00"> </text>
<polyline fill="none" stroke="black" points="585.002,-21.835 769.03,-21.835 "/>
<text text-anchor="start" x="593.002" y="-9.83496" font-family="Monaco" font-size="10.00">+ ~ITimeRasterExchangeItem()</text>
</a>
</g>
</g>
<!-- Node9&#45;&gt;Node11 -->
<g id="edge10" class="edge"><title>Node9&#45;&gt;Node11</title>
<path fill="none" stroke="midnightblue" d="M508.95,-147.47C521.493,-136.1 535.394,-124.303 549.016,-114.34 566.637,-101.452 586.668,-88.9461 605.566,-77.9887"/>
<polygon fill="none" stroke="midnightblue" points="506.323,-145.13 501.329,-154.474 511.06,-150.284 506.323,-145.13"/>
</g>
<!-- Node12&#45;&gt;Node7 -->
<g id="edge12" class="edge"><title>Node12&#45;&gt;Node7</title>
<path fill="none" stroke="midnightblue" d="M100.079,-104.447C99.3502,-95.1928 98.6401,-86.1783 97.9935,-77.9688"/>
<polygon fill="none" stroke="midnightblue" points="96.601,-104.863 100.875,-114.557 103.579,-104.313 96.601,-104.863"/>
</g>
<!-- Node12&#45;&gt;Node10 -->
<g id="edge13" class="edge"><title>Node12&#45;&gt;Node10</title>
<path fill="none" stroke="midnightblue" d="M203.856,-108.211C215.939,-97.6928 227.781,-87.3836 238.448,-78.0982"/>
<polygon fill="none" stroke="midnightblue" points="201.555,-105.574 196.31,-114.78 206.151,-110.854 201.555,-105.574"/>
</g>
<!-- Node13&#45;&gt;Node8 -->
<g id="edge15" class="edge"><title>Node13&#45;&gt;Node8</title>
<path fill="none" stroke="midnightblue" d="M561.535,-108.211C548.624,-97.6928 535.97,-87.3836 524.572,-78.0982"/>
<polygon fill="none" stroke="midnightblue" points="559.635,-111.178 569.599,-114.78 564.057,-105.751 559.635,-111.178"/>
</g>
<!-- Node13&#45;&gt;Node11 -->
<g id="edge16" class="edge"><title>Node13&#45;&gt;Node11</title>
<path fill="none" stroke="midnightblue" d="M671.953,-104.447C672.682,-95.1928 673.392,-86.1783 674.039,-77.9688"/>
<polygon fill="none" stroke="midnightblue" points="668.453,-104.313 671.157,-114.557 675.431,-104.863 668.453,-104.313"/>
</g>
</g>
</svg>
        <g id="navigator" transform="translate(0 0)" fill="#404254">
                <rect fill="#f2f5e9" fill-opacity="0.5" stroke="#606060" stroke-width=".5" x="0" y="0" width="60" height="60"/>
                <use id="zoomplus" xlink:href="#zoomPlus" x="17" y="9" onmousedown="handleZoom(evt,'in')"/>
                <use id="zoomminus" xlink:href="#zoomMin" x="42" y="9" onmousedown="handleZoom(evt,'out')"/>
                <use id="reset" xlink:href="#resetDef" x="30" y="36" onmousedown="handleReset()"/>
                <g id="arrowUp" xlink:href="#dirArrow" transform="translate(30 24)" onmousedown="handlePan(0,-1)">
                  <use xlink:href="#rim" fill="#404040">
                        <set attributeName="fill" to="#808080" begin="arrowUp.mouseover" end="arrowUp.mouseout"/>
                  </use>
                  <path fill="none" stroke="white" stroke-width="1.5" d="M0,-3.0v7 M-2.5,-0.5L0,-3.0L2.5,-0.5"/>
                </g>
                <g id="arrowRight" xlink:href="#dirArrow" transform="rotate(90) translate(36 -43)" onmousedown="handlePan(1,0)">
                  <use xlink:href="#rim" fill="#404040">
                        <set attributeName="fill" to="#808080" begin="arrowRight.mouseover" end="arrowRight.mouseout"/>
                  </use>
                  <path fill="none" stroke="white" stroke-width="1.5" d="M0,-3.0v7 M-2.5,-0.5L0,-3.0L2.5,-0.5"/>
                </g>
                <g id="arrowDown" xlink:href="#dirArrow" transform="rotate(180) translate(-30 -48)" onmousedown="handlePan(0,1)">
                  <use xlink:href="#rim" fill="#404040">
                        <set attributeName="fill" to="#808080" begin="arrowDown.mouseover" end="arrowDown.mouseout"/>
                  </use>
                  <path fill="none" stroke="white" stroke-width="1.5" d="M0,-3.0v7 M-2.5,-0.5L0,-3.0L2.5,-0.5"/>
                </g>
                <g id="arrowLeft" xlink:href="#dirArrow" transform="rotate(270) translate(-36 17)" onmousedown="handlePan(-1,0)">
                  <use xlink:href="#rim" fill="#404040">
                        <set attributeName="fill" to="#808080" begin="arrowLeft.mouseover" end="arrowLeft.mouseout"/>
                  </use>
                  <path fill="none" stroke="white" stroke-width="1.5" d="M0,-3.0v7 M-2.5,-0.5L0,-3.0L2.5,-0.5"/>
                </g>
        </g>
        <svg viewBox="0 0 15 15" width="100%" height="30px" preserveAspectRatio="xMaxYMin meet">
         <g id="arrow_out" transform="scale(0.3 0.3)">
          <a xlink:href="class_hydro_couple_1_1_spatial_1_1_i_raster_component_data_item__inherit__graph_org.svg" target="_base">
           <rect id="button" ry="5" rx="5" y="6" x="6" height="38" width="38"
                fill="#f2f5e9" fill-opacity="0.5" stroke="#606060" stroke-width="1.0"/>
           <path id="arrow"
             d="M 11.500037,31.436501 C 11.940474,20.09759 22.043105,11.32322 32.158766,21.979434 L 37.068811,17.246167 C 37.068811,17.246167 37.088388,32 37.088388,32 L 22.160133,31.978069 C 22.160133,31.978069 26.997745,27.140456 26.997745,27.140456 C 18.528582,18.264221 13.291696,25.230495 11.500037,31.436501 z"
             style="fill:#404040;"/>
          </a>
         </g>
        </svg>
</svg>
