<?xml version="1.0" encoding="UTF-8" standalone="no"?>
<!DOCTYPE svg PUBLIC "-//W3C//DTD SVG 1.1//EN"
 "http://www.w3.org/Graphics/SVG/1.1/DTD/svg11.dtd">
<!-- Generated by graphviz version 2.38.0 (20140413.2041)
 -->
<!-- Title: HydroCouple::SpatioTemporal::ITimeTINComponentDataItem Pages: 1 -->
<svg width="210pt" height="951pt"
 viewBox="0.00 0.00 210.03 951.41" xmlns="http://www.w3.org/2000/svg" xmlns:xlink="http://www.w3.org/1999/xlink">
<g id="graph0" class="graph" transform="scale(1 1) rotate(0) translate(4 947.408)">
<title>HydroCouple::SpatioTemporal::ITimeTINComponentDataItem</title>
<!-- Node1 -->
<g id="node1" class="node"><title>Node1</title>
<polygon fill="#bfbfbf" stroke="black" points="3.00049,-0.5 3.00049,-197.854 199.03,-197.854 199.03,-0.5 3.00049,-0.5"/>
<text text-anchor="start" x="11.0005" y="-185.854" font-family="Monaco" font-size="10.00">HydroCouple::SpatioTemporal</text>
<text text-anchor="middle" x="101.015" y="-172.52" font-family="Monaco" font-size="10.00">::ITimeTINComponentDataItem</text>
<polyline fill="none" stroke="black" points="3.00049,-163.185 199.03,-163.185 "/>
<text text-anchor="middle" x="101.015" y="-151.185" font-family="Monaco" font-size="10.00"> </text>
<polyline fill="none" stroke="black" points="3.00049,-141.85 199.03,-141.85 "/>
<text text-anchor="start" x="11.0005" y="-129.85" font-family="Monaco" font-size="10.00">+ ~ITimeTINComponentDataItem()</text>
<text text-anchor="start" x="11.0005" y="-116.515" font-family="Monaco" font-size="10.00">+ TIN()</text>
<text text-anchor="start" x="11.0005" y="-103.18" font-family="Monaco" font-size="10.00">+ triangle()</text>
<text text-anchor="start" x="11.0005" y="-89.8447" font-family="Monaco" font-size="10.00">+ TINPatchDimension()</text>
<text text-anchor="start" x="11.0005" y="-76.5098" font-family="Monaco" font-size="10.00">+ getValue()</text>
<text text-anchor="start" x="11.0005" y="-63.1748" font-family="Monaco" font-size="10.00">+ getValues()</text>
<text text-anchor="start" x="11.0005" y="-49.8398" font-family="Monaco" font-size="10.00">+ getValues()</text>
<text text-anchor="start" x="11.0005" y="-36.5049" font-family="Monaco" font-size="10.00">+ setValue()</text>
<text text-anchor="start" x="11.0005" y="-23.1699" font-family="Monaco" font-size="10.00">+ setValues()</text>
<text text-anchor="start" x="11.0005" y="-9.83496" font-family="Monaco" font-size="10.00">+ setValues()</text>
</g>
<!-- Node2 -->
<g id="node2" class="node"><title>Node2</title>
<g id="a_node2"><a xlink:href="class_hydro_couple_1_1_temporal_1_1_i_time_component_data_item.html" target="_top" xlink:title="ITimeComponentItem is an IComponentItem with a temporal attribute. ">
<polygon fill="none" stroke="black" points="12.002,-234.854 12.002,-352.199 190.028,-352.199 190.028,-234.854 12.002,-234.854"/>
<text text-anchor="start" x="20.002" y="-340.199" font-family="Monaco" font-size="10.00">HydroCouple::Temporal</text>
<text text-anchor="middle" x="101.015" y="-326.864" font-family="Monaco" font-size="10.00">::ITimeComponentDataItem</text>
<polyline fill="none" stroke="black" points="12.002,-317.529 190.028,-317.529 "/>
<text text-anchor="middle" x="101.015" y="-305.529" font-family="Monaco" font-size="10.00"> </text>
<polyline fill="none" stroke="black" points="12.002,-296.194 190.028,-296.194 "/>
<text text-anchor="start" x="20.002" y="-284.194" font-family="Monaco" font-size="10.00">+ ~ITimeComponentDataItem()</text>
<text text-anchor="start" x="20.002" y="-270.859" font-family="Monaco" font-size="10.00">+ times()</text>
<text text-anchor="start" x="20.002" y="-257.524" font-family="Monaco" font-size="10.00">+ timeSpan()</text>
<text text-anchor="start" x="20.002" y="-244.189" font-family="Monaco" font-size="10.00">+ timeDimension()</text>
</a>
</g>
</g>
<!-- Node2&#45;&gt;Node1 -->
<g id="edge1" class="edge"><title>Node2&#45;&gt;Node1</title>
<path fill="none" stroke="midnightblue" d="M101.015,-224.535C101.015,-215.957 101.015,-207.051 101.015,-198.124"/>
<polygon fill="none" stroke="midnightblue" points="97.5152,-224.816 101.015,-234.816 104.515,-224.816 97.5152,-224.816"/>
</g>
<!-- Node3 -->
<g id="node3" class="node"><title>Node3</title>
<g id="a_node3"><a xlink:href="class_hydro_couple_1_1_i_component_data_item.html" target="_top" xlink:title="IComponentItem is a fundamental unit of data for a component. ">
<polygon fill="none" stroke="black" points="0,-389.199 0,-573.219 202.03,-573.219 202.03,-389.199 0,-389.199"/>
<text text-anchor="middle" x="101.015" y="-561.219" font-family="Monaco" font-size="10.00">HydroCouple::IComponentDataItem</text>
<polyline fill="none" stroke="black" points="0,-551.884 202.03,-551.884 "/>
<text text-anchor="middle" x="101.015" y="-539.884" font-family="Monaco" font-size="10.00"> </text>
<polyline fill="none" stroke="black" points="0,-530.549 202.03,-530.549 "/>
<text text-anchor="start" x="8" y="-518.549" font-family="Monaco" font-size="10.00">+ ~IComponentDataItem()</text>
<text text-anchor="start" x="8" y="-505.214" font-family="Monaco" font-size="10.00">+ modelComponent()</text>
<text text-anchor="start" x="8" y="-491.879" font-family="Monaco" font-size="10.00">+ dimensions()</text>
<text text-anchor="start" x="8" y="-478.544" font-family="Monaco" font-size="10.00">+ valueDefinition()</text>
<text text-anchor="start" x="8" y="-465.209" font-family="Monaco" font-size="10.00">+ getValue()</text>
<text text-anchor="start" x="8" y="-451.874" font-family="Monaco" font-size="10.00">+ getValues()</text>
<text text-anchor="start" x="8" y="-438.539" font-family="Monaco" font-size="10.00">+ getValues()</text>
<text text-anchor="start" x="8" y="-425.204" font-family="Monaco" font-size="10.00">+ setValue()</text>
<text text-anchor="start" x="8" y="-411.869" font-family="Monaco" font-size="10.00">+ setValues()</text>
<text text-anchor="start" x="8" y="-398.534" font-family="Monaco" font-size="10.00">+ setValues()</text>
</a>
</g>
</g>
<!-- Node3&#45;&gt;Node2 -->
<g id="edge2" class="edge"><title>Node3&#45;&gt;Node2</title>
<path fill="none" stroke="midnightblue" d="M101.015,-378.777C101.015,-369.748 101.015,-360.828 101.015,-352.363"/>
<polygon fill="none" stroke="midnightblue" points="97.5152,-379 101.015,-389 104.515,-379 97.5152,-379"/>
</g>
<!-- Node4 -->
<g id="node4" class="node"><title>Node4</title>
<g id="a_node4"><a xlink:href="class_hydro_couple_1_1_i_identity.html" target="_top" xlink:title="IIdentity interface class defines a method to get the Id of an HydroCouple entity. ">
<polygon fill="none" stroke="black" points="27.0044,-610.219 27.0044,-687.559 175.026,-687.559 175.026,-610.219 27.0044,-610.219"/>
<text text-anchor="middle" x="101.015" y="-675.559" font-family="Monaco" font-size="10.00">HydroCouple::IIdentity</text>
<polyline fill="none" stroke="black" points="27.0044,-666.224 175.026,-666.224 "/>
<text text-anchor="middle" x="101.015" y="-654.224" font-family="Monaco" font-size="10.00"> </text>
<polyline fill="none" stroke="black" points="27.0044,-644.889 175.026,-644.889 "/>
<text text-anchor="start" x="35.0044" y="-632.889" font-family="Monaco" font-size="10.00">+ ~IIdentity()</text>
<text text-anchor="start" x="35.0044" y="-619.554" font-family="Monaco" font-size="10.00">+ id()</text>
</a>
</g>
</g>
<!-- Node4&#45;&gt;Node3 -->
<g id="edge3" class="edge"><title>Node4&#45;&gt;Node3</title>
<path fill="none" stroke="midnightblue" d="M101.015,-599.636C101.015,-591.283 101.015,-582.358 101.015,-573.3"/>
<polygon fill="none" stroke="midnightblue" points="97.5152,-599.878 101.015,-609.878 104.515,-599.878 97.5152,-599.878"/>
</g>
<!-- Node5 -->
<g id="node5" class="node"><title>Node5</title>
<g id="a_node5"><a xlink:href="class_hydro_couple_1_1_i_description.html" target="_top" xlink:title="IDescription interface class provides descriptive information on a HydroCouple object. ">
<polygon fill="none" stroke="black" points="18.0029,-724.559 18.0029,-841.903 184.027,-841.903 184.027,-724.559 18.0029,-724.559"/>
<text text-anchor="middle" x="101.015" y="-829.903" font-family="Monaco" font-size="10.00">HydroCouple::IDescription</text>
<polyline fill="none" stroke="black" points="18.0029,-820.568 184.027,-820.568 "/>
<text text-anchor="middle" x="101.015" y="-808.568" font-family="Monaco" font-size="10.00"> </text>
<polyline fill="none" stroke="black" points="18.0029,-799.233 184.027,-799.233 "/>
<text text-anchor="start" x="26.0029" y="-787.233" font-family="Monaco" font-size="10.00">+ ~IDescription()</text>
<text text-anchor="start" x="26.0029" y="-773.898" font-family="Monaco" font-size="10.00">+ caption()</text>
<text text-anchor="start" x="26.0029" y="-760.563" font-family="Monaco" font-size="10.00">+ setCaption()</text>
<text text-anchor="start" x="26.0029" y="-747.229" font-family="Monaco" font-size="10.00">+ description()</text>
<text text-anchor="start" x="26.0029" y="-733.894" font-family="Monaco" font-size="10.00">+ setDescription()</text>
</a>
</g>
</g>
<!-- Node5&#45;&gt;Node4 -->
<g id="edge4" class="edge"><title>Node5&#45;&gt;Node4</title>
<path fill="none" stroke="midnightblue" d="M101.015,-713.993C101.015,-704.954 101.015,-695.966 101.015,-687.706"/>
<polygon fill="none" stroke="midnightblue" points="97.5152,-714.184 101.015,-724.184 104.515,-714.184 97.5152,-714.184"/>
</g>
<!-- Node6 -->
<g id="node6" class="node"><title>Node6</title>
<g id="a_node6"><a xlink:href="class_hydro_couple_1_1_i_property_changed.html" target="_top" xlink:title="IPropertyChanged interface is used to emit signal/event when a property of an object changes...">
<polygon fill="none" stroke="black" points="6.00098,-878.903 6.00098,-942.908 196.029,-942.908 196.029,-878.903 6.00098,-878.903"/>
<text text-anchor="middle" x="101.015" y="-930.908" font-family="Monaco" font-size="10.00">HydroCouple::IPropertyChanged</text>
<polyline fill="none" stroke="black" points="6.00098,-921.573 196.029,-921.573 "/>
<text text-anchor="middle" x="101.015" y="-909.573" font-family="Monaco" font-size="10.00"> </text>
<polyline fill="none" stroke="black" points="6.00098,-900.238 196.029,-900.238 "/>
<text text-anchor="start" x="14.001" y="-888.238" font-family="Monaco" font-size="10.00">+ ~IPropertyChanged()</text>
</a>
</g>
</g>
<!-- Node6&#45;&gt;Node5 -->
<g id="edge5" class="edge"><title>Node6&#45;&gt;Node5</title>
<path fill="none" stroke="midnightblue" d="M101.015,-868.583C101.015,-860.198 101.015,-851.231 101.015,-842.389"/>
<polygon fill="none" stroke="midnightblue" points="97.5152,-868.84 101.015,-878.84 104.515,-868.84 97.5152,-868.84"/>
</g>
</g>
</svg>
