<?xml version="1.0" encoding="UTF-8" standalone="no"?>
<!DOCTYPE svg PUBLIC "-//W3C//DTD SVG 1.1//EN"
 "http://www.w3.org/Graphics/SVG/1.1/DTD/svg11.dtd">
<!-- Generated by graphviz version 2.38.0 (20140413.2041)
 -->
<!-- Title: HydroCouple::SpatioTemporal::ITimePolyhedralSurfaceComponentDataItem Pages: 1 -->
<svg width="258pt" height="1092pt"
 viewBox="0.00 0.00 258.04 1092.42" xmlns="http://www.w3.org/2000/svg" xmlns:xlink="http://www.w3.org/1999/xlink">
<g id="graph0" class="graph" transform="scale(1 1) rotate(0) translate(4 1088.42)">
<title>HydroCouple::SpatioTemporal::ITimePolyhedralSurfaceComponentDataItem</title>
<!-- Node1 -->
<g id="node1" class="node"><title>Node1</title>
<polygon fill="#bfbfbf" stroke="black" points="12.002,-114.84 12.002,-338.864 238.036,-338.864 238.036,-114.84 12.002,-114.84"/>
<text text-anchor="start" x="20.002" y="-326.864" font-family="Monaco" font-size="10.00">HydroCouple::SpatioTemporal</text>
<text text-anchor="start" x="20.002" y="-313.529" font-family="Monaco" font-size="10.00">::ITimePolyhedralSurfaceComponent</text>
<text text-anchor="middle" x="125.019" y="-300.194" font-family="Monaco" font-size="10.00">DataItem</text>
<polyline fill="none" stroke="black" points="12.002,-290.859 238.036,-290.859 "/>
<text text-anchor="middle" x="125.019" y="-278.859" font-family="Monaco" font-size="10.00"> </text>
<polyline fill="none" stroke="black" points="12.002,-269.524 238.036,-269.524 "/>
<text text-anchor="start" x="20.002" y="-257.524" font-family="Monaco" font-size="10.00">+ ~ITimePolyhedralSurfaceComponent</text>
<text text-anchor="start" x="20.002" y="-244.189" font-family="Monaco" font-size="10.00">DataItem()</text>
<text text-anchor="start" x="20.002" y="-230.854" font-family="Monaco" font-size="10.00">+ polyhedralSurface()</text>
<text text-anchor="start" x="20.002" y="-217.52" font-family="Monaco" font-size="10.00">+ polygon()</text>
<text text-anchor="start" x="20.002" y="-204.185" font-family="Monaco" font-size="10.00">+ polyhedralSurfacePatchDimension()</text>
<text text-anchor="start" x="20.002" y="-190.85" font-family="Monaco" font-size="10.00">+ getValue()</text>
<text text-anchor="start" x="20.002" y="-177.515" font-family="Monaco" font-size="10.00">+ getValues()</text>
<text text-anchor="start" x="20.002" y="-164.18" font-family="Monaco" font-size="10.00">+ getValues()</text>
<text text-anchor="start" x="20.002" y="-150.845" font-family="Monaco" font-size="10.00">+ setValue()</text>
<text text-anchor="start" x="20.002" y="-137.51" font-family="Monaco" font-size="10.00">+ setValues()</text>
<text text-anchor="start" x="20.002" y="-124.175" font-family="Monaco" font-size="10.00">+ setValues()</text>
</g>
<!-- Node7 -->
<g id="node7" class="node"><title>Node7</title>
<g id="a_node7"><a xlink:href="class_hydro_couple_1_1_spatio_temporal_1_1_i_time_polyhedral_surface_exchange_item.html" target="_top" xlink:title="The ITimePolyhedralSurfaceExchangeItem class. ">
<polygon fill="none" stroke="black" points="0,-0.5 0,-77.8398 250.038,-77.8398 250.038,-0.5 0,-0.5"/>
<text text-anchor="start" x="8" y="-65.8398" font-family="Monaco" font-size="10.00">HydroCouple::SpatioTemporal</text>
<text text-anchor="middle" x="125.019" y="-52.5049" font-family="Monaco" font-size="10.00">::ITimePolyhedralSurfaceExchangeItem</text>
<polyline fill="none" stroke="black" points="0,-43.1699 250.038,-43.1699 "/>
<text text-anchor="middle" x="125.019" y="-31.1699" font-family="Monaco" font-size="10.00"> </text>
<polyline fill="none" stroke="black" points="0,-21.835 250.038,-21.835 "/>
<text text-anchor="start" x="8" y="-9.83496" font-family="Monaco" font-size="10.00">+ ~ITimePolyhedralSurfaceExchangeItem()</text>
</a>
</g>
</g>
<!-- Node1&#45;&gt;Node7 -->
<g id="edge6" class="edge"><title>Node1&#45;&gt;Node7</title>
<path fill="none" stroke="midnightblue" d="M125.019,-104.59C125.019,-95.0947 125.019,-86.0388 125.019,-77.8748"/>
<polygon fill="none" stroke="midnightblue" points="121.519,-104.624 125.019,-114.624 128.519,-104.624 121.519,-104.624"/>
</g>
<!-- Node2 -->
<g id="node2" class="node"><title>Node2</title>
<g id="a_node2"><a xlink:href="class_hydro_couple_1_1_temporal_1_1_i_time_component_data_item.html" target="_top" xlink:title="ITimeComponentItem is an IComponentItem with a temporal attribute. ">
<polygon fill="none" stroke="black" points="36.0059,-375.864 36.0059,-493.209 214.032,-493.209 214.032,-375.864 36.0059,-375.864"/>
<text text-anchor="start" x="44.0059" y="-481.209" font-family="Monaco" font-size="10.00">HydroCouple::Temporal</text>
<text text-anchor="middle" x="125.019" y="-467.874" font-family="Monaco" font-size="10.00">::ITimeComponentDataItem</text>
<polyline fill="none" stroke="black" points="36.0059,-458.539 214.032,-458.539 "/>
<text text-anchor="middle" x="125.019" y="-446.539" font-family="Monaco" font-size="10.00"> </text>
<polyline fill="none" stroke="black" points="36.0059,-437.204 214.032,-437.204 "/>
<text text-anchor="start" x="44.0059" y="-425.204" font-family="Monaco" font-size="10.00">+ ~ITimeComponentDataItem()</text>
<text text-anchor="start" x="44.0059" y="-411.869" font-family="Monaco" font-size="10.00">+ times()</text>
<text text-anchor="start" x="44.0059" y="-398.534" font-family="Monaco" font-size="10.00">+ timeSpan()</text>
<text text-anchor="start" x="44.0059" y="-385.199" font-family="Monaco" font-size="10.00">+ timeDimension()</text>
</a>
</g>
</g>
<!-- Node2&#45;&gt;Node1 -->
<g id="edge1" class="edge"><title>Node2&#45;&gt;Node1</title>
<path fill="none" stroke="midnightblue" d="M125.019,-365.483C125.019,-356.949 125.019,-348.052 125.019,-339.069"/>
<polygon fill="none" stroke="midnightblue" points="121.519,-365.695 125.019,-375.695 128.519,-365.695 121.519,-365.695"/>
</g>
<!-- Node3 -->
<g id="node3" class="node"><title>Node3</title>
<g id="a_node3"><a xlink:href="class_hydro_couple_1_1_i_component_data_item.html" target="_top" xlink:title="IComponentItem is a fundamental unit of data for a component. ">
<polygon fill="none" stroke="black" points="24.0039,-530.209 24.0039,-714.229 226.034,-714.229 226.034,-530.209 24.0039,-530.209"/>
<text text-anchor="middle" x="125.019" y="-702.229" font-family="Monaco" font-size="10.00">HydroCouple::IComponentDataItem</text>
<polyline fill="none" stroke="black" points="24.0039,-692.894 226.034,-692.894 "/>
<text text-anchor="middle" x="125.019" y="-680.894" font-family="Monaco" font-size="10.00"> </text>
<polyline fill="none" stroke="black" points="24.0039,-671.559 226.034,-671.559 "/>
<text text-anchor="start" x="32.0039" y="-659.559" font-family="Monaco" font-size="10.00">+ ~IComponentDataItem()</text>
<text text-anchor="start" x="32.0039" y="-646.224" font-family="Monaco" font-size="10.00">+ modelComponent()</text>
<text text-anchor="start" x="32.0039" y="-632.889" font-family="Monaco" font-size="10.00">+ dimensions()</text>
<text text-anchor="start" x="32.0039" y="-619.554" font-family="Monaco" font-size="10.00">+ valueDefinition()</text>
<text text-anchor="start" x="32.0039" y="-606.219" font-family="Monaco" font-size="10.00">+ getValue()</text>
<text text-anchor="start" x="32.0039" y="-592.884" font-family="Monaco" font-size="10.00">+ getValues()</text>
<text text-anchor="start" x="32.0039" y="-579.549" font-family="Monaco" font-size="10.00">+ getValues()</text>
<text text-anchor="start" x="32.0039" y="-566.214" font-family="Monaco" font-size="10.00">+ setValue()</text>
<text text-anchor="start" x="32.0039" y="-552.879" font-family="Monaco" font-size="10.00">+ setValues()</text>
<text text-anchor="start" x="32.0039" y="-539.544" font-family="Monaco" font-size="10.00">+ setValues()</text>
</a>
</g>
</g>
<!-- Node3&#45;&gt;Node2 -->
<g id="edge2" class="edge"><title>Node3&#45;&gt;Node2</title>
<path fill="none" stroke="midnightblue" d="M125.019,-519.787C125.019,-510.758 125.019,-501.838 125.019,-493.373"/>
<polygon fill="none" stroke="midnightblue" points="121.519,-520.01 125.019,-530.01 128.519,-520.01 121.519,-520.01"/>
</g>
<!-- Node4 -->
<g id="node4" class="node"><title>Node4</title>
<g id="a_node4"><a xlink:href="class_hydro_couple_1_1_i_identity.html" target="_top" xlink:title="IIdentity interface class defines a method to get the Id of an HydroCouple entity. ">
<polygon fill="none" stroke="black" points="51.0083,-751.229 51.0083,-828.568 199.03,-828.568 199.03,-751.229 51.0083,-751.229"/>
<text text-anchor="middle" x="125.019" y="-816.568" font-family="Monaco" font-size="10.00">HydroCouple::IIdentity</text>
<polyline fill="none" stroke="black" points="51.0083,-807.233 199.03,-807.233 "/>
<text text-anchor="middle" x="125.019" y="-795.233" font-family="Monaco" font-size="10.00"> </text>
<polyline fill="none" stroke="black" points="51.0083,-785.898 199.03,-785.898 "/>
<text text-anchor="start" x="59.0083" y="-773.898" font-family="Monaco" font-size="10.00">+ ~IIdentity()</text>
<text text-anchor="start" x="59.0083" y="-760.563" font-family="Monaco" font-size="10.00">+ id()</text>
</a>
</g>
</g>
<!-- Node4&#45;&gt;Node3 -->
<g id="edge3" class="edge"><title>Node4&#45;&gt;Node3</title>
<path fill="none" stroke="midnightblue" d="M125.019,-740.646C125.019,-732.293 125.019,-723.368 125.019,-714.309"/>
<polygon fill="none" stroke="midnightblue" points="121.519,-740.888 125.019,-750.888 128.519,-740.888 121.519,-740.888"/>
</g>
<!-- Node5 -->
<g id="node5" class="node"><title>Node5</title>
<g id="a_node5"><a xlink:href="class_hydro_couple_1_1_i_description.html" target="_top" xlink:title="IDescription interface class provides descriptive information on a HydroCouple object. ">
<polygon fill="none" stroke="black" points="42.0068,-865.568 42.0068,-982.913 208.031,-982.913 208.031,-865.568 42.0068,-865.568"/>
<text text-anchor="middle" x="125.019" y="-970.913" font-family="Monaco" font-size="10.00">HydroCouple::IDescription</text>
<polyline fill="none" stroke="black" points="42.0068,-961.578 208.031,-961.578 "/>
<text text-anchor="middle" x="125.019" y="-949.578" font-family="Monaco" font-size="10.00"> </text>
<polyline fill="none" stroke="black" points="42.0068,-940.243 208.031,-940.243 "/>
<text text-anchor="start" x="50.0068" y="-928.243" font-family="Monaco" font-size="10.00">+ ~IDescription()</text>
<text text-anchor="start" x="50.0068" y="-914.908" font-family="Monaco" font-size="10.00">+ caption()</text>
<text text-anchor="start" x="50.0068" y="-901.573" font-family="Monaco" font-size="10.00">+ setCaption()</text>
<text text-anchor="start" x="50.0068" y="-888.238" font-family="Monaco" font-size="10.00">+ description()</text>
<text text-anchor="start" x="50.0068" y="-874.903" font-family="Monaco" font-size="10.00">+ setDescription()</text>
</a>
</g>
</g>
<!-- Node5&#45;&gt;Node4 -->
<g id="edge4" class="edge"><title>Node5&#45;&gt;Node4</title>
<path fill="none" stroke="midnightblue" d="M125.019,-855.002C125.019,-845.964 125.019,-836.976 125.019,-828.716"/>
<polygon fill="none" stroke="midnightblue" points="121.519,-855.193 125.019,-865.193 128.519,-855.194 121.519,-855.193"/>
</g>
<!-- Node6 -->
<g id="node6" class="node"><title>Node6</title>
<g id="a_node6"><a xlink:href="class_hydro_couple_1_1_i_property_changed.html" target="_top" xlink:title="IPropertyChanged interface is used to emit signal/event when a property of an object changes...">
<polygon fill="none" stroke="black" points="30.0049,-1019.91 30.0049,-1083.92 220.033,-1083.92 220.033,-1019.91 30.0049,-1019.91"/>
<text text-anchor="middle" x="125.019" y="-1071.92" font-family="Monaco" font-size="10.00">HydroCouple::IPropertyChanged</text>
<polyline fill="none" stroke="black" points="30.0049,-1062.58 220.033,-1062.58 "/>
<text text-anchor="middle" x="125.019" y="-1050.58" font-family="Monaco" font-size="10.00"> </text>
<polyline fill="none" stroke="black" points="30.0049,-1041.25 220.033,-1041.25 "/>
<text text-anchor="start" x="38.0049" y="-1029.25" font-family="Monaco" font-size="10.00">+ ~IPropertyChanged()</text>
</a>
</g>
</g>
<!-- Node6&#45;&gt;Node5 -->
<g id="edge5" class="edge"><title>Node6&#45;&gt;Node5</title>
<path fill="none" stroke="midnightblue" d="M125.019,-1009.59C125.019,-1001.21 125.019,-992.241 125.019,-983.399"/>
<polygon fill="none" stroke="midnightblue" points="121.519,-1009.85 125.019,-1019.85 128.519,-1009.85 121.519,-1009.85"/>
</g>
</g>
</svg>
