<?xml version="1.0" encoding="UTF-8" standalone="no"?>
<!DOCTYPE svg PUBLIC "-//W3C//DTD SVG 1.1//EN"
 "http://www.w3.org/Graphics/SVG/1.1/DTD/svg11.dtd">
<!-- Generated by graphviz version 2.38.0 (20140413.2041)
 -->
<!-- Title: HydroCouple::SpatioTemporal::ITimePolyhedralSurfaceComponentItem Pages: 1 -->
<svg width="412pt" height="751pt"
 viewBox="0.00 0.00 412.03 751.38" xmlns="http://www.w3.org/2000/svg" xmlns:xlink="http://www.w3.org/1999/xlink">
<g id="graph0" class="graph" transform="scale(1 1) rotate(0) translate(4 747.384)">
<title>HydroCouple::SpatioTemporal::ITimePolyhedralSurfaceComponentItem</title>
<polygon fill="white" stroke="none" points="-4,4 -4,-747.384 408.029,-747.384 408.029,4 -4,4"/>
<!-- Node1 -->
<g id="node1" class="node"><title>Node1</title>
<polygon fill="#bfbfbf" stroke="black" points="53.9917,-0.5 53.9917,-77.8398 310.031,-77.8398 310.031,-0.5 53.9917,-0.5"/>
<text text-anchor="start" x="61.9917" y="-65.8398" font-family="Monaco" font-size="10.00">HydroCouple::SpatioTemporal</text>
<text text-anchor="middle" x="182.011" y="-52.5049" font-family="Monaco" font-size="10.00">::ITimePolyhedralSurfaceComponentItem</text>
<polyline fill="none" stroke="black" points="53.9917,-43.1699 310.031,-43.1699 "/>
<text text-anchor="middle" x="182.011" y="-31.1699" font-family="Monaco" font-size="10.00"> </text>
<polyline fill="none" stroke="black" points="53.9917,-21.835 310.031,-21.835 "/>
<text text-anchor="start" x="61.9917" y="-9.83496" font-family="Monaco" font-size="10.00">+ ~ITimePolyhedralSurfaceComponentItem()</text>
</g>
<!-- Node2 -->
<g id="node2" class="node"><title>Node2</title>
<g id="a_node2"><a xlink:href="class_hydro_couple_1_1_temporal_1_1_i_time_component_item.html" target="_top" xlink:title="ITimeComponentItem is an IComponentItem with a temporal attribute. ">
<polygon fill="white" stroke="black" points="0,-114.84 0,-245.52 154.022,-245.52 154.022,-114.84 0,-114.84"/>
<text text-anchor="start" x="8" y="-233.52" font-family="Monaco" font-size="10.00">HydroCouple::Temporal</text>
<text text-anchor="middle" x="77.0112" y="-220.185" font-family="Monaco" font-size="10.00">::ITimeComponentItem</text>
<polyline fill="none" stroke="black" points="0,-210.85 154.022,-210.85 "/>
<text text-anchor="middle" x="77.0112" y="-198.85" font-family="Monaco" font-size="10.00"> </text>
<polyline fill="none" stroke="black" points="0,-189.515 154.022,-189.515 "/>
<text text-anchor="start" x="8" y="-177.515" font-family="Monaco" font-size="10.00">+ ~ITimeComponentItem()</text>
<text text-anchor="start" x="8" y="-164.18" font-family="Monaco" font-size="10.00">+ timeDimension()</text>
<text text-anchor="start" x="8" y="-150.845" font-family="Monaco" font-size="10.00">+ times()</text>
<text text-anchor="start" x="8" y="-137.51" font-family="Monaco" font-size="10.00">+ timeSpan()</text>
<text text-anchor="start" x="8" y="-124.175" font-family="Monaco" font-size="10.00">+ time()</text>
</a>
</g>
</g>
<!-- Node2&#45;&gt;Node1 -->
<g id="edge1" class="edge"><title>Node2&#45;&gt;Node1</title>
<path fill="none" stroke="midnightblue" d="M132.018,-106.356C139.391,-96.5953 146.697,-86.9223 153.354,-78.109"/>
<polygon fill="none" stroke="midnightblue" points="129.057,-104.469 125.823,-114.558 134.643,-108.688 129.057,-104.469"/>
</g>
<!-- Node3 -->
<g id="node3" class="node"><title>Node3</title>
<g id="a_node3"><a xlink:href="class_hydro_couple_1_1_i_component_item.html" target="_top" xlink:title="IComponentItem is a fundamental unit of data for a component. ">
<polygon fill="white" stroke="black" points="92.998,-282.52 92.998,-373.194 271.024,-373.194 271.024,-282.52 92.998,-282.52"/>
<text text-anchor="middle" x="182.011" y="-361.194" font-family="Monaco" font-size="10.00">HydroCouple::IComponentItem</text>
<polyline fill="none" stroke="black" points="92.998,-351.859 271.024,-351.859 "/>
<text text-anchor="middle" x="182.011" y="-339.859" font-family="Monaco" font-size="10.00"> </text>
<polyline fill="none" stroke="black" points="92.998,-330.524 271.024,-330.524 "/>
<text text-anchor="start" x="100.998" y="-318.524" font-family="Monaco" font-size="10.00">+ ~IComponentItem()</text>
<text text-anchor="start" x="100.998" y="-305.189" font-family="Monaco" font-size="10.00">+ modelComponent()</text>
<text text-anchor="start" x="100.998" y="-291.854" font-family="Monaco" font-size="10.00">+ dimensions()</text>
</a>
</g>
</g>
<!-- Node3&#45;&gt;Node2 -->
<g id="edge2" class="edge"><title>Node3&#45;&gt;Node2</title>
<path fill="none" stroke="midnightblue" d="M143.965,-274.072C137.346,-264.888 130.394,-255.243 123.577,-245.785"/>
<polygon fill="none" stroke="midnightblue" points="141.251,-276.292 149.937,-282.357 146.929,-272.198 141.251,-276.292"/>
</g>
<!-- Node7 -->
<g id="node7" class="node"><title>Node7</title>
<g id="a_node7"><a xlink:href="class_hydro_couple_1_1_spatial_1_1_i_polyhedral_surface_component_item.html" target="_top" xlink:title="IPolyhedralSurfaceComponentItem represents IPolyhedralSurface IComponentItem. ">
<polygon fill="white" stroke="black" points="171.994,-121.507 171.994,-238.852 404.029,-238.852 404.029,-121.507 171.994,-121.507"/>
<text text-anchor="start" x="179.994" y="-226.852" font-family="Monaco" font-size="10.00">HydroCouple::Spatial</text>
<text text-anchor="middle" x="288.011" y="-213.517" font-family="Monaco" font-size="10.00">::IPolyhedralSurfaceComponentItem</text>
<polyline fill="none" stroke="black" points="171.994,-204.182 404.029,-204.182 "/>
<text text-anchor="middle" x="288.011" y="-192.182" font-family="Monaco" font-size="10.00"> </text>
<polyline fill="none" stroke="black" points="171.994,-182.847 404.029,-182.847 "/>
<text text-anchor="start" x="179.994" y="-170.847" font-family="Monaco" font-size="10.00">+ ~IPolyhedralSurfaceComponentItem()</text>
<text text-anchor="start" x="179.994" y="-157.512" font-family="Monaco" font-size="10.00">+ patchDimension()</text>
<text text-anchor="start" x="179.994" y="-144.177" font-family="Monaco" font-size="10.00">+ polyhedralSurface()</text>
<text text-anchor="start" x="179.994" y="-130.842" font-family="Monaco" font-size="10.00">+ geometry()</text>
</a>
</g>
</g>
<!-- Node3&#45;&gt;Node7 -->
<g id="edge7" class="edge"><title>Node3&#45;&gt;Node7</title>
<path fill="none" stroke="midnightblue" d="M220.323,-274.204C228.615,-262.808 237.428,-250.697 245.858,-239.112"/>
<polygon fill="none" stroke="midnightblue" points="217.444,-272.212 214.391,-282.357 223.104,-276.331 217.444,-272.212"/>
</g>
<!-- Node4 -->
<g id="node4" class="node"><title>Node4</title>
<g id="a_node4"><a xlink:href="class_hydro_couple_1_1_i_identity.html" target="_top" xlink:title="IIdentity interface class defines a method to get the Id of an HydroCouple entity. ">
<polygon fill="white" stroke="black" points="108,-410.194 108,-487.534 256.022,-487.534 256.022,-410.194 108,-410.194"/>
<text text-anchor="middle" x="182.011" y="-475.534" font-family="Monaco" font-size="10.00">HydroCouple::IIdentity</text>
<polyline fill="none" stroke="black" points="108,-466.199 256.022,-466.199 "/>
<text text-anchor="middle" x="182.011" y="-454.199" font-family="Monaco" font-size="10.00"> </text>
<polyline fill="none" stroke="black" points="108,-444.864 256.022,-444.864 "/>
<text text-anchor="start" x="116" y="-432.864" font-family="Monaco" font-size="10.00">+ ~IIdentity()</text>
<text text-anchor="start" x="116" y="-419.529" font-family="Monaco" font-size="10.00">+ id()</text>
</a>
</g>
</g>
<!-- Node4&#45;&gt;Node3 -->
<g id="edge3" class="edge"><title>Node4&#45;&gt;Node3</title>
<path fill="none" stroke="midnightblue" d="M182.011,-399.875C182.011,-391.176 182.011,-382.136 182.011,-373.537"/>
<polygon fill="none" stroke="midnightblue" points="178.511,-399.882 182.011,-409.882 185.511,-399.882 178.511,-399.882"/>
</g>
<!-- Node5 -->
<g id="node5" class="node"><title>Node5</title>
<g id="a_node5"><a xlink:href="class_hydro_couple_1_1_i_description.html" target="_top" xlink:title="IDescription interface class provides descriptive information on a HydroCouple object. ">
<polygon fill="white" stroke="black" points="98.999,-524.534 98.999,-641.879 265.023,-641.879 265.023,-524.534 98.999,-524.534"/>
<text text-anchor="middle" x="182.011" y="-629.879" font-family="Monaco" font-size="10.00">HydroCouple::IDescription</text>
<polyline fill="none" stroke="black" points="98.999,-620.544 265.023,-620.544 "/>
<text text-anchor="middle" x="182.011" y="-608.544" font-family="Monaco" font-size="10.00"> </text>
<polyline fill="none" stroke="black" points="98.999,-599.209 265.023,-599.209 "/>
<text text-anchor="start" x="106.999" y="-587.209" font-family="Monaco" font-size="10.00">+ ~IDescription()</text>
<text text-anchor="start" x="106.999" y="-573.874" font-family="Monaco" font-size="10.00">+ getCaption()</text>
<text text-anchor="start" x="106.999" y="-560.539" font-family="Monaco" font-size="10.00">+ setCaption()</text>
<text text-anchor="start" x="106.999" y="-547.204" font-family="Monaco" font-size="10.00">+ getDescription()</text>
<text text-anchor="start" x="106.999" y="-533.869" font-family="Monaco" font-size="10.00">+ setDescription()</text>
</a>
</g>
</g>
<!-- Node5&#45;&gt;Node4 -->
<g id="edge4" class="edge"><title>Node5&#45;&gt;Node4</title>
<path fill="none" stroke="midnightblue" d="M182.011,-513.968C182.011,-504.929 182.011,-495.942 182.011,-487.682"/>
<polygon fill="none" stroke="midnightblue" points="178.511,-514.159 182.011,-524.159 185.511,-514.159 178.511,-514.159"/>
</g>
<!-- Node6 -->
<g id="node6" class="node"><title>Node6</title>
<g id="a_node6"><a xlink:href="class_hydro_couple_1_1_i_property_changed.html" target="_top" xlink:title="IPropertyChanged interface is used to emit signal/event when a property of an object changes...">
<polygon fill="white" stroke="black" points="86.9971,-678.879 86.9971,-742.884 277.025,-742.884 277.025,-678.879 86.9971,-678.879"/>
<text text-anchor="middle" x="182.011" y="-730.884" font-family="Monaco" font-size="10.00">HydroCouple::IPropertyChanged</text>
<polyline fill="none" stroke="black" points="86.9971,-721.549 277.025,-721.549 "/>
<text text-anchor="middle" x="182.011" y="-709.549" font-family="Monaco" font-size="10.00"> </text>
<polyline fill="none" stroke="black" points="86.9971,-700.214 277.025,-700.214 "/>
<text text-anchor="start" x="94.9971" y="-688.214" font-family="Monaco" font-size="10.00">+ ~IPropertyChanged()</text>
</a>
</g>
</g>
<!-- Node6&#45;&gt;Node5 -->
<g id="edge5" class="edge"><title>Node6&#45;&gt;Node5</title>
<path fill="none" stroke="midnightblue" d="M182.011,-668.559C182.011,-660.173 182.011,-651.207 182.011,-642.365"/>
<polygon fill="none" stroke="midnightblue" points="178.511,-668.816 182.011,-678.816 185.511,-668.816 178.511,-668.816"/>
</g>
<!-- Node7&#45;&gt;Node1 -->
<g id="edge6" class="edge"><title>Node7&#45;&gt;Node1</title>
<path fill="none" stroke="midnightblue" d="M237.663,-113.153C228.497,-101.133 219.226,-88.9732 210.948,-78.1176"/>
<polygon fill="none" stroke="midnightblue" points="235.132,-115.605 243.979,-121.435 240.698,-111.36 235.132,-115.605"/>
</g>
</g>
</svg>
