<?xml version="1.0" encoding="UTF-8" standalone="no"?>
<!DOCTYPE svg PUBLIC "-//W3C//DTD SVG 1.1//EN"
 "http://www.w3.org/Graphics/SVG/1.1/DTD/svg11.dtd">
<!-- Generated by graphviz version 2.38.0 (20140413.2041)
 -->
<!-- Title: HydroCouple::IExchangeItem Pages: 1 -->
<svg width="3038pt" height="1012pt"
 viewBox="0.00 0.00 3038.02 1012.41" xmlns="http://www.w3.org/2000/svg" xmlns:xlink="http://www.w3.org/1999/xlink">
<g id="graph0" class="graph" transform="scale(1 1) rotate(0) translate(4 1008.41)">
<title>HydroCouple::IExchangeItem</title>
<polygon fill="white" stroke="none" points="-4,4 -4,-1008.41 3034.02,-1008.41 3034.02,4 -4,4"/>
<!-- Node1 -->
<g id="node1" class="node"><title>Node1</title>
<polygon fill="#bfbfbf" stroke="black" points="1339,-375.864 1339,-466.539 1511.02,-466.539 1511.02,-375.864 1339,-375.864"/>
<text text-anchor="middle" x="1425.01" y="-454.539" font-family="Monaco" font-size="10.00">HydroCouple::IExchangeItem</text>
<polyline fill="none" stroke="black" points="1339,-445.204 1511.02,-445.204 "/>
<text text-anchor="middle" x="1425.01" y="-433.204" font-family="Monaco" font-size="10.00"> </text>
<polyline fill="none" stroke="black" points="1339,-423.869 1511.02,-423.869 "/>
<text text-anchor="start" x="1347" y="-411.869" font-family="Monaco" font-size="10.00">+ ~IExchangeItem()</text>
<text text-anchor="start" x="1347" y="-398.534" font-family="Monaco" font-size="10.00">+ values()</text>
<text text-anchor="start" x="1347" y="-385.199" font-family="Monaco" font-size="10.00">+ itemChanged()</text>
</g>
<!-- Node6 -->
<g id="node6" class="node"><title>Node6</title>
<g id="a_node6"><a xlink:href="class_hydro_couple_1_1_i_input.html" target="_top" xlink:title="An IInput item that can accept values for an IModelComponent. ">
<polygon fill="white" stroke="black" points="0,-208.185 0,-312.194 130.019,-312.194 130.019,-208.185 0,-208.185"/>
<text text-anchor="middle" x="65.0093" y="-300.194" font-family="Monaco" font-size="10.00">HydroCouple::IInput</text>
<polyline fill="none" stroke="black" points="0,-290.859 130.019,-290.859 "/>
<text text-anchor="middle" x="65.0093" y="-278.859" font-family="Monaco" font-size="10.00"> </text>
<polyline fill="none" stroke="black" points="0,-269.524 130.019,-269.524 "/>
<text text-anchor="start" x="8" y="-257.524" font-family="Monaco" font-size="10.00">+ ~IInput()</text>
<text text-anchor="start" x="8" y="-244.189" font-family="Monaco" font-size="10.00">+ getProvider()</text>
<text text-anchor="start" x="8" y="-230.854" font-family="Monaco" font-size="10.00">+ setProvider()</text>
<text text-anchor="start" x="8" y="-217.52" font-family="Monaco" font-size="10.00">+ canConsume()</text>
</a>
</g>
</g>
<!-- Node1&#45;&gt;Node6 -->
<g id="edge5" class="edge"><title>Node1&#45;&gt;Node6</title>
<path fill="none" stroke="midnightblue" d="M1328.76,-418.203C1048.46,-411.819 245.768,-389.338 139.009,-339.364 125.469,-333.026 113.164,-323.015 102.646,-312.245"/>
<polygon fill="none" stroke="midnightblue" points="1328.84,-421.705 1338.91,-418.432 1328.99,-414.707 1328.84,-421.705"/>
</g>
<!-- Node7 -->
<g id="node7" class="node"><title>Node7</title>
<g id="a_node7"><a xlink:href="class_hydro_couple_1_1_i_output.html" target="_top" xlink:title="An output exchange item that can deliver values from an IModelComponent. ">
<polygon fill="white" stroke="black" points="147.998,-181.515 147.998,-338.864 302.021,-338.864 302.021,-181.515 147.998,-181.515"/>
<text text-anchor="middle" x="225.009" y="-326.864" font-family="Monaco" font-size="10.00">HydroCouple::IOutput</text>
<polyline fill="none" stroke="black" points="147.998,-317.529 302.021,-317.529 "/>
<text text-anchor="middle" x="225.009" y="-305.529" font-family="Monaco" font-size="10.00"> </text>
<polyline fill="none" stroke="black" points="147.998,-296.194 302.021,-296.194 "/>
<text text-anchor="start" x="155.998" y="-284.194" font-family="Monaco" font-size="10.00">+ ~IOutput()</text>
<text text-anchor="start" x="155.998" y="-270.859" font-family="Monaco" font-size="10.00">+ consumers()</text>
<text text-anchor="start" x="155.998" y="-257.524" font-family="Monaco" font-size="10.00">+ addConsumer()</text>
<text text-anchor="start" x="155.998" y="-244.189" font-family="Monaco" font-size="10.00">+ removeConsumer()</text>
<text text-anchor="start" x="155.998" y="-230.854" font-family="Monaco" font-size="10.00">+ adaptedOutputs()</text>
<text text-anchor="start" x="155.998" y="-217.52" font-family="Monaco" font-size="10.00">+ addAdaptedOutput()</text>
<text text-anchor="start" x="155.998" y="-204.185" font-family="Monaco" font-size="10.00">+ removeAdaptedOutput()</text>
<text text-anchor="start" x="155.998" y="-190.85" font-family="Monaco" font-size="10.00">+ updateValues()</text>
</a>
</g>
</g>
<!-- Node1&#45;&gt;Node7 -->
<g id="edge6" class="edge"><title>Node1&#45;&gt;Node7</title>
<path fill="none" stroke="midnightblue" d="M1328.35,-416.798C1074.71,-407.359 403.239,-378.914 311.009,-339.364 308.042,-338.092 305.11,-336.673 302.22,-335.132"/>
<polygon fill="none" stroke="midnightblue" points="1328.53,-420.307 1338.66,-417.18 1328.79,-413.312 1328.53,-420.307"/>
</g>
<!-- Node9 -->
<g id="node9" class="node"><title>Node9</title>
<g id="a_node9"><a xlink:href="class_hydro_couple_1_1_spatial_1_1_i_geometry_exchange_item.html" target="_top" xlink:title="An IExchangeItem class with a geometry component. ">
<polygon fill="white" stroke="black" points="319.997,-214.852 319.997,-305.527 492.022,-305.527 492.022,-214.852 319.997,-214.852"/>
<text text-anchor="start" x="327.997" y="-293.527" font-family="Monaco" font-size="10.00">HydroCouple::Spatial</text>
<text text-anchor="middle" x="406.009" y="-280.192" font-family="Monaco" font-size="10.00">::IGeometryExchangeItem</text>
<polyline fill="none" stroke="black" points="319.997,-270.857 492.022,-270.857 "/>
<text text-anchor="middle" x="406.009" y="-258.857" font-family="Monaco" font-size="10.00"> </text>
<polyline fill="none" stroke="black" points="319.997,-249.522 492.022,-249.522 "/>
<text text-anchor="start" x="327.997" y="-237.522" font-family="Monaco" font-size="10.00">+ ~IGeometryExchangeItem()</text>
<text text-anchor="start" x="327.997" y="-224.187" font-family="Monaco" font-size="10.00">+ geometryValues()</text>
</a>
</g>
</g>
<!-- Node1&#45;&gt;Node9 -->
<g id="edge8" class="edge"><title>Node1&#45;&gt;Node9</title>
<path fill="none" stroke="midnightblue" d="M1328.57,-418.95C1123.12,-415.126 648.974,-399.824 501.009,-339.364 482.028,-331.608 463.923,-318.676 448.707,-305.54"/>
<polygon fill="none" stroke="midnightblue" points="1328.68,-422.452 1338.74,-419.134 1328.81,-415.453 1328.68,-422.452"/>
</g>
<!-- Node10 -->
<g id="node10" class="node"><title>Node10</title>
<g id="a_node10"><a xlink:href="class_hydro_couple_1_1_spatial_1_1_i_polyhedral_surface_exchange_item.html" target="_top" xlink:title="An IPolyhedralSurfaceExchangeItem class with an IPolyhedralSurface component. ">
<polygon fill="white" stroke="black" points="509.992,-214.852 509.992,-305.527 736.026,-305.527 736.026,-214.852 509.992,-214.852"/>
<text text-anchor="start" x="517.992" y="-293.527" font-family="Monaco" font-size="10.00">HydroCouple::Spatial</text>
<text text-anchor="middle" x="623.009" y="-280.192" font-family="Monaco" font-size="10.00">::IPolyhedralSurfaceExchangeItem</text>
<polyline fill="none" stroke="black" points="509.992,-270.857 736.026,-270.857 "/>
<text text-anchor="middle" x="623.009" y="-258.857" font-family="Monaco" font-size="10.00"> </text>
<polyline fill="none" stroke="black" points="509.992,-249.522 736.026,-249.522 "/>
<text text-anchor="start" x="517.992" y="-237.522" font-family="Monaco" font-size="10.00">+ ~IPolyhedralSurfaceExchangeItem()</text>
<text text-anchor="start" x="517.992" y="-224.187" font-family="Monaco" font-size="10.00">+ patchValues()</text>
</a>
</g>
</g>
<!-- Node1&#45;&gt;Node10 -->
<g id="edge9" class="edge"><title>Node1&#45;&gt;Node10</title>
<path fill="none" stroke="midnightblue" d="M1328.51,-414.078C1167.2,-402.954 850.142,-377.039 745.009,-339.364 722.631,-331.345 700.149,-318.594 680.691,-305.697"/>
<polygon fill="none" stroke="midnightblue" points="1328.69,-417.599 1338.9,-414.79 1329.17,-410.615 1328.69,-417.599"/>
</g>
<!-- Node11 -->
<g id="node11" class="node"><title>Node11</title>
<g id="a_node11"><a xlink:href="class_hydro_couple_1_1_spatial_1_1_i_raster_exhange_item.html" target="_top" xlink:title="An IRasterExhangeItem is an IExchangeItem with an IRaster. ">
<polygon fill="white" stroke="black" points="753.998,-214.852 753.998,-305.527 908.021,-305.527 908.021,-214.852 753.998,-214.852"/>
<text text-anchor="start" x="761.998" y="-293.527" font-family="Monaco" font-size="10.00">HydroCouple::Spatial</text>
<text text-anchor="middle" x="831.009" y="-280.192" font-family="Monaco" font-size="10.00">::IRasterExhangeItem</text>
<polyline fill="none" stroke="black" points="753.998,-270.857 908.021,-270.857 "/>
<text text-anchor="middle" x="831.009" y="-258.857" font-family="Monaco" font-size="10.00"> </text>
<polyline fill="none" stroke="black" points="753.998,-249.522 908.021,-249.522 "/>
<text text-anchor="start" x="761.998" y="-237.522" font-family="Monaco" font-size="10.00">+ ~IRasterExhangeItem()</text>
<text text-anchor="start" x="761.998" y="-224.187" font-family="Monaco" font-size="10.00">+ rasterValues()</text>
</a>
</g>
</g>
<!-- Node1&#45;&gt;Node11 -->
<g id="edge10" class="edge"><title>Node1&#45;&gt;Node11</title>
<path fill="none" stroke="midnightblue" d="M1328.69,-411.496C1202.24,-398.94 987.989,-373.458 917.009,-339.364 899.913,-331.152 883.776,-318.431 870.2,-305.619"/>
<polygon fill="none" stroke="midnightblue" points="1328.47,-414.991 1338.77,-412.488 1329.16,-408.025 1328.47,-414.991"/>
</g>
<!-- Node12 -->
<g id="node12" class="node"><title>Node12</title>
<g id="a_node12"><a xlink:href="class_hydro_couple_1_1_spatial_1_1_i_regular_grid2_d_exhange_item.html" target="_top" xlink:title="An IRegularGrid2DExhangeItem is an IExchangeItem with an IRegularGrid2DComponentItem. ">
<polygon fill="white" stroke="black" points="925.995,-214.852 925.995,-305.527 1122.02,-305.527 1122.02,-214.852 925.995,-214.852"/>
<text text-anchor="start" x="933.995" y="-293.527" font-family="Monaco" font-size="10.00">HydroCouple::Spatial</text>
<text text-anchor="middle" x="1024.01" y="-280.192" font-family="Monaco" font-size="10.00">::IRegularGrid2DExhangeItem</text>
<polyline fill="none" stroke="black" points="925.995,-270.857 1122.02,-270.857 "/>
<text text-anchor="middle" x="1024.01" y="-258.857" font-family="Monaco" font-size="10.00"> </text>
<polyline fill="none" stroke="black" points="925.995,-249.522 1122.02,-249.522 "/>
<text text-anchor="start" x="933.995" y="-237.522" font-family="Monaco" font-size="10.00">+ ~IRegularGrid2DExhangeItem()</text>
<text text-anchor="start" x="933.995" y="-224.187" font-family="Monaco" font-size="10.00">+ regular2DValues()</text>
</a>
</g>
</g>
<!-- Node1&#45;&gt;Node12 -->
<g id="edge11" class="edge"><title>Node1&#45;&gt;Node12</title>
<path fill="none" stroke="midnightblue" d="M1328.7,-402.948C1269.72,-390.165 1193.76,-369.652 1131.01,-339.364 1112.26,-330.315 1093.39,-317.894 1076.84,-305.616"/>
<polygon fill="none" stroke="midnightblue" points="1328.25,-406.431 1338.76,-405.089 1329.71,-399.584 1328.25,-406.431"/>
</g>
<!-- Node13 -->
<g id="node13" class="node"><title>Node13</title>
<g id="a_node13"><a xlink:href="class_hydro_couple_1_1_spatial_1_1_i_regular_grid3_d_exhange_item.html" target="_top" xlink:title="An IRegularGrid3DExhangeItem is an IExchangeItem with an IRegularGrid3DComponentItem. ">
<polygon fill="white" stroke="black" points="1139.99,-214.852 1139.99,-305.527 1336.02,-305.527 1336.02,-214.852 1139.99,-214.852"/>
<text text-anchor="start" x="1147.99" y="-293.527" font-family="Monaco" font-size="10.00">HydroCouple::Spatial</text>
<text text-anchor="middle" x="1238.01" y="-280.192" font-family="Monaco" font-size="10.00">::IRegularGrid3DExhangeItem</text>
<polyline fill="none" stroke="black" points="1139.99,-270.857 1336.02,-270.857 "/>
<text text-anchor="middle" x="1238.01" y="-258.857" font-family="Monaco" font-size="10.00"> </text>
<polyline fill="none" stroke="black" points="1139.99,-249.522 1336.02,-249.522 "/>
<text text-anchor="start" x="1147.99" y="-237.522" font-family="Monaco" font-size="10.00">+ ~IRegularGrid3DExhangeItem()</text>
<text text-anchor="start" x="1147.99" y="-224.187" font-family="Monaco" font-size="10.00">+ regular3DValues()</text>
</a>
</g>
</g>
<!-- Node1&#45;&gt;Node13 -->
<g id="edge12" class="edge"><title>Node1&#45;&gt;Node13</title>
<path fill="none" stroke="midnightblue" d="M1364.75,-368.963C1340.74,-348.541 1313.35,-325.258 1290.2,-305.571"/>
<polygon fill="none" stroke="midnightblue" points="1362.54,-371.673 1372.42,-375.485 1367.07,-366.34 1362.54,-371.673"/>
</g>
<!-- Node14 -->
<g id="node14" class="node"><title>Node14</title>
<g id="a_node14"><a xlink:href="class_hydro_couple_1_1_spatial_1_1_i_t_i_n_exchange_item.html" target="_top" xlink:title="An ITINExchangeItem class with an TIN component. ">
<polygon fill="white" stroke="black" points="1354,-214.852 1354,-305.527 1496.02,-305.527 1496.02,-214.852 1354,-214.852"/>
<text text-anchor="start" x="1362" y="-293.527" font-family="Monaco" font-size="10.00">HydroCouple::Spatial</text>
<text text-anchor="middle" x="1425.01" y="-280.192" font-family="Monaco" font-size="10.00">::ITINExchangeItem</text>
<polyline fill="none" stroke="black" points="1354,-270.857 1496.02,-270.857 "/>
<text text-anchor="middle" x="1425.01" y="-258.857" font-family="Monaco" font-size="10.00"> </text>
<polyline fill="none" stroke="black" points="1354,-249.522 1496.02,-249.522 "/>
<text text-anchor="start" x="1362" y="-237.522" font-family="Monaco" font-size="10.00">+ ~ITINExchangeItem()</text>
<text text-anchor="start" x="1362" y="-224.187" font-family="Monaco" font-size="10.00">+ patchValues()</text>
</a>
</g>
</g>
<!-- Node1&#45;&gt;Node14 -->
<g id="edge13" class="edge"><title>Node1&#45;&gt;Node14</title>
<path fill="none" stroke="midnightblue" d="M1425.01,-365.22C1425.01,-345.732 1425.01,-324.064 1425.01,-305.571"/>
<polygon fill="none" stroke="midnightblue" points="1421.51,-365.485 1425.01,-375.485 1428.51,-365.485 1421.51,-365.485"/>
</g>
<!-- Node15 -->
<g id="node15" class="node"><title>Node15</title>
<g id="a_node15"><a xlink:href="class_hydro_couple_1_1_spatio_temporal_1_1_i_time_geometry_exchange_item.html" target="_top" xlink:title="The ITimeGeometryExchangeItem class. ">
<polygon fill="white" stroke="black" points="1513.99,-214.852 1513.99,-305.527 1710.02,-305.527 1710.02,-214.852 1513.99,-214.852"/>
<text text-anchor="start" x="1521.99" y="-293.527" font-family="Monaco" font-size="10.00">HydroCouple::SpatioTemporal</text>
<text text-anchor="middle" x="1612.01" y="-280.192" font-family="Monaco" font-size="10.00">::ITimeGeometryExchangeItem</text>
<polyline fill="none" stroke="black" points="1513.99,-270.857 1710.02,-270.857 "/>
<text text-anchor="middle" x="1612.01" y="-258.857" font-family="Monaco" font-size="10.00"> </text>
<polyline fill="none" stroke="black" points="1513.99,-249.522 1710.02,-249.522 "/>
<text text-anchor="start" x="1521.99" y="-237.522" font-family="Monaco" font-size="10.00">+ ~ITimeGeometryExchangeItem()</text>
<text text-anchor="start" x="1521.99" y="-224.187" font-family="Monaco" font-size="10.00">+ timeGeometryValues()</text>
</a>
</g>
</g>
<!-- Node1&#45;&gt;Node15 -->
<g id="edge14" class="edge"><title>Node1&#45;&gt;Node15</title>
<path fill="none" stroke="midnightblue" d="M1485.27,-368.963C1509.28,-348.541 1536.66,-325.258 1559.82,-305.571"/>
<polygon fill="none" stroke="midnightblue" points="1482.95,-366.34 1477.6,-375.485 1487.48,-371.673 1482.95,-366.34"/>
</g>
<!-- Node16 -->
<g id="node16" class="node"><title>Node16</title>
<g id="a_node16"><a xlink:href="class_hydro_couple_1_1_spatio_temporal_1_1_i_time_polyhedral_surface_exchange_item.html" target="_top" xlink:title="The ITimePolyhedralSurfaceExchangeItem class. ">
<polygon fill="white" stroke="black" points="1727.99,-214.852 1727.99,-305.527 1978.03,-305.527 1978.03,-214.852 1727.99,-214.852"/>
<text text-anchor="start" x="1735.99" y="-293.527" font-family="Monaco" font-size="10.00">HydroCouple::SpatioTemporal</text>
<text text-anchor="middle" x="1853.01" y="-280.192" font-family="Monaco" font-size="10.00">::ITimePolyhedralSurfaceExchangeItem</text>
<polyline fill="none" stroke="black" points="1727.99,-270.857 1978.03,-270.857 "/>
<text text-anchor="middle" x="1853.01" y="-258.857" font-family="Monaco" font-size="10.00"> </text>
<polyline fill="none" stroke="black" points="1727.99,-249.522 1978.03,-249.522 "/>
<text text-anchor="start" x="1735.99" y="-237.522" font-family="Monaco" font-size="10.00">+ ~ITimePolyhedralSurfaceExchangeItem()</text>
<text text-anchor="start" x="1735.99" y="-224.187" font-family="Monaco" font-size="10.00">+ timePolyhedralSurfaceValues()</text>
</a>
</g>
</g>
<!-- Node1&#45;&gt;Node16 -->
<g id="edge15" class="edge"><title>Node1&#45;&gt;Node16</title>
<path fill="none" stroke="midnightblue" d="M1521.22,-400.414C1579.69,-386.77 1655.13,-366.24 1719.01,-339.364 1741.1,-330.069 1764.03,-317.788 1784.54,-305.721"/>
<polygon fill="none" stroke="midnightblue" points="1520.21,-397.056 1511.25,-402.713 1521.78,-403.877 1520.21,-397.056"/>
</g>
<!-- Node17 -->
<g id="node17" class="node"><title>Node17</title>
<g id="a_node17"><a xlink:href="class_hydro_couple_1_1_spatio_temporal_1_1_i_time_raster_exchange_item.html" target="_top" xlink:title="The ITimeRasterExchangeItem class. ">
<polygon fill="white" stroke="black" points="1996,-214.852 1996,-305.527 2180.02,-305.527 2180.02,-214.852 1996,-214.852"/>
<text text-anchor="start" x="2004" y="-293.527" font-family="Monaco" font-size="10.00">HydroCouple::SpatioTemporal</text>
<text text-anchor="middle" x="2088.01" y="-280.192" font-family="Monaco" font-size="10.00">::ITimeRasterExchangeItem</text>
<polyline fill="none" stroke="black" points="1996,-270.857 2180.02,-270.857 "/>
<text text-anchor="middle" x="2088.01" y="-258.857" font-family="Monaco" font-size="10.00"> </text>
<polyline fill="none" stroke="black" points="1996,-249.522 2180.02,-249.522 "/>
<text text-anchor="start" x="2004" y="-237.522" font-family="Monaco" font-size="10.00">+ ~ITimeRasterExchangeItem()</text>
<text text-anchor="start" x="2004" y="-224.187" font-family="Monaco" font-size="10.00">+ timeRasterValues()</text>
</a>
</g>
</g>
<!-- Node1&#45;&gt;Node17 -->
<g id="edge16" class="edge"><title>Node1&#45;&gt;Node17</title>
<path fill="none" stroke="midnightblue" d="M1521.21,-412.333C1659.02,-400.053 1905.05,-374.092 1987.01,-339.364 2006.2,-331.233 2024.92,-318.533 2040.92,-305.716"/>
<polygon fill="none" stroke="midnightblue" points="1520.72,-408.863 1511.07,-413.229 1521.34,-415.835 1520.72,-408.863"/>
</g>
<!-- Node18 -->
<g id="node18" class="node"><title>Node18</title>
<g id="a_node18"><a xlink:href="class_hydro_couple_1_1_spatio_temporal_1_1_i_time_regular_grid2_d_exchange_item.html" target="_top" xlink:title="The ITimeRegularGrid2DExchangeItem class. ">
<polygon fill="white" stroke="black" points="2197.99,-214.852 2197.99,-305.527 2424.03,-305.527 2424.03,-214.852 2197.99,-214.852"/>
<text text-anchor="start" x="2205.99" y="-293.527" font-family="Monaco" font-size="10.00">HydroCouple::SpatioTemporal</text>
<text text-anchor="middle" x="2311.01" y="-280.192" font-family="Monaco" font-size="10.00">::ITimeRegularGrid2DExchangeItem</text>
<polyline fill="none" stroke="black" points="2197.99,-270.857 2424.03,-270.857 "/>
<text text-anchor="middle" x="2311.01" y="-258.857" font-family="Monaco" font-size="10.00"> </text>
<polyline fill="none" stroke="black" points="2197.99,-249.522 2424.03,-249.522 "/>
<text text-anchor="start" x="2205.99" y="-237.522" font-family="Monaco" font-size="10.00">+ ~ITimeRegularGrid2DExchangeItem()</text>
<text text-anchor="start" x="2205.99" y="-224.187" font-family="Monaco" font-size="10.00">+ timeRegularGrid2DValues()</text>
</a>
</g>
</g>
<!-- Node1&#45;&gt;Node18 -->
<g id="edge17" class="edge"><title>Node1&#45;&gt;Node18</title>
<path fill="none" stroke="midnightblue" d="M1521.33,-415.545C1698.29,-406.08 2068.1,-381.812 2189.01,-339.364 2211.56,-331.448 2234.17,-318.641 2253.7,-305.664"/>
<polygon fill="none" stroke="midnightblue" points="1521.05,-412.055 1511.25,-416.08 1521.42,-419.046 1521.05,-412.055"/>
</g>
<!-- Node19 -->
<g id="node19" class="node"><title>Node19</title>
<g id="a_node19"><a xlink:href="class_hydro_couple_1_1_spatio_temporal_1_1_i_time_regular_grid3_d_exchange_item.html" target="_top" xlink:title="The ITimeRegularGrid3DExchangeItem class. ">
<polygon fill="white" stroke="black" points="2441.99,-214.852 2441.99,-305.527 2668.03,-305.527 2668.03,-214.852 2441.99,-214.852"/>
<text text-anchor="start" x="2449.99" y="-293.527" font-family="Monaco" font-size="10.00">HydroCouple::SpatioTemporal</text>
<text text-anchor="middle" x="2555.01" y="-280.192" font-family="Monaco" font-size="10.00">::ITimeRegularGrid3DExchangeItem</text>
<polyline fill="none" stroke="black" points="2441.99,-270.857 2668.03,-270.857 "/>
<text text-anchor="middle" x="2555.01" y="-258.857" font-family="Monaco" font-size="10.00"> </text>
<polyline fill="none" stroke="black" points="2441.99,-249.522 2668.03,-249.522 "/>
<text text-anchor="start" x="2449.99" y="-237.522" font-family="Monaco" font-size="10.00">+ ~ITimeRegularGrid3DExchangeItem()</text>
<text text-anchor="start" x="2449.99" y="-224.187" font-family="Monaco" font-size="10.00">+ timeRegularGrid3DValues()</text>
</a>
</g>
</g>
<!-- Node1&#45;&gt;Node19 -->
<g id="edge18" class="edge"><title>Node1&#45;&gt;Node19</title>
<path fill="none" stroke="midnightblue" d="M1521.25,-418.416C1739.45,-413.412 2265.75,-395.71 2433.01,-339.364 2455.9,-331.654 2478.77,-318.734 2498.43,-305.594"/>
<polygon fill="none" stroke="midnightblue" points="1521.02,-414.92 1511.1,-418.644 1521.18,-421.918 1521.02,-414.92"/>
</g>
<!-- Node20 -->
<g id="node20" class="node"><title>Node20</title>
<g id="a_node20"><a xlink:href="class_hydro_couple_1_1_spatio_temporal_1_1_i_time_t_i_n_exchange_item.html" target="_top" xlink:title="The ITimeTINExchangeItem class. ">
<polygon fill="white" stroke="black" points="2686,-214.852 2686,-305.527 2864.02,-305.527 2864.02,-214.852 2686,-214.852"/>
<text text-anchor="start" x="2694" y="-293.527" font-family="Monaco" font-size="10.00">HydroCouple::SpatioTemporal</text>
<text text-anchor="middle" x="2775.01" y="-280.192" font-family="Monaco" font-size="10.00">::ITimeTINExchangeItem</text>
<polyline fill="none" stroke="black" points="2686,-270.857 2864.02,-270.857 "/>
<text text-anchor="middle" x="2775.01" y="-258.857" font-family="Monaco" font-size="10.00"> </text>
<polyline fill="none" stroke="black" points="2686,-249.522 2864.02,-249.522 "/>
<text text-anchor="start" x="2694" y="-237.522" font-family="Monaco" font-size="10.00">+ ~ITimeTINExchangeItem()</text>
<text text-anchor="start" x="2694" y="-224.187" font-family="Monaco" font-size="10.00">+ timeTINValues()</text>
</a>
</g>
</g>
<!-- Node1&#45;&gt;Node20 -->
<g id="edge19" class="edge"><title>Node1&#45;&gt;Node20</title>
<path fill="none" stroke="midnightblue" d="M1521.71,-417.294C1796.74,-408.56 2570.39,-380.585 2677.01,-339.364 2696.5,-331.83 2715.15,-318.953 2730.85,-305.8"/>
<polygon fill="none" stroke="midnightblue" points="1521.24,-413.808 1511.36,-417.622 1521.46,-420.804 1521.24,-413.808"/>
</g>
<!-- Node21 -->
<g id="node21" class="node"><title>Node21</title>
<g id="a_node21"><a xlink:href="class_hydro_couple_1_1_temporal_1_1_i_time_exchange_item.html" target="_top" xlink:title="The ITimeExchangeItem class. ">
<polygon fill="white" stroke="black" points="2882,-214.852 2882,-305.527 3030.02,-305.527 3030.02,-214.852 2882,-214.852"/>
<text text-anchor="start" x="2890" y="-293.527" font-family="Monaco" font-size="10.00">HydroCouple::Temporal</text>
<text text-anchor="middle" x="2956.01" y="-280.192" font-family="Monaco" font-size="10.00">::ITimeExchangeItem</text>
<polyline fill="none" stroke="black" points="2882,-270.857 3030.02,-270.857 "/>
<text text-anchor="middle" x="2956.01" y="-258.857" font-family="Monaco" font-size="10.00"> </text>
<polyline fill="none" stroke="black" points="2882,-249.522 3030.02,-249.522 "/>
<text text-anchor="start" x="2890" y="-237.522" font-family="Monaco" font-size="10.00">+ ~ITimeExchangeItem()</text>
<text text-anchor="start" x="2890" y="-224.187" font-family="Monaco" font-size="10.00">+ timeValues()</text>
</a>
</g>
</g>
<!-- Node1&#45;&gt;Node21 -->
<g id="edge20" class="edge"><title>Node1&#45;&gt;Node21</title>
<path fill="none" stroke="midnightblue" d="M1521.22,-418.643C1824.77,-413.198 2749.52,-392.395 2873.01,-339.364 2890.47,-331.866 2906.51,-318.998 2919.73,-305.842"/>
<polygon fill="none" stroke="midnightblue" points="1521.06,-415.145 1511.12,-418.823 1521.18,-422.144 1521.06,-415.145"/>
</g>
<!-- Node2 -->
<g id="node2" class="node"><title>Node2</title>
<g id="a_node2"><a xlink:href="class_hydro_couple_1_1_i_component_item.html" target="_top" xlink:title="IComponentItem is a fundamental unit of data for a component. ">
<polygon fill="white" stroke="black" points="1336,-503.539 1336,-607.549 1514.02,-607.549 1514.02,-503.539 1336,-503.539"/>
<text text-anchor="middle" x="1425.01" y="-595.549" font-family="Monaco" font-size="10.00">HydroCouple::IComponentItem</text>
<polyline fill="none" stroke="black" points="1336,-586.214 1514.02,-586.214 "/>
<text text-anchor="middle" x="1425.01" y="-574.214" font-family="Monaco" font-size="10.00"> </text>
<polyline fill="none" stroke="black" points="1336,-564.879 1514.02,-564.879 "/>
<text text-anchor="start" x="1344" y="-552.879" font-family="Monaco" font-size="10.00">+ ~IComponentItem()</text>
<text text-anchor="start" x="1344" y="-539.544" font-family="Monaco" font-size="10.00">+ modelComponent()</text>
<text text-anchor="start" x="1344" y="-526.209" font-family="Monaco" font-size="10.00">+ modelComponentId()</text>
<text text-anchor="start" x="1344" y="-512.874" font-family="Monaco" font-size="10.00">+ dimensions()</text>
</a>
</g>
</g>
<!-- Node2&#45;&gt;Node1 -->
<g id="edge1" class="edge"><title>Node2&#45;&gt;Node1</title>
<path fill="none" stroke="midnightblue" d="M1425.01,-493.35C1425.01,-484.391 1425.01,-475.31 1425.01,-466.769"/>
<polygon fill="none" stroke="midnightblue" points="1421.51,-493.377 1425.01,-503.377 1428.51,-493.377 1421.51,-493.377"/>
</g>
<!-- Node3 -->
<g id="node3" class="node"><title>Node3</title>
<g id="a_node3"><a xlink:href="class_hydro_couple_1_1_i_identity.html" target="_top" xlink:title="IIdentity interface class defines a method to get the Id of an HydroCouple entity. ">
<polygon fill="white" stroke="black" points="1351,-644.549 1351,-748.559 1499.02,-748.559 1499.02,-644.549 1351,-644.549"/>
<text text-anchor="middle" x="1425.01" y="-736.559" font-family="Monaco" font-size="10.00">HydroCouple::IIdentity</text>
<polyline fill="none" stroke="black" points="1351,-727.224 1499.02,-727.224 "/>
<text text-anchor="middle" x="1425.01" y="-715.224" font-family="Monaco" font-size="10.00"> </text>
<polyline fill="none" stroke="black" points="1351,-705.889 1499.02,-705.889 "/>
<text text-anchor="start" x="1359" y="-693.889" font-family="Monaco" font-size="10.00">+ ~IIdentity()</text>
<text text-anchor="start" x="1359" y="-680.554" font-family="Monaco" font-size="10.00">+ MPI_Comm()</text>
<text text-anchor="start" x="1359" y="-667.219" font-family="Monaco" font-size="10.00">+ MPI_Rank()</text>
<text text-anchor="start" x="1359" y="-653.884" font-family="Monaco" font-size="10.00">+ id()</text>
</a>
</g>
</g>
<!-- Node3&#45;&gt;Node2 -->
<g id="edge2" class="edge"><title>Node3&#45;&gt;Node2</title>
<path fill="none" stroke="midnightblue" d="M1425.01,-633.99C1425.01,-625.208 1425.01,-616.254 1425.01,-607.7"/>
<polygon fill="none" stroke="midnightblue" points="1421.51,-634.187 1425.01,-644.187 1428.51,-634.187 1421.51,-634.187"/>
</g>
<!-- Node4 -->
<g id="node4" class="node"><title>Node4</title>
<g id="a_node4"><a xlink:href="class_hydro_couple_1_1_i_description.html" target="_top" xlink:title="IDescription interface class provides descriptive information on a HydroCouple object. ">
<polygon fill="white" stroke="black" points="1342,-785.559 1342,-902.903 1508.02,-902.903 1508.02,-785.559 1342,-785.559"/>
<text text-anchor="middle" x="1425.01" y="-890.903" font-family="Monaco" font-size="10.00">HydroCouple::IDescription</text>
<polyline fill="none" stroke="black" points="1342,-881.568 1508.02,-881.568 "/>
<text text-anchor="middle" x="1425.01" y="-869.568" font-family="Monaco" font-size="10.00"> </text>
<polyline fill="none" stroke="black" points="1342,-860.233 1508.02,-860.233 "/>
<text text-anchor="start" x="1350" y="-848.233" font-family="Monaco" font-size="10.00">+ ~IDescription()</text>
<text text-anchor="start" x="1350" y="-834.898" font-family="Monaco" font-size="10.00">+ getCaption()</text>
<text text-anchor="start" x="1350" y="-821.563" font-family="Monaco" font-size="10.00">+ setCaption()</text>
<text text-anchor="start" x="1350" y="-808.229" font-family="Monaco" font-size="10.00">+ getDescription()</text>
<text text-anchor="start" x="1350" y="-794.894" font-family="Monaco" font-size="10.00">+ setDescription()</text>
</a>
</g>
</g>
<!-- Node4&#45;&gt;Node3 -->
<g id="edge3" class="edge"><title>Node4&#45;&gt;Node3</title>
<path fill="none" stroke="midnightblue" d="M1425.01,-774.957C1425.01,-766.139 1425.01,-757.232 1425.01,-748.754"/>
<polygon fill="none" stroke="midnightblue" points="1421.51,-775.237 1425.01,-785.237 1428.51,-775.237 1421.51,-775.237"/>
</g>
<!-- Node5 -->
<g id="node5" class="node"><title>Node5</title>
<g id="a_node5"><a xlink:href="class_hydro_couple_1_1_i_property_changed.html" target="_top" xlink:title="IPropertyChanged interface is used to emit signal/event when a property of an object changes...">
<polygon fill="white" stroke="black" points="1330,-939.903 1330,-1003.91 1520.02,-1003.91 1520.02,-939.903 1330,-939.903"/>
<text text-anchor="middle" x="1425.01" y="-991.908" font-family="Monaco" font-size="10.00">HydroCouple::IPropertyChanged</text>
<polyline fill="none" stroke="black" points="1330,-982.573 1520.02,-982.573 "/>
<text text-anchor="middle" x="1425.01" y="-970.573" font-family="Monaco" font-size="10.00"> </text>
<polyline fill="none" stroke="black" points="1330,-961.238 1520.02,-961.238 "/>
<text text-anchor="start" x="1338" y="-949.238" font-family="Monaco" font-size="10.00">+ ~IPropertyChanged()</text>
</a>
</g>
</g>
<!-- Node5&#45;&gt;Node4 -->
<g id="edge4" class="edge"><title>Node5&#45;&gt;Node4</title>
<path fill="none" stroke="midnightblue" d="M1425.01,-929.583C1425.01,-921.198 1425.01,-912.231 1425.01,-903.389"/>
<polygon fill="none" stroke="midnightblue" points="1421.51,-929.84 1425.01,-939.84 1428.51,-929.84 1421.51,-929.84"/>
</g>
<!-- Node8 -->
<g id="node8" class="node"><title>Node8</title>
<g id="a_node8"><a xlink:href="class_hydro_couple_1_1_i_adapted_output.html" target="_top" xlink:title="An IAdaptedOutput adds one or more data operations on top of an IOutput. ">
<polygon fill="white" stroke="black" points="135.996,-0.5 135.996,-144.515 314.022,-144.515 314.022,-0.5 135.996,-0.5"/>
<text text-anchor="middle" x="225.009" y="-132.515" font-family="Monaco" font-size="10.00">HydroCouple::IAdaptedOutput</text>
<polyline fill="none" stroke="black" points="135.996,-123.18 314.022,-123.18 "/>
<text text-anchor="middle" x="225.009" y="-111.18" font-family="Monaco" font-size="10.00"> </text>
<polyline fill="none" stroke="black" points="135.996,-101.845 314.022,-101.845 "/>
<text text-anchor="start" x="143.996" y="-89.8447" font-family="Monaco" font-size="10.00">+ ~IAdaptedOutput()</text>
<text text-anchor="start" x="143.996" y="-76.5098" font-family="Monaco" font-size="10.00">+ adaptedOutputFactory()</text>
<text text-anchor="start" x="143.996" y="-63.1748" font-family="Monaco" font-size="10.00">+ arguments()</text>
<text text-anchor="start" x="143.996" y="-49.8398" font-family="Monaco" font-size="10.00">+ setArgument()</text>
<text text-anchor="start" x="143.996" y="-36.5049" font-family="Monaco" font-size="10.00">+ initialize()</text>
<text text-anchor="start" x="143.996" y="-23.1699" font-family="Monaco" font-size="10.00">+ adaptee()</text>
<text text-anchor="start" x="143.996" y="-9.83496" font-family="Monaco" font-size="10.00">+ refresh()</text>
</a>
</g>
</g>
<!-- Node7&#45;&gt;Node8 -->
<g id="edge7" class="edge"><title>Node7&#45;&gt;Node8</title>
<path fill="none" stroke="midnightblue" d="M225.009,-170.971C225.009,-162.177 225.009,-153.327 225.009,-144.738"/>
<polygon fill="none" stroke="midnightblue" points="221.509,-171.251 225.009,-181.251 228.509,-171.251 221.509,-171.251"/>
</g>
</g>
</svg>
