<?xml version="1.0" encoding="UTF-8" standalone="no"?>
<!DOCTYPE svg PUBLIC "-//W3C//DTD SVG 1.1//EN"
 "http://www.w3.org/Graphics/SVG/1.1/DTD/svg11.dtd">
<!-- Generated by graphviz version 2.38.0 (20140413.2041)
 -->
<!-- Title: HydroCouple::Spatial::IGeometry Pages: 1 -->
<!--zoomable 1520 -->
<svg id="main" version="1.1" xmlns="http://www.w3.org/2000/svg" xmlns:xlink="http://www.w3.org/1999/xlink" xml:space="preserve" onload="init(evt)">
<style type="text/css"><![CDATA[
.edge:hover path { stroke: red; }
.edge:hover polygon { stroke: red; fill: red; }
]]></style>
<script type="text/javascript"><![CDATA[
var edges = document.getElementsByTagName('g');
if (edges && edges.length) {
  for (var i=0;i<edges.length;i++) {
    if (edges[i].id.substr(0,4)=='edge') {
      edges[i].setAttribute('class','edge');
    }
  }
}
]]></script>
        <defs>
                <circle id="rim" cx="0" cy="0" r="7"/>
                <circle id="rim2" cx="0" cy="0" r="3.5"/>
                <g id="zoomPlus">
                        <use xlink:href="#rim" fill="#404040">
                                <set attributeName="fill" to="#808080" begin="zoomplus.mouseover" end="zoomplus.mouseout"/>
                        </use>
                        <path d="M-4,0h8M0,-4v8" fill="none" stroke="white" stroke-width="1.5" pointer-events="none"/>
                </g>
                <g id="zoomMin">
                        <use xlink:href="#rim" fill="#404040">
                                <set attributeName="fill" to="#808080" begin="zoomminus.mouseover" end="zoomminus.mouseout"/>
                        </use>
                        <path d="M-4,0h8" fill="none" stroke="white" stroke-width="1.5" pointer-events="none"/>
                </g>
                <g id="dirArrow">
                        <path fill="none" stroke="white" stroke-width="1.5" d="M0,-3.0v7 M-2.5,-0.5L0,-3.0L2.5,-0.5"/>
                </g>
               <g id="resetDef">
                       <use xlink:href="#rim2" fill="#404040">
                               <set attributeName="fill" to="#808080" begin="reset.mouseover" end="reset.mouseout"/>
                       </use>
               </g>
        </defs>

<script type="text/javascript">
var viewWidth = 1027;
var viewHeight = 1520;
var sectionId = 'dynsection-0';
</script>
<script xlink:href="svgpan.js"/>
<svg id="graph" class="graph">
<g id="viewport">
<title>HydroCouple::Spatial::IGeometry</title>
<polygon fill="white" stroke="none" points="-4,4 -4,-1516 1023.05,-1516 1023.05,4 -4,4"/>
<!-- Node1 -->
<g id="node1" class="node"><title>Node1</title>
<polygon fill="#bfbfbf" stroke="black" points="480.417,-644.5 480.417,-1188.5 620.08,-1188.5 620.08,-644.5 480.417,-644.5"/>
<text text-anchor="start" x="488.417" y="-1176.5" font-family="Helvetica,sans-Serif" font-size="10.00">HydroCouple::Spatial</text>
<text text-anchor="middle" x="550.249" y="-1166.5" font-family="Helvetica,sans-Serif" font-size="10.00">::IGeometry</text>
<polyline fill="none" stroke="black" points="480.417,-1160.5 620.08,-1160.5 "/>
<text text-anchor="middle" x="550.249" y="-1148.5" font-family="Helvetica,sans-Serif" font-size="10.00"> </text>
<polyline fill="none" stroke="black" points="480.417,-1142.5 620.08,-1142.5 "/>
<text text-anchor="start" x="488.417" y="-1130.5" font-family="Helvetica,sans-Serif" font-size="10.00">+ ~IGeometry()</text>
<text text-anchor="start" x="488.417" y="-1120.5" font-family="Helvetica,sans-Serif" font-size="10.00">+ dimension()</text>
<text text-anchor="start" x="488.417" y="-1110.5" font-family="Helvetica,sans-Serif" font-size="10.00">+ coordinateDimension()</text>
<text text-anchor="start" x="488.417" y="-1100.5" font-family="Helvetica,sans-Serif" font-size="10.00">+ geometryType()</text>
<text text-anchor="start" x="488.417" y="-1090.5" font-family="Helvetica,sans-Serif" font-size="10.00">+ spatialReferenceSystem()</text>
<text text-anchor="start" x="488.417" y="-1080.5" font-family="Helvetica,sans-Serif" font-size="10.00">+ envelope()</text>
<text text-anchor="start" x="488.417" y="-1070.5" font-family="Helvetica,sans-Serif" font-size="10.00">+ wkt()</text>
<text text-anchor="start" x="488.417" y="-1060.5" font-family="Helvetica,sans-Serif" font-size="10.00">+ wkb()</text>
<text text-anchor="start" x="488.417" y="-1050.5" font-family="Helvetica,sans-Serif" font-size="10.00">+ isEmpty()</text>
<text text-anchor="start" x="488.417" y="-1040.5" font-family="Helvetica,sans-Serif" font-size="10.00">+ isSimple()</text>
<text text-anchor="start" x="488.417" y="-1030.5" font-family="Helvetica,sans-Serif" font-size="10.00">+ is3D()</text>
<text text-anchor="start" x="488.417" y="-1020.5" font-family="Helvetica,sans-Serif" font-size="10.00">+ isMeasured()</text>
<text text-anchor="start" x="488.417" y="-1010.5" font-family="Helvetica,sans-Serif" font-size="10.00">+ boundary()</text>
<text text-anchor="start" x="488.417" y="-1000.5" font-family="Helvetica,sans-Serif" font-size="10.00">+ equals()</text>
<text text-anchor="start" x="488.417" y="-990.5" font-family="Helvetica,sans-Serif" font-size="10.00">+ disjoint()</text>
<text text-anchor="start" x="488.417" y="-980.5" font-family="Helvetica,sans-Serif" font-size="10.00">+ intersects()</text>
<text text-anchor="start" x="488.417" y="-970.5" font-family="Helvetica,sans-Serif" font-size="10.00">+ touches()</text>
<text text-anchor="start" x="488.417" y="-960.5" font-family="Helvetica,sans-Serif" font-size="10.00">+ crosses()</text>
<text text-anchor="start" x="488.417" y="-950.5" font-family="Helvetica,sans-Serif" font-size="10.00">+ within()</text>
<text text-anchor="start" x="488.417" y="-940.5" font-family="Helvetica,sans-Serif" font-size="10.00">+ contains()</text>
<text text-anchor="start" x="488.417" y="-930.5" font-family="Helvetica,sans-Serif" font-size="10.00">+ overlaps()</text>
<text text-anchor="start" x="488.417" y="-920.5" font-family="Helvetica,sans-Serif" font-size="10.00">+ relate()</text>
<text text-anchor="start" x="488.417" y="-910.5" font-family="Helvetica,sans-Serif" font-size="10.00">+ loocateAlong()</text>
<text text-anchor="start" x="488.417" y="-900.5" font-family="Helvetica,sans-Serif" font-size="10.00">+ locateBetween()</text>
<text text-anchor="start" x="488.417" y="-890.5" font-family="Helvetica,sans-Serif" font-size="10.00">+ distance()</text>
<text text-anchor="start" x="488.417" y="-880.5" font-family="Helvetica,sans-Serif" font-size="10.00">+ buffer()</text>
<text text-anchor="start" x="488.417" y="-870.5" font-family="Helvetica,sans-Serif" font-size="10.00">+ convexHull()</text>
<text text-anchor="start" x="488.417" y="-860.5" font-family="Helvetica,sans-Serif" font-size="10.00">+ intersection()</text>
<text text-anchor="start" x="488.417" y="-850.5" font-family="Helvetica,sans-Serif" font-size="10.00">+ uniong()</text>
<text text-anchor="start" x="488.417" y="-840.5" font-family="Helvetica,sans-Serif" font-size="10.00">+ difference()</text>
<text text-anchor="start" x="488.417" y="-830.5" font-family="Helvetica,sans-Serif" font-size="10.00">+ symmetricDifference()</text>
<text text-anchor="start" x="488.417" y="-820.5" font-family="Helvetica,sans-Serif" font-size="10.00">* equals()</text>
<text text-anchor="start" x="488.417" y="-810.5" font-family="Helvetica,sans-Serif" font-size="10.00">* disjoint()</text>
<text text-anchor="start" x="488.417" y="-800.5" font-family="Helvetica,sans-Serif" font-size="10.00">* intersects()</text>
<text text-anchor="start" x="488.417" y="-790.5" font-family="Helvetica,sans-Serif" font-size="10.00">* touches()</text>
<text text-anchor="start" x="488.417" y="-780.5" font-family="Helvetica,sans-Serif" font-size="10.00">* crosses()</text>
<text text-anchor="start" x="488.417" y="-770.5" font-family="Helvetica,sans-Serif" font-size="10.00">* within()</text>
<text text-anchor="start" x="488.417" y="-760.5" font-family="Helvetica,sans-Serif" font-size="10.00">* contains()</text>
<text text-anchor="start" x="488.417" y="-750.5" font-family="Helvetica,sans-Serif" font-size="10.00">* overlaps()</text>
<text text-anchor="start" x="488.417" y="-740.5" font-family="Helvetica,sans-Serif" font-size="10.00">* relate()</text>
<text text-anchor="start" x="488.417" y="-730.5" font-family="Helvetica,sans-Serif" font-size="10.00">* loocateAlong()</text>
<text text-anchor="start" x="488.417" y="-720.5" font-family="Helvetica,sans-Serif" font-size="10.00">* locateBetween()</text>
<text text-anchor="start" x="488.417" y="-710.5" font-family="Helvetica,sans-Serif" font-size="10.00">* distance()</text>
<text text-anchor="start" x="488.417" y="-700.5" font-family="Helvetica,sans-Serif" font-size="10.00">* buffer()</text>
<text text-anchor="start" x="488.417" y="-690.5" font-family="Helvetica,sans-Serif" font-size="10.00">* convexHull()</text>
<text text-anchor="start" x="488.417" y="-680.5" font-family="Helvetica,sans-Serif" font-size="10.00">* intersection()</text>
<text text-anchor="start" x="488.417" y="-670.5" font-family="Helvetica,sans-Serif" font-size="10.00">* uniong()</text>
<text text-anchor="start" x="488.417" y="-660.5" font-family="Helvetica,sans-Serif" font-size="10.00">* difference()</text>
<text text-anchor="start" x="488.417" y="-650.5" font-family="Helvetica,sans-Serif" font-size="10.00">* symmetricDifference()</text>
</g>
<!-- Node5 -->
<g id="node5" class="node"><title>Node5</title>
<g id="a_node5"><a xlink:href="class_hydro_couple_1_1_spatial_1_1_i_curve.html" target="_top" xlink:title="A Curve is a 1&#45;dimensional geometric object usually stored as a sequence of IPoints, with the subtype of ICurve specifying the form of the interpolation between IPoints. ">
<polygon fill="white" stroke="black" points="216,-493.5 216,-607.5 326.497,-607.5 326.497,-493.5 216,-493.5"/>
<text text-anchor="start" x="224" y="-595.5" font-family="Helvetica,sans-Serif" font-size="10.00">HydroCouple::Spatial</text>
<text text-anchor="middle" x="271.249" y="-585.5" font-family="Helvetica,sans-Serif" font-size="10.00">::ICurve</text>
<polyline fill="none" stroke="black" points="216,-579.5 326.497,-579.5 "/>
<text text-anchor="middle" x="271.249" y="-567.5" font-family="Helvetica,sans-Serif" font-size="10.00"> </text>
<polyline fill="none" stroke="black" points="216,-561.5 326.497,-561.5 "/>
<text text-anchor="start" x="224" y="-549.5" font-family="Helvetica,sans-Serif" font-size="10.00">+ ~ICurve()</text>
<text text-anchor="start" x="224" y="-539.5" font-family="Helvetica,sans-Serif" font-size="10.00">+ length()</text>
<text text-anchor="start" x="224" y="-529.5" font-family="Helvetica,sans-Serif" font-size="10.00">+ startPoint()</text>
<text text-anchor="start" x="224" y="-519.5" font-family="Helvetica,sans-Serif" font-size="10.00">+ endPoint()</text>
<text text-anchor="start" x="224" y="-509.5" font-family="Helvetica,sans-Serif" font-size="10.00">+ isClosed()</text>
<text text-anchor="start" x="224" y="-499.5" font-family="Helvetica,sans-Serif" font-size="10.00">+ isRing()</text>
</a>
</g>
</g>
<!-- Node1&#45;&gt;Node5 -->
<g id="edge4" class="edge"><title>Node1&#45;&gt;Node5</title>
<path fill="none" stroke="midnightblue" d="M474.018,-816.046C422.675,-749.06 356.824,-663.147 314.334,-607.712"/>
<polygon fill="none" stroke="midnightblue" points="471.344,-818.31 480.205,-824.117 476.9,-814.051 471.344,-818.31"/>
</g>
<!-- Node10 -->
<g id="node10" class="node"><title>Node10</title>
<g id="a_node10"><a xlink:href="class_hydro_couple_1_1_spatial_1_1_i_geometry_collection.html" target="_top" xlink:title="An IGeometryCollection is a geometric object that is a collection of some number of IGeometry objects...">
<polygon fill="white" stroke="black" points="403.394,-508.5 403.394,-592.5 531.103,-592.5 531.103,-508.5 403.394,-508.5"/>
<text text-anchor="start" x="411.394" y="-580.5" font-family="Helvetica,sans-Serif" font-size="10.00">HydroCouple::Spatial</text>
<text text-anchor="middle" x="467.249" y="-570.5" font-family="Helvetica,sans-Serif" font-size="10.00">::IGeometryCollection</text>
<polyline fill="none" stroke="black" points="403.394,-564.5 531.103,-564.5 "/>
<text text-anchor="middle" x="467.249" y="-552.5" font-family="Helvetica,sans-Serif" font-size="10.00"> </text>
<polyline fill="none" stroke="black" points="403.394,-546.5 531.103,-546.5 "/>
<text text-anchor="start" x="411.394" y="-534.5" font-family="Helvetica,sans-Serif" font-size="10.00">+ ~IGeometryCollection()</text>
<text text-anchor="start" x="411.394" y="-524.5" font-family="Helvetica,sans-Serif" font-size="10.00">+ geometryCount()</text>
<text text-anchor="start" x="411.394" y="-514.5" font-family="Helvetica,sans-Serif" font-size="10.00">+ geometry()</text>
</a>
</g>
</g>
<!-- Node1&#45;&gt;Node10 -->
<g id="edge9" class="edge"><title>Node1&#45;&gt;Node10</title>
<path fill="none" stroke="midnightblue" d="M486.152,-634.402C482.593,-618.793 479.353,-604.584 476.6,-592.509"/>
<polygon fill="none" stroke="midnightblue" points="482.772,-635.323 488.408,-644.294 489.597,-633.767 482.772,-635.323"/>
</g>
<!-- Node16 -->
<g id="node16" class="node"><title>Node16</title>
<g id="a_node16"><a xlink:href="class_hydro_couple_1_1_spatial_1_1_i_point.html" target="_top" xlink:title="An IPoint is a 0&#45;dimensional geometric object and represents a single location in coordinate space...">
<polygon fill="white" stroke="black" points="578,-498.5 578,-602.5 688.497,-602.5 688.497,-498.5 578,-498.5"/>
<text text-anchor="start" x="586" y="-590.5" font-family="Helvetica,sans-Serif" font-size="10.00">HydroCouple::Spatial</text>
<text text-anchor="middle" x="633.249" y="-580.5" font-family="Helvetica,sans-Serif" font-size="10.00">::IPoint</text>
<polyline fill="none" stroke="black" points="578,-574.5 688.497,-574.5 "/>
<text text-anchor="middle" x="633.249" y="-562.5" font-family="Helvetica,sans-Serif" font-size="10.00"> </text>
<polyline fill="none" stroke="black" points="578,-556.5 688.497,-556.5 "/>
<text text-anchor="start" x="586" y="-544.5" font-family="Helvetica,sans-Serif" font-size="10.00">+ ~IPoint()</text>
<text text-anchor="start" x="586" y="-534.5" font-family="Helvetica,sans-Serif" font-size="10.00">+ x()</text>
<text text-anchor="start" x="586" y="-524.5" font-family="Helvetica,sans-Serif" font-size="10.00">+ y()</text>
<text text-anchor="start" x="586" y="-514.5" font-family="Helvetica,sans-Serif" font-size="10.00">+ z()</text>
<text text-anchor="start" x="586" y="-504.5" font-family="Helvetica,sans-Serif" font-size="10.00">+ m()</text>
</a>
</g>
</g>
<!-- Node1&#45;&gt;Node16 -->
<g id="edge15" class="edge"><title>Node1&#45;&gt;Node16</title>
<path fill="none" stroke="midnightblue" d="M614.319,-634.515C616.928,-623.074 619.366,-612.384 621.566,-602.733"/>
<polygon fill="none" stroke="midnightblue" points="610.9,-633.767 612.089,-644.294 617.725,-635.323 610.9,-633.767"/>
</g>
<!-- Node18 -->
<g id="node18" class="node"><title>Node18</title>
<g id="a_node18"><a xlink:href="class_hydro_couple_1_1_spatial_1_1_i_surface.html" target="_top" xlink:title="A ISurface is a 2&#45;dimensional IGeometry object. ">
<polygon fill="white" stroke="black" points="763.866,-498.5 763.866,-602.5 884.631,-602.5 884.631,-498.5 763.866,-498.5"/>
<text text-anchor="start" x="771.866" y="-590.5" font-family="Helvetica,sans-Serif" font-size="10.00">HydroCouple::Spatial</text>
<text text-anchor="middle" x="824.249" y="-580.5" font-family="Helvetica,sans-Serif" font-size="10.00">::ISurface</text>
<polyline fill="none" stroke="black" points="763.866,-574.5 884.631,-574.5 "/>
<text text-anchor="middle" x="824.249" y="-562.5" font-family="Helvetica,sans-Serif" font-size="10.00"> </text>
<polyline fill="none" stroke="black" points="763.866,-556.5 884.631,-556.5 "/>
<text text-anchor="start" x="771.866" y="-544.5" font-family="Helvetica,sans-Serif" font-size="10.00">+ ~ISurface()</text>
<text text-anchor="start" x="771.866" y="-534.5" font-family="Helvetica,sans-Serif" font-size="10.00">+ area()</text>
<text text-anchor="start" x="771.866" y="-524.5" font-family="Helvetica,sans-Serif" font-size="10.00">+ centroid()</text>
<text text-anchor="start" x="771.866" y="-514.5" font-family="Helvetica,sans-Serif" font-size="10.00">+ pointOnSurface()</text>
<text text-anchor="start" x="771.866" y="-504.5" font-family="Helvetica,sans-Serif" font-size="10.00">+ boundaryMultiCurve()</text>
</a>
</g>
</g>
<!-- Node1&#45;&gt;Node18 -->
<g id="edge17" class="edge"><title>Node1&#45;&gt;Node18</title>
<path fill="none" stroke="midnightblue" d="M626.346,-814.407C678.183,-745.544 744.625,-657.278 785.812,-602.562"/>
<polygon fill="none" stroke="midnightblue" points="623.317,-812.611 620.099,-822.706 628.91,-816.821 623.317,-812.611"/>
</g>
<!-- Node2 -->
<g id="node2" class="node"><title>Node2</title>
<g id="a_node2"><a xlink:href="class_hydro_couple_1_1_i_identity.html" target="_top" xlink:title="IIdentity interface class defines a method to get the Id of an HydroCouple entity. ">
<polygon fill="white" stroke="black" points="492.778,-1225.5 492.778,-1289.5 607.719,-1289.5 607.719,-1225.5 492.778,-1225.5"/>
<text text-anchor="middle" x="550.249" y="-1277.5" font-family="Helvetica,sans-Serif" font-size="10.00">HydroCouple::IIdentity</text>
<polyline fill="none" stroke="black" points="492.778,-1271.5 607.719,-1271.5 "/>
<text text-anchor="middle" x="550.249" y="-1259.5" font-family="Helvetica,sans-Serif" font-size="10.00"> </text>
<polyline fill="none" stroke="black" points="492.778,-1253.5 607.719,-1253.5 "/>
<text text-anchor="start" x="500.778" y="-1241.5" font-family="Helvetica,sans-Serif" font-size="10.00">+ ~IIdentity()</text>
<text text-anchor="start" x="500.778" y="-1231.5" font-family="Helvetica,sans-Serif" font-size="10.00">+ id()</text>
</a>
</g>
</g>
<!-- Node2&#45;&gt;Node1 -->
<g id="edge1" class="edge"><title>Node2&#45;&gt;Node1</title>
<path fill="none" stroke="midnightblue" d="M550.249,-1215.21C550.249,-1207.17 550.249,-1198.21 550.249,-1188.56"/>
<polygon fill="none" stroke="midnightblue" points="546.749,-1215.22 550.249,-1225.22 553.749,-1215.22 546.749,-1215.22"/>
</g>
<!-- Node3 -->
<g id="node3" class="node"><title>Node3</title>
<g id="a_node3"><a xlink:href="class_hydro_couple_1_1_i_description.html" target="_top" xlink:title="IDescription interface class provides descriptive information on a HydroCouple object. ">
<polygon fill="white" stroke="black" points="483.889,-1326.5 483.889,-1420.5 616.608,-1420.5 616.608,-1326.5 483.889,-1326.5"/>
<text text-anchor="middle" x="550.249" y="-1408.5" font-family="Helvetica,sans-Serif" font-size="10.00">HydroCouple::IDescription</text>
<polyline fill="none" stroke="black" points="483.889,-1402.5 616.608,-1402.5 "/>
<text text-anchor="middle" x="550.249" y="-1390.5" font-family="Helvetica,sans-Serif" font-size="10.00"> </text>
<polyline fill="none" stroke="black" points="483.889,-1384.5 616.608,-1384.5 "/>
<text text-anchor="start" x="491.889" y="-1372.5" font-family="Helvetica,sans-Serif" font-size="10.00">+ ~IDescription()</text>
<text text-anchor="start" x="491.889" y="-1362.5" font-family="Helvetica,sans-Serif" font-size="10.00">+ getCaption()</text>
<text text-anchor="start" x="491.889" y="-1352.5" font-family="Helvetica,sans-Serif" font-size="10.00">+ setCaption()</text>
<text text-anchor="start" x="491.889" y="-1342.5" font-family="Helvetica,sans-Serif" font-size="10.00">+ getDescription()</text>
<text text-anchor="start" x="491.889" y="-1332.5" font-family="Helvetica,sans-Serif" font-size="10.00">+ setDescription()</text>
</a>
</g>
</g>
<!-- Node3&#45;&gt;Node2 -->
<g id="edge2" class="edge"><title>Node3&#45;&gt;Node2</title>
<path fill="none" stroke="midnightblue" d="M550.249,-1316.21C550.249,-1307.08 550.249,-1297.93 550.249,-1289.68"/>
<polygon fill="none" stroke="midnightblue" points="546.749,-1316.46 550.249,-1326.46 553.749,-1316.46 546.749,-1316.46"/>
</g>
<!-- Node4 -->
<g id="node4" class="node"><title>Node4</title>
<g id="a_node4"><a xlink:href="class_hydro_couple_1_1_i_property_changed.html" target="_top" xlink:title="IPropertyChanged interface is used to emit signal/event when a property of an object changes...">
<polygon fill="white" stroke="black" points="469.707,-1457.5 469.707,-1511.5 630.79,-1511.5 630.79,-1457.5 469.707,-1457.5"/>
<text text-anchor="middle" x="550.249" y="-1499.5" font-family="Helvetica,sans-Serif" font-size="10.00">HydroCouple::IPropertyChanged</text>
<polyline fill="none" stroke="black" points="469.707,-1493.5 630.79,-1493.5 "/>
<text text-anchor="middle" x="550.249" y="-1481.5" font-family="Helvetica,sans-Serif" font-size="10.00"> </text>
<polyline fill="none" stroke="black" points="469.707,-1475.5 630.79,-1475.5 "/>
<text text-anchor="start" x="477.707" y="-1463.5" font-family="Helvetica,sans-Serif" font-size="10.00">+ ~IPropertyChanged()</text>
</a>
</g>
</g>
<!-- Node4&#45;&gt;Node3 -->
<g id="edge3" class="edge"><title>Node4&#45;&gt;Node3</title>
<path fill="none" stroke="midnightblue" d="M550.249,-1447.14C550.249,-1438.72 550.249,-1429.64 550.249,-1420.85"/>
<polygon fill="none" stroke="midnightblue" points="546.749,-1447.39 550.249,-1457.39 553.749,-1447.39 546.749,-1447.39"/>
</g>
<!-- Node6 -->
<g id="node6" class="node"><title>Node6</title>
<g id="a_node6"><a xlink:href="class_hydro_couple_1_1_spatial_1_1_i_line_string.html" target="_top" xlink:title="An ILineString is a Curve with linear interpolation between Points. Each consecutive pair of Points d...">
<polygon fill="white" stroke="black" points="128,-342.5 128,-426.5 238.497,-426.5 238.497,-342.5 128,-342.5"/>
<text text-anchor="start" x="136" y="-414.5" font-family="Helvetica,sans-Serif" font-size="10.00">HydroCouple::Spatial</text>
<text text-anchor="middle" x="183.249" y="-404.5" font-family="Helvetica,sans-Serif" font-size="10.00">::ILineString</text>
<polyline fill="none" stroke="black" points="128,-398.5 238.497,-398.5 "/>
<text text-anchor="middle" x="183.249" y="-386.5" font-family="Helvetica,sans-Serif" font-size="10.00"> </text>
<polyline fill="none" stroke="black" points="128,-380.5 238.497,-380.5 "/>
<text text-anchor="start" x="136" y="-368.5" font-family="Helvetica,sans-Serif" font-size="10.00">+ ~ILineString()</text>
<text text-anchor="start" x="136" y="-358.5" font-family="Helvetica,sans-Serif" font-size="10.00">+ pointCount()</text>
<text text-anchor="start" x="136" y="-348.5" font-family="Helvetica,sans-Serif" font-size="10.00">+ point()</text>
</a>
</g>
</g>
<!-- Node5&#45;&gt;Node6 -->
<g id="edge5" class="edge"><title>Node5&#45;&gt;Node6</title>
<path fill="none" stroke="midnightblue" d="M236.221,-484.222C225.772,-464.748 214.617,-443.96 205.252,-426.507"/>
<polygon fill="none" stroke="midnightblue" points="233.152,-485.904 240.964,-493.061 239.32,-482.594 233.152,-485.904"/>
</g>
<!-- Node7 -->
<g id="node7" class="node"><title>Node7</title>
<g id="a_node7"><a xlink:href="class_hydro_couple_1_1_spatial_1_1_i_line.html" target="_top" xlink:title="The ILine class is an ILineString with exactly 2 IPoints. ">
<polygon fill="white" stroke="black" points="0,-206.5 0,-270.5 110.497,-270.5 110.497,-206.5 0,-206.5"/>
<text text-anchor="start" x="8" y="-258.5" font-family="Helvetica,sans-Serif" font-size="10.00">HydroCouple::Spatial</text>
<text text-anchor="middle" x="55.2485" y="-248.5" font-family="Helvetica,sans-Serif" font-size="10.00">::ILine</text>
<polyline fill="none" stroke="black" points="0,-242.5 110.497,-242.5 "/>
<text text-anchor="middle" x="55.2485" y="-230.5" font-family="Helvetica,sans-Serif" font-size="10.00"> </text>
<polyline fill="none" stroke="black" points="0,-224.5 110.497,-224.5 "/>
<text text-anchor="start" x="8" y="-212.5" font-family="Helvetica,sans-Serif" font-size="10.00">+ ~ILine()</text>
</a>
</g>
</g>
<!-- Node6&#45;&gt;Node7 -->
<g id="edge6" class="edge"><title>Node6&#45;&gt;Node7</title>
<path fill="none" stroke="midnightblue" d="M139.78,-334.598C120.991,-313.46 99.5608,-289.351 82.9795,-270.697"/>
<polygon fill="none" stroke="midnightblue" points="137.309,-337.087 146.569,-342.235 142.541,-332.436 137.309,-337.087"/>
</g>
<!-- Node9 -->
<g id="node9" class="node"><title>Node9</title>
<g id="a_node9"><a xlink:href="class_hydro_couple_1_1_spatial_1_1_i_linear_ring.html" target="_top" xlink:title="An ILinearRing is an ILineString that is both isClosed() and isSimple(). ">
<polygon fill="white" stroke="black" points="128,-206.5 128,-270.5 238.497,-270.5 238.497,-206.5 128,-206.5"/>
<text text-anchor="start" x="136" y="-258.5" font-family="Helvetica,sans-Serif" font-size="10.00">HydroCouple::Spatial</text>
<text text-anchor="middle" x="183.249" y="-248.5" font-family="Helvetica,sans-Serif" font-size="10.00">::ILinearRing</text>
<polyline fill="none" stroke="black" points="128,-242.5 238.497,-242.5 "/>
<text text-anchor="middle" x="183.249" y="-230.5" font-family="Helvetica,sans-Serif" font-size="10.00"> </text>
<polyline fill="none" stroke="black" points="128,-224.5 238.497,-224.5 "/>
<text text-anchor="start" x="136" y="-212.5" font-family="Helvetica,sans-Serif" font-size="10.00">+ ~ILinearRing()</text>
</a>
</g>
</g>
<!-- Node6&#45;&gt;Node9 -->
<g id="edge8" class="edge"><title>Node6&#45;&gt;Node9</title>
<path fill="none" stroke="midnightblue" d="M183.249,-332.081C183.249,-311.565 183.249,-288.615 183.249,-270.697"/>
<polygon fill="none" stroke="midnightblue" points="179.749,-332.235 183.249,-342.235 186.749,-332.235 179.749,-332.235"/>
</g>
<!-- Node8 -->
<g id="node8" class="node"><title>Node8</title>
<g id="a_node8"><a xlink:href="class_hydro_couple_1_1_spatial_1_1_i_edge.html" target="_top" xlink:title="A directed edge from one vertex to another, adjacent to two faces. Based on Dani Lischinski&#39;s code fr...">
<polygon fill="white" stroke="black" points="0,-0.5 0,-164.5 110.497,-164.5 110.497,-0.5 0,-0.5"/>
<text text-anchor="start" x="8" y="-152.5" font-family="Helvetica,sans-Serif" font-size="10.00">HydroCouple::Spatial</text>
<text text-anchor="middle" x="55.2485" y="-142.5" font-family="Helvetica,sans-Serif" font-size="10.00">::IEdge</text>
<polyline fill="none" stroke="black" points="0,-136.5 110.497,-136.5 "/>
<text text-anchor="middle" x="55.2485" y="-124.5" font-family="Helvetica,sans-Serif" font-size="10.00"> </text>
<polyline fill="none" stroke="black" points="0,-118.5 110.497,-118.5 "/>
<text text-anchor="start" x="8" y="-106.5" font-family="Helvetica,sans-Serif" font-size="10.00">+ ~IEdge()</text>
<text text-anchor="start" x="8" y="-96.5" font-family="Helvetica,sans-Serif" font-size="10.00">+ id()</text>
<text text-anchor="start" x="8" y="-86.5" font-family="Helvetica,sans-Serif" font-size="10.00">+ setId()</text>
<text text-anchor="start" x="8" y="-76.5" font-family="Helvetica,sans-Serif" font-size="10.00">+ orig()</text>
<text text-anchor="start" x="8" y="-66.5" font-family="Helvetica,sans-Serif" font-size="10.00">+ setOrig()</text>
<text text-anchor="start" x="8" y="-56.5" font-family="Helvetica,sans-Serif" font-size="10.00">+ dest()</text>
<text text-anchor="start" x="8" y="-46.5" font-family="Helvetica,sans-Serif" font-size="10.00">+ setDest()</text>
<text text-anchor="start" x="8" y="-36.5" font-family="Helvetica,sans-Serif" font-size="10.00">+ left()</text>
<text text-anchor="start" x="8" y="-26.5" font-family="Helvetica,sans-Serif" font-size="10.00">+ right()</text>
<text text-anchor="start" x="8" y="-16.5" font-family="Helvetica,sans-Serif" font-size="10.00">+ setLeft()</text>
<text text-anchor="start" x="8" y="-6.5" font-family="Helvetica,sans-Serif" font-size="10.00">and 12 more...</text>
</a>
</g>
</g>
<!-- Node7&#45;&gt;Node8 -->
<g id="edge7" class="edge"><title>Node7&#45;&gt;Node8</title>
<path fill="none" stroke="midnightblue" d="M55.2485,-196.13C55.2485,-186.329 55.2485,-175.54 55.2485,-164.64"/>
<polygon fill="none" stroke="midnightblue" points="51.7486,-196.336 55.2485,-206.336 58.7486,-196.336 51.7486,-196.336"/>
</g>
<!-- Node11 -->
<g id="node11" class="node"><title>Node11</title>
<g id="a_node11"><a xlink:href="class_hydro_couple_1_1_spatial_1_1_i_multi_curve.html" target="_top" xlink:title="An IMultiCurve is a 1&#45;dimensional IGeometryCollection whose elements are ICurves. ...">
<polygon fill="white" stroke="black" points="256,-342.5 256,-426.5 366.497,-426.5 366.497,-342.5 256,-342.5"/>
<text text-anchor="start" x="264" y="-414.5" font-family="Helvetica,sans-Serif" font-size="10.00">HydroCouple::Spatial</text>
<text text-anchor="middle" x="311.249" y="-404.5" font-family="Helvetica,sans-Serif" font-size="10.00">::IMultiCurve</text>
<polyline fill="none" stroke="black" points="256,-398.5 366.497,-398.5 "/>
<text text-anchor="middle" x="311.249" y="-386.5" font-family="Helvetica,sans-Serif" font-size="10.00"> </text>
<polyline fill="none" stroke="black" points="256,-380.5 366.497,-380.5 "/>
<text text-anchor="start" x="264" y="-368.5" font-family="Helvetica,sans-Serif" font-size="10.00">+ ~IMultiCurve()</text>
<text text-anchor="start" x="264" y="-358.5" font-family="Helvetica,sans-Serif" font-size="10.00">+ isClosed()</text>
<text text-anchor="start" x="264" y="-348.5" font-family="Helvetica,sans-Serif" font-size="10.00">+ length()</text>
</a>
</g>
</g>
<!-- Node10&#45;&gt;Node11 -->
<g id="edge10" class="edge"><title>Node10&#45;&gt;Node11</title>
<path fill="none" stroke="midnightblue" d="M417.923,-500.867C403.974,-486.855 388.883,-471.449 375.249,-457 366.102,-447.307 356.422,-436.689 347.435,-426.672"/>
<polygon fill="none" stroke="midnightblue" points="415.558,-503.451 425.1,-508.055 420.511,-498.505 415.558,-503.451"/>
</g>
<!-- Node13 -->
<g id="node13" class="node"><title>Node13</title>
<g id="a_node13"><a xlink:href="class_hydro_couple_1_1_spatial_1_1_i_multi_point.html" target="_top" xlink:title="An IMultiPoint is a 0&#45;dimensional IGeometryCollection. ">
<polygon fill="white" stroke="black" points="384,-347.5 384,-421.5 494.497,-421.5 494.497,-347.5 384,-347.5"/>
<text text-anchor="start" x="392" y="-409.5" font-family="Helvetica,sans-Serif" font-size="10.00">HydroCouple::Spatial</text>
<text text-anchor="middle" x="439.249" y="-399.5" font-family="Helvetica,sans-Serif" font-size="10.00">::IMultiPoint</text>
<polyline fill="none" stroke="black" points="384,-393.5 494.497,-393.5 "/>
<text text-anchor="middle" x="439.249" y="-381.5" font-family="Helvetica,sans-Serif" font-size="10.00"> </text>
<polyline fill="none" stroke="black" points="384,-375.5 494.497,-375.5 "/>
<text text-anchor="start" x="392" y="-363.5" font-family="Helvetica,sans-Serif" font-size="10.00">+ ~IMultiPoint()</text>
<text text-anchor="start" x="392" y="-353.5" font-family="Helvetica,sans-Serif" font-size="10.00">+ point()</text>
</a>
</g>
</g>
<!-- Node10&#45;&gt;Node13 -->
<g id="edge12" class="edge"><title>Node10&#45;&gt;Node13</title>
<path fill="none" stroke="midnightblue" d="M458.477,-498.121C454.233,-473.266 449.241,-444.028 445.407,-421.573"/>
<polygon fill="none" stroke="midnightblue" points="455.05,-498.848 460.183,-508.116 461.95,-497.669 455.05,-498.848"/>
</g>
<!-- Node14 -->
<g id="node14" class="node"><title>Node14</title>
<g id="a_node14"><a xlink:href="class_hydro_couple_1_1_spatial_1_1_i_multi_surface.html" target="_top" xlink:title="A MultiSurface is a 2&#45;dimensional GeometryCollection whose elements are Surfaces, all using coordinat...">
<polygon fill="white" stroke="black" points="512,-337.5 512,-431.5 622.497,-431.5 622.497,-337.5 512,-337.5"/>
<text text-anchor="start" x="520" y="-419.5" font-family="Helvetica,sans-Serif" font-size="10.00">HydroCouple::Spatial</text>
<text text-anchor="middle" x="567.249" y="-409.5" font-family="Helvetica,sans-Serif" font-size="10.00">::IMultiSurface</text>
<polyline fill="none" stroke="black" points="512,-403.5 622.497,-403.5 "/>
<text text-anchor="middle" x="567.249" y="-391.5" font-family="Helvetica,sans-Serif" font-size="10.00"> </text>
<polyline fill="none" stroke="black" points="512,-385.5 622.497,-385.5 "/>
<text text-anchor="start" x="520" y="-373.5" font-family="Helvetica,sans-Serif" font-size="10.00">+ ~IMultiSurface()</text>
<text text-anchor="start" x="520" y="-363.5" font-family="Helvetica,sans-Serif" font-size="10.00">+ area()</text>
<text text-anchor="start" x="520" y="-353.5" font-family="Helvetica,sans-Serif" font-size="10.00">+ centroid()</text>
<text text-anchor="start" x="520" y="-343.5" font-family="Helvetica,sans-Serif" font-size="10.00">+ pointOnSurface()</text>
</a>
</g>
</g>
<!-- Node10&#45;&gt;Node14 -->
<g id="edge13" class="edge"><title>Node10&#45;&gt;Node14</title>
<path fill="none" stroke="midnightblue" d="M497.777,-499.433C510.907,-477.901 526.159,-452.886 539.023,-431.79"/>
<polygon fill="none" stroke="midnightblue" points="494.701,-497.756 492.483,-508.116 500.677,-501.4 494.701,-497.756"/>
</g>
<!-- Node12 -->
<g id="node12" class="node"><title>Node12</title>
<g id="a_node12"><a xlink:href="class_hydro_couple_1_1_spatial_1_1_i_multi_line_string.html" target="_top" xlink:title="An IMultiLineString is an IMultiCurve whose elements are ILineStrings. ">
<polygon fill="white" stroke="black" points="256,-201.5 256,-275.5 366.497,-275.5 366.497,-201.5 256,-201.5"/>
<text text-anchor="start" x="264" y="-263.5" font-family="Helvetica,sans-Serif" font-size="10.00">HydroCouple::Spatial</text>
<text text-anchor="middle" x="311.249" y="-253.5" font-family="Helvetica,sans-Serif" font-size="10.00">::IMultiLineString</text>
<polyline fill="none" stroke="black" points="256,-247.5 366.497,-247.5 "/>
<text text-anchor="middle" x="311.249" y="-235.5" font-family="Helvetica,sans-Serif" font-size="10.00"> </text>
<polyline fill="none" stroke="black" points="256,-229.5 366.497,-229.5 "/>
<text text-anchor="start" x="264" y="-217.5" font-family="Helvetica,sans-Serif" font-size="10.00">+ ~IMultiLineString()</text>
<text text-anchor="start" x="264" y="-207.5" font-family="Helvetica,sans-Serif" font-size="10.00">+ element()</text>
</a>
</g>
</g>
<!-- Node11&#45;&gt;Node12 -->
<g id="edge11" class="edge"><title>Node11&#45;&gt;Node12</title>
<path fill="none" stroke="midnightblue" d="M311.249,-332.141C311.249,-313.535 311.249,-292.92 311.249,-275.869"/>
<polygon fill="none" stroke="midnightblue" points="307.749,-332.235 311.249,-342.235 314.749,-332.235 307.749,-332.235"/>
</g>
<!-- Node15 -->
<g id="node15" class="node"><title>Node15</title>
<g id="a_node15"><a xlink:href="class_hydro_couple_1_1_spatial_1_1_i_multi_polygon.html" target="_top" xlink:title="An IMultiPolygon is an IMultiSurface whose elements are IPolygons. ">
<polygon fill="white" stroke="black" points="512,-201.5 512,-275.5 622.497,-275.5 622.497,-201.5 512,-201.5"/>
<text text-anchor="start" x="520" y="-263.5" font-family="Helvetica,sans-Serif" font-size="10.00">HydroCouple::Spatial</text>
<text text-anchor="middle" x="567.249" y="-253.5" font-family="Helvetica,sans-Serif" font-size="10.00">::IMultiPolygon</text>
<polyline fill="none" stroke="black" points="512,-247.5 622.497,-247.5 "/>
<text text-anchor="middle" x="567.249" y="-235.5" font-family="Helvetica,sans-Serif" font-size="10.00"> </text>
<polyline fill="none" stroke="black" points="512,-229.5 622.497,-229.5 "/>
<text text-anchor="start" x="520" y="-217.5" font-family="Helvetica,sans-Serif" font-size="10.00">+ ~IMultiPolygon()</text>
<text text-anchor="start" x="520" y="-207.5" font-family="Helvetica,sans-Serif" font-size="10.00">+ element()</text>
</a>
</g>
</g>
<!-- Node14&#45;&gt;Node15 -->
<g id="edge14" class="edge"><title>Node14&#45;&gt;Node15</title>
<path fill="none" stroke="midnightblue" d="M567.249,-327.141C567.249,-309.848 567.249,-291.291 567.249,-275.724"/>
<polygon fill="none" stroke="midnightblue" points="563.749,-327.145 567.249,-337.145 570.749,-327.145 563.749,-327.145"/>
</g>
<!-- Node17 -->
<g id="node17" class="node"><title>Node17</title>
<g id="a_node17"><a xlink:href="class_hydro_couple_1_1_spatial_1_1_i_vertex.html" target="_top" xlink:title="The IVertex class is an IPoint of a topologically aware IGeometry. ">
<polygon fill="white" stroke="black" points="640,-337.5 640,-431.5 750.497,-431.5 750.497,-337.5 640,-337.5"/>
<text text-anchor="start" x="648" y="-419.5" font-family="Helvetica,sans-Serif" font-size="10.00">HydroCouple::Spatial</text>
<text text-anchor="middle" x="695.249" y="-409.5" font-family="Helvetica,sans-Serif" font-size="10.00">::IVertex</text>
<polyline fill="none" stroke="black" points="640,-403.5 750.497,-403.5 "/>
<text text-anchor="middle" x="695.249" y="-391.5" font-family="Helvetica,sans-Serif" font-size="10.00"> </text>
<polyline fill="none" stroke="black" points="640,-385.5 750.497,-385.5 "/>
<text text-anchor="start" x="648" y="-373.5" font-family="Helvetica,sans-Serif" font-size="10.00">+ ~IVertex()</text>
<text text-anchor="start" x="648" y="-363.5" font-family="Helvetica,sans-Serif" font-size="10.00">+ edge()</text>
<text text-anchor="start" x="648" y="-353.5" font-family="Helvetica,sans-Serif" font-size="10.00">+ addEdge()</text>
<text text-anchor="start" x="648" y="-343.5" font-family="Helvetica,sans-Serif" font-size="10.00">+ removeEdge()</text>
</a>
</g>
</g>
<!-- Node16&#45;&gt;Node17 -->
<g id="edge16" class="edge"><title>Node16&#45;&gt;Node17</title>
<path fill="none" stroke="midnightblue" d="M656.243,-488.675C663.36,-469.85 671.082,-449.425 677.762,-431.754"/>
<polygon fill="none" stroke="midnightblue" points="652.958,-487.468 652.696,-498.059 659.506,-489.943 652.958,-487.468"/>
</g>
<!-- Node19 -->
<g id="node19" class="node"><title>Node19</title>
<g id="a_node19"><a xlink:href="class_hydro_couple_1_1_spatial_1_1_i_polygon.html" target="_top" xlink:title="A IPolygon is a planar ISurface defined by 1 exterior boundary and 0 or more interior boundaries...">
<polygon fill="white" stroke="black" points="768.587,-317.5 768.587,-451.5 879.91,-451.5 879.91,-317.5 768.587,-317.5"/>
<text text-anchor="start" x="776.587" y="-439.5" font-family="Helvetica,sans-Serif" font-size="10.00">HydroCouple::Spatial</text>
<text text-anchor="middle" x="824.249" y="-429.5" font-family="Helvetica,sans-Serif" font-size="10.00">::IPolygon</text>
<polyline fill="none" stroke="black" points="768.587,-423.5 879.91,-423.5 "/>
<text text-anchor="middle" x="824.249" y="-411.5" font-family="Helvetica,sans-Serif" font-size="10.00"> </text>
<polyline fill="none" stroke="black" points="768.587,-405.5 879.91,-405.5 "/>
<text text-anchor="start" x="776.587" y="-393.5" font-family="Helvetica,sans-Serif" font-size="10.00">+ ~IPolygon()</text>
<text text-anchor="start" x="776.587" y="-383.5" font-family="Helvetica,sans-Serif" font-size="10.00">+ exteriorRing()</text>
<text text-anchor="start" x="776.587" y="-373.5" font-family="Helvetica,sans-Serif" font-size="10.00">+ interiorRingCount()</text>
<text text-anchor="start" x="776.587" y="-363.5" font-family="Helvetica,sans-Serif" font-size="10.00">+ interiorRing()</text>
<text text-anchor="start" x="776.587" y="-353.5" font-family="Helvetica,sans-Serif" font-size="10.00">+ edge()</text>
<text text-anchor="start" x="776.587" y="-343.5" font-family="Helvetica,sans-Serif" font-size="10.00">+ addEdge()</text>
<text text-anchor="start" x="776.587" y="-333.5" font-family="Helvetica,sans-Serif" font-size="10.00">+ removeEdge()</text>
<text text-anchor="start" x="776.587" y="-323.5" font-family="Helvetica,sans-Serif" font-size="10.00">+ polyhydralSurface()</text>
</a>
</g>
</g>
<!-- Node18&#45;&gt;Node19 -->
<g id="edge18" class="edge"><title>Node18&#45;&gt;Node19</title>
<path fill="none" stroke="midnightblue" d="M824.249,-487.825C824.249,-475.972 824.249,-463.513 824.249,-451.528"/>
<polygon fill="none" stroke="midnightblue" points="820.749,-488.059 824.249,-498.059 827.749,-488.059 820.749,-488.059"/>
</g>
<!-- Node21 -->
<g id="node21" class="node"><title>Node21</title>
<g id="a_node21"><a xlink:href="class_hydro_couple_1_1_spatial_1_1_i_polyhedral_surface.html" target="_top" xlink:title="An IPolyhedralSurface is a contiguous collection of polygons, which share common boundary segments...">
<polygon fill="white" stroke="black" points="897.443,-312.5 897.443,-456.5 1019.05,-456.5 1019.05,-312.5 897.443,-312.5"/>
<text text-anchor="start" x="905.443" y="-444.5" font-family="Helvetica,sans-Serif" font-size="10.00">HydroCouple::Spatial</text>
<text text-anchor="middle" x="958.249" y="-434.5" font-family="Helvetica,sans-Serif" font-size="10.00">::IPolyhedralSurface</text>
<polyline fill="none" stroke="black" points="897.443,-428.5 1019.05,-428.5 "/>
<text text-anchor="middle" x="958.249" y="-416.5" font-family="Helvetica,sans-Serif" font-size="10.00"> </text>
<polyline fill="none" stroke="black" points="897.443,-410.5 1019.05,-410.5 "/>
<text text-anchor="start" x="905.443" y="-398.5" font-family="Helvetica,sans-Serif" font-size="10.00">+ ~IPolyhedralSurface()</text>
<text text-anchor="start" x="905.443" y="-388.5" font-family="Helvetica,sans-Serif" font-size="10.00">+ patchCount()</text>
<text text-anchor="start" x="905.443" y="-378.5" font-family="Helvetica,sans-Serif" font-size="10.00">+ patch()</text>
<text text-anchor="start" x="905.443" y="-368.5" font-family="Helvetica,sans-Serif" font-size="10.00">+ boundingPolygons()</text>
<text text-anchor="start" x="905.443" y="-358.5" font-family="Helvetica,sans-Serif" font-size="10.00">+ isClosed()</text>
<text text-anchor="start" x="905.443" y="-348.5" font-family="Helvetica,sans-Serif" font-size="10.00">+ makeVertexEdge()</text>
<text text-anchor="start" x="905.443" y="-338.5" font-family="Helvetica,sans-Serif" font-size="10.00">+ deleteVertexEdge()</text>
<text text-anchor="start" x="905.443" y="-328.5" font-family="Helvetica,sans-Serif" font-size="10.00">+ makeFaceEdge()</text>
<text text-anchor="start" x="905.443" y="-318.5" font-family="Helvetica,sans-Serif" font-size="10.00">+ deleteFaceEdge()</text>
</a>
</g>
</g>
<!-- Node18&#45;&gt;Node21 -->
<g id="edge20" class="edge"><title>Node18&#45;&gt;Node21</title>
<path fill="none" stroke="midnightblue" d="M872.68,-490.226C881.599,-479.309 890.996,-467.809 900.165,-456.587"/>
<polygon fill="none" stroke="midnightblue" points="869.896,-488.101 866.279,-498.059 875.317,-492.53 869.896,-488.101"/>
</g>
<!-- Node20 -->
<g id="node20" class="node"><title>Node20</title>
<g id="a_node20"><a xlink:href="class_hydro_couple_1_1_spatial_1_1_i_triangle.html" target="_top" xlink:title="An ITriangle is a IPolygon with 3 distinct, non&#45;collinear vertices and no interior boundary...">
<polygon fill="white" stroke="black" points="769,-206.5 769,-270.5 879.497,-270.5 879.497,-206.5 769,-206.5"/>
<text text-anchor="start" x="777" y="-258.5" font-family="Helvetica,sans-Serif" font-size="10.00">HydroCouple::Spatial</text>
<text text-anchor="middle" x="824.249" y="-248.5" font-family="Helvetica,sans-Serif" font-size="10.00">::ITriangle</text>
<polyline fill="none" stroke="black" points="769,-242.5 879.497,-242.5 "/>
<text text-anchor="middle" x="824.249" y="-230.5" font-family="Helvetica,sans-Serif" font-size="10.00"> </text>
<polyline fill="none" stroke="black" points="769,-224.5 879.497,-224.5 "/>
<text text-anchor="start" x="777" y="-212.5" font-family="Helvetica,sans-Serif" font-size="10.00">+ ~ITriangle()</text>
</a>
</g>
</g>
<!-- Node19&#45;&gt;Node20 -->
<g id="edge19" class="edge"><title>Node19&#45;&gt;Node20</title>
<path fill="none" stroke="midnightblue" d="M824.249,-307.085C824.249,-294.233 824.249,-281.569 824.249,-270.74"/>
<polygon fill="none" stroke="midnightblue" points="820.749,-307.4 824.249,-317.4 827.749,-307.4 820.749,-307.4"/>
</g>
<!-- Node22 -->
<g id="node22" class="node"><title>Node22</title>
<g id="a_node22"><a xlink:href="class_hydro_couple_1_1_spatial_1_1_i_t_i_n.html" target="_top" xlink:title="An ITIN is a triangulated irregular network IPolyhedralSurface consisting only of ITriangle patches...">
<polygon fill="white" stroke="black" points="903,-201.5 903,-275.5 1013.5,-275.5 1013.5,-201.5 903,-201.5"/>
<text text-anchor="start" x="911" y="-263.5" font-family="Helvetica,sans-Serif" font-size="10.00">HydroCouple::Spatial</text>
<text text-anchor="middle" x="958.249" y="-253.5" font-family="Helvetica,sans-Serif" font-size="10.00">::ITIN</text>
<polyline fill="none" stroke="black" points="903,-247.5 1013.5,-247.5 "/>
<text text-anchor="middle" x="958.249" y="-235.5" font-family="Helvetica,sans-Serif" font-size="10.00"> </text>
<polyline fill="none" stroke="black" points="903,-229.5 1013.5,-229.5 "/>
<text text-anchor="start" x="911" y="-217.5" font-family="Helvetica,sans-Serif" font-size="10.00">+ ~ITIN()</text>
<text text-anchor="start" x="911" y="-207.5" font-family="Helvetica,sans-Serif" font-size="10.00">+ patch()</text>
</a>
</g>
</g>
<!-- Node21&#45;&gt;Node22 -->
<g id="edge21" class="edge"><title>Node21&#45;&gt;Node22</title>
<path fill="none" stroke="midnightblue" d="M958.249,-302.203C958.249,-292.905 958.249,-283.818 958.249,-275.576"/>
<polygon fill="none" stroke="midnightblue" points="954.749,-302.344 958.249,-312.344 961.749,-302.344 954.749,-302.344"/>
</g>
</g>
</svg>
        <g id="navigator" transform="translate(0 0)" fill="#404254">
                <rect fill="#f2f5e9" fill-opacity="0.5" stroke="#606060" stroke-width=".5" x="0" y="0" width="60" height="60"/>
                <use id="zoomplus" xlink:href="#zoomPlus" x="17" y="9" onmousedown="handleZoom(evt,'in')"/>
                <use id="zoomminus" xlink:href="#zoomMin" x="42" y="9" onmousedown="handleZoom(evt,'out')"/>
                <use id="reset" xlink:href="#resetDef" x="30" y="36" onmousedown="handleReset()"/>
                <g id="arrowUp" xlink:href="#dirArrow" transform="translate(30 24)" onmousedown="handlePan(0,-1)">
                  <use xlink:href="#rim" fill="#404040">
                        <set attributeName="fill" to="#808080" begin="arrowUp.mouseover" end="arrowUp.mouseout"/>
                  </use>
                  <path fill="none" stroke="white" stroke-width="1.5" d="M0,-3.0v7 M-2.5,-0.5L0,-3.0L2.5,-0.5"/>
                </g>
                <g id="arrowRight" xlink:href="#dirArrow" transform="rotate(90) translate(36 -43)" onmousedown="handlePan(1,0)">
                  <use xlink:href="#rim" fill="#404040">
                        <set attributeName="fill" to="#808080" begin="arrowRight.mouseover" end="arrowRight.mouseout"/>
                  </use>
                  <path fill="none" stroke="white" stroke-width="1.5" d="M0,-3.0v7 M-2.5,-0.5L0,-3.0L2.5,-0.5"/>
                </g>
                <g id="arrowDown" xlink:href="#dirArrow" transform="rotate(180) translate(-30 -48)" onmousedown="handlePan(0,1)">
                  <use xlink:href="#rim" fill="#404040">
                        <set attributeName="fill" to="#808080" begin="arrowDown.mouseover" end="arrowDown.mouseout"/>
                  </use>
                  <path fill="none" stroke="white" stroke-width="1.5" d="M0,-3.0v7 M-2.5,-0.5L0,-3.0L2.5,-0.5"/>
                </g>
                <g id="arrowLeft" xlink:href="#dirArrow" transform="rotate(270) translate(-36 17)" onmousedown="handlePan(-1,0)">
                  <use xlink:href="#rim" fill="#404040">
                        <set attributeName="fill" to="#808080" begin="arrowLeft.mouseover" end="arrowLeft.mouseout"/>
                  </use>
                  <path fill="none" stroke="white" stroke-width="1.5" d="M0,-3.0v7 M-2.5,-0.5L0,-3.0L2.5,-0.5"/>
                </g>
        </g>
        <svg viewBox="0 0 15 15" width="100%" height="30px" preserveAspectRatio="xMaxYMin meet">
         <g id="arrow_out" transform="scale(0.3 0.3)">
          <a xlink:href="class_hydro_couple_1_1_spatial_1_1_i_geometry__inherit__graph_org.svg" target="_base">
           <rect id="button" ry="5" rx="5" y="6" x="6" height="38" width="38"
                fill="#f2f5e9" fill-opacity="0.5" stroke="#606060" stroke-width="1.0"/>
           <path id="arrow"
             d="M 11.500037,31.436501 C 11.940474,20.09759 22.043105,11.32322 32.158766,21.979434 L 37.068811,17.246167 C 37.068811,17.246167 37.088388,32 37.088388,32 L 22.160133,31.978069 C 22.160133,31.978069 26.997745,27.140456 26.997745,27.140456 C 18.528582,18.264221 13.291696,25.230495 11.500037,31.436501 z"
             style="fill:#404040;"/>
          </a>
         </g>
        </svg>
</svg>
