<?xml version="1.0" encoding="UTF-8" standalone="no"?>
<!DOCTYPE svg PUBLIC "-//W3C//DTD SVG 1.1//EN"
 "http://www.w3.org/Graphics/SVG/1.1/DTD/svg11.dtd">
<!-- Generated by graphviz version 2.38.0 (20140413.2041)
 -->
<!-- Title: HydroCouple::Spatial::I2DRegularGrid Pages: 1 -->
<svg width="169pt" height="587pt"
 viewBox="0.00 0.00 169.08 587.00" xmlns="http://www.w3.org/2000/svg" xmlns:xlink="http://www.w3.org/1999/xlink">
<g id="graph0" class="graph" transform="scale(1 1) rotate(0) translate(4 583)">
<title>HydroCouple::Spatial::I2DRegularGrid</title>
<polygon fill="white" stroke="none" points="-4,4 -4,-583 165.083,-583 165.083,4 -4,4"/>
<!-- Node1 -->
<g id="node1" class="node"><title>Node1</title>
<polygon fill="#bfbfbf" stroke="black" points="25.293,-131.5 25.293,-255.5 135.79,-255.5 135.79,-131.5 25.293,-131.5"/>
<text text-anchor="start" x="33.293" y="-243.5" font-family="Helvetica,sans-Serif" font-size="10.00">HydroCouple::Spatial</text>
<text text-anchor="middle" x="80.5415" y="-233.5" font-family="Helvetica,sans-Serif" font-size="10.00">::I2DRegularGrid</text>
<polyline fill="none" stroke="black" points="25.293,-227.5 135.79,-227.5 "/>
<text text-anchor="middle" x="80.5415" y="-215.5" font-family="Helvetica,sans-Serif" font-size="10.00"> </text>
<polyline fill="none" stroke="black" points="25.293,-209.5 135.79,-209.5 "/>
<text text-anchor="start" x="33.293" y="-197.5" font-family="Helvetica,sans-Serif" font-size="10.00">+ ~I2DRegularGrid()</text>
<text text-anchor="start" x="33.293" y="-187.5" font-family="Helvetica,sans-Serif" font-size="10.00">+ gridType()</text>
<text text-anchor="start" x="33.293" y="-177.5" font-family="Helvetica,sans-Serif" font-size="10.00">+ numXNodes()</text>
<text text-anchor="start" x="33.293" y="-167.5" font-family="Helvetica,sans-Serif" font-size="10.00">+ numYNodes()</text>
<text text-anchor="start" x="33.293" y="-157.5" font-family="Helvetica,sans-Serif" font-size="10.00">+ xNodeLocation()</text>
<text text-anchor="start" x="33.293" y="-147.5" font-family="Helvetica,sans-Serif" font-size="10.00">+ yNodeLocation()</text>
<text text-anchor="start" x="33.293" y="-137.5" font-family="Helvetica,sans-Serif" font-size="10.00">+ isActive()</text>
</g>
<!-- Node5 -->
<g id="node5" class="node"><title>Node5</title>
<g id="a_node5"><a xlink:href="class_hydro_couple_1_1_spatial_1_1_i3_d_regular_grid.html" target="_top" xlink:title="The I3DRegularGrid class. ">
<polygon fill="white" stroke="black" points="25.293,-0.5 25.293,-94.5 135.79,-94.5 135.79,-0.5 25.293,-0.5"/>
<text text-anchor="start" x="33.293" y="-82.5" font-family="Helvetica,sans-Serif" font-size="10.00">HydroCouple::Spatial</text>
<text text-anchor="middle" x="80.5415" y="-72.5" font-family="Helvetica,sans-Serif" font-size="10.00">::I3DRegularGrid</text>
<polyline fill="none" stroke="black" points="25.293,-66.5 135.79,-66.5 "/>
<text text-anchor="middle" x="80.5415" y="-54.5" font-family="Helvetica,sans-Serif" font-size="10.00"> </text>
<polyline fill="none" stroke="black" points="25.293,-48.5 135.79,-48.5 "/>
<text text-anchor="start" x="33.293" y="-36.5" font-family="Helvetica,sans-Serif" font-size="10.00">+ ~I3DRegularGrid()</text>
<text text-anchor="start" x="33.293" y="-26.5" font-family="Helvetica,sans-Serif" font-size="10.00">+ numZNodes()</text>
<text text-anchor="start" x="33.293" y="-16.5" font-family="Helvetica,sans-Serif" font-size="10.00">+ zNodeLocation()</text>
<text text-anchor="start" x="33.293" y="-6.5" font-family="Helvetica,sans-Serif" font-size="10.00">+ isActive()</text>
</a>
</g>
</g>
<!-- Node1&#45;&gt;Node5 -->
<g id="edge4" class="edge"><title>Node1&#45;&gt;Node5</title>
<path fill="none" stroke="midnightblue" d="M80.5415,-121.303C80.5415,-112.299 80.5415,-103.279 80.5415,-94.8055"/>
<polygon fill="none" stroke="midnightblue" points="77.0416,-121.431 80.5415,-131.431 84.0416,-121.431 77.0416,-121.431"/>
</g>
<!-- Node2 -->
<g id="node2" class="node"><title>Node2</title>
<g id="a_node2"><a xlink:href="class_hydro_couple_1_1_i_identity.html" target="_top" xlink:title="IIdentity interface class defines a method to get the Id of an HydroCouple entity. ">
<polygon fill="white" stroke="black" points="23.0713,-292.5 23.0713,-356.5 138.012,-356.5 138.012,-292.5 23.0713,-292.5"/>
<text text-anchor="middle" x="80.5415" y="-344.5" font-family="Helvetica,sans-Serif" font-size="10.00">HydroCouple::IIdentity</text>
<polyline fill="none" stroke="black" points="23.0713,-338.5 138.012,-338.5 "/>
<text text-anchor="middle" x="80.5415" y="-326.5" font-family="Helvetica,sans-Serif" font-size="10.00"> </text>
<polyline fill="none" stroke="black" points="23.0713,-320.5 138.012,-320.5 "/>
<text text-anchor="start" x="31.0713" y="-308.5" font-family="Helvetica,sans-Serif" font-size="10.00">+ ~IIdentity()</text>
<text text-anchor="start" x="31.0713" y="-298.5" font-family="Helvetica,sans-Serif" font-size="10.00">+ id()</text>
</a>
</g>
</g>
<!-- Node2&#45;&gt;Node1 -->
<g id="edge1" class="edge"><title>Node2&#45;&gt;Node1</title>
<path fill="none" stroke="midnightblue" d="M80.5415,-282.022C80.5415,-273.637 80.5415,-264.654 80.5415,-255.753"/>
<polygon fill="none" stroke="midnightblue" points="77.0416,-282.273 80.5415,-292.273 84.0416,-282.273 77.0416,-282.273"/>
</g>
<!-- Node3 -->
<g id="node3" class="node"><title>Node3</title>
<g id="a_node3"><a xlink:href="class_hydro_couple_1_1_i_description.html" target="_top" xlink:title="IDescription interface class provides descriptive information on a HydroCouple object. ">
<polygon fill="white" stroke="black" points="14.1821,-393.5 14.1821,-487.5 146.901,-487.5 146.901,-393.5 14.1821,-393.5"/>
<text text-anchor="middle" x="80.5415" y="-475.5" font-family="Helvetica,sans-Serif" font-size="10.00">HydroCouple::IDescription</text>
<polyline fill="none" stroke="black" points="14.1821,-469.5 146.901,-469.5 "/>
<text text-anchor="middle" x="80.5415" y="-457.5" font-family="Helvetica,sans-Serif" font-size="10.00"> </text>
<polyline fill="none" stroke="black" points="14.1821,-451.5 146.901,-451.5 "/>
<text text-anchor="start" x="22.1821" y="-439.5" font-family="Helvetica,sans-Serif" font-size="10.00">+ ~IDescription()</text>
<text text-anchor="start" x="22.1821" y="-429.5" font-family="Helvetica,sans-Serif" font-size="10.00">+ getCaption()</text>
<text text-anchor="start" x="22.1821" y="-419.5" font-family="Helvetica,sans-Serif" font-size="10.00">+ setCaption()</text>
<text text-anchor="start" x="22.1821" y="-409.5" font-family="Helvetica,sans-Serif" font-size="10.00">+ getDescription()</text>
<text text-anchor="start" x="22.1821" y="-399.5" font-family="Helvetica,sans-Serif" font-size="10.00">+ setDescription()</text>
</a>
</g>
</g>
<!-- Node3&#45;&gt;Node2 -->
<g id="edge2" class="edge"><title>Node3&#45;&gt;Node2</title>
<path fill="none" stroke="midnightblue" d="M80.5415,-383.212C80.5415,-374.081 80.5415,-364.926 80.5415,-356.684"/>
<polygon fill="none" stroke="midnightblue" points="77.0416,-383.46 80.5415,-393.46 84.0416,-383.46 77.0416,-383.46"/>
</g>
<!-- Node4 -->
<g id="node4" class="node"><title>Node4</title>
<g id="a_node4"><a xlink:href="class_hydro_couple_1_1_i_property_changed.html" target="_top" xlink:title="IPropertyChanged interface is used to emit signal/event when a property of an object changes...">
<polygon fill="white" stroke="black" points="0,-524.5 0,-578.5 161.083,-578.5 161.083,-524.5 0,-524.5"/>
<text text-anchor="middle" x="80.5415" y="-566.5" font-family="Helvetica,sans-Serif" font-size="10.00">HydroCouple::IPropertyChanged</text>
<polyline fill="none" stroke="black" points="0,-560.5 161.083,-560.5 "/>
<text text-anchor="middle" x="80.5415" y="-548.5" font-family="Helvetica,sans-Serif" font-size="10.00"> </text>
<polyline fill="none" stroke="black" points="0,-542.5 161.083,-542.5 "/>
<text text-anchor="start" x="8" y="-530.5" font-family="Helvetica,sans-Serif" font-size="10.00">+ ~IPropertyChanged()</text>
</a>
</g>
</g>
<!-- Node4&#45;&gt;Node3 -->
<g id="edge3" class="edge"><title>Node4&#45;&gt;Node3</title>
<path fill="none" stroke="midnightblue" d="M80.5415,-514.141C80.5415,-505.716 80.5415,-496.639 80.5415,-487.851"/>
<polygon fill="none" stroke="midnightblue" points="77.0416,-514.392 80.5415,-524.392 84.0416,-514.392 77.0416,-514.392"/>
</g>
</g>
</svg>
