<?xml version="1.0" encoding="UTF-8" standalone="no"?>
<!DOCTYPE svg PUBLIC "-//W3C//DTD SVG 1.1//EN"
 "http://www.w3.org/Graphics/SVG/1.1/DTD/svg11.dtd">
<!-- Generated by graphviz version 2.38.0 (20140413.2041)
 -->
<!-- Title: HydroCouple::IExchangeItem Pages: 1 -->
<svg width="1326pt" height="819pt"
 viewBox="0.00 0.00 1326.17 819.00" xmlns="http://www.w3.org/2000/svg" xmlns:xlink="http://www.w3.org/1999/xlink">
<g id="graph0" class="graph" transform="scale(1 1) rotate(0) translate(4 815)">
<title>HydroCouple::IExchangeItem</title>
<polygon fill="white" stroke="none" points="-4,4 -4,-815 1322.17,-815 1322.17,4 -4,4"/>
<!-- Node1 -->
<g id="node1" class="node"><title>Node1</title>
<polygon fill="#bfbfbf" stroke="black" points="548.158,-312.5 548.158,-376.5 694.783,-376.5 694.783,-312.5 548.158,-312.5"/>
<text text-anchor="middle" x="621.47" y="-364.5" font-family="Helvetica,sans-Serif" font-size="10.00">HydroCouple::IExchangeItem</text>
<polyline fill="none" stroke="black" points="548.158,-358.5 694.783,-358.5 "/>
<text text-anchor="middle" x="621.47" y="-346.5" font-family="Helvetica,sans-Serif" font-size="10.00"> </text>
<polyline fill="none" stroke="black" points="548.158,-340.5 694.783,-340.5 "/>
<text text-anchor="start" x="556.158" y="-328.5" font-family="Helvetica,sans-Serif" font-size="10.00">+ ~IExchangeItem()</text>
<text text-anchor="start" x="556.158" y="-318.5" font-family="Helvetica,sans-Serif" font-size="10.00">+ itemChanged()</text>
</g>
<!-- Node6 -->
<g id="node6" class="node"><title>Node6</title>
<g id="a_node6"><a xlink:href="class_hydro_couple_1_1_i_input.html" target="_top" xlink:title="An IInput item that can accept values for an IModelComponent. ">
<polygon fill="white" stroke="black" points="0,-171.5 0,-255.5 104.94,-255.5 104.94,-171.5 0,-171.5"/>
<text text-anchor="middle" x="52.4702" y="-243.5" font-family="Helvetica,sans-Serif" font-size="10.00">HydroCouple::IInput</text>
<polyline fill="none" stroke="black" points="0,-237.5 104.94,-237.5 "/>
<text text-anchor="middle" x="52.4702" y="-225.5" font-family="Helvetica,sans-Serif" font-size="10.00"> </text>
<polyline fill="none" stroke="black" points="0,-219.5 104.94,-219.5 "/>
<text text-anchor="start" x="8" y="-207.5" font-family="Helvetica,sans-Serif" font-size="10.00">+ ~IInput()</text>
<text text-anchor="start" x="8" y="-197.5" font-family="Helvetica,sans-Serif" font-size="10.00">+ getProvider()</text>
<text text-anchor="start" x="8" y="-187.5" font-family="Helvetica,sans-Serif" font-size="10.00">+ setProvider()</text>
<text text-anchor="start" x="8" y="-177.5" font-family="Helvetica,sans-Serif" font-size="10.00">+ canConsume()</text>
</a>
</g>
</g>
<!-- Node1&#45;&gt;Node6 -->
<g id="edge5" class="edge"><title>Node1&#45;&gt;Node6</title>
<path fill="none" stroke="midnightblue" d="M537.613,-338.913C413.082,-331.007 186.137,-312.074 113.47,-276 103.368,-270.985 93.949,-263.63 85.6805,-255.736"/>
<polygon fill="none" stroke="midnightblue" points="537.668,-342.423 547.867,-339.554 538.104,-335.437 537.668,-342.423"/>
</g>
<!-- Node7 -->
<g id="node7" class="node"><title>Node7</title>
<g id="a_node7"><a xlink:href="class_hydro_couple_1_1_i_output.html" target="_top" xlink:title="An output exchange item that can deliver values from an IModelComponent. ">
<polygon fill="white" stroke="black" points="122.521,-151.5 122.521,-275.5 254.419,-275.5 254.419,-151.5 122.521,-151.5"/>
<text text-anchor="middle" x="188.47" y="-263.5" font-family="Helvetica,sans-Serif" font-size="10.00">HydroCouple::IOutput</text>
<polyline fill="none" stroke="black" points="122.521,-257.5 254.419,-257.5 "/>
<text text-anchor="middle" x="188.47" y="-245.5" font-family="Helvetica,sans-Serif" font-size="10.00"> </text>
<polyline fill="none" stroke="black" points="122.521,-239.5 254.419,-239.5 "/>
<text text-anchor="start" x="130.521" y="-227.5" font-family="Helvetica,sans-Serif" font-size="10.00">+ ~IOutput()</text>
<text text-anchor="start" x="130.521" y="-217.5" font-family="Helvetica,sans-Serif" font-size="10.00">+ consumers()</text>
<text text-anchor="start" x="130.521" y="-207.5" font-family="Helvetica,sans-Serif" font-size="10.00">+ addConsumer()</text>
<text text-anchor="start" x="130.521" y="-197.5" font-family="Helvetica,sans-Serif" font-size="10.00">+ removeConsumer()</text>
<text text-anchor="start" x="130.521" y="-187.5" font-family="Helvetica,sans-Serif" font-size="10.00">+ adaptedOutputs()</text>
<text text-anchor="start" x="130.521" y="-177.5" font-family="Helvetica,sans-Serif" font-size="10.00">+ addAdaptedOutput()</text>
<text text-anchor="start" x="130.521" y="-167.5" font-family="Helvetica,sans-Serif" font-size="10.00">+ removeAdaptedOutput()</text>
<text text-anchor="start" x="130.521" y="-157.5" font-family="Helvetica,sans-Serif" font-size="10.00">+ updateValues()</text>
</a>
</g>
</g>
<!-- Node1&#45;&gt;Node7 -->
<g id="edge6" class="edge"><title>Node1&#45;&gt;Node7</title>
<path fill="none" stroke="midnightblue" d="M537.607,-339.449C462.676,-333.149 351.466,-317.06 263.47,-276 260.571,-274.647 257.689,-273.156 254.838,-271.556"/>
<polygon fill="none" stroke="midnightblue" points="537.686,-342.967 547.934,-340.275 538.244,-335.989 537.686,-342.967"/>
</g>
<!-- Node9 -->
<g id="node9" class="node"><title>Node9</title>
<g id="a_node9"><a xlink:href="class_hydro_couple_1_1_spatial_1_1_i2_d_regular_grid_exhange_item.html" target="_top" xlink:title="An I2DRegularGridExhangeItem is an IExchangeItem with an I2DRegularGridComponentItem. ">
<polygon fill="white" stroke="black" points="272.712,-181.5 272.712,-245.5 438.229,-245.5 438.229,-181.5 272.712,-181.5"/>
<text text-anchor="start" x="280.712" y="-233.5" font-family="Helvetica,sans-Serif" font-size="10.00">HydroCouple::Spatial</text>
<text text-anchor="middle" x="355.47" y="-223.5" font-family="Helvetica,sans-Serif" font-size="10.00">::I2DRegularGridExhangeItem</text>
<polyline fill="none" stroke="black" points="272.712,-217.5 438.229,-217.5 "/>
<text text-anchor="middle" x="355.47" y="-205.5" font-family="Helvetica,sans-Serif" font-size="10.00"> </text>
<polyline fill="none" stroke="black" points="272.712,-199.5 438.229,-199.5 "/>
<text text-anchor="start" x="280.712" y="-187.5" font-family="Helvetica,sans-Serif" font-size="10.00">+ ~I2DRegularGridExhangeItem()</text>
</a>
</g>
</g>
<!-- Node1&#45;&gt;Node9 -->
<g id="edge8" class="edge"><title>Node1&#45;&gt;Node9</title>
<path fill="none" stroke="midnightblue" d="M538.542,-315.563C509.159,-304.567 476.262,-290.977 447.47,-276 430.596,-267.223 413.015,-256.037 397.796,-245.618"/>
<polygon fill="none" stroke="midnightblue" points="537.356,-318.855 547.949,-319.04 539.783,-312.29 537.356,-318.855"/>
</g>
<!-- Node10 -->
<g id="node10" class="node"><title>Node10</title>
<g id="a_node10"><a xlink:href="class_hydro_couple_1_1_spatial_1_1_i3_d_regular_grid_exhange_item.html" target="_top" xlink:title="An I3DRegularGridExhangeItem is an IExchangeItem with an I3DRegularGridComponentItem. ">
<polygon fill="white" stroke="black" points="456.712,-181.5 456.712,-245.5 622.229,-245.5 622.229,-181.5 456.712,-181.5"/>
<text text-anchor="start" x="464.712" y="-233.5" font-family="Helvetica,sans-Serif" font-size="10.00">HydroCouple::Spatial</text>
<text text-anchor="middle" x="539.47" y="-223.5" font-family="Helvetica,sans-Serif" font-size="10.00">::I3DRegularGridExhangeItem</text>
<polyline fill="none" stroke="black" points="456.712,-217.5 622.229,-217.5 "/>
<text text-anchor="middle" x="539.47" y="-205.5" font-family="Helvetica,sans-Serif" font-size="10.00"> </text>
<polyline fill="none" stroke="black" points="456.712,-199.5 622.229,-199.5 "/>
<text text-anchor="start" x="464.712" y="-187.5" font-family="Helvetica,sans-Serif" font-size="10.00">+ ~I3DRegularGridExhangeItem()</text>
</a>
</g>
</g>
<!-- Node1&#45;&gt;Node10 -->
<g id="edge9" class="edge"><title>Node1&#45;&gt;Node10</title>
<path fill="none" stroke="midnightblue" d="M596.178,-303.711C584.358,-285.117 570.487,-263.294 559.422,-245.887"/>
<polygon fill="none" stroke="midnightblue" points="593.302,-305.711 601.62,-312.273 599.209,-301.956 593.302,-305.711"/>
</g>
<!-- Node12 -->
<g id="node12" class="node"><title>Node12</title>
<g id="a_node12"><a xlink:href="class_hydro_couple_1_1_spatial_1_1_i_geometry_exchange_item.html" target="_top" xlink:title="An IExchangeItem class with a geometry component. ">
<polygon fill="white" stroke="black" points="784.608,-181.5 784.608,-245.5 932.332,-245.5 932.332,-181.5 784.608,-181.5"/>
<text text-anchor="start" x="792.608" y="-233.5" font-family="Helvetica,sans-Serif" font-size="10.00">HydroCouple::Spatial</text>
<text text-anchor="middle" x="858.47" y="-223.5" font-family="Helvetica,sans-Serif" font-size="10.00">::IGeometryExchangeItem</text>
<polyline fill="none" stroke="black" points="784.608,-217.5 932.332,-217.5 "/>
<text text-anchor="middle" x="858.47" y="-205.5" font-family="Helvetica,sans-Serif" font-size="10.00"> </text>
<polyline fill="none" stroke="black" points="784.608,-199.5 932.332,-199.5 "/>
<text text-anchor="start" x="792.608" y="-187.5" font-family="Helvetica,sans-Serif" font-size="10.00">+ ~IGeometryExchangeItem()</text>
</a>
</g>
</g>
<!-- Node1&#45;&gt;Node12 -->
<g id="edge12" class="edge"><title>Node1&#45;&gt;Node12</title>
<path fill="none" stroke="midnightblue" d="M704.099,-311.342C727.691,-301.084 753.064,-288.99 775.47,-276 790.675,-267.185 806.402,-256.106 820.023,-245.789"/>
<polygon fill="none" stroke="midnightblue" points="702.619,-308.168 694.809,-315.328 705.379,-314.601 702.619,-308.168"/>
</g>
<!-- Node14 -->
<g id="node14" class="node"><title>Node14</title>
<g id="a_node14"><a xlink:href="class_hydro_couple_1_1_spatial_1_1_i_polyhedral_surface_exchange_item.html" target="_top" xlink:title="An IPolyhedralSurfaceExchangeItem class with an IPolyhedralSurface component. ">
<polygon fill="white" stroke="black" points="950.702,-181.5 950.702,-245.5 1136.24,-245.5 1136.24,-181.5 950.702,-181.5"/>
<text text-anchor="start" x="958.702" y="-233.5" font-family="Helvetica,sans-Serif" font-size="10.00">HydroCouple::Spatial</text>
<text text-anchor="middle" x="1043.47" y="-223.5" font-family="Helvetica,sans-Serif" font-size="10.00">::IPolyhedralSurfaceExchangeItem</text>
<polyline fill="none" stroke="black" points="950.702,-217.5 1136.24,-217.5 "/>
<text text-anchor="middle" x="1043.47" y="-205.5" font-family="Helvetica,sans-Serif" font-size="10.00"> </text>
<polyline fill="none" stroke="black" points="950.702,-199.5 1136.24,-199.5 "/>
<text text-anchor="start" x="958.702" y="-187.5" font-family="Helvetica,sans-Serif" font-size="10.00">+ ~IPolyhedralSurfaceExchangeItem()</text>
</a>
</g>
</g>
<!-- Node1&#45;&gt;Node14 -->
<g id="edge14" class="edge"><title>Node1&#45;&gt;Node14</title>
<path fill="none" stroke="midnightblue" d="M704.894,-333.698C770.796,-324.122 864.214,-306.431 941.47,-276 961.383,-268.156 981.867,-256.603 999.205,-245.621"/>
<polygon fill="none" stroke="midnightblue" points="704.375,-330.236 694.968,-335.109 705.361,-337.166 704.375,-330.236"/>
</g>
<!-- Node16 -->
<g id="node16" class="node"><title>Node16</title>
<g id="a_node16"><a xlink:href="class_hydro_couple_1_1_spatial_1_1_i_raster_exhange_item.html" target="_top" xlink:title="An IRasterExhangeItem is an IExchangeItem with an IRaster. ">
<polygon fill="white" stroke="black" points="1154.33,-181.5 1154.33,-245.5 1282.61,-245.5 1282.61,-181.5 1154.33,-181.5"/>
<text text-anchor="start" x="1162.33" y="-233.5" font-family="Helvetica,sans-Serif" font-size="10.00">HydroCouple::Spatial</text>
<text text-anchor="middle" x="1218.47" y="-223.5" font-family="Helvetica,sans-Serif" font-size="10.00">::IRasterExhangeItem</text>
<polyline fill="none" stroke="black" points="1154.33,-217.5 1282.61,-217.5 "/>
<text text-anchor="middle" x="1218.47" y="-205.5" font-family="Helvetica,sans-Serif" font-size="10.00"> </text>
<polyline fill="none" stroke="black" points="1154.33,-199.5 1282.61,-199.5 "/>
<text text-anchor="start" x="1162.33" y="-187.5" font-family="Helvetica,sans-Serif" font-size="10.00">+ ~IRasterExhangeItem()</text>
</a>
</g>
</g>
<!-- Node1&#45;&gt;Node16 -->
<g id="edge16" class="edge"><title>Node1&#45;&gt;Node16</title>
<path fill="none" stroke="midnightblue" d="M705.147,-338.477C832.526,-329.868 1068.41,-309.868 1145.47,-276 1161.55,-268.932 1176.83,-257.173 1189.22,-245.82"/>
<polygon fill="none" stroke="midnightblue" points="704.787,-334.993 695.042,-339.151 705.253,-341.978 704.787,-334.993"/>
</g>
<!-- Node18 -->
<g id="node18" class="node"><title>Node18</title>
<g id="a_node18"><a xlink:href="class_hydro_couple_1_1_temporal_1_1_i_time_exchange_item.html" target="_top" xlink:title="The ITimeExchangeItem class. ">
<polygon fill="white" stroke="black" points="640.631,-181.5 640.631,-245.5 766.309,-245.5 766.309,-181.5 640.631,-181.5"/>
<text text-anchor="start" x="648.631" y="-233.5" font-family="Helvetica,sans-Serif" font-size="10.00">HydroCouple::Temporal</text>
<text text-anchor="middle" x="703.47" y="-223.5" font-family="Helvetica,sans-Serif" font-size="10.00">::ITimeExchangeItem</text>
<polyline fill="none" stroke="black" points="640.631,-217.5 766.309,-217.5 "/>
<text text-anchor="middle" x="703.47" y="-205.5" font-family="Helvetica,sans-Serif" font-size="10.00"> </text>
<polyline fill="none" stroke="black" points="640.631,-199.5 766.309,-199.5 "/>
<text text-anchor="start" x="648.631" y="-187.5" font-family="Helvetica,sans-Serif" font-size="10.00">+ ~ITimeExchangeItem()</text>
</a>
</g>
</g>
<!-- Node1&#45;&gt;Node18 -->
<g id="edge18" class="edge"><title>Node1&#45;&gt;Node18</title>
<path fill="none" stroke="midnightblue" d="M646.762,-303.711C658.582,-285.117 672.454,-263.294 683.519,-245.887"/>
<polygon fill="none" stroke="midnightblue" points="643.731,-301.956 641.32,-312.273 649.638,-305.711 643.731,-301.956"/>
</g>
<!-- Node2 -->
<g id="node2" class="node"><title>Node2</title>
<g id="a_node2"><a xlink:href="class_hydro_couple_1_1_i_component_item.html" target="_top" xlink:title="IComponentItem is a fundamental unit of data for a component. ">
<polygon fill="white" stroke="black" points="544.547,-413.5 544.547,-487.5 698.394,-487.5 698.394,-413.5 544.547,-413.5"/>
<text text-anchor="middle" x="621.47" y="-475.5" font-family="Helvetica,sans-Serif" font-size="10.00">HydroCouple::IComponentItem</text>
<polyline fill="none" stroke="black" points="544.547,-469.5 698.394,-469.5 "/>
<text text-anchor="middle" x="621.47" y="-457.5" font-family="Helvetica,sans-Serif" font-size="10.00"> </text>
<polyline fill="none" stroke="black" points="544.547,-451.5 698.394,-451.5 "/>
<text text-anchor="start" x="552.547" y="-439.5" font-family="Helvetica,sans-Serif" font-size="10.00">+ ~IComponentItem()</text>
<text text-anchor="start" x="552.547" y="-429.5" font-family="Helvetica,sans-Serif" font-size="10.00">+ modelComponent()</text>
<text text-anchor="start" x="552.547" y="-419.5" font-family="Helvetica,sans-Serif" font-size="10.00">+ dimensions()</text>
</a>
</g>
</g>
<!-- Node2&#45;&gt;Node1 -->
<g id="edge1" class="edge"><title>Node2&#45;&gt;Node1</title>
<path fill="none" stroke="midnightblue" d="M621.47,-403.38C621.47,-394.347 621.47,-385.074 621.47,-376.67"/>
<polygon fill="none" stroke="midnightblue" points="617.97,-403.418 621.47,-413.418 624.97,-403.418 617.97,-403.418"/>
</g>
<!-- Node3 -->
<g id="node3" class="node"><title>Node3</title>
<g id="a_node3"><a xlink:href="class_hydro_couple_1_1_i_identity.html" target="_top" xlink:title="IIdentity interface class defines a method to get the Id of an HydroCouple entity. ">
<polygon fill="white" stroke="black" points="564,-524.5 564,-588.5 678.94,-588.5 678.94,-524.5 564,-524.5"/>
<text text-anchor="middle" x="621.47" y="-576.5" font-family="Helvetica,sans-Serif" font-size="10.00">HydroCouple::IIdentity</text>
<polyline fill="none" stroke="black" points="564,-570.5 678.94,-570.5 "/>
<text text-anchor="middle" x="621.47" y="-558.5" font-family="Helvetica,sans-Serif" font-size="10.00"> </text>
<polyline fill="none" stroke="black" points="564,-552.5 678.94,-552.5 "/>
<text text-anchor="start" x="572" y="-540.5" font-family="Helvetica,sans-Serif" font-size="10.00">+ ~IIdentity()</text>
<text text-anchor="start" x="572" y="-530.5" font-family="Helvetica,sans-Serif" font-size="10.00">+ id()</text>
</a>
</g>
</g>
<!-- Node3&#45;&gt;Node2 -->
<g id="edge2" class="edge"><title>Node3&#45;&gt;Node2</title>
<path fill="none" stroke="midnightblue" d="M621.47,-514.282C621.47,-505.531 621.47,-496.353 621.47,-487.801"/>
<polygon fill="none" stroke="midnightblue" points="617.97,-514.297 621.47,-524.297 624.97,-514.297 617.97,-514.297"/>
</g>
<!-- Node4 -->
<g id="node4" class="node"><title>Node4</title>
<g id="a_node4"><a xlink:href="class_hydro_couple_1_1_i_description.html" target="_top" xlink:title="IDescription interface class provides descriptive information on a HydroCouple object. ">
<polygon fill="white" stroke="black" points="555.111,-625.5 555.111,-719.5 687.83,-719.5 687.83,-625.5 555.111,-625.5"/>
<text text-anchor="middle" x="621.47" y="-707.5" font-family="Helvetica,sans-Serif" font-size="10.00">HydroCouple::IDescription</text>
<polyline fill="none" stroke="black" points="555.111,-701.5 687.83,-701.5 "/>
<text text-anchor="middle" x="621.47" y="-689.5" font-family="Helvetica,sans-Serif" font-size="10.00"> </text>
<polyline fill="none" stroke="black" points="555.111,-683.5 687.83,-683.5 "/>
<text text-anchor="start" x="563.111" y="-671.5" font-family="Helvetica,sans-Serif" font-size="10.00">+ ~IDescription()</text>
<text text-anchor="start" x="563.111" y="-661.5" font-family="Helvetica,sans-Serif" font-size="10.00">+ getCaption()</text>
<text text-anchor="start" x="563.111" y="-651.5" font-family="Helvetica,sans-Serif" font-size="10.00">+ setCaption()</text>
<text text-anchor="start" x="563.111" y="-641.5" font-family="Helvetica,sans-Serif" font-size="10.00">+ getDescription()</text>
<text text-anchor="start" x="563.111" y="-631.5" font-family="Helvetica,sans-Serif" font-size="10.00">+ setDescription()</text>
</a>
</g>
</g>
<!-- Node4&#45;&gt;Node3 -->
<g id="edge3" class="edge"><title>Node4&#45;&gt;Node3</title>
<path fill="none" stroke="midnightblue" d="M621.47,-615.212C621.47,-606.081 621.47,-596.926 621.47,-588.684"/>
<polygon fill="none" stroke="midnightblue" points="617.97,-615.46 621.47,-625.46 624.97,-615.46 617.97,-615.46"/>
</g>
<!-- Node5 -->
<g id="node5" class="node"><title>Node5</title>
<g id="a_node5"><a xlink:href="class_hydro_couple_1_1_i_property_changed.html" target="_top" xlink:title="IPropertyChanged interface is used to emit signal/event when a property of an object changes...">
<polygon fill="white" stroke="black" points="540.929,-756.5 540.929,-810.5 702.012,-810.5 702.012,-756.5 540.929,-756.5"/>
<text text-anchor="middle" x="621.47" y="-798.5" font-family="Helvetica,sans-Serif" font-size="10.00">HydroCouple::IPropertyChanged</text>
<polyline fill="none" stroke="black" points="540.929,-792.5 702.012,-792.5 "/>
<text text-anchor="middle" x="621.47" y="-780.5" font-family="Helvetica,sans-Serif" font-size="10.00"> </text>
<polyline fill="none" stroke="black" points="540.929,-774.5 702.012,-774.5 "/>
<text text-anchor="start" x="548.929" y="-762.5" font-family="Helvetica,sans-Serif" font-size="10.00">+ ~IPropertyChanged()</text>
</a>
</g>
</g>
<!-- Node5&#45;&gt;Node4 -->
<g id="edge4" class="edge"><title>Node5&#45;&gt;Node4</title>
<path fill="none" stroke="midnightblue" d="M621.47,-746.141C621.47,-737.716 621.47,-728.639 621.47,-719.851"/>
<polygon fill="none" stroke="midnightblue" points="617.97,-746.392 621.47,-756.392 624.97,-746.392 617.97,-746.392"/>
</g>
<!-- Node8 -->
<g id="node8" class="node"><title>Node8</title>
<g id="a_node8"><a xlink:href="class_hydro_couple_1_1_i_adapted_output.html" target="_top" xlink:title="An IAdaptedOutput adds one or more data operations on top of an IOutput. ">
<polygon fill="white" stroke="black" points="113.483,-0.5 113.483,-114.5 263.458,-114.5 263.458,-0.5 113.483,-0.5"/>
<text text-anchor="middle" x="188.47" y="-102.5" font-family="Helvetica,sans-Serif" font-size="10.00">HydroCouple::IAdaptedOutput</text>
<polyline fill="none" stroke="black" points="113.483,-96.5 263.458,-96.5 "/>
<text text-anchor="middle" x="188.47" y="-84.5" font-family="Helvetica,sans-Serif" font-size="10.00"> </text>
<polyline fill="none" stroke="black" points="113.483,-78.5 263.458,-78.5 "/>
<text text-anchor="start" x="121.483" y="-66.5" font-family="Helvetica,sans-Serif" font-size="10.00">+ ~IAdaptedOutput()</text>
<text text-anchor="start" x="121.483" y="-56.5" font-family="Helvetica,sans-Serif" font-size="10.00">+ adaptedOutputFactory()</text>
<text text-anchor="start" x="121.483" y="-46.5" font-family="Helvetica,sans-Serif" font-size="10.00">+ arguments()</text>
<text text-anchor="start" x="121.483" y="-36.5" font-family="Helvetica,sans-Serif" font-size="10.00">+ setArgument()</text>
<text text-anchor="start" x="121.483" y="-26.5" font-family="Helvetica,sans-Serif" font-size="10.00">+ initialize()</text>
<text text-anchor="start" x="121.483" y="-16.5" font-family="Helvetica,sans-Serif" font-size="10.00">+ adaptee()</text>
<text text-anchor="start" x="121.483" y="-6.5" font-family="Helvetica,sans-Serif" font-size="10.00">+ refresh()</text>
</a>
</g>
</g>
<!-- Node7&#45;&gt;Node8 -->
<g id="edge7" class="edge"><title>Node7&#45;&gt;Node8</title>
<path fill="none" stroke="midnightblue" d="M188.47,-141.19C188.47,-132.268 188.47,-123.245 188.47,-114.601"/>
<polygon fill="none" stroke="midnightblue" points="184.97,-141.193 188.47,-151.193 191.97,-141.193 184.97,-141.193"/>
</g>
<!-- Node11 -->
<g id="node11" class="node"><title>Node11</title>
<g id="a_node11"><a xlink:href="class_hydro_couple_1_1_spatio_temporal_1_1_i_time3_d_regular_grid_exchange_item.html" target="_top" xlink:title="The ITime3DRegularGridExchangeItem class. ">
<polygon fill="white" stroke="black" points="446.284,-20.5 446.284,-94.5 638.656,-94.5 638.656,-20.5 446.284,-20.5"/>
<text text-anchor="start" x="454.284" y="-82.5" font-family="Helvetica,sans-Serif" font-size="10.00">HydroCouple::SpatioTemporal</text>
<text text-anchor="middle" x="542.47" y="-72.5" font-family="Helvetica,sans-Serif" font-size="10.00">::ITime3DRegularGridExchangeItem</text>
<polyline fill="none" stroke="black" points="446.284,-66.5 638.656,-66.5 "/>
<text text-anchor="middle" x="542.47" y="-54.5" font-family="Helvetica,sans-Serif" font-size="10.00"> </text>
<polyline fill="none" stroke="black" points="446.284,-48.5 638.656,-48.5 "/>
<text text-anchor="start" x="454.284" y="-36.5" font-family="Helvetica,sans-Serif" font-size="10.00">+ ~ITime3RegularGridExchangeItem()</text>
<text text-anchor="start" x="454.284" y="-26.5" font-family="Helvetica,sans-Serif" font-size="10.00">+ ~ITime3DRegularGridExchangeItem()</text>
</a>
</g>
</g>
<!-- Node10&#45;&gt;Node11 -->
<g id="edge10" class="edge"><title>Node10&#45;&gt;Node11</title>
<path fill="none" stroke="midnightblue" d="M534.216,-171.183C533.687,-147.355 534.343,-117.673 535.936,-94.7552"/>
<polygon fill="none" stroke="midnightblue" points="530.722,-171.448 534.529,-181.336 537.719,-171.233 530.722,-171.448"/>
</g>
<!-- Node10&#45;&gt;Node11 -->
<g id="edge11" class="edge"><title>Node10&#45;&gt;Node11</title>
<path fill="none" stroke="midnightblue" d="M546.335,-171.183C547.791,-147.355 548.292,-117.673 547.592,-94.7552"/>
<polygon fill="none" stroke="midnightblue" points="542.831,-171.116 545.626,-181.336 549.814,-171.604 542.831,-171.116"/>
</g>
<!-- Node13 -->
<g id="node13" class="node"><title>Node13</title>
<g id="a_node13"><a xlink:href="class_hydro_couple_1_1_spatio_temporal_1_1_i_time_geometry_exchange_item.html" target="_top" xlink:title="The ITimeGeometryExchangeItem class. ">
<polygon fill="white" stroke="black" points="680.681,-25.5 680.681,-89.5 850.26,-89.5 850.26,-25.5 680.681,-25.5"/>
<text text-anchor="start" x="688.681" y="-77.5" font-family="Helvetica,sans-Serif" font-size="10.00">HydroCouple::SpatioTemporal</text>
<text text-anchor="middle" x="765.47" y="-67.5" font-family="Helvetica,sans-Serif" font-size="10.00">::ITimeGeometryExchangeItem</text>
<polyline fill="none" stroke="black" points="680.681,-61.5 850.26,-61.5 "/>
<text text-anchor="middle" x="765.47" y="-49.5" font-family="Helvetica,sans-Serif" font-size="10.00"> </text>
<polyline fill="none" stroke="black" points="680.681,-43.5 850.26,-43.5 "/>
<text text-anchor="start" x="688.681" y="-31.5" font-family="Helvetica,sans-Serif" font-size="10.00">+ ~ITimeGeometryExchangeItem()</text>
</a>
</g>
</g>
<!-- Node12&#45;&gt;Node13 -->
<g id="edge13" class="edge"><title>Node12&#45;&gt;Node13</title>
<path fill="none" stroke="midnightblue" d="M834.328,-172.523C818.715,-146.669 798.688,-113.506 784.262,-89.6179"/>
<polygon fill="none" stroke="midnightblue" points="831.485,-174.585 839.65,-181.336 837.477,-170.966 831.485,-174.585"/>
</g>
<!-- Node15 -->
<g id="node15" class="node"><title>Node15</title>
<g id="a_node15"><a xlink:href="class_hydro_couple_1_1_spatio_temporal_1_1_i_time_polyhedral_surface_exchange_item.html" target="_top" xlink:title="The ITimePolyhedralSurfaceExchangeItem class. ">
<polygon fill="white" stroke="black" points="879.774,-25.5 879.774,-89.5 1087.17,-89.5 1087.17,-25.5 879.774,-25.5"/>
<text text-anchor="start" x="887.774" y="-77.5" font-family="Helvetica,sans-Serif" font-size="10.00">HydroCouple::SpatioTemporal</text>
<text text-anchor="middle" x="983.47" y="-67.5" font-family="Helvetica,sans-Serif" font-size="10.00">::ITimePolyhedralSurfaceExchangeItem</text>
<polyline fill="none" stroke="black" points="879.774,-61.5 1087.17,-61.5 "/>
<text text-anchor="middle" x="983.47" y="-49.5" font-family="Helvetica,sans-Serif" font-size="10.00"> </text>
<polyline fill="none" stroke="black" points="879.774,-43.5 1087.17,-43.5 "/>
<text text-anchor="start" x="887.774" y="-31.5" font-family="Helvetica,sans-Serif" font-size="10.00">+ ~ITimePolyhedralSurfaceExchangeItem()</text>
</a>
</g>
</g>
<!-- Node14&#45;&gt;Node15 -->
<g id="edge15" class="edge"><title>Node14&#45;&gt;Node15</title>
<path fill="none" stroke="midnightblue" d="M1027.63,-171.844C1017.6,-146.09 1004.82,-113.298 995.594,-89.6179"/>
<polygon fill="none" stroke="midnightblue" points="1024.44,-173.289 1031.33,-181.336 1030.96,-170.747 1024.44,-173.289"/>
</g>
<!-- Node17 -->
<g id="node17" class="node"><title>Node17</title>
<g id="a_node17"><a xlink:href="class_hydro_couple_1_1_spatio_temporal_1_1_i_time_raster_exchange_item.html" target="_top" xlink:title="The ITimeRasterExchangeItem class. ">
<polygon fill="white" stroke="black" points="1110.77,-25.5 1110.77,-89.5 1318.17,-89.5 1318.17,-25.5 1110.77,-25.5"/>
<text text-anchor="start" x="1118.77" y="-77.5" font-family="Helvetica,sans-Serif" font-size="10.00">HydroCouple::SpatioTemporal</text>
<text text-anchor="middle" x="1214.47" y="-67.5" font-family="Helvetica,sans-Serif" font-size="10.00">::ITimeRasterExchangeItem</text>
<polyline fill="none" stroke="black" points="1110.77,-61.5 1318.17,-61.5 "/>
<text text-anchor="middle" x="1214.47" y="-49.5" font-family="Helvetica,sans-Serif" font-size="10.00"> </text>
<polyline fill="none" stroke="black" points="1110.77,-43.5 1318.17,-43.5 "/>
<text text-anchor="start" x="1118.77" y="-31.5" font-family="Helvetica,sans-Serif" font-size="10.00">+ ~ITimePolyhedralSurfaceExchangeItem()</text>
</a>
</g>
</g>
<!-- Node16&#45;&gt;Node17 -->
<g id="edge17" class="edge"><title>Node16&#45;&gt;Node17</title>
<path fill="none" stroke="midnightblue" d="M1217.4,-171.161C1216.73,-145.513 1215.89,-113.089 1215.28,-89.6179"/>
<polygon fill="none" stroke="midnightblue" points="1213.9,-171.43 1217.66,-181.336 1220.9,-171.248 1213.9,-171.43"/>
</g>
<!-- Node18&#45;&gt;Node11 -->
<g id="edge19" class="edge"><title>Node18&#45;&gt;Node11</title>
<path fill="none" stroke="midnightblue" d="M657.669,-174.352C631.104,-150.03 598.381,-118.701 574.545,-94.7552"/>
<polygon fill="none" stroke="midnightblue" points="655.59,-177.192 665.341,-181.336 660.302,-172.016 655.59,-177.192"/>
</g>
<!-- Node18&#45;&gt;Node11 -->
<g id="edge20" class="edge"><title>Node18&#45;&gt;Node11</title>
<path fill="none" stroke="midnightblue" d="M669.194,-174.038C644.936,-149.761 612.321,-118.598 586.201,-94.7552"/>
<polygon fill="none" stroke="midnightblue" points="666.909,-176.704 676.438,-181.336 671.877,-171.773 666.909,-176.704"/>
</g>
<!-- Node18&#45;&gt;Node13 -->
<g id="edge21" class="edge"><title>Node18&#45;&gt;Node13</title>
<path fill="none" stroke="midnightblue" d="M719.838,-171.844C730.207,-146.09 743.409,-113.298 752.942,-89.6179"/>
<polygon fill="none" stroke="midnightblue" points="716.505,-170.752 716.017,-181.336 722.998,-173.367 716.505,-170.752"/>
</g>
<!-- Node18&#45;&gt;Node15 -->
<g id="edge22" class="edge"><title>Node18&#45;&gt;Node15</title>
<path fill="none" stroke="midnightblue" d="M743.347,-174.754C753.385,-166.313 764.452,-157.845 775.47,-151 809.972,-129.566 822.32,-131.422 859.47,-115 877.862,-106.87 897.711,-97.9101 916.022,-89.5675"/>
<polygon fill="none" stroke="midnightblue" points="740.827,-172.305 735.538,-181.485 745.398,-177.607 740.827,-172.305"/>
</g>
<!-- Node18&#45;&gt;Node17 -->
<g id="edge23" class="edge"><title>Node18&#45;&gt;Node17</title>
<path fill="none" stroke="midnightblue" d="M739.357,-174.634C750.09,-165.434 762.485,-156.633 775.47,-151 907.173,-93.868 958.465,-154.552 1096.47,-115 1117.76,-108.899 1139.95,-99.2493 1159.26,-89.6395"/>
<polygon fill="none" stroke="midnightblue" points="736.959,-172.083 731.85,-181.365 741.632,-177.295 736.959,-172.083"/>
</g>
</g>
</svg>
