<?xml version="1.0" encoding="UTF-8" standalone="no"?>
<!DOCTYPE svg PUBLIC "-//W3C//DTD SVG 1.1//EN"
 "http://www.w3.org/Graphics/SVG/1.1/DTD/svg11.dtd">
<!-- Generated by graphviz version 2.38.0 (20140413.2041)
 -->
<!-- Title: HydroCouple::Spatial::I2DRegularGridComponentItem Pages: 1 -->
<svg width="951pt" height="910pt"
 viewBox="0.00 0.00 950.73 910.00" xmlns="http://www.w3.org/2000/svg" xmlns:xlink="http://www.w3.org/1999/xlink">
<g id="graph0" class="graph" transform="scale(1 1) rotate(0) translate(4 906)">
<title>HydroCouple::Spatial::I2DRegularGridComponentItem</title>
<polygon fill="white" stroke="none" points="-4,4 -4,-906 946.731,-906 946.731,4 -4,4"/>
<!-- Node1 -->
<g id="node1" class="node"><title>Node1</title>
<polygon fill="#bfbfbf" stroke="black" points="262.104,-353.5 262.104,-467.5 439.842,-467.5 439.842,-353.5 262.104,-353.5"/>
<text text-anchor="start" x="270.104" y="-455.5" font-family="Helvetica,sans-Serif" font-size="10.00">HydroCouple::Spatial</text>
<text text-anchor="middle" x="350.973" y="-445.5" font-family="Helvetica,sans-Serif" font-size="10.00">::I2DRegularGridComponentItem</text>
<polyline fill="none" stroke="black" points="262.104,-439.5 439.842,-439.5 "/>
<text text-anchor="middle" x="350.973" y="-427.5" font-family="Helvetica,sans-Serif" font-size="10.00"> </text>
<polyline fill="none" stroke="black" points="262.104,-421.5 439.842,-421.5 "/>
<text text-anchor="start" x="270.104" y="-409.5" font-family="Helvetica,sans-Serif" font-size="10.00">+ ~I2DRegularGridComponentItem()</text>
<text text-anchor="start" x="270.104" y="-399.5" font-family="Helvetica,sans-Serif" font-size="10.00">+ numXNodesDimension()</text>
<text text-anchor="start" x="270.104" y="-389.5" font-family="Helvetica,sans-Serif" font-size="10.00">+ numYNodesDimension()</text>
<text text-anchor="start" x="270.104" y="-379.5" font-family="Helvetica,sans-Serif" font-size="10.00">+ numXCellsDimension()</text>
<text text-anchor="start" x="270.104" y="-369.5" font-family="Helvetica,sans-Serif" font-size="10.00">+ numYCellsDimension()</text>
<text text-anchor="start" x="270.104" y="-359.5" font-family="Helvetica,sans-Serif" font-size="10.00">+ grid()</text>
</g>
<!-- Node6 -->
<g id="node6" class="node"><title>Node6</title>
<g id="a_node6"><a xlink:href="class_hydro_couple_1_1_spatial_1_1_i2_d_regular_grid_argument.html" target="_top" xlink:title="An I2DRegularGridArgument is an IArgument with an I2DRegularGridComponentItem. ">
<polygon fill="white" stroke="black" points="0,-232.5 0,-306.5 149.945,-306.5 149.945,-232.5 0,-232.5"/>
<text text-anchor="start" x="8" y="-294.5" font-family="Helvetica,sans-Serif" font-size="10.00">HydroCouple::Spatial</text>
<text text-anchor="middle" x="74.9727" y="-284.5" font-family="Helvetica,sans-Serif" font-size="10.00">::I2DRegularGridArgument</text>
<polyline fill="none" stroke="black" points="0,-278.5 149.945,-278.5 "/>
<text text-anchor="middle" x="74.9727" y="-266.5" font-family="Helvetica,sans-Serif" font-size="10.00"> </text>
<polyline fill="none" stroke="black" points="0,-260.5 149.945,-260.5 "/>
<text text-anchor="start" x="8" y="-248.5" font-family="Helvetica,sans-Serif" font-size="10.00">+ ~I2DRegularGridArgument()</text>
<text text-anchor="start" x="8" y="-238.5" font-family="Helvetica,sans-Serif" font-size="10.00">+ setGrid()</text>
</a>
</g>
</g>
<!-- Node1&#45;&gt;Node6 -->
<g id="edge5" class="edge"><title>Node1&#45;&gt;Node6</title>
<path fill="none" stroke="midnightblue" d="M252.752,-363.497C222.498,-348.975 189.204,-332.634 158.973,-317 152.606,-313.708 146.008,-310.209 139.437,-306.667"/>
<polygon fill="none" stroke="midnightblue" points="251.506,-366.781 262.037,-367.943 254.529,-360.467 251.506,-366.781"/>
</g>
<!-- Node8 -->
<g id="node8" class="node"><title>Node8</title>
<g id="a_node8"><a xlink:href="class_hydro_couple_1_1_spatial_1_1_i2_d_regular_grid_exhange_item.html" target="_top" xlink:title="An I2DRegularGridExhangeItem is an IExchangeItem with an I2DRegularGridComponentItem. ">
<polygon fill="white" stroke="black" points="168.214,-237.5 168.214,-301.5 333.731,-301.5 333.731,-237.5 168.214,-237.5"/>
<text text-anchor="start" x="176.214" y="-289.5" font-family="Helvetica,sans-Serif" font-size="10.00">HydroCouple::Spatial</text>
<text text-anchor="middle" x="250.973" y="-279.5" font-family="Helvetica,sans-Serif" font-size="10.00">::I2DRegularGridExhangeItem</text>
<polyline fill="none" stroke="black" points="168.214,-273.5 333.731,-273.5 "/>
<text text-anchor="middle" x="250.973" y="-261.5" font-family="Helvetica,sans-Serif" font-size="10.00"> </text>
<polyline fill="none" stroke="black" points="168.214,-255.5 333.731,-255.5 "/>
<text text-anchor="start" x="176.214" y="-243.5" font-family="Helvetica,sans-Serif" font-size="10.00">+ ~I2DRegularGridExhangeItem()</text>
</a>
</g>
</g>
<!-- Node1&#45;&gt;Node8 -->
<g id="edge7" class="edge"><title>Node1&#45;&gt;Node8</title>
<path fill="none" stroke="midnightblue" d="M304.592,-345.03C293.734,-329.938 282.647,-314.527 273.394,-301.666"/>
<polygon fill="none" stroke="midnightblue" points="301.906,-347.29 310.587,-353.364 307.588,-343.202 301.906,-347.29"/>
</g>
<!-- Node9 -->
<g id="node9" class="node"><title>Node9</title>
<g id="a_node9"><a xlink:href="class_hydro_couple_1_1_spatial_1_1_i3_d_regular_grid_component_item.html" target="_top" xlink:title="An I3DRegularGridComponentItem represents an I3DRegularGrid IComponentItem. ">
<polygon fill="white" stroke="black" points="570.104,-222.5 570.104,-316.5 747.842,-316.5 747.842,-222.5 570.104,-222.5"/>
<text text-anchor="start" x="578.104" y="-304.5" font-family="Helvetica,sans-Serif" font-size="10.00">HydroCouple::Spatial</text>
<text text-anchor="middle" x="658.973" y="-294.5" font-family="Helvetica,sans-Serif" font-size="10.00">::I3DRegularGridComponentItem</text>
<polyline fill="none" stroke="black" points="570.104,-288.5 747.842,-288.5 "/>
<text text-anchor="middle" x="658.973" y="-276.5" font-family="Helvetica,sans-Serif" font-size="10.00"> </text>
<polyline fill="none" stroke="black" points="570.104,-270.5 747.842,-270.5 "/>
<text text-anchor="start" x="578.104" y="-258.5" font-family="Helvetica,sans-Serif" font-size="10.00">+ ~I2DRegularGridComponentItem()</text>
<text text-anchor="start" x="578.104" y="-248.5" font-family="Helvetica,sans-Serif" font-size="10.00">+ numZNodesDimension()</text>
<text text-anchor="start" x="578.104" y="-238.5" font-family="Helvetica,sans-Serif" font-size="10.00">+ numZCellsDimension()</text>
<text text-anchor="start" x="578.104" y="-228.5" font-family="Helvetica,sans-Serif" font-size="10.00">+ grid()</text>
</a>
</g>
</g>
<!-- Node1&#45;&gt;Node9 -->
<g id="edge8" class="edge"><title>Node1&#45;&gt;Node9</title>
<path fill="none" stroke="midnightblue" d="M449.212,-366.909C484.545,-351.411 524.639,-333.618 560.973,-317 563.97,-315.629 567.015,-314.229 570.088,-312.809"/>
<polygon fill="none" stroke="midnightblue" points="447.615,-363.788 439.86,-371.007 450.424,-370.199 447.615,-363.788"/>
</g>
<!-- Node15 -->
<g id="node15" class="node"><title>Node15</title>
<g id="a_node15"><a xlink:href="class_hydro_couple_1_1_spatio_temporal_1_1_i_time2_d_regular_grid_component_item.html" target="_top" xlink:title="The ITime2DRegularGridComponentItem class. ">
<polygon fill="white" stroke="black" points="352.176,-237.5 352.176,-301.5 551.77,-301.5 551.77,-237.5 352.176,-237.5"/>
<text text-anchor="start" x="360.176" y="-289.5" font-family="Helvetica,sans-Serif" font-size="10.00">HydroCouple::SpatioTemporal</text>
<text text-anchor="middle" x="451.973" y="-279.5" font-family="Helvetica,sans-Serif" font-size="10.00">::ITime2DRegularGridComponentItem</text>
<polyline fill="none" stroke="black" points="352.176,-273.5 551.77,-273.5 "/>
<text text-anchor="middle" x="451.973" y="-261.5" font-family="Helvetica,sans-Serif" font-size="10.00"> </text>
<polyline fill="none" stroke="black" points="352.176,-255.5 551.77,-255.5 "/>
<text text-anchor="start" x="360.176" y="-243.5" font-family="Helvetica,sans-Serif" font-size="10.00">+ ~ITime2DRegularGridComponentItem()</text>
</a>
</g>
</g>
<!-- Node1&#45;&gt;Node15 -->
<g id="edge18" class="edge"><title>Node1&#45;&gt;Node15</title>
<path fill="none" stroke="midnightblue" d="M397.818,-345.03C408.784,-329.938 419.981,-314.527 429.327,-301.666"/>
<polygon fill="none" stroke="midnightblue" points="394.809,-343.217 391.762,-353.364 400.472,-347.332 394.809,-343.217"/>
</g>
<!-- Node2 -->
<g id="node2" class="node"><title>Node2</title>
<g id="a_node2"><a xlink:href="class_hydro_couple_1_1_i_component_item.html" target="_top" xlink:title="IComponentItem is a fundamental unit of data for a component. ">
<polygon fill="white" stroke="black" points="274.049,-504.5 274.049,-578.5 427.896,-578.5 427.896,-504.5 274.049,-504.5"/>
<text text-anchor="middle" x="350.973" y="-566.5" font-family="Helvetica,sans-Serif" font-size="10.00">HydroCouple::IComponentItem</text>
<polyline fill="none" stroke="black" points="274.049,-560.5 427.896,-560.5 "/>
<text text-anchor="middle" x="350.973" y="-548.5" font-family="Helvetica,sans-Serif" font-size="10.00"> </text>
<polyline fill="none" stroke="black" points="274.049,-542.5 427.896,-542.5 "/>
<text text-anchor="start" x="282.049" y="-530.5" font-family="Helvetica,sans-Serif" font-size="10.00">+ ~IComponentItem()</text>
<text text-anchor="start" x="282.049" y="-520.5" font-family="Helvetica,sans-Serif" font-size="10.00">+ modelComponent()</text>
<text text-anchor="start" x="282.049" y="-510.5" font-family="Helvetica,sans-Serif" font-size="10.00">+ dimensions()</text>
</a>
</g>
</g>
<!-- Node2&#45;&gt;Node1 -->
<g id="edge1" class="edge"><title>Node2&#45;&gt;Node1</title>
<path fill="none" stroke="midnightblue" d="M350.973,-494.082C350.973,-485.545 350.973,-476.548 350.973,-467.759"/>
<polygon fill="none" stroke="midnightblue" points="347.473,-494.223 350.973,-504.223 354.473,-494.223 347.473,-494.223"/>
</g>
<!-- Node3 -->
<g id="node3" class="node"><title>Node3</title>
<g id="a_node3"><a xlink:href="class_hydro_couple_1_1_i_identity.html" target="_top" xlink:title="IIdentity interface class defines a method to get the Id of an HydroCouple entity. ">
<polygon fill="white" stroke="black" points="293.502,-615.5 293.502,-679.5 408.443,-679.5 408.443,-615.5 293.502,-615.5"/>
<text text-anchor="middle" x="350.973" y="-667.5" font-family="Helvetica,sans-Serif" font-size="10.00">HydroCouple::IIdentity</text>
<polyline fill="none" stroke="black" points="293.502,-661.5 408.443,-661.5 "/>
<text text-anchor="middle" x="350.973" y="-649.5" font-family="Helvetica,sans-Serif" font-size="10.00"> </text>
<polyline fill="none" stroke="black" points="293.502,-643.5 408.443,-643.5 "/>
<text text-anchor="start" x="301.502" y="-631.5" font-family="Helvetica,sans-Serif" font-size="10.00">+ ~IIdentity()</text>
<text text-anchor="start" x="301.502" y="-621.5" font-family="Helvetica,sans-Serif" font-size="10.00">+ id()</text>
</a>
</g>
</g>
<!-- Node3&#45;&gt;Node2 -->
<g id="edge2" class="edge"><title>Node3&#45;&gt;Node2</title>
<path fill="none" stroke="midnightblue" d="M350.973,-605.282C350.973,-596.531 350.973,-587.353 350.973,-578.801"/>
<polygon fill="none" stroke="midnightblue" points="347.473,-605.297 350.973,-615.297 354.473,-605.297 347.473,-605.297"/>
</g>
<!-- Node4 -->
<g id="node4" class="node"><title>Node4</title>
<g id="a_node4"><a xlink:href="class_hydro_couple_1_1_i_description.html" target="_top" xlink:title="IDescription interface class provides descriptive information on a HydroCouple object. ">
<polygon fill="white" stroke="black" points="284.613,-716.5 284.613,-810.5 417.332,-810.5 417.332,-716.5 284.613,-716.5"/>
<text text-anchor="middle" x="350.973" y="-798.5" font-family="Helvetica,sans-Serif" font-size="10.00">HydroCouple::IDescription</text>
<polyline fill="none" stroke="black" points="284.613,-792.5 417.332,-792.5 "/>
<text text-anchor="middle" x="350.973" y="-780.5" font-family="Helvetica,sans-Serif" font-size="10.00"> </text>
<polyline fill="none" stroke="black" points="284.613,-774.5 417.332,-774.5 "/>
<text text-anchor="start" x="292.613" y="-762.5" font-family="Helvetica,sans-Serif" font-size="10.00">+ ~IDescription()</text>
<text text-anchor="start" x="292.613" y="-752.5" font-family="Helvetica,sans-Serif" font-size="10.00">+ getCaption()</text>
<text text-anchor="start" x="292.613" y="-742.5" font-family="Helvetica,sans-Serif" font-size="10.00">+ setCaption()</text>
<text text-anchor="start" x="292.613" y="-732.5" font-family="Helvetica,sans-Serif" font-size="10.00">+ getDescription()</text>
<text text-anchor="start" x="292.613" y="-722.5" font-family="Helvetica,sans-Serif" font-size="10.00">+ setDescription()</text>
</a>
</g>
</g>
<!-- Node4&#45;&gt;Node3 -->
<g id="edge3" class="edge"><title>Node4&#45;&gt;Node3</title>
<path fill="none" stroke="midnightblue" d="M350.973,-706.212C350.973,-697.081 350.973,-687.926 350.973,-679.684"/>
<polygon fill="none" stroke="midnightblue" points="347.473,-706.46 350.973,-716.46 354.473,-706.46 347.473,-706.46"/>
</g>
<!-- Node5 -->
<g id="node5" class="node"><title>Node5</title>
<g id="a_node5"><a xlink:href="class_hydro_couple_1_1_i_property_changed.html" target="_top" xlink:title="IPropertyChanged interface is used to emit signal/event when a property of an object changes...">
<polygon fill="white" stroke="black" points="270.431,-847.5 270.431,-901.5 431.514,-901.5 431.514,-847.5 270.431,-847.5"/>
<text text-anchor="middle" x="350.973" y="-889.5" font-family="Helvetica,sans-Serif" font-size="10.00">HydroCouple::IPropertyChanged</text>
<polyline fill="none" stroke="black" points="270.431,-883.5 431.514,-883.5 "/>
<text text-anchor="middle" x="350.973" y="-871.5" font-family="Helvetica,sans-Serif" font-size="10.00"> </text>
<polyline fill="none" stroke="black" points="270.431,-865.5 431.514,-865.5 "/>
<text text-anchor="start" x="278.431" y="-853.5" font-family="Helvetica,sans-Serif" font-size="10.00">+ ~IPropertyChanged()</text>
</a>
</g>
</g>
<!-- Node5&#45;&gt;Node4 -->
<g id="edge4" class="edge"><title>Node5&#45;&gt;Node4</title>
<path fill="none" stroke="midnightblue" d="M350.973,-837.141C350.973,-828.716 350.973,-819.639 350.973,-810.851"/>
<polygon fill="none" stroke="midnightblue" points="347.473,-837.392 350.973,-847.392 354.473,-837.392 347.473,-837.392"/>
</g>
<!-- Node7 -->
<g id="node7" class="node"><title>Node7</title>
<g id="a_node7"><a xlink:href="class_hydro_couple_1_1_spatio_temporal_1_1_i_time2_d_regular_grid_argument.html" target="_top" xlink:title="The ITime2DRegularGridArgument class. ">
<polygon fill="white" stroke="black" points="95.0723,-116.5 95.0723,-180.5 266.873,-180.5 266.873,-116.5 95.0723,-116.5"/>
<text text-anchor="start" x="103.072" y="-168.5" font-family="Helvetica,sans-Serif" font-size="10.00">HydroCouple::SpatioTemporal</text>
<text text-anchor="middle" x="180.973" y="-158.5" font-family="Helvetica,sans-Serif" font-size="10.00">::ITime2DRegularGridArgument</text>
<polyline fill="none" stroke="black" points="95.0723,-152.5 266.873,-152.5 "/>
<text text-anchor="middle" x="180.973" y="-140.5" font-family="Helvetica,sans-Serif" font-size="10.00"> </text>
<polyline fill="none" stroke="black" points="95.0723,-134.5 266.873,-134.5 "/>
<text text-anchor="start" x="103.072" y="-122.5" font-family="Helvetica,sans-Serif" font-size="10.00">+ ~ITime2DRegularGridArgument()</text>
</a>
</g>
</g>
<!-- Node6&#45;&gt;Node7 -->
<g id="edge6" class="edge"><title>Node6&#45;&gt;Node7</title>
<path fill="none" stroke="midnightblue" d="M113.782,-224.931C126.882,-210.225 141.23,-194.116 153.292,-180.575"/>
<polygon fill="none" stroke="midnightblue" points="111.102,-222.678 107.064,-232.473 116.329,-227.334 111.102,-222.678"/>
</g>
<!-- Node10 -->
<g id="node10" class="node"><title>Node10</title>
<g id="a_node10"><a xlink:href="class_hydro_couple_1_1_spatial_1_1_i3_d_regular_grid_argument.html" target="_top" xlink:title="An I3DRegularGridArgument is an IArgument with an I3DRegularGridComponentItem. ">
<polygon fill="white" stroke="black" points="391,-111.5 391,-185.5 540.945,-185.5 540.945,-111.5 391,-111.5"/>
<text text-anchor="start" x="399" y="-173.5" font-family="Helvetica,sans-Serif" font-size="10.00">HydroCouple::Spatial</text>
<text text-anchor="middle" x="465.973" y="-163.5" font-family="Helvetica,sans-Serif" font-size="10.00">::I3DRegularGridArgument</text>
<polyline fill="none" stroke="black" points="391,-157.5 540.945,-157.5 "/>
<text text-anchor="middle" x="465.973" y="-145.5" font-family="Helvetica,sans-Serif" font-size="10.00"> </text>
<polyline fill="none" stroke="black" points="391,-139.5 540.945,-139.5 "/>
<text text-anchor="start" x="399" y="-127.5" font-family="Helvetica,sans-Serif" font-size="10.00">+ ~I3DRegularGridArgument()</text>
<text text-anchor="start" x="399" y="-117.5" font-family="Helvetica,sans-Serif" font-size="10.00">+ setGrid()</text>
</a>
</g>
</g>
<!-- Node9&#45;&gt;Node10 -->
<g id="edge9" class="edge"><title>Node9&#45;&gt;Node10</title>
<path fill="none" stroke="midnightblue" d="M575.446,-216.999C558.293,-206.423 540.583,-195.503 524.537,-185.61"/>
<polygon fill="none" stroke="midnightblue" points="574.005,-220.222 584.354,-222.491 577.679,-214.264 574.005,-220.222"/>
</g>
<!-- Node12 -->
<g id="node12" class="node"><title>Node12</title>
<g id="a_node12"><a xlink:href="class_hydro_couple_1_1_spatial_1_1_i3_d_regular_grid_exhange_item.html" target="_top" xlink:title="An I3DRegularGridExhangeItem is an IExchangeItem with an I3DRegularGridComponentItem. ">
<polygon fill="white" stroke="black" points="777.214,-116.5 777.214,-180.5 942.731,-180.5 942.731,-116.5 777.214,-116.5"/>
<text text-anchor="start" x="785.214" y="-168.5" font-family="Helvetica,sans-Serif" font-size="10.00">HydroCouple::Spatial</text>
<text text-anchor="middle" x="859.973" y="-158.5" font-family="Helvetica,sans-Serif" font-size="10.00">::I3DRegularGridExhangeItem</text>
<polyline fill="none" stroke="black" points="777.214,-152.5 942.731,-152.5 "/>
<text text-anchor="middle" x="859.973" y="-140.5" font-family="Helvetica,sans-Serif" font-size="10.00"> </text>
<polyline fill="none" stroke="black" points="777.214,-134.5 942.731,-134.5 "/>
<text text-anchor="start" x="785.214" y="-122.5" font-family="Helvetica,sans-Serif" font-size="10.00">+ ~I3DRegularGridExhangeItem()</text>
</a>
</g>
</g>
<!-- Node9&#45;&gt;Node12 -->
<g id="edge11" class="edge"><title>Node9&#45;&gt;Node12</title>
<path fill="none" stroke="midnightblue" d="M745.341,-217.367C766.425,-204.884 788.355,-191.9 807.32,-180.672"/>
<polygon fill="none" stroke="midnightblue" points="743.506,-214.385 736.685,-222.491 747.073,-220.409 743.506,-214.385"/>
</g>
<!-- Node14 -->
<g id="node14" class="node"><title>Node14</title>
<g id="a_node14"><a xlink:href="class_hydro_couple_1_1_spatio_temporal_1_1_i_time3_d_regular_grid_component_item.html" target="_top" xlink:title="The ITime3DRegularGridComponentItem class. ">
<polygon fill="white" stroke="black" points="559.176,-116.5 559.176,-180.5 758.77,-180.5 758.77,-116.5 559.176,-116.5"/>
<text text-anchor="start" x="567.176" y="-168.5" font-family="Helvetica,sans-Serif" font-size="10.00">HydroCouple::SpatioTemporal</text>
<text text-anchor="middle" x="658.973" y="-158.5" font-family="Helvetica,sans-Serif" font-size="10.00">::ITime3DRegularGridComponentItem</text>
<polyline fill="none" stroke="black" points="559.176,-152.5 758.77,-152.5 "/>
<text text-anchor="middle" x="658.973" y="-140.5" font-family="Helvetica,sans-Serif" font-size="10.00"> </text>
<polyline fill="none" stroke="black" points="559.176,-134.5 758.77,-134.5 "/>
<text text-anchor="start" x="567.176" y="-122.5" font-family="Helvetica,sans-Serif" font-size="10.00">+ ~ITime3DRegularGridComponentItem()</text>
</a>
</g>
</g>
<!-- Node9&#45;&gt;Node14 -->
<g id="edge14" class="edge"><title>Node9&#45;&gt;Node14</title>
<path fill="none" stroke="midnightblue" d="M658.973,-212.184C658.973,-201.34 658.973,-190.353 658.973,-180.672"/>
<polygon fill="none" stroke="midnightblue" points="655.473,-212.491 658.973,-222.491 662.473,-212.492 655.473,-212.491"/>
</g>
<!-- Node11 -->
<g id="node11" class="node"><title>Node11</title>
<g id="a_node11"><a xlink:href="class_hydro_couple_1_1_spatio_temporal_1_1_i_time3_d_regular_grid_argument.html" target="_top" xlink:title="The ITime3DRegularGridArgument class. ">
<polygon fill="white" stroke="black" points="476.072,-5.5 476.072,-69.5 647.873,-69.5 647.873,-5.5 476.072,-5.5"/>
<text text-anchor="start" x="484.072" y="-57.5" font-family="Helvetica,sans-Serif" font-size="10.00">HydroCouple::SpatioTemporal</text>
<text text-anchor="middle" x="561.973" y="-47.5" font-family="Helvetica,sans-Serif" font-size="10.00">::ITime3DRegularGridArgument</text>
<polyline fill="none" stroke="black" points="476.072,-41.5 647.873,-41.5 "/>
<text text-anchor="middle" x="561.973" y="-29.5" font-family="Helvetica,sans-Serif" font-size="10.00"> </text>
<polyline fill="none" stroke="black" points="476.072,-23.5 647.873,-23.5 "/>
<text text-anchor="start" x="484.072" y="-11.5" font-family="Helvetica,sans-Serif" font-size="10.00">+ ~ITime3DRegularGridArgument()</text>
</a>
</g>
</g>
<!-- Node10&#45;&gt;Node11 -->
<g id="edge10" class="edge"><title>Node10&#45;&gt;Node11</title>
<path fill="none" stroke="midnightblue" d="M504.762,-103.458C514.777,-92.0869 525.348,-80.0842 534.642,-69.5322"/>
<polygon fill="none" stroke="midnightblue" points="501.922,-101.387 497.939,-111.205 507.175,-106.013 501.922,-101.387"/>
</g>
<!-- Node13 -->
<g id="node13" class="node"><title>Node13</title>
<g id="a_node13"><a xlink:href="class_hydro_couple_1_1_spatio_temporal_1_1_i_time3_d_regular_grid_exchange_item.html" target="_top" xlink:title="The ITime3DRegularGridExchangeItem class. ">
<polygon fill="white" stroke="black" points="714.787,-0.5 714.787,-74.5 907.159,-74.5 907.159,-0.5 714.787,-0.5"/>
<text text-anchor="start" x="722.787" y="-62.5" font-family="Helvetica,sans-Serif" font-size="10.00">HydroCouple::SpatioTemporal</text>
<text text-anchor="middle" x="810.973" y="-52.5" font-family="Helvetica,sans-Serif" font-size="10.00">::ITime3DRegularGridExchangeItem</text>
<polyline fill="none" stroke="black" points="714.787,-46.5 907.159,-46.5 "/>
<text text-anchor="middle" x="810.973" y="-34.5" font-family="Helvetica,sans-Serif" font-size="10.00"> </text>
<polyline fill="none" stroke="black" points="714.787,-28.5 907.159,-28.5 "/>
<text text-anchor="start" x="722.787" y="-16.5" font-family="Helvetica,sans-Serif" font-size="10.00">+ ~ITime3RegularGridExchangeItem()</text>
<text text-anchor="start" x="722.787" y="-6.5" font-family="Helvetica,sans-Serif" font-size="10.00">+ ~ITime3DRegularGridExchangeItem()</text>
</a>
</g>
</g>
<!-- Node12&#45;&gt;Node13 -->
<g id="edge12" class="edge"><title>Node12&#45;&gt;Node13</title>
<path fill="none" stroke="midnightblue" d="M835.299,-107.169C830.204,-96.5407 825.126,-85.1402 820.864,-74.7422"/>
<polygon fill="none" stroke="midnightblue" points="832.215,-108.828 839.761,-116.265 838.499,-105.745 832.215,-108.828"/>
</g>
<!-- Node12&#45;&gt;Node13 -->
<g id="edge13" class="edge"><title>Node12&#45;&gt;Node13</title>
<path fill="none" stroke="midnightblue" d="M848.25,-106.846C843.82,-96.3105 838.701,-85.0351 833.666,-74.7422"/>
<polygon fill="none" stroke="midnightblue" points="845.077,-108.334 852.102,-116.265 851.556,-105.684 845.077,-108.334"/>
</g>
<!-- Node14&#45;&gt;Node11 -->
<g id="edge15" class="edge"><title>Node14&#45;&gt;Node11</title>
<path fill="none" stroke="midnightblue" d="M624.288,-108.524C612.957,-95.7921 600.529,-81.8264 589.773,-69.7396"/>
<polygon fill="none" stroke="midnightblue" points="621.914,-111.121 631.176,-116.265 627.143,-106.468 621.914,-111.121"/>
</g>
<!-- Node14&#45;&gt;Node13 -->
<g id="edge16" class="edge"><title>Node14&#45;&gt;Node13</title>
<path fill="none" stroke="midnightblue" d="M704.795,-110.016C720.388,-98.5335 737.981,-85.931 754.312,-74.5465"/>
<polygon fill="none" stroke="midnightblue" points="702.311,-107.5 696.359,-116.265 706.478,-113.125 702.311,-107.5"/>
</g>
<!-- Node14&#45;&gt;Node13 -->
<g id="edge17" class="edge"><title>Node14&#45;&gt;Node13</title>
<path fill="none" stroke="midnightblue" d="M717.237,-110.335C733.799,-98.767 751.537,-86.0364 767.1,-74.5465"/>
<polygon fill="none" stroke="midnightblue" points="714.916,-107.685 708.7,-116.265 718.91,-113.434 714.916,-107.685"/>
</g>
<!-- Node15&#45;&gt;Node7 -->
<g id="edge19" class="edge"><title>Node15&#45;&gt;Node7</title>
<path fill="none" stroke="midnightblue" d="M371.62,-233.216C333.605,-216.523 288.608,-196.764 251.877,-180.635"/>
<polygon fill="none" stroke="midnightblue" points="370.561,-236.574 381.125,-237.39 373.376,-230.164 370.561,-236.574"/>
</g>
</g>
</svg>
