<?xml version="1.0" encoding="UTF-8" standalone="no"?>
<!DOCTYPE svg PUBLIC "-//W3C//DTD SVG 1.1//EN"
 "http://www.w3.org/Graphics/SVG/1.1/DTD/svg11.dtd">
<!-- Generated by graphviz version 2.38.0 (20140413.2041)
 -->
<!-- Title: HydroCouple::SpatioTemporal::ITimeTINComponentDataItem Pages: 1 -->
<svg width="210pt" height="951pt"
 viewBox="0.00 0.00 210.03 951.41" xmlns="http://www.w3.org/2000/svg" xmlns:xlink="http://www.w3.org/1999/xlink">
<g id="graph0" class="graph" transform="scale(1 1) rotate(0) translate(4 947.408)">
<title>HydroCouple::SpatioTemporal::ITimeTINComponentDataItem</title>
<polygon fill="white" stroke="none" points="-4,4 -4,-947.408 206.03,-947.408 206.03,4 -4,4"/>
<!-- Node1 -->
<g id="node1" class="node"><title>Node1</title>
<polygon fill="#bfbfbf" stroke="black" points="3.00049,-114.84 3.00049,-352.199 199.03,-352.199 199.03,-114.84 3.00049,-114.84"/>
<text text-anchor="start" x="11.0005" y="-340.199" font-family="Monaco" font-size="10.00">HydroCouple::SpatioTemporal</text>
<text text-anchor="middle" x="101.015" y="-326.864" font-family="Monaco" font-size="10.00">::ITimeTINComponentDataItem</text>
<polyline fill="none" stroke="black" points="3.00049,-317.529 199.03,-317.529 "/>
<text text-anchor="middle" x="101.015" y="-305.529" font-family="Monaco" font-size="10.00"> </text>
<polyline fill="none" stroke="black" points="3.00049,-296.194 199.03,-296.194 "/>
<text text-anchor="start" x="11.0005" y="-284.194" font-family="Monaco" font-size="10.00">+ ~ITimeTINComponentDataItem()</text>
<text text-anchor="start" x="11.0005" y="-270.859" font-family="Monaco" font-size="10.00">+ TIN()</text>
<text text-anchor="start" x="11.0005" y="-257.524" font-family="Monaco" font-size="10.00">+ triangle()</text>
<text text-anchor="start" x="11.0005" y="-244.189" font-family="Monaco" font-size="10.00">+ TINPatchDimension()</text>
<text text-anchor="start" x="11.0005" y="-230.854" font-family="Monaco" font-size="10.00">+ times()</text>
<text text-anchor="start" x="11.0005" y="-217.52" font-family="Monaco" font-size="10.00">+ timeSpan()</text>
<text text-anchor="start" x="11.0005" y="-204.185" font-family="Monaco" font-size="10.00">+ timeDimension()</text>
<text text-anchor="start" x="11.0005" y="-190.85" font-family="Monaco" font-size="10.00">+ getValue()</text>
<text text-anchor="start" x="11.0005" y="-177.515" font-family="Monaco" font-size="10.00">+ getValues()</text>
<text text-anchor="start" x="11.0005" y="-164.18" font-family="Monaco" font-size="10.00">+ getValues()</text>
<text text-anchor="start" x="11.0005" y="-150.845" font-family="Monaco" font-size="10.00">+ setValue()</text>
<text text-anchor="start" x="11.0005" y="-137.51" font-family="Monaco" font-size="10.00">+ setValues()</text>
<text text-anchor="start" x="11.0005" y="-124.175" font-family="Monaco" font-size="10.00">+ setValues()</text>
</g>
<!-- Node6 -->
<g id="node6" class="node"><title>Node6</title>
<g id="a_node6"><a xlink:href="class_hydro_couple_1_1_spatio_temporal_1_1_i_time_t_i_n_exchange_item.html" target="_top" xlink:title="The ITimeTINExchangeItem class. ">
<polygon fill="white" stroke="black" points="12.002,-0.5 12.002,-77.8398 190.028,-77.8398 190.028,-0.5 12.002,-0.5"/>
<text text-anchor="start" x="20.002" y="-65.8398" font-family="Monaco" font-size="10.00">HydroCouple::SpatioTemporal</text>
<text text-anchor="middle" x="101.015" y="-52.5049" font-family="Monaco" font-size="10.00">::ITimeTINExchangeItem</text>
<polyline fill="none" stroke="black" points="12.002,-43.1699 190.028,-43.1699 "/>
<text text-anchor="middle" x="101.015" y="-31.1699" font-family="Monaco" font-size="10.00"> </text>
<polyline fill="none" stroke="black" points="12.002,-21.835 190.028,-21.835 "/>
<text text-anchor="start" x="20.002" y="-9.83496" font-family="Monaco" font-size="10.00">+ ~ITimeTINExchangeItem()</text>
</a>
</g>
</g>
<!-- Node1&#45;&gt;Node6 -->
<g id="edge5" class="edge"><title>Node1&#45;&gt;Node6</title>
<path fill="none" stroke="midnightblue" d="M101.015,-104.691C101.015,-95.1245 101.015,-86.028 101.015,-77.8431"/>
<polygon fill="none" stroke="midnightblue" points="97.5152,-104.813 101.015,-114.813 104.515,-104.813 97.5152,-104.813"/>
</g>
<!-- Node2 -->
<g id="node2" class="node"><title>Node2</title>
<g id="a_node2"><a xlink:href="class_hydro_couple_1_1_i_component_data_item.html" target="_top" xlink:title="IComponentItem is a fundamental unit of data for a component. ">
<polygon fill="white" stroke="black" points="0,-389.199 0,-573.219 202.03,-573.219 202.03,-389.199 0,-389.199"/>
<text text-anchor="middle" x="101.015" y="-561.219" font-family="Monaco" font-size="10.00">HydroCouple::IComponentDataItem</text>
<polyline fill="none" stroke="black" points="0,-551.884 202.03,-551.884 "/>
<text text-anchor="middle" x="101.015" y="-539.884" font-family="Monaco" font-size="10.00"> </text>
<polyline fill="none" stroke="black" points="0,-530.549 202.03,-530.549 "/>
<text text-anchor="start" x="8" y="-518.549" font-family="Monaco" font-size="10.00">+ ~IComponentDataItem()</text>
<text text-anchor="start" x="8" y="-505.214" font-family="Monaco" font-size="10.00">+ modelComponent()</text>
<text text-anchor="start" x="8" y="-491.879" font-family="Monaco" font-size="10.00">+ dimensions()</text>
<text text-anchor="start" x="8" y="-478.544" font-family="Monaco" font-size="10.00">+ valueDefinition()</text>
<text text-anchor="start" x="8" y="-465.209" font-family="Monaco" font-size="10.00">+ getValue()</text>
<text text-anchor="start" x="8" y="-451.874" font-family="Monaco" font-size="10.00">+ getValues()</text>
<text text-anchor="start" x="8" y="-438.539" font-family="Monaco" font-size="10.00">+ getValues()</text>
<text text-anchor="start" x="8" y="-425.204" font-family="Monaco" font-size="10.00">+ setValue()</text>
<text text-anchor="start" x="8" y="-411.869" font-family="Monaco" font-size="10.00">+ setValues()</text>
<text text-anchor="start" x="8" y="-398.534" font-family="Monaco" font-size="10.00">+ setValues()</text>
</a>
</g>
</g>
<!-- Node2&#45;&gt;Node1 -->
<g id="edge1" class="edge"><title>Node2&#45;&gt;Node1</title>
<path fill="none" stroke="midnightblue" d="M101.015,-378.841C101.015,-370.056 101.015,-361.12 101.015,-352.22"/>
<polygon fill="none" stroke="midnightblue" points="97.5152,-379.072 101.015,-389.072 104.515,-379.072 97.5152,-379.072"/>
</g>
<!-- Node3 -->
<g id="node3" class="node"><title>Node3</title>
<g id="a_node3"><a xlink:href="class_hydro_couple_1_1_i_identity.html" target="_top" xlink:title="IIdentity interface class defines a method to get the Id of an HydroCouple entity. ">
<polygon fill="white" stroke="black" points="27.0044,-610.219 27.0044,-687.559 175.026,-687.559 175.026,-610.219 27.0044,-610.219"/>
<text text-anchor="middle" x="101.015" y="-675.559" font-family="Monaco" font-size="10.00">HydroCouple::IIdentity</text>
<polyline fill="none" stroke="black" points="27.0044,-666.224 175.026,-666.224 "/>
<text text-anchor="middle" x="101.015" y="-654.224" font-family="Monaco" font-size="10.00"> </text>
<polyline fill="none" stroke="black" points="27.0044,-644.889 175.026,-644.889 "/>
<text text-anchor="start" x="35.0044" y="-632.889" font-family="Monaco" font-size="10.00">+ ~IIdentity()</text>
<text text-anchor="start" x="35.0044" y="-619.554" font-family="Monaco" font-size="10.00">+ id()</text>
</a>
</g>
</g>
<!-- Node3&#45;&gt;Node2 -->
<g id="edge2" class="edge"><title>Node3&#45;&gt;Node2</title>
<path fill="none" stroke="midnightblue" d="M101.015,-599.636C101.015,-591.283 101.015,-582.358 101.015,-573.3"/>
<polygon fill="none" stroke="midnightblue" points="97.5152,-599.878 101.015,-609.878 104.515,-599.878 97.5152,-599.878"/>
</g>
<!-- Node4 -->
<g id="node4" class="node"><title>Node4</title>
<g id="a_node4"><a xlink:href="class_hydro_couple_1_1_i_description.html" target="_top" xlink:title="IDescription interface class provides descriptive information on a HydroCouple object. ">
<polygon fill="white" stroke="black" points="18.0029,-724.559 18.0029,-841.903 184.027,-841.903 184.027,-724.559 18.0029,-724.559"/>
<text text-anchor="middle" x="101.015" y="-829.903" font-family="Monaco" font-size="10.00">HydroCouple::IDescription</text>
<polyline fill="none" stroke="black" points="18.0029,-820.568 184.027,-820.568 "/>
<text text-anchor="middle" x="101.015" y="-808.568" font-family="Monaco" font-size="10.00"> </text>
<polyline fill="none" stroke="black" points="18.0029,-799.233 184.027,-799.233 "/>
<text text-anchor="start" x="26.0029" y="-787.233" font-family="Monaco" font-size="10.00">+ ~IDescription()</text>
<text text-anchor="start" x="26.0029" y="-773.898" font-family="Monaco" font-size="10.00">+ caption()</text>
<text text-anchor="start" x="26.0029" y="-760.563" font-family="Monaco" font-size="10.00">+ setCaption()</text>
<text text-anchor="start" x="26.0029" y="-747.229" font-family="Monaco" font-size="10.00">+ description()</text>
<text text-anchor="start" x="26.0029" y="-733.894" font-family="Monaco" font-size="10.00">+ setDescription()</text>
</a>
</g>
</g>
<!-- Node4&#45;&gt;Node3 -->
<g id="edge3" class="edge"><title>Node4&#45;&gt;Node3</title>
<path fill="none" stroke="midnightblue" d="M101.015,-713.993C101.015,-704.954 101.015,-695.966 101.015,-687.706"/>
<polygon fill="none" stroke="midnightblue" points="97.5152,-714.184 101.015,-724.184 104.515,-714.184 97.5152,-714.184"/>
</g>
<!-- Node5 -->
<g id="node5" class="node"><title>Node5</title>
<g id="a_node5"><a xlink:href="class_hydro_couple_1_1_i_property_changed.html" target="_top" xlink:title="IPropertyChanged interface is used to emit signal/event when a property of an object changes...">
<polygon fill="white" stroke="black" points="6.00098,-878.903 6.00098,-942.908 196.029,-942.908 196.029,-878.903 6.00098,-878.903"/>
<text text-anchor="middle" x="101.015" y="-930.908" font-family="Monaco" font-size="10.00">HydroCouple::IPropertyChanged</text>
<polyline fill="none" stroke="black" points="6.00098,-921.573 196.029,-921.573 "/>
<text text-anchor="middle" x="101.015" y="-909.573" font-family="Monaco" font-size="10.00"> </text>
<polyline fill="none" stroke="black" points="6.00098,-900.238 196.029,-900.238 "/>
<text text-anchor="start" x="14.001" y="-888.238" font-family="Monaco" font-size="10.00">+ ~IPropertyChanged()</text>
</a>
</g>
</g>
<!-- Node5&#45;&gt;Node4 -->
<g id="edge4" class="edge"><title>Node5&#45;&gt;Node4</title>
<path fill="none" stroke="midnightblue" d="M101.015,-868.583C101.015,-860.198 101.015,-851.231 101.015,-842.389"/>
<polygon fill="none" stroke="midnightblue" points="97.5152,-868.84 101.015,-878.84 104.515,-868.84 97.5152,-868.84"/>
</g>
</g>
</svg>
