<?xml version="1.0" encoding="UTF-8" standalone="no"?>
<!DOCTYPE svg PUBLIC "-//W3C//DTD SVG 1.1//EN"
 "http://www.w3.org/Graphics/SVG/1.1/DTD/svg11.dtd">
<!-- Generated by graphviz version 2.38.0 (20140413.2041)
 -->
<!-- Title: ModelComponentInfo Pages: 1 -->
<svg width="316pt" height="1018pt"
 viewBox="0.00 0.00 316.09 1018.00" xmlns="http://www.w3.org/2000/svg" xmlns:xlink="http://www.w3.org/1999/xlink">
<g id="graph0" class="graph" transform="scale(1 1) rotate(0) translate(4 1014)">
<title>ModelComponentInfo</title>
<polygon fill="white" stroke="none" points="-4,4 -4,-1014 312.092,-1014 312.092,4 -4,4"/>
<!-- Node1 -->
<g id="node1" class="node"><title>Node1</title>
<polygon fill="#bfbfbf" stroke="black" points="81.127,-0.5 81.127,-54.5 192.742,-54.5 192.742,-0.5 81.127,-0.5"/>
<text text-anchor="middle" x="136.935" y="-42.5" font-family="Helvetica,sans-Serif" font-size="10.00">ModelComponentInfo</text>
<polyline fill="none" stroke="black" points="81.127,-36.5 192.742,-36.5 "/>
<text text-anchor="middle" x="136.935" y="-24.5" font-family="Helvetica,sans-Serif" font-size="10.00"> </text>
<polyline fill="none" stroke="black" points="81.127,-18.5 192.742,-18.5 "/>
<text text-anchor="middle" x="136.935" y="-6.5" font-family="Helvetica,sans-Serif" font-size="10.00"> </text>
</g>
<!-- Node2 -->
<g id="node2" class="node"><title>Node2</title>
<g id="a_node2"><a xlink:href="class_component_info.html" target="_top" xlink:title="Example implementation of the IComponentInfo. This is the core interface specifying meta data about a...">
<polygon fill="white" stroke="black" points="0,-91.5 0,-385.5 111.869,-385.5 111.869,-91.5 0,-91.5"/>
<text text-anchor="middle" x="55.9346" y="-373.5" font-family="Helvetica,sans-Serif" font-size="10.00">ComponentInfo</text>
<polyline fill="none" stroke="black" points="0,-367.5 111.869,-367.5 "/>
<text text-anchor="start" x="8" y="-355.5" font-family="Helvetica,sans-Serif" font-size="10.00"># m_name</text>
<text text-anchor="start" x="8" y="-345.5" font-family="Helvetica,sans-Serif" font-size="10.00"># m_iconFilePath</text>
<text text-anchor="start" x="8" y="-335.5" font-family="Helvetica,sans-Serif" font-size="10.00"># m_vendor</text>
<text text-anchor="start" x="8" y="-325.5" font-family="Helvetica,sans-Serif" font-size="10.00"># m_license</text>
<text text-anchor="start" x="8" y="-315.5" font-family="Helvetica,sans-Serif" font-size="10.00"># m_copyright</text>
<text text-anchor="start" x="8" y="-305.5" font-family="Helvetica,sans-Serif" font-size="10.00"># m_url</text>
<text text-anchor="start" x="8" y="-295.5" font-family="Helvetica,sans-Serif" font-size="10.00"># m_email</text>
<text text-anchor="start" x="8" y="-285.5" font-family="Helvetica,sans-Serif" font-size="10.00"># m_version</text>
<text text-anchor="start" x="8" y="-275.5" font-family="Helvetica,sans-Serif" font-size="10.00"># m_category</text>
<text text-anchor="start" x="8" y="-265.5" font-family="Helvetica,sans-Serif" font-size="10.00"># m_filePath</text>
<text text-anchor="start" x="8" y="-255.5" font-family="Helvetica,sans-Serif" font-size="10.00"># m_publications</text>
<polyline fill="none" stroke="black" points="0,-249.5 111.869,-249.5 "/>
<text text-anchor="start" x="8" y="-237.5" font-family="Helvetica,sans-Serif" font-size="10.00">+ ComponentInfo()</text>
<text text-anchor="start" x="8" y="-227.5" font-family="Helvetica,sans-Serif" font-size="10.00">+ ~ComponentInfo()</text>
<text text-anchor="start" x="8" y="-217.5" font-family="Helvetica,sans-Serif" font-size="10.00">+ name()</text>
<text text-anchor="start" x="8" y="-207.5" font-family="Helvetica,sans-Serif" font-size="10.00">+ libraryFilePath()</text>
<text text-anchor="start" x="8" y="-197.5" font-family="Helvetica,sans-Serif" font-size="10.00">+ setLibraryFilePath()</text>
<text text-anchor="start" x="8" y="-187.5" font-family="Helvetica,sans-Serif" font-size="10.00">+ iconFilePath()</text>
<text text-anchor="start" x="8" y="-177.5" font-family="Helvetica,sans-Serif" font-size="10.00">+ vendor()</text>
<text text-anchor="start" x="8" y="-167.5" font-family="Helvetica,sans-Serif" font-size="10.00">+ publications()</text>
<text text-anchor="start" x="8" y="-157.5" font-family="Helvetica,sans-Serif" font-size="10.00">+ license()</text>
<text text-anchor="start" x="8" y="-147.5" font-family="Helvetica,sans-Serif" font-size="10.00">+ copyright()</text>
<text text-anchor="start" x="8" y="-137.5" font-family="Helvetica,sans-Serif" font-size="10.00">+ url()</text>
<text text-anchor="start" x="8" y="-127.5" font-family="Helvetica,sans-Serif" font-size="10.00">+ email()</text>
<text text-anchor="start" x="8" y="-117.5" font-family="Helvetica,sans-Serif" font-size="10.00">+ version()</text>
<text text-anchor="start" x="8" y="-107.5" font-family="Helvetica,sans-Serif" font-size="10.00">+ category()</text>
<text text-anchor="start" x="8" y="-97.5" font-family="Helvetica,sans-Serif" font-size="10.00">+ hasValidLicense()</text>
</a>
</g>
</g>
<!-- Node2&#45;&gt;Node1 -->
<g id="edge1" class="edge"><title>Node2&#45;&gt;Node1</title>
<path fill="none" stroke="midnightblue" d="M115.701,-83.2875C119.85,-72.5828 123.647,-62.7856 126.847,-54.5293"/>
<polygon fill="none" stroke="midnightblue" points="112.321,-82.3232 111.971,-92.9123 118.848,-84.8528 112.321,-82.3232"/>
</g>
<!-- Node3 -->
<g id="node3" class="node"><title>Node3</title>
<g id="a_node3"><a xlink:href="class_identity.html" target="_top" xlink:title="{Identity\n|+ Id\l|+ Identity()\l+ Identity()\l+ ~Identity()\l+ id()\l# setId()\l}">
<polygon fill="white" stroke="black" points="21.2549,-467.5 21.2549,-561.5 90.6143,-561.5 90.6143,-467.5 21.2549,-467.5"/>
<text text-anchor="middle" x="55.9346" y="-549.5" font-family="Helvetica,sans-Serif" font-size="10.00">Identity</text>
<polyline fill="none" stroke="black" points="21.2549,-543.5 90.6143,-543.5 "/>
<text text-anchor="start" x="29.2549" y="-531.5" font-family="Helvetica,sans-Serif" font-size="10.00">+ Id</text>
<polyline fill="none" stroke="black" points="21.2549,-525.5 90.6143,-525.5 "/>
<text text-anchor="start" x="29.2549" y="-513.5" font-family="Helvetica,sans-Serif" font-size="10.00">+ Identity()</text>
<text text-anchor="start" x="29.2549" y="-503.5" font-family="Helvetica,sans-Serif" font-size="10.00">+ Identity()</text>
<text text-anchor="start" x="29.2549" y="-493.5" font-family="Helvetica,sans-Serif" font-size="10.00">+ ~Identity()</text>
<text text-anchor="start" x="29.2549" y="-483.5" font-family="Helvetica,sans-Serif" font-size="10.00">+ id()</text>
<text text-anchor="start" x="29.2549" y="-473.5" font-family="Helvetica,sans-Serif" font-size="10.00"># setId()</text>
</a>
</g>
</g>
<!-- Node3&#45;&gt;Node2 -->
<g id="edge2" class="edge"><title>Node3&#45;&gt;Node2</title>
<path fill="none" stroke="midnightblue" d="M55.9346,-457.294C55.9346,-436.168 55.9346,-411.053 55.9346,-385.518"/>
<polygon fill="none" stroke="midnightblue" points="52.4347,-457.329 55.9346,-467.329 59.4347,-457.33 52.4347,-457.329"/>
</g>
<!-- Node4 -->
<g id="node4" class="node"><title>Node4</title>
<g id="a_node4"><a xlink:href="class_description.html" target="_top" xlink:title="{Description\n|+ Caption\l+ Description\l# m_caption\l# m_description\l|+ Description()\l+ Description()\l+ ~Description()\l+ getCaption()\l+ setCaption()\l+ getDescription()\l+ setDescription()\l}">
<polygon fill="white" stroke="black" points="8.33496,-643.5 8.33496,-787.5 103.534,-787.5 103.534,-643.5 8.33496,-643.5"/>
<text text-anchor="middle" x="55.9346" y="-775.5" font-family="Helvetica,sans-Serif" font-size="10.00">Description</text>
<polyline fill="none" stroke="black" points="8.33496,-769.5 103.534,-769.5 "/>
<text text-anchor="start" x="16.335" y="-757.5" font-family="Helvetica,sans-Serif" font-size="10.00">+ Caption</text>
<text text-anchor="start" x="16.335" y="-747.5" font-family="Helvetica,sans-Serif" font-size="10.00">+ Description</text>
<text text-anchor="start" x="16.335" y="-737.5" font-family="Helvetica,sans-Serif" font-size="10.00"># m_caption</text>
<text text-anchor="start" x="16.335" y="-727.5" font-family="Helvetica,sans-Serif" font-size="10.00"># m_description</text>
<polyline fill="none" stroke="black" points="8.33496,-721.5 103.534,-721.5 "/>
<text text-anchor="start" x="16.335" y="-709.5" font-family="Helvetica,sans-Serif" font-size="10.00">+ Description()</text>
<text text-anchor="start" x="16.335" y="-699.5" font-family="Helvetica,sans-Serif" font-size="10.00">+ Description()</text>
<text text-anchor="start" x="16.335" y="-689.5" font-family="Helvetica,sans-Serif" font-size="10.00">+ ~Description()</text>
<text text-anchor="start" x="16.335" y="-679.5" font-family="Helvetica,sans-Serif" font-size="10.00">+ getCaption()</text>
<text text-anchor="start" x="16.335" y="-669.5" font-family="Helvetica,sans-Serif" font-size="10.00">+ setCaption()</text>
<text text-anchor="start" x="16.335" y="-659.5" font-family="Helvetica,sans-Serif" font-size="10.00">+ getDescription()</text>
<text text-anchor="start" x="16.335" y="-649.5" font-family="Helvetica,sans-Serif" font-size="10.00">+ setDescription()</text>
</a>
</g>
</g>
<!-- Node4&#45;&gt;Node3 -->
<g id="edge3" class="edge"><title>Node4&#45;&gt;Node3</title>
<path fill="none" stroke="midnightblue" d="M55.9346,-633.484C55.9346,-609.003 55.9346,-582.973 55.9346,-561.61"/>
<polygon fill="none" stroke="midnightblue" points="52.4347,-633.499 55.9346,-643.499 59.4347,-633.499 52.4347,-633.499"/>
</g>
<!-- Node5 -->
<g id="node5" class="node"><title>Node5</title>
<polygon fill="white" stroke="#bfbfbf" points="29.5947,-844.5 29.5947,-898.5 82.2744,-898.5 82.2744,-844.5 29.5947,-844.5"/>
<text text-anchor="middle" x="55.9346" y="-886.5" font-family="Helvetica,sans-Serif" font-size="10.00">QObject</text>
<polyline fill="none" stroke="#bfbfbf" points="29.5947,-880.5 82.2744,-880.5 "/>
<text text-anchor="middle" x="55.9346" y="-868.5" font-family="Helvetica,sans-Serif" font-size="10.00"> </text>
<polyline fill="none" stroke="#bfbfbf" points="29.5947,-862.5 82.2744,-862.5 "/>
<text text-anchor="middle" x="55.9346" y="-850.5" font-family="Helvetica,sans-Serif" font-size="10.00"> </text>
</g>
<!-- Node5&#45;&gt;Node4 -->
<g id="edge4" class="edge"><title>Node5&#45;&gt;Node4</title>
<path fill="none" stroke="midnightblue" d="M55.9346,-834.221C55.9346,-820.239 55.9346,-803.741 55.9346,-787.592"/>
<polygon fill="none" stroke="midnightblue" points="52.4347,-834.376 55.9346,-844.376 59.4347,-834.376 52.4347,-834.376"/>
</g>
<!-- Node6 -->
<g id="node6" class="node"><title>Node6</title>
<g id="a_node6"><a xlink:href="class_hydro_couple_1_1_i_description.html" target="_top" xlink:title="IDescription interface class provides descriptive information on a HydroCouple object. ">
<polygon fill="white" stroke="black" points="106.575,-824.5 106.575,-918.5 239.294,-918.5 239.294,-824.5 106.575,-824.5"/>
<text text-anchor="middle" x="172.935" y="-906.5" font-family="Helvetica,sans-Serif" font-size="10.00">HydroCouple::IDescription</text>
<polyline fill="none" stroke="black" points="106.575,-900.5 239.294,-900.5 "/>
<text text-anchor="middle" x="172.935" y="-888.5" font-family="Helvetica,sans-Serif" font-size="10.00"> </text>
<polyline fill="none" stroke="black" points="106.575,-882.5 239.294,-882.5 "/>
<text text-anchor="start" x="114.575" y="-870.5" font-family="Helvetica,sans-Serif" font-size="10.00">+ ~IDescription()</text>
<text text-anchor="start" x="114.575" y="-860.5" font-family="Helvetica,sans-Serif" font-size="10.00">+ getCaption()</text>
<text text-anchor="start" x="114.575" y="-850.5" font-family="Helvetica,sans-Serif" font-size="10.00">+ setCaption()</text>
<text text-anchor="start" x="114.575" y="-840.5" font-family="Helvetica,sans-Serif" font-size="10.00">+ getDescription()</text>
<text text-anchor="start" x="114.575" y="-830.5" font-family="Helvetica,sans-Serif" font-size="10.00">+ setDescription()</text>
</a>
</g>
</g>
<!-- Node6&#45;&gt;Node4 -->
<g id="edge5" class="edge"><title>Node6&#45;&gt;Node4</title>
<path fill="none" stroke="midnightblue" d="M131.651,-816.161C122.568,-804.205 112.876,-791.449 103.565,-779.193"/>
<polygon fill="none" stroke="midnightblue" points="128.994,-818.45 137.831,-824.295 134.568,-814.215 128.994,-818.45"/>
</g>
<!-- Node8 -->
<g id="node8" class="node"><title>Node8</title>
<g id="a_node8"><a xlink:href="class_hydro_couple_1_1_i_identity.html" target="_top" xlink:title="IIdentity interface class defines a method to get the Id of an HydroCouple entity. ">
<polygon fill="white" stroke="black" points="121.464,-683.5 121.464,-747.5 236.405,-747.5 236.405,-683.5 121.464,-683.5"/>
<text text-anchor="middle" x="178.935" y="-735.5" font-family="Helvetica,sans-Serif" font-size="10.00">HydroCouple::IIdentity</text>
<polyline fill="none" stroke="black" points="121.464,-729.5 236.405,-729.5 "/>
<text text-anchor="middle" x="178.935" y="-717.5" font-family="Helvetica,sans-Serif" font-size="10.00"> </text>
<polyline fill="none" stroke="black" points="121.464,-711.5 236.405,-711.5 "/>
<text text-anchor="start" x="129.464" y="-699.5" font-family="Helvetica,sans-Serif" font-size="10.00">+ ~IIdentity()</text>
<text text-anchor="start" x="129.464" y="-689.5" font-family="Helvetica,sans-Serif" font-size="10.00">+ id()</text>
</a>
</g>
</g>
<!-- Node6&#45;&gt;Node8 -->
<g id="edge8" class="edge"><title>Node6&#45;&gt;Node8</title>
<path fill="none" stroke="midnightblue" d="M175.129,-814.171C176.005,-791.681 176.981,-766.651 177.724,-747.56"/>
<polygon fill="none" stroke="midnightblue" points="171.627,-814.166 174.735,-824.295 178.622,-814.439 171.627,-814.166"/>
</g>
<!-- Node7 -->
<g id="node7" class="node"><title>Node7</title>
<g id="a_node7"><a xlink:href="class_hydro_couple_1_1_i_property_changed.html" target="_top" xlink:title="IPropertyChanged interface is used to emit signal/event when a property of an object changes...">
<polygon fill="white" stroke="black" points="92.3931,-955.5 92.3931,-1009.5 253.476,-1009.5 253.476,-955.5 92.3931,-955.5"/>
<text text-anchor="middle" x="172.935" y="-997.5" font-family="Helvetica,sans-Serif" font-size="10.00">HydroCouple::IPropertyChanged</text>
<polyline fill="none" stroke="black" points="92.3931,-991.5 253.476,-991.5 "/>
<text text-anchor="middle" x="172.935" y="-979.5" font-family="Helvetica,sans-Serif" font-size="10.00"> </text>
<polyline fill="none" stroke="black" points="92.3931,-973.5 253.476,-973.5 "/>
<text text-anchor="start" x="100.393" y="-961.5" font-family="Helvetica,sans-Serif" font-size="10.00">+ ~IPropertyChanged()</text>
</a>
</g>
</g>
<!-- Node7&#45;&gt;Node6 -->
<g id="edge6" class="edge"><title>Node7&#45;&gt;Node6</title>
<path fill="none" stroke="midnightblue" d="M172.935,-945.141C172.935,-936.716 172.935,-927.639 172.935,-918.851"/>
<polygon fill="none" stroke="midnightblue" points="169.435,-945.392 172.935,-955.392 176.435,-945.392 169.435,-945.392"/>
</g>
<!-- Node8&#45;&gt;Node3 -->
<g id="edge7" class="edge"><title>Node8&#45;&gt;Node3</title>
<path fill="none" stroke="midnightblue" d="M146.807,-675.323C131.337,-655.505 113.116,-630.682 98.9346,-607 90.3681,-592.694 82.2381,-576.405 75.4001,-561.576"/>
<polygon fill="none" stroke="midnightblue" points="144.087,-677.527 153.026,-683.214 149.585,-673.193 144.087,-677.527"/>
</g>
<!-- Node9 -->
<g id="node9" class="node"><title>Node9</title>
<g id="a_node9"><a xlink:href="class_hydro_couple_1_1_i_component_info.html" target="_top" xlink:title="IComponentInfo interface class provides detailed metadata about a component. ">
<polygon fill="white" stroke="black" points="108.396,-422.5 108.396,-606.5 259.474,-606.5 259.474,-422.5 108.396,-422.5"/>
<text text-anchor="middle" x="183.935" y="-594.5" font-family="Helvetica,sans-Serif" font-size="10.00">HydroCouple::IComponentInfo</text>
<polyline fill="none" stroke="black" points="108.396,-588.5 259.474,-588.5 "/>
<text text-anchor="middle" x="183.935" y="-576.5" font-family="Helvetica,sans-Serif" font-size="10.00"> </text>
<polyline fill="none" stroke="black" points="108.396,-570.5 259.474,-570.5 "/>
<text text-anchor="start" x="116.396" y="-558.5" font-family="Helvetica,sans-Serif" font-size="10.00">+ ~IComponentInfo()</text>
<text text-anchor="start" x="116.396" y="-548.5" font-family="Helvetica,sans-Serif" font-size="10.00">+ name()</text>
<text text-anchor="start" x="116.396" y="-538.5" font-family="Helvetica,sans-Serif" font-size="10.00">+ libraryFilePath()</text>
<text text-anchor="start" x="116.396" y="-528.5" font-family="Helvetica,sans-Serif" font-size="10.00">+ setLibraryFilePath()</text>
<text text-anchor="start" x="116.396" y="-518.5" font-family="Helvetica,sans-Serif" font-size="10.00">+ iconFilePath()</text>
<text text-anchor="start" x="116.396" y="-508.5" font-family="Helvetica,sans-Serif" font-size="10.00">+ vendor()</text>
<text text-anchor="start" x="116.396" y="-498.5" font-family="Helvetica,sans-Serif" font-size="10.00">+ publications()</text>
<text text-anchor="start" x="116.396" y="-488.5" font-family="Helvetica,sans-Serif" font-size="10.00">+ license()</text>
<text text-anchor="start" x="116.396" y="-478.5" font-family="Helvetica,sans-Serif" font-size="10.00">+ copyright()</text>
<text text-anchor="start" x="116.396" y="-468.5" font-family="Helvetica,sans-Serif" font-size="10.00">+ url()</text>
<text text-anchor="start" x="116.396" y="-458.5" font-family="Helvetica,sans-Serif" font-size="10.00">+ email()</text>
<text text-anchor="start" x="116.396" y="-448.5" font-family="Helvetica,sans-Serif" font-size="10.00">+ version()</text>
<text text-anchor="start" x="116.396" y="-438.5" font-family="Helvetica,sans-Serif" font-size="10.00">+ category()</text>
<text text-anchor="start" x="116.396" y="-428.5" font-family="Helvetica,sans-Serif" font-size="10.00">+ validateLicense()</text>
</a>
</g>
</g>
<!-- Node8&#45;&gt;Node9 -->
<g id="edge10" class="edge"><title>Node8&#45;&gt;Node9</title>
<path fill="none" stroke="midnightblue" d="M179.967,-673.408C180.455,-653.98 181.059,-629.954 181.647,-606.555"/>
<polygon fill="none" stroke="midnightblue" points="176.468,-673.321 179.716,-683.406 183.466,-673.497 176.468,-673.321"/>
</g>
<!-- Node9&#45;&gt;Node2 -->
<g id="edge9" class="edge"><title>Node9&#45;&gt;Node2</title>
<path fill="none" stroke="midnightblue" d="M133.935,-413.291C129.49,-404.088 125.099,-394.887 120.935,-386 117.983,-379.701 114.987,-373.235 111.985,-366.695"/>
<polygon fill="none" stroke="midnightblue" points="130.88,-415.013 138.393,-422.484 137.179,-411.959 130.88,-415.013"/>
</g>
<!-- Node10 -->
<g id="node10" class="node"><title>Node10</title>
<g id="a_node10"><a xlink:href="class_hydro_couple_1_1_i_model_component_info.html" target="_top" xlink:title="IModelComponentInfo interface inherits from the IComponentInfo interface which provides detailed meta...">
<polygon fill="white" stroke="black" points="129.777,-206.5 129.777,-270.5 308.092,-270.5 308.092,-206.5 129.777,-206.5"/>
<text text-anchor="middle" x="218.935" y="-258.5" font-family="Helvetica,sans-Serif" font-size="10.00">HydroCouple::IModelComponentInfo</text>
<polyline fill="none" stroke="black" points="129.777,-252.5 308.092,-252.5 "/>
<text text-anchor="middle" x="218.935" y="-240.5" font-family="Helvetica,sans-Serif" font-size="10.00"> </text>
<polyline fill="none" stroke="black" points="129.777,-234.5 308.092,-234.5 "/>
<text text-anchor="start" x="137.777" y="-222.5" font-family="Helvetica,sans-Serif" font-size="10.00">+ ~IModelComponentInfo()</text>
<text text-anchor="start" x="137.777" y="-212.5" font-family="Helvetica,sans-Serif" font-size="10.00">+ createComponentInstance()</text>
</a>
</g>
</g>
<!-- Node9&#45;&gt;Node10 -->
<g id="edge12" class="edge"><title>Node9&#45;&gt;Node10</title>
<path fill="none" stroke="midnightblue" d="M196.86,-412.315C203.277,-362.078 210.577,-304.93 214.966,-270.571"/>
<polygon fill="none" stroke="midnightblue" points="193.384,-411.899 195.589,-422.262 200.328,-412.786 193.384,-411.899"/>
</g>
<!-- Node10&#45;&gt;Node1 -->
<g id="edge11" class="edge"><title>Node10&#45;&gt;Node1</title>
<path fill="none" stroke="midnightblue" d="M202.974,-196.819C186.483,-154.789 161.235,-90.4371 147.217,-54.7072"/>
<polygon fill="none" stroke="midnightblue" points="199.748,-198.18 206.658,-206.211 206.264,-195.623 199.748,-198.18"/>
</g>
</g>
</svg>
