<?xml version="1.0" encoding="UTF-8" standalone="no"?>
<!DOCTYPE svg PUBLIC "-//W3C//DTD SVG 1.1//EN"
 "http://www.w3.org/Graphics/SVG/1.1/DTD/svg11.dtd">
<!-- Generated by graphviz version 2.38.0 (20140413.2041)
 -->
<!-- Title: HydroCouple::SpatioTemporal::ITimeGeometryComponentDataItem Pages: 1 -->
<svg width="234pt" height="1066pt"
 viewBox="0.00 0.00 234.03 1065.75" xmlns="http://www.w3.org/2000/svg" xmlns:xlink="http://www.w3.org/1999/xlink">
<g id="graph0" class="graph" transform="scale(1 1) rotate(0) translate(4 1061.75)">
<title>HydroCouple::SpatioTemporal::ITimeGeometryComponentDataItem</title>
<!-- Node1 -->
<g id="node1" class="node"><title>Node1</title>
<polygon fill="#bfbfbf" stroke="black" points="0,-114.84 0,-312.194 226.034,-312.194 226.034,-114.84 0,-114.84"/>
<text text-anchor="start" x="8" y="-300.194" font-family="Monaco" font-size="10.00">HydroCouple::SpatioTemporal</text>
<text text-anchor="middle" x="113.017" y="-286.859" font-family="Monaco" font-size="10.00">::ITimeGeometryComponentDataItem</text>
<polyline fill="none" stroke="black" points="0,-277.524 226.034,-277.524 "/>
<text text-anchor="middle" x="113.017" y="-265.524" font-family="Monaco" font-size="10.00"> </text>
<polyline fill="none" stroke="black" points="0,-256.189 226.034,-256.189 "/>
<text text-anchor="start" x="8" y="-244.189" font-family="Monaco" font-size="10.00">+ ~ITimeGeometryComponentDataItem()</text>
<text text-anchor="start" x="8" y="-230.854" font-family="Monaco" font-size="10.00">+ geometryCollection()</text>
<text text-anchor="start" x="8" y="-217.52" font-family="Monaco" font-size="10.00">+ geometry()</text>
<text text-anchor="start" x="8" y="-204.185" font-family="Monaco" font-size="10.00">+ geometryDimension()</text>
<text text-anchor="start" x="8" y="-190.85" font-family="Monaco" font-size="10.00">+ getValue()</text>
<text text-anchor="start" x="8" y="-177.515" font-family="Monaco" font-size="10.00">+ getValues()</text>
<text text-anchor="start" x="8" y="-164.18" font-family="Monaco" font-size="10.00">+ getValues()</text>
<text text-anchor="start" x="8" y="-150.845" font-family="Monaco" font-size="10.00">+ setValue()</text>
<text text-anchor="start" x="8" y="-137.51" font-family="Monaco" font-size="10.00">+ setValues()</text>
<text text-anchor="start" x="8" y="-124.175" font-family="Monaco" font-size="10.00">+ setValues()</text>
</g>
<!-- Node7 -->
<g id="node7" class="node"><title>Node7</title>
<g id="a_node7"><a xlink:href="class_hydro_couple_1_1_spatio_temporal_1_1_i_time_geometry_exchange_item.html" target="_top" xlink:title="The ITimeGeometryExchangeItem class. ">
<polygon fill="none" stroke="black" points="15.0024,-0.5 15.0024,-77.8398 211.032,-77.8398 211.032,-0.5 15.0024,-0.5"/>
<text text-anchor="start" x="23.0024" y="-65.8398" font-family="Monaco" font-size="10.00">HydroCouple::SpatioTemporal</text>
<text text-anchor="middle" x="113.017" y="-52.5049" font-family="Monaco" font-size="10.00">::ITimeGeometryExchangeItem</text>
<polyline fill="none" stroke="black" points="15.0024,-43.1699 211.032,-43.1699 "/>
<text text-anchor="middle" x="113.017" y="-31.1699" font-family="Monaco" font-size="10.00"> </text>
<polyline fill="none" stroke="black" points="15.0024,-21.835 211.032,-21.835 "/>
<text text-anchor="start" x="23.0024" y="-9.83496" font-family="Monaco" font-size="10.00">+ ~ITimeGeometryExchangeItem()</text>
</a>
</g>
</g>
<!-- Node1&#45;&gt;Node7 -->
<g id="edge6" class="edge"><title>Node1&#45;&gt;Node7</title>
<path fill="none" stroke="midnightblue" d="M113.017,-104.748C113.017,-95.2483 113.017,-86.1231 113.017,-77.8757"/>
<polygon fill="none" stroke="midnightblue" points="109.517,-104.761 113.017,-114.762 116.517,-104.762 109.517,-104.761"/>
</g>
<!-- Node2 -->
<g id="node2" class="node"><title>Node2</title>
<g id="a_node2"><a xlink:href="class_hydro_couple_1_1_temporal_1_1_i_time_component_data_item.html" target="_top" xlink:title="ITimeComponentItem is an IComponentItem with a temporal attribute. ">
<polygon fill="none" stroke="black" points="24.0039,-349.194 24.0039,-466.539 202.03,-466.539 202.03,-349.194 24.0039,-349.194"/>
<text text-anchor="start" x="32.0039" y="-454.539" font-family="Monaco" font-size="10.00">HydroCouple::Temporal</text>
<text text-anchor="middle" x="113.017" y="-441.204" font-family="Monaco" font-size="10.00">::ITimeComponentDataItem</text>
<polyline fill="none" stroke="black" points="24.0039,-431.869 202.03,-431.869 "/>
<text text-anchor="middle" x="113.017" y="-419.869" font-family="Monaco" font-size="10.00"> </text>
<polyline fill="none" stroke="black" points="24.0039,-410.534 202.03,-410.534 "/>
<text text-anchor="start" x="32.0039" y="-398.534" font-family="Monaco" font-size="10.00">+ ~ITimeComponentDataItem()</text>
<text text-anchor="start" x="32.0039" y="-385.199" font-family="Monaco" font-size="10.00">+ times()</text>
<text text-anchor="start" x="32.0039" y="-371.864" font-family="Monaco" font-size="10.00">+ timeSpan()</text>
<text text-anchor="start" x="32.0039" y="-358.529" font-family="Monaco" font-size="10.00">+ timeDimension()</text>
</a>
</g>
</g>
<!-- Node2&#45;&gt;Node1 -->
<g id="edge1" class="edge"><title>Node2&#45;&gt;Node1</title>
<path fill="none" stroke="midnightblue" d="M113.017,-338.875C113.017,-330.297 113.017,-321.391 113.017,-312.464"/>
<polygon fill="none" stroke="midnightblue" points="109.517,-339.155 113.017,-349.155 116.517,-339.156 109.517,-339.155"/>
</g>
<!-- Node3 -->
<g id="node3" class="node"><title>Node3</title>
<g id="a_node3"><a xlink:href="class_hydro_couple_1_1_i_component_data_item.html" target="_top" xlink:title="IComponentItem is a fundamental unit of data for a component. ">
<polygon fill="none" stroke="black" points="12.002,-503.539 12.002,-687.559 214.032,-687.559 214.032,-503.539 12.002,-503.539"/>
<text text-anchor="middle" x="113.017" y="-675.559" font-family="Monaco" font-size="10.00">HydroCouple::IComponentDataItem</text>
<polyline fill="none" stroke="black" points="12.002,-666.224 214.032,-666.224 "/>
<text text-anchor="middle" x="113.017" y="-654.224" font-family="Monaco" font-size="10.00"> </text>
<polyline fill="none" stroke="black" points="12.002,-644.889 214.032,-644.889 "/>
<text text-anchor="start" x="20.002" y="-632.889" font-family="Monaco" font-size="10.00">+ ~IComponentDataItem()</text>
<text text-anchor="start" x="20.002" y="-619.554" font-family="Monaco" font-size="10.00">+ modelComponent()</text>
<text text-anchor="start" x="20.002" y="-606.219" font-family="Monaco" font-size="10.00">+ dimensions()</text>
<text text-anchor="start" x="20.002" y="-592.884" font-family="Monaco" font-size="10.00">+ valueDefinition()</text>
<text text-anchor="start" x="20.002" y="-579.549" font-family="Monaco" font-size="10.00">+ getValue()</text>
<text text-anchor="start" x="20.002" y="-566.214" font-family="Monaco" font-size="10.00">+ getValues()</text>
<text text-anchor="start" x="20.002" y="-552.879" font-family="Monaco" font-size="10.00">+ getValues()</text>
<text text-anchor="start" x="20.002" y="-539.544" font-family="Monaco" font-size="10.00">+ setValue()</text>
<text text-anchor="start" x="20.002" y="-526.209" font-family="Monaco" font-size="10.00">+ setValues()</text>
<text text-anchor="start" x="20.002" y="-512.874" font-family="Monaco" font-size="10.00">+ setValues()</text>
</a>
</g>
</g>
<!-- Node3&#45;&gt;Node2 -->
<g id="edge2" class="edge"><title>Node3&#45;&gt;Node2</title>
<path fill="none" stroke="midnightblue" d="M113.017,-493.117C113.017,-484.088 113.017,-475.168 113.017,-466.703"/>
<polygon fill="none" stroke="midnightblue" points="109.517,-493.34 113.017,-503.34 116.517,-493.34 109.517,-493.34"/>
</g>
<!-- Node4 -->
<g id="node4" class="node"><title>Node4</title>
<g id="a_node4"><a xlink:href="class_hydro_couple_1_1_i_identity.html" target="_top" xlink:title="IIdentity interface class defines a method to get the Id of an HydroCouple entity. ">
<polygon fill="none" stroke="black" points="39.0063,-724.559 39.0063,-801.898 187.028,-801.898 187.028,-724.559 39.0063,-724.559"/>
<text text-anchor="middle" x="113.017" y="-789.898" font-family="Monaco" font-size="10.00">HydroCouple::IIdentity</text>
<polyline fill="none" stroke="black" points="39.0063,-780.563 187.028,-780.563 "/>
<text text-anchor="middle" x="113.017" y="-768.563" font-family="Monaco" font-size="10.00"> </text>
<polyline fill="none" stroke="black" points="39.0063,-759.229 187.028,-759.229 "/>
<text text-anchor="start" x="47.0063" y="-747.229" font-family="Monaco" font-size="10.00">+ ~IIdentity()</text>
<text text-anchor="start" x="47.0063" y="-733.894" font-family="Monaco" font-size="10.00">+ id()</text>
</a>
</g>
</g>
<!-- Node4&#45;&gt;Node3 -->
<g id="edge3" class="edge"><title>Node4&#45;&gt;Node3</title>
<path fill="none" stroke="midnightblue" d="M113.017,-713.976C113.017,-705.623 113.017,-696.698 113.017,-687.639"/>
<polygon fill="none" stroke="midnightblue" points="109.517,-714.218 113.017,-724.218 116.517,-714.218 109.517,-714.218"/>
</g>
<!-- Node5 -->
<g id="node5" class="node"><title>Node5</title>
<g id="a_node5"><a xlink:href="class_hydro_couple_1_1_i_description.html" target="_top" xlink:title="IDescription interface class provides descriptive information on a HydroCouple object. ">
<polygon fill="none" stroke="black" points="30.0049,-838.898 30.0049,-956.243 196.029,-956.243 196.029,-838.898 30.0049,-838.898"/>
<text text-anchor="middle" x="113.017" y="-944.243" font-family="Monaco" font-size="10.00">HydroCouple::IDescription</text>
<polyline fill="none" stroke="black" points="30.0049,-934.908 196.029,-934.908 "/>
<text text-anchor="middle" x="113.017" y="-922.908" font-family="Monaco" font-size="10.00"> </text>
<polyline fill="none" stroke="black" points="30.0049,-913.573 196.029,-913.573 "/>
<text text-anchor="start" x="38.0049" y="-901.573" font-family="Monaco" font-size="10.00">+ ~IDescription()</text>
<text text-anchor="start" x="38.0049" y="-888.238" font-family="Monaco" font-size="10.00">+ caption()</text>
<text text-anchor="start" x="38.0049" y="-874.903" font-family="Monaco" font-size="10.00">+ setCaption()</text>
<text text-anchor="start" x="38.0049" y="-861.568" font-family="Monaco" font-size="10.00">+ description()</text>
<text text-anchor="start" x="38.0049" y="-848.233" font-family="Monaco" font-size="10.00">+ setDescription()</text>
</a>
</g>
</g>
<!-- Node5&#45;&gt;Node4 -->
<g id="edge4" class="edge"><title>Node5&#45;&gt;Node4</title>
<path fill="none" stroke="midnightblue" d="M113.017,-828.333C113.017,-819.294 113.017,-810.306 113.017,-802.046"/>
<polygon fill="none" stroke="midnightblue" points="109.517,-828.524 113.017,-838.524 116.517,-828.524 109.517,-828.524"/>
</g>
<!-- Node6 -->
<g id="node6" class="node"><title>Node6</title>
<g id="a_node6"><a xlink:href="class_hydro_couple_1_1_i_property_changed.html" target="_top" xlink:title="IPropertyChanged interface is used to emit signal/event when a property of an object changes...">
<polygon fill="none" stroke="black" points="18.0029,-993.243 18.0029,-1057.25 208.031,-1057.25 208.031,-993.243 18.0029,-993.243"/>
<text text-anchor="middle" x="113.017" y="-1045.25" font-family="Monaco" font-size="10.00">HydroCouple::IPropertyChanged</text>
<polyline fill="none" stroke="black" points="18.0029,-1035.91 208.031,-1035.91 "/>
<text text-anchor="middle" x="113.017" y="-1023.91" font-family="Monaco" font-size="10.00"> </text>
<polyline fill="none" stroke="black" points="18.0029,-1014.58 208.031,-1014.58 "/>
<text text-anchor="start" x="26.0029" y="-1002.58" font-family="Monaco" font-size="10.00">+ ~IPropertyChanged()</text>
</a>
</g>
</g>
<!-- Node6&#45;&gt;Node5 -->
<g id="edge5" class="edge"><title>Node6&#45;&gt;Node5</title>
<path fill="none" stroke="midnightblue" d="M113.017,-982.923C113.017,-974.538 113.017,-965.571 113.017,-956.729"/>
<polygon fill="none" stroke="midnightblue" points="109.517,-983.18 113.017,-993.18 116.517,-983.18 109.517,-983.18"/>
</g>
</g>
</svg>
