<?xml version="1.0" encoding="UTF-8" standalone="no"?>
<!DOCTYPE svg PUBLIC "-//W3C//DTD SVG 1.1//EN"
 "http://www.w3.org/Graphics/SVG/1.1/DTD/svg11.dtd">
<!-- Generated by graphviz version 2.38.0 (20140413.2041)
 -->
<!-- Title: HydroCouple::IComponentItem Pages: 1 -->
<svg width="449pt" height="909pt"
 viewBox="0.00 0.00 449.48 909.00" xmlns="http://www.w3.org/2000/svg" xmlns:xlink="http://www.w3.org/1999/xlink">
<g id="graph0" class="graph" transform="scale(1 1) rotate(0) translate(4 905)">
<title>HydroCouple::IComponentItem</title>
<polygon fill="white" stroke="none" points="-4,4 -4,-905 445.477,-905 445.477,4 -4,4"/>
<!-- Node1 -->
<g id="node1" class="node"><title>Node1</title>
<polygon fill="#bfbfbf" stroke="black" points="140.104,-503.5 140.104,-577.5 293.95,-577.5 293.95,-503.5 140.104,-503.5"/>
<text text-anchor="middle" x="217.027" y="-565.5" font-family="Helvetica,sans-Serif" font-size="10.00">HydroCouple::IComponentItem</text>
<polyline fill="none" stroke="black" points="140.104,-559.5 293.95,-559.5 "/>
<text text-anchor="middle" x="217.027" y="-547.5" font-family="Helvetica,sans-Serif" font-size="10.00"> </text>
<polyline fill="none" stroke="black" points="140.104,-541.5 293.95,-541.5 "/>
<text text-anchor="start" x="148.104" y="-529.5" font-family="Helvetica,sans-Serif" font-size="10.00">+ ~IComponentItem()</text>
<text text-anchor="start" x="148.104" y="-519.5" font-family="Helvetica,sans-Serif" font-size="10.00">+ modelComponent()</text>
<text text-anchor="start" x="148.104" y="-509.5" font-family="Helvetica,sans-Serif" font-size="10.00">+ dimensions()</text>
</g>
<!-- Node5 -->
<g id="node5" class="node"><title>Node5</title>
<g id="a_node5"><a xlink:href="class_hydro_couple_1_1_i_argument.html" target="_top" xlink:title="IArgument interface class used to set the arguments for components. They can be complex or simple mul...">
<polygon fill="white" stroke="black" points="0,-312.5 0,-466.5 126.054,-466.5 126.054,-312.5 0,-312.5"/>
<text text-anchor="middle" x="63.0269" y="-454.5" font-family="Helvetica,sans-Serif" font-size="10.00">HydroCouple::IArgument</text>
<polyline fill="none" stroke="black" points="0,-448.5 126.054,-448.5 "/>
<text text-anchor="middle" x="63.0269" y="-436.5" font-family="Helvetica,sans-Serif" font-size="10.00"> </text>
<polyline fill="none" stroke="black" points="0,-430.5 126.054,-430.5 "/>
<text text-anchor="start" x="8" y="-418.5" font-family="Helvetica,sans-Serif" font-size="10.00">+ ~IArgument()</text>
<text text-anchor="start" x="8" y="-408.5" font-family="Helvetica,sans-Serif" font-size="10.00">+ isOptional()</text>
<text text-anchor="start" x="8" y="-398.5" font-family="Helvetica,sans-Serif" font-size="10.00">+ isReadOnly()</text>
<text text-anchor="start" x="8" y="-388.5" font-family="Helvetica,sans-Serif" font-size="10.00">+ clone()</text>
<text text-anchor="start" x="8" y="-378.5" font-family="Helvetica,sans-Serif" font-size="10.00">+ valueSets()</text>
<text text-anchor="start" x="8" y="-368.5" font-family="Helvetica,sans-Serif" font-size="10.00">+ toString()</text>
<text text-anchor="start" x="8" y="-358.5" font-family="Helvetica,sans-Serif" font-size="10.00">+ fileExtensions()</text>
<text text-anchor="start" x="8" y="-348.5" font-family="Helvetica,sans-Serif" font-size="10.00">+ canReadFromFile()</text>
<text text-anchor="start" x="8" y="-338.5" font-family="Helvetica,sans-Serif" font-size="10.00">+ canReadFromString()</text>
<text text-anchor="start" x="8" y="-328.5" font-family="Helvetica,sans-Serif" font-size="10.00">+ readValues()</text>
<text text-anchor="start" x="8" y="-318.5" font-family="Helvetica,sans-Serif" font-size="10.00">+ readValues()</text>
</a>
</g>
</g>
<!-- Node1&#45;&gt;Node5 -->
<g id="edge4" class="edge"><title>Node1&#45;&gt;Node5</title>
<path fill="none" stroke="midnightblue" d="M166.944,-496.524C156.244,-486.983 145.128,-476.791 135.027,-467 132.146,-464.207 129.228,-461.33 126.302,-458.402"/>
<polygon fill="none" stroke="midnightblue" points="164.834,-499.331 174.641,-503.342 169.476,-494.091 164.834,-499.331"/>
</g>
<!-- Node6 -->
<g id="node6" class="node"><title>Node6</title>
<g id="a_node6"><a xlink:href="class_hydro_couple_1_1_i_exchange_item.html" target="_top" xlink:title="IExchangeItem the base data item the can be exchanged between components at runtime. ">
<polygon fill="white" stroke="black" points="143.714,-357.5 143.714,-421.5 290.339,-421.5 290.339,-357.5 143.714,-357.5"/>
<text text-anchor="middle" x="217.027" y="-409.5" font-family="Helvetica,sans-Serif" font-size="10.00">HydroCouple::IExchangeItem</text>
<polyline fill="none" stroke="black" points="143.714,-403.5 290.339,-403.5 "/>
<text text-anchor="middle" x="217.027" y="-391.5" font-family="Helvetica,sans-Serif" font-size="10.00"> </text>
<polyline fill="none" stroke="black" points="143.714,-385.5 290.339,-385.5 "/>
<text text-anchor="start" x="151.714" y="-373.5" font-family="Helvetica,sans-Serif" font-size="10.00">+ ~IExchangeItem()</text>
<text text-anchor="start" x="151.714" y="-363.5" font-family="Helvetica,sans-Serif" font-size="10.00">+ itemChanged()</text>
</a>
</g>
</g>
<!-- Node1&#45;&gt;Node6 -->
<g id="edge5" class="edge"><title>Node1&#45;&gt;Node6</title>
<path fill="none" stroke="midnightblue" d="M217.027,-493.413C217.027,-470.12 217.027,-442.468 217.027,-421.696"/>
<polygon fill="none" stroke="midnightblue" points="213.527,-493.431 217.027,-503.431 220.527,-493.431 213.527,-493.431"/>
</g>
<!-- Node10 -->
<g id="node10" class="node"><title>Node10</title>
<g id="a_node10"><a xlink:href="class_hydro_couple_1_1_temporal_1_1_i_time_component_item.html" target="_top" xlink:title="ITimeComponentItem is an IComponentItem with a temporal attribute. ">
<polygon fill="white" stroke="black" points="308.577,-337.5 308.577,-441.5 441.477,-441.5 441.477,-337.5 308.577,-337.5"/>
<text text-anchor="start" x="316.577" y="-429.5" font-family="Helvetica,sans-Serif" font-size="10.00">HydroCouple::Temporal</text>
<text text-anchor="middle" x="375.027" y="-419.5" font-family="Helvetica,sans-Serif" font-size="10.00">::ITimeComponentItem</text>
<polyline fill="none" stroke="black" points="308.577,-413.5 441.477,-413.5 "/>
<text text-anchor="middle" x="375.027" y="-401.5" font-family="Helvetica,sans-Serif" font-size="10.00"> </text>
<polyline fill="none" stroke="black" points="308.577,-395.5 441.477,-395.5 "/>
<text text-anchor="start" x="316.577" y="-383.5" font-family="Helvetica,sans-Serif" font-size="10.00">+ ~ITimeComponentItem()</text>
<text text-anchor="start" x="316.577" y="-373.5" font-family="Helvetica,sans-Serif" font-size="10.00">+ timeDimension()</text>
<text text-anchor="start" x="316.577" y="-363.5" font-family="Helvetica,sans-Serif" font-size="10.00">+ times()</text>
<text text-anchor="start" x="316.577" y="-353.5" font-family="Helvetica,sans-Serif" font-size="10.00">+ timeSpan()</text>
<text text-anchor="start" x="316.577" y="-343.5" font-family="Helvetica,sans-Serif" font-size="10.00">+ time()</text>
</a>
</g>
</g>
<!-- Node1&#45;&gt;Node10 -->
<g id="edge9" class="edge"><title>Node1&#45;&gt;Node10</title>
<path fill="none" stroke="midnightblue" d="M266.911,-496.316C277.623,-486.788 288.795,-476.654 299.027,-467 307.606,-458.906 316.565,-450.163 325.197,-441.58"/>
<polygon fill="none" stroke="midnightblue" points="264.379,-493.882 259.212,-503.131 269.019,-499.124 264.379,-493.882"/>
</g>
<!-- Node2 -->
<g id="node2" class="node"><title>Node2</title>
<g id="a_node2"><a xlink:href="class_hydro_couple_1_1_i_identity.html" target="_top" xlink:title="IIdentity interface class defines a method to get the Id of an HydroCouple entity. ">
<polygon fill="white" stroke="black" points="159.557,-614.5 159.557,-678.5 274.497,-678.5 274.497,-614.5 159.557,-614.5"/>
<text text-anchor="middle" x="217.027" y="-666.5" font-family="Helvetica,sans-Serif" font-size="10.00">HydroCouple::IIdentity</text>
<polyline fill="none" stroke="black" points="159.557,-660.5 274.497,-660.5 "/>
<text text-anchor="middle" x="217.027" y="-648.5" font-family="Helvetica,sans-Serif" font-size="10.00"> </text>
<polyline fill="none" stroke="black" points="159.557,-642.5 274.497,-642.5 "/>
<text text-anchor="start" x="167.557" y="-630.5" font-family="Helvetica,sans-Serif" font-size="10.00">+ ~IIdentity()</text>
<text text-anchor="start" x="167.557" y="-620.5" font-family="Helvetica,sans-Serif" font-size="10.00">+ id()</text>
</a>
</g>
</g>
<!-- Node2&#45;&gt;Node1 -->
<g id="edge1" class="edge"><title>Node2&#45;&gt;Node1</title>
<path fill="none" stroke="midnightblue" d="M217.027,-604.282C217.027,-595.531 217.027,-586.353 217.027,-577.801"/>
<polygon fill="none" stroke="midnightblue" points="213.527,-604.297 217.027,-614.297 220.527,-604.297 213.527,-604.297"/>
</g>
<!-- Node3 -->
<g id="node3" class="node"><title>Node3</title>
<g id="a_node3"><a xlink:href="class_hydro_couple_1_1_i_description.html" target="_top" xlink:title="IDescription interface class provides descriptive information on a HydroCouple object. ">
<polygon fill="white" stroke="black" points="150.667,-715.5 150.667,-809.5 283.386,-809.5 283.386,-715.5 150.667,-715.5"/>
<text text-anchor="middle" x="217.027" y="-797.5" font-family="Helvetica,sans-Serif" font-size="10.00">HydroCouple::IDescription</text>
<polyline fill="none" stroke="black" points="150.667,-791.5 283.386,-791.5 "/>
<text text-anchor="middle" x="217.027" y="-779.5" font-family="Helvetica,sans-Serif" font-size="10.00"> </text>
<polyline fill="none" stroke="black" points="150.667,-773.5 283.386,-773.5 "/>
<text text-anchor="start" x="158.667" y="-761.5" font-family="Helvetica,sans-Serif" font-size="10.00">+ ~IDescription()</text>
<text text-anchor="start" x="158.667" y="-751.5" font-family="Helvetica,sans-Serif" font-size="10.00">+ getCaption()</text>
<text text-anchor="start" x="158.667" y="-741.5" font-family="Helvetica,sans-Serif" font-size="10.00">+ setCaption()</text>
<text text-anchor="start" x="158.667" y="-731.5" font-family="Helvetica,sans-Serif" font-size="10.00">+ getDescription()</text>
<text text-anchor="start" x="158.667" y="-721.5" font-family="Helvetica,sans-Serif" font-size="10.00">+ setDescription()</text>
</a>
</g>
</g>
<!-- Node3&#45;&gt;Node2 -->
<g id="edge2" class="edge"><title>Node3&#45;&gt;Node2</title>
<path fill="none" stroke="midnightblue" d="M217.027,-705.212C217.027,-696.081 217.027,-686.926 217.027,-678.684"/>
<polygon fill="none" stroke="midnightblue" points="213.527,-705.46 217.027,-715.46 220.527,-705.46 213.527,-705.46"/>
</g>
<!-- Node4 -->
<g id="node4" class="node"><title>Node4</title>
<g id="a_node4"><a xlink:href="class_hydro_couple_1_1_i_property_changed.html" target="_top" xlink:title="IPropertyChanged interface is used to emit signal/event when a property of an object changes...">
<polygon fill="white" stroke="black" points="136.485,-846.5 136.485,-900.5 297.568,-900.5 297.568,-846.5 136.485,-846.5"/>
<text text-anchor="middle" x="217.027" y="-888.5" font-family="Helvetica,sans-Serif" font-size="10.00">HydroCouple::IPropertyChanged</text>
<polyline fill="none" stroke="black" points="136.485,-882.5 297.568,-882.5 "/>
<text text-anchor="middle" x="217.027" y="-870.5" font-family="Helvetica,sans-Serif" font-size="10.00"> </text>
<polyline fill="none" stroke="black" points="136.485,-864.5 297.568,-864.5 "/>
<text text-anchor="start" x="144.485" y="-852.5" font-family="Helvetica,sans-Serif" font-size="10.00">+ ~IPropertyChanged()</text>
</a>
</g>
</g>
<!-- Node4&#45;&gt;Node3 -->
<g id="edge3" class="edge"><title>Node4&#45;&gt;Node3</title>
<path fill="none" stroke="midnightblue" d="M217.027,-836.141C217.027,-827.716 217.027,-818.639 217.027,-809.851"/>
<polygon fill="none" stroke="midnightblue" points="213.527,-836.392 217.027,-846.392 220.527,-836.392 213.527,-836.392"/>
</g>
<!-- Node7 -->
<g id="node7" class="node"><title>Node7</title>
<g id="a_node7"><a xlink:href="class_hydro_couple_1_1_i_input.html" target="_top" xlink:title="An IInput item that can accept values for an IModelComponent. ">
<polygon fill="white" stroke="black" points="96.5566,-171.5 96.5566,-255.5 201.497,-255.5 201.497,-171.5 96.5566,-171.5"/>
<text text-anchor="middle" x="149.027" y="-243.5" font-family="Helvetica,sans-Serif" font-size="10.00">HydroCouple::IInput</text>
<polyline fill="none" stroke="black" points="96.5566,-237.5 201.497,-237.5 "/>
<text text-anchor="middle" x="149.027" y="-225.5" font-family="Helvetica,sans-Serif" font-size="10.00"> </text>
<polyline fill="none" stroke="black" points="96.5566,-219.5 201.497,-219.5 "/>
<text text-anchor="start" x="104.557" y="-207.5" font-family="Helvetica,sans-Serif" font-size="10.00">+ ~IInput()</text>
<text text-anchor="start" x="104.557" y="-197.5" font-family="Helvetica,sans-Serif" font-size="10.00">+ getProvider()</text>
<text text-anchor="start" x="104.557" y="-187.5" font-family="Helvetica,sans-Serif" font-size="10.00">+ setProvider()</text>
<text text-anchor="start" x="104.557" y="-177.5" font-family="Helvetica,sans-Serif" font-size="10.00">+ canConsume()</text>
</a>
</g>
</g>
<!-- Node6&#45;&gt;Node7 -->
<g id="edge6" class="edge"><title>Node6&#45;&gt;Node7</title>
<path fill="none" stroke="midnightblue" d="M201.197,-347.994C190.37,-320.29 176.063,-283.681 165.17,-255.808"/>
<polygon fill="none" stroke="midnightblue" points="197.97,-349.352 204.87,-357.392 204.49,-346.804 197.97,-349.352"/>
</g>
<!-- Node8 -->
<g id="node8" class="node"><title>Node8</title>
<g id="a_node8"><a xlink:href="class_hydro_couple_1_1_i_output.html" target="_top" xlink:title="An output exchange item that can deliver values from an IModelComponent. ">
<polygon fill="white" stroke="black" points="219.078,-151.5 219.078,-275.5 350.976,-275.5 350.976,-151.5 219.078,-151.5"/>
<text text-anchor="middle" x="285.027" y="-263.5" font-family="Helvetica,sans-Serif" font-size="10.00">HydroCouple::IOutput</text>
<polyline fill="none" stroke="black" points="219.078,-257.5 350.976,-257.5 "/>
<text text-anchor="middle" x="285.027" y="-245.5" font-family="Helvetica,sans-Serif" font-size="10.00"> </text>
<polyline fill="none" stroke="black" points="219.078,-239.5 350.976,-239.5 "/>
<text text-anchor="start" x="227.078" y="-227.5" font-family="Helvetica,sans-Serif" font-size="10.00">+ ~IOutput()</text>
<text text-anchor="start" x="227.078" y="-217.5" font-family="Helvetica,sans-Serif" font-size="10.00">+ consumers()</text>
<text text-anchor="start" x="227.078" y="-207.5" font-family="Helvetica,sans-Serif" font-size="10.00">+ addConsumer()</text>
<text text-anchor="start" x="227.078" y="-197.5" font-family="Helvetica,sans-Serif" font-size="10.00">+ removeConsumer()</text>
<text text-anchor="start" x="227.078" y="-187.5" font-family="Helvetica,sans-Serif" font-size="10.00">+ adaptedOutputs()</text>
<text text-anchor="start" x="227.078" y="-177.5" font-family="Helvetica,sans-Serif" font-size="10.00">+ addAdaptedOutput()</text>
<text text-anchor="start" x="227.078" y="-167.5" font-family="Helvetica,sans-Serif" font-size="10.00">+ removeAdaptedOutput()</text>
<text text-anchor="start" x="227.078" y="-157.5" font-family="Helvetica,sans-Serif" font-size="10.00">+ updateValues()</text>
</a>
</g>
</g>
<!-- Node6&#45;&gt;Node8 -->
<g id="edge7" class="edge"><title>Node6&#45;&gt;Node8</title>
<path fill="none" stroke="midnightblue" d="M232.885,-347.921C241.287,-326.424 251.778,-299.579 261.142,-275.617"/>
<polygon fill="none" stroke="midnightblue" points="229.564,-346.804 229.184,-357.392 236.084,-349.352 229.564,-346.804"/>
</g>
<!-- Node9 -->
<g id="node9" class="node"><title>Node9</title>
<g id="a_node9"><a xlink:href="class_hydro_couple_1_1_i_adapted_output.html" target="_top" xlink:title="An IAdaptedOutput adds one or more data operations on top of an IOutput. ">
<polygon fill="white" stroke="black" points="210.04,-0.5 210.04,-114.5 360.014,-114.5 360.014,-0.5 210.04,-0.5"/>
<text text-anchor="middle" x="285.027" y="-102.5" font-family="Helvetica,sans-Serif" font-size="10.00">HydroCouple::IAdaptedOutput</text>
<polyline fill="none" stroke="black" points="210.04,-96.5 360.014,-96.5 "/>
<text text-anchor="middle" x="285.027" y="-84.5" font-family="Helvetica,sans-Serif" font-size="10.00"> </text>
<polyline fill="none" stroke="black" points="210.04,-78.5 360.014,-78.5 "/>
<text text-anchor="start" x="218.04" y="-66.5" font-family="Helvetica,sans-Serif" font-size="10.00">+ ~IAdaptedOutput()</text>
<text text-anchor="start" x="218.04" y="-56.5" font-family="Helvetica,sans-Serif" font-size="10.00">+ adaptedOutputFactory()</text>
<text text-anchor="start" x="218.04" y="-46.5" font-family="Helvetica,sans-Serif" font-size="10.00">+ arguments()</text>
<text text-anchor="start" x="218.04" y="-36.5" font-family="Helvetica,sans-Serif" font-size="10.00">+ setArgument()</text>
<text text-anchor="start" x="218.04" y="-26.5" font-family="Helvetica,sans-Serif" font-size="10.00">+ initialize()</text>
<text text-anchor="start" x="218.04" y="-16.5" font-family="Helvetica,sans-Serif" font-size="10.00">+ adaptee()</text>
<text text-anchor="start" x="218.04" y="-6.5" font-family="Helvetica,sans-Serif" font-size="10.00">+ refresh()</text>
</a>
</g>
</g>
<!-- Node8&#45;&gt;Node9 -->
<g id="edge8" class="edge"><title>Node8&#45;&gt;Node9</title>
<path fill="none" stroke="midnightblue" d="M285.027,-141.19C285.027,-132.268 285.027,-123.245 285.027,-114.601"/>
<polygon fill="none" stroke="midnightblue" points="281.527,-141.193 285.027,-151.193 288.527,-141.193 281.527,-141.193"/>
</g>
</g>
</svg>
