<?xml version="1.0" encoding="UTF-8" standalone="no"?>
<!DOCTYPE svg PUBLIC "-//W3C//DTD SVG 1.1//EN"
 "http://www.w3.org/Graphics/SVG/1.1/DTD/svg11.dtd">
<!-- Generated by graphviz version 2.38.0 (20140413.2041)
 -->
<!-- Title: ComponentInfo Pages: 1 -->
<!--zoomable 927 -->
<svg id="main" version="1.1" xmlns="http://www.w3.org/2000/svg" xmlns:xlink="http://www.w3.org/1999/xlink" xml:space="preserve" onload="init(evt)">
<style type="text/css"><![CDATA[
.edge:hover path { stroke: red; }
.edge:hover polygon { stroke: red; fill: red; }
]]></style>
<script type="text/javascript"><![CDATA[
var edges = document.getElementsByTagName('g');
if (edges && edges.length) {
  for (var i=0;i<edges.length;i++) {
    if (edges[i].id.substr(0,4)=='edge') {
      edges[i].setAttribute('class','edge');
    }
  }
}
]]></script>
        <defs>
                <circle id="rim" cx="0" cy="0" r="7"/>
                <circle id="rim2" cx="0" cy="0" r="3.5"/>
                <g id="zoomPlus">
                        <use xlink:href="#rim" fill="#404040">
                                <set attributeName="fill" to="#808080" begin="zoomplus.mouseover" end="zoomplus.mouseout"/>
                        </use>
                        <path d="M-4,0h8M0,-4v8" fill="none" stroke="white" stroke-width="1.5" pointer-events="none"/>
                </g>
                <g id="zoomMin">
                        <use xlink:href="#rim" fill="#404040">
                                <set attributeName="fill" to="#808080" begin="zoomminus.mouseover" end="zoomminus.mouseout"/>
                        </use>
                        <path d="M-4,0h8" fill="none" stroke="white" stroke-width="1.5" pointer-events="none"/>
                </g>
                <g id="dirArrow">
                        <path fill="none" stroke="white" stroke-width="1.5" d="M0,-3.0v7 M-2.5,-0.5L0,-3.0L2.5,-0.5"/>
                </g>
               <g id="resetDef">
                       <use xlink:href="#rim2" fill="#404040">
                               <set attributeName="fill" to="#808080" begin="reset.mouseover" end="reset.mouseout"/>
                       </use>
               </g>
        </defs>

<script type="text/javascript">
var viewWidth = 259;
var viewHeight = 927;
var sectionId = 'dynsection-1';
</script>
<script xlink:href="svgpan.js"/>
<svg id="graph" class="graph">
<g id="viewport">
<title>ComponentInfo</title>
<polygon fill="white" stroke="none" points="-4,4 -4,-923 255.139,-923 255.139,4 -4,4"/>
<!-- Node1 -->
<g id="node1" class="node"><title>Node1</title>
<polygon fill="#bfbfbf" stroke="black" points="55.665,-0.5 55.665,-294.5 167.534,-294.5 167.534,-0.5 55.665,-0.5"/>
<text text-anchor="middle" x="111.6" y="-282.5" font-family="Helvetica,sans-Serif" font-size="10.00">ComponentInfo</text>
<polyline fill="none" stroke="black" points="55.665,-276.5 167.534,-276.5 "/>
<text text-anchor="start" x="63.665" y="-264.5" font-family="Helvetica,sans-Serif" font-size="10.00"># m_name</text>
<text text-anchor="start" x="63.665" y="-254.5" font-family="Helvetica,sans-Serif" font-size="10.00"># m_iconFilePath</text>
<text text-anchor="start" x="63.665" y="-244.5" font-family="Helvetica,sans-Serif" font-size="10.00"># m_vendor</text>
<text text-anchor="start" x="63.665" y="-234.5" font-family="Helvetica,sans-Serif" font-size="10.00"># m_license</text>
<text text-anchor="start" x="63.665" y="-224.5" font-family="Helvetica,sans-Serif" font-size="10.00"># m_copyright</text>
<text text-anchor="start" x="63.665" y="-214.5" font-family="Helvetica,sans-Serif" font-size="10.00"># m_url</text>
<text text-anchor="start" x="63.665" y="-204.5" font-family="Helvetica,sans-Serif" font-size="10.00"># m_email</text>
<text text-anchor="start" x="63.665" y="-194.5" font-family="Helvetica,sans-Serif" font-size="10.00"># m_version</text>
<text text-anchor="start" x="63.665" y="-184.5" font-family="Helvetica,sans-Serif" font-size="10.00"># m_category</text>
<text text-anchor="start" x="63.665" y="-174.5" font-family="Helvetica,sans-Serif" font-size="10.00"># m_filePath</text>
<text text-anchor="start" x="63.665" y="-164.5" font-family="Helvetica,sans-Serif" font-size="10.00"># m_publications</text>
<polyline fill="none" stroke="black" points="55.665,-158.5 167.534,-158.5 "/>
<text text-anchor="start" x="63.665" y="-146.5" font-family="Helvetica,sans-Serif" font-size="10.00">+ ComponentInfo()</text>
<text text-anchor="start" x="63.665" y="-136.5" font-family="Helvetica,sans-Serif" font-size="10.00">+ ~ComponentInfo()</text>
<text text-anchor="start" x="63.665" y="-126.5" font-family="Helvetica,sans-Serif" font-size="10.00">+ name()</text>
<text text-anchor="start" x="63.665" y="-116.5" font-family="Helvetica,sans-Serif" font-size="10.00">+ libraryFilePath()</text>
<text text-anchor="start" x="63.665" y="-106.5" font-family="Helvetica,sans-Serif" font-size="10.00">+ setLibraryFilePath()</text>
<text text-anchor="start" x="63.665" y="-96.5" font-family="Helvetica,sans-Serif" font-size="10.00">+ iconFilePath()</text>
<text text-anchor="start" x="63.665" y="-86.5" font-family="Helvetica,sans-Serif" font-size="10.00">+ vendor()</text>
<text text-anchor="start" x="63.665" y="-76.5" font-family="Helvetica,sans-Serif" font-size="10.00">+ publications()</text>
<text text-anchor="start" x="63.665" y="-66.5" font-family="Helvetica,sans-Serif" font-size="10.00">+ license()</text>
<text text-anchor="start" x="63.665" y="-56.5" font-family="Helvetica,sans-Serif" font-size="10.00">+ copyright()</text>
<text text-anchor="start" x="63.665" y="-46.5" font-family="Helvetica,sans-Serif" font-size="10.00">+ url()</text>
<text text-anchor="start" x="63.665" y="-36.5" font-family="Helvetica,sans-Serif" font-size="10.00">+ email()</text>
<text text-anchor="start" x="63.665" y="-26.5" font-family="Helvetica,sans-Serif" font-size="10.00">+ version()</text>
<text text-anchor="start" x="63.665" y="-16.5" font-family="Helvetica,sans-Serif" font-size="10.00">+ category()</text>
<text text-anchor="start" x="63.665" y="-6.5" font-family="Helvetica,sans-Serif" font-size="10.00">+ hasValidLicense()</text>
</g>
<!-- Node2 -->
<g id="node2" class="node"><title>Node2</title>
<g id="a_node2"><a xlink:href="class_identity.html" target="_top" xlink:title=" ">
<polygon fill="white" stroke="black" points="12.9199,-376.5 12.9199,-470.5 82.2793,-470.5 82.2793,-376.5 12.9199,-376.5"/>
<text text-anchor="middle" x="47.5996" y="-458.5" font-family="Helvetica,sans-Serif" font-size="10.00">Identity</text>
<polyline fill="none" stroke="black" points="12.9199,-452.5 82.2793,-452.5 "/>
<text text-anchor="start" x="20.9199" y="-440.5" font-family="Helvetica,sans-Serif" font-size="10.00">+ Id</text>
<polyline fill="none" stroke="black" points="12.9199,-434.5 82.2793,-434.5 "/>
<text text-anchor="start" x="20.9199" y="-422.5" font-family="Helvetica,sans-Serif" font-size="10.00">+ Identity()</text>
<text text-anchor="start" x="20.9199" y="-412.5" font-family="Helvetica,sans-Serif" font-size="10.00">+ Identity()</text>
<text text-anchor="start" x="20.9199" y="-402.5" font-family="Helvetica,sans-Serif" font-size="10.00">+ ~Identity()</text>
<text text-anchor="start" x="20.9199" y="-392.5" font-family="Helvetica,sans-Serif" font-size="10.00">+ id()</text>
<text text-anchor="start" x="20.9199" y="-382.5" font-family="Helvetica,sans-Serif" font-size="10.00"># setId()</text>
</a>
</g>
</g>
<!-- Node2&#45;&gt;Node1 -->
<g id="edge1" class="edge"><title>Node2&#45;&gt;Node1</title>
<path fill="none" stroke="midnightblue" d="M60.6607,-366.582C65.6093,-345.396 71.5018,-320.169 77.4931,-294.518"/>
<polygon fill="none" stroke="midnightblue" points="57.2503,-365.795 58.384,-376.329 64.0668,-367.388 57.2503,-365.795"/>
</g>
<!-- Node3 -->
<g id="node3" class="node"><title>Node3</title>
<g id="a_node3"><a xlink:href="class_description.html" target="_top" xlink:title="{Description\n|+ Caption\l+ Description\l# m_caption\l# m_description\l|+ Description()\l+ Description()\l+ ~Description()\l+ getCaption()\l+ setCaption()\l+ getDescription()\l+ setDescription()\l}">
<polygon fill="white" stroke="black" points="0,-552.5 0,-696.5 95.1992,-696.5 95.1992,-552.5 0,-552.5"/>
<text text-anchor="middle" x="47.5996" y="-684.5" font-family="Helvetica,sans-Serif" font-size="10.00">Description</text>
<polyline fill="none" stroke="black" points="0,-678.5 95.1992,-678.5 "/>
<text text-anchor="start" x="8" y="-666.5" font-family="Helvetica,sans-Serif" font-size="10.00">+ Caption</text>
<text text-anchor="start" x="8" y="-656.5" font-family="Helvetica,sans-Serif" font-size="10.00">+ Description</text>
<text text-anchor="start" x="8" y="-646.5" font-family="Helvetica,sans-Serif" font-size="10.00"># m_caption</text>
<text text-anchor="start" x="8" y="-636.5" font-family="Helvetica,sans-Serif" font-size="10.00"># m_description</text>
<polyline fill="none" stroke="black" points="0,-630.5 95.1992,-630.5 "/>
<text text-anchor="start" x="8" y="-618.5" font-family="Helvetica,sans-Serif" font-size="10.00">+ Description()</text>
<text text-anchor="start" x="8" y="-608.5" font-family="Helvetica,sans-Serif" font-size="10.00">+ Description()</text>
<text text-anchor="start" x="8" y="-598.5" font-family="Helvetica,sans-Serif" font-size="10.00">+ ~Description()</text>
<text text-anchor="start" x="8" y="-588.5" font-family="Helvetica,sans-Serif" font-size="10.00">+ getCaption()</text>
<text text-anchor="start" x="8" y="-578.5" font-family="Helvetica,sans-Serif" font-size="10.00">+ setCaption()</text>
<text text-anchor="start" x="8" y="-568.5" font-family="Helvetica,sans-Serif" font-size="10.00">+ getDescription()</text>
<text text-anchor="start" x="8" y="-558.5" font-family="Helvetica,sans-Serif" font-size="10.00">+ setDescription()</text>
</a>
</g>
</g>
<!-- Node3&#45;&gt;Node2 -->
<g id="edge2" class="edge"><title>Node3&#45;&gt;Node2</title>
<path fill="none" stroke="midnightblue" d="M47.5996,-542.484C47.5996,-518.003 47.5996,-491.973 47.5996,-470.61"/>
<polygon fill="none" stroke="midnightblue" points="44.0997,-542.499 47.5996,-552.499 51.0997,-542.499 44.0997,-542.499"/>
</g>
<!-- Node4 -->
<g id="node4" class="node"><title>Node4</title>
<polygon fill="white" stroke="#bfbfbf" points="21.2598,-753.5 21.2598,-807.5 73.9395,-807.5 73.9395,-753.5 21.2598,-753.5"/>
<text text-anchor="middle" x="47.5996" y="-795.5" font-family="Helvetica,sans-Serif" font-size="10.00">QObject</text>
<polyline fill="none" stroke="#bfbfbf" points="21.2598,-789.5 73.9395,-789.5 "/>
<text text-anchor="middle" x="47.5996" y="-777.5" font-family="Helvetica,sans-Serif" font-size="10.00"> </text>
<polyline fill="none" stroke="#bfbfbf" points="21.2598,-771.5 73.9395,-771.5 "/>
<text text-anchor="middle" x="47.5996" y="-759.5" font-family="Helvetica,sans-Serif" font-size="10.00"> </text>
</g>
<!-- Node4&#45;&gt;Node3 -->
<g id="edge3" class="edge"><title>Node4&#45;&gt;Node3</title>
<path fill="none" stroke="midnightblue" d="M47.5996,-743.221C47.5996,-729.239 47.5996,-712.741 47.5996,-696.592"/>
<polygon fill="none" stroke="midnightblue" points="44.0997,-743.376 47.5996,-753.376 51.0997,-743.376 44.0997,-743.376"/>
</g>
<!-- Node5 -->
<g id="node5" class="node"><title>Node5</title>
<g id="a_node5"><a xlink:href="class_hydro_couple_1_1_i_description.html" target="_top" xlink:title="IDescription interface class provides descriptive information on a HydroCouple object. ">
<polygon fill="white" stroke="black" points="98.2402,-733.5 98.2402,-827.5 230.959,-827.5 230.959,-733.5 98.2402,-733.5"/>
<text text-anchor="middle" x="164.6" y="-815.5" font-family="Helvetica,sans-Serif" font-size="10.00">HydroCouple::IDescription</text>
<polyline fill="none" stroke="black" points="98.2402,-809.5 230.959,-809.5 "/>
<text text-anchor="middle" x="164.6" y="-797.5" font-family="Helvetica,sans-Serif" font-size="10.00"> </text>
<polyline fill="none" stroke="black" points="98.2402,-791.5 230.959,-791.5 "/>
<text text-anchor="start" x="106.24" y="-779.5" font-family="Helvetica,sans-Serif" font-size="10.00">+ ~IDescription()</text>
<text text-anchor="start" x="106.24" y="-769.5" font-family="Helvetica,sans-Serif" font-size="10.00">+ getCaption()</text>
<text text-anchor="start" x="106.24" y="-759.5" font-family="Helvetica,sans-Serif" font-size="10.00">+ setCaption()</text>
<text text-anchor="start" x="106.24" y="-749.5" font-family="Helvetica,sans-Serif" font-size="10.00">+ getDescription()</text>
<text text-anchor="start" x="106.24" y="-739.5" font-family="Helvetica,sans-Serif" font-size="10.00">+ setDescription()</text>
</a>
</g>
</g>
<!-- Node5&#45;&gt;Node3 -->
<g id="edge4" class="edge"><title>Node5&#45;&gt;Node3</title>
<path fill="none" stroke="midnightblue" d="M123.316,-725.161C114.233,-713.205 104.541,-700.449 95.2302,-688.193"/>
<polygon fill="none" stroke="midnightblue" points="120.659,-727.45 129.496,-733.295 126.233,-723.215 120.659,-727.45"/>
</g>
<!-- Node7 -->
<g id="node7" class="node"><title>Node7</title>
<g id="a_node7"><a xlink:href="class_hydro_couple_1_1_i_identity.html" target="_top" xlink:title="IIdentity interface class defines a method to get the Id of an HydroCouple entity. &#160;IIdentity extends the IDescription interface class, and therefore has, next to the id, a caption and a description. ">
<polygon fill="white" stroke="black" points="113.129,-592.5 113.129,-656.5 228.07,-656.5 228.07,-592.5 113.129,-592.5"/>
<text text-anchor="middle" x="170.6" y="-644.5" font-family="Helvetica,sans-Serif" font-size="10.00">HydroCouple::IIdentity</text>
<polyline fill="none" stroke="black" points="113.129,-638.5 228.07,-638.5 "/>
<text text-anchor="middle" x="170.6" y="-626.5" font-family="Helvetica,sans-Serif" font-size="10.00"> </text>
<polyline fill="none" stroke="black" points="113.129,-620.5 228.07,-620.5 "/>
<text text-anchor="start" x="121.129" y="-608.5" font-family="Helvetica,sans-Serif" font-size="10.00">+ ~IIdentity()</text>
<text text-anchor="start" x="121.129" y="-598.5" font-family="Helvetica,sans-Serif" font-size="10.00">+ id()</text>
</a>
</g>
</g>
<!-- Node5&#45;&gt;Node7 -->
<g id="edge7" class="edge"><title>Node5&#45;&gt;Node7</title>
<path fill="none" stroke="midnightblue" d="M166.794,-723.171C167.67,-700.681 168.646,-675.651 169.389,-656.56"/>
<polygon fill="none" stroke="midnightblue" points="163.292,-723.166 166.4,-733.295 170.287,-723.439 163.292,-723.166"/>
</g>
<!-- Node6 -->
<g id="node6" class="node"><title>Node6</title>
<g id="a_node6"><a xlink:href="class_hydro_couple_1_1_i_property_changed.html" target="_top" xlink:title="IPropertyChanged interface is used to emit signal/event when a property of an object changes...">
<polygon fill="white" stroke="black" points="84.0581,-864.5 84.0581,-918.5 245.141,-918.5 245.141,-864.5 84.0581,-864.5"/>
<text text-anchor="middle" x="164.6" y="-906.5" font-family="Helvetica,sans-Serif" font-size="10.00">HydroCouple::IPropertyChanged</text>
<polyline fill="none" stroke="black" points="84.0581,-900.5 245.141,-900.5 "/>
<text text-anchor="middle" x="164.6" y="-888.5" font-family="Helvetica,sans-Serif" font-size="10.00"> </text>
<polyline fill="none" stroke="black" points="84.0581,-882.5 245.141,-882.5 "/>
<text text-anchor="start" x="92.0581" y="-870.5" font-family="Helvetica,sans-Serif" font-size="10.00">+ ~IPropertyChanged()</text>
</a>
</g>
</g>
<!-- Node6&#45;&gt;Node5 -->
<g id="edge5" class="edge"><title>Node6&#45;&gt;Node5</title>
<path fill="none" stroke="midnightblue" d="M164.6,-854.141C164.6,-845.716 164.6,-836.639 164.6,-827.851"/>
<polygon fill="none" stroke="midnightblue" points="161.1,-854.392 164.6,-864.392 168.1,-854.392 161.1,-854.392"/>
</g>
<!-- Node7&#45;&gt;Node2 -->
<g id="edge6" class="edge"><title>Node7&#45;&gt;Node2</title>
<path fill="none" stroke="midnightblue" d="M138.472,-584.323C123.002,-564.505 104.781,-539.682 90.5996,-516 82.0332,-501.694 73.9031,-485.405 67.0652,-470.576"/>
<polygon fill="none" stroke="midnightblue" points="135.752,-586.527 144.691,-592.214 141.25,-582.193 135.752,-586.527"/>
</g>
<!-- Node8 -->
<g id="node8" class="node"><title>Node8</title>
<g id="a_node8"><a xlink:href="class_hydro_couple_1_1_i_component_info.html" target="_top" xlink:title="IComponentInfo interface class provides detailed metadata about a component. ">
<polygon fill="white" stroke="black" points="100.061,-331.5 100.061,-515.5 251.139,-515.5 251.139,-331.5 100.061,-331.5"/>
<text text-anchor="middle" x="175.6" y="-503.5" font-family="Helvetica,sans-Serif" font-size="10.00">HydroCouple::IComponentInfo</text>
<polyline fill="none" stroke="black" points="100.061,-497.5 251.139,-497.5 "/>
<text text-anchor="middle" x="175.6" y="-485.5" font-family="Helvetica,sans-Serif" font-size="10.00"> </text>
<polyline fill="none" stroke="black" points="100.061,-479.5 251.139,-479.5 "/>
<text text-anchor="start" x="108.061" y="-467.5" font-family="Helvetica,sans-Serif" font-size="10.00">+ ~IComponentInfo()</text>
<text text-anchor="start" x="108.061" y="-457.5" font-family="Helvetica,sans-Serif" font-size="10.00">+ name()</text>
<text text-anchor="start" x="108.061" y="-447.5" font-family="Helvetica,sans-Serif" font-size="10.00">+ libraryFilePath()</text>
<text text-anchor="start" x="108.061" y="-437.5" font-family="Helvetica,sans-Serif" font-size="10.00">+ setLibraryFilePath()</text>
<text text-anchor="start" x="108.061" y="-427.5" font-family="Helvetica,sans-Serif" font-size="10.00">+ iconFilePath()</text>
<text text-anchor="start" x="108.061" y="-417.5" font-family="Helvetica,sans-Serif" font-size="10.00">+ vendor()</text>
<text text-anchor="start" x="108.061" y="-407.5" font-family="Helvetica,sans-Serif" font-size="10.00">+ publications()</text>
<text text-anchor="start" x="108.061" y="-397.5" font-family="Helvetica,sans-Serif" font-size="10.00">+ license()</text>
<text text-anchor="start" x="108.061" y="-387.5" font-family="Helvetica,sans-Serif" font-size="10.00">+ copyright()</text>
<text text-anchor="start" x="108.061" y="-377.5" font-family="Helvetica,sans-Serif" font-size="10.00">+ url()</text>
<text text-anchor="start" x="108.061" y="-367.5" font-family="Helvetica,sans-Serif" font-size="10.00">+ email()</text>
<text text-anchor="start" x="108.061" y="-357.5" font-family="Helvetica,sans-Serif" font-size="10.00">+ version()</text>
<text text-anchor="start" x="108.061" y="-347.5" font-family="Helvetica,sans-Serif" font-size="10.00">+ category()</text>
<text text-anchor="start" x="108.061" y="-337.5" font-family="Helvetica,sans-Serif" font-size="10.00">+ hasValidLicense()</text>
</a>
</g>
</g>
<!-- Node7&#45;&gt;Node8 -->
<g id="edge9" class="edge"><title>Node7&#45;&gt;Node8</title>
<path fill="none" stroke="midnightblue" d="M171.632,-582.408C172.12,-562.98 172.724,-538.954 173.312,-515.555"/>
<polygon fill="none" stroke="midnightblue" points="168.133,-582.321 171.381,-592.406 175.131,-582.497 168.133,-582.321"/>
</g>
<!-- Node8&#45;&gt;Node1 -->
<g id="edge8" class="edge"><title>Node8&#45;&gt;Node1</title>
<path fill="none" stroke="midnightblue" d="M151.997,-321.45C149.946,-312.671 147.846,-303.681 145.734,-294.638"/>
<polygon fill="none" stroke="midnightblue" points="148.606,-322.32 154.289,-331.262 155.422,-320.728 148.606,-322.32"/>
</g>
</g>
</svg>
        <g id="navigator" transform="translate(0 0)" fill="#404254">
                <rect fill="#f2f5e9" fill-opacity="0.5" stroke="#606060" stroke-width=".5" x="0" y="0" width="60" height="60"/>
                <use id="zoomplus" xlink:href="#zoomPlus" x="17" y="9" onmousedown="handleZoom(evt,'in')"/>
                <use id="zoomminus" xlink:href="#zoomMin" x="42" y="9" onmousedown="handleZoom(evt,'out')"/>
                <use id="reset" xlink:href="#resetDef" x="30" y="36" onmousedown="handleReset()"/>
                <g id="arrowUp" xlink:href="#dirArrow" transform="translate(30 24)" onmousedown="handlePan(0,-1)">
                  <use xlink:href="#rim" fill="#404040">
                        <set attributeName="fill" to="#808080" begin="arrowUp.mouseover" end="arrowUp.mouseout"/>
                  </use>
                  <path fill="none" stroke="white" stroke-width="1.5" d="M0,-3.0v7 M-2.5,-0.5L0,-3.0L2.5,-0.5"/>
                </g>
                <g id="arrowRight" xlink:href="#dirArrow" transform="rotate(90) translate(36 -43)" onmousedown="handlePan(1,0)">
                  <use xlink:href="#rim" fill="#404040">
                        <set attributeName="fill" to="#808080" begin="arrowRight.mouseover" end="arrowRight.mouseout"/>
                  </use>
                  <path fill="none" stroke="white" stroke-width="1.5" d="M0,-3.0v7 M-2.5,-0.5L0,-3.0L2.5,-0.5"/>
                </g>
                <g id="arrowDown" xlink:href="#dirArrow" transform="rotate(180) translate(-30 -48)" onmousedown="handlePan(0,1)">
                  <use xlink:href="#rim" fill="#404040">
                        <set attributeName="fill" to="#808080" begin="arrowDown.mouseover" end="arrowDown.mouseout"/>
                  </use>
                  <path fill="none" stroke="white" stroke-width="1.5" d="M0,-3.0v7 M-2.5,-0.5L0,-3.0L2.5,-0.5"/>
                </g>
                <g id="arrowLeft" xlink:href="#dirArrow" transform="rotate(270) translate(-36 17)" onmousedown="handlePan(-1,0)">
                  <use xlink:href="#rim" fill="#404040">
                        <set attributeName="fill" to="#808080" begin="arrowLeft.mouseover" end="arrowLeft.mouseout"/>
                  </use>
                  <path fill="none" stroke="white" stroke-width="1.5" d="M0,-3.0v7 M-2.5,-0.5L0,-3.0L2.5,-0.5"/>
                </g>
        </g>
        <svg viewBox="0 0 15 15" width="100%" height="30px" preserveAspectRatio="xMaxYMin meet">
         <g id="arrow_out" transform="scale(0.3 0.3)">
          <a xlink:href="class_component_info__coll__graph_org.svg" target="_base">
           <rect id="button" ry="5" rx="5" y="6" x="6" height="38" width="38"
                fill="#f2f5e9" fill-opacity="0.5" stroke="#606060" stroke-width="1.0"/>
           <path id="arrow"
             d="M 11.500037,31.436501 C 11.940474,20.09759 22.043105,11.32322 32.158766,21.979434 L 37.068811,17.246167 C 37.068811,17.246167 37.088388,32 37.088388,32 L 22.160133,31.978069 C 22.160133,31.978069 26.997745,27.140456 26.997745,27.140456 C 18.528582,18.264221 13.291696,25.230495 11.500037,31.436501 z"
             style="fill:#404040;"/>
          </a>
         </g>
        </svg>
</svg>
