<?xml version="1.0" encoding="UTF-8" standalone="no"?>
<!DOCTYPE svg PUBLIC "-//W3C//DTD SVG 1.1//EN"
 "http://www.w3.org/Graphics/SVG/1.1/DTD/svg11.dtd">
<!-- Generated by graphviz version 2.38.0 (20140413.2041)
 -->
<!-- Title: HydroCouple::SpatioTemporal::ITimeRegularGrid3DComponentDataItem::~ITimeRegularGrid3DComponentDataItem Pages: 1 -->
<svg width="562pt" height="445pt"
 viewBox="0.00 0.00 562.08 445.34" xmlns="http://www.w3.org/2000/svg" xmlns:xlink="http://www.w3.org/1999/xlink">
<g id="graph0" class="graph" transform="scale(1 1) rotate(0) translate(4 441.337)">
<title>HydroCouple::SpatioTemporal::ITimeRegularGrid3DComponentDataItem::~ITimeRegularGrid3DComponentDataItem</title>
<polygon fill="white" stroke="none" points="-4,4 -4,-441.337 558.079,-441.337 558.079,4 -4,4"/>
<!-- Node1 -->
<g id="node1" class="node"><title>Node1</title>
<polygon fill="#bfbfbf" stroke="black" points="0,-201.5 0,-249.505 268.041,-249.505 268.041,-201.5 0,-201.5"/>
<text text-anchor="start" x="8" y="-237.505" font-family="Monaco" font-size="10.00">HydroCouple::SpatioTemporal</text>
<text text-anchor="start" x="8" y="-224.17" font-family="Monaco" font-size="10.00">::ITimeRegularGrid3DComponentData</text>
<text text-anchor="middle" x="134.021" y="-210.835" font-family="Monaco" font-size="10.00">Item::~ITimeRegularGrid3DComponentDataItem</text>
</g>
<!-- Node2 -->
<g id="node2" class="node"><title>Node2</title>
<g id="a_node2"><a xlink:href="class_hydro_couple_1_1_spatio_temporal_1_1_i_time_geometry_component_data_item.html#a8124d933673088f379a8fd6817787543" target="_top" xlink:title="ITimes associated with this dimension. ">
<polygon fill="white" stroke="black" points="304.041,-402.167 304.041,-436.837 554.079,-436.837 554.079,-402.167 304.041,-402.167"/>
<text text-anchor="start" x="312.041" y="-424.837" font-family="Monaco" font-size="10.00">HydroCouple::SpatioTemporal</text>
<text text-anchor="middle" x="429.06" y="-411.502" font-family="Monaco" font-size="10.00">::ITimeGeometryComponentDataItem::times</text>
</a>
</g>
</g>
<!-- Node1&#45;&gt;Node2 -->
<g id="edge1" class="edge"><title>Node1&#45;&gt;Node2</title>
<path fill="none" stroke="midnightblue" d="M151.932,-249.624C179.349,-286.776 237.216,-357.471 304.041,-393.502 307.136,-395.171 310.328,-396.733 313.593,-398.195"/>
<polygon fill="midnightblue" stroke="midnightblue" points="312.388,-401.484 322.967,-402.055 315.053,-395.011 312.388,-401.484"/>
</g>
<!-- Node3 -->
<g id="node3" class="node"><title>Node3</title>
<g id="a_node3"><a xlink:href="class_hydro_couple_1_1_spatio_temporal_1_1_i_time_geometry_component_data_item.html#a522fcc2c80981bdd95920f5d519fb845" target="_top" xlink:title="ITimeSpan associated with this dimension. ">
<polygon fill="white" stroke="black" points="325.044,-335.5 325.044,-383.505 533.076,-383.505 533.076,-335.5 325.044,-335.5"/>
<text text-anchor="start" x="333.044" y="-371.505" font-family="Monaco" font-size="10.00">HydroCouple::SpatioTemporal</text>
<text text-anchor="start" x="333.044" y="-358.17" font-family="Monaco" font-size="10.00">::ITimeGeometryComponentDataItem</text>
<text text-anchor="middle" x="429.06" y="-344.835" font-family="Monaco" font-size="10.00">::timeSpan</text>
</a>
</g>
</g>
<!-- Node1&#45;&gt;Node3 -->
<g id="edge2" class="edge"><title>Node1&#45;&gt;Node3</title>
<path fill="none" stroke="midnightblue" d="M168.802,-249.556C201.893,-272.164 254.438,-305.569 304.041,-326.502 308.551,-328.406 313.199,-330.225 317.931,-331.961"/>
<polygon fill="midnightblue" stroke="midnightblue" points="317.144,-335.395 327.739,-335.408 319.465,-328.791 317.144,-335.395"/>
</g>
<!-- Node4 -->
<g id="node4" class="node"><title>Node4</title>
<g id="a_node4"><a xlink:href="class_hydro_couple_1_1_spatio_temporal_1_1_i_time_geometry_component_data_item.html#a6f899076e9b6b9676f7f241eca7c127f" target="_top" xlink:title="IDimension of the times. ">
<polygon fill="white" stroke="black" points="325.044,-268.5 325.044,-316.505 533.076,-316.505 533.076,-268.5 325.044,-268.5"/>
<text text-anchor="start" x="333.044" y="-304.505" font-family="Monaco" font-size="10.00">HydroCouple::SpatioTemporal</text>
<text text-anchor="start" x="333.044" y="-291.17" font-family="Monaco" font-size="10.00">::ITimeGeometryComponentDataItem</text>
<text text-anchor="middle" x="429.06" y="-277.835" font-family="Monaco" font-size="10.00">::timeDimension</text>
</a>
</g>
</g>
<!-- Node1&#45;&gt;Node4 -->
<g id="edge3" class="edge"><title>Node1&#45;&gt;Node4</title>
<path fill="none" stroke="midnightblue" d="M240.401,-249.596C264.484,-255.103 290.182,-260.978 314.589,-266.559"/>
<polygon fill="midnightblue" stroke="midnightblue" points="314.068,-270.03 324.596,-268.847 315.628,-263.206 314.068,-270.03"/>
</g>
<!-- Node5 -->
<g id="node5" class="node"><title>Node5</title>
<g id="a_node5"><a xlink:href="class_hydro_couple_1_1_spatio_temporal_1_1_i_time_geometry_component_data_item.html#a1fdfb452c3d3caf2aedae174f333a066" target="_top" xlink:title="Gets a single value for given time dimension index. ">
<polygon fill="white" stroke="black" points="325.044,-201.5 325.044,-249.505 533.076,-249.505 533.076,-201.5 325.044,-201.5"/>
<text text-anchor="start" x="333.044" y="-237.505" font-family="Monaco" font-size="10.00">HydroCouple::SpatioTemporal</text>
<text text-anchor="start" x="333.044" y="-224.17" font-family="Monaco" font-size="10.00">::ITimeGeometryComponentDataItem</text>
<text text-anchor="middle" x="429.06" y="-210.835" font-family="Monaco" font-size="10.00">::getValue</text>
</a>
</g>
</g>
<!-- Node1&#45;&gt;Node5 -->
<g id="edge4" class="edge"><title>Node1&#45;&gt;Node5</title>
<path fill="none" stroke="midnightblue" d="M268.25,-225.502C283.728,-225.502 299.406,-225.502 314.584,-225.502"/>
<polygon fill="midnightblue" stroke="midnightblue" points="315.004,-229.003 325.004,-225.502 315.004,-222.003 315.004,-229.003"/>
</g>
<!-- Node6 -->
<g id="node6" class="node"><title>Node6</title>
<g id="a_node6"><a xlink:href="class_hydro_couple_1_1_spatio_temporal_1_1_i_time_geometry_component_data_item.html#af32f2312af03540b6266d3efe3c078aa" target="_top" xlink:title="Gets a multi&#45;dimensional array of values for given dimension time dimension index and size for a hype...">
<polygon fill="white" stroke="black" points="325.044,-134.5 325.044,-182.505 533.076,-182.505 533.076,-134.5 325.044,-134.5"/>
<text text-anchor="start" x="333.044" y="-170.505" font-family="Monaco" font-size="10.00">HydroCouple::SpatioTemporal</text>
<text text-anchor="start" x="333.044" y="-157.17" font-family="Monaco" font-size="10.00">::ITimeGeometryComponentDataItem</text>
<text text-anchor="middle" x="429.06" y="-143.835" font-family="Monaco" font-size="10.00">::getValues</text>
</a>
</g>
</g>
<!-- Node1&#45;&gt;Node6 -->
<g id="edge5" class="edge"><title>Node1&#45;&gt;Node6</title>
<path fill="none" stroke="midnightblue" d="M240.401,-201.409C264.484,-195.902 290.182,-190.027 314.589,-184.446"/>
<polygon fill="midnightblue" stroke="midnightblue" points="315.628,-187.799 324.596,-182.158 314.068,-180.975 315.628,-187.799"/>
</g>
<!-- Node7 -->
<g id="node7" class="node"><title>Node7</title>
<g id="a_node7"><a xlink:href="class_hydro_couple_1_1_spatio_temporal_1_1_i_time_geometry_component_data_item.html#a91293b8701a718ae3114e2456acd5216" target="_top" xlink:title="Sets a single value for given time dimension index. ">
<polygon fill="white" stroke="black" points="325.044,-67.5 325.044,-115.505 533.076,-115.505 533.076,-67.5 325.044,-67.5"/>
<text text-anchor="start" x="333.044" y="-103.505" font-family="Monaco" font-size="10.00">HydroCouple::SpatioTemporal</text>
<text text-anchor="start" x="333.044" y="-90.1699" font-family="Monaco" font-size="10.00">::ITimeGeometryComponentDataItem</text>
<text text-anchor="middle" x="429.06" y="-76.835" font-family="Monaco" font-size="10.00">::setValue</text>
</a>
</g>
</g>
<!-- Node1&#45;&gt;Node7 -->
<g id="edge6" class="edge"><title>Node1&#45;&gt;Node7</title>
<path fill="none" stroke="midnightblue" d="M168.802,-201.449C201.893,-178.841 254.438,-145.436 304.041,-124.502 308.551,-122.599 313.199,-120.78 317.931,-119.044"/>
<polygon fill="midnightblue" stroke="midnightblue" points="319.465,-122.214 327.739,-115.597 317.144,-115.61 319.465,-122.214"/>
</g>
<!-- Node8 -->
<g id="node8" class="node"><title>Node8</title>
<g id="a_node8"><a xlink:href="class_hydro_couple_1_1_spatio_temporal_1_1_i_time_geometry_component_data_item.html#a79af6a7de3140685dc91d616853c2e0e" target="_top" xlink:title="Sets a multi&#45;dimensional array of values for given time dimension index and size for a hyperslab...">
<polygon fill="white" stroke="black" points="325.044,-0.5 325.044,-48.5049 533.076,-48.5049 533.076,-0.5 325.044,-0.5"/>
<text text-anchor="start" x="333.044" y="-36.5049" font-family="Monaco" font-size="10.00">HydroCouple::SpatioTemporal</text>
<text text-anchor="start" x="333.044" y="-23.1699" font-family="Monaco" font-size="10.00">::ITimeGeometryComponentDataItem</text>
<text text-anchor="middle" x="429.06" y="-9.83496" font-family="Monaco" font-size="10.00">::setValues</text>
</a>
</g>
</g>
<!-- Node1&#45;&gt;Node8 -->
<g id="edge7" class="edge"><title>Node1&#45;&gt;Node8</title>
<path fill="none" stroke="midnightblue" d="M152.625,-201.207C180.543,-164.471 238.561,-95.0997 304.041,-57.5024 307.736,-55.3807 311.572,-53.3918 315.505,-51.5277"/>
<polygon fill="midnightblue" stroke="midnightblue" points="317.112,-54.6445 324.844,-47.401 314.282,-48.2418 317.112,-54.6445"/>
</g>
</g>
</svg>
