<?xml version="1.0" encoding="UTF-8" standalone="no"?>
<!DOCTYPE svg PUBLIC "-//W3C//DTD SVG 1.1//EN"
 "http://www.w3.org/Graphics/SVG/1.1/DTD/svg11.dtd">
<!-- Generated by graphviz version 2.38.0 (20140413.2041)
 -->
<!-- Title: HydroCouple::SpatioTemporal::ITimeGeometryExchangeItem Pages: 1 -->
<svg width="472pt" height="932pt"
 viewBox="0.00 0.00 472.03 932.40" xmlns="http://www.w3.org/2000/svg" xmlns:xlink="http://www.w3.org/1999/xlink">
<g id="graph0" class="graph" transform="scale(1 1) rotate(0) translate(4 928.398)">
<title>HydroCouple::SpatioTemporal::ITimeGeometryExchangeItem</title>
<polygon fill="white" stroke="none" points="-4,4 -4,-928.398 468.026,-928.398 468.026,4 -4,4"/>
<!-- Node1 -->
<g id="node1" class="node"><title>Node1</title>
<polygon fill="#bfbfbf" stroke="black" points="89.998,-0.5 89.998,-91.1748 286.027,-91.1748 286.027,-0.5 89.998,-0.5"/>
<text text-anchor="start" x="97.998" y="-79.1748" font-family="Monaco" font-size="10.00">HydroCouple::SpatioTemporal</text>
<text text-anchor="middle" x="188.013" y="-65.8398" font-family="Monaco" font-size="10.00">::ITimeGeometryExchangeItem</text>
<polyline fill="none" stroke="black" points="89.998,-56.5049 286.027,-56.5049 "/>
<text text-anchor="middle" x="188.013" y="-44.5049" font-family="Monaco" font-size="10.00"> </text>
<polyline fill="none" stroke="black" points="89.998,-35.1699 286.027,-35.1699 "/>
<text text-anchor="start" x="97.998" y="-23.1699" font-family="Monaco" font-size="10.00">+ ~ITimeGeometryExchangeItem()</text>
<text text-anchor="start" x="97.998" y="-9.83496" font-family="Monaco" font-size="10.00">+ timeGeometryValues()</text>
</g>
<!-- Node2 -->
<g id="node2" class="node"><title>Node2</title>
<g id="a_node2"><a xlink:href="class_hydro_couple_1_1_i_exchange_item.html" target="_top" xlink:title="IExchangeItem the base data item the can be exchanged between components at runtime. ">
<polygon fill="white" stroke="black" points="0,-128.175 0,-218.85 172.025,-218.85 172.025,-128.175 0,-128.175"/>
<text text-anchor="middle" x="86.0127" y="-206.85" font-family="Monaco" font-size="10.00">HydroCouple::IExchangeItem</text>
<polyline fill="none" stroke="black" points="0,-197.515 172.025,-197.515 "/>
<text text-anchor="middle" x="86.0127" y="-185.515" font-family="Monaco" font-size="10.00"> </text>
<polyline fill="none" stroke="black" points="0,-176.18 172.025,-176.18 "/>
<text text-anchor="start" x="8" y="-164.18" font-family="Monaco" font-size="10.00">+ ~IExchangeItem()</text>
<text text-anchor="start" x="8" y="-150.845" font-family="Monaco" font-size="10.00">+ values()</text>
<text text-anchor="start" x="8" y="-137.51" font-family="Monaco" font-size="10.00">+ itemChanged()</text>
</a>
</g>
</g>
<!-- Node2&#45;&gt;Node1 -->
<g id="edge1" class="edge"><title>Node2&#45;&gt;Node1</title>
<path fill="none" stroke="midnightblue" d="M128.668,-119.956C136.388,-110.444 144.37,-100.61 151.881,-91.3557"/>
<polygon fill="none" stroke="midnightblue" points="125.846,-117.88 122.261,-127.85 131.281,-122.291 125.846,-117.88"/>
</g>
<!-- Node3 -->
<g id="node3" class="node"><title>Node3</title>
<g id="a_node3"><a xlink:href="class_hydro_couple_1_1_i_component_item.html" target="_top" xlink:title="IComponentItem is a fundamental unit of data for a component. ">
<polygon fill="white" stroke="black" points="102,-423.529 102,-527.539 280.026,-527.539 280.026,-423.529 102,-423.529"/>
<text text-anchor="middle" x="191.013" y="-515.539" font-family="Monaco" font-size="10.00">HydroCouple::IComponentItem</text>
<polyline fill="none" stroke="black" points="102,-506.204 280.026,-506.204 "/>
<text text-anchor="middle" x="191.013" y="-494.204" font-family="Monaco" font-size="10.00"> </text>
<polyline fill="none" stroke="black" points="102,-484.869 280.026,-484.869 "/>
<text text-anchor="start" x="110" y="-472.869" font-family="Monaco" font-size="10.00">+ ~IComponentItem()</text>
<text text-anchor="start" x="110" y="-459.534" font-family="Monaco" font-size="10.00">+ modelComponent()</text>
<text text-anchor="start" x="110" y="-446.199" font-family="Monaco" font-size="10.00">+ modelComponentId()</text>
<text text-anchor="start" x="110" y="-432.864" font-family="Monaco" font-size="10.00">+ dimensions()</text>
</a>
</g>
</g>
<!-- Node3&#45;&gt;Node2 -->
<g id="edge2" class="edge"><title>Node3&#45;&gt;Node2</title>
<path fill="none" stroke="midnightblue" d="M122.781,-415.187C115.797,-406.405 109.597,-396.948 105.013,-387.029 80.147,-333.23 78.9415,-263.665 81.5342,-219.057"/>
<polygon fill="none" stroke="midnightblue" points="120.28,-417.651 129.392,-423.056 125.64,-413.148 120.28,-417.651"/>
</g>
<!-- Node8 -->
<g id="node8" class="node"><title>Node8</title>
<g id="a_node8"><a xlink:href="class_hydro_couple_1_1_temporal_1_1_i_time_component_item.html" target="_top" xlink:title="ITimeComponentItem is an IComponentItem with a temporal attribute. ">
<polygon fill="white" stroke="black" points="114.001,-255.85 114.001,-386.529 268.024,-386.529 268.024,-255.85 114.001,-255.85"/>
<text text-anchor="start" x="122.001" y="-374.529" font-family="Monaco" font-size="10.00">HydroCouple::Temporal</text>
<text text-anchor="middle" x="191.013" y="-361.194" font-family="Monaco" font-size="10.00">::ITimeComponentItem</text>
<polyline fill="none" stroke="black" points="114.001,-351.859 268.024,-351.859 "/>
<text text-anchor="middle" x="191.013" y="-339.859" font-family="Monaco" font-size="10.00"> </text>
<polyline fill="none" stroke="black" points="114.001,-330.524 268.024,-330.524 "/>
<text text-anchor="start" x="122.001" y="-318.524" font-family="Monaco" font-size="10.00">+ ~ITimeComponentItem()</text>
<text text-anchor="start" x="122.001" y="-305.189" font-family="Monaco" font-size="10.00">+ timeDimension()</text>
<text text-anchor="start" x="122.001" y="-291.854" font-family="Monaco" font-size="10.00">+ times()</text>
<text text-anchor="start" x="122.001" y="-278.52" font-family="Monaco" font-size="10.00">+ timeSpan()</text>
<text text-anchor="start" x="122.001" y="-265.185" font-family="Monaco" font-size="10.00">+ time()</text>
</a>
</g>
</g>
<!-- Node3&#45;&gt;Node8 -->
<g id="edge8" class="edge"><title>Node3&#45;&gt;Node8</title>
<path fill="none" stroke="midnightblue" d="M191.013,-413.279C191.013,-404.542 191.013,-395.533 191.013,-386.735"/>
<polygon fill="none" stroke="midnightblue" points="187.513,-413.382 191.013,-423.382 194.513,-413.382 187.513,-413.382"/>
</g>
<!-- Node9 -->
<g id="node9" class="node"><title>Node9</title>
<g id="a_node9"><a xlink:href="class_hydro_couple_1_1_spatial_1_1_i_geometry_component_item.html" target="_top" xlink:title="IGeometryComponentItem represents IGeometryCollection IComponentItem. ">
<polygon fill="white" stroke="black" points="286,-262.517 286,-379.862 464.026,-379.862 464.026,-262.517 286,-262.517"/>
<text text-anchor="start" x="294" y="-367.862" font-family="Monaco" font-size="10.00">HydroCouple::Spatial</text>
<text text-anchor="middle" x="375.013" y="-354.527" font-family="Monaco" font-size="10.00">::IGeometryComponentItem</text>
<polyline fill="none" stroke="black" points="286,-345.192 464.026,-345.192 "/>
<text text-anchor="middle" x="375.013" y="-333.192" font-family="Monaco" font-size="10.00"> </text>
<polyline fill="none" stroke="black" points="286,-323.857 464.026,-323.857 "/>
<text text-anchor="start" x="294" y="-311.857" font-family="Monaco" font-size="10.00">+ ~IGeometryComponentItem()</text>
<text text-anchor="start" x="294" y="-298.522" font-family="Monaco" font-size="10.00">+ geometryDimension()</text>
<text text-anchor="start" x="294" y="-285.187" font-family="Monaco" font-size="10.00">+ geometryCollection()</text>
<text text-anchor="start" x="294" y="-271.852" font-family="Monaco" font-size="10.00">+ geometry()</text>
</a>
</g>
</g>
<!-- Node3&#45;&gt;Node9 -->
<g id="edge10" class="edge"><title>Node3&#45;&gt;Node9</title>
<path fill="none" stroke="midnightblue" d="M260.774,-416.775C275.302,-404.746 290.616,-392.066 305.148,-380.035"/>
<polygon fill="none" stroke="midnightblue" points="258.264,-414.308 252.794,-423.382 262.729,-419.7 258.264,-414.308"/>
</g>
<!-- Node4 -->
<g id="node4" class="node"><title>Node4</title>
<g id="a_node4"><a xlink:href="class_hydro_couple_1_1_i_identity.html" target="_top" xlink:title="IIdentity interface class defines a method to get the Id of an HydroCouple entity. ">
<polygon fill="white" stroke="black" points="117.002,-564.539 117.002,-668.549 265.023,-668.549 265.023,-564.539 117.002,-564.539"/>
<text text-anchor="middle" x="191.013" y="-656.549" font-family="Monaco" font-size="10.00">HydroCouple::IIdentity</text>
<polyline fill="none" stroke="black" points="117.002,-647.214 265.023,-647.214 "/>
<text text-anchor="middle" x="191.013" y="-635.214" font-family="Monaco" font-size="10.00"> </text>
<polyline fill="none" stroke="black" points="117.002,-625.879 265.023,-625.879 "/>
<text text-anchor="start" x="125.002" y="-613.879" font-family="Monaco" font-size="10.00">+ ~IIdentity()</text>
<text text-anchor="start" x="125.002" y="-600.544" font-family="Monaco" font-size="10.00">+ MPI_Comm()</text>
<text text-anchor="start" x="125.002" y="-587.209" font-family="Monaco" font-size="10.00">+ MPI_Rank()</text>
<text text-anchor="start" x="125.002" y="-573.874" font-family="Monaco" font-size="10.00">+ id()</text>
</a>
</g>
</g>
<!-- Node4&#45;&gt;Node3 -->
<g id="edge3" class="edge"><title>Node4&#45;&gt;Node3</title>
<path fill="none" stroke="midnightblue" d="M191.013,-553.98C191.013,-545.198 191.013,-536.244 191.013,-527.69"/>
<polygon fill="none" stroke="midnightblue" points="187.513,-554.177 191.013,-564.177 194.513,-554.177 187.513,-554.177"/>
</g>
<!-- Node5 -->
<g id="node5" class="node"><title>Node5</title>
<g id="a_node5"><a xlink:href="class_hydro_couple_1_1_i_description.html" target="_top" xlink:title="IDescription interface class provides descriptive information on a HydroCouple object. ">
<polygon fill="white" stroke="black" points="108,-705.549 108,-822.894 274.025,-822.894 274.025,-705.549 108,-705.549"/>
<text text-anchor="middle" x="191.013" y="-810.894" font-family="Monaco" font-size="10.00">HydroCouple::IDescription</text>
<polyline fill="none" stroke="black" points="108,-801.559 274.025,-801.559 "/>
<text text-anchor="middle" x="191.013" y="-789.559" font-family="Monaco" font-size="10.00"> </text>
<polyline fill="none" stroke="black" points="108,-780.224 274.025,-780.224 "/>
<text text-anchor="start" x="116" y="-768.224" font-family="Monaco" font-size="10.00">+ ~IDescription()</text>
<text text-anchor="start" x="116" y="-754.889" font-family="Monaco" font-size="10.00">+ getCaption()</text>
<text text-anchor="start" x="116" y="-741.554" font-family="Monaco" font-size="10.00">+ setCaption()</text>
<text text-anchor="start" x="116" y="-728.219" font-family="Monaco" font-size="10.00">+ getDescription()</text>
<text text-anchor="start" x="116" y="-714.884" font-family="Monaco" font-size="10.00">+ setDescription()</text>
</a>
</g>
</g>
<!-- Node5&#45;&gt;Node4 -->
<g id="edge4" class="edge"><title>Node5&#45;&gt;Node4</title>
<path fill="none" stroke="midnightblue" d="M191.013,-694.948C191.013,-686.13 191.013,-677.222 191.013,-668.744"/>
<polygon fill="none" stroke="midnightblue" points="187.513,-695.227 191.013,-705.227 194.513,-695.227 187.513,-695.227"/>
</g>
<!-- Node6 -->
<g id="node6" class="node"><title>Node6</title>
<g id="a_node6"><a xlink:href="class_hydro_couple_1_1_i_property_changed.html" target="_top" xlink:title="IPropertyChanged interface is used to emit signal/event when a property of an object changes...">
<polygon fill="white" stroke="black" points="95.9985,-859.894 95.9985,-923.898 286.027,-923.898 286.027,-859.894 95.9985,-859.894"/>
<text text-anchor="middle" x="191.013" y="-911.898" font-family="Monaco" font-size="10.00">HydroCouple::IPropertyChanged</text>
<polyline fill="none" stroke="black" points="95.9985,-902.563 286.027,-902.563 "/>
<text text-anchor="middle" x="191.013" y="-890.563" font-family="Monaco" font-size="10.00"> </text>
<polyline fill="none" stroke="black" points="95.9985,-881.229 286.027,-881.229 "/>
<text text-anchor="start" x="103.999" y="-869.229" font-family="Monaco" font-size="10.00">+ ~IPropertyChanged()</text>
</a>
</g>
</g>
<!-- Node6&#45;&gt;Node5 -->
<g id="edge5" class="edge"><title>Node6&#45;&gt;Node5</title>
<path fill="none" stroke="midnightblue" d="M191.013,-849.573C191.013,-841.188 191.013,-832.222 191.013,-823.38"/>
<polygon fill="none" stroke="midnightblue" points="187.513,-849.83 191.013,-859.83 194.513,-849.83 187.513,-849.83"/>
</g>
<!-- Node7 -->
<g id="node7" class="node"><title>Node7</title>
<g id="a_node7"><a xlink:href="class_hydro_couple_1_1_spatio_temporal_1_1_i_time_geometry_component_item.html" target="_top" xlink:title="ITimeGeometryComponentItem represents an IComponentItem with both temporal and geometric components...">
<polygon fill="white" stroke="black" points="189.998,-134.842 189.998,-212.182 392.028,-212.182 392.028,-134.842 189.998,-134.842"/>
<text text-anchor="start" x="197.998" y="-200.182" font-family="Monaco" font-size="10.00">HydroCouple::SpatioTemporal</text>
<text text-anchor="middle" x="291.013" y="-186.847" font-family="Monaco" font-size="10.00">::ITimeGeometryComponentItem</text>
<polyline fill="none" stroke="black" points="189.998,-177.512 392.028,-177.512 "/>
<text text-anchor="middle" x="291.013" y="-165.512" font-family="Monaco" font-size="10.00"> </text>
<polyline fill="none" stroke="black" points="189.998,-156.177 392.028,-156.177 "/>
<text text-anchor="start" x="197.998" y="-144.177" font-family="Monaco" font-size="10.00">+ ~ITimeGeometryComponentItem()</text>
</a>
</g>
</g>
<!-- Node7&#45;&gt;Node1 -->
<g id="edge6" class="edge"><title>Node7&#45;&gt;Node1</title>
<path fill="none" stroke="midnightblue" d="M253.698,-126.983C244.253,-115.458 234.117,-103.091 224.703,-91.6047"/>
<polygon fill="none" stroke="midnightblue" points="251.063,-129.29 260.109,-134.806 256.477,-124.853 251.063,-129.29"/>
</g>
<!-- Node8&#45;&gt;Node7 -->
<g id="edge7" class="edge"><title>Node8&#45;&gt;Node7</title>
<path fill="none" stroke="midnightblue" d="M241.17,-247.121C249.438,-235.077 257.7,-223.041 265.052,-212.331"/>
<polygon fill="none" stroke="midnightblue" points="238.23,-245.22 235.457,-255.445 244.002,-249.181 238.23,-245.22"/>
</g>
<!-- Node9&#45;&gt;Node7 -->
<g id="edge9" class="edge"><title>Node9&#45;&gt;Node7</title>
<path fill="none" stroke="midnightblue" d="M336.526,-253.443C328.366,-239.292 320.028,-224.832 312.756,-212.22"/>
<polygon fill="none" stroke="midnightblue" points="333.545,-255.281 341.572,-262.195 339.609,-251.784 333.545,-255.281"/>
</g>
</g>
</svg>
