<?xml version="1.0" encoding="UTF-8" standalone="no"?>
<!DOCTYPE svg PUBLIC "-//W3C//DTD SVG 1.1//EN"
 "http://www.w3.org/Graphics/SVG/1.1/DTD/svg11.dtd">
<!-- Generated by graphviz version 2.38.0 (20140413.2041)
 -->
<!-- Title: HydroCouple::Spatial::IPolyhedralSurfaceExchangeItem Pages: 1 -->
<!--zoomable 858 -->
<svg id="main" version="1.1" xmlns="http://www.w3.org/2000/svg" xmlns:xlink="http://www.w3.org/1999/xlink" xml:space="preserve" onload="init(evt)">
<style type="text/css"><![CDATA[
.edge:hover path { stroke: red; }
.edge:hover polygon { stroke: red; fill: red; }
]]></style>
<script type="text/javascript"><![CDATA[
var edges = document.getElementsByTagName('g');
if (edges && edges.length) {
  for (var i=0;i<edges.length;i++) {
    if (edges[i].id.substr(0,4)=='edge') {
      edges[i].setAttribute('class','edge');
    }
  }
}
]]></script>
        <defs>
                <circle id="rim" cx="0" cy="0" r="7"/>
                <circle id="rim2" cx="0" cy="0" r="3.5"/>
                <g id="zoomPlus">
                        <use xlink:href="#rim" fill="#404040">
                                <set attributeName="fill" to="#808080" begin="zoomplus.mouseover" end="zoomplus.mouseout"/>
                        </use>
                        <path d="M-4,0h8M0,-4v8" fill="none" stroke="white" stroke-width="1.5" pointer-events="none"/>
                </g>
                <g id="zoomMin">
                        <use xlink:href="#rim" fill="#404040">
                                <set attributeName="fill" to="#808080" begin="zoomminus.mouseover" end="zoomminus.mouseout"/>
                        </use>
                        <path d="M-4,0h8" fill="none" stroke="white" stroke-width="1.5" pointer-events="none"/>
                </g>
                <g id="dirArrow">
                        <path fill="none" stroke="white" stroke-width="1.5" d="M0,-3.0v7 M-2.5,-0.5L0,-3.0L2.5,-0.5"/>
                </g>
               <g id="resetDef">
                       <use xlink:href="#rim2" fill="#404040">
                               <set attributeName="fill" to="#808080" begin="reset.mouseover" end="reset.mouseout"/>
                       </use>
               </g>
        </defs>

<script type="text/javascript">
var viewWidth = 424;
var viewHeight = 858;
var sectionId = 'dynsection-1';
</script>
<script xlink:href="svgpan.js"/>
<svg id="graph" class="graph">
<g id="viewport">
<title>HydroCouple::Spatial::IPolyhedralSurfaceExchangeItem</title>
<!-- Node1 -->
<g id="node1" class="node"><title>Node1</title>
<polygon fill="#bfbfbf" stroke="black" points="80.9956,-0.5 80.9956,-77.8398 307.03,-77.8398 307.03,-0.5 80.9956,-0.5"/>
<text text-anchor="start" x="88.9956" y="-65.8398" font-family="Monaco" font-size="10.00">HydroCouple::Spatial</text>
<text text-anchor="middle" x="194.013" y="-52.5049" font-family="Monaco" font-size="10.00">::IPolyhedralSurfaceExchangeItem</text>
<polyline fill="none" stroke="black" points="80.9956,-43.1699 307.03,-43.1699 "/>
<text text-anchor="middle" x="194.013" y="-31.1699" font-family="Monaco" font-size="10.00"> </text>
<polyline fill="none" stroke="black" points="80.9956,-21.835 307.03,-21.835 "/>
<text text-anchor="start" x="88.9956" y="-9.83496" font-family="Monaco" font-size="10.00">+ ~IPolyhedralSurfaceExchangeItem()</text>
</g>
<!-- Node2 -->
<g id="node2" class="node"><title>Node2</title>
<g id="a_node2"><a xlink:href="class_hydro_couple_1_1_i_exchange_item.html" target="_top" xlink:title="IExchangeItem the base data item the can be exchanged between components at runtime. ">
<polygon fill="none" stroke="black" points="0,-148.177 0,-225.517 172.025,-225.517 172.025,-148.177 0,-148.177"/>
<text text-anchor="middle" x="86.0127" y="-213.517" font-family="Monaco" font-size="10.00">HydroCouple::IExchangeItem</text>
<polyline fill="none" stroke="black" points="0,-204.182 172.025,-204.182 "/>
<text text-anchor="middle" x="86.0127" y="-192.182" font-family="Monaco" font-size="10.00"> </text>
<polyline fill="none" stroke="black" points="0,-182.847 172.025,-182.847 "/>
<text text-anchor="start" x="8" y="-170.847" font-family="Monaco" font-size="10.00">+ ~IExchangeItem()</text>
<text text-anchor="start" x="8" y="-157.512" font-family="Monaco" font-size="10.00">+ itemChanged()</text>
</a>
</g>
</g>
<!-- Node2&#45;&gt;Node1 -->
<g id="edge1" class="edge"><title>Node2&#45;&gt;Node1</title>
<path fill="none" stroke="midnightblue" d="M120.08,-139.895C134.886,-119.924 152.018,-96.8155 166.06,-77.8749"/>
<polygon fill="none" stroke="midnightblue" points="117.25,-137.835 114.106,-147.952 122.874,-142.004 117.25,-137.835"/>
</g>
<!-- Node3 -->
<g id="node3" class="node"><title>Node3</title>
<g id="a_node3"><a xlink:href="class_hydro_couple_1_1_i_component_data_item.html" target="_top" xlink:title="IComponentItem is a fundamental unit of data for a component. ">
<polygon fill="none" stroke="black" points="92.9976,-295.854 92.9976,-479.874 295.028,-479.874 295.028,-295.854 92.9976,-295.854"/>
<text text-anchor="middle" x="194.013" y="-467.874" font-family="Monaco" font-size="10.00">HydroCouple::IComponentDataItem</text>
<polyline fill="none" stroke="black" points="92.9976,-458.539 295.028,-458.539 "/>
<text text-anchor="middle" x="194.013" y="-446.539" font-family="Monaco" font-size="10.00"> </text>
<polyline fill="none" stroke="black" points="92.9976,-437.204 295.028,-437.204 "/>
<text text-anchor="start" x="100.998" y="-425.204" font-family="Monaco" font-size="10.00">+ ~IComponentDataItem()</text>
<text text-anchor="start" x="100.998" y="-411.869" font-family="Monaco" font-size="10.00">+ modelComponent()</text>
<text text-anchor="start" x="100.998" y="-398.534" font-family="Monaco" font-size="10.00">+ dimensions()</text>
<text text-anchor="start" x="100.998" y="-385.199" font-family="Monaco" font-size="10.00">+ valueDefinition()</text>
<text text-anchor="start" x="100.998" y="-371.864" font-family="Monaco" font-size="10.00">+ getValue()</text>
<text text-anchor="start" x="100.998" y="-358.529" font-family="Monaco" font-size="10.00">+ getValues()</text>
<text text-anchor="start" x="100.998" y="-345.194" font-family="Monaco" font-size="10.00">+ getValues()</text>
<text text-anchor="start" x="100.998" y="-331.859" font-family="Monaco" font-size="10.00">+ setValue()</text>
<text text-anchor="start" x="100.998" y="-318.524" font-family="Monaco" font-size="10.00">+ setValues()</text>
<text text-anchor="start" x="100.998" y="-305.189" font-family="Monaco" font-size="10.00">+ setValues()</text>
</a>
</g>
</g>
<!-- Node3&#45;&gt;Node2 -->
<g id="edge2" class="edge"><title>Node3&#45;&gt;Node2</title>
<path fill="none" stroke="midnightblue" d="M139.702,-286.783C127.85,-264.944 116.019,-243.141 106.491,-225.583"/>
<polygon fill="none" stroke="midnightblue" points="136.75,-288.681 144.596,-295.801 142.902,-285.342 136.75,-288.681"/>
</g>
<!-- Node7 -->
<g id="node7" class="node"><title>Node7</title>
<g id="a_node7"><a xlink:href="class_hydro_couple_1_1_spatial_1_1_i_polyhedral_surface_component_data_item.html" target="_top" xlink:title="IPolyhedralSurfaceComponentItem represents IPolyhedralSurface IComponentItem. ">
<polygon fill="none" stroke="black" points="189.996,-114.84 189.996,-258.854 416.03,-258.854 416.03,-114.84 189.996,-114.84"/>
<text text-anchor="start" x="197.996" y="-246.854" font-family="Monaco" font-size="10.00">HydroCouple::Spatial</text>
<text text-anchor="start" x="197.996" y="-233.52" font-family="Monaco" font-size="10.00">::IPolyhedralSurfaceComponent</text>
<text text-anchor="middle" x="303.013" y="-220.185" font-family="Monaco" font-size="10.00">DataItem</text>
<polyline fill="none" stroke="black" points="189.996,-210.85 416.03,-210.85 "/>
<text text-anchor="middle" x="303.013" y="-198.85" font-family="Monaco" font-size="10.00"> </text>
<polyline fill="none" stroke="black" points="189.996,-189.515 416.03,-189.515 "/>
<text text-anchor="start" x="197.996" y="-177.515" font-family="Monaco" font-size="10.00">+ ~IPolyhedralSurfaceComponent</text>
<text text-anchor="start" x="197.996" y="-164.18" font-family="Monaco" font-size="10.00">DataItem()</text>
<text text-anchor="start" x="197.996" y="-150.845" font-family="Monaco" font-size="10.00">+ polyhedralSurface()</text>
<text text-anchor="start" x="197.996" y="-137.51" font-family="Monaco" font-size="10.00">+ polygon()</text>
<text text-anchor="start" x="197.996" y="-124.175" font-family="Monaco" font-size="10.00">+ polyhedralSurfacePatchDimension()</text>
</a>
</g>
</g>
<!-- Node3&#45;&gt;Node7 -->
<g id="edge7" class="edge"><title>Node3&#45;&gt;Node7</title>
<path fill="none" stroke="midnightblue" d="M248.826,-286.783C253.983,-277.368 259.136,-267.959 264.1,-258.895"/>
<polygon fill="none" stroke="midnightblue" points="245.621,-285.349 243.887,-295.801 251.761,-288.712 245.621,-285.349"/>
</g>
<!-- Node4 -->
<g id="node4" class="node"><title>Node4</title>
<g id="a_node4"><a xlink:href="class_hydro_couple_1_1_i_identity.html" target="_top" xlink:title="IIdentity interface class defines a method to get the Id of an HydroCouple entity. ">
<polygon fill="none" stroke="black" points="120.002,-516.874 120.002,-594.214 268.023,-594.214 268.023,-516.874 120.002,-516.874"/>
<text text-anchor="middle" x="194.013" y="-582.214" font-family="Monaco" font-size="10.00">HydroCouple::IIdentity</text>
<polyline fill="none" stroke="black" points="120.002,-572.879 268.023,-572.879 "/>
<text text-anchor="middle" x="194.013" y="-560.879" font-family="Monaco" font-size="10.00"> </text>
<polyline fill="none" stroke="black" points="120.002,-551.544 268.023,-551.544 "/>
<text text-anchor="start" x="128.002" y="-539.544" font-family="Monaco" font-size="10.00">+ ~IIdentity()</text>
<text text-anchor="start" x="128.002" y="-526.209" font-family="Monaco" font-size="10.00">+ id()</text>
</a>
</g>
</g>
<!-- Node4&#45;&gt;Node3 -->
<g id="edge3" class="edge"><title>Node4&#45;&gt;Node3</title>
<path fill="none" stroke="midnightblue" d="M194.013,-506.292C194.013,-497.938 194.013,-489.013 194.013,-479.955"/>
<polygon fill="none" stroke="midnightblue" points="190.513,-506.534 194.013,-516.534 197.513,-506.534 190.513,-506.534"/>
</g>
<!-- Node5 -->
<g id="node5" class="node"><title>Node5</title>
<g id="a_node5"><a xlink:href="class_hydro_couple_1_1_i_description.html" target="_top" xlink:title="IDescription interface class provides descriptive information on a HydroCouple object. ">
<polygon fill="none" stroke="black" points="111,-631.214 111,-748.559 277.025,-748.559 277.025,-631.214 111,-631.214"/>
<text text-anchor="middle" x="194.013" y="-736.559" font-family="Monaco" font-size="10.00">HydroCouple::IDescription</text>
<polyline fill="none" stroke="black" points="111,-727.224 277.025,-727.224 "/>
<text text-anchor="middle" x="194.013" y="-715.224" font-family="Monaco" font-size="10.00"> </text>
<polyline fill="none" stroke="black" points="111,-705.889 277.025,-705.889 "/>
<text text-anchor="start" x="119" y="-693.889" font-family="Monaco" font-size="10.00">+ ~IDescription()</text>
<text text-anchor="start" x="119" y="-680.554" font-family="Monaco" font-size="10.00">+ caption()</text>
<text text-anchor="start" x="119" y="-667.219" font-family="Monaco" font-size="10.00">+ setCaption()</text>
<text text-anchor="start" x="119" y="-653.884" font-family="Monaco" font-size="10.00">+ description()</text>
<text text-anchor="start" x="119" y="-640.549" font-family="Monaco" font-size="10.00">+ setDescription()</text>
</a>
</g>
</g>
<!-- Node5&#45;&gt;Node4 -->
<g id="edge4" class="edge"><title>Node5&#45;&gt;Node4</title>
<path fill="none" stroke="midnightblue" d="M194.013,-620.648C194.013,-611.609 194.013,-602.622 194.013,-594.361"/>
<polygon fill="none" stroke="midnightblue" points="190.513,-620.839 194.013,-630.839 197.513,-620.839 190.513,-620.839"/>
</g>
<!-- Node6 -->
<g id="node6" class="node"><title>Node6</title>
<g id="a_node6"><a xlink:href="class_hydro_couple_1_1_i_property_changed.html" target="_top" xlink:title="IPropertyChanged interface is used to emit signal/event when a property of an object changes...">
<polygon fill="none" stroke="black" points="98.9985,-785.559 98.9985,-849.563 289.027,-849.563 289.027,-785.559 98.9985,-785.559"/>
<text text-anchor="middle" x="194.013" y="-837.563" font-family="Monaco" font-size="10.00">HydroCouple::IPropertyChanged</text>
<polyline fill="none" stroke="black" points="98.9985,-828.229 289.027,-828.229 "/>
<text text-anchor="middle" x="194.013" y="-816.229" font-family="Monaco" font-size="10.00"> </text>
<polyline fill="none" stroke="black" points="98.9985,-806.894 289.027,-806.894 "/>
<text text-anchor="start" x="106.999" y="-794.894" font-family="Monaco" font-size="10.00">+ ~IPropertyChanged()</text>
</a>
</g>
</g>
<!-- Node6&#45;&gt;Node5 -->
<g id="edge5" class="edge"><title>Node6&#45;&gt;Node5</title>
<path fill="none" stroke="midnightblue" d="M194.013,-775.238C194.013,-766.853 194.013,-757.887 194.013,-749.045"/>
<polygon fill="none" stroke="midnightblue" points="190.513,-775.495 194.013,-785.495 197.513,-775.495 190.513,-775.495"/>
</g>
<!-- Node7&#45;&gt;Node1 -->
<g id="edge6" class="edge"><title>Node7&#45;&gt;Node1</title>
<path fill="none" stroke="midnightblue" d="M243.775,-106.677C236.294,-96.6778 228.932,-86.8392 222.26,-77.9223"/>
<polygon fill="none" stroke="midnightblue" points="240.997,-108.806 249.79,-114.716 246.601,-104.612 240.997,-108.806"/>
</g>
</g>
</svg>
        <g id="navigator" transform="translate(0 0)" fill="#404254">
                <rect fill="#f2f5e9" fill-opacity="0.5" stroke="#606060" stroke-width=".5" x="0" y="0" width="60" height="60"/>
                <use id="zoomplus" xlink:href="#zoomPlus" x="17" y="9" onmousedown="handleZoom(evt,'in')"/>
                <use id="zoomminus" xlink:href="#zoomMin" x="42" y="9" onmousedown="handleZoom(evt,'out')"/>
                <use id="reset" xlink:href="#resetDef" x="30" y="36" onmousedown="handleReset()"/>
                <g id="arrowUp" xlink:href="#dirArrow" transform="translate(30 24)" onmousedown="handlePan(0,-1)">
                  <use xlink:href="#rim" fill="#404040">
                        <set attributeName="fill" to="#808080" begin="arrowUp.mouseover" end="arrowUp.mouseout"/>
                  </use>
                  <path fill="none" stroke="white" stroke-width="1.5" d="M0,-3.0v7 M-2.5,-0.5L0,-3.0L2.5,-0.5"/>
                </g>
                <g id="arrowRight" xlink:href="#dirArrow" transform="rotate(90) translate(36 -43)" onmousedown="handlePan(1,0)">
                  <use xlink:href="#rim" fill="#404040">
                        <set attributeName="fill" to="#808080" begin="arrowRight.mouseover" end="arrowRight.mouseout"/>
                  </use>
                  <path fill="none" stroke="white" stroke-width="1.5" d="M0,-3.0v7 M-2.5,-0.5L0,-3.0L2.5,-0.5"/>
                </g>
                <g id="arrowDown" xlink:href="#dirArrow" transform="rotate(180) translate(-30 -48)" onmousedown="handlePan(0,1)">
                  <use xlink:href="#rim" fill="#404040">
                        <set attributeName="fill" to="#808080" begin="arrowDown.mouseover" end="arrowDown.mouseout"/>
                  </use>
                  <path fill="none" stroke="white" stroke-width="1.5" d="M0,-3.0v7 M-2.5,-0.5L0,-3.0L2.5,-0.5"/>
                </g>
                <g id="arrowLeft" xlink:href="#dirArrow" transform="rotate(270) translate(-36 17)" onmousedown="handlePan(-1,0)">
                  <use xlink:href="#rim" fill="#404040">
                        <set attributeName="fill" to="#808080" begin="arrowLeft.mouseover" end="arrowLeft.mouseout"/>
                  </use>
                  <path fill="none" stroke="white" stroke-width="1.5" d="M0,-3.0v7 M-2.5,-0.5L0,-3.0L2.5,-0.5"/>
                </g>
        </g>
        <svg viewBox="0 0 15 15" width="100%" height="30px" preserveAspectRatio="xMaxYMin meet">
         <g id="arrow_out" transform="scale(0.3 0.3)">
          <a xlink:href="class_hydro_couple_1_1_spatial_1_1_i_polyhedral_surface_exchange_item__coll__graph_org.svg" target="_base">
           <rect id="button" ry="5" rx="5" y="6" x="6" height="38" width="38"
                fill="#f2f5e9" fill-opacity="0.5" stroke="#606060" stroke-width="1.0"/>
           <path id="arrow"
             d="M 11.500037,31.436501 C 11.940474,20.09759 22.043105,11.32322 32.158766,21.979434 L 37.068811,17.246167 C 37.068811,17.246167 37.088388,32 37.088388,32 L 22.160133,31.978069 C 22.160133,31.978069 26.997745,27.140456 26.997745,27.140456 C 18.528582,18.264221 13.291696,25.230495 11.500037,31.436501 z"
             style="fill:#404040;"/>
          </a>
         </g>
        </svg>
</svg>
