<?xml version="1.0" encoding="UTF-8" standalone="no"?>
<!DOCTYPE svg PUBLIC "-//W3C//DTD SVG 1.1//EN"
 "http://www.w3.org/Graphics/SVG/1.1/DTD/svg11.dtd">
<!-- Generated by graphviz version 2.38.0 (20140413.2041)
 -->
<!-- Title: HydroCouple::Spatial::IGeometryExchangeItem Pages: 1 -->
<!--zoomable 946 -->
<svg id="main" version="1.1" xmlns="http://www.w3.org/2000/svg" xmlns:xlink="http://www.w3.org/1999/xlink" xml:space="preserve" onload="init(evt)">
<style type="text/css"><![CDATA[
.edge:hover path { stroke: red; }
.edge:hover polygon { stroke: red; fill: red; }
]]></style>
<script type="text/javascript"><![CDATA[
var edges = document.getElementsByTagName('g');
if (edges && edges.length) {
  for (var i=0;i<edges.length;i++) {
    if (edges[i].id.substr(0,4)=='edge') {
      edges[i].setAttribute('class','edge');
    }
  }
}
]]></script>
        <defs>
                <circle id="rim" cx="0" cy="0" r="7"/>
                <circle id="rim2" cx="0" cy="0" r="3.5"/>
                <g id="zoomPlus">
                        <use xlink:href="#rim" fill="#404040">
                                <set attributeName="fill" to="#808080" begin="zoomplus.mouseover" end="zoomplus.mouseout"/>
                        </use>
                        <path d="M-4,0h8M0,-4v8" fill="none" stroke="white" stroke-width="1.5" pointer-events="none"/>
                </g>
                <g id="zoomMin">
                        <use xlink:href="#rim" fill="#404040">
                                <set attributeName="fill" to="#808080" begin="zoomminus.mouseover" end="zoomminus.mouseout"/>
                        </use>
                        <path d="M-4,0h8" fill="none" stroke="white" stroke-width="1.5" pointer-events="none"/>
                </g>
                <g id="dirArrow">
                        <path fill="none" stroke="white" stroke-width="1.5" d="M0,-3.0v7 M-2.5,-0.5L0,-3.0L2.5,-0.5"/>
                </g>
               <g id="resetDef">
                       <use xlink:href="#rim2" fill="#404040">
                               <set attributeName="fill" to="#808080" begin="reset.mouseover" end="reset.mouseout"/>
                       </use>
               </g>
        </defs>

<script type="text/javascript">
var viewWidth = 418;
var viewHeight = 946;
var sectionId = 'dynsection-0';
</script>
<script xlink:href="svgpan.js"/>
<svg id="graph" class="graph">
<g id="viewport">
<title>HydroCouple::Spatial::IGeometryExchangeItem</title>
<!-- Node1 -->
<g id="node1" class="node"><title>Node1</title>
<polygon fill="#bfbfbf" stroke="black" points="119.002,-114.84 119.002,-192.18 291.027,-192.18 291.027,-114.84 119.002,-114.84"/>
<text text-anchor="start" x="127.002" y="-180.18" font-family="Monaco" font-size="10.00">HydroCouple::Spatial</text>
<text text-anchor="middle" x="205.015" y="-166.845" font-family="Monaco" font-size="10.00">::IGeometryExchangeItem</text>
<polyline fill="none" stroke="black" points="119.002,-157.51 291.027,-157.51 "/>
<text text-anchor="middle" x="205.015" y="-145.51" font-family="Monaco" font-size="10.00"> </text>
<polyline fill="none" stroke="black" points="119.002,-136.175 291.027,-136.175 "/>
<text text-anchor="start" x="127.002" y="-124.175" font-family="Monaco" font-size="10.00">+ ~IGeometryExchangeItem()</text>
</g>
<!-- Node8 -->
<g id="node8" class="node"><title>Node8</title>
<g id="a_node8"><a xlink:href="class_hydro_couple_1_1_spatial_1_1_i_geometry_only_exchange_item.html" target="_top" xlink:title="An IExchangeItem class which has data associated with only the geometry dimension. ">
<polygon fill="none" stroke="black" points="0,-0.5 0,-77.8398 196.029,-77.8398 196.029,-0.5 0,-0.5"/>
<text text-anchor="start" x="8" y="-65.8398" font-family="Monaco" font-size="10.00">HydroCouple::Spatial</text>
<text text-anchor="middle" x="98.0146" y="-52.5049" font-family="Monaco" font-size="10.00">::IGeometryOnlyExchangeItem</text>
<polyline fill="none" stroke="black" points="0,-43.1699 196.029,-43.1699 "/>
<text text-anchor="middle" x="98.0146" y="-31.1699" font-family="Monaco" font-size="10.00"> </text>
<polyline fill="none" stroke="black" points="0,-21.835 196.029,-21.835 "/>
<text text-anchor="start" x="8" y="-9.83496" font-family="Monaco" font-size="10.00">+ ~IGeometryOnlyExchangeItem()</text>
</a>
</g>
</g>
<!-- Node1&#45;&gt;Node8 -->
<g id="edge8" class="edge"><title>Node1&#45;&gt;Node8</title>
<path fill="none" stroke="midnightblue" d="M162.08,-107.433C152.778,-97.6666 143.033,-87.4345 134.029,-77.9816"/>
<polygon fill="none" stroke="midnightblue" points="159.656,-109.963 169.088,-114.79 164.725,-105.135 159.656,-109.963"/>
</g>
<!-- Node9 -->
<g id="node9" class="node"><title>Node9</title>
<g id="a_node9"><a xlink:href="class_hydro_couple_1_1_spatio_temporal_1_1_i_time_geometry_exchange_item.html" target="_top" xlink:title="The ITimeGeometryExchangeItem class. ">
<polygon fill="none" stroke="black" points="214,-0.5 214,-77.8398 410.029,-77.8398 410.029,-0.5 214,-0.5"/>
<text text-anchor="start" x="222" y="-65.8398" font-family="Monaco" font-size="10.00">HydroCouple::SpatioTemporal</text>
<text text-anchor="middle" x="312.015" y="-52.5049" font-family="Monaco" font-size="10.00">::ITimeGeometryExchangeItem</text>
<polyline fill="none" stroke="black" points="214,-43.1699 410.029,-43.1699 "/>
<text text-anchor="middle" x="312.015" y="-31.1699" font-family="Monaco" font-size="10.00"> </text>
<polyline fill="none" stroke="black" points="214,-21.835 410.029,-21.835 "/>
<text text-anchor="start" x="222" y="-9.83496" font-family="Monaco" font-size="10.00">+ ~ITimeGeometryExchangeItem()</text>
</a>
</g>
</g>
<!-- Node1&#45;&gt;Node9 -->
<g id="edge9" class="edge"><title>Node1&#45;&gt;Node9</title>
<path fill="none" stroke="midnightblue" d="M247.949,-107.433C257.251,-97.6666 266.997,-87.4345 276,-77.9816"/>
<polygon fill="none" stroke="midnightblue" points="245.304,-105.135 240.942,-114.79 250.373,-109.963 245.304,-105.135"/>
</g>
<!-- Node2 -->
<g id="node2" class="node"><title>Node2</title>
<g id="a_node2"><a xlink:href="class_hydro_couple_1_1_i_exchange_item.html" target="_top" xlink:title="IExchangeItem the base data item the can be exchanged between components at runtime. ">
<polygon fill="none" stroke="black" points="17.002,-249.182 17.002,-326.522 189.027,-326.522 189.027,-249.182 17.002,-249.182"/>
<text text-anchor="middle" x="103.015" y="-314.522" font-family="Monaco" font-size="10.00">HydroCouple::IExchangeItem</text>
<polyline fill="none" stroke="black" points="17.002,-305.187 189.027,-305.187 "/>
<text text-anchor="middle" x="103.015" y="-293.187" font-family="Monaco" font-size="10.00"> </text>
<polyline fill="none" stroke="black" points="17.002,-283.852 189.027,-283.852 "/>
<text text-anchor="start" x="25.002" y="-271.852" font-family="Monaco" font-size="10.00">+ ~IExchangeItem()</text>
<text text-anchor="start" x="25.002" y="-258.517" font-family="Monaco" font-size="10.00">+ itemChanged()</text>
</a>
</g>
</g>
<!-- Node2&#45;&gt;Node1 -->
<g id="edge1" class="edge"><title>Node2&#45;&gt;Node1</title>
<path fill="none" stroke="midnightblue" d="M138.478,-240.839C150.661,-225.033 164.151,-207.53 175.781,-192.439"/>
<polygon fill="none" stroke="midnightblue" points="135.576,-238.871 132.244,-248.928 141.121,-243.144 135.576,-238.871"/>
</g>
<!-- Node3 -->
<g id="node3" class="node"><title>Node3</title>
<g id="a_node3"><a xlink:href="class_hydro_couple_1_1_i_component_data_item.html" target="_top" xlink:title="IComponentItem is a fundamental unit of data for a component. ">
<polygon fill="none" stroke="black" points="104,-383.524 104,-567.544 306.03,-567.544 306.03,-383.524 104,-383.524"/>
<text text-anchor="middle" x="205.015" y="-555.544" font-family="Monaco" font-size="10.00">HydroCouple::IComponentDataItem</text>
<polyline fill="none" stroke="black" points="104,-546.209 306.03,-546.209 "/>
<text text-anchor="middle" x="205.015" y="-534.209" font-family="Monaco" font-size="10.00"> </text>
<polyline fill="none" stroke="black" points="104,-524.874 306.03,-524.874 "/>
<text text-anchor="start" x="112" y="-512.874" font-family="Monaco" font-size="10.00">+ ~IComponentDataItem()</text>
<text text-anchor="start" x="112" y="-499.539" font-family="Monaco" font-size="10.00">+ modelComponent()</text>
<text text-anchor="start" x="112" y="-486.204" font-family="Monaco" font-size="10.00">+ dimensions()</text>
<text text-anchor="start" x="112" y="-472.869" font-family="Monaco" font-size="10.00">+ valueDefinition()</text>
<text text-anchor="start" x="112" y="-459.534" font-family="Monaco" font-size="10.00">+ getValue()</text>
<text text-anchor="start" x="112" y="-446.199" font-family="Monaco" font-size="10.00">+ getValues()</text>
<text text-anchor="start" x="112" y="-432.864" font-family="Monaco" font-size="10.00">+ getValues()</text>
<text text-anchor="start" x="112" y="-419.529" font-family="Monaco" font-size="10.00">+ setValue()</text>
<text text-anchor="start" x="112" y="-406.194" font-family="Monaco" font-size="10.00">+ setValues()</text>
<text text-anchor="start" x="112" y="-392.859" font-family="Monaco" font-size="10.00">+ setValues()</text>
</a>
</g>
</g>
<!-- Node3&#45;&gt;Node2 -->
<g id="edge2" class="edge"><title>Node3&#45;&gt;Node2</title>
<path fill="none" stroke="midnightblue" d="M150.023,-374.427C140.695,-357.445 131.545,-340.789 123.834,-326.751"/>
<polygon fill="none" stroke="midnightblue" points="147.029,-376.245 154.911,-383.325 153.164,-372.875 147.029,-376.245"/>
</g>
<!-- Node7 -->
<g id="node7" class="node"><title>Node7</title>
<g id="a_node7"><a xlink:href="class_hydro_couple_1_1_spatial_1_1_i_geometry_component_data_item.html" target="_top" xlink:title="IGeometryComponentItem represents IGeometryCollection IComponentItem. This class must be implemented ...">
<polygon fill="none" stroke="black" points="207,-229.18 207,-346.524 409.03,-346.524 409.03,-229.18 207,-229.18"/>
<text text-anchor="start" x="215" y="-334.524" font-family="Monaco" font-size="10.00">HydroCouple::Spatial</text>
<text text-anchor="middle" x="308.015" y="-321.189" font-family="Monaco" font-size="10.00">::IGeometryComponentDataItem</text>
<polyline fill="none" stroke="black" points="207,-311.854 409.03,-311.854 "/>
<text text-anchor="middle" x="308.015" y="-299.854" font-family="Monaco" font-size="10.00"> </text>
<polyline fill="none" stroke="black" points="207,-290.52 409.03,-290.52 "/>
<text text-anchor="start" x="215" y="-278.52" font-family="Monaco" font-size="10.00">+ ~IGeometryComponentDataItem()</text>
<text text-anchor="start" x="215" y="-265.185" font-family="Monaco" font-size="10.00">+ geometryCollection()</text>
<text text-anchor="start" x="215" y="-251.85" font-family="Monaco" font-size="10.00">+ geometry()</text>
<text text-anchor="start" x="215" y="-238.515" font-family="Monaco" font-size="10.00">+ geometryDimension()</text>
</a>
</g>
</g>
<!-- Node3&#45;&gt;Node7 -->
<g id="edge7" class="edge"><title>Node3&#45;&gt;Node7</title>
<path fill="none" stroke="midnightblue" d="M260.472,-374.56C265.756,-365.034 270.984,-355.609 275.932,-346.688"/>
<polygon fill="none" stroke="midnightblue" points="257.4,-372.883 255.609,-383.325 263.521,-376.278 257.4,-372.883"/>
</g>
<!-- Node4 -->
<g id="node4" class="node"><title>Node4</title>
<g id="a_node4"><a xlink:href="class_hydro_couple_1_1_i_identity.html" target="_top" xlink:title="IIdentity interface class defines a method to get the Id of an HydroCouple entity. ">
<polygon fill="none" stroke="black" points="131.004,-604.544 131.004,-681.884 279.025,-681.884 279.025,-604.544 131.004,-604.544"/>
<text text-anchor="middle" x="205.015" y="-669.884" font-family="Monaco" font-size="10.00">HydroCouple::IIdentity</text>
<polyline fill="none" stroke="black" points="131.004,-660.549 279.025,-660.549 "/>
<text text-anchor="middle" x="205.015" y="-648.549" font-family="Monaco" font-size="10.00"> </text>
<polyline fill="none" stroke="black" points="131.004,-639.214 279.025,-639.214 "/>
<text text-anchor="start" x="139.004" y="-627.214" font-family="Monaco" font-size="10.00">+ ~IIdentity()</text>
<text text-anchor="start" x="139.004" y="-613.879" font-family="Monaco" font-size="10.00">+ id()</text>
</a>
</g>
</g>
<!-- Node4&#45;&gt;Node3 -->
<g id="edge3" class="edge"><title>Node4&#45;&gt;Node3</title>
<path fill="none" stroke="midnightblue" d="M205.015,-593.962C205.015,-585.608 205.015,-576.683 205.015,-567.625"/>
<polygon fill="none" stroke="midnightblue" points="201.515,-594.204 205.015,-604.204 208.515,-594.204 201.515,-594.204"/>
</g>
<!-- Node5 -->
<g id="node5" class="node"><title>Node5</title>
<g id="a_node5"><a xlink:href="class_hydro_couple_1_1_i_description.html" target="_top" xlink:title="IDescription interface class provides descriptive information on a HydroCouple object. ">
<polygon fill="none" stroke="black" points="122.002,-718.884 122.002,-836.229 288.027,-836.229 288.027,-718.884 122.002,-718.884"/>
<text text-anchor="middle" x="205.015" y="-824.229" font-family="Monaco" font-size="10.00">HydroCouple::IDescription</text>
<polyline fill="none" stroke="black" points="122.002,-814.894 288.027,-814.894 "/>
<text text-anchor="middle" x="205.015" y="-802.894" font-family="Monaco" font-size="10.00"> </text>
<polyline fill="none" stroke="black" points="122.002,-793.559 288.027,-793.559 "/>
<text text-anchor="start" x="130.002" y="-781.559" font-family="Monaco" font-size="10.00">+ ~IDescription()</text>
<text text-anchor="start" x="130.002" y="-768.224" font-family="Monaco" font-size="10.00">+ caption()</text>
<text text-anchor="start" x="130.002" y="-754.889" font-family="Monaco" font-size="10.00">+ setCaption()</text>
<text text-anchor="start" x="130.002" y="-741.554" font-family="Monaco" font-size="10.00">+ description()</text>
<text text-anchor="start" x="130.002" y="-728.219" font-family="Monaco" font-size="10.00">+ setDescription()</text>
</a>
</g>
</g>
<!-- Node5&#45;&gt;Node4 -->
<g id="edge4" class="edge"><title>Node5&#45;&gt;Node4</title>
<path fill="none" stroke="midnightblue" d="M205.015,-708.318C205.015,-699.279 205.015,-690.292 205.015,-682.031"/>
<polygon fill="none" stroke="midnightblue" points="201.515,-708.509 205.015,-718.509 208.515,-708.509 201.515,-708.509"/>
</g>
<!-- Node6 -->
<g id="node6" class="node"><title>Node6</title>
<g id="a_node6"><a xlink:href="class_hydro_couple_1_1_i_property_changed.html" target="_top" xlink:title="IPropertyChanged interface is used to emit signal/event when a property of an object changes...">
<polygon fill="none" stroke="black" points="110,-873.229 110,-937.233 300.029,-937.233 300.029,-873.229 110,-873.229"/>
<text text-anchor="middle" x="205.015" y="-925.233" font-family="Monaco" font-size="10.00">HydroCouple::IPropertyChanged</text>
<polyline fill="none" stroke="black" points="110,-915.898 300.029,-915.898 "/>
<text text-anchor="middle" x="205.015" y="-903.898" font-family="Monaco" font-size="10.00"> </text>
<polyline fill="none" stroke="black" points="110,-894.563 300.029,-894.563 "/>
<text text-anchor="start" x="118" y="-882.563" font-family="Monaco" font-size="10.00">+ ~IPropertyChanged()</text>
</a>
</g>
</g>
<!-- Node6&#45;&gt;Node5 -->
<g id="edge5" class="edge"><title>Node6&#45;&gt;Node5</title>
<path fill="none" stroke="midnightblue" d="M205.015,-862.908C205.015,-854.523 205.015,-845.557 205.015,-836.715"/>
<polygon fill="none" stroke="midnightblue" points="201.515,-863.165 205.015,-873.165 208.515,-863.165 201.515,-863.165"/>
</g>
<!-- Node7&#45;&gt;Node1 -->
<g id="edge6" class="edge"><title>Node7&#45;&gt;Node1</title>
<path fill="none" stroke="midnightblue" d="M256.495,-220.655C248.927,-210.932 241.36,-201.209 234.447,-192.327"/>
<polygon fill="none" stroke="midnightblue" points="253.933,-223.063 262.837,-228.805 259.457,-218.764 253.933,-223.063"/>
</g>
</g>
</svg>
        <g id="navigator" transform="translate(0 0)" fill="#404254">
                <rect fill="#f2f5e9" fill-opacity="0.5" stroke="#606060" stroke-width=".5" x="0" y="0" width="60" height="60"/>
                <use id="zoomplus" xlink:href="#zoomPlus" x="17" y="9" onmousedown="handleZoom(evt,'in')"/>
                <use id="zoomminus" xlink:href="#zoomMin" x="42" y="9" onmousedown="handleZoom(evt,'out')"/>
                <use id="reset" xlink:href="#resetDef" x="30" y="36" onmousedown="handleReset()"/>
                <g id="arrowUp" xlink:href="#dirArrow" transform="translate(30 24)" onmousedown="handlePan(0,-1)">
                  <use xlink:href="#rim" fill="#404040">
                        <set attributeName="fill" to="#808080" begin="arrowUp.mouseover" end="arrowUp.mouseout"/>
                  </use>
                  <path fill="none" stroke="white" stroke-width="1.5" d="M0,-3.0v7 M-2.5,-0.5L0,-3.0L2.5,-0.5"/>
                </g>
                <g id="arrowRight" xlink:href="#dirArrow" transform="rotate(90) translate(36 -43)" onmousedown="handlePan(1,0)">
                  <use xlink:href="#rim" fill="#404040">
                        <set attributeName="fill" to="#808080" begin="arrowRight.mouseover" end="arrowRight.mouseout"/>
                  </use>
                  <path fill="none" stroke="white" stroke-width="1.5" d="M0,-3.0v7 M-2.5,-0.5L0,-3.0L2.5,-0.5"/>
                </g>
                <g id="arrowDown" xlink:href="#dirArrow" transform="rotate(180) translate(-30 -48)" onmousedown="handlePan(0,1)">
                  <use xlink:href="#rim" fill="#404040">
                        <set attributeName="fill" to="#808080" begin="arrowDown.mouseover" end="arrowDown.mouseout"/>
                  </use>
                  <path fill="none" stroke="white" stroke-width="1.5" d="M0,-3.0v7 M-2.5,-0.5L0,-3.0L2.5,-0.5"/>
                </g>
                <g id="arrowLeft" xlink:href="#dirArrow" transform="rotate(270) translate(-36 17)" onmousedown="handlePan(-1,0)">
                  <use xlink:href="#rim" fill="#404040">
                        <set attributeName="fill" to="#808080" begin="arrowLeft.mouseover" end="arrowLeft.mouseout"/>
                  </use>
                  <path fill="none" stroke="white" stroke-width="1.5" d="M0,-3.0v7 M-2.5,-0.5L0,-3.0L2.5,-0.5"/>
                </g>
        </g>
        <svg viewBox="0 0 15 15" width="100%" height="30px" preserveAspectRatio="xMaxYMin meet">
         <g id="arrow_out" transform="scale(0.3 0.3)">
          <a xlink:href="class_hydro_couple_1_1_spatial_1_1_i_geometry_exchange_item__inherit__graph_org.svg" target="_base">
           <rect id="button" ry="5" rx="5" y="6" x="6" height="38" width="38"
                fill="#f2f5e9" fill-opacity="0.5" stroke="#606060" stroke-width="1.0"/>
           <path id="arrow"
             d="M 11.500037,31.436501 C 11.940474,20.09759 22.043105,11.32322 32.158766,21.979434 L 37.068811,17.246167 C 37.068811,17.246167 37.088388,32 37.088388,32 L 22.160133,31.978069 C 22.160133,31.978069 26.997745,27.140456 26.997745,27.140456 C 18.528582,18.264221 13.291696,25.230495 11.500037,31.436501 z"
             style="fill:#404040;"/>
          </a>
         </g>
        </svg>
</svg>
