<?xml version="1.0" encoding="UTF-8" standalone="no"?>
<!DOCTYPE svg PUBLIC "-//W3C//DTD SVG 1.1//EN"
 "http://www.w3.org/Graphics/SVG/1.1/DTD/svg11.dtd">
<!-- Generated by graphviz version 2.38.0 (20140413.2041)
 -->
<!-- Title: HydroCouple::Spatial::IRegularGrid2D Pages: 1 -->
<svg width="198pt" height="717pt"
 viewBox="0.00 0.00 198.03 717.05" xmlns="http://www.w3.org/2000/svg" xmlns:xlink="http://www.w3.org/1999/xlink">
<g id="graph0" class="graph" transform="scale(1 1) rotate(0) translate(4 713.054)">
<title>HydroCouple::Spatial::IRegularGrid2D</title>
<polygon fill="white" stroke="none" points="-4,4 -4,-713.054 194.028,-713.054 194.028,4 -4,4"/>
<!-- Node1 -->
<g id="node1" class="node"><title>Node1</title>
<polygon fill="#bfbfbf" stroke="black" points="27.0044,-154.845 27.0044,-312.194 163.024,-312.194 163.024,-154.845 27.0044,-154.845"/>
<text text-anchor="start" x="35.0044" y="-300.194" font-family="Monaco" font-size="10.00">HydroCouple::Spatial</text>
<text text-anchor="middle" x="95.0142" y="-286.859" font-family="Monaco" font-size="10.00">::IRegularGrid2D</text>
<polyline fill="none" stroke="black" points="27.0044,-277.524 163.024,-277.524 "/>
<text text-anchor="middle" x="95.0142" y="-265.524" font-family="Monaco" font-size="10.00"> </text>
<polyline fill="none" stroke="black" points="27.0044,-256.189 163.024,-256.189 "/>
<text text-anchor="start" x="35.0044" y="-244.189" font-family="Monaco" font-size="10.00">+ ~IRegularGrid2D()</text>
<text text-anchor="start" x="35.0044" y="-230.854" font-family="Monaco" font-size="10.00">+ gridType()</text>
<text text-anchor="start" x="35.0044" y="-217.52" font-family="Monaco" font-size="10.00">+ numXNodes()</text>
<text text-anchor="start" x="35.0044" y="-204.185" font-family="Monaco" font-size="10.00">+ numYNodes()</text>
<text text-anchor="start" x="35.0044" y="-190.85" font-family="Monaco" font-size="10.00">+ xNodeLocation()</text>
<text text-anchor="start" x="35.0044" y="-177.515" font-family="Monaco" font-size="10.00">+ yNodeLocation()</text>
<text text-anchor="start" x="35.0044" y="-164.18" font-family="Monaco" font-size="10.00">+ isActive()</text>
</g>
<!-- Node5 -->
<g id="node5" class="node"><title>Node5</title>
<g id="a_node5"><a xlink:href="class_hydro_couple_1_1_spatial_1_1_i_regular_grid3_d.html" target="_top" xlink:title="The IRegularGrid3D class. ">
<polygon fill="white" stroke="black" points="27.0044,-0.5 27.0044,-117.845 163.024,-117.845 163.024,-0.5 27.0044,-0.5"/>
<text text-anchor="start" x="35.0044" y="-105.845" font-family="Monaco" font-size="10.00">HydroCouple::Spatial</text>
<text text-anchor="middle" x="95.0142" y="-92.5098" font-family="Monaco" font-size="10.00">::IRegularGrid3D</text>
<polyline fill="none" stroke="black" points="27.0044,-83.1748 163.024,-83.1748 "/>
<text text-anchor="middle" x="95.0142" y="-71.1748" font-family="Monaco" font-size="10.00"> </text>
<polyline fill="none" stroke="black" points="27.0044,-61.8398 163.024,-61.8398 "/>
<text text-anchor="start" x="35.0044" y="-49.8398" font-family="Monaco" font-size="10.00">+ ~IRegularGrid3D()</text>
<text text-anchor="start" x="35.0044" y="-36.5049" font-family="Monaco" font-size="10.00">+ numZNodes()</text>
<text text-anchor="start" x="35.0044" y="-23.1699" font-family="Monaco" font-size="10.00">+ zNodeLocation()</text>
<text text-anchor="start" x="35.0044" y="-9.83496" font-family="Monaco" font-size="10.00">+ isActive()</text>
</a>
</g>
</g>
<!-- Node1&#45;&gt;Node5 -->
<g id="edge4" class="edge"><title>Node1&#45;&gt;Node5</title>
<path fill="none" stroke="midnightblue" d="M95.0142,-144.537C95.0142,-135.557 95.0142,-126.603 95.0142,-118.066"/>
<polygon fill="none" stroke="midnightblue" points="91.5143,-144.666 95.0142,-154.666 98.5143,-144.666 91.5143,-144.666"/>
</g>
<!-- Node2 -->
<g id="node2" class="node"><title>Node2</title>
<g id="a_node2"><a xlink:href="class_hydro_couple_1_1_i_identity.html" target="_top" xlink:title="IIdentity interface class defines a method to get the Id of an HydroCouple entity. ">
<polygon fill="white" stroke="black" points="21.0034,-349.194 21.0034,-453.204 169.025,-453.204 169.025,-349.194 21.0034,-349.194"/>
<text text-anchor="middle" x="95.0142" y="-441.204" font-family="Monaco" font-size="10.00">HydroCouple::IIdentity</text>
<polyline fill="none" stroke="black" points="21.0034,-431.869 169.025,-431.869 "/>
<text text-anchor="middle" x="95.0142" y="-419.869" font-family="Monaco" font-size="10.00"> </text>
<polyline fill="none" stroke="black" points="21.0034,-410.534 169.025,-410.534 "/>
<text text-anchor="start" x="29.0034" y="-398.534" font-family="Monaco" font-size="10.00">+ ~IIdentity()</text>
<text text-anchor="start" x="29.0034" y="-385.199" font-family="Monaco" font-size="10.00">+ MPI_Comm()</text>
<text text-anchor="start" x="29.0034" y="-371.864" font-family="Monaco" font-size="10.00">+ MPI_Rank()</text>
<text text-anchor="start" x="29.0034" y="-358.529" font-family="Monaco" font-size="10.00">+ id()</text>
</a>
</g>
</g>
<!-- Node2&#45;&gt;Node1 -->
<g id="edge1" class="edge"><title>Node2&#45;&gt;Node1</title>
<path fill="none" stroke="midnightblue" d="M95.0142,-339.06C95.0142,-330.317 95.0142,-321.228 95.0142,-312.219"/>
<polygon fill="none" stroke="midnightblue" points="91.5143,-339.138 95.0142,-349.138 98.5143,-339.138 91.5143,-339.138"/>
</g>
<!-- Node3 -->
<g id="node3" class="node"><title>Node3</title>
<g id="a_node3"><a xlink:href="class_hydro_couple_1_1_i_description.html" target="_top" xlink:title="IDescription interface class provides descriptive information on a HydroCouple object. ">
<polygon fill="white" stroke="black" points="12.002,-490.204 12.002,-607.549 178.026,-607.549 178.026,-490.204 12.002,-490.204"/>
<text text-anchor="middle" x="95.0142" y="-595.549" font-family="Monaco" font-size="10.00">HydroCouple::IDescription</text>
<polyline fill="none" stroke="black" points="12.002,-586.214 178.026,-586.214 "/>
<text text-anchor="middle" x="95.0142" y="-574.214" font-family="Monaco" font-size="10.00"> </text>
<polyline fill="none" stroke="black" points="12.002,-564.879 178.026,-564.879 "/>
<text text-anchor="start" x="20.002" y="-552.879" font-family="Monaco" font-size="10.00">+ ~IDescription()</text>
<text text-anchor="start" x="20.002" y="-539.544" font-family="Monaco" font-size="10.00">+ getCaption()</text>
<text text-anchor="start" x="20.002" y="-526.209" font-family="Monaco" font-size="10.00">+ setCaption()</text>
<text text-anchor="start" x="20.002" y="-512.874" font-family="Monaco" font-size="10.00">+ getDescription()</text>
<text text-anchor="start" x="20.002" y="-499.539" font-family="Monaco" font-size="10.00">+ setDescription()</text>
</a>
</g>
</g>
<!-- Node3&#45;&gt;Node2 -->
<g id="edge2" class="edge"><title>Node3&#45;&gt;Node2</title>
<path fill="none" stroke="midnightblue" d="M95.0142,-479.603C95.0142,-470.785 95.0142,-461.877 95.0142,-453.4"/>
<polygon fill="none" stroke="midnightblue" points="91.5143,-479.882 95.0142,-489.882 98.5143,-479.882 91.5143,-479.882"/>
</g>
<!-- Node4 -->
<g id="node4" class="node"><title>Node4</title>
<g id="a_node4"><a xlink:href="class_hydro_couple_1_1_i_property_changed.html" target="_top" xlink:title="IPropertyChanged interface is used to emit signal/event when a property of an object changes...">
<polygon fill="white" stroke="black" points="0,-644.549 0,-708.554 190.028,-708.554 190.028,-644.549 0,-644.549"/>
<text text-anchor="middle" x="95.0142" y="-696.554" font-family="Monaco" font-size="10.00">HydroCouple::IPropertyChanged</text>
<polyline fill="none" stroke="black" points="0,-687.219 190.028,-687.219 "/>
<text text-anchor="middle" x="95.0142" y="-675.219" font-family="Monaco" font-size="10.00"> </text>
<polyline fill="none" stroke="black" points="0,-665.884 190.028,-665.884 "/>
<text text-anchor="start" x="8" y="-653.884" font-family="Monaco" font-size="10.00">+ ~IPropertyChanged()</text>
</a>
</g>
</g>
<!-- Node4&#45;&gt;Node3 -->
<g id="edge3" class="edge"><title>Node4&#45;&gt;Node3</title>
<path fill="none" stroke="midnightblue" d="M95.0142,-634.228C95.0142,-625.843 95.0142,-616.877 95.0142,-608.035"/>
<polygon fill="none" stroke="midnightblue" points="91.5143,-634.486 95.0142,-644.486 98.5143,-634.486 91.5143,-634.486"/>
</g>
</g>
</svg>
