<?xml version="1.0" encoding="UTF-8" standalone="no"?>
<!DOCTYPE svg PUBLIC "-//W3C//DTD SVG 1.1//EN"
 "http://www.w3.org/Graphics/SVG/1.1/DTD/svg11.dtd">
<!-- Generated by graphviz version 2.38.0 (20140413.2041)
 -->
<!-- Title: HydroCouple::Spatial::IRasterArgument Pages: 1 -->
<svg width="382pt" height="1012pt"
 viewBox="0.00 0.00 382.03 1012.41" xmlns="http://www.w3.org/2000/svg" xmlns:xlink="http://www.w3.org/1999/xlink">
<g id="graph0" class="graph" transform="scale(1 1) rotate(0) translate(4 1008.41)">
<title>HydroCouple::Spatial::IRasterArgument</title>
<!-- Node1 -->
<g id="node1" class="node"><title>Node1</title>
<polygon fill="#bfbfbf" stroke="black" points="113.002,-114.84 113.002,-192.18 249.022,-192.18 249.022,-114.84 113.002,-114.84"/>
<text text-anchor="start" x="121.002" y="-180.18" font-family="Monaco" font-size="10.00">HydroCouple::Spatial</text>
<text text-anchor="middle" x="181.012" y="-166.845" font-family="Monaco" font-size="10.00">::IRasterArgument</text>
<polyline fill="none" stroke="black" points="113.002,-157.51 249.022,-157.51 "/>
<text text-anchor="middle" x="181.012" y="-145.51" font-family="Monaco" font-size="10.00"> </text>
<polyline fill="none" stroke="black" points="113.002,-136.175 249.022,-136.175 "/>
<text text-anchor="start" x="121.002" y="-124.175" font-family="Monaco" font-size="10.00">+ ~IRasterArgument()</text>
</g>
<!-- Node8 -->
<g id="node8" class="node"><title>Node8</title>
<g id="a_node8"><a xlink:href="class_hydro_couple_1_1_spatial_1_1_i_raster_only_argument.html" target="_top" xlink:title="An IRasterOnlyArgument is an IExchangeItem with an IRaster. ">
<polygon fill="none" stroke="black" points="8.00049,-0.5 8.00049,-77.8398 168.024,-77.8398 168.024,-0.5 8.00049,-0.5"/>
<text text-anchor="start" x="16.0005" y="-65.8398" font-family="Monaco" font-size="10.00">HydroCouple::Spatial</text>
<text text-anchor="middle" x="88.0122" y="-52.5049" font-family="Monaco" font-size="10.00">::IRasterOnlyArgument</text>
<polyline fill="none" stroke="black" points="8.00049,-43.1699 168.024,-43.1699 "/>
<text text-anchor="middle" x="88.0122" y="-31.1699" font-family="Monaco" font-size="10.00"> </text>
<polyline fill="none" stroke="black" points="8.00049,-21.835 168.024,-21.835 "/>
<text text-anchor="start" x="16.0005" y="-9.83496" font-family="Monaco" font-size="10.00">+ ~IRasterOnlyArgument()</text>
</a>
</g>
</g>
<!-- Node1&#45;&gt;Node8 -->
<g id="edge8" class="edge"><title>Node1&#45;&gt;Node8</title>
<path fill="none" stroke="midnightblue" d="M143.219,-106.858C135.279,-97.2657 126.986,-87.2491 119.314,-77.9816"/>
<polygon fill="none" stroke="midnightblue" points="140.713,-109.319 149.786,-114.79 146.105,-104.855 140.713,-109.319"/>
</g>
<!-- Node9 -->
<g id="node9" class="node"><title>Node9</title>
<g id="a_node9"><a xlink:href="class_hydro_couple_1_1_spatio_temporal_1_1_i_time_raster_argument.html" target="_top" xlink:title="The ITimeRasterArgument class. ">
<polygon fill="none" stroke="black" points="185.999,-0.5 185.999,-77.8398 364.025,-77.8398 364.025,-0.5 185.999,-0.5"/>
<text text-anchor="start" x="193.999" y="-65.8398" font-family="Monaco" font-size="10.00">HydroCouple::SpatioTemporal</text>
<text text-anchor="middle" x="275.012" y="-52.5049" font-family="Monaco" font-size="10.00">::ITimeRasterArgument</text>
<polyline fill="none" stroke="black" points="185.999,-43.1699 364.025,-43.1699 "/>
<text text-anchor="middle" x="275.012" y="-31.1699" font-family="Monaco" font-size="10.00"> </text>
<polyline fill="none" stroke="black" points="185.999,-21.835 364.025,-21.835 "/>
<text text-anchor="start" x="193.999" y="-9.83496" font-family="Monaco" font-size="10.00">+ ~ITimeRasterArgument()</text>
</a>
</g>
</g>
<!-- Node1&#45;&gt;Node9 -->
<g id="edge9" class="edge"><title>Node1&#45;&gt;Node9</title>
<path fill="none" stroke="midnightblue" d="M219.211,-106.858C227.238,-97.2657 235.619,-87.2491 243.373,-77.9816"/>
<polygon fill="none" stroke="midnightblue" points="216.307,-104.874 212.574,-114.79 221.676,-109.366 216.307,-104.874"/>
</g>
<!-- Node2 -->
<g id="node2" class="node"><title>Node2</title>
<g id="a_node2"><a xlink:href="class_hydro_couple_1_1_i_argument.html" target="_top" xlink:title="IArgument interface class used to set the arguments for components. They can be complex or simple mul...">
<polygon fill="none" stroke="black" points="0,-229.18 0,-413.199 166.024,-413.199 166.024,-229.18 0,-229.18"/>
<text text-anchor="middle" x="83.0122" y="-401.199" font-family="Monaco" font-size="10.00">HydroCouple::IArgument</text>
<polyline fill="none" stroke="black" points="0,-391.864 166.024,-391.864 "/>
<text text-anchor="middle" x="83.0122" y="-379.864" font-family="Monaco" font-size="10.00"> </text>
<polyline fill="none" stroke="black" points="0,-370.529 166.024,-370.529 "/>
<text text-anchor="start" x="8" y="-358.529" font-family="Monaco" font-size="10.00">+ ~IArgument()</text>
<text text-anchor="start" x="8" y="-345.194" font-family="Monaco" font-size="10.00">+ isOptional()</text>
<text text-anchor="start" x="8" y="-331.859" font-family="Monaco" font-size="10.00">+ isReadOnly()</text>
<text text-anchor="start" x="8" y="-318.524" font-family="Monaco" font-size="10.00">+ toString()</text>
<text text-anchor="start" x="8" y="-305.189" font-family="Monaco" font-size="10.00">+ inputFileTypeFilters()</text>
<text text-anchor="start" x="8" y="-291.854" font-family="Monaco" font-size="10.00">+ canReadFromFile()</text>
<text text-anchor="start" x="8" y="-278.52" font-family="Monaco" font-size="10.00">+ canReadFromString()</text>
<text text-anchor="start" x="8" y="-265.185" font-family="Monaco" font-size="10.00">+ currentArgumentIOType()</text>
<text text-anchor="start" x="8" y="-251.85" font-family="Monaco" font-size="10.00">+ readValues()</text>
<text text-anchor="start" x="8" y="-238.515" font-family="Monaco" font-size="10.00">+ readValues()</text>
</a>
</g>
</g>
<!-- Node2&#45;&gt;Node1 -->
<g id="edge1" class="edge"><title>Node2&#45;&gt;Node1</title>
<path fill="none" stroke="midnightblue" d="M142.052,-220.376C147.883,-210.519 153.515,-200.996 158.6,-192.4"/>
<polygon fill="none" stroke="midnightblue" points="138.965,-218.721 136.886,-229.11 144.989,-222.285 138.965,-218.721"/>
</g>
<!-- Node3 -->
<g id="node3" class="node"><title>Node3</title>
<g id="a_node3"><a xlink:href="class_hydro_couple_1_1_i_component_data_item.html" target="_top" xlink:title="IComponentItem is a fundamental unit of data for a component. ">
<polygon fill="none" stroke="black" points="79.9971,-450.199 79.9971,-634.219 282.027,-634.219 282.027,-450.199 79.9971,-450.199"/>
<text text-anchor="middle" x="181.012" y="-622.219" font-family="Monaco" font-size="10.00">HydroCouple::IComponentDataItem</text>
<polyline fill="none" stroke="black" points="79.9971,-612.884 282.027,-612.884 "/>
<text text-anchor="middle" x="181.012" y="-600.884" font-family="Monaco" font-size="10.00"> </text>
<polyline fill="none" stroke="black" points="79.9971,-591.549 282.027,-591.549 "/>
<text text-anchor="start" x="87.9971" y="-579.549" font-family="Monaco" font-size="10.00">+ ~IComponentDataItem()</text>
<text text-anchor="start" x="87.9971" y="-566.214" font-family="Monaco" font-size="10.00">+ modelComponent()</text>
<text text-anchor="start" x="87.9971" y="-552.879" font-family="Monaco" font-size="10.00">+ dimensions()</text>
<text text-anchor="start" x="87.9971" y="-539.544" font-family="Monaco" font-size="10.00">+ valueDefinition()</text>
<text text-anchor="start" x="87.9971" y="-526.209" font-family="Monaco" font-size="10.00">+ getValue()</text>
<text text-anchor="start" x="87.9971" y="-512.874" font-family="Monaco" font-size="10.00">+ getValues()</text>
<text text-anchor="start" x="87.9971" y="-499.539" font-family="Monaco" font-size="10.00">+ getValues()</text>
<text text-anchor="start" x="87.9971" y="-486.204" font-family="Monaco" font-size="10.00">+ setValue()</text>
<text text-anchor="start" x="87.9971" y="-472.869" font-family="Monaco" font-size="10.00">+ setValues()</text>
<text text-anchor="start" x="87.9971" y="-459.534" font-family="Monaco" font-size="10.00">+ setValues()</text>
</a>
</g>
</g>
<!-- Node3&#45;&gt;Node2 -->
<g id="edge2" class="edge"><title>Node3&#45;&gt;Node2</title>
<path fill="none" stroke="midnightblue" d="M135.955,-440.51C131.901,-431.451 127.811,-422.311 123.797,-413.34"/>
<polygon fill="none" stroke="midnightblue" points="132.882,-442.213 140.161,-449.911 139.271,-439.354 132.882,-442.213"/>
</g>
<!-- Node7 -->
<g id="node7" class="node"><title>Node7</title>
<g id="a_node7"><a xlink:href="class_hydro_couple_1_1_spatial_1_1_i_raster_component_data_item.html" target="_top" xlink:title="An IRasterComponentDataItem represents an IRaster IComponentItem. ">
<polygon fill="none" stroke="black" points="183.998,-255.85 183.998,-386.529 374.026,-386.529 374.026,-255.85 183.998,-255.85"/>
<text text-anchor="start" x="191.998" y="-374.529" font-family="Monaco" font-size="10.00">HydroCouple::Spatial</text>
<text text-anchor="middle" x="279.012" y="-361.194" font-family="Monaco" font-size="10.00">::IRasterComponentDataItem</text>
<polyline fill="none" stroke="black" points="183.998,-351.859 374.026,-351.859 "/>
<text text-anchor="middle" x="279.012" y="-339.859" font-family="Monaco" font-size="10.00"> </text>
<polyline fill="none" stroke="black" points="183.998,-330.524 374.026,-330.524 "/>
<text text-anchor="start" x="191.998" y="-318.524" font-family="Monaco" font-size="10.00">+ ~IRasterComponentDataItem()</text>
<text text-anchor="start" x="191.998" y="-305.189" font-family="Monaco" font-size="10.00">+ xDimension()</text>
<text text-anchor="start" x="191.998" y="-291.854" font-family="Monaco" font-size="10.00">+ yDimension()</text>
<text text-anchor="start" x="191.998" y="-278.52" font-family="Monaco" font-size="10.00">+ bandDimension()</text>
<text text-anchor="start" x="191.998" y="-265.185" font-family="Monaco" font-size="10.00">+ raster()</text>
</a>
</g>
</g>
<!-- Node3&#45;&gt;Node7 -->
<g id="edge7" class="edge"><title>Node3&#45;&gt;Node7</title>
<path fill="none" stroke="midnightblue" d="M226.007,-440.65C234.217,-422.302 242.577,-403.617 250.159,-386.674"/>
<polygon fill="none" stroke="midnightblue" points="222.753,-439.354 221.863,-449.911 229.142,-442.213 222.753,-439.354"/>
</g>
<!-- Node4 -->
<g id="node4" class="node"><title>Node4</title>
<g id="a_node4"><a xlink:href="class_hydro_couple_1_1_i_identity.html" target="_top" xlink:title="IIdentity interface class defines a method to get the Id of an HydroCouple entity. ">
<polygon fill="none" stroke="black" points="107.001,-671.219 107.001,-748.559 255.023,-748.559 255.023,-671.219 107.001,-671.219"/>
<text text-anchor="middle" x="181.012" y="-736.559" font-family="Monaco" font-size="10.00">HydroCouple::IIdentity</text>
<polyline fill="none" stroke="black" points="107.001,-727.224 255.023,-727.224 "/>
<text text-anchor="middle" x="181.012" y="-715.224" font-family="Monaco" font-size="10.00"> </text>
<polyline fill="none" stroke="black" points="107.001,-705.889 255.023,-705.889 "/>
<text text-anchor="start" x="115.001" y="-693.889" font-family="Monaco" font-size="10.00">+ ~IIdentity()</text>
<text text-anchor="start" x="115.001" y="-680.554" font-family="Monaco" font-size="10.00">+ id()</text>
</a>
</g>
</g>
<!-- Node4&#45;&gt;Node3 -->
<g id="edge3" class="edge"><title>Node4&#45;&gt;Node3</title>
<path fill="none" stroke="midnightblue" d="M181.012,-660.636C181.012,-652.283 181.012,-643.358 181.012,-634.3"/>
<polygon fill="none" stroke="midnightblue" points="177.512,-660.878 181.012,-670.878 184.512,-660.878 177.512,-660.878"/>
</g>
<!-- Node5 -->
<g id="node5" class="node"><title>Node5</title>
<g id="a_node5"><a xlink:href="class_hydro_couple_1_1_i_description.html" target="_top" xlink:title="IDescription interface class provides descriptive information on a HydroCouple object. ">
<polygon fill="none" stroke="black" points="98,-785.559 98,-902.903 264.024,-902.903 264.024,-785.559 98,-785.559"/>
<text text-anchor="middle" x="181.012" y="-890.903" font-family="Monaco" font-size="10.00">HydroCouple::IDescription</text>
<polyline fill="none" stroke="black" points="98,-881.568 264.024,-881.568 "/>
<text text-anchor="middle" x="181.012" y="-869.568" font-family="Monaco" font-size="10.00"> </text>
<polyline fill="none" stroke="black" points="98,-860.233 264.024,-860.233 "/>
<text text-anchor="start" x="106" y="-848.233" font-family="Monaco" font-size="10.00">+ ~IDescription()</text>
<text text-anchor="start" x="106" y="-834.898" font-family="Monaco" font-size="10.00">+ caption()</text>
<text text-anchor="start" x="106" y="-821.563" font-family="Monaco" font-size="10.00">+ setCaption()</text>
<text text-anchor="start" x="106" y="-808.229" font-family="Monaco" font-size="10.00">+ description()</text>
<text text-anchor="start" x="106" y="-794.894" font-family="Monaco" font-size="10.00">+ setDescription()</text>
</a>
</g>
</g>
<!-- Node5&#45;&gt;Node4 -->
<g id="edge4" class="edge"><title>Node5&#45;&gt;Node4</title>
<path fill="none" stroke="midnightblue" d="M181.012,-774.993C181.012,-765.954 181.012,-756.966 181.012,-748.706"/>
<polygon fill="none" stroke="midnightblue" points="177.512,-775.184 181.012,-785.184 184.512,-775.184 177.512,-775.184"/>
</g>
<!-- Node6 -->
<g id="node6" class="node"><title>Node6</title>
<g id="a_node6"><a xlink:href="class_hydro_couple_1_1_i_property_changed.html" target="_top" xlink:title="IPropertyChanged interface is used to emit signal/event when a property of an object changes...">
<polygon fill="none" stroke="black" points="85.998,-939.903 85.998,-1003.91 276.026,-1003.91 276.026,-939.903 85.998,-939.903"/>
<text text-anchor="middle" x="181.012" y="-991.908" font-family="Monaco" font-size="10.00">HydroCouple::IPropertyChanged</text>
<polyline fill="none" stroke="black" points="85.998,-982.573 276.026,-982.573 "/>
<text text-anchor="middle" x="181.012" y="-970.573" font-family="Monaco" font-size="10.00"> </text>
<polyline fill="none" stroke="black" points="85.998,-961.238 276.026,-961.238 "/>
<text text-anchor="start" x="93.998" y="-949.238" font-family="Monaco" font-size="10.00">+ ~IPropertyChanged()</text>
</a>
</g>
</g>
<!-- Node6&#45;&gt;Node5 -->
<g id="edge5" class="edge"><title>Node6&#45;&gt;Node5</title>
<path fill="none" stroke="midnightblue" d="M181.012,-929.583C181.012,-921.198 181.012,-912.231 181.012,-903.389"/>
<polygon fill="none" stroke="midnightblue" points="177.512,-929.84 181.012,-939.84 184.512,-929.84 177.512,-929.84"/>
</g>
<!-- Node7&#45;&gt;Node1 -->
<g id="edge6" class="edge"><title>Node7&#45;&gt;Node1</title>
<path fill="none" stroke="midnightblue" d="M235.743,-247.039C224.565,-228.141 212.984,-208.561 203.369,-192.306"/>
<polygon fill="none" stroke="midnightblue" points="232.739,-248.834 240.842,-255.659 238.764,-245.27 232.739,-248.834"/>
</g>
</g>
</svg>
