<?xml version="1.0" encoding="UTF-8" standalone="no"?>
<!DOCTYPE svg PUBLIC "-//W3C//DTD SVG 1.1//EN"
 "http://www.w3.org/Graphics/SVG/1.1/DTD/svg11.dtd">
<!-- Generated by graphviz version 2.38.0 (20140413.2041)
 -->
<!-- Title: HydroCouple::SpatioTemporal::ITime3DRegularGridExchangeItem Pages: 1 -->
<!--zoomable 910 -->
<svg id="main" version="1.1" xmlns="http://www.w3.org/2000/svg" xmlns:xlink="http://www.w3.org/1999/xlink" xml:space="preserve" onload="init(evt)">
<style type="text/css"><![CDATA[
.edge:hover path { stroke: red; }
.edge:hover polygon { stroke: red; fill: red; }
]]></style>
<script type="text/javascript"><![CDATA[
var edges = document.getElementsByTagName('g');
if (edges && edges.length) {
  for (var i=0;i<edges.length;i++) {
    if (edges[i].id.substr(0,4)=='edge') {
      edges[i].setAttribute('class','edge');
    }
  }
}
]]></script>
        <defs>
                <circle id="rim" cx="0" cy="0" r="7"/>
                <circle id="rim2" cx="0" cy="0" r="3.5"/>
                <g id="zoomPlus">
                        <use xlink:href="#rim" fill="#404040">
                                <set attributeName="fill" to="#808080" begin="zoomplus.mouseover" end="zoomplus.mouseout"/>
                        </use>
                        <path d="M-4,0h8M0,-4v8" fill="none" stroke="white" stroke-width="1.5" pointer-events="none"/>
                </g>
                <g id="zoomMin">
                        <use xlink:href="#rim" fill="#404040">
                                <set attributeName="fill" to="#808080" begin="zoomminus.mouseover" end="zoomminus.mouseout"/>
                        </use>
                        <path d="M-4,0h8" fill="none" stroke="white" stroke-width="1.5" pointer-events="none"/>
                </g>
                <g id="dirArrow">
                        <path fill="none" stroke="white" stroke-width="1.5" d="M0,-3.0v7 M-2.5,-0.5L0,-3.0L2.5,-0.5"/>
                </g>
               <g id="resetDef">
                       <use xlink:href="#rim2" fill="#404040">
                               <set attributeName="fill" to="#808080" begin="reset.mouseover" end="reset.mouseout"/>
                       </use>
               </g>
        </defs>

<script type="text/javascript">
var viewWidth = 536;
var viewHeight = 910;
var sectionId = 'dynsection-0';
</script>
<script xlink:href="svgpan.js"/>
<svg id="graph" class="graph">
<g id="viewport">
<title>HydroCouple::SpatioTemporal::ITime3DRegularGridExchangeItem</title>
<polygon fill="white" stroke="none" points="-4,4 -4,-906 531.636,-906 531.636,4 -4,4"/>
<!-- Node1 -->
<g id="node1" class="node"><title>Node1</title>
<polygon fill="#bfbfbf" stroke="black" points="130.653,-0.5 130.653,-74.5 323.025,-74.5 323.025,-0.5 130.653,-0.5"/>
<text text-anchor="start" x="138.653" y="-62.5" font-family="Helvetica,sans-Serif" font-size="10.00">HydroCouple::SpatioTemporal</text>
<text text-anchor="middle" x="226.839" y="-52.5" font-family="Helvetica,sans-Serif" font-size="10.00">::ITime3DRegularGridExchangeItem</text>
<polyline fill="none" stroke="black" points="130.653,-46.5 323.025,-46.5 "/>
<text text-anchor="middle" x="226.839" y="-34.5" font-family="Helvetica,sans-Serif" font-size="10.00"> </text>
<polyline fill="none" stroke="black" points="130.653,-28.5 323.025,-28.5 "/>
<text text-anchor="start" x="138.653" y="-16.5" font-family="Helvetica,sans-Serif" font-size="10.00">+ ~ITime3RegularGridExchangeItem()</text>
<text text-anchor="start" x="138.653" y="-6.5" font-family="Helvetica,sans-Serif" font-size="10.00">+ ~ITime3DRegularGridExchangeItem()</text>
</g>
<!-- Node2 -->
<g id="node2" class="node"><title>Node2</title>
<g id="a_node2"><a xlink:href="class_hydro_couple_1_1_temporal_1_1_i_time_exchange_item.html" target="_top" xlink:title="The ITimeExchangeItem class. ">
<polygon fill="white" stroke="black" points="0,-111.5 0,-175.5 125.678,-175.5 125.678,-111.5 0,-111.5"/>
<text text-anchor="start" x="8" y="-163.5" font-family="Helvetica,sans-Serif" font-size="10.00">HydroCouple::Temporal</text>
<text text-anchor="middle" x="62.8389" y="-153.5" font-family="Helvetica,sans-Serif" font-size="10.00">::ITimeExchangeItem</text>
<polyline fill="none" stroke="black" points="0,-147.5 125.678,-147.5 "/>
<text text-anchor="middle" x="62.8389" y="-135.5" font-family="Helvetica,sans-Serif" font-size="10.00"> </text>
<polyline fill="none" stroke="black" points="0,-129.5 125.678,-129.5 "/>
<text text-anchor="start" x="8" y="-117.5" font-family="Helvetica,sans-Serif" font-size="10.00">+ ~ITimeExchangeItem()</text>
</a>
</g>
</g>
<!-- Node2&#45;&gt;Node1 -->
<g id="edge1" class="edge"><title>Node2&#45;&gt;Node1</title>
<path fill="none" stroke="midnightblue" d="M114.268,-105.775C129.858,-95.6587 147.152,-84.6965 163.426,-74.6153"/>
<polygon fill="none" stroke="midnightblue" points="112.264,-102.903 105.799,-111.297 116.087,-108.766 112.264,-102.903"/>
</g>
<!-- Node2&#45;&gt;Node1 -->
<g id="edge17" class="edge"><title>Node2&#45;&gt;Node1</title>
<path fill="none" stroke="midnightblue" d="M127.236,-105.775C143.55,-95.6587 160.829,-84.6965 176.35,-74.6153"/>
<polygon fill="none" stroke="midnightblue" points="124.961,-103.066 118.29,-111.297 128.638,-109.023 124.961,-103.066"/>
</g>
<!-- Node3 -->
<g id="node3" class="node"><title>Node3</title>
<g id="a_node3"><a xlink:href="class_hydro_couple_1_1_i_exchange_item.html" target="_top" xlink:title="IExchangeItem the base data item the can be exchanged between components at runtime. ">
<polygon fill="white" stroke="black" points="6.52637,-232.5 6.52637,-296.5 153.151,-296.5 153.151,-232.5 6.52637,-232.5"/>
<text text-anchor="middle" x="79.8389" y="-284.5" font-family="Helvetica,sans-Serif" font-size="10.00">HydroCouple::IExchangeItem</text>
<polyline fill="none" stroke="black" points="6.52637,-278.5 153.151,-278.5 "/>
<text text-anchor="middle" x="79.8389" y="-266.5" font-family="Helvetica,sans-Serif" font-size="10.00"> </text>
<polyline fill="none" stroke="black" points="6.52637,-260.5 153.151,-260.5 "/>
<text text-anchor="start" x="14.5264" y="-248.5" font-family="Helvetica,sans-Serif" font-size="10.00">+ ~IExchangeItem()</text>
<text text-anchor="start" x="14.5264" y="-238.5" font-family="Helvetica,sans-Serif" font-size="10.00">+ itemChanged()</text>
</a>
</g>
</g>
<!-- Node3&#45;&gt;Node2 -->
<g id="edge2" class="edge"><title>Node3&#45;&gt;Node2</title>
<path fill="none" stroke="midnightblue" d="M73.9109,-222.005C71.731,-206.745 69.3019,-189.741 67.2756,-175.557"/>
<polygon fill="none" stroke="midnightblue" points="70.4932,-222.83 75.3723,-232.234 77.4228,-221.84 70.4932,-222.83"/>
</g>
<!-- Node9 -->
<g id="node9" class="node"><title>Node9</title>
<g id="a_node9"><a xlink:href="class_hydro_couple_1_1_spatial_1_1_i3_d_regular_grid_exhange_item.html" target="_top" xlink:title="An I3DRegularGridExhangeItem is an IExchangeItem with an I3DRegularGridComponentItem. ">
<polygon fill="white" stroke="black" points="144.081,-111.5 144.081,-175.5 309.597,-175.5 309.597,-111.5 144.081,-111.5"/>
<text text-anchor="start" x="152.081" y="-163.5" font-family="Helvetica,sans-Serif" font-size="10.00">HydroCouple::Spatial</text>
<text text-anchor="middle" x="226.839" y="-153.5" font-family="Helvetica,sans-Serif" font-size="10.00">::I3DRegularGridExhangeItem</text>
<polyline fill="none" stroke="black" points="144.081,-147.5 309.597,-147.5 "/>
<text text-anchor="middle" x="226.839" y="-135.5" font-family="Helvetica,sans-Serif" font-size="10.00"> </text>
<polyline fill="none" stroke="black" points="144.081,-129.5 309.597,-129.5 "/>
<text text-anchor="start" x="152.081" y="-117.5" font-family="Helvetica,sans-Serif" font-size="10.00">+ ~I3DRegularGridExhangeItem()</text>
</a>
</g>
</g>
<!-- Node3&#45;&gt;Node9 -->
<g id="edge10" class="edge"><title>Node3&#45;&gt;Node9</title>
<path fill="none" stroke="midnightblue" d="M126.256,-225.924C146.287,-209.709 169.437,-190.968 188.474,-175.557"/>
<polygon fill="none" stroke="midnightblue" points="124.032,-223.222 118.461,-232.234 128.436,-228.662 124.032,-223.222"/>
</g>
<!-- Node4 -->
<g id="node4" class="node"><title>Node4</title>
<g id="a_node4"><a xlink:href="class_hydro_couple_1_1_i_component_item.html" target="_top" xlink:title="IComponentItem is a fundamental unit of data for a component. ">
<polygon fill="white" stroke="black" points="160.916,-504.5 160.916,-578.5 314.762,-578.5 314.762,-504.5 160.916,-504.5"/>
<text text-anchor="middle" x="237.839" y="-566.5" font-family="Helvetica,sans-Serif" font-size="10.00">HydroCouple::IComponentItem</text>
<polyline fill="none" stroke="black" points="160.916,-560.5 314.762,-560.5 "/>
<text text-anchor="middle" x="237.839" y="-548.5" font-family="Helvetica,sans-Serif" font-size="10.00"> </text>
<polyline fill="none" stroke="black" points="160.916,-542.5 314.762,-542.5 "/>
<text text-anchor="start" x="168.916" y="-530.5" font-family="Helvetica,sans-Serif" font-size="10.00">+ ~IComponentItem()</text>
<text text-anchor="start" x="168.916" y="-520.5" font-family="Helvetica,sans-Serif" font-size="10.00">+ modelComponent()</text>
<text text-anchor="start" x="168.916" y="-510.5" font-family="Helvetica,sans-Serif" font-size="10.00">+ dimensions()</text>
</a>
</g>
</g>
<!-- Node4&#45;&gt;Node3 -->
<g id="edge3" class="edge"><title>Node4&#45;&gt;Node3</title>
<path fill="none" stroke="midnightblue" d="M211.857,-495.278C179.673,-439.262 125.688,-345.301 97.7704,-296.71"/>
<polygon fill="none" stroke="midnightblue" points="209.004,-497.339 217.021,-504.266 215.074,-493.851 209.004,-497.339"/>
</g>
<!-- Node8 -->
<g id="node8" class="node"><title>Node8</title>
<g id="a_node8"><a xlink:href="class_hydro_couple_1_1_temporal_1_1_i_time_component_item.html" target="_top" xlink:title="ITimeComponentItem is an IComponentItem with a temporal attribute. ">
<polygon fill="white" stroke="black" points="171.389,-212.5 171.389,-316.5 304.289,-316.5 304.289,-212.5 171.389,-212.5"/>
<text text-anchor="start" x="179.389" y="-304.5" font-family="Helvetica,sans-Serif" font-size="10.00">HydroCouple::Temporal</text>
<text text-anchor="middle" x="237.839" y="-294.5" font-family="Helvetica,sans-Serif" font-size="10.00">::ITimeComponentItem</text>
<polyline fill="none" stroke="black" points="171.389,-288.5 304.289,-288.5 "/>
<text text-anchor="middle" x="237.839" y="-276.5" font-family="Helvetica,sans-Serif" font-size="10.00"> </text>
<polyline fill="none" stroke="black" points="171.389,-270.5 304.289,-270.5 "/>
<text text-anchor="start" x="179.389" y="-258.5" font-family="Helvetica,sans-Serif" font-size="10.00">+ ~ITimeComponentItem()</text>
<text text-anchor="start" x="179.389" y="-248.5" font-family="Helvetica,sans-Serif" font-size="10.00">+ timeDimension()</text>
<text text-anchor="start" x="179.389" y="-238.5" font-family="Helvetica,sans-Serif" font-size="10.00">+ times()</text>
<text text-anchor="start" x="179.389" y="-228.5" font-family="Helvetica,sans-Serif" font-size="10.00">+ timeSpan()</text>
<text text-anchor="start" x="179.389" y="-218.5" font-family="Helvetica,sans-Serif" font-size="10.00">+ time()</text>
</a>
</g>
</g>
<!-- Node4&#45;&gt;Node8 -->
<g id="edge8" class="edge"><title>Node4&#45;&gt;Node8</title>
<path fill="none" stroke="midnightblue" d="M237.839,-494.238C237.839,-445.139 237.839,-367.753 237.839,-316.813"/>
<polygon fill="none" stroke="midnightblue" points="234.339,-494.266 237.839,-504.266 241.339,-494.266 234.339,-494.266"/>
</g>
<!-- Node11 -->
<g id="node11" class="node"><title>Node11</title>
<g id="a_node11"><a xlink:href="class_hydro_couple_1_1_spatial_1_1_i2_d_regular_grid_component_item.html" target="_top" xlink:title="An I2DRegularGridComponentItem represents an I2DRegularGrid IComponentItem. ">
<polygon fill="white" stroke="black" points="293.97,-353.5 293.97,-467.5 471.708,-467.5 471.708,-353.5 293.97,-353.5"/>
<text text-anchor="start" x="301.97" y="-455.5" font-family="Helvetica,sans-Serif" font-size="10.00">HydroCouple::Spatial</text>
<text text-anchor="middle" x="382.839" y="-445.5" font-family="Helvetica,sans-Serif" font-size="10.00">::I2DRegularGridComponentItem</text>
<polyline fill="none" stroke="black" points="293.97,-439.5 471.708,-439.5 "/>
<text text-anchor="middle" x="382.839" y="-427.5" font-family="Helvetica,sans-Serif" font-size="10.00"> </text>
<polyline fill="none" stroke="black" points="293.97,-421.5 471.708,-421.5 "/>
<text text-anchor="start" x="301.97" y="-409.5" font-family="Helvetica,sans-Serif" font-size="10.00">+ ~I2DRegularGridComponentItem()</text>
<text text-anchor="start" x="301.97" y="-399.5" font-family="Helvetica,sans-Serif" font-size="10.00">+ numXNodesDimension()</text>
<text text-anchor="start" x="301.97" y="-389.5" font-family="Helvetica,sans-Serif" font-size="10.00">+ numYNodesDimension()</text>
<text text-anchor="start" x="301.97" y="-379.5" font-family="Helvetica,sans-Serif" font-size="10.00">+ numXCellsDimension()</text>
<text text-anchor="start" x="301.97" y="-369.5" font-family="Helvetica,sans-Serif" font-size="10.00">+ numYCellsDimension()</text>
<text text-anchor="start" x="301.97" y="-359.5" font-family="Helvetica,sans-Serif" font-size="10.00">+ grid()</text>
</a>
</g>
</g>
<!-- Node4&#45;&gt;Node11 -->
<g id="edge13" class="edge"><title>Node4&#45;&gt;Node11</title>
<path fill="none" stroke="midnightblue" d="M286.297,-497.389C297.063,-487.811 308.626,-477.524 319.876,-467.515"/>
<polygon fill="none" stroke="midnightblue" points="283.76,-494.961 278.615,-504.223 288.413,-500.191 283.76,-494.961"/>
</g>
<!-- Node5 -->
<g id="node5" class="node"><title>Node5</title>
<g id="a_node5"><a xlink:href="class_hydro_couple_1_1_i_identity.html" target="_top" xlink:title="IIdentity interface class defines a method to get the Id of an HydroCouple entity. ">
<polygon fill="white" stroke="black" points="180.369,-615.5 180.369,-679.5 295.309,-679.5 295.309,-615.5 180.369,-615.5"/>
<text text-anchor="middle" x="237.839" y="-667.5" font-family="Helvetica,sans-Serif" font-size="10.00">HydroCouple::IIdentity</text>
<polyline fill="none" stroke="black" points="180.369,-661.5 295.309,-661.5 "/>
<text text-anchor="middle" x="237.839" y="-649.5" font-family="Helvetica,sans-Serif" font-size="10.00"> </text>
<polyline fill="none" stroke="black" points="180.369,-643.5 295.309,-643.5 "/>
<text text-anchor="start" x="188.369" y="-631.5" font-family="Helvetica,sans-Serif" font-size="10.00">+ ~IIdentity()</text>
<text text-anchor="start" x="188.369" y="-621.5" font-family="Helvetica,sans-Serif" font-size="10.00">+ id()</text>
</a>
</g>
</g>
<!-- Node5&#45;&gt;Node4 -->
<g id="edge4" class="edge"><title>Node5&#45;&gt;Node4</title>
<path fill="none" stroke="midnightblue" d="M237.839,-605.282C237.839,-596.531 237.839,-587.353 237.839,-578.801"/>
<polygon fill="none" stroke="midnightblue" points="234.339,-605.297 237.839,-615.297 241.339,-605.297 234.339,-605.297"/>
</g>
<!-- Node6 -->
<g id="node6" class="node"><title>Node6</title>
<g id="a_node6"><a xlink:href="class_hydro_couple_1_1_i_description.html" target="_top" xlink:title="IDescription interface class provides descriptive information on a HydroCouple object. ">
<polygon fill="white" stroke="black" points="171.479,-716.5 171.479,-810.5 304.198,-810.5 304.198,-716.5 171.479,-716.5"/>
<text text-anchor="middle" x="237.839" y="-798.5" font-family="Helvetica,sans-Serif" font-size="10.00">HydroCouple::IDescription</text>
<polyline fill="none" stroke="black" points="171.479,-792.5 304.198,-792.5 "/>
<text text-anchor="middle" x="237.839" y="-780.5" font-family="Helvetica,sans-Serif" font-size="10.00"> </text>
<polyline fill="none" stroke="black" points="171.479,-774.5 304.198,-774.5 "/>
<text text-anchor="start" x="179.479" y="-762.5" font-family="Helvetica,sans-Serif" font-size="10.00">+ ~IDescription()</text>
<text text-anchor="start" x="179.479" y="-752.5" font-family="Helvetica,sans-Serif" font-size="10.00">+ getCaption()</text>
<text text-anchor="start" x="179.479" y="-742.5" font-family="Helvetica,sans-Serif" font-size="10.00">+ setCaption()</text>
<text text-anchor="start" x="179.479" y="-732.5" font-family="Helvetica,sans-Serif" font-size="10.00">+ getDescription()</text>
<text text-anchor="start" x="179.479" y="-722.5" font-family="Helvetica,sans-Serif" font-size="10.00">+ setDescription()</text>
</a>
</g>
</g>
<!-- Node6&#45;&gt;Node5 -->
<g id="edge5" class="edge"><title>Node6&#45;&gt;Node5</title>
<path fill="none" stroke="midnightblue" d="M237.839,-706.212C237.839,-697.081 237.839,-687.926 237.839,-679.684"/>
<polygon fill="none" stroke="midnightblue" points="234.339,-706.46 237.839,-716.46 241.339,-706.46 234.339,-706.46"/>
</g>
<!-- Node7 -->
<g id="node7" class="node"><title>Node7</title>
<g id="a_node7"><a xlink:href="class_hydro_couple_1_1_i_property_changed.html" target="_top" xlink:title="IPropertyChanged interface is used to emit signal/event when a property of an object changes...">
<polygon fill="white" stroke="black" points="157.297,-847.5 157.297,-901.5 318.38,-901.5 318.38,-847.5 157.297,-847.5"/>
<text text-anchor="middle" x="237.839" y="-889.5" font-family="Helvetica,sans-Serif" font-size="10.00">HydroCouple::IPropertyChanged</text>
<polyline fill="none" stroke="black" points="157.297,-883.5 318.38,-883.5 "/>
<text text-anchor="middle" x="237.839" y="-871.5" font-family="Helvetica,sans-Serif" font-size="10.00"> </text>
<polyline fill="none" stroke="black" points="157.297,-865.5 318.38,-865.5 "/>
<text text-anchor="start" x="165.297" y="-853.5" font-family="Helvetica,sans-Serif" font-size="10.00">+ ~IPropertyChanged()</text>
</a>
</g>
</g>
<!-- Node7&#45;&gt;Node6 -->
<g id="edge6" class="edge"><title>Node7&#45;&gt;Node6</title>
<path fill="none" stroke="midnightblue" d="M237.839,-837.141C237.839,-828.716 237.839,-819.639 237.839,-810.851"/>
<polygon fill="none" stroke="midnightblue" points="234.339,-837.392 237.839,-847.392 241.339,-837.392 234.339,-837.392"/>
</g>
<!-- Node8&#45;&gt;Node2 -->
<g id="edge7" class="edge"><title>Node8&#45;&gt;Node2</title>
<path fill="none" stroke="midnightblue" d="M162.79,-212.467C144.389,-199.954 125.238,-186.931 108.682,-175.674"/>
<polygon fill="none" stroke="midnightblue" points="160.942,-215.443 171.18,-218.172 164.878,-209.654 160.942,-215.443"/>
</g>
<!-- Node12 -->
<g id="node12" class="node"><title>Node12</title>
<g id="a_node12"><a xlink:href="class_hydro_couple_1_1_spatio_temporal_1_1_i_time3_d_regular_grid_component_item.html" target="_top" xlink:title="The ITime3DRegularGridComponentItem class. ">
<polygon fill="white" stroke="black" points="328.042,-111.5 328.042,-175.5 527.636,-175.5 527.636,-111.5 328.042,-111.5"/>
<text text-anchor="start" x="336.042" y="-163.5" font-family="Helvetica,sans-Serif" font-size="10.00">HydroCouple::SpatioTemporal</text>
<text text-anchor="middle" x="427.839" y="-153.5" font-family="Helvetica,sans-Serif" font-size="10.00">::ITime3DRegularGridComponentItem</text>
<polyline fill="none" stroke="black" points="328.042,-147.5 527.636,-147.5 "/>
<text text-anchor="middle" x="427.839" y="-135.5" font-family="Helvetica,sans-Serif" font-size="10.00"> </text>
<polyline fill="none" stroke="black" points="328.042,-129.5 527.636,-129.5 "/>
<text text-anchor="start" x="336.042" y="-117.5" font-family="Helvetica,sans-Serif" font-size="10.00">+ ~ITime3DRegularGridComponentItem()</text>
</a>
</g>
</g>
<!-- Node8&#45;&gt;Node12 -->
<g id="edge15" class="edge"><title>Node8&#45;&gt;Node12</title>
<path fill="none" stroke="midnightblue" d="M312.576,-212.167C312.664,-212.111 312.751,-212.056 312.839,-212 332.181,-199.705 353.761,-186.824 372.956,-175.65"/>
<polygon fill="none" stroke="midnightblue" points="310.84,-209.122 304.331,-217.481 314.633,-215.006 310.84,-209.122"/>
</g>
<!-- Node9&#45;&gt;Node1 -->
<g id="edge9" class="edge"><title>Node9&#45;&gt;Node1</title>
<path fill="none" stroke="midnightblue" d="M220.22,-101.282C220.005,-92.5308 220.055,-83.3534 220.37,-74.8011"/>
<polygon fill="none" stroke="midnightblue" points="216.723,-101.434 220.594,-111.297 223.718,-101.173 216.723,-101.434"/>
</g>
<!-- Node9&#45;&gt;Node1 -->
<g id="edge18" class="edge"><title>Node9&#45;&gt;Node1</title>
<path fill="none" stroke="midnightblue" d="M233.458,-101.282C233.673,-92.5308 233.623,-83.3534 233.308,-74.8011"/>
<polygon fill="none" stroke="midnightblue" points="229.96,-101.173 233.084,-111.297 236.955,-101.434 229.96,-101.173"/>
</g>
<!-- Node10 -->
<g id="node10" class="node"><title>Node10</title>
<g id="a_node10"><a xlink:href="class_hydro_couple_1_1_spatial_1_1_i3_d_regular_grid_component_item.html" target="_top" xlink:title="An I3DRegularGridComponentItem represents an I3DRegularGrid IComponentItem. ">
<polygon fill="white" stroke="black" points="321.97,-217.5 321.97,-311.5 499.708,-311.5 499.708,-217.5 321.97,-217.5"/>
<text text-anchor="start" x="329.97" y="-299.5" font-family="Helvetica,sans-Serif" font-size="10.00">HydroCouple::Spatial</text>
<text text-anchor="middle" x="410.839" y="-289.5" font-family="Helvetica,sans-Serif" font-size="10.00">::I3DRegularGridComponentItem</text>
<polyline fill="none" stroke="black" points="321.97,-283.5 499.708,-283.5 "/>
<text text-anchor="middle" x="410.839" y="-271.5" font-family="Helvetica,sans-Serif" font-size="10.00"> </text>
<polyline fill="none" stroke="black" points="321.97,-265.5 499.708,-265.5 "/>
<text text-anchor="start" x="329.97" y="-253.5" font-family="Helvetica,sans-Serif" font-size="10.00">+ ~I2DRegularGridComponentItem()</text>
<text text-anchor="start" x="329.97" y="-243.5" font-family="Helvetica,sans-Serif" font-size="10.00">+ numZNodesDimension()</text>
<text text-anchor="start" x="329.97" y="-233.5" font-family="Helvetica,sans-Serif" font-size="10.00">+ numZCellsDimension()</text>
<text text-anchor="start" x="329.97" y="-223.5" font-family="Helvetica,sans-Serif" font-size="10.00">+ grid()</text>
</a>
</g>
</g>
<!-- Node10&#45;&gt;Node9 -->
<g id="edge11" class="edge"><title>Node10&#45;&gt;Node9</title>
<path fill="none" stroke="midnightblue" d="M331.26,-212.034C312.118,-199.653 292.245,-186.801 275.038,-175.672"/>
<polygon fill="none" stroke="midnightblue" points="329.402,-215 339.7,-217.491 333.203,-209.122 329.402,-215"/>
</g>
<!-- Node10&#45;&gt;Node12 -->
<g id="edge16" class="edge"><title>Node10&#45;&gt;Node12</title>
<path fill="none" stroke="midnightblue" d="M418.836,-207.52C420.401,-196.566 421.988,-185.453 423.386,-175.672"/>
<polygon fill="none" stroke="midnightblue" points="415.361,-207.097 417.412,-217.491 422.291,-208.087 415.361,-207.097"/>
</g>
<!-- Node11&#45;&gt;Node10 -->
<g id="edge12" class="edge"><title>Node11&#45;&gt;Node10</title>
<path fill="none" stroke="midnightblue" d="M395.708,-343.317C397.772,-332.7 399.869,-321.914 401.819,-311.889"/>
<polygon fill="none" stroke="midnightblue" points="392.218,-342.929 393.745,-353.414 399.089,-344.265 392.218,-342.929"/>
</g>
<!-- Node12&#45;&gt;Node1 -->
<g id="edge14" class="edge"><title>Node12&#45;&gt;Node1</title>
<path fill="none" stroke="midnightblue" d="M352.533,-106.87C331.937,-96.422 309.842,-84.9922 289.996,-74.5202"/>
<polygon fill="none" stroke="midnightblue" points="351.063,-110.048 361.566,-111.437 354.222,-103.802 351.063,-110.048"/>
</g>
<!-- Node12&#45;&gt;Node1 -->
<g id="edge19" class="edge"><title>Node12&#45;&gt;Node1</title>
<path fill="none" stroke="midnightblue" d="M365.154,-106.729C345.433,-96.3195 323.454,-84.9453 302.913,-74.5202"/>
<polygon fill="none" stroke="midnightblue" points="363.567,-109.85 374.043,-111.437 366.844,-103.664 363.567,-109.85"/>
</g>
</g>
</svg>
        <g id="navigator" transform="translate(0 0)" fill="#404254">
                <rect fill="#f2f5e9" fill-opacity="0.5" stroke="#606060" stroke-width=".5" x="0" y="0" width="60" height="60"/>
                <use id="zoomplus" xlink:href="#zoomPlus" x="17" y="9" onmousedown="handleZoom(evt,'in')"/>
                <use id="zoomminus" xlink:href="#zoomMin" x="42" y="9" onmousedown="handleZoom(evt,'out')"/>
                <use id="reset" xlink:href="#resetDef" x="30" y="36" onmousedown="handleReset()"/>
                <g id="arrowUp" xlink:href="#dirArrow" transform="translate(30 24)" onmousedown="handlePan(0,-1)">
                  <use xlink:href="#rim" fill="#404040">
                        <set attributeName="fill" to="#808080" begin="arrowUp.mouseover" end="arrowUp.mouseout"/>
                  </use>
                  <path fill="none" stroke="white" stroke-width="1.5" d="M0,-3.0v7 M-2.5,-0.5L0,-3.0L2.5,-0.5"/>
                </g>
                <g id="arrowRight" xlink:href="#dirArrow" transform="rotate(90) translate(36 -43)" onmousedown="handlePan(1,0)">
                  <use xlink:href="#rim" fill="#404040">
                        <set attributeName="fill" to="#808080" begin="arrowRight.mouseover" end="arrowRight.mouseout"/>
                  </use>
                  <path fill="none" stroke="white" stroke-width="1.5" d="M0,-3.0v7 M-2.5,-0.5L0,-3.0L2.5,-0.5"/>
                </g>
                <g id="arrowDown" xlink:href="#dirArrow" transform="rotate(180) translate(-30 -48)" onmousedown="handlePan(0,1)">
                  <use xlink:href="#rim" fill="#404040">
                        <set attributeName="fill" to="#808080" begin="arrowDown.mouseover" end="arrowDown.mouseout"/>
                  </use>
                  <path fill="none" stroke="white" stroke-width="1.5" d="M0,-3.0v7 M-2.5,-0.5L0,-3.0L2.5,-0.5"/>
                </g>
                <g id="arrowLeft" xlink:href="#dirArrow" transform="rotate(270) translate(-36 17)" onmousedown="handlePan(-1,0)">
                  <use xlink:href="#rim" fill="#404040">
                        <set attributeName="fill" to="#808080" begin="arrowLeft.mouseover" end="arrowLeft.mouseout"/>
                  </use>
                  <path fill="none" stroke="white" stroke-width="1.5" d="M0,-3.0v7 M-2.5,-0.5L0,-3.0L2.5,-0.5"/>
                </g>
        </g>
        <svg viewBox="0 0 15 15" width="100%" height="30px" preserveAspectRatio="xMaxYMin meet">
         <g id="arrow_out" transform="scale(0.3 0.3)">
          <a xlink:href="class_hydro_couple_1_1_spatio_temporal_1_1_i_time3_d_regular_grid_exchange_item__inherit__graph_org.svg" target="_base">
           <rect id="button" ry="5" rx="5" y="6" x="6" height="38" width="38"
                fill="#f2f5e9" fill-opacity="0.5" stroke="#606060" stroke-width="1.0"/>
           <path id="arrow"
             d="M 11.500037,31.436501 C 11.940474,20.09759 22.043105,11.32322 32.158766,21.979434 L 37.068811,17.246167 C 37.068811,17.246167 37.088388,32 37.088388,32 L 22.160133,31.978069 C 22.160133,31.978069 26.997745,27.140456 26.997745,27.140456 C 18.528582,18.264221 13.291696,25.230495 11.500037,31.436501 z"
             style="fill:#404040;"/>
          </a>
         </g>
        </svg>
</svg>
