<?xml version="1.0" encoding="UTF-8" standalone="no"?>
<!DOCTYPE svg PUBLIC "-//W3C//DTD SVG 1.1//EN"
 "http://www.w3.org/Graphics/SVG/1.1/DTD/svg11.dtd">
<!-- Generated by graphviz version 2.38.0 (20140413.2041)
 -->
<!-- Title: HydroCouple::Spatial::IPolyhedralSurfaceExchangeItem Pages: 1 -->
<svg width="526pt" height="972pt"
 viewBox="0.00 0.00 526.04 972.40" xmlns="http://www.w3.org/2000/svg" xmlns:xlink="http://www.w3.org/1999/xlink">
<g id="graph0" class="graph" transform="scale(1 1) rotate(0) translate(4 968.403)">
<title>HydroCouple::Spatial::IPolyhedralSurfaceExchangeItem</title>
<!-- Node1 -->
<g id="node1" class="node"><title>Node1</title>
<polygon fill="#bfbfbf" stroke="black" points="146.002,-114.84 146.002,-192.18 372.036,-192.18 372.036,-114.84 146.002,-114.84"/>
<text text-anchor="start" x="154.002" y="-180.18" font-family="Monaco" font-size="10.00">HydroCouple::Spatial</text>
<text text-anchor="middle" x="259.019" y="-166.845" font-family="Monaco" font-size="10.00">::IPolyhedralSurfaceExchangeItem</text>
<polyline fill="none" stroke="black" points="146.002,-157.51 372.036,-157.51 "/>
<text text-anchor="middle" x="259.019" y="-145.51" font-family="Monaco" font-size="10.00"> </text>
<polyline fill="none" stroke="black" points="146.002,-136.175 372.036,-136.175 "/>
<text text-anchor="start" x="154.002" y="-124.175" font-family="Monaco" font-size="10.00">+ ~IPolyhedralSurfaceExchangeItem()</text>
</g>
<!-- Node8 -->
<g id="node8" class="node"><title>Node8</title>
<g id="a_node8"><a xlink:href="class_hydro_couple_1_1_spatial_1_1_i_polyhedral_surface_only_exchange_item.html" target="_top" xlink:title="An IPolyhedralSurfaceOnlyExchangeItem class with an IPolyhedralSurface component. ...">
<polygon fill="none" stroke="black" points="0,-0.5 0,-77.8398 250.038,-77.8398 250.038,-0.5 0,-0.5"/>
<text text-anchor="start" x="8" y="-65.8398" font-family="Monaco" font-size="10.00">HydroCouple::Spatial</text>
<text text-anchor="middle" x="125.019" y="-52.5049" font-family="Monaco" font-size="10.00">::IPolyhedralSurfaceOnlyExchangeItem</text>
<polyline fill="none" stroke="black" points="0,-43.1699 250.038,-43.1699 "/>
<text text-anchor="middle" x="125.019" y="-31.1699" font-family="Monaco" font-size="10.00"> </text>
<polyline fill="none" stroke="black" points="0,-21.835 250.038,-21.835 "/>
<text text-anchor="start" x="8" y="-9.83496" font-family="Monaco" font-size="10.00">+ ~IPolyhedralSurfaceOnlyExchangeItem()</text>
</a>
</g>
</g>
<!-- Node1&#45;&gt;Node8 -->
<g id="edge8" class="edge"><title>Node1&#45;&gt;Node8</title>
<path fill="none" stroke="midnightblue" d="M206.277,-108.293C194.32,-98.2692 181.728,-87.7125 170.121,-77.9816"/>
<polygon fill="none" stroke="midnightblue" points="204.114,-111.047 214.026,-114.79 208.612,-105.683 204.114,-111.047"/>
</g>
<!-- Node9 -->
<g id="node9" class="node"><title>Node9</title>
<g id="a_node9"><a xlink:href="class_hydro_couple_1_1_spatio_temporal_1_1_i_time_polyhedral_surface_exchange_item.html" target="_top" xlink:title="The ITimePolyhedralSurfaceExchangeItem class. ">
<polygon fill="none" stroke="black" points="268,-0.5 268,-77.8398 518.038,-77.8398 518.038,-0.5 268,-0.5"/>
<text text-anchor="start" x="276" y="-65.8398" font-family="Monaco" font-size="10.00">HydroCouple::SpatioTemporal</text>
<text text-anchor="middle" x="393.019" y="-52.5049" font-family="Monaco" font-size="10.00">::ITimePolyhedralSurfaceExchangeItem</text>
<polyline fill="none" stroke="black" points="268,-43.1699 518.038,-43.1699 "/>
<text text-anchor="middle" x="393.019" y="-31.1699" font-family="Monaco" font-size="10.00"> </text>
<polyline fill="none" stroke="black" points="268,-21.835 518.038,-21.835 "/>
<text text-anchor="start" x="276" y="-9.83496" font-family="Monaco" font-size="10.00">+ ~ITimePolyhedralSurfaceExchangeItem()</text>
</a>
</g>
</g>
<!-- Node1&#45;&gt;Node9 -->
<g id="edge9" class="edge"><title>Node1&#45;&gt;Node9</title>
<path fill="none" stroke="midnightblue" d="M311.761,-108.293C323.718,-98.2692 336.31,-87.7125 347.917,-77.9816"/>
<polygon fill="none" stroke="midnightblue" points="309.427,-105.683 304.012,-114.79 313.924,-111.047 309.427,-105.683"/>
</g>
<!-- Node2 -->
<g id="node2" class="node"><title>Node2</title>
<g id="a_node2"><a xlink:href="class_hydro_couple_1_1_i_exchange_item.html" target="_top" xlink:title="IExchangeItem the base data item the can be exchanged between components at runtime. ">
<polygon fill="none" stroke="black" points="65.0063,-269.185 65.0063,-333.189 237.032,-333.189 237.032,-269.185 65.0063,-269.185"/>
<text text-anchor="middle" x="151.019" y="-321.189" font-family="Monaco" font-size="10.00">HydroCouple::IExchangeItem</text>
<polyline fill="none" stroke="black" points="65.0063,-311.854 237.032,-311.854 "/>
<text text-anchor="middle" x="151.019" y="-299.854" font-family="Monaco" font-size="10.00"> </text>
<polyline fill="none" stroke="black" points="65.0063,-290.52 237.032,-290.52 "/>
<text text-anchor="start" x="73.0063" y="-278.52" font-family="Monaco" font-size="10.00">+ ~IExchangeItem()</text>
</a>
</g>
</g>
<!-- Node2&#45;&gt;Node1 -->
<g id="edge1" class="edge"><title>Node2&#45;&gt;Node1</title>
<path fill="none" stroke="midnightblue" d="M180.251,-260.757C195.997,-239.518 215.33,-213.441 230.901,-192.437"/>
<polygon fill="none" stroke="midnightblue" points="177.332,-258.818 174.188,-268.936 182.955,-262.987 177.332,-258.818"/>
</g>
<!-- Node3 -->
<g id="node3" class="node"><title>Node3</title>
<g id="a_node3"><a xlink:href="class_hydro_couple_1_1_i_component_data_item.html" target="_top" xlink:title="IComponentItem is a fundamental unit of data for a component. ">
<polygon fill="none" stroke="black" points="158.004,-410.194 158.004,-594.214 360.034,-594.214 360.034,-410.194 158.004,-410.194"/>
<text text-anchor="middle" x="259.019" y="-582.214" font-family="Monaco" font-size="10.00">HydroCouple::IComponentDataItem</text>
<polyline fill="none" stroke="black" points="158.004,-572.879 360.034,-572.879 "/>
<text text-anchor="middle" x="259.019" y="-560.879" font-family="Monaco" font-size="10.00"> </text>
<polyline fill="none" stroke="black" points="158.004,-551.544 360.034,-551.544 "/>
<text text-anchor="start" x="166.004" y="-539.544" font-family="Monaco" font-size="10.00">+ ~IComponentDataItem()</text>
<text text-anchor="start" x="166.004" y="-526.209" font-family="Monaco" font-size="10.00">+ modelComponent()</text>
<text text-anchor="start" x="166.004" y="-512.874" font-family="Monaco" font-size="10.00">+ dimensions()</text>
<text text-anchor="start" x="166.004" y="-499.539" font-family="Monaco" font-size="10.00">+ valueDefinition()</text>
<text text-anchor="start" x="166.004" y="-486.204" font-family="Monaco" font-size="10.00">+ getValue()</text>
<text text-anchor="start" x="166.004" y="-472.869" font-family="Monaco" font-size="10.00">+ getValues()</text>
<text text-anchor="start" x="166.004" y="-459.534" font-family="Monaco" font-size="10.00">+ getValues()</text>
<text text-anchor="start" x="166.004" y="-446.199" font-family="Monaco" font-size="10.00">+ setValue()</text>
<text text-anchor="start" x="166.004" y="-432.864" font-family="Monaco" font-size="10.00">+ setValues()</text>
<text text-anchor="start" x="166.004" y="-419.529" font-family="Monaco" font-size="10.00">+ setValues()</text>
</a>
</g>
</g>
<!-- Node3&#45;&gt;Node2 -->
<g id="edge2" class="edge"><title>Node3&#45;&gt;Node2</title>
<path fill="none" stroke="midnightblue" d="M204.67,-401.053C191.271,-376.362 177.901,-351.724 167.859,-333.219"/>
<polygon fill="none" stroke="midnightblue" points="201.756,-403.021 209.602,-410.141 207.909,-399.682 201.756,-403.021"/>
</g>
<!-- Node7 -->
<g id="node7" class="node"><title>Node7</title>
<g id="a_node7"><a xlink:href="class_hydro_couple_1_1_spatial_1_1_i_polyhedral_surface_component_data_item.html" target="_top" xlink:title="IPolyhedralSurfaceComponentItem represents IPolyhedralSurface IComponentItem. ">
<polygon fill="none" stroke="black" points="255.002,-229.18 255.002,-373.194 481.036,-373.194 481.036,-229.18 255.002,-229.18"/>
<text text-anchor="start" x="263.002" y="-361.194" font-family="Monaco" font-size="10.00">HydroCouple::Spatial</text>
<text text-anchor="start" x="263.002" y="-347.859" font-family="Monaco" font-size="10.00">::IPolyhedralSurfaceComponent</text>
<text text-anchor="middle" x="368.019" y="-334.524" font-family="Monaco" font-size="10.00">DataItem</text>
<polyline fill="none" stroke="black" points="255.002,-325.189 481.036,-325.189 "/>
<text text-anchor="middle" x="368.019" y="-313.189" font-family="Monaco" font-size="10.00"> </text>
<polyline fill="none" stroke="black" points="255.002,-303.854 481.036,-303.854 "/>
<text text-anchor="start" x="263.002" y="-291.854" font-family="Monaco" font-size="10.00">+ ~IPolyhedralSurfaceComponent</text>
<text text-anchor="start" x="263.002" y="-278.52" font-family="Monaco" font-size="10.00">DataItem()</text>
<text text-anchor="start" x="263.002" y="-265.185" font-family="Monaco" font-size="10.00">+ polyhedralSurface()</text>
<text text-anchor="start" x="263.002" y="-251.85" font-family="Monaco" font-size="10.00">+ polygon()</text>
<text text-anchor="start" x="263.002" y="-238.515" font-family="Monaco" font-size="10.00">+ polyhedralSurfacePatchDimension()</text>
</a>
</g>
</g>
<!-- Node3&#45;&gt;Node7 -->
<g id="edge7" class="edge"><title>Node3&#45;&gt;Node7</title>
<path fill="none" stroke="midnightblue" d="M313.833,-401.123C318.989,-391.708 324.142,-382.299 329.107,-373.235"/>
<polygon fill="none" stroke="midnightblue" points="310.628,-399.689 308.894,-410.141 316.767,-403.051 310.628,-399.689"/>
</g>
<!-- Node4 -->
<g id="node4" class="node"><title>Node4</title>
<g id="a_node4"><a xlink:href="class_hydro_couple_1_1_i_identity.html" target="_top" xlink:title="IIdentity interface class defines a method to get the Id of an HydroCouple entity. ">
<polygon fill="none" stroke="black" points="185.008,-631.214 185.008,-708.554 333.03,-708.554 333.03,-631.214 185.008,-631.214"/>
<text text-anchor="middle" x="259.019" y="-696.554" font-family="Monaco" font-size="10.00">HydroCouple::IIdentity</text>
<polyline fill="none" stroke="black" points="185.008,-687.219 333.03,-687.219 "/>
<text text-anchor="middle" x="259.019" y="-675.219" font-family="Monaco" font-size="10.00"> </text>
<polyline fill="none" stroke="black" points="185.008,-665.884 333.03,-665.884 "/>
<text text-anchor="start" x="193.008" y="-653.884" font-family="Monaco" font-size="10.00">+ ~IIdentity()</text>
<text text-anchor="start" x="193.008" y="-640.549" font-family="Monaco" font-size="10.00">+ id()</text>
</a>
</g>
</g>
<!-- Node4&#45;&gt;Node3 -->
<g id="edge3" class="edge"><title>Node4&#45;&gt;Node3</title>
<path fill="none" stroke="midnightblue" d="M259.019,-620.632C259.019,-612.278 259.019,-603.353 259.019,-594.295"/>
<polygon fill="none" stroke="midnightblue" points="255.519,-620.873 259.019,-630.874 262.519,-620.874 255.519,-620.873"/>
</g>
<!-- Node5 -->
<g id="node5" class="node"><title>Node5</title>
<g id="a_node5"><a xlink:href="class_hydro_couple_1_1_i_description.html" target="_top" xlink:title="IDescription interface class provides descriptive information on a HydroCouple object. ">
<polygon fill="none" stroke="black" points="176.007,-745.554 176.007,-862.898 342.031,-862.898 342.031,-745.554 176.007,-745.554"/>
<text text-anchor="middle" x="259.019" y="-850.898" font-family="Monaco" font-size="10.00">HydroCouple::IDescription</text>
<polyline fill="none" stroke="black" points="176.007,-841.563 342.031,-841.563 "/>
<text text-anchor="middle" x="259.019" y="-829.563" font-family="Monaco" font-size="10.00"> </text>
<polyline fill="none" stroke="black" points="176.007,-820.229 342.031,-820.229 "/>
<text text-anchor="start" x="184.007" y="-808.229" font-family="Monaco" font-size="10.00">+ ~IDescription()</text>
<text text-anchor="start" x="184.007" y="-794.894" font-family="Monaco" font-size="10.00">+ caption()</text>
<text text-anchor="start" x="184.007" y="-781.559" font-family="Monaco" font-size="10.00">+ setCaption()</text>
<text text-anchor="start" x="184.007" y="-768.224" font-family="Monaco" font-size="10.00">+ description()</text>
<text text-anchor="start" x="184.007" y="-754.889" font-family="Monaco" font-size="10.00">+ setDescription()</text>
</a>
</g>
</g>
<!-- Node5&#45;&gt;Node4 -->
<g id="edge4" class="edge"><title>Node5&#45;&gt;Node4</title>
<path fill="none" stroke="midnightblue" d="M259.019,-734.988C259.019,-725.949 259.019,-716.962 259.019,-708.701"/>
<polygon fill="none" stroke="midnightblue" points="255.519,-735.179 259.019,-745.179 262.519,-735.179 255.519,-735.179"/>
</g>
<!-- Node6 -->
<g id="node6" class="node"><title>Node6</title>
<g id="a_node6"><a xlink:href="class_hydro_couple_1_1_i_property_changed.html" target="_top" xlink:title="IPropertyChanged interface is used to emit signal/event when a property of an object changes...">
<polygon fill="none" stroke="black" points="164.005,-899.898 164.005,-963.903 354.033,-963.903 354.033,-899.898 164.005,-899.898"/>
<text text-anchor="middle" x="259.019" y="-951.903" font-family="Monaco" font-size="10.00">HydroCouple::IPropertyChanged</text>
<polyline fill="none" stroke="black" points="164.005,-942.568 354.033,-942.568 "/>
<text text-anchor="middle" x="259.019" y="-930.568" font-family="Monaco" font-size="10.00"> </text>
<polyline fill="none" stroke="black" points="164.005,-921.233 354.033,-921.233 "/>
<text text-anchor="start" x="172.005" y="-909.233" font-family="Monaco" font-size="10.00">+ ~IPropertyChanged()</text>
</a>
</g>
</g>
<!-- Node6&#45;&gt;Node5 -->
<g id="edge5" class="edge"><title>Node6&#45;&gt;Node5</title>
<path fill="none" stroke="midnightblue" d="M259.019,-889.578C259.019,-881.193 259.019,-872.227 259.019,-863.384"/>
<polygon fill="none" stroke="midnightblue" points="255.519,-889.835 259.019,-899.835 262.519,-889.835 255.519,-889.835"/>
</g>
<!-- Node7&#45;&gt;Node1 -->
<g id="edge6" class="edge"><title>Node7&#45;&gt;Node1</title>
<path fill="none" stroke="midnightblue" d="M308.781,-221.017C301.3,-211.018 293.938,-201.179 287.266,-192.262"/>
<polygon fill="none" stroke="midnightblue" points="306.003,-223.145 314.796,-229.055 311.608,-218.952 306.003,-223.145"/>
</g>
</g>
</svg>
