<?xml version="1.0" encoding="UTF-8" standalone="no"?>
<!DOCTYPE svg PUBLIC "-//W3C//DTD SVG 1.1//EN"
 "http://www.w3.org/Graphics/SVG/1.1/DTD/svg11.dtd">
<!-- Generated by graphviz version 2.38.0 (20140413.2041)
 -->
<!-- Title: HydroCouple::Spatial::ITINComponentDataItem Pages: 1 -->
<svg width="738pt" height="1026pt"
 viewBox="0.00 0.00 738.03 1025.74" xmlns="http://www.w3.org/2000/svg" xmlns:xlink="http://www.w3.org/1999/xlink">
<g id="graph0" class="graph" transform="scale(1 1) rotate(0) translate(4 1021.74)">
<title>HydroCouple::Spatial::ITINComponentDataItem</title>
<!-- Node1 -->
<g id="node1" class="node"><title>Node1</title>
<polygon fill="#bfbfbf" stroke="black" points="274.002,-309.189 274.002,-426.534 446.027,-426.534 446.027,-309.189 274.002,-309.189"/>
<text text-anchor="start" x="282.002" y="-414.534" font-family="Monaco" font-size="10.00">HydroCouple::Spatial</text>
<text text-anchor="middle" x="360.015" y="-401.199" font-family="Monaco" font-size="10.00">::ITINComponentDataItem</text>
<polyline fill="none" stroke="black" points="274.002,-391.864 446.027,-391.864 "/>
<text text-anchor="middle" x="360.015" y="-379.864" font-family="Monaco" font-size="10.00"> </text>
<polyline fill="none" stroke="black" points="274.002,-370.529 446.027,-370.529 "/>
<text text-anchor="start" x="282.002" y="-358.529" font-family="Monaco" font-size="10.00">+ ~ITINComponentDataItem()</text>
<text text-anchor="start" x="282.002" y="-345.194" font-family="Monaco" font-size="10.00">+ TIN()</text>
<text text-anchor="start" x="282.002" y="-331.859" font-family="Monaco" font-size="10.00">+ triangle()</text>
<text text-anchor="start" x="282.002" y="-318.524" font-family="Monaco" font-size="10.00">+ TINPatchDimension()</text>
</g>
<!-- Node6 -->
<g id="node6" class="node"><title>Node6</title>
<g id="a_node6"><a xlink:href="class_hydro_couple_1_1_spatial_1_1_i_t_i_n_argument.html" target="_top" xlink:title="The ITINArgument class. ">
<polygon fill="none" stroke="black" points="214.005,-154.845 214.005,-232.185 350.024,-232.185 350.024,-154.845 214.005,-154.845"/>
<text text-anchor="start" x="222.005" y="-220.185" font-family="Monaco" font-size="10.00">HydroCouple::Spatial</text>
<text text-anchor="middle" x="282.015" y="-206.85" font-family="Monaco" font-size="10.00">::ITINArgument</text>
<polyline fill="none" stroke="black" points="214.005,-197.515 350.024,-197.515 "/>
<text text-anchor="middle" x="282.015" y="-185.515" font-family="Monaco" font-size="10.00"> </text>
<polyline fill="none" stroke="black" points="214.005,-176.18 350.024,-176.18 "/>
<text text-anchor="start" x="222.005" y="-164.18" font-family="Monaco" font-size="10.00">+ ~ITINArgument()</text>
</a>
</g>
</g>
<!-- Node1&#45;&gt;Node6 -->
<g id="edge5" class="edge"><title>Node1&#45;&gt;Node6</title>
<path fill="none" stroke="midnightblue" d="M329.596,-299.649C319.227,-276.738 308.007,-251.947 299.068,-232.195"/>
<polygon fill="none" stroke="midnightblue" points="326.513,-301.326 333.825,-308.993 332.89,-298.44 326.513,-301.326"/>
</g>
<!-- Node9 -->
<g id="node9" class="node"><title>Node9</title>
<g id="a_node9"><a xlink:href="class_hydro_couple_1_1_spatial_1_1_i_t_i_n_exchange_item.html" target="_top" xlink:title="An ITINExchangeItem class with an TIN component. ">
<polygon fill="none" stroke="black" points="368.004,-154.845 368.004,-232.185 510.025,-232.185 510.025,-154.845 368.004,-154.845"/>
<text text-anchor="start" x="376.004" y="-220.185" font-family="Monaco" font-size="10.00">HydroCouple::Spatial</text>
<text text-anchor="middle" x="439.015" y="-206.85" font-family="Monaco" font-size="10.00">::ITINExchangeItem</text>
<polyline fill="none" stroke="black" points="368.004,-197.515 510.025,-197.515 "/>
<text text-anchor="middle" x="439.015" y="-185.515" font-family="Monaco" font-size="10.00"> </text>
<polyline fill="none" stroke="black" points="368.004,-176.18 510.025,-176.18 "/>
<text text-anchor="start" x="376.004" y="-164.18" font-family="Monaco" font-size="10.00">+ ~ITINExchangeItem()</text>
</a>
</g>
</g>
<!-- Node1&#45;&gt;Node9 -->
<g id="edge8" class="edge"><title>Node1&#45;&gt;Node9</title>
<path fill="none" stroke="midnightblue" d="M390.824,-299.649C401.325,-276.738 412.689,-251.947 421.743,-232.195"/>
<polygon fill="none" stroke="midnightblue" points="387.526,-298.444 386.54,-308.993 393.889,-301.361 387.526,-298.444"/>
</g>
<!-- Node12 -->
<g id="node12" class="node"><title>Node12</title>
<g id="a_node12"><a xlink:href="class_hydro_couple_1_1_spatial_1_1_i_t_i_n_only_component_data_item.html" target="_top" xlink:title="ITINOnlyComponentDataItem represents ITIN IComponentDataItem. ">
<polygon fill="none" stroke="black" points="0,-114.84 0,-272.189 196.029,-272.189 196.029,-114.84 0,-114.84"/>
<text text-anchor="start" x="8" y="-260.189" font-family="Monaco" font-size="10.00">HydroCouple::Spatial</text>
<text text-anchor="middle" x="98.0146" y="-246.854" font-family="Monaco" font-size="10.00">::ITINOnlyComponentDataItem</text>
<polyline fill="none" stroke="black" points="0,-237.52 196.029,-237.52 "/>
<text text-anchor="middle" x="98.0146" y="-225.52" font-family="Monaco" font-size="10.00"> </text>
<polyline fill="none" stroke="black" points="0,-216.185 196.029,-216.185 "/>
<text text-anchor="start" x="8" y="-204.185" font-family="Monaco" font-size="10.00">+ ~ITINOnlyComponentDataItem()</text>
<text text-anchor="start" x="8" y="-190.85" font-family="Monaco" font-size="10.00">+ getValue()</text>
<text text-anchor="start" x="8" y="-177.515" font-family="Monaco" font-size="10.00">+ getValues()</text>
<text text-anchor="start" x="8" y="-164.18" font-family="Monaco" font-size="10.00">+ getValues()</text>
<text text-anchor="start" x="8" y="-150.845" font-family="Monaco" font-size="10.00">+ setValue()</text>
<text text-anchor="start" x="8" y="-137.51" font-family="Monaco" font-size="10.00">+ setValues()</text>
<text text-anchor="start" x="8" y="-124.175" font-family="Monaco" font-size="10.00">+ setValues()</text>
</a>
</g>
</g>
<!-- Node1&#45;&gt;Node12 -->
<g id="edge11" class="edge"><title>Node1&#45;&gt;Node12</title>
<path fill="none" stroke="midnightblue" d="M265.358,-311.106C245.238,-298.768 224.265,-285.536 205.015,-272.689 202.049,-270.71 199.049,-268.684 196.032,-266.623"/>
<polygon fill="none" stroke="midnightblue" points="263.563,-314.111 273.921,-316.336 267.211,-308.137 263.563,-314.111"/>
</g>
<!-- Node13 -->
<g id="node13" class="node"><title>Node13</title>
<g id="a_node13"><a xlink:href="class_hydro_couple_1_1_spatio_temporal_1_1_i_time_t_i_n_component_data_item.html" target="_top" xlink:title="The ITINComponentItem class. ">
<polygon fill="none" stroke="black" points="528,-114.84 528,-272.189 724.029,-272.189 724.029,-114.84 528,-114.84"/>
<text text-anchor="start" x="536" y="-260.189" font-family="Monaco" font-size="10.00">HydroCouple::SpatioTemporal</text>
<text text-anchor="middle" x="626.015" y="-246.854" font-family="Monaco" font-size="10.00">::ITimeTINComponentDataItem</text>
<polyline fill="none" stroke="black" points="528,-237.52 724.029,-237.52 "/>
<text text-anchor="middle" x="626.015" y="-225.52" font-family="Monaco" font-size="10.00"> </text>
<polyline fill="none" stroke="black" points="528,-216.185 724.029,-216.185 "/>
<text text-anchor="start" x="536" y="-204.185" font-family="Monaco" font-size="10.00">+ ~ITimeTINComponentDataItem()</text>
<text text-anchor="start" x="536" y="-190.85" font-family="Monaco" font-size="10.00">+ getValue()</text>
<text text-anchor="start" x="536" y="-177.515" font-family="Monaco" font-size="10.00">+ getValues()</text>
<text text-anchor="start" x="536" y="-164.18" font-family="Monaco" font-size="10.00">+ getValues()</text>
<text text-anchor="start" x="536" y="-150.845" font-family="Monaco" font-size="10.00">+ setValue()</text>
<text text-anchor="start" x="536" y="-137.51" font-family="Monaco" font-size="10.00">+ setValues()</text>
<text text-anchor="start" x="536" y="-124.175" font-family="Monaco" font-size="10.00">+ setValues()</text>
</a>
</g>
</g>
<!-- Node1&#45;&gt;Node13 -->
<g id="edge14" class="edge"><title>Node1&#45;&gt;Node13</title>
<path fill="none" stroke="midnightblue" d="M455.081,-312.578C476.359,-299.871 498.651,-286.114 519.015,-272.689 521.896,-270.79 524.807,-268.845 527.734,-266.866"/>
<polygon fill="none" stroke="midnightblue" points="453.159,-309.649 446.351,-317.767 456.736,-315.666 453.159,-309.649"/>
</g>
<!-- Node2 -->
<g id="node2" class="node"><title>Node2</title>
<g id="a_node2"><a xlink:href="class_hydro_couple_1_1_i_component_data_item.html" target="_top" xlink:title="IComponentItem is a fundamental unit of data for a component. ">
<polygon fill="none" stroke="black" points="259,-463.534 259,-647.554 461.03,-647.554 461.03,-463.534 259,-463.534"/>
<text text-anchor="middle" x="360.015" y="-635.554" font-family="Monaco" font-size="10.00">HydroCouple::IComponentDataItem</text>
<polyline fill="none" stroke="black" points="259,-626.219 461.03,-626.219 "/>
<text text-anchor="middle" x="360.015" y="-614.219" font-family="Monaco" font-size="10.00"> </text>
<polyline fill="none" stroke="black" points="259,-604.884 461.03,-604.884 "/>
<text text-anchor="start" x="267" y="-592.884" font-family="Monaco" font-size="10.00">+ ~IComponentDataItem()</text>
<text text-anchor="start" x="267" y="-579.549" font-family="Monaco" font-size="10.00">+ modelComponent()</text>
<text text-anchor="start" x="267" y="-566.214" font-family="Monaco" font-size="10.00">+ dimensions()</text>
<text text-anchor="start" x="267" y="-552.879" font-family="Monaco" font-size="10.00">+ valueDefinition()</text>
<text text-anchor="start" x="267" y="-539.544" font-family="Monaco" font-size="10.00">+ getValue()</text>
<text text-anchor="start" x="267" y="-526.209" font-family="Monaco" font-size="10.00">+ getValues()</text>
<text text-anchor="start" x="267" y="-512.874" font-family="Monaco" font-size="10.00">+ getValues()</text>
<text text-anchor="start" x="267" y="-499.539" font-family="Monaco" font-size="10.00">+ setValue()</text>
<text text-anchor="start" x="267" y="-486.204" font-family="Monaco" font-size="10.00">+ setValues()</text>
<text text-anchor="start" x="267" y="-472.869" font-family="Monaco" font-size="10.00">+ setValues()</text>
</a>
</g>
</g>
<!-- Node2&#45;&gt;Node1 -->
<g id="edge1" class="edge"><title>Node2&#45;&gt;Node1</title>
<path fill="none" stroke="midnightblue" d="M360.015,-453.112C360.015,-444.083 360.015,-435.163 360.015,-426.698"/>
<polygon fill="none" stroke="midnightblue" points="356.515,-453.335 360.015,-463.335 363.515,-453.335 356.515,-453.335"/>
</g>
<!-- Node3 -->
<g id="node3" class="node"><title>Node3</title>
<g id="a_node3"><a xlink:href="class_hydro_couple_1_1_i_identity.html" target="_top" xlink:title="IIdentity interface class defines a method to get the Id of an HydroCouple entity. ">
<polygon fill="none" stroke="black" points="286.004,-684.554 286.004,-761.894 434.025,-761.894 434.025,-684.554 286.004,-684.554"/>
<text text-anchor="middle" x="360.015" y="-749.894" font-family="Monaco" font-size="10.00">HydroCouple::IIdentity</text>
<polyline fill="none" stroke="black" points="286.004,-740.559 434.025,-740.559 "/>
<text text-anchor="middle" x="360.015" y="-728.559" font-family="Monaco" font-size="10.00"> </text>
<polyline fill="none" stroke="black" points="286.004,-719.224 434.025,-719.224 "/>
<text text-anchor="start" x="294.004" y="-707.224" font-family="Monaco" font-size="10.00">+ ~IIdentity()</text>
<text text-anchor="start" x="294.004" y="-693.889" font-family="Monaco" font-size="10.00">+ id()</text>
</a>
</g>
</g>
<!-- Node3&#45;&gt;Node2 -->
<g id="edge2" class="edge"><title>Node3&#45;&gt;Node2</title>
<path fill="none" stroke="midnightblue" d="M360.015,-673.971C360.015,-665.618 360.015,-656.693 360.015,-647.635"/>
<polygon fill="none" stroke="midnightblue" points="356.515,-674.213 360.015,-684.213 363.515,-674.213 356.515,-674.213"/>
</g>
<!-- Node4 -->
<g id="node4" class="node"><title>Node4</title>
<g id="a_node4"><a xlink:href="class_hydro_couple_1_1_i_description.html" target="_top" xlink:title="IDescription interface class provides descriptive information on a HydroCouple object. ">
<polygon fill="none" stroke="black" points="277.002,-798.894 277.002,-916.238 443.027,-916.238 443.027,-798.894 277.002,-798.894"/>
<text text-anchor="middle" x="360.015" y="-904.238" font-family="Monaco" font-size="10.00">HydroCouple::IDescription</text>
<polyline fill="none" stroke="black" points="277.002,-894.903 443.027,-894.903 "/>
<text text-anchor="middle" x="360.015" y="-882.903" font-family="Monaco" font-size="10.00"> </text>
<polyline fill="none" stroke="black" points="277.002,-873.568 443.027,-873.568 "/>
<text text-anchor="start" x="285.002" y="-861.568" font-family="Monaco" font-size="10.00">+ ~IDescription()</text>
<text text-anchor="start" x="285.002" y="-848.233" font-family="Monaco" font-size="10.00">+ caption()</text>
<text text-anchor="start" x="285.002" y="-834.898" font-family="Monaco" font-size="10.00">+ setCaption()</text>
<text text-anchor="start" x="285.002" y="-821.563" font-family="Monaco" font-size="10.00">+ description()</text>
<text text-anchor="start" x="285.002" y="-808.229" font-family="Monaco" font-size="10.00">+ setDescription()</text>
</a>
</g>
</g>
<!-- Node4&#45;&gt;Node3 -->
<g id="edge3" class="edge"><title>Node4&#45;&gt;Node3</title>
<path fill="none" stroke="midnightblue" d="M360.015,-788.328C360.015,-779.289 360.015,-770.301 360.015,-762.041"/>
<polygon fill="none" stroke="midnightblue" points="356.515,-788.519 360.015,-798.519 363.515,-788.519 356.515,-788.519"/>
</g>
<!-- Node5 -->
<g id="node5" class="node"><title>Node5</title>
<g id="a_node5"><a xlink:href="class_hydro_couple_1_1_i_property_changed.html" target="_top" xlink:title="IPropertyChanged interface is used to emit signal/event when a property of an object changes...">
<polygon fill="none" stroke="black" points="265,-953.238 265,-1017.24 455.029,-1017.24 455.029,-953.238 265,-953.238"/>
<text text-anchor="middle" x="360.015" y="-1005.24" font-family="Monaco" font-size="10.00">HydroCouple::IPropertyChanged</text>
<polyline fill="none" stroke="black" points="265,-995.908 455.029,-995.908 "/>
<text text-anchor="middle" x="360.015" y="-983.908" font-family="Monaco" font-size="10.00"> </text>
<polyline fill="none" stroke="black" points="265,-974.573 455.029,-974.573 "/>
<text text-anchor="start" x="273" y="-962.573" font-family="Monaco" font-size="10.00">+ ~IPropertyChanged()</text>
</a>
</g>
</g>
<!-- Node5&#45;&gt;Node4 -->
<g id="edge4" class="edge"><title>Node5&#45;&gt;Node4</title>
<path fill="none" stroke="midnightblue" d="M360.015,-942.918C360.015,-934.533 360.015,-925.566 360.015,-916.724"/>
<polygon fill="none" stroke="midnightblue" points="356.515,-943.175 360.015,-953.175 363.515,-943.175 356.515,-943.175"/>
</g>
<!-- Node7 -->
<g id="node7" class="node"><title>Node7</title>
<g id="a_node7"><a xlink:href="class_hydro_couple_1_1_spatial_1_1_i_t_i_n_only_argument.html" target="_top" xlink:title="The ITINArgument class. ">
<polygon fill="none" stroke="black" points="12.0044,-0.5 12.0044,-77.8398 154.025,-77.8398 154.025,-0.5 12.0044,-0.5"/>
<text text-anchor="start" x="20.0044" y="-65.8398" font-family="Monaco" font-size="10.00">HydroCouple::Spatial</text>
<text text-anchor="middle" x="83.0146" y="-52.5049" font-family="Monaco" font-size="10.00">::ITINOnlyArgument</text>
<polyline fill="none" stroke="black" points="12.0044,-43.1699 154.025,-43.1699 "/>
<text text-anchor="middle" x="83.0146" y="-31.1699" font-family="Monaco" font-size="10.00"> </text>
<polyline fill="none" stroke="black" points="12.0044,-21.835 154.025,-21.835 "/>
<text text-anchor="start" x="20.0044" y="-9.83496" font-family="Monaco" font-size="10.00">+ ~ITINOnlyArgument()</text>
</a>
</g>
</g>
<!-- Node6&#45;&gt;Node7 -->
<g id="edge6" class="edge"><title>Node6&#45;&gt;Node7</title>
<path fill="none" stroke="midnightblue" d="M241.304,-147.383C230.066,-136.01 217.512,-124.233 205.015,-114.34 188.592,-101.339 169.719,-88.8404 151.802,-77.9281"/>
<polygon fill="none" stroke="midnightblue" points="239.007,-150.041 248.485,-154.775 244.027,-145.164 239.007,-150.041"/>
</g>
<!-- Node8 -->
<g id="node8" class="node"><title>Node8</title>
<g id="a_node8"><a xlink:href="class_hydro_couple_1_1_spatio_temporal_1_1_i_time_t_i_n_argument.html" target="_top" xlink:title="The ITimeTINArgument class. ">
<polygon fill="none" stroke="black" points="356.001,-0.5 356.001,-77.8398 534.028,-77.8398 534.028,-0.5 356.001,-0.5"/>
<text text-anchor="start" x="364.001" y="-65.8398" font-family="Monaco" font-size="10.00">HydroCouple::SpatioTemporal</text>
<text text-anchor="middle" x="445.015" y="-52.5049" font-family="Monaco" font-size="10.00">::ITimeTINArgument</text>
<polyline fill="none" stroke="black" points="356.001,-43.1699 534.028,-43.1699 "/>
<text text-anchor="middle" x="445.015" y="-31.1699" font-family="Monaco" font-size="10.00"> </text>
<polyline fill="none" stroke="black" points="356.001,-21.835 534.028,-21.835 "/>
<text text-anchor="start" x="364.001" y="-9.83496" font-family="Monaco" font-size="10.00">+ ~ITimeTINArgument()</text>
</a>
</g>
</g>
<!-- Node6&#45;&gt;Node8 -->
<g id="edge7" class="edge"><title>Node6&#45;&gt;Node8</title>
<path fill="none" stroke="midnightblue" d="M325.53,-147.084C336.305,-136.185 347.94,-124.705 359.015,-114.34 371.97,-102.214 386.446,-89.4474 399.771,-77.9888"/>
<polygon fill="none" stroke="midnightblue" points="322.74,-144.93 318.226,-154.516 327.732,-149.837 322.74,-144.93"/>
</g>
<!-- Node10 -->
<g id="node10" class="node"><title>Node10</title>
<g id="a_node10"><a xlink:href="class_hydro_couple_1_1_spatial_1_1_i_t_i_n_only_exchange_item.html" target="_top" xlink:title="An ITINOnlyExchangeItem class with an TIN component. ">
<polygon fill="none" stroke="black" points="172.002,-0.5 172.002,-77.8398 338.027,-77.8398 338.027,-0.5 172.002,-0.5"/>
<text text-anchor="start" x="180.002" y="-65.8398" font-family="Monaco" font-size="10.00">HydroCouple::Spatial</text>
<text text-anchor="middle" x="255.015" y="-52.5049" font-family="Monaco" font-size="10.00">::ITINOnlyExchangeItem</text>
<polyline fill="none" stroke="black" points="172.002,-43.1699 338.027,-43.1699 "/>
<text text-anchor="middle" x="255.015" y="-31.1699" font-family="Monaco" font-size="10.00"> </text>
<polyline fill="none" stroke="black" points="172.002,-21.835 338.027,-21.835 "/>
<text text-anchor="start" x="180.002" y="-9.83496" font-family="Monaco" font-size="10.00">+ ~ITINOnlyExchangeItem()</text>
</a>
</g>
</g>
<!-- Node9&#45;&gt;Node10 -->
<g id="edge9" class="edge"><title>Node9&#45;&gt;Node10</title>
<path fill="none" stroke="midnightblue" d="M395.32,-147.438C383.834,-136.259 371.232,-124.562 359.015,-114.34 344.047,-101.817 327.08,-89.1395 311.258,-77.8933"/>
<polygon fill="none" stroke="midnightblue" points="393.107,-150.171 402.691,-154.688 398.016,-145.18 393.107,-150.171"/>
</g>
<!-- Node11 -->
<g id="node11" class="node"><title>Node11</title>
<g id="a_node11"><a xlink:href="class_hydro_couple_1_1_spatio_temporal_1_1_i_time_t_i_n_exchange_item.html" target="_top" xlink:title="The ITimeTINExchangeItem class. ">
<polygon fill="none" stroke="black" points="552.001,-0.5 552.001,-77.8398 730.028,-77.8398 730.028,-0.5 552.001,-0.5"/>
<text text-anchor="start" x="560.001" y="-65.8398" font-family="Monaco" font-size="10.00">HydroCouple::SpatioTemporal</text>
<text text-anchor="middle" x="641.015" y="-52.5049" font-family="Monaco" font-size="10.00">::ITimeTINExchangeItem</text>
<polyline fill="none" stroke="black" points="552.001,-43.1699 730.028,-43.1699 "/>
<text text-anchor="middle" x="641.015" y="-31.1699" font-family="Monaco" font-size="10.00"> </text>
<polyline fill="none" stroke="black" points="552.001,-21.835 730.028,-21.835 "/>
<text text-anchor="start" x="560.001" y="-9.83496" font-family="Monaco" font-size="10.00">+ ~ITimeTINExchangeItem()</text>
</a>
</g>
</g>
<!-- Node9&#45;&gt;Node11 -->
<g id="edge10" class="edge"><title>Node9&#45;&gt;Node11</title>
<path fill="none" stroke="midnightblue" d="M481.858,-147.143C493.443,-135.873 506.305,-124.205 519.015,-114.34 535.659,-101.421 554.7,-88.9041 572.712,-77.9467"/>
<polygon fill="none" stroke="midnightblue" points="479.097,-144.951 474.444,-154.469 484.017,-149.93 479.097,-144.951"/>
</g>
<!-- Node12&#45;&gt;Node7 -->
<g id="edge12" class="edge"><title>Node12&#45;&gt;Node7</title>
<path fill="none" stroke="midnightblue" d="M89.3435,-104.447C88.4322,-95.1928 87.5447,-86.1783 86.7364,-77.9688"/>
<polygon fill="none" stroke="midnightblue" points="85.8758,-104.948 90.3389,-114.557 92.8421,-104.262 85.8758,-104.948"/>
</g>
<!-- Node12&#45;&gt;Node10 -->
<g id="edge13" class="edge"><title>Node12&#45;&gt;Node10</title>
<path fill="none" stroke="midnightblue" d="M185.721,-107.408C196.324,-97.1198 206.7,-87.0517 216.061,-77.9688"/>
<polygon fill="none" stroke="midnightblue" points="183.094,-105.081 178.354,-114.557 187.968,-110.105 183.094,-105.081"/>
</g>
<!-- Node13&#45;&gt;Node8 -->
<g id="edge15" class="edge"><title>Node13&#45;&gt;Node8</title>
<path fill="none" stroke="midnightblue" d="M525.854,-108.211C513.357,-97.6928 501.109,-87.3836 490.077,-78.0982"/>
<polygon fill="none" stroke="midnightblue" points="523.754,-111.019 533.659,-114.78 528.262,-105.663 523.754,-111.019"/>
</g>
<!-- Node13&#45;&gt;Node11 -->
<g id="edge16" class="edge"><title>Node13&#45;&gt;Node11</title>
<path fill="none" stroke="midnightblue" d="M634.686,-104.447C635.597,-95.1928 636.485,-86.1783 637.293,-77.9688"/>
<polygon fill="none" stroke="midnightblue" points="631.187,-104.262 633.69,-114.557 638.154,-104.948 631.187,-104.262"/>
</g>
</g>
</svg>
