<?xml version="1.0" encoding="UTF-8" standalone="no"?>
<!DOCTYPE svg PUBLIC "-//W3C//DTD SVG 1.1//EN"
 "http://www.w3.org/Graphics/SVG/1.1/DTD/svg11.dtd">
<!-- Generated by graphviz version 2.38.0 (20140413.2041)
 -->
<!-- Title: HydroCouple::SpatioTemporal::ITimeGeometryArgument Pages: 1 -->
<svg width="475pt" height="809pt"
 viewBox="0.00 0.00 474.92 809.00" xmlns="http://www.w3.org/2000/svg" xmlns:xlink="http://www.w3.org/1999/xlink">
<g id="graph0" class="graph" transform="scale(1 1) rotate(0) translate(4 805)">
<title>HydroCouple::SpatioTemporal::ITimeGeometryArgument</title>
<polygon fill="white" stroke="none" points="-4,4 -4,-805 470.925,-805 470.925,4 -4,4"/>
<!-- Node1 -->
<g id="node1" class="node"><title>Node1</title>
<polygon fill="#bfbfbf" stroke="black" points="130.823,-0.5 130.823,-64.5 280.226,-64.5 280.226,-0.5 130.823,-0.5"/>
<text text-anchor="start" x="138.823" y="-52.5" font-family="Helvetica,sans-Serif" font-size="10.00">HydroCouple::SpatioTemporal</text>
<text text-anchor="middle" x="205.524" y="-42.5" font-family="Helvetica,sans-Serif" font-size="10.00">::ITimeGeometryArgument</text>
<polyline fill="none" stroke="black" points="130.823,-36.5 280.226,-36.5 "/>
<text text-anchor="middle" x="205.524" y="-24.5" font-family="Helvetica,sans-Serif" font-size="10.00"> </text>
<polyline fill="none" stroke="black" points="130.823,-18.5 280.226,-18.5 "/>
<text text-anchor="start" x="138.823" y="-6.5" font-family="Helvetica,sans-Serif" font-size="10.00">+ ~ITimeGeometryArgument()</text>
</g>
<!-- Node2 -->
<g id="node2" class="node"><title>Node2</title>
<g id="a_node2"><a xlink:href="class_hydro_couple_1_1_temporal_1_1_i_time_argument.html" target="_top" xlink:title="The ITimeArgument class. ">
<polygon fill="white" stroke="black" points="0,-101.5 0,-175.5 121.049,-175.5 121.049,-101.5 0,-101.5"/>
<text text-anchor="start" x="8" y="-163.5" font-family="Helvetica,sans-Serif" font-size="10.00">HydroCouple::Temporal</text>
<text text-anchor="middle" x="60.5244" y="-153.5" font-family="Helvetica,sans-Serif" font-size="10.00">::ITimeArgument</text>
<polyline fill="none" stroke="black" points="0,-147.5 121.049,-147.5 "/>
<text text-anchor="middle" x="60.5244" y="-135.5" font-family="Helvetica,sans-Serif" font-size="10.00"> </text>
<polyline fill="none" stroke="black" points="0,-129.5 121.049,-129.5 "/>
<text text-anchor="start" x="8" y="-117.5" font-family="Helvetica,sans-Serif" font-size="10.00">+ ~ITimeArgument()</text>
<text text-anchor="start" x="8" y="-107.5" font-family="Helvetica,sans-Serif" font-size="10.00">+ setTimes()</text>
</a>
</g>
</g>
<!-- Node2&#45;&gt;Node1 -->
<g id="edge1" class="edge"><title>Node2&#45;&gt;Node1</title>
<path fill="none" stroke="midnightblue" d="M119.167,-95.4394C133.501,-85.1584 148.586,-74.3389 162.066,-64.6704"/>
<polygon fill="none" stroke="midnightblue" points="116.918,-92.7453 110.831,-101.418 120.997,-98.4335 116.918,-92.7453"/>
</g>
<!-- Node3 -->
<g id="node3" class="node"><title>Node3</title>
<g id="a_node3"><a xlink:href="class_hydro_couple_1_1_i_argument.html" target="_top" xlink:title="IArgument interface class used to set the arguments for components. They can be complex or simple mul...">
<polygon fill="white" stroke="black" points="1.49756,-212.5 1.49756,-366.5 127.551,-366.5 127.551,-212.5 1.49756,-212.5"/>
<text text-anchor="middle" x="64.5244" y="-354.5" font-family="Helvetica,sans-Serif" font-size="10.00">HydroCouple::IArgument</text>
<polyline fill="none" stroke="black" points="1.49756,-348.5 127.551,-348.5 "/>
<text text-anchor="middle" x="64.5244" y="-336.5" font-family="Helvetica,sans-Serif" font-size="10.00"> </text>
<polyline fill="none" stroke="black" points="1.49756,-330.5 127.551,-330.5 "/>
<text text-anchor="start" x="9.49756" y="-318.5" font-family="Helvetica,sans-Serif" font-size="10.00">+ ~IArgument()</text>
<text text-anchor="start" x="9.49756" y="-308.5" font-family="Helvetica,sans-Serif" font-size="10.00">+ isOptional()</text>
<text text-anchor="start" x="9.49756" y="-298.5" font-family="Helvetica,sans-Serif" font-size="10.00">+ isReadOnly()</text>
<text text-anchor="start" x="9.49756" y="-288.5" font-family="Helvetica,sans-Serif" font-size="10.00">+ clone()</text>
<text text-anchor="start" x="9.49756" y="-278.5" font-family="Helvetica,sans-Serif" font-size="10.00">+ valueSets()</text>
<text text-anchor="start" x="9.49756" y="-268.5" font-family="Helvetica,sans-Serif" font-size="10.00">+ toString()</text>
<text text-anchor="start" x="9.49756" y="-258.5" font-family="Helvetica,sans-Serif" font-size="10.00">+ fileExtensions()</text>
<text text-anchor="start" x="9.49756" y="-248.5" font-family="Helvetica,sans-Serif" font-size="10.00">+ canReadFromFile()</text>
<text text-anchor="start" x="9.49756" y="-238.5" font-family="Helvetica,sans-Serif" font-size="10.00">+ canReadFromString()</text>
<text text-anchor="start" x="9.49756" y="-228.5" font-family="Helvetica,sans-Serif" font-size="10.00">+ readValues()</text>
<text text-anchor="start" x="9.49756" y="-218.5" font-family="Helvetica,sans-Serif" font-size="10.00">+ readValues()</text>
</a>
</g>
</g>
<!-- Node3&#45;&gt;Node2 -->
<g id="edge2" class="edge"><title>Node3&#45;&gt;Node2</title>
<path fill="none" stroke="midnightblue" d="M62.206,-202.14C61.9576,-192.885 61.7158,-183.88 61.4967,-175.717"/>
<polygon fill="none" stroke="midnightblue" points="58.7103,-202.352 62.4775,-212.254 65.7078,-202.164 58.7103,-202.352"/>
</g>
<!-- Node9 -->
<g id="node9" class="node"><title>Node9</title>
<g id="a_node9"><a xlink:href="class_hydro_couple_1_1_spatial_1_1_i_geometry_argument.html" target="_top" xlink:title="An IGeometryArgument class is an IArgument class with a geometry component. ">
<polygon fill="white" stroke="black" points="139.309,-101.5 139.309,-175.5 271.74,-175.5 271.74,-101.5 139.309,-101.5"/>
<text text-anchor="start" x="147.309" y="-163.5" font-family="Helvetica,sans-Serif" font-size="10.00">HydroCouple::Spatial</text>
<text text-anchor="middle" x="205.524" y="-153.5" font-family="Helvetica,sans-Serif" font-size="10.00">::IGeometryArgument</text>
<polyline fill="none" stroke="black" points="139.309,-147.5 271.74,-147.5 "/>
<text text-anchor="middle" x="205.524" y="-135.5" font-family="Helvetica,sans-Serif" font-size="10.00"> </text>
<polyline fill="none" stroke="black" points="139.309,-129.5 271.74,-129.5 "/>
<text text-anchor="start" x="147.309" y="-117.5" font-family="Helvetica,sans-Serif" font-size="10.00">+ ~IGeometryArgument()</text>
<text text-anchor="start" x="147.309" y="-107.5" font-family="Helvetica,sans-Serif" font-size="10.00">+ setGeometryCollection()</text>
</a>
</g>
</g>
<!-- Node3&#45;&gt;Node9 -->
<g id="edge10" class="edge"><title>Node3&#45;&gt;Node9</title>
<path fill="none" stroke="midnightblue" d="M134.623,-214.009C135.26,-213.336 135.894,-212.666 136.524,-212 147.752,-200.137 160.037,-187.211 171.09,-175.602"/>
<polygon fill="none" stroke="midnightblue" points="132.045,-211.641 127.719,-221.313 137.132,-216.45 132.045,-211.641"/>
</g>
<!-- Node4 -->
<g id="node4" class="node"><title>Node4</title>
<g id="a_node4"><a xlink:href="class_hydro_couple_1_1_i_component_item.html" target="_top" xlink:title="IComponentItem is a fundamental unit of data for a component. ">
<polygon fill="white" stroke="black" points="134.601,-403.5 134.601,-477.5 288.448,-477.5 288.448,-403.5 134.601,-403.5"/>
<text text-anchor="middle" x="211.524" y="-465.5" font-family="Helvetica,sans-Serif" font-size="10.00">HydroCouple::IComponentItem</text>
<polyline fill="none" stroke="black" points="134.601,-459.5 288.448,-459.5 "/>
<text text-anchor="middle" x="211.524" y="-447.5" font-family="Helvetica,sans-Serif" font-size="10.00"> </text>
<polyline fill="none" stroke="black" points="134.601,-441.5 288.448,-441.5 "/>
<text text-anchor="start" x="142.601" y="-429.5" font-family="Helvetica,sans-Serif" font-size="10.00">+ ~IComponentItem()</text>
<text text-anchor="start" x="142.601" y="-419.5" font-family="Helvetica,sans-Serif" font-size="10.00">+ modelComponent()</text>
<text text-anchor="start" x="142.601" y="-409.5" font-family="Helvetica,sans-Serif" font-size="10.00">+ dimensions()</text>
</a>
</g>
</g>
<!-- Node4&#45;&gt;Node3 -->
<g id="edge3" class="edge"><title>Node4&#45;&gt;Node3</title>
<path fill="none" stroke="midnightblue" d="M166.018,-396.178C156.205,-386.651 145.951,-376.553 136.524,-367 133.578,-364.014 130.58,-360.947 127.563,-357.838"/>
<polygon fill="none" stroke="midnightblue" points="163.793,-398.896 173.414,-403.333 168.66,-393.865 163.793,-398.896"/>
</g>
<!-- Node8 -->
<g id="node8" class="node"><title>Node8</title>
<g id="a_node8"><a xlink:href="class_hydro_couple_1_1_temporal_1_1_i_time_component_item.html" target="_top" xlink:title="ITimeComponentItem is an IComponentItem with a temporal attribute. ">
<polygon fill="white" stroke="black" points="145.075,-237.5 145.075,-341.5 277.974,-341.5 277.974,-237.5 145.075,-237.5"/>
<text text-anchor="start" x="153.075" y="-329.5" font-family="Helvetica,sans-Serif" font-size="10.00">HydroCouple::Temporal</text>
<text text-anchor="middle" x="211.524" y="-319.5" font-family="Helvetica,sans-Serif" font-size="10.00">::ITimeComponentItem</text>
<polyline fill="none" stroke="black" points="145.075,-313.5 277.974,-313.5 "/>
<text text-anchor="middle" x="211.524" y="-301.5" font-family="Helvetica,sans-Serif" font-size="10.00"> </text>
<polyline fill="none" stroke="black" points="145.075,-295.5 277.974,-295.5 "/>
<text text-anchor="start" x="153.075" y="-283.5" font-family="Helvetica,sans-Serif" font-size="10.00">+ ~ITimeComponentItem()</text>
<text text-anchor="start" x="153.075" y="-273.5" font-family="Helvetica,sans-Serif" font-size="10.00">+ timeDimension()</text>
<text text-anchor="start" x="153.075" y="-263.5" font-family="Helvetica,sans-Serif" font-size="10.00">+ times()</text>
<text text-anchor="start" x="153.075" y="-253.5" font-family="Helvetica,sans-Serif" font-size="10.00">+ timeSpan()</text>
<text text-anchor="start" x="153.075" y="-243.5" font-family="Helvetica,sans-Serif" font-size="10.00">+ time()</text>
</a>
</g>
</g>
<!-- Node4&#45;&gt;Node8 -->
<g id="edge8" class="edge"><title>Node4&#45;&gt;Node8</title>
<path fill="none" stroke="midnightblue" d="M211.524,-393.067C211.524,-376.775 211.524,-358.385 211.524,-341.722"/>
<polygon fill="none" stroke="midnightblue" points="208.025,-393.431 211.524,-403.431 215.025,-393.431 208.025,-393.431"/>
</g>
<!-- Node10 -->
<g id="node10" class="node"><title>Node10</title>
<g id="a_node10"><a xlink:href="class_hydro_couple_1_1_spatial_1_1_i_geometry_component_item.html" target="_top" xlink:title="IGeometryComponentItem represents IGeometryCollection IComponentItem. ">
<polygon fill="white" stroke="black" points="296.052,-242.5 296.052,-336.5 450.997,-336.5 450.997,-242.5 296.052,-242.5"/>
<text text-anchor="start" x="304.052" y="-324.5" font-family="Helvetica,sans-Serif" font-size="10.00">HydroCouple::Spatial</text>
<text text-anchor="middle" x="373.524" y="-314.5" font-family="Helvetica,sans-Serif" font-size="10.00">::IGeometryComponentItem</text>
<polyline fill="none" stroke="black" points="296.052,-308.5 450.997,-308.5 "/>
<text text-anchor="middle" x="373.524" y="-296.5" font-family="Helvetica,sans-Serif" font-size="10.00"> </text>
<polyline fill="none" stroke="black" points="296.052,-290.5 450.997,-290.5 "/>
<text text-anchor="start" x="304.052" y="-278.5" font-family="Helvetica,sans-Serif" font-size="10.00">+ ~IGeometryComponentItem()</text>
<text text-anchor="start" x="304.052" y="-268.5" font-family="Helvetica,sans-Serif" font-size="10.00">+ geometryDimension()</text>
<text text-anchor="start" x="304.052" y="-258.5" font-family="Helvetica,sans-Serif" font-size="10.00">+ geometryCollection()</text>
<text text-anchor="start" x="304.052" y="-248.5" font-family="Helvetica,sans-Serif" font-size="10.00">+ geometry()</text>
</a>
</g>
</g>
<!-- Node4&#45;&gt;Node10 -->
<g id="edge12" class="edge"><title>Node4&#45;&gt;Node10</title>
<path fill="none" stroke="midnightblue" d="M258.355,-396.427C278.712,-377.704 302.594,-355.738 323.317,-336.678"/>
<polygon fill="none" stroke="midnightblue" points="255.731,-394.086 250.74,-403.431 260.47,-399.238 255.731,-394.086"/>
</g>
<!-- Node5 -->
<g id="node5" class="node"><title>Node5</title>
<g id="a_node5"><a xlink:href="class_hydro_couple_1_1_i_identity.html" target="_top" xlink:title="IIdentity interface class defines a method to get the Id of an HydroCouple entity. ">
<polygon fill="white" stroke="black" points="154.054,-514.5 154.054,-578.5 268.995,-578.5 268.995,-514.5 154.054,-514.5"/>
<text text-anchor="middle" x="211.524" y="-566.5" font-family="Helvetica,sans-Serif" font-size="10.00">HydroCouple::IIdentity</text>
<polyline fill="none" stroke="black" points="154.054,-560.5 268.995,-560.5 "/>
<text text-anchor="middle" x="211.524" y="-548.5" font-family="Helvetica,sans-Serif" font-size="10.00"> </text>
<polyline fill="none" stroke="black" points="154.054,-542.5 268.995,-542.5 "/>
<text text-anchor="start" x="162.054" y="-530.5" font-family="Helvetica,sans-Serif" font-size="10.00">+ ~IIdentity()</text>
<text text-anchor="start" x="162.054" y="-520.5" font-family="Helvetica,sans-Serif" font-size="10.00">+ id()</text>
</a>
</g>
</g>
<!-- Node5&#45;&gt;Node4 -->
<g id="edge4" class="edge"><title>Node5&#45;&gt;Node4</title>
<path fill="none" stroke="midnightblue" d="M211.524,-504.282C211.524,-495.531 211.524,-486.353 211.524,-477.801"/>
<polygon fill="none" stroke="midnightblue" points="208.025,-504.297 211.524,-514.297 215.025,-504.297 208.025,-504.297"/>
</g>
<!-- Node6 -->
<g id="node6" class="node"><title>Node6</title>
<g id="a_node6"><a xlink:href="class_hydro_couple_1_1_i_description.html" target="_top" xlink:title="IDescription interface class provides descriptive information on a HydroCouple object. ">
<polygon fill="white" stroke="black" points="145.165,-615.5 145.165,-709.5 277.884,-709.5 277.884,-615.5 145.165,-615.5"/>
<text text-anchor="middle" x="211.524" y="-697.5" font-family="Helvetica,sans-Serif" font-size="10.00">HydroCouple::IDescription</text>
<polyline fill="none" stroke="black" points="145.165,-691.5 277.884,-691.5 "/>
<text text-anchor="middle" x="211.524" y="-679.5" font-family="Helvetica,sans-Serif" font-size="10.00"> </text>
<polyline fill="none" stroke="black" points="145.165,-673.5 277.884,-673.5 "/>
<text text-anchor="start" x="153.165" y="-661.5" font-family="Helvetica,sans-Serif" font-size="10.00">+ ~IDescription()</text>
<text text-anchor="start" x="153.165" y="-651.5" font-family="Helvetica,sans-Serif" font-size="10.00">+ getCaption()</text>
<text text-anchor="start" x="153.165" y="-641.5" font-family="Helvetica,sans-Serif" font-size="10.00">+ setCaption()</text>
<text text-anchor="start" x="153.165" y="-631.5" font-family="Helvetica,sans-Serif" font-size="10.00">+ getDescription()</text>
<text text-anchor="start" x="153.165" y="-621.5" font-family="Helvetica,sans-Serif" font-size="10.00">+ setDescription()</text>
</a>
</g>
</g>
<!-- Node6&#45;&gt;Node5 -->
<g id="edge5" class="edge"><title>Node6&#45;&gt;Node5</title>
<path fill="none" stroke="midnightblue" d="M211.524,-605.212C211.524,-596.081 211.524,-586.926 211.524,-578.684"/>
<polygon fill="none" stroke="midnightblue" points="208.025,-605.46 211.524,-615.46 215.025,-605.46 208.025,-605.46"/>
</g>
<!-- Node7 -->
<g id="node7" class="node"><title>Node7</title>
<g id="a_node7"><a xlink:href="class_hydro_couple_1_1_i_property_changed.html" target="_top" xlink:title="IPropertyChanged interface is used to emit signal/event when a property of an object changes...">
<polygon fill="white" stroke="black" points="130.983,-746.5 130.983,-800.5 292.066,-800.5 292.066,-746.5 130.983,-746.5"/>
<text text-anchor="middle" x="211.524" y="-788.5" font-family="Helvetica,sans-Serif" font-size="10.00">HydroCouple::IPropertyChanged</text>
<polyline fill="none" stroke="black" points="130.983,-782.5 292.066,-782.5 "/>
<text text-anchor="middle" x="211.524" y="-770.5" font-family="Helvetica,sans-Serif" font-size="10.00"> </text>
<polyline fill="none" stroke="black" points="130.983,-764.5 292.066,-764.5 "/>
<text text-anchor="start" x="138.983" y="-752.5" font-family="Helvetica,sans-Serif" font-size="10.00">+ ~IPropertyChanged()</text>
</a>
</g>
</g>
<!-- Node7&#45;&gt;Node6 -->
<g id="edge6" class="edge"><title>Node7&#45;&gt;Node6</title>
<path fill="none" stroke="midnightblue" d="M211.524,-736.141C211.524,-727.716 211.524,-718.639 211.524,-709.851"/>
<polygon fill="none" stroke="midnightblue" points="208.025,-736.392 211.524,-746.392 215.025,-736.392 208.025,-736.392"/>
</g>
<!-- Node8&#45;&gt;Node2 -->
<g id="edge7" class="edge"><title>Node8&#45;&gt;Node2</title>
<path fill="none" stroke="midnightblue" d="M154.626,-230.059C148.544,-223.933 142.425,-217.821 136.524,-212 124.451,-200.091 111.12,-187.266 99.038,-175.763"/>
<polygon fill="none" stroke="midnightblue" points="152.212,-232.595 161.735,-237.24 157.187,-227.67 152.212,-232.595"/>
</g>
<!-- Node11 -->
<g id="node11" class="node"><title>Node11</title>
<g id="a_node11"><a xlink:href="class_hydro_couple_1_1_spatio_temporal_1_1_i_time_geometry_component_item.html" target="_top" xlink:title="ITimeGeometryComponentItem represents an IComponentItem with both temporal and geometric components...">
<polygon fill="white" stroke="black" points="290.124,-106.5 290.124,-170.5 466.925,-170.5 466.925,-106.5 290.124,-106.5"/>
<text text-anchor="start" x="298.124" y="-158.5" font-family="Helvetica,sans-Serif" font-size="10.00">HydroCouple::SpatioTemporal</text>
<text text-anchor="middle" x="378.524" y="-148.5" font-family="Helvetica,sans-Serif" font-size="10.00">::ITimeGeometryComponentItem</text>
<polyline fill="none" stroke="black" points="290.124,-142.5 466.925,-142.5 "/>
<text text-anchor="middle" x="378.524" y="-130.5" font-family="Helvetica,sans-Serif" font-size="10.00"> </text>
<polyline fill="none" stroke="black" points="290.124,-124.5 466.925,-124.5 "/>
<text text-anchor="start" x="298.124" y="-112.5" font-family="Helvetica,sans-Serif" font-size="10.00">+ ~ITimeGeometryComponentItem()</text>
</a>
</g>
</g>
<!-- Node8&#45;&gt;Node11 -->
<g id="edge14" class="edge"><title>Node8&#45;&gt;Node11</title>
<path fill="none" stroke="midnightblue" d="M268.098,-230.125C274.549,-223.899 281.111,-217.747 287.524,-212 303.319,-197.845 321.466,-183.105 337.379,-170.641"/>
<polygon fill="none" stroke="midnightblue" points="265.306,-227.959 260.592,-237.447 270.194,-232.969 265.306,-227.959"/>
</g>
<!-- Node9&#45;&gt;Node1 -->
<g id="edge9" class="edge"><title>Node9&#45;&gt;Node1</title>
<path fill="none" stroke="midnightblue" d="M205.524,-91.38C205.524,-82.3468 205.524,-73.0739 205.524,-64.6704"/>
<polygon fill="none" stroke="midnightblue" points="202.025,-91.4177 205.524,-101.418 209.025,-91.4178 202.025,-91.4177"/>
</g>
<!-- Node10&#45;&gt;Node9 -->
<g id="edge11" class="edge"><title>Node10&#45;&gt;Node9</title>
<path fill="none" stroke="midnightblue" d="M313.806,-235.535C291.424,-215.685 266.527,-193.603 246.254,-175.624"/>
<polygon fill="none" stroke="midnightblue" points="311.485,-238.155 321.289,-242.172 316.13,-232.918 311.485,-238.155"/>
</g>
<!-- Node10&#45;&gt;Node11 -->
<g id="edge15" class="edge"><title>Node10&#45;&gt;Node11</title>
<path fill="none" stroke="midnightblue" d="M375.415,-232.146C376.114,-211.329 376.88,-188.5 377.477,-170.713"/>
<polygon fill="none" stroke="midnightblue" points="371.916,-232.06 375.079,-242.172 378.913,-232.295 371.916,-232.06"/>
</g>
<!-- Node11&#45;&gt;Node1 -->
<g id="edge13" class="edge"><title>Node11&#45;&gt;Node1</title>
<path fill="none" stroke="midnightblue" d="M317.95,-101.085C298.091,-89.147 276.224,-76.0013 257.095,-64.5021"/>
<polygon fill="none" stroke="midnightblue" points="316.245,-104.144 326.619,-106.297 319.851,-98.1446 316.245,-104.144"/>
</g>
</g>
</svg>
