<?xml version="1.0" encoding="UTF-8" standalone="no"?>
<!DOCTYPE svg PUBLIC "-//W3C//DTD SVG 1.1//EN"
 "http://www.w3.org/Graphics/SVG/1.1/DTD/svg11.dtd">
<!-- Generated by graphviz version 2.38.0 (20140413.2041)
 -->
<!-- Title: HydroCouple::Spatial::IRegularGrid2DArgument Pages: 1 -->
<svg width="382pt" height="885pt"
 viewBox="0.00 0.00 382.03 884.73" xmlns="http://www.w3.org/2000/svg" xmlns:xlink="http://www.w3.org/1999/xlink">
<g id="graph0" class="graph" transform="scale(1 1) rotate(0) translate(4 880.733)">
<title>HydroCouple::Spatial::IRegularGrid2DArgument</title>
<polygon fill="white" stroke="none" points="-4,4 -4,-880.733 378.026,-880.733 378.026,4 -4,4"/>
<!-- Node1 -->
<g id="node1" class="node"><title>Node1</title>
<polygon fill="#bfbfbf" stroke="black" points="82.9976,-0.5 82.9976,-104.51 261.024,-104.51 261.024,-0.5 82.9976,-0.5"/>
<text text-anchor="start" x="90.9976" y="-92.5098" font-family="Monaco" font-size="10.00">HydroCouple::Spatial</text>
<text text-anchor="middle" x="172.011" y="-79.1748" font-family="Monaco" font-size="10.00">::IRegularGrid2DArgument</text>
<polyline fill="none" stroke="black" points="82.9976,-69.8398 261.024,-69.8398 "/>
<text text-anchor="middle" x="172.011" y="-57.8398" font-family="Monaco" font-size="10.00"> </text>
<polyline fill="none" stroke="black" points="82.9976,-48.5049 261.024,-48.5049 "/>
<text text-anchor="start" x="90.9976" y="-36.5049" font-family="Monaco" font-size="10.00">+ ~IRegularGrid2DArgument()</text>
<text text-anchor="start" x="90.9976" y="-23.1699" font-family="Monaco" font-size="10.00">+ setGrid()</text>
<text text-anchor="start" x="90.9976" y="-9.83496" font-family="Monaco" font-size="10.00">+ regular2DValueSets()</text>
</g>
<!-- Node2 -->
<g id="node2" class="node"><title>Node2</title>
<g id="a_node2"><a xlink:href="class_hydro_couple_1_1_i_argument.html" target="_top" xlink:title="IArgument interface class used to set the arguments for components. They can be complex or simple mul...">
<polygon fill="white" stroke="black" points="0,-141.51 0,-338.864 148.021,-338.864 148.021,-141.51 0,-141.51"/>
<text text-anchor="middle" x="74.0107" y="-326.864" font-family="Monaco" font-size="10.00">HydroCouple::IArgument</text>
<polyline fill="none" stroke="black" points="0,-317.529 148.021,-317.529 "/>
<text text-anchor="middle" x="74.0107" y="-305.529" font-family="Monaco" font-size="10.00"> </text>
<polyline fill="none" stroke="black" points="0,-296.194 148.021,-296.194 "/>
<text text-anchor="start" x="8" y="-284.194" font-family="Monaco" font-size="10.00">+ ~IArgument()</text>
<text text-anchor="start" x="8" y="-270.859" font-family="Monaco" font-size="10.00">+ isOptional()</text>
<text text-anchor="start" x="8" y="-257.524" font-family="Monaco" font-size="10.00">+ isReadOnly()</text>
<text text-anchor="start" x="8" y="-244.189" font-family="Monaco" font-size="10.00">+ clone()</text>
<text text-anchor="start" x="8" y="-230.854" font-family="Monaco" font-size="10.00">+ valueSets()</text>
<text text-anchor="start" x="8" y="-217.52" font-family="Monaco" font-size="10.00">+ toString()</text>
<text text-anchor="start" x="8" y="-204.185" font-family="Monaco" font-size="10.00">+ fileExtensions()</text>
<text text-anchor="start" x="8" y="-190.85" font-family="Monaco" font-size="10.00">+ canReadFromFile()</text>
<text text-anchor="start" x="8" y="-177.515" font-family="Monaco" font-size="10.00">+ canReadFromString()</text>
<text text-anchor="start" x="8" y="-164.18" font-family="Monaco" font-size="10.00">+ readValues()</text>
<text text-anchor="start" x="8" y="-150.845" font-family="Monaco" font-size="10.00">+ readValues()</text>
</a>
</g>
</g>
<!-- Node2&#45;&gt;Node1 -->
<g id="edge1" class="edge"><title>Node2&#45;&gt;Node1</title>
<path fill="none" stroke="midnightblue" d="M130.31,-132.516C135.42,-122.835 140.421,-113.359 145.085,-104.522"/>
<polygon fill="none" stroke="midnightblue" points="127.166,-130.975 125.594,-141.452 133.357,-134.242 127.166,-130.975"/>
</g>
<!-- Node3 -->
<g id="node3" class="node"><title>Node3</title>
<g id="a_node3"><a xlink:href="class_hydro_couple_1_1_i_component_item.html" target="_top" xlink:title="IComponentItem is a fundamental unit of data for a component. ">
<polygon fill="white" stroke="black" points="82.9976,-375.864 82.9976,-479.874 261.024,-479.874 261.024,-375.864 82.9976,-375.864"/>
<text text-anchor="middle" x="172.011" y="-467.874" font-family="Monaco" font-size="10.00">HydroCouple::IComponentItem</text>
<polyline fill="none" stroke="black" points="82.9976,-458.539 261.024,-458.539 "/>
<text text-anchor="middle" x="172.011" y="-446.539" font-family="Monaco" font-size="10.00"> </text>
<polyline fill="none" stroke="black" points="82.9976,-437.204 261.024,-437.204 "/>
<text text-anchor="start" x="90.9976" y="-425.204" font-family="Monaco" font-size="10.00">+ ~IComponentItem()</text>
<text text-anchor="start" x="90.9976" y="-411.869" font-family="Monaco" font-size="10.00">+ modelComponent()</text>
<text text-anchor="start" x="90.9976" y="-398.534" font-family="Monaco" font-size="10.00">+ modelComponentId()</text>
<text text-anchor="start" x="90.9976" y="-385.199" font-family="Monaco" font-size="10.00">+ dimensions()</text>
</a>
</g>
</g>
<!-- Node3&#45;&gt;Node2 -->
<g id="edge2" class="edge"><title>Node3&#45;&gt;Node2</title>
<path fill="none" stroke="midnightblue" d="M140.18,-366.558C135.489,-357.67 130.557,-348.327 125.591,-338.917"/>
<polygon fill="none" stroke="midnightblue" points="137.209,-368.429 144.972,-375.639 143.4,-365.162 137.209,-368.429"/>
</g>
<!-- Node7 -->
<g id="node7" class="node"><title>Node7</title>
<g id="a_node7"><a xlink:href="class_hydro_couple_1_1_spatial_1_1_i_regular_grid2_d_component_item.html" target="_top" xlink:title="An IRegularGrid2DComponentItem represents an IRegularGrid2D IComponentItem. ">
<polygon fill="white" stroke="black" points="165.995,-181.515 165.995,-298.859 374.026,-298.859 374.026,-181.515 165.995,-181.515"/>
<text text-anchor="start" x="173.995" y="-286.859" font-family="Monaco" font-size="10.00">HydroCouple::Spatial</text>
<text text-anchor="middle" x="270.011" y="-273.524" font-family="Monaco" font-size="10.00">::IRegularGrid2DComponentItem</text>
<polyline fill="none" stroke="black" points="165.995,-264.189 374.026,-264.189 "/>
<text text-anchor="middle" x="270.011" y="-252.189" font-family="Monaco" font-size="10.00"> </text>
<polyline fill="none" stroke="black" points="165.995,-242.854 374.026,-242.854 "/>
<text text-anchor="start" x="173.995" y="-230.854" font-family="Monaco" font-size="10.00">+ ~IRegularGrid2DComponentItem()</text>
<text text-anchor="start" x="173.995" y="-217.52" font-family="Monaco" font-size="10.00">+ numXCellsDimension()</text>
<text text-anchor="start" x="173.995" y="-204.185" font-family="Monaco" font-size="10.00">+ numYCellsDimension()</text>
<text text-anchor="start" x="173.995" y="-190.85" font-family="Monaco" font-size="10.00">+ grid()</text>
</a>
</g>
</g>
<!-- Node3&#45;&gt;Node7 -->
<g id="edge7" class="edge"><title>Node3&#45;&gt;Node7</title>
<path fill="none" stroke="midnightblue" d="M203.849,-366.545C215.272,-344.902 228.119,-320.56 239.433,-299.124"/>
<polygon fill="none" stroke="midnightblue" points="200.621,-365.162 199.049,-375.639 206.812,-368.429 200.621,-365.162"/>
</g>
<!-- Node4 -->
<g id="node4" class="node"><title>Node4</title>
<g id="a_node4"><a xlink:href="class_hydro_couple_1_1_i_identity.html" target="_top" xlink:title="IIdentity interface class defines a method to get the Id of an HydroCouple entity. ">
<polygon fill="white" stroke="black" points="98,-516.874 98,-620.884 246.021,-620.884 246.021,-516.874 98,-516.874"/>
<text text-anchor="middle" x="172.011" y="-608.884" font-family="Monaco" font-size="10.00">HydroCouple::IIdentity</text>
<polyline fill="none" stroke="black" points="98,-599.549 246.021,-599.549 "/>
<text text-anchor="middle" x="172.011" y="-587.549" font-family="Monaco" font-size="10.00"> </text>
<polyline fill="none" stroke="black" points="98,-578.214 246.021,-578.214 "/>
<text text-anchor="start" x="106" y="-566.214" font-family="Monaco" font-size="10.00">+ ~IIdentity()</text>
<text text-anchor="start" x="106" y="-552.879" font-family="Monaco" font-size="10.00">+ MPI_Comm()</text>
<text text-anchor="start" x="106" y="-539.544" font-family="Monaco" font-size="10.00">+ MPI_Rank()</text>
<text text-anchor="start" x="106" y="-526.209" font-family="Monaco" font-size="10.00">+ id()</text>
</a>
</g>
</g>
<!-- Node4&#45;&gt;Node3 -->
<g id="edge3" class="edge"><title>Node4&#45;&gt;Node3</title>
<path fill="none" stroke="midnightblue" d="M172.011,-506.315C172.011,-497.533 172.011,-488.579 172.011,-480.025"/>
<polygon fill="none" stroke="midnightblue" points="168.511,-506.512 172.011,-516.512 175.511,-506.512 168.511,-506.512"/>
</g>
<!-- Node5 -->
<g id="node5" class="node"><title>Node5</title>
<g id="a_node5"><a xlink:href="class_hydro_couple_1_1_i_description.html" target="_top" xlink:title="IDescription interface class provides descriptive information on a HydroCouple object. ">
<polygon fill="white" stroke="black" points="88.9985,-657.884 88.9985,-775.229 255.023,-775.229 255.023,-657.884 88.9985,-657.884"/>
<text text-anchor="middle" x="172.011" y="-763.229" font-family="Monaco" font-size="10.00">HydroCouple::IDescription</text>
<polyline fill="none" stroke="black" points="88.9985,-753.894 255.023,-753.894 "/>
<text text-anchor="middle" x="172.011" y="-741.894" font-family="Monaco" font-size="10.00"> </text>
<polyline fill="none" stroke="black" points="88.9985,-732.559 255.023,-732.559 "/>
<text text-anchor="start" x="96.9985" y="-720.559" font-family="Monaco" font-size="10.00">+ ~IDescription()</text>
<text text-anchor="start" x="96.9985" y="-707.224" font-family="Monaco" font-size="10.00">+ getCaption()</text>
<text text-anchor="start" x="96.9985" y="-693.889" font-family="Monaco" font-size="10.00">+ setCaption()</text>
<text text-anchor="start" x="96.9985" y="-680.554" font-family="Monaco" font-size="10.00">+ getDescription()</text>
<text text-anchor="start" x="96.9985" y="-667.219" font-family="Monaco" font-size="10.00">+ setDescription()</text>
</a>
</g>
</g>
<!-- Node5&#45;&gt;Node4 -->
<g id="edge4" class="edge"><title>Node5&#45;&gt;Node4</title>
<path fill="none" stroke="midnightblue" d="M172.011,-647.283C172.011,-638.465 172.011,-629.557 172.011,-621.079"/>
<polygon fill="none" stroke="midnightblue" points="168.511,-647.562 172.011,-657.562 175.511,-647.562 168.511,-647.562"/>
</g>
<!-- Node6 -->
<g id="node6" class="node"><title>Node6</title>
<g id="a_node6"><a xlink:href="class_hydro_couple_1_1_i_property_changed.html" target="_top" xlink:title="IPropertyChanged interface is used to emit signal/event when a property of an object changes...">
<polygon fill="white" stroke="black" points="76.9966,-812.229 76.9966,-876.233 267.025,-876.233 267.025,-812.229 76.9966,-812.229"/>
<text text-anchor="middle" x="172.011" y="-864.233" font-family="Monaco" font-size="10.00">HydroCouple::IPropertyChanged</text>
<polyline fill="none" stroke="black" points="76.9966,-854.898 267.025,-854.898 "/>
<text text-anchor="middle" x="172.011" y="-842.898" font-family="Monaco" font-size="10.00"> </text>
<polyline fill="none" stroke="black" points="76.9966,-833.563 267.025,-833.563 "/>
<text text-anchor="start" x="84.9966" y="-821.563" font-family="Monaco" font-size="10.00">+ ~IPropertyChanged()</text>
</a>
</g>
</g>
<!-- Node6&#45;&gt;Node5 -->
<g id="edge5" class="edge"><title>Node6&#45;&gt;Node5</title>
<path fill="none" stroke="midnightblue" d="M172.011,-801.908C172.011,-793.523 172.011,-784.557 172.011,-775.715"/>
<polygon fill="none" stroke="midnightblue" points="168.511,-802.165 172.011,-812.165 175.511,-802.165 168.511,-802.165"/>
</g>
<!-- Node7&#45;&gt;Node1 -->
<g id="edge6" class="edge"><title>Node7&#45;&gt;Node1</title>
<path fill="none" stroke="midnightblue" d="M234.743,-172.365C222.96,-150.04 210.025,-125.531 198.977,-104.598"/>
<polygon fill="none" stroke="midnightblue" points="231.777,-174.244 239.54,-181.454 237.968,-170.976 231.777,-174.244"/>
</g>
</g>
</svg>
