<?xml version="1.0" encoding="UTF-8" standalone="no"?>
<!DOCTYPE svg PUBLIC "-//W3C//DTD SVG 1.1//EN"
 "http://www.w3.org/Graphics/SVG/1.1/DTD/svg11.dtd">
<!-- Generated by graphviz version 2.38.0 (20140413.2041)
 -->
<!-- Title: HydroCouple::IValueDefinition Pages: 1 -->
<svg width="260pt" height="436pt"
 viewBox="0.00 0.00 259.88 436.00" xmlns="http://www.w3.org/2000/svg" xmlns:xlink="http://www.w3.org/1999/xlink">
<g id="graph0" class="graph" transform="scale(1 1) rotate(0) translate(4 432)">
<title>HydroCouple::IValueDefinition</title>
<polygon fill="white" stroke="none" points="-4,4 -4,-432 255.881,-432 255.881,4 -4,4"/>
<!-- Node1 -->
<g id="node1" class="node"><title>Node1</title>
<polygon fill="#bfbfbf" stroke="black" points="49.2974,-111.5 49.2974,-205.5 198.525,-205.5 198.525,-111.5 49.2974,-111.5"/>
<text text-anchor="middle" x="123.911" y="-193.5" font-family="Helvetica,sans-Serif" font-size="10.00">HydroCouple::IValueDefinition</text>
<polyline fill="none" stroke="black" points="49.2974,-187.5 198.525,-187.5 "/>
<text text-anchor="middle" x="123.911" y="-175.5" font-family="Helvetica,sans-Serif" font-size="10.00"> </text>
<polyline fill="none" stroke="black" points="49.2974,-169.5 198.525,-169.5 "/>
<text text-anchor="start" x="57.2974" y="-157.5" font-family="Helvetica,sans-Serif" font-size="10.00">+ ~IValueDefinition()</text>
<text text-anchor="start" x="57.2974" y="-147.5" font-family="Helvetica,sans-Serif" font-size="10.00">+ type()</text>
<text text-anchor="start" x="57.2974" y="-137.5" font-family="Helvetica,sans-Serif" font-size="10.00">+ missingValue()</text>
<text text-anchor="start" x="57.2974" y="-127.5" font-family="Helvetica,sans-Serif" font-size="10.00">+ defaultValue()</text>
<text text-anchor="start" x="57.2974" y="-117.5" font-family="Helvetica,sans-Serif" font-size="10.00">+ possibleValues()</text>
</g>
<!-- Node4 -->
<g id="node4" class="node"><title>Node4</title>
<g id="a_node4"><a xlink:href="class_hydro_couple_1_1_i_quality.html" target="_top" xlink:title="Qualitative data described items in terms of some quality or categorization that may be &#39;informal&#39; or...">
<polygon fill="white" stroke="black" points="0,-0.5 0,-74.5 113.822,-74.5 113.822,-0.5 0,-0.5"/>
<text text-anchor="middle" x="56.9111" y="-62.5" font-family="Helvetica,sans-Serif" font-size="10.00">HydroCouple::IQuality</text>
<polyline fill="none" stroke="black" points="0,-56.5 113.822,-56.5 "/>
<text text-anchor="middle" x="56.9111" y="-44.5" font-family="Helvetica,sans-Serif" font-size="10.00"> </text>
<polyline fill="none" stroke="black" points="0,-38.5 113.822,-38.5 "/>
<text text-anchor="start" x="8" y="-26.5" font-family="Helvetica,sans-Serif" font-size="10.00">+ ~IQuality()</text>
<text text-anchor="start" x="8" y="-16.5" font-family="Helvetica,sans-Serif" font-size="10.00">+ categories()</text>
<text text-anchor="start" x="8" y="-6.5" font-family="Helvetica,sans-Serif" font-size="10.00">+ isOrdered()</text>
</a>
</g>
</g>
<!-- Node1&#45;&gt;Node4 -->
<g id="edge3" class="edge"><title>Node1&#45;&gt;Node4</title>
<path fill="none" stroke="midnightblue" d="M92.9696,-102.544C87.6696,-93.1307 82.2837,-83.5648 77.3468,-74.7961"/>
<polygon fill="none" stroke="midnightblue" points="90.0512,-104.495 98.0072,-111.491 96.1509,-101.061 90.0512,-104.495"/>
</g>
<!-- Node5 -->
<g id="node5" class="node"><title>Node5</title>
<g id="a_node5"><a xlink:href="class_hydro_couple_1_1_i_quantity.html" target="_top" xlink:title="IQuantity specifies values as an amount of some unit, usually as a floating point number...">
<polygon fill="white" stroke="black" points="131.941,-5.5 131.941,-69.5 251.881,-69.5 251.881,-5.5 131.941,-5.5"/>
<text text-anchor="middle" x="191.911" y="-57.5" font-family="Helvetica,sans-Serif" font-size="10.00">HydroCouple::IQuantity</text>
<polyline fill="none" stroke="black" points="131.941,-51.5 251.881,-51.5 "/>
<text text-anchor="middle" x="191.911" y="-39.5" font-family="Helvetica,sans-Serif" font-size="10.00"> </text>
<polyline fill="none" stroke="black" points="131.941,-33.5 251.881,-33.5 "/>
<text text-anchor="start" x="139.941" y="-21.5" font-family="Helvetica,sans-Serif" font-size="10.00">+ ~IQuantity()</text>
<text text-anchor="start" x="139.941" y="-11.5" font-family="Helvetica,sans-Serif" font-size="10.00">+ unit()</text>
</a>
</g>
</g>
<!-- Node1&#45;&gt;Node5 -->
<g id="edge4" class="edge"><title>Node1&#45;&gt;Node5</title>
<path fill="none" stroke="midnightblue" d="M155.325,-102.525C161.769,-91.248 168.338,-79.7527 174.098,-69.6723"/>
<polygon fill="none" stroke="midnightblue" points="152.124,-101.073 150.202,-111.491 158.202,-104.546 152.124,-101.073"/>
</g>
<!-- Node2 -->
<g id="node2" class="node"><title>Node2</title>
<g id="a_node2"><a xlink:href="class_hydro_couple_1_1_i_description.html" target="_top" xlink:title="IDescription interface class provides descriptive information on a HydroCouple object. ">
<polygon fill="white" stroke="black" points="57.5518,-242.5 57.5518,-336.5 190.271,-336.5 190.271,-242.5 57.5518,-242.5"/>
<text text-anchor="middle" x="123.911" y="-324.5" font-family="Helvetica,sans-Serif" font-size="10.00">HydroCouple::IDescription</text>
<polyline fill="none" stroke="black" points="57.5518,-318.5 190.271,-318.5 "/>
<text text-anchor="middle" x="123.911" y="-306.5" font-family="Helvetica,sans-Serif" font-size="10.00"> </text>
<polyline fill="none" stroke="black" points="57.5518,-300.5 190.271,-300.5 "/>
<text text-anchor="start" x="65.5518" y="-288.5" font-family="Helvetica,sans-Serif" font-size="10.00">+ ~IDescription()</text>
<text text-anchor="start" x="65.5518" y="-278.5" font-family="Helvetica,sans-Serif" font-size="10.00">+ getCaption()</text>
<text text-anchor="start" x="65.5518" y="-268.5" font-family="Helvetica,sans-Serif" font-size="10.00">+ setCaption()</text>
<text text-anchor="start" x="65.5518" y="-258.5" font-family="Helvetica,sans-Serif" font-size="10.00">+ getDescription()</text>
<text text-anchor="start" x="65.5518" y="-248.5" font-family="Helvetica,sans-Serif" font-size="10.00">+ setDescription()</text>
</a>
</g>
</g>
<!-- Node2&#45;&gt;Node1 -->
<g id="edge1" class="edge"><title>Node2&#45;&gt;Node1</title>
<path fill="none" stroke="midnightblue" d="M123.911,-232.115C123.911,-223.332 123.911,-214.344 123.911,-205.819"/>
<polygon fill="none" stroke="midnightblue" points="120.411,-232.292 123.911,-242.292 127.411,-232.292 120.411,-232.292"/>
</g>
<!-- Node3 -->
<g id="node3" class="node"><title>Node3</title>
<g id="a_node3"><a xlink:href="class_hydro_couple_1_1_i_property_changed.html" target="_top" xlink:title="IPropertyChanged interface is used to emit signal/event when a property of an object changes...">
<polygon fill="white" stroke="black" points="43.3696,-373.5 43.3696,-427.5 204.453,-427.5 204.453,-373.5 43.3696,-373.5"/>
<text text-anchor="middle" x="123.911" y="-415.5" font-family="Helvetica,sans-Serif" font-size="10.00">HydroCouple::IPropertyChanged</text>
<polyline fill="none" stroke="black" points="43.3696,-409.5 204.453,-409.5 "/>
<text text-anchor="middle" x="123.911" y="-397.5" font-family="Helvetica,sans-Serif" font-size="10.00"> </text>
<polyline fill="none" stroke="black" points="43.3696,-391.5 204.453,-391.5 "/>
<text text-anchor="start" x="51.3696" y="-379.5" font-family="Helvetica,sans-Serif" font-size="10.00">+ ~IPropertyChanged()</text>
</a>
</g>
</g>
<!-- Node3&#45;&gt;Node2 -->
<g id="edge2" class="edge"><title>Node3&#45;&gt;Node2</title>
<path fill="none" stroke="midnightblue" d="M123.911,-363.141C123.911,-354.716 123.911,-345.639 123.911,-336.851"/>
<polygon fill="none" stroke="midnightblue" points="120.411,-363.392 123.911,-373.392 127.411,-363.392 120.411,-363.392"/>
</g>
</g>
</svg>
