<?xml version="1.0" encoding="UTF-8" standalone="no"?>
<!DOCTYPE svg PUBLIC "-//W3C//DTD SVG 1.1//EN"
 "http://www.w3.org/Graphics/SVG/1.1/DTD/svg11.dtd">
<!-- Generated by graphviz version 2.38.0 (20140413.2041)
 -->
<!-- Title: HydroCouple::IArgument Pages: 1 -->
<svg width="1118pt" height="946pt"
 viewBox="0.00 0.00 1118.03 945.73" xmlns="http://www.w3.org/2000/svg" xmlns:xlink="http://www.w3.org/1999/xlink">
<g id="graph0" class="graph" transform="scale(1 1) rotate(0) translate(4 941.733)">
<title>HydroCouple::IArgument</title>
<polygon fill="white" stroke="none" points="-4,4 -4,-941.733 1114.03,-941.733 1114.03,4 -4,4"/>
<!-- Node1 -->
<g id="node1" class="node"><title>Node1</title>
<polygon fill="#bfbfbf" stroke="black" points="475.002,-242.515 475.002,-439.869 623.024,-439.869 623.024,-242.515 475.002,-242.515"/>
<text text-anchor="middle" x="549.013" y="-427.869" font-family="Monaco" font-size="10.00">HydroCouple::IArgument</text>
<polyline fill="none" stroke="black" points="475.002,-418.534 623.024,-418.534 "/>
<text text-anchor="middle" x="549.013" y="-406.534" font-family="Monaco" font-size="10.00"> </text>
<polyline fill="none" stroke="black" points="475.002,-397.199 623.024,-397.199 "/>
<text text-anchor="start" x="483.002" y="-385.199" font-family="Monaco" font-size="10.00">+ ~IArgument()</text>
<text text-anchor="start" x="483.002" y="-371.864" font-family="Monaco" font-size="10.00">+ isOptional()</text>
<text text-anchor="start" x="483.002" y="-358.529" font-family="Monaco" font-size="10.00">+ isReadOnly()</text>
<text text-anchor="start" x="483.002" y="-345.194" font-family="Monaco" font-size="10.00">+ clone()</text>
<text text-anchor="start" x="483.002" y="-331.859" font-family="Monaco" font-size="10.00">+ valueSets()</text>
<text text-anchor="start" x="483.002" y="-318.524" font-family="Monaco" font-size="10.00">+ toString()</text>
<text text-anchor="start" x="483.002" y="-305.189" font-family="Monaco" font-size="10.00">+ fileExtensions()</text>
<text text-anchor="start" x="483.002" y="-291.854" font-family="Monaco" font-size="10.00">+ canReadFromFile()</text>
<text text-anchor="start" x="483.002" y="-278.52" font-family="Monaco" font-size="10.00">+ canReadFromString()</text>
<text text-anchor="start" x="483.002" y="-265.185" font-family="Monaco" font-size="10.00">+ readValues()</text>
<text text-anchor="start" x="483.002" y="-251.85" font-family="Monaco" font-size="10.00">+ readValues()</text>
</g>
<!-- Node6 -->
<g id="node6" class="node"><title>Node6</title>
<g id="a_node6"><a xlink:href="class_hydro_couple_1_1_spatial_1_1_i2_d_regular_grid_argument.html" target="_top" xlink:title="An I2DRegularGridArgument is an IArgument with an I2DRegularGridComponentItem. ">
<polygon fill="white" stroke="black" points="0,-114.84 0,-205.515 178.026,-205.515 178.026,-114.84 0,-114.84"/>
<text text-anchor="start" x="8" y="-193.515" font-family="Monaco" font-size="10.00">HydroCouple::Spatial</text>
<text text-anchor="middle" x="89.0132" y="-180.18" font-family="Monaco" font-size="10.00">::I2DRegularGridArgument</text>
<polyline fill="none" stroke="black" points="0,-170.845 178.026,-170.845 "/>
<text text-anchor="middle" x="89.0132" y="-158.845" font-family="Monaco" font-size="10.00"> </text>
<polyline fill="none" stroke="black" points="0,-149.51 178.026,-149.51 "/>
<text text-anchor="start" x="8" y="-137.51" font-family="Monaco" font-size="10.00">+ ~I2DRegularGridArgument()</text>
<text text-anchor="start" x="8" y="-124.175" font-family="Monaco" font-size="10.00">+ setGrid()</text>
</a>
</g>
</g>
<!-- Node1&#45;&gt;Node6 -->
<g id="edge5" class="edge"><title>Node1&#45;&gt;Node6</title>
<path fill="none" stroke="midnightblue" d="M465.183,-311.109C391.372,-285.031 281.267,-244.982 187.013,-206.015 184.074,-204.799 181.093,-203.548 178.088,-202.27"/>
<polygon fill="none" stroke="midnightblue" points="464.305,-314.511 474.9,-314.536 466.633,-307.909 464.305,-314.511"/>
</g>
<!-- Node8 -->
<g id="node8" class="node"><title>Node8</title>
<g id="a_node8"><a xlink:href="class_hydro_couple_1_1_spatial_1_1_i3_d_regular_grid_argument.html" target="_top" xlink:title="An I3DRegularGridArgument is an IArgument with an I3DRegularGridComponentItem. ">
<polygon fill="white" stroke="black" points="196,-114.84 196,-205.515 374.026,-205.515 374.026,-114.84 196,-114.84"/>
<text text-anchor="start" x="204" y="-193.515" font-family="Monaco" font-size="10.00">HydroCouple::Spatial</text>
<text text-anchor="middle" x="285.013" y="-180.18" font-family="Monaco" font-size="10.00">::I3DRegularGridArgument</text>
<polyline fill="none" stroke="black" points="196,-170.845 374.026,-170.845 "/>
<text text-anchor="middle" x="285.013" y="-158.845" font-family="Monaco" font-size="10.00"> </text>
<polyline fill="none" stroke="black" points="196,-149.51 374.026,-149.51 "/>
<text text-anchor="start" x="204" y="-137.51" font-family="Monaco" font-size="10.00">+ ~I3DRegularGridArgument()</text>
<text text-anchor="start" x="204" y="-124.175" font-family="Monaco" font-size="10.00">+ setGrid()</text>
</a>
</g>
</g>
<!-- Node1&#45;&gt;Node8 -->
<g id="edge7" class="edge"><title>Node1&#45;&gt;Node8</title>
<path fill="none" stroke="midnightblue" d="M466.418,-284.185C429.107,-258.885 385.641,-229.411 350.611,-205.658"/>
<polygon fill="none" stroke="midnightblue" points="464.531,-287.134 474.772,-289.85 468.46,-281.341 464.531,-287.134"/>
</g>
<!-- Node10 -->
<g id="node10" class="node"><title>Node10</title>
<g id="a_node10"><a xlink:href="class_hydro_couple_1_1_spatial_1_1_i_geometry_argument.html" target="_top" xlink:title="An IGeometryArgument class is an IArgument class with a geometry component. ">
<polygon fill="white" stroke="black" points="552.001,-114.84 552.001,-205.515 718.025,-205.515 718.025,-114.84 552.001,-114.84"/>
<text text-anchor="start" x="560.001" y="-193.515" font-family="Monaco" font-size="10.00">HydroCouple::Spatial</text>
<text text-anchor="middle" x="635.013" y="-180.18" font-family="Monaco" font-size="10.00">::IGeometryArgument</text>
<polyline fill="none" stroke="black" points="552.001,-170.845 718.025,-170.845 "/>
<text text-anchor="middle" x="635.013" y="-158.845" font-family="Monaco" font-size="10.00"> </text>
<polyline fill="none" stroke="black" points="552.001,-149.51 718.025,-149.51 "/>
<text text-anchor="start" x="560.001" y="-137.51" font-family="Monaco" font-size="10.00">+ ~IGeometryArgument()</text>
<text text-anchor="start" x="560.001" y="-124.175" font-family="Monaco" font-size="10.00">+ setGeometryCollection()</text>
</a>
</g>
</g>
<!-- Node1&#45;&gt;Node10 -->
<g id="edge9" class="edge"><title>Node1&#45;&gt;Node10</title>
<path fill="none" stroke="midnightblue" d="M600.457,-233.107C605.031,-223.588 609.471,-214.344 613.561,-205.831"/>
<polygon fill="none" stroke="midnightblue" points="597.215,-231.775 596.039,-242.304 603.524,-234.806 597.215,-231.775"/>
</g>
<!-- Node12 -->
<g id="node12" class="node"><title>Node12</title>
<g id="a_node12"><a xlink:href="class_hydro_couple_1_1_spatial_1_1_i_polyhedral_surface_argument.html" target="_top" xlink:title="An IPolyhedralSurfaceArgument class is an IArgument class with an IPolyhedralSurface component...">
<polygon fill="white" stroke="black" points="735.998,-114.84 735.998,-205.515 938.028,-205.515 938.028,-114.84 735.998,-114.84"/>
<text text-anchor="start" x="743.998" y="-193.515" font-family="Monaco" font-size="10.00">HydroCouple::Spatial</text>
<text text-anchor="middle" x="837.013" y="-180.18" font-family="Monaco" font-size="10.00">::IPolyhedralSurfaceArgument</text>
<polyline fill="none" stroke="black" points="735.998,-170.845 938.028,-170.845 "/>
<text text-anchor="middle" x="837.013" y="-158.845" font-family="Monaco" font-size="10.00"> </text>
<polyline fill="none" stroke="black" points="735.998,-149.51 938.028,-149.51 "/>
<text text-anchor="start" x="743.998" y="-137.51" font-family="Monaco" font-size="10.00">+ ~IPolyhedralSurfaceArgument()</text>
<text text-anchor="start" x="743.998" y="-124.175" font-family="Monaco" font-size="10.00">+ setPolyhedralSurface()</text>
</a>
</g>
</g>
<!-- Node1&#45;&gt;Node12 -->
<g id="edge11" class="edge"><title>Node1&#45;&gt;Node12</title>
<path fill="none" stroke="midnightblue" d="M631.792,-288.739C674.082,-262.452 725.03,-230.784 765.582,-205.577"/>
<polygon fill="none" stroke="midnightblue" points="629.826,-285.839 623.18,-294.091 633.521,-291.785 629.826,-285.839"/>
</g>
<!-- Node14 -->
<g id="node14" class="node"><title>Node14</title>
<g id="a_node14"><a xlink:href="class_hydro_couple_1_1_spatial_1_1_i_raster_argument.html" target="_top" xlink:title="An IRasterArgument is an IArgument with an IRaster. ">
<polygon fill="white" stroke="black" points="956.003,-114.84 956.003,-205.515 1092.02,-205.515 1092.02,-114.84 956.003,-114.84"/>
<text text-anchor="start" x="964.003" y="-193.515" font-family="Monaco" font-size="10.00">HydroCouple::Spatial</text>
<text text-anchor="middle" x="1024.01" y="-180.18" font-family="Monaco" font-size="10.00">::IRasterArgument</text>
<polyline fill="none" stroke="black" points="956.003,-170.845 1092.02,-170.845 "/>
<text text-anchor="middle" x="1024.01" y="-158.845" font-family="Monaco" font-size="10.00"> </text>
<polyline fill="none" stroke="black" points="956.003,-149.51 1092.02,-149.51 "/>
<text text-anchor="start" x="964.003" y="-137.51" font-family="Monaco" font-size="10.00">+ ~IRasterArgument()</text>
<text text-anchor="start" x="964.003" y="-124.175" font-family="Monaco" font-size="10.00">+ setRaster()</text>
</a>
</g>
</g>
<!-- Node1&#45;&gt;Node14 -->
<g id="edge13" class="edge"><title>Node1&#45;&gt;Node14</title>
<path fill="none" stroke="midnightblue" d="M633.099,-317.232C714.971,-293.632 842.061,-253.67 947.013,-206.015 949.971,-204.672 952.962,-203.247 955.96,-201.764"/>
<polygon fill="none" stroke="midnightblue" points="631.992,-313.908 623.343,-320.028 633.92,-320.637 631.992,-313.908"/>
</g>
<!-- Node16 -->
<g id="node16" class="node"><title>Node16</title>
<g id="a_node16"><a xlink:href="class_hydro_couple_1_1_temporal_1_1_i_time_argument.html" target="_top" xlink:title="The ITimeArgument class. ">
<polygon fill="white" stroke="black" points="392.003,-114.84 392.003,-205.515 534.023,-205.515 534.023,-114.84 392.003,-114.84"/>
<text text-anchor="start" x="400.003" y="-193.515" font-family="Monaco" font-size="10.00">HydroCouple::Temporal</text>
<text text-anchor="middle" x="463.013" y="-180.18" font-family="Monaco" font-size="10.00">::ITimeArgument</text>
<polyline fill="none" stroke="black" points="392.003,-170.845 534.023,-170.845 "/>
<text text-anchor="middle" x="463.013" y="-158.845" font-family="Monaco" font-size="10.00"> </text>
<polyline fill="none" stroke="black" points="392.003,-149.51 534.023,-149.51 "/>
<text text-anchor="start" x="400.003" y="-137.51" font-family="Monaco" font-size="10.00">+ ~ITimeArgument()</text>
<text text-anchor="start" x="400.003" y="-124.175" font-family="Monaco" font-size="10.00">+ setTimes()</text>
</a>
</g>
</g>
<!-- Node1&#45;&gt;Node16 -->
<g id="edge15" class="edge"><title>Node1&#45;&gt;Node16</title>
<path fill="none" stroke="midnightblue" d="M497.569,-233.107C492.996,-223.588 488.555,-214.344 484.465,-205.831"/>
<polygon fill="none" stroke="midnightblue" points="494.502,-234.806 501.987,-242.304 500.812,-231.775 494.502,-234.806"/>
</g>
<!-- Node2 -->
<g id="node2" class="node"><title>Node2</title>
<g id="a_node2"><a xlink:href="class_hydro_couple_1_1_i_component_item.html" target="_top" xlink:title="IComponentItem is a fundamental unit of data for a component. ">
<polygon fill="white" stroke="black" points="460,-476.869 460,-567.544 638.026,-567.544 638.026,-476.869 460,-476.869"/>
<text text-anchor="middle" x="549.013" y="-555.544" font-family="Monaco" font-size="10.00">HydroCouple::IComponentItem</text>
<polyline fill="none" stroke="black" points="460,-546.209 638.026,-546.209 "/>
<text text-anchor="middle" x="549.013" y="-534.209" font-family="Monaco" font-size="10.00"> </text>
<polyline fill="none" stroke="black" points="460,-524.874 638.026,-524.874 "/>
<text text-anchor="start" x="468" y="-512.874" font-family="Monaco" font-size="10.00">+ ~IComponentItem()</text>
<text text-anchor="start" x="468" y="-499.539" font-family="Monaco" font-size="10.00">+ modelComponent()</text>
<text text-anchor="start" x="468" y="-486.204" font-family="Monaco" font-size="10.00">+ dimensions()</text>
</a>
</g>
</g>
<!-- Node2&#45;&gt;Node1 -->
<g id="edge1" class="edge"><title>Node2&#45;&gt;Node1</title>
<path fill="none" stroke="midnightblue" d="M549.013,-466.229C549.013,-457.903 549.013,-449.107 549.013,-440.198"/>
<polygon fill="none" stroke="midnightblue" points="545.513,-466.495 549.013,-476.495 552.513,-466.495 545.513,-466.495"/>
</g>
<!-- Node3 -->
<g id="node3" class="node"><title>Node3</title>
<g id="a_node3"><a xlink:href="class_hydro_couple_1_1_i_identity.html" target="_top" xlink:title="IIdentity interface class defines a method to get the Id of an HydroCouple entity. ">
<polygon fill="white" stroke="black" points="475.002,-604.544 475.002,-681.884 623.024,-681.884 623.024,-604.544 475.002,-604.544"/>
<text text-anchor="middle" x="549.013" y="-669.884" font-family="Monaco" font-size="10.00">HydroCouple::IIdentity</text>
<polyline fill="none" stroke="black" points="475.002,-660.549 623.024,-660.549 "/>
<text text-anchor="middle" x="549.013" y="-648.549" font-family="Monaco" font-size="10.00"> </text>
<polyline fill="none" stroke="black" points="475.002,-639.214 623.024,-639.214 "/>
<text text-anchor="start" x="483.002" y="-627.214" font-family="Monaco" font-size="10.00">+ ~IIdentity()</text>
<text text-anchor="start" x="483.002" y="-613.879" font-family="Monaco" font-size="10.00">+ id()</text>
</a>
</g>
</g>
<!-- Node3&#45;&gt;Node2 -->
<g id="edge2" class="edge"><title>Node3&#45;&gt;Node2</title>
<path fill="none" stroke="midnightblue" d="M549.013,-594.224C549.013,-585.526 549.013,-576.486 549.013,-567.887"/>
<polygon fill="none" stroke="midnightblue" points="545.513,-594.232 549.013,-604.232 552.513,-594.232 545.513,-594.232"/>
</g>
<!-- Node4 -->
<g id="node4" class="node"><title>Node4</title>
<g id="a_node4"><a xlink:href="class_hydro_couple_1_1_i_description.html" target="_top" xlink:title="IDescription interface class provides descriptive information on a HydroCouple object. ">
<polygon fill="white" stroke="black" points="466.001,-718.884 466.001,-836.229 632.025,-836.229 632.025,-718.884 466.001,-718.884"/>
<text text-anchor="middle" x="549.013" y="-824.229" font-family="Monaco" font-size="10.00">HydroCouple::IDescription</text>
<polyline fill="none" stroke="black" points="466.001,-814.894 632.025,-814.894 "/>
<text text-anchor="middle" x="549.013" y="-802.894" font-family="Monaco" font-size="10.00"> </text>
<polyline fill="none" stroke="black" points="466.001,-793.559 632.025,-793.559 "/>
<text text-anchor="start" x="474.001" y="-781.559" font-family="Monaco" font-size="10.00">+ ~IDescription()</text>
<text text-anchor="start" x="474.001" y="-768.224" font-family="Monaco" font-size="10.00">+ getCaption()</text>
<text text-anchor="start" x="474.001" y="-754.889" font-family="Monaco" font-size="10.00">+ setCaption()</text>
<text text-anchor="start" x="474.001" y="-741.554" font-family="Monaco" font-size="10.00">+ getDescription()</text>
<text text-anchor="start" x="474.001" y="-728.219" font-family="Monaco" font-size="10.00">+ setDescription()</text>
</a>
</g>
</g>
<!-- Node4&#45;&gt;Node3 -->
<g id="edge3" class="edge"><title>Node4&#45;&gt;Node3</title>
<path fill="none" stroke="midnightblue" d="M549.013,-708.318C549.013,-699.279 549.013,-690.292 549.013,-682.031"/>
<polygon fill="none" stroke="midnightblue" points="545.513,-708.509 549.013,-718.509 552.513,-708.509 545.513,-708.509"/>
</g>
<!-- Node5 -->
<g id="node5" class="node"><title>Node5</title>
<g id="a_node5"><a xlink:href="class_hydro_couple_1_1_i_property_changed.html" target="_top" xlink:title="IPropertyChanged interface is used to emit signal/event when a property of an object changes...">
<polygon fill="white" stroke="black" points="453.999,-873.229 453.999,-937.233 644.027,-937.233 644.027,-873.229 453.999,-873.229"/>
<text text-anchor="middle" x="549.013" y="-925.233" font-family="Monaco" font-size="10.00">HydroCouple::IPropertyChanged</text>
<polyline fill="none" stroke="black" points="453.999,-915.898 644.027,-915.898 "/>
<text text-anchor="middle" x="549.013" y="-903.898" font-family="Monaco" font-size="10.00"> </text>
<polyline fill="none" stroke="black" points="453.999,-894.563 644.027,-894.563 "/>
<text text-anchor="start" x="461.999" y="-882.563" font-family="Monaco" font-size="10.00">+ ~IPropertyChanged()</text>
</a>
</g>
</g>
<!-- Node5&#45;&gt;Node4 -->
<g id="edge4" class="edge"><title>Node5&#45;&gt;Node4</title>
<path fill="none" stroke="midnightblue" d="M549.013,-862.908C549.013,-854.523 549.013,-845.557 549.013,-836.715"/>
<polygon fill="none" stroke="midnightblue" points="545.513,-863.165 549.013,-873.165 552.513,-863.165 545.513,-863.165"/>
</g>
<!-- Node7 -->
<g id="node7" class="node"><title>Node7</title>
<g id="a_node7"><a xlink:href="class_hydro_couple_1_1_spatio_temporal_1_1_i_time2_d_regular_grid_argument.html" target="_top" xlink:title="The ITime2DRegularGridArgument class. ">
<polygon fill="white" stroke="black" points="20.998,-0.5 20.998,-77.8398 223.028,-77.8398 223.028,-0.5 20.998,-0.5"/>
<text text-anchor="start" x="28.998" y="-65.8398" font-family="Monaco" font-size="10.00">HydroCouple::SpatioTemporal</text>
<text text-anchor="middle" x="122.013" y="-52.5049" font-family="Monaco" font-size="10.00">::ITime2DRegularGridArgument</text>
<polyline fill="none" stroke="black" points="20.998,-43.1699 223.028,-43.1699 "/>
<text text-anchor="middle" x="122.013" y="-31.1699" font-family="Monaco" font-size="10.00"> </text>
<polyline fill="none" stroke="black" points="20.998,-21.835 223.028,-21.835 "/>
<text text-anchor="start" x="28.998" y="-9.83496" font-family="Monaco" font-size="10.00">+ ~ITime2DRegularGridArgument()</text>
</a>
</g>
</g>
<!-- Node6&#45;&gt;Node7 -->
<g id="edge6" class="edge"><title>Node6&#45;&gt;Node7</title>
<path fill="none" stroke="midnightblue" d="M104.087,-104.817C106.594,-95.7758 109.145,-86.5752 111.507,-78.0584"/>
<polygon fill="none" stroke="midnightblue" points="100.695,-103.953 101.395,-114.525 107.44,-105.824 100.695,-103.953"/>
</g>
<!-- Node9 -->
<g id="node9" class="node"><title>Node9</title>
<g id="a_node9"><a xlink:href="class_hydro_couple_1_1_spatio_temporal_1_1_i_time3_d_regular_grid_argument.html" target="_top" xlink:title="The ITime3DRegularGridArgument class. ">
<polygon fill="white" stroke="black" points="257.998,-0.5 257.998,-77.8398 460.028,-77.8398 460.028,-0.5 257.998,-0.5"/>
<text text-anchor="start" x="265.998" y="-65.8398" font-family="Monaco" font-size="10.00">HydroCouple::SpatioTemporal</text>
<text text-anchor="middle" x="359.013" y="-52.5049" font-family="Monaco" font-size="10.00">::ITime3DRegularGridArgument</text>
<polyline fill="none" stroke="black" points="257.998,-43.1699 460.028,-43.1699 "/>
<text text-anchor="middle" x="359.013" y="-31.1699" font-family="Monaco" font-size="10.00"> </text>
<polyline fill="none" stroke="black" points="257.998,-21.835 460.028,-21.835 "/>
<text text-anchor="start" x="265.998" y="-9.83496" font-family="Monaco" font-size="10.00">+ ~ITime3DRegularGridArgument()</text>
</a>
</g>
</g>
<!-- Node8&#45;&gt;Node9 -->
<g id="edge8" class="edge"><title>Node8&#45;&gt;Node9</title>
<path fill="none" stroke="midnightblue" d="M318.098,-105.97C323.949,-96.5601 329.933,-86.9377 335.454,-78.0584"/>
<polygon fill="none" stroke="midnightblue" points="315.087,-104.184 312.779,-114.525 321.031,-107.881 315.087,-104.184"/>
</g>
<!-- Node11 -->
<g id="node11" class="node"><title>Node11</title>
<g id="a_node11"><a xlink:href="class_hydro_couple_1_1_spatio_temporal_1_1_i_time_geometry_argument.html" target="_top" xlink:title="The ITimeGeometryArgument class. ">
<polygon fill="white" stroke="black" points="486,-0.5 486,-77.8398 664.026,-77.8398 664.026,-0.5 486,-0.5"/>
<text text-anchor="start" x="494" y="-65.8398" font-family="Monaco" font-size="10.00">HydroCouple::SpatioTemporal</text>
<text text-anchor="middle" x="575.013" y="-52.5049" font-family="Monaco" font-size="10.00">::ITimeGeometryArgument</text>
<polyline fill="none" stroke="black" points="486,-43.1699 664.026,-43.1699 "/>
<text text-anchor="middle" x="575.013" y="-31.1699" font-family="Monaco" font-size="10.00"> </text>
<polyline fill="none" stroke="black" points="486,-21.835 664.026,-21.835 "/>
<text text-anchor="start" x="494" y="-9.83496" font-family="Monaco" font-size="10.00">+ ~ITimeGeometryArgument()</text>
</a>
</g>
</g>
<!-- Node10&#45;&gt;Node11 -->
<g id="edge10" class="edge"><title>Node10&#45;&gt;Node11</title>
<path fill="none" stroke="midnightblue" d="M607.897,-105.394C603.246,-96.1676 598.501,-86.7565 594.115,-78.0584"/>
<polygon fill="none" stroke="midnightblue" points="604.873,-107.171 612.501,-114.525 611.124,-104.02 604.873,-107.171"/>
</g>
<!-- Node13 -->
<g id="node13" class="node"><title>Node13</title>
<g id="a_node13"><a xlink:href="class_hydro_couple_1_1_spatio_temporal_1_1_i_time_polyhedral_surface_argument.html" target="_top" xlink:title="The ITimePolyhedralSurfaceArgument class. ">
<polygon fill="white" stroke="black" points="685.996,-0.5 685.996,-77.8398 912.03,-77.8398 912.03,-0.5 685.996,-0.5"/>
<text text-anchor="start" x="693.996" y="-65.8398" font-family="Monaco" font-size="10.00">HydroCouple::SpatioTemporal</text>
<text text-anchor="middle" x="799.013" y="-52.5049" font-family="Monaco" font-size="10.00">::ITimePolyhedralSurfaceArgument</text>
<polyline fill="none" stroke="black" points="685.996,-43.1699 912.03,-43.1699 "/>
<text text-anchor="middle" x="799.013" y="-31.1699" font-family="Monaco" font-size="10.00"> </text>
<polyline fill="none" stroke="black" points="685.996,-21.835 912.03,-21.835 "/>
<text text-anchor="start" x="693.996" y="-9.83496" font-family="Monaco" font-size="10.00">+ ~ITimePolyhedralSurfaceArgument()</text>
</a>
</g>
</g>
<!-- Node12&#45;&gt;Node13 -->
<g id="edge12" class="edge"><title>Node12&#45;&gt;Node13</title>
<path fill="none" stroke="midnightblue" d="M819.655,-104.817C816.769,-95.7758 813.831,-86.5752 811.111,-78.0584"/>
<polygon fill="none" stroke="midnightblue" points="816.379,-106.063 822.755,-114.525 823.048,-103.934 816.379,-106.063"/>
</g>
<!-- Node15 -->
<g id="node15" class="node"><title>Node15</title>
<g id="a_node15"><a xlink:href="class_hydro_couple_1_1_spatio_temporal_1_1_i_time_raster_argument.html" target="_top" xlink:title="The ITimeRasterArgument class. ">
<polygon fill="white" stroke="black" points="932,-0.5 932,-77.8398 1110.03,-77.8398 1110.03,-0.5 932,-0.5"/>
<text text-anchor="start" x="940" y="-65.8398" font-family="Monaco" font-size="10.00">HydroCouple::SpatioTemporal</text>
<text text-anchor="middle" x="1021.01" y="-52.5049" font-family="Monaco" font-size="10.00">::ITimeRasterArgument</text>
<polyline fill="none" stroke="black" points="932,-43.1699 1110.03,-43.1699 "/>
<text text-anchor="middle" x="1021.01" y="-31.1699" font-family="Monaco" font-size="10.00"> </text>
<polyline fill="none" stroke="black" points="932,-21.835 1110.03,-21.835 "/>
<text text-anchor="start" x="940" y="-9.83496" font-family="Monaco" font-size="10.00">+ ~ITimeRasterArgument()</text>
</a>
</g>
</g>
<!-- Node14&#45;&gt;Node15 -->
<g id="edge14" class="edge"><title>Node14&#45;&gt;Node15</title>
<path fill="none" stroke="midnightblue" d="M1022.63,-104.24C1022.41,-95.3846 1022.18,-86.394 1021.97,-78.0584"/>
<polygon fill="none" stroke="midnightblue" points="1019.14,-104.616 1022.89,-114.525 1026.13,-104.44 1019.14,-104.616"/>
</g>
<!-- Node16&#45;&gt;Node7 -->
<g id="edge16" class="edge"><title>Node16&#45;&gt;Node7</title>
<path fill="none" stroke="midnightblue" d="M382.586,-114.428C324.083,-91.439 305.43,-94.3925 249.013,-78.3398 240.598,-75.9456 231.884,-73.421 223.143,-70.8577"/>
<polygon fill="none" stroke="midnightblue" points="381.337,-117.698 391.921,-118.18 383.947,-111.203 381.337,-117.698"/>
</g>
<!-- Node16&#45;&gt;Node9 -->
<g id="edge17" class="edge"><title>Node16&#45;&gt;Node9</title>
<path fill="none" stroke="midnightblue" d="M417.27,-106.834C408.808,-97.1499 400.121,-87.2095 392.124,-78.0584"/>
<polygon fill="none" stroke="midnightblue" points="414.776,-109.298 423.992,-114.525 420.047,-104.692 414.776,-109.298"/>
</g>
<!-- Node16&#45;&gt;Node11 -->
<g id="edge18" class="edge"><title>Node16&#45;&gt;Node11</title>
<path fill="none" stroke="midnightblue" d="M512.004,-107.121C521.203,-97.3468 530.658,-87.3001 539.356,-78.0584"/>
<polygon fill="none" stroke="midnightblue" points="509.341,-104.844 505.037,-114.525 514.439,-109.641 509.341,-104.844"/>
</g>
<!-- Node16&#45;&gt;Node13 -->
<g id="edge19" class="edge"><title>Node16&#45;&gt;Node13</title>
<path fill="none" stroke="midnightblue" d="M543.563,-114.37C600.281,-91.8237 618.356,-94.1842 673.013,-78.3398 677.184,-77.1307 681.43,-75.8908 685.717,-74.6314"/>
<polygon fill="none" stroke="midnightblue" points="542.064,-111.201 534.117,-118.208 544.699,-117.686 542.064,-111.201"/>
</g>
<!-- Node16&#45;&gt;Node15 -->
<g id="edge20" class="edge"><title>Node16&#45;&gt;Node15</title>
<path fill="none" stroke="midnightblue" d="M544.147,-114.357C706.188,-66.0277 759.898,-116.028 921.013,-78.3398 924.632,-77.4933 928.296,-76.5461 931.975,-75.519"/>
<polygon fill="none" stroke="midnightblue" points="542.869,-111.088 534.333,-117.364 544.919,-117.781 542.869,-111.088"/>
</g>
</g>
</svg>
