<?xml version="1.0" encoding="UTF-8" standalone="no"?>
<!DOCTYPE svg PUBLIC "-//W3C//DTD SVG 1.1//EN"
 "http://www.w3.org/Graphics/SVG/1.1/DTD/svg11.dtd">
<!-- Generated by graphviz version 2.38.0 (20140413.2041)
 -->
<!-- Title: HydroCouple::Spatial::IGeometryExchangeItem Pages: 1 -->
<!--zoomable 831 -->
<svg id="main" version="1.1" xmlns="http://www.w3.org/2000/svg" xmlns:xlink="http://www.w3.org/1999/xlink" xml:space="preserve" onload="init(evt)">
<style type="text/css"><![CDATA[
.edge:hover path { stroke: red; }
.edge:hover polygon { stroke: red; fill: red; }
]]></style>
<script type="text/javascript"><![CDATA[
var edges = document.getElementsByTagName('g');
if (edges && edges.length) {
  for (var i=0;i<edges.length;i++) {
    if (edges[i].id.substr(0,4)=='edge') {
      edges[i].setAttribute('class','edge');
    }
  }
}
]]></script>
        <defs>
                <circle id="rim" cx="0" cy="0" r="7"/>
                <circle id="rim2" cx="0" cy="0" r="3.5"/>
                <g id="zoomPlus">
                        <use xlink:href="#rim" fill="#404040">
                                <set attributeName="fill" to="#808080" begin="zoomplus.mouseover" end="zoomplus.mouseout"/>
                        </use>
                        <path d="M-4,0h8M0,-4v8" fill="none" stroke="white" stroke-width="1.5" pointer-events="none"/>
                </g>
                <g id="zoomMin">
                        <use xlink:href="#rim" fill="#404040">
                                <set attributeName="fill" to="#808080" begin="zoomminus.mouseover" end="zoomminus.mouseout"/>
                        </use>
                        <path d="M-4,0h8" fill="none" stroke="white" stroke-width="1.5" pointer-events="none"/>
                </g>
                <g id="dirArrow">
                        <path fill="none" stroke="white" stroke-width="1.5" d="M0,-3.0v7 M-2.5,-0.5L0,-3.0L2.5,-0.5"/>
                </g>
               <g id="resetDef">
                       <use xlink:href="#rim2" fill="#404040">
                               <set attributeName="fill" to="#808080" begin="reset.mouseover" end="reset.mouseout"/>
                       </use>
               </g>
        </defs>

<script type="text/javascript">
var viewWidth = 400;
var viewHeight = 831;
var sectionId = 'dynsection-1';
</script>
<script xlink:href="svgpan.js"/>
<svg id="graph" class="graph">
<g id="viewport">
<title>HydroCouple::Spatial::IGeometryExchangeItem</title>
<!-- Node1 -->
<g id="node1" class="node"><title>Node1</title>
<polygon fill="#bfbfbf" stroke="black" points="102,-0.5 102,-77.8398 274.025,-77.8398 274.025,-0.5 102,-0.5"/>
<text text-anchor="start" x="110" y="-65.8398" font-family="Monaco" font-size="10.00">HydroCouple::Spatial</text>
<text text-anchor="middle" x="188.013" y="-52.5049" font-family="Monaco" font-size="10.00">::IGeometryExchangeItem</text>
<polyline fill="none" stroke="black" points="102,-43.1699 274.025,-43.1699 "/>
<text text-anchor="middle" x="188.013" y="-31.1699" font-family="Monaco" font-size="10.00"> </text>
<polyline fill="none" stroke="black" points="102,-21.835 274.025,-21.835 "/>
<text text-anchor="start" x="110" y="-9.83496" font-family="Monaco" font-size="10.00">+ ~IGeometryExchangeItem()</text>
</g>
<!-- Node2 -->
<g id="node2" class="node"><title>Node2</title>
<g id="a_node2"><a xlink:href="class_hydro_couple_1_1_i_exchange_item.html" target="_top" xlink:title="IExchangeItem the base data item the can be exchanged between components at runtime. ">
<polygon fill="none" stroke="black" points="0,-141.51 0,-205.515 172.025,-205.515 172.025,-141.51 0,-141.51"/>
<text text-anchor="middle" x="86.0127" y="-193.515" font-family="Monaco" font-size="10.00">HydroCouple::IExchangeItem</text>
<polyline fill="none" stroke="black" points="0,-184.18 172.025,-184.18 "/>
<text text-anchor="middle" x="86.0127" y="-172.18" font-family="Monaco" font-size="10.00"> </text>
<polyline fill="none" stroke="black" points="0,-162.845 172.025,-162.845 "/>
<text text-anchor="start" x="8" y="-150.845" font-family="Monaco" font-size="10.00">+ ~IExchangeItem()</text>
</a>
</g>
</g>
<!-- Node2&#45;&gt;Node1 -->
<g id="edge1" class="edge"><title>Node2&#45;&gt;Node1</title>
<path fill="none" stroke="midnightblue" d="M116.315,-133.196C129.746,-115.769 145.484,-95.3499 158.788,-78.0884"/>
<polygon fill="none" stroke="midnightblue" points="113.26,-131.427 109.927,-141.484 118.804,-135.7 113.26,-131.427"/>
</g>
<!-- Node3 -->
<g id="node3" class="node"><title>Node3</title>
<g id="a_node3"><a xlink:href="class_hydro_couple_1_1_i_component_data_item.html" target="_top" xlink:title="IComponentItem is a fundamental unit of data for a component. ">
<polygon fill="none" stroke="black" points="86.9976,-269.185 86.9976,-453.204 289.028,-453.204 289.028,-269.185 86.9976,-269.185"/>
<text text-anchor="middle" x="188.013" y="-441.204" font-family="Monaco" font-size="10.00">HydroCouple::IComponentDataItem</text>
<polyline fill="none" stroke="black" points="86.9976,-431.869 289.028,-431.869 "/>
<text text-anchor="middle" x="188.013" y="-419.869" font-family="Monaco" font-size="10.00"> </text>
<polyline fill="none" stroke="black" points="86.9976,-410.534 289.028,-410.534 "/>
<text text-anchor="start" x="94.9976" y="-398.534" font-family="Monaco" font-size="10.00">+ ~IComponentDataItem()</text>
<text text-anchor="start" x="94.9976" y="-385.199" font-family="Monaco" font-size="10.00">+ modelComponent()</text>
<text text-anchor="start" x="94.9976" y="-371.864" font-family="Monaco" font-size="10.00">+ dimensions()</text>
<text text-anchor="start" x="94.9976" y="-358.529" font-family="Monaco" font-size="10.00">+ valueDefinition()</text>
<text text-anchor="start" x="94.9976" y="-345.194" font-family="Monaco" font-size="10.00">+ getValue()</text>
<text text-anchor="start" x="94.9976" y="-331.859" font-family="Monaco" font-size="10.00">+ getValues()</text>
<text text-anchor="start" x="94.9976" y="-318.524" font-family="Monaco" font-size="10.00">+ getValues()</text>
<text text-anchor="start" x="94.9976" y="-305.189" font-family="Monaco" font-size="10.00">+ setValue()</text>
<text text-anchor="start" x="94.9976" y="-291.854" font-family="Monaco" font-size="10.00">+ setValues()</text>
<text text-anchor="start" x="94.9976" y="-278.52" font-family="Monaco" font-size="10.00">+ setValues()</text>
</a>
</g>
</g>
<!-- Node3&#45;&gt;Node2 -->
<g id="edge2" class="edge"><title>Node3&#45;&gt;Node2</title>
<path fill="none" stroke="midnightblue" d="M133.08,-260.194C122.223,-240.431 111.606,-221.102 103.211,-205.82"/>
<polygon fill="none" stroke="midnightblue" points="130.027,-261.906 137.909,-268.985 136.162,-258.535 130.027,-261.906"/>
</g>
<!-- Node7 -->
<g id="node7" class="node"><title>Node7</title>
<g id="a_node7"><a xlink:href="class_hydro_couple_1_1_spatial_1_1_i_geometry_component_data_item.html" target="_top" xlink:title="IGeometryComponentItem represents IGeometryCollection IComponentItem. This class must be implemented ...">
<polygon fill="none" stroke="black" points="189.998,-114.84 189.998,-232.185 392.028,-232.185 392.028,-114.84 189.998,-114.84"/>
<text text-anchor="start" x="197.998" y="-220.185" font-family="Monaco" font-size="10.00">HydroCouple::Spatial</text>
<text text-anchor="middle" x="291.013" y="-206.85" font-family="Monaco" font-size="10.00">::IGeometryComponentDataItem</text>
<polyline fill="none" stroke="black" points="189.998,-197.515 392.028,-197.515 "/>
<text text-anchor="middle" x="291.013" y="-185.515" font-family="Monaco" font-size="10.00"> </text>
<polyline fill="none" stroke="black" points="189.998,-176.18 392.028,-176.18 "/>
<text text-anchor="start" x="197.998" y="-164.18" font-family="Monaco" font-size="10.00">+ ~IGeometryComponentDataItem()</text>
<text text-anchor="start" x="197.998" y="-150.845" font-family="Monaco" font-size="10.00">+ geometryCollection()</text>
<text text-anchor="start" x="197.998" y="-137.51" font-family="Monaco" font-size="10.00">+ geometry()</text>
<text text-anchor="start" x="197.998" y="-124.175" font-family="Monaco" font-size="10.00">+ geometryDimension()</text>
</a>
</g>
</g>
<!-- Node3&#45;&gt;Node7 -->
<g id="edge7" class="edge"><title>Node3&#45;&gt;Node7</title>
<path fill="none" stroke="midnightblue" d="M243.47,-260.22C248.754,-250.694 253.982,-241.269 258.93,-232.349"/>
<polygon fill="none" stroke="midnightblue" points="240.398,-258.543 238.607,-268.985 246.519,-261.938 240.398,-258.543"/>
</g>
<!-- Node4 -->
<g id="node4" class="node"><title>Node4</title>
<g id="a_node4"><a xlink:href="class_hydro_couple_1_1_i_identity.html" target="_top" xlink:title="IIdentity interface class defines a method to get the Id of an HydroCouple entity. ">
<polygon fill="none" stroke="black" points="114.002,-490.204 114.002,-567.544 262.023,-567.544 262.023,-490.204 114.002,-490.204"/>
<text text-anchor="middle" x="188.013" y="-555.544" font-family="Monaco" font-size="10.00">HydroCouple::IIdentity</text>
<polyline fill="none" stroke="black" points="114.002,-546.209 262.023,-546.209 "/>
<text text-anchor="middle" x="188.013" y="-534.209" font-family="Monaco" font-size="10.00"> </text>
<polyline fill="none" stroke="black" points="114.002,-524.874 262.023,-524.874 "/>
<text text-anchor="start" x="122.002" y="-512.874" font-family="Monaco" font-size="10.00">+ ~IIdentity()</text>
<text text-anchor="start" x="122.002" y="-499.539" font-family="Monaco" font-size="10.00">+ id()</text>
</a>
</g>
</g>
<!-- Node4&#45;&gt;Node3 -->
<g id="edge3" class="edge"><title>Node4&#45;&gt;Node3</title>
<path fill="none" stroke="midnightblue" d="M188.013,-479.622C188.013,-471.268 188.013,-462.343 188.013,-453.285"/>
<polygon fill="none" stroke="midnightblue" points="184.513,-479.864 188.013,-489.864 191.513,-479.864 184.513,-479.864"/>
</g>
<!-- Node5 -->
<g id="node5" class="node"><title>Node5</title>
<g id="a_node5"><a xlink:href="class_hydro_couple_1_1_i_description.html" target="_top" xlink:title="IDescription interface class provides descriptive information on a HydroCouple object. ">
<polygon fill="none" stroke="black" points="105,-604.544 105,-721.889 271.025,-721.889 271.025,-604.544 105,-604.544"/>
<text text-anchor="middle" x="188.013" y="-709.889" font-family="Monaco" font-size="10.00">HydroCouple::IDescription</text>
<polyline fill="none" stroke="black" points="105,-700.554 271.025,-700.554 "/>
<text text-anchor="middle" x="188.013" y="-688.554" font-family="Monaco" font-size="10.00"> </text>
<polyline fill="none" stroke="black" points="105,-679.219 271.025,-679.219 "/>
<text text-anchor="start" x="113" y="-667.219" font-family="Monaco" font-size="10.00">+ ~IDescription()</text>
<text text-anchor="start" x="113" y="-653.884" font-family="Monaco" font-size="10.00">+ caption()</text>
<text text-anchor="start" x="113" y="-640.549" font-family="Monaco" font-size="10.00">+ setCaption()</text>
<text text-anchor="start" x="113" y="-627.214" font-family="Monaco" font-size="10.00">+ description()</text>
<text text-anchor="start" x="113" y="-613.879" font-family="Monaco" font-size="10.00">+ setDescription()</text>
</a>
</g>
</g>
<!-- Node5&#45;&gt;Node4 -->
<g id="edge4" class="edge"><title>Node5&#45;&gt;Node4</title>
<path fill="none" stroke="midnightblue" d="M188.013,-593.978C188.013,-584.939 188.013,-575.952 188.013,-567.691"/>
<polygon fill="none" stroke="midnightblue" points="184.513,-594.169 188.013,-604.169 191.513,-594.169 184.513,-594.169"/>
</g>
<!-- Node6 -->
<g id="node6" class="node"><title>Node6</title>
<g id="a_node6"><a xlink:href="class_hydro_couple_1_1_i_property_changed.html" target="_top" xlink:title="IPropertyChanged interface is used to emit signal/event when a property of an object changes...">
<polygon fill="none" stroke="black" points="92.9985,-758.889 92.9985,-822.894 283.027,-822.894 283.027,-758.889 92.9985,-758.889"/>
<text text-anchor="middle" x="188.013" y="-810.894" font-family="Monaco" font-size="10.00">HydroCouple::IPropertyChanged</text>
<polyline fill="none" stroke="black" points="92.9985,-801.559 283.027,-801.559 "/>
<text text-anchor="middle" x="188.013" y="-789.559" font-family="Monaco" font-size="10.00"> </text>
<polyline fill="none" stroke="black" points="92.9985,-780.224 283.027,-780.224 "/>
<text text-anchor="start" x="100.999" y="-768.224" font-family="Monaco" font-size="10.00">+ ~IPropertyChanged()</text>
</a>
</g>
</g>
<!-- Node6&#45;&gt;Node5 -->
<g id="edge5" class="edge"><title>Node6&#45;&gt;Node5</title>
<path fill="none" stroke="midnightblue" d="M188.013,-748.568C188.013,-740.183 188.013,-731.217 188.013,-722.375"/>
<polygon fill="none" stroke="midnightblue" points="184.513,-748.825 188.013,-758.825 191.513,-748.825 184.513,-748.825"/>
</g>
<!-- Node7&#45;&gt;Node1 -->
<g id="edge6" class="edge"><title>Node7&#45;&gt;Node1</title>
<path fill="none" stroke="midnightblue" d="M239.493,-106.316C231.925,-96.5921 224.358,-86.8695 217.445,-77.9873"/>
<polygon fill="none" stroke="midnightblue" points="236.931,-108.723 245.835,-114.465 242.456,-104.424 236.931,-108.723"/>
</g>
</g>
</svg>
        <g id="navigator" transform="translate(0 0)" fill="#404254">
                <rect fill="#f2f5e9" fill-opacity="0.5" stroke="#606060" stroke-width=".5" x="0" y="0" width="60" height="60"/>
                <use id="zoomplus" xlink:href="#zoomPlus" x="17" y="9" onmousedown="handleZoom(evt,'in')"/>
                <use id="zoomminus" xlink:href="#zoomMin" x="42" y="9" onmousedown="handleZoom(evt,'out')"/>
                <use id="reset" xlink:href="#resetDef" x="30" y="36" onmousedown="handleReset()"/>
                <g id="arrowUp" xlink:href="#dirArrow" transform="translate(30 24)" onmousedown="handlePan(0,-1)">
                  <use xlink:href="#rim" fill="#404040">
                        <set attributeName="fill" to="#808080" begin="arrowUp.mouseover" end="arrowUp.mouseout"/>
                  </use>
                  <path fill="none" stroke="white" stroke-width="1.5" d="M0,-3.0v7 M-2.5,-0.5L0,-3.0L2.5,-0.5"/>
                </g>
                <g id="arrowRight" xlink:href="#dirArrow" transform="rotate(90) translate(36 -43)" onmousedown="handlePan(1,0)">
                  <use xlink:href="#rim" fill="#404040">
                        <set attributeName="fill" to="#808080" begin="arrowRight.mouseover" end="arrowRight.mouseout"/>
                  </use>
                  <path fill="none" stroke="white" stroke-width="1.5" d="M0,-3.0v7 M-2.5,-0.5L0,-3.0L2.5,-0.5"/>
                </g>
                <g id="arrowDown" xlink:href="#dirArrow" transform="rotate(180) translate(-30 -48)" onmousedown="handlePan(0,1)">
                  <use xlink:href="#rim" fill="#404040">
                        <set attributeName="fill" to="#808080" begin="arrowDown.mouseover" end="arrowDown.mouseout"/>
                  </use>
                  <path fill="none" stroke="white" stroke-width="1.5" d="M0,-3.0v7 M-2.5,-0.5L0,-3.0L2.5,-0.5"/>
                </g>
                <g id="arrowLeft" xlink:href="#dirArrow" transform="rotate(270) translate(-36 17)" onmousedown="handlePan(-1,0)">
                  <use xlink:href="#rim" fill="#404040">
                        <set attributeName="fill" to="#808080" begin="arrowLeft.mouseover" end="arrowLeft.mouseout"/>
                  </use>
                  <path fill="none" stroke="white" stroke-width="1.5" d="M0,-3.0v7 M-2.5,-0.5L0,-3.0L2.5,-0.5"/>
                </g>
        </g>
        <svg viewBox="0 0 15 15" width="100%" height="30px" preserveAspectRatio="xMaxYMin meet">
         <g id="arrow_out" transform="scale(0.3 0.3)">
          <a xlink:href="class_hydro_couple_1_1_spatial_1_1_i_geometry_exchange_item__coll__graph_org.svg" target="_base">
           <rect id="button" ry="5" rx="5" y="6" x="6" height="38" width="38"
                fill="#f2f5e9" fill-opacity="0.5" stroke="#606060" stroke-width="1.0"/>
           <path id="arrow"
             d="M 11.500037,31.436501 C 11.940474,20.09759 22.043105,11.32322 32.158766,21.979434 L 37.068811,17.246167 C 37.068811,17.246167 37.088388,32 37.088388,32 L 22.160133,31.978069 C 22.160133,31.978069 26.997745,27.140456 26.997745,27.140456 C 18.528582,18.264221 13.291696,25.230495 11.500037,31.436501 z"
             style="fill:#404040;"/>
          </a>
         </g>
        </svg>
</svg>
