<?xml version="1.0" encoding="UTF-8" standalone="no"?>
<!DOCTYPE svg PUBLIC "-//W3C//DTD SVG 1.1//EN"
 "http://www.w3.org/Graphics/SVG/1.1/DTD/svg11.dtd">
<!-- Generated by graphviz version 2.38.0 (20140413.2041)
 -->
<!-- Title: HydroCouple::Spatial::ITINExchangeItem Pages: 1 -->
<svg width="370pt" height="911pt"
 viewBox="0.00 0.00 370.03 911.40" xmlns="http://www.w3.org/2000/svg" xmlns:xlink="http://www.w3.org/1999/xlink">
<g id="graph0" class="graph" transform="scale(1 1) rotate(0) translate(4 907.403)">
<title>HydroCouple::Spatial::ITINExchangeItem</title>
<polygon fill="white" stroke="none" points="-4,4 -4,-907.403 366.025,-907.403 366.025,4 -4,4"/>
<!-- Node1 -->
<g id="node1" class="node"><title>Node1</title>
<polygon fill="#bfbfbf" stroke="black" points="110.002,-0.5 110.002,-77.8398 252.023,-77.8398 252.023,-0.5 110.002,-0.5"/>
<text text-anchor="start" x="118.002" y="-65.8398" font-family="Monaco" font-size="10.00">HydroCouple::Spatial</text>
<text text-anchor="middle" x="181.013" y="-52.5049" font-family="Monaco" font-size="10.00">::ITINExchangeItem</text>
<polyline fill="none" stroke="black" points="110.002,-43.1699 252.023,-43.1699 "/>
<text text-anchor="middle" x="181.013" y="-31.1699" font-family="Monaco" font-size="10.00"> </text>
<polyline fill="none" stroke="black" points="110.002,-21.835 252.023,-21.835 "/>
<text text-anchor="start" x="118.002" y="-9.83496" font-family="Monaco" font-size="10.00">+ ~ITINExchangeItem()</text>
</g>
<!-- Node2 -->
<g id="node2" class="node"><title>Node2</title>
<g id="a_node2"><a xlink:href="class_hydro_couple_1_1_i_exchange_item.html" target="_top" xlink:title="IExchangeItem the base data item the can be exchanged between components at runtime. ">
<polygon fill="white" stroke="black" points="0,-174.847 0,-252.187 172.025,-252.187 172.025,-174.847 0,-174.847"/>
<text text-anchor="middle" x="86.0127" y="-240.187" font-family="Monaco" font-size="10.00">HydroCouple::IExchangeItem</text>
<polyline fill="none" stroke="black" points="0,-230.852 172.025,-230.852 "/>
<text text-anchor="middle" x="86.0127" y="-218.852" font-family="Monaco" font-size="10.00"> </text>
<polyline fill="none" stroke="black" points="0,-209.517 172.025,-209.517 "/>
<text text-anchor="start" x="8" y="-197.517" font-family="Monaco" font-size="10.00">+ ~IExchangeItem()</text>
<text text-anchor="start" x="8" y="-184.182" font-family="Monaco" font-size="10.00">+ itemChanged()</text>
</a>
</g>
</g>
<!-- Node2&#45;&gt;Node1 -->
<g id="edge1" class="edge"><title>Node2&#45;&gt;Node1</title>
<path fill="none" stroke="midnightblue" d="M111.856,-165.633C127.045,-138.078 145.993,-103.702 160.213,-77.904"/>
<polygon fill="none" stroke="midnightblue" points="108.623,-164.248 106.861,-174.695 114.753,-167.627 108.623,-164.248"/>
</g>
<!-- Node3 -->
<g id="node3" class="node"><title>Node3</title>
<g id="a_node3"><a xlink:href="class_hydro_couple_1_1_i_component_data_item.html" target="_top" xlink:title="IComponentItem is a fundamental unit of data for a component. ">
<polygon fill="white" stroke="black" points="79.9976,-349.194 79.9976,-533.214 282.028,-533.214 282.028,-349.194 79.9976,-349.194"/>
<text text-anchor="middle" x="181.013" y="-521.214" font-family="Monaco" font-size="10.00">HydroCouple::IComponentDataItem</text>
<polyline fill="none" stroke="black" points="79.9976,-511.879 282.028,-511.879 "/>
<text text-anchor="middle" x="181.013" y="-499.879" font-family="Monaco" font-size="10.00"> </text>
<polyline fill="none" stroke="black" points="79.9976,-490.544 282.028,-490.544 "/>
<text text-anchor="start" x="87.9976" y="-478.544" font-family="Monaco" font-size="10.00">+ ~IComponentDataItem()</text>
<text text-anchor="start" x="87.9976" y="-465.209" font-family="Monaco" font-size="10.00">+ modelComponent()</text>
<text text-anchor="start" x="87.9976" y="-451.874" font-family="Monaco" font-size="10.00">+ dimensions()</text>
<text text-anchor="start" x="87.9976" y="-438.539" font-family="Monaco" font-size="10.00">+ valueDefinition()</text>
<text text-anchor="start" x="87.9976" y="-425.204" font-family="Monaco" font-size="10.00">+ getValue()</text>
<text text-anchor="start" x="87.9976" y="-411.869" font-family="Monaco" font-size="10.00">+ getValues()</text>
<text text-anchor="start" x="87.9976" y="-398.534" font-family="Monaco" font-size="10.00">+ getValues()</text>
<text text-anchor="start" x="87.9976" y="-385.199" font-family="Monaco" font-size="10.00">+ setValue()</text>
<text text-anchor="start" x="87.9976" y="-371.864" font-family="Monaco" font-size="10.00">+ setValues()</text>
<text text-anchor="start" x="87.9976" y="-358.529" font-family="Monaco" font-size="10.00">+ setValues()</text>
</a>
</g>
</g>
<!-- Node3&#45;&gt;Node2 -->
<g id="edge2" class="edge"><title>Node3&#45;&gt;Node2</title>
<path fill="none" stroke="midnightblue" d="M138.624,-339.502C125.593,-308.546 112.044,-276.357 101.959,-252.399"/>
<polygon fill="none" stroke="midnightblue" points="135.541,-341.2 142.646,-349.059 141.993,-338.484 135.541,-341.2"/>
</g>
<!-- Node7 -->
<g id="node7" class="node"><title>Node7</title>
<g id="a_node7"><a xlink:href="class_hydro_couple_1_1_spatial_1_1_i_t_i_n_component_data_item.html" target="_top" xlink:title="ITINComponentDataItem represents ITIN IComponentDataItem. ">
<polygon fill="white" stroke="black" points="190,-114.84 190,-312.194 362.025,-312.194 362.025,-114.84 190,-114.84"/>
<text text-anchor="start" x="198" y="-300.194" font-family="Monaco" font-size="10.00">HydroCouple::Spatial</text>
<text text-anchor="middle" x="276.013" y="-286.859" font-family="Monaco" font-size="10.00">::ITINComponentDataItem</text>
<polyline fill="none" stroke="black" points="190,-277.524 362.025,-277.524 "/>
<text text-anchor="middle" x="276.013" y="-265.524" font-family="Monaco" font-size="10.00"> </text>
<polyline fill="none" stroke="black" points="190,-256.189 362.025,-256.189 "/>
<text text-anchor="start" x="198" y="-244.189" font-family="Monaco" font-size="10.00">+ ~ITINComponentDataItem()</text>
<text text-anchor="start" x="198" y="-230.854" font-family="Monaco" font-size="10.00">+ TIN()</text>
<text text-anchor="start" x="198" y="-217.52" font-family="Monaco" font-size="10.00">+ triangle()</text>
<text text-anchor="start" x="198" y="-204.185" font-family="Monaco" font-size="10.00">+ TINPatchDimension()</text>
<text text-anchor="start" x="198" y="-190.85" font-family="Monaco" font-size="10.00">+ getValue()</text>
<text text-anchor="start" x="198" y="-177.515" font-family="Monaco" font-size="10.00">+ getValues()</text>
<text text-anchor="start" x="198" y="-164.18" font-family="Monaco" font-size="10.00">+ getValues()</text>
<text text-anchor="start" x="198" y="-150.845" font-family="Monaco" font-size="10.00">+ setValue()</text>
<text text-anchor="start" x="198" y="-137.51" font-family="Monaco" font-size="10.00">+ setValues()</text>
<text text-anchor="start" x="198" y="-124.175" font-family="Monaco" font-size="10.00">+ setValues()</text>
</a>
</g>
</g>
<!-- Node3&#45;&gt;Node7 -->
<g id="edge7" class="edge"><title>Node3&#45;&gt;Node7</title>
<path fill="none" stroke="midnightblue" d="M223.347,-339.633C227.174,-330.54 231.047,-321.34 234.864,-312.272"/>
<polygon fill="none" stroke="midnightblue" points="220.033,-338.484 219.379,-349.059 226.485,-341.2 220.033,-338.484"/>
</g>
<!-- Node4 -->
<g id="node4" class="node"><title>Node4</title>
<g id="a_node4"><a xlink:href="class_hydro_couple_1_1_i_identity.html" target="_top" xlink:title="IIdentity interface class defines a method to get the Id of an HydroCouple entity. ">
<polygon fill="white" stroke="black" points="107.002,-570.214 107.002,-647.554 255.023,-647.554 255.023,-570.214 107.002,-570.214"/>
<text text-anchor="middle" x="181.013" y="-635.554" font-family="Monaco" font-size="10.00">HydroCouple::IIdentity</text>
<polyline fill="none" stroke="black" points="107.002,-626.219 255.023,-626.219 "/>
<text text-anchor="middle" x="181.013" y="-614.219" font-family="Monaco" font-size="10.00"> </text>
<polyline fill="none" stroke="black" points="107.002,-604.884 255.023,-604.884 "/>
<text text-anchor="start" x="115.002" y="-592.884" font-family="Monaco" font-size="10.00">+ ~IIdentity()</text>
<text text-anchor="start" x="115.002" y="-579.549" font-family="Monaco" font-size="10.00">+ id()</text>
</a>
</g>
</g>
<!-- Node4&#45;&gt;Node3 -->
<g id="edge3" class="edge"><title>Node4&#45;&gt;Node3</title>
<path fill="none" stroke="midnightblue" d="M181.013,-559.632C181.013,-551.278 181.013,-542.353 181.013,-533.295"/>
<polygon fill="none" stroke="midnightblue" points="177.513,-559.873 181.013,-569.874 184.513,-559.874 177.513,-559.873"/>
</g>
<!-- Node5 -->
<g id="node5" class="node"><title>Node5</title>
<g id="a_node5"><a xlink:href="class_hydro_couple_1_1_i_description.html" target="_top" xlink:title="IDescription interface class provides descriptive information on a HydroCouple object. ">
<polygon fill="white" stroke="black" points="98.0005,-684.554 98.0005,-801.898 264.025,-801.898 264.025,-684.554 98.0005,-684.554"/>
<text text-anchor="middle" x="181.013" y="-789.898" font-family="Monaco" font-size="10.00">HydroCouple::IDescription</text>
<polyline fill="none" stroke="black" points="98.0005,-780.563 264.025,-780.563 "/>
<text text-anchor="middle" x="181.013" y="-768.563" font-family="Monaco" font-size="10.00"> </text>
<polyline fill="none" stroke="black" points="98.0005,-759.229 264.025,-759.229 "/>
<text text-anchor="start" x="106" y="-747.229" font-family="Monaco" font-size="10.00">+ ~IDescription()</text>
<text text-anchor="start" x="106" y="-733.894" font-family="Monaco" font-size="10.00">+ caption()</text>
<text text-anchor="start" x="106" y="-720.559" font-family="Monaco" font-size="10.00">+ setCaption()</text>
<text text-anchor="start" x="106" y="-707.224" font-family="Monaco" font-size="10.00">+ description()</text>
<text text-anchor="start" x="106" y="-693.889" font-family="Monaco" font-size="10.00">+ setDescription()</text>
</a>
</g>
</g>
<!-- Node5&#45;&gt;Node4 -->
<g id="edge4" class="edge"><title>Node5&#45;&gt;Node4</title>
<path fill="none" stroke="midnightblue" d="M181.013,-673.988C181.013,-664.949 181.013,-655.962 181.013,-647.701"/>
<polygon fill="none" stroke="midnightblue" points="177.513,-674.179 181.013,-684.179 184.513,-674.179 177.513,-674.179"/>
</g>
<!-- Node6 -->
<g id="node6" class="node"><title>Node6</title>
<g id="a_node6"><a xlink:href="class_hydro_couple_1_1_i_property_changed.html" target="_top" xlink:title="IPropertyChanged interface is used to emit signal/event when a property of an object changes...">
<polygon fill="white" stroke="black" points="85.9985,-838.898 85.9985,-902.903 276.027,-902.903 276.027,-838.898 85.9985,-838.898"/>
<text text-anchor="middle" x="181.013" y="-890.903" font-family="Monaco" font-size="10.00">HydroCouple::IPropertyChanged</text>
<polyline fill="none" stroke="black" points="85.9985,-881.568 276.027,-881.568 "/>
<text text-anchor="middle" x="181.013" y="-869.568" font-family="Monaco" font-size="10.00"> </text>
<polyline fill="none" stroke="black" points="85.9985,-860.233 276.027,-860.233 "/>
<text text-anchor="start" x="93.9985" y="-848.233" font-family="Monaco" font-size="10.00">+ ~IPropertyChanged()</text>
</a>
</g>
</g>
<!-- Node6&#45;&gt;Node5 -->
<g id="edge5" class="edge"><title>Node6&#45;&gt;Node5</title>
<path fill="none" stroke="midnightblue" d="M181.013,-828.578C181.013,-820.193 181.013,-811.227 181.013,-802.384"/>
<polygon fill="none" stroke="midnightblue" points="177.513,-828.835 181.013,-838.835 184.513,-828.835 177.513,-828.835"/>
</g>
<!-- Node7&#45;&gt;Node1 -->
<g id="edge6" class="edge"><title>Node7&#45;&gt;Node1</title>
<path fill="none" stroke="midnightblue" d="M217.271,-105.95C211.797,-96.0183 206.534,-86.4704 201.797,-77.8757"/>
<polygon fill="none" stroke="midnightblue" points="214.236,-107.693 222.129,-114.762 220.366,-104.314 214.236,-107.693"/>
</g>
</g>
</svg>
