<?xml version="1.0" encoding="UTF-8" standalone="no"?>
<!DOCTYPE svg PUBLIC "-//W3C//DTD SVG 1.1//EN"
 "http://www.w3.org/Graphics/SVG/1.1/DTD/svg11.dtd">
<!-- Generated by graphviz version 2.38.0 (20140413.2041)
 -->
<!-- Title: HydroCouple::IComponentInfo Pages: 1 -->
<svg width="198pt" height="643pt"
 viewBox="0.00 0.00 198.03 642.72" xmlns="http://www.w3.org/2000/svg" xmlns:xlink="http://www.w3.org/1999/xlink">
<g id="graph0" class="graph" transform="scale(1 1) rotate(0) translate(4 638.719)">
<title>HydroCouple::IComponentInfo</title>
<polygon fill="white" stroke="none" points="-4,4 -4,-638.719 194.028,-638.719 194.028,4 -4,4"/>
<!-- Node1 -->
<g id="node1" class="node"><title>Node1</title>
<polygon fill="#bfbfbf" stroke="black" points="6.00098,-0.5 6.00098,-237.859 184.027,-237.859 184.027,-0.5 6.00098,-0.5"/>
<text text-anchor="middle" x="95.0142" y="-225.859" font-family="Monaco" font-size="10.00">HydroCouple::IComponentInfo</text>
<polyline fill="none" stroke="black" points="6.00098,-216.524 184.027,-216.524 "/>
<text text-anchor="middle" x="95.0142" y="-204.524" font-family="Monaco" font-size="10.00"> </text>
<polyline fill="none" stroke="black" points="6.00098,-195.189 184.027,-195.189 "/>
<text text-anchor="start" x="14.001" y="-183.189" font-family="Monaco" font-size="10.00">+ ~IComponentInfo()</text>
<text text-anchor="start" x="14.001" y="-169.854" font-family="Monaco" font-size="10.00">+ name()</text>
<text text-anchor="start" x="14.001" y="-156.52" font-family="Monaco" font-size="10.00">+ libraryFilePath()</text>
<text text-anchor="start" x="14.001" y="-143.185" font-family="Monaco" font-size="10.00">+ setLibraryFilePath()</text>
<text text-anchor="start" x="14.001" y="-129.85" font-family="Monaco" font-size="10.00">+ iconFilePath()</text>
<text text-anchor="start" x="14.001" y="-116.515" font-family="Monaco" font-size="10.00">+ vendor()</text>
<text text-anchor="start" x="14.001" y="-103.18" font-family="Monaco" font-size="10.00">+ publications()</text>
<text text-anchor="start" x="14.001" y="-89.8447" font-family="Monaco" font-size="10.00">+ license()</text>
<text text-anchor="start" x="14.001" y="-76.5098" font-family="Monaco" font-size="10.00">+ copyright()</text>
<text text-anchor="start" x="14.001" y="-63.1748" font-family="Monaco" font-size="10.00">+ url()</text>
<text text-anchor="start" x="14.001" y="-49.8398" font-family="Monaco" font-size="10.00">+ email()</text>
<text text-anchor="start" x="14.001" y="-36.5049" font-family="Monaco" font-size="10.00">+ version()</text>
<text text-anchor="start" x="14.001" y="-23.1699" font-family="Monaco" font-size="10.00">+ category()</text>
<text text-anchor="start" x="14.001" y="-9.83496" font-family="Monaco" font-size="10.00">+ validateLicense()</text>
</g>
<!-- Node2 -->
<g id="node2" class="node"><title>Node2</title>
<g id="a_node2"><a xlink:href="class_hydro_couple_1_1_i_identity.html" target="_top" xlink:title="IIdentity interface class defines a method to get the Id of an HydroCouple entity. ">
<polygon fill="white" stroke="black" points="21.0034,-274.859 21.0034,-378.869 169.025,-378.869 169.025,-274.859 21.0034,-274.859"/>
<text text-anchor="middle" x="95.0142" y="-366.869" font-family="Monaco" font-size="10.00">HydroCouple::IIdentity</text>
<polyline fill="none" stroke="black" points="21.0034,-357.534 169.025,-357.534 "/>
<text text-anchor="middle" x="95.0142" y="-345.534" font-family="Monaco" font-size="10.00"> </text>
<polyline fill="none" stroke="black" points="21.0034,-336.199 169.025,-336.199 "/>
<text text-anchor="start" x="29.0034" y="-324.199" font-family="Monaco" font-size="10.00">+ ~IIdentity()</text>
<text text-anchor="start" x="29.0034" y="-310.864" font-family="Monaco" font-size="10.00">+ MPI_Comm()</text>
<text text-anchor="start" x="29.0034" y="-297.529" font-family="Monaco" font-size="10.00">+ MPI_Rank()</text>
<text text-anchor="start" x="29.0034" y="-284.194" font-family="Monaco" font-size="10.00">+ id()</text>
</a>
</g>
</g>
<!-- Node2&#45;&gt;Node1 -->
<g id="edge1" class="edge"><title>Node2&#45;&gt;Node1</title>
<path fill="none" stroke="midnightblue" d="M95.0142,-264.583C95.0142,-256.04 95.0142,-247.036 95.0142,-237.871"/>
<polygon fill="none" stroke="midnightblue" points="91.5143,-264.757 95.0142,-274.757 98.5143,-264.757 91.5143,-264.757"/>
</g>
<!-- Node3 -->
<g id="node3" class="node"><title>Node3</title>
<g id="a_node3"><a xlink:href="class_hydro_couple_1_1_i_description.html" target="_top" xlink:title="IDescription interface class provides descriptive information on a HydroCouple object. ">
<polygon fill="white" stroke="black" points="12.002,-415.869 12.002,-533.214 178.026,-533.214 178.026,-415.869 12.002,-415.869"/>
<text text-anchor="middle" x="95.0142" y="-521.214" font-family="Monaco" font-size="10.00">HydroCouple::IDescription</text>
<polyline fill="none" stroke="black" points="12.002,-511.879 178.026,-511.879 "/>
<text text-anchor="middle" x="95.0142" y="-499.879" font-family="Monaco" font-size="10.00"> </text>
<polyline fill="none" stroke="black" points="12.002,-490.544 178.026,-490.544 "/>
<text text-anchor="start" x="20.002" y="-478.544" font-family="Monaco" font-size="10.00">+ ~IDescription()</text>
<text text-anchor="start" x="20.002" y="-465.209" font-family="Monaco" font-size="10.00">+ getCaption()</text>
<text text-anchor="start" x="20.002" y="-451.874" font-family="Monaco" font-size="10.00">+ setCaption()</text>
<text text-anchor="start" x="20.002" y="-438.539" font-family="Monaco" font-size="10.00">+ getDescription()</text>
<text text-anchor="start" x="20.002" y="-425.204" font-family="Monaco" font-size="10.00">+ setDescription()</text>
</a>
</g>
</g>
<!-- Node3&#45;&gt;Node2 -->
<g id="edge2" class="edge"><title>Node3&#45;&gt;Node2</title>
<path fill="none" stroke="midnightblue" d="M95.0142,-405.268C95.0142,-396.45 95.0142,-387.542 95.0142,-379.065"/>
<polygon fill="none" stroke="midnightblue" points="91.5143,-405.547 95.0142,-415.547 98.5143,-405.547 91.5143,-405.547"/>
</g>
<!-- Node4 -->
<g id="node4" class="node"><title>Node4</title>
<g id="a_node4"><a xlink:href="class_hydro_couple_1_1_i_property_changed.html" target="_top" xlink:title="IPropertyChanged interface is used to emit signal/event when a property of an object changes...">
<polygon fill="white" stroke="black" points="0,-570.214 0,-634.219 190.028,-634.219 190.028,-570.214 0,-570.214"/>
<text text-anchor="middle" x="95.0142" y="-622.219" font-family="Monaco" font-size="10.00">HydroCouple::IPropertyChanged</text>
<polyline fill="none" stroke="black" points="0,-612.884 190.028,-612.884 "/>
<text text-anchor="middle" x="95.0142" y="-600.884" font-family="Monaco" font-size="10.00"> </text>
<polyline fill="none" stroke="black" points="0,-591.549 190.028,-591.549 "/>
<text text-anchor="start" x="8" y="-579.549" font-family="Monaco" font-size="10.00">+ ~IPropertyChanged()</text>
</a>
</g>
</g>
<!-- Node4&#45;&gt;Node3 -->
<g id="edge3" class="edge"><title>Node4&#45;&gt;Node3</title>
<path fill="none" stroke="midnightblue" d="M95.0142,-559.893C95.0142,-551.508 95.0142,-542.542 95.0142,-533.7"/>
<polygon fill="none" stroke="midnightblue" points="91.5143,-560.151 95.0142,-570.151 98.5143,-560.151 91.5143,-560.151"/>
</g>
</g>
</svg>
