<?xml version="1.0" encoding="UTF-8" standalone="no"?>
<!DOCTYPE svg PUBLIC "-//W3C//DTD SVG 1.1//EN"
 "http://www.w3.org/Graphics/SVG/1.1/DTD/svg11.dtd">
<!-- Generated by graphviz version 2.38.0 (20140413.2041)
 -->
<!-- Title: HydroCouple::Spatial::IPolyhedralSurfaceArgument Pages: 1 -->
<!--zoomable 898 -->
<svg id="main" version="1.1" xmlns="http://www.w3.org/2000/svg" xmlns:xlink="http://www.w3.org/1999/xlink" xml:space="preserve" onload="init(evt)">
<style type="text/css"><![CDATA[
.edge:hover path { stroke: red; }
.edge:hover polygon { stroke: red; fill: red; }
]]></style>
<script type="text/javascript"><![CDATA[
var edges = document.getElementsByTagName('g');
if (edges && edges.length) {
  for (var i=0;i<edges.length;i++) {
    if (edges[i].id.substr(0,4)=='edge') {
      edges[i].setAttribute('class','edge');
    }
  }
}
]]></script>
        <defs>
                <circle id="rim" cx="0" cy="0" r="7"/>
                <circle id="rim2" cx="0" cy="0" r="3.5"/>
                <g id="zoomPlus">
                        <use xlink:href="#rim" fill="#404040">
                                <set attributeName="fill" to="#808080" begin="zoomplus.mouseover" end="zoomplus.mouseout"/>
                        </use>
                        <path d="M-4,0h8M0,-4v8" fill="none" stroke="white" stroke-width="1.5" pointer-events="none"/>
                </g>
                <g id="zoomMin">
                        <use xlink:href="#rim" fill="#404040">
                                <set attributeName="fill" to="#808080" begin="zoomminus.mouseover" end="zoomminus.mouseout"/>
                        </use>
                        <path d="M-4,0h8" fill="none" stroke="white" stroke-width="1.5" pointer-events="none"/>
                </g>
                <g id="dirArrow">
                        <path fill="none" stroke="white" stroke-width="1.5" d="M0,-3.0v7 M-2.5,-0.5L0,-3.0L2.5,-0.5"/>
                </g>
               <g id="resetDef">
                       <use xlink:href="#rim2" fill="#404040">
                               <set attributeName="fill" to="#808080" begin="reset.mouseover" end="reset.mouseout"/>
                       </use>
               </g>
        </defs>

<script type="text/javascript">
var viewWidth = 418;
var viewHeight = 898;
var sectionId = 'dynsection-1';
</script>
<script xlink:href="svgpan.js"/>
<svg id="graph" class="graph">
<g id="viewport">
<title>HydroCouple::Spatial::IPolyhedralSurfaceArgument</title>
<!-- Node1 -->
<g id="node1" class="node"><title>Node1</title>
<polygon fill="#bfbfbf" stroke="black" points="88.9971,-0.5 88.9971,-77.8398 291.027,-77.8398 291.027,-0.5 88.9971,-0.5"/>
<text text-anchor="start" x="96.9971" y="-65.8398" font-family="Monaco" font-size="10.00">HydroCouple::Spatial</text>
<text text-anchor="middle" x="190.012" y="-52.5049" font-family="Monaco" font-size="10.00">::IPolyhedralSurfaceArgument</text>
<polyline fill="none" stroke="black" points="88.9971,-43.1699 291.027,-43.1699 "/>
<text text-anchor="middle" x="190.012" y="-31.1699" font-family="Monaco" font-size="10.00"> </text>
<polyline fill="none" stroke="black" points="88.9971,-21.835 291.027,-21.835 "/>
<text text-anchor="start" x="96.9971" y="-9.83496" font-family="Monaco" font-size="10.00">+ ~IPolyhedralSurfaceArgument()</text>
</g>
<!-- Node2 -->
<g id="node2" class="node"><title>Node2</title>
<g id="a_node2"><a xlink:href="class_hydro_couple_1_1_i_argument.html" target="_top" xlink:title="IArgument interface class used to set the arguments for components. They can be complex or simple mul...">
<polygon fill="none" stroke="black" points="0,-114.84 0,-298.859 166.024,-298.859 166.024,-114.84 0,-114.84"/>
<text text-anchor="middle" x="83.0122" y="-286.859" font-family="Monaco" font-size="10.00">HydroCouple::IArgument</text>
<polyline fill="none" stroke="black" points="0,-277.524 166.024,-277.524 "/>
<text text-anchor="middle" x="83.0122" y="-265.524" font-family="Monaco" font-size="10.00"> </text>
<polyline fill="none" stroke="black" points="0,-256.189 166.024,-256.189 "/>
<text text-anchor="start" x="8" y="-244.189" font-family="Monaco" font-size="10.00">+ ~IArgument()</text>
<text text-anchor="start" x="8" y="-230.854" font-family="Monaco" font-size="10.00">+ isOptional()</text>
<text text-anchor="start" x="8" y="-217.52" font-family="Monaco" font-size="10.00">+ isReadOnly()</text>
<text text-anchor="start" x="8" y="-204.185" font-family="Monaco" font-size="10.00">+ toString()</text>
<text text-anchor="start" x="8" y="-190.85" font-family="Monaco" font-size="10.00">+ inputFileTypeFilters()</text>
<text text-anchor="start" x="8" y="-177.515" font-family="Monaco" font-size="10.00">+ canReadFromFile()</text>
<text text-anchor="start" x="8" y="-164.18" font-family="Monaco" font-size="10.00">+ canReadFromString()</text>
<text text-anchor="start" x="8" y="-150.845" font-family="Monaco" font-size="10.00">+ currentArgumentIOType()</text>
<text text-anchor="start" x="8" y="-137.51" font-family="Monaco" font-size="10.00">+ readValues()</text>
<text text-anchor="start" x="8" y="-124.175" font-family="Monaco" font-size="10.00">+ readValues()</text>
</a>
</g>
</g>
<!-- Node2&#45;&gt;Node1 -->
<g id="edge1" class="edge"><title>Node2&#45;&gt;Node1</title>
<path fill="none" stroke="midnightblue" d="M147.281,-106.335C153.716,-96.3712 159.934,-86.7431 165.542,-78.0601"/>
<polygon fill="none" stroke="midnightblue" points="144.319,-104.471 141.833,-114.77 150.199,-108.269 144.319,-104.471"/>
</g>
<!-- Node3 -->
<g id="node3" class="node"><title>Node3</title>
<g id="a_node3"><a xlink:href="class_hydro_couple_1_1_i_component_data_item.html" target="_top" xlink:title="IComponentItem is a fundamental unit of data for a component. ">
<polygon fill="none" stroke="black" points="88.9971,-335.859 88.9971,-519.879 291.027,-519.879 291.027,-335.859 88.9971,-335.859"/>
<text text-anchor="middle" x="190.012" y="-507.879" font-family="Monaco" font-size="10.00">HydroCouple::IComponentDataItem</text>
<polyline fill="none" stroke="black" points="88.9971,-498.544 291.027,-498.544 "/>
<text text-anchor="middle" x="190.012" y="-486.544" font-family="Monaco" font-size="10.00"> </text>
<polyline fill="none" stroke="black" points="88.9971,-477.209 291.027,-477.209 "/>
<text text-anchor="start" x="96.9971" y="-465.209" font-family="Monaco" font-size="10.00">+ ~IComponentDataItem()</text>
<text text-anchor="start" x="96.9971" y="-451.874" font-family="Monaco" font-size="10.00">+ modelComponent()</text>
<text text-anchor="start" x="96.9971" y="-438.539" font-family="Monaco" font-size="10.00">+ dimensions()</text>
<text text-anchor="start" x="96.9971" y="-425.204" font-family="Monaco" font-size="10.00">+ valueDefinition()</text>
<text text-anchor="start" x="96.9971" y="-411.869" font-family="Monaco" font-size="10.00">+ getValue()</text>
<text text-anchor="start" x="96.9971" y="-398.534" font-family="Monaco" font-size="10.00">+ getValues()</text>
<text text-anchor="start" x="96.9971" y="-385.199" font-family="Monaco" font-size="10.00">+ getValues()</text>
<text text-anchor="start" x="96.9971" y="-371.864" font-family="Monaco" font-size="10.00">+ setValue()</text>
<text text-anchor="start" x="96.9971" y="-358.529" font-family="Monaco" font-size="10.00">+ setValues()</text>
<text text-anchor="start" x="96.9971" y="-345.194" font-family="Monaco" font-size="10.00">+ setValues()</text>
</a>
</g>
</g>
<!-- Node3&#45;&gt;Node2 -->
<g id="edge2" class="edge"><title>Node3&#45;&gt;Node2</title>
<path fill="none" stroke="midnightblue" d="M140.956,-326.456C136.485,-317.303 131.972,-308.065 127.543,-299"/>
<polygon fill="none" stroke="midnightblue" points="137.875,-328.122 145.409,-335.571 144.165,-325.05 137.875,-328.122"/>
</g>
<!-- Node7 -->
<g id="node7" class="node"><title>Node7</title>
<g id="a_node7"><a xlink:href="class_hydro_couple_1_1_spatial_1_1_i_polyhedral_surface_component_data_item.html" target="_top" xlink:title="IPolyhedralSurfaceComponentItem represents IPolyhedralSurface IComponentItem. ">
<polygon fill="none" stroke="black" points="183.995,-134.842 183.995,-278.857 410.029,-278.857 410.029,-134.842 183.995,-134.842"/>
<text text-anchor="start" x="191.995" y="-266.857" font-family="Monaco" font-size="10.00">HydroCouple::Spatial</text>
<text text-anchor="start" x="191.995" y="-253.522" font-family="Monaco" font-size="10.00">::IPolyhedralSurfaceComponent</text>
<text text-anchor="middle" x="297.012" y="-240.187" font-family="Monaco" font-size="10.00">DataItem</text>
<polyline fill="none" stroke="black" points="183.995,-230.852 410.029,-230.852 "/>
<text text-anchor="middle" x="297.012" y="-218.852" font-family="Monaco" font-size="10.00"> </text>
<polyline fill="none" stroke="black" points="183.995,-209.517 410.029,-209.517 "/>
<text text-anchor="start" x="191.995" y="-197.517" font-family="Monaco" font-size="10.00">+ ~IPolyhedralSurfaceComponent</text>
<text text-anchor="start" x="191.995" y="-184.182" font-family="Monaco" font-size="10.00">DataItem()</text>
<text text-anchor="start" x="191.995" y="-170.847" font-family="Monaco" font-size="10.00">+ polyhedralSurface()</text>
<text text-anchor="start" x="191.995" y="-157.512" font-family="Monaco" font-size="10.00">+ polygon()</text>
<text text-anchor="start" x="191.995" y="-144.177" font-family="Monaco" font-size="10.00">+ polyhedralSurfacePatchDimension()</text>
</a>
</g>
</g>
<!-- Node3&#45;&gt;Node7 -->
<g id="edge7" class="edge"><title>Node3&#45;&gt;Node7</title>
<path fill="none" stroke="midnightblue" d="M239.183,-326.22C246.975,-310.271 254.89,-294.07 262.261,-278.982"/>
<polygon fill="none" stroke="midnightblue" points="235.86,-325.05 234.615,-335.571 242.149,-328.122 235.86,-325.05"/>
</g>
<!-- Node4 -->
<g id="node4" class="node"><title>Node4</title>
<g id="a_node4"><a xlink:href="class_hydro_couple_1_1_i_identity.html" target="_top" xlink:title="IIdentity interface class defines a method to get the Id of an HydroCouple entity. ">
<polygon fill="none" stroke="black" points="116.001,-556.879 116.001,-634.219 264.023,-634.219 264.023,-556.879 116.001,-556.879"/>
<text text-anchor="middle" x="190.012" y="-622.219" font-family="Monaco" font-size="10.00">HydroCouple::IIdentity</text>
<polyline fill="none" stroke="black" points="116.001,-612.884 264.023,-612.884 "/>
<text text-anchor="middle" x="190.012" y="-600.884" font-family="Monaco" font-size="10.00"> </text>
<polyline fill="none" stroke="black" points="116.001,-591.549 264.023,-591.549 "/>
<text text-anchor="start" x="124.001" y="-579.549" font-family="Monaco" font-size="10.00">+ ~IIdentity()</text>
<text text-anchor="start" x="124.001" y="-566.214" font-family="Monaco" font-size="10.00">+ id()</text>
</a>
</g>
</g>
<!-- Node4&#45;&gt;Node3 -->
<g id="edge3" class="edge"><title>Node4&#45;&gt;Node3</title>
<path fill="none" stroke="midnightblue" d="M190.012,-546.297C190.012,-537.943 190.012,-529.018 190.012,-519.96"/>
<polygon fill="none" stroke="midnightblue" points="186.512,-546.539 190.012,-556.539 193.512,-546.539 186.512,-546.539"/>
</g>
<!-- Node5 -->
<g id="node5" class="node"><title>Node5</title>
<g id="a_node5"><a xlink:href="class_hydro_couple_1_1_i_description.html" target="_top" xlink:title="IDescription interface class provides descriptive information on a HydroCouple object. ">
<polygon fill="none" stroke="black" points="107,-671.219 107,-788.563 273.024,-788.563 273.024,-671.219 107,-671.219"/>
<text text-anchor="middle" x="190.012" y="-776.563" font-family="Monaco" font-size="10.00">HydroCouple::IDescription</text>
<polyline fill="none" stroke="black" points="107,-767.229 273.024,-767.229 "/>
<text text-anchor="middle" x="190.012" y="-755.229" font-family="Monaco" font-size="10.00"> </text>
<polyline fill="none" stroke="black" points="107,-745.894 273.024,-745.894 "/>
<text text-anchor="start" x="115" y="-733.894" font-family="Monaco" font-size="10.00">+ ~IDescription()</text>
<text text-anchor="start" x="115" y="-720.559" font-family="Monaco" font-size="10.00">+ caption()</text>
<text text-anchor="start" x="115" y="-707.224" font-family="Monaco" font-size="10.00">+ setCaption()</text>
<text text-anchor="start" x="115" y="-693.889" font-family="Monaco" font-size="10.00">+ description()</text>
<text text-anchor="start" x="115" y="-680.554" font-family="Monaco" font-size="10.00">+ setDescription()</text>
</a>
</g>
</g>
<!-- Node5&#45;&gt;Node4 -->
<g id="edge4" class="edge"><title>Node5&#45;&gt;Node4</title>
<path fill="none" stroke="midnightblue" d="M190.012,-660.653C190.012,-651.614 190.012,-642.627 190.012,-634.366"/>
<polygon fill="none" stroke="midnightblue" points="186.512,-660.844 190.012,-670.844 193.512,-660.844 186.512,-660.844"/>
</g>
<!-- Node6 -->
<g id="node6" class="node"><title>Node6</title>
<g id="a_node6"><a xlink:href="class_hydro_couple_1_1_i_property_changed.html" target="_top" xlink:title="IPropertyChanged interface is used to emit signal/event when a property of an object changes...">
<polygon fill="none" stroke="black" points="94.998,-825.563 94.998,-889.568 285.026,-889.568 285.026,-825.563 94.998,-825.563"/>
<text text-anchor="middle" x="190.012" y="-877.568" font-family="Monaco" font-size="10.00">HydroCouple::IPropertyChanged</text>
<polyline fill="none" stroke="black" points="94.998,-868.233 285.026,-868.233 "/>
<text text-anchor="middle" x="190.012" y="-856.233" font-family="Monaco" font-size="10.00"> </text>
<polyline fill="none" stroke="black" points="94.998,-846.898 285.026,-846.898 "/>
<text text-anchor="start" x="102.998" y="-834.898" font-family="Monaco" font-size="10.00">+ ~IPropertyChanged()</text>
</a>
</g>
</g>
<!-- Node6&#45;&gt;Node5 -->
<g id="edge5" class="edge"><title>Node6&#45;&gt;Node5</title>
<path fill="none" stroke="midnightblue" d="M190.012,-815.243C190.012,-806.858 190.012,-797.892 190.012,-789.049"/>
<polygon fill="none" stroke="midnightblue" points="186.512,-815.5 190.012,-825.5 193.512,-815.5 186.512,-815.5"/>
</g>
<!-- Node7&#45;&gt;Node1 -->
<g id="edge6" class="edge"><title>Node7&#45;&gt;Node1</title>
<path fill="none" stroke="midnightblue" d="M245.386,-125.911C234.589,-109.193 223.69,-92.3171 214.451,-78.0114"/>
<polygon fill="none" stroke="midnightblue" points="242.648,-128.123 251.014,-134.625 248.529,-124.326 242.648,-128.123"/>
</g>
</g>
</svg>
        <g id="navigator" transform="translate(0 0)" fill="#404254">
                <rect fill="#f2f5e9" fill-opacity="0.5" stroke="#606060" stroke-width=".5" x="0" y="0" width="60" height="60"/>
                <use id="zoomplus" xlink:href="#zoomPlus" x="17" y="9" onmousedown="handleZoom(evt,'in')"/>
                <use id="zoomminus" xlink:href="#zoomMin" x="42" y="9" onmousedown="handleZoom(evt,'out')"/>
                <use id="reset" xlink:href="#resetDef" x="30" y="36" onmousedown="handleReset()"/>
                <g id="arrowUp" xlink:href="#dirArrow" transform="translate(30 24)" onmousedown="handlePan(0,-1)">
                  <use xlink:href="#rim" fill="#404040">
                        <set attributeName="fill" to="#808080" begin="arrowUp.mouseover" end="arrowUp.mouseout"/>
                  </use>
                  <path fill="none" stroke="white" stroke-width="1.5" d="M0,-3.0v7 M-2.5,-0.5L0,-3.0L2.5,-0.5"/>
                </g>
                <g id="arrowRight" xlink:href="#dirArrow" transform="rotate(90) translate(36 -43)" onmousedown="handlePan(1,0)">
                  <use xlink:href="#rim" fill="#404040">
                        <set attributeName="fill" to="#808080" begin="arrowRight.mouseover" end="arrowRight.mouseout"/>
                  </use>
                  <path fill="none" stroke="white" stroke-width="1.5" d="M0,-3.0v7 M-2.5,-0.5L0,-3.0L2.5,-0.5"/>
                </g>
                <g id="arrowDown" xlink:href="#dirArrow" transform="rotate(180) translate(-30 -48)" onmousedown="handlePan(0,1)">
                  <use xlink:href="#rim" fill="#404040">
                        <set attributeName="fill" to="#808080" begin="arrowDown.mouseover" end="arrowDown.mouseout"/>
                  </use>
                  <path fill="none" stroke="white" stroke-width="1.5" d="M0,-3.0v7 M-2.5,-0.5L0,-3.0L2.5,-0.5"/>
                </g>
                <g id="arrowLeft" xlink:href="#dirArrow" transform="rotate(270) translate(-36 17)" onmousedown="handlePan(-1,0)">
                  <use xlink:href="#rim" fill="#404040">
                        <set attributeName="fill" to="#808080" begin="arrowLeft.mouseover" end="arrowLeft.mouseout"/>
                  </use>
                  <path fill="none" stroke="white" stroke-width="1.5" d="M0,-3.0v7 M-2.5,-0.5L0,-3.0L2.5,-0.5"/>
                </g>
        </g>
        <svg viewBox="0 0 15 15" width="100%" height="30px" preserveAspectRatio="xMaxYMin meet">
         <g id="arrow_out" transform="scale(0.3 0.3)">
          <a xlink:href="class_hydro_couple_1_1_spatial_1_1_i_polyhedral_surface_argument__coll__graph_org.svg" target="_base">
           <rect id="button" ry="5" rx="5" y="6" x="6" height="38" width="38"
                fill="#f2f5e9" fill-opacity="0.5" stroke="#606060" stroke-width="1.0"/>
           <path id="arrow"
             d="M 11.500037,31.436501 C 11.940474,20.09759 22.043105,11.32322 32.158766,21.979434 L 37.068811,17.246167 C 37.068811,17.246167 37.088388,32 37.088388,32 L 22.160133,31.978069 C 22.160133,31.978069 26.997745,27.140456 26.997745,27.140456 C 18.528582,18.264221 13.291696,25.230495 11.500037,31.436501 z"
             style="fill:#404040;"/>
          </a>
         </g>
        </svg>
</svg>
