<?xml version="1.0" encoding="UTF-8" standalone="no"?>
<!DOCTYPE svg PUBLIC "-//W3C//DTD SVG 1.1//EN"
 "http://www.w3.org/Graphics/SVG/1.1/DTD/svg11.dtd">
<!-- Generated by graphviz version 2.38.0 (20140413.2041)
 -->
<!-- Title: HydroCouple::SpatioTemporal::ITimePolyhedralSurfaceExchangeItem Pages: 1 -->
<!--zoomable 866 -->
<svg id="main" version="1.1" xmlns="http://www.w3.org/2000/svg" xmlns:xlink="http://www.w3.org/1999/xlink" xml:space="preserve" onload="init(evt)">
<style type="text/css"><![CDATA[
.edge:hover path { stroke: red; }
.edge:hover polygon { stroke: red; fill: red; }
]]></style>
<script type="text/javascript"><![CDATA[
var edges = document.getElementsByTagName('g');
if (edges && edges.length) {
  for (var i=0;i<edges.length;i++) {
    if (edges[i].id.substr(0,4)=='edge') {
      edges[i].setAttribute('class','edge');
    }
  }
}
]]></script>
        <defs>
                <circle id="rim" cx="0" cy="0" r="7"/>
                <circle id="rim2" cx="0" cy="0" r="3.5"/>
                <g id="zoomPlus">
                        <use xlink:href="#rim" fill="#404040">
                                <set attributeName="fill" to="#808080" begin="zoomplus.mouseover" end="zoomplus.mouseout"/>
                        </use>
                        <path d="M-4,0h8M0,-4v8" fill="none" stroke="white" stroke-width="1.5" pointer-events="none"/>
                </g>
                <g id="zoomMin">
                        <use xlink:href="#rim" fill="#404040">
                                <set attributeName="fill" to="#808080" begin="zoomminus.mouseover" end="zoomminus.mouseout"/>
                        </use>
                        <path d="M-4,0h8" fill="none" stroke="white" stroke-width="1.5" pointer-events="none"/>
                </g>
                <g id="dirArrow">
                        <path fill="none" stroke="white" stroke-width="1.5" d="M0,-3.0v7 M-2.5,-0.5L0,-3.0L2.5,-0.5"/>
                </g>
               <g id="resetDef">
                       <use xlink:href="#rim2" fill="#404040">
                               <set attributeName="fill" to="#808080" begin="reset.mouseover" end="reset.mouseout"/>
                       </use>
               </g>
        </defs>

<script type="text/javascript">
var viewWidth = 602;
var viewHeight = 866;
var sectionId = 'dynsection-0';
</script>
<script xlink:href="svgpan.js"/>
<svg id="graph" class="graph">
<g id="viewport">
<title>HydroCouple::SpatioTemporal::ITimePolyhedralSurfaceExchangeItem</title>
<polygon fill="white" stroke="none" points="-4,4 -4,-861.724 598.029,-861.724 598.029,4 -4,4"/>
<!-- Node1 -->
<g id="node1" class="node"><title>Node1</title>
<polygon fill="#bfbfbf" stroke="black" points="143.992,-0.5 143.992,-77.8398 394.03,-77.8398 394.03,-0.5 143.992,-0.5"/>
<text text-anchor="start" x="151.992" y="-65.8398" font-family="Monaco" font-size="10.00">HydroCouple::SpatioTemporal</text>
<text text-anchor="middle" x="269.011" y="-52.5049" font-family="Monaco" font-size="10.00">::ITimePolyhedralSurfaceExchangeItem</text>
<polyline fill="none" stroke="black" points="143.992,-43.1699 394.03,-43.1699 "/>
<text text-anchor="middle" x="269.011" y="-31.1699" font-family="Monaco" font-size="10.00"> </text>
<polyline fill="none" stroke="black" points="143.992,-21.835 394.03,-21.835 "/>
<text text-anchor="start" x="151.992" y="-9.83496" font-family="Monaco" font-size="10.00">+ ~ITimePolyhedralSurfaceExchangeItem()</text>
</g>
<!-- Node2 -->
<g id="node2" class="node"><title>Node2</title>
<g id="a_node2"><a xlink:href="class_hydro_couple_1_1_temporal_1_1_i_time_exchange_item.html" target="_top" xlink:title="The ITimeExchangeItem class. ">
<polygon fill="white" stroke="black" points="93.0005,-114.84 93.0005,-192.18 241.022,-192.18 241.022,-114.84 93.0005,-114.84"/>
<text text-anchor="start" x="101" y="-180.18" font-family="Monaco" font-size="10.00">HydroCouple::Temporal</text>
<text text-anchor="middle" x="167.011" y="-166.845" font-family="Monaco" font-size="10.00">::ITimeExchangeItem</text>
<polyline fill="none" stroke="black" points="93.0005,-157.51 241.022,-157.51 "/>
<text text-anchor="middle" x="167.011" y="-145.51" font-family="Monaco" font-size="10.00"> </text>
<polyline fill="none" stroke="black" points="93.0005,-136.175 241.022,-136.175 "/>
<text text-anchor="start" x="101" y="-124.175" font-family="Monaco" font-size="10.00">+ ~ITimeExchangeItem()</text>
</a>
</g>
</g>
<!-- Node2&#45;&gt;Node1 -->
<g id="edge1" class="edge"><title>Node2&#45;&gt;Node1</title>
<path fill="none" stroke="midnightblue" d="M208.2,-107.145C216.989,-97.4661 226.181,-87.3418 234.68,-77.9816"/>
<polygon fill="none" stroke="midnightblue" points="205.39,-105.033 201.26,-114.79 210.573,-109.739 205.39,-105.033"/>
</g>
<!-- Node3 -->
<g id="node3" class="node"><title>Node3</title>
<g id="a_node3"><a xlink:href="class_hydro_couple_1_1_i_exchange_item.html" target="_top" xlink:title="IExchangeItem the base data item the can be exchanged between components at runtime. ">
<polygon fill="white" stroke="black" points="171.999,-255.85 171.999,-333.189 344.024,-333.189 344.024,-255.85 171.999,-255.85"/>
<text text-anchor="middle" x="258.011" y="-321.189" font-family="Monaco" font-size="10.00">HydroCouple::IExchangeItem</text>
<polyline fill="none" stroke="black" points="171.999,-311.854 344.024,-311.854 "/>
<text text-anchor="middle" x="258.011" y="-299.854" font-family="Monaco" font-size="10.00"> </text>
<polyline fill="none" stroke="black" points="171.999,-290.52 344.024,-290.52 "/>
<text text-anchor="start" x="179.999" y="-278.52" font-family="Monaco" font-size="10.00">+ ~IExchangeItem()</text>
<text text-anchor="start" x="179.999" y="-265.185" font-family="Monaco" font-size="10.00">+ itemChanged()</text>
</a>
</g>
</g>
<!-- Node3&#45;&gt;Node2 -->
<g id="edge2" class="edge"><title>Node3&#45;&gt;Node2</title>
<path fill="none" stroke="midnightblue" d="M227.579,-247.031C215.966,-229.293 202.878,-209.299 191.847,-192.449"/>
<polygon fill="none" stroke="midnightblue" points="224.74,-249.085 233.145,-255.535 230.596,-245.251 224.74,-249.085"/>
</g>
<!-- Node9 -->
<g id="node9" class="node"><title>Node9</title>
<g id="a_node9"><a xlink:href="class_hydro_couple_1_1_spatial_1_1_i_polyhedral_surface_exchange_item.html" target="_top" xlink:title="An IPolyhedralSurfaceExchangeItem class with an IPolyhedralSurface component. ">
<polygon fill="white" stroke="black" points="258.994,-114.84 258.994,-192.18 485.028,-192.18 485.028,-114.84 258.994,-114.84"/>
<text text-anchor="start" x="266.994" y="-180.18" font-family="Monaco" font-size="10.00">HydroCouple::Spatial</text>
<text text-anchor="middle" x="372.011" y="-166.845" font-family="Monaco" font-size="10.00">::IPolyhedralSurfaceExchangeItem</text>
<polyline fill="none" stroke="black" points="258.994,-157.51 485.028,-157.51 "/>
<text text-anchor="middle" x="372.011" y="-145.51" font-family="Monaco" font-size="10.00"> </text>
<polyline fill="none" stroke="black" points="258.994,-136.175 485.028,-136.175 "/>
<text text-anchor="start" x="266.994" y="-124.175" font-family="Monaco" font-size="10.00">+ ~IPolyhedralSurfaceExchangeItem()</text>
</a>
</g>
</g>
<!-- Node3&#45;&gt;Node9 -->
<g id="edge10" class="edge"><title>Node3&#45;&gt;Node9</title>
<path fill="none" stroke="midnightblue" d="M295.739,-247.514C310.385,-229.656 326.953,-209.453 340.898,-192.449"/>
<polygon fill="none" stroke="midnightblue" points="292.797,-245.583 289.162,-255.535 298.21,-250.022 292.797,-245.583"/>
</g>
<!-- Node4 -->
<g id="node4" class="node"><title>Node4</title>
<g id="a_node4"><a xlink:href="class_hydro_couple_1_1_i_component_item.html" target="_top" xlink:title="IComponentItem is a fundamental unit of data for a component. ">
<polygon fill="white" stroke="black" points="168.998,-396.859 168.998,-487.534 347.024,-487.534 347.024,-396.859 168.998,-396.859"/>
<text text-anchor="middle" x="258.011" y="-475.534" font-family="Monaco" font-size="10.00">HydroCouple::IComponentItem</text>
<polyline fill="none" stroke="black" points="168.998,-466.199 347.024,-466.199 "/>
<text text-anchor="middle" x="258.011" y="-454.199" font-family="Monaco" font-size="10.00"> </text>
<polyline fill="none" stroke="black" points="168.998,-444.864 347.024,-444.864 "/>
<text text-anchor="start" x="176.998" y="-432.864" font-family="Monaco" font-size="10.00">+ ~IComponentItem()</text>
<text text-anchor="start" x="176.998" y="-419.529" font-family="Monaco" font-size="10.00">+ modelComponent()</text>
<text text-anchor="start" x="176.998" y="-406.194" font-family="Monaco" font-size="10.00">+ dimensions()</text>
</a>
</g>
</g>
<!-- Node4&#45;&gt;Node3 -->
<g id="edge3" class="edge"><title>Node4&#45;&gt;Node3</title>
<path fill="none" stroke="midnightblue" d="M258.011,-386.486C258.011,-368.785 258.011,-349.558 258.011,-333.361"/>
<polygon fill="none" stroke="midnightblue" points="254.511,-386.697 258.011,-396.697 261.511,-386.697 254.511,-386.697"/>
</g>
<!-- Node8 -->
<g id="node8" class="node"><title>Node8</title>
<g id="a_node8"><a xlink:href="class_hydro_couple_1_1_temporal_1_1_i_time_component_item.html" target="_top" xlink:title="ITimeComponentItem is an IComponentItem with a temporal attribute. ">
<polygon fill="white" stroke="black" points="0,-229.18 0,-359.859 154.022,-359.859 154.022,-229.18 0,-229.18"/>
<text text-anchor="start" x="8" y="-347.859" font-family="Monaco" font-size="10.00">HydroCouple::Temporal</text>
<text text-anchor="middle" x="77.0112" y="-334.524" font-family="Monaco" font-size="10.00">::ITimeComponentItem</text>
<polyline fill="none" stroke="black" points="0,-325.189 154.022,-325.189 "/>
<text text-anchor="middle" x="77.0112" y="-313.189" font-family="Monaco" font-size="10.00"> </text>
<polyline fill="none" stroke="black" points="0,-303.854 154.022,-303.854 "/>
<text text-anchor="start" x="8" y="-291.854" font-family="Monaco" font-size="10.00">+ ~ITimeComponentItem()</text>
<text text-anchor="start" x="8" y="-278.52" font-family="Monaco" font-size="10.00">+ timeDimension()</text>
<text text-anchor="start" x="8" y="-265.185" font-family="Monaco" font-size="10.00">+ times()</text>
<text text-anchor="start" x="8" y="-251.85" font-family="Monaco" font-size="10.00">+ timeSpan()</text>
<text text-anchor="start" x="8" y="-238.515" font-family="Monaco" font-size="10.00">+ time()</text>
</a>
</g>
</g>
<!-- Node4&#45;&gt;Node8 -->
<g id="edge8" class="edge"><title>Node4&#45;&gt;Node8</title>
<path fill="none" stroke="midnightblue" d="M194.712,-390.251C181.658,-379.744 167.771,-368.567 154.284,-357.712"/>
<polygon fill="none" stroke="midnightblue" points="192.737,-393.154 202.722,-396.697 197.126,-387.701 192.737,-393.154"/>
</g>
<!-- Node10 -->
<g id="node10" class="node"><title>Node10</title>
<g id="a_node10"><a xlink:href="class_hydro_couple_1_1_spatial_1_1_i_polyhedral_surface_component_item.html" target="_top" xlink:title="IPolyhedralSurfaceComponentItem represents IPolyhedralSurface IComponentItem. ">
<polygon fill="white" stroke="black" points="361.994,-235.847 361.994,-353.192 594.029,-353.192 594.029,-235.847 361.994,-235.847"/>
<text text-anchor="start" x="369.994" y="-341.192" font-family="Monaco" font-size="10.00">HydroCouple::Spatial</text>
<text text-anchor="middle" x="478.011" y="-327.857" font-family="Monaco" font-size="10.00">::IPolyhedralSurfaceComponentItem</text>
<polyline fill="none" stroke="black" points="361.994,-318.522 594.029,-318.522 "/>
<text text-anchor="middle" x="478.011" y="-306.522" font-family="Monaco" font-size="10.00"> </text>
<polyline fill="none" stroke="black" points="361.994,-297.187 594.029,-297.187 "/>
<text text-anchor="start" x="369.994" y="-285.187" font-family="Monaco" font-size="10.00">+ ~IPolyhedralSurfaceComponentItem()</text>
<text text-anchor="start" x="369.994" y="-271.852" font-family="Monaco" font-size="10.00">+ patchDimension()</text>
<text text-anchor="start" x="369.994" y="-258.517" font-family="Monaco" font-size="10.00">+ polyhedralSurface()</text>
<text text-anchor="start" x="369.994" y="-245.182" font-family="Monaco" font-size="10.00">+ geometry()</text>
</a>
</g>
</g>
<!-- Node4&#45;&gt;Node10 -->
<g id="edge12" class="edge"><title>Node4&#45;&gt;Node10</title>
<path fill="none" stroke="midnightblue" d="M334.034,-390.857C352.247,-378.797 371.838,-365.824 390.523,-353.451"/>
<polygon fill="none" stroke="midnightblue" points="331.619,-388.258 325.214,-396.697 335.484,-394.094 331.619,-388.258"/>
</g>
<!-- Node5 -->
<g id="node5" class="node"><title>Node5</title>
<g id="a_node5"><a xlink:href="class_hydro_couple_1_1_i_identity.html" target="_top" xlink:title="IIdentity interface class defines a method to get the Id of an HydroCouple entity. ">
<polygon fill="white" stroke="black" points="184,-524.534 184,-601.874 332.022,-601.874 332.022,-524.534 184,-524.534"/>
<text text-anchor="middle" x="258.011" y="-589.874" font-family="Monaco" font-size="10.00">HydroCouple::IIdentity</text>
<polyline fill="none" stroke="black" points="184,-580.539 332.022,-580.539 "/>
<text text-anchor="middle" x="258.011" y="-568.539" font-family="Monaco" font-size="10.00"> </text>
<polyline fill="none" stroke="black" points="184,-559.204 332.022,-559.204 "/>
<text text-anchor="start" x="192" y="-547.204" font-family="Monaco" font-size="10.00">+ ~IIdentity()</text>
<text text-anchor="start" x="192" y="-533.869" font-family="Monaco" font-size="10.00">+ id()</text>
</a>
</g>
</g>
<!-- Node5&#45;&gt;Node4 -->
<g id="edge4" class="edge"><title>Node5&#45;&gt;Node4</title>
<path fill="none" stroke="midnightblue" d="M258.011,-514.214C258.011,-505.516 258.011,-496.476 258.011,-487.877"/>
<polygon fill="none" stroke="midnightblue" points="254.511,-514.222 258.011,-524.222 261.511,-514.222 254.511,-514.222"/>
</g>
<!-- Node6 -->
<g id="node6" class="node"><title>Node6</title>
<g id="a_node6"><a xlink:href="class_hydro_couple_1_1_i_description.html" target="_top" xlink:title="IDescription interface class provides descriptive information on a HydroCouple object. ">
<polygon fill="white" stroke="black" points="174.999,-638.874 174.999,-756.219 341.023,-756.219 341.023,-638.874 174.999,-638.874"/>
<text text-anchor="middle" x="258.011" y="-744.219" font-family="Monaco" font-size="10.00">HydroCouple::IDescription</text>
<polyline fill="none" stroke="black" points="174.999,-734.884 341.023,-734.884 "/>
<text text-anchor="middle" x="258.011" y="-722.884" font-family="Monaco" font-size="10.00"> </text>
<polyline fill="none" stroke="black" points="174.999,-713.549 341.023,-713.549 "/>
<text text-anchor="start" x="182.999" y="-701.549" font-family="Monaco" font-size="10.00">+ ~IDescription()</text>
<text text-anchor="start" x="182.999" y="-688.214" font-family="Monaco" font-size="10.00">+ getCaption()</text>
<text text-anchor="start" x="182.999" y="-674.879" font-family="Monaco" font-size="10.00">+ setCaption()</text>
<text text-anchor="start" x="182.999" y="-661.544" font-family="Monaco" font-size="10.00">+ getDescription()</text>
<text text-anchor="start" x="182.999" y="-648.209" font-family="Monaco" font-size="10.00">+ setDescription()</text>
</a>
</g>
</g>
<!-- Node6&#45;&gt;Node5 -->
<g id="edge5" class="edge"><title>Node6&#45;&gt;Node5</title>
<path fill="none" stroke="midnightblue" d="M258.011,-628.308C258.011,-619.269 258.011,-610.282 258.011,-602.022"/>
<polygon fill="none" stroke="midnightblue" points="254.511,-628.499 258.011,-638.499 261.511,-628.499 254.511,-628.499"/>
</g>
<!-- Node7 -->
<g id="node7" class="node"><title>Node7</title>
<g id="a_node7"><a xlink:href="class_hydro_couple_1_1_i_property_changed.html" target="_top" xlink:title="IPropertyChanged interface is used to emit signal/event when a property of an object changes...">
<polygon fill="white" stroke="black" points="162.997,-793.219 162.997,-857.224 353.025,-857.224 353.025,-793.219 162.997,-793.219"/>
<text text-anchor="middle" x="258.011" y="-845.224" font-family="Monaco" font-size="10.00">HydroCouple::IPropertyChanged</text>
<polyline fill="none" stroke="black" points="162.997,-835.889 353.025,-835.889 "/>
<text text-anchor="middle" x="258.011" y="-823.889" font-family="Monaco" font-size="10.00"> </text>
<polyline fill="none" stroke="black" points="162.997,-814.554 353.025,-814.554 "/>
<text text-anchor="start" x="170.997" y="-802.554" font-family="Monaco" font-size="10.00">+ ~IPropertyChanged()</text>
</a>
</g>
</g>
<!-- Node7&#45;&gt;Node6 -->
<g id="edge6" class="edge"><title>Node7&#45;&gt;Node6</title>
<path fill="none" stroke="midnightblue" d="M258.011,-782.898C258.011,-774.513 258.011,-765.547 258.011,-756.705"/>
<polygon fill="none" stroke="midnightblue" points="254.511,-783.155 258.011,-793.156 261.511,-783.156 254.511,-783.155"/>
</g>
<!-- Node8&#45;&gt;Node2 -->
<g id="edge7" class="edge"><title>Node8&#45;&gt;Node2</title>
<path fill="none" stroke="midnightblue" d="M124.35,-220.403C130.605,-210.742 136.799,-201.174 142.448,-192.449"/>
<polygon fill="none" stroke="midnightblue" points="121.346,-218.602 118.849,-228.898 127.222,-222.406 121.346,-218.602"/>
</g>
<!-- Node9&#45;&gt;Node1 -->
<g id="edge9" class="edge"><title>Node9&#45;&gt;Node1</title>
<path fill="none" stroke="midnightblue" d="M330.419,-107.145C321.544,-97.4661 312.261,-87.3418 303.679,-77.9816"/>
<polygon fill="none" stroke="midnightblue" points="328.089,-109.784 337.427,-114.79 333.249,-105.054 328.089,-109.784"/>
</g>
<!-- Node10&#45;&gt;Node9 -->
<g id="edge11" class="edge"><title>Node10&#45;&gt;Node9</title>
<path fill="none" stroke="midnightblue" d="M427.663,-227.493C418.497,-215.472 409.226,-203.313 400.948,-192.457"/>
<polygon fill="none" stroke="midnightblue" points="425.132,-229.945 433.979,-235.775 430.698,-225.7 425.132,-229.945"/>
</g>
</g>
</svg>
        <g id="navigator" transform="translate(0 0)" fill="#404254">
                <rect fill="#f2f5e9" fill-opacity="0.5" stroke="#606060" stroke-width=".5" x="0" y="0" width="60" height="60"/>
                <use id="zoomplus" xlink:href="#zoomPlus" x="17" y="9" onmousedown="handleZoom(evt,'in')"/>
                <use id="zoomminus" xlink:href="#zoomMin" x="42" y="9" onmousedown="handleZoom(evt,'out')"/>
                <use id="reset" xlink:href="#resetDef" x="30" y="36" onmousedown="handleReset()"/>
                <g id="arrowUp" xlink:href="#dirArrow" transform="translate(30 24)" onmousedown="handlePan(0,-1)">
                  <use xlink:href="#rim" fill="#404040">
                        <set attributeName="fill" to="#808080" begin="arrowUp.mouseover" end="arrowUp.mouseout"/>
                  </use>
                  <path fill="none" stroke="white" stroke-width="1.5" d="M0,-3.0v7 M-2.5,-0.5L0,-3.0L2.5,-0.5"/>
                </g>
                <g id="arrowRight" xlink:href="#dirArrow" transform="rotate(90) translate(36 -43)" onmousedown="handlePan(1,0)">
                  <use xlink:href="#rim" fill="#404040">
                        <set attributeName="fill" to="#808080" begin="arrowRight.mouseover" end="arrowRight.mouseout"/>
                  </use>
                  <path fill="none" stroke="white" stroke-width="1.5" d="M0,-3.0v7 M-2.5,-0.5L0,-3.0L2.5,-0.5"/>
                </g>
                <g id="arrowDown" xlink:href="#dirArrow" transform="rotate(180) translate(-30 -48)" onmousedown="handlePan(0,1)">
                  <use xlink:href="#rim" fill="#404040">
                        <set attributeName="fill" to="#808080" begin="arrowDown.mouseover" end="arrowDown.mouseout"/>
                  </use>
                  <path fill="none" stroke="white" stroke-width="1.5" d="M0,-3.0v7 M-2.5,-0.5L0,-3.0L2.5,-0.5"/>
                </g>
                <g id="arrowLeft" xlink:href="#dirArrow" transform="rotate(270) translate(-36 17)" onmousedown="handlePan(-1,0)">
                  <use xlink:href="#rim" fill="#404040">
                        <set attributeName="fill" to="#808080" begin="arrowLeft.mouseover" end="arrowLeft.mouseout"/>
                  </use>
                  <path fill="none" stroke="white" stroke-width="1.5" d="M0,-3.0v7 M-2.5,-0.5L0,-3.0L2.5,-0.5"/>
                </g>
        </g>
        <svg viewBox="0 0 15 15" width="100%" height="30px" preserveAspectRatio="xMaxYMin meet">
         <g id="arrow_out" transform="scale(0.3 0.3)">
          <a xlink:href="class_hydro_couple_1_1_spatio_temporal_1_1_i_time_polyhedral_surface_exchange_item__inherit__graph_org.svg" target="_base">
           <rect id="button" ry="5" rx="5" y="6" x="6" height="38" width="38"
                fill="#f2f5e9" fill-opacity="0.5" stroke="#606060" stroke-width="1.0"/>
           <path id="arrow"
             d="M 11.500037,31.436501 C 11.940474,20.09759 22.043105,11.32322 32.158766,21.979434 L 37.068811,17.246167 C 37.068811,17.246167 37.088388,32 37.088388,32 L 22.160133,31.978069 C 22.160133,31.978069 26.997745,27.140456 26.997745,27.140456 C 18.528582,18.264221 13.291696,25.230495 11.500037,31.436501 z"
             style="fill:#404040;"/>
          </a>
         </g>
        </svg>
</svg>
