<?xml version="1.0" encoding="UTF-8" standalone="no"?>
<!DOCTYPE svg PUBLIC "-//W3C//DTD SVG 1.1//EN"
 "http://www.w3.org/Graphics/SVG/1.1/DTD/svg11.dtd">
<!-- Generated by graphviz version 2.38.0 (20140413.2041)
 -->
<!-- Title: HydroCouple::Spatial::IRasterArgument Pages: 1 -->
<svg width="340pt" height="885pt"
 viewBox="0.00 0.00 340.02 884.73" xmlns="http://www.w3.org/2000/svg" xmlns:xlink="http://www.w3.org/1999/xlink">
<g id="graph0" class="graph" transform="scale(1 1) rotate(0) translate(4 880.733)">
<title>HydroCouple::Spatial::IRasterArgument</title>
<polygon fill="white" stroke="none" points="-4,4 -4,-880.733 336.023,-880.733 336.023,4 -4,4"/>
<!-- Node1 -->
<g id="node1" class="node"><title>Node1</title>
<polygon fill="#bfbfbf" stroke="black" points="93.001,-0.5 93.001,-104.51 229.021,-104.51 229.021,-0.5 93.001,-0.5"/>
<text text-anchor="start" x="101.001" y="-92.5098" font-family="Monaco" font-size="10.00">HydroCouple::Spatial</text>
<text text-anchor="middle" x="161.011" y="-79.1748" font-family="Monaco" font-size="10.00">::IRasterArgument</text>
<polyline fill="none" stroke="black" points="93.001,-69.8398 229.021,-69.8398 "/>
<text text-anchor="middle" x="161.011" y="-57.8398" font-family="Monaco" font-size="10.00"> </text>
<polyline fill="none" stroke="black" points="93.001,-48.5049 229.021,-48.5049 "/>
<text text-anchor="start" x="101.001" y="-36.5049" font-family="Monaco" font-size="10.00">+ ~IRasterArgument()</text>
<text text-anchor="start" x="101.001" y="-23.1699" font-family="Monaco" font-size="10.00">+ setRaster()</text>
<text text-anchor="start" x="101.001" y="-9.83496" font-family="Monaco" font-size="10.00">+ rasterValueSets()</text>
</g>
<!-- Node2 -->
<g id="node2" class="node"><title>Node2</title>
<g id="a_node2"><a xlink:href="class_hydro_couple_1_1_i_argument.html" target="_top" xlink:title="IArgument interface class used to set the arguments for components. They can be complex or simple mul...">
<polygon fill="white" stroke="black" points="0,-141.51 0,-338.864 148.021,-338.864 148.021,-141.51 0,-141.51"/>
<text text-anchor="middle" x="74.0107" y="-326.864" font-family="Monaco" font-size="10.00">HydroCouple::IArgument</text>
<polyline fill="none" stroke="black" points="0,-317.529 148.021,-317.529 "/>
<text text-anchor="middle" x="74.0107" y="-305.529" font-family="Monaco" font-size="10.00"> </text>
<polyline fill="none" stroke="black" points="0,-296.194 148.021,-296.194 "/>
<text text-anchor="start" x="8" y="-284.194" font-family="Monaco" font-size="10.00">+ ~IArgument()</text>
<text text-anchor="start" x="8" y="-270.859" font-family="Monaco" font-size="10.00">+ isOptional()</text>
<text text-anchor="start" x="8" y="-257.524" font-family="Monaco" font-size="10.00">+ isReadOnly()</text>
<text text-anchor="start" x="8" y="-244.189" font-family="Monaco" font-size="10.00">+ clone()</text>
<text text-anchor="start" x="8" y="-230.854" font-family="Monaco" font-size="10.00">+ valueSets()</text>
<text text-anchor="start" x="8" y="-217.52" font-family="Monaco" font-size="10.00">+ toString()</text>
<text text-anchor="start" x="8" y="-204.185" font-family="Monaco" font-size="10.00">+ fileExtensions()</text>
<text text-anchor="start" x="8" y="-190.85" font-family="Monaco" font-size="10.00">+ canReadFromFile()</text>
<text text-anchor="start" x="8" y="-177.515" font-family="Monaco" font-size="10.00">+ canReadFromString()</text>
<text text-anchor="start" x="8" y="-164.18" font-family="Monaco" font-size="10.00">+ readValues()</text>
<text text-anchor="start" x="8" y="-150.845" font-family="Monaco" font-size="10.00">+ readValues()</text>
</a>
</g>
</g>
<!-- Node2&#45;&gt;Node1 -->
<g id="edge1" class="edge"><title>Node2&#45;&gt;Node1</title>
<path fill="none" stroke="midnightblue" d="M124.13,-132.22C128.617,-122.641 133.009,-113.268 137.107,-104.522"/>
<polygon fill="none" stroke="midnightblue" points="120.877,-130.912 119.804,-141.452 127.216,-133.882 120.877,-130.912"/>
</g>
<!-- Node3 -->
<g id="node3" class="node"><title>Node3</title>
<g id="a_node3"><a xlink:href="class_hydro_couple_1_1_i_component_item.html" target="_top" xlink:title="IComponentItem is a fundamental unit of data for a component. ">
<polygon fill="white" stroke="black" points="71.9976,-375.864 71.9976,-479.874 250.024,-479.874 250.024,-375.864 71.9976,-375.864"/>
<text text-anchor="middle" x="161.011" y="-467.874" font-family="Monaco" font-size="10.00">HydroCouple::IComponentItem</text>
<polyline fill="none" stroke="black" points="71.9976,-458.539 250.024,-458.539 "/>
<text text-anchor="middle" x="161.011" y="-446.539" font-family="Monaco" font-size="10.00"> </text>
<polyline fill="none" stroke="black" points="71.9976,-437.204 250.024,-437.204 "/>
<text text-anchor="start" x="79.9976" y="-425.204" font-family="Monaco" font-size="10.00">+ ~IComponentItem()</text>
<text text-anchor="start" x="79.9976" y="-411.869" font-family="Monaco" font-size="10.00">+ modelComponent()</text>
<text text-anchor="start" x="79.9976" y="-398.534" font-family="Monaco" font-size="10.00">+ modelComponentId()</text>
<text text-anchor="start" x="79.9976" y="-385.199" font-family="Monaco" font-size="10.00">+ dimensions()</text>
</a>
</g>
</g>
<!-- Node3&#45;&gt;Node2 -->
<g id="edge2" class="edge"><title>Node3&#45;&gt;Node2</title>
<path fill="none" stroke="midnightblue" d="M132.752,-366.558C128.588,-357.67 124.21,-348.327 119.801,-338.917"/>
<polygon fill="none" stroke="midnightblue" points="129.595,-368.069 137.007,-375.639 135.934,-365.099 129.595,-368.069"/>
</g>
<!-- Node7 -->
<g id="node7" class="node"><title>Node7</title>
<g id="a_node7"><a xlink:href="class_hydro_couple_1_1_spatial_1_1_i_raster_component_item.html" target="_top" xlink:title="An IRasterComponentItem represents an IRaster IComponentItem. ">
<polygon fill="white" stroke="black" points="165.999,-168.18 165.999,-312.194 332.023,-312.194 332.023,-168.18 165.999,-168.18"/>
<text text-anchor="start" x="173.999" y="-300.194" font-family="Monaco" font-size="10.00">HydroCouple::Spatial</text>
<text text-anchor="middle" x="249.011" y="-286.859" font-family="Monaco" font-size="10.00">::IRasterComponentItem</text>
<polyline fill="none" stroke="black" points="165.999,-277.524 332.023,-277.524 "/>
<text text-anchor="middle" x="249.011" y="-265.524" font-family="Monaco" font-size="10.00"> </text>
<polyline fill="none" stroke="black" points="165.999,-256.189 332.023,-256.189 "/>
<text text-anchor="start" x="173.999" y="-244.189" font-family="Monaco" font-size="10.00">+ ~IRasterComponentItem()</text>
<text text-anchor="start" x="173.999" y="-230.854" font-family="Monaco" font-size="10.00">+ rasterDimension()</text>
<text text-anchor="start" x="173.999" y="-217.52" font-family="Monaco" font-size="10.00">+ xDimension()</text>
<text text-anchor="start" x="173.999" y="-204.185" font-family="Monaco" font-size="10.00">+ yDimension()</text>
<text text-anchor="start" x="173.999" y="-190.85" font-family="Monaco" font-size="10.00">+ bandDimension()</text>
<text text-anchor="start" x="173.999" y="-177.515" font-family="Monaco" font-size="10.00">+ raster()</text>
</a>
</g>
</g>
<!-- Node3&#45;&gt;Node7 -->
<g id="edge7" class="edge"><title>Node3&#45;&gt;Node7</title>
<path fill="none" stroke="midnightblue" d="M189.729,-366.272C197.883,-349.067 206.837,-330.175 215.26,-312.402"/>
<polygon fill="none" stroke="midnightblue" points="186.41,-365.104 185.29,-375.639 192.736,-368.102 186.41,-365.104"/>
</g>
<!-- Node4 -->
<g id="node4" class="node"><title>Node4</title>
<g id="a_node4"><a xlink:href="class_hydro_couple_1_1_i_identity.html" target="_top" xlink:title="IIdentity interface class defines a method to get the Id of an HydroCouple entity. ">
<polygon fill="white" stroke="black" points="87,-516.874 87,-620.884 235.021,-620.884 235.021,-516.874 87,-516.874"/>
<text text-anchor="middle" x="161.011" y="-608.884" font-family="Monaco" font-size="10.00">HydroCouple::IIdentity</text>
<polyline fill="none" stroke="black" points="87,-599.549 235.021,-599.549 "/>
<text text-anchor="middle" x="161.011" y="-587.549" font-family="Monaco" font-size="10.00"> </text>
<polyline fill="none" stroke="black" points="87,-578.214 235.021,-578.214 "/>
<text text-anchor="start" x="95" y="-566.214" font-family="Monaco" font-size="10.00">+ ~IIdentity()</text>
<text text-anchor="start" x="95" y="-552.879" font-family="Monaco" font-size="10.00">+ MPI_Comm()</text>
<text text-anchor="start" x="95" y="-539.544" font-family="Monaco" font-size="10.00">+ MPI_Rank()</text>
<text text-anchor="start" x="95" y="-526.209" font-family="Monaco" font-size="10.00">+ id()</text>
</a>
</g>
</g>
<!-- Node4&#45;&gt;Node3 -->
<g id="edge3" class="edge"><title>Node4&#45;&gt;Node3</title>
<path fill="none" stroke="midnightblue" d="M161.011,-506.315C161.011,-497.533 161.011,-488.579 161.011,-480.025"/>
<polygon fill="none" stroke="midnightblue" points="157.511,-506.512 161.011,-516.512 164.511,-506.512 157.511,-506.512"/>
</g>
<!-- Node5 -->
<g id="node5" class="node"><title>Node5</title>
<g id="a_node5"><a xlink:href="class_hydro_couple_1_1_i_description.html" target="_top" xlink:title="IDescription interface class provides descriptive information on a HydroCouple object. ">
<polygon fill="white" stroke="black" points="77.9985,-657.884 77.9985,-775.229 244.023,-775.229 244.023,-657.884 77.9985,-657.884"/>
<text text-anchor="middle" x="161.011" y="-763.229" font-family="Monaco" font-size="10.00">HydroCouple::IDescription</text>
<polyline fill="none" stroke="black" points="77.9985,-753.894 244.023,-753.894 "/>
<text text-anchor="middle" x="161.011" y="-741.894" font-family="Monaco" font-size="10.00"> </text>
<polyline fill="none" stroke="black" points="77.9985,-732.559 244.023,-732.559 "/>
<text text-anchor="start" x="85.9985" y="-720.559" font-family="Monaco" font-size="10.00">+ ~IDescription()</text>
<text text-anchor="start" x="85.9985" y="-707.224" font-family="Monaco" font-size="10.00">+ getCaption()</text>
<text text-anchor="start" x="85.9985" y="-693.889" font-family="Monaco" font-size="10.00">+ setCaption()</text>
<text text-anchor="start" x="85.9985" y="-680.554" font-family="Monaco" font-size="10.00">+ getDescription()</text>
<text text-anchor="start" x="85.9985" y="-667.219" font-family="Monaco" font-size="10.00">+ setDescription()</text>
</a>
</g>
</g>
<!-- Node5&#45;&gt;Node4 -->
<g id="edge4" class="edge"><title>Node5&#45;&gt;Node4</title>
<path fill="none" stroke="midnightblue" d="M161.011,-647.283C161.011,-638.465 161.011,-629.557 161.011,-621.079"/>
<polygon fill="none" stroke="midnightblue" points="157.511,-647.562 161.011,-657.562 164.511,-647.562 157.511,-647.562"/>
</g>
<!-- Node6 -->
<g id="node6" class="node"><title>Node6</title>
<g id="a_node6"><a xlink:href="class_hydro_couple_1_1_i_property_changed.html" target="_top" xlink:title="IPropertyChanged interface is used to emit signal/event when a property of an object changes...">
<polygon fill="white" stroke="black" points="65.9966,-812.229 65.9966,-876.233 256.025,-876.233 256.025,-812.229 65.9966,-812.229"/>
<text text-anchor="middle" x="161.011" y="-864.233" font-family="Monaco" font-size="10.00">HydroCouple::IPropertyChanged</text>
<polyline fill="none" stroke="black" points="65.9966,-854.898 256.025,-854.898 "/>
<text text-anchor="middle" x="161.011" y="-842.898" font-family="Monaco" font-size="10.00"> </text>
<polyline fill="none" stroke="black" points="65.9966,-833.563 256.025,-833.563 "/>
<text text-anchor="start" x="73.9966" y="-821.563" font-family="Monaco" font-size="10.00">+ ~IPropertyChanged()</text>
</a>
</g>
</g>
<!-- Node6&#45;&gt;Node5 -->
<g id="edge5" class="edge"><title>Node6&#45;&gt;Node5</title>
<path fill="none" stroke="midnightblue" d="M161.011,-801.908C161.011,-793.523 161.011,-784.557 161.011,-775.715"/>
<polygon fill="none" stroke="midnightblue" points="157.511,-802.165 161.011,-812.165 164.511,-802.165 157.511,-802.165"/>
</g>
<!-- Node7&#45;&gt;Node1 -->
<g id="edge6" class="edge"><title>Node7&#45;&gt;Node1</title>
<path fill="none" stroke="midnightblue" d="M210.87,-158.709C202.184,-140.382 193.188,-121.399 185.268,-104.689"/>
<polygon fill="none" stroke="midnightblue" points="207.794,-160.391 215.239,-167.928 214.119,-157.393 207.794,-160.391"/>
</g>
</g>
</svg>
