<?xml version="1.0" encoding="UTF-8" standalone="no"?>
<!DOCTYPE svg PUBLIC "-//W3C//DTD SVG 1.1//EN"
 "http://www.w3.org/Graphics/SVG/1.1/DTD/svg11.dtd">
<!-- Generated by graphviz version 2.38.0 (20140413.2041)
 -->
<!-- Title: HydroCouple::Spatial::IRegularGrid2DArgument Pages: 1 -->
<svg width="406pt" height="898pt"
 viewBox="0.00 0.00 406.03 898.07" xmlns="http://www.w3.org/2000/svg" xmlns:xlink="http://www.w3.org/1999/xlink">
<g id="graph0" class="graph" transform="scale(1 1) rotate(0) translate(4 894.068)">
<title>HydroCouple::Spatial::IRegularGrid2DArgument</title>
<!-- Node1 -->
<g id="node1" class="node"><title>Node1</title>
<polygon fill="#bfbfbf" stroke="black" points="97.999,-0.5 97.999,-77.8398 276.025,-77.8398 276.025,-0.5 97.999,-0.5"/>
<text text-anchor="start" x="105.999" y="-65.8398" font-family="Monaco" font-size="10.00">HydroCouple::Spatial</text>
<text text-anchor="middle" x="187.012" y="-52.5049" font-family="Monaco" font-size="10.00">::IRegularGrid2DArgument</text>
<polyline fill="none" stroke="black" points="97.999,-43.1699 276.025,-43.1699 "/>
<text text-anchor="middle" x="187.012" y="-31.1699" font-family="Monaco" font-size="10.00"> </text>
<polyline fill="none" stroke="black" points="97.999,-21.835 276.025,-21.835 "/>
<text text-anchor="start" x="105.999" y="-9.83496" font-family="Monaco" font-size="10.00">+ ~IRegularGrid2DArgument()</text>
</g>
<!-- Node2 -->
<g id="node2" class="node"><title>Node2</title>
<g id="a_node2"><a xlink:href="class_hydro_couple_1_1_i_argument.html" target="_top" xlink:title="IArgument interface class used to set the arguments for components. They can be complex or simple mul...">
<polygon fill="none" stroke="black" points="0,-114.84 0,-298.859 166.024,-298.859 166.024,-114.84 0,-114.84"/>
<text text-anchor="middle" x="83.0122" y="-286.859" font-family="Monaco" font-size="10.00">HydroCouple::IArgument</text>
<polyline fill="none" stroke="black" points="0,-277.524 166.024,-277.524 "/>
<text text-anchor="middle" x="83.0122" y="-265.524" font-family="Monaco" font-size="10.00"> </text>
<polyline fill="none" stroke="black" points="0,-256.189 166.024,-256.189 "/>
<text text-anchor="start" x="8" y="-244.189" font-family="Monaco" font-size="10.00">+ ~IArgument()</text>
<text text-anchor="start" x="8" y="-230.854" font-family="Monaco" font-size="10.00">+ isOptional()</text>
<text text-anchor="start" x="8" y="-217.52" font-family="Monaco" font-size="10.00">+ isReadOnly()</text>
<text text-anchor="start" x="8" y="-204.185" font-family="Monaco" font-size="10.00">+ toString()</text>
<text text-anchor="start" x="8" y="-190.85" font-family="Monaco" font-size="10.00">+ inputFileTypeFilters()</text>
<text text-anchor="start" x="8" y="-177.515" font-family="Monaco" font-size="10.00">+ canReadFromFile()</text>
<text text-anchor="start" x="8" y="-164.18" font-family="Monaco" font-size="10.00">+ canReadFromString()</text>
<text text-anchor="start" x="8" y="-150.845" font-family="Monaco" font-size="10.00">+ currentArgumentIOType()</text>
<text text-anchor="start" x="8" y="-137.51" font-family="Monaco" font-size="10.00">+ readValues()</text>
<text text-anchor="start" x="8" y="-124.175" font-family="Monaco" font-size="10.00">+ readValues()</text>
</a>
</g>
</g>
<!-- Node2&#45;&gt;Node1 -->
<g id="edge1" class="edge"><title>Node2&#45;&gt;Node1</title>
<path fill="none" stroke="midnightblue" d="M145.667,-106.036C151.854,-96.1788 157.832,-86.6563 163.228,-78.0601"/>
<polygon fill="none" stroke="midnightblue" points="142.536,-104.44 140.184,-114.77 148.465,-108.161 142.536,-104.44"/>
</g>
<!-- Node3 -->
<g id="node3" class="node"><title>Node3</title>
<g id="a_node3"><a xlink:href="class_hydro_couple_1_1_i_component_data_item.html" target="_top" xlink:title="IComponentItem is a fundamental unit of data for a component. ">
<polygon fill="none" stroke="black" points="85.9971,-335.859 85.9971,-519.879 288.027,-519.879 288.027,-335.859 85.9971,-335.859"/>
<text text-anchor="middle" x="187.012" y="-507.879" font-family="Monaco" font-size="10.00">HydroCouple::IComponentDataItem</text>
<polyline fill="none" stroke="black" points="85.9971,-498.544 288.027,-498.544 "/>
<text text-anchor="middle" x="187.012" y="-486.544" font-family="Monaco" font-size="10.00"> </text>
<polyline fill="none" stroke="black" points="85.9971,-477.209 288.027,-477.209 "/>
<text text-anchor="start" x="93.9971" y="-465.209" font-family="Monaco" font-size="10.00">+ ~IComponentDataItem()</text>
<text text-anchor="start" x="93.9971" y="-451.874" font-family="Monaco" font-size="10.00">+ modelComponent()</text>
<text text-anchor="start" x="93.9971" y="-438.539" font-family="Monaco" font-size="10.00">+ dimensions()</text>
<text text-anchor="start" x="93.9971" y="-425.204" font-family="Monaco" font-size="10.00">+ valueDefinition()</text>
<text text-anchor="start" x="93.9971" y="-411.869" font-family="Monaco" font-size="10.00">+ getValue()</text>
<text text-anchor="start" x="93.9971" y="-398.534" font-family="Monaco" font-size="10.00">+ getValues()</text>
<text text-anchor="start" x="93.9971" y="-385.199" font-family="Monaco" font-size="10.00">+ getValues()</text>
<text text-anchor="start" x="93.9971" y="-371.864" font-family="Monaco" font-size="10.00">+ setValue()</text>
<text text-anchor="start" x="93.9971" y="-358.529" font-family="Monaco" font-size="10.00">+ setValues()</text>
<text text-anchor="start" x="93.9971" y="-345.194" font-family="Monaco" font-size="10.00">+ setValues()</text>
</a>
</g>
</g>
<!-- Node3&#45;&gt;Node2 -->
<g id="edge2" class="edge"><title>Node3&#45;&gt;Node2</title>
<path fill="none" stroke="midnightblue" d="M139.332,-326.456C134.986,-317.303 130.599,-308.065 126.294,-299"/>
<polygon fill="none" stroke="midnightblue" points="136.209,-328.039 143.66,-335.571 142.532,-325.036 136.209,-328.039"/>
</g>
<!-- Node7 -->
<g id="node7" class="node"><title>Node7</title>
<g id="a_node7"><a xlink:href="class_hydro_couple_1_1_spatial_1_1_i_regular_grid2_d_component_data_item.html" target="_top" xlink:title="An IRegularGrid2DComponentDataItem represents an IRegularGrid2D IComponentItem. ">
<polygon fill="none" stroke="black" points="183.996,-141.51 183.996,-272.189 398.028,-272.189 398.028,-141.51 183.996,-141.51"/>
<text text-anchor="start" x="191.996" y="-260.189" font-family="Monaco" font-size="10.00">HydroCouple::Spatial</text>
<text text-anchor="middle" x="291.012" y="-246.854" font-family="Monaco" font-size="10.00">::IRegularGrid2DComponentDataItem</text>
<polyline fill="none" stroke="black" points="183.996,-237.52 398.028,-237.52 "/>
<text text-anchor="middle" x="291.012" y="-225.52" font-family="Monaco" font-size="10.00"> </text>
<polyline fill="none" stroke="black" points="183.996,-216.185 398.028,-216.185 "/>
<text text-anchor="start" x="191.996" y="-204.185" font-family="Monaco" font-size="10.00">+ ~IRegularGrid2DComponent</text>
<text text-anchor="start" x="191.996" y="-190.85" font-family="Monaco" font-size="10.00">DataItem()</text>
<text text-anchor="start" x="191.996" y="-177.515" font-family="Monaco" font-size="10.00">+ numXCellsDimension()</text>
<text text-anchor="start" x="191.996" y="-164.18" font-family="Monaco" font-size="10.00">+ numYCellsDimension()</text>
<text text-anchor="start" x="191.996" y="-150.845" font-family="Monaco" font-size="10.00">+ grid()</text>
</a>
</g>
</g>
<!-- Node3&#45;&gt;Node7 -->
<g id="edge7" class="edge"><title>Node3&#45;&gt;Node7</title>
<path fill="none" stroke="midnightblue" d="M234.762,-326.31C243.474,-307.963 252.347,-289.277 260.392,-272.334"/>
<polygon fill="none" stroke="midnightblue" points="231.492,-325.036 230.364,-335.571 237.816,-328.039 231.492,-325.036"/>
</g>
<!-- Node4 -->
<g id="node4" class="node"><title>Node4</title>
<g id="a_node4"><a xlink:href="class_hydro_couple_1_1_i_identity.html" target="_top" xlink:title="IIdentity interface class defines a method to get the Id of an HydroCouple entity. ">
<polygon fill="none" stroke="black" points="113.001,-556.879 113.001,-634.219 261.023,-634.219 261.023,-556.879 113.001,-556.879"/>
<text text-anchor="middle" x="187.012" y="-622.219" font-family="Monaco" font-size="10.00">HydroCouple::IIdentity</text>
<polyline fill="none" stroke="black" points="113.001,-612.884 261.023,-612.884 "/>
<text text-anchor="middle" x="187.012" y="-600.884" font-family="Monaco" font-size="10.00"> </text>
<polyline fill="none" stroke="black" points="113.001,-591.549 261.023,-591.549 "/>
<text text-anchor="start" x="121.001" y="-579.549" font-family="Monaco" font-size="10.00">+ ~IIdentity()</text>
<text text-anchor="start" x="121.001" y="-566.214" font-family="Monaco" font-size="10.00">+ id()</text>
</a>
</g>
</g>
<!-- Node4&#45;&gt;Node3 -->
<g id="edge3" class="edge"><title>Node4&#45;&gt;Node3</title>
<path fill="none" stroke="midnightblue" d="M187.012,-546.297C187.012,-537.943 187.012,-529.018 187.012,-519.96"/>
<polygon fill="none" stroke="midnightblue" points="183.512,-546.539 187.012,-556.539 190.512,-546.539 183.512,-546.539"/>
</g>
<!-- Node5 -->
<g id="node5" class="node"><title>Node5</title>
<g id="a_node5"><a xlink:href="class_hydro_couple_1_1_i_description.html" target="_top" xlink:title="IDescription interface class provides descriptive information on a HydroCouple object. ">
<polygon fill="none" stroke="black" points="104,-671.219 104,-788.563 270.024,-788.563 270.024,-671.219 104,-671.219"/>
<text text-anchor="middle" x="187.012" y="-776.563" font-family="Monaco" font-size="10.00">HydroCouple::IDescription</text>
<polyline fill="none" stroke="black" points="104,-767.229 270.024,-767.229 "/>
<text text-anchor="middle" x="187.012" y="-755.229" font-family="Monaco" font-size="10.00"> </text>
<polyline fill="none" stroke="black" points="104,-745.894 270.024,-745.894 "/>
<text text-anchor="start" x="112" y="-733.894" font-family="Monaco" font-size="10.00">+ ~IDescription()</text>
<text text-anchor="start" x="112" y="-720.559" font-family="Monaco" font-size="10.00">+ caption()</text>
<text text-anchor="start" x="112" y="-707.224" font-family="Monaco" font-size="10.00">+ setCaption()</text>
<text text-anchor="start" x="112" y="-693.889" font-family="Monaco" font-size="10.00">+ description()</text>
<text text-anchor="start" x="112" y="-680.554" font-family="Monaco" font-size="10.00">+ setDescription()</text>
</a>
</g>
</g>
<!-- Node5&#45;&gt;Node4 -->
<g id="edge4" class="edge"><title>Node5&#45;&gt;Node4</title>
<path fill="none" stroke="midnightblue" d="M187.012,-660.653C187.012,-651.614 187.012,-642.627 187.012,-634.366"/>
<polygon fill="none" stroke="midnightblue" points="183.512,-660.844 187.012,-670.844 190.512,-660.844 183.512,-660.844"/>
</g>
<!-- Node6 -->
<g id="node6" class="node"><title>Node6</title>
<g id="a_node6"><a xlink:href="class_hydro_couple_1_1_i_property_changed.html" target="_top" xlink:title="IPropertyChanged interface is used to emit signal/event when a property of an object changes...">
<polygon fill="none" stroke="black" points="91.998,-825.563 91.998,-889.568 282.026,-889.568 282.026,-825.563 91.998,-825.563"/>
<text text-anchor="middle" x="187.012" y="-877.568" font-family="Monaco" font-size="10.00">HydroCouple::IPropertyChanged</text>
<polyline fill="none" stroke="black" points="91.998,-868.233 282.026,-868.233 "/>
<text text-anchor="middle" x="187.012" y="-856.233" font-family="Monaco" font-size="10.00"> </text>
<polyline fill="none" stroke="black" points="91.998,-846.898 282.026,-846.898 "/>
<text text-anchor="start" x="99.998" y="-834.898" font-family="Monaco" font-size="10.00">+ ~IPropertyChanged()</text>
</a>
</g>
</g>
<!-- Node6&#45;&gt;Node5 -->
<g id="edge5" class="edge"><title>Node6&#45;&gt;Node5</title>
<path fill="none" stroke="midnightblue" d="M187.012,-815.243C187.012,-806.858 187.012,-797.892 187.012,-789.049"/>
<polygon fill="none" stroke="midnightblue" points="183.512,-815.5 187.012,-825.5 190.512,-815.5 183.512,-815.5"/>
</g>
<!-- Node7&#45;&gt;Node1 -->
<g id="edge6" class="edge"><title>Node7&#45;&gt;Node1</title>
<path fill="none" stroke="midnightblue" d="M245.094,-132.699C233.232,-113.801 220.941,-94.221 210.737,-77.966"/>
<polygon fill="none" stroke="midnightblue" points="242.224,-134.71 250.505,-141.319 248.153,-130.989 242.224,-134.71"/>
</g>
</g>
</svg>
