<?xml version="1.0" encoding="UTF-8" standalone="no"?>
<!DOCTYPE svg PUBLIC "-//W3C//DTD SVG 1.1//EN"
 "http://www.w3.org/Graphics/SVG/1.1/DTD/svg11.dtd">
<!-- Generated by graphviz version 2.38.0 (20140413.2041)
 -->
<!-- Title: HydroCouple::Spatial::ISpatialReferenceSystem Pages: 1 -->
<svg width="169pt" height="426pt"
 viewBox="0.00 0.00 169.08 426.00" xmlns="http://www.w3.org/2000/svg" xmlns:xlink="http://www.w3.org/1999/xlink">
<g id="graph0" class="graph" transform="scale(1 1) rotate(0) translate(4 422)">
<title>HydroCouple::Spatial::ISpatialReferenceSystem</title>
<polygon fill="white" stroke="none" points="-4,4 -4,-422 165.083,-422 165.083,4 -4,4"/>
<!-- Node1 -->
<g id="node1" class="node"><title>Node1</title>
<polygon fill="#bfbfbf" stroke="black" points="5.56641,-0.5 5.56641,-94.5 155.517,-94.5 155.517,-0.5 5.56641,-0.5"/>
<text text-anchor="start" x="13.5664" y="-82.5" font-family="Helvetica,sans-Serif" font-size="10.00">HydroCouple::Spatial</text>
<text text-anchor="middle" x="80.5415" y="-72.5" font-family="Helvetica,sans-Serif" font-size="10.00">::ISpatialReferenceSystem</text>
<polyline fill="none" stroke="black" points="5.56641,-66.5 155.517,-66.5 "/>
<text text-anchor="middle" x="80.5415" y="-54.5" font-family="Helvetica,sans-Serif" font-size="10.00"> </text>
<polyline fill="none" stroke="black" points="5.56641,-48.5 155.517,-48.5 "/>
<text text-anchor="start" x="13.5664" y="-36.5" font-family="Helvetica,sans-Serif" font-size="10.00">+ ~ISpatialReferenceSystem()</text>
<text text-anchor="start" x="13.5664" y="-26.5" font-family="Helvetica,sans-Serif" font-size="10.00">+ authSRID()</text>
<text text-anchor="start" x="13.5664" y="-16.5" font-family="Helvetica,sans-Serif" font-size="10.00">+ authName()</text>
<text text-anchor="start" x="13.5664" y="-6.5" font-family="Helvetica,sans-Serif" font-size="10.00">+ srText()</text>
</g>
<!-- Node2 -->
<g id="node2" class="node"><title>Node2</title>
<g id="a_node2"><a xlink:href="class_hydro_couple_1_1_i_identity.html" target="_top" xlink:title="IIdentity interface class defines a method to get the Id of an HydroCouple entity. ">
<polygon fill="white" stroke="black" points="23.0713,-131.5 23.0713,-195.5 138.012,-195.5 138.012,-131.5 23.0713,-131.5"/>
<text text-anchor="middle" x="80.5415" y="-183.5" font-family="Helvetica,sans-Serif" font-size="10.00">HydroCouple::IIdentity</text>
<polyline fill="none" stroke="black" points="23.0713,-177.5 138.012,-177.5 "/>
<text text-anchor="middle" x="80.5415" y="-165.5" font-family="Helvetica,sans-Serif" font-size="10.00"> </text>
<polyline fill="none" stroke="black" points="23.0713,-159.5 138.012,-159.5 "/>
<text text-anchor="start" x="31.0713" y="-147.5" font-family="Helvetica,sans-Serif" font-size="10.00">+ ~IIdentity()</text>
<text text-anchor="start" x="31.0713" y="-137.5" font-family="Helvetica,sans-Serif" font-size="10.00">+ id()</text>
</a>
</g>
</g>
<!-- Node2&#45;&gt;Node1 -->
<g id="edge1" class="edge"><title>Node2&#45;&gt;Node1</title>
<path fill="none" stroke="midnightblue" d="M80.5415,-121.141C80.5415,-112.513 80.5415,-103.367 80.5415,-94.5806"/>
<polygon fill="none" stroke="midnightblue" points="77.0416,-121.349 80.5415,-131.349 84.0416,-121.349 77.0416,-121.349"/>
</g>
<!-- Node3 -->
<g id="node3" class="node"><title>Node3</title>
<g id="a_node3"><a xlink:href="class_hydro_couple_1_1_i_description.html" target="_top" xlink:title="IDescription interface class provides descriptive information on a HydroCouple object. ">
<polygon fill="white" stroke="black" points="14.1821,-232.5 14.1821,-326.5 146.901,-326.5 146.901,-232.5 14.1821,-232.5"/>
<text text-anchor="middle" x="80.5415" y="-314.5" font-family="Helvetica,sans-Serif" font-size="10.00">HydroCouple::IDescription</text>
<polyline fill="none" stroke="black" points="14.1821,-308.5 146.901,-308.5 "/>
<text text-anchor="middle" x="80.5415" y="-296.5" font-family="Helvetica,sans-Serif" font-size="10.00"> </text>
<polyline fill="none" stroke="black" points="14.1821,-290.5 146.901,-290.5 "/>
<text text-anchor="start" x="22.1821" y="-278.5" font-family="Helvetica,sans-Serif" font-size="10.00">+ ~IDescription()</text>
<text text-anchor="start" x="22.1821" y="-268.5" font-family="Helvetica,sans-Serif" font-size="10.00">+ getCaption()</text>
<text text-anchor="start" x="22.1821" y="-258.5" font-family="Helvetica,sans-Serif" font-size="10.00">+ setCaption()</text>
<text text-anchor="start" x="22.1821" y="-248.5" font-family="Helvetica,sans-Serif" font-size="10.00">+ getDescription()</text>
<text text-anchor="start" x="22.1821" y="-238.5" font-family="Helvetica,sans-Serif" font-size="10.00">+ setDescription()</text>
</a>
</g>
</g>
<!-- Node3&#45;&gt;Node2 -->
<g id="edge2" class="edge"><title>Node3&#45;&gt;Node2</title>
<path fill="none" stroke="midnightblue" d="M80.5415,-222.212C80.5415,-213.081 80.5415,-203.926 80.5415,-195.684"/>
<polygon fill="none" stroke="midnightblue" points="77.0416,-222.46 80.5415,-232.46 84.0416,-222.46 77.0416,-222.46"/>
</g>
<!-- Node4 -->
<g id="node4" class="node"><title>Node4</title>
<g id="a_node4"><a xlink:href="class_hydro_couple_1_1_i_property_changed.html" target="_top" xlink:title="IPropertyChanged interface is used to emit signal/event when a property of an object changes...">
<polygon fill="white" stroke="black" points="0,-363.5 0,-417.5 161.083,-417.5 161.083,-363.5 0,-363.5"/>
<text text-anchor="middle" x="80.5415" y="-405.5" font-family="Helvetica,sans-Serif" font-size="10.00">HydroCouple::IPropertyChanged</text>
<polyline fill="none" stroke="black" points="0,-399.5 161.083,-399.5 "/>
<text text-anchor="middle" x="80.5415" y="-387.5" font-family="Helvetica,sans-Serif" font-size="10.00"> </text>
<polyline fill="none" stroke="black" points="0,-381.5 161.083,-381.5 "/>
<text text-anchor="start" x="8" y="-369.5" font-family="Helvetica,sans-Serif" font-size="10.00">+ ~IPropertyChanged()</text>
</a>
</g>
</g>
<!-- Node4&#45;&gt;Node3 -->
<g id="edge3" class="edge"><title>Node4&#45;&gt;Node3</title>
<path fill="none" stroke="midnightblue" d="M80.5415,-353.141C80.5415,-344.716 80.5415,-335.639 80.5415,-326.851"/>
<polygon fill="none" stroke="midnightblue" points="77.0416,-353.392 80.5415,-363.392 84.0416,-353.392 77.0416,-353.392"/>
</g>
</g>
</svg>
