<?xml version="1.0" encoding="UTF-8" standalone="no"?>
<!DOCTYPE svg PUBLIC "-//W3C//DTD SVG 1.1//EN"
 "http://www.w3.org/Graphics/SVG/1.1/DTD/svg11.dtd">
<!-- Generated by graphviz version 2.38.0 (20140413.2041)
 -->
<!-- Title: HydroCouple::Spatial::IPolyhedralSurfaceComponentDataItem Pages: 1 -->
<svg width="1014pt" height="1079pt"
 viewBox="0.00 0.00 1014.04 1079.08" xmlns="http://www.w3.org/2000/svg" xmlns:xlink="http://www.w3.org/1999/xlink">
<g id="graph0" class="graph" transform="scale(1 1) rotate(0) translate(4 1075.08)">
<title>HydroCouple::Spatial::IPolyhedralSurfaceComponentDataItem</title>
<!-- Node1 -->
<g id="node1" class="node"><title>Node1</title>
<polygon fill="#bfbfbf" stroke="black" points="378,-335.859 378,-479.874 604.034,-479.874 604.034,-335.859 378,-335.859"/>
<text text-anchor="start" x="386" y="-467.874" font-family="Monaco" font-size="10.00">HydroCouple::Spatial</text>
<text text-anchor="start" x="386" y="-454.539" font-family="Monaco" font-size="10.00">::IPolyhedralSurfaceComponent</text>
<text text-anchor="middle" x="491.017" y="-441.204" font-family="Monaco" font-size="10.00">DataItem</text>
<polyline fill="none" stroke="black" points="378,-431.869 604.034,-431.869 "/>
<text text-anchor="middle" x="491.017" y="-419.869" font-family="Monaco" font-size="10.00"> </text>
<polyline fill="none" stroke="black" points="378,-410.534 604.034,-410.534 "/>
<text text-anchor="start" x="386" y="-398.534" font-family="Monaco" font-size="10.00">+ ~IPolyhedralSurfaceComponent</text>
<text text-anchor="start" x="386" y="-385.199" font-family="Monaco" font-size="10.00">DataItem()</text>
<text text-anchor="start" x="386" y="-371.864" font-family="Monaco" font-size="10.00">+ polyhedralSurface()</text>
<text text-anchor="start" x="386" y="-358.529" font-family="Monaco" font-size="10.00">+ polygon()</text>
<text text-anchor="start" x="386" y="-345.194" font-family="Monaco" font-size="10.00">+ polyhedralSurfacePatchDimension()</text>
</g>
<!-- Node6 -->
<g id="node6" class="node"><title>Node6</title>
<g id="a_node6"><a xlink:href="class_hydro_couple_1_1_spatial_1_1_i_polyhedral_surface_argument.html" target="_top" xlink:title="An IPolyhedralSurfaceArgument class with an IPolyhedralSurface component. ">
<polygon fill="none" stroke="black" points="274.002,-168.18 274.002,-245.52 476.032,-245.52 476.032,-168.18 274.002,-168.18"/>
<text text-anchor="start" x="282.002" y="-233.52" font-family="Monaco" font-size="10.00">HydroCouple::Spatial</text>
<text text-anchor="middle" x="375.017" y="-220.185" font-family="Monaco" font-size="10.00">::IPolyhedralSurfaceArgument</text>
<polyline fill="none" stroke="black" points="274.002,-210.85 476.032,-210.85 "/>
<text text-anchor="middle" x="375.017" y="-198.85" font-family="Monaco" font-size="10.00"> </text>
<polyline fill="none" stroke="black" points="274.002,-189.515 476.032,-189.515 "/>
<text text-anchor="start" x="282.002" y="-177.515" font-family="Monaco" font-size="10.00">+ ~IPolyhedralSurfaceArgument()</text>
</a>
</g>
</g>
<!-- Node1&#45;&gt;Node6 -->
<g id="edge5" class="edge"><title>Node1&#45;&gt;Node6</title>
<path fill="none" stroke="midnightblue" d="M444.229,-326.594C427.944,-298.655 410.434,-268.613 397.1,-245.737"/>
<polygon fill="none" stroke="midnightblue" points="441.406,-328.702 449.466,-335.579 447.454,-325.177 441.406,-328.702"/>
</g>
<!-- Node9 -->
<g id="node9" class="node"><title>Node9</title>
<g id="a_node9"><a xlink:href="class_hydro_couple_1_1_spatial_1_1_i_polyhedral_surface_exchange_item.html" target="_top" xlink:title="An IPolyhedralSurfaceExchangeItem class with an IPolyhedralSurface component. ">
<polygon fill="none" stroke="black" points="494,-168.18 494,-245.52 720.034,-245.52 720.034,-168.18 494,-168.18"/>
<text text-anchor="start" x="502" y="-233.52" font-family="Monaco" font-size="10.00">HydroCouple::Spatial</text>
<text text-anchor="middle" x="607.017" y="-220.185" font-family="Monaco" font-size="10.00">::IPolyhedralSurfaceExchangeItem</text>
<polyline fill="none" stroke="black" points="494,-210.85 720.034,-210.85 "/>
<text text-anchor="middle" x="607.017" y="-198.85" font-family="Monaco" font-size="10.00"> </text>
<polyline fill="none" stroke="black" points="494,-189.515 720.034,-189.515 "/>
<text text-anchor="start" x="502" y="-177.515" font-family="Monaco" font-size="10.00">+ ~IPolyhedralSurfaceExchangeItem()</text>
</a>
</g>
</g>
<!-- Node1&#45;&gt;Node9 -->
<g id="edge8" class="edge"><title>Node1&#45;&gt;Node9</title>
<path fill="none" stroke="midnightblue" d="M537.805,-326.594C554.09,-298.655 571.6,-268.613 584.934,-245.737"/>
<polygon fill="none" stroke="midnightblue" points="534.58,-325.177 532.568,-335.579 540.628,-328.702 534.58,-325.177"/>
</g>
<!-- Node12 -->
<g id="node12" class="node"><title>Node12</title>
<g id="a_node12"><a xlink:href="class_hydro_couple_1_1_spatial_1_1_i_polyhedral_surface_only_component_data_item.html" target="_top" xlink:title="IPolyhedralSurfaceOnlyComponentDataItem represents IPolyhedralSurface IComponentItem. ">
<polygon fill="none" stroke="black" points="36.0005,-114.84 36.0005,-298.859 256.034,-298.859 256.034,-114.84 36.0005,-114.84"/>
<text text-anchor="start" x="44.0005" y="-286.859" font-family="Monaco" font-size="10.00">HydroCouple::Spatial</text>
<text text-anchor="start" x="44.0005" y="-273.524" font-family="Monaco" font-size="10.00">::IPolyhedralSurfaceOnlyComponent</text>
<text text-anchor="middle" x="146.017" y="-260.189" font-family="Monaco" font-size="10.00">DataItem</text>
<polyline fill="none" stroke="black" points="36.0005,-250.854 256.034,-250.854 "/>
<text text-anchor="middle" x="146.017" y="-238.854" font-family="Monaco" font-size="10.00"> </text>
<polyline fill="none" stroke="black" points="36.0005,-229.52 256.034,-229.52 "/>
<text text-anchor="start" x="44.0005" y="-217.52" font-family="Monaco" font-size="10.00">+ ~IPolyhedralSurfaceOnlyComponent</text>
<text text-anchor="start" x="44.0005" y="-204.185" font-family="Monaco" font-size="10.00">DataItem()</text>
<text text-anchor="start" x="44.0005" y="-190.85" font-family="Monaco" font-size="10.00">+ getValue()</text>
<text text-anchor="start" x="44.0005" y="-177.515" font-family="Monaco" font-size="10.00">+ getValues()</text>
<text text-anchor="start" x="44.0005" y="-164.18" font-family="Monaco" font-size="10.00">+ getValues()</text>
<text text-anchor="start" x="44.0005" y="-150.845" font-family="Monaco" font-size="10.00">+ setValue()</text>
<text text-anchor="start" x="44.0005" y="-137.51" font-family="Monaco" font-size="10.00">+ setValues()</text>
<text text-anchor="start" x="44.0005" y="-124.175" font-family="Monaco" font-size="10.00">+ setValues()</text>
</a>
</g>
</g>
<!-- Node1&#45;&gt;Node12 -->
<g id="edge11" class="edge"><title>Node1&#45;&gt;Node12</title>
<path fill="none" stroke="midnightblue" d="M368.77,-354.49C334.423,-338.239 297.579,-319.314 265.017,-299.359 262.128,-297.589 259.226,-295.763 256.319,-293.89"/>
<polygon fill="none" stroke="midnightblue" points="367.374,-357.701 377.914,-358.781 370.348,-351.364 367.374,-357.701"/>
</g>
<!-- Node13 -->
<g id="node13" class="node"><title>Node13</title>
<g id="a_node13"><a xlink:href="class_hydro_couple_1_1_spatio_temporal_1_1_i_time_polyhedral_surface_component_data_item.html" target="_top" xlink:title="The ITimePolyhedralSurfaceComponentItem class. ">
<polygon fill="none" stroke="black" points="738,-114.84 738,-298.859 958.034,-298.859 958.034,-114.84 738,-114.84"/>
<text text-anchor="start" x="746" y="-286.859" font-family="Monaco" font-size="10.00">HydroCouple::SpatioTemporal</text>
<text text-anchor="start" x="746" y="-273.524" font-family="Monaco" font-size="10.00">::ITimePolyhedralSurfaceComponent</text>
<text text-anchor="middle" x="848.017" y="-260.189" font-family="Monaco" font-size="10.00">DataItem</text>
<polyline fill="none" stroke="black" points="738,-250.854 958.034,-250.854 "/>
<text text-anchor="middle" x="848.017" y="-238.854" font-family="Monaco" font-size="10.00"> </text>
<polyline fill="none" stroke="black" points="738,-229.52 958.034,-229.52 "/>
<text text-anchor="start" x="746" y="-217.52" font-family="Monaco" font-size="10.00">+ ~ITimePolyhedralSurfaceComponent</text>
<text text-anchor="start" x="746" y="-204.185" font-family="Monaco" font-size="10.00">DataItem()</text>
<text text-anchor="start" x="746" y="-190.85" font-family="Monaco" font-size="10.00">+ getValue()</text>
<text text-anchor="start" x="746" y="-177.515" font-family="Monaco" font-size="10.00">+ getValues()</text>
<text text-anchor="start" x="746" y="-164.18" font-family="Monaco" font-size="10.00">+ getValues()</text>
<text text-anchor="start" x="746" y="-150.845" font-family="Monaco" font-size="10.00">+ setValue()</text>
<text text-anchor="start" x="746" y="-137.51" font-family="Monaco" font-size="10.00">+ setValues()</text>
<text text-anchor="start" x="746" y="-124.175" font-family="Monaco" font-size="10.00">+ setValues()</text>
</a>
</g>
</g>
<!-- Node1&#45;&gt;Node13 -->
<g id="edge14" class="edge"><title>Node1&#45;&gt;Node13</title>
<path fill="none" stroke="midnightblue" d="M613.769,-357.912C651.658,-341.098 692.896,-321.007 729.017,-299.359 731.923,-297.618 734.841,-295.817 737.762,-293.968"/>
<polygon fill="none" stroke="midnightblue" points="611.958,-354.885 604.214,-362.115 614.777,-361.292 611.958,-354.885"/>
</g>
<!-- Node2 -->
<g id="node2" class="node"><title>Node2</title>
<g id="a_node2"><a xlink:href="class_hydro_couple_1_1_i_component_data_item.html" target="_top" xlink:title="IComponentItem is a fundamental unit of data for a component. ">
<polygon fill="none" stroke="black" points="390.002,-516.874 390.002,-700.894 592.032,-700.894 592.032,-516.874 390.002,-516.874"/>
<text text-anchor="middle" x="491.017" y="-688.894" font-family="Monaco" font-size="10.00">HydroCouple::IComponentDataItem</text>
<polyline fill="none" stroke="black" points="390.002,-679.559 592.032,-679.559 "/>
<text text-anchor="middle" x="491.017" y="-667.559" font-family="Monaco" font-size="10.00"> </text>
<polyline fill="none" stroke="black" points="390.002,-658.224 592.032,-658.224 "/>
<text text-anchor="start" x="398.002" y="-646.224" font-family="Monaco" font-size="10.00">+ ~IComponentDataItem()</text>
<text text-anchor="start" x="398.002" y="-632.889" font-family="Monaco" font-size="10.00">+ modelComponent()</text>
<text text-anchor="start" x="398.002" y="-619.554" font-family="Monaco" font-size="10.00">+ dimensions()</text>
<text text-anchor="start" x="398.002" y="-606.219" font-family="Monaco" font-size="10.00">+ valueDefinition()</text>
<text text-anchor="start" x="398.002" y="-592.884" font-family="Monaco" font-size="10.00">+ getValue()</text>
<text text-anchor="start" x="398.002" y="-579.549" font-family="Monaco" font-size="10.00">+ getValues()</text>
<text text-anchor="start" x="398.002" y="-566.214" font-family="Monaco" font-size="10.00">+ getValues()</text>
<text text-anchor="start" x="398.002" y="-552.879" font-family="Monaco" font-size="10.00">+ setValue()</text>
<text text-anchor="start" x="398.002" y="-539.544" font-family="Monaco" font-size="10.00">+ setValues()</text>
<text text-anchor="start" x="398.002" y="-526.209" font-family="Monaco" font-size="10.00">+ setValues()</text>
</a>
</g>
</g>
<!-- Node2&#45;&gt;Node1 -->
<g id="edge1" class="edge"><title>Node2&#45;&gt;Node1</title>
<path fill="none" stroke="midnightblue" d="M491.017,-506.638C491.017,-497.612 491.017,-488.605 491.017,-479.915"/>
<polygon fill="none" stroke="midnightblue" points="487.517,-506.821 491.017,-516.821 494.517,-506.821 487.517,-506.821"/>
</g>
<!-- Node3 -->
<g id="node3" class="node"><title>Node3</title>
<g id="a_node3"><a xlink:href="class_hydro_couple_1_1_i_identity.html" target="_top" xlink:title="IIdentity interface class defines a method to get the Id of an HydroCouple entity. ">
<polygon fill="none" stroke="black" points="417.006,-737.894 417.006,-815.233 565.028,-815.233 565.028,-737.894 417.006,-737.894"/>
<text text-anchor="middle" x="491.017" y="-803.233" font-family="Monaco" font-size="10.00">HydroCouple::IIdentity</text>
<polyline fill="none" stroke="black" points="417.006,-793.898 565.028,-793.898 "/>
<text text-anchor="middle" x="491.017" y="-781.898" font-family="Monaco" font-size="10.00"> </text>
<polyline fill="none" stroke="black" points="417.006,-772.563 565.028,-772.563 "/>
<text text-anchor="start" x="425.006" y="-760.563" font-family="Monaco" font-size="10.00">+ ~IIdentity()</text>
<text text-anchor="start" x="425.006" y="-747.229" font-family="Monaco" font-size="10.00">+ id()</text>
</a>
</g>
</g>
<!-- Node3&#45;&gt;Node2 -->
<g id="edge2" class="edge"><title>Node3&#45;&gt;Node2</title>
<path fill="none" stroke="midnightblue" d="M491.017,-727.311C491.017,-718.958 491.017,-710.033 491.017,-700.974"/>
<polygon fill="none" stroke="midnightblue" points="487.517,-727.553 491.017,-737.553 494.517,-727.553 487.517,-727.553"/>
</g>
<!-- Node4 -->
<g id="node4" class="node"><title>Node4</title>
<g id="a_node4"><a xlink:href="class_hydro_couple_1_1_i_description.html" target="_top" xlink:title="IDescription interface class provides descriptive information on a HydroCouple object. ">
<polygon fill="none" stroke="black" points="408.005,-852.233 408.005,-969.578 574.029,-969.578 574.029,-852.233 408.005,-852.233"/>
<text text-anchor="middle" x="491.017" y="-957.578" font-family="Monaco" font-size="10.00">HydroCouple::IDescription</text>
<polyline fill="none" stroke="black" points="408.005,-948.243 574.029,-948.243 "/>
<text text-anchor="middle" x="491.017" y="-936.243" font-family="Monaco" font-size="10.00"> </text>
<polyline fill="none" stroke="black" points="408.005,-926.908 574.029,-926.908 "/>
<text text-anchor="start" x="416.005" y="-914.908" font-family="Monaco" font-size="10.00">+ ~IDescription()</text>
<text text-anchor="start" x="416.005" y="-901.573" font-family="Monaco" font-size="10.00">+ caption()</text>
<text text-anchor="start" x="416.005" y="-888.238" font-family="Monaco" font-size="10.00">+ setCaption()</text>
<text text-anchor="start" x="416.005" y="-874.903" font-family="Monaco" font-size="10.00">+ description()</text>
<text text-anchor="start" x="416.005" y="-861.568" font-family="Monaco" font-size="10.00">+ setDescription()</text>
</a>
</g>
</g>
<!-- Node4&#45;&gt;Node3 -->
<g id="edge3" class="edge"><title>Node4&#45;&gt;Node3</title>
<path fill="none" stroke="midnightblue" d="M491.017,-841.667C491.017,-832.629 491.017,-823.641 491.017,-815.381"/>
<polygon fill="none" stroke="midnightblue" points="487.517,-841.858 491.017,-851.859 494.517,-841.859 487.517,-841.858"/>
</g>
<!-- Node5 -->
<g id="node5" class="node"><title>Node5</title>
<g id="a_node5"><a xlink:href="class_hydro_couple_1_1_i_property_changed.html" target="_top" xlink:title="IPropertyChanged interface is used to emit signal/event when a property of an object changes...">
<polygon fill="none" stroke="black" points="396.003,-1006.58 396.003,-1070.58 586.031,-1070.58 586.031,-1006.58 396.003,-1006.58"/>
<text text-anchor="middle" x="491.017" y="-1058.58" font-family="Monaco" font-size="10.00">HydroCouple::IPropertyChanged</text>
<polyline fill="none" stroke="black" points="396.003,-1049.25 586.031,-1049.25 "/>
<text text-anchor="middle" x="491.017" y="-1037.25" font-family="Monaco" font-size="10.00"> </text>
<polyline fill="none" stroke="black" points="396.003,-1027.91 586.031,-1027.91 "/>
<text text-anchor="start" x="404.003" y="-1015.91" font-family="Monaco" font-size="10.00">+ ~IPropertyChanged()</text>
</a>
</g>
</g>
<!-- Node5&#45;&gt;Node4 -->
<g id="edge4" class="edge"><title>Node5&#45;&gt;Node4</title>
<path fill="none" stroke="midnightblue" d="M491.017,-996.258C491.017,-987.873 491.017,-978.906 491.017,-970.064"/>
<polygon fill="none" stroke="midnightblue" points="487.517,-996.515 491.017,-1006.51 494.517,-996.515 487.517,-996.515"/>
</g>
<!-- Node7 -->
<g id="node7" class="node"><title>Node7</title>
<g id="a_node7"><a xlink:href="class_hydro_couple_1_1_spatial_1_1_i_polyhedral_surface_only_argument.html" target="_top" xlink:title="An IPolyhedralSurfaceOnlyArgument class with an IPolyhedralSurface component. ">
<polygon fill="none" stroke="black" points="0,-0.5 0,-77.8398 226.034,-77.8398 226.034,-0.5 0,-0.5"/>
<text text-anchor="start" x="8" y="-65.8398" font-family="Monaco" font-size="10.00">HydroCouple::Spatial</text>
<text text-anchor="middle" x="113.017" y="-52.5049" font-family="Monaco" font-size="10.00">::IPolyhedralSurfaceOnlyArgument</text>
<polyline fill="none" stroke="black" points="0,-43.1699 226.034,-43.1699 "/>
<text text-anchor="middle" x="113.017" y="-31.1699" font-family="Monaco" font-size="10.00"> </text>
<polyline fill="none" stroke="black" points="0,-21.835 226.034,-21.835 "/>
<text text-anchor="start" x="8" y="-9.83496" font-family="Monaco" font-size="10.00">+ ~IPolyhedralSurfaceOnlyArgument()</text>
</a>
</g>
</g>
<!-- Node6&#45;&gt;Node7 -->
<g id="edge6" class="edge"><title>Node6&#45;&gt;Node7</title>
<path fill="none" stroke="midnightblue" d="M326.794,-161.456C308.241,-145.546 286.374,-128.148 265.017,-114.34 244.551,-101.108 221.378,-88.6593 199.404,-77.8772"/>
<polygon fill="none" stroke="midnightblue" points="324.685,-164.259 334.532,-168.168 329.272,-158.971 324.685,-164.259"/>
</g>
<!-- Node8 -->
<g id="node8" class="node"><title>Node8</title>
<g id="a_node8"><a xlink:href="class_hydro_couple_1_1_spatio_temporal_1_1_i_time_polyhedral_surface_argument.html" target="_top" xlink:title="The ITimePolyhedralSurfaceArgument class. ">
<polygon fill="none" stroke="black" points="512,-0.5 512,-77.8398 738.034,-77.8398 738.034,-0.5 512,-0.5"/>
<text text-anchor="start" x="520" y="-65.8398" font-family="Monaco" font-size="10.00">HydroCouple::SpatioTemporal</text>
<text text-anchor="middle" x="625.017" y="-52.5049" font-family="Monaco" font-size="10.00">::ITimePolyhedralSurfaceArgument</text>
<polyline fill="none" stroke="black" points="512,-43.1699 738.034,-43.1699 "/>
<text text-anchor="middle" x="625.017" y="-31.1699" font-family="Monaco" font-size="10.00"> </text>
<polyline fill="none" stroke="black" points="512,-21.835 738.034,-21.835 "/>
<text text-anchor="start" x="520" y="-9.83496" font-family="Monaco" font-size="10.00">+ ~ITimePolyhedralSurfaceArgument()</text>
</a>
</g>
</g>
<!-- Node6&#45;&gt;Node8 -->
<g id="edge7" class="edge"><title>Node6&#45;&gt;Node8</title>
<path fill="none" stroke="midnightblue" d="M423.968,-161.43C442.445,-145.671 464.073,-128.379 485.017,-114.34 504.323,-101.398 526.137,-88.9191 546.701,-78.0073"/>
<polygon fill="none" stroke="midnightblue" points="421.545,-158.897 416.253,-168.075 426.114,-164.201 421.545,-158.897"/>
</g>
<!-- Node10 -->
<g id="node10" class="node"><title>Node10</title>
<g id="a_node10"><a xlink:href="class_hydro_couple_1_1_spatial_1_1_i_polyhedral_surface_only_exchange_item.html" target="_top" xlink:title="An IPolyhedralSurfaceOnlyExchangeItem class with an IPolyhedralSurface component. ...">
<polygon fill="none" stroke="black" points="243.998,-0.5 243.998,-77.8398 494.036,-77.8398 494.036,-0.5 243.998,-0.5"/>
<text text-anchor="start" x="251.998" y="-65.8398" font-family="Monaco" font-size="10.00">HydroCouple::Spatial</text>
<text text-anchor="middle" x="369.017" y="-52.5049" font-family="Monaco" font-size="10.00">::IPolyhedralSurfaceOnlyExchangeItem</text>
<polyline fill="none" stroke="black" points="243.998,-43.1699 494.036,-43.1699 "/>
<text text-anchor="middle" x="369.017" y="-31.1699" font-family="Monaco" font-size="10.00"> </text>
<polyline fill="none" stroke="black" points="243.998,-21.835 494.036,-21.835 "/>
<text text-anchor="start" x="251.998" y="-9.83496" font-family="Monaco" font-size="10.00">+ ~IPolyhedralSurfaceOnlyExchangeItem()</text>
</a>
</g>
</g>
<!-- Node9&#45;&gt;Node10 -->
<g id="edge9" class="edge"><title>Node9&#45;&gt;Node10</title>
<path fill="none" stroke="midnightblue" d="M550.141,-161.809C529.832,-146.453 506.627,-129.322 485.017,-114.34 467.436,-102.15 447.969,-89.4186 430.084,-78.0134"/>
<polygon fill="none" stroke="midnightblue" points="548.278,-164.789 558.359,-168.046 552.509,-159.212 548.278,-164.789"/>
</g>
<!-- Node11 -->
<g id="node11" class="node"><title>Node11</title>
<g id="a_node11"><a xlink:href="class_hydro_couple_1_1_spatio_temporal_1_1_i_time_polyhedral_surface_exchange_item.html" target="_top" xlink:title="The ITimePolyhedralSurfaceExchangeItem class. ">
<polygon fill="none" stroke="black" points="755.998,-0.5 755.998,-77.8398 1006.04,-77.8398 1006.04,-0.5 755.998,-0.5"/>
<text text-anchor="start" x="763.998" y="-65.8398" font-family="Monaco" font-size="10.00">HydroCouple::SpatioTemporal</text>
<text text-anchor="middle" x="881.017" y="-52.5049" font-family="Monaco" font-size="10.00">::ITimePolyhedralSurfaceExchangeItem</text>
<polyline fill="none" stroke="black" points="755.998,-43.1699 1006.04,-43.1699 "/>
<text text-anchor="middle" x="881.017" y="-31.1699" font-family="Monaco" font-size="10.00"> </text>
<polyline fill="none" stroke="black" points="755.998,-21.835 1006.04,-21.835 "/>
<text text-anchor="start" x="763.998" y="-9.83496" font-family="Monaco" font-size="10.00">+ ~ITimePolyhedralSurfaceExchangeItem()</text>
</a>
</g>
</g>
<!-- Node9&#45;&gt;Node11 -->
<g id="edge10" class="edge"><title>Node9&#45;&gt;Node11</title>
<path fill="none" stroke="midnightblue" d="M661.087,-161.828C681.737,-145.955 705.884,-128.483 729.017,-114.34 750.186,-101.397 773.94,-88.9179 796.268,-78.0061"/>
<polygon fill="none" stroke="midnightblue" points="658.817,-159.159 653.06,-168.053 663.107,-164.691 658.817,-159.159"/>
</g>
<!-- Node12&#45;&gt;Node7 -->
<g id="edge12" class="edge"><title>Node12&#45;&gt;Node7</title>
<path fill="none" stroke="midnightblue" d="M125.899,-104.843C124.02,-95.4108 122.207,-86.309 120.564,-78.0601"/>
<polygon fill="none" stroke="midnightblue" points="122.49,-105.647 127.876,-114.77 129.355,-104.279 122.49,-105.647"/>
</g>
<!-- Node12&#45;&gt;Node10 -->
<g id="edge13" class="edge"><title>Node12&#45;&gt;Node10</title>
<path fill="none" stroke="midnightblue" d="M264.192,-114.952C264.467,-114.747 264.742,-114.543 265.017,-114.34 281.234,-102.328 299.063,-89.4838 315.309,-77.9168"/>
<polygon fill="none" stroke="midnightblue" points="262.06,-112.175 256.128,-120.953 266.24,-117.79 262.06,-112.175"/>
</g>
<!-- Node13&#45;&gt;Node8 -->
<g id="edge15" class="edge"><title>Node13&#45;&gt;Node8</title>
<path fill="none" stroke="midnightblue" d="M729.843,-114.952C729.567,-114.747 729.292,-114.543 729.017,-114.34 712.8,-102.328 694.971,-89.4838 678.726,-77.9168"/>
<polygon fill="none" stroke="midnightblue" points="727.794,-117.79 737.906,-120.953 731.974,-112.175 727.794,-117.79"/>
</g>
<!-- Node13&#45;&gt;Node11 -->
<g id="edge16" class="edge"><title>Node13&#45;&gt;Node11</title>
<path fill="none" stroke="midnightblue" d="M868.136,-104.843C870.014,-95.4108 871.827,-86.309 873.47,-78.0601"/>
<polygon fill="none" stroke="midnightblue" points="864.679,-104.279 866.158,-114.77 871.544,-105.647 864.679,-104.279"/>
</g>
</g>
</svg>
