<?xml version="1.0" encoding="UTF-8" standalone="no"?>
<!DOCTYPE svg PUBLIC "-//W3C//DTD SVG 1.1//EN"
 "http://www.w3.org/Graphics/SVG/1.1/DTD/svg11.dtd">
<!-- Generated by graphviz version 2.38.0 (20140413.2041)
 -->
<!-- Title: /Users/calebbuahin/Documents/Projects/HydroCouple/HydroCoupleSDK/src/componentinfo.cpp Pages: 1 -->
<svg width="368pt" height="362pt"
 viewBox="0.00 0.00 368.01 362.01" xmlns="http://www.w3.org/2000/svg" xmlns:xlink="http://www.w3.org/1999/xlink">
<g id="graph0" class="graph" transform="scale(1 1) rotate(0) translate(4 358.015)">
<title>/Users/calebbuahin/Documents/Projects/HydroCouple/HydroCoupleSDK/src/componentinfo.cpp</title>
<polygon fill="white" stroke="none" points="-4,4 -4,-358.015 364.008,-358.015 364.008,4 -4,4"/>
<!-- Node1 -->
<g id="node1" class="node"><title>Node1</title>
<polygon fill="#bfbfbf" stroke="black" points="5.99072,-292.175 5.99072,-353.515 184.017,-353.515 184.017,-292.175 5.99072,-292.175"/>
<text text-anchor="start" x="13.9907" y="-341.515" font-family="Monaco" font-size="10.00">/Users/calebbuahin</text>
<text text-anchor="start" x="13.9907" y="-328.18" font-family="Monaco" font-size="10.00">/Documents/Projects</text>
<text text-anchor="start" x="13.9907" y="-314.845" font-family="Monaco" font-size="10.00">/HydroCouple/HydroCoupleSDK</text>
<text text-anchor="middle" x="95.0039" y="-301.51" font-family="Monaco" font-size="10.00">/src/componentinfo.cpp</text>
</g>
<!-- Node2 -->
<g id="node2" class="node"><title>Node2</title>
<polygon fill="white" stroke="#bfbfbf" points="0,-233.84 0,-255.175 64.0078,-255.175 64.0078,-233.84 0,-233.84"/>
<text text-anchor="middle" x="32.0039" y="-243.175" font-family="Monaco" font-size="10.00">stdafx.h</text>
</g>
<!-- Node1&#45;&gt;Node2 -->
<g id="edge1" class="edge"><title>Node1&#45;&gt;Node2</title>
<path fill="none" stroke="midnightblue" d="M70.4661,-292.112C62.3815,-282.316 53.6528,-271.739 46.5575,-263.142"/>
<polygon fill="midnightblue" stroke="midnightblue" points="49.1556,-260.791 40.091,-255.306 43.7567,-265.247 49.1556,-260.791"/>
</g>
<!-- Node3 -->
<g id="node3" class="node"><title>Node3</title>
<g id="a_node3"><a xlink:href="componentinfo_8h.html" target="_top" xlink:title="include/componentinfo.h">
<polygon fill="white" stroke="black" points="81.9927,-233.84 81.9927,-255.175 236.015,-255.175 236.015,-233.84 81.9927,-233.84"/>
<text text-anchor="middle" x="159.004" y="-243.175" font-family="Monaco" font-size="10.00">include/componentinfo.h</text>
</a>
</g>
</g>
<!-- Node1&#45;&gt;Node3 -->
<g id="edge2" class="edge"><title>Node1&#45;&gt;Node3</title>
<path fill="none" stroke="midnightblue" d="M119.931,-292.112C128.144,-282.316 137.011,-271.739 144.219,-263.142"/>
<polygon fill="midnightblue" stroke="midnightblue" points="147.046,-265.218 150.788,-255.306 141.682,-260.721 147.046,-265.218"/>
</g>
<!-- Node4 -->
<g id="node4" class="node"><title>Node4</title>
<g id="a_node4"><a xlink:href="identity_8h.html" target="_top" xlink:title="identity.h">
<polygon fill="white" stroke="black" points="120.999,-175.505 120.999,-196.84 197.009,-196.84 197.009,-175.505 120.999,-175.505"/>
<text text-anchor="middle" x="159.004" y="-184.84" font-family="Monaco" font-size="10.00">identity.h</text>
</a>
</g>
</g>
<!-- Node3&#45;&gt;Node4 -->
<g id="edge3" class="edge"><title>Node3&#45;&gt;Node4</title>
<path fill="none" stroke="midnightblue" d="M159.004,-233.695C159.004,-226.343 159.004,-216.038 159.004,-206.995"/>
<polygon fill="midnightblue" stroke="midnightblue" points="162.504,-206.873 159.004,-196.873 155.504,-206.873 162.504,-206.873"/>
</g>
<!-- Node5 -->
<g id="node5" class="node"><title>Node5</title>
<g id="a_node5"><a xlink:href="hydrocouplesdk_8h.html" target="_top" xlink:title="hydrocouplesdk.h">
<polygon fill="white" stroke="black" points="37.9961,-58.835 37.9961,-80.1699 150.012,-80.1699 150.012,-58.835 37.9961,-58.835"/>
<text text-anchor="middle" x="94.0039" y="-68.1699" font-family="Monaco" font-size="10.00">hydrocouplesdk.h</text>
</a>
</g>
</g>
<!-- Node4&#45;&gt;Node5 -->
<g id="edge4" class="edge"><title>Node4&#45;&gt;Node5</title>
<path fill="none" stroke="midnightblue" d="M153.462,-175.396C142.621,-156.27 118.451,-113.63 104.495,-89.0095"/>
<polygon fill="midnightblue" stroke="midnightblue" points="107.508,-87.228 99.5317,-80.2544 101.418,-90.6799 107.508,-87.228"/>
</g>
<!-- Node7 -->
<g id="node7" class="node"><title>Node7</title>
<g id="a_node7"><a xlink:href="description_8h.html" target="_top" xlink:title="description.h">
<polygon fill="white" stroke="black" points="149.998,-117.17 149.998,-138.505 244.01,-138.505 244.01,-117.17 149.998,-117.17"/>
<text text-anchor="middle" x="197.004" y="-126.505" font-family="Monaco" font-size="10.00">description.h</text>
</a>
</g>
</g>
<!-- Node4&#45;&gt;Node7 -->
<g id="edge6" class="edge"><title>Node4&#45;&gt;Node7</title>
<path fill="none" stroke="midnightblue" d="M165.623,-175.36C170.908,-167.524 178.458,-156.332 184.828,-146.889"/>
<polygon fill="midnightblue" stroke="midnightblue" points="187.77,-148.785 190.461,-138.538 181.967,-144.871 187.77,-148.785"/>
</g>
<!-- Node6 -->
<g id="node6" class="node"><title>Node6</title>
<polygon fill="white" stroke="#bfbfbf" points="120.996,-0.5 120.996,-21.835 233.012,-21.835 233.012,-0.5 120.996,-0.5"/>
<text text-anchor="middle" x="177.004" y="-9.83496" font-family="Monaco" font-size="10.00">QtCore/qglobal.h</text>
</g>
<!-- Node5&#45;&gt;Node6 -->
<g id="edge5" class="edge"><title>Node5&#45;&gt;Node6</title>
<path fill="none" stroke="midnightblue" d="M108.461,-58.6896C121.077,-50.1269 139.598,-37.5559 154.208,-27.6396"/>
<polygon fill="midnightblue" stroke="midnightblue" points="156.404,-30.3798 162.712,-21.8678 152.472,-24.5879 156.404,-30.3798"/>
</g>
<!-- Node7&#45;&gt;Node5 -->
<g id="edge9" class="edge"><title>Node7&#45;&gt;Node5</title>
<path fill="none" stroke="midnightblue" d="M179.063,-117.025C162.964,-108.22 139.116,-95.1761 120.765,-85.1391"/>
<polygon fill="midnightblue" stroke="midnightblue" points="122.193,-81.9307 111.74,-80.2028 118.833,-88.0721 122.193,-81.9307"/>
</g>
<!-- Node8 -->
<g id="node8" class="node"><title>Node8</title>
<polygon fill="white" stroke="#bfbfbf" points="168,-58.835 168,-80.1699 226.007,-80.1699 226.007,-58.835 168,-58.835"/>
<text text-anchor="middle" x="197.004" y="-68.1699" font-family="Monaco" font-size="10.00">QObject</text>
</g>
<!-- Node7&#45;&gt;Node8 -->
<g id="edge7" class="edge"><title>Node7&#45;&gt;Node8</title>
<path fill="none" stroke="midnightblue" d="M197.004,-117.025C197.004,-109.674 197.004,-99.3684 197.004,-90.3249"/>
<polygon fill="midnightblue" stroke="midnightblue" points="200.504,-90.2028 197.004,-80.2028 193.504,-90.2028 200.504,-90.2028"/>
</g>
<!-- Node9 -->
<g id="node9" class="node"><title>Node9</title>
<polygon fill="white" stroke="#bfbfbf" points="296,-0.5 296,-21.835 360.008,-21.835 360.008,-0.5 296,-0.5"/>
<text text-anchor="middle" x="328.004" y="-9.83496" font-family="Monaco" font-size="10.00">QVariant</text>
</g>
<!-- Node7&#45;&gt;Node9 -->
<g id="edge8" class="edge"><title>Node7&#45;&gt;Node9</title>
<path fill="none" stroke="midnightblue" d="M244.271,-126.217C278.838,-122.968 323.614,-112.342 347.004,-80.6699 357.83,-66.0108 349.846,-45.4727 341.15,-30.7141"/>
<polygon fill="midnightblue" stroke="midnightblue" points="343.878,-28.4851 335.523,-21.9701 337.991,-32.2734 343.878,-28.4851"/>
</g>
<!-- Node10 -->
<g id="node10" class="node"><title>Node10</title>
<g id="a_node10"><a xlink:href="hydrocouple_8h.html" target="_top" xlink:title="hydrocouple.h">
<polygon fill="white" stroke="black" points="243.998,-58.835 243.998,-80.1699 338.01,-80.1699 338.01,-58.835 243.998,-58.835"/>
<text text-anchor="middle" x="291.004" y="-68.1699" font-family="Monaco" font-size="10.00">hydrocouple.h</text>
</a>
</g>
</g>
<!-- Node7&#45;&gt;Node10 -->
<g id="edge10" class="edge"><title>Node7&#45;&gt;Node10</title>
<path fill="none" stroke="midnightblue" d="M213.377,-117.025C227.935,-108.3 249.435,-95.4151 266.119,-85.4161"/>
<polygon fill="midnightblue" stroke="midnightblue" points="268.04,-88.3456 274.818,-80.2028 264.441,-82.3413 268.04,-88.3456"/>
</g>
<!-- Node10&#45;&gt;Node6 -->
<g id="edge11" class="edge"><title>Node10&#45;&gt;Node6</title>
<path fill="none" stroke="midnightblue" d="M271.407,-58.8181C253.381,-49.9103 226.42,-36.587 205.919,-26.4566"/>
<polygon fill="midnightblue" stroke="midnightblue" points="207.243,-23.2065 196.727,-21.914 204.141,-29.482 207.243,-23.2065"/>
</g>
<!-- Node10&#45;&gt;Node9 -->
<g id="edge12" class="edge"><title>Node10&#45;&gt;Node9</title>
<path fill="none" stroke="midnightblue" d="M297.449,-58.6896C302.542,-50.9347 309.795,-39.8921 315.956,-30.5114"/>
<polygon fill="midnightblue" stroke="midnightblue" points="319.069,-32.1477 321.633,-21.8678 313.218,-28.3049 319.069,-32.1477"/>
</g>
</g>
</svg>
