<?xml version="1.0" encoding="UTF-8" standalone="no"?>
<!DOCTYPE svg PUBLIC "-//W3C//DTD SVG 1.1//EN"
 "http://www.w3.org/Graphics/SVG/1.1/DTD/svg11.dtd">
<!-- Generated by graphviz version 2.38.0 (20140413.2041)
 -->
<!-- Title: /Users/calebbuahin/Documents/Projects/HydroCouple/HydroCoupleSDK/src/componentstatuschangeeventargs.cpp Pages: 1 -->
<svg width="418pt" height="420pt"
 viewBox="0.00 0.00 418.03 420.35" xmlns="http://www.w3.org/2000/svg" xmlns:xlink="http://www.w3.org/1999/xlink">
<g id="graph0" class="graph" transform="scale(1 1) rotate(0) translate(4 416.35)">
<title>/Users/calebbuahin/Documents/Projects/HydroCouple/HydroCoupleSDK/src/componentstatuschangeeventargs.cpp</title>
<polygon fill="white" stroke="none" points="-4,4 -4,-416.35 414.027,-416.35 414.027,4 -4,4"/>
<!-- Node1 -->
<g id="node1" class="node"><title>Node1</title>
<polygon fill="#bfbfbf" stroke="black" points="0,-350.51 0,-411.85 250.038,-411.85 250.038,-350.51 0,-350.51"/>
<text text-anchor="start" x="8" y="-399.85" font-family="Monaco" font-size="10.00">/Users/calebbuahin</text>
<text text-anchor="start" x="8" y="-386.515" font-family="Monaco" font-size="10.00">/Documents/Projects</text>
<text text-anchor="start" x="8" y="-373.18" font-family="Monaco" font-size="10.00">/HydroCouple/HydroCoupleSDK</text>
<text text-anchor="middle" x="125.019" y="-359.845" font-family="Monaco" font-size="10.00">/src/componentstatuschangeeventargs.cpp</text>
</g>
<!-- Node2 -->
<g id="node2" class="node"><title>Node2</title>
<polygon fill="white" stroke="#bfbfbf" points="4.01514,-292.175 4.01514,-313.51 68.0229,-313.51 68.0229,-292.175 4.01514,-292.175"/>
<text text-anchor="middle" x="36.019" y="-301.51" font-family="Monaco" font-size="10.00">stdafx.h</text>
</g>
<!-- Node1&#45;&gt;Node2 -->
<g id="edge1" class="edge"><title>Node1&#45;&gt;Node2</title>
<path fill="none" stroke="midnightblue" d="M90.3545,-350.447C78.4575,-340.243 65.5733,-329.192 55.3382,-320.413"/>
<polygon fill="midnightblue" stroke="midnightblue" points="57.3127,-317.495 47.4437,-313.641 52.7554,-322.809 57.3127,-317.495"/>
</g>
<!-- Node3 -->
<g id="node3" class="node"><title>Node3</title>
<g id="a_node3"><a xlink:href="componentstatuschangeeventargs_8h.html" target="_top" xlink:title="include/componentstatuschangeeventargs.h">
<polygon fill="white" stroke="black" points="85.9995,-292.175 85.9995,-313.51 342.039,-313.51 342.039,-292.175 85.9995,-292.175"/>
<text text-anchor="middle" x="214.019" y="-301.51" font-family="Monaco" font-size="10.00">include/componentstatuschangeeventargs.h</text>
</a>
</g>
</g>
<!-- Node1&#45;&gt;Node3 -->
<g id="edge2" class="edge"><title>Node1&#45;&gt;Node3</title>
<path fill="none" stroke="midnightblue" d="M159.684,-350.447C171.581,-340.243 184.465,-329.192 194.7,-320.413"/>
<polygon fill="midnightblue" stroke="midnightblue" points="197.283,-322.809 202.594,-313.641 192.725,-317.495 197.283,-322.809"/>
</g>
<!-- Node4 -->
<g id="node4" class="node"><title>Node4</title>
<polygon fill="white" stroke="#bfbfbf" points="72.0156,-58.835 72.0156,-80.1699 130.022,-80.1699 130.022,-58.835 72.0156,-58.835"/>
<text text-anchor="middle" x="101.019" y="-68.1699" font-family="Monaco" font-size="10.00">QObject</text>
</g>
<!-- Node3&#45;&gt;Node4 -->
<g id="edge3" class="edge"><title>Node3&#45;&gt;Node4</title>
<path fill="none" stroke="midnightblue" d="M201.866,-291.957C191.881,-283.288 177.969,-269.879 169.019,-255.675 134.423,-200.77 113.786,-125.69 105.398,-90.3854"/>
<polygon fill="midnightblue" stroke="midnightblue" points="108.753,-89.3586 103.103,-80.3963 101.931,-90.9262 108.753,-89.3586"/>
</g>
<!-- Node5 -->
<g id="node5" class="node"><title>Node5</title>
<g id="a_node5"><a xlink:href="hydrocouple_8h.html" target="_top" xlink:title="hydrocouple.h">
<polygon fill="white" stroke="black" points="148.013,-58.835 148.013,-80.1699 242.025,-80.1699 242.025,-58.835 148.013,-58.835"/>
<text text-anchor="middle" x="195.019" y="-68.1699" font-family="Monaco" font-size="10.00">hydrocouple.h</text>
</a>
</g>
</g>
<!-- Node3&#45;&gt;Node5 -->
<g id="edge4" class="edge"><title>Node3&#45;&gt;Node5</title>
<path fill="none" stroke="midnightblue" d="M203.459,-292.007C195.017,-283.368 183.827,-269.975 179.019,-255.675 159.626,-197.994 177.489,-124.805 188.241,-90.2606"/>
<polygon fill="midnightblue" stroke="midnightblue" points="191.66,-91.0636 191.426,-80.4713 185.004,-88.8979 191.66,-91.0636"/>
</g>
<!-- Node8 -->
<g id="node8" class="node"><title>Node8</title>
<g id="a_node8"><a xlink:href="hydrocouplesdk_8h.html" target="_top" xlink:title="hydrocouplesdk.h">
<polygon fill="white" stroke="black" points="298.011,-58.835 298.011,-80.1699 410.027,-80.1699 410.027,-58.835 298.011,-58.835"/>
<text text-anchor="middle" x="354.019" y="-68.1699" font-family="Monaco" font-size="10.00">hydrocouplesdk.h</text>
</a>
</g>
</g>
<!-- Node3&#45;&gt;Node8 -->
<g id="edge7" class="edge"><title>Node3&#45;&gt;Node8</title>
<path fill="none" stroke="midnightblue" d="M300.86,-292.154C322.627,-285.363 343.584,-274.13 357.019,-255.675 393.359,-205.755 373.489,-126.526 361.292,-90.0533"/>
<polygon fill="midnightblue" stroke="midnightblue" points="364.579,-88.8493 357.966,-80.5717 357.973,-91.1665 364.579,-88.8493"/>
</g>
<!-- Node9 -->
<g id="node9" class="node"><title>Node9</title>
<g id="a_node9"><a xlink:href="abstractmodelcomponent_8h.html" target="_top" xlink:title="abstractmodelcomponent.h">
<polygon fill="white" stroke="black" points="188.007,-233.84 188.007,-255.175 348.031,-255.175 348.031,-233.84 188.007,-233.84"/>
<text text-anchor="middle" x="268.019" y="-243.175" font-family="Monaco" font-size="10.00">abstractmodelcomponent.h</text>
</a>
</g>
</g>
<!-- Node3&#45;&gt;Node9 -->
<g id="edge9" class="edge"><title>Node3&#45;&gt;Node9</title>
<path fill="none" stroke="midnightblue" d="M223.425,-292.029C231.168,-283.951 242.331,-272.306 251.551,-262.688"/>
<polygon fill="midnightblue" stroke="midnightblue" points="254.328,-264.849 258.721,-255.208 249.274,-260.005 254.328,-264.849"/>
</g>
<!-- Node6 -->
<g id="node6" class="node"><title>Node6</title>
<polygon fill="white" stroke="#bfbfbf" points="284.011,-0.5 284.011,-21.835 396.027,-21.835 396.027,-0.5 284.011,-0.5"/>
<text text-anchor="middle" x="340.019" y="-9.83496" font-family="Monaco" font-size="10.00">QtCore/qglobal.h</text>
</g>
<!-- Node5&#45;&gt;Node6 -->
<g id="edge5" class="edge"><title>Node5&#45;&gt;Node6</title>
<path fill="none" stroke="midnightblue" d="M219.945,-58.8181C243.496,-49.6685 279.036,-35.8603 305.346,-25.6387"/>
<polygon fill="midnightblue" stroke="midnightblue" points="306.879,-28.7979 314.933,-21.914 304.344,-22.273 306.879,-28.7979"/>
</g>
<!-- Node7 -->
<g id="node7" class="node"><title>Node7</title>
<polygon fill="white" stroke="#bfbfbf" points="176.015,-0.5 176.015,-21.835 240.023,-21.835 240.023,-0.5 176.015,-0.5"/>
<text text-anchor="middle" x="208.019" y="-9.83496" font-family="Monaco" font-size="10.00">QVariant</text>
</g>
<!-- Node5&#45;&gt;Node7 -->
<g id="edge6" class="edge"><title>Node5&#45;&gt;Node7</title>
<path fill="none" stroke="midnightblue" d="M197.283,-58.6896C198.998,-51.2578 201.41,-40.8066 203.513,-31.6923"/>
<polygon fill="midnightblue" stroke="midnightblue" points="206.942,-32.3988 205.781,-21.8678 200.122,-30.8247 206.942,-32.3988"/>
</g>
<!-- Node8&#45;&gt;Node6 -->
<g id="edge8" class="edge"><title>Node8&#45;&gt;Node6</title>
<path fill="none" stroke="midnightblue" d="M351.58,-58.6896C349.734,-51.2578 347.136,-40.8066 344.871,-31.6923"/>
<polygon fill="midnightblue" stroke="midnightblue" points="348.238,-30.7285 342.43,-21.8678 341.445,-32.4168 348.238,-30.7285"/>
</g>
<!-- Node10 -->
<g id="node10" class="node"><title>Node10</title>
<g id="a_node10"><a xlink:href="identity_8h.html" target="_top" xlink:title="identity.h">
<polygon fill="white" stroke="black" points="230.014,-175.505 230.014,-196.84 306.024,-196.84 306.024,-175.505 230.014,-175.505"/>
<text text-anchor="middle" x="268.019" y="-184.84" font-family="Monaco" font-size="10.00">identity.h</text>
</a>
</g>
</g>
<!-- Node9&#45;&gt;Node10 -->
<g id="edge10" class="edge"><title>Node9&#45;&gt;Node10</title>
<path fill="none" stroke="midnightblue" d="M268.019,-233.695C268.019,-226.343 268.019,-216.038 268.019,-206.995"/>
<polygon fill="midnightblue" stroke="midnightblue" points="271.519,-206.873 268.019,-196.873 264.519,-206.873 271.519,-206.873"/>
</g>
<!-- Node10&#45;&gt;Node8 -->
<g id="edge11" class="edge"><title>Node10&#45;&gt;Node8</title>
<path fill="none" stroke="midnightblue" d="M281.406,-175.296C292.487,-166.632 308.124,-153.226 319.019,-139.005 330.652,-123.82 340.225,-104.182 346.4,-89.8285"/>
<polygon fill="midnightblue" stroke="midnightblue" points="349.691,-91.0283 350.278,-80.4497 343.223,-88.3538 349.691,-91.0283"/>
</g>
<!-- Node11 -->
<g id="node11" class="node"><title>Node11</title>
<g id="a_node11"><a xlink:href="description_8h.html" target="_top" xlink:title="description.h">
<polygon fill="white" stroke="black" points="216.013,-117.17 216.013,-138.505 310.025,-138.505 310.025,-117.17 216.013,-117.17"/>
<text text-anchor="middle" x="263.019" y="-126.505" font-family="Monaco" font-size="10.00">description.h</text>
</a>
</g>
</g>
<!-- Node10&#45;&gt;Node11 -->
<g id="edge12" class="edge"><title>Node10&#45;&gt;Node11</title>
<path fill="none" stroke="midnightblue" d="M267.148,-175.36C266.496,-168.009 265.581,-157.703 264.778,-148.66"/>
<polygon fill="midnightblue" stroke="midnightblue" points="268.25,-148.189 263.88,-138.538 261.278,-148.808 268.25,-148.189"/>
</g>
<!-- Node11&#45;&gt;Node4 -->
<g id="edge13" class="edge"><title>Node11&#45;&gt;Node4</title>
<path fill="none" stroke="midnightblue" d="M235.17,-117.153C208.511,-107.883 168.1,-93.8295 138.598,-83.5703"/>
<polygon fill="midnightblue" stroke="midnightblue" points="139.641,-80.2277 129.047,-80.2489 137.342,-86.8393 139.641,-80.2277"/>
</g>
<!-- Node11&#45;&gt;Node5 -->
<g id="edge16" class="edge"><title>Node11&#45;&gt;Node5</title>
<path fill="none" stroke="midnightblue" d="M251.174,-117.025C241.131,-108.704 226.52,-96.5992 214.719,-86.8227"/>
<polygon fill="midnightblue" stroke="midnightblue" points="216.662,-83.8872 206.728,-80.2028 212.196,-89.2777 216.662,-83.8872"/>
</g>
<!-- Node11&#45;&gt;Node7 -->
<g id="edge14" class="edge"><title>Node11&#45;&gt;Node7</title>
<path fill="none" stroke="midnightblue" d="M263.022,-116.993C262.654,-103.179 260.592,-77.5767 251.019,-58.335 245.547,-47.3362 236.616,-37.1134 228.308,-29.0977"/>
<polygon fill="midnightblue" stroke="midnightblue" points="230.415,-26.2828 220.666,-22.1356 225.701,-31.4574 230.415,-26.2828"/>
</g>
<!-- Node11&#45;&gt;Node8 -->
<g id="edge15" class="edge"><title>Node11&#45;&gt;Node8</title>
<path fill="none" stroke="midnightblue" d="M278.87,-117.025C292.832,-108.381 313.392,-95.6533 329.479,-85.6946"/>
<polygon fill="midnightblue" stroke="midnightblue" points="331.689,-88.4424 338.35,-80.2028 328.005,-82.4906 331.689,-88.4424"/>
</g>
</g>
</svg>
