<?xml version="1.0" encoding="UTF-8" standalone="no"?>
<!DOCTYPE svg PUBLIC "-//W3C//DTD SVG 1.1//EN"
 "http://www.w3.org/Graphics/SVG/1.1/DTD/svg11.dtd">
<!-- Generated by graphviz version 2.38.0 (20140413.2041)
 -->
<!-- Title: /Users/calebbuahin/Documents/Projects/HydroCouple/HydroCoupleSDK/src/description.cpp Pages: 1 -->
<svg width="375pt" height="245pt"
 viewBox="0.00 0.00 375.01 245.34" xmlns="http://www.w3.org/2000/svg" xmlns:xlink="http://www.w3.org/1999/xlink">
<g id="graph0" class="graph" transform="scale(1 1) rotate(0) translate(4 241.345)">
<title>/Users/calebbuahin/Documents/Projects/HydroCouple/HydroCoupleSDK/src/description.cpp</title>
<polygon fill="white" stroke="none" points="-4,4 -4,-241.345 371.012,-241.345 371.012,4 -4,4"/>
<!-- Node1 -->
<g id="node1" class="node"><title>Node1</title>
<polygon fill="#bfbfbf" stroke="black" points="2.99072,-175.505 2.99072,-236.845 181.017,-236.845 181.017,-175.505 2.99072,-175.505"/>
<text text-anchor="start" x="10.9907" y="-224.845" font-family="Monaco" font-size="10.00">/Users/calebbuahin</text>
<text text-anchor="start" x="10.9907" y="-211.51" font-family="Monaco" font-size="10.00">/Documents/Projects</text>
<text text-anchor="start" x="10.9907" y="-198.175" font-family="Monaco" font-size="10.00">/HydroCouple/HydroCoupleSDK</text>
<text text-anchor="middle" x="92.0039" y="-184.84" font-family="Monaco" font-size="10.00">/src/description.cpp</text>
</g>
<!-- Node2 -->
<g id="node2" class="node"><title>Node2</title>
<polygon fill="white" stroke="#bfbfbf" points="0,-117.17 0,-138.505 64.0078,-138.505 64.0078,-117.17 0,-117.17"/>
<text text-anchor="middle" x="32.0039" y="-126.505" font-family="Monaco" font-size="10.00">stdafx.h</text>
</g>
<!-- Node1&#45;&gt;Node2 -->
<g id="edge1" class="edge"><title>Node1&#45;&gt;Node2</title>
<path fill="none" stroke="midnightblue" d="M68.6345,-175.442C61.0151,-165.748 52.795,-155.29 46.0762,-146.741"/>
<polygon fill="midnightblue" stroke="midnightblue" points="48.6372,-144.336 39.7059,-138.637 43.1337,-148.662 48.6372,-144.336"/>
</g>
<!-- Node3 -->
<g id="node3" class="node"><title>Node3</title>
<g id="a_node3"><a xlink:href="description_8h.html" target="_top" xlink:title="include/description.h">
<polygon fill="white" stroke="black" points="81.9937,-117.17 81.9937,-138.505 224.014,-138.505 224.014,-117.17 81.9937,-117.17"/>
<text text-anchor="middle" x="153.004" y="-126.505" font-family="Monaco" font-size="10.00">include/description.h</text>
</a>
</g>
</g>
<!-- Node1&#45;&gt;Node3 -->
<g id="edge2" class="edge"><title>Node1&#45;&gt;Node3</title>
<path fill="none" stroke="midnightblue" d="M115.763,-175.442C123.591,-165.646 132.042,-155.07 138.912,-146.472"/>
<polygon fill="midnightblue" stroke="midnightblue" points="141.665,-148.634 145.174,-138.637 136.197,-144.264 141.665,-148.634"/>
</g>
<!-- Node4 -->
<g id="node4" class="node"><title>Node4</title>
<polygon fill="white" stroke="#bfbfbf" points="29.0005,-58.835 29.0005,-80.1699 87.0073,-80.1699 87.0073,-58.835 29.0005,-58.835"/>
<text text-anchor="middle" x="58.0039" y="-68.1699" font-family="Monaco" font-size="10.00">QObject</text>
</g>
<!-- Node3&#45;&gt;Node4 -->
<g id="edge3" class="edge"><title>Node3&#45;&gt;Node4</title>
<path fill="none" stroke="midnightblue" d="M136.456,-117.025C121.744,-108.3 100.015,-95.4151 83.1534,-85.4161"/>
<polygon fill="midnightblue" stroke="midnightblue" points="84.7486,-82.293 74.362,-80.2028 81.1782,-88.3139 84.7486,-82.293"/>
</g>
<!-- Node5 -->
<g id="node5" class="node"><title>Node5</title>
<polygon fill="white" stroke="#bfbfbf" points="105,-0.5 105,-21.835 169.008,-21.835 169.008,-0.5 105,-0.5"/>
<text text-anchor="middle" x="137.004" y="-9.83496" font-family="Monaco" font-size="10.00">QVariant</text>
</g>
<!-- Node3&#45;&gt;Node5 -->
<g id="edge4" class="edge"><title>Node3&#45;&gt;Node5</title>
<path fill="none" stroke="midnightblue" d="M147.592,-116.927C142.943,-107.811 136.593,-93.7642 134.004,-80.6699 130.829,-64.6126 131.93,-46.0423 133.63,-32.2908"/>
<polygon fill="midnightblue" stroke="midnightblue" points="137.146,-32.4329 135.117,-22.034 130.218,-31.428 137.146,-32.4329"/>
</g>
<!-- Node6 -->
<g id="node6" class="node"><title>Node6</title>
<g id="a_node6"><a xlink:href="hydrocouplesdk_8h.html" target="_top" xlink:title="hydrocouplesdk.h">
<polygon fill="white" stroke="black" points="254.996,-58.835 254.996,-80.1699 367.012,-80.1699 367.012,-58.835 254.996,-58.835"/>
<text text-anchor="middle" x="311.004" y="-68.1699" font-family="Monaco" font-size="10.00">hydrocouplesdk.h</text>
</a>
</g>
</g>
<!-- Node3&#45;&gt;Node6 -->
<g id="edge5" class="edge"><title>Node3&#45;&gt;Node6</title>
<path fill="none" stroke="midnightblue" d="M180.165,-117.153C206.053,-107.923 245.237,-93.9516 273.977,-83.7043"/>
<polygon fill="midnightblue" stroke="midnightblue" points="275.425,-86.9041 283.668,-80.2489 273.074,-80.3107 275.425,-86.9041"/>
</g>
<!-- Node8 -->
<g id="node8" class="node"><title>Node8</title>
<g id="a_node8"><a xlink:href="hydrocouple_8h.html" target="_top" xlink:title="hydrocouple.h">
<polygon fill="white" stroke="black" points="142.998,-58.835 142.998,-80.1699 237.01,-80.1699 237.01,-58.835 142.998,-58.835"/>
<text text-anchor="middle" x="190.004" y="-68.1699" font-family="Monaco" font-size="10.00">hydrocouple.h</text>
</a>
</g>
</g>
<!-- Node3&#45;&gt;Node8 -->
<g id="edge7" class="edge"><title>Node3&#45;&gt;Node8</title>
<path fill="none" stroke="midnightblue" d="M159.449,-117.025C164.542,-109.27 171.795,-98.2271 177.956,-88.8463"/>
<polygon fill="midnightblue" stroke="midnightblue" points="181.069,-90.4826 183.633,-80.2028 175.218,-86.6398 181.069,-90.4826"/>
</g>
<!-- Node7 -->
<g id="node7" class="node"><title>Node7</title>
<polygon fill="white" stroke="#bfbfbf" points="231.996,-0.5 231.996,-21.835 344.012,-21.835 344.012,-0.5 231.996,-0.5"/>
<text text-anchor="middle" x="288.004" y="-9.83496" font-family="Monaco" font-size="10.00">QtCore/qglobal.h</text>
</g>
<!-- Node6&#45;&gt;Node7 -->
<g id="edge6" class="edge"><title>Node6&#45;&gt;Node7</title>
<path fill="none" stroke="midnightblue" d="M306.998,-58.6896C303.93,-51.1771 299.604,-40.5791 295.854,-31.3955"/>
<polygon fill="midnightblue" stroke="midnightblue" points="298.985,-29.803 291.964,-21.8678 292.504,-32.4489 298.985,-29.803"/>
</g>
<!-- Node8&#45;&gt;Node5 -->
<g id="edge9" class="edge"><title>Node8&#45;&gt;Node5</title>
<path fill="none" stroke="midnightblue" d="M180.772,-58.6896C173.172,-50.6116 162.216,-38.9662 153.167,-29.3478"/>
<polygon fill="midnightblue" stroke="midnightblue" points="155.531,-26.7529 146.13,-21.8678 150.433,-31.5495 155.531,-26.7529"/>
</g>
<!-- Node8&#45;&gt;Node7 -->
<g id="edge8" class="edge"><title>Node8&#45;&gt;Node7</title>
<path fill="none" stroke="midnightblue" d="M207.074,-58.6896C222.251,-49.9653 244.666,-37.0801 262.06,-27.0811"/>
<polygon fill="midnightblue" stroke="midnightblue" points="264.204,-29.886 271.129,-21.8678 260.715,-23.8172 264.204,-29.886"/>
</g>
</g>
</svg>
