<?xml version="1.0" encoding="UTF-8" standalone="no"?>
<!DOCTYPE svg PUBLIC "-//W3C//DTD SVG 1.1//EN"
 "http://www.w3.org/Graphics/SVG/1.1/DTD/svg11.dtd">
<!-- Generated by graphviz version 2.38.0 (20140413.2041)
 -->
<!-- Title: /Users/calebbuahin/Documents/Projects/HydroCouple/HydroCouple/include/hydrocouplespatiotemporal.h Pages: 1 -->
<svg width="304pt" height="245pt"
 viewBox="0.00 0.00 304.02 245.34" xmlns="http://www.w3.org/2000/svg" xmlns:xlink="http://www.w3.org/1999/xlink">
<g id="graph0" class="graph" transform="scale(1 1) rotate(0) translate(4 241.345)">
<title>/Users/calebbuahin/Documents/Projects/HydroCouple/HydroCouple/include/hydrocouplespatiotemporal.h</title>
<!-- Node1 -->
<g id="node1" class="node"><title>Node1</title>
<polygon fill="#bfbfbf" stroke="black" points="32.9927,-175.505 32.9927,-236.845 265.028,-236.845 265.028,-175.505 32.9927,-175.505"/>
<text text-anchor="start" x="40.9927" y="-224.845" font-family="Monaco" font-size="10.00">/Users/calebbuahin</text>
<text text-anchor="start" x="40.9927" y="-211.51" font-family="Monaco" font-size="10.00">/Documents/Projects</text>
<text text-anchor="start" x="40.9927" y="-198.175" font-family="Monaco" font-size="10.00">/HydroCouple/HydroCouple</text>
<text text-anchor="middle" x="149.01" y="-184.84" font-family="Monaco" font-size="10.00">/include/hydrocouplespatiotemporal.h</text>
</g>
<!-- Node2 -->
<g id="node2" class="node"><title>Node2</title>
<g id="a_node2"><a xlink:href="hydrocoupletemporal_8h.html" target="_top" xlink:title="hydrocoupletemporal.h">
<polygon fill="none" stroke="black" points="0,-117.17 0,-138.505 142.021,-138.505 142.021,-117.17 0,-117.17"/>
<text text-anchor="middle" x="71.0103" y="-126.505" font-family="Monaco" font-size="10.00">hydrocoupletemporal.h</text>
</a>
</g>
</g>
<!-- Node1&#45;&gt;Node2 -->
<g id="edge1" class="edge"><title>Node1&#45;&gt;Node2</title>
<path fill="none" stroke="midnightblue" d="M118.63,-175.442C108.308,-165.34 97.1375,-154.408 88.2115,-145.672"/>
<polygon fill="midnightblue" stroke="midnightblue" points="90.6178,-143.13 81.0228,-138.637 85.7216,-148.132 90.6178,-143.13"/>
</g>
<!-- Node6 -->
<g id="node6" class="node"><title>Node6</title>
<g id="a_node6"><a xlink:href="hydrocouplespatial_8h.html" target="_top" xlink:title="hydrocouplespatial.h">
<polygon fill="none" stroke="black" points="160,-117.17 160,-138.505 296.02,-138.505 296.02,-117.17 160,-117.17"/>
<text text-anchor="middle" x="228.01" y="-126.505" font-family="Monaco" font-size="10.00">hydrocouplespatial.h</text>
</a>
</g>
</g>
<!-- Node1&#45;&gt;Node6 -->
<g id="edge5" class="edge"><title>Node1&#45;&gt;Node6</title>
<path fill="none" stroke="midnightblue" d="M179.78,-175.442C190.235,-165.34 201.548,-154.408 210.589,-145.672"/>
<polygon fill="midnightblue" stroke="midnightblue" points="213.11,-148.102 217.869,-138.637 208.246,-143.069 213.11,-148.102"/>
</g>
<!-- Node3 -->
<g id="node3" class="node"><title>Node3</title>
<g id="a_node3"><a xlink:href="hydrocouple_8h.html" target="_top" xlink:title="hydrocouple.h">
<polygon fill="none" stroke="black" points="102.004,-58.835 102.004,-80.1699 196.017,-80.1699 196.017,-58.835 102.004,-58.835"/>
<text text-anchor="middle" x="149.01" y="-68.1699" font-family="Monaco" font-size="10.00">hydrocouple.h</text>
</a>
</g>
</g>
<!-- Node2&#45;&gt;Node3 -->
<g id="edge2" class="edge"><title>Node2&#45;&gt;Node3</title>
<path fill="none" stroke="midnightblue" d="M84.5968,-117.025C96.3407,-108.543 113.53,-96.1277 127.198,-86.2559"/>
<polygon fill="midnightblue" stroke="midnightblue" points="129.522,-88.8952 135.579,-80.2028 125.423,-83.2205 129.522,-88.8952"/>
</g>
<!-- Node4 -->
<g id="node4" class="node"><title>Node4</title>
<polygon fill="none" stroke="#bfbfbf" points="40.0024,-0.5 40.0024,-21.835 152.018,-21.835 152.018,-0.5 40.0024,-0.5"/>
<text text-anchor="middle" x="96.0103" y="-9.83496" font-family="Monaco" font-size="10.00">QtCore/qglobal.h</text>
</g>
<!-- Node3&#45;&gt;Node4 -->
<g id="edge3" class="edge"><title>Node3&#45;&gt;Node4</title>
<path fill="none" stroke="midnightblue" d="M139.778,-58.6896C132.179,-50.6116 121.223,-38.9662 112.173,-29.3478"/>
<polygon fill="midnightblue" stroke="midnightblue" points="114.538,-26.7529 105.136,-21.8678 109.439,-31.5495 114.538,-26.7529"/>
</g>
<!-- Node5 -->
<g id="node5" class="node"><title>Node5</title>
<polygon fill="none" stroke="#bfbfbf" points="170.006,-0.5 170.006,-21.835 234.014,-21.835 234.014,-0.5 170.006,-0.5"/>
<text text-anchor="middle" x="202.01" y="-9.83496" font-family="Monaco" font-size="10.00">QVariant</text>
</g>
<!-- Node3&#45;&gt;Node5 -->
<g id="edge4" class="edge"><title>Node3&#45;&gt;Node5</title>
<path fill="none" stroke="midnightblue" d="M158.242,-58.6896C165.842,-50.6116 176.798,-38.9662 185.847,-29.3478"/>
<polygon fill="midnightblue" stroke="midnightblue" points="188.581,-31.5495 192.884,-21.8678 183.483,-26.7529 188.581,-31.5495"/>
</g>
<!-- Node6&#45;&gt;Node3 -->
<g id="edge6" class="edge"><title>Node6&#45;&gt;Node3</title>
<path fill="none" stroke="midnightblue" d="M214.25,-117.025C202.355,-108.543 184.945,-96.1277 171.102,-86.2559"/>
<polygon fill="midnightblue" stroke="midnightblue" points="172.787,-83.1592 162.613,-80.2028 168.723,-88.8585 172.787,-83.1592"/>
</g>
</g>
</svg>
