<?xml version="1.0" encoding="UTF-8" standalone="no"?>
<!DOCTYPE svg PUBLIC "-//W3C//DTD SVG 1.1//EN"
 "http://www.w3.org/Graphics/SVG/1.1/DTD/svg11.dtd">
<!-- Generated by graphviz version 2.38.0 (20140413.2041)
 -->
<!-- Title: /Users/calebbuahin/Documents/Projects/HydroCouple/HydroCouple/include/hydrocouplespatial.h Pages: 1 -->
<svg width="190pt" height="142pt"
 viewBox="0.00 0.00 189.66 142.00" xmlns="http://www.w3.org/2000/svg" xmlns:xlink="http://www.w3.org/1999/xlink">
<g id="graph0" class="graph" transform="scale(1 1) rotate(0) translate(4 138)">
<title>/Users/calebbuahin/Documents/Projects/HydroCouple/HydroCouple/include/hydrocouplespatial.h</title>
<polygon fill="white" stroke="none" points="-4,4 -4,-138 185.659,-138 185.659,4 -4,4"/>
<!-- Node1 -->
<g id="node1" class="node"><title>Node1</title>
<polygon fill="#bfbfbf" stroke="black" points="18.3423,-85.5 18.3423,-133.5 163.317,-133.5 163.317,-85.5 18.3423,-85.5"/>
<text text-anchor="start" x="26.3423" y="-121.5" font-family="Helvetica,sans-Serif" font-size="10.00">/Users/calebbuahin</text>
<text text-anchor="start" x="26.3423" y="-111.5" font-family="Helvetica,sans-Serif" font-size="10.00">/Documents/Projects</text>
<text text-anchor="start" x="26.3423" y="-101.5" font-family="Helvetica,sans-Serif" font-size="10.00">/HydroCouple/HydroCouple</text>
<text text-anchor="middle" x="90.8296" y="-91.5" font-family="Helvetica,sans-Serif" font-size="10.00">/include/hydrocouplespatial.h</text>
</g>
<!-- Node2 -->
<g id="node2" class="node"><title>Node2</title>
<g id="a_node2"><a xlink:href="hydrocouplespatiotemporal_8h.html" target="_top" xlink:title="/Users/calebbuahin\l/Documents/Projects\l/HydroCouple/HydroCouple\l/include/hydrocouplespatiotemporal.h">
<polygon fill="white" stroke="black" points="0,-0.5 0,-48.5 181.659,-48.5 181.659,-0.5 0,-0.5"/>
<text text-anchor="start" x="8" y="-36.5" font-family="Helvetica,sans-Serif" font-size="10.00">/Users/calebbuahin</text>
<text text-anchor="start" x="8" y="-26.5" font-family="Helvetica,sans-Serif" font-size="10.00">/Documents/Projects</text>
<text text-anchor="start" x="8" y="-16.5" font-family="Helvetica,sans-Serif" font-size="10.00">/HydroCouple/HydroCouple</text>
<text text-anchor="middle" x="90.8296" y="-6.5" font-family="Helvetica,sans-Serif" font-size="10.00">/include/hydrocouplespatiotemporal.h</text>
</a>
</g>
</g>
<!-- Node1&#45;&gt;Node2 -->
<g id="edge1" class="edge"><title>Node1&#45;&gt;Node2</title>
<path fill="none" stroke="midnightblue" d="M90.8296,-75.2987C90.8296,-66.4164 90.8296,-57.0052 90.8296,-48.784"/>
<polygon fill="midnightblue" stroke="midnightblue" points="87.3297,-75.3798 90.8296,-85.3799 94.3297,-75.3799 87.3297,-75.3798"/>
</g>
</g>
</svg>
