<?xml version="1.0" encoding="UTF-8" standalone="no"?>
<!DOCTYPE svg PUBLIC "-//W3C//DTD SVG 1.1//EN"
 "http://www.w3.org/Graphics/SVG/1.1/DTD/svg11.dtd">
<!-- Generated by graphviz version 2.38.0 (20140413.2041)
 -->
<!-- Title: /Users/calebbuahin/Documents/Projects/HydroCouple/HydroCoupleSDK/src/identity.cpp Pages: 1 -->
<svg width="360pt" height="304pt"
 viewBox="0.00 0.00 360.02 303.68" xmlns="http://www.w3.org/2000/svg" xmlns:xlink="http://www.w3.org/1999/xlink">
<g id="graph0" class="graph" transform="scale(1 1) rotate(0) translate(4 299.68)">
<title>/Users/calebbuahin/Documents/Projects/HydroCouple/HydroCoupleSDK/src/identity.cpp</title>
<polygon fill="white" stroke="none" points="-4,4 -4,-299.68 356.017,-299.68 356.017,4 -4,4"/>
<!-- Node1 -->
<g id="node1" class="node"><title>Node1</title>
<polygon fill="#bfbfbf" stroke="black" points="0,-233.84 0,-295.18 178.026,-295.18 178.026,-233.84 0,-233.84"/>
<text text-anchor="start" x="8" y="-283.18" font-family="Monaco" font-size="10.00">/Users/calebbuahin</text>
<text text-anchor="start" x="8" y="-269.845" font-family="Monaco" font-size="10.00">/Documents/Projects</text>
<text text-anchor="start" x="8" y="-256.51" font-family="Monaco" font-size="10.00">/HydroCouple/HydroCoupleSDK</text>
<text text-anchor="middle" x="89.0132" y="-243.175" font-family="Monaco" font-size="10.00">/src/identity.cpp</text>
</g>
<!-- Node2 -->
<g id="node2" class="node"><title>Node2</title>
<polygon fill="white" stroke="#bfbfbf" points="1.00928,-175.505 1.00928,-196.84 65.0171,-196.84 65.0171,-175.505 1.00928,-175.505"/>
<text text-anchor="middle" x="33.0132" y="-184.84" font-family="Monaco" font-size="10.00">stdafx.h</text>
</g>
<!-- Node1&#45;&gt;Node2 -->
<g id="edge1" class="edge"><title>Node1&#45;&gt;Node2</title>
<path fill="none" stroke="midnightblue" d="M67.2018,-233.777C60.0903,-224.083 52.4183,-213.625 46.1473,-205.076"/>
<polygon fill="midnightblue" stroke="midnightblue" points="48.9388,-202.964 40.2017,-196.972 43.2946,-207.105 48.9388,-202.964"/>
</g>
<!-- Node3 -->
<g id="node3" class="node"><title>Node3</title>
<g id="a_node3"><a xlink:href="identity_8h.html" target="_top" xlink:title="include/identity.h">
<polygon fill="white" stroke="black" points="83.0044,-175.505 83.0044,-196.84 207.022,-196.84 207.022,-175.505 83.0044,-175.505"/>
<text text-anchor="middle" x="145.013" y="-184.84" font-family="Monaco" font-size="10.00">include/identity.h</text>
</a>
</g>
</g>
<!-- Node1&#45;&gt;Node3 -->
<g id="edge2" class="edge"><title>Node1&#45;&gt;Node3</title>
<path fill="none" stroke="midnightblue" d="M110.825,-233.777C117.936,-224.083 125.608,-213.625 131.879,-205.076"/>
<polygon fill="midnightblue" stroke="midnightblue" points="134.732,-207.105 137.825,-196.972 129.088,-202.964 134.732,-207.105"/>
</g>
<!-- Node4 -->
<g id="node4" class="node"><title>Node4</title>
<g id="a_node4"><a xlink:href="hydrocouplesdk_8h.html" target="_top" xlink:title="hydrocouplesdk.h">
<polygon fill="white" stroke="black" points="30.0054,-58.835 30.0054,-80.1699 142.021,-80.1699 142.021,-58.835 30.0054,-58.835"/>
<text text-anchor="middle" x="86.0132" y="-68.1699" font-family="Monaco" font-size="10.00">hydrocouplesdk.h</text>
</a>
</g>
</g>
<!-- Node3&#45;&gt;Node4 -->
<g id="edge3" class="edge"><title>Node3&#45;&gt;Node4</title>
<path fill="none" stroke="midnightblue" d="M139.983,-175.396C130.186,-156.355 108.397,-114.007 95.7041,-89.3374"/>
<polygon fill="midnightblue" stroke="midnightblue" points="98.7182,-87.5451 91.0308,-80.2544 92.4937,-90.7477 98.7182,-87.5451"/>
</g>
<!-- Node6 -->
<g id="node6" class="node"><title>Node6</title>
<g id="a_node6"><a xlink:href="description_8h.html" target="_top" xlink:title="description.h">
<polygon fill="white" stroke="black" points="142.007,-117.17 142.007,-138.505 236.02,-138.505 236.02,-117.17 142.007,-117.17"/>
<text text-anchor="middle" x="189.013" y="-126.505" font-family="Monaco" font-size="10.00">description.h</text>
</a>
</g>
</g>
<!-- Node3&#45;&gt;Node6 -->
<g id="edge5" class="edge"><title>Node3&#45;&gt;Node6</title>
<path fill="none" stroke="midnightblue" d="M152.677,-175.36C158.861,-167.443 167.72,-156.101 175.142,-146.597"/>
<polygon fill="midnightblue" stroke="midnightblue" points="178.04,-148.573 181.437,-138.538 172.523,-144.264 178.04,-148.573"/>
</g>
<!-- Node5 -->
<g id="node5" class="node"><title>Node5</title>
<polygon fill="white" stroke="#bfbfbf" points="113.005,-0.5 113.005,-21.835 225.021,-21.835 225.021,-0.5 113.005,-0.5"/>
<text text-anchor="middle" x="169.013" y="-9.83496" font-family="Monaco" font-size="10.00">QtCore/qglobal.h</text>
</g>
<!-- Node4&#45;&gt;Node5 -->
<g id="edge4" class="edge"><title>Node4&#45;&gt;Node5</title>
<path fill="none" stroke="midnightblue" d="M100.471,-58.6896C113.086,-50.1269 131.608,-37.5559 146.218,-27.6396"/>
<polygon fill="midnightblue" stroke="midnightblue" points="148.413,-30.3798 154.721,-21.8678 144.482,-24.5879 148.413,-30.3798"/>
</g>
<!-- Node6&#45;&gt;Node4 -->
<g id="edge8" class="edge"><title>Node6&#45;&gt;Node4</title>
<path fill="none" stroke="midnightblue" d="M171.072,-117.025C154.973,-108.22 131.125,-95.1761 112.774,-85.1391"/>
<polygon fill="midnightblue" stroke="midnightblue" points="114.202,-81.9307 103.749,-80.2028 110.843,-88.0721 114.202,-81.9307"/>
</g>
<!-- Node7 -->
<g id="node7" class="node"><title>Node7</title>
<polygon fill="white" stroke="#bfbfbf" points="160.01,-58.835 160.01,-80.1699 218.017,-80.1699 218.017,-58.835 160.01,-58.835"/>
<text text-anchor="middle" x="189.013" y="-68.1699" font-family="Monaco" font-size="10.00">QObject</text>
</g>
<!-- Node6&#45;&gt;Node7 -->
<g id="edge6" class="edge"><title>Node6&#45;&gt;Node7</title>
<path fill="none" stroke="midnightblue" d="M189.013,-117.025C189.013,-109.674 189.013,-99.3684 189.013,-90.3249"/>
<polygon fill="midnightblue" stroke="midnightblue" points="192.513,-90.2028 189.013,-80.2028 185.513,-90.2028 192.513,-90.2028"/>
</g>
<!-- Node8 -->
<g id="node8" class="node"><title>Node8</title>
<polygon fill="white" stroke="#bfbfbf" points="288.009,-0.5 288.009,-21.835 352.017,-21.835 352.017,-0.5 288.009,-0.5"/>
<text text-anchor="middle" x="320.013" y="-9.83496" font-family="Monaco" font-size="10.00">QVariant</text>
</g>
<!-- Node6&#45;&gt;Node8 -->
<g id="edge7" class="edge"><title>Node6&#45;&gt;Node8</title>
<path fill="none" stroke="midnightblue" d="M236.28,-126.217C270.847,-122.968 315.623,-112.342 339.013,-80.6699 349.839,-66.0108 341.856,-45.4727 333.159,-30.7141"/>
<polygon fill="midnightblue" stroke="midnightblue" points="335.887,-28.4851 327.532,-21.9701 330.001,-32.2734 335.887,-28.4851"/>
</g>
<!-- Node9 -->
<g id="node9" class="node"><title>Node9</title>
<g id="a_node9"><a xlink:href="hydrocouple_8h.html" target="_top" xlink:title="hydrocouple.h">
<polygon fill="white" stroke="black" points="236.007,-58.835 236.007,-80.1699 330.02,-80.1699 330.02,-58.835 236.007,-58.835"/>
<text text-anchor="middle" x="283.013" y="-68.1699" font-family="Monaco" font-size="10.00">hydrocouple.h</text>
</a>
</g>
</g>
<!-- Node6&#45;&gt;Node9 -->
<g id="edge9" class="edge"><title>Node6&#45;&gt;Node9</title>
<path fill="none" stroke="midnightblue" d="M205.387,-117.025C219.944,-108.3 241.444,-95.4151 258.128,-85.4161"/>
<polygon fill="midnightblue" stroke="midnightblue" points="260.049,-88.3456 266.827,-80.2028 256.45,-82.3413 260.049,-88.3456"/>
</g>
<!-- Node9&#45;&gt;Node5 -->
<g id="edge10" class="edge"><title>Node9&#45;&gt;Node5</title>
<path fill="none" stroke="midnightblue" d="M263.416,-58.8181C245.39,-49.9103 218.429,-36.587 197.929,-26.4566"/>
<polygon fill="midnightblue" stroke="midnightblue" points="199.252,-23.2065 188.736,-21.914 196.151,-29.482 199.252,-23.2065"/>
</g>
<!-- Node9&#45;&gt;Node8 -->
<g id="edge11" class="edge"><title>Node9&#45;&gt;Node8</title>
<path fill="none" stroke="midnightblue" d="M289.458,-58.6896C294.551,-50.9347 301.804,-39.8921 307.965,-30.5114"/>
<polygon fill="midnightblue" stroke="midnightblue" points="311.078,-32.1477 313.642,-21.8678 305.227,-28.3049 311.078,-32.1477"/>
</g>
</g>
</svg>
