<?xml version="1.0" encoding="UTF-8" standalone="no"?>
<!DOCTYPE svg PUBLIC "-//W3C//DTD SVG 1.1//EN"
 "http://www.w3.org/Graphics/SVG/1.1/DTD/svg11.dtd">
<!-- Generated by graphviz version 2.38.0 (20140413.2041)
 -->
<!-- Title: Graphical Class Hierarchy Pages: 1 -->
<svg width="286pt" height="37pt"
 viewBox="0.00 0.00 286.10 37.00" xmlns="http://www.w3.org/2000/svg" xmlns:xlink="http://www.w3.org/1999/xlink">
<g id="graph0" class="graph" transform="scale(1 1) rotate(0) translate(4 33)">
<title>Graphical Class Hierarchy</title>
<polygon fill="white" stroke="none" points="-4,4 -4,-33 282.098,-33 282.098,4 -4,4"/>
<!-- Node1 -->
<g id="node1" class="node"><title>Node1</title>
<g id="a_node1"><a xlink:href="class_hydro_couple_1_1_temporal_1_1_i_time.html" target="_top" xlink:title="ITime interface based on a Modified Julian Date (number and fraction of days since 00:00 November 17...">
<polygon fill="white" stroke="black" points="0,-0.5 0,-28.5 121.049,-28.5 121.049,-0.5 0,-0.5"/>
<text text-anchor="start" x="8" y="-16.5" font-family="Helvetica,sans-Serif" font-size="10.00">HydroCouple::Temporal</text>
<text text-anchor="middle" x="60.5244" y="-6.5" font-family="Helvetica,sans-Serif" font-size="10.00">::ITime</text>
</a>
</g>
</g>
<!-- Node2 -->
<g id="node2" class="node"><title>Node2</title>
<g id="a_node2"><a xlink:href="class_hydro_couple_1_1_temporal_1_1_i_time_span.html" target="_top" xlink:title="ITimeSpan specifies a time duration. ">
<polygon fill="white" stroke="black" points="157.049,-0.5 157.049,-28.5 278.098,-28.5 278.098,-0.5 157.049,-0.5"/>
<text text-anchor="start" x="165.049" y="-16.5" font-family="Helvetica,sans-Serif" font-size="10.00">HydroCouple::Temporal</text>
<text text-anchor="middle" x="217.573" y="-6.5" font-family="Helvetica,sans-Serif" font-size="10.00">::ITimeSpan</text>
</a>
</g>
</g>
<!-- Node1&#45;&gt;Node2 -->
<g id="edge1" class="edge"><title>Node1&#45;&gt;Node2</title>
<path fill="none" stroke="midnightblue" d="M131.708,-14.5C140.171,-14.5 148.752,-14.5 157.042,-14.5"/>
<polygon fill="midnightblue" stroke="midnightblue" points="131.47,-11.0001 121.47,-14.5 131.47,-18.0001 131.47,-11.0001"/>
</g>
</g>
</svg>
