<?xml version="1.0" encoding="UTF-8" standalone="no"?>
<!DOCTYPE svg PUBLIC "-//W3C//DTD SVG 1.1//EN"
 "http://www.w3.org/Graphics/SVG/1.1/DTD/svg11.dtd">
<!-- Generated by graphviz version 2.38.0 (20140413.2041)
 -->
<!-- Title: Graphical Class Hierarchy Pages: 1 -->
<svg width="1328pt" height="343pt"
 viewBox="0.00 0.00 1327.68 343.00" xmlns="http://www.w3.org/2000/svg" xmlns:xlink="http://www.w3.org/1999/xlink">
<g id="graph0" class="graph" transform="scale(1 1) rotate(0) translate(4 339)">
<title>Graphical Class Hierarchy</title>
<polygon fill="white" stroke="none" points="-4,4 -4,-339 1323.68,-339 1323.68,4 -4,4"/>
<!-- Node1 -->
<g id="node1" class="node"><title>Node1</title>
<g id="a_node1"><a xlink:href="class_hydro_couple_1_1_i_component_status_change_event_args.html" target="_top" xlink:title="The IComponentStatusChangeEventArgs contains the information that will be passed when the IModelCompo...">
<polygon fill="white" stroke="black" points="197.083,-306.5 197.083,-334.5 359.831,-334.5 359.831,-306.5 197.083,-306.5"/>
<text text-anchor="start" x="205.083" y="-322.5" font-family="Helvetica,sans-Serif" font-size="10.00">HydroCouple::IComponentStatus</text>
<text text-anchor="middle" x="278.457" y="-312.5" font-family="Helvetica,sans-Serif" font-size="10.00">ChangeEventArgs</text>
</a>
</g>
</g>
<!-- Node2 -->
<g id="node2" class="node"><title>Node2</title>
<g id="a_node2"><a xlink:href="class_component_status_change_event_args.html" target="_top" xlink:title=" ">
<polygon fill="white" stroke="black" points="395.831,-308.5 395.831,-326.5 573.042,-326.5 573.042,-308.5 395.831,-308.5"/>
<text text-anchor="middle" x="484.437" y="-314.5" font-family="Helvetica,sans-Serif" font-size="10.00">ComponentStatusChangeEventArgs</text>
</a>
</g>
</g>
<!-- Node1&#45;&gt;Node2 -->
<g id="edge1" class="edge"><title>Node1&#45;&gt;Node2</title>
<path fill="none" stroke="midnightblue" d="M370.297,-319.164C378.733,-319.04 387.271,-318.914 395.678,-318.791"/>
<polygon fill="midnightblue" stroke="midnightblue" points="370.023,-315.668 360.075,-319.314 370.126,-322.667 370.023,-315.668"/>
</g>
<!-- Node3 -->
<g id="node3" class="node"><title>Node3</title>
<g id="a_node3"><a xlink:href="class_hydro_couple_1_1_i_property_changed.html" target="_top" xlink:title="IPropertyChanged interface is used to emit signal/event when a property of an object changes...">
<polygon fill="white" stroke="black" points="0,-129.5 0,-147.5 161.083,-147.5 161.083,-129.5 0,-129.5"/>
<text text-anchor="middle" x="80.5415" y="-135.5" font-family="Helvetica,sans-Serif" font-size="10.00">HydroCouple::IPropertyChanged</text>
</a>
</g>
</g>
<!-- Node4 -->
<g id="node4" class="node"><title>Node4</title>
<g id="a_node4"><a xlink:href="class_hydro_couple_1_1_i_description.html" target="_top" xlink:title="IDescription interface class provides descriptive information on a HydroCouple object. ">
<polygon fill="white" stroke="black" points="212.098,-129.5 212.098,-147.5 344.816,-147.5 344.816,-129.5 212.098,-129.5"/>
<text text-anchor="middle" x="278.457" y="-135.5" font-family="Helvetica,sans-Serif" font-size="10.00">HydroCouple::IDescription</text>
</a>
</g>
</g>
<!-- Node3&#45;&gt;Node4 -->
<g id="edge2" class="edge"><title>Node3&#45;&gt;Node4</title>
<path fill="none" stroke="midnightblue" d="M171.567,-138.5C185.163,-138.5 198.964,-138.5 211.914,-138.5"/>
<polygon fill="midnightblue" stroke="midnightblue" points="171.228,-135 161.228,-138.5 171.228,-142 171.228,-135"/>
</g>
<!-- Node5 -->
<g id="node5" class="node"><title>Node5</title>
<g id="a_node5"><a xlink:href="class_description.html" target="_top" xlink:title="Description">
<polygon fill="white" stroke="black" points="451.427,-269.5 451.427,-287.5 517.446,-287.5 517.446,-269.5 451.427,-269.5"/>
<text text-anchor="middle" x="484.437" y="-275.5" font-family="Helvetica,sans-Serif" font-size="10.00">Description</text>
</a>
</g>
</g>
<!-- Node4&#45;&gt;Node5 -->
<g id="edge3" class="edge"><title>Node4&#45;&gt;Node5</title>
<path fill="none" stroke="midnightblue" d="M293.004,-155.818C312.996,-180.268 352.72,-224.787 395.831,-250.5 412.835,-260.642 433.921,-267.528 451.144,-271.933"/>
<polygon fill="midnightblue" stroke="midnightblue" points="295.549,-153.398 286.561,-147.79 290.09,-157.779 295.549,-153.398"/>
</g>
<!-- Node10 -->
<g id="node10" class="node"><title>Node10</title>
<g id="a_node10"><a xlink:href="class_hydro_couple_1_1_i_category.html" target="_top" xlink:title="The ICategory describes one item of a possible categorization. It is used by the IQuality interface f...">
<polygon fill="white" stroke="black" points="422.799,-185.5 422.799,-203.5 546.074,-203.5 546.074,-185.5 422.799,-185.5"/>
<text text-anchor="middle" x="484.437" y="-191.5" font-family="Helvetica,sans-Serif" font-size="10.00">HydroCouple::ICategory</text>
</a>
</g>
</g>
<!-- Node4&#45;&gt;Node10 -->
<g id="edge8" class="edge"><title>Node4&#45;&gt;Node10</title>
<path fill="none" stroke="midnightblue" d="M314.278,-151.012C337.242,-158.979 368.093,-169.147 395.831,-176.5 408.288,-179.802 421.877,-182.855 434.553,-185.474"/>
<polygon fill="midnightblue" stroke="midnightblue" points="315.232,-147.638 304.637,-147.636 312.918,-154.244 315.232,-147.638"/>
</g>
<!-- Node11 -->
<g id="node11" class="node"><title>Node11</title>
<g id="a_node11"><a xlink:href="class_hydro_couple_1_1_i_dimension.html" target="_top" xlink:title="IDimension provides the properties of the dimensions of a vairable. ">
<polygon fill="white" stroke="black" points="419.466,-148.5 419.466,-166.5 549.407,-166.5 549.407,-148.5 419.466,-148.5"/>
<text text-anchor="middle" x="484.437" y="-154.5" font-family="Helvetica,sans-Serif" font-size="10.00">HydroCouple::IDimension</text>
</a>
</g>
</g>
<!-- Node4&#45;&gt;Node11 -->
<g id="edge9" class="edge"><title>Node4&#45;&gt;Node11</title>
<path fill="none" stroke="midnightblue" d="M355.032,-145.54C376.095,-147.502 398.772,-149.614 419.121,-151.509"/>
<polygon fill="midnightblue" stroke="midnightblue" points="355.121,-142.033 344.839,-144.59 354.471,-149.003 355.121,-142.033"/>
</g>
<!-- Node12 -->
<g id="node12" class="node"><title>Node12</title>
<g id="a_node12"><a xlink:href="class_hydro_couple_1_1_i_identity.html" target="_top" xlink:title="IIdentity interface class defines a method to get the Id of an HydroCouple entity. &#160;IIdentity extends the IDescription interface class, and therefore has, next to the id, a caption and a description. ">
<polygon fill="white" stroke="black" points="426.966,-222.5 426.966,-240.5 541.907,-240.5 541.907,-222.5 426.966,-222.5"/>
<text text-anchor="middle" x="484.437" y="-228.5" font-family="Helvetica,sans-Serif" font-size="10.00">HydroCouple::IIdentity</text>
</a>
</g>
</g>
<!-- Node4&#45;&gt;Node12 -->
<g id="edge10" class="edge"><title>Node4&#45;&gt;Node12</title>
<path fill="none" stroke="midnightblue" d="M298.457,-153.937C320.536,-171.084 358.701,-198.343 395.831,-213.5 405.606,-217.49 416.37,-220.631 426.906,-223.091"/>
<polygon fill="midnightblue" stroke="midnightblue" points="300.572,-151.147 290.556,-147.695 296.233,-156.64 300.572,-151.147"/>
</g>
<!-- Node26 -->
<g id="node26" class="node"><title>Node26</title>
<g id="a_node26"><a xlink:href="class_hydro_couple_1_1_i_unit.html" target="_top" xlink:title="IUnit interface, describing the physical unit of a IQuantity. ">
<polygon fill="white" stroke="black" points="434.195,-111.5 434.195,-129.5 534.678,-129.5 534.678,-111.5 434.195,-111.5"/>
<text text-anchor="middle" x="484.437" y="-117.5" font-family="Helvetica,sans-Serif" font-size="10.00">HydroCouple::IUnit</text>
</a>
</g>
</g>
<!-- Node4&#45;&gt;Node26 -->
<g id="edge28" class="edge"><title>Node4&#45;&gt;Node26</title>
<path fill="none" stroke="midnightblue" d="M354.818,-131.85C381.225,-129.52 410.193,-126.963 433.941,-124.868"/>
<polygon fill="midnightblue" stroke="midnightblue" points="354.493,-128.365 344.839,-132.73 355.108,-135.338 354.493,-128.365"/>
</g>
<!-- Node27 -->
<g id="node27" class="node"><title>Node27</title>
<g id="a_node27"><a xlink:href="class_hydro_couple_1_1_i_unit_dimensions.html" target="_top" xlink:title="Defines the order of dimension in each FundamentalDimension for a unit. ">
<polygon fill="white" stroke="black" points="408.075,-74.5 408.075,-92.5 560.798,-92.5 560.798,-74.5 408.075,-74.5"/>
<text text-anchor="middle" x="484.437" y="-80.5" font-family="Helvetica,sans-Serif" font-size="10.00">HydroCouple::IUnitDimensions</text>
</a>
</g>
</g>
<!-- Node4&#45;&gt;Node27 -->
<g id="edge29" class="edge"><title>Node4&#45;&gt;Node27</title>
<path fill="none" stroke="midnightblue" d="M314.751,-126.212C337.679,-118.496 368.312,-108.68 395.831,-101.5 408.301,-98.2462 421.894,-95.2102 434.571,-92.5927"/>
<polygon fill="midnightblue" stroke="midnightblue" points="313.457,-122.955 305.114,-129.485 315.708,-129.584 313.457,-122.955"/>
</g>
<!-- Node28 -->
<g id="node28" class="node"><title>Node28</title>
<g id="a_node28"><a xlink:href="class_hydro_couple_1_1_i_value_definition.html" target="_top" xlink:title="IValueDefinition describes a value returned by the getValues function of IValueSet. ">
<polygon fill="white" stroke="black" points="409.823,-37.5 409.823,-55.5 559.05,-55.5 559.05,-37.5 409.823,-37.5"/>
<text text-anchor="middle" x="484.437" y="-43.5" font-family="Helvetica,sans-Serif" font-size="10.00">HydroCouple::IValueDefinition</text>
</a>
</g>
</g>
<!-- Node4&#45;&gt;Node28 -->
<g id="edge30" class="edge"><title>Node4&#45;&gt;Node28</title>
<path fill="none" stroke="midnightblue" d="M298.493,-123.28C320.604,-106.372 358.8,-79.4851 395.831,-64.5 404.899,-60.8307 414.809,-57.8772 424.598,-55.5095"/>
<polygon fill="midnightblue" stroke="midnightblue" points="296.324,-120.533 290.579,-129.435 300.621,-126.059 296.324,-120.533"/>
</g>
<!-- Node31 -->
<g id="node31" class="node"><title>Node31</title>
<g id="a_node31"><a xlink:href="class_hydro_couple_1_1_i_value_set.html" target="_top" xlink:title="IValueSet provides a multi&#45;dimensional data with its context. ">
<polygon fill="white" stroke="black" points="423.163,-0.5 423.163,-18.5 545.71,-18.5 545.71,-0.5 423.163,-0.5"/>
<text text-anchor="middle" x="484.437" y="-6.5" font-family="Helvetica,sans-Serif" font-size="10.00">HydroCouple::IValueSet</text>
</a>
</g>
</g>
<!-- Node4&#45;&gt;Node31 -->
<g id="edge33" class="edge"><title>Node4&#45;&gt;Node31</title>
<path fill="none" stroke="midnightblue" d="M292.394,-121.083C311.901,-96.1673 351.328,-50.7938 395.831,-27.5 404.223,-23.1077 413.589,-19.7867 422.989,-17.2757"/>
<polygon fill="midnightblue" stroke="midnightblue" points="289.436,-119.19 286.137,-129.258 294.994,-123.445 289.436,-119.19"/>
</g>
<!-- Node6 -->
<g id="node6" class="node"><title>Node6</title>
<g id="a_node6"><a xlink:href="class_identity.html" target="_top" xlink:title="Identity">
<polygon fill="white" stroke="black" points="665.739,-298.5 665.739,-316.5 713.98,-316.5 713.98,-298.5 665.739,-298.5"/>
<text text-anchor="middle" x="689.859" y="-304.5" font-family="Helvetica,sans-Serif" font-size="10.00">Identity</text>
</a>
</g>
</g>
<!-- Node5&#45;&gt;Node6 -->
<g id="edge4" class="edge"><title>Node5&#45;&gt;Node6</title>
<path fill="none" stroke="midnightblue" d="M527.57,-284.507C569.424,-290.473 632.065,-299.403 665.636,-304.189"/>
<polygon fill="midnightblue" stroke="midnightblue" points="528.063,-281.042 517.669,-283.095 527.075,-287.972 528.063,-281.042"/>
</g>
<!-- Node7 -->
<g id="node7" class="node"><title>Node7</title>
<g id="a_node7"><a xlink:href="class_abstract_model_component.html" target="_top" xlink:title=" ">
<polygon fill="white" stroke="black" points="830.026,-298.5 830.026,-316.5 961.642,-316.5 961.642,-298.5 830.026,-298.5"/>
<text text-anchor="middle" x="895.834" y="-304.5" font-family="Helvetica,sans-Serif" font-size="10.00">AbstractModelComponent</text>
</a>
</g>
</g>
<!-- Node6&#45;&gt;Node7 -->
<g id="edge5" class="edge"><title>Node6&#45;&gt;Node7</title>
<path fill="none" stroke="midnightblue" d="M724.521,-307.5C753.103,-307.5 794.942,-307.5 829.997,-307.5"/>
<polygon fill="midnightblue" stroke="midnightblue" points="724.258,-304 714.258,-307.5 724.258,-311 724.258,-304"/>
</g>
<!-- Node8 -->
<g id="node8" class="node"><title>Node8</title>
<g id="a_node8"><a xlink:href="class_component_info.html" target="_top" xlink:title="Example implementation of the IComponentInfo. This is the core interface specifying meta data about a...">
<polygon fill="white" stroke="black" points="853.645,-214.5 853.645,-232.5 938.023,-232.5 938.023,-214.5 853.645,-214.5"/>
<text text-anchor="middle" x="895.834" y="-220.5" font-family="Helvetica,sans-Serif" font-size="10.00">ComponentInfo</text>
</a>
</g>
</g>
<!-- Node6&#45;&gt;Node8 -->
<g id="edge6" class="edge"><title>Node6&#45;&gt;Node8</title>
<path fill="none" stroke="midnightblue" d="M724.159,-305.172C739.301,-302.865 756.874,-298.337 770.677,-289.5 792.837,-275.312 784.45,-256.582 806.677,-242.5 820.564,-233.702 837.89,-228.925 853.497,-226.35"/>
<polygon fill="midnightblue" stroke="midnightblue" points="723.621,-301.712 714.14,-306.441 724.501,-308.657 723.621,-301.712"/>
</g>
<!-- Node9 -->
<g id="node9" class="node"><title>Node9</title>
<g id="a_node9"><a xlink:href="class_model_component_info.html" target="_top" xlink:title=" ">
<polygon fill="white" stroke="black" points="1021.54,-195.5 1021.54,-213.5 1133.16,-213.5 1133.16,-195.5 1021.54,-195.5"/>
<text text-anchor="middle" x="1077.35" y="-201.5" font-family="Helvetica,sans-Serif" font-size="10.00">ModelComponentInfo</text>
</a>
</g>
</g>
<!-- Node8&#45;&gt;Node9 -->
<g id="edge7" class="edge"><title>Node8&#45;&gt;Node9</title>
<path fill="none" stroke="midnightblue" d="M948.628,-218.018C971.41,-215.607 998.191,-212.772 1021.33,-210.323"/>
<polygon fill="midnightblue" stroke="midnightblue" points="948.046,-214.56 938.47,-219.093 948.783,-221.521 948.046,-214.56"/>
</g>
<!-- Node12&#45;&gt;Node6 -->
<g id="edge27" class="edge"><title>Node12&#45;&gt;Node6</title>
<path fill="none" stroke="midnightblue" d="M532.144,-243.547C545.754,-247.953 560.363,-253.592 573.042,-260.5 591.083,-270.33 590.541,-280.564 609.042,-289.5 626.95,-298.15 649.142,-302.722 665.577,-305.09"/>
<polygon fill="midnightblue" stroke="midnightblue" points="533.041,-240.161 522.453,-240.555 530.976,-246.849 533.041,-240.161"/>
</g>
<!-- Node13 -->
<g id="node13" class="node"><title>Node13</title>
<g id="a_node13"><a xlink:href="class_hydro_couple_1_1_i_adapted_output_factory.html" target="_top" xlink:title="IAdaptedOutputFactory is used to create instances of IAdaptedProducerExchangeItems. ">
<polygon fill="white" stroke="black" points="614.872,-214.5 614.872,-242.5 764.847,-242.5 764.847,-214.5 614.872,-214.5"/>
<text text-anchor="start" x="622.872" y="-230.5" font-family="Helvetica,sans-Serif" font-size="10.00">HydroCouple::IAdaptedOutput</text>
<text text-anchor="middle" x="689.859" y="-220.5" font-family="Helvetica,sans-Serif" font-size="10.00">Factory</text>
</a>
</g>
</g>
<!-- Node12&#45;&gt;Node13 -->
<g id="edge11" class="edge"><title>Node12&#45;&gt;Node13</title>
<path fill="none" stroke="midnightblue" d="M552.324,-230.514C572.263,-230.22 594.232,-229.896 614.612,-229.595"/>
<polygon fill="midnightblue" stroke="midnightblue" points="552.048,-227.017 542.101,-230.664 552.152,-234.016 552.048,-227.017"/>
</g>
<!-- Node15 -->
<g id="node15" class="node"><title>Node15</title>
<g id="a_node15"><a xlink:href="class_hydro_couple_1_1_i_component_info.html" target="_top" xlink:title="IComponentInfo interface class provides detailed metadata about a component. ">
<polygon fill="white" stroke="black" points="614.32,-177.5 614.32,-195.5 765.398,-195.5 765.398,-177.5 614.32,-177.5"/>
<text text-anchor="middle" x="689.859" y="-183.5" font-family="Helvetica,sans-Serif" font-size="10.00">HydroCouple::IComponentInfo</text>
</a>
</g>
</g>
<!-- Node12&#45;&gt;Node15 -->
<g id="edge13" class="edge"><title>Node12&#45;&gt;Node15</title>
<path fill="none" stroke="midnightblue" d="M540.314,-220.456C551.171,-218.206 562.475,-215.817 573.042,-213.5 599.259,-207.752 628.716,-200.879 651.361,-195.506"/>
<polygon fill="midnightblue" stroke="midnightblue" points="539.59,-217.032 530.502,-222.478 541.003,-223.888 539.59,-217.032"/>
</g>
<!-- Node18 -->
<g id="node18" class="node"><title>Node18</title>
<g id="a_node18"><a xlink:href="class_hydro_couple_1_1_i_component_item.html" target="_top" xlink:title="IComponentItem is a fundamental unit of data for a component. ">
<polygon fill="white" stroke="black" points="612.936,-90.5 612.936,-108.5 766.783,-108.5 766.783,-90.5 612.936,-90.5"/>
<text text-anchor="middle" x="689.859" y="-96.5" font-family="Helvetica,sans-Serif" font-size="10.00">HydroCouple::IComponentItem</text>
</a>
</g>
</g>
<!-- Node12&#45;&gt;Node18 -->
<g id="edge18" class="edge"><title>Node12&#45;&gt;Node18</title>
<path fill="none" stroke="midnightblue" d="M552.312,-222.887C559.596,-220.472 566.669,-217.402 573.042,-213.5 594.886,-200.127 591.279,-186.952 609.042,-168.5 631.4,-145.274 660.742,-121.37 676.897,-108.699"/>
<polygon fill="midnightblue" stroke="midnightblue" points="550.925,-219.645 542.294,-225.789 552.873,-226.368 550.925,-219.645"/>
</g>
<!-- Node25 -->
<g id="node25" class="node"><title>Node25</title>
<g id="a_node25"><a xlink:href="class_hydro_couple_1_1_i_model_component.html" target="_top" xlink:title="IModelComponent interface is the core interface in the HydroCouple standard defining a model componen...">
<polygon fill="white" stroke="black" points="609.042,-261.5 609.042,-279.5 770.677,-279.5 770.677,-261.5 609.042,-261.5"/>
<text text-anchor="middle" x="689.859" y="-267.5" font-family="Helvetica,sans-Serif" font-size="10.00">HydroCouple::IModelComponent</text>
</a>
</g>
</g>
<!-- Node12&#45;&gt;Node25 -->
<g id="edge25" class="edge"><title>Node12&#45;&gt;Node25</title>
<path fill="none" stroke="midnightblue" d="M542.497,-242.44C573.748,-248.431 612.016,-255.768 641.583,-261.436"/>
<polygon fill="midnightblue" stroke="midnightblue" points="543.097,-238.991 532.617,-240.545 541.779,-245.866 543.097,-238.991"/>
</g>
<!-- Node14 -->
<g id="node14" class="node"><title>Node14</title>
<g id="a_node14"><a xlink:href="class_hydro_couple_1_1_i_adapted_output_factory_component.html" target="_top" xlink:title="IAdaptedOutputFactoryComponent is an IAdaptedOutputFactory generated from an IAdaptedOutputFactoryCom...">
<polygon fill="white" stroke="black" points="820.847,-251.5 820.847,-279.5 970.821,-279.5 970.821,-251.5 820.847,-251.5"/>
<text text-anchor="start" x="828.847" y="-267.5" font-family="Helvetica,sans-Serif" font-size="10.00">HydroCouple::IAdaptedOutput</text>
<text text-anchor="middle" x="895.834" y="-257.5" font-family="Helvetica,sans-Serif" font-size="10.00">FactoryComponent</text>
</a>
</g>
</g>
<!-- Node13&#45;&gt;Node14 -->
<g id="edge12" class="edge"><title>Node13&#45;&gt;Node14</title>
<path fill="none" stroke="midnightblue" d="M774.947,-243.753C790.11,-246.504 805.818,-249.353 820.673,-252.048"/>
<polygon fill="midnightblue" stroke="midnightblue" points="775.54,-240.304 765.076,-241.963 774.291,-247.191 775.54,-240.304"/>
</g>
<!-- Node15&#45;&gt;Node8 -->
<g id="edge14" class="edge"><title>Node15&#45;&gt;Node8</title>
<path fill="none" stroke="midnightblue" d="M750.519,-197.322C783.628,-203.328 823.972,-210.646 853.577,-216.016"/>
<polygon fill="midnightblue" stroke="midnightblue" points="750.96,-193.845 740.496,-195.504 749.711,-200.733 750.96,-193.845"/>
</g>
<!-- Node16 -->
<g id="node16" class="node"><title>Node16</title>
<g id="a_node16"><a xlink:href="class_hydro_couple_1_1_i_adapted_output_factory_component_info.html" target="_top" xlink:title="IAdaptedOutputFactoryComponentInfo interface class provides information about an IAdaptedOutputFactor...">
<polygon fill="white" stroke="black" points="820.847,-130.5 820.847,-158.5 970.821,-158.5 970.821,-130.5 820.847,-130.5"/>
<text text-anchor="start" x="828.847" y="-146.5" font-family="Helvetica,sans-Serif" font-size="10.00">HydroCouple::IAdaptedOutput</text>
<text text-anchor="middle" x="895.834" y="-136.5" font-family="Helvetica,sans-Serif" font-size="10.00">FactoryComponentInfo</text>
</a>
</g>
</g>
<!-- Node15&#45;&gt;Node16 -->
<g id="edge15" class="edge"><title>Node15&#45;&gt;Node16</title>
<path fill="none" stroke="midnightblue" d="M744.688,-175.416C769.805,-170.245 799.979,-164.031 826.669,-158.536"/>
<polygon fill="midnightblue" stroke="midnightblue" points="743.706,-172.045 734.617,-177.49 745.117,-178.901 743.706,-172.045"/>
</g>
<!-- Node17 -->
<g id="node17" class="node"><title>Node17</title>
<g id="a_node17"><a xlink:href="class_hydro_couple_1_1_i_model_component_info.html" target="_top" xlink:title="IModelComponentInfo interface inherits from the IComponentInfo interface which provides detailed meta...">
<polygon fill="white" stroke="black" points="806.677,-177.5 806.677,-195.5 984.991,-195.5 984.991,-177.5 806.677,-177.5"/>
<text text-anchor="middle" x="895.834" y="-183.5" font-family="Helvetica,sans-Serif" font-size="10.00">HydroCouple::IModelComponentInfo</text>
</a>
</g>
</g>
<!-- Node15&#45;&gt;Node17 -->
<g id="edge16" class="edge"><title>Node15&#45;&gt;Node17</title>
<path fill="none" stroke="midnightblue" d="M775.74,-186.5C785.92,-186.5 796.334,-186.5 806.561,-186.5"/>
<polygon fill="midnightblue" stroke="midnightblue" points="775.654,-183 765.654,-186.5 775.654,-190 775.654,-183"/>
</g>
<!-- Node17&#45;&gt;Node9 -->
<g id="edge17" class="edge"><title>Node17&#45;&gt;Node9</title>
<path fill="none" stroke="midnightblue" d="M995.187,-196.362C1004.17,-197.263 1013.04,-198.152 1021.43,-198.993"/>
<polygon fill="midnightblue" stroke="midnightblue" points="995.314,-192.857 985.015,-195.342 994.615,-199.822 995.314,-192.857"/>
</g>
<!-- Node19 -->
<g id="node19" class="node"><title>Node19</title>
<g id="a_node19"><a xlink:href="class_hydro_couple_1_1_i_argument.html" target="_top" xlink:title="IArgument interface class used to set the arguments for components. They can be complex or simple mul...">
<polygon fill="white" stroke="black" points="832.807,-93.5 832.807,-111.5 958.861,-111.5 958.861,-93.5 832.807,-93.5"/>
<text text-anchor="middle" x="895.834" y="-99.5" font-family="Helvetica,sans-Serif" font-size="10.00">HydroCouple::IArgument</text>
</a>
</g>
</g>
<!-- Node18&#45;&gt;Node19 -->
<g id="edge19" class="edge"><title>Node18&#45;&gt;Node19</title>
<path fill="none" stroke="midnightblue" d="M776.854,-100.765C795.64,-101.041 815.169,-101.328 832.804,-101.588"/>
<polygon fill="midnightblue" stroke="midnightblue" points="776.862,-97.2646 766.812,-100.617 776.759,-104.264 776.862,-97.2646"/>
</g>
<!-- Node20 -->
<g id="node20" class="node"><title>Node20</title>
<g id="a_node20"><a xlink:href="class_hydro_couple_1_1_i_exchange_item.html" target="_top" xlink:title="IExchangeItem the base data item the can be exchanged between components at runtime. ">
<polygon fill="white" stroke="black" points="822.521,-56.5 822.521,-74.5 969.146,-74.5 969.146,-56.5 822.521,-56.5"/>
<text text-anchor="middle" x="895.834" y="-62.5" font-family="Helvetica,sans-Serif" font-size="10.00">HydroCouple::IExchangeItem</text>
</a>
</g>
</g>
<!-- Node18&#45;&gt;Node20 -->
<g id="edge20" class="edge"><title>Node18&#45;&gt;Node20</title>
<path fill="none" stroke="midnightblue" d="M754.938,-88.819C782.53,-84.2196 814.44,-78.9007 840.809,-74.5052"/>
<polygon fill="midnightblue" stroke="midnightblue" points="754.274,-85.3812 744.985,-90.4779 755.425,-92.286 754.274,-85.3812"/>
</g>
<!-- Node24 -->
<g id="node24" class="node"><title>Node24</title>
<g id="a_node24"><a xlink:href="class_hydro_couple_1_1_temporal_1_1_i_time_component_item.html" target="_top" xlink:title="ITimeComponentItem is an IComponentItem with a temporal attribute. ">
<polygon fill="white" stroke="black" points="835.31,-9.5 835.31,-37.5 956.358,-37.5 956.358,-9.5 835.31,-9.5"/>
<text text-anchor="start" x="843.31" y="-25.5" font-family="Helvetica,sans-Serif" font-size="10.00">HydroCouple::Temporal</text>
<text text-anchor="middle" x="895.834" y="-15.5" font-family="Helvetica,sans-Serif" font-size="10.00">::ITimeComponentItem</text>
</a>
</g>
</g>
<!-- Node18&#45;&gt;Node24 -->
<g id="edge24" class="edge"><title>Node18&#45;&gt;Node24</title>
<path fill="none" stroke="midnightblue" d="M741.636,-87.4509C751.545,-84.214 761.652,-80.2569 770.677,-75.5 788.852,-65.9196 788.328,-55.7437 806.677,-46.5 815.576,-42.0167 825.434,-38.3471 835.241,-35.3622"/>
<polygon fill="midnightblue" stroke="midnightblue" points="740.377,-84.176 731.84,-90.4508 742.426,-90.8692 740.377,-84.176"/>
</g>
<!-- Node21 -->
<g id="node21" class="node"><title>Node21</title>
<g id="a_node21"><a xlink:href="class_hydro_couple_1_1_i_input.html" target="_top" xlink:title="An IInput item that can accept values for an IModelComponent. ">
<polygon fill="white" stroke="black" points="1024.88,-75.5 1024.88,-93.5 1129.82,-93.5 1129.82,-75.5 1024.88,-75.5"/>
<text text-anchor="middle" x="1077.35" y="-81.5" font-family="Helvetica,sans-Serif" font-size="10.00">HydroCouple::IInput</text>
</a>
</g>
</g>
<!-- Node20&#45;&gt;Node21 -->
<g id="edge21" class="edge"><title>Node20&#45;&gt;Node21</title>
<path fill="none" stroke="midnightblue" d="M979.432,-74.2421C994.892,-75.8784 1010.64,-77.5449 1024.82,-79.0457"/>
<polygon fill="midnightblue" stroke="midnightblue" points="979.646,-70.7453 969.333,-73.1733 978.909,-77.7064 979.646,-70.7453"/>
</g>
<!-- Node22 -->
<g id="node22" class="node"><title>Node22</title>
<g id="a_node22"><a xlink:href="class_hydro_couple_1_1_i_output.html" target="_top" xlink:title="An output exchange item that can deliver values from an IModelComponent. ">
<polygon fill="white" stroke="black" points="1020.99,-38.5 1020.99,-56.5 1133.71,-56.5 1133.71,-38.5 1020.99,-38.5"/>
<text text-anchor="middle" x="1077.35" y="-44.5" font-family="Helvetica,sans-Serif" font-size="10.00">HydroCouple::IOutput</text>
</a>
</g>
</g>
<!-- Node20&#45;&gt;Node22 -->
<g id="edge22" class="edge"><title>Node20&#45;&gt;Node22</title>
<path fill="none" stroke="midnightblue" d="M979.506,-57.2106C993.561,-55.8013 1007.85,-54.3686 1020.98,-53.052"/>
<polygon fill="midnightblue" stroke="midnightblue" points="978.934,-53.7503 969.333,-58.2306 979.632,-60.7154 978.934,-53.7503"/>
</g>
<!-- Node23 -->
<g id="node23" class="node"><title>Node23</title>
<g id="a_node23"><a xlink:href="class_hydro_couple_1_1_i_adapted_output.html" target="_top" xlink:title="An IAdaptedOutput adds one or more data operations on top of an IOutput. ">
<polygon fill="white" stroke="black" points="1169.71,-38.5 1169.71,-56.5 1319.68,-56.5 1319.68,-38.5 1169.71,-38.5"/>
<text text-anchor="middle" x="1244.7" y="-44.5" font-family="Helvetica,sans-Serif" font-size="10.00">HydroCouple::IAdaptedOutput</text>
</a>
</g>
</g>
<!-- Node22&#45;&gt;Node23 -->
<g id="edge23" class="edge"><title>Node22&#45;&gt;Node23</title>
<path fill="none" stroke="midnightblue" d="M1143.97,-47.5C1152.36,-47.5 1161.01,-47.5 1169.53,-47.5"/>
<polygon fill="midnightblue" stroke="midnightblue" points="1143.87,-44.0001 1133.87,-47.5 1143.87,-51.0001 1143.87,-44.0001"/>
</g>
<!-- Node25&#45;&gt;Node7 -->
<g id="edge26" class="edge"><title>Node25&#45;&gt;Node7</title>
<path fill="none" stroke="midnightblue" d="M750.429,-281.306C780.449,-286.751 816.436,-293.279 844.974,-298.456"/>
<polygon fill="midnightblue" stroke="midnightblue" points="750.96,-277.845 740.496,-279.504 749.711,-284.733 750.96,-277.845"/>
</g>
<!-- Node29 -->
<g id="node29" class="node"><title>Node29</title>
<g id="a_node29"><a xlink:href="class_hydro_couple_1_1_i_quality.html" target="_top" xlink:title="Qualitative data described items in terms of some quality or categorization that may be &#39;informal&#39; or...">
<polygon fill="white" stroke="black" points="632.948,-48.5 632.948,-66.5 746.771,-66.5 746.771,-48.5 632.948,-48.5"/>
<text text-anchor="middle" x="689.859" y="-54.5" font-family="Helvetica,sans-Serif" font-size="10.00">HydroCouple::IQuality</text>
</a>
</g>
</g>
<!-- Node28&#45;&gt;Node29 -->
<g id="edge31" class="edge"><title>Node28&#45;&gt;Node29</title>
<path fill="none" stroke="midnightblue" d="M569.259,-51.0326C590.712,-52.1927 613.261,-53.412 632.925,-54.4754"/>
<polygon fill="midnightblue" stroke="midnightblue" points="569.339,-47.532 559.164,-50.4868 568.961,-54.5217 569.339,-47.532"/>
</g>
<!-- Node30 -->
<g id="node30" class="node"><title>Node30</title>
<g id="a_node30"><a xlink:href="class_hydro_couple_1_1_i_quantity.html" target="_top" xlink:title="IQuantity specifies values as an amount of some unit, usually as a floating point number...">
<polygon fill="white" stroke="black" points="629.889,-11.5 629.889,-29.5 749.83,-29.5 749.83,-11.5 629.889,-11.5"/>
<text text-anchor="middle" x="689.859" y="-17.5" font-family="Helvetica,sans-Serif" font-size="10.00">HydroCouple::IQuantity</text>
</a>
</g>
</g>
<!-- Node28&#45;&gt;Node30 -->
<g id="edge32" class="edge"><title>Node28&#45;&gt;Node30</title>
<path fill="none" stroke="midnightblue" d="M566.026,-36.1997C587.339,-33.4756 609.946,-30.5861 629.878,-28.0386"/>
<polygon fill="midnightblue" stroke="midnightblue" points="565.489,-32.7398 556.013,-37.4794 566.376,-39.6833 565.489,-32.7398"/>
</g>
<!-- Node32 -->
<g id="node32" class="node"><title>Node32</title>
<polygon fill="white" stroke="#bfbfbf" points="252.117,-269.5 252.117,-287.5 304.797,-287.5 304.797,-269.5 252.117,-269.5"/>
<text text-anchor="middle" x="278.457" y="-275.5" font-family="Helvetica,sans-Serif" font-size="10.00">QObject</text>
</g>
<!-- Node32&#45;&gt;Node2 -->
<g id="edge34" class="edge"><title>Node32&#45;&gt;Node2</title>
<path fill="none" stroke="midnightblue" d="M314.722,-285.242C348.331,-291.668 399.167,-301.388 436.252,-308.479"/>
<polygon fill="midnightblue" stroke="midnightblue" points="315.358,-281.801 304.879,-283.361 314.044,-288.676 315.358,-281.801"/>
</g>
<!-- Node32&#45;&gt;Node5 -->
<g id="edge35" class="edge"><title>Node32&#45;&gt;Node5</title>
<path fill="none" stroke="midnightblue" d="M315.099,-278.5C353.561,-278.5 414.262,-278.5 451.303,-278.5"/>
<polygon fill="midnightblue" stroke="midnightblue" points="314.879,-275 304.879,-278.5 314.879,-282 314.879,-275"/>
</g>
</g>
</svg>
