<?xml version="1.0" encoding="UTF-8" standalone="no"?>
<!DOCTYPE svg PUBLIC "-//W3C//DTD SVG 1.1//EN"
 "http://www.w3.org/Graphics/SVG/1.1/DTD/svg11.dtd">
<!-- Generated by graphviz version 2.38.0 (20140413.2041)
 -->
<!-- Title: /Users/calebbuahin/Documents/Projects/HydroCouple/HydroCoupleSDK/src/modelcomponentinfo.cpp Pages: 1 -->
<svg width="456pt" height="420pt"
 viewBox="0.00 0.00 456.01 420.35" xmlns="http://www.w3.org/2000/svg" xmlns:xlink="http://www.w3.org/1999/xlink">
<g id="graph0" class="graph" transform="scale(1 1) rotate(0) translate(4 416.35)">
<title>/Users/calebbuahin/Documents/Projects/HydroCouple/HydroCoupleSDK/src/modelcomponentinfo.cpp</title>
<polygon fill="white" stroke="none" points="-4,4 -4,-416.35 452.008,-416.35 452.008,4 -4,4"/>
<!-- Node1 -->
<g id="node1" class="node"><title>Node1</title>
<polygon fill="#bfbfbf" stroke="black" points="84.9907,-350.51 84.9907,-411.85 263.017,-411.85 263.017,-350.51 84.9907,-350.51"/>
<text text-anchor="start" x="92.9907" y="-399.85" font-family="Monaco" font-size="10.00">/Users/calebbuahin</text>
<text text-anchor="start" x="92.9907" y="-386.515" font-family="Monaco" font-size="10.00">/Documents/Projects</text>
<text text-anchor="start" x="92.9907" y="-373.18" font-family="Monaco" font-size="10.00">/HydroCouple/HydroCoupleSDK</text>
<text text-anchor="middle" x="174.004" y="-359.845" font-family="Monaco" font-size="10.00">/src/modelcomponentinfo.cpp</text>
</g>
<!-- Node2 -->
<g id="node2" class="node"><title>Node2</title>
<polygon fill="white" stroke="#bfbfbf" points="0,-292.175 0,-313.51 64.0078,-313.51 64.0078,-292.175 0,-292.175"/>
<text text-anchor="middle" x="32.0039" y="-301.51" font-family="Monaco" font-size="10.00">stdafx.h</text>
</g>
<!-- Node1&#45;&gt;Node2 -->
<g id="edge1" class="edge"><title>Node1&#45;&gt;Node2</title>
<path fill="none" stroke="midnightblue" d="M118.696,-350.447C98.386,-339.528 76.2722,-327.64 59.4626,-318.604"/>
<polygon fill="midnightblue" stroke="midnightblue" points="60.6972,-315.294 50.232,-313.641 57.3826,-321.459 60.6972,-315.294"/>
</g>
<!-- Node3 -->
<g id="node3" class="node"><title>Node3</title>
<g id="a_node3"><a xlink:href="modelcomponentinfo_8h.html" target="_top" xlink:title="include/modelcomponentinfo.h">
<polygon fill="white" stroke="black" points="81.9902,-292.175 81.9902,-313.51 266.018,-313.51 266.018,-292.175 81.9902,-292.175"/>
<text text-anchor="middle" x="174.004" y="-301.51" font-family="Monaco" font-size="10.00">include/modelcomponentinfo.h</text>
</a>
</g>
</g>
<!-- Node1&#45;&gt;Node3 -->
<g id="edge2" class="edge"><title>Node1&#45;&gt;Node3</title>
<path fill="none" stroke="midnightblue" d="M174.004,-350.447C174.004,-341.467 174.004,-331.832 174.004,-323.666"/>
<polygon fill="midnightblue" stroke="midnightblue" points="177.504,-323.641 174.004,-313.641 170.504,-323.641 177.504,-323.641"/>
</g>
<!-- Node12 -->
<g id="node12" class="node"><title>Node12</title>
<g id="a_node12"><a xlink:href="abstractmodelcomponent_8h.html" target="_top" xlink:title="include/abstractmodelcomponent.h">
<polygon fill="white" stroke="black" points="230.988,-233.84 230.988,-255.175 439.02,-255.175 439.02,-233.84 230.988,-233.84"/>
<text text-anchor="middle" x="335.004" y="-243.175" font-family="Monaco" font-size="10.00">include/abstractmodelcomponent.h</text>
</a>
</g>
</g>
<!-- Node1&#45;&gt;Node12 -->
<g id="edge14" class="edge"><title>Node1&#45;&gt;Node12</title>
<path fill="none" stroke="midnightblue" d="M225.251,-350.421C241.818,-339.821 259.818,-327.215 275.004,-314.01 292.59,-298.718 309.817,-278.324 321.267,-263.774"/>
<polygon fill="midnightblue" stroke="midnightblue" points="324.262,-265.622 327.602,-255.568 318.721,-261.345 324.262,-265.622"/>
</g>
<!-- Node4 -->
<g id="node4" class="node"><title>Node4</title>
<g id="a_node4"><a xlink:href="componentinfo_8h.html" target="_top" xlink:title="componentinfo.h">
<polygon fill="white" stroke="black" points="106.997,-233.84 106.997,-255.175 213.011,-255.175 213.011,-233.84 106.997,-233.84"/>
<text text-anchor="middle" x="160.004" y="-243.175" font-family="Monaco" font-size="10.00">componentinfo.h</text>
</a>
</g>
</g>
<!-- Node3&#45;&gt;Node4 -->
<g id="edge3" class="edge"><title>Node3&#45;&gt;Node4</title>
<path fill="none" stroke="midnightblue" d="M171.565,-292.029C169.718,-284.598 167.121,-274.146 164.856,-265.032"/>
<polygon fill="midnightblue" stroke="midnightblue" points="168.223,-264.068 162.415,-255.208 161.43,-265.757 168.223,-264.068"/>
</g>
<!-- Node5 -->
<g id="node5" class="node"><title>Node5</title>
<g id="a_node5"><a xlink:href="identity_8h.html" target="_top" xlink:title="identity.h">
<polygon fill="white" stroke="black" points="208.999,-175.505 208.999,-196.84 285.009,-196.84 285.009,-175.505 208.999,-175.505"/>
<text text-anchor="middle" x="247.004" y="-184.84" font-family="Monaco" font-size="10.00">identity.h</text>
</a>
</g>
</g>
<!-- Node4&#45;&gt;Node5 -->
<g id="edge4" class="edge"><title>Node4&#45;&gt;Node5</title>
<path fill="none" stroke="midnightblue" d="M175.158,-233.695C188.507,-225.051 208.163,-212.323 223.542,-202.365"/>
<polygon fill="midnightblue" stroke="midnightblue" points="225.532,-205.246 232.023,-196.873 221.727,-199.37 225.532,-205.246"/>
</g>
<!-- Node6 -->
<g id="node6" class="node"><title>Node6</title>
<g id="a_node6"><a xlink:href="hydrocouplesdk_8h.html" target="_top" xlink:title="hydrocouplesdk.h">
<polygon fill="white" stroke="black" points="125.996,-58.835 125.996,-80.1699 238.012,-80.1699 238.012,-58.835 125.996,-58.835"/>
<text text-anchor="middle" x="182.004" y="-68.1699" font-family="Monaco" font-size="10.00">hydrocouplesdk.h</text>
</a>
</g>
</g>
<!-- Node5&#45;&gt;Node6 -->
<g id="edge5" class="edge"><title>Node5&#45;&gt;Node6</title>
<path fill="none" stroke="midnightblue" d="M241.462,-175.396C230.621,-156.27 206.451,-113.63 192.495,-89.0095"/>
<polygon fill="midnightblue" stroke="midnightblue" points="195.508,-87.228 187.532,-80.2544 189.418,-90.6799 195.508,-87.228"/>
</g>
<!-- Node8 -->
<g id="node8" class="node"><title>Node8</title>
<g id="a_node8"><a xlink:href="description_8h.html" target="_top" xlink:title="description.h">
<polygon fill="white" stroke="black" points="237.998,-117.17 237.998,-138.505 332.01,-138.505 332.01,-117.17 237.998,-117.17"/>
<text text-anchor="middle" x="285.004" y="-126.505" font-family="Monaco" font-size="10.00">description.h</text>
</a>
</g>
</g>
<!-- Node5&#45;&gt;Node8 -->
<g id="edge7" class="edge"><title>Node5&#45;&gt;Node8</title>
<path fill="none" stroke="midnightblue" d="M253.623,-175.36C258.908,-167.524 266.458,-156.332 272.828,-146.889"/>
<polygon fill="midnightblue" stroke="midnightblue" points="275.77,-148.785 278.461,-138.538 269.967,-144.871 275.77,-148.785"/>
</g>
<!-- Node7 -->
<g id="node7" class="node"><title>Node7</title>
<polygon fill="white" stroke="#bfbfbf" points="208.996,-0.5 208.996,-21.835 321.012,-21.835 321.012,-0.5 208.996,-0.5"/>
<text text-anchor="middle" x="265.004" y="-9.83496" font-family="Monaco" font-size="10.00">QtCore/qglobal.h</text>
</g>
<!-- Node6&#45;&gt;Node7 -->
<g id="edge6" class="edge"><title>Node6&#45;&gt;Node7</title>
<path fill="none" stroke="midnightblue" d="M196.461,-58.6896C209.077,-50.1269 227.598,-37.5559 242.208,-27.6396"/>
<polygon fill="midnightblue" stroke="midnightblue" points="244.404,-30.3798 250.712,-21.8678 240.472,-24.5879 244.404,-30.3798"/>
</g>
<!-- Node8&#45;&gt;Node6 -->
<g id="edge10" class="edge"><title>Node8&#45;&gt;Node6</title>
<path fill="none" stroke="midnightblue" d="M267.063,-117.025C250.964,-108.22 227.116,-95.1761 208.765,-85.1391"/>
<polygon fill="midnightblue" stroke="midnightblue" points="210.193,-81.9307 199.74,-80.2028 206.833,-88.0721 210.193,-81.9307"/>
</g>
<!-- Node9 -->
<g id="node9" class="node"><title>Node9</title>
<polygon fill="white" stroke="#bfbfbf" points="256,-58.835 256,-80.1699 314.007,-80.1699 314.007,-58.835 256,-58.835"/>
<text text-anchor="middle" x="285.004" y="-68.1699" font-family="Monaco" font-size="10.00">QObject</text>
</g>
<!-- Node8&#45;&gt;Node9 -->
<g id="edge8" class="edge"><title>Node8&#45;&gt;Node9</title>
<path fill="none" stroke="midnightblue" d="M285.004,-117.025C285.004,-109.674 285.004,-99.3684 285.004,-90.3249"/>
<polygon fill="midnightblue" stroke="midnightblue" points="288.504,-90.2028 285.004,-80.2028 281.504,-90.2028 288.504,-90.2028"/>
</g>
<!-- Node10 -->
<g id="node10" class="node"><title>Node10</title>
<polygon fill="white" stroke="#bfbfbf" points="384,-0.5 384,-21.835 448.008,-21.835 448.008,-0.5 384,-0.5"/>
<text text-anchor="middle" x="416.004" y="-9.83496" font-family="Monaco" font-size="10.00">QVariant</text>
</g>
<!-- Node8&#45;&gt;Node10 -->
<g id="edge9" class="edge"><title>Node8&#45;&gt;Node10</title>
<path fill="none" stroke="midnightblue" d="M332.271,-126.217C366.838,-122.968 411.614,-112.342 435.004,-80.6699 445.83,-66.0108 437.846,-45.4727 429.15,-30.7141"/>
<polygon fill="midnightblue" stroke="midnightblue" points="431.878,-28.4851 423.523,-21.9701 425.991,-32.2734 431.878,-28.4851"/>
</g>
<!-- Node11 -->
<g id="node11" class="node"><title>Node11</title>
<g id="a_node11"><a xlink:href="hydrocouple_8h.html" target="_top" xlink:title="hydrocouple.h">
<polygon fill="white" stroke="black" points="331.998,-58.835 331.998,-80.1699 426.01,-80.1699 426.01,-58.835 331.998,-58.835"/>
<text text-anchor="middle" x="379.004" y="-68.1699" font-family="Monaco" font-size="10.00">hydrocouple.h</text>
</a>
</g>
</g>
<!-- Node8&#45;&gt;Node11 -->
<g id="edge11" class="edge"><title>Node8&#45;&gt;Node11</title>
<path fill="none" stroke="midnightblue" d="M301.377,-117.025C315.935,-108.3 337.435,-95.4151 354.119,-85.4161"/>
<polygon fill="midnightblue" stroke="midnightblue" points="356.04,-88.3456 362.818,-80.2028 352.441,-82.3413 356.04,-88.3456"/>
</g>
<!-- Node11&#45;&gt;Node7 -->
<g id="edge12" class="edge"><title>Node11&#45;&gt;Node7</title>
<path fill="none" stroke="midnightblue" d="M359.407,-58.8181C341.381,-49.9103 314.42,-36.587 293.919,-26.4566"/>
<polygon fill="midnightblue" stroke="midnightblue" points="295.243,-23.2065 284.727,-21.914 292.141,-29.482 295.243,-23.2065"/>
</g>
<!-- Node11&#45;&gt;Node10 -->
<g id="edge13" class="edge"><title>Node11&#45;&gt;Node10</title>
<path fill="none" stroke="midnightblue" d="M385.449,-58.6896C390.542,-50.9347 397.795,-39.8921 403.956,-30.5114"/>
<polygon fill="midnightblue" stroke="midnightblue" points="407.069,-32.1477 409.633,-21.8678 401.218,-28.3049 407.069,-32.1477"/>
</g>
<!-- Node12&#45;&gt;Node5 -->
<g id="edge15" class="edge"><title>Node12&#45;&gt;Node5</title>
<path fill="none" stroke="midnightblue" d="M319.675,-233.695C306.174,-225.051 286.292,-212.323 270.735,-202.365"/>
<polygon fill="midnightblue" stroke="midnightblue" points="272.466,-199.317 262.157,-196.873 268.692,-205.212 272.466,-199.317"/>
</g>
</g>
</svg>
