<?xml version="1.0" encoding="UTF-8" standalone="no"?>
<!DOCTYPE svg PUBLIC "-//W3C//DTD SVG 1.1//EN"
 "http://www.w3.org/Graphics/SVG/1.1/DTD/svg11.dtd">
<!-- Generated by graphviz version 2.43.0 (0)
 -->
<!-- Title: HydroCouple::Spatial::IMultiCurve Pages: 1 -->
<svg width="156pt" height="1181pt"
 viewBox="0.00 0.00 156.00 1181.00" xmlns="http://www.w3.org/2000/svg" xmlns:xlink="http://www.w3.org/1999/xlink">
<g id="graph0" class="graph" transform="scale(1 1) rotate(0) translate(4 1177)">
<title>HydroCouple::Spatial::IMultiCurve</title>
<!-- Node1 -->
<g id="Node000001" class="node">
<title>Node1</title>
<g id="a_Node000001"><a xlink:title="An IMultiCurve is a 1&#45;dimensional IGeometryCollection whose elements are ICurves.">
<polygon fill="#999999" stroke="transparent" points="130.5,-201 17.5,-201 17.5,-111 130.5,-111 130.5,-201"/>
<text text-anchor="start" x="23" y="-189" font-family="Monaco" font-size="10.00">HydroCouple::Spatial</text>
<text text-anchor="start" x="43" y="-178" font-family="Monaco" font-size="10.00">::IMultiCurve</text>
<text text-anchor="start" x="72.5" y="-163" font-family="Monaco" font-size="10.00"> </text>
<text text-anchor="start" x="26.5" y="-148" font-family="Monaco" font-size="10.00">+</text>
<text text-anchor="start" x="44" y="-148" font-family="Monaco" font-size="10.00">~IMultiCurve()</text>
<text text-anchor="start" x="26.5" y="-133" font-family="Monaco" font-size="10.00">+</text>
<text text-anchor="start" x="44" y="-133" font-family="Monaco" font-size="10.00">isClosed()</text>
<text text-anchor="start" x="26.5" y="-118" font-family="Monaco" font-size="10.00">+</text>
<text text-anchor="start" x="44" y="-118" font-family="Monaco" font-size="10.00">length()</text>
<polygon fill="#666666" stroke="#666666" points="18,-173 18,-173 131,-173 131,-173 18,-173"/>
<polygon fill="#666666" stroke="#666666" points="18,-158 18,-158 131,-158 131,-158 18,-158"/>
<polygon fill="none" stroke="#666666" points="17.5,-111 17.5,-201 130.5,-201 130.5,-111 17.5,-111"/>
</a>
</g>
</g>
<!-- Node4 -->
<g id="Node000004" class="node">
<title>Node4</title>
<g id="a_Node000004"><a xlink:href="../../d3/d70/class_hydro_couple_1_1_spatial_1_1_i_multi_line_string.html" target="_top" xlink:title="An IMultiLineString is an IMultiCurve whose elements are ILineStrings.">
<polygon fill="white" stroke="transparent" points="131,-75 17,-75 17,0 131,0 131,-75"/>
<text text-anchor="start" x="22.5" y="-62.5" font-family="Monaco" font-size="10.00">HydroCouple::Spatial</text>
<text text-anchor="start" x="32.5" y="-51.5" font-family="Monaco" font-size="10.00">::IMultiLineString</text>
<text text-anchor="start" x="72" y="-36.5" font-family="Monaco" font-size="10.00"> </text>
<text text-anchor="start" x="21" y="-21.5" font-family="Monaco" font-size="10.00">+</text>
<text text-anchor="start" x="34" y="-21.5" font-family="Monaco" font-size="10.00">~IMultiLineString()</text>
<text text-anchor="start" x="21" y="-6.5" font-family="Monaco" font-size="10.00">+</text>
<text text-anchor="start" x="34" y="-6.5" font-family="Monaco" font-size="10.00">lineString()</text>
<polygon fill="#666666" stroke="#666666" points="17,-46.5 17,-46.5 131,-46.5 131,-46.5 17,-46.5"/>
<polygon fill="#666666" stroke="#666666" points="17,-31.5 17,-31.5 131,-31.5 131,-31.5 17,-31.5"/>
<polygon fill="none" stroke="#666666" points="17,0 17,-75 131,-75 131,0 17,0"/>
</a>
</g>
</g>
<!-- Node1&#45;&gt;Node4 -->
<g id="edge3_Node000001_Node000004" class="edge">
<title>Node1&#45;&gt;Node4</title>
<g id="a_edge3_Node000001_Node000004"><a xlink:title=" ">
<path fill="none" stroke="#63b8ff" d="M74,-100.8C74,-92.06 74,-83.2 74,-75.01"/>
<polygon fill="none" stroke="#63b8ff" points="70.5,-100.96 74,-110.96 77.5,-100.96 70.5,-100.96"/>
</a>
</g>
</g>
<!-- Node2 -->
<g id="Node000002" class="node">
<title>Node2</title>
<g id="a_Node000002"><a xlink:href="../../d7/d83/class_hydro_couple_1_1_spatial_1_1_i_geometry_collection.html" target="_top" xlink:title="An IGeometryCollection is a geometric object that is a collection of some number of IGeometry objects...">
<polygon fill="white" stroke="transparent" points="143,-327 5,-327 5,-237 143,-237 143,-327"/>
<text text-anchor="start" x="20.5" y="-315" font-family="Monaco" font-size="10.00">HydroCouple::Spatial</text>
<text text-anchor="start" x="20.5" y="-304" font-family="Monaco" font-size="10.00">::IGeometryCollection</text>
<text text-anchor="start" x="72" y="-289" font-family="Monaco" font-size="10.00"> </text>
<text text-anchor="start" x="9" y="-274" font-family="Monaco" font-size="10.00">+</text>
<text text-anchor="start" x="22" y="-274" font-family="Monaco" font-size="10.00">~IGeometryCollection()</text>
<text text-anchor="start" x="9" y="-259" font-family="Monaco" font-size="10.00">+</text>
<text text-anchor="start" x="22" y="-259" font-family="Monaco" font-size="10.00">geometryCount()</text>
<text text-anchor="start" x="9" y="-244" font-family="Monaco" font-size="10.00">+</text>
<text text-anchor="start" x="22" y="-244" font-family="Monaco" font-size="10.00">geometry()</text>
<polygon fill="#666666" stroke="#666666" points="5,-299 5,-299 143,-299 143,-299 5,-299"/>
<polygon fill="#666666" stroke="#666666" points="5,-284 5,-284 143,-284 143,-284 5,-284"/>
<polygon fill="none" stroke="#666666" points="5,-237 5,-327 143,-327 143,-237 5,-237"/>
</a>
</g>
</g>
<!-- Node2&#45;&gt;Node1 -->
<g id="edge1_Node000001_Node000002" class="edge">
<title>Node2&#45;&gt;Node1</title>
<g id="a_edge1_Node000001_Node000002"><a xlink:title=" ">
<path fill="none" stroke="#63b8ff" d="M74,-226.73C74,-218.25 74,-209.57 74,-201.34"/>
<polygon fill="none" stroke="#63b8ff" points="70.5,-226.93 74,-236.93 77.5,-226.93 70.5,-226.93"/>
</a>
</g>
</g>
<!-- Node3 -->
<g id="Node000003" class="node">
<title>Node3</title>
<g id="a_Node000003"><a xlink:href="../../d3/d92/class_hydro_couple_1_1_spatial_1_1_i_geometry.html" target="_top" xlink:title="IGeometry is the root class of the geometry hierarchy.">
<polygon fill="white" stroke="transparent" points="148,-1173 0,-1173 0,-363 148,-363 148,-1173"/>
<text text-anchor="start" x="22.5" y="-1161" font-family="Monaco" font-size="10.00">HydroCouple::Spatial</text>
<text text-anchor="start" x="45" y="-1150" font-family="Monaco" font-size="10.00">::IGeometry</text>
<text text-anchor="start" x="72" y="-1135" font-family="Monaco" font-size="10.00"> </text>
<text text-anchor="start" x="4" y="-1120" font-family="Monaco" font-size="10.00">+</text>
<text text-anchor="start" x="17" y="-1120" font-family="Monaco" font-size="10.00">~IGeometry()</text>
<text text-anchor="start" x="4" y="-1105" font-family="Monaco" font-size="10.00">+</text>
<text text-anchor="start" x="17" y="-1105" font-family="Monaco" font-size="10.00">id()</text>
<text text-anchor="start" x="4" y="-1090" font-family="Monaco" font-size="10.00">+</text>
<text text-anchor="start" x="17" y="-1090" font-family="Monaco" font-size="10.00">index()</text>
<text text-anchor="start" x="4" y="-1075" font-family="Monaco" font-size="10.00">+</text>
<text text-anchor="start" x="17" y="-1075" font-family="Monaco" font-size="10.00">dimension()</text>
<text text-anchor="start" x="4" y="-1060" font-family="Monaco" font-size="10.00">+</text>
<text text-anchor="start" x="17" y="-1060" font-family="Monaco" font-size="10.00">coordinateDimension()</text>
<text text-anchor="start" x="4" y="-1045" font-family="Monaco" font-size="10.00">+</text>
<text text-anchor="start" x="17" y="-1045" font-family="Monaco" font-size="10.00">geometryType()</text>
<text text-anchor="start" x="4" y="-1030" font-family="Monaco" font-size="10.00">+</text>
<text text-anchor="start" x="17" y="-1030" font-family="Monaco" font-size="10.00">spatialReferenceSystem()</text>
<text text-anchor="start" x="4" y="-1015" font-family="Monaco" font-size="10.00">+</text>
<text text-anchor="start" x="17" y="-1015" font-family="Monaco" font-size="10.00">envelope()</text>
<text text-anchor="start" x="4" y="-1000" font-family="Monaco" font-size="10.00">+</text>
<text text-anchor="start" x="17" y="-1000" font-family="Monaco" font-size="10.00">getWKT()</text>
<text text-anchor="start" x="4" y="-985" font-family="Monaco" font-size="10.00">+</text>
<text text-anchor="start" x="17" y="-985" font-family="Monaco" font-size="10.00">getWKB()</text>
<text text-anchor="start" x="4" y="-970" font-family="Monaco" font-size="10.00">+</text>
<text text-anchor="start" x="17" y="-970" font-family="Monaco" font-size="10.00">isEmpty()</text>
<text text-anchor="start" x="4" y="-955" font-family="Monaco" font-size="10.00">+</text>
<text text-anchor="start" x="17" y="-955" font-family="Monaco" font-size="10.00">isSimple()</text>
<text text-anchor="start" x="4" y="-940" font-family="Monaco" font-size="10.00">+</text>
<text text-anchor="start" x="17" y="-940" font-family="Monaco" font-size="10.00">is3D()</text>
<text text-anchor="start" x="4" y="-925" font-family="Monaco" font-size="10.00">+</text>
<text text-anchor="start" x="17" y="-925" font-family="Monaco" font-size="10.00">isMeasured()</text>
<text text-anchor="start" x="4" y="-910" font-family="Monaco" font-size="10.00">+</text>
<text text-anchor="start" x="17" y="-910" font-family="Monaco" font-size="10.00">boundary()</text>
<text text-anchor="start" x="4" y="-895" font-family="Monaco" font-size="10.00">+</text>
<text text-anchor="start" x="17" y="-895" font-family="Monaco" font-size="10.00">equals()</text>
<text text-anchor="start" x="4" y="-880" font-family="Monaco" font-size="10.00">+</text>
<text text-anchor="start" x="17" y="-880" font-family="Monaco" font-size="10.00">disjoint()</text>
<text text-anchor="start" x="4" y="-865" font-family="Monaco" font-size="10.00">+</text>
<text text-anchor="start" x="17" y="-865" font-family="Monaco" font-size="10.00">intersects()</text>
<text text-anchor="start" x="4" y="-850" font-family="Monaco" font-size="10.00">+</text>
<text text-anchor="start" x="17" y="-850" font-family="Monaco" font-size="10.00">touches()</text>
<text text-anchor="start" x="4" y="-835" font-family="Monaco" font-size="10.00">+</text>
<text text-anchor="start" x="17" y="-835" font-family="Monaco" font-size="10.00">crosses()</text>
<text text-anchor="start" x="4" y="-820" font-family="Monaco" font-size="10.00">+</text>
<text text-anchor="start" x="17" y="-820" font-family="Monaco" font-size="10.00">within()</text>
<text text-anchor="start" x="4" y="-805" font-family="Monaco" font-size="10.00">+</text>
<text text-anchor="start" x="17" y="-805" font-family="Monaco" font-size="10.00">contains()</text>
<text text-anchor="start" x="4" y="-790" font-family="Monaco" font-size="10.00">+</text>
<text text-anchor="start" x="17" y="-790" font-family="Monaco" font-size="10.00">overlaps()</text>
<text text-anchor="start" x="4" y="-775" font-family="Monaco" font-size="10.00">+</text>
<text text-anchor="start" x="17" y="-775" font-family="Monaco" font-size="10.00">relate()</text>
<text text-anchor="start" x="4" y="-760" font-family="Monaco" font-size="10.00">+</text>
<text text-anchor="start" x="17" y="-760" font-family="Monaco" font-size="10.00">locateAlong()</text>
<text text-anchor="start" x="4" y="-745" font-family="Monaco" font-size="10.00">+</text>
<text text-anchor="start" x="17" y="-745" font-family="Monaco" font-size="10.00">locateBetween()</text>
<text text-anchor="start" x="4" y="-730" font-family="Monaco" font-size="10.00">+</text>
<text text-anchor="start" x="17" y="-730" font-family="Monaco" font-size="10.00">distance()</text>
<text text-anchor="start" x="4" y="-715" font-family="Monaco" font-size="10.00">+</text>
<text text-anchor="start" x="17" y="-715" font-family="Monaco" font-size="10.00">buffer()</text>
<text text-anchor="start" x="4" y="-700" font-family="Monaco" font-size="10.00">+</text>
<text text-anchor="start" x="17" y="-700" font-family="Monaco" font-size="10.00">convexHull()</text>
<text text-anchor="start" x="4" y="-685" font-family="Monaco" font-size="10.00">+</text>
<text text-anchor="start" x="17" y="-685" font-family="Monaco" font-size="10.00">intersection()</text>
<text text-anchor="start" x="4" y="-670" font-family="Monaco" font-size="10.00">+</text>
<text text-anchor="start" x="17" y="-670" font-family="Monaco" font-size="10.00">unionG()</text>
<text text-anchor="start" x="4" y="-655" font-family="Monaco" font-size="10.00">+</text>
<text text-anchor="start" x="17" y="-655" font-family="Monaco" font-size="10.00">difference()</text>
<text text-anchor="start" x="4" y="-640" font-family="Monaco" font-size="10.00">+</text>
<text text-anchor="start" x="17" y="-640" font-family="Monaco" font-size="10.00">symmetricDifference()</text>
<text text-anchor="start" x="5.5" y="-625" font-family="Monaco" font-size="10.00">*</text>
<text text-anchor="start" x="17" y="-625" font-family="Monaco" font-size="10.00">equals()</text>
<text text-anchor="start" x="5.5" y="-610" font-family="Monaco" font-size="10.00">*</text>
<text text-anchor="start" x="17" y="-610" font-family="Monaco" font-size="10.00">disjoint()</text>
<text text-anchor="start" x="5.5" y="-595" font-family="Monaco" font-size="10.00">*</text>
<text text-anchor="start" x="17" y="-595" font-family="Monaco" font-size="10.00">intersects()</text>
<text text-anchor="start" x="5.5" y="-580" font-family="Monaco" font-size="10.00">*</text>
<text text-anchor="start" x="17" y="-580" font-family="Monaco" font-size="10.00">touches()</text>
<text text-anchor="start" x="5.5" y="-565" font-family="Monaco" font-size="10.00">*</text>
<text text-anchor="start" x="17" y="-565" font-family="Monaco" font-size="10.00">crosses()</text>
<text text-anchor="start" x="5.5" y="-550" font-family="Monaco" font-size="10.00">*</text>
<text text-anchor="start" x="17" y="-550" font-family="Monaco" font-size="10.00">within()</text>
<text text-anchor="start" x="5.5" y="-535" font-family="Monaco" font-size="10.00">*</text>
<text text-anchor="start" x="17" y="-535" font-family="Monaco" font-size="10.00">contains()</text>
<text text-anchor="start" x="5.5" y="-520" font-family="Monaco" font-size="10.00">*</text>
<text text-anchor="start" x="17" y="-520" font-family="Monaco" font-size="10.00">overlaps()</text>
<text text-anchor="start" x="5.5" y="-505" font-family="Monaco" font-size="10.00">*</text>
<text text-anchor="start" x="17" y="-505" font-family="Monaco" font-size="10.00">relate()</text>
<text text-anchor="start" x="5.5" y="-490" font-family="Monaco" font-size="10.00">*</text>
<text text-anchor="start" x="17" y="-490" font-family="Monaco" font-size="10.00">locateAlong()</text>
<text text-anchor="start" x="5.5" y="-475" font-family="Monaco" font-size="10.00">*</text>
<text text-anchor="start" x="17" y="-475" font-family="Monaco" font-size="10.00">locateBetween()</text>
<text text-anchor="start" x="5.5" y="-460" font-family="Monaco" font-size="10.00">*</text>
<text text-anchor="start" x="17" y="-460" font-family="Monaco" font-size="10.00">distance()</text>
<text text-anchor="start" x="5.5" y="-445" font-family="Monaco" font-size="10.00">*</text>
<text text-anchor="start" x="17" y="-445" font-family="Monaco" font-size="10.00">buffer()</text>
<text text-anchor="start" x="5.5" y="-430" font-family="Monaco" font-size="10.00">*</text>
<text text-anchor="start" x="17" y="-430" font-family="Monaco" font-size="10.00">convexHull()</text>
<text text-anchor="start" x="5.5" y="-415" font-family="Monaco" font-size="10.00">*</text>
<text text-anchor="start" x="17" y="-415" font-family="Monaco" font-size="10.00">intersection()</text>
<text text-anchor="start" x="5.5" y="-400" font-family="Monaco" font-size="10.00">*</text>
<text text-anchor="start" x="17" y="-400" font-family="Monaco" font-size="10.00">unionG()</text>
<text text-anchor="start" x="5.5" y="-385" font-family="Monaco" font-size="10.00">*</text>
<text text-anchor="start" x="17" y="-385" font-family="Monaco" font-size="10.00">difference()</text>
<text text-anchor="start" x="5.5" y="-370" font-family="Monaco" font-size="10.00">*</text>
<text text-anchor="start" x="17" y="-370" font-family="Monaco" font-size="10.00">symmetricDifference()</text>
<polygon fill="#666666" stroke="#666666" points="0,-1145 0,-1145 148,-1145 148,-1145 0,-1145"/>
<polygon fill="#666666" stroke="#666666" points="0,-1130 0,-1130 148,-1130 148,-1130 0,-1130"/>
<polygon fill="none" stroke="#666666" points="0,-363 0,-1173 148,-1173 148,-363 0,-363"/>
</a>
</g>
</g>
<!-- Node3&#45;&gt;Node2 -->
<g id="edge2_Node000002_Node000003" class="edge">
<title>Node3&#45;&gt;Node2</title>
<g id="a_edge2_Node000002_Node000003"><a xlink:title=" ">
<path fill="none" stroke="#63b8ff" d="M74,-352.63C74,-343.39 74,-334.85 74,-327.14"/>
<polygon fill="none" stroke="#63b8ff" points="70.5,-352.92 74,-362.92 77.5,-352.92 70.5,-352.92"/>
</a>
</g>
</g>
</g>
</svg>
