<?xml version="1.0" encoding="UTF-8" standalone="no"?>
<!DOCTYPE svg PUBLIC "-//W3C//DTD SVG 1.1//EN"
 "http://www.w3.org/Graphics/SVG/1.1/DTD/svg11.dtd">
<!-- Generated by graphviz version 2.43.0 (0)
 -->
<!-- Title: WKBMultiLineStringZ Pages: 1 -->
<svg width="132pt" height="342pt"
 viewBox="0.00 0.00 132.00 342.00" xmlns="http://www.w3.org/2000/svg" xmlns:xlink="http://www.w3.org/1999/xlink">
<g id="graph0" class="graph" transform="scale(1 1) rotate(0) translate(4 338)">
<title>WKBMultiLineStringZ</title>
<!-- Node1 -->
<g id="node1" class="node">
<title>Node1</title>
<g id="a_node1"><a xlink:title="The WKBMultiLineStringZ struct.">
<polygon fill="#bfbfbf" stroke="black" points="0,-0.5 0,-79.5 120,-79.5 120,-0.5 0,-0.5"/>
<text text-anchor="middle" x="60" y="-67.5" font-family="Monaco" font-size="10.00">WKBMultiLineStringZ</text>
<polyline fill="none" stroke="black" points="0,-60.5 120,-60.5 "/>
<text text-anchor="start" x="8" y="-48.5" font-family="Monaco" font-size="10.00">+ byteOrder</text>
<text text-anchor="start" x="8" y="-37.5" font-family="Monaco" font-size="10.00">+ numLineStrings</text>
<text text-anchor="start" x="8" y="-26.5" font-family="Monaco" font-size="10.00">+ wkbType</text>
<polyline fill="none" stroke="black" points="0,-19.5 120,-19.5 "/>
<text text-anchor="middle" x="60" y="-7.5" font-family="Monaco" font-size="10.00"> </text>
</a>
</g>
</g>
<!-- Node2 -->
<g id="node2" class="node">
<title>Node2</title>
<g id="a_node2"><a xlink:href="../../d9/dd3/struct_w_k_b_line_string_z.html" target="_top" xlink:title="The WKBLineStringZ struct.">
<polygon fill="none" stroke="black" points="12.5,-127.5 12.5,-206.5 107.5,-206.5 107.5,-127.5 12.5,-127.5"/>
<text text-anchor="middle" x="60" y="-194.5" font-family="Monaco" font-size="10.00">WKBLineStringZ</text>
<polyline fill="none" stroke="black" points="12.5,-187.5 107.5,-187.5 "/>
<text text-anchor="start" x="20.5" y="-175.5" font-family="Monaco" font-size="10.00">+ byteOrder</text>
<text text-anchor="start" x="20.5" y="-164.5" font-family="Monaco" font-size="10.00">+ numPoints</text>
<text text-anchor="start" x="20.5" y="-153.5" font-family="Monaco" font-size="10.00">+ wkbType</text>
<polyline fill="none" stroke="black" points="12.5,-146.5 107.5,-146.5 "/>
<text text-anchor="middle" x="60" y="-134.5" font-family="Monaco" font-size="10.00"> </text>
</a>
</g>
</g>
<!-- Node2&#45;&gt;Node1 -->
<g id="edge1" class="edge">
<title>Node2&#45;&gt;Node1</title>
<path fill="none" stroke="#404040" d="M60,-127.48C60,-116.19 60,-103.67 60,-91.75"/>
<polygon fill="none" stroke="#404040" points="60,-91.61 56,-85.61 60,-79.61 64,-85.61 60,-91.61"/>
<text text-anchor="middle" x="92" y="-101" font-family="Monaco" font-size="10.00"> +lineStrings</text>
</g>
<!-- Node3 -->
<g id="node3" class="node">
<title>Node3</title>
<g id="a_node3"><a xlink:href="../../d6/d0c/struct_point_z.html" target="_top" xlink:title="The PointZ struct.">
<polygon fill="none" stroke="black" points="36,-254.5 36,-333.5 84,-333.5 84,-254.5 36,-254.5"/>
<text text-anchor="middle" x="60" y="-321.5" font-family="Monaco" font-size="10.00">PointZ</text>
<polyline fill="none" stroke="black" points="36,-314.5 84,-314.5 "/>
<text text-anchor="start" x="44" y="-302.5" font-family="Monaco" font-size="10.00">+ x</text>
<text text-anchor="start" x="44" y="-291.5" font-family="Monaco" font-size="10.00">+ y</text>
<text text-anchor="start" x="44" y="-280.5" font-family="Monaco" font-size="10.00">+ z</text>
<polyline fill="none" stroke="black" points="36,-273.5 84,-273.5 "/>
<text text-anchor="middle" x="60" y="-261.5" font-family="Monaco" font-size="10.00"> </text>
</a>
</g>
</g>
<!-- Node3&#45;&gt;Node2 -->
<g id="edge2" class="edge">
<title>Node3&#45;&gt;Node2</title>
<path fill="none" stroke="#404040" d="M60,-254.48C60,-243.19 60,-230.67 60,-218.75"/>
<polygon fill="none" stroke="#404040" points="60,-218.61 56,-212.61 60,-206.61 64,-212.61 60,-218.61"/>
<text text-anchor="middle" x="81" y="-228" font-family="Monaco" font-size="10.00"> +points</text>
</g>
</g>
</svg>
