<?xml version="1.0" encoding="UTF-8" standalone="no"?>
<!DOCTYPE svg PUBLIC "-//W3C//DTD SVG 1.1//EN"
 "http://www.w3.org/Graphics/SVG/1.1/DTD/svg11.dtd">
<!-- Generated by graphviz version 2.43.0 (0)
 -->
<!-- Title: WKBGeometryCollection Pages: 1 -->
<!--zoomable 610 -->
<svg id="main" version="1.1" xmlns="http://www.w3.org/2000/svg" xmlns:xlink="http://www.w3.org/1999/xlink" xml:space="preserve" onload="init(evt)">
<style type="text/css"><![CDATA[
.edge:hover path { stroke: red; }
.edge:hover polygon { stroke: red; fill: red; }
]]></style>
<script type="text/javascript"><![CDATA[
var edges = document.getElementsByTagName('g');
if (edges && edges.length) {
  for (var i=0;i<edges.length;i++) {
    if (edges[i].id.substr(0,4)=='edge') {
      edges[i].setAttribute('class','edge');
    }
  }
}
]]></script>
        <defs>
                <circle id="rim" cx="0" cy="0" r="7"/>
                <circle id="rim2" cx="0" cy="0" r="3.5"/>
                <g id="zoomPlus">
                        <use xlink:href="#rim" fill="#404040">
                                <set attributeName="fill" to="#808080" begin="zoomplus.mouseover" end="zoomplus.mouseout"/>
                        </use>
                        <path d="M-4,0h8M0,-4v8" fill="none" stroke="white" stroke-width="1.5" pointer-events="none"/>
                </g>
                <g id="zoomMin">
                        <use xlink:href="#rim" fill="#404040">
                                <set attributeName="fill" to="#808080" begin="zoomminus.mouseover" end="zoomminus.mouseout"/>
                        </use>
                        <path d="M-4,0h8" fill="none" stroke="white" stroke-width="1.5" pointer-events="none"/>
                </g>
                <g id="dirArrow">
                        <path fill="none" stroke="white" stroke-width="1.5" d="M0,-3.0v7 M-2.5,-0.5L0,-3.0L2.5,-0.5"/>
                </g>
               <g id="resetDef">
                       <use xlink:href="#rim2" fill="#404040">
                               <set attributeName="fill" to="#808080" begin="reset.mouseover" end="reset.mouseout"/>
                       </use>
               </g>
        </defs>

<script type="text/javascript">
var viewWidth = 1133;
var viewHeight = 610;
var sectionId = 'dynsection-0';
</script>
<script xlink:href="../../svgpan.js"/>
<svg id="graph" class="graph">
<g id="viewport">
<title>WKBGeometryCollection</title>
<!-- Node1 -->
<g id="node1" class="node">
<title>Node1</title>
<g id="a_node1"><a xlink:title="The WKBGeometryCollection struct.">
<polygon fill="#bfbfbf" stroke="black" points="0,-105.5 0,-184.5 137,-184.5 137,-105.5 0,-105.5"/>
<text text-anchor="middle" x="68.5" y="-172.5" font-family="Monaco" font-size="10.00">WKBGeometryCollection</text>
<polyline fill="none" stroke="black" points="0,-165.5 137,-165.5 "/>
<text text-anchor="start" x="8" y="-153.5" font-family="Monaco" font-size="10.00">+ byte_order</text>
<text text-anchor="start" x="8" y="-142.5" font-family="Monaco" font-size="10.00">+ numGeometries</text>
<text text-anchor="start" x="8" y="-131.5" font-family="Monaco" font-size="10.00">+ wkbType</text>
<polyline fill="none" stroke="black" points="0,-124.5 137,-124.5 "/>
<text text-anchor="middle" x="68.5" y="-112.5" font-family="Monaco" font-size="10.00"> </text>
</a>
</g>
</g>
<!-- Node2 -->
<g id="node2" class="node">
<title>Node2</title>
<g id="a_node2"><a xlink:href="../../da/d36/union_w_k_b_geometry.html" target="_top" xlink:title="The WKBGeometry union.">
<polygon fill="none" stroke="black" points="537,-0.5 537,-57.5 626,-57.5 626,-0.5 537,-0.5"/>
<text text-anchor="middle" x="581.5" y="-45.5" font-family="Monaco" font-size="10.00">WKBGeometry</text>
<polyline fill="none" stroke="black" points="537,-38.5 626,-38.5 "/>
<text text-anchor="middle" x="581.5" y="-26.5" font-family="Monaco" font-size="10.00"> </text>
<polyline fill="none" stroke="black" points="537,-19.5 626,-19.5 "/>
<text text-anchor="middle" x="581.5" y="-7.5" font-family="Monaco" font-size="10.00"> </text>
</a>
</g>
</g>
<!-- Node1&#45;&gt;Node2 -->
<g id="edge2" class="edge">
<title>Node1&#45;&gt;Node2</title>
<path fill="none" stroke="#404040" d="M41.57,-105.42C37.57,-94.93 36.97,-84.21 44.5,-76 76.49,-41.15 393.04,-32.66 524.61,-30.62"/>
<polygon fill="none" stroke="#404040" points="524.75,-30.62 530.69,-26.53 536.75,-30.45 530.81,-34.53 524.75,-30.62"/>
<text text-anchor="middle" x="74" y="-79" font-family="Monaco" font-size="10.00"> +collection</text>
</g>
<!-- Node2&#45;&gt;Node1 -->
<g id="edge1" class="edge">
<title>Node2&#45;&gt;Node1</title>
<path fill="none" stroke="#404040" d="M536.71,-30.06C435.42,-30.9 192.12,-37.03 121.5,-76 112.55,-80.94 104.61,-88.08 97.77,-95.9"/>
<polygon fill="none" stroke="#404040" points="97.74,-95.92 97.12,-103.11 90.25,-105.29 90.87,-98.11 97.74,-95.92"/>
<text text-anchor="middle" x="155" y="-79" font-family="Monaco" font-size="10.00"> +geometries</text>
</g>
<!-- Node3 -->
<g id="node3" class="node">
<title>Node3</title>
<g id="a_node3"><a xlink:href="../../df/df9/struct_w_k_b_polygon.html" target="_top" xlink:title="The WKBPolygon struct.">
<polygon fill="none" stroke="black" points="408,-301.5 408,-380.5 487,-380.5 487,-301.5 408,-301.5"/>
<text text-anchor="middle" x="447.5" y="-368.5" font-family="Monaco" font-size="10.00">WKBPolygon</text>
<polyline fill="none" stroke="black" points="408,-361.5 487,-361.5 "/>
<text text-anchor="start" x="416" y="-349.5" font-family="Monaco" font-size="10.00">+ byteOrder</text>
<text text-anchor="start" x="416" y="-338.5" font-family="Monaco" font-size="10.00">+ numRings</text>
<text text-anchor="start" x="416" y="-327.5" font-family="Monaco" font-size="10.00">+ wkbType</text>
<polyline fill="none" stroke="black" points="408,-320.5 487,-320.5 "/>
<text text-anchor="middle" x="447.5" y="-308.5" font-family="Monaco" font-size="10.00"> </text>
</a>
</g>
</g>
<!-- Node3&#45;&gt;Node2 -->
<g id="edge3" class="edge">
<title>Node3&#45;&gt;Node2</title>
<path fill="none" stroke="#404040" d="M407.74,-323.9C323.06,-287.37 138.39,-194.41 211.5,-105 250.41,-57.41 430.95,-39.29 524.67,-33.01"/>
<polygon fill="none" stroke="#404040" points="524.78,-33 530.51,-28.63 536.75,-32.23 531.02,-36.61 524.78,-33"/>
<text text-anchor="middle" x="237" y="-142.5" font-family="Monaco" font-size="10.00"> +polygon</text>
</g>
<!-- Node9 -->
<g id="node9" class="node">
<title>Node9</title>
<g id="a_node9"><a xlink:href="../../d6/d0e/struct_w_k_b_t_i_n.html" target="_top" xlink:title="The WKBTIN struct.">
<polygon fill="none" stroke="black" points="271.5,-105.5 271.5,-184.5 365.5,-184.5 365.5,-105.5 271.5,-105.5"/>
<text text-anchor="middle" x="318.5" y="-172.5" font-family="Monaco" font-size="10.00">WKBTIN</text>
<polyline fill="none" stroke="black" points="271.5,-165.5 365.5,-165.5 "/>
<text text-anchor="start" x="279.5" y="-153.5" font-family="Monaco" font-size="10.00">+ byteOrder</text>
<text text-anchor="start" x="279.5" y="-142.5" font-family="Monaco" font-size="10.00">+ numPolygons</text>
<text text-anchor="start" x="279.5" y="-131.5" font-family="Monaco" font-size="10.00">+ wkbType</text>
<polyline fill="none" stroke="black" points="271.5,-124.5 365.5,-124.5 "/>
<text text-anchor="middle" x="318.5" y="-112.5" font-family="Monaco" font-size="10.00"> </text>
</a>
</g>
</g>
<!-- Node3&#45;&gt;Node9 -->
<g id="edge12" class="edge">
<title>Node3&#45;&gt;Node9</title>
<path fill="none" stroke="#404040" d="M407.69,-305.93C400.49,-298.77 393.41,-290.96 387.5,-283 367.63,-256.25 350.7,-222.92 338.58,-195.83"/>
<polygon fill="none" stroke="#404040" points="338.5,-195.64 332.43,-191.74 333.69,-184.64 339.76,-188.54 338.5,-195.64"/>
<text text-anchor="middle" x="415.5" y="-240.5" font-family="Monaco" font-size="10.00"> +polygons</text>
</g>
<!-- Node10 -->
<g id="node10" class="node">
<title>Node10</title>
<g id="a_node10"><a xlink:href="../../d5/d31/struct_w_k_b_polyhedral_surface.html" target="_top" xlink:title="The WKBPolyhedralSurface struct.">
<polygon fill="none" stroke="black" points="383.5,-105.5 383.5,-184.5 511.5,-184.5 511.5,-105.5 383.5,-105.5"/>
<text text-anchor="middle" x="447.5" y="-172.5" font-family="Monaco" font-size="10.00">WKBPolyhedralSurface</text>
<polyline fill="none" stroke="black" points="383.5,-165.5 511.5,-165.5 "/>
<text text-anchor="start" x="391.5" y="-153.5" font-family="Monaco" font-size="10.00">+ byteOrder</text>
<text text-anchor="start" x="391.5" y="-142.5" font-family="Monaco" font-size="10.00">+ numPolygons</text>
<text text-anchor="start" x="391.5" y="-131.5" font-family="Monaco" font-size="10.00">+ wkbType</text>
<polyline fill="none" stroke="black" points="383.5,-124.5 511.5,-124.5 "/>
<text text-anchor="middle" x="447.5" y="-112.5" font-family="Monaco" font-size="10.00"> </text>
</a>
</g>
</g>
<!-- Node3&#45;&gt;Node10 -->
<g id="edge14" class="edge">
<title>Node3&#45;&gt;Node10</title>
<path fill="none" stroke="#404040" d="M447.5,-301.21C447.5,-271.2 447.5,-229.41 447.5,-196.75"/>
<polygon fill="none" stroke="#404040" points="447.5,-196.73 443.5,-190.73 447.5,-184.73 451.5,-190.73 447.5,-196.73"/>
<text text-anchor="middle" x="475.5" y="-240.5" font-family="Monaco" font-size="10.00"> +polygons</text>
</g>
<!-- Node11 -->
<g id="node11" class="node">
<title>Node11</title>
<g id="a_node11"><a xlink:href="../../da/dc4/struct_w_k_b_multi_polygon.html" target="_top" xlink:title="The WKBMultiPolygon struct.">
<polygon fill="none" stroke="black" points="529.5,-105.5 529.5,-184.5 633.5,-184.5 633.5,-105.5 529.5,-105.5"/>
<text text-anchor="middle" x="581.5" y="-172.5" font-family="Monaco" font-size="10.00">WKBMultiPolygon</text>
<polyline fill="none" stroke="black" points="529.5,-165.5 633.5,-165.5 "/>
<text text-anchor="start" x="537.5" y="-153.5" font-family="Monaco" font-size="10.00">+ byteOrder</text>
<text text-anchor="start" x="537.5" y="-142.5" font-family="Monaco" font-size="10.00">+ numPolygons</text>
<text text-anchor="start" x="537.5" y="-131.5" font-family="Monaco" font-size="10.00">+ wkbType</text>
<polyline fill="none" stroke="black" points="529.5,-124.5 633.5,-124.5 "/>
<text text-anchor="middle" x="581.5" y="-112.5" font-family="Monaco" font-size="10.00"> </text>
</a>
</g>
</g>
<!-- Node3&#45;&gt;Node11 -->
<g id="edge17" class="edge">
<title>Node3&#45;&gt;Node11</title>
<path fill="none" stroke="#404040" d="M487.13,-305.79C494.34,-298.64 501.48,-290.87 507.5,-283 528.05,-256.14 546.19,-222.81 559.37,-195.75"/>
<polygon fill="none" stroke="#404040" points="559.54,-195.4 558.51,-188.26 564.71,-184.57 565.73,-191.71 559.54,-195.4"/>
<text text-anchor="middle" x="583.5" y="-240.5" font-family="Monaco" font-size="10.00"> +polygons</text>
</g>
<!-- Node4 -->
<g id="node4" class="node">
<title>Node4</title>
<g id="a_node4"><a xlink:href="../../d6/db5/struct_linear_ring.html" target="_top" xlink:title="The LinearRing struct.">
<polygon fill="none" stroke="black" points="629.5,-428.5 629.5,-485.5 709.5,-485.5 709.5,-428.5 629.5,-428.5"/>
<text text-anchor="middle" x="669.5" y="-473.5" font-family="Monaco" font-size="10.00">LinearRing</text>
<polyline fill="none" stroke="black" points="629.5,-466.5 709.5,-466.5 "/>
<text text-anchor="start" x="637.5" y="-454.5" font-family="Monaco" font-size="10.00">+ numPoints</text>
<polyline fill="none" stroke="black" points="629.5,-447.5 709.5,-447.5 "/>
<text text-anchor="middle" x="669.5" y="-435.5" font-family="Monaco" font-size="10.00"> </text>
</a>
</g>
</g>
<!-- Node4&#45;&gt;Node3 -->
<g id="edge4" class="edge">
<title>Node4&#45;&gt;Node3</title>
<path fill="none" stroke="#404040" d="M629.3,-435.36C592.41,-416.41 537.61,-388.27 497.83,-367.84"/>
<polygon fill="none" stroke="#404040" points="497.71,-367.78 490.54,-368.6 487.03,-362.3 494.19,-361.48 497.71,-367.78"/>
<text text-anchor="middle" x="596.5" y="-402" font-family="Monaco" font-size="10.00"> +rings</text>
</g>
<!-- Node8 -->
<g id="node8" class="node">
<title>Node8</title>
<g id="a_node8"><a xlink:href="../../db/de1/struct_w_k_b_triangle.html" target="_top" xlink:title="The WKBTriangle struct.">
<polygon fill="none" stroke="black" points="630.5,-203.5 630.5,-282.5 708.5,-282.5 708.5,-203.5 630.5,-203.5"/>
<text text-anchor="middle" x="669.5" y="-270.5" font-family="Monaco" font-size="10.00">WKBTriangle</text>
<polyline fill="none" stroke="black" points="630.5,-263.5 708.5,-263.5 "/>
<text text-anchor="start" x="638.5" y="-251.5" font-family="Monaco" font-size="10.00">+ byteOrder</text>
<text text-anchor="start" x="638.5" y="-240.5" font-family="Monaco" font-size="10.00">+ numRings</text>
<text text-anchor="start" x="638.5" y="-229.5" font-family="Monaco" font-size="10.00">+ wkbType</text>
<polyline fill="none" stroke="black" points="630.5,-222.5 708.5,-222.5 "/>
<text text-anchor="middle" x="669.5" y="-210.5" font-family="Monaco" font-size="10.00"> </text>
</a>
</g>
</g>
<!-- Node4&#45;&gt;Node8 -->
<g id="edge10" class="edge">
<title>Node4&#45;&gt;Node8</title>
<path fill="none" stroke="#404040" d="M669.5,-428.28C669.5,-394.54 669.5,-336.9 669.5,-295.05"/>
<polygon fill="none" stroke="#404040" points="669.5,-294.88 665.5,-288.88 669.5,-282.88 673.5,-288.88 669.5,-294.88"/>
<text text-anchor="middle" x="687.5" y="-402" font-family="Monaco" font-size="10.00"> +rings</text>
</g>
<!-- Node5 -->
<g id="node5" class="node">
<title>Node5</title>
<g id="a_node5"><a xlink:href="../../d8/dc8/struct_point.html" target="_top" xlink:title="The Point struct.">
<polygon fill="none" stroke="black" points="761,-533.5 761,-601.5 802,-601.5 802,-533.5 761,-533.5"/>
<text text-anchor="middle" x="781.5" y="-589.5" font-family="Monaco" font-size="10.00">Point</text>
<polyline fill="none" stroke="black" points="761,-582.5 802,-582.5 "/>
<text text-anchor="start" x="769" y="-570.5" font-family="Monaco" font-size="10.00">+ x</text>
<text text-anchor="start" x="769" y="-559.5" font-family="Monaco" font-size="10.00">+ y</text>
<polyline fill="none" stroke="black" points="761,-552.5 802,-552.5 "/>
<text text-anchor="middle" x="781.5" y="-540.5" font-family="Monaco" font-size="10.00"> </text>
</a>
</g>
</g>
<!-- Node5&#45;&gt;Node4 -->
<g id="edge5" class="edge">
<title>Node5&#45;&gt;Node4</title>
<path fill="none" stroke="#404040" d="M760.79,-547.91C750.12,-538.23 736.99,-526.11 725.5,-515 718.63,-508.35 711.4,-501.15 704.5,-494.18"/>
<polygon fill="none" stroke="#404040" points="704.41,-494.09 697.35,-492.62 696,-485.53 703.06,-487.01 704.41,-494.09"/>
<text text-anchor="middle" x="746.5" y="-507" font-family="Monaco" font-size="10.00"> +points</text>
</g>
<!-- Node7 -->
<g id="node7" class="node">
<title>Node7</title>
<g id="a_node7"><a xlink:href="../../d9/db2/struct_w_k_b_point.html" target="_top" xlink:title="The WKBPoint struct.">
<polygon fill="none" stroke="black" points="743,-307 743,-375 820,-375 820,-307 743,-307"/>
<text text-anchor="middle" x="781.5" y="-363" font-family="Monaco" font-size="10.00">WKBPoint</text>
<polyline fill="none" stroke="black" points="743,-356 820,-356 "/>
<text text-anchor="start" x="751" y="-344" font-family="Monaco" font-size="10.00">+ byteOrder</text>
<text text-anchor="start" x="751" y="-333" font-family="Monaco" font-size="10.00">+ wkbType</text>
<polyline fill="none" stroke="black" points="743,-326 820,-326 "/>
<text text-anchor="middle" x="781.5" y="-314" font-family="Monaco" font-size="10.00"> </text>
</a>
</g>
</g>
<!-- Node5&#45;&gt;Node7 -->
<g id="edge8" class="edge">
<title>Node5&#45;&gt;Node7</title>
<path fill="none" stroke="#404040" d="M781.5,-533.37C781.5,-494.74 781.5,-430.67 781.5,-387.42"/>
<polygon fill="none" stroke="#404040" points="781.5,-387.26 777.5,-381.26 781.5,-375.26 785.5,-381.26 781.5,-387.26"/>
<text text-anchor="middle" x="800" y="-454.5" font-family="Monaco" font-size="10.00"> +point</text>
</g>
<!-- Node13 -->
<g id="node13" class="node">
<title>Node13</title>
<g id="a_node13"><a xlink:href="../../dd/d46/struct_w_k_b_line_string.html" target="_top" xlink:title="The WKBLineString struct.">
<polygon fill="none" stroke="black" points="891,-301.5 891,-380.5 980,-380.5 980,-301.5 891,-301.5"/>
<text text-anchor="middle" x="935.5" y="-368.5" font-family="Monaco" font-size="10.00">WKBLineString</text>
<polyline fill="none" stroke="black" points="891,-361.5 980,-361.5 "/>
<text text-anchor="start" x="899" y="-349.5" font-family="Monaco" font-size="10.00">+ byteOrder</text>
<text text-anchor="start" x="899" y="-338.5" font-family="Monaco" font-size="10.00">+ numPoints</text>
<text text-anchor="start" x="899" y="-327.5" font-family="Monaco" font-size="10.00">+ wkbType</text>
<polyline fill="none" stroke="black" points="891,-320.5 980,-320.5 "/>
<text text-anchor="middle" x="935.5" y="-308.5" font-family="Monaco" font-size="10.00"> </text>
</a>
</g>
</g>
<!-- Node5&#45;&gt;Node13 -->
<g id="edge20" class="edge">
<title>Node5&#45;&gt;Node13</title>
<path fill="none" stroke="#404040" d="M802.27,-536.22C827.86,-498.91 871.68,-435.04 902.04,-390.78"/>
<polygon fill="none" stroke="#404040" points="902.08,-390.71 902.18,-383.5 908.87,-380.82 908.78,-388.03 902.08,-390.71"/>
<text text-anchor="middle" x="897.5" y="-454.5" font-family="Monaco" font-size="10.00"> +points</text>
</g>
<!-- Node6 -->
<g id="node6" class="node">
<title>Node6</title>
<g id="a_node6"><a xlink:href="../../df/dc9/struct_w_k_b_multi_point.html" target="_top" xlink:title="The WKBMultiPoint struct.">
<polygon fill="none" stroke="black" points="810,-105.5 810,-184.5 899,-184.5 899,-105.5 810,-105.5"/>
<text text-anchor="middle" x="854.5" y="-172.5" font-family="Monaco" font-size="10.00">WKBMultiPoint</text>
<polyline fill="none" stroke="black" points="810,-165.5 899,-165.5 "/>
<text text-anchor="start" x="818" y="-153.5" font-family="Monaco" font-size="10.00">+ byteOrder</text>
<text text-anchor="start" x="818" y="-142.5" font-family="Monaco" font-size="10.00">+ numPoints</text>
<text text-anchor="start" x="818" y="-131.5" font-family="Monaco" font-size="10.00">+ wkbType</text>
<polyline fill="none" stroke="black" points="810,-124.5 899,-124.5 "/>
<text text-anchor="middle" x="854.5" y="-112.5" font-family="Monaco" font-size="10.00"> </text>
</a>
</g>
</g>
<!-- Node6&#45;&gt;Node2 -->
<g id="edge6" class="edge">
<title>Node6&#45;&gt;Node2</title>
<path fill="none" stroke="#404040" d="M812.76,-105.16C799.42,-94.41 784.06,-83.61 768.5,-76 727.18,-55.78 676.25,-44 637.98,-37.44"/>
<polygon fill="none" stroke="#404040" points="637.87,-37.42 631.3,-40.4 626.03,-35.49 632.59,-32.51 637.87,-37.42"/>
<text text-anchor="middle" x="810.5" y="-79" font-family="Monaco" font-size="10.00"> +mpoint</text>
</g>
<!-- Node7&#45;&gt;Node2 -->
<g id="edge15" class="edge">
<title>Node7&#45;&gt;Node2</title>
<path fill="none" stroke="#404040" d="M777.17,-306.56C769.21,-249.44 750.83,-136.24 726.5,-105 704.26,-76.45 668.14,-57.72 637.51,-46.12"/>
<polygon fill="none" stroke="#404040" points="637.37,-46.07 630.37,-47.81 626.08,-42.02 633.08,-40.28 637.37,-46.07"/>
<text text-anchor="middle" x="774" y="-142.5" font-family="Monaco" font-size="10.00"> +point</text>
</g>
<!-- Node7&#45;&gt;Node6 -->
<g id="edge7" class="edge">
<title>Node7&#45;&gt;Node6</title>
<path fill="none" stroke="#404040" d="M794.05,-306.65C805.51,-276.19 822.62,-230.72 835.71,-195.93"/>
<polygon fill="none" stroke="#404040" points="835.76,-195.8 834.13,-188.78 839.99,-184.57 841.62,-191.6 835.76,-195.8"/>
<text text-anchor="middle" x="854.5" y="-240.5" font-family="Monaco" font-size="10.00"> +points</text>
</g>
<!-- Node8&#45;&gt;Node2 -->
<g id="edge9" class="edge">
<title>Node8&#45;&gt;Node2</title>
<path fill="none" stroke="#404040" d="M672.52,-203.21C673.44,-167.6 670,-114.66 646.5,-76 643.47,-71.02 639.68,-66.43 635.45,-62.24"/>
<polygon fill="none" stroke="#404040" points="635.31,-62.12 628.16,-61.17 626.28,-54.21 633.43,-55.15 635.31,-62.12"/>
<text text-anchor="middle" x="698" y="-142.5" font-family="Monaco" font-size="10.00"> +triangle</text>
</g>
<!-- Node9&#45;&gt;Node2 -->
<g id="edge11" class="edge">
<title>Node9&#45;&gt;Node2</title>
<path fill="none" stroke="#404040" d="M365.75,-110.16C368.68,-108.36 371.61,-106.62 374.5,-105 422.65,-78 482.35,-57.59 525.25,-44.93"/>
<polygon fill="none" stroke="#404040" points="525.35,-44.9 530,-39.39 536.88,-41.57 532.23,-47.08 525.35,-44.9"/>
<text text-anchor="middle" x="447" y="-79" font-family="Monaco" font-size="10.00"> +tin</text>
</g>
<!-- Node10&#45;&gt;Node2 -->
<g id="edge13" class="edge">
<title>Node10&#45;&gt;Node2</title>
<path fill="none" stroke="#404040" d="M458.78,-105.31C463.28,-94.82 469.38,-84.12 477.5,-76 490.71,-62.78 508.37,-53.05 525.38,-46.03"/>
<polygon fill="none" stroke="#404040" points="525.78,-45.88 529.96,-40 536.99,-41.6 532.81,-47.47 525.78,-45.88"/>
<text text-anchor="middle" x="527.5" y="-79" font-family="Monaco" font-size="10.00"> +polyhedralsurface</text>
</g>
<!-- Node11&#45;&gt;Node2 -->
<g id="edge16" class="edge">
<title>Node11&#45;&gt;Node2</title>
<path fill="none" stroke="#404040" d="M581.5,-105.4C581.5,-93.93 581.5,-81.33 581.5,-69.78"/>
<polygon fill="none" stroke="#404040" points="581.5,-69.75 577.5,-63.75 581.5,-57.75 585.5,-63.75 581.5,-69.75"/>
<text text-anchor="middle" x="612" y="-79" font-family="Monaco" font-size="10.00"> +mpolygon</text>
</g>
<!-- Node12 -->
<g id="node12" class="node">
<title>Node12</title>
<g id="a_node12"><a xlink:href="../../dc/dda/struct_w_k_b_multi_line_string.html" target="_top" xlink:title="The WKBMultiLineString struct.">
<polygon fill="none" stroke="black" points="1012,-105.5 1012,-184.5 1125,-184.5 1125,-105.5 1012,-105.5"/>
<text text-anchor="middle" x="1068.5" y="-172.5" font-family="Monaco" font-size="10.00">WKBMultiLineString</text>
<polyline fill="none" stroke="black" points="1012,-165.5 1125,-165.5 "/>
<text text-anchor="start" x="1020" y="-153.5" font-family="Monaco" font-size="10.00">+ byteOrder</text>
<text text-anchor="start" x="1020" y="-142.5" font-family="Monaco" font-size="10.00">+ numLineStrings</text>
<text text-anchor="start" x="1020" y="-131.5" font-family="Monaco" font-size="10.00">+ wkbType</text>
<polyline fill="none" stroke="black" points="1012,-124.5 1125,-124.5 "/>
<text text-anchor="middle" x="1068.5" y="-112.5" font-family="Monaco" font-size="10.00"> </text>
</a>
</g>
</g>
<!-- Node12&#45;&gt;Node2 -->
<g id="edge18" class="edge">
<title>Node12&#45;&gt;Node2</title>
<path fill="none" stroke="#404040" d="M1011.95,-105.62C992.86,-94.36 970.95,-83.15 949.5,-76 843.4,-40.63 711.86,-32.08 638.25,-30.24"/>
<polygon fill="none" stroke="#404040" points="638.07,-30.24 631.98,-34.11 626.07,-29.98 632.15,-26.11 638.07,-30.24"/>
<text text-anchor="middle" x="1008" y="-79" font-family="Monaco" font-size="10.00"> +mlinestring</text>
</g>
<!-- Node13&#45;&gt;Node2 -->
<g id="edge21" class="edge">
<title>Node13&#45;&gt;Node2</title>
<path fill="none" stroke="#404040" d="M941.96,-301.09C948.08,-250.58 950.79,-162.15 907.5,-105 875.41,-62.64 722.61,-42.52 638.08,-34.48"/>
<polygon fill="none" stroke="#404040" points="638.07,-34.48 631.73,-37.92 626.13,-33.39 632.47,-29.95 638.07,-34.48"/>
<text text-anchor="middle" x="969.5" y="-142.5" font-family="Monaco" font-size="10.00"> +linestring</text>
</g>
<!-- Node13&#45;&gt;Node12 -->
<g id="edge19" class="edge">
<title>Node13&#45;&gt;Node12</title>
<path fill="none" stroke="#404040" d="M962.09,-301.21C983.03,-270.68 1012.33,-227.94 1034.88,-195.03"/>
<polygon fill="none" stroke="#404040" points="1035.17,-194.62 1035.26,-187.41 1041.95,-184.73 1041.86,-191.94 1035.17,-194.62"/>
<text text-anchor="middle" x="1061.5" y="-240.5" font-family="Monaco" font-size="10.00"> +lineStrings</text>
</g>
</g>
</svg>
        <g id="navigator" transform="translate(0 0)" fill="#404254">
                <rect fill="#f2f5e9" fill-opacity="0.5" stroke="#606060" stroke-width=".5" x="0" y="0" width="60" height="60"/>
                <use id="zoomplus" xlink:href="#zoomPlus" x="17" y="9" onmousedown="handleZoom(evt,'in')"/>
                <use id="zoomminus" xlink:href="#zoomMin" x="42" y="9" onmousedown="handleZoom(evt,'out')"/>
                <use id="reset" xlink:href="#resetDef" x="30" y="36" onmousedown="handleReset()"/>
                <g id="arrowUp" xlink:href="#dirArrow" transform="translate(30 24)" onmousedown="handlePan(0,-1)">
                  <use xlink:href="#rim" fill="#404040">
                        <set attributeName="fill" to="#808080" begin="arrowUp.mouseover" end="arrowUp.mouseout"/>
                  </use>
                  <path fill="none" stroke="white" stroke-width="1.5" d="M0,-3.0v7 M-2.5,-0.5L0,-3.0L2.5,-0.5"/>
                </g>
                <g id="arrowRight" xlink:href="#dirArrow" transform="rotate(90) translate(36 -43)" onmousedown="handlePan(1,0)">
                  <use xlink:href="#rim" fill="#404040">
                        <set attributeName="fill" to="#808080" begin="arrowRight.mouseover" end="arrowRight.mouseout"/>
                  </use>
                  <path fill="none" stroke="white" stroke-width="1.5" d="M0,-3.0v7 M-2.5,-0.5L0,-3.0L2.5,-0.5"/>
                </g>
                <g id="arrowDown" xlink:href="#dirArrow" transform="rotate(180) translate(-30 -48)" onmousedown="handlePan(0,1)">
                  <use xlink:href="#rim" fill="#404040">
                        <set attributeName="fill" to="#808080" begin="arrowDown.mouseover" end="arrowDown.mouseout"/>
                  </use>
                  <path fill="none" stroke="white" stroke-width="1.5" d="M0,-3.0v7 M-2.5,-0.5L0,-3.0L2.5,-0.5"/>
                </g>
                <g id="arrowLeft" xlink:href="#dirArrow" transform="rotate(270) translate(-36 17)" onmousedown="handlePan(-1,0)">
                  <use xlink:href="#rim" fill="#404040">
                        <set attributeName="fill" to="#808080" begin="arrowLeft.mouseover" end="arrowLeft.mouseout"/>
                  </use>
                  <path fill="none" stroke="white" stroke-width="1.5" d="M0,-3.0v7 M-2.5,-0.5L0,-3.0L2.5,-0.5"/>
                </g>
        </g>
        <svg viewBox="0 0 15 15" width="100%" height="30px" preserveAspectRatio="xMaxYMin meet">
         <g id="arrow_out" transform="scale(0.3 0.3)">
          <a xlink:href="struct_w_k_b_geometry_collection__coll__graph_org.svg" target="_base">
           <rect id="button" ry="5" rx="5" y="6" x="6" height="38" width="38"
                fill="#f2f5e9" fill-opacity="0.5" stroke="#606060" stroke-width="1.0"/>
           <path id="arrow"
             d="M 11.500037,31.436501 C 11.940474,20.09759 22.043105,11.32322 32.158766,21.979434 L 37.068811,17.246167 C 37.068811,17.246167 37.088388,32 37.088388,32 L 22.160133,31.978069 C 22.160133,31.978069 26.997745,27.140456 26.997745,27.140456 C 18.528582,18.264221 13.291696,25.230495 11.500037,31.436501 z"
             style="fill:#404040;"/>
          </a>
         </g>
        </svg>
</svg>
