<?xml version="1.0" encoding="UTF-8" standalone="no"?>
<!DOCTYPE svg PUBLIC "-//W3C//DTD SVG 1.1//EN"
 "http://www.w3.org/Graphics/SVG/1.1/DTD/svg11.dtd">
<!-- Generated by graphviz version 2.43.0 (0)
 -->
<!-- Title: LinearRingZ Pages: 1 -->
<svg width="87pt" height="183pt"
 viewBox="0.00 0.00 86.50 183.00" xmlns="http://www.w3.org/2000/svg" xmlns:xlink="http://www.w3.org/1999/xlink">
<g id="graph0" class="graph" transform="scale(1 1) rotate(0) translate(4 179)">
<title>LinearRingZ</title>
<!-- Node1 -->
<g id="Node000001" class="node">
<title>Node1</title>
<g id="a_Node000001"><a xlink:title="The LinearRingZ struct.">
<polygon fill="#999999" stroke="transparent" points="73,-49 0,-49 0,0 73,0 73,-49"/>
<text text-anchor="start" x="7.5" y="-36.5" font-family="Monaco" font-size="10.00">LinearRingZ</text>
<text text-anchor="start" x="4.5" y="-21.5" font-family="Monaco" font-size="10.00">+</text>
<text text-anchor="start" x="17.5" y="-21.5" font-family="Monaco" font-size="10.00">numPoints</text>
<text text-anchor="start" x="35" y="-6.5" font-family="Monaco" font-size="10.00"> </text>
<polygon fill="#666666" stroke="#666666" points="0.5,-31.5 0.5,-31.5 73.5,-31.5 73.5,-31.5 0.5,-31.5"/>
<polygon fill="#666666" stroke="#666666" points="0.5,-16.5 0.5,-16.5 15.5,-16.5 15.5,-16.5 0.5,-16.5"/>
<polygon fill="#666666" stroke="#666666" points="15.5,-16.5 15.5,-16.5 73.5,-16.5 73.5,-16.5 15.5,-16.5"/>
<polygon fill="none" stroke="#666666" points="0,0 0,-49 73,-49 73,0 0,0"/>
</a>
</g>
</g>
<!-- Node2 -->
<g id="Node000002" class="node">
<title>Node2</title>
<g id="a_Node000002"><a xlink:href="../../d6/d0c/struct_point_z.html" target="_top" xlink:title="The PointZ struct.">
<polygon fill="white" stroke="transparent" points="57.5,-175 15.5,-175 15.5,-96 57.5,-96 57.5,-175"/>
<text text-anchor="start" x="20.5" y="-162.5" font-family="Monaco" font-size="10.00">PointZ</text>
<text text-anchor="start" x="23" y="-147.5" font-family="Monaco" font-size="10.00">+</text>
<text text-anchor="start" x="39.5" y="-147.5" font-family="Monaco" font-size="10.00">x</text>
<text text-anchor="start" x="23" y="-132.5" font-family="Monaco" font-size="10.00">+</text>
<text text-anchor="start" x="39.5" y="-132.5" font-family="Monaco" font-size="10.00">y</text>
<text text-anchor="start" x="23" y="-117.5" font-family="Monaco" font-size="10.00">+</text>
<text text-anchor="start" x="39.5" y="-117.5" font-family="Monaco" font-size="10.00">z</text>
<text text-anchor="start" x="34.5" y="-102.5" font-family="Monaco" font-size="10.00"> </text>
<polygon fill="#666666" stroke="#666666" points="15.5,-157.5 15.5,-157.5 57.5,-157.5 57.5,-157.5 15.5,-157.5"/>
<polygon fill="#666666" stroke="#666666" points="15.5,-112.5 15.5,-112.5 37.5,-112.5 37.5,-112.5 15.5,-112.5"/>
<polygon fill="#666666" stroke="#666666" points="37.5,-112.5 37.5,-112.5 57.5,-112.5 57.5,-112.5 37.5,-112.5"/>
<polygon fill="none" stroke="#666666" points="15.5,-96 15.5,-175 57.5,-175 57.5,-96 15.5,-96"/>
</a>
</g>
</g>
<!-- Node2&#45;&gt;Node1 -->
<g id="edge1_Node000001_Node000002" class="edge">
<title>Node2&#45;&gt;Node1</title>
<g id="a_edge1_Node000001_Node000002"><a xlink:title=" ">
<path fill="none" stroke="#63b8ff" d="M36.5,-95.76C36.5,-84.59 36.5,-72.45 36.5,-61.46"/>
<polygon fill="none" stroke="#63b8ff" points="36.5,-61.2 32.5,-55.2 36.5,-49.2 40.5,-55.2 36.5,-61.2"/>
</a>
</g>
<text text-anchor="middle" x="57.5" y="-70" font-family="Monaco" font-size="10.00" fill="grey"> +points</text>
</g>
</g>
</svg>
