<?xml version="1.0" encoding="UTF-8" standalone="no"?>
<!DOCTYPE svg PUBLIC "-//W3C//DTD SVG 1.1//EN"
 "http://www.w3.org/Graphics/SVG/1.1/DTD/svg11.dtd">
<!-- Generated by graphviz version 2.43.0 (0)
 -->
<!-- Title: LinearRingZ Pages: 1 -->
<svg width="90pt" height="193pt"
 viewBox="0.00 0.00 90.00 193.00" xmlns="http://www.w3.org/2000/svg" xmlns:xlink="http://www.w3.org/1999/xlink">
<g id="graph0" class="graph" transform="scale(1 1) rotate(0) translate(4 189)">
<title>LinearRingZ</title>
<!-- Node1 -->
<g id="node1" class="node">
<title>Node1</title>
<g id="a_node1"><a xlink:title="The LinearRingZ struct.">
<polygon fill="#bfbfbf" stroke="black" points="0,-0.5 0,-57.5 80,-57.5 80,-0.5 0,-0.5"/>
<text text-anchor="middle" x="40" y="-45.5" font-family="Monaco" font-size="10.00">LinearRingZ</text>
<polyline fill="none" stroke="black" points="0,-38.5 80,-38.5 "/>
<text text-anchor="start" x="8" y="-26.5" font-family="Monaco" font-size="10.00">+ numPoints</text>
<polyline fill="none" stroke="black" points="0,-19.5 80,-19.5 "/>
<text text-anchor="middle" x="40" y="-7.5" font-family="Monaco" font-size="10.00"> </text>
</a>
</g>
</g>
<!-- Node2 -->
<g id="node2" class="node">
<title>Node2</title>
<g id="a_node2"><a xlink:href="../../d6/d0c/struct_point_z.html" target="_top" xlink:title="The PointZ struct.">
<polygon fill="none" stroke="black" points="16,-105.5 16,-184.5 64,-184.5 64,-105.5 16,-105.5"/>
<text text-anchor="middle" x="40" y="-172.5" font-family="Monaco" font-size="10.00">PointZ</text>
<polyline fill="none" stroke="black" points="16,-165.5 64,-165.5 "/>
<text text-anchor="start" x="24" y="-153.5" font-family="Monaco" font-size="10.00">+ x</text>
<text text-anchor="start" x="24" y="-142.5" font-family="Monaco" font-size="10.00">+ y</text>
<text text-anchor="start" x="24" y="-131.5" font-family="Monaco" font-size="10.00">+ z</text>
<polyline fill="none" stroke="black" points="16,-124.5 64,-124.5 "/>
<text text-anchor="middle" x="40" y="-112.5" font-family="Monaco" font-size="10.00"> </text>
</a>
</g>
</g>
<!-- Node2&#45;&gt;Node1 -->
<g id="edge1" class="edge">
<title>Node2&#45;&gt;Node1</title>
<path fill="none" stroke="#404040" d="M40,-105.4C40,-93.93 40,-81.33 40,-69.78"/>
<polygon fill="none" stroke="#404040" points="40,-69.75 36,-63.75 40,-57.75 44,-63.75 40,-69.75"/>
<text text-anchor="middle" x="61" y="-79" font-family="Monaco" font-size="10.00"> +points</text>
</g>
</g>
</svg>
