<?xml version="1.0" encoding="UTF-8" standalone="no"?>
<!DOCTYPE svg PUBLIC "-//W3C//DTD SVG 1.1//EN"
 "http://www.w3.org/Graphics/SVG/1.1/DTD/svg11.dtd">
<!-- Generated by graphviz version 2.43.0 (0)
 -->
<!-- Title: WKBLineString Pages: 1 -->
<svg width="92pt" height="198pt"
 viewBox="0.00 0.00 91.50 198.00" xmlns="http://www.w3.org/2000/svg" xmlns:xlink="http://www.w3.org/1999/xlink">
<g id="graph0" class="graph" transform="scale(1 1) rotate(0) translate(4 194)">
<title>WKBLineString</title>
<!-- Node1 -->
<g id="Node000001" class="node">
<title>Node1</title>
<g id="a_Node000001"><a xlink:title="The WKBLineString struct.">
<polygon fill="#999999" stroke="transparent" points="83,-79 0,-79 0,0 83,0 83,-79"/>
<text text-anchor="start" x="5.5" y="-66.5" font-family="Monaco" font-size="10.00">WKBLineString</text>
<text text-anchor="start" x="7" y="-51.5" font-family="Monaco" font-size="10.00">+</text>
<text text-anchor="start" x="22.5" y="-51.5" font-family="Monaco" font-size="10.00">byteOrder</text>
<text text-anchor="start" x="7" y="-36.5" font-family="Monaco" font-size="10.00">+</text>
<text text-anchor="start" x="22.5" y="-36.5" font-family="Monaco" font-size="10.00">numPoints</text>
<text text-anchor="start" x="7" y="-21.5" font-family="Monaco" font-size="10.00">+</text>
<text text-anchor="start" x="22.5" y="-21.5" font-family="Monaco" font-size="10.00">wkbType</text>
<text text-anchor="start" x="40" y="-6.5" font-family="Monaco" font-size="10.00"> </text>
<polygon fill="#666666" stroke="#666666" points="0.5,-61.5 0.5,-61.5 83.5,-61.5 83.5,-61.5 0.5,-61.5"/>
<polygon fill="#666666" stroke="#666666" points="0.5,-16.5 0.5,-16.5 20.5,-16.5 20.5,-16.5 0.5,-16.5"/>
<polygon fill="#666666" stroke="#666666" points="20.5,-16.5 20.5,-16.5 83.5,-16.5 83.5,-16.5 20.5,-16.5"/>
<polygon fill="none" stroke="#666666" points="0,0 0,-79 83,-79 83,0 0,0"/>
</a>
</g>
</g>
<!-- Node2 -->
<g id="Node000002" class="node">
<title>Node2</title>
<g id="a_Node000002"><a xlink:href="../../d8/dc8/struct_point.html" target="_top" xlink:title="The Point struct.">
<polygon fill="white" stroke="transparent" points="59,-190 24,-190 24,-126 59,-126 59,-190"/>
<text text-anchor="start" x="29.5" y="-178" font-family="Monaco" font-size="10.00">Point</text>
<text text-anchor="start" x="30" y="-163" font-family="Monaco" font-size="10.00">+</text>
<text text-anchor="start" x="44.5" y="-163" font-family="Monaco" font-size="10.00">x</text>
<text text-anchor="start" x="30" y="-148" font-family="Monaco" font-size="10.00">+</text>
<text text-anchor="start" x="44.5" y="-148" font-family="Monaco" font-size="10.00">y</text>
<text text-anchor="start" x="40" y="-133" font-family="Monaco" font-size="10.00"> </text>
<polygon fill="#666666" stroke="#666666" points="24.5,-173 24.5,-173 59.5,-173 59.5,-173 24.5,-173"/>
<polygon fill="#666666" stroke="#666666" points="24.5,-143 24.5,-143 42.5,-143 42.5,-143 24.5,-143"/>
<polygon fill="#666666" stroke="#666666" points="42.5,-143 42.5,-143 59.5,-143 59.5,-143 42.5,-143"/>
<polygon fill="none" stroke="#666666" points="24,-126 24,-190 59,-190 59,-126 24,-126"/>
</a>
</g>
</g>
<!-- Node2&#45;&gt;Node1 -->
<g id="edge1_Node000001_Node000002" class="edge">
<title>Node2&#45;&gt;Node1</title>
<g id="a_edge1_Node000001_Node000002"><a xlink:title=" ">
<path fill="none" stroke="#63b8ff" d="M41.5,-125.78C41.5,-115.29 41.5,-103.29 41.5,-91.67"/>
<polygon fill="none" stroke="#63b8ff" points="41.5,-91.31 37.5,-85.31 41.5,-79.31 45.5,-85.31 41.5,-91.31"/>
</a>
</g>
<text text-anchor="middle" x="62.5" y="-100" font-family="Monaco" font-size="10.00" fill="grey"> +points</text>
</g>
</g>
</svg>
