<?xml version="1.0" encoding="UTF-8" standalone="no"?>
<!DOCTYPE svg PUBLIC "-//W3C//DTD SVG 1.1//EN"
 "http://www.w3.org/Graphics/SVG/1.1/DTD/svg11.dtd">
<!-- Generated by graphviz version 2.43.0 (0)
 -->
<!-- Title: HydroCouple::Temporal::IDateTime Pages: 1 -->
<svg width="175pt" height="465pt"
 viewBox="0.00 0.00 175.00 465.00" xmlns="http://www.w3.org/2000/svg" xmlns:xlink="http://www.w3.org/1999/xlink">
<g id="graph0" class="graph" transform="scale(1 1) rotate(0) translate(4 461)">
<title>HydroCouple::Temporal::IDateTime</title>
<!-- Node1 -->
<g id="Node000001" class="node">
<title>Node1</title>
<g id="a_Node000001"><a xlink:title="IDateTime interface based on a Julian day.">
<polygon fill="#999999" stroke="transparent" points="146,-216 21,-216 21,-111 146,-111 146,-216"/>
<text text-anchor="start" x="26.5" y="-203.5" font-family="Monaco" font-size="10.00">HydroCouple::Temporal</text>
<text text-anchor="start" x="55" y="-192.5" font-family="Monaco" font-size="10.00">::IDateTime</text>
<text text-anchor="start" x="82" y="-177.5" font-family="Monaco" font-size="10.00"> </text>
<text text-anchor="start" x="27" y="-162.5" font-family="Monaco" font-size="10.00">+</text>
<text text-anchor="start" x="41.5" y="-162.5" font-family="Monaco" font-size="10.00">~IDateTime()</text>
<text text-anchor="start" x="27" y="-147.5" font-family="Monaco" font-size="10.00">+</text>
<text text-anchor="start" x="41.5" y="-147.5" font-family="Monaco" font-size="10.00">julianDay()</text>
<text text-anchor="start" x="27" y="-132.5" font-family="Monaco" font-size="10.00">+</text>
<text text-anchor="start" x="41.5" y="-132.5" font-family="Monaco" font-size="10.00">modifiedJulianDay()</text>
<text text-anchor="start" x="27" y="-117.5" font-family="Monaco" font-size="10.00">+</text>
<text text-anchor="start" x="41.5" y="-117.5" font-family="Monaco" font-size="10.00">serialDate()</text>
<polygon fill="#666666" stroke="#666666" points="21.5,-187.5 21.5,-187.5 146.5,-187.5 146.5,-187.5 21.5,-187.5"/>
<polygon fill="#666666" stroke="#666666" points="21.5,-172.5 21.5,-172.5 146.5,-172.5 146.5,-172.5 21.5,-172.5"/>
<polygon fill="none" stroke="#666666" points="21,-111 21,-216 146,-216 146,-111 21,-111"/>
</a>
</g>
</g>
<!-- Node4 -->
<g id="Node000004" class="node">
<title>Node4</title>
<g id="a_Node000004"><a xlink:href="../../d6/d12/class_hydro_couple_1_1_temporal_1_1_i_time_span.html" target="_top" xlink:title="ITimeSpan specifies a time duration.">
<polygon fill="white" stroke="transparent" points="146,-75 21,-75 21,0 146,0 146,-75"/>
<text text-anchor="start" x="26.5" y="-62.5" font-family="Monaco" font-size="10.00">HydroCouple::Temporal</text>
<text text-anchor="start" x="55" y="-51.5" font-family="Monaco" font-size="10.00">::ITimeSpan</text>
<text text-anchor="start" x="82" y="-36.5" font-family="Monaco" font-size="10.00"> </text>
<text text-anchor="start" x="34.5" y="-21.5" font-family="Monaco" font-size="10.00">+</text>
<text text-anchor="start" x="56.5" y="-21.5" font-family="Monaco" font-size="10.00">~ITimeSpan()</text>
<text text-anchor="start" x="34.5" y="-6.5" font-family="Monaco" font-size="10.00">+</text>
<text text-anchor="start" x="56.5" y="-6.5" font-family="Monaco" font-size="10.00">duration()</text>
<polygon fill="#666666" stroke="#666666" points="21.5,-46.5 21.5,-46.5 146.5,-46.5 146.5,-46.5 21.5,-46.5"/>
<polygon fill="#666666" stroke="#666666" points="21.5,-31.5 21.5,-31.5 146.5,-31.5 146.5,-31.5 21.5,-31.5"/>
<polygon fill="none" stroke="#666666" points="21,0 21,-75 146,-75 146,0 21,0"/>
</a>
</g>
</g>
<!-- Node1&#45;&gt;Node4 -->
<g id="edge3_Node000001_Node000004" class="edge">
<title>Node1&#45;&gt;Node4</title>
<g id="a_edge3_Node000001_Node000004"><a xlink:title=" ">
<path fill="none" stroke="#63b8ff" d="M83.5,-100.8C83.5,-92.08 83.5,-83.35 83.5,-75.3"/>
<polygon fill="none" stroke="#63b8ff" points="80,-100.99 83.5,-110.99 87,-100.99 80,-100.99"/>
</a>
</g>
</g>
<!-- Node2 -->
<g id="Node000002" class="node">
<title>Node2</title>
<g id="a_Node000002"><a xlink:href="../../dd/dbf/class_hydro_couple_1_1_i_property_changed.html" target="_top" xlink:title="IPropertyChanged interface is used to emit signal/event when a property of an object changes.">
<polygon fill="white" stroke="transparent" points="167,-301 0,-301 0,-252 167,-252 167,-301"/>
<text text-anchor="start" x="5.5" y="-288.5" font-family="Monaco" font-size="10.00">HydroCouple::IPropertyChanged</text>
<text text-anchor="start" x="82" y="-273.5" font-family="Monaco" font-size="10.00"> </text>
<text text-anchor="start" x="15" y="-258.5" font-family="Monaco" font-size="10.00">+</text>
<text text-anchor="start" x="38.5" y="-258.5" font-family="Monaco" font-size="10.00">~IPropertyChanged()</text>
<polygon fill="#666666" stroke="#666666" points="0.5,-283.5 0.5,-283.5 167.5,-283.5 167.5,-283.5 0.5,-283.5"/>
<polygon fill="#666666" stroke="#666666" points="0.5,-268.5 0.5,-268.5 167.5,-268.5 167.5,-268.5 0.5,-268.5"/>
<polygon fill="none" stroke="#666666" points="0,-252 0,-301 167,-301 167,-252 0,-252"/>
</a>
</g>
</g>
<!-- Node2&#45;&gt;Node1 -->
<g id="edge1_Node000001_Node000002" class="edge">
<title>Node2&#45;&gt;Node1</title>
<g id="a_edge1_Node000001_Node000002"><a xlink:title=" ">
<path fill="none" stroke="#63b8ff" d="M83.5,-241.85C83.5,-233.79 83.5,-225 83.5,-216.32"/>
<polygon fill="none" stroke="#63b8ff" points="80,-241.96 83.5,-251.96 87,-241.96 80,-241.96"/>
</a>
</g>
</g>
<!-- Node3 -->
<g id="Node000003" class="node">
<title>Node3</title>
<g id="a_Node000003"><a xlink:href="../../d5/d8b/class_hydro_couple_1_1_i_signal.html" target="_top" xlink:title=" ">
<polygon fill="white" stroke="transparent" points="140,-457 27,-457 27,-337 140,-337 140,-457"/>
<text text-anchor="start" x="32.5" y="-445" font-family="Monaco" font-size="10.00">HydroCouple::ISignal</text>
<text text-anchor="start" x="58.5" y="-434" font-family="Monaco" font-size="10.00">&lt; string &gt;</text>
<text text-anchor="start" x="82" y="-419" font-family="Monaco" font-size="10.00"> </text>
<text text-anchor="start" x="37" y="-404" font-family="Monaco" font-size="10.00">+</text>
<text text-anchor="start" x="55.5" y="-404" font-family="Monaco" font-size="10.00">~ISignal()</text>
<text text-anchor="start" x="37" y="-389" font-family="Monaco" font-size="10.00">+</text>
<text text-anchor="start" x="55.5" y="-389" font-family="Monaco" font-size="10.00">connect()</text>
<text text-anchor="start" x="37" y="-374" font-family="Monaco" font-size="10.00">+</text>
<text text-anchor="start" x="55.5" y="-374" font-family="Monaco" font-size="10.00">disconnect()</text>
<text text-anchor="start" x="37" y="-359" font-family="Monaco" font-size="10.00">+</text>
<text text-anchor="start" x="55.5" y="-359" font-family="Monaco" font-size="10.00">blockSignals()</text>
<text text-anchor="start" x="37" y="-344" font-family="Monaco" font-size="10.00">#</text>
<text text-anchor="start" x="55.5" y="-344" font-family="Monaco" font-size="10.00">emit()</text>
<polygon fill="#666666" stroke="#666666" points="27.5,-429 27.5,-429 140.5,-429 140.5,-429 27.5,-429"/>
<polygon fill="#666666" stroke="#666666" points="27.5,-414 27.5,-414 140.5,-414 140.5,-414 27.5,-414"/>
<polygon fill="none" stroke="#666666" points="27,-337 27,-457 140,-457 140,-337 27,-337"/>
</a>
</g>
</g>
<!-- Node3&#45;&gt;Node2 -->
<g id="edge2_Node000002_Node000003" class="edge">
<title>Node3&#45;&gt;Node2</title>
<g id="a_edge2_Node000002_Node000003"><a xlink:title=" ">
<path fill="none" stroke="#63b8ff" d="M83.5,-326.74C83.5,-317.6 83.5,-308.78 83.5,-301.2"/>
<polygon fill="none" stroke="#63b8ff" points="80,-326.75 83.5,-336.75 87,-326.75 80,-326.75"/>
</a>
</g>
</g>
</g>
</svg>
