<?xml version="1.0" encoding="UTF-8" standalone="no"?>
<!DOCTYPE svg PUBLIC "-//W3C//DTD SVG 1.1//EN"
 "http://www.w3.org/Graphics/SVG/1.1/DTD/svg11.dtd">
<!-- Generated by graphviz version 2.43.0 (0)
 -->
<!-- Title: WKBPolyhedralSurfaceZ Pages: 1 -->
<svg width="143pt" height="447pt"
 viewBox="0.00 0.00 143.00 447.00" xmlns="http://www.w3.org/2000/svg" xmlns:xlink="http://www.w3.org/1999/xlink">
<g id="graph0" class="graph" transform="scale(1 1) rotate(0) translate(4 443)">
<title>WKBPolyhedralSurfaceZ</title>
<!-- Node1 -->
<g id="node1" class="node">
<title>Node1</title>
<g id="a_node1"><a xlink:title="The WKBPolyhedralSurfaceZ struct.">
<polygon fill="#bfbfbf" stroke="black" points="0,-0.5 0,-79.5 135,-79.5 135,-0.5 0,-0.5"/>
<text text-anchor="middle" x="67.5" y="-67.5" font-family="Monaco" font-size="10.00">WKBPolyhedralSurfaceZ</text>
<polyline fill="none" stroke="black" points="0,-60.5 135,-60.5 "/>
<text text-anchor="start" x="8" y="-48.5" font-family="Monaco" font-size="10.00">+ byteOrder</text>
<text text-anchor="start" x="8" y="-37.5" font-family="Monaco" font-size="10.00">+ numPolygons</text>
<text text-anchor="start" x="8" y="-26.5" font-family="Monaco" font-size="10.00">+ wkbType</text>
<polyline fill="none" stroke="black" points="0,-19.5 135,-19.5 "/>
<text text-anchor="middle" x="67.5" y="-7.5" font-family="Monaco" font-size="10.00"> </text>
</a>
</g>
</g>
<!-- Node2 -->
<g id="node2" class="node">
<title>Node2</title>
<g id="a_node2"><a xlink:href="../../db/dad/struct_w_k_b_polygon_z.html" target="_top" xlink:title="The WKBPolygonZ struct.">
<polygon fill="none" stroke="black" points="24.5,-127.5 24.5,-206.5 110.5,-206.5 110.5,-127.5 24.5,-127.5"/>
<text text-anchor="middle" x="67.5" y="-194.5" font-family="Monaco" font-size="10.00">WKBPolygonZ</text>
<polyline fill="none" stroke="black" points="24.5,-187.5 110.5,-187.5 "/>
<text text-anchor="start" x="32.5" y="-175.5" font-family="Monaco" font-size="10.00">+ byteOrder</text>
<text text-anchor="start" x="32.5" y="-164.5" font-family="Monaco" font-size="10.00">+ numRings</text>
<text text-anchor="start" x="32.5" y="-153.5" font-family="Monaco" font-size="10.00">+ wkbType</text>
<polyline fill="none" stroke="black" points="24.5,-146.5 110.5,-146.5 "/>
<text text-anchor="middle" x="67.5" y="-134.5" font-family="Monaco" font-size="10.00"> </text>
</a>
</g>
</g>
<!-- Node2&#45;&gt;Node1 -->
<g id="edge1" class="edge">
<title>Node2&#45;&gt;Node1</title>
<path fill="none" stroke="#404040" d="M67.5,-127.48C67.5,-116.19 67.5,-103.67 67.5,-91.75"/>
<polygon fill="none" stroke="#404040" points="67.5,-91.61 63.5,-85.61 67.5,-79.61 71.5,-85.61 67.5,-91.61"/>
<text text-anchor="middle" x="95.5" y="-101" font-family="Monaco" font-size="10.00"> +polygons</text>
</g>
<!-- Node3 -->
<g id="node3" class="node">
<title>Node3</title>
<g id="a_node3"><a xlink:href="../../d2/d2c/struct_linear_ring_z.html" target="_top" xlink:title="The LinearRingZ struct.">
<polygon fill="none" stroke="black" points="27.5,-254.5 27.5,-311.5 107.5,-311.5 107.5,-254.5 27.5,-254.5"/>
<text text-anchor="middle" x="67.5" y="-299.5" font-family="Monaco" font-size="10.00">LinearRingZ</text>
<polyline fill="none" stroke="black" points="27.5,-292.5 107.5,-292.5 "/>
<text text-anchor="start" x="35.5" y="-280.5" font-family="Monaco" font-size="10.00">+ numPoints</text>
<polyline fill="none" stroke="black" points="27.5,-273.5 107.5,-273.5 "/>
<text text-anchor="middle" x="67.5" y="-261.5" font-family="Monaco" font-size="10.00"> </text>
</a>
</g>
</g>
<!-- Node3&#45;&gt;Node2 -->
<g id="edge2" class="edge">
<title>Node3&#45;&gt;Node2</title>
<path fill="none" stroke="#404040" d="M67.5,-254.4C67.5,-243.63 67.5,-230.93 67.5,-218.62"/>
<polygon fill="none" stroke="#404040" points="67.5,-218.54 63.5,-212.54 67.5,-206.54 71.5,-212.54 67.5,-218.54"/>
<text text-anchor="middle" x="85.5" y="-228" font-family="Monaco" font-size="10.00"> +rings</text>
</g>
<!-- Node4 -->
<g id="node4" class="node">
<title>Node4</title>
<g id="a_node4"><a xlink:href="../../d6/d0c/struct_point_z.html" target="_top" xlink:title="The PointZ struct.">
<polygon fill="none" stroke="black" points="43.5,-359.5 43.5,-438.5 91.5,-438.5 91.5,-359.5 43.5,-359.5"/>
<text text-anchor="middle" x="67.5" y="-426.5" font-family="Monaco" font-size="10.00">PointZ</text>
<polyline fill="none" stroke="black" points="43.5,-419.5 91.5,-419.5 "/>
<text text-anchor="start" x="51.5" y="-407.5" font-family="Monaco" font-size="10.00">+ x</text>
<text text-anchor="start" x="51.5" y="-396.5" font-family="Monaco" font-size="10.00">+ y</text>
<text text-anchor="start" x="51.5" y="-385.5" font-family="Monaco" font-size="10.00">+ z</text>
<polyline fill="none" stroke="black" points="43.5,-378.5 91.5,-378.5 "/>
<text text-anchor="middle" x="67.5" y="-366.5" font-family="Monaco" font-size="10.00"> </text>
</a>
</g>
</g>
<!-- Node4&#45;&gt;Node3 -->
<g id="edge3" class="edge">
<title>Node4&#45;&gt;Node3</title>
<path fill="none" stroke="#404040" d="M67.5,-359.4C67.5,-347.93 67.5,-335.33 67.5,-323.78"/>
<polygon fill="none" stroke="#404040" points="67.5,-323.75 63.5,-317.75 67.5,-311.75 71.5,-317.75 67.5,-323.75"/>
<text text-anchor="middle" x="88.5" y="-333" font-family="Monaco" font-size="10.00"> +points</text>
</g>
</g>
</svg>
