<?xml version="1.0" encoding="UTF-8" standalone="no"?>
<!DOCTYPE svg PUBLIC "-//W3C//DTD SVG 1.1//EN"
 "http://www.w3.org/Graphics/SVG/1.1/DTD/svg11.dtd">
<!-- Generated by graphviz version 2.43.0 (0)
 -->
<!-- Title: WKBMultiPointZM Pages: 1 -->
<svg width="107pt" height="339pt"
 viewBox="0.00 0.00 107.00 339.00" xmlns="http://www.w3.org/2000/svg" xmlns:xlink="http://www.w3.org/1999/xlink">

<svg id="main" version="1.1" xmlns="http://www.w3.org/2000/svg" xmlns:xlink="http://www.w3.org/1999/xlink" xml:space="preserve" onload="init(evt)">
<style type="text/css"><![CDATA[
.node, .edge {opacity: 0.7;}
.node.selected, .edge.selected {opacity: 1;}
.edge:hover path { stroke: red; }
.edge:hover polygon { stroke: red; fill: red; }
]]></style>
<script type="application/ecmascript" xlink:href="../../svg.min.js"/>
<svg id="graph" class="graph">
<g id="graph0" class="graph" transform="scale(1 1) rotate(0) translate(4 335)">
<title>WKBMultiPointZM</title>
<!-- Node1 -->
<g id="Node000001" class="node">
<title>Node1</title>
<g id="a_Node000001"><a xlink:title="The WKBMultiPointZM struct.">
<polygon fill="#999999" stroke="transparent" points="99,-79 0,-79 0,0 99,0 99,-79"/>
<text text-anchor="start" x="5.5" y="-66.5" font-family="Monaco" font-size="10.00">WKBMultiPointZM</text>
<text text-anchor="start" x="11" y="-51.5" font-family="Monaco" font-size="10.00">+</text>
<text text-anchor="start" x="30.5" y="-51.5" font-family="Monaco" font-size="10.00">byteOrder</text>
<text text-anchor="start" x="11" y="-36.5" font-family="Monaco" font-size="10.00">+</text>
<text text-anchor="start" x="30.5" y="-36.5" font-family="Monaco" font-size="10.00">numPoints</text>
<text text-anchor="start" x="11" y="-21.5" font-family="Monaco" font-size="10.00">+</text>
<text text-anchor="start" x="30.5" y="-21.5" font-family="Monaco" font-size="10.00">wkbType</text>
<text text-anchor="start" x="48" y="-6.5" font-family="Monaco" font-size="10.00"> </text>
<polygon fill="#666666" stroke="#666666" points="0.5,-61.5 0.5,-61.5 99.5,-61.5 99.5,-61.5 0.5,-61.5"/>
<polygon fill="#666666" stroke="#666666" points="0.5,-16.5 0.5,-16.5 28.5,-16.5 28.5,-16.5 0.5,-16.5"/>
<polygon fill="#666666" stroke="#666666" points="28.5,-16.5 28.5,-16.5 99.5,-16.5 99.5,-16.5 28.5,-16.5"/>
<polygon fill="none" stroke="#666666" points="0,0 0,-79 99,-79 99,0 0,0"/>
</a>
</g>
</g>
<!-- Node2 -->
<g id="Node000002" class="node">
<title>Node2</title>
<g id="a_Node000002"><a xlink:href="../../df/d1c/struct_w_k_b_point_z_m.html" target="_top" xlink:title="The WKBPointZM struct.">
<polygon fill="white" stroke="transparent" points="86.5,-190 12.5,-190 12.5,-126 86.5,-126 86.5,-190"/>
<text text-anchor="start" x="17.5" y="-178" font-family="Monaco" font-size="10.00">WKBPointZM</text>
<text text-anchor="start" x="17.5" y="-163" font-family="Monaco" font-size="10.00">+</text>
<text text-anchor="start" x="31.5" y="-163" font-family="Monaco" font-size="10.00">byteOrder</text>
<text text-anchor="start" x="17.5" y="-148" font-family="Monaco" font-size="10.00">+</text>
<text text-anchor="start" x="31.5" y="-148" font-family="Monaco" font-size="10.00">wkbType</text>
<text text-anchor="start" x="47.5" y="-133" font-family="Monaco" font-size="10.00"> </text>
<polygon fill="#666666" stroke="#666666" points="12.5,-173 12.5,-173 86.5,-173 86.5,-173 12.5,-173"/>
<polygon fill="#666666" stroke="#666666" points="12.5,-143 12.5,-143 29.5,-143 29.5,-143 12.5,-143"/>
<polygon fill="#666666" stroke="#666666" points="29.5,-143 29.5,-143 86.5,-143 86.5,-143 29.5,-143"/>
<polygon fill="none" stroke="#666666" points="12.5,-126 12.5,-190 86.5,-190 86.5,-126 12.5,-126"/>
</a>
</g>
</g>
<!-- Node2&#45;&gt;Node1 -->
<g id="edge1_Node000001_Node000002" class="edge">
<title>Node2&#45;&gt;Node1</title>
<g id="a_edge1_Node000001_Node000002"><a xlink:title=" ">
<path fill="none" stroke="#63b8ff" d="M49.5,-125.78C49.5,-115.29 49.5,-103.29 49.5,-91.67"/>
<polygon fill="none" stroke="#63b8ff" points="49.5,-91.31 45.5,-85.31 49.5,-79.31 53.5,-85.31 49.5,-91.31"/>
</a>
</g>
<text text-anchor="middle" x="70.5" y="-100" font-family="Monaco" font-size="10.00" fill="grey"> +points</text>
</g>
<!-- Node3 -->
<g id="Node000003" class="node">
<title>Node3</title>
<g id="a_Node000003"><a xlink:href="../../d7/ded/struct_point_z_m.html" target="_top" xlink:title="The PointZM struct.">
<polygon fill="white" stroke="transparent" points="75,-331 24,-331 24,-237 75,-237 75,-331"/>
<text text-anchor="start" x="29.5" y="-319" font-family="Monaco" font-size="10.00">PointZM</text>
<text text-anchor="start" x="33.5" y="-304" font-family="Monaco" font-size="10.00">+</text>
<text text-anchor="start" x="51.5" y="-304" font-family="Monaco" font-size="10.00">x</text>
<text text-anchor="start" x="33.5" y="-289" font-family="Monaco" font-size="10.00">+</text>
<text text-anchor="start" x="51.5" y="-289" font-family="Monaco" font-size="10.00">y</text>
<text text-anchor="start" x="33.5" y="-274" font-family="Monaco" font-size="10.00">+</text>
<text text-anchor="start" x="51.5" y="-274" font-family="Monaco" font-size="10.00">z</text>
<text text-anchor="start" x="33.5" y="-259" font-family="Monaco" font-size="10.00">+</text>
<text text-anchor="start" x="51.5" y="-259" font-family="Monaco" font-size="10.00">m</text>
<text text-anchor="start" x="48" y="-244" font-family="Monaco" font-size="10.00"> </text>
<polygon fill="#666666" stroke="#666666" points="24.5,-314 24.5,-314 75.5,-314 75.5,-314 24.5,-314"/>
<polygon fill="#666666" stroke="#666666" points="24.5,-254 24.5,-254 49.5,-254 49.5,-254 24.5,-254"/>
<polygon fill="#666666" stroke="#666666" points="49.5,-254 49.5,-254 75.5,-254 75.5,-254 49.5,-254"/>
<polygon fill="none" stroke="#666666" points="24,-237 24,-331 75,-331 75,-237 24,-237"/>
</a>
</g>
</g>
<!-- Node3&#45;&gt;Node2 -->
<g id="edge2_Node000002_Node000003" class="edge">
<title>Node3&#45;&gt;Node2</title>
<g id="a_edge2_Node000002_Node000003"><a xlink:title=" ">
<path fill="none" stroke="#63b8ff" d="M49.5,-236.83C49.5,-225.52 49.5,-213.46 49.5,-202.3"/>
<polygon fill="none" stroke="#63b8ff" points="49.5,-202.16 45.5,-196.16 49.5,-190.16 53.5,-196.16 49.5,-202.16"/>
</a>
</g>
<text text-anchor="middle" x="68" y="-211" font-family="Monaco" font-size="10.00" fill="grey"> +point</text>
</g>
</g>
</svg>
</svg>

<style type='text/css'>
<![CDATA[
[data-mouse-over-selected='false'] { opacity: 0.7; }
[data-mouse-over-selected='true']  { opacity: 1.0; }
]]>
</style>
<script type="application/ecmascript"><![CDATA[
document.addEventListener('DOMContentLoaded', (event) => {
  highlightEdges();
  highlightAdjacentNodes();
});
]]></script>
</svg>
