<?xml version="1.0" encoding="UTF-8" standalone="no"?>
<!DOCTYPE svg PUBLIC "-//W3C//DTD SVG 1.1//EN"
 "http://www.w3.org/Graphics/SVG/1.1/DTD/svg11.dtd">
<!-- Generated by graphviz version 2.43.0 (0)
 -->
<!-- Title: WKBMultiPointZM Pages: 1 -->
<svg width="113pt" height="342pt"
 viewBox="0.00 0.00 113.00 342.00" xmlns="http://www.w3.org/2000/svg" xmlns:xlink="http://www.w3.org/1999/xlink">
<g id="graph0" class="graph" transform="scale(1 1) rotate(0) translate(4 338)">
<title>WKBMultiPointZM</title>
<!-- Node1 -->
<g id="node1" class="node">
<title>Node1</title>
<g id="a_node1"><a xlink:title="The WKBMultiPointZM struct.">
<polygon fill="#bfbfbf" stroke="black" points="0,-0.5 0,-79.5 105,-79.5 105,-0.5 0,-0.5"/>
<text text-anchor="middle" x="52.5" y="-67.5" font-family="Monaco" font-size="10.00">WKBMultiPointZM</text>
<polyline fill="none" stroke="black" points="0,-60.5 105,-60.5 "/>
<text text-anchor="start" x="8" y="-48.5" font-family="Monaco" font-size="10.00">+ byteOrder</text>
<text text-anchor="start" x="8" y="-37.5" font-family="Monaco" font-size="10.00">+ numPoints</text>
<text text-anchor="start" x="8" y="-26.5" font-family="Monaco" font-size="10.00">+ wkbType</text>
<polyline fill="none" stroke="black" points="0,-19.5 105,-19.5 "/>
<text text-anchor="middle" x="52.5" y="-7.5" font-family="Monaco" font-size="10.00"> </text>
</a>
</g>
</g>
<!-- Node2 -->
<g id="node2" class="node">
<title>Node2</title>
<g id="a_node2"><a xlink:href="../../df/d1c/struct_w_k_b_point_z_m.html" target="_top" xlink:title="The WKBPointZM struct.">
<polygon fill="none" stroke="black" points="12.5,-127.5 12.5,-195.5 92.5,-195.5 92.5,-127.5 12.5,-127.5"/>
<text text-anchor="middle" x="52.5" y="-183.5" font-family="Monaco" font-size="10.00">WKBPointZM</text>
<polyline fill="none" stroke="black" points="12.5,-176.5 92.5,-176.5 "/>
<text text-anchor="start" x="20.5" y="-164.5" font-family="Monaco" font-size="10.00">+ byteOrder</text>
<text text-anchor="start" x="20.5" y="-153.5" font-family="Monaco" font-size="10.00">+ wkbType</text>
<polyline fill="none" stroke="black" points="12.5,-146.5 92.5,-146.5 "/>
<text text-anchor="middle" x="52.5" y="-134.5" font-family="Monaco" font-size="10.00"> </text>
</a>
</g>
</g>
<!-- Node2&#45;&gt;Node1 -->
<g id="edge1" class="edge">
<title>Node2&#45;&gt;Node1</title>
<path fill="none" stroke="#404040" d="M52.5,-127.21C52.5,-116.24 52.5,-103.78 52.5,-91.81"/>
<polygon fill="none" stroke="#404040" points="52.5,-91.6 48.5,-85.6 52.5,-79.6 56.5,-85.6 52.5,-91.6"/>
<text text-anchor="middle" x="73.5" y="-101" font-family="Monaco" font-size="10.00"> +points</text>
</g>
<!-- Node3 -->
<g id="node3" class="node">
<title>Node3</title>
<g id="a_node3"><a xlink:href="../../d7/ded/struct_point_z_m.html" target="_top" xlink:title="The PointZM struct.">
<polygon fill="none" stroke="black" points="24,-243.5 24,-333.5 81,-333.5 81,-243.5 24,-243.5"/>
<text text-anchor="middle" x="52.5" y="-321.5" font-family="Monaco" font-size="10.00">PointZM</text>
<polyline fill="none" stroke="black" points="24,-314.5 81,-314.5 "/>
<text text-anchor="start" x="32" y="-302.5" font-family="Monaco" font-size="10.00">+ x</text>
<text text-anchor="start" x="32" y="-291.5" font-family="Monaco" font-size="10.00">+ y</text>
<text text-anchor="start" x="32" y="-280.5" font-family="Monaco" font-size="10.00">+ z</text>
<text text-anchor="start" x="32" y="-269.5" font-family="Monaco" font-size="10.00">+ m</text>
<polyline fill="none" stroke="black" points="24,-262.5 81,-262.5 "/>
<text text-anchor="middle" x="52.5" y="-250.5" font-family="Monaco" font-size="10.00"> </text>
</a>
</g>
</g>
<!-- Node3&#45;&gt;Node2 -->
<g id="edge2" class="edge">
<title>Node3&#45;&gt;Node2</title>
<path fill="none" stroke="#404040" d="M52.5,-243.43C52.5,-231.87 52.5,-219.38 52.5,-207.76"/>
<polygon fill="none" stroke="#404040" points="52.5,-207.57 48.5,-201.57 52.5,-195.57 56.5,-201.57 52.5,-207.57"/>
<text text-anchor="middle" x="71" y="-217" font-family="Monaco" font-size="10.00"> +point</text>
</g>
</g>
</svg>
