<?xml version="1.0" encoding="UTF-8" standalone="no"?>
<!DOCTYPE svg PUBLIC "-//W3C//DTD SVG 1.1//EN"
 "http://www.w3.org/Graphics/SVG/1.1/DTD/svg11.dtd">
<!-- Generated by graphviz version 2.43.0 (0)
 -->
<!-- Title: WKBMultiPointM Pages: 1 -->
<svg width="100pt" height="324pt"
 viewBox="0.00 0.00 100.00 324.00" xmlns="http://www.w3.org/2000/svg" xmlns:xlink="http://www.w3.org/1999/xlink">

<svg id="main" version="1.1" xmlns="http://www.w3.org/2000/svg" xmlns:xlink="http://www.w3.org/1999/xlink" xml:space="preserve" onload="init(evt)">
<style type="text/css"><![CDATA[
.node, .edge {opacity: 0.7;}
.node.selected, .edge.selected {opacity: 1;}
.edge:hover path { stroke: red; }
.edge:hover polygon { stroke: red; fill: red; }
]]></style>
<script type="application/ecmascript" xlink:href="../../svg.min.js"/>
<svg id="graph" class="graph">
<g id="graph0" class="graph" transform="scale(1 1) rotate(0) translate(4 320)">
<title>WKBMultiPointM</title>
<!-- Node1 -->
<g id="Node000001" class="node">
<title>Node1</title>
<g id="a_Node000001"><a xlink:title="The WKBMultiPointM struct.">
<polygon fill="#999999" stroke="transparent" points="92,-79 0,-79 0,0 92,0 92,-79"/>
<text text-anchor="start" x="5" y="-66.5" font-family="Monaco" font-size="10.00">WKBMultiPointM</text>
<text text-anchor="start" x="8.5" y="-51.5" font-family="Monaco" font-size="10.00">+</text>
<text text-anchor="start" x="26" y="-51.5" font-family="Monaco" font-size="10.00">byteOrder</text>
<text text-anchor="start" x="8.5" y="-36.5" font-family="Monaco" font-size="10.00">+</text>
<text text-anchor="start" x="26" y="-36.5" font-family="Monaco" font-size="10.00">numPoints</text>
<text text-anchor="start" x="8.5" y="-21.5" font-family="Monaco" font-size="10.00">+</text>
<text text-anchor="start" x="26" y="-21.5" font-family="Monaco" font-size="10.00">wkbType</text>
<text text-anchor="start" x="44" y="-6.5" font-family="Monaco" font-size="10.00"> </text>
<polygon fill="#666666" stroke="#666666" points="0,-61.5 0,-61.5 92,-61.5 92,-61.5 0,-61.5"/>
<polygon fill="#666666" stroke="#666666" points="0,-16.5 0,-16.5 24,-16.5 24,-16.5 0,-16.5"/>
<polygon fill="#666666" stroke="#666666" points="24,-16.5 24,-16.5 92,-16.5 92,-16.5 24,-16.5"/>
<polygon fill="none" stroke="#666666" points="0,0 0,-79 92,-79 92,0 0,0"/>
</a>
</g>
</g>
<!-- Node2 -->
<g id="Node000002" class="node">
<title>Node2</title>
<g id="a_Node000002"><a xlink:href="../../da/d8d/struct_w_k_b_point_m.html" target="_top" xlink:title="The WKBPointM struct.">
<polygon fill="white" stroke="transparent" points="81,-190 11,-190 11,-126 81,-126 81,-190"/>
<text text-anchor="start" x="17" y="-178" font-family="Monaco" font-size="10.00">WKBPointM</text>
<text text-anchor="start" x="15" y="-163" font-family="Monaco" font-size="10.00">+</text>
<text text-anchor="start" x="28" y="-163" font-family="Monaco" font-size="10.00">byteOrder</text>
<text text-anchor="start" x="15" y="-148" font-family="Monaco" font-size="10.00">+</text>
<text text-anchor="start" x="28" y="-148" font-family="Monaco" font-size="10.00">wkbType</text>
<text text-anchor="start" x="44" y="-133" font-family="Monaco" font-size="10.00"> </text>
<polygon fill="#666666" stroke="#666666" points="11,-173 11,-173 81,-173 81,-173 11,-173"/>
<polygon fill="#666666" stroke="#666666" points="11,-143 11,-143 26,-143 26,-143 11,-143"/>
<polygon fill="#666666" stroke="#666666" points="26,-143 26,-143 81,-143 81,-143 26,-143"/>
<polygon fill="none" stroke="#666666" points="11,-126 11,-190 81,-190 81,-126 11,-126"/>
</a>
</g>
</g>
<!-- Node2&#45;&gt;Node1 -->
<g id="edge1_Node000001_Node000002" class="edge">
<title>Node2&#45;&gt;Node1</title>
<g id="a_edge1_Node000001_Node000002"><a xlink:title=" ">
<path fill="none" stroke="#63b8ff" d="M46,-125.78C46,-115.29 46,-103.29 46,-91.67"/>
<polygon fill="none" stroke="#63b8ff" points="46,-91.31 42,-85.31 46,-79.31 50,-85.31 46,-91.31"/>
</a>
</g>
<text text-anchor="middle" x="67" y="-100" font-family="Monaco" font-size="10.00" fill="grey"> +points</text>
</g>
<!-- Node3 -->
<g id="Node000003" class="node">
<title>Node3</title>
<g id="a_Node000003"><a xlink:href="../../de/d55/struct_point_m.html" target="_top" xlink:title="The PointM struct.">
<polygon fill="white" stroke="transparent" points="68,-316 24,-316 24,-237 68,-237 68,-316"/>
<text text-anchor="start" x="29" y="-303.5" font-family="Monaco" font-size="10.00">PointM</text>
<text text-anchor="start" x="31" y="-288.5" font-family="Monaco" font-size="10.00">+</text>
<text text-anchor="start" x="47" y="-288.5" font-family="Monaco" font-size="10.00">x</text>
<text text-anchor="start" x="31" y="-273.5" font-family="Monaco" font-size="10.00">+</text>
<text text-anchor="start" x="47" y="-273.5" font-family="Monaco" font-size="10.00">y</text>
<text text-anchor="start" x="31" y="-258.5" font-family="Monaco" font-size="10.00">+</text>
<text text-anchor="start" x="47" y="-258.5" font-family="Monaco" font-size="10.00">m</text>
<text text-anchor="start" x="44" y="-243.5" font-family="Monaco" font-size="10.00"> </text>
<polygon fill="#666666" stroke="#666666" points="24,-298.5 24,-298.5 68,-298.5 68,-298.5 24,-298.5"/>
<polygon fill="#666666" stroke="#666666" points="24,-253.5 24,-253.5 45,-253.5 45,-253.5 24,-253.5"/>
<polygon fill="#666666" stroke="#666666" points="45,-253.5 45,-253.5 68,-253.5 68,-253.5 45,-253.5"/>
<polygon fill="none" stroke="#666666" points="24,-237 24,-316 68,-316 68,-237 24,-237"/>
</a>
</g>
</g>
<!-- Node3&#45;&gt;Node2 -->
<g id="edge2_Node000002_Node000003" class="edge">
<title>Node3&#45;&gt;Node2</title>
<g id="a_edge2_Node000002_Node000003"><a xlink:title=" ">
<path fill="none" stroke="#63b8ff" d="M46,-236.71C46,-225.74 46,-213.74 46,-202.51"/>
<polygon fill="none" stroke="#63b8ff" points="46,-202.27 42,-196.27 46,-190.27 50,-196.27 46,-202.27"/>
</a>
</g>
<text text-anchor="middle" x="64.5" y="-211" font-family="Monaco" font-size="10.00" fill="grey"> +point</text>
</g>
</g>
</svg>
</svg>

<style type='text/css'>
<![CDATA[
[data-mouse-over-selected='false'] { opacity: 0.7; }
[data-mouse-over-selected='true']  { opacity: 1.0; }
]]>
</style>
<script type="application/ecmascript"><![CDATA[
document.addEventListener('DOMContentLoaded', (event) => {
  highlightEdges();
  highlightAdjacentNodes();
});
]]></script>
</svg>
