<?xml version="1.0" encoding="UTF-8" standalone="no"?>
<!DOCTYPE svg PUBLIC "-//W3C//DTD SVG 1.1//EN"
 "http://www.w3.org/Graphics/SVG/1.1/DTD/svg11.dtd">
<!-- Generated by graphviz version 2.43.0 (0)
 -->
<!-- Title: WKBMultiPointM Pages: 1 -->
<svg width="106pt" height="331pt"
 viewBox="0.00 0.00 106.00 331.00" xmlns="http://www.w3.org/2000/svg" xmlns:xlink="http://www.w3.org/1999/xlink">
<g id="graph0" class="graph" transform="scale(1 1) rotate(0) translate(4 327)">
<title>WKBMultiPointM</title>
<!-- Node1 -->
<g id="node1" class="node">
<title>Node1</title>
<g id="a_node1"><a xlink:title="The WKBMultiPointM struct.">
<polygon fill="#bfbfbf" stroke="black" points="0,-0.5 0,-79.5 98,-79.5 98,-0.5 0,-0.5"/>
<text text-anchor="middle" x="49" y="-67.5" font-family="Monaco" font-size="10.00">WKBMultiPointM</text>
<polyline fill="none" stroke="black" points="0,-60.5 98,-60.5 "/>
<text text-anchor="start" x="8" y="-48.5" font-family="Monaco" font-size="10.00">+ byteOrder</text>
<text text-anchor="start" x="8" y="-37.5" font-family="Monaco" font-size="10.00">+ numPoints</text>
<text text-anchor="start" x="8" y="-26.5" font-family="Monaco" font-size="10.00">+ wkbType</text>
<polyline fill="none" stroke="black" points="0,-19.5 98,-19.5 "/>
<text text-anchor="middle" x="49" y="-7.5" font-family="Monaco" font-size="10.00"> </text>
</a>
</g>
</g>
<!-- Node2 -->
<g id="node2" class="node">
<title>Node2</title>
<g id="a_node2"><a xlink:href="../../da/d8d/struct_w_k_b_point_m.html" target="_top" xlink:title="The WKBPointM struct.">
<polygon fill="none" stroke="black" points="10.5,-127.5 10.5,-195.5 87.5,-195.5 87.5,-127.5 10.5,-127.5"/>
<text text-anchor="middle" x="49" y="-183.5" font-family="Monaco" font-size="10.00">WKBPointM</text>
<polyline fill="none" stroke="black" points="10.5,-176.5 87.5,-176.5 "/>
<text text-anchor="start" x="18.5" y="-164.5" font-family="Monaco" font-size="10.00">+ byteOrder</text>
<text text-anchor="start" x="18.5" y="-153.5" font-family="Monaco" font-size="10.00">+ wkbType</text>
<polyline fill="none" stroke="black" points="10.5,-146.5 87.5,-146.5 "/>
<text text-anchor="middle" x="49" y="-134.5" font-family="Monaco" font-size="10.00"> </text>
</a>
</g>
</g>
<!-- Node2&#45;&gt;Node1 -->
<g id="edge1" class="edge">
<title>Node2&#45;&gt;Node1</title>
<path fill="none" stroke="#404040" d="M49,-127.21C49,-116.24 49,-103.78 49,-91.81"/>
<polygon fill="none" stroke="#404040" points="49,-91.6 45,-85.6 49,-79.6 53,-85.6 49,-91.6"/>
<text text-anchor="middle" x="70" y="-101" font-family="Monaco" font-size="10.00"> +points</text>
</g>
<!-- Node3 -->
<g id="node3" class="node">
<title>Node3</title>
<g id="a_node3"><a xlink:href="../../de/d55/struct_point_m.html" target="_top" xlink:title="The PointM struct.">
<polygon fill="none" stroke="black" points="24,-243.5 24,-322.5 74,-322.5 74,-243.5 24,-243.5"/>
<text text-anchor="middle" x="49" y="-310.5" font-family="Monaco" font-size="10.00">PointM</text>
<polyline fill="none" stroke="black" points="24,-303.5 74,-303.5 "/>
<text text-anchor="start" x="32" y="-291.5" font-family="Monaco" font-size="10.00">+ x</text>
<text text-anchor="start" x="32" y="-280.5" font-family="Monaco" font-size="10.00">+ y</text>
<text text-anchor="start" x="32" y="-269.5" font-family="Monaco" font-size="10.00">+ m</text>
<polyline fill="none" stroke="black" points="24,-262.5 74,-262.5 "/>
<text text-anchor="middle" x="49" y="-250.5" font-family="Monaco" font-size="10.00"> </text>
</a>
</g>
</g>
<!-- Node3&#45;&gt;Node2 -->
<g id="edge2" class="edge">
<title>Node3&#45;&gt;Node2</title>
<path fill="none" stroke="#404040" d="M49,-243.2C49,-231.99 49,-219.65 49,-208.07"/>
<polygon fill="none" stroke="#404040" points="49,-207.89 45,-201.89 49,-195.89 53,-201.89 49,-207.89"/>
<text text-anchor="middle" x="67.5" y="-217" font-family="Monaco" font-size="10.00"> +point</text>
</g>
</g>
</svg>
