<?xml version="1.0" encoding="UTF-8" standalone="no"?>
<!DOCTYPE svg PUBLIC "-//W3C//DTD SVG 1.1//EN"
 "http://www.w3.org/Graphics/SVG/1.1/DTD/svg11.dtd">
<!-- Generated by graphviz version 2.43.0 (0)
 -->
<!-- Title: WKBTINM Pages: 1 -->
<svg width="111pt" height="447pt"
 viewBox="0.00 0.00 111.00 447.00" xmlns="http://www.w3.org/2000/svg" xmlns:xlink="http://www.w3.org/1999/xlink">
<g id="graph0" class="graph" transform="scale(1 1) rotate(0) translate(4 443)">
<title>WKBTINM</title>
<!-- Node1 -->
<g id="node1" class="node">
<title>Node1</title>
<g id="a_node1"><a xlink:title="The WKBTINM struct.">
<polygon fill="#bfbfbf" stroke="black" points="0,-0.5 0,-79.5 94,-79.5 94,-0.5 0,-0.5"/>
<text text-anchor="middle" x="47" y="-67.5" font-family="Monaco" font-size="10.00">WKBTINM</text>
<polyline fill="none" stroke="black" points="0,-60.5 94,-60.5 "/>
<text text-anchor="start" x="8" y="-48.5" font-family="Monaco" font-size="10.00">+ byteOrder</text>
<text text-anchor="start" x="8" y="-37.5" font-family="Monaco" font-size="10.00">+ numPolygons</text>
<text text-anchor="start" x="8" y="-26.5" font-family="Monaco" font-size="10.00">+ wkbType</text>
<polyline fill="none" stroke="black" points="0,-19.5 94,-19.5 "/>
<text text-anchor="middle" x="47" y="-7.5" font-family="Monaco" font-size="10.00"> </text>
</a>
</g>
</g>
<!-- Node2 -->
<g id="node2" class="node">
<title>Node2</title>
<g id="a_node2"><a xlink:href="../../d0/d5d/struct_w_k_b_polygon_m.html" target="_top" xlink:title="The WKBPolygonM struct.">
<polygon fill="none" stroke="black" points="3,-127.5 3,-206.5 91,-206.5 91,-127.5 3,-127.5"/>
<text text-anchor="middle" x="47" y="-194.5" font-family="Monaco" font-size="10.00">WKBPolygonM</text>
<polyline fill="none" stroke="black" points="3,-187.5 91,-187.5 "/>
<text text-anchor="start" x="11" y="-175.5" font-family="Monaco" font-size="10.00">+ byteOrder</text>
<text text-anchor="start" x="11" y="-164.5" font-family="Monaco" font-size="10.00">+ numRings</text>
<text text-anchor="start" x="11" y="-153.5" font-family="Monaco" font-size="10.00">+ wkbType</text>
<polyline fill="none" stroke="black" points="3,-146.5 91,-146.5 "/>
<text text-anchor="middle" x="47" y="-134.5" font-family="Monaco" font-size="10.00"> </text>
</a>
</g>
</g>
<!-- Node2&#45;&gt;Node1 -->
<g id="edge1" class="edge">
<title>Node2&#45;&gt;Node1</title>
<path fill="none" stroke="#404040" d="M47,-127.48C47,-116.19 47,-103.67 47,-91.75"/>
<polygon fill="none" stroke="#404040" points="47,-91.61 43,-85.61 47,-79.61 51,-85.61 47,-91.61"/>
<text text-anchor="middle" x="75" y="-101" font-family="Monaco" font-size="10.00"> +polygons</text>
</g>
<!-- Node3 -->
<g id="node3" class="node">
<title>Node3</title>
<g id="a_node3"><a xlink:href="../../d0/d1b/struct_linear_ring_m.html" target="_top" xlink:title="The LinearRingM struct.">
<polygon fill="none" stroke="black" points="7,-254.5 7,-311.5 87,-311.5 87,-254.5 7,-254.5"/>
<text text-anchor="middle" x="47" y="-299.5" font-family="Monaco" font-size="10.00">LinearRingM</text>
<polyline fill="none" stroke="black" points="7,-292.5 87,-292.5 "/>
<text text-anchor="start" x="15" y="-280.5" font-family="Monaco" font-size="10.00">+ numPoints</text>
<polyline fill="none" stroke="black" points="7,-273.5 87,-273.5 "/>
<text text-anchor="middle" x="47" y="-261.5" font-family="Monaco" font-size="10.00"> </text>
</a>
</g>
</g>
<!-- Node3&#45;&gt;Node2 -->
<g id="edge2" class="edge">
<title>Node3&#45;&gt;Node2</title>
<path fill="none" stroke="#404040" d="M47,-254.4C47,-243.63 47,-230.93 47,-218.62"/>
<polygon fill="none" stroke="#404040" points="47,-218.54 43,-212.54 47,-206.54 51,-212.54 47,-218.54"/>
<text text-anchor="middle" x="65" y="-228" font-family="Monaco" font-size="10.00"> +rings</text>
</g>
<!-- Node4 -->
<g id="node4" class="node">
<title>Node4</title>
<g id="a_node4"><a xlink:href="../../de/d55/struct_point_m.html" target="_top" xlink:title="The PointM struct.">
<polygon fill="none" stroke="black" points="22,-359.5 22,-438.5 72,-438.5 72,-359.5 22,-359.5"/>
<text text-anchor="middle" x="47" y="-426.5" font-family="Monaco" font-size="10.00">PointM</text>
<polyline fill="none" stroke="black" points="22,-419.5 72,-419.5 "/>
<text text-anchor="start" x="30" y="-407.5" font-family="Monaco" font-size="10.00">+ x</text>
<text text-anchor="start" x="30" y="-396.5" font-family="Monaco" font-size="10.00">+ y</text>
<text text-anchor="start" x="30" y="-385.5" font-family="Monaco" font-size="10.00">+ m</text>
<polyline fill="none" stroke="black" points="22,-378.5 72,-378.5 "/>
<text text-anchor="middle" x="47" y="-366.5" font-family="Monaco" font-size="10.00"> </text>
</a>
</g>
</g>
<!-- Node4&#45;&gt;Node3 -->
<g id="edge3" class="edge">
<title>Node4&#45;&gt;Node3</title>
<path fill="none" stroke="#404040" d="M47,-359.4C47,-347.93 47,-335.33 47,-323.78"/>
<polygon fill="none" stroke="#404040" points="47,-323.75 43,-317.75 47,-311.75 51,-317.75 47,-323.75"/>
<text text-anchor="middle" x="68" y="-333" font-family="Monaco" font-size="10.00"> +points</text>
</g>
</g>
</svg>
