<?xml version="1.0" encoding="UTF-8" standalone="no"?>
<!DOCTYPE svg PUBLIC "-//W3C//DTD SVG 1.1//EN"
 "http://www.w3.org/Graphics/SVG/1.1/DTD/svg11.dtd">
<!-- Generated by graphviz version 2.43.0 (0)
 -->
<!-- Title: WKBTINM Pages: 1 -->
<svg width="108pt" height="435pt"
 viewBox="0.00 0.00 108.00 435.00" xmlns="http://www.w3.org/2000/svg" xmlns:xlink="http://www.w3.org/1999/xlink">

<svg id="main" version="1.1" xmlns="http://www.w3.org/2000/svg" xmlns:xlink="http://www.w3.org/1999/xlink" xml:space="preserve" onload="init(evt)">
<style type="text/css"><![CDATA[
.node, .edge {opacity: 0.7;}
.node.selected, .edge.selected {opacity: 1;}
.edge:hover path { stroke: red; }
.edge:hover polygon { stroke: red; fill: red; }
]]></style>
<script type="application/ecmascript" xlink:href="../../svg.min.js"/>
<svg id="graph" class="graph">
<g id="graph0" class="graph" transform="scale(1 1) rotate(0) translate(4 431)">
<title>WKBTINM</title>
<!-- Node1 -->
<g id="Node000001" class="node">
<title>Node1</title>
<g id="a_Node000001"><a xlink:title="The WKBTINM struct.">
<polygon fill="#999999" stroke="transparent" points="88,-79 0,-79 0,0 88,0 88,-79"/>
<text text-anchor="start" x="19.5" y="-66.5" font-family="Monaco" font-size="10.00">WKBTINM</text>
<text text-anchor="start" x="4" y="-51.5" font-family="Monaco" font-size="10.00">+</text>
<text text-anchor="start" x="17" y="-51.5" font-family="Monaco" font-size="10.00">byteOrder</text>
<text text-anchor="start" x="4" y="-36.5" font-family="Monaco" font-size="10.00">+</text>
<text text-anchor="start" x="17" y="-36.5" font-family="Monaco" font-size="10.00">numPolygons</text>
<text text-anchor="start" x="4" y="-21.5" font-family="Monaco" font-size="10.00">+</text>
<text text-anchor="start" x="17" y="-21.5" font-family="Monaco" font-size="10.00">wkbType</text>
<text text-anchor="start" x="42" y="-6.5" font-family="Monaco" font-size="10.00"> </text>
<polygon fill="#666666" stroke="#666666" points="0,-61.5 0,-61.5 88,-61.5 88,-61.5 0,-61.5"/>
<polygon fill="#666666" stroke="#666666" points="0,-16.5 0,-16.5 15,-16.5 15,-16.5 0,-16.5"/>
<polygon fill="#666666" stroke="#666666" points="15,-16.5 15,-16.5 88,-16.5 88,-16.5 15,-16.5"/>
<polygon fill="none" stroke="#666666" points="0,0 0,-79 88,-79 88,0 0,0"/>
</a>
</g>
</g>
<!-- Node2 -->
<g id="Node000002" class="node">
<title>Node2</title>
<g id="a_Node000002"><a xlink:href="../../d0/d5d/struct_w_k_b_polygon_m.html" target="_top" xlink:title="The WKBPolygonM struct.">
<polygon fill="white" stroke="transparent" points="85,-205 3,-205 3,-126 85,-126 85,-205"/>
<text text-anchor="start" x="8" y="-192.5" font-family="Monaco" font-size="10.00">WKBPolygonM</text>
<text text-anchor="start" x="10" y="-177.5" font-family="Monaco" font-size="10.00">+</text>
<text text-anchor="start" x="26" y="-177.5" font-family="Monaco" font-size="10.00">byteOrder</text>
<text text-anchor="start" x="10" y="-162.5" font-family="Monaco" font-size="10.00">+</text>
<text text-anchor="start" x="26" y="-162.5" font-family="Monaco" font-size="10.00">numRings</text>
<text text-anchor="start" x="10" y="-147.5" font-family="Monaco" font-size="10.00">+</text>
<text text-anchor="start" x="26" y="-147.5" font-family="Monaco" font-size="10.00">wkbType</text>
<text text-anchor="start" x="42" y="-132.5" font-family="Monaco" font-size="10.00"> </text>
<polygon fill="#666666" stroke="#666666" points="3,-187.5 3,-187.5 85,-187.5 85,-187.5 3,-187.5"/>
<polygon fill="#666666" stroke="#666666" points="3,-142.5 3,-142.5 24,-142.5 24,-142.5 3,-142.5"/>
<polygon fill="#666666" stroke="#666666" points="24,-142.5 24,-142.5 85,-142.5 85,-142.5 24,-142.5"/>
<polygon fill="none" stroke="#666666" points="3,-126 3,-205 85,-205 85,-126 3,-126"/>
</a>
</g>
</g>
<!-- Node2&#45;&gt;Node1 -->
<g id="edge1_Node000001_Node000002" class="edge">
<title>Node2&#45;&gt;Node1</title>
<g id="a_edge1_Node000001_Node000002"><a xlink:title=" ">
<path fill="none" stroke="#63b8ff" d="M44,-125.95C44,-114.98 44,-102.87 44,-91.3"/>
<polygon fill="none" stroke="#63b8ff" points="44,-91.03 40,-85.03 44,-79.03 48,-85.03 44,-91.03"/>
</a>
</g>
<text text-anchor="middle" x="72" y="-100" font-family="Monaco" font-size="10.00" fill="grey"> +polygons</text>
</g>
<!-- Node3 -->
<g id="Node000003" class="node">
<title>Node3</title>
<g id="a_Node000003"><a xlink:href="../../d0/d1b/struct_linear_ring_m.html" target="_top" xlink:title="The LinearRingM struct.">
<polygon fill="white" stroke="transparent" points="80.5,-301 7.5,-301 7.5,-252 80.5,-252 80.5,-301"/>
<text text-anchor="start" x="14" y="-288.5" font-family="Monaco" font-size="10.00">LinearRingM</text>
<text text-anchor="start" x="12" y="-273.5" font-family="Monaco" font-size="10.00">+</text>
<text text-anchor="start" x="25" y="-273.5" font-family="Monaco" font-size="10.00">numPoints</text>
<text text-anchor="start" x="42.5" y="-258.5" font-family="Monaco" font-size="10.00"> </text>
<polygon fill="#666666" stroke="#666666" points="8,-283.5 8,-283.5 81,-283.5 81,-283.5 8,-283.5"/>
<polygon fill="#666666" stroke="#666666" points="8,-268.5 8,-268.5 23,-268.5 23,-268.5 8,-268.5"/>
<polygon fill="#666666" stroke="#666666" points="23,-268.5 23,-268.5 81,-268.5 81,-268.5 23,-268.5"/>
<polygon fill="none" stroke="#666666" points="7.5,-252 7.5,-301 80.5,-301 80.5,-252 7.5,-252"/>
</a>
</g>
</g>
<!-- Node3&#45;&gt;Node2 -->
<g id="edge2_Node000002_Node000003" class="edge">
<title>Node3&#45;&gt;Node2</title>
<g id="a_edge2_Node000002_Node000003"><a xlink:title=" ">
<path fill="none" stroke="#63b8ff" d="M44,-251.85C44,-241.72 44,-229.47 44,-217.45"/>
<polygon fill="none" stroke="#63b8ff" points="44,-217.1 40,-211.1 44,-205.1 48,-211.1 44,-217.1"/>
</a>
</g>
<text text-anchor="middle" x="62" y="-226" font-family="Monaco" font-size="10.00" fill="grey"> +rings</text>
</g>
<!-- Node4 -->
<g id="Node000004" class="node">
<title>Node4</title>
<g id="a_Node000004"><a xlink:href="../../de/d55/struct_point_m.html" target="_top" xlink:title="The PointM struct.">
<polygon fill="white" stroke="transparent" points="66,-427 22,-427 22,-348 66,-348 66,-427"/>
<text text-anchor="start" x="27" y="-414.5" font-family="Monaco" font-size="10.00">PointM</text>
<text text-anchor="start" x="29" y="-399.5" font-family="Monaco" font-size="10.00">+</text>
<text text-anchor="start" x="45" y="-399.5" font-family="Monaco" font-size="10.00">x</text>
<text text-anchor="start" x="29" y="-384.5" font-family="Monaco" font-size="10.00">+</text>
<text text-anchor="start" x="45" y="-384.5" font-family="Monaco" font-size="10.00">y</text>
<text text-anchor="start" x="29" y="-369.5" font-family="Monaco" font-size="10.00">+</text>
<text text-anchor="start" x="45" y="-369.5" font-family="Monaco" font-size="10.00">m</text>
<text text-anchor="start" x="42" y="-354.5" font-family="Monaco" font-size="10.00"> </text>
<polygon fill="#666666" stroke="#666666" points="22,-409.5 22,-409.5 66,-409.5 66,-409.5 22,-409.5"/>
<polygon fill="#666666" stroke="#666666" points="22,-364.5 22,-364.5 43,-364.5 43,-364.5 22,-364.5"/>
<polygon fill="#666666" stroke="#666666" points="43,-364.5 43,-364.5 66,-364.5 66,-364.5 43,-364.5"/>
<polygon fill="none" stroke="#666666" points="22,-348 22,-427 66,-427 66,-348 22,-348"/>
</a>
</g>
</g>
<!-- Node4&#45;&gt;Node3 -->
<g id="edge3_Node000003_Node000004" class="edge">
<title>Node4&#45;&gt;Node3</title>
<g id="a_edge3_Node000003_Node000004"><a xlink:title=" ">
<path fill="none" stroke="#63b8ff" d="M44,-347.76C44,-336.59 44,-324.45 44,-313.46"/>
<polygon fill="none" stroke="#63b8ff" points="44,-313.2 40,-307.2 44,-301.2 48,-307.2 44,-313.2"/>
</a>
</g>
<text text-anchor="middle" x="65" y="-322" font-family="Monaco" font-size="10.00" fill="grey"> +points</text>
</g>
</g>
</svg>
</svg>

<style type='text/css'>
<![CDATA[
[data-mouse-over-selected='false'] { opacity: 0.7; }
[data-mouse-over-selected='true']  { opacity: 1.0; }
]]>
</style>
<script type="application/ecmascript"><![CDATA[
document.addEventListener('DOMContentLoaded', (event) => {
  highlightEdges();
  highlightAdjacentNodes();
});
]]></script>
</svg>
