<?xml version="1.0" encoding="UTF-8" standalone="no"?>
<!DOCTYPE svg PUBLIC "-//W3C//DTD SVG 1.1//EN"
 "http://www.w3.org/Graphics/SVG/1.1/DTD/svg11.dtd">
<!-- Generated by graphviz version 2.43.0 (0)
 -->
<!-- Title: HydroCouple::IInput Pages: 1 -->
<svg width="204pt" height="938pt"
 viewBox="0.00 0.00 204.00 938.00" xmlns="http://www.w3.org/2000/svg" xmlns:xlink="http://www.w3.org/1999/xlink">
<g id="graph0" class="graph" transform="scale(1 1) rotate(0) translate(4 934)">
<title>HydroCouple::IInput</title>
<!-- Node1 -->
<g id="node1" class="node">
<title>Node1</title>
<g id="a_node1"><a xlink:title="An IInput item that can accept values for an IModelComponent.">
<polygon fill="#bfbfbf" stroke="black" points="41.5,-127.5 41.5,-217.5 154.5,-217.5 154.5,-127.5 41.5,-127.5"/>
<text text-anchor="middle" x="98" y="-205.5" font-family="Monaco" font-size="10.00">HydroCouple::IInput</text>
<polyline fill="none" stroke="black" points="41.5,-198.5 154.5,-198.5 "/>
<text text-anchor="middle" x="98" y="-186.5" font-family="Monaco" font-size="10.00"> </text>
<polyline fill="none" stroke="black" points="41.5,-179.5 154.5,-179.5 "/>
<text text-anchor="start" x="49.5" y="-167.5" font-family="Monaco" font-size="10.00">+ ~IInput()</text>
<text text-anchor="start" x="49.5" y="-156.5" font-family="Monaco" font-size="10.00">+ provider()</text>
<text text-anchor="start" x="49.5" y="-145.5" font-family="Monaco" font-size="10.00">+ setProvider()</text>
<text text-anchor="start" x="49.5" y="-134.5" font-family="Monaco" font-size="10.00">+ canConsume()</text>
</a>
</g>
</g>
<!-- Node7 -->
<g id="node7" class="node">
<title>Node7</title>
<g id="a_node7"><a xlink:href="../../d8/dfd/class_hydro_couple_1_1_i_multi_input.html" target="_top" xlink:title="The IMultiInput class is an IInput class that has multiple outputs supplying data to it.">
<polygon fill="none" stroke="black" points="29,-0.5 29,-90.5 167,-90.5 167,-0.5 29,-0.5"/>
<text text-anchor="middle" x="98" y="-78.5" font-family="Monaco" font-size="10.00">HydroCouple::IMultiInput</text>
<polyline fill="none" stroke="black" points="29,-71.5 167,-71.5 "/>
<text text-anchor="middle" x="98" y="-59.5" font-family="Monaco" font-size="10.00"> </text>
<polyline fill="none" stroke="black" points="29,-52.5 167,-52.5 "/>
<text text-anchor="start" x="37" y="-40.5" font-family="Monaco" font-size="10.00">+ ~IMultiInput()</text>
<text text-anchor="start" x="37" y="-29.5" font-family="Monaco" font-size="10.00">+ providers()</text>
<text text-anchor="start" x="37" y="-18.5" font-family="Monaco" font-size="10.00">+ addProvider()</text>
<text text-anchor="start" x="37" y="-7.5" font-family="Monaco" font-size="10.00">+ removeProvider()</text>
</a>
</g>
</g>
<!-- Node1&#45;&gt;Node7 -->
<g id="edge6" class="edge">
<title>Node1&#45;&gt;Node7</title>
<path fill="none" stroke="midnightblue" d="M98,-117.16C98,-108.28 98,-99.18 98,-90.59"/>
<polygon fill="none" stroke="midnightblue" points="94.5,-117.43 98,-127.43 101.5,-117.43 94.5,-117.43"/>
</g>
<!-- Node2 -->
<g id="node2" class="node">
<title>Node2</title>
<g id="a_node2"><a xlink:href="../../d1/dd3/class_hydro_couple_1_1_i_exchange_item.html" target="_top" xlink:title="IExchangeItem the base data item the can be exchanged between components at runtime.">
<polygon fill="none" stroke="black" points="7.5,-254.5 7.5,-355.5 188.5,-355.5 188.5,-254.5 7.5,-254.5"/>
<text text-anchor="middle" x="98" y="-343.5" font-family="Monaco" font-size="10.00">HydroCouple::IExchangeItem</text>
<polyline fill="none" stroke="black" points="7.5,-336.5 188.5,-336.5 "/>
<text text-anchor="middle" x="98" y="-324.5" font-family="Monaco" font-size="10.00"> </text>
<polyline fill="none" stroke="black" points="7.5,-317.5 188.5,-317.5 "/>
<text text-anchor="start" x="15.5" y="-305.5" font-family="Monaco" font-size="10.00">+ ~IExchangeItem()</text>
<text text-anchor="start" x="15.5" y="-294.5" font-family="Monaco" font-size="10.00">+ registerExchangeItemStatus</text>
<text text-anchor="start" x="15.5" y="-283.5" font-family="Monaco" font-size="10.00">ChangedListener()</text>
<text text-anchor="start" x="15.5" y="-272.5" font-family="Monaco" font-size="10.00">+ deRegisterExchangeItemStatus</text>
<text text-anchor="start" x="15.5" y="-261.5" font-family="Monaco" font-size="10.00">ChangedListener()</text>
</a>
</g>
</g>
<!-- Node2&#45;&gt;Node1 -->
<g id="edge1" class="edge">
<title>Node2&#45;&gt;Node1</title>
<path fill="none" stroke="midnightblue" d="M98,-244.23C98,-235.24 98,-226.1 98,-217.52"/>
<polygon fill="none" stroke="midnightblue" points="94.5,-244.29 98,-254.29 101.5,-244.29 94.5,-244.29"/>
</g>
<!-- Node3 -->
<g id="node3" class="node">
<title>Node3</title>
<g id="a_node3"><a xlink:href="../../d8/d52/class_hydro_couple_1_1_i_component_data_item.html" target="_top" xlink:title="IComponentItem is a fundamental unit of data for a component.">
<polygon fill="none" stroke="black" points="2.5,-392.5 2.5,-559.5 193.5,-559.5 193.5,-392.5 2.5,-392.5"/>
<text text-anchor="middle" x="98" y="-547.5" font-family="Monaco" font-size="10.00">HydroCouple::IComponentDataItem</text>
<polyline fill="none" stroke="black" points="2.5,-540.5 193.5,-540.5 "/>
<text text-anchor="middle" x="98" y="-528.5" font-family="Monaco" font-size="10.00"> </text>
<polyline fill="none" stroke="black" points="2.5,-521.5 193.5,-521.5 "/>
<text text-anchor="start" x="10.5" y="-509.5" font-family="Monaco" font-size="10.00">+ ~IComponentDataItem()</text>
<text text-anchor="start" x="10.5" y="-498.5" font-family="Monaco" font-size="10.00">+ modelComponent()</text>
<text text-anchor="start" x="10.5" y="-487.5" font-family="Monaco" font-size="10.00">+ dimensions()</text>
<text text-anchor="start" x="10.5" y="-476.5" font-family="Monaco" font-size="10.00">+ dimensionLength()</text>
<text text-anchor="start" x="10.5" y="-465.5" font-family="Monaco" font-size="10.00">+ valueDefinition()</text>
<text text-anchor="start" x="10.5" y="-454.5" font-family="Monaco" font-size="10.00">+ getValue()</text>
<text text-anchor="start" x="10.5" y="-443.5" font-family="Monaco" font-size="10.00">+ setValue()</text>
<text text-anchor="start" x="10.5" y="-432.5" font-family="Monaco" font-size="10.00">+ hasEditor()</text>
<text text-anchor="start" x="10.5" y="-421.5" font-family="Monaco" font-size="10.00">+ showEditor()</text>
<text text-anchor="start" x="10.5" y="-410.5" font-family="Monaco" font-size="10.00">+ hasViewer()</text>
<text text-anchor="start" x="10.5" y="-399.5" font-family="Monaco" font-size="10.00">+ showViewer()</text>
</a>
</g>
</g>
<!-- Node3&#45;&gt;Node2 -->
<g id="edge2" class="edge">
<title>Node3&#45;&gt;Node2</title>
<path fill="none" stroke="midnightblue" d="M98,-382.47C98,-373.28 98,-364.21 98,-355.71"/>
<polygon fill="none" stroke="midnightblue" points="94.5,-382.48 98,-392.48 101.5,-382.48 94.5,-382.48"/>
</g>
<!-- Node4 -->
<g id="node4" class="node">
<title>Node4</title>
<g id="a_node4"><a xlink:href="../../d2/d2a/class_hydro_couple_1_1_i_identity.html" target="_top" xlink:title="IIdentity interface class defines a method to get the Id of an HydroCouple entity.">
<polygon fill="none" stroke="black" points="35,-596.5 35,-664.5 161,-664.5 161,-596.5 35,-596.5"/>
<text text-anchor="middle" x="98" y="-652.5" font-family="Monaco" font-size="10.00">HydroCouple::IIdentity</text>
<polyline fill="none" stroke="black" points="35,-645.5 161,-645.5 "/>
<text text-anchor="middle" x="98" y="-633.5" font-family="Monaco" font-size="10.00"> </text>
<polyline fill="none" stroke="black" points="35,-626.5 161,-626.5 "/>
<text text-anchor="start" x="43" y="-614.5" font-family="Monaco" font-size="10.00">+ ~IIdentity()</text>
<text text-anchor="start" x="43" y="-603.5" font-family="Monaco" font-size="10.00">+ id()</text>
</a>
</g>
</g>
<!-- Node4&#45;&gt;Node3 -->
<g id="edge3" class="edge">
<title>Node4&#45;&gt;Node3</title>
<path fill="none" stroke="midnightblue" d="M98,-586.23C98,-577.88 98,-568.89 98,-559.76"/>
<polygon fill="none" stroke="midnightblue" points="94.5,-586.41 98,-596.41 101.5,-586.41 94.5,-586.41"/>
</g>
<!-- Node5 -->
<g id="node5" class="node">
<title>Node5</title>
<g id="a_node5"><a xlink:href="../../db/d64/class_hydro_couple_1_1_i_description.html" target="_top" xlink:title="IDescription interface class provides descriptive information on a HydroCouple object.">
<polygon fill="none" stroke="black" points="26,-701.5 26,-802.5 170,-802.5 170,-701.5 26,-701.5"/>
<text text-anchor="middle" x="98" y="-790.5" font-family="Monaco" font-size="10.00">HydroCouple::IDescription</text>
<polyline fill="none" stroke="black" points="26,-783.5 170,-783.5 "/>
<text text-anchor="middle" x="98" y="-771.5" font-family="Monaco" font-size="10.00"> </text>
<polyline fill="none" stroke="black" points="26,-764.5 170,-764.5 "/>
<text text-anchor="start" x="34" y="-752.5" font-family="Monaco" font-size="10.00">+ ~IDescription()</text>
<text text-anchor="start" x="34" y="-741.5" font-family="Monaco" font-size="10.00">+ caption()</text>
<text text-anchor="start" x="34" y="-730.5" font-family="Monaco" font-size="10.00">+ setCaption()</text>
<text text-anchor="start" x="34" y="-719.5" font-family="Monaco" font-size="10.00">+ description()</text>
<text text-anchor="start" x="34" y="-708.5" font-family="Monaco" font-size="10.00">+ setDescription()</text>
</a>
</g>
</g>
<!-- Node5&#45;&gt;Node4 -->
<g id="edge4" class="edge">
<title>Node5&#45;&gt;Node4</title>
<path fill="none" stroke="midnightblue" d="M98,-691.17C98,-682.11 98,-673.05 98,-664.83"/>
<polygon fill="none" stroke="midnightblue" points="94.5,-691.36 98,-701.36 101.5,-691.36 94.5,-691.36"/>
</g>
<!-- Node6 -->
<g id="node6" class="node">
<title>Node6</title>
<g id="a_node6"><a xlink:href="../../dd/dbf/class_hydro_couple_1_1_i_property_changed.html" target="_top" xlink:title="IPropertyChanged interface is used to emit signal/event when a property of an object changes.">
<polygon fill="none" stroke="black" points="0,-839.5 0,-929.5 196,-929.5 196,-839.5 0,-839.5"/>
<text text-anchor="middle" x="98" y="-917.5" font-family="Monaco" font-size="10.00">HydroCouple::IPropertyChanged</text>
<polyline fill="none" stroke="black" points="0,-910.5 196,-910.5 "/>
<text text-anchor="middle" x="98" y="-898.5" font-family="Monaco" font-size="10.00"> </text>
<polyline fill="none" stroke="black" points="0,-891.5 196,-891.5 "/>
<text text-anchor="start" x="8" y="-879.5" font-family="Monaco" font-size="10.00">+ ~IPropertyChanged()</text>
<text text-anchor="start" x="8" y="-868.5" font-family="Monaco" font-size="10.00">+ registerPropertyChangedListener()</text>
<text text-anchor="start" x="8" y="-857.5" font-family="Monaco" font-size="10.00">+ deRegisterPropertyChanged</text>
<text text-anchor="start" x="8" y="-846.5" font-family="Monaco" font-size="10.00">Listener()</text>
</a>
</g>
</g>
<!-- Node6&#45;&gt;Node5 -->
<g id="edge5" class="edge">
<title>Node6&#45;&gt;Node5</title>
<path fill="none" stroke="midnightblue" d="M98,-829.13C98,-820.31 98,-811.22 98,-802.52"/>
<polygon fill="none" stroke="midnightblue" points="94.5,-829.32 98,-839.32 101.5,-829.32 94.5,-829.32"/>
</g>
</g>
</svg>
