<?xml version="1.0" encoding="UTF-8" standalone="no"?>
<!DOCTYPE svg PUBLIC "-//W3C//DTD SVG 1.1//EN"
 "http://www.w3.org/Graphics/SVG/1.1/DTD/svg11.dtd">
<!-- Generated by graphviz version 2.43.0 (0)
 -->
<!-- Title: HydroCouple::Spatial::IVertex Pages: 1 -->
<svg width="156pt" height="1100pt"
 viewBox="0.00 0.00 156.00 1100.00" xmlns="http://www.w3.org/2000/svg" xmlns:xlink="http://www.w3.org/1999/xlink">
<g id="graph0" class="graph" transform="scale(1 1) rotate(0) translate(4 1096)">
<title>HydroCouple::Spatial::IVertex</title>
<!-- Node1 -->
<g id="Node000001" class="node">
<title>Node1</title>
<g id="a_Node000001"><a xlink:title="The IVertex class is an IPoint of a topologically aware IGeometry.">
<polygon fill="#999999" stroke="transparent" points="130.5,-90 17.5,-90 17.5,0 130.5,0 130.5,-90"/>
<text text-anchor="start" x="23" y="-78" font-family="Monaco" font-size="10.00">HydroCouple::Spatial</text>
<text text-anchor="start" x="54" y="-67" font-family="Monaco" font-size="10.00">::IVertex</text>
<text text-anchor="start" x="72.5" y="-52" font-family="Monaco" font-size="10.00"> </text>
<text text-anchor="start" x="32" y="-37" font-family="Monaco" font-size="10.00">+</text>
<text text-anchor="start" x="55" y="-37" font-family="Monaco" font-size="10.00">~IVertex()</text>
<text text-anchor="start" x="32" y="-22" font-family="Monaco" font-size="10.00">+</text>
<text text-anchor="start" x="55" y="-22" font-family="Monaco" font-size="10.00">index()</text>
<text text-anchor="start" x="32" y="-7" font-family="Monaco" font-size="10.00">+</text>
<text text-anchor="start" x="55" y="-7" font-family="Monaco" font-size="10.00">edge()</text>
<polygon fill="#666666" stroke="#666666" points="18,-62 18,-62 131,-62 131,-62 18,-62"/>
<polygon fill="#666666" stroke="#666666" points="18,-47 18,-47 131,-47 131,-47 18,-47"/>
<polygon fill="none" stroke="#666666" points="17.5,0 17.5,-90 130.5,-90 130.5,0 17.5,0"/>
</a>
</g>
</g>
<!-- Node2 -->
<g id="Node000002" class="node">
<title>Node2</title>
<g id="a_Node000002"><a xlink:href="../../db/d7e/class_hydro_couple_1_1_spatial_1_1_i_point.html" target="_top" xlink:title="An IPoint is a 0&#45;dimensional geometric object and represents a single location in coordinate space.">
<polygon fill="white" stroke="transparent" points="130.5,-246 17.5,-246 17.5,-126 130.5,-126 130.5,-246"/>
<text text-anchor="start" x="23" y="-234" font-family="Monaco" font-size="10.00">HydroCouple::Spatial</text>
<text text-anchor="start" x="57.5" y="-223" font-family="Monaco" font-size="10.00">::IPoint</text>
<text text-anchor="start" x="72.5" y="-208" font-family="Monaco" font-size="10.00"> </text>
<text text-anchor="start" x="34" y="-193" font-family="Monaco" font-size="10.00">+</text>
<text text-anchor="start" x="59" y="-193" font-family="Monaco" font-size="10.00">~IPoint()</text>
<text text-anchor="start" x="34" y="-178" font-family="Monaco" font-size="10.00">+</text>
<text text-anchor="start" x="59" y="-178" font-family="Monaco" font-size="10.00">x()</text>
<text text-anchor="start" x="34" y="-163" font-family="Monaco" font-size="10.00">+</text>
<text text-anchor="start" x="59" y="-163" font-family="Monaco" font-size="10.00">y()</text>
<text text-anchor="start" x="34" y="-148" font-family="Monaco" font-size="10.00">+</text>
<text text-anchor="start" x="59" y="-148" font-family="Monaco" font-size="10.00">z()</text>
<text text-anchor="start" x="34" y="-133" font-family="Monaco" font-size="10.00">+</text>
<text text-anchor="start" x="59" y="-133" font-family="Monaco" font-size="10.00">m()</text>
<polygon fill="#666666" stroke="#666666" points="18,-218 18,-218 131,-218 131,-218 18,-218"/>
<polygon fill="#666666" stroke="#666666" points="18,-203 18,-203 131,-203 131,-203 18,-203"/>
<polygon fill="none" stroke="#666666" points="17.5,-126 17.5,-246 130.5,-246 130.5,-126 17.5,-126"/>
</a>
</g>
</g>
<!-- Node2&#45;&gt;Node1 -->
<g id="edge1_Node000001_Node000002" class="edge">
<title>Node2&#45;&gt;Node1</title>
<g id="a_edge1_Node000001_Node000002"><a xlink:title=" ">
<path fill="none" stroke="#63b8ff" d="M74,-115.5C74,-106.82 74,-98.15 74,-90.01"/>
<polygon fill="none" stroke="#63b8ff" points="70.5,-115.65 74,-125.65 77.5,-115.65 70.5,-115.65"/>
</a>
</g>
</g>
<!-- Node3 -->
<g id="Node000003" class="node">
<title>Node3</title>
<g id="a_Node000003"><a xlink:href="../../d3/d92/class_hydro_couple_1_1_spatial_1_1_i_geometry.html" target="_top" xlink:title="IGeometry is the root class of the geometry hierarchy.">
<polygon fill="white" stroke="transparent" points="148,-1092 0,-1092 0,-282 148,-282 148,-1092"/>
<text text-anchor="start" x="22.5" y="-1080" font-family="Monaco" font-size="10.00">HydroCouple::Spatial</text>
<text text-anchor="start" x="45" y="-1069" font-family="Monaco" font-size="10.00">::IGeometry</text>
<text text-anchor="start" x="72" y="-1054" font-family="Monaco" font-size="10.00"> </text>
<text text-anchor="start" x="4" y="-1039" font-family="Monaco" font-size="10.00">+</text>
<text text-anchor="start" x="17" y="-1039" font-family="Monaco" font-size="10.00">~IGeometry()</text>
<text text-anchor="start" x="4" y="-1024" font-family="Monaco" font-size="10.00">+</text>
<text text-anchor="start" x="17" y="-1024" font-family="Monaco" font-size="10.00">id()</text>
<text text-anchor="start" x="4" y="-1009" font-family="Monaco" font-size="10.00">+</text>
<text text-anchor="start" x="17" y="-1009" font-family="Monaco" font-size="10.00">index()</text>
<text text-anchor="start" x="4" y="-994" font-family="Monaco" font-size="10.00">+</text>
<text text-anchor="start" x="17" y="-994" font-family="Monaco" font-size="10.00">dimension()</text>
<text text-anchor="start" x="4" y="-979" font-family="Monaco" font-size="10.00">+</text>
<text text-anchor="start" x="17" y="-979" font-family="Monaco" font-size="10.00">coordinateDimension()</text>
<text text-anchor="start" x="4" y="-964" font-family="Monaco" font-size="10.00">+</text>
<text text-anchor="start" x="17" y="-964" font-family="Monaco" font-size="10.00">geometryType()</text>
<text text-anchor="start" x="4" y="-949" font-family="Monaco" font-size="10.00">+</text>
<text text-anchor="start" x="17" y="-949" font-family="Monaco" font-size="10.00">spatialReferenceSystem()</text>
<text text-anchor="start" x="4" y="-934" font-family="Monaco" font-size="10.00">+</text>
<text text-anchor="start" x="17" y="-934" font-family="Monaco" font-size="10.00">envelope()</text>
<text text-anchor="start" x="4" y="-919" font-family="Monaco" font-size="10.00">+</text>
<text text-anchor="start" x="17" y="-919" font-family="Monaco" font-size="10.00">getWKT()</text>
<text text-anchor="start" x="4" y="-904" font-family="Monaco" font-size="10.00">+</text>
<text text-anchor="start" x="17" y="-904" font-family="Monaco" font-size="10.00">getWKB()</text>
<text text-anchor="start" x="4" y="-889" font-family="Monaco" font-size="10.00">+</text>
<text text-anchor="start" x="17" y="-889" font-family="Monaco" font-size="10.00">isEmpty()</text>
<text text-anchor="start" x="4" y="-874" font-family="Monaco" font-size="10.00">+</text>
<text text-anchor="start" x="17" y="-874" font-family="Monaco" font-size="10.00">isSimple()</text>
<text text-anchor="start" x="4" y="-859" font-family="Monaco" font-size="10.00">+</text>
<text text-anchor="start" x="17" y="-859" font-family="Monaco" font-size="10.00">is3D()</text>
<text text-anchor="start" x="4" y="-844" font-family="Monaco" font-size="10.00">+</text>
<text text-anchor="start" x="17" y="-844" font-family="Monaco" font-size="10.00">isMeasured()</text>
<text text-anchor="start" x="4" y="-829" font-family="Monaco" font-size="10.00">+</text>
<text text-anchor="start" x="17" y="-829" font-family="Monaco" font-size="10.00">boundary()</text>
<text text-anchor="start" x="4" y="-814" font-family="Monaco" font-size="10.00">+</text>
<text text-anchor="start" x="17" y="-814" font-family="Monaco" font-size="10.00">equals()</text>
<text text-anchor="start" x="4" y="-799" font-family="Monaco" font-size="10.00">+</text>
<text text-anchor="start" x="17" y="-799" font-family="Monaco" font-size="10.00">disjoint()</text>
<text text-anchor="start" x="4" y="-784" font-family="Monaco" font-size="10.00">+</text>
<text text-anchor="start" x="17" y="-784" font-family="Monaco" font-size="10.00">intersects()</text>
<text text-anchor="start" x="4" y="-769" font-family="Monaco" font-size="10.00">+</text>
<text text-anchor="start" x="17" y="-769" font-family="Monaco" font-size="10.00">touches()</text>
<text text-anchor="start" x="4" y="-754" font-family="Monaco" font-size="10.00">+</text>
<text text-anchor="start" x="17" y="-754" font-family="Monaco" font-size="10.00">crosses()</text>
<text text-anchor="start" x="4" y="-739" font-family="Monaco" font-size="10.00">+</text>
<text text-anchor="start" x="17" y="-739" font-family="Monaco" font-size="10.00">within()</text>
<text text-anchor="start" x="4" y="-724" font-family="Monaco" font-size="10.00">+</text>
<text text-anchor="start" x="17" y="-724" font-family="Monaco" font-size="10.00">contains()</text>
<text text-anchor="start" x="4" y="-709" font-family="Monaco" font-size="10.00">+</text>
<text text-anchor="start" x="17" y="-709" font-family="Monaco" font-size="10.00">overlaps()</text>
<text text-anchor="start" x="4" y="-694" font-family="Monaco" font-size="10.00">+</text>
<text text-anchor="start" x="17" y="-694" font-family="Monaco" font-size="10.00">relate()</text>
<text text-anchor="start" x="4" y="-679" font-family="Monaco" font-size="10.00">+</text>
<text text-anchor="start" x="17" y="-679" font-family="Monaco" font-size="10.00">locateAlong()</text>
<text text-anchor="start" x="4" y="-664" font-family="Monaco" font-size="10.00">+</text>
<text text-anchor="start" x="17" y="-664" font-family="Monaco" font-size="10.00">locateBetween()</text>
<text text-anchor="start" x="4" y="-649" font-family="Monaco" font-size="10.00">+</text>
<text text-anchor="start" x="17" y="-649" font-family="Monaco" font-size="10.00">distance()</text>
<text text-anchor="start" x="4" y="-634" font-family="Monaco" font-size="10.00">+</text>
<text text-anchor="start" x="17" y="-634" font-family="Monaco" font-size="10.00">buffer()</text>
<text text-anchor="start" x="4" y="-619" font-family="Monaco" font-size="10.00">+</text>
<text text-anchor="start" x="17" y="-619" font-family="Monaco" font-size="10.00">convexHull()</text>
<text text-anchor="start" x="4" y="-604" font-family="Monaco" font-size="10.00">+</text>
<text text-anchor="start" x="17" y="-604" font-family="Monaco" font-size="10.00">intersection()</text>
<text text-anchor="start" x="4" y="-589" font-family="Monaco" font-size="10.00">+</text>
<text text-anchor="start" x="17" y="-589" font-family="Monaco" font-size="10.00">unionG()</text>
<text text-anchor="start" x="4" y="-574" font-family="Monaco" font-size="10.00">+</text>
<text text-anchor="start" x="17" y="-574" font-family="Monaco" font-size="10.00">difference()</text>
<text text-anchor="start" x="4" y="-559" font-family="Monaco" font-size="10.00">+</text>
<text text-anchor="start" x="17" y="-559" font-family="Monaco" font-size="10.00">symmetricDifference()</text>
<text text-anchor="start" x="5.5" y="-544" font-family="Monaco" font-size="10.00">*</text>
<text text-anchor="start" x="17" y="-544" font-family="Monaco" font-size="10.00">equals()</text>
<text text-anchor="start" x="5.5" y="-529" font-family="Monaco" font-size="10.00">*</text>
<text text-anchor="start" x="17" y="-529" font-family="Monaco" font-size="10.00">disjoint()</text>
<text text-anchor="start" x="5.5" y="-514" font-family="Monaco" font-size="10.00">*</text>
<text text-anchor="start" x="17" y="-514" font-family="Monaco" font-size="10.00">intersects()</text>
<text text-anchor="start" x="5.5" y="-499" font-family="Monaco" font-size="10.00">*</text>
<text text-anchor="start" x="17" y="-499" font-family="Monaco" font-size="10.00">touches()</text>
<text text-anchor="start" x="5.5" y="-484" font-family="Monaco" font-size="10.00">*</text>
<text text-anchor="start" x="17" y="-484" font-family="Monaco" font-size="10.00">crosses()</text>
<text text-anchor="start" x="5.5" y="-469" font-family="Monaco" font-size="10.00">*</text>
<text text-anchor="start" x="17" y="-469" font-family="Monaco" font-size="10.00">within()</text>
<text text-anchor="start" x="5.5" y="-454" font-family="Monaco" font-size="10.00">*</text>
<text text-anchor="start" x="17" y="-454" font-family="Monaco" font-size="10.00">contains()</text>
<text text-anchor="start" x="5.5" y="-439" font-family="Monaco" font-size="10.00">*</text>
<text text-anchor="start" x="17" y="-439" font-family="Monaco" font-size="10.00">overlaps()</text>
<text text-anchor="start" x="5.5" y="-424" font-family="Monaco" font-size="10.00">*</text>
<text text-anchor="start" x="17" y="-424" font-family="Monaco" font-size="10.00">relate()</text>
<text text-anchor="start" x="5.5" y="-409" font-family="Monaco" font-size="10.00">*</text>
<text text-anchor="start" x="17" y="-409" font-family="Monaco" font-size="10.00">locateAlong()</text>
<text text-anchor="start" x="5.5" y="-394" font-family="Monaco" font-size="10.00">*</text>
<text text-anchor="start" x="17" y="-394" font-family="Monaco" font-size="10.00">locateBetween()</text>
<text text-anchor="start" x="5.5" y="-379" font-family="Monaco" font-size="10.00">*</text>
<text text-anchor="start" x="17" y="-379" font-family="Monaco" font-size="10.00">distance()</text>
<text text-anchor="start" x="5.5" y="-364" font-family="Monaco" font-size="10.00">*</text>
<text text-anchor="start" x="17" y="-364" font-family="Monaco" font-size="10.00">buffer()</text>
<text text-anchor="start" x="5.5" y="-349" font-family="Monaco" font-size="10.00">*</text>
<text text-anchor="start" x="17" y="-349" font-family="Monaco" font-size="10.00">convexHull()</text>
<text text-anchor="start" x="5.5" y="-334" font-family="Monaco" font-size="10.00">*</text>
<text text-anchor="start" x="17" y="-334" font-family="Monaco" font-size="10.00">intersection()</text>
<text text-anchor="start" x="5.5" y="-319" font-family="Monaco" font-size="10.00">*</text>
<text text-anchor="start" x="17" y="-319" font-family="Monaco" font-size="10.00">unionG()</text>
<text text-anchor="start" x="5.5" y="-304" font-family="Monaco" font-size="10.00">*</text>
<text text-anchor="start" x="17" y="-304" font-family="Monaco" font-size="10.00">difference()</text>
<text text-anchor="start" x="5.5" y="-289" font-family="Monaco" font-size="10.00">*</text>
<text text-anchor="start" x="17" y="-289" font-family="Monaco" font-size="10.00">symmetricDifference()</text>
<polygon fill="#666666" stroke="#666666" points="0,-1064 0,-1064 148,-1064 148,-1064 0,-1064"/>
<polygon fill="#666666" stroke="#666666" points="0,-1049 0,-1049 148,-1049 148,-1049 0,-1049"/>
<polygon fill="none" stroke="#666666" points="0,-282 0,-1092 148,-1092 148,-282 0,-282"/>
</a>
</g>
</g>
<!-- Node3&#45;&gt;Node2 -->
<g id="edge2_Node000002_Node000003" class="edge">
<title>Node3&#45;&gt;Node2</title>
<g id="a_edge2_Node000002_Node000003"><a xlink:title=" ">
<path fill="none" stroke="#63b8ff" d="M74,-271.66C74,-262.56 74,-253.99 74,-246.05"/>
<polygon fill="none" stroke="#63b8ff" points="70.5,-271.74 74,-281.74 77.5,-271.74 70.5,-271.74"/>
</a>
</g>
</g>
</g>
</svg>
