<?xml version="1.0" encoding="UTF-8" standalone="no"?>
<!DOCTYPE svg PUBLIC "-//W3C//DTD SVG 1.1//EN"
 "http://www.w3.org/Graphics/SVG/1.1/DTD/svg11.dtd">
<!-- Generated by graphviz version 2.43.0 (0)
 -->
<!-- Title: HydroCouple::Spatial::ISurface Pages: 1 -->
<svg width="156pt" height="974pt"
 viewBox="0.00 0.00 156.00 974.00" xmlns="http://www.w3.org/2000/svg" xmlns:xlink="http://www.w3.org/1999/xlink">
<g id="graph0" class="graph" transform="scale(1 1) rotate(0) translate(4 970)">
<title>HydroCouple::Spatial::ISurface</title>
<!-- Node1 -->
<g id="Node000001" class="node">
<title>Node1</title>
<g id="a_Node000001"><a xlink:title="A ISurface is a 2&#45;dimensional IGeometry object.">
<polygon fill="#999999" stroke="transparent" points="138,-120 10,-120 10,0 138,0 138,-120"/>
<text text-anchor="start" x="22.5" y="-108" font-family="Monaco" font-size="10.00">HydroCouple::Spatial</text>
<text text-anchor="start" x="51" y="-97" font-family="Monaco" font-size="10.00">::ISurface</text>
<text text-anchor="start" x="72" y="-82" font-family="Monaco" font-size="10.00"> </text>
<text text-anchor="start" x="14" y="-67" font-family="Monaco" font-size="10.00">+</text>
<text text-anchor="start" x="27" y="-67" font-family="Monaco" font-size="10.00">~ISurface()</text>
<text text-anchor="start" x="14" y="-52" font-family="Monaco" font-size="10.00">+</text>
<text text-anchor="start" x="27" y="-52" font-family="Monaco" font-size="10.00">area()</text>
<text text-anchor="start" x="14" y="-37" font-family="Monaco" font-size="10.00">+</text>
<text text-anchor="start" x="27" y="-37" font-family="Monaco" font-size="10.00">centroid()</text>
<text text-anchor="start" x="14" y="-22" font-family="Monaco" font-size="10.00">+</text>
<text text-anchor="start" x="27" y="-22" font-family="Monaco" font-size="10.00">pointOnSurface()</text>
<text text-anchor="start" x="14" y="-7" font-family="Monaco" font-size="10.00">+</text>
<text text-anchor="start" x="27" y="-7" font-family="Monaco" font-size="10.00">boundaryMultiCurve()</text>
<polygon fill="#666666" stroke="#666666" points="10,-92 10,-92 138,-92 138,-92 10,-92"/>
<polygon fill="#666666" stroke="#666666" points="10,-77 10,-77 138,-77 138,-77 10,-77"/>
<polygon fill="none" stroke="#666666" points="10,0 10,-120 138,-120 138,0 10,0"/>
</a>
</g>
</g>
<!-- Node2 -->
<g id="Node000002" class="node">
<title>Node2</title>
<g id="a_Node000002"><a xlink:href="../../d3/d92/class_hydro_couple_1_1_spatial_1_1_i_geometry.html" target="_top" xlink:title="IGeometry is the root class of the geometry hierarchy.">
<polygon fill="white" stroke="transparent" points="148,-966 0,-966 0,-156 148,-156 148,-966"/>
<text text-anchor="start" x="22.5" y="-954" font-family="Monaco" font-size="10.00">HydroCouple::Spatial</text>
<text text-anchor="start" x="45" y="-943" font-family="Monaco" font-size="10.00">::IGeometry</text>
<text text-anchor="start" x="72" y="-928" font-family="Monaco" font-size="10.00"> </text>
<text text-anchor="start" x="4" y="-913" font-family="Monaco" font-size="10.00">+</text>
<text text-anchor="start" x="17" y="-913" font-family="Monaco" font-size="10.00">~IGeometry()</text>
<text text-anchor="start" x="4" y="-898" font-family="Monaco" font-size="10.00">+</text>
<text text-anchor="start" x="17" y="-898" font-family="Monaco" font-size="10.00">id()</text>
<text text-anchor="start" x="4" y="-883" font-family="Monaco" font-size="10.00">+</text>
<text text-anchor="start" x="17" y="-883" font-family="Monaco" font-size="10.00">index()</text>
<text text-anchor="start" x="4" y="-868" font-family="Monaco" font-size="10.00">+</text>
<text text-anchor="start" x="17" y="-868" font-family="Monaco" font-size="10.00">dimension()</text>
<text text-anchor="start" x="4" y="-853" font-family="Monaco" font-size="10.00">+</text>
<text text-anchor="start" x="17" y="-853" font-family="Monaco" font-size="10.00">coordinateDimension()</text>
<text text-anchor="start" x="4" y="-838" font-family="Monaco" font-size="10.00">+</text>
<text text-anchor="start" x="17" y="-838" font-family="Monaco" font-size="10.00">geometryType()</text>
<text text-anchor="start" x="4" y="-823" font-family="Monaco" font-size="10.00">+</text>
<text text-anchor="start" x="17" y="-823" font-family="Monaco" font-size="10.00">spatialReferenceSystem()</text>
<text text-anchor="start" x="4" y="-808" font-family="Monaco" font-size="10.00">+</text>
<text text-anchor="start" x="17" y="-808" font-family="Monaco" font-size="10.00">envelope()</text>
<text text-anchor="start" x="4" y="-793" font-family="Monaco" font-size="10.00">+</text>
<text text-anchor="start" x="17" y="-793" font-family="Monaco" font-size="10.00">getWKT()</text>
<text text-anchor="start" x="4" y="-778" font-family="Monaco" font-size="10.00">+</text>
<text text-anchor="start" x="17" y="-778" font-family="Monaco" font-size="10.00">getWKB()</text>
<text text-anchor="start" x="4" y="-763" font-family="Monaco" font-size="10.00">+</text>
<text text-anchor="start" x="17" y="-763" font-family="Monaco" font-size="10.00">isEmpty()</text>
<text text-anchor="start" x="4" y="-748" font-family="Monaco" font-size="10.00">+</text>
<text text-anchor="start" x="17" y="-748" font-family="Monaco" font-size="10.00">isSimple()</text>
<text text-anchor="start" x="4" y="-733" font-family="Monaco" font-size="10.00">+</text>
<text text-anchor="start" x="17" y="-733" font-family="Monaco" font-size="10.00">is3D()</text>
<text text-anchor="start" x="4" y="-718" font-family="Monaco" font-size="10.00">+</text>
<text text-anchor="start" x="17" y="-718" font-family="Monaco" font-size="10.00">isMeasured()</text>
<text text-anchor="start" x="4" y="-703" font-family="Monaco" font-size="10.00">+</text>
<text text-anchor="start" x="17" y="-703" font-family="Monaco" font-size="10.00">boundary()</text>
<text text-anchor="start" x="4" y="-688" font-family="Monaco" font-size="10.00">+</text>
<text text-anchor="start" x="17" y="-688" font-family="Monaco" font-size="10.00">equals()</text>
<text text-anchor="start" x="4" y="-673" font-family="Monaco" font-size="10.00">+</text>
<text text-anchor="start" x="17" y="-673" font-family="Monaco" font-size="10.00">disjoint()</text>
<text text-anchor="start" x="4" y="-658" font-family="Monaco" font-size="10.00">+</text>
<text text-anchor="start" x="17" y="-658" font-family="Monaco" font-size="10.00">intersects()</text>
<text text-anchor="start" x="4" y="-643" font-family="Monaco" font-size="10.00">+</text>
<text text-anchor="start" x="17" y="-643" font-family="Monaco" font-size="10.00">touches()</text>
<text text-anchor="start" x="4" y="-628" font-family="Monaco" font-size="10.00">+</text>
<text text-anchor="start" x="17" y="-628" font-family="Monaco" font-size="10.00">crosses()</text>
<text text-anchor="start" x="4" y="-613" font-family="Monaco" font-size="10.00">+</text>
<text text-anchor="start" x="17" y="-613" font-family="Monaco" font-size="10.00">within()</text>
<text text-anchor="start" x="4" y="-598" font-family="Monaco" font-size="10.00">+</text>
<text text-anchor="start" x="17" y="-598" font-family="Monaco" font-size="10.00">contains()</text>
<text text-anchor="start" x="4" y="-583" font-family="Monaco" font-size="10.00">+</text>
<text text-anchor="start" x="17" y="-583" font-family="Monaco" font-size="10.00">overlaps()</text>
<text text-anchor="start" x="4" y="-568" font-family="Monaco" font-size="10.00">+</text>
<text text-anchor="start" x="17" y="-568" font-family="Monaco" font-size="10.00">relate()</text>
<text text-anchor="start" x="4" y="-553" font-family="Monaco" font-size="10.00">+</text>
<text text-anchor="start" x="17" y="-553" font-family="Monaco" font-size="10.00">locateAlong()</text>
<text text-anchor="start" x="4" y="-538" font-family="Monaco" font-size="10.00">+</text>
<text text-anchor="start" x="17" y="-538" font-family="Monaco" font-size="10.00">locateBetween()</text>
<text text-anchor="start" x="4" y="-523" font-family="Monaco" font-size="10.00">+</text>
<text text-anchor="start" x="17" y="-523" font-family="Monaco" font-size="10.00">distance()</text>
<text text-anchor="start" x="4" y="-508" font-family="Monaco" font-size="10.00">+</text>
<text text-anchor="start" x="17" y="-508" font-family="Monaco" font-size="10.00">buffer()</text>
<text text-anchor="start" x="4" y="-493" font-family="Monaco" font-size="10.00">+</text>
<text text-anchor="start" x="17" y="-493" font-family="Monaco" font-size="10.00">convexHull()</text>
<text text-anchor="start" x="4" y="-478" font-family="Monaco" font-size="10.00">+</text>
<text text-anchor="start" x="17" y="-478" font-family="Monaco" font-size="10.00">intersection()</text>
<text text-anchor="start" x="4" y="-463" font-family="Monaco" font-size="10.00">+</text>
<text text-anchor="start" x="17" y="-463" font-family="Monaco" font-size="10.00">unionG()</text>
<text text-anchor="start" x="4" y="-448" font-family="Monaco" font-size="10.00">+</text>
<text text-anchor="start" x="17" y="-448" font-family="Monaco" font-size="10.00">difference()</text>
<text text-anchor="start" x="4" y="-433" font-family="Monaco" font-size="10.00">+</text>
<text text-anchor="start" x="17" y="-433" font-family="Monaco" font-size="10.00">symmetricDifference()</text>
<text text-anchor="start" x="5.5" y="-418" font-family="Monaco" font-size="10.00">*</text>
<text text-anchor="start" x="17" y="-418" font-family="Monaco" font-size="10.00">equals()</text>
<text text-anchor="start" x="5.5" y="-403" font-family="Monaco" font-size="10.00">*</text>
<text text-anchor="start" x="17" y="-403" font-family="Monaco" font-size="10.00">disjoint()</text>
<text text-anchor="start" x="5.5" y="-388" font-family="Monaco" font-size="10.00">*</text>
<text text-anchor="start" x="17" y="-388" font-family="Monaco" font-size="10.00">intersects()</text>
<text text-anchor="start" x="5.5" y="-373" font-family="Monaco" font-size="10.00">*</text>
<text text-anchor="start" x="17" y="-373" font-family="Monaco" font-size="10.00">touches()</text>
<text text-anchor="start" x="5.5" y="-358" font-family="Monaco" font-size="10.00">*</text>
<text text-anchor="start" x="17" y="-358" font-family="Monaco" font-size="10.00">crosses()</text>
<text text-anchor="start" x="5.5" y="-343" font-family="Monaco" font-size="10.00">*</text>
<text text-anchor="start" x="17" y="-343" font-family="Monaco" font-size="10.00">within()</text>
<text text-anchor="start" x="5.5" y="-328" font-family="Monaco" font-size="10.00">*</text>
<text text-anchor="start" x="17" y="-328" font-family="Monaco" font-size="10.00">contains()</text>
<text text-anchor="start" x="5.5" y="-313" font-family="Monaco" font-size="10.00">*</text>
<text text-anchor="start" x="17" y="-313" font-family="Monaco" font-size="10.00">overlaps()</text>
<text text-anchor="start" x="5.5" y="-298" font-family="Monaco" font-size="10.00">*</text>
<text text-anchor="start" x="17" y="-298" font-family="Monaco" font-size="10.00">relate()</text>
<text text-anchor="start" x="5.5" y="-283" font-family="Monaco" font-size="10.00">*</text>
<text text-anchor="start" x="17" y="-283" font-family="Monaco" font-size="10.00">locateAlong()</text>
<text text-anchor="start" x="5.5" y="-268" font-family="Monaco" font-size="10.00">*</text>
<text text-anchor="start" x="17" y="-268" font-family="Monaco" font-size="10.00">locateBetween()</text>
<text text-anchor="start" x="5.5" y="-253" font-family="Monaco" font-size="10.00">*</text>
<text text-anchor="start" x="17" y="-253" font-family="Monaco" font-size="10.00">distance()</text>
<text text-anchor="start" x="5.5" y="-238" font-family="Monaco" font-size="10.00">*</text>
<text text-anchor="start" x="17" y="-238" font-family="Monaco" font-size="10.00">buffer()</text>
<text text-anchor="start" x="5.5" y="-223" font-family="Monaco" font-size="10.00">*</text>
<text text-anchor="start" x="17" y="-223" font-family="Monaco" font-size="10.00">convexHull()</text>
<text text-anchor="start" x="5.5" y="-208" font-family="Monaco" font-size="10.00">*</text>
<text text-anchor="start" x="17" y="-208" font-family="Monaco" font-size="10.00">intersection()</text>
<text text-anchor="start" x="5.5" y="-193" font-family="Monaco" font-size="10.00">*</text>
<text text-anchor="start" x="17" y="-193" font-family="Monaco" font-size="10.00">unionG()</text>
<text text-anchor="start" x="5.5" y="-178" font-family="Monaco" font-size="10.00">*</text>
<text text-anchor="start" x="17" y="-178" font-family="Monaco" font-size="10.00">difference()</text>
<text text-anchor="start" x="5.5" y="-163" font-family="Monaco" font-size="10.00">*</text>
<text text-anchor="start" x="17" y="-163" font-family="Monaco" font-size="10.00">symmetricDifference()</text>
<polygon fill="#666666" stroke="#666666" points="0,-938 0,-938 148,-938 148,-938 0,-938"/>
<polygon fill="#666666" stroke="#666666" points="0,-923 0,-923 148,-923 148,-923 0,-923"/>
<polygon fill="none" stroke="#666666" points="0,-156 0,-966 148,-966 148,-156 0,-156"/>
</a>
</g>
</g>
<!-- Node2&#45;&gt;Node1 -->
<g id="edge1_Node000001_Node000002" class="edge">
<title>Node2&#45;&gt;Node1</title>
<g id="a_edge1_Node000001_Node000002"><a xlink:title=" ">
<path fill="none" stroke="#63b8ff" d="M74,-145.66C74,-136.56 74,-127.99 74,-120.05"/>
<polygon fill="none" stroke="#63b8ff" points="70.5,-145.74 74,-155.74 77.5,-145.74 70.5,-145.74"/>
</a>
</g>
</g>
</g>
</svg>
