<?xml version="1.0" encoding="UTF-8" standalone="no"?>
<!DOCTYPE svg PUBLIC "-//W3C//DTD SVG 1.1//EN"
 "http://www.w3.org/Graphics/SVG/1.1/DTD/svg11.dtd">
<!-- Generated by graphviz version 2.43.0 (0)
 -->
<!-- Title: WKBGeometryZM Pages: 1 -->
<svg width="1020pt" height="740pt"
 viewBox="0.00 0.00 1020.45 740.00" xmlns="http://www.w3.org/2000/svg" xmlns:xlink="http://www.w3.org/1999/xlink">
<g id="graph0" class="graph" transform="scale(1 1) rotate(0) translate(4 736)">
<title>WKBGeometryZM</title>
<!-- Node1 -->
<g id="Node000001" class="node">
<title>Node1</title>
<g id="a_Node000001"><a xlink:title="The WKBGeometryZM union.">
<polygon fill="#999999" stroke="transparent" points="513.45,-175 415.45,-175 415.45,-126 513.45,-126 513.45,-175"/>
<text text-anchor="start" x="420.45" y="-162.5" font-family="Monaco" font-size="10.00">WKBGeometryZM</text>
<text text-anchor="start" x="462.45" y="-147.5" font-family="Monaco" font-size="10.00"> </text>
<text text-anchor="start" x="462.45" y="-132.5" font-family="Monaco" font-size="10.00"> </text>
<polygon fill="#666666" stroke="#666666" points="415.45,-157.5 415.45,-157.5 513.45,-157.5 513.45,-157.5 415.45,-157.5"/>
<polygon fill="#666666" stroke="#666666" points="415.45,-142.5 415.45,-142.5 513.45,-142.5 513.45,-142.5 415.45,-142.5"/>
<polygon fill="none" stroke="#666666" points="415.45,-126 415.45,-175 513.45,-175 513.45,-126 415.45,-126"/>
</a>
</g>
</g>
<!-- Node19 -->
<g id="Node000019" class="node">
<title>Node19</title>
<g id="a_Node000019"><a xlink:href="../../d9/d46/struct_w_k_b_geometry_collection_z_m.html" target="_top" xlink:title="The WKBGeometryCollectionZM struct.">
<polygon fill="white" stroke="transparent" points="537.95,-79 390.95,-79 390.95,0 537.95,0 537.95,-79"/>
<text text-anchor="start" x="396.45" y="-66.5" font-family="Monaco" font-size="10.00">WKBGeometryCollectionZM</text>
<text text-anchor="start" x="406.95" y="-51.5" font-family="Monaco" font-size="10.00">+</text>
<text text-anchor="start" x="431.45" y="-51.5" font-family="Monaco" font-size="10.00">byte_order</text>
<text text-anchor="start" x="406.95" y="-36.5" font-family="Monaco" font-size="10.00">+</text>
<text text-anchor="start" x="431.45" y="-36.5" font-family="Monaco" font-size="10.00">numGeometries</text>
<text text-anchor="start" x="406.95" y="-21.5" font-family="Monaco" font-size="10.00">+</text>
<text text-anchor="start" x="431.45" y="-21.5" font-family="Monaco" font-size="10.00">wkbType</text>
<text text-anchor="start" x="462.95" y="-6.5" font-family="Monaco" font-size="10.00"> </text>
<polygon fill="#666666" stroke="#666666" points="391.45,-61.5 391.45,-61.5 538.45,-61.5 538.45,-61.5 391.45,-61.5"/>
<polygon fill="#666666" stroke="#666666" points="391.45,-16.5 391.45,-16.5 429.45,-16.5 429.45,-16.5 391.45,-16.5"/>
<polygon fill="#666666" stroke="#666666" points="429.45,-16.5 429.45,-16.5 538.45,-16.5 538.45,-16.5 429.45,-16.5"/>
<polygon fill="none" stroke="#666666" points="390.95,0 390.95,-79 537.95,-79 537.95,0 390.95,0"/>
</a>
</g>
</g>
<!-- Node1&#45;&gt;Node19 -->
<g id="edge25_Node000019_Node000001" class="edge">
<title>Node1&#45;&gt;Node19</title>
<g id="a_edge25_Node000019_Node000001"><a xlink:title=" ">
<path fill="none" stroke="#63b8ff" d="M426.03,-125.86C417.74,-117.66 412.49,-107.78 416.45,-97 417.33,-94.59 418.37,-92.22 419.53,-89.89"/>
<polygon fill="none" stroke="#63b8ff" points="419.67,-89.65 419.27,-82.45 425.76,-79.31 426.16,-86.51 419.67,-89.65"/>
</a>
</g>
<text text-anchor="middle" x="449.95" y="-100" font-family="Monaco" font-size="10.00" fill="grey"> +geometries</text>
</g>
<!-- Node2 -->
<g id="Node000002" class="node">
<title>Node2</title>
<g id="a_Node000002"><a xlink:href="../../df/d1c/struct_w_k_b_point_z_m.html" target="_top" xlink:title="The WKBPointZM struct.">
<polygon fill="white" stroke="transparent" points="164.45,-487.5 90.45,-487.5 90.45,-423.5 164.45,-423.5 164.45,-487.5"/>
<text text-anchor="start" x="95.45" y="-475.5" font-family="Monaco" font-size="10.00">WKBPointZM</text>
<text text-anchor="start" x="95.45" y="-460.5" font-family="Monaco" font-size="10.00">+</text>
<text text-anchor="start" x="109.45" y="-460.5" font-family="Monaco" font-size="10.00">byteOrder</text>
<text text-anchor="start" x="95.45" y="-445.5" font-family="Monaco" font-size="10.00">+</text>
<text text-anchor="start" x="109.45" y="-445.5" font-family="Monaco" font-size="10.00">wkbType</text>
<text text-anchor="start" x="125.45" y="-430.5" font-family="Monaco" font-size="10.00"> </text>
<polygon fill="#666666" stroke="#666666" points="90.45,-470.5 90.45,-470.5 164.45,-470.5 164.45,-470.5 90.45,-470.5"/>
<polygon fill="#666666" stroke="#666666" points="90.45,-440.5 90.45,-440.5 107.45,-440.5 107.45,-440.5 90.45,-440.5"/>
<polygon fill="#666666" stroke="#666666" points="107.45,-440.5 107.45,-440.5 164.45,-440.5 164.45,-440.5 107.45,-440.5"/>
<polygon fill="none" stroke="#666666" points="90.45,-423.5 90.45,-487.5 164.45,-487.5 164.45,-423.5 90.45,-423.5"/>
</a>
</g>
</g>
<!-- Node2&#45;&gt;Node1 -->
<g id="edge1_Node000001_Node000002" class="edge">
<title>Node2&#45;&gt;Node1</title>
<g id="a_edge1_Node000001_Node000002"><a xlink:title=" ">
<path fill="none" stroke="#63b8ff" d="M92.11,-423.21C43.36,-376.26 -33.18,-286.25 16.45,-222 62.66,-162.16 291.67,-152.43 403.2,-151.3"/>
<polygon fill="none" stroke="#63b8ff" points="403.23,-151.3 409.2,-147.25 415.23,-151.21 409.26,-155.25 403.23,-151.3"/>
</a>
</g>
<text text-anchor="middle" x="42.45" y="-259" font-family="Monaco" font-size="10.00" fill="grey"> +pointzm</text>
</g>
<!-- Node13 -->
<g id="Node000013" class="node">
<title>Node13</title>
<g id="a_Node000013"><a xlink:href="../../dc/de1/struct_w_k_b_multi_point_z_m.html" target="_top" xlink:title="The WKBMultiPointZM struct.">
<polygon fill="white" stroke="transparent" points="176.95,-301 77.95,-301 77.95,-222 176.95,-222 176.95,-301"/>
<text text-anchor="start" x="83.45" y="-288.5" font-family="Monaco" font-size="10.00">WKBMultiPointZM</text>
<text text-anchor="start" x="88.95" y="-273.5" font-family="Monaco" font-size="10.00">+</text>
<text text-anchor="start" x="108.45" y="-273.5" font-family="Monaco" font-size="10.00">byteOrder</text>
<text text-anchor="start" x="88.95" y="-258.5" font-family="Monaco" font-size="10.00">+</text>
<text text-anchor="start" x="108.45" y="-258.5" font-family="Monaco" font-size="10.00">numPoints</text>
<text text-anchor="start" x="88.95" y="-243.5" font-family="Monaco" font-size="10.00">+</text>
<text text-anchor="start" x="108.45" y="-243.5" font-family="Monaco" font-size="10.00">wkbType</text>
<text text-anchor="start" x="125.95" y="-228.5" font-family="Monaco" font-size="10.00"> </text>
<polygon fill="#666666" stroke="#666666" points="78.45,-283.5 78.45,-283.5 177.45,-283.5 177.45,-283.5 78.45,-283.5"/>
<polygon fill="#666666" stroke="#666666" points="78.45,-238.5 78.45,-238.5 106.45,-238.5 106.45,-238.5 78.45,-238.5"/>
<polygon fill="#666666" stroke="#666666" points="106.45,-238.5 106.45,-238.5 177.45,-238.5 177.45,-238.5 106.45,-238.5"/>
<polygon fill="none" stroke="#666666" points="77.95,-222 77.95,-301 176.95,-301 176.95,-222 77.95,-222"/>
</a>
</g>
</g>
<!-- Node2&#45;&gt;Node13 -->
<g id="edge17_Node000013_Node000002" class="edge">
<title>Node2&#45;&gt;Node13</title>
<g id="a_edge17_Node000013_Node000002"><a xlink:title=" ">
<path fill="none" stroke="#63b8ff" d="M127.45,-423.22C127.45,-393.51 127.45,-348.3 127.45,-313.4"/>
<polygon fill="none" stroke="#63b8ff" points="127.45,-313.05 123.45,-307.05 127.45,-301.05 131.45,-307.05 127.45,-313.05"/>
</a>
</g>
<text text-anchor="middle" x="148.45" y="-356" font-family="Monaco" font-size="10.00" fill="grey"> +points</text>
</g>
<!-- Node3 -->
<g id="Node000003" class="node">
<title>Node3</title>
<g id="a_Node000003"><a xlink:href="../../d7/ded/struct_point_z_m.html" target="_top" xlink:title="The PointZM struct.">
<polygon fill="white" stroke="transparent" points="361.95,-732 310.95,-732 310.95,-638 361.95,-638 361.95,-732"/>
<text text-anchor="start" x="316.45" y="-720" font-family="Monaco" font-size="10.00">PointZM</text>
<text text-anchor="start" x="320.45" y="-705" font-family="Monaco" font-size="10.00">+</text>
<text text-anchor="start" x="338.45" y="-705" font-family="Monaco" font-size="10.00">x</text>
<text text-anchor="start" x="320.45" y="-690" font-family="Monaco" font-size="10.00">+</text>
<text text-anchor="start" x="338.45" y="-690" font-family="Monaco" font-size="10.00">y</text>
<text text-anchor="start" x="320.45" y="-675" font-family="Monaco" font-size="10.00">+</text>
<text text-anchor="start" x="338.45" y="-675" font-family="Monaco" font-size="10.00">z</text>
<text text-anchor="start" x="320.45" y="-660" font-family="Monaco" font-size="10.00">+</text>
<text text-anchor="start" x="338.45" y="-660" font-family="Monaco" font-size="10.00">m</text>
<text text-anchor="start" x="334.95" y="-645" font-family="Monaco" font-size="10.00"> </text>
<polygon fill="#666666" stroke="#666666" points="311.45,-715 311.45,-715 362.45,-715 362.45,-715 311.45,-715"/>
<polygon fill="#666666" stroke="#666666" points="311.45,-655 311.45,-655 336.45,-655 336.45,-655 311.45,-655"/>
<polygon fill="#666666" stroke="#666666" points="336.45,-655 336.45,-655 362.45,-655 362.45,-655 336.45,-655"/>
<polygon fill="none" stroke="#666666" points="310.95,-638 310.95,-732 361.95,-732 361.95,-638 310.95,-638"/>
</a>
</g>
</g>
<!-- Node3&#45;&gt;Node2 -->
<g id="edge2_Node000002_Node000003" class="edge">
<title>Node3&#45;&gt;Node2</title>
<g id="a_edge2_Node000002_Node000003"><a xlink:title=" ">
<path fill="none" stroke="#63b8ff" d="M310.82,-656.1C274.11,-616.14 206.35,-542.38 164.27,-496.58"/>
<polygon fill="none" stroke="#63b8ff" points="164.08,-496.37 157.07,-494.66 155.96,-487.54 162.96,-489.25 164.08,-496.37"/>
</a>
</g>
<text text-anchor="middle" x="267.95" y="-564" font-family="Monaco" font-size="10.00" fill="grey"> +point</text>
</g>
<!-- Node4 -->
<g id="Node000004" class="node">
<title>Node4</title>
<g id="a_Node000004"><a xlink:href="../../df/d44/struct_w_k_b_line_string_z_m.html" target="_top" xlink:title="The WKBLineStringZM struct.">
<polygon fill="white" stroke="transparent" points="385.45,-495 287.45,-495 287.45,-416 385.45,-416 385.45,-495"/>
<text text-anchor="start" x="292.45" y="-482.5" font-family="Monaco" font-size="10.00">WKBLineStringZM</text>
<text text-anchor="start" x="297.45" y="-467.5" font-family="Monaco" font-size="10.00">+</text>
<text text-anchor="start" x="316.45" y="-467.5" font-family="Monaco" font-size="10.00">byteOrder</text>
<text text-anchor="start" x="297.45" y="-452.5" font-family="Monaco" font-size="10.00">+</text>
<text text-anchor="start" x="316.45" y="-452.5" font-family="Monaco" font-size="10.00">numPoints</text>
<text text-anchor="start" x="297.45" y="-437.5" font-family="Monaco" font-size="10.00">+</text>
<text text-anchor="start" x="316.45" y="-437.5" font-family="Monaco" font-size="10.00">wkbType</text>
<text text-anchor="start" x="334.45" y="-422.5" font-family="Monaco" font-size="10.00"> </text>
<polygon fill="#666666" stroke="#666666" points="287.45,-477.5 287.45,-477.5 385.45,-477.5 385.45,-477.5 287.45,-477.5"/>
<polygon fill="#666666" stroke="#666666" points="287.45,-432.5 287.45,-432.5 314.45,-432.5 314.45,-432.5 287.45,-432.5"/>
<polygon fill="#666666" stroke="#666666" points="314.45,-432.5 314.45,-432.5 385.45,-432.5 385.45,-432.5 314.45,-432.5"/>
<polygon fill="none" stroke="#666666" points="287.45,-416 287.45,-495 385.45,-495 385.45,-416 287.45,-416"/>
</a>
</g>
</g>
<!-- Node3&#45;&gt;Node4 -->
<g id="edge4_Node000004_Node000003" class="edge">
<title>Node3&#45;&gt;Node4</title>
<g id="a_edge4_Node000004_Node000003"><a xlink:title=" ">
<path fill="none" stroke="#63b8ff" d="M336.45,-637.96C336.45,-600.12 336.45,-546.56 336.45,-507.44"/>
<polygon fill="none" stroke="#63b8ff" points="336.45,-507.28 332.45,-501.28 336.45,-495.28 340.45,-501.28 336.45,-507.28"/>
</a>
</g>
<text text-anchor="middle" x="357.45" y="-564" font-family="Monaco" font-size="10.00" fill="grey"> +points</text>
</g>
<!-- Node6 -->
<g id="Node000006" class="node">
<title>Node6</title>
<g id="a_Node000006"><a xlink:href="../../dc/dd2/struct_linear_ring_z_m.html" target="_top" xlink:title="The LinearRingZM struct.">
<polygon fill="white" stroke="transparent" points="525.45,-591 447.45,-591 447.45,-542 525.45,-542 525.45,-591"/>
<text text-anchor="start" x="452.45" y="-578.5" font-family="Monaco" font-size="10.00">LinearRingZM</text>
<text text-anchor="start" x="452.45" y="-563.5" font-family="Monaco" font-size="10.00">+</text>
<text text-anchor="start" x="466.45" y="-563.5" font-family="Monaco" font-size="10.00">numPoints</text>
<text text-anchor="start" x="484.45" y="-548.5" font-family="Monaco" font-size="10.00"> </text>
<polygon fill="#666666" stroke="#666666" points="447.45,-573.5 447.45,-573.5 525.45,-573.5 525.45,-573.5 447.45,-573.5"/>
<polygon fill="#666666" stroke="#666666" points="447.45,-558.5 447.45,-558.5 464.45,-558.5 464.45,-558.5 447.45,-558.5"/>
<polygon fill="#666666" stroke="#666666" points="464.45,-558.5 464.45,-558.5 525.45,-558.5 525.45,-558.5 464.45,-558.5"/>
<polygon fill="none" stroke="#666666" points="447.45,-542 447.45,-591 525.45,-591 525.45,-542 447.45,-542"/>
</a>
</g>
</g>
<!-- Node3&#45;&gt;Node6 -->
<g id="edge7_Node000006_Node000003" class="edge">
<title>Node3&#45;&gt;Node6</title>
<g id="a_edge7_Node000006_Node000003"><a xlink:title=" ">
<path fill="none" stroke="#63b8ff" d="M362.23,-663.97C385.33,-646.03 419.58,-619.43 446.27,-598.7"/>
<polygon fill="none" stroke="#63b8ff" points="446.61,-598.44 448.9,-591.6 456.09,-591.08 453.81,-597.92 446.61,-598.44"/>
</a>
</g>
<text text-anchor="middle" x="450.45" y="-612" font-family="Monaco" font-size="10.00" fill="grey"> +points</text>
</g>
<!-- Node4&#45;&gt;Node1 -->
<g id="edge3_Node000001_Node000004" class="edge">
<title>Node4&#45;&gt;Node1</title>
<g id="a_edge3_Node000001_Node000004"><a xlink:title=" ">
<path fill="none" stroke="#63b8ff" d="M292.69,-415.81C243.46,-367.54 176.04,-283.85 222.45,-222 244.19,-193.02 339.04,-172.04 403.34,-160.83"/>
<polygon fill="none" stroke="#63b8ff" points="403.53,-160.79 408.78,-155.84 415.36,-158.78 410.12,-163.73 403.53,-160.79"/>
</a>
</g>
<text text-anchor="middle" x="258.95" y="-259" font-family="Monaco" font-size="10.00" fill="grey"> +linestringzm</text>
</g>
<!-- Node14 -->
<g id="Node000014" class="node">
<title>Node14</title>
<g id="a_Node000014"><a xlink:href="../../d5/dd8/struct_w_k_b_multi_line_string_z_m.html" target="_top" xlink:title="The WKBMultiLineStringZM struct.">
<polygon fill="white" stroke="transparent" points="427.95,-301 304.95,-301 304.95,-222 427.95,-222 427.95,-301"/>
<text text-anchor="start" x="310.45" y="-288.5" font-family="Monaco" font-size="10.00">WKBMultiLineStringZM</text>
<text text-anchor="start" x="315.95" y="-273.5" font-family="Monaco" font-size="10.00">+</text>
<text text-anchor="start" x="335.45" y="-273.5" font-family="Monaco" font-size="10.00">byteOrder</text>
<text text-anchor="start" x="315.95" y="-258.5" font-family="Monaco" font-size="10.00">+</text>
<text text-anchor="start" x="335.45" y="-258.5" font-family="Monaco" font-size="10.00">numLineStrings</text>
<text text-anchor="start" x="315.95" y="-243.5" font-family="Monaco" font-size="10.00">+</text>
<text text-anchor="start" x="335.45" y="-243.5" font-family="Monaco" font-size="10.00">wkbType</text>
<text text-anchor="start" x="364.95" y="-228.5" font-family="Monaco" font-size="10.00"> </text>
<polygon fill="#666666" stroke="#666666" points="305.45,-283.5 305.45,-283.5 428.45,-283.5 428.45,-283.5 305.45,-283.5"/>
<polygon fill="#666666" stroke="#666666" points="305.45,-238.5 305.45,-238.5 333.45,-238.5 333.45,-238.5 305.45,-238.5"/>
<polygon fill="#666666" stroke="#666666" points="333.45,-238.5 333.45,-238.5 428.45,-238.5 428.45,-238.5 333.45,-238.5"/>
<polygon fill="none" stroke="#666666" points="304.95,-222 304.95,-301 427.95,-301 427.95,-222 304.95,-222"/>
</a>
</g>
</g>
<!-- Node4&#45;&gt;Node14 -->
<g id="edge19_Node000014_Node000004" class="edge">
<title>Node4&#45;&gt;Node14</title>
<g id="a_edge19_Node000014_Node000004"><a xlink:title=" ">
<path fill="none" stroke="#63b8ff" d="M342.52,-415.65C347.11,-386.24 353.47,-345.58 358.47,-313.55"/>
<polygon fill="none" stroke="#63b8ff" points="358.53,-313.15 355.51,-306.61 360.38,-301.3 363.41,-307.84 358.53,-313.15"/>
</a>
</g>
<text text-anchor="middle" x="390.45" y="-356" font-family="Monaco" font-size="10.00" fill="grey"> +lineStrings</text>
</g>
<!-- Node5 -->
<g id="Node000005" class="node">
<title>Node5</title>
<g id="a_Node000005"><a xlink:href="../../d0/dac/struct_w_k_b_polygon_z_m.html" target="_top" xlink:title="The WKBPolygonZM struct.">
<polygon fill="white" stroke="transparent" points="530.95,-495 441.95,-495 441.95,-416 530.95,-416 530.95,-495"/>
<text text-anchor="start" x="447.45" y="-482.5" font-family="Monaco" font-size="10.00">WKBPolygonZM</text>
<text text-anchor="start" x="450.95" y="-467.5" font-family="Monaco" font-size="10.00">+</text>
<text text-anchor="start" x="468.45" y="-467.5" font-family="Monaco" font-size="10.00">byteOrder</text>
<text text-anchor="start" x="450.95" y="-452.5" font-family="Monaco" font-size="10.00">+</text>
<text text-anchor="start" x="468.45" y="-452.5" font-family="Monaco" font-size="10.00">numRings</text>
<text text-anchor="start" x="450.95" y="-437.5" font-family="Monaco" font-size="10.00">+</text>
<text text-anchor="start" x="468.45" y="-437.5" font-family="Monaco" font-size="10.00">wkbType</text>
<text text-anchor="start" x="484.95" y="-422.5" font-family="Monaco" font-size="10.00"> </text>
<polygon fill="#666666" stroke="#666666" points="442.45,-477.5 442.45,-477.5 531.45,-477.5 531.45,-477.5 442.45,-477.5"/>
<polygon fill="#666666" stroke="#666666" points="442.45,-432.5 442.45,-432.5 466.45,-432.5 466.45,-432.5 442.45,-432.5"/>
<polygon fill="#666666" stroke="#666666" points="466.45,-432.5 466.45,-432.5 531.45,-432.5 531.45,-432.5 466.45,-432.5"/>
<polygon fill="none" stroke="#666666" points="441.95,-416 441.95,-495 530.95,-495 530.95,-416 441.95,-416"/>
</a>
</g>
</g>
<!-- Node5&#45;&gt;Node1 -->
<g id="edge5_Node000001_Node000005" class="edge">
<title>Node5&#45;&gt;Node1</title>
<g id="a_edge5_Node000001_Node000005"><a xlink:title=" ">
<path fill="none" stroke="#63b8ff" d="M482.9,-415.72C480.13,-384.7 476.28,-340.08 473.45,-301 470.63,-262.08 468.02,-217.42 466.35,-187.12"/>
<polygon fill="none" stroke="#63b8ff" points="466.34,-187.06 462.02,-181.28 465.69,-175.07 470.01,-180.85 466.34,-187.06"/>
</a>
</g>
<text text-anchor="middle" x="506.45" y="-259" font-family="Monaco" font-size="10.00" fill="grey"> +polygonzm</text>
</g>
<!-- Node12 -->
<g id="Node000012" class="node">
<title>Node12</title>
<g id="a_Node000012"><a xlink:href="../../d6/d04/struct_w_k_b_t_i_n_z_m.html" target="_top" xlink:title="The WKBTINZM struct.">
<polygon fill="white" stroke="transparent" points="636.45,-301 548.45,-301 548.45,-222 636.45,-222 636.45,-301"/>
<text text-anchor="start" x="564.45" y="-288.5" font-family="Monaco" font-size="10.00">WKBTINZM</text>
<text text-anchor="start" x="552.45" y="-273.5" font-family="Monaco" font-size="10.00">+</text>
<text text-anchor="start" x="565.45" y="-273.5" font-family="Monaco" font-size="10.00">byteOrder</text>
<text text-anchor="start" x="552.45" y="-258.5" font-family="Monaco" font-size="10.00">+</text>
<text text-anchor="start" x="565.45" y="-258.5" font-family="Monaco" font-size="10.00">numPolygons</text>
<text text-anchor="start" x="552.45" y="-243.5" font-family="Monaco" font-size="10.00">+</text>
<text text-anchor="start" x="565.45" y="-243.5" font-family="Monaco" font-size="10.00">wkbType</text>
<text text-anchor="start" x="590.45" y="-228.5" font-family="Monaco" font-size="10.00"> </text>
<polygon fill="#666666" stroke="#666666" points="548.45,-283.5 548.45,-283.5 636.45,-283.5 636.45,-283.5 548.45,-283.5"/>
<polygon fill="#666666" stroke="#666666" points="548.45,-238.5 548.45,-238.5 563.45,-238.5 563.45,-238.5 548.45,-238.5"/>
<polygon fill="#666666" stroke="#666666" points="563.45,-238.5 563.45,-238.5 636.45,-238.5 636.45,-238.5 563.45,-238.5"/>
<polygon fill="none" stroke="#666666" points="548.45,-222 548.45,-301 636.45,-301 636.45,-222 548.45,-222"/>
</a>
</g>
</g>
<!-- Node5&#45;&gt;Node12 -->
<g id="edge15_Node000012_Node000005" class="edge">
<title>Node5&#45;&gt;Node12</title>
<g id="a_edge15_Node000012_Node000005"><a xlink:title=" ">
<path fill="none" stroke="#63b8ff" d="M492.59,-415.89C498.46,-387.39 509.32,-348.57 528.45,-319 531.65,-314.05 535.4,-309.27 539.46,-304.74"/>
<polygon fill="none" stroke="#63b8ff" points="539.78,-304.4 541.07,-297.31 548.12,-295.78 546.82,-302.87 539.78,-304.4"/>
</a>
</g>
<text text-anchor="middle" x="556.45" y="-356" font-family="Monaco" font-size="10.00" fill="grey"> +polygons</text>
</g>
<!-- Node6&#45;&gt;Node5 -->
<g id="edge6_Node000005_Node000006" class="edge">
<title>Node6&#45;&gt;Node5</title>
<g id="a_edge6_Node000005_Node000006"><a xlink:title=" ">
<path fill="none" stroke="#63b8ff" d="M486.45,-541.85C486.45,-531.72 486.45,-519.47 486.45,-507.45"/>
<polygon fill="none" stroke="#63b8ff" points="486.45,-507.1 482.45,-501.1 486.45,-495.1 490.45,-501.1 486.45,-507.1"/>
</a>
</g>
<text text-anchor="middle" x="504.45" y="-516" font-family="Monaco" font-size="10.00" fill="grey"> +rings</text>
</g>
<!-- Node7 -->
<g id="Node000007" class="node">
<title>Node7</title>
<g id="a_Node000007"><a xlink:href="../../d2/d4d/struct_w_k_b_triangle_z_m.html" target="_top" xlink:title="The WKBTriangleZM struct.">
<polygon fill="white" stroke="transparent" points="681.45,-398 593.45,-398 593.45,-319 681.45,-319 681.45,-398"/>
<text text-anchor="start" x="598.45" y="-385.5" font-family="Monaco" font-size="10.00">WKBTriangleZM</text>
<text text-anchor="start" x="601.95" y="-370.5" font-family="Monaco" font-size="10.00">+</text>
<text text-anchor="start" x="619.45" y="-370.5" font-family="Monaco" font-size="10.00">byteOrder</text>
<text text-anchor="start" x="601.95" y="-355.5" font-family="Monaco" font-size="10.00">+</text>
<text text-anchor="start" x="619.45" y="-355.5" font-family="Monaco" font-size="10.00">numRings</text>
<text text-anchor="start" x="601.95" y="-340.5" font-family="Monaco" font-size="10.00">+</text>
<text text-anchor="start" x="619.45" y="-340.5" font-family="Monaco" font-size="10.00">wkbType</text>
<text text-anchor="start" x="635.45" y="-325.5" font-family="Monaco" font-size="10.00"> </text>
<polygon fill="#666666" stroke="#666666" points="593.45,-380.5 593.45,-380.5 681.45,-380.5 681.45,-380.5 593.45,-380.5"/>
<polygon fill="#666666" stroke="#666666" points="593.45,-335.5 593.45,-335.5 617.45,-335.5 617.45,-335.5 593.45,-335.5"/>
<polygon fill="#666666" stroke="#666666" points="617.45,-335.5 617.45,-335.5 681.45,-335.5 681.45,-335.5 617.45,-335.5"/>
<polygon fill="none" stroke="#666666" points="593.45,-319 593.45,-398 681.45,-398 681.45,-319 593.45,-319"/>
</a>
</g>
</g>
<!-- Node6&#45;&gt;Node7 -->
<g id="edge9_Node000007_Node000006" class="edge">
<title>Node6&#45;&gt;Node7</title>
<g id="a_edge9_Node000007_Node000006"><a xlink:title=" ">
<path fill="none" stroke="#63b8ff" d="M510.87,-541.57C516.19,-535.97 521.66,-529.91 526.45,-524 556.37,-487.02 586.3,-442.09 607.53,-408.53"/>
<polygon fill="none" stroke="#63b8ff" points="607.72,-408.22 607.52,-401.01 614.1,-398.06 614.3,-405.27 607.72,-408.22"/>
</a>
</g>
<text text-anchor="middle" x="552.45" y="-516" font-family="Monaco" font-size="10.00" fill="grey"> +rings</text>
</g>
<!-- Node7&#45;&gt;Node1 -->
<g id="edge8_Node000001_Node000007" class="edge">
<title>Node7&#45;&gt;Node1</title>
<g id="a_edge8_Node000001_Node000007"><a xlink:title=" ">
<path fill="none" stroke="#63b8ff" d="M651.61,-318.78C659.64,-289.66 664.67,-250.11 645.45,-222 618.77,-182.98 567.05,-165.55 525.7,-157.77"/>
<polygon fill="none" stroke="#63b8ff" points="525.62,-157.76 519.03,-160.69 513.79,-155.74 520.38,-152.81 525.62,-157.76"/>
</a>
</g>
<text text-anchor="middle" x="691.45" y="-259" font-family="Monaco" font-size="10.00" fill="grey"> +trianglezm</text>
</g>
<!-- Node8 -->
<g id="Node000008" class="node">
<title>Node8</title>
<g id="a_Node000008"><a xlink:href="../../d0/d5c/struct_w_k_b_polyhedral_surface_m.html" target="_top" xlink:title="The WKBPolyhedralSurfaceM struct.">
<polygon fill="white" stroke="transparent" points="885.95,-301 754.95,-301 754.95,-222 885.95,-222 885.95,-301"/>
<text text-anchor="start" x="760.45" y="-288.5" font-family="Monaco" font-size="10.00">WKBPolyhedralSurfaceM</text>
<text text-anchor="start" x="769.95" y="-273.5" font-family="Monaco" font-size="10.00">+</text>
<text text-anchor="start" x="793.45" y="-273.5" font-family="Monaco" font-size="10.00">byteOrder</text>
<text text-anchor="start" x="769.95" y="-258.5" font-family="Monaco" font-size="10.00">+</text>
<text text-anchor="start" x="793.45" y="-258.5" font-family="Monaco" font-size="10.00">numPolygons</text>
<text text-anchor="start" x="769.95" y="-243.5" font-family="Monaco" font-size="10.00">+</text>
<text text-anchor="start" x="793.45" y="-243.5" font-family="Monaco" font-size="10.00">wkbType</text>
<text text-anchor="start" x="818.95" y="-228.5" font-family="Monaco" font-size="10.00"> </text>
<polygon fill="#666666" stroke="#666666" points="755.45,-283.5 755.45,-283.5 886.45,-283.5 886.45,-283.5 755.45,-283.5"/>
<polygon fill="#666666" stroke="#666666" points="755.45,-238.5 755.45,-238.5 791.45,-238.5 791.45,-238.5 755.45,-238.5"/>
<polygon fill="#666666" stroke="#666666" points="791.45,-238.5 791.45,-238.5 886.45,-238.5 886.45,-238.5 791.45,-238.5"/>
<polygon fill="none" stroke="#666666" points="754.95,-222 754.95,-301 885.95,-301 885.95,-222 754.95,-222"/>
</a>
</g>
</g>
<!-- Node8&#45;&gt;Node1 -->
<g id="edge10_Node000001_Node000008" class="edge">
<title>Node8&#45;&gt;Node1</title>
<g id="a_edge10_Node000001_Node000008"><a xlink:title=" ">
<path fill="none" stroke="#63b8ff" d="M754.91,-222.86C733.62,-211.9 709.52,-200.79 686.45,-193 633.53,-175.13 570.77,-164.3 525.51,-158.2"/>
<polygon fill="none" stroke="#63b8ff" points="525.42,-158.19 518.95,-161.39 513.52,-156.65 519.98,-153.45 525.42,-158.19"/>
</a>
</g>
<text text-anchor="middle" x="770.95" y="-196" font-family="Monaco" font-size="10.00" fill="grey"> +Polyhedralsurfacezm</text>
</g>
<!-- Node9 -->
<g id="Node000009" class="node">
<title>Node9</title>
<g id="a_Node000009"><a xlink:href="../../d0/d5d/struct_w_k_b_polygon_m.html" target="_top" xlink:title="The WKBPolygonM struct.">
<polygon fill="white" stroke="transparent" points="861.45,-495 779.45,-495 779.45,-416 861.45,-416 861.45,-495"/>
<text text-anchor="start" x="784.45" y="-482.5" font-family="Monaco" font-size="10.00">WKBPolygonM</text>
<text text-anchor="start" x="786.45" y="-467.5" font-family="Monaco" font-size="10.00">+</text>
<text text-anchor="start" x="802.45" y="-467.5" font-family="Monaco" font-size="10.00">byteOrder</text>
<text text-anchor="start" x="786.45" y="-452.5" font-family="Monaco" font-size="10.00">+</text>
<text text-anchor="start" x="802.45" y="-452.5" font-family="Monaco" font-size="10.00">numRings</text>
<text text-anchor="start" x="786.45" y="-437.5" font-family="Monaco" font-size="10.00">+</text>
<text text-anchor="start" x="802.45" y="-437.5" font-family="Monaco" font-size="10.00">wkbType</text>
<text text-anchor="start" x="818.45" y="-422.5" font-family="Monaco" font-size="10.00"> </text>
<polygon fill="#666666" stroke="#666666" points="779.45,-477.5 779.45,-477.5 861.45,-477.5 861.45,-477.5 779.45,-477.5"/>
<polygon fill="#666666" stroke="#666666" points="779.45,-432.5 779.45,-432.5 800.45,-432.5 800.45,-432.5 779.45,-432.5"/>
<polygon fill="#666666" stroke="#666666" points="800.45,-432.5 800.45,-432.5 861.45,-432.5 861.45,-432.5 800.45,-432.5"/>
<polygon fill="none" stroke="#666666" points="779.45,-416 779.45,-495 861.45,-495 861.45,-416 779.45,-416"/>
</a>
</g>
</g>
<!-- Node9&#45;&gt;Node8 -->
<g id="edge11_Node000008_Node000009" class="edge">
<title>Node9&#45;&gt;Node8</title>
<g id="a_edge11_Node000008_Node000009"><a xlink:title=" ">
<path fill="none" stroke="#63b8ff" d="M820.45,-415.65C820.45,-386.24 820.45,-345.58 820.45,-313.55"/>
<polygon fill="none" stroke="#63b8ff" points="820.45,-313.3 816.45,-307.3 820.45,-301.3 824.45,-307.3 820.45,-313.3"/>
</a>
</g>
<text text-anchor="middle" x="848.45" y="-356" font-family="Monaco" font-size="10.00" fill="grey"> +polygons</text>
</g>
<!-- Node10 -->
<g id="Node000010" class="node">
<title>Node10</title>
<g id="a_Node000010"><a xlink:href="../../d0/d1b/struct_linear_ring_m.html" target="_top" xlink:title="The LinearRingM struct.">
<polygon fill="white" stroke="transparent" points="856.95,-591 783.95,-591 783.95,-542 856.95,-542 856.95,-591"/>
<text text-anchor="start" x="790.45" y="-578.5" font-family="Monaco" font-size="10.00">LinearRingM</text>
<text text-anchor="start" x="788.45" y="-563.5" font-family="Monaco" font-size="10.00">+</text>
<text text-anchor="start" x="801.45" y="-563.5" font-family="Monaco" font-size="10.00">numPoints</text>
<text text-anchor="start" x="818.95" y="-548.5" font-family="Monaco" font-size="10.00"> </text>
<polygon fill="#666666" stroke="#666666" points="784.45,-573.5 784.45,-573.5 857.45,-573.5 857.45,-573.5 784.45,-573.5"/>
<polygon fill="#666666" stroke="#666666" points="784.45,-558.5 784.45,-558.5 799.45,-558.5 799.45,-558.5 784.45,-558.5"/>
<polygon fill="#666666" stroke="#666666" points="799.45,-558.5 799.45,-558.5 857.45,-558.5 857.45,-558.5 799.45,-558.5"/>
<polygon fill="none" stroke="#666666" points="783.95,-542 783.95,-591 856.95,-591 856.95,-542 783.95,-542"/>
</a>
</g>
</g>
<!-- Node10&#45;&gt;Node9 -->
<g id="edge12_Node000009_Node000010" class="edge">
<title>Node10&#45;&gt;Node9</title>
<g id="a_edge12_Node000009_Node000010"><a xlink:title=" ">
<path fill="none" stroke="#63b8ff" d="M820.45,-541.85C820.45,-531.72 820.45,-519.47 820.45,-507.45"/>
<polygon fill="none" stroke="#63b8ff" points="820.45,-507.1 816.45,-501.1 820.45,-495.1 824.45,-501.1 820.45,-507.1"/>
</a>
</g>
<text text-anchor="middle" x="838.45" y="-516" font-family="Monaco" font-size="10.00" fill="grey"> +rings</text>
</g>
<!-- Node11 -->
<g id="Node000011" class="node">
<title>Node11</title>
<g id="a_Node000011"><a xlink:href="../../de/d55/struct_point_m.html" target="_top" xlink:title="The PointM struct.">
<polygon fill="white" stroke="transparent" points="842.45,-724.5 798.45,-724.5 798.45,-645.5 842.45,-645.5 842.45,-724.5"/>
<text text-anchor="start" x="803.45" y="-712" font-family="Monaco" font-size="10.00">PointM</text>
<text text-anchor="start" x="805.45" y="-697" font-family="Monaco" font-size="10.00">+</text>
<text text-anchor="start" x="821.45" y="-697" font-family="Monaco" font-size="10.00">x</text>
<text text-anchor="start" x="805.45" y="-682" font-family="Monaco" font-size="10.00">+</text>
<text text-anchor="start" x="821.45" y="-682" font-family="Monaco" font-size="10.00">y</text>
<text text-anchor="start" x="805.45" y="-667" font-family="Monaco" font-size="10.00">+</text>
<text text-anchor="start" x="821.45" y="-667" font-family="Monaco" font-size="10.00">m</text>
<text text-anchor="start" x="818.45" y="-652" font-family="Monaco" font-size="10.00"> </text>
<polygon fill="#666666" stroke="#666666" points="798.45,-707 798.45,-707 842.45,-707 842.45,-707 798.45,-707"/>
<polygon fill="#666666" stroke="#666666" points="798.45,-662 798.45,-662 819.45,-662 819.45,-662 798.45,-662"/>
<polygon fill="#666666" stroke="#666666" points="819.45,-662 819.45,-662 842.45,-662 842.45,-662 819.45,-662"/>
<polygon fill="none" stroke="#666666" points="798.45,-645.5 798.45,-724.5 842.45,-724.5 842.45,-645.5 798.45,-645.5"/>
</a>
</g>
</g>
<!-- Node11&#45;&gt;Node10 -->
<g id="edge13_Node000010_Node000011" class="edge">
<title>Node11&#45;&gt;Node10</title>
<g id="a_edge13_Node000010_Node000011"><a xlink:title=" ">
<path fill="none" stroke="#63b8ff" d="M820.45,-645.21C820.45,-631.66 820.45,-616.54 820.45,-603.25"/>
<polygon fill="none" stroke="#63b8ff" points="820.45,-603.19 816.45,-597.19 820.45,-591.19 824.45,-597.19 820.45,-603.19"/>
</a>
</g>
<text text-anchor="middle" x="841.45" y="-612" font-family="Monaco" font-size="10.00" fill="grey"> +points</text>
</g>
<!-- Node12&#45;&gt;Node1 -->
<g id="edge14_Node000001_Node000012" class="edge">
<title>Node12&#45;&gt;Node1</title>
<g id="a_edge14_Node000001_Node000012"><a xlink:title=" ">
<path fill="none" stroke="#63b8ff" d="M548.4,-222.99C533.09,-209.96 516.1,-195.48 501.42,-182.99"/>
<polygon fill="none" stroke="#63b8ff" points="501.29,-182.87 494.13,-182.03 492.15,-175.09 499.32,-175.94 501.29,-182.87"/>
</a>
</g>
<text text-anchor="middle" x="545.45" y="-196" font-family="Monaco" font-size="10.00" fill="grey"> +tinzm</text>
</g>
<!-- Node13&#45;&gt;Node1 -->
<g id="edge16_Node000001_Node000013" class="edge">
<title>Node13&#45;&gt;Node1</title>
<g id="a_edge16_Node000001_Node000013"><a xlink:title=" ">
<path fill="none" stroke="#63b8ff" d="M125.58,-221.88C127.04,-211.2 130.67,-200.51 138.45,-193 175.08,-157.62 319.16,-151.4 403.01,-150.88"/>
<polygon fill="none" stroke="#63b8ff" points="403.18,-150.88 409.17,-146.86 415.18,-150.84 409.19,-154.86 403.18,-150.88"/>
</a>
</g>
<text text-anchor="middle" x="168.95" y="-196" font-family="Monaco" font-size="10.00" fill="grey"> +mpointzm</text>
</g>
<!-- Node14&#45;&gt;Node1 -->
<g id="edge18_Node000001_Node000014" class="edge">
<title>Node14&#45;&gt;Node1</title>
<g id="a_edge18_Node000001_Node000014"><a xlink:title=" ">
<path fill="none" stroke="#63b8ff" d="M360.43,-221.77C360.7,-211.7 362.79,-201.34 368.45,-193 376.97,-180.43 390.18,-171.65 404.09,-165.51"/>
<polygon fill="none" stroke="#63b8ff" points="404.14,-165.5 408.28,-159.59 415.32,-161.14 411.18,-167.05 404.14,-165.5"/>
</a>
</g>
<text text-anchor="middle" x="409.45" y="-196" font-family="Monaco" font-size="10.00" fill="grey"> +mlinestringzm</text>
</g>
<!-- Node15 -->
<g id="Node000015" class="node">
<title>Node15</title>
<g id="a_Node000015"><a xlink:href="../../de/dad/struct_w_k_b_multi_polygon_z.html" target="_top" xlink:title="The WKBMultiPolygonZ struct.">
<polygon fill="white" stroke="transparent" points="1008.45,-301 904.45,-301 904.45,-222 1008.45,-222 1008.45,-301"/>
<text text-anchor="start" x="909.45" y="-288.5" font-family="Monaco" font-size="10.00">WKBMultiPolygonZ</text>
<text text-anchor="start" x="912.45" y="-273.5" font-family="Monaco" font-size="10.00">+</text>
<text text-anchor="start" x="929.45" y="-273.5" font-family="Monaco" font-size="10.00">byteOrder</text>
<text text-anchor="start" x="912.45" y="-258.5" font-family="Monaco" font-size="10.00">+</text>
<text text-anchor="start" x="929.45" y="-258.5" font-family="Monaco" font-size="10.00">numPolygons</text>
<text text-anchor="start" x="912.45" y="-243.5" font-family="Monaco" font-size="10.00">+</text>
<text text-anchor="start" x="929.45" y="-243.5" font-family="Monaco" font-size="10.00">wkbType</text>
<text text-anchor="start" x="954.45" y="-228.5" font-family="Monaco" font-size="10.00"> </text>
<polygon fill="#666666" stroke="#666666" points="904.45,-283.5 904.45,-283.5 1008.45,-283.5 1008.45,-283.5 904.45,-283.5"/>
<polygon fill="#666666" stroke="#666666" points="904.45,-238.5 904.45,-238.5 927.45,-238.5 927.45,-238.5 904.45,-238.5"/>
<polygon fill="#666666" stroke="#666666" points="927.45,-238.5 927.45,-238.5 1008.45,-238.5 1008.45,-238.5 927.45,-238.5"/>
<polygon fill="none" stroke="#666666" points="904.45,-222 904.45,-301 1008.45,-301 1008.45,-222 904.45,-222"/>
</a>
</g>
</g>
<!-- Node15&#45;&gt;Node1 -->
<g id="edge20_Node000001_Node000015" class="edge">
<title>Node15&#45;&gt;Node1</title>
<g id="a_edge20_Node000001_Node000015"><a xlink:title=" ">
<path fill="none" stroke="#63b8ff" d="M904.37,-225.4C883.01,-212.84 857.45,-200.05 832.45,-193 727.45,-163.39 599.96,-154.8 525.93,-152.37"/>
<polygon fill="none" stroke="#63b8ff" points="525.63,-152.36 519.52,-156.19 513.64,-152.01 519.75,-148.19 525.63,-152.36"/>
</a>
</g>
<text text-anchor="middle" x="899.45" y="-196" font-family="Monaco" font-size="10.00" fill="grey"> +mpolygonzm</text>
</g>
<!-- Node16 -->
<g id="Node000016" class="node">
<title>Node16</title>
<g id="a_Node000016"><a xlink:href="../../db/dad/struct_w_k_b_polygon_z.html" target="_top" xlink:title="The WKBPolygonZ struct.">
<polygon fill="white" stroke="transparent" points="996.45,-495 916.45,-495 916.45,-416 996.45,-416 996.45,-495"/>
<text text-anchor="start" x="921.45" y="-482.5" font-family="Monaco" font-size="10.00">WKBPolygonZ</text>
<text text-anchor="start" x="922.95" y="-467.5" font-family="Monaco" font-size="10.00">+</text>
<text text-anchor="start" x="938.45" y="-467.5" font-family="Monaco" font-size="10.00">byteOrder</text>
<text text-anchor="start" x="922.95" y="-452.5" font-family="Monaco" font-size="10.00">+</text>
<text text-anchor="start" x="938.45" y="-452.5" font-family="Monaco" font-size="10.00">numRings</text>
<text text-anchor="start" x="922.95" y="-437.5" font-family="Monaco" font-size="10.00">+</text>
<text text-anchor="start" x="938.45" y="-437.5" font-family="Monaco" font-size="10.00">wkbType</text>
<text text-anchor="start" x="954.45" y="-422.5" font-family="Monaco" font-size="10.00"> </text>
<polygon fill="#666666" stroke="#666666" points="916.45,-477.5 916.45,-477.5 996.45,-477.5 996.45,-477.5 916.45,-477.5"/>
<polygon fill="#666666" stroke="#666666" points="916.45,-432.5 916.45,-432.5 936.45,-432.5 936.45,-432.5 916.45,-432.5"/>
<polygon fill="#666666" stroke="#666666" points="936.45,-432.5 936.45,-432.5 996.45,-432.5 996.45,-432.5 936.45,-432.5"/>
<polygon fill="none" stroke="#666666" points="916.45,-416 916.45,-495 996.45,-495 996.45,-416 916.45,-416"/>
</a>
</g>
</g>
<!-- Node16&#45;&gt;Node15 -->
<g id="edge21_Node000015_Node000016" class="edge">
<title>Node16&#45;&gt;Node15</title>
<g id="a_edge21_Node000015_Node000016"><a xlink:title=" ">
<path fill="none" stroke="#63b8ff" d="M956.45,-415.65C956.45,-386.24 956.45,-345.58 956.45,-313.55"/>
<polygon fill="none" stroke="#63b8ff" points="956.45,-313.3 952.45,-307.3 956.45,-301.3 960.45,-307.3 956.45,-313.3"/>
</a>
</g>
<text text-anchor="middle" x="984.45" y="-356" font-family="Monaco" font-size="10.00" fill="grey"> +polygons</text>
</g>
<!-- Node17 -->
<g id="Node000017" class="node">
<title>Node17</title>
<g id="a_Node000017"><a xlink:href="../../d2/d2c/struct_linear_ring_z.html" target="_top" xlink:title="The LinearRingZ struct.">
<polygon fill="white" stroke="transparent" points="992.95,-591 919.95,-591 919.95,-542 992.95,-542 992.95,-591"/>
<text text-anchor="start" x="927.45" y="-578.5" font-family="Monaco" font-size="10.00">LinearRingZ</text>
<text text-anchor="start" x="924.45" y="-563.5" font-family="Monaco" font-size="10.00">+</text>
<text text-anchor="start" x="937.45" y="-563.5" font-family="Monaco" font-size="10.00">numPoints</text>
<text text-anchor="start" x="954.95" y="-548.5" font-family="Monaco" font-size="10.00"> </text>
<polygon fill="#666666" stroke="#666666" points="920.45,-573.5 920.45,-573.5 993.45,-573.5 993.45,-573.5 920.45,-573.5"/>
<polygon fill="#666666" stroke="#666666" points="920.45,-558.5 920.45,-558.5 935.45,-558.5 935.45,-558.5 920.45,-558.5"/>
<polygon fill="#666666" stroke="#666666" points="935.45,-558.5 935.45,-558.5 993.45,-558.5 993.45,-558.5 935.45,-558.5"/>
<polygon fill="none" stroke="#666666" points="919.95,-542 919.95,-591 992.95,-591 992.95,-542 919.95,-542"/>
</a>
</g>
</g>
<!-- Node17&#45;&gt;Node16 -->
<g id="edge22_Node000016_Node000017" class="edge">
<title>Node17&#45;&gt;Node16</title>
<g id="a_edge22_Node000016_Node000017"><a xlink:title=" ">
<path fill="none" stroke="#63b8ff" d="M956.45,-541.85C956.45,-531.72 956.45,-519.47 956.45,-507.45"/>
<polygon fill="none" stroke="#63b8ff" points="956.45,-507.1 952.45,-501.1 956.45,-495.1 960.45,-501.1 956.45,-507.1"/>
</a>
</g>
<text text-anchor="middle" x="974.45" y="-516" font-family="Monaco" font-size="10.00" fill="grey"> +rings</text>
</g>
<!-- Node18 -->
<g id="Node000018" class="node">
<title>Node18</title>
<g id="a_Node000018"><a xlink:href="../../d6/d0c/struct_point_z.html" target="_top" xlink:title="The PointZ struct.">
<polygon fill="white" stroke="transparent" points="977.45,-724.5 935.45,-724.5 935.45,-645.5 977.45,-645.5 977.45,-724.5"/>
<text text-anchor="start" x="940.45" y="-712" font-family="Monaco" font-size="10.00">PointZ</text>
<text text-anchor="start" x="942.95" y="-697" font-family="Monaco" font-size="10.00">+</text>
<text text-anchor="start" x="959.45" y="-697" font-family="Monaco" font-size="10.00">x</text>
<text text-anchor="start" x="942.95" y="-682" font-family="Monaco" font-size="10.00">+</text>
<text text-anchor="start" x="959.45" y="-682" font-family="Monaco" font-size="10.00">y</text>
<text text-anchor="start" x="942.95" y="-667" font-family="Monaco" font-size="10.00">+</text>
<text text-anchor="start" x="959.45" y="-667" font-family="Monaco" font-size="10.00">z</text>
<text text-anchor="start" x="954.45" y="-652" font-family="Monaco" font-size="10.00"> </text>
<polygon fill="#666666" stroke="#666666" points="935.45,-707 935.45,-707 977.45,-707 977.45,-707 935.45,-707"/>
<polygon fill="#666666" stroke="#666666" points="935.45,-662 935.45,-662 957.45,-662 957.45,-662 935.45,-662"/>
<polygon fill="#666666" stroke="#666666" points="957.45,-662 957.45,-662 977.45,-662 977.45,-662 957.45,-662"/>
<polygon fill="none" stroke="#666666" points="935.45,-645.5 935.45,-724.5 977.45,-724.5 977.45,-645.5 935.45,-645.5"/>
</a>
</g>
</g>
<!-- Node18&#45;&gt;Node17 -->
<g id="edge23_Node000017_Node000018" class="edge">
<title>Node18&#45;&gt;Node17</title>
<g id="a_edge23_Node000017_Node000018"><a xlink:title=" ">
<path fill="none" stroke="#63b8ff" d="M956.45,-645.21C956.45,-631.66 956.45,-616.54 956.45,-603.25"/>
<polygon fill="none" stroke="#63b8ff" points="956.45,-603.19 952.45,-597.19 956.45,-591.19 960.45,-597.19 956.45,-603.19"/>
</a>
</g>
<text text-anchor="middle" x="977.45" y="-612" font-family="Monaco" font-size="10.00" fill="grey"> +points</text>
</g>
<!-- Node19&#45;&gt;Node1 -->
<g id="edge24_Node000001_Node000019" class="edge">
<title>Node19&#45;&gt;Node1</title>
<g id="a_edge24_Node000001_Node000019"><a xlink:title=" ">
<path fill="none" stroke="#63b8ff" d="M485.74,-79.1C488.64,-88.48 489.9,-98.53 487.45,-108 486.86,-110.27 486.12,-112.55 485.26,-114.81"/>
<polygon fill="none" stroke="#63b8ff" points="485.23,-114.88 486.38,-122 480.24,-125.79 479.1,-118.67 485.23,-114.88"/>
</a>
</g>
<text text-anchor="middle" x="526.45" y="-100" font-family="Monaco" font-size="10.00" fill="grey"> +collectionzm</text>
</g>
</g>
</svg>
