<?xml version="1.0" encoding="UTF-8" standalone="no"?>
<!DOCTYPE svg PUBLIC "-//W3C//DTD SVG 1.1//EN"
 "http://www.w3.org/Graphics/SVG/1.1/DTD/svg11.dtd">
<!-- Generated by graphviz version 2.43.0 (0)
 -->
<!-- Title: WKBGeometryZM Pages: 1 -->
<svg width="1046pt" height="759pt"
 viewBox="0.00 0.00 1046.24 759.00" xmlns="http://www.w3.org/2000/svg" xmlns:xlink="http://www.w3.org/1999/xlink">
<g id="graph0" class="graph" transform="scale(1 1) rotate(0) translate(4 755)">
<title>WKBGeometryZM</title>
<!-- Node1 -->
<g id="node1" class="node">
<title>Node1</title>
<g id="a_node1"><a xlink:title="The WKBGeometryZM union.">
<polygon fill="#bfbfbf" stroke="black" points="424.74,-127.5 424.74,-184.5 528.74,-184.5 528.74,-127.5 424.74,-127.5"/>
<text text-anchor="middle" x="476.74" y="-172.5" font-family="Monaco" font-size="10.00">WKBGeometryZM</text>
<polyline fill="none" stroke="black" points="424.74,-165.5 528.74,-165.5 "/>
<text text-anchor="middle" x="476.74" y="-153.5" font-family="Monaco" font-size="10.00"> </text>
<polyline fill="none" stroke="black" points="424.74,-146.5 528.74,-146.5 "/>
<text text-anchor="middle" x="476.74" y="-134.5" font-family="Monaco" font-size="10.00"> </text>
</a>
</g>
</g>
<!-- Node5 -->
<g id="node5" class="node">
<title>Node5</title>
<g id="a_node5"><a xlink:href="../../d9/d46/struct_w_k_b_geometry_collection_z_m.html" target="_top" xlink:title="The WKBGeometryCollectionZM struct.">
<polygon fill="none" stroke="black" points="400.24,-0.5 400.24,-79.5 553.24,-79.5 553.24,-0.5 400.24,-0.5"/>
<text text-anchor="middle" x="476.74" y="-67.5" font-family="Monaco" font-size="10.00">WKBGeometryCollectionZM</text>
<polyline fill="none" stroke="black" points="400.24,-60.5 553.24,-60.5 "/>
<text text-anchor="start" x="408.24" y="-48.5" font-family="Monaco" font-size="10.00">+ byte_order</text>
<text text-anchor="start" x="408.24" y="-37.5" font-family="Monaco" font-size="10.00">+ numGeometries</text>
<text text-anchor="start" x="408.24" y="-26.5" font-family="Monaco" font-size="10.00">+ wkbType</text>
<polyline fill="none" stroke="black" points="400.24,-19.5 553.24,-19.5 "/>
<text text-anchor="middle" x="476.74" y="-7.5" font-family="Monaco" font-size="10.00"> </text>
</a>
</g>
</g>
<!-- Node1&#45;&gt;Node5 -->
<g id="edge5" class="edge">
<title>Node1&#45;&gt;Node5</title>
<path fill="none" stroke="#404040" d="M436.82,-127.39C429.29,-118.77 424.84,-108.69 428.74,-98 429.73,-95.28 430.92,-92.61 432.25,-89.98"/>
<polygon fill="none" stroke="#404040" points="432.34,-89.83 431.99,-82.63 438.5,-79.53 438.85,-86.73 432.34,-89.83"/>
<text text-anchor="middle" x="462.24" y="-101" font-family="Monaco" font-size="10.00"> +geometries</text>
</g>
<!-- Node2 -->
<g id="node2" class="node">
<title>Node2</title>
<g id="a_node2"><a xlink:href="../../dc/de1/struct_w_k_b_multi_point_z_m.html" target="_top" xlink:title="The WKBMultiPointZM struct.">
<polygon fill="none" stroke="black" points="78.24,-232.5 78.24,-311.5 183.24,-311.5 183.24,-232.5 78.24,-232.5"/>
<text text-anchor="middle" x="130.74" y="-299.5" font-family="Monaco" font-size="10.00">WKBMultiPointZM</text>
<polyline fill="none" stroke="black" points="78.24,-292.5 183.24,-292.5 "/>
<text text-anchor="start" x="86.24" y="-280.5" font-family="Monaco" font-size="10.00">+ byteOrder</text>
<text text-anchor="start" x="86.24" y="-269.5" font-family="Monaco" font-size="10.00">+ numPoints</text>
<text text-anchor="start" x="86.24" y="-258.5" font-family="Monaco" font-size="10.00">+ wkbType</text>
<polyline fill="none" stroke="black" points="78.24,-251.5 183.24,-251.5 "/>
<text text-anchor="middle" x="130.74" y="-239.5" font-family="Monaco" font-size="10.00"> </text>
</a>
</g>
</g>
<!-- Node2&#45;&gt;Node1 -->
<g id="edge1" class="edge">
<title>Node2&#45;&gt;Node1</title>
<path fill="none" stroke="#404040" d="M130.65,-232.37C132.56,-221.49 136.65,-210.58 144.74,-203 182.39,-167.74 327.11,-159.25 412.55,-157.37"/>
<polygon fill="none" stroke="#404040" points="412.71,-157.37 418.63,-153.25 424.71,-157.14 418.78,-161.25 412.71,-157.37"/>
<text text-anchor="middle" x="175.24" y="-206" font-family="Monaco" font-size="10.00"> +mpointzm</text>
</g>
<!-- Node3 -->
<g id="node3" class="node">
<title>Node3</title>
<g id="a_node3"><a xlink:href="../../df/d1c/struct_w_k_b_point_z_m.html" target="_top" xlink:title="The WKBPointZM struct.">
<polygon fill="none" stroke="black" points="90.74,-434 90.74,-502 170.74,-502 170.74,-434 90.74,-434"/>
<text text-anchor="middle" x="130.74" y="-490" font-family="Monaco" font-size="10.00">WKBPointZM</text>
<polyline fill="none" stroke="black" points="90.74,-483 170.74,-483 "/>
<text text-anchor="start" x="98.74" y="-471" font-family="Monaco" font-size="10.00">+ byteOrder</text>
<text text-anchor="start" x="98.74" y="-460" font-family="Monaco" font-size="10.00">+ wkbType</text>
<polyline fill="none" stroke="black" points="90.74,-453 170.74,-453 "/>
<text text-anchor="middle" x="130.74" y="-441" font-family="Monaco" font-size="10.00"> </text>
</a>
</g>
</g>
<!-- Node3&#45;&gt;Node1 -->
<g id="edge6" class="edge">
<title>Node3&#45;&gt;Node1</title>
<path fill="none" stroke="#404040" d="M92.85,-433.76C42.81,-385.85 -33.41,-296.11 16.74,-232 64.43,-171.05 297.67,-159.31 412.55,-157.27"/>
<polygon fill="none" stroke="#404040" points="412.62,-157.27 418.56,-153.18 424.62,-157.08 418.68,-161.18 412.62,-157.27"/>
<text text-anchor="middle" x="42.74" y="-269.5" font-family="Monaco" font-size="10.00"> +pointzm</text>
</g>
<!-- Node3&#45;&gt;Node2 -->
<g id="edge2" class="edge">
<title>Node3&#45;&gt;Node2</title>
<path fill="none" stroke="#404040" d="M130.74,-433.65C130.74,-403.45 130.74,-358.51 130.74,-323.84"/>
<polygon fill="none" stroke="#404040" points="130.74,-323.57 126.74,-317.57 130.74,-311.57 134.74,-317.57 130.74,-323.57"/>
<text text-anchor="middle" x="151.74" y="-367.5" font-family="Monaco" font-size="10.00"> +points</text>
</g>
<!-- Node4 -->
<g id="node4" class="node">
<title>Node4</title>
<g id="a_node4"><a xlink:href="../../d7/ded/struct_point_z_m.html" target="_top" xlink:title="The PointZM struct.">
<polygon fill="none" stroke="black" points="315.24,-660.5 315.24,-750.5 372.24,-750.5 372.24,-660.5 315.24,-660.5"/>
<text text-anchor="middle" x="343.74" y="-738.5" font-family="Monaco" font-size="10.00">PointZM</text>
<polyline fill="none" stroke="black" points="315.24,-731.5 372.24,-731.5 "/>
<text text-anchor="start" x="323.24" y="-719.5" font-family="Monaco" font-size="10.00">+ x</text>
<text text-anchor="start" x="323.24" y="-708.5" font-family="Monaco" font-size="10.00">+ y</text>
<text text-anchor="start" x="323.24" y="-697.5" font-family="Monaco" font-size="10.00">+ z</text>
<text text-anchor="start" x="323.24" y="-686.5" font-family="Monaco" font-size="10.00">+ m</text>
<polyline fill="none" stroke="black" points="315.24,-679.5 372.24,-679.5 "/>
<text text-anchor="middle" x="343.74" y="-667.5" font-family="Monaco" font-size="10.00"> </text>
</a>
</g>
</g>
<!-- Node4&#45;&gt;Node3 -->
<g id="edge3" class="edge">
<title>Node4&#45;&gt;Node3</title>
<path fill="none" stroke="#404040" d="M315.02,-672.74C277.3,-631.04 210.98,-557.71 169.03,-511.33"/>
<polygon fill="none" stroke="#404040" points="168.77,-511.05 161.78,-509.28 160.73,-502.15 167.72,-503.92 168.77,-511.05"/>
<text text-anchor="middle" x="277.24" y="-581.5" font-family="Monaco" font-size="10.00"> +point</text>
</g>
<!-- Node6 -->
<g id="node6" class="node">
<title>Node6</title>
<g id="a_node6"><a xlink:href="../../df/d44/struct_w_k_b_line_string_z_m.html" target="_top" xlink:title="The WKBLineStringZM struct.">
<polygon fill="none" stroke="black" points="291.74,-428.5 291.74,-507.5 395.74,-507.5 395.74,-428.5 291.74,-428.5"/>
<text text-anchor="middle" x="343.74" y="-495.5" font-family="Monaco" font-size="10.00">WKBLineStringZM</text>
<polyline fill="none" stroke="black" points="291.74,-488.5 395.74,-488.5 "/>
<text text-anchor="start" x="299.74" y="-476.5" font-family="Monaco" font-size="10.00">+ byteOrder</text>
<text text-anchor="start" x="299.74" y="-465.5" font-family="Monaco" font-size="10.00">+ numPoints</text>
<text text-anchor="start" x="299.74" y="-454.5" font-family="Monaco" font-size="10.00">+ wkbType</text>
<polyline fill="none" stroke="black" points="291.74,-447.5 395.74,-447.5 "/>
<text text-anchor="middle" x="343.74" y="-435.5" font-family="Monaco" font-size="10.00"> </text>
</a>
</g>
</g>
<!-- Node4&#45;&gt;Node6 -->
<g id="edge8" class="edge">
<title>Node4&#45;&gt;Node6</title>
<path fill="none" stroke="#404040" d="M343.74,-660.48C343.74,-620.58 343.74,-561.78 343.74,-519.88"/>
<polygon fill="none" stroke="#404040" points="343.74,-519.73 339.74,-513.73 343.74,-507.73 347.74,-513.73 343.74,-519.73"/>
<text text-anchor="middle" x="364.74" y="-581.5" font-family="Monaco" font-size="10.00"> +points</text>
</g>
<!-- Node8 -->
<g id="node8" class="node">
<title>Node8</title>
<g id="a_node8"><a xlink:href="../../dc/dd2/struct_linear_ring_z_m.html" target="_top" xlink:title="The LinearRingZM struct.">
<polygon fill="none" stroke="black" points="458.74,-555.5 458.74,-612.5 542.74,-612.5 542.74,-555.5 458.74,-555.5"/>
<text text-anchor="middle" x="500.74" y="-600.5" font-family="Monaco" font-size="10.00">LinearRingZM</text>
<polyline fill="none" stroke="black" points="458.74,-593.5 542.74,-593.5 "/>
<text text-anchor="start" x="466.74" y="-581.5" font-family="Monaco" font-size="10.00">+ numPoints</text>
<polyline fill="none" stroke="black" points="458.74,-574.5 542.74,-574.5 "/>
<text text-anchor="middle" x="500.74" y="-562.5" font-family="Monaco" font-size="10.00"> </text>
</a>
</g>
</g>
<!-- Node4&#45;&gt;Node8 -->
<g id="edge11" class="edge">
<title>Node4&#45;&gt;Node8</title>
<path fill="none" stroke="#404040" d="M372.54,-682.58C395.46,-665.14 427.98,-640.38 454.54,-620.17"/>
<polygon fill="none" stroke="#404040" points="454.84,-619.94 457.19,-613.12 464.39,-612.67 462.04,-619.49 454.84,-619.94"/>
<text text-anchor="middle" x="457.74" y="-634" font-family="Monaco" font-size="10.00"> +points</text>
</g>
<!-- Node5&#45;&gt;Node1 -->
<g id="edge4" class="edge">
<title>Node5&#45;&gt;Node1</title>
<path fill="none" stroke="#404040" d="M497.77,-79.83C500.68,-89.27 502,-99.42 499.74,-109 499.2,-111.28 498.53,-113.58 497.76,-115.86"/>
<polygon fill="none" stroke="#404040" points="497.73,-115.94 499.2,-123 493.25,-127.07 491.78,-120.01 497.73,-115.94"/>
<text text-anchor="middle" x="538.74" y="-101" font-family="Monaco" font-size="10.00"> +collectionzm</text>
</g>
<!-- Node6&#45;&gt;Node1 -->
<g id="edge7" class="edge">
<title>Node6&#45;&gt;Node1</title>
<path fill="none" stroke="#404040" d="M300.11,-428.39C250.49,-379.74 182.04,-294.91 228.74,-232 250.8,-202.29 346.92,-179.79 412.81,-167.51"/>
<polygon fill="none" stroke="#404040" points="412.93,-167.49 418.11,-162.47 424.73,-165.33 419.55,-170.34 412.93,-167.49"/>
<text text-anchor="middle" x="265.24" y="-269.5" font-family="Monaco" font-size="10.00"> +linestringzm</text>
</g>
<!-- Node9 -->
<g id="node9" class="node">
<title>Node9</title>
<g id="a_node9"><a xlink:href="../../d5/dd8/struct_w_k_b_multi_line_string_z_m.html" target="_top" xlink:title="The WKBMultiLineStringZM struct.">
<polygon fill="none" stroke="black" points="311.24,-232.5 311.24,-311.5 440.24,-311.5 440.24,-232.5 311.24,-232.5"/>
<text text-anchor="middle" x="375.74" y="-299.5" font-family="Monaco" font-size="10.00">WKBMultiLineStringZM</text>
<polyline fill="none" stroke="black" points="311.24,-292.5 440.24,-292.5 "/>
<text text-anchor="start" x="319.24" y="-280.5" font-family="Monaco" font-size="10.00">+ byteOrder</text>
<text text-anchor="start" x="319.24" y="-269.5" font-family="Monaco" font-size="10.00">+ numLineStrings</text>
<text text-anchor="start" x="319.24" y="-258.5" font-family="Monaco" font-size="10.00">+ wkbType</text>
<polyline fill="none" stroke="black" points="311.24,-251.5 440.24,-251.5 "/>
<text text-anchor="middle" x="375.74" y="-239.5" font-family="Monaco" font-size="10.00"> </text>
</a>
</g>
</g>
<!-- Node6&#45;&gt;Node9 -->
<g id="edge13" class="edge">
<title>Node6&#45;&gt;Node9</title>
<path fill="none" stroke="#404040" d="M350.14,-428.21C355.09,-398.2 361.98,-356.41 367.37,-323.75"/>
<polygon fill="none" stroke="#404040" points="367.4,-323.57 364.43,-316.99 369.35,-311.73 372.32,-318.3 367.4,-323.57"/>
<text text-anchor="middle" x="398.74" y="-367.5" font-family="Monaco" font-size="10.00"> +lineStrings</text>
</g>
<!-- Node7 -->
<g id="node7" class="node">
<title>Node7</title>
<g id="a_node7"><a xlink:href="../../d0/dac/struct_w_k_b_polygon_z_m.html" target="_top" xlink:title="The WKBPolygonZM struct.">
<polygon fill="none" stroke="black" points="453.24,-428.5 453.24,-507.5 548.24,-507.5 548.24,-428.5 453.24,-428.5"/>
<text text-anchor="middle" x="500.74" y="-495.5" font-family="Monaco" font-size="10.00">WKBPolygonZM</text>
<polyline fill="none" stroke="black" points="453.24,-488.5 548.24,-488.5 "/>
<text text-anchor="start" x="461.24" y="-476.5" font-family="Monaco" font-size="10.00">+ byteOrder</text>
<text text-anchor="start" x="461.24" y="-465.5" font-family="Monaco" font-size="10.00">+ numRings</text>
<text text-anchor="start" x="461.24" y="-454.5" font-family="Monaco" font-size="10.00">+ wkbType</text>
<polyline fill="none" stroke="black" points="453.24,-447.5 548.24,-447.5 "/>
<text text-anchor="middle" x="500.74" y="-435.5" font-family="Monaco" font-size="10.00"> </text>
</a>
</g>
</g>
<!-- Node7&#45;&gt;Node1 -->
<g id="edge9" class="edge">
<title>Node7&#45;&gt;Node1</title>
<path fill="none" stroke="#404040" d="M496.6,-428.5C493.33,-397.16 488.82,-351.76 485.74,-312 482.72,-272.91 480.22,-228.2 478.63,-196.88"/>
<polygon fill="none" stroke="#404040" points="478.63,-196.73 474.33,-190.93 478.03,-184.74 482.32,-190.53 478.63,-196.73"/>
<text text-anchor="middle" x="518.74" y="-269.5" font-family="Monaco" font-size="10.00"> +polygonzm</text>
</g>
<!-- Node15 -->
<g id="node15" class="node">
<title>Node15</title>
<g id="a_node15"><a xlink:href="../../d6/d04/struct_w_k_b_t_i_n_z_m.html" target="_top" xlink:title="The WKBTINZM struct.">
<polygon fill="none" stroke="black" points="560.74,-232.5 560.74,-311.5 654.74,-311.5 654.74,-232.5 560.74,-232.5"/>
<text text-anchor="middle" x="607.74" y="-299.5" font-family="Monaco" font-size="10.00">WKBTINZM</text>
<polyline fill="none" stroke="black" points="560.74,-292.5 654.74,-292.5 "/>
<text text-anchor="start" x="568.74" y="-280.5" font-family="Monaco" font-size="10.00">+ byteOrder</text>
<text text-anchor="start" x="568.74" y="-269.5" font-family="Monaco" font-size="10.00">+ numPolygons</text>
<text text-anchor="start" x="568.74" y="-258.5" font-family="Monaco" font-size="10.00">+ wkbType</text>
<polyline fill="none" stroke="black" points="560.74,-251.5 654.74,-251.5 "/>
<text text-anchor="middle" x="607.74" y="-239.5" font-family="Monaco" font-size="10.00"> </text>
</a>
</g>
</g>
<!-- Node7&#45;&gt;Node15 -->
<g id="edge21" class="edge">
<title>Node7&#45;&gt;Node15</title>
<path fill="none" stroke="#404040" d="M506.71,-428.25C512.5,-399.39 523.35,-359.97 542.74,-330 545.54,-325.68 548.75,-321.49 552.22,-317.47"/>
<polygon fill="none" stroke="#404040" points="552.49,-317.19 553.69,-310.08 560.71,-308.45 559.51,-315.56 552.49,-317.19"/>
<text text-anchor="middle" x="570.74" y="-367.5" font-family="Monaco" font-size="10.00"> +polygons</text>
</g>
<!-- Node8&#45;&gt;Node7 -->
<g id="edge10" class="edge">
<title>Node8&#45;&gt;Node7</title>
<path fill="none" stroke="#404040" d="M500.74,-555.4C500.74,-544.63 500.74,-531.93 500.74,-519.62"/>
<polygon fill="none" stroke="#404040" points="500.74,-519.54 496.74,-513.54 500.74,-507.54 504.74,-513.54 500.74,-519.54"/>
<text text-anchor="middle" x="518.74" y="-529" font-family="Monaco" font-size="10.00"> +rings</text>
</g>
<!-- Node14 -->
<g id="node14" class="node">
<title>Node14</title>
<g id="a_node14"><a xlink:href="../../d2/d4d/struct_w_k_b_triangle_z_m.html" target="_top" xlink:title="The WKBTriangleZM struct.">
<polygon fill="none" stroke="black" points="607.74,-330.5 607.74,-409.5 701.74,-409.5 701.74,-330.5 607.74,-330.5"/>
<text text-anchor="middle" x="654.74" y="-397.5" font-family="Monaco" font-size="10.00">WKBTriangleZM</text>
<polyline fill="none" stroke="black" points="607.74,-390.5 701.74,-390.5 "/>
<text text-anchor="start" x="615.74" y="-378.5" font-family="Monaco" font-size="10.00">+ byteOrder</text>
<text text-anchor="start" x="615.74" y="-367.5" font-family="Monaco" font-size="10.00">+ numRings</text>
<text text-anchor="start" x="615.74" y="-356.5" font-family="Monaco" font-size="10.00">+ wkbType</text>
<polyline fill="none" stroke="black" points="607.74,-349.5 701.74,-349.5 "/>
<text text-anchor="middle" x="654.74" y="-337.5" font-family="Monaco" font-size="10.00"> </text>
</a>
</g>
</g>
<!-- Node8&#45;&gt;Node14 -->
<g id="edge19" class="edge">
<title>Node8&#45;&gt;Node14</title>
<path fill="none" stroke="#404040" d="M525.8,-555.21C530.87,-549.3 536.08,-543.03 540.74,-537 570.32,-498.79 601.19,-453.46 623.33,-419.83"/>
<polygon fill="none" stroke="#404040" points="623.33,-419.82 623.28,-412.61 629.91,-409.79 629.97,-417 623.33,-419.82"/>
<text text-anchor="middle" x="566.74" y="-529" font-family="Monaco" font-size="10.00"> +rings</text>
</g>
<!-- Node9&#45;&gt;Node1 -->
<g id="edge12" class="edge">
<title>Node9&#45;&gt;Node1</title>
<path fill="none" stroke="#404040" d="M371.81,-232.35C372.5,-222.09 374.94,-211.51 380.74,-203 388.84,-191.13 400.87,-182.23 413.7,-175.59"/>
<polygon fill="none" stroke="#404040" points="413.71,-175.58 417.47,-169.42 424.59,-170.52 420.84,-176.68 413.71,-175.58"/>
<text text-anchor="middle" x="421.74" y="-206" font-family="Monaco" font-size="10.00"> +mlinestringzm</text>
</g>
<!-- Node10 -->
<g id="node10" class="node">
<title>Node10</title>
<g id="a_node10"><a xlink:href="../../de/dad/struct_w_k_b_multi_polygon_z.html" target="_top" xlink:title="The WKBMultiPolygonZ struct.">
<polygon fill="none" stroke="black" points="772.74,-232.5 772.74,-311.5 882.74,-311.5 882.74,-232.5 772.74,-232.5"/>
<text text-anchor="middle" x="827.74" y="-299.5" font-family="Monaco" font-size="10.00">WKBMultiPolygonZ</text>
<polyline fill="none" stroke="black" points="772.74,-292.5 882.74,-292.5 "/>
<text text-anchor="start" x="780.74" y="-280.5" font-family="Monaco" font-size="10.00">+ byteOrder</text>
<text text-anchor="start" x="780.74" y="-269.5" font-family="Monaco" font-size="10.00">+ numPolygons</text>
<text text-anchor="start" x="780.74" y="-258.5" font-family="Monaco" font-size="10.00">+ wkbType</text>
<polyline fill="none" stroke="black" points="772.74,-251.5 882.74,-251.5 "/>
<text text-anchor="middle" x="827.74" y="-239.5" font-family="Monaco" font-size="10.00"> </text>
</a>
</g>
</g>
<!-- Node10&#45;&gt;Node1 -->
<g id="edge14" class="edge">
<title>Node10&#45;&gt;Node1</title>
<path fill="none" stroke="#404040" d="M772.44,-239.6C767.81,-237.02 763.2,-234.46 758.74,-232 734.88,-218.85 730.37,-212.24 704.74,-203 651.21,-183.71 587.54,-171.71 541.1,-164.83"/>
<polygon fill="none" stroke="#404040" points="540.96,-164.81 534.45,-167.92 529.08,-163.11 535.59,-160 540.96,-164.81"/>
<text text-anchor="middle" x="767.74" y="-206" font-family="Monaco" font-size="10.00"> +mpolygonzm</text>
</g>
<!-- Node11 -->
<g id="node11" class="node">
<title>Node11</title>
<g id="a_node11"><a xlink:href="../../db/dad/struct_w_k_b_polygon_z.html" target="_top" xlink:title="The WKBPolygonZ struct.">
<polygon fill="none" stroke="black" points="784.74,-428.5 784.74,-507.5 870.74,-507.5 870.74,-428.5 784.74,-428.5"/>
<text text-anchor="middle" x="827.74" y="-495.5" font-family="Monaco" font-size="10.00">WKBPolygonZ</text>
<polyline fill="none" stroke="black" points="784.74,-488.5 870.74,-488.5 "/>
<text text-anchor="start" x="792.74" y="-476.5" font-family="Monaco" font-size="10.00">+ byteOrder</text>
<text text-anchor="start" x="792.74" y="-465.5" font-family="Monaco" font-size="10.00">+ numRings</text>
<text text-anchor="start" x="792.74" y="-454.5" font-family="Monaco" font-size="10.00">+ wkbType</text>
<polyline fill="none" stroke="black" points="784.74,-447.5 870.74,-447.5 "/>
<text text-anchor="middle" x="827.74" y="-435.5" font-family="Monaco" font-size="10.00"> </text>
</a>
</g>
</g>
<!-- Node11&#45;&gt;Node10 -->
<g id="edge15" class="edge">
<title>Node11&#45;&gt;Node10</title>
<path fill="none" stroke="#404040" d="M827.74,-428.21C827.74,-398.2 827.74,-356.41 827.74,-323.75"/>
<polygon fill="none" stroke="#404040" points="827.74,-323.73 823.74,-317.73 827.74,-311.73 831.74,-317.73 827.74,-323.73"/>
<text text-anchor="middle" x="855.74" y="-367.5" font-family="Monaco" font-size="10.00"> +polygons</text>
</g>
<!-- Node12 -->
<g id="node12" class="node">
<title>Node12</title>
<g id="a_node12"><a xlink:href="../../d2/d2c/struct_linear_ring_z.html" target="_top" xlink:title="The LinearRingZ struct.">
<polygon fill="none" stroke="black" points="787.74,-555.5 787.74,-612.5 867.74,-612.5 867.74,-555.5 787.74,-555.5"/>
<text text-anchor="middle" x="827.74" y="-600.5" font-family="Monaco" font-size="10.00">LinearRingZ</text>
<polyline fill="none" stroke="black" points="787.74,-593.5 867.74,-593.5 "/>
<text text-anchor="start" x="795.74" y="-581.5" font-family="Monaco" font-size="10.00">+ numPoints</text>
<polyline fill="none" stroke="black" points="787.74,-574.5 867.74,-574.5 "/>
<text text-anchor="middle" x="827.74" y="-562.5" font-family="Monaco" font-size="10.00"> </text>
</a>
</g>
</g>
<!-- Node12&#45;&gt;Node11 -->
<g id="edge16" class="edge">
<title>Node12&#45;&gt;Node11</title>
<path fill="none" stroke="#404040" d="M827.74,-555.4C827.74,-544.63 827.74,-531.93 827.74,-519.62"/>
<polygon fill="none" stroke="#404040" points="827.74,-519.54 823.74,-513.54 827.74,-507.54 831.74,-513.54 827.74,-519.54"/>
<text text-anchor="middle" x="845.74" y="-529" font-family="Monaco" font-size="10.00"> +rings</text>
</g>
<!-- Node13 -->
<g id="node13" class="node">
<title>Node13</title>
<g id="a_node13"><a xlink:href="../../d6/d0c/struct_point_z.html" target="_top" xlink:title="The PointZ struct.">
<polygon fill="none" stroke="black" points="803.74,-666 803.74,-745 851.74,-745 851.74,-666 803.74,-666"/>
<text text-anchor="middle" x="827.74" y="-733" font-family="Monaco" font-size="10.00">PointZ</text>
<polyline fill="none" stroke="black" points="803.74,-726 851.74,-726 "/>
<text text-anchor="start" x="811.74" y="-714" font-family="Monaco" font-size="10.00">+ x</text>
<text text-anchor="start" x="811.74" y="-703" font-family="Monaco" font-size="10.00">+ y</text>
<text text-anchor="start" x="811.74" y="-692" font-family="Monaco" font-size="10.00">+ z</text>
<polyline fill="none" stroke="black" points="803.74,-685 851.74,-685 "/>
<text text-anchor="middle" x="827.74" y="-673" font-family="Monaco" font-size="10.00"> </text>
</a>
</g>
</g>
<!-- Node13&#45;&gt;Node12 -->
<g id="edge17" class="edge">
<title>Node13&#45;&gt;Node12</title>
<path fill="none" stroke="#404040" d="M827.74,-665.7C827.74,-652.58 827.74,-637.92 827.74,-624.73"/>
<polygon fill="none" stroke="#404040" points="827.74,-624.64 823.74,-618.64 827.74,-612.64 831.74,-618.64 827.74,-624.64"/>
<text text-anchor="middle" x="848.74" y="-634" font-family="Monaco" font-size="10.00"> +points</text>
</g>
<!-- Node14&#45;&gt;Node1 -->
<g id="edge18" class="edge">
<title>Node14&#45;&gt;Node1</title>
<path fill="none" stroke="#404040" d="M669.27,-330.21C677.65,-300.78 683.11,-260.63 663.74,-232 636.48,-191.7 583.64,-173.05 541.06,-164.42"/>
<polygon fill="none" stroke="#404040" points="540.87,-164.39 534.24,-167.23 529.07,-162.2 535.7,-159.36 540.87,-164.39"/>
<text text-anchor="middle" x="709.74" y="-269.5" font-family="Monaco" font-size="10.00"> +trianglezm</text>
</g>
<!-- Node15&#45;&gt;Node1 -->
<g id="edge20" class="edge">
<title>Node15&#45;&gt;Node1</title>
<path fill="none" stroke="#404040" d="M563.39,-232.4C548.66,-219.58 532.32,-205.37 517.84,-192.77"/>
<polygon fill="none" stroke="#404040" points="517.68,-192.63 510.53,-191.71 508.63,-184.75 515.78,-185.67 517.68,-192.63"/>
<text text-anchor="middle" x="562.74" y="-206" font-family="Monaco" font-size="10.00"> +tinzm</text>
</g>
<!-- Node16 -->
<g id="node16" class="node">
<title>Node16</title>
<g id="a_node16"><a xlink:href="../../d0/d5c/struct_w_k_b_polyhedral_surface_m.html" target="_top" xlink:title="The WKBPolyhedralSurfaceM struct.">
<polygon fill="none" stroke="black" points="901.24,-232.5 901.24,-311.5 1038.24,-311.5 1038.24,-232.5 901.24,-232.5"/>
<text text-anchor="middle" x="969.74" y="-299.5" font-family="Monaco" font-size="10.00">WKBPolyhedralSurfaceM</text>
<polyline fill="none" stroke="black" points="901.24,-292.5 1038.24,-292.5 "/>
<text text-anchor="start" x="909.24" y="-280.5" font-family="Monaco" font-size="10.00">+ byteOrder</text>
<text text-anchor="start" x="909.24" y="-269.5" font-family="Monaco" font-size="10.00">+ numPolygons</text>
<text text-anchor="start" x="909.24" y="-258.5" font-family="Monaco" font-size="10.00">+ wkbType</text>
<polyline fill="none" stroke="black" points="901.24,-251.5 1038.24,-251.5 "/>
<text text-anchor="middle" x="969.74" y="-239.5" font-family="Monaco" font-size="10.00"> </text>
</a>
</g>
</g>
<!-- Node16&#45;&gt;Node1 -->
<g id="edge22" class="edge">
<title>Node16&#45;&gt;Node1</title>
<path fill="none" stroke="#404040" d="M901.05,-236.08C897.92,-234.67 894.81,-233.3 891.74,-232 856.16,-216.88 847.3,-212.14 809.74,-203 717.79,-180.63 608.71,-168.15 541.11,-162"/>
<polygon fill="none" stroke="#404040" points="540.93,-161.98 534.6,-165.43 528.98,-160.92 535.31,-157.47 540.93,-161.98"/>
<text text-anchor="middle" x="905.24" y="-206" font-family="Monaco" font-size="10.00"> +Polyhedralsurfacezm</text>
</g>
<!-- Node17 -->
<g id="node17" class="node">
<title>Node17</title>
<g id="a_node17"><a xlink:href="../../d0/d5d/struct_w_k_b_polygon_m.html" target="_top" xlink:title="The WKBPolygonM struct.">
<polygon fill="none" stroke="black" points="925.74,-428.5 925.74,-507.5 1013.74,-507.5 1013.74,-428.5 925.74,-428.5"/>
<text text-anchor="middle" x="969.74" y="-495.5" font-family="Monaco" font-size="10.00">WKBPolygonM</text>
<polyline fill="none" stroke="black" points="925.74,-488.5 1013.74,-488.5 "/>
<text text-anchor="start" x="933.74" y="-476.5" font-family="Monaco" font-size="10.00">+ byteOrder</text>
<text text-anchor="start" x="933.74" y="-465.5" font-family="Monaco" font-size="10.00">+ numRings</text>
<text text-anchor="start" x="933.74" y="-454.5" font-family="Monaco" font-size="10.00">+ wkbType</text>
<polyline fill="none" stroke="black" points="925.74,-447.5 1013.74,-447.5 "/>
<text text-anchor="middle" x="969.74" y="-435.5" font-family="Monaco" font-size="10.00"> </text>
</a>
</g>
</g>
<!-- Node17&#45;&gt;Node16 -->
<g id="edge23" class="edge">
<title>Node17&#45;&gt;Node16</title>
<path fill="none" stroke="#404040" d="M969.74,-428.21C969.74,-398.2 969.74,-356.41 969.74,-323.75"/>
<polygon fill="none" stroke="#404040" points="969.74,-323.73 965.74,-317.73 969.74,-311.73 973.74,-317.73 969.74,-323.73"/>
<text text-anchor="middle" x="997.74" y="-367.5" font-family="Monaco" font-size="10.00"> +polygons</text>
</g>
<!-- Node18 -->
<g id="node18" class="node">
<title>Node18</title>
<g id="a_node18"><a xlink:href="../../d0/d1b/struct_linear_ring_m.html" target="_top" xlink:title="The LinearRingM struct.">
<polygon fill="none" stroke="black" points="929.74,-555.5 929.74,-612.5 1009.74,-612.5 1009.74,-555.5 929.74,-555.5"/>
<text text-anchor="middle" x="969.74" y="-600.5" font-family="Monaco" font-size="10.00">LinearRingM</text>
<polyline fill="none" stroke="black" points="929.74,-593.5 1009.74,-593.5 "/>
<text text-anchor="start" x="937.74" y="-581.5" font-family="Monaco" font-size="10.00">+ numPoints</text>
<polyline fill="none" stroke="black" points="929.74,-574.5 1009.74,-574.5 "/>
<text text-anchor="middle" x="969.74" y="-562.5" font-family="Monaco" font-size="10.00"> </text>
</a>
</g>
</g>
<!-- Node18&#45;&gt;Node17 -->
<g id="edge24" class="edge">
<title>Node18&#45;&gt;Node17</title>
<path fill="none" stroke="#404040" d="M969.74,-555.4C969.74,-544.63 969.74,-531.93 969.74,-519.62"/>
<polygon fill="none" stroke="#404040" points="969.74,-519.54 965.74,-513.54 969.74,-507.54 973.74,-513.54 969.74,-519.54"/>
<text text-anchor="middle" x="987.74" y="-529" font-family="Monaco" font-size="10.00"> +rings</text>
</g>
<!-- Node19 -->
<g id="node19" class="node">
<title>Node19</title>
<g id="a_node19"><a xlink:href="../../de/d55/struct_point_m.html" target="_top" xlink:title="The PointM struct.">
<polygon fill="none" stroke="black" points="944.74,-666 944.74,-745 994.74,-745 994.74,-666 944.74,-666"/>
<text text-anchor="middle" x="969.74" y="-733" font-family="Monaco" font-size="10.00">PointM</text>
<polyline fill="none" stroke="black" points="944.74,-726 994.74,-726 "/>
<text text-anchor="start" x="952.74" y="-714" font-family="Monaco" font-size="10.00">+ x</text>
<text text-anchor="start" x="952.74" y="-703" font-family="Monaco" font-size="10.00">+ y</text>
<text text-anchor="start" x="952.74" y="-692" font-family="Monaco" font-size="10.00">+ m</text>
<polyline fill="none" stroke="black" points="944.74,-685 994.74,-685 "/>
<text text-anchor="middle" x="969.74" y="-673" font-family="Monaco" font-size="10.00"> </text>
</a>
</g>
</g>
<!-- Node19&#45;&gt;Node18 -->
<g id="edge25" class="edge">
<title>Node19&#45;&gt;Node18</title>
<path fill="none" stroke="#404040" d="M969.74,-665.7C969.74,-652.58 969.74,-637.92 969.74,-624.73"/>
<polygon fill="none" stroke="#404040" points="969.74,-624.64 965.74,-618.64 969.74,-612.64 973.74,-618.64 969.74,-624.64"/>
<text text-anchor="middle" x="990.74" y="-634" font-family="Monaco" font-size="10.00"> +points</text>
</g>
</g>
</svg>
