<?xml version="1.0" encoding="UTF-8" standalone="no"?>
<!DOCTYPE svg PUBLIC "-//W3C//DTD SVG 1.1//EN"
 "http://www.w3.org/Graphics/SVG/1.1/DTD/svg11.dtd">
<!-- Generated by graphviz version 2.43.0 (0)
 -->
<!-- Title: WKBPolyhedralSurfaceM Pages: 1 -->
<svg width="139pt" height="435pt"
 viewBox="0.00 0.00 139.00 435.00" xmlns="http://www.w3.org/2000/svg" xmlns:xlink="http://www.w3.org/1999/xlink">

<svg id="main" version="1.1" xmlns="http://www.w3.org/2000/svg" xmlns:xlink="http://www.w3.org/1999/xlink" xml:space="preserve" onload="init(evt)">
<style type="text/css"><![CDATA[
.node, .edge {opacity: 0.7;}
.node.selected, .edge.selected {opacity: 1;}
.edge:hover path { stroke: red; }
.edge:hover polygon { stroke: red; fill: red; }
]]></style>
<script type="application/ecmascript" xlink:href="../../svg.min.js"/>
<svg id="graph" class="graph">
<g id="graph0" class="graph" transform="scale(1 1) rotate(0) translate(4 431)">
<title>WKBPolyhedralSurfaceM</title>
<!-- Node1 -->
<g id="Node000001" class="node">
<title>Node1</title>
<g id="a_Node000001"><a xlink:title="The WKBPolyhedralSurfaceM struct.">
<polygon fill="#999999" stroke="transparent" points="131,-79 0,-79 0,0 131,0 131,-79"/>
<text text-anchor="start" x="5.5" y="-66.5" font-family="Monaco" font-size="10.00">WKBPolyhedralSurfaceM</text>
<text text-anchor="start" x="15" y="-51.5" font-family="Monaco" font-size="10.00">+</text>
<text text-anchor="start" x="38.5" y="-51.5" font-family="Monaco" font-size="10.00">byteOrder</text>
<text text-anchor="start" x="15" y="-36.5" font-family="Monaco" font-size="10.00">+</text>
<text text-anchor="start" x="38.5" y="-36.5" font-family="Monaco" font-size="10.00">numPolygons</text>
<text text-anchor="start" x="15" y="-21.5" font-family="Monaco" font-size="10.00">+</text>
<text text-anchor="start" x="38.5" y="-21.5" font-family="Monaco" font-size="10.00">wkbType</text>
<text text-anchor="start" x="64" y="-6.5" font-family="Monaco" font-size="10.00"> </text>
<polygon fill="#666666" stroke="#666666" points="0.5,-61.5 0.5,-61.5 131.5,-61.5 131.5,-61.5 0.5,-61.5"/>
<polygon fill="#666666" stroke="#666666" points="0.5,-16.5 0.5,-16.5 36.5,-16.5 36.5,-16.5 0.5,-16.5"/>
<polygon fill="#666666" stroke="#666666" points="36.5,-16.5 36.5,-16.5 131.5,-16.5 131.5,-16.5 36.5,-16.5"/>
<polygon fill="none" stroke="#666666" points="0,0 0,-79 131,-79 131,0 0,0"/>
</a>
</g>
</g>
<!-- Node2 -->
<g id="Node000002" class="node">
<title>Node2</title>
<g id="a_Node000002"><a xlink:href="../../d0/d5d/struct_w_k_b_polygon_m.html" target="_top" xlink:title="The WKBPolygonM struct.">
<polygon fill="white" stroke="transparent" points="106.5,-205 24.5,-205 24.5,-126 106.5,-126 106.5,-205"/>
<text text-anchor="start" x="29.5" y="-192.5" font-family="Monaco" font-size="10.00">WKBPolygonM</text>
<text text-anchor="start" x="31.5" y="-177.5" font-family="Monaco" font-size="10.00">+</text>
<text text-anchor="start" x="47.5" y="-177.5" font-family="Monaco" font-size="10.00">byteOrder</text>
<text text-anchor="start" x="31.5" y="-162.5" font-family="Monaco" font-size="10.00">+</text>
<text text-anchor="start" x="47.5" y="-162.5" font-family="Monaco" font-size="10.00">numRings</text>
<text text-anchor="start" x="31.5" y="-147.5" font-family="Monaco" font-size="10.00">+</text>
<text text-anchor="start" x="47.5" y="-147.5" font-family="Monaco" font-size="10.00">wkbType</text>
<text text-anchor="start" x="63.5" y="-132.5" font-family="Monaco" font-size="10.00"> </text>
<polygon fill="#666666" stroke="#666666" points="24.5,-187.5 24.5,-187.5 106.5,-187.5 106.5,-187.5 24.5,-187.5"/>
<polygon fill="#666666" stroke="#666666" points="24.5,-142.5 24.5,-142.5 45.5,-142.5 45.5,-142.5 24.5,-142.5"/>
<polygon fill="#666666" stroke="#666666" points="45.5,-142.5 45.5,-142.5 106.5,-142.5 106.5,-142.5 45.5,-142.5"/>
<polygon fill="none" stroke="#666666" points="24.5,-126 24.5,-205 106.5,-205 106.5,-126 24.5,-126"/>
</a>
</g>
</g>
<!-- Node2&#45;&gt;Node1 -->
<g id="edge1_Node000001_Node000002" class="edge">
<title>Node2&#45;&gt;Node1</title>
<g id="a_edge1_Node000001_Node000002"><a xlink:title=" ">
<path fill="none" stroke="#63b8ff" d="M65.5,-125.95C65.5,-114.98 65.5,-102.87 65.5,-91.3"/>
<polygon fill="none" stroke="#63b8ff" points="65.5,-91.03 61.5,-85.03 65.5,-79.03 69.5,-85.03 65.5,-91.03"/>
</a>
</g>
<text text-anchor="middle" x="93.5" y="-100" font-family="Monaco" font-size="10.00" fill="grey"> +polygons</text>
</g>
<!-- Node3 -->
<g id="Node000003" class="node">
<title>Node3</title>
<g id="a_Node000003"><a xlink:href="../../d0/d1b/struct_linear_ring_m.html" target="_top" xlink:title="The LinearRingM struct.">
<polygon fill="white" stroke="transparent" points="102,-301 29,-301 29,-252 102,-252 102,-301"/>
<text text-anchor="start" x="35.5" y="-288.5" font-family="Monaco" font-size="10.00">LinearRingM</text>
<text text-anchor="start" x="33.5" y="-273.5" font-family="Monaco" font-size="10.00">+</text>
<text text-anchor="start" x="46.5" y="-273.5" font-family="Monaco" font-size="10.00">numPoints</text>
<text text-anchor="start" x="64" y="-258.5" font-family="Monaco" font-size="10.00"> </text>
<polygon fill="#666666" stroke="#666666" points="29.5,-283.5 29.5,-283.5 102.5,-283.5 102.5,-283.5 29.5,-283.5"/>
<polygon fill="#666666" stroke="#666666" points="29.5,-268.5 29.5,-268.5 44.5,-268.5 44.5,-268.5 29.5,-268.5"/>
<polygon fill="#666666" stroke="#666666" points="44.5,-268.5 44.5,-268.5 102.5,-268.5 102.5,-268.5 44.5,-268.5"/>
<polygon fill="none" stroke="#666666" points="29,-252 29,-301 102,-301 102,-252 29,-252"/>
</a>
</g>
</g>
<!-- Node3&#45;&gt;Node2 -->
<g id="edge2_Node000002_Node000003" class="edge">
<title>Node3&#45;&gt;Node2</title>
<g id="a_edge2_Node000002_Node000003"><a xlink:title=" ">
<path fill="none" stroke="#63b8ff" d="M65.5,-251.85C65.5,-241.72 65.5,-229.47 65.5,-217.45"/>
<polygon fill="none" stroke="#63b8ff" points="65.5,-217.1 61.5,-211.1 65.5,-205.1 69.5,-211.1 65.5,-217.1"/>
</a>
</g>
<text text-anchor="middle" x="83.5" y="-226" font-family="Monaco" font-size="10.00" fill="grey"> +rings</text>
</g>
<!-- Node4 -->
<g id="Node000004" class="node">
<title>Node4</title>
<g id="a_Node000004"><a xlink:href="../../de/d55/struct_point_m.html" target="_top" xlink:title="The PointM struct.">
<polygon fill="white" stroke="transparent" points="87.5,-427 43.5,-427 43.5,-348 87.5,-348 87.5,-427"/>
<text text-anchor="start" x="48.5" y="-414.5" font-family="Monaco" font-size="10.00">PointM</text>
<text text-anchor="start" x="50.5" y="-399.5" font-family="Monaco" font-size="10.00">+</text>
<text text-anchor="start" x="66.5" y="-399.5" font-family="Monaco" font-size="10.00">x</text>
<text text-anchor="start" x="50.5" y="-384.5" font-family="Monaco" font-size="10.00">+</text>
<text text-anchor="start" x="66.5" y="-384.5" font-family="Monaco" font-size="10.00">y</text>
<text text-anchor="start" x="50.5" y="-369.5" font-family="Monaco" font-size="10.00">+</text>
<text text-anchor="start" x="66.5" y="-369.5" font-family="Monaco" font-size="10.00">m</text>
<text text-anchor="start" x="63.5" y="-354.5" font-family="Monaco" font-size="10.00"> </text>
<polygon fill="#666666" stroke="#666666" points="43.5,-409.5 43.5,-409.5 87.5,-409.5 87.5,-409.5 43.5,-409.5"/>
<polygon fill="#666666" stroke="#666666" points="43.5,-364.5 43.5,-364.5 64.5,-364.5 64.5,-364.5 43.5,-364.5"/>
<polygon fill="#666666" stroke="#666666" points="64.5,-364.5 64.5,-364.5 87.5,-364.5 87.5,-364.5 64.5,-364.5"/>
<polygon fill="none" stroke="#666666" points="43.5,-348 43.5,-427 87.5,-427 87.5,-348 43.5,-348"/>
</a>
</g>
</g>
<!-- Node4&#45;&gt;Node3 -->
<g id="edge3_Node000003_Node000004" class="edge">
<title>Node4&#45;&gt;Node3</title>
<g id="a_edge3_Node000003_Node000004"><a xlink:title=" ">
<path fill="none" stroke="#63b8ff" d="M65.5,-347.76C65.5,-336.59 65.5,-324.45 65.5,-313.46"/>
<polygon fill="none" stroke="#63b8ff" points="65.5,-313.2 61.5,-307.2 65.5,-301.2 69.5,-307.2 65.5,-313.2"/>
</a>
</g>
<text text-anchor="middle" x="86.5" y="-322" font-family="Monaco" font-size="10.00" fill="grey"> +points</text>
</g>
</g>
</svg>
</svg>

<style type='text/css'>
<![CDATA[
[data-mouse-over-selected='false'] { opacity: 0.7; }
[data-mouse-over-selected='true']  { opacity: 1.0; }
]]>
</style>
<script type="application/ecmascript"><![CDATA[
document.addEventListener('DOMContentLoaded', (event) => {
  highlightEdges();
  highlightAdjacentNodes();
});
]]></script>
</svg>
