<?xml version="1.0" encoding="UTF-8" standalone="no"?>
<!DOCTYPE svg PUBLIC "-//W3C//DTD SVG 1.1//EN"
 "http://www.w3.org/Graphics/SVG/1.1/DTD/svg11.dtd">
<!-- Generated by graphviz version 2.43.0 (0)
 -->
<!-- Title: HydroCouple::IAdaptedOutputFactoryComponent Pages: 1 -->
<svg width="213pt" height="706pt"
 viewBox="0.00 0.00 213.00 706.00" xmlns="http://www.w3.org/2000/svg" xmlns:xlink="http://www.w3.org/1999/xlink">
<g id="graph0" class="graph" transform="scale(1 1) rotate(0) translate(4 702)">
<title>HydroCouple::IAdaptedOutputFactoryComponent</title>
<!-- Node1 -->
<g id="Node000001" class="node">
<title>Node1</title>
<g id="a_Node000001"><a xlink:title="IAdaptedOutputFactoryComponent is an IAdaptedOutputFactory generated from an IAdaptedOutputFactoryCom...">
<polygon fill="#999999" stroke="transparent" points="205,-75 0,-75 0,0 205,0 205,-75"/>
<text text-anchor="start" x="30" y="-62.5" font-family="Monaco" font-size="10.00">HydroCouple::IAdaptedOutput</text>
<text text-anchor="start" x="57" y="-51.5" font-family="Monaco" font-size="10.00">FactoryComponent</text>
<text text-anchor="start" x="101" y="-36.5" font-family="Monaco" font-size="10.00"> </text>
<text text-anchor="start" x="4.5" y="-21.5" font-family="Monaco" font-size="10.00">+</text>
<text text-anchor="start" x="17.5" y="-21.5" font-family="Monaco" font-size="10.00">~IAdaptedOutputFactoryComponent()</text>
<text text-anchor="start" x="4.5" y="-6.5" font-family="Monaco" font-size="10.00">+</text>
<text text-anchor="start" x="17.5" y="-6.5" font-family="Monaco" font-size="10.00">componentInfo()</text>
<polygon fill="#666666" stroke="#666666" points="0.5,-46.5 0.5,-46.5 205.5,-46.5 205.5,-46.5 0.5,-46.5"/>
<polygon fill="#666666" stroke="#666666" points="0.5,-31.5 0.5,-31.5 205.5,-31.5 205.5,-31.5 0.5,-31.5"/>
<polygon fill="none" stroke="#666666" points="0,0 0,-75 205,-75 205,0 0,0"/>
</a>
</g>
</g>
<!-- Node2 -->
<g id="Node000002" class="node">
<title>Node2</title>
<g id="a_Node000002"><a xlink:href="../../da/d70/class_hydro_couple_1_1_i_adapted_output_factory.html" target="_top" xlink:title="IAdaptedOutputFactory is used to create instances of IAdaptedProducerExchangeItems.">
<polygon fill="white" stroke="transparent" points="180.5,-212 24.5,-212 24.5,-111 180.5,-111 180.5,-212"/>
<text text-anchor="start" x="29.5" y="-199.5" font-family="Monaco" font-size="10.00">HydroCouple::IAdaptedOutput</text>
<text text-anchor="start" x="84.5" y="-188.5" font-family="Monaco" font-size="10.00">Factory</text>
<text text-anchor="start" x="100.5" y="-173.5" font-family="Monaco" font-size="10.00"> </text>
<text text-anchor="start" x="28.5" y="-158.5" font-family="Monaco" font-size="10.00">+</text>
<text text-anchor="start" x="41.5" y="-158.5" font-family="Monaco" font-size="10.00">~IAdaptedOutputFactory()</text>
<text text-anchor="start" x="28.5" y="-143.5" font-family="Monaco" font-size="10.00">+</text>
<text text-anchor="start" x="41.5" y="-143.5" font-family="Monaco" font-size="10.00">getAvailableAdaptedOutput</text>
<text text-anchor="start" x="41.5" y="-132.5" font-family="Monaco" font-size="10.00">Ids()</text>
<text text-anchor="start" x="28.5" y="-117.5" font-family="Monaco" font-size="10.00">+</text>
<text text-anchor="start" x="41.5" y="-117.5" font-family="Monaco" font-size="10.00">createAdaptedOutput()</text>
<polygon fill="#666666" stroke="#666666" points="24.5,-183.5 24.5,-183.5 180.5,-183.5 180.5,-183.5 24.5,-183.5"/>
<polygon fill="#666666" stroke="#666666" points="24.5,-168.5 24.5,-168.5 180.5,-168.5 180.5,-168.5 24.5,-168.5"/>
<polygon fill="none" stroke="#666666" points="24.5,-111 24.5,-212 180.5,-212 180.5,-111 24.5,-111"/>
</a>
</g>
</g>
<!-- Node2&#45;&gt;Node1 -->
<g id="edge1_Node000001_Node000002" class="edge">
<title>Node2&#45;&gt;Node1</title>
<g id="a_edge1_Node000001_Node000002"><a xlink:title=" ">
<path fill="none" stroke="#63b8ff" d="M102.5,-100.76C102.5,-92.09 102.5,-83.39 102.5,-75.35"/>
<polygon fill="none" stroke="#63b8ff" points="99,-100.88 102.5,-110.88 106,-100.88 99,-100.88"/>
</a>
</g>
</g>
<!-- Node3 -->
<g id="Node000003" class="node">
<title>Node3</title>
<g id="a_Node000003"><a xlink:href="../../d2/d2a/class_hydro_couple_1_1_i_identity.html" target="_top" xlink:title="IIdentity interface class defines a method to get the Id of an HydroCouple entity.">
<polygon fill="white" stroke="transparent" points="162.5,-312 42.5,-312 42.5,-248 162.5,-248 162.5,-312"/>
<text text-anchor="start" x="47.5" y="-300" font-family="Monaco" font-size="10.00">HydroCouple::IIdentity</text>
<text text-anchor="start" x="100.5" y="-285" font-family="Monaco" font-size="10.00"> </text>
<text text-anchor="start" x="57" y="-270" font-family="Monaco" font-size="10.00">+</text>
<text text-anchor="start" x="80.5" y="-270" font-family="Monaco" font-size="10.00">~IIdentity()</text>
<text text-anchor="start" x="57" y="-255" font-family="Monaco" font-size="10.00">+</text>
<text text-anchor="start" x="80.5" y="-255" font-family="Monaco" font-size="10.00">id()</text>
<polygon fill="#666666" stroke="#666666" points="42.5,-295 42.5,-295 162.5,-295 162.5,-295 42.5,-295"/>
<polygon fill="#666666" stroke="#666666" points="42.5,-280 42.5,-280 162.5,-280 162.5,-280 42.5,-280"/>
<polygon fill="none" stroke="#666666" points="42.5,-248 42.5,-312 162.5,-312 162.5,-248 42.5,-248"/>
</a>
</g>
</g>
<!-- Node3&#45;&gt;Node2 -->
<g id="edge2_Node000002_Node000003" class="edge">
<title>Node3&#45;&gt;Node2</title>
<g id="a_edge2_Node000002_Node000003"><a xlink:title=" ">
<path fill="none" stroke="#63b8ff" d="M102.5,-237.68C102.5,-229.46 102.5,-220.74 102.5,-212.26"/>
<polygon fill="none" stroke="#63b8ff" points="99,-237.78 102.5,-247.78 106,-237.78 99,-237.78"/>
</a>
</g>
</g>
<!-- Node4 -->
<g id="Node000004" class="node">
<title>Node4</title>
<g id="a_Node000004"><a xlink:href="../../db/d64/class_hydro_couple_1_1_i_description.html" target="_top" xlink:title="IDescription interface class provides descriptive information on a HydroCouple object.">
<polygon fill="white" stroke="transparent" points="171.5,-457 33.5,-457 33.5,-348 171.5,-348 171.5,-457"/>
<text text-anchor="start" x="38.5" y="-444.5" font-family="Monaco" font-size="10.00">HydroCouple::IDescription</text>
<text text-anchor="start" x="100.5" y="-429.5" font-family="Monaco" font-size="10.00"> </text>
<text text-anchor="start" x="47" y="-414.5" font-family="Monaco" font-size="10.00">+</text>
<text text-anchor="start" x="69.5" y="-414.5" font-family="Monaco" font-size="10.00">~IDescription()</text>
<text text-anchor="start" x="47" y="-399.5" font-family="Monaco" font-size="10.00">+</text>
<text text-anchor="start" x="69.5" y="-399.5" font-family="Monaco" font-size="10.00">caption()</text>
<text text-anchor="start" x="47" y="-384.5" font-family="Monaco" font-size="10.00">+</text>
<text text-anchor="start" x="69.5" y="-384.5" font-family="Monaco" font-size="10.00">setCaption()</text>
<text text-anchor="start" x="47" y="-369.5" font-family="Monaco" font-size="10.00">+</text>
<text text-anchor="start" x="69.5" y="-369.5" font-family="Monaco" font-size="10.00">description()</text>
<text text-anchor="start" x="47" y="-354.5" font-family="Monaco" font-size="10.00">+</text>
<text text-anchor="start" x="69.5" y="-354.5" font-family="Monaco" font-size="10.00">setDescription()</text>
<polygon fill="#666666" stroke="#666666" points="33.5,-439.5 33.5,-439.5 171.5,-439.5 171.5,-439.5 33.5,-439.5"/>
<polygon fill="#666666" stroke="#666666" points="33.5,-424.5 33.5,-424.5 171.5,-424.5 171.5,-424.5 33.5,-424.5"/>
<polygon fill="none" stroke="#666666" points="33.5,-348 33.5,-457 171.5,-457 171.5,-348 33.5,-348"/>
</a>
</g>
</g>
<!-- Node4&#45;&gt;Node3 -->
<g id="edge3_Node000003_Node000004" class="edge">
<title>Node4&#45;&gt;Node3</title>
<g id="a_edge3_Node000003_Node000004"><a xlink:title=" ">
<path fill="none" stroke="#63b8ff" d="M102.5,-337.9C102.5,-329 102.5,-320.2 102.5,-312.28"/>
<polygon fill="none" stroke="#63b8ff" points="99,-337.95 102.5,-347.95 106,-337.95 99,-337.95"/>
</a>
</g>
</g>
<!-- Node5 -->
<g id="Node000005" class="node">
<title>Node5</title>
<g id="a_Node000005"><a xlink:href="../../dd/dbf/class_hydro_couple_1_1_i_property_changed.html" target="_top" xlink:title="IPropertyChanged interface is used to emit signal/event when a property of an object changes.">
<polygon fill="white" stroke="transparent" points="186,-542 19,-542 19,-493 186,-493 186,-542"/>
<text text-anchor="start" x="24.5" y="-529.5" font-family="Monaco" font-size="10.00">HydroCouple::IPropertyChanged</text>
<text text-anchor="start" x="101" y="-514.5" font-family="Monaco" font-size="10.00"> </text>
<text text-anchor="start" x="34" y="-499.5" font-family="Monaco" font-size="10.00">+</text>
<text text-anchor="start" x="57.5" y="-499.5" font-family="Monaco" font-size="10.00">~IPropertyChanged()</text>
<polygon fill="#666666" stroke="#666666" points="19.5,-524.5 19.5,-524.5 186.5,-524.5 186.5,-524.5 19.5,-524.5"/>
<polygon fill="#666666" stroke="#666666" points="19.5,-509.5 19.5,-509.5 186.5,-509.5 186.5,-509.5 19.5,-509.5"/>
<polygon fill="none" stroke="#666666" points="19,-493 19,-542 186,-542 186,-493 19,-493"/>
</a>
</g>
</g>
<!-- Node5&#45;&gt;Node4 -->
<g id="edge4_Node000004_Node000005" class="edge">
<title>Node5&#45;&gt;Node4</title>
<g id="a_edge4_Node000004_Node000005"><a xlink:title=" ">
<path fill="none" stroke="#63b8ff" d="M102.5,-482.79C102.5,-474.79 102.5,-466.06 102.5,-457.41"/>
<polygon fill="none" stroke="#63b8ff" points="99,-482.81 102.5,-492.81 106,-482.81 99,-482.81"/>
</a>
</g>
</g>
<!-- Node6 -->
<g id="Node000006" class="node">
<title>Node6</title>
<g id="a_Node000006"><a xlink:href="../../d5/d8b/class_hydro_couple_1_1_i_signal.html" target="_top" xlink:title=" ">
<polygon fill="white" stroke="transparent" points="159,-698 46,-698 46,-578 159,-578 159,-698"/>
<text text-anchor="start" x="51.5" y="-686" font-family="Monaco" font-size="10.00">HydroCouple::ISignal</text>
<text text-anchor="start" x="77.5" y="-675" font-family="Monaco" font-size="10.00">&lt; string &gt;</text>
<text text-anchor="start" x="101" y="-660" font-family="Monaco" font-size="10.00"> </text>
<text text-anchor="start" x="56" y="-645" font-family="Monaco" font-size="10.00">+</text>
<text text-anchor="start" x="74.5" y="-645" font-family="Monaco" font-size="10.00">~ISignal()</text>
<text text-anchor="start" x="56" y="-630" font-family="Monaco" font-size="10.00">+</text>
<text text-anchor="start" x="74.5" y="-630" font-family="Monaco" font-size="10.00">connect()</text>
<text text-anchor="start" x="56" y="-615" font-family="Monaco" font-size="10.00">+</text>
<text text-anchor="start" x="74.5" y="-615" font-family="Monaco" font-size="10.00">disconnect()</text>
<text text-anchor="start" x="56" y="-600" font-family="Monaco" font-size="10.00">+</text>
<text text-anchor="start" x="74.5" y="-600" font-family="Monaco" font-size="10.00">blockSignals()</text>
<text text-anchor="start" x="56" y="-585" font-family="Monaco" font-size="10.00">#</text>
<text text-anchor="start" x="74.5" y="-585" font-family="Monaco" font-size="10.00">emit()</text>
<polygon fill="#666666" stroke="#666666" points="46.5,-670 46.5,-670 159.5,-670 159.5,-670 46.5,-670"/>
<polygon fill="#666666" stroke="#666666" points="46.5,-655 46.5,-655 159.5,-655 159.5,-655 46.5,-655"/>
<polygon fill="none" stroke="#666666" points="46,-578 46,-698 159,-698 159,-578 46,-578"/>
</a>
</g>
</g>
<!-- Node6&#45;&gt;Node5 -->
<g id="edge5_Node000005_Node000006" class="edge">
<title>Node6&#45;&gt;Node5</title>
<g id="a_edge5_Node000005_Node000006"><a xlink:title=" ">
<path fill="none" stroke="#63b8ff" d="M102.5,-567.74C102.5,-558.6 102.5,-549.78 102.5,-542.2"/>
<polygon fill="none" stroke="#63b8ff" points="99,-567.75 102.5,-577.75 106,-567.75 99,-567.75"/>
</a>
</g>
</g>
</g>
</svg>
