<?xml version="1.0" encoding="UTF-8" standalone="no"?>
<!DOCTYPE svg PUBLIC "-//W3C//DTD SVG 1.1//EN"
 "http://www.w3.org/Graphics/SVG/1.1/DTD/svg11.dtd">
<!-- Generated by graphviz version 2.43.0 (0)
 -->
<!-- Title: HydroCouple::SpatioTemporal::ITimeGeometryComponentDataItem Pages: 1 -->
<!--zoomable 921 -->
<svg id="main" version="1.1" xmlns="http://www.w3.org/2000/svg" xmlns:xlink="http://www.w3.org/1999/xlink" xml:space="preserve" onload="init(evt)">
<style type="text/css"><![CDATA[
.edge:hover path { stroke: red; }
.edge:hover polygon { stroke: red; fill: red; }
]]></style>
<script type="text/javascript"><![CDATA[
var edges = document.getElementsByTagName('g');
if (edges && edges.length) {
  for (var i=0;i<edges.length;i++) {
    if (edges[i].id.substr(0,4)=='edge') {
      edges[i].setAttribute('class','edge');
    }
  }
}
]]></script>
        <defs>
                <circle id="rim" cx="0" cy="0" r="7"/>
                <circle id="rim2" cx="0" cy="0" r="3.5"/>
                <g id="zoomPlus">
                        <use xlink:href="#rim" fill="#404040">
                                <set attributeName="fill" to="#808080" begin="zoomplus.mouseover" end="zoomplus.mouseout"/>
                        </use>
                        <path d="M-4,0h8M0,-4v8" fill="none" stroke="white" stroke-width="1.5" pointer-events="none"/>
                </g>
                <g id="zoomMin">
                        <use xlink:href="#rim" fill="#404040">
                                <set attributeName="fill" to="#808080" begin="zoomminus.mouseover" end="zoomminus.mouseout"/>
                        </use>
                        <path d="M-4,0h8" fill="none" stroke="white" stroke-width="1.5" pointer-events="none"/>
                </g>
                <g id="dirArrow">
                        <path fill="none" stroke="white" stroke-width="1.5" d="M0,-3.0v7 M-2.5,-0.5L0,-3.0L2.5,-0.5"/>
                </g>
               <g id="resetDef">
                       <use xlink:href="#rim2" fill="#404040">
                               <set attributeName="fill" to="#808080" begin="reset.mouseover" end="reset.mouseout"/>
                       </use>
               </g>
        </defs>

<script type="text/javascript">
var viewWidth = 209;
var viewHeight = 921;
var sectionId = 'dynsection-0';
</script>
<script xlink:href="../../svgpan.js"/>
<svg id="graph" class="graph">
<g id="viewport">
<title>HydroCouple::SpatioTemporal::ITimeGeometryComponentDataItem</title>
<!-- Node1 -->
<g id="node1" class="node">
<title>Node1</title>
<g id="a_node1"><a xlink:title="ITimeGeometryComponentItem represents an IComponentItem with both temporal and geometric components.">
<polygon fill="#bfbfbf" stroke="black" points="0,-0.5 0,-178.5 201,-178.5 201,-0.5 0,-0.5"/>
<text text-anchor="start" x="8" y="-166.5" font-family="Monaco" font-size="10.00">HydroCouple::SpatioTemporal</text>
<text text-anchor="middle" x="100.5" y="-155.5" font-family="Monaco" font-size="10.00">::ITimeGeometryComponentDataItem</text>
<polyline fill="none" stroke="black" points="0,-148.5 201,-148.5 "/>
<text text-anchor="middle" x="100.5" y="-136.5" font-family="Monaco" font-size="10.00"> </text>
<polyline fill="none" stroke="black" points="0,-129.5 201,-129.5 "/>
<text text-anchor="start" x="8" y="-117.5" font-family="Monaco" font-size="10.00">+ ~ITimeGeometryComponentData</text>
<text text-anchor="start" x="8" y="-106.5" font-family="Monaco" font-size="10.00">Item()</text>
<text text-anchor="start" x="8" y="-95.5" font-family="Monaco" font-size="10.00">+ geometryType()</text>
<text text-anchor="start" x="8" y="-84.5" font-family="Monaco" font-size="10.00">+ geometryCount()</text>
<text text-anchor="start" x="8" y="-73.5" font-family="Monaco" font-size="10.00">+ geometry()</text>
<text text-anchor="start" x="8" y="-62.5" font-family="Monaco" font-size="10.00">+ geometryDimension()</text>
<text text-anchor="start" x="8" y="-51.5" font-family="Monaco" font-size="10.00">+ envelope()</text>
<text text-anchor="start" x="8" y="-40.5" font-family="Monaco" font-size="10.00">+ getValue()</text>
<text text-anchor="start" x="8" y="-29.5" font-family="Monaco" font-size="10.00">+ getValues()</text>
<text text-anchor="start" x="8" y="-18.5" font-family="Monaco" font-size="10.00">+ setValue()</text>
<text text-anchor="start" x="8" y="-7.5" font-family="Monaco" font-size="10.00">+ setValues()</text>
</a>
</g>
</g>
<!-- Node2 -->
<g id="node2" class="node">
<title>Node2</title>
<g id="a_node2"><a xlink:href="../../d9/d05/class_hydro_couple_1_1_temporal_1_1_i_time_component_data_item.html" target="_top" xlink:title="ITimeComponentItem is an IComponentItem with a temporal attribute. This class cannot be directly inst...">
<polygon fill="none" stroke="black" points="14,-215.5 14,-338.5 187,-338.5 187,-215.5 14,-215.5"/>
<text text-anchor="start" x="22" y="-326.5" font-family="Monaco" font-size="10.00">HydroCouple::Temporal</text>
<text text-anchor="middle" x="100.5" y="-315.5" font-family="Monaco" font-size="10.00">::ITimeComponentDataItem</text>
<polyline fill="none" stroke="black" points="14,-308.5 187,-308.5 "/>
<text text-anchor="middle" x="100.5" y="-296.5" font-family="Monaco" font-size="10.00"> </text>
<polyline fill="none" stroke="black" points="14,-289.5 187,-289.5 "/>
<text text-anchor="start" x="22" y="-277.5" font-family="Monaco" font-size="10.00">+ ~ITimeComponentDataItem()</text>
<text text-anchor="start" x="22" y="-266.5" font-family="Monaco" font-size="10.00">+ times()</text>
<text text-anchor="start" x="22" y="-255.5" font-family="Monaco" font-size="10.00">+ time()</text>
<text text-anchor="start" x="22" y="-244.5" font-family="Monaco" font-size="10.00">+ timeCount()</text>
<text text-anchor="start" x="22" y="-233.5" font-family="Monaco" font-size="10.00">+ timeSpan()</text>
<text text-anchor="start" x="22" y="-222.5" font-family="Monaco" font-size="10.00">+ timeDimension()</text>
</a>
</g>
</g>
<!-- Node2&#45;&gt;Node1 -->
<g id="edge1" class="edge">
<title>Node2&#45;&gt;Node1</title>
<path fill="none" stroke="midnightblue" d="M100.5,-205.2C100.5,-196.51 100.5,-187.54 100.5,-178.63"/>
<polygon fill="none" stroke="midnightblue" points="97,-205.26 100.5,-215.26 104,-205.26 97,-205.26"/>
</g>
<!-- Node3 -->
<g id="node3" class="node">
<title>Node3</title>
<g id="a_node3"><a xlink:href="../../d8/d52/class_hydro_couple_1_1_i_component_data_item.html" target="_top" xlink:title="IComponentItem is a fundamental unit of data for a component.">
<polygon fill="none" stroke="black" points="5,-375.5 5,-542.5 196,-542.5 196,-375.5 5,-375.5"/>
<text text-anchor="middle" x="100.5" y="-530.5" font-family="Monaco" font-size="10.00">HydroCouple::IComponentDataItem</text>
<polyline fill="none" stroke="black" points="5,-523.5 196,-523.5 "/>
<text text-anchor="middle" x="100.5" y="-511.5" font-family="Monaco" font-size="10.00"> </text>
<polyline fill="none" stroke="black" points="5,-504.5 196,-504.5 "/>
<text text-anchor="start" x="13" y="-492.5" font-family="Monaco" font-size="10.00">+ ~IComponentDataItem()</text>
<text text-anchor="start" x="13" y="-481.5" font-family="Monaco" font-size="10.00">+ modelComponent()</text>
<text text-anchor="start" x="13" y="-470.5" font-family="Monaco" font-size="10.00">+ dimensions()</text>
<text text-anchor="start" x="13" y="-459.5" font-family="Monaco" font-size="10.00">+ dimensionLength()</text>
<text text-anchor="start" x="13" y="-448.5" font-family="Monaco" font-size="10.00">+ valueDefinition()</text>
<text text-anchor="start" x="13" y="-437.5" font-family="Monaco" font-size="10.00">+ getValue()</text>
<text text-anchor="start" x="13" y="-426.5" font-family="Monaco" font-size="10.00">+ setValue()</text>
<text text-anchor="start" x="13" y="-415.5" font-family="Monaco" font-size="10.00">+ hasEditor()</text>
<text text-anchor="start" x="13" y="-404.5" font-family="Monaco" font-size="10.00">+ showEditor()</text>
<text text-anchor="start" x="13" y="-393.5" font-family="Monaco" font-size="10.00">+ hasViewer()</text>
<text text-anchor="start" x="13" y="-382.5" font-family="Monaco" font-size="10.00">+ showViewer()</text>
</a>
</g>
</g>
<!-- Node3&#45;&gt;Node2 -->
<g id="edge2" class="edge">
<title>Node3&#45;&gt;Node2</title>
<path fill="none" stroke="midnightblue" d="M100.5,-365.19C100.5,-356.17 100.5,-347.19 100.5,-338.61"/>
<polygon fill="none" stroke="midnightblue" points="97,-365.38 100.5,-375.38 104,-365.38 97,-365.38"/>
</g>
<!-- Node4 -->
<g id="node4" class="node">
<title>Node4</title>
<g id="a_node4"><a xlink:href="../../d2/d2a/class_hydro_couple_1_1_i_identity.html" target="_top" xlink:title="IIdentity interface class defines a method to get the Id of an HydroCouple entity.">
<polygon fill="none" stroke="black" points="37.5,-579.5 37.5,-647.5 163.5,-647.5 163.5,-579.5 37.5,-579.5"/>
<text text-anchor="middle" x="100.5" y="-635.5" font-family="Monaco" font-size="10.00">HydroCouple::IIdentity</text>
<polyline fill="none" stroke="black" points="37.5,-628.5 163.5,-628.5 "/>
<text text-anchor="middle" x="100.5" y="-616.5" font-family="Monaco" font-size="10.00"> </text>
<polyline fill="none" stroke="black" points="37.5,-609.5 163.5,-609.5 "/>
<text text-anchor="start" x="45.5" y="-597.5" font-family="Monaco" font-size="10.00">+ ~IIdentity()</text>
<text text-anchor="start" x="45.5" y="-586.5" font-family="Monaco" font-size="10.00">+ id()</text>
</a>
</g>
</g>
<!-- Node4&#45;&gt;Node3 -->
<g id="edge3" class="edge">
<title>Node4&#45;&gt;Node3</title>
<path fill="none" stroke="midnightblue" d="M100.5,-569.23C100.5,-560.88 100.5,-551.89 100.5,-542.76"/>
<polygon fill="none" stroke="midnightblue" points="97,-569.41 100.5,-579.41 104,-569.41 97,-569.41"/>
</g>
<!-- Node5 -->
<g id="node5" class="node">
<title>Node5</title>
<g id="a_node5"><a xlink:href="../../db/d64/class_hydro_couple_1_1_i_description.html" target="_top" xlink:title="IDescription interface class provides descriptive information on a HydroCouple object.">
<polygon fill="none" stroke="black" points="28.5,-684.5 28.5,-785.5 172.5,-785.5 172.5,-684.5 28.5,-684.5"/>
<text text-anchor="middle" x="100.5" y="-773.5" font-family="Monaco" font-size="10.00">HydroCouple::IDescription</text>
<polyline fill="none" stroke="black" points="28.5,-766.5 172.5,-766.5 "/>
<text text-anchor="middle" x="100.5" y="-754.5" font-family="Monaco" font-size="10.00"> </text>
<polyline fill="none" stroke="black" points="28.5,-747.5 172.5,-747.5 "/>
<text text-anchor="start" x="36.5" y="-735.5" font-family="Monaco" font-size="10.00">+ ~IDescription()</text>
<text text-anchor="start" x="36.5" y="-724.5" font-family="Monaco" font-size="10.00">+ caption()</text>
<text text-anchor="start" x="36.5" y="-713.5" font-family="Monaco" font-size="10.00">+ setCaption()</text>
<text text-anchor="start" x="36.5" y="-702.5" font-family="Monaco" font-size="10.00">+ description()</text>
<text text-anchor="start" x="36.5" y="-691.5" font-family="Monaco" font-size="10.00">+ setDescription()</text>
</a>
</g>
</g>
<!-- Node5&#45;&gt;Node4 -->
<g id="edge4" class="edge">
<title>Node5&#45;&gt;Node4</title>
<path fill="none" stroke="midnightblue" d="M100.5,-674.17C100.5,-665.11 100.5,-656.05 100.5,-647.83"/>
<polygon fill="none" stroke="midnightblue" points="97,-674.36 100.5,-684.36 104,-674.36 97,-674.36"/>
</g>
<!-- Node6 -->
<g id="node6" class="node">
<title>Node6</title>
<g id="a_node6"><a xlink:href="../../dd/dbf/class_hydro_couple_1_1_i_property_changed.html" target="_top" xlink:title="IPropertyChanged interface is used to emit signal/event when a property of an object changes.">
<polygon fill="none" stroke="black" points="2.5,-822.5 2.5,-912.5 198.5,-912.5 198.5,-822.5 2.5,-822.5"/>
<text text-anchor="middle" x="100.5" y="-900.5" font-family="Monaco" font-size="10.00">HydroCouple::IPropertyChanged</text>
<polyline fill="none" stroke="black" points="2.5,-893.5 198.5,-893.5 "/>
<text text-anchor="middle" x="100.5" y="-881.5" font-family="Monaco" font-size="10.00"> </text>
<polyline fill="none" stroke="black" points="2.5,-874.5 198.5,-874.5 "/>
<text text-anchor="start" x="10.5" y="-862.5" font-family="Monaco" font-size="10.00">+ ~IPropertyChanged()</text>
<text text-anchor="start" x="10.5" y="-851.5" font-family="Monaco" font-size="10.00">+ registerPropertyChangedListener()</text>
<text text-anchor="start" x="10.5" y="-840.5" font-family="Monaco" font-size="10.00">+ deRegisterPropertyChanged</text>
<text text-anchor="start" x="10.5" y="-829.5" font-family="Monaco" font-size="10.00">Listener()</text>
</a>
</g>
</g>
<!-- Node6&#45;&gt;Node5 -->
<g id="edge5" class="edge">
<title>Node6&#45;&gt;Node5</title>
<path fill="none" stroke="midnightblue" d="M100.5,-812.13C100.5,-803.31 100.5,-794.22 100.5,-785.52"/>
<polygon fill="none" stroke="midnightblue" points="97,-812.32 100.5,-822.32 104,-812.32 97,-812.32"/>
</g>
</g>
</svg>
        <g id="navigator" transform="translate(0 0)" fill="#404254">
                <rect fill="#f2f5e9" fill-opacity="0.5" stroke="#606060" stroke-width=".5" x="0" y="0" width="60" height="60"/>
                <use id="zoomplus" xlink:href="#zoomPlus" x="17" y="9" onmousedown="handleZoom(evt,'in')"/>
                <use id="zoomminus" xlink:href="#zoomMin" x="42" y="9" onmousedown="handleZoom(evt,'out')"/>
                <use id="reset" xlink:href="#resetDef" x="30" y="36" onmousedown="handleReset()"/>
                <g id="arrowUp" xlink:href="#dirArrow" transform="translate(30 24)" onmousedown="handlePan(0,-1)">
                  <use xlink:href="#rim" fill="#404040">
                        <set attributeName="fill" to="#808080" begin="arrowUp.mouseover" end="arrowUp.mouseout"/>
                  </use>
                  <path fill="none" stroke="white" stroke-width="1.5" d="M0,-3.0v7 M-2.5,-0.5L0,-3.0L2.5,-0.5"/>
                </g>
                <g id="arrowRight" xlink:href="#dirArrow" transform="rotate(90) translate(36 -43)" onmousedown="handlePan(1,0)">
                  <use xlink:href="#rim" fill="#404040">
                        <set attributeName="fill" to="#808080" begin="arrowRight.mouseover" end="arrowRight.mouseout"/>
                  </use>
                  <path fill="none" stroke="white" stroke-width="1.5" d="M0,-3.0v7 M-2.5,-0.5L0,-3.0L2.5,-0.5"/>
                </g>
                <g id="arrowDown" xlink:href="#dirArrow" transform="rotate(180) translate(-30 -48)" onmousedown="handlePan(0,1)">
                  <use xlink:href="#rim" fill="#404040">
                        <set attributeName="fill" to="#808080" begin="arrowDown.mouseover" end="arrowDown.mouseout"/>
                  </use>
                  <path fill="none" stroke="white" stroke-width="1.5" d="M0,-3.0v7 M-2.5,-0.5L0,-3.0L2.5,-0.5"/>
                </g>
                <g id="arrowLeft" xlink:href="#dirArrow" transform="rotate(270) translate(-36 17)" onmousedown="handlePan(-1,0)">
                  <use xlink:href="#rim" fill="#404040">
                        <set attributeName="fill" to="#808080" begin="arrowLeft.mouseover" end="arrowLeft.mouseout"/>
                  </use>
                  <path fill="none" stroke="white" stroke-width="1.5" d="M0,-3.0v7 M-2.5,-0.5L0,-3.0L2.5,-0.5"/>
                </g>
        </g>
        <svg viewBox="0 0 15 15" width="100%" height="30px" preserveAspectRatio="xMaxYMin meet">
         <g id="arrow_out" transform="scale(0.3 0.3)">
          <a xlink:href="class_hydro_couple_1_1_spatio_temporal_1_1_i_time_geometry_component_data_item__inherit__graph_org.svg" target="_base">
           <rect id="button" ry="5" rx="5" y="6" x="6" height="38" width="38"
                fill="#f2f5e9" fill-opacity="0.5" stroke="#606060" stroke-width="1.0"/>
           <path id="arrow"
             d="M 11.500037,31.436501 C 11.940474,20.09759 22.043105,11.32322 32.158766,21.979434 L 37.068811,17.246167 C 37.068811,17.246167 37.088388,32 37.088388,32 L 22.160133,31.978069 C 22.160133,31.978069 26.997745,27.140456 26.997745,27.140456 C 18.528582,18.264221 13.291696,25.230495 11.500037,31.436501 z"
             style="fill:#404040;"/>
          </a>
         </g>
        </svg>
</svg>
