<?xml version="1.0" encoding="UTF-8" standalone="no"?>
<!DOCTYPE svg PUBLIC "-//W3C//DTD SVG 1.1//EN"
 "http://www.w3.org/Graphics/SVG/1.1/DTD/svg11.dtd">
<!-- Generated by graphviz version 2.43.0 (0)
 -->
<!-- Title: HydroCouple::Spatial::ISpatialReferenceSystem Pages: 1 -->
<svg width="168pt" height="128pt"
 viewBox="0.00 0.00 168.00 128.00" xmlns="http://www.w3.org/2000/svg" xmlns:xlink="http://www.w3.org/1999/xlink">
<g id="graph0" class="graph" transform="scale(1 1) rotate(0) translate(4 124)">
<title>HydroCouple::Spatial::ISpatialReferenceSystem</title>
<!-- Node1 -->
<g id="Node000001" class="node">
<title>Node1</title>
<g id="a_Node000001"><a xlink:title="Spatial Reference System.">
<polygon fill="#999999" stroke="transparent" points="160,-120 0,-120 0,0 160,0 160,-120"/>
<text text-anchor="start" x="15" y="-108" font-family="Monaco" font-size="10.00">HydroCouple::Spatial</text>
<text text-anchor="start" x="15" y="-97" font-family="Monaco" font-size="10.00">::ISpatialReferenceSystem</text>
<text text-anchor="start" x="78" y="-82" font-family="Monaco" font-size="10.00"> </text>
<text text-anchor="start" x="4" y="-67" font-family="Monaco" font-size="10.00">+</text>
<text text-anchor="start" x="17" y="-67" font-family="Monaco" font-size="10.00">~ISpatialReferenceSystem()</text>
<text text-anchor="start" x="4" y="-52" font-family="Monaco" font-size="10.00">+</text>
<text text-anchor="start" x="17" y="-52" font-family="Monaco" font-size="10.00">authSRID()</text>
<text text-anchor="start" x="4" y="-37" font-family="Monaco" font-size="10.00">+</text>
<text text-anchor="start" x="17" y="-37" font-family="Monaco" font-size="10.00">authName()</text>
<text text-anchor="start" x="4" y="-22" font-family="Monaco" font-size="10.00">+</text>
<text text-anchor="start" x="17" y="-22" font-family="Monaco" font-size="10.00">srText()</text>
<text text-anchor="start" x="4" y="-7" font-family="Monaco" font-size="10.00">+</text>
<text text-anchor="start" x="17" y="-7" font-family="Monaco" font-size="10.00">distanceUnits()</text>
<polygon fill="#666666" stroke="#666666" points="0,-92 0,-92 160,-92 160,-92 0,-92"/>
<polygon fill="#666666" stroke="#666666" points="0,-77 0,-77 160,-77 160,-77 0,-77"/>
<polygon fill="none" stroke="#666666" points="0,0 0,-120 160,-120 160,0 0,0"/>
</a>
</g>
</g>
</g>
</svg>
