<?xml version="1.0" encoding="UTF-8" standalone="no"?>
<!DOCTYPE svg PUBLIC "-//W3C//DTD SVG 1.1//EN"
 "http://www.w3.org/Graphics/SVG/1.1/DTD/svg11.dtd">
<!-- Generated by graphviz version 2.38.0 (20140413.2041)
 -->
<!-- Title: updateStripes Pages: 1 -->
<svg width="226pt" height="70pt"
 viewBox="0.00 0.00 226.02 70.33" xmlns="http://www.w3.org/2000/svg" xmlns:xlink="http://www.w3.org/1999/xlink">
<g id="graph0" class="graph" transform="scale(1 1) rotate(0) translate(4 66.335)">
<title>updateStripes</title>
<!-- Node1 -->
<g id="node1" class="node"><title>Node1</title>
<polygon fill="#bfbfbf" stroke="black" points="0,-20.5 0,-41.835 94.0127,-41.835 94.0127,-20.5 0,-20.5"/>
<text text-anchor="middle" x="47.0063" y="-29.835" font-family="Monaco" font-size="10.00">updateStripes</text>
</g>
<!-- Node2 -->
<g id="node2" class="node"><title>Node2</title>
<g id="a_node2"><a xlink:href="../../d7/dc3/dynsections_8js.html#a19f577cc1ba571396a85bb1f48bf4df2" target="_top" xlink:title="toggleLevel">
<polygon fill="none" stroke="black" points="133.013,-40.5 133.013,-61.835 215.024,-61.835 215.024,-40.5 133.013,-40.5"/>
<text text-anchor="middle" x="174.019" y="-49.835" font-family="Monaco" font-size="10.00">toggleLevel</text>
</a>
</g>
</g>
<!-- Node1&#45;&gt;Node2 -->
<g id="edge1" class="edge"><title>Node1&#45;&gt;Node2</title>
<path fill="none" stroke="midnightblue" d="M104.144,-40.1486C113.794,-41.6925 123.648,-43.269 132.774,-44.7291"/>
<polygon fill="midnightblue" stroke="midnightblue" points="104.628,-36.6817 94.2011,-38.5579 103.523,-43.5938 104.628,-36.6817"/>
</g>
<!-- Node3 -->
<g id="node3" class="node"><title>Node3</title>
<g id="a_node3"><a xlink:href="../../d7/dc3/dynsections_8js.html#af244da4527af2d845dca04f5656376cd" target="_top" xlink:title="toggleFolder">
<polygon fill="none" stroke="black" points="130.013,-0.5 130.013,-21.835 218.024,-21.835 218.024,-0.5 130.013,-0.5"/>
<text text-anchor="middle" x="174.019" y="-9.83496" font-family="Monaco" font-size="10.00">toggleFolder</text>
</a>
</g>
</g>
<!-- Node1&#45;&gt;Node3 -->
<g id="edge2" class="edge"><title>Node1&#45;&gt;Node3</title>
<path fill="none" stroke="midnightblue" d="M104.214,-22.1751C112.842,-20.7949 121.63,-19.3888 129.914,-18.0635"/>
<polygon fill="midnightblue" stroke="midnightblue" points="103.523,-18.7412 94.2011,-23.777 104.628,-25.6533 103.523,-18.7412"/>
</g>
</g>
</svg>
