<?xml version="1.0" encoding="UTF-8" standalone="no"?>
<!DOCTYPE svg PUBLIC "-//W3C//DTD SVG 1.1//EN"
 "http://www.w3.org/Graphics/SVG/1.1/DTD/svg11.dtd">
<!-- Generated by graphviz version 2.38.0 (20140413.2041)
 -->
<!-- Title: toggleLevel Pages: 1 -->
<svg width="220pt" height="110pt"
 viewBox="0.00 0.00 220.02 110.33" xmlns="http://www.w3.org/2000/svg" xmlns:xlink="http://www.w3.org/1999/xlink">
<g id="graph0" class="graph" transform="scale(1 1) rotate(0) translate(4 106.335)">
<title>toggleLevel</title>
<!-- Node1 -->
<g id="node1" class="node"><title>Node1</title>
<polygon fill="#bfbfbf" stroke="black" points="0,-40.5 0,-61.835 82.0107,-61.835 82.0107,-40.5 0,-40.5"/>
<text text-anchor="middle" x="41.0054" y="-49.835" font-family="Monaco" font-size="10.00">toggleLevel</text>
</g>
<!-- Node2 -->
<g id="node2" class="node"><title>Node2</title>
<g id="a_node2"><a xlink:href="../../d5/de7/jquery_8js.html#a871ff39db627c54c710a3e9909b8234c" target="_top" xlink:title="each">
<polygon fill="none" stroke="black" points="145.015,-80.5 145.015,-101.835 185.019,-101.835 185.019,-80.5 145.015,-80.5"/>
<text text-anchor="middle" x="165.017" y="-89.835" font-family="Monaco" font-size="10.00">each</text>
</a>
</g>
</g>
<!-- Node1&#45;&gt;Node2 -->
<g id="edge1" class="edge"><title>Node1&#45;&gt;Node2</title>
<path fill="none" stroke="midnightblue" d="M74.7023,-61.8867C93.5544,-68.0672 117.041,-75.7669 135.197,-81.7193"/>
<polygon fill="midnightblue" stroke="midnightblue" points="134.341,-85.1218 144.934,-84.9113 136.522,-78.4702 134.341,-85.1218"/>
</g>
<!-- Node3 -->
<g id="node3" class="node"><title>Node3</title>
<g id="a_node3"><a xlink:href="../../de/d5f/svgpan_8js.html#aa8d9f2083cafa2af98efafed94901079" target="_top" xlink:title="show">
<polygon fill="none" stroke="black" points="145.015,-40.5 145.015,-61.835 185.019,-61.835 185.019,-40.5 145.015,-40.5"/>
<text text-anchor="middle" x="165.017" y="-49.835" font-family="Monaco" font-size="10.00">show</text>
</a>
</g>
</g>
<!-- Node1&#45;&gt;Node3 -->
<g id="edge2" class="edge"><title>Node1&#45;&gt;Node3</title>
<path fill="none" stroke="midnightblue" d="M82.2947,-51.1675C99.4397,-51.1675 119.062,-51.1675 134.781,-51.1675"/>
<polygon fill="midnightblue" stroke="midnightblue" points="134.961,-54.6676 144.961,-51.1675 134.961,-47.6676 134.961,-54.6676"/>
</g>
<!-- Node4 -->
<g id="node4" class="node"><title>Node4</title>
<g id="a_node4"><a xlink:href="../../d7/dc3/dynsections_8js.html#a8f7493ad859d4fbf2523917511ee7177" target="_top" xlink:title="updateStripes">
<polygon fill="none" stroke="black" points="118.011,-0.5 118.011,-21.835 212.023,-21.835 212.023,-0.5 118.011,-0.5"/>
<text text-anchor="middle" x="165.017" y="-9.83496" font-family="Monaco" font-size="10.00">updateStripes</text>
</a>
</g>
</g>
<!-- Node1&#45;&gt;Node4 -->
<g id="edge3" class="edge"><title>Node1&#45;&gt;Node4</title>
<path fill="none" stroke="midnightblue" d="M74.7023,-40.4482C89.0626,-35.7404 106.112,-30.1509 121.446,-25.1238"/>
<polygon fill="midnightblue" stroke="midnightblue" points="122.818,-28.3575 131.23,-21.9163 120.637,-21.7058 122.818,-28.3575"/>
</g>
</g>
</svg>
