<?xml version="1.0" encoding="UTF-8" standalone="no"?>
<!DOCTYPE svg PUBLIC "-//W3C//DTD SVG 1.1//EN"
 "http://www.w3.org/Graphics/SVG/1.1/DTD/svg11.dtd">
<!-- Generated by graphviz version 2.43.0 (0)
 -->
<!-- Title: HydroCouple::IExchangeItem Pages: 1 -->
<!--zoomable 1240 -->

<svg id="main" version="1.1" xmlns="http://www.w3.org/2000/svg" xmlns:xlink="http://www.w3.org/1999/xlink" xml:space="preserve" onload="init(evt)">
<style type="text/css"><![CDATA[
.node, .edge {opacity: 0.7;}
.node.selected, .edge.selected {opacity: 1;}
.edge:hover path { stroke: red; }
.edge:hover polygon { stroke: red; fill: red; }
]]></style>

<defs>
  <circle id="rim" cx="0" cy="0" r="7"/>
  <circle id="rim2" cx="0" cy="0" r="3.5"/>
  <g id="zoomPlus">
    <use xlink:href="#rim" fill="#404040"><set attributeName="fill" to="#808080" begin="zoomplus.mouseover" end="zoomplus.mouseout"/></use>
    <path d="M-4,0h8M0,-4v8" fill="none" stroke="white" stroke-width="1.5" pointer-events="none"/>
  </g>
  <g id="zoomMin">
    <use xlink:href="#rim" fill="#404040"><set attributeName="fill" to="#808080" begin="zoomminus.mouseover" end="zoomminus.mouseout"/></use>
    <path d="M-4,0h8" fill="none" stroke="white" stroke-width="1.5" pointer-events="none"/>
  </g>
  <g id="arrowUp" transform="translate(30 24)">
    <use xlink:href="#rim"/>
    <path pointer-events="none" fill="none" stroke="white" stroke-width="1.5" d="M0,-3.0v7 M-2.5,-0.5L0,-3.0L2.5,-0.5"/>
  </g>
  <g id="arrowRight" transform="rotate(90) translate(36 -43)">
    <use xlink:href="#rim"/>
    <path pointer-events="none" fill="none" stroke="white" stroke-width="1.5" d="M0,-3.0v7 M-2.5,-0.5L0,-3.0L2.5,-0.5"/>
  </g>
  <g id="arrowDown" transform="rotate(180) translate(-30 -48)">
    <use xlink:href="#rim"/>
    <path pointer-events="none" fill="none" stroke="white" stroke-width="1.5" d="M0,-3.0v7 M-2.5,-0.5L0,-3.0L2.5,-0.5"/>
  </g>
  <g id="arrowLeft" transform="rotate(270) translate(-36 17)">
    <use xlink:href="#rim"/>
    <path pointer-events="none" fill="none" stroke="white" stroke-width="1.5" d="M0,-3.0v7 M-2.5,-0.5L0,-3.0L2.5,-0.5"/>
  </g>
  <g id="resetDef">
    <use xlink:href="#rim2" fill="#404040"><set attributeName="fill" to="#808080" begin="reset.mouseover" end="reset.mouseout"/></use>
  </g>
</defs>
<script type="application/ecmascript">
var viewWidth = 343;
var viewHeight = 1240;
var sectionId = 'dynsection-0';
</script>
<script type="application/ecmascript" xlink:href="../../svg.min.js"/>
<svg id="graph" class="graph">
<g id="viewport">
<title>HydroCouple::IExchangeItem</title>
<!-- Node1 -->
<g id="Node000001" class="node">
<title>Node1</title>
<g id="a_Node000001"><a xlink:title="IExchangeItem the base data item the can be exchanged between components at runtime.">
<polygon fill="#999999" stroke="transparent" points="241.5,-414 89.5,-414 89.5,-365 241.5,-365 241.5,-414"/>
<text text-anchor="start" x="94.5" y="-401.5" font-family="Monaco" font-size="10.00">HydroCouple::IExchangeItem</text>
<text text-anchor="start" x="163.5" y="-386.5" font-family="Monaco" font-size="10.00"> </text>
<text text-anchor="start" x="104" y="-371.5" font-family="Monaco" font-size="10.00">+</text>
<text text-anchor="start" x="127.5" y="-371.5" font-family="Monaco" font-size="10.00">~IExchangeItem()</text>
<polygon fill="#666666" stroke="#666666" points="89.5,-396.5 89.5,-396.5 241.5,-396.5 241.5,-396.5 89.5,-396.5"/>
<polygon fill="#666666" stroke="#666666" points="89.5,-381.5 89.5,-381.5 241.5,-381.5 241.5,-381.5 89.5,-381.5"/>
<polygon fill="none" stroke="#666666" points="89.5,-365 89.5,-414 241.5,-414 241.5,-365 89.5,-365"/>
</a>
</g>
</g>
<!-- Node8 -->
<g id="Node000008" class="node">
<title>Node8</title>
<g id="a_Node000008"><a xlink:href="../../dd/dc3/class_hydro_couple_1_1_i_input.html" target="_top" xlink:title="An IInput item that can accept values for an IModelComponent.">
<polygon fill="white" stroke="transparent" points="148,-299 41,-299 41,-205 148,-205 148,-299"/>
<text text-anchor="start" x="46.5" y="-287" font-family="Monaco" font-size="10.00">HydroCouple::IInput</text>
<text text-anchor="start" x="93" y="-272" font-family="Monaco" font-size="10.00"> </text>
<text text-anchor="start" x="49" y="-257" font-family="Monaco" font-size="10.00">+</text>
<text text-anchor="start" x="65.5" y="-257" font-family="Monaco" font-size="10.00">~IInput()</text>
<text text-anchor="start" x="49" y="-242" font-family="Monaco" font-size="10.00">+</text>
<text text-anchor="start" x="65.5" y="-242" font-family="Monaco" font-size="10.00">provider()</text>
<text text-anchor="start" x="49" y="-227" font-family="Monaco" font-size="10.00">+</text>
<text text-anchor="start" x="65.5" y="-227" font-family="Monaco" font-size="10.00">setProvider()</text>
<text text-anchor="start" x="49" y="-212" font-family="Monaco" font-size="10.00">+</text>
<text text-anchor="start" x="65.5" y="-212" font-family="Monaco" font-size="10.00">canConsume()</text>
<polygon fill="#666666" stroke="#666666" points="41.5,-282 41.5,-282 148.5,-282 148.5,-282 41.5,-282"/>
<polygon fill="#666666" stroke="#666666" points="41.5,-267 41.5,-267 148.5,-267 148.5,-267 41.5,-267"/>
<polygon fill="none" stroke="#666666" points="41,-205 41,-299 148,-299 148,-205 41,-205"/>
</a>
</g>
</g>
<!-- Node1&#45;&gt;Node8 -->
<g id="edge7_Node000001_Node000008" class="edge">
<title>Node1&#45;&gt;Node8</title>
<g id="a_edge7_Node000001_Node000008"><a xlink:title=" ">
<path fill="none" stroke="#63b8ff" d="M148.42,-355.9C139.49,-338.86 128.42,-317.73 118.63,-299.06"/>
<polygon fill="none" stroke="#63b8ff" points="145.39,-357.66 153.13,-364.9 151.59,-354.42 145.39,-357.66"/>
</a>
</g>
</g>
<!-- Node10 -->
<g id="Node000010" class="node">
<title>Node10</title>
<g id="a_Node000010"><a xlink:href="../../da/dbd/class_hydro_couple_1_1_i_output.html" target="_top" xlink:title="An output exchange item that can deliver values from an IModelComponent.">
<polygon fill="white" stroke="transparent" points="311.5,-329 171.5,-329 171.5,-175 311.5,-175 311.5,-329"/>
<text text-anchor="start" x="188.5" y="-317" font-family="Monaco" font-size="10.00">HydroCouple::IOutput</text>
<text text-anchor="start" x="239.5" y="-302" font-family="Monaco" font-size="10.00"> </text>
<text text-anchor="start" x="175.5" y="-287" font-family="Monaco" font-size="10.00">+</text>
<text text-anchor="start" x="188.5" y="-287" font-family="Monaco" font-size="10.00">~IOutput()</text>
<text text-anchor="start" x="175.5" y="-272" font-family="Monaco" font-size="10.00">+</text>
<text text-anchor="start" x="188.5" y="-272" font-family="Monaco" font-size="10.00">consumers()</text>
<text text-anchor="start" x="175.5" y="-257" font-family="Monaco" font-size="10.00">+</text>
<text text-anchor="start" x="188.5" y="-257" font-family="Monaco" font-size="10.00">addConsumer()</text>
<text text-anchor="start" x="175.5" y="-242" font-family="Monaco" font-size="10.00">+</text>
<text text-anchor="start" x="188.5" y="-242" font-family="Monaco" font-size="10.00">removeConsumer()</text>
<text text-anchor="start" x="175.5" y="-227" font-family="Monaco" font-size="10.00">+</text>
<text text-anchor="start" x="188.5" y="-227" font-family="Monaco" font-size="10.00">adaptedOutputs()</text>
<text text-anchor="start" x="175.5" y="-212" font-family="Monaco" font-size="10.00">+</text>
<text text-anchor="start" x="188.5" y="-212" font-family="Monaco" font-size="10.00">addAdaptedOutput()</text>
<text text-anchor="start" x="175.5" y="-197" font-family="Monaco" font-size="10.00">+</text>
<text text-anchor="start" x="188.5" y="-197" font-family="Monaco" font-size="10.00">removeAdaptedOutput()</text>
<text text-anchor="start" x="175.5" y="-182" font-family="Monaco" font-size="10.00">+</text>
<text text-anchor="start" x="188.5" y="-182" font-family="Monaco" font-size="10.00">updateValues()</text>
<polygon fill="#666666" stroke="#666666" points="171.5,-312 171.5,-312 311.5,-312 311.5,-312 171.5,-312"/>
<polygon fill="#666666" stroke="#666666" points="171.5,-297 171.5,-297 311.5,-297 311.5,-297 171.5,-297"/>
<polygon fill="none" stroke="#666666" points="171.5,-175 171.5,-329 311.5,-329 311.5,-175 171.5,-175"/>
</a>
</g>
</g>
<!-- Node1&#45;&gt;Node10 -->
<g id="edge9_Node000001_Node000010" class="edge">
<title>Node1&#45;&gt;Node10</title>
<g id="a_edge9_Node000001_Node000010"><a xlink:title=" ">
<path fill="none" stroke="#63b8ff" d="M183.72,-356.01C188.37,-347.73 193.56,-338.48 198.87,-329.01"/>
<polygon fill="none" stroke="#63b8ff" points="180.58,-354.46 178.74,-364.9 186.68,-357.89 180.58,-354.46"/>
</a>
</g>
</g>
<!-- Node2 -->
<g id="Node000002" class="node">
<title>Node2</title>
<g id="a_Node000002"><a xlink:href="../../d8/d52/class_hydro_couple_1_1_i_component_data_item.html" target="_top" xlink:title="IComponentItem is a fundamental unit of data for a component.">
<polygon fill="white" stroke="transparent" points="258,-679 73,-679 73,-450 258,-450 258,-679"/>
<text text-anchor="start" x="78.5" y="-666.5" font-family="Monaco" font-size="10.00">HydroCouple::IComponentDataItem</text>
<text text-anchor="start" x="164" y="-651.5" font-family="Monaco" font-size="10.00"> </text>
<text text-anchor="start" x="88" y="-636.5" font-family="Monaco" font-size="10.00">+</text>
<text text-anchor="start" x="111.5" y="-636.5" font-family="Monaco" font-size="10.00">~IComponentDataItem()</text>
<text text-anchor="start" x="88" y="-621.5" font-family="Monaco" font-size="10.00">+</text>
<text text-anchor="start" x="111.5" y="-621.5" font-family="Monaco" font-size="10.00">modelComponent()</text>
<text text-anchor="start" x="88" y="-606.5" font-family="Monaco" font-size="10.00">+</text>
<text text-anchor="start" x="111.5" y="-606.5" font-family="Monaco" font-size="10.00">dimensions()</text>
<text text-anchor="start" x="88" y="-591.5" font-family="Monaco" font-size="10.00">+</text>
<text text-anchor="start" x="111.5" y="-591.5" font-family="Monaco" font-size="10.00">dimensionLength()</text>
<text text-anchor="start" x="88" y="-576.5" font-family="Monaco" font-size="10.00">+</text>
<text text-anchor="start" x="111.5" y="-576.5" font-family="Monaco" font-size="10.00">valueDefinition()</text>
<text text-anchor="start" x="88" y="-561.5" font-family="Monaco" font-size="10.00">+</text>
<text text-anchor="start" x="111.5" y="-561.5" font-family="Monaco" font-size="10.00">getValue()</text>
<text text-anchor="start" x="88" y="-546.5" font-family="Monaco" font-size="10.00">+</text>
<text text-anchor="start" x="111.5" y="-546.5" font-family="Monaco" font-size="10.00">getValues()</text>
<text text-anchor="start" x="88" y="-531.5" font-family="Monaco" font-size="10.00">+</text>
<text text-anchor="start" x="111.5" y="-531.5" font-family="Monaco" font-size="10.00">setValue()</text>
<text text-anchor="start" x="88" y="-516.5" font-family="Monaco" font-size="10.00">+</text>
<text text-anchor="start" x="111.5" y="-516.5" font-family="Monaco" font-size="10.00">setValues()</text>
<text text-anchor="start" x="88" y="-501.5" font-family="Monaco" font-size="10.00">+</text>
<text text-anchor="start" x="111.5" y="-501.5" font-family="Monaco" font-size="10.00">hasEditor()</text>
<text text-anchor="start" x="88" y="-486.5" font-family="Monaco" font-size="10.00">+</text>
<text text-anchor="start" x="111.5" y="-486.5" font-family="Monaco" font-size="10.00">showEditor()</text>
<text text-anchor="start" x="88" y="-471.5" font-family="Monaco" font-size="10.00">+</text>
<text text-anchor="start" x="111.5" y="-471.5" font-family="Monaco" font-size="10.00">hasViewer()</text>
<text text-anchor="start" x="88" y="-456.5" font-family="Monaco" font-size="10.00">+</text>
<text text-anchor="start" x="111.5" y="-456.5" font-family="Monaco" font-size="10.00">showViewer()</text>
<polygon fill="#666666" stroke="#666666" points="73.5,-661.5 73.5,-661.5 258.5,-661.5 258.5,-661.5 73.5,-661.5"/>
<polygon fill="#666666" stroke="#666666" points="73.5,-646.5 73.5,-646.5 258.5,-646.5 258.5,-646.5 73.5,-646.5"/>
<polygon fill="none" stroke="#666666" points="73,-450 73,-679 258,-679 258,-450 73,-450"/>
</a>
</g>
</g>
<!-- Node2&#45;&gt;Node1 -->
<g id="edge1_Node000001_Node000002" class="edge">
<title>Node2&#45;&gt;Node1</title>
<g id="a_edge1_Node000001_Node000002"><a xlink:title=" ">
<path fill="none" stroke="#63b8ff" d="M165.5,-439.49C165.5,-430.07 165.5,-421.39 165.5,-414.03"/>
<polygon fill="none" stroke="#63b8ff" points="162,-439.55 165.5,-449.55 169,-439.55 162,-439.55"/>
</a>
</g>
</g>
<!-- Node3 -->
<g id="Node000003" class="node">
<title>Node3</title>
<g id="a_Node000003"><a xlink:href="../../d2/d2a/class_hydro_couple_1_1_i_identity.html" target="_top" xlink:title="IIdentity interface class defines a method to get the Id of an HydroCouple entity.">
<polygon fill="white" stroke="transparent" points="143.5,-812.5 23.5,-812.5 23.5,-748.5 143.5,-748.5 143.5,-812.5"/>
<text text-anchor="start" x="28.5" y="-800.5" font-family="Monaco" font-size="10.00">HydroCouple::IIdentity</text>
<text text-anchor="start" x="81.5" y="-785.5" font-family="Monaco" font-size="10.00"> </text>
<text text-anchor="start" x="38" y="-770.5" font-family="Monaco" font-size="10.00">+</text>
<text text-anchor="start" x="61.5" y="-770.5" font-family="Monaco" font-size="10.00">~IIdentity()</text>
<text text-anchor="start" x="38" y="-755.5" font-family="Monaco" font-size="10.00">+</text>
<text text-anchor="start" x="61.5" y="-755.5" font-family="Monaco" font-size="10.00">id()</text>
<polygon fill="#666666" stroke="#666666" points="23.5,-795.5 23.5,-795.5 143.5,-795.5 143.5,-795.5 23.5,-795.5"/>
<polygon fill="#666666" stroke="#666666" points="23.5,-780.5 23.5,-780.5 143.5,-780.5 143.5,-780.5 23.5,-780.5"/>
<polygon fill="none" stroke="#666666" points="23.5,-748.5 23.5,-812.5 143.5,-812.5 143.5,-748.5 23.5,-748.5"/>
</a>
</g>
</g>
<!-- Node3&#45;&gt;Node2 -->
<g id="edge2_Node000002_Node000003" class="edge">
<title>Node3&#45;&gt;Node2</title>
<g id="a_edge2_Node000002_Node000003"><a xlink:title=" ">
<path fill="none" stroke="#63b8ff" d="M99.13,-738.71C105.72,-721.5 113.76,-700.52 121.94,-679.19"/>
<polygon fill="none" stroke="#63b8ff" points="95.73,-737.79 95.42,-748.38 102.27,-740.3 95.73,-737.79"/>
</a>
</g>
</g>
<!-- Node4 -->
<g id="Node000004" class="node">
<title>Node4</title>
<g id="a_Node000004"><a xlink:href="../../db/d64/class_hydro_couple_1_1_i_description.html" target="_top" xlink:title="IDescription interface class provides descriptive information on a HydroCouple object.">
<polygon fill="white" stroke="transparent" points="152.5,-991 14.5,-991 14.5,-882 152.5,-882 152.5,-991"/>
<text text-anchor="start" x="19.5" y="-978.5" font-family="Monaco" font-size="10.00">HydroCouple::IDescription</text>
<text text-anchor="start" x="81.5" y="-963.5" font-family="Monaco" font-size="10.00"> </text>
<text text-anchor="start" x="28" y="-948.5" font-family="Monaco" font-size="10.00">+</text>
<text text-anchor="start" x="50.5" y="-948.5" font-family="Monaco" font-size="10.00">~IDescription()</text>
<text text-anchor="start" x="28" y="-933.5" font-family="Monaco" font-size="10.00">+</text>
<text text-anchor="start" x="50.5" y="-933.5" font-family="Monaco" font-size="10.00">caption()</text>
<text text-anchor="start" x="28" y="-918.5" font-family="Monaco" font-size="10.00">+</text>
<text text-anchor="start" x="50.5" y="-918.5" font-family="Monaco" font-size="10.00">setCaption()</text>
<text text-anchor="start" x="28" y="-903.5" font-family="Monaco" font-size="10.00">+</text>
<text text-anchor="start" x="50.5" y="-903.5" font-family="Monaco" font-size="10.00">description()</text>
<text text-anchor="start" x="28" y="-888.5" font-family="Monaco" font-size="10.00">+</text>
<text text-anchor="start" x="50.5" y="-888.5" font-family="Monaco" font-size="10.00">setDescription()</text>
<polygon fill="#666666" stroke="#666666" points="14.5,-973.5 14.5,-973.5 152.5,-973.5 152.5,-973.5 14.5,-973.5"/>
<polygon fill="#666666" stroke="#666666" points="14.5,-958.5 14.5,-958.5 152.5,-958.5 152.5,-958.5 14.5,-958.5"/>
<polygon fill="none" stroke="#666666" points="14.5,-882 14.5,-991 152.5,-991 152.5,-882 14.5,-882"/>
</a>
</g>
</g>
<!-- Node4&#45;&gt;Node3 -->
<g id="edge3_Node000003_Node000004" class="edge">
<title>Node4&#45;&gt;Node3</title>
<g id="a_edge3_Node000003_Node000004"><a xlink:title=" ">
<path fill="none" stroke="#63b8ff" d="M83.5,-871.47C83.5,-851.15 83.5,-829.58 83.5,-812.66"/>
<polygon fill="none" stroke="#63b8ff" points="80,-871.64 83.5,-881.64 87,-871.64 80,-871.64"/>
</a>
</g>
</g>
<!-- Node5 -->
<g id="Node000005" class="node">
<title>Node5</title>
<g id="a_Node000005"><a xlink:href="../../dd/dbf/class_hydro_couple_1_1_i_property_changed.html" target="_top" xlink:title="IPropertyChanged interface is used to emit signal/event when a property of an object changes.">
<polygon fill="white" stroke="transparent" points="167,-1076 0,-1076 0,-1027 167,-1027 167,-1076"/>
<text text-anchor="start" x="5.5" y="-1063.5" font-family="Monaco" font-size="10.00">HydroCouple::IPropertyChanged</text>
<text text-anchor="start" x="82" y="-1048.5" font-family="Monaco" font-size="10.00"> </text>
<text text-anchor="start" x="15" y="-1033.5" font-family="Monaco" font-size="10.00">+</text>
<text text-anchor="start" x="38.5" y="-1033.5" font-family="Monaco" font-size="10.00">~IPropertyChanged()</text>
<polygon fill="#666666" stroke="#666666" points="0.5,-1058.5 0.5,-1058.5 167.5,-1058.5 167.5,-1058.5 0.5,-1058.5"/>
<polygon fill="#666666" stroke="#666666" points="0.5,-1043.5 0.5,-1043.5 167.5,-1043.5 167.5,-1043.5 0.5,-1043.5"/>
<polygon fill="none" stroke="#666666" points="0,-1027 0,-1076 167,-1076 167,-1027 0,-1027"/>
</a>
</g>
</g>
<!-- Node5&#45;&gt;Node4 -->
<g id="edge4_Node000004_Node000005" class="edge">
<title>Node5&#45;&gt;Node4</title>
<g id="a_edge4_Node000004_Node000005"><a xlink:title=" ">
<path fill="none" stroke="#63b8ff" d="M83.5,-1016.79C83.5,-1008.79 83.5,-1000.06 83.5,-991.41"/>
<polygon fill="none" stroke="#63b8ff" points="80,-1016.81 83.5,-1026.81 87,-1016.81 80,-1016.81"/>
</a>
</g>
</g>
<!-- Node6 -->
<g id="Node000006" class="node">
<title>Node6</title>
<g id="a_Node000006"><a xlink:href="../../d5/d8b/class_hydro_couple_1_1_i_signal.html" target="_top" xlink:title=" ">
<polygon fill="white" stroke="transparent" points="140,-1232 27,-1232 27,-1112 140,-1112 140,-1232"/>
<text text-anchor="start" x="32.5" y="-1220" font-family="Monaco" font-size="10.00">HydroCouple::ISignal</text>
<text text-anchor="start" x="58.5" y="-1209" font-family="Monaco" font-size="10.00">&lt; string &gt;</text>
<text text-anchor="start" x="82" y="-1194" font-family="Monaco" font-size="10.00"> </text>
<text text-anchor="start" x="37" y="-1179" font-family="Monaco" font-size="10.00">+</text>
<text text-anchor="start" x="55.5" y="-1179" font-family="Monaco" font-size="10.00">~ISignal()</text>
<text text-anchor="start" x="37" y="-1164" font-family="Monaco" font-size="10.00">+</text>
<text text-anchor="start" x="55.5" y="-1164" font-family="Monaco" font-size="10.00">connect()</text>
<text text-anchor="start" x="37" y="-1149" font-family="Monaco" font-size="10.00">+</text>
<text text-anchor="start" x="55.5" y="-1149" font-family="Monaco" font-size="10.00">disconnect()</text>
<text text-anchor="start" x="37" y="-1134" font-family="Monaco" font-size="10.00">+</text>
<text text-anchor="start" x="55.5" y="-1134" font-family="Monaco" font-size="10.00">blockSignals()</text>
<text text-anchor="start" x="37" y="-1119" font-family="Monaco" font-size="10.00">#</text>
<text text-anchor="start" x="55.5" y="-1119" font-family="Monaco" font-size="10.00">emit()</text>
<polygon fill="#666666" stroke="#666666" points="27.5,-1204 27.5,-1204 140.5,-1204 140.5,-1204 27.5,-1204"/>
<polygon fill="#666666" stroke="#666666" points="27.5,-1189 27.5,-1189 140.5,-1189 140.5,-1189 27.5,-1189"/>
<polygon fill="none" stroke="#666666" points="27,-1112 27,-1232 140,-1232 140,-1112 27,-1112"/>
</a>
</g>
</g>
<!-- Node6&#45;&gt;Node5 -->
<g id="edge5_Node000005_Node000006" class="edge">
<title>Node6&#45;&gt;Node5</title>
<g id="a_edge5_Node000005_Node000006"><a xlink:title=" ">
<path fill="none" stroke="#63b8ff" d="M83.5,-1101.74C83.5,-1092.6 83.5,-1083.78 83.5,-1076.2"/>
<polygon fill="none" stroke="#63b8ff" points="80,-1101.75 83.5,-1111.75 87,-1101.75 80,-1101.75"/>
</a>
</g>
</g>
<!-- Node7 -->
<g id="Node000007" class="node">
<title>Node7</title>
<g id="a_Node000007"><a xlink:href="../../d5/d8b/class_hydro_couple_1_1_i_signal.html" target="_top" xlink:title=" ">
<polygon fill="white" stroke="transparent" points="335,-846 162,-846 162,-715 335,-715 335,-846"/>
<text text-anchor="start" x="167.5" y="-833.5" font-family="Monaco" font-size="10.00">HydroCouple::ISignal</text>
<text text-anchor="start" x="167.5" y="-822.5" font-family="Monaco" font-size="10.00">&lt; const shared_ptr&lt; IComponent</text>
<text text-anchor="start" x="174.5" y="-811.5" font-family="Monaco" font-size="10.00">DataItemValueChanged &gt; &amp; &gt;</text>
<text text-anchor="start" x="247" y="-796.5" font-family="Monaco" font-size="10.00"> </text>
<text text-anchor="start" x="187" y="-781.5" font-family="Monaco" font-size="10.00">+</text>
<text text-anchor="start" x="220.5" y="-781.5" font-family="Monaco" font-size="10.00">~ISignal()</text>
<text text-anchor="start" x="187" y="-766.5" font-family="Monaco" font-size="10.00">+</text>
<text text-anchor="start" x="220.5" y="-766.5" font-family="Monaco" font-size="10.00">connect()</text>
<text text-anchor="start" x="187" y="-751.5" font-family="Monaco" font-size="10.00">+</text>
<text text-anchor="start" x="220.5" y="-751.5" font-family="Monaco" font-size="10.00">disconnect()</text>
<text text-anchor="start" x="187" y="-736.5" font-family="Monaco" font-size="10.00">+</text>
<text text-anchor="start" x="220.5" y="-736.5" font-family="Monaco" font-size="10.00">blockSignals()</text>
<text text-anchor="start" x="187" y="-721.5" font-family="Monaco" font-size="10.00">#</text>
<text text-anchor="start" x="220.5" y="-721.5" font-family="Monaco" font-size="10.00">emit()</text>
<polygon fill="#666666" stroke="#666666" points="162.5,-806.5 162.5,-806.5 335.5,-806.5 335.5,-806.5 162.5,-806.5"/>
<polygon fill="#666666" stroke="#666666" points="162.5,-791.5 162.5,-791.5 335.5,-791.5 335.5,-791.5 162.5,-791.5"/>
<polygon fill="none" stroke="#666666" points="162,-715 162,-846 335,-846 335,-715 162,-715"/>
</a>
</g>
</g>
<!-- Node7&#45;&gt;Node2 -->
<g id="edge6_Node000002_Node000007" class="edge">
<title>Node7&#45;&gt;Node2</title>
<g id="a_edge6_Node000002_Node000007"><a xlink:title=" ">
<path fill="none" stroke="#63b8ff" d="M219.71,-705.27C216.42,-696.79 213.01,-687.99 209.58,-679.14"/>
<polygon fill="none" stroke="#63b8ff" points="216.49,-706.65 223.37,-714.71 223.02,-704.12 216.49,-706.65"/>
</a>
</g>
</g>
<!-- Node9 -->
<g id="Node000009" class="node">
<title>Node9</title>
<g id="a_Node000009"><a xlink:href="../../d8/dfd/class_hydro_couple_1_1_i_multi_input.html" target="_top" xlink:title="The IMultiInput class is an IInput class that has multiple outputs supplying data to it.">
<polygon fill="white" stroke="transparent" points="150.5,-139 18.5,-139 18.5,0 150.5,0 150.5,-139"/>
<text text-anchor="start" x="23.5" y="-126.5" font-family="Monaco" font-size="10.00">HydroCouple::IMultiInput</text>
<text text-anchor="start" x="82.5" y="-111.5" font-family="Monaco" font-size="10.00"> </text>
<text text-anchor="start" x="25" y="-96.5" font-family="Monaco" font-size="10.00">+</text>
<text text-anchor="start" x="40.5" y="-96.5" font-family="Monaco" font-size="10.00">~IMultiInput()</text>
<text text-anchor="start" x="25" y="-81.5" font-family="Monaco" font-size="10.00">+</text>
<text text-anchor="start" x="40.5" y="-81.5" font-family="Monaco" font-size="10.00">providerLabels()</text>
<text text-anchor="start" x="25" y="-66.5" font-family="Monaco" font-size="10.00">+</text>
<text text-anchor="start" x="40.5" y="-66.5" font-family="Monaco" font-size="10.00">isRequiredProvider()</text>
<text text-anchor="start" x="25" y="-51.5" font-family="Monaco" font-size="10.00">+</text>
<text text-anchor="start" x="40.5" y="-51.5" font-family="Monaco" font-size="10.00">providers()</text>
<text text-anchor="start" x="25" y="-36.5" font-family="Monaco" font-size="10.00">+</text>
<text text-anchor="start" x="40.5" y="-36.5" font-family="Monaco" font-size="10.00">canConsume()</text>
<text text-anchor="start" x="25" y="-21.5" font-family="Monaco" font-size="10.00">+</text>
<text text-anchor="start" x="40.5" y="-21.5" font-family="Monaco" font-size="10.00">addProvider()</text>
<text text-anchor="start" x="25" y="-6.5" font-family="Monaco" font-size="10.00">+</text>
<text text-anchor="start" x="40.5" y="-6.5" font-family="Monaco" font-size="10.00">removeProvider()</text>
<polygon fill="#666666" stroke="#666666" points="18.5,-121.5 18.5,-121.5 150.5,-121.5 150.5,-121.5 18.5,-121.5"/>
<polygon fill="#666666" stroke="#666666" points="18.5,-106.5 18.5,-106.5 150.5,-106.5 150.5,-106.5 18.5,-106.5"/>
<polygon fill="none" stroke="#666666" points="18.5,0 18.5,-139 150.5,-139 150.5,0 18.5,0"/>
</a>
</g>
</g>
<!-- Node8&#45;&gt;Node9 -->
<g id="edge8_Node000008_Node000009" class="edge">
<title>Node8&#45;&gt;Node9</title>
<g id="a_edge8_Node000008_Node000009"><a xlink:title=" ">
<path fill="none" stroke="#63b8ff" d="M91.39,-194.88C90.42,-177.28 89.33,-157.65 88.31,-139.28"/>
<polygon fill="none" stroke="#63b8ff" points="87.9,-195.19 91.95,-204.99 94.89,-194.81 87.9,-195.19"/>
</a>
</g>
</g>
<!-- Node11 -->
<g id="Node000011" class="node">
<title>Node11</title>
<g id="a_Node000011"><a xlink:href="../../d6/d04/class_hydro_couple_1_1_i_adapted_output.html" target="_top" xlink:title="An IAdaptedOutput adds one or more data operations on top of an IOutput.">
<polygon fill="white" stroke="transparent" points="324.5,-131.5 168.5,-131.5 168.5,-7.5 324.5,-7.5 324.5,-131.5"/>
<text text-anchor="start" x="173.5" y="-119.5" font-family="Monaco" font-size="10.00">HydroCouple::IAdaptedOutput</text>
<text text-anchor="start" x="244.5" y="-104.5" font-family="Monaco" font-size="10.00"> </text>
<text text-anchor="start" x="177" y="-89.5" font-family="Monaco" font-size="10.00">+</text>
<text text-anchor="start" x="194.5" y="-89.5" font-family="Monaco" font-size="10.00">~IAdaptedOutput()</text>
<text text-anchor="start" x="177" y="-74.5" font-family="Monaco" font-size="10.00">+</text>
<text text-anchor="start" x="194.5" y="-74.5" font-family="Monaco" font-size="10.00">adaptedOutputFactory()</text>
<text text-anchor="start" x="177" y="-59.5" font-family="Monaco" font-size="10.00">+</text>
<text text-anchor="start" x="194.5" y="-59.5" font-family="Monaco" font-size="10.00">arguments()</text>
<text text-anchor="start" x="177" y="-44.5" font-family="Monaco" font-size="10.00">+</text>
<text text-anchor="start" x="194.5" y="-44.5" font-family="Monaco" font-size="10.00">initialize()</text>
<text text-anchor="start" x="177" y="-29.5" font-family="Monaco" font-size="10.00">+</text>
<text text-anchor="start" x="194.5" y="-29.5" font-family="Monaco" font-size="10.00">adaptee()</text>
<text text-anchor="start" x="177" y="-14.5" font-family="Monaco" font-size="10.00">+</text>
<text text-anchor="start" x="194.5" y="-14.5" font-family="Monaco" font-size="10.00">refresh()</text>
<polygon fill="#666666" stroke="#666666" points="168.5,-114.5 168.5,-114.5 324.5,-114.5 324.5,-114.5 168.5,-114.5"/>
<polygon fill="#666666" stroke="#666666" points="168.5,-99.5 168.5,-99.5 324.5,-99.5 324.5,-99.5 168.5,-99.5"/>
<polygon fill="none" stroke="#666666" points="168.5,-7.5 168.5,-131.5 324.5,-131.5 324.5,-7.5 168.5,-7.5"/>
</a>
</g>
</g>
<!-- Node10&#45;&gt;Node11 -->
<g id="edge10_Node000010_Node000011" class="edge">
<title>Node10&#45;&gt;Node11</title>
<g id="a_edge10_Node000010_Node000011"><a xlink:title=" ">
<path fill="none" stroke="#63b8ff" d="M243.89,-164.75C244.2,-153.57 244.51,-142.31 244.81,-131.65"/>
<polygon fill="none" stroke="#63b8ff" points="240.38,-164.88 243.61,-174.97 247.38,-165.08 240.38,-164.88"/>
</a>
</g>
</g>
</g>
</svg>

<g id="navigator" transform="translate(0 0)" fill="#404254">
  <rect fill="#f2f5e9" fill-opacity="0.5" stroke="#606060" stroke-width=".5" x="0" y="0" width="60" height="60"/>
  <use id="zoomplus" xlink:href="#zoomPlus" x="17" y="9" onmousedown="handleZoom(evt,'in')"/>
  <use id="zoomminus" xlink:href="#zoomMin" x="42" y="9" onmousedown="handleZoom(evt,'out')"/>
  <use id="reset" xlink:href="#resetDef" x="30" y="36" onmousedown="handleReset()"/>
   <use id="arrowup" xlink:href="#arrowUp" x="0" y="0" onmousedown="handlePan(0,-1)"/>
  <use id="arrowright" xlink:href="#arrowRight" x="0" y="0" onmousedown="handlePan(1,0)"/>
  <use id="arrowdown" xlink:href="#arrowDown" x="0" y="0" onmousedown="handlePan(0,1)"/>
  <use id="arrowleft" xlink:href="#arrowLeft" x="0" y="0" onmousedown="handlePan(-1,0)"/>
</g>
<svg viewBox="0 0 15 15" width="100%" height="30px" preserveAspectRatio="xMaxYMin meet">
 <g id="arrow_out" transform="scale(0.3 0.3)">
  <a xlink:href="class_hydro_couple_1_1_i_exchange_item__inherit__graph_org.svg" target="_base">
   <rect id="button" ry="5" rx="5" y="6" x="6" height="38" width="38"
        fill="#f2f5e9" fill-opacity="0.5" stroke="#606060" stroke-width="1.0"/>
   <path id="arrow"
     d="M 11.500037,31.436501 C 11.940474,20.09759 22.043105,11.32322 32.158766,21.979434 L 37.068811,17.246167 C 37.068811,17.246167 37.088388,32 37.088388,32 L 22.160133,31.978069 C 22.160133,31.978069 26.997745,27.140456 26.997745,27.140456 C 18.528582,18.264221 13.291696,25.230495 11.500037,31.436501 z"
     style="fill:#404040;"/>
  </a>
 </g>
</svg>

<style type='text/css'>
<![CDATA[
[data-mouse-over-selected='false'] { opacity: 0.7; }
[data-mouse-over-selected='true']  { opacity: 1.0; }
]]>
</style>
<script type="application/ecmascript"><![CDATA[
document.addEventListener('DOMContentLoaded', (event) => {
  highlightEdges();
  highlightAdjacentNodes();
});
]]></script>
</svg>
