<?xml version="1.0" encoding="UTF-8" standalone="no"?>
<!DOCTYPE svg PUBLIC "-//W3C//DTD SVG 1.1//EN"
 "http://www.w3.org/Graphics/SVG/1.1/DTD/svg11.dtd">
<!-- Generated by graphviz version 2.43.0 (0)
 -->
<!-- Title: HydroCouple::SpatioTemporal::ITimeSeriesTINComponentDataItem Pages: 1 -->
<svg width="458pt" height="1418pt"
 viewBox="0.00 0.00 457.50 1418.00" xmlns="http://www.w3.org/2000/svg" xmlns:xlink="http://www.w3.org/1999/xlink">
<g id="graph0" class="graph" transform="scale(1 1) rotate(0) translate(4 1414)">
<title>HydroCouple::SpatioTemporal::ITimeSeriesTINComponentDataItem</title>
<!-- Node1 -->
<g id="Node000001" class="node">
<title>Node1</title>
<g id="a_Node000001"><a xlink:title="The ITINComponentItem class.">
<polygon fill="#999999" stroke="transparent" points="359,-86 166,-86 166,0 359,0 359,-86"/>
<text text-anchor="start" x="171.5" y="-74" font-family="Monaco" font-size="10.00">HydroCouple::SpatioTemporal</text>
<text text-anchor="start" x="171.5" y="-63" font-family="Monaco" font-size="10.00">::ITimeSeriesTINComponentDataItem</text>
<text text-anchor="start" x="261" y="-48" font-family="Monaco" font-size="10.00"> </text>
<text text-anchor="start" x="178.5" y="-33" font-family="Monaco" font-size="10.00">+</text>
<text text-anchor="start" x="199.5" y="-33" font-family="Monaco" font-size="10.00">~ITimeSeriesTINComponent</text>
<text text-anchor="start" x="199.5" y="-22" font-family="Monaco" font-size="10.00">DataItem()</text>
<text text-anchor="start" x="178.5" y="-7" font-family="Monaco" font-size="10.00">+</text>
<text text-anchor="start" x="199.5" y="-7" font-family="Monaco" font-size="10.00">TIN()</text>
<polygon fill="#666666" stroke="#666666" points="166.5,-58 166.5,-58 359.5,-58 359.5,-58 166.5,-58"/>
<polygon fill="#666666" stroke="#666666" points="166.5,-43 166.5,-43 359.5,-43 359.5,-43 166.5,-43"/>
<polygon fill="none" stroke="#666666" points="166,0 166,-86 359,-86 359,0 166,0"/>
</a>
</g>
</g>
<!-- Node2 -->
<g id="Node000002" class="node">
<title>Node2</title>
<g id="a_Node000002"><a xlink:href="../../df/d17/class_hydro_couple_1_1_spatio_temporal_1_1_i_time_series_polyhedral_surface_component_data_item.html" target="_top" xlink:title="The ITimeSeriesPolyhedralSurfaceComponentDataItem class.">
<polygon fill="white" stroke="transparent" points="372,-264 153,-264 153,-122 372,-122 372,-264"/>
<text text-anchor="start" x="158.5" y="-252" font-family="Monaco" font-size="10.00">HydroCouple::SpatioTemporal</text>
<text text-anchor="start" x="158.5" y="-241" font-family="Monaco" font-size="10.00">::ITimeSeriesPolyhedralSurfaceComponent</text>
<text text-anchor="start" x="240" y="-230" font-family="Monaco" font-size="10.00">DataItem</text>
<text text-anchor="start" x="261" y="-215" font-family="Monaco" font-size="10.00"> </text>
<text text-anchor="start" x="168" y="-200" font-family="Monaco" font-size="10.00">+</text>
<text text-anchor="start" x="191.5" y="-200" font-family="Monaco" font-size="10.00">~ITimeSeriesPolyhedralSurface</text>
<text text-anchor="start" x="191.5" y="-189" font-family="Monaco" font-size="10.00">ComponentDataItem()</text>
<text text-anchor="start" x="168" y="-174" font-family="Monaco" font-size="10.00">+</text>
<text text-anchor="start" x="191.5" y="-174" font-family="Monaco" font-size="10.00">getValue()</text>
<text text-anchor="start" x="168" y="-159" font-family="Monaco" font-size="10.00">+</text>
<text text-anchor="start" x="191.5" y="-159" font-family="Monaco" font-size="10.00">getValues()</text>
<text text-anchor="start" x="168" y="-144" font-family="Monaco" font-size="10.00">+</text>
<text text-anchor="start" x="191.5" y="-144" font-family="Monaco" font-size="10.00">setValue()</text>
<text text-anchor="start" x="168" y="-129" font-family="Monaco" font-size="10.00">+</text>
<text text-anchor="start" x="191.5" y="-129" font-family="Monaco" font-size="10.00">setValues()</text>
<polygon fill="#666666" stroke="#666666" points="153.5,-225 153.5,-225 372.5,-225 372.5,-225 153.5,-225"/>
<polygon fill="#666666" stroke="#666666" points="153.5,-210 153.5,-210 372.5,-210 372.5,-210 153.5,-210"/>
<polygon fill="none" stroke="#666666" points="153,-122 153,-264 372,-264 372,-122 153,-122"/>
</a>
</g>
</g>
<!-- Node2&#45;&gt;Node1 -->
<g id="edge1_Node000001_Node000002" class="edge">
<title>Node2&#45;&gt;Node1</title>
<g id="a_edge1_Node000001_Node000002"><a xlink:title=" ">
<path fill="none" stroke="#63b8ff" d="M262.5,-111.84C262.5,-102.96 262.5,-94.19 262.5,-86.06"/>
<polygon fill="none" stroke="#63b8ff" points="259,-111.9 262.5,-121.9 266,-111.9 259,-111.9"/>
</a>
</g>
</g>
<!-- Node3 -->
<g id="Node000003" class="node">
<title>Node3</title>
<g id="a_Node000003"><a xlink:href="../../de/d0b/class_hydro_couple_1_1_temporal_1_1_i_time_series_component_data_item.html" target="_top" xlink:title="ITimeComponentItem is an IComponentItem with a temporal attribute. This class cannot be directly inst...">
<polygon fill="white" stroke="transparent" points="253.5,-562 77.5,-562 77.5,-330 253.5,-330 253.5,-562"/>
<text text-anchor="start" x="82.5" y="-550" font-family="Monaco" font-size="10.00">HydroCouple::Temporal</text>
<text text-anchor="start" x="82.5" y="-539" font-family="Monaco" font-size="10.00">::ITimeSeriesComponentDataItem</text>
<text text-anchor="start" x="163.5" y="-524" font-family="Monaco" font-size="10.00"> </text>
<text text-anchor="start" x="83.5" y="-509" font-family="Monaco" font-size="10.00">+</text>
<text text-anchor="start" x="98.5" y="-509" font-family="Monaco" font-size="10.00">~ITimeSeriesComponentData</text>
<text text-anchor="start" x="98.5" y="-498" font-family="Monaco" font-size="10.00">Item()</text>
<text text-anchor="start" x="83.5" y="-483" font-family="Monaco" font-size="10.00">+</text>
<text text-anchor="start" x="98.5" y="-483" font-family="Monaco" font-size="10.00">time()</text>
<text text-anchor="start" x="83.5" y="-468" font-family="Monaco" font-size="10.00">+</text>
<text text-anchor="start" x="98.5" y="-468" font-family="Monaco" font-size="10.00">timeCount()</text>
<text text-anchor="start" x="83.5" y="-453" font-family="Monaco" font-size="10.00">+</text>
<text text-anchor="start" x="98.5" y="-453" font-family="Monaco" font-size="10.00">timeSpan()</text>
<text text-anchor="start" x="83.5" y="-438" font-family="Monaco" font-size="10.00">+</text>
<text text-anchor="start" x="98.5" y="-438" font-family="Monaco" font-size="10.00">timeDimension()</text>
<text text-anchor="start" x="83.5" y="-423" font-family="Monaco" font-size="10.00">+</text>
<text text-anchor="start" x="98.5" y="-423" font-family="Monaco" font-size="10.00">getValue()</text>
<text text-anchor="start" x="83.5" y="-408" font-family="Monaco" font-size="10.00">+</text>
<text text-anchor="start" x="98.5" y="-408" font-family="Monaco" font-size="10.00">getValues()</text>
<text text-anchor="start" x="83.5" y="-393" font-family="Monaco" font-size="10.00">+</text>
<text text-anchor="start" x="98.5" y="-393" font-family="Monaco" font-size="10.00">setValue()</text>
<text text-anchor="start" x="83.5" y="-378" font-family="Monaco" font-size="10.00">+</text>
<text text-anchor="start" x="98.5" y="-378" font-family="Monaco" font-size="10.00">setValues()</text>
<text text-anchor="start" x="83.5" y="-363" font-family="Monaco" font-size="10.00">+</text>
<text text-anchor="start" x="98.5" y="-363" font-family="Monaco" font-size="10.00">~ITimeSeriesComponentData</text>
<text text-anchor="start" x="98.5" y="-352" font-family="Monaco" font-size="10.00">Item()</text>
<text text-anchor="start" x="98.5" y="-337" font-family="Monaco" font-size="10.00">and 12 more...</text>
<polygon fill="#666666" stroke="#666666" points="77.5,-534 77.5,-534 253.5,-534 253.5,-534 77.5,-534"/>
<polygon fill="#666666" stroke="#666666" points="77.5,-519 77.5,-519 253.5,-519 253.5,-519 77.5,-519"/>
<polygon fill="none" stroke="#666666" points="77.5,-330 77.5,-562 253.5,-562 253.5,-330 77.5,-330"/>
</a>
</g>
</g>
<!-- Node3&#45;&gt;Node2 -->
<g id="edge2_Node000002_Node000003" class="edge">
<title>Node3&#45;&gt;Node2</title>
<g id="a_edge2_Node000002_Node000003"><a xlink:title=" ">
<path fill="none" stroke="#63b8ff" d="M213.69,-320.31C221.16,-300.98 228.64,-281.62 235.42,-264.08"/>
<polygon fill="none" stroke="#63b8ff" points="210.37,-319.2 210.03,-329.78 216.89,-321.72 210.37,-319.2"/>
</a>
</g>
</g>
<!-- Node4 -->
<g id="Node000004" class="node">
<title>Node4</title>
<g id="a_Node000004"><a xlink:href="../../d8/d52/class_hydro_couple_1_1_i_component_data_item.html" target="_top" xlink:title="IComponentItem is a fundamental unit of data for a component.">
<polygon fill="white" stroke="transparent" points="258,-857 73,-857 73,-628 258,-628 258,-857"/>
<text text-anchor="start" x="78.5" y="-844.5" font-family="Monaco" font-size="10.00">HydroCouple::IComponentDataItem</text>
<text text-anchor="start" x="164" y="-829.5" font-family="Monaco" font-size="10.00"> </text>
<text text-anchor="start" x="88" y="-814.5" font-family="Monaco" font-size="10.00">+</text>
<text text-anchor="start" x="111.5" y="-814.5" font-family="Monaco" font-size="10.00">~IComponentDataItem()</text>
<text text-anchor="start" x="88" y="-799.5" font-family="Monaco" font-size="10.00">+</text>
<text text-anchor="start" x="111.5" y="-799.5" font-family="Monaco" font-size="10.00">modelComponent()</text>
<text text-anchor="start" x="88" y="-784.5" font-family="Monaco" font-size="10.00">+</text>
<text text-anchor="start" x="111.5" y="-784.5" font-family="Monaco" font-size="10.00">dimensions()</text>
<text text-anchor="start" x="88" y="-769.5" font-family="Monaco" font-size="10.00">+</text>
<text text-anchor="start" x="111.5" y="-769.5" font-family="Monaco" font-size="10.00">dimensionLength()</text>
<text text-anchor="start" x="88" y="-754.5" font-family="Monaco" font-size="10.00">+</text>
<text text-anchor="start" x="111.5" y="-754.5" font-family="Monaco" font-size="10.00">valueDefinition()</text>
<text text-anchor="start" x="88" y="-739.5" font-family="Monaco" font-size="10.00">+</text>
<text text-anchor="start" x="111.5" y="-739.5" font-family="Monaco" font-size="10.00">getValue()</text>
<text text-anchor="start" x="88" y="-724.5" font-family="Monaco" font-size="10.00">+</text>
<text text-anchor="start" x="111.5" y="-724.5" font-family="Monaco" font-size="10.00">getValues()</text>
<text text-anchor="start" x="88" y="-709.5" font-family="Monaco" font-size="10.00">+</text>
<text text-anchor="start" x="111.5" y="-709.5" font-family="Monaco" font-size="10.00">setValue()</text>
<text text-anchor="start" x="88" y="-694.5" font-family="Monaco" font-size="10.00">+</text>
<text text-anchor="start" x="111.5" y="-694.5" font-family="Monaco" font-size="10.00">setValues()</text>
<text text-anchor="start" x="88" y="-679.5" font-family="Monaco" font-size="10.00">+</text>
<text text-anchor="start" x="111.5" y="-679.5" font-family="Monaco" font-size="10.00">hasEditor()</text>
<text text-anchor="start" x="88" y="-664.5" font-family="Monaco" font-size="10.00">+</text>
<text text-anchor="start" x="111.5" y="-664.5" font-family="Monaco" font-size="10.00">showEditor()</text>
<text text-anchor="start" x="88" y="-649.5" font-family="Monaco" font-size="10.00">+</text>
<text text-anchor="start" x="111.5" y="-649.5" font-family="Monaco" font-size="10.00">hasViewer()</text>
<text text-anchor="start" x="88" y="-634.5" font-family="Monaco" font-size="10.00">+</text>
<text text-anchor="start" x="111.5" y="-634.5" font-family="Monaco" font-size="10.00">showViewer()</text>
<polygon fill="#666666" stroke="#666666" points="73.5,-839.5 73.5,-839.5 258.5,-839.5 258.5,-839.5 73.5,-839.5"/>
<polygon fill="#666666" stroke="#666666" points="73.5,-824.5 73.5,-824.5 258.5,-824.5 258.5,-824.5 73.5,-824.5"/>
<polygon fill="none" stroke="#666666" points="73,-628 73,-857 258,-857 258,-628 73,-628"/>
</a>
</g>
</g>
<!-- Node4&#45;&gt;Node3 -->
<g id="edge3_Node000003_Node000004" class="edge">
<title>Node4&#45;&gt;Node3</title>
<g id="a_edge3_Node000003_Node000004"><a xlink:title=" ">
<path fill="none" stroke="#63b8ff" d="M158.83,-617.48C158.71,-599.09 158.73,-580.21 158.9,-562.02"/>
<polygon fill="none" stroke="#63b8ff" points="155.33,-617.67 158.91,-627.64 162.33,-617.61 155.33,-617.67"/>
</a>
</g>
</g>
<!-- Node4&#45;&gt;Node3 -->
<g id="edge9_Node000003_Node000004" class="edge">
<title>Node4&#45;&gt;Node3</title>
<g id="a_edge9_Node000003_Node000004"><a xlink:title=" ">
<path fill="none" stroke="#63b8ff" d="M172.17,-617.48C172.29,-599.09 172.27,-580.21 172.1,-562.02"/>
<polygon fill="none" stroke="#63b8ff" points="168.67,-617.61 172.09,-627.64 175.67,-617.67 168.67,-617.61"/>
</a>
</g>
</g>
<!-- Node10 -->
<g id="Node000010" class="node">
<title>Node10</title>
<g id="a_Node000010"><a xlink:href="../../d0/da8/class_hydro_couple_1_1_spatial_1_1_i_polyhedral_surface_component_data_item.html" target="_top" xlink:title="IPolyhedralSurfaceComponentItem represents IPolyhedralSurface IComponentItem.">
<polygon fill="white" stroke="transparent" points="449.5,-592 271.5,-592 271.5,-300 449.5,-300 449.5,-592"/>
<text text-anchor="start" x="283.5" y="-580" font-family="Monaco" font-size="10.00">HydroCouple::Spatial</text>
<text text-anchor="start" x="283.5" y="-569" font-family="Monaco" font-size="10.00">::IPolyhedralSurfaceComponent</text>
<text text-anchor="start" x="337.5" y="-558" font-family="Monaco" font-size="10.00">DataItem</text>
<text text-anchor="start" x="358.5" y="-543" font-family="Monaco" font-size="10.00"> </text>
<text text-anchor="start" x="275.5" y="-528" font-family="Monaco" font-size="10.00">+</text>
<text text-anchor="start" x="288.5" y="-528" font-family="Monaco" font-size="10.00">~IPolyhedralSurfaceComponent</text>
<text text-anchor="start" x="288.5" y="-517" font-family="Monaco" font-size="10.00">DataItem()</text>
<text text-anchor="start" x="275.5" y="-502" font-family="Monaco" font-size="10.00">+</text>
<text text-anchor="start" x="288.5" y="-502" font-family="Monaco" font-size="10.00">meshDataObjectType()</text>
<text text-anchor="start" x="275.5" y="-487" font-family="Monaco" font-size="10.00">+</text>
<text text-anchor="start" x="288.5" y="-487" font-family="Monaco" font-size="10.00">meshDataType()</text>
<text text-anchor="start" x="275.5" y="-472" font-family="Monaco" font-size="10.00">+</text>
<text text-anchor="start" x="288.5" y="-472" font-family="Monaco" font-size="10.00">polyhedralSurface()</text>
<text text-anchor="start" x="275.5" y="-457" font-family="Monaco" font-size="10.00">+</text>
<text text-anchor="start" x="288.5" y="-457" font-family="Monaco" font-size="10.00">patchDimension()</text>
<text text-anchor="start" x="275.5" y="-442" font-family="Monaco" font-size="10.00">+</text>
<text text-anchor="start" x="288.5" y="-442" font-family="Monaco" font-size="10.00">edgeDimension()</text>
<text text-anchor="start" x="275.5" y="-427" font-family="Monaco" font-size="10.00">+</text>
<text text-anchor="start" x="288.5" y="-427" font-family="Monaco" font-size="10.00">vertexDimension()</text>
<text text-anchor="start" x="275.5" y="-412" font-family="Monaco" font-size="10.00">+</text>
<text text-anchor="start" x="288.5" y="-412" font-family="Monaco" font-size="10.00">getValue()</text>
<text text-anchor="start" x="275.5" y="-397" font-family="Monaco" font-size="10.00">+</text>
<text text-anchor="start" x="288.5" y="-397" font-family="Monaco" font-size="10.00">getValues()</text>
<text text-anchor="start" x="275.5" y="-382" font-family="Monaco" font-size="10.00">+</text>
<text text-anchor="start" x="288.5" y="-382" font-family="Monaco" font-size="10.00">setValue()</text>
<text text-anchor="start" x="275.5" y="-367" font-family="Monaco" font-size="10.00">+</text>
<text text-anchor="start" x="288.5" y="-367" font-family="Monaco" font-size="10.00">setValues()</text>
<text text-anchor="start" x="275.5" y="-352" font-family="Monaco" font-size="10.00">+</text>
<text text-anchor="start" x="288.5" y="-352" font-family="Monaco" font-size="10.00">getValue()</text>
<text text-anchor="start" x="275.5" y="-337" font-family="Monaco" font-size="10.00">+</text>
<text text-anchor="start" x="288.5" y="-337" font-family="Monaco" font-size="10.00">getValues()</text>
<text text-anchor="start" x="275.5" y="-322" font-family="Monaco" font-size="10.00">+</text>
<text text-anchor="start" x="288.5" y="-322" font-family="Monaco" font-size="10.00">setValue()</text>
<text text-anchor="start" x="275.5" y="-307" font-family="Monaco" font-size="10.00">+</text>
<text text-anchor="start" x="288.5" y="-307" font-family="Monaco" font-size="10.00">setValues()</text>
<polygon fill="#666666" stroke="#666666" points="271.5,-553 271.5,-553 449.5,-553 449.5,-553 271.5,-553"/>
<polygon fill="#666666" stroke="#666666" points="271.5,-538 271.5,-538 449.5,-538 449.5,-538 271.5,-538"/>
<polygon fill="none" stroke="#666666" points="271.5,-300 271.5,-592 449.5,-592 449.5,-300 271.5,-300"/>
</a>
</g>
</g>
<!-- Node4&#45;&gt;Node10 -->
<g id="edge11_Node000010_Node000004" class="edge">
<title>Node4&#45;&gt;Node10</title>
<g id="a_edge11_Node000010_Node000004"><a xlink:title=" ">
<path fill="none" stroke="#63b8ff" d="M246.53,-619.12C254.71,-606.76 263.06,-594.16 271.32,-581.68"/>
<polygon fill="none" stroke="#63b8ff" points="243.49,-617.37 240.89,-627.64 249.33,-621.23 243.49,-617.37"/>
</a>
</g>
</g>
<!-- Node5 -->
<g id="Node000005" class="node">
<title>Node5</title>
<g id="a_Node000005"><a xlink:href="../../d2/d2a/class_hydro_couple_1_1_i_identity.html" target="_top" xlink:title="IIdentity interface class defines a method to get the Id of an HydroCouple entity.">
<polygon fill="white" stroke="transparent" points="143.5,-990.5 23.5,-990.5 23.5,-926.5 143.5,-926.5 143.5,-990.5"/>
<text text-anchor="start" x="28.5" y="-978.5" font-family="Monaco" font-size="10.00">HydroCouple::IIdentity</text>
<text text-anchor="start" x="81.5" y="-963.5" font-family="Monaco" font-size="10.00"> </text>
<text text-anchor="start" x="38" y="-948.5" font-family="Monaco" font-size="10.00">+</text>
<text text-anchor="start" x="61.5" y="-948.5" font-family="Monaco" font-size="10.00">~IIdentity()</text>
<text text-anchor="start" x="38" y="-933.5" font-family="Monaco" font-size="10.00">+</text>
<text text-anchor="start" x="61.5" y="-933.5" font-family="Monaco" font-size="10.00">id()</text>
<polygon fill="#666666" stroke="#666666" points="23.5,-973.5 23.5,-973.5 143.5,-973.5 143.5,-973.5 23.5,-973.5"/>
<polygon fill="#666666" stroke="#666666" points="23.5,-958.5 23.5,-958.5 143.5,-958.5 143.5,-958.5 23.5,-958.5"/>
<polygon fill="none" stroke="#666666" points="23.5,-926.5 23.5,-990.5 143.5,-990.5 143.5,-926.5 23.5,-926.5"/>
</a>
</g>
</g>
<!-- Node5&#45;&gt;Node4 -->
<g id="edge4_Node000004_Node000005" class="edge">
<title>Node5&#45;&gt;Node4</title>
<g id="a_edge4_Node000004_Node000005"><a xlink:title=" ">
<path fill="none" stroke="#63b8ff" d="M99.13,-916.71C105.72,-899.5 113.76,-878.52 121.94,-857.19"/>
<polygon fill="none" stroke="#63b8ff" points="95.73,-915.79 95.42,-926.38 102.27,-918.3 95.73,-915.79"/>
</a>
</g>
</g>
<!-- Node6 -->
<g id="Node000006" class="node">
<title>Node6</title>
<g id="a_Node000006"><a xlink:href="../../db/d64/class_hydro_couple_1_1_i_description.html" target="_top" xlink:title="IDescription interface class provides descriptive information on a HydroCouple object.">
<polygon fill="white" stroke="transparent" points="152.5,-1169 14.5,-1169 14.5,-1060 152.5,-1060 152.5,-1169"/>
<text text-anchor="start" x="19.5" y="-1156.5" font-family="Monaco" font-size="10.00">HydroCouple::IDescription</text>
<text text-anchor="start" x="81.5" y="-1141.5" font-family="Monaco" font-size="10.00"> </text>
<text text-anchor="start" x="28" y="-1126.5" font-family="Monaco" font-size="10.00">+</text>
<text text-anchor="start" x="50.5" y="-1126.5" font-family="Monaco" font-size="10.00">~IDescription()</text>
<text text-anchor="start" x="28" y="-1111.5" font-family="Monaco" font-size="10.00">+</text>
<text text-anchor="start" x="50.5" y="-1111.5" font-family="Monaco" font-size="10.00">caption()</text>
<text text-anchor="start" x="28" y="-1096.5" font-family="Monaco" font-size="10.00">+</text>
<text text-anchor="start" x="50.5" y="-1096.5" font-family="Monaco" font-size="10.00">setCaption()</text>
<text text-anchor="start" x="28" y="-1081.5" font-family="Monaco" font-size="10.00">+</text>
<text text-anchor="start" x="50.5" y="-1081.5" font-family="Monaco" font-size="10.00">description()</text>
<text text-anchor="start" x="28" y="-1066.5" font-family="Monaco" font-size="10.00">+</text>
<text text-anchor="start" x="50.5" y="-1066.5" font-family="Monaco" font-size="10.00">setDescription()</text>
<polygon fill="#666666" stroke="#666666" points="14.5,-1151.5 14.5,-1151.5 152.5,-1151.5 152.5,-1151.5 14.5,-1151.5"/>
<polygon fill="#666666" stroke="#666666" points="14.5,-1136.5 14.5,-1136.5 152.5,-1136.5 152.5,-1136.5 14.5,-1136.5"/>
<polygon fill="none" stroke="#666666" points="14.5,-1060 14.5,-1169 152.5,-1169 152.5,-1060 14.5,-1060"/>
</a>
</g>
</g>
<!-- Node6&#45;&gt;Node5 -->
<g id="edge5_Node000005_Node000006" class="edge">
<title>Node6&#45;&gt;Node5</title>
<g id="a_edge5_Node000005_Node000006"><a xlink:title=" ">
<path fill="none" stroke="#63b8ff" d="M83.5,-1049.47C83.5,-1029.15 83.5,-1007.58 83.5,-990.66"/>
<polygon fill="none" stroke="#63b8ff" points="80,-1049.64 83.5,-1059.64 87,-1049.64 80,-1049.64"/>
</a>
</g>
</g>
<!-- Node7 -->
<g id="Node000007" class="node">
<title>Node7</title>
<g id="a_Node000007"><a xlink:href="../../dd/dbf/class_hydro_couple_1_1_i_property_changed.html" target="_top" xlink:title="IPropertyChanged interface is used to emit signal/event when a property of an object changes.">
<polygon fill="white" stroke="transparent" points="167,-1254 0,-1254 0,-1205 167,-1205 167,-1254"/>
<text text-anchor="start" x="5.5" y="-1241.5" font-family="Monaco" font-size="10.00">HydroCouple::IPropertyChanged</text>
<text text-anchor="start" x="82" y="-1226.5" font-family="Monaco" font-size="10.00"> </text>
<text text-anchor="start" x="15" y="-1211.5" font-family="Monaco" font-size="10.00">+</text>
<text text-anchor="start" x="38.5" y="-1211.5" font-family="Monaco" font-size="10.00">~IPropertyChanged()</text>
<polygon fill="#666666" stroke="#666666" points="0.5,-1236.5 0.5,-1236.5 167.5,-1236.5 167.5,-1236.5 0.5,-1236.5"/>
<polygon fill="#666666" stroke="#666666" points="0.5,-1221.5 0.5,-1221.5 167.5,-1221.5 167.5,-1221.5 0.5,-1221.5"/>
<polygon fill="none" stroke="#666666" points="0,-1205 0,-1254 167,-1254 167,-1205 0,-1205"/>
</a>
</g>
</g>
<!-- Node7&#45;&gt;Node6 -->
<g id="edge6_Node000006_Node000007" class="edge">
<title>Node7&#45;&gt;Node6</title>
<g id="a_edge6_Node000006_Node000007"><a xlink:title=" ">
<path fill="none" stroke="#63b8ff" d="M83.5,-1194.79C83.5,-1186.79 83.5,-1178.06 83.5,-1169.41"/>
<polygon fill="none" stroke="#63b8ff" points="80,-1194.81 83.5,-1204.81 87,-1194.81 80,-1194.81"/>
</a>
</g>
</g>
<!-- Node8 -->
<g id="Node000008" class="node">
<title>Node8</title>
<g id="a_Node000008"><a xlink:href="../../d5/d8b/class_hydro_couple_1_1_i_signal.html" target="_top" xlink:title=" ">
<polygon fill="white" stroke="transparent" points="140,-1410 27,-1410 27,-1290 140,-1290 140,-1410"/>
<text text-anchor="start" x="32.5" y="-1398" font-family="Monaco" font-size="10.00">HydroCouple::ISignal</text>
<text text-anchor="start" x="58.5" y="-1387" font-family="Monaco" font-size="10.00">&lt; string &gt;</text>
<text text-anchor="start" x="82" y="-1372" font-family="Monaco" font-size="10.00"> </text>
<text text-anchor="start" x="37" y="-1357" font-family="Monaco" font-size="10.00">+</text>
<text text-anchor="start" x="55.5" y="-1357" font-family="Monaco" font-size="10.00">~ISignal()</text>
<text text-anchor="start" x="37" y="-1342" font-family="Monaco" font-size="10.00">+</text>
<text text-anchor="start" x="55.5" y="-1342" font-family="Monaco" font-size="10.00">connect()</text>
<text text-anchor="start" x="37" y="-1327" font-family="Monaco" font-size="10.00">+</text>
<text text-anchor="start" x="55.5" y="-1327" font-family="Monaco" font-size="10.00">disconnect()</text>
<text text-anchor="start" x="37" y="-1312" font-family="Monaco" font-size="10.00">+</text>
<text text-anchor="start" x="55.5" y="-1312" font-family="Monaco" font-size="10.00">blockSignals()</text>
<text text-anchor="start" x="37" y="-1297" font-family="Monaco" font-size="10.00">#</text>
<text text-anchor="start" x="55.5" y="-1297" font-family="Monaco" font-size="10.00">emit()</text>
<polygon fill="#666666" stroke="#666666" points="27.5,-1382 27.5,-1382 140.5,-1382 140.5,-1382 27.5,-1382"/>
<polygon fill="#666666" stroke="#666666" points="27.5,-1367 27.5,-1367 140.5,-1367 140.5,-1367 27.5,-1367"/>
<polygon fill="none" stroke="#666666" points="27,-1290 27,-1410 140,-1410 140,-1290 27,-1290"/>
</a>
</g>
</g>
<!-- Node8&#45;&gt;Node7 -->
<g id="edge7_Node000007_Node000008" class="edge">
<title>Node8&#45;&gt;Node7</title>
<g id="a_edge7_Node000007_Node000008"><a xlink:title=" ">
<path fill="none" stroke="#63b8ff" d="M83.5,-1279.74C83.5,-1270.6 83.5,-1261.78 83.5,-1254.2"/>
<polygon fill="none" stroke="#63b8ff" points="80,-1279.75 83.5,-1289.75 87,-1279.75 80,-1279.75"/>
</a>
</g>
</g>
<!-- Node9 -->
<g id="Node000009" class="node">
<title>Node9</title>
<g id="a_Node000009"><a xlink:href="../../d5/d8b/class_hydro_couple_1_1_i_signal.html" target="_top" xlink:title=" ">
<polygon fill="white" stroke="transparent" points="335,-1024 162,-1024 162,-893 335,-893 335,-1024"/>
<text text-anchor="start" x="167.5" y="-1011.5" font-family="Monaco" font-size="10.00">HydroCouple::ISignal</text>
<text text-anchor="start" x="167.5" y="-1000.5" font-family="Monaco" font-size="10.00">&lt; const shared_ptr&lt; IComponent</text>
<text text-anchor="start" x="174.5" y="-989.5" font-family="Monaco" font-size="10.00">DataItemValueChanged &gt; &amp; &gt;</text>
<text text-anchor="start" x="247" y="-974.5" font-family="Monaco" font-size="10.00"> </text>
<text text-anchor="start" x="187" y="-959.5" font-family="Monaco" font-size="10.00">+</text>
<text text-anchor="start" x="220.5" y="-959.5" font-family="Monaco" font-size="10.00">~ISignal()</text>
<text text-anchor="start" x="187" y="-944.5" font-family="Monaco" font-size="10.00">+</text>
<text text-anchor="start" x="220.5" y="-944.5" font-family="Monaco" font-size="10.00">connect()</text>
<text text-anchor="start" x="187" y="-929.5" font-family="Monaco" font-size="10.00">+</text>
<text text-anchor="start" x="220.5" y="-929.5" font-family="Monaco" font-size="10.00">disconnect()</text>
<text text-anchor="start" x="187" y="-914.5" font-family="Monaco" font-size="10.00">+</text>
<text text-anchor="start" x="220.5" y="-914.5" font-family="Monaco" font-size="10.00">blockSignals()</text>
<text text-anchor="start" x="187" y="-899.5" font-family="Monaco" font-size="10.00">#</text>
<text text-anchor="start" x="220.5" y="-899.5" font-family="Monaco" font-size="10.00">emit()</text>
<polygon fill="#666666" stroke="#666666" points="162.5,-984.5 162.5,-984.5 335.5,-984.5 335.5,-984.5 162.5,-984.5"/>
<polygon fill="#666666" stroke="#666666" points="162.5,-969.5 162.5,-969.5 335.5,-969.5 335.5,-969.5 162.5,-969.5"/>
<polygon fill="none" stroke="#666666" points="162,-893 162,-1024 335,-1024 335,-893 162,-893"/>
</a>
</g>
</g>
<!-- Node9&#45;&gt;Node4 -->
<g id="edge8_Node000004_Node000009" class="edge">
<title>Node9&#45;&gt;Node4</title>
<g id="a_edge8_Node000004_Node000009"><a xlink:title=" ">
<path fill="none" stroke="#63b8ff" d="M219.71,-883.27C216.42,-874.79 213.01,-865.99 209.58,-857.14"/>
<polygon fill="none" stroke="#63b8ff" points="216.49,-884.65 223.37,-892.71 223.02,-882.12 216.49,-884.65"/>
</a>
</g>
</g>
<!-- Node10&#45;&gt;Node2 -->
<g id="edge10_Node000002_Node000010" class="edge">
<title>Node10&#45;&gt;Node2</title>
<g id="a_edge10_Node000002_Node000010"><a xlink:title=" ">
<path fill="none" stroke="#63b8ff" d="M300.1,-290.3C296.6,-281.33 293.18,-272.57 289.92,-264.22"/>
<polygon fill="none" stroke="#63b8ff" points="296.88,-291.68 303.78,-299.72 303.4,-289.13 296.88,-291.68"/>
</a>
</g>
</g>
</g>
</svg>
