<?xml version="1.0" encoding="UTF-8" standalone="no"?>
<!DOCTYPE svg PUBLIC "-//W3C//DTD SVG 1.1//EN"
 "http://www.w3.org/Graphics/SVG/1.1/DTD/svg11.dtd">
<!-- Generated by graphviz version 2.43.0 (0)
 -->
<!-- Title: WKBMultiPolygonM Pages: 1 -->
<svg width="121pt" height="447pt"
 viewBox="0.00 0.00 121.00 447.00" xmlns="http://www.w3.org/2000/svg" xmlns:xlink="http://www.w3.org/1999/xlink">
<g id="graph0" class="graph" transform="scale(1 1) rotate(0) translate(4 443)">
<title>WKBMultiPolygonM</title>
<!-- Node1 -->
<g id="node1" class="node">
<title>Node1</title>
<g id="a_node1"><a xlink:title="The WKBMultiPolygonM struct.">
<polygon fill="#bfbfbf" stroke="black" points="0,-0.5 0,-79.5 113,-79.5 113,-0.5 0,-0.5"/>
<text text-anchor="middle" x="56.5" y="-67.5" font-family="Monaco" font-size="10.00">WKBMultiPolygonM</text>
<polyline fill="none" stroke="black" points="0,-60.5 113,-60.5 "/>
<text text-anchor="start" x="8" y="-48.5" font-family="Monaco" font-size="10.00">+ byteOrder</text>
<text text-anchor="start" x="8" y="-37.5" font-family="Monaco" font-size="10.00">+ numPolygons</text>
<text text-anchor="start" x="8" y="-26.5" font-family="Monaco" font-size="10.00">+ wkbType</text>
<polyline fill="none" stroke="black" points="0,-19.5 113,-19.5 "/>
<text text-anchor="middle" x="56.5" y="-7.5" font-family="Monaco" font-size="10.00"> </text>
</a>
</g>
</g>
<!-- Node2 -->
<g id="node2" class="node">
<title>Node2</title>
<g id="a_node2"><a xlink:href="../../d0/d5d/struct_w_k_b_polygon_m.html" target="_top" xlink:title="The WKBPolygonM struct.">
<polygon fill="none" stroke="black" points="12.5,-127.5 12.5,-206.5 100.5,-206.5 100.5,-127.5 12.5,-127.5"/>
<text text-anchor="middle" x="56.5" y="-194.5" font-family="Monaco" font-size="10.00">WKBPolygonM</text>
<polyline fill="none" stroke="black" points="12.5,-187.5 100.5,-187.5 "/>
<text text-anchor="start" x="20.5" y="-175.5" font-family="Monaco" font-size="10.00">+ byteOrder</text>
<text text-anchor="start" x="20.5" y="-164.5" font-family="Monaco" font-size="10.00">+ numRings</text>
<text text-anchor="start" x="20.5" y="-153.5" font-family="Monaco" font-size="10.00">+ wkbType</text>
<polyline fill="none" stroke="black" points="12.5,-146.5 100.5,-146.5 "/>
<text text-anchor="middle" x="56.5" y="-134.5" font-family="Monaco" font-size="10.00"> </text>
</a>
</g>
</g>
<!-- Node2&#45;&gt;Node1 -->
<g id="edge1" class="edge">
<title>Node2&#45;&gt;Node1</title>
<path fill="none" stroke="#404040" d="M56.5,-127.48C56.5,-116.19 56.5,-103.67 56.5,-91.75"/>
<polygon fill="none" stroke="#404040" points="56.5,-91.61 52.5,-85.61 56.5,-79.61 60.5,-85.61 56.5,-91.61"/>
<text text-anchor="middle" x="84.5" y="-101" font-family="Monaco" font-size="10.00"> +polygons</text>
</g>
<!-- Node3 -->
<g id="node3" class="node">
<title>Node3</title>
<g id="a_node3"><a xlink:href="../../d0/d1b/struct_linear_ring_m.html" target="_top" xlink:title="The LinearRingM struct.">
<polygon fill="none" stroke="black" points="16.5,-254.5 16.5,-311.5 96.5,-311.5 96.5,-254.5 16.5,-254.5"/>
<text text-anchor="middle" x="56.5" y="-299.5" font-family="Monaco" font-size="10.00">LinearRingM</text>
<polyline fill="none" stroke="black" points="16.5,-292.5 96.5,-292.5 "/>
<text text-anchor="start" x="24.5" y="-280.5" font-family="Monaco" font-size="10.00">+ numPoints</text>
<polyline fill="none" stroke="black" points="16.5,-273.5 96.5,-273.5 "/>
<text text-anchor="middle" x="56.5" y="-261.5" font-family="Monaco" font-size="10.00"> </text>
</a>
</g>
</g>
<!-- Node3&#45;&gt;Node2 -->
<g id="edge2" class="edge">
<title>Node3&#45;&gt;Node2</title>
<path fill="none" stroke="#404040" d="M56.5,-254.4C56.5,-243.63 56.5,-230.93 56.5,-218.62"/>
<polygon fill="none" stroke="#404040" points="56.5,-218.54 52.5,-212.54 56.5,-206.54 60.5,-212.54 56.5,-218.54"/>
<text text-anchor="middle" x="74.5" y="-228" font-family="Monaco" font-size="10.00"> +rings</text>
</g>
<!-- Node4 -->
<g id="node4" class="node">
<title>Node4</title>
<g id="a_node4"><a xlink:href="../../de/d55/struct_point_m.html" target="_top" xlink:title="The PointM struct.">
<polygon fill="none" stroke="black" points="31.5,-359.5 31.5,-438.5 81.5,-438.5 81.5,-359.5 31.5,-359.5"/>
<text text-anchor="middle" x="56.5" y="-426.5" font-family="Monaco" font-size="10.00">PointM</text>
<polyline fill="none" stroke="black" points="31.5,-419.5 81.5,-419.5 "/>
<text text-anchor="start" x="39.5" y="-407.5" font-family="Monaco" font-size="10.00">+ x</text>
<text text-anchor="start" x="39.5" y="-396.5" font-family="Monaco" font-size="10.00">+ y</text>
<text text-anchor="start" x="39.5" y="-385.5" font-family="Monaco" font-size="10.00">+ m</text>
<polyline fill="none" stroke="black" points="31.5,-378.5 81.5,-378.5 "/>
<text text-anchor="middle" x="56.5" y="-366.5" font-family="Monaco" font-size="10.00"> </text>
</a>
</g>
</g>
<!-- Node4&#45;&gt;Node3 -->
<g id="edge3" class="edge">
<title>Node4&#45;&gt;Node3</title>
<path fill="none" stroke="#404040" d="M56.5,-359.4C56.5,-347.93 56.5,-335.33 56.5,-323.78"/>
<polygon fill="none" stroke="#404040" points="56.5,-323.75 52.5,-317.75 56.5,-311.75 60.5,-317.75 56.5,-323.75"/>
<text text-anchor="middle" x="77.5" y="-333" font-family="Monaco" font-size="10.00"> +points</text>
</g>
</g>
</svg>
