<?xml version="1.0" encoding="UTF-8" standalone="no"?>
<!DOCTYPE svg PUBLIC "-//W3C//DTD SVG 1.1//EN"
 "http://www.w3.org/Graphics/SVG/1.1/DTD/svg11.dtd">
<!-- Generated by graphviz version 2.43.0 (0)
 -->
<!-- Title: HydroCouple::SpatioTemporal::ITimeVectorComponentDataItem Pages: 1 -->
<svg width="204pt" height="910pt"
 viewBox="0.00 0.00 204.00 910.00" xmlns="http://www.w3.org/2000/svg" xmlns:xlink="http://www.w3.org/1999/xlink">
<g id="graph0" class="graph" transform="scale(1 1) rotate(0) translate(4 906)">
<title>HydroCouple::SpatioTemporal::ITimeVectorComponentDataItem</title>
<!-- Node1 -->
<g id="node1" class="node">
<title>Node1</title>
<g id="a_node1"><a xlink:title="The ITimeVectorComponentDataItem class.">
<polygon fill="#bfbfbf" stroke="black" points="6.5,-0.5 6.5,-167.5 189.5,-167.5 189.5,-0.5 6.5,-0.5"/>
<text text-anchor="start" x="14.5" y="-155.5" font-family="Monaco" font-size="10.00">HydroCouple::SpatioTemporal</text>
<text text-anchor="middle" x="98" y="-144.5" font-family="Monaco" font-size="10.00">::ITimeVectorComponentDataItem</text>
<polyline fill="none" stroke="black" points="6.5,-137.5 189.5,-137.5 "/>
<text text-anchor="middle" x="98" y="-125.5" font-family="Monaco" font-size="10.00"> </text>
<polyline fill="none" stroke="black" points="6.5,-118.5 189.5,-118.5 "/>
<text text-anchor="start" x="14.5" y="-106.5" font-family="Monaco" font-size="10.00">+ ~ITimeVectorComponentData</text>
<text text-anchor="start" x="14.5" y="-95.5" font-family="Monaco" font-size="10.00">Item()</text>
<text text-anchor="start" x="14.5" y="-84.5" font-family="Monaco" font-size="10.00">+ locationsCount()</text>
<text text-anchor="start" x="14.5" y="-73.5" font-family="Monaco" font-size="10.00">+ location()</text>
<text text-anchor="start" x="14.5" y="-62.5" font-family="Monaco" font-size="10.00">+ locationsDimension()</text>
<text text-anchor="start" x="14.5" y="-51.5" font-family="Monaco" font-size="10.00">+ spatialDimension()</text>
<text text-anchor="start" x="14.5" y="-40.5" font-family="Monaco" font-size="10.00">+ getValue()</text>
<text text-anchor="start" x="14.5" y="-29.5" font-family="Monaco" font-size="10.00">+ getValues()</text>
<text text-anchor="start" x="14.5" y="-18.5" font-family="Monaco" font-size="10.00">+ setValue()</text>
<text text-anchor="start" x="14.5" y="-7.5" font-family="Monaco" font-size="10.00">+ setValues()</text>
</a>
</g>
</g>
<!-- Node2 -->
<g id="node2" class="node">
<title>Node2</title>
<g id="a_node2"><a xlink:href="../../d9/d05/class_hydro_couple_1_1_temporal_1_1_i_time_component_data_item.html" target="_top" xlink:title="ITimeComponentItem is an IComponentItem with a temporal attribute. This class cannot be directly inst...">
<polygon fill="none" stroke="black" points="11.5,-204.5 11.5,-327.5 184.5,-327.5 184.5,-204.5 11.5,-204.5"/>
<text text-anchor="start" x="19.5" y="-315.5" font-family="Monaco" font-size="10.00">HydroCouple::Temporal</text>
<text text-anchor="middle" x="98" y="-304.5" font-family="Monaco" font-size="10.00">::ITimeComponentDataItem</text>
<polyline fill="none" stroke="black" points="11.5,-297.5 184.5,-297.5 "/>
<text text-anchor="middle" x="98" y="-285.5" font-family="Monaco" font-size="10.00"> </text>
<polyline fill="none" stroke="black" points="11.5,-278.5 184.5,-278.5 "/>
<text text-anchor="start" x="19.5" y="-266.5" font-family="Monaco" font-size="10.00">+ ~ITimeComponentDataItem()</text>
<text text-anchor="start" x="19.5" y="-255.5" font-family="Monaco" font-size="10.00">+ times()</text>
<text text-anchor="start" x="19.5" y="-244.5" font-family="Monaco" font-size="10.00">+ time()</text>
<text text-anchor="start" x="19.5" y="-233.5" font-family="Monaco" font-size="10.00">+ timeCount()</text>
<text text-anchor="start" x="19.5" y="-222.5" font-family="Monaco" font-size="10.00">+ timeSpan()</text>
<text text-anchor="start" x="19.5" y="-211.5" font-family="Monaco" font-size="10.00">+ timeDimension()</text>
</a>
</g>
</g>
<!-- Node2&#45;&gt;Node1 -->
<g id="edge1" class="edge">
<title>Node2&#45;&gt;Node1</title>
<path fill="none" stroke="midnightblue" d="M98,-194.25C98,-185.57 98,-176.63 98,-167.79"/>
<polygon fill="none" stroke="midnightblue" points="94.5,-194.31 98,-204.31 101.5,-194.31 94.5,-194.31"/>
</g>
<!-- Node3 -->
<g id="node3" class="node">
<title>Node3</title>
<g id="a_node3"><a xlink:href="../../d8/d52/class_hydro_couple_1_1_i_component_data_item.html" target="_top" xlink:title="IComponentItem is a fundamental unit of data for a component.">
<polygon fill="none" stroke="black" points="2.5,-364.5 2.5,-531.5 193.5,-531.5 193.5,-364.5 2.5,-364.5"/>
<text text-anchor="middle" x="98" y="-519.5" font-family="Monaco" font-size="10.00">HydroCouple::IComponentDataItem</text>
<polyline fill="none" stroke="black" points="2.5,-512.5 193.5,-512.5 "/>
<text text-anchor="middle" x="98" y="-500.5" font-family="Monaco" font-size="10.00"> </text>
<polyline fill="none" stroke="black" points="2.5,-493.5 193.5,-493.5 "/>
<text text-anchor="start" x="10.5" y="-481.5" font-family="Monaco" font-size="10.00">+ ~IComponentDataItem()</text>
<text text-anchor="start" x="10.5" y="-470.5" font-family="Monaco" font-size="10.00">+ modelComponent()</text>
<text text-anchor="start" x="10.5" y="-459.5" font-family="Monaco" font-size="10.00">+ dimensions()</text>
<text text-anchor="start" x="10.5" y="-448.5" font-family="Monaco" font-size="10.00">+ dimensionLength()</text>
<text text-anchor="start" x="10.5" y="-437.5" font-family="Monaco" font-size="10.00">+ valueDefinition()</text>
<text text-anchor="start" x="10.5" y="-426.5" font-family="Monaco" font-size="10.00">+ getValue()</text>
<text text-anchor="start" x="10.5" y="-415.5" font-family="Monaco" font-size="10.00">+ setValue()</text>
<text text-anchor="start" x="10.5" y="-404.5" font-family="Monaco" font-size="10.00">+ hasEditor()</text>
<text text-anchor="start" x="10.5" y="-393.5" font-family="Monaco" font-size="10.00">+ showEditor()</text>
<text text-anchor="start" x="10.5" y="-382.5" font-family="Monaco" font-size="10.00">+ hasViewer()</text>
<text text-anchor="start" x="10.5" y="-371.5" font-family="Monaco" font-size="10.00">+ showViewer()</text>
</a>
</g>
</g>
<!-- Node3&#45;&gt;Node2 -->
<g id="edge2" class="edge">
<title>Node3&#45;&gt;Node2</title>
<path fill="none" stroke="midnightblue" d="M98,-354.19C98,-345.17 98,-336.19 98,-327.61"/>
<polygon fill="none" stroke="midnightblue" points="94.5,-354.38 98,-364.38 101.5,-354.38 94.5,-354.38"/>
</g>
<!-- Node4 -->
<g id="node4" class="node">
<title>Node4</title>
<g id="a_node4"><a xlink:href="../../d2/d2a/class_hydro_couple_1_1_i_identity.html" target="_top" xlink:title="IIdentity interface class defines a method to get the Id of an HydroCouple entity.">
<polygon fill="none" stroke="black" points="35,-568.5 35,-636.5 161,-636.5 161,-568.5 35,-568.5"/>
<text text-anchor="middle" x="98" y="-624.5" font-family="Monaco" font-size="10.00">HydroCouple::IIdentity</text>
<polyline fill="none" stroke="black" points="35,-617.5 161,-617.5 "/>
<text text-anchor="middle" x="98" y="-605.5" font-family="Monaco" font-size="10.00"> </text>
<polyline fill="none" stroke="black" points="35,-598.5 161,-598.5 "/>
<text text-anchor="start" x="43" y="-586.5" font-family="Monaco" font-size="10.00">+ ~IIdentity()</text>
<text text-anchor="start" x="43" y="-575.5" font-family="Monaco" font-size="10.00">+ id()</text>
</a>
</g>
</g>
<!-- Node4&#45;&gt;Node3 -->
<g id="edge3" class="edge">
<title>Node4&#45;&gt;Node3</title>
<path fill="none" stroke="midnightblue" d="M98,-558.23C98,-549.88 98,-540.89 98,-531.76"/>
<polygon fill="none" stroke="midnightblue" points="94.5,-558.41 98,-568.41 101.5,-558.41 94.5,-558.41"/>
</g>
<!-- Node5 -->
<g id="node5" class="node">
<title>Node5</title>
<g id="a_node5"><a xlink:href="../../db/d64/class_hydro_couple_1_1_i_description.html" target="_top" xlink:title="IDescription interface class provides descriptive information on a HydroCouple object.">
<polygon fill="none" stroke="black" points="26,-673.5 26,-774.5 170,-774.5 170,-673.5 26,-673.5"/>
<text text-anchor="middle" x="98" y="-762.5" font-family="Monaco" font-size="10.00">HydroCouple::IDescription</text>
<polyline fill="none" stroke="black" points="26,-755.5 170,-755.5 "/>
<text text-anchor="middle" x="98" y="-743.5" font-family="Monaco" font-size="10.00"> </text>
<polyline fill="none" stroke="black" points="26,-736.5 170,-736.5 "/>
<text text-anchor="start" x="34" y="-724.5" font-family="Monaco" font-size="10.00">+ ~IDescription()</text>
<text text-anchor="start" x="34" y="-713.5" font-family="Monaco" font-size="10.00">+ caption()</text>
<text text-anchor="start" x="34" y="-702.5" font-family="Monaco" font-size="10.00">+ setCaption()</text>
<text text-anchor="start" x="34" y="-691.5" font-family="Monaco" font-size="10.00">+ description()</text>
<text text-anchor="start" x="34" y="-680.5" font-family="Monaco" font-size="10.00">+ setDescription()</text>
</a>
</g>
</g>
<!-- Node5&#45;&gt;Node4 -->
<g id="edge4" class="edge">
<title>Node5&#45;&gt;Node4</title>
<path fill="none" stroke="midnightblue" d="M98,-663.17C98,-654.11 98,-645.05 98,-636.83"/>
<polygon fill="none" stroke="midnightblue" points="94.5,-663.36 98,-673.36 101.5,-663.36 94.5,-663.36"/>
</g>
<!-- Node6 -->
<g id="node6" class="node">
<title>Node6</title>
<g id="a_node6"><a xlink:href="../../dd/dbf/class_hydro_couple_1_1_i_property_changed.html" target="_top" xlink:title="IPropertyChanged interface is used to emit signal/event when a property of an object changes.">
<polygon fill="none" stroke="black" points="0,-811.5 0,-901.5 196,-901.5 196,-811.5 0,-811.5"/>
<text text-anchor="middle" x="98" y="-889.5" font-family="Monaco" font-size="10.00">HydroCouple::IPropertyChanged</text>
<polyline fill="none" stroke="black" points="0,-882.5 196,-882.5 "/>
<text text-anchor="middle" x="98" y="-870.5" font-family="Monaco" font-size="10.00"> </text>
<polyline fill="none" stroke="black" points="0,-863.5 196,-863.5 "/>
<text text-anchor="start" x="8" y="-851.5" font-family="Monaco" font-size="10.00">+ ~IPropertyChanged()</text>
<text text-anchor="start" x="8" y="-840.5" font-family="Monaco" font-size="10.00">+ registerPropertyChangedListener()</text>
<text text-anchor="start" x="8" y="-829.5" font-family="Monaco" font-size="10.00">+ deRegisterPropertyChanged</text>
<text text-anchor="start" x="8" y="-818.5" font-family="Monaco" font-size="10.00">Listener()</text>
</a>
</g>
</g>
<!-- Node6&#45;&gt;Node5 -->
<g id="edge5" class="edge">
<title>Node6&#45;&gt;Node5</title>
<path fill="none" stroke="midnightblue" d="M98,-801.13C98,-792.31 98,-783.22 98,-774.52"/>
<polygon fill="none" stroke="midnightblue" points="94.5,-801.32 98,-811.32 101.5,-801.32 94.5,-801.32"/>
</g>
</g>
</svg>
