<?xml version="1.0" encoding="UTF-8" standalone="no"?>
<!DOCTYPE svg PUBLIC "-//W3C//DTD SVG 1.1//EN"
 "http://www.w3.org/Graphics/SVG/1.1/DTD/svg11.dtd">
<!-- Generated by graphviz version 2.43.0 (0)
 -->
<!-- Title: HydroCouple::ICloneableModelComponent Pages: 1 -->
<!--zoomable 901 -->

<svg id="main" version="1.1" xmlns="http://www.w3.org/2000/svg" xmlns:xlink="http://www.w3.org/1999/xlink" xml:space="preserve" onload="init(evt)">
<style type="text/css"><![CDATA[
.node, .edge {opacity: 0.7;}
.node.selected, .edge.selected {opacity: 1;}
.edge:hover path { stroke: red; }
.edge:hover polygon { stroke: red; fill: red; }
]]></style>

<defs>
  <circle id="rim" cx="0" cy="0" r="7"/>
  <circle id="rim2" cx="0" cy="0" r="3.5"/>
  <g id="zoomPlus">
    <use xlink:href="#rim" fill="#404040"><set attributeName="fill" to="#808080" begin="zoomplus.mouseover" end="zoomplus.mouseout"/></use>
    <path d="M-4,0h8M0,-4v8" fill="none" stroke="white" stroke-width="1.5" pointer-events="none"/>
  </g>
  <g id="zoomMin">
    <use xlink:href="#rim" fill="#404040"><set attributeName="fill" to="#808080" begin="zoomminus.mouseover" end="zoomminus.mouseout"/></use>
    <path d="M-4,0h8" fill="none" stroke="white" stroke-width="1.5" pointer-events="none"/>
  </g>
  <g id="arrowUp" transform="translate(30 24)">
    <use xlink:href="#rim"/>
    <path pointer-events="none" fill="none" stroke="white" stroke-width="1.5" d="M0,-3.0v7 M-2.5,-0.5L0,-3.0L2.5,-0.5"/>
  </g>
  <g id="arrowRight" transform="rotate(90) translate(36 -43)">
    <use xlink:href="#rim"/>
    <path pointer-events="none" fill="none" stroke="white" stroke-width="1.5" d="M0,-3.0v7 M-2.5,-0.5L0,-3.0L2.5,-0.5"/>
  </g>
  <g id="arrowDown" transform="rotate(180) translate(-30 -48)">
    <use xlink:href="#rim"/>
    <path pointer-events="none" fill="none" stroke="white" stroke-width="1.5" d="M0,-3.0v7 M-2.5,-0.5L0,-3.0L2.5,-0.5"/>
  </g>
  <g id="arrowLeft" transform="rotate(270) translate(-36 17)">
    <use xlink:href="#rim"/>
    <path pointer-events="none" fill="none" stroke="white" stroke-width="1.5" d="M0,-3.0v7 M-2.5,-0.5L0,-3.0L2.5,-0.5"/>
  </g>
  <g id="resetDef">
    <use xlink:href="#rim2" fill="#404040"><set attributeName="fill" to="#808080" begin="reset.mouseover" end="reset.mouseout"/></use>
  </g>
</defs>
<script type="application/ecmascript">
var viewWidth = 343;
var viewHeight = 901;
var sectionId = 'dynsection-0';
</script>
<script type="application/ecmascript" xlink:href="../../svg.min.js"/>
<svg id="graph" class="graph">
<g id="viewport">
<title>HydroCouple::ICloneableModelComponent</title>
<!-- Node1 -->
<g id="Node000001" class="node">
<title>Node1</title>
<g id="a_Node000001"><a xlink:title="The ICloneableModelComponent class.">
<polygon fill="#999999" stroke="transparent" points="253,-105 78,-105 78,0 253,0 253,-105"/>
<text text-anchor="start" x="90.5" y="-92.5" font-family="Monaco" font-size="10.00">HydroCouple::ICloneableModel</text>
<text text-anchor="start" x="137.5" y="-81.5" font-family="Monaco" font-size="10.00">Component</text>
<text text-anchor="start" x="164" y="-66.5" font-family="Monaco" font-size="10.00"> </text>
<text text-anchor="start" x="82.5" y="-51.5" font-family="Monaco" font-size="10.00">+</text>
<text text-anchor="start" x="95.5" y="-51.5" font-family="Monaco" font-size="10.00">~ICloneableModelComponent()</text>
<text text-anchor="start" x="82.5" y="-36.5" font-family="Monaco" font-size="10.00">+</text>
<text text-anchor="start" x="95.5" y="-36.5" font-family="Monaco" font-size="10.00">parent()</text>
<text text-anchor="start" x="82.5" y="-21.5" font-family="Monaco" font-size="10.00">+</text>
<text text-anchor="start" x="95.5" y="-21.5" font-family="Monaco" font-size="10.00">clone()</text>
<text text-anchor="start" x="82.5" y="-6.5" font-family="Monaco" font-size="10.00">+</text>
<text text-anchor="start" x="95.5" y="-6.5" font-family="Monaco" font-size="10.00">clones()</text>
<polygon fill="#666666" stroke="#666666" points="78.5,-76.5 78.5,-76.5 253.5,-76.5 253.5,-76.5 78.5,-76.5"/>
<polygon fill="#666666" stroke="#666666" points="78.5,-61.5 78.5,-61.5 253.5,-61.5 253.5,-61.5 78.5,-61.5"/>
<polygon fill="none" stroke="#666666" points="78,0 78,-105 253,-105 253,0 78,0"/>
</a>
</g>
</g>
<!-- Node2 -->
<g id="Node000002" class="node">
<title>Node2</title>
<g id="a_Node000002"><a xlink:href="../../d3/dae/class_hydro_couple_1_1_i_model_component.html" target="_top" xlink:title="IModelComponent interface is the core interface in the HydroCouple standard defining a model componen...">
<polygon fill="white" stroke="transparent" points="250,-340 81,-340 81,-141 250,-141 250,-340"/>
<text text-anchor="start" x="86.5" y="-327.5" font-family="Monaco" font-size="10.00">HydroCouple::IModelComponent</text>
<text text-anchor="start" x="164" y="-312.5" font-family="Monaco" font-size="10.00"> </text>
<text text-anchor="start" x="96" y="-297.5" font-family="Monaco" font-size="10.00">+</text>
<text text-anchor="start" x="119.5" y="-297.5" font-family="Monaco" font-size="10.00">~IModelComponent()</text>
<text text-anchor="start" x="96" y="-282.5" font-family="Monaco" font-size="10.00">+</text>
<text text-anchor="start" x="119.5" y="-282.5" font-family="Monaco" font-size="10.00">componentInfo()</text>
<text text-anchor="start" x="96" y="-267.5" font-family="Monaco" font-size="10.00">+</text>
<text text-anchor="start" x="119.5" y="-267.5" font-family="Monaco" font-size="10.00">status()</text>
<text text-anchor="start" x="96" y="-252.5" font-family="Monaco" font-size="10.00">+</text>
<text text-anchor="start" x="119.5" y="-252.5" font-family="Monaco" font-size="10.00">arguments()</text>
<text text-anchor="start" x="96" y="-237.5" font-family="Monaco" font-size="10.00">+</text>
<text text-anchor="start" x="119.5" y="-237.5" font-family="Monaco" font-size="10.00">inputs()</text>
<text text-anchor="start" x="96" y="-222.5" font-family="Monaco" font-size="10.00">+</text>
<text text-anchor="start" x="119.5" y="-222.5" font-family="Monaco" font-size="10.00">outputs()</text>
<text text-anchor="start" x="96" y="-207.5" font-family="Monaco" font-size="10.00">+</text>
<text text-anchor="start" x="119.5" y="-207.5" font-family="Monaco" font-size="10.00">results()</text>
<text text-anchor="start" x="96" y="-192.5" font-family="Monaco" font-size="10.00">+</text>
<text text-anchor="start" x="119.5" y="-192.5" font-family="Monaco" font-size="10.00">initialize()</text>
<text text-anchor="start" x="96" y="-177.5" font-family="Monaco" font-size="10.00">+</text>
<text text-anchor="start" x="119.5" y="-177.5" font-family="Monaco" font-size="10.00">validate()</text>
<text text-anchor="start" x="96" y="-162.5" font-family="Monaco" font-size="10.00">+</text>
<text text-anchor="start" x="119.5" y="-162.5" font-family="Monaco" font-size="10.00">prepare()</text>
<text text-anchor="start" x="119.5" y="-147.5" font-family="Monaco" font-size="10.00">and 16 more...</text>
<polygon fill="#666666" stroke="#666666" points="81.5,-322.5 81.5,-322.5 250.5,-322.5 250.5,-322.5 81.5,-322.5"/>
<polygon fill="#666666" stroke="#666666" points="81.5,-307.5 81.5,-307.5 250.5,-307.5 250.5,-307.5 81.5,-307.5"/>
<polygon fill="none" stroke="#666666" points="81,-141 81,-340 250,-340 250,-141 81,-141"/>
</a>
</g>
</g>
<!-- Node2&#45;&gt;Node1 -->
<g id="edge1_Node000001_Node000002" class="edge">
<title>Node2&#45;&gt;Node1</title>
<g id="a_edge1_Node000001_Node000002"><a xlink:title=" ">
<path fill="none" stroke="#63b8ff" d="M165.5,-130.7C165.5,-121.83 165.5,-113.16 165.5,-105.02"/>
<polygon fill="none" stroke="#63b8ff" points="162,-130.78 165.5,-140.78 169,-130.78 162,-130.78"/>
</a>
</g>
</g>
<!-- Node3 -->
<g id="Node000003" class="node">
<title>Node3</title>
<g id="a_Node000003"><a xlink:href="../../d2/d2a/class_hydro_couple_1_1_i_identity.html" target="_top" xlink:title="IIdentity interface class defines a method to get the Id of an HydroCouple entity.">
<polygon fill="white" stroke="transparent" points="143.5,-473.5 23.5,-473.5 23.5,-409.5 143.5,-409.5 143.5,-473.5"/>
<text text-anchor="start" x="28.5" y="-461.5" font-family="Monaco" font-size="10.00">HydroCouple::IIdentity</text>
<text text-anchor="start" x="81.5" y="-446.5" font-family="Monaco" font-size="10.00"> </text>
<text text-anchor="start" x="38" y="-431.5" font-family="Monaco" font-size="10.00">+</text>
<text text-anchor="start" x="61.5" y="-431.5" font-family="Monaco" font-size="10.00">~IIdentity()</text>
<text text-anchor="start" x="38" y="-416.5" font-family="Monaco" font-size="10.00">+</text>
<text text-anchor="start" x="61.5" y="-416.5" font-family="Monaco" font-size="10.00">id()</text>
<polygon fill="#666666" stroke="#666666" points="23.5,-456.5 23.5,-456.5 143.5,-456.5 143.5,-456.5 23.5,-456.5"/>
<polygon fill="#666666" stroke="#666666" points="23.5,-441.5 23.5,-441.5 143.5,-441.5 143.5,-441.5 23.5,-441.5"/>
<polygon fill="none" stroke="#666666" points="23.5,-409.5 23.5,-473.5 143.5,-473.5 143.5,-409.5 23.5,-409.5"/>
</a>
</g>
</g>
<!-- Node3&#45;&gt;Node2 -->
<g id="edge2_Node000002_Node000003" class="edge">
<title>Node3&#45;&gt;Node2</title>
<g id="a_edge2_Node000002_Node000003"><a xlink:title=" ">
<path fill="none" stroke="#63b8ff" d="M100.12,-400.15C107.29,-382.76 116.02,-361.57 124.74,-340.42"/>
<polygon fill="none" stroke="#63b8ff" points="96.89,-398.83 96.31,-409.41 103.36,-401.49 96.89,-398.83"/>
</a>
</g>
</g>
<!-- Node4 -->
<g id="Node000004" class="node">
<title>Node4</title>
<g id="a_Node000004"><a xlink:href="../../db/d64/class_hydro_couple_1_1_i_description.html" target="_top" xlink:title="IDescription interface class provides descriptive information on a HydroCouple object.">
<polygon fill="white" stroke="transparent" points="152.5,-652 14.5,-652 14.5,-543 152.5,-543 152.5,-652"/>
<text text-anchor="start" x="19.5" y="-639.5" font-family="Monaco" font-size="10.00">HydroCouple::IDescription</text>
<text text-anchor="start" x="81.5" y="-624.5" font-family="Monaco" font-size="10.00"> </text>
<text text-anchor="start" x="28" y="-609.5" font-family="Monaco" font-size="10.00">+</text>
<text text-anchor="start" x="50.5" y="-609.5" font-family="Monaco" font-size="10.00">~IDescription()</text>
<text text-anchor="start" x="28" y="-594.5" font-family="Monaco" font-size="10.00">+</text>
<text text-anchor="start" x="50.5" y="-594.5" font-family="Monaco" font-size="10.00">caption()</text>
<text text-anchor="start" x="28" y="-579.5" font-family="Monaco" font-size="10.00">+</text>
<text text-anchor="start" x="50.5" y="-579.5" font-family="Monaco" font-size="10.00">setCaption()</text>
<text text-anchor="start" x="28" y="-564.5" font-family="Monaco" font-size="10.00">+</text>
<text text-anchor="start" x="50.5" y="-564.5" font-family="Monaco" font-size="10.00">description()</text>
<text text-anchor="start" x="28" y="-549.5" font-family="Monaco" font-size="10.00">+</text>
<text text-anchor="start" x="50.5" y="-549.5" font-family="Monaco" font-size="10.00">setDescription()</text>
<polygon fill="#666666" stroke="#666666" points="14.5,-634.5 14.5,-634.5 152.5,-634.5 152.5,-634.5 14.5,-634.5"/>
<polygon fill="#666666" stroke="#666666" points="14.5,-619.5 14.5,-619.5 152.5,-619.5 152.5,-619.5 14.5,-619.5"/>
<polygon fill="none" stroke="#666666" points="14.5,-543 14.5,-652 152.5,-652 152.5,-543 14.5,-543"/>
</a>
</g>
</g>
<!-- Node4&#45;&gt;Node3 -->
<g id="edge3_Node000003_Node000004" class="edge">
<title>Node4&#45;&gt;Node3</title>
<g id="a_edge3_Node000003_Node000004"><a xlink:title=" ">
<path fill="none" stroke="#63b8ff" d="M83.5,-532.47C83.5,-512.15 83.5,-490.58 83.5,-473.66"/>
<polygon fill="none" stroke="#63b8ff" points="80,-532.64 83.5,-542.64 87,-532.64 80,-532.64"/>
</a>
</g>
</g>
<!-- Node5 -->
<g id="Node000005" class="node">
<title>Node5</title>
<g id="a_Node000005"><a xlink:href="../../dd/dbf/class_hydro_couple_1_1_i_property_changed.html" target="_top" xlink:title="IPropertyChanged interface is used to emit signal/event when a property of an object changes.">
<polygon fill="white" stroke="transparent" points="167,-737 0,-737 0,-688 167,-688 167,-737"/>
<text text-anchor="start" x="5.5" y="-724.5" font-family="Monaco" font-size="10.00">HydroCouple::IPropertyChanged</text>
<text text-anchor="start" x="82" y="-709.5" font-family="Monaco" font-size="10.00"> </text>
<text text-anchor="start" x="15" y="-694.5" font-family="Monaco" font-size="10.00">+</text>
<text text-anchor="start" x="38.5" y="-694.5" font-family="Monaco" font-size="10.00">~IPropertyChanged()</text>
<polygon fill="#666666" stroke="#666666" points="0.5,-719.5 0.5,-719.5 167.5,-719.5 167.5,-719.5 0.5,-719.5"/>
<polygon fill="#666666" stroke="#666666" points="0.5,-704.5 0.5,-704.5 167.5,-704.5 167.5,-704.5 0.5,-704.5"/>
<polygon fill="none" stroke="#666666" points="0,-688 0,-737 167,-737 167,-688 0,-688"/>
</a>
</g>
</g>
<!-- Node5&#45;&gt;Node4 -->
<g id="edge4_Node000004_Node000005" class="edge">
<title>Node5&#45;&gt;Node4</title>
<g id="a_edge4_Node000004_Node000005"><a xlink:title=" ">
<path fill="none" stroke="#63b8ff" d="M83.5,-677.79C83.5,-669.79 83.5,-661.06 83.5,-652.41"/>
<polygon fill="none" stroke="#63b8ff" points="80,-677.81 83.5,-687.81 87,-677.81 80,-677.81"/>
</a>
</g>
</g>
<!-- Node6 -->
<g id="Node000006" class="node">
<title>Node6</title>
<g id="a_Node000006"><a xlink:href="../../d5/d8b/class_hydro_couple_1_1_i_signal.html" target="_top" xlink:title=" ">
<polygon fill="white" stroke="transparent" points="140,-893 27,-893 27,-773 140,-773 140,-893"/>
<text text-anchor="start" x="32.5" y="-881" font-family="Monaco" font-size="10.00">HydroCouple::ISignal</text>
<text text-anchor="start" x="58.5" y="-870" font-family="Monaco" font-size="10.00">&lt; string &gt;</text>
<text text-anchor="start" x="82" y="-855" font-family="Monaco" font-size="10.00"> </text>
<text text-anchor="start" x="37" y="-840" font-family="Monaco" font-size="10.00">+</text>
<text text-anchor="start" x="55.5" y="-840" font-family="Monaco" font-size="10.00">~ISignal()</text>
<text text-anchor="start" x="37" y="-825" font-family="Monaco" font-size="10.00">+</text>
<text text-anchor="start" x="55.5" y="-825" font-family="Monaco" font-size="10.00">connect()</text>
<text text-anchor="start" x="37" y="-810" font-family="Monaco" font-size="10.00">+</text>
<text text-anchor="start" x="55.5" y="-810" font-family="Monaco" font-size="10.00">disconnect()</text>
<text text-anchor="start" x="37" y="-795" font-family="Monaco" font-size="10.00">+</text>
<text text-anchor="start" x="55.5" y="-795" font-family="Monaco" font-size="10.00">blockSignals()</text>
<text text-anchor="start" x="37" y="-780" font-family="Monaco" font-size="10.00">#</text>
<text text-anchor="start" x="55.5" y="-780" font-family="Monaco" font-size="10.00">emit()</text>
<polygon fill="#666666" stroke="#666666" points="27.5,-865 27.5,-865 140.5,-865 140.5,-865 27.5,-865"/>
<polygon fill="#666666" stroke="#666666" points="27.5,-850 27.5,-850 140.5,-850 140.5,-850 27.5,-850"/>
<polygon fill="none" stroke="#666666" points="27,-773 27,-893 140,-893 140,-773 27,-773"/>
</a>
</g>
</g>
<!-- Node6&#45;&gt;Node5 -->
<g id="edge5_Node000005_Node000006" class="edge">
<title>Node6&#45;&gt;Node5</title>
<g id="a_edge5_Node000005_Node000006"><a xlink:title=" ">
<path fill="none" stroke="#63b8ff" d="M83.5,-762.74C83.5,-753.6 83.5,-744.78 83.5,-737.2"/>
<polygon fill="none" stroke="#63b8ff" points="80,-762.75 83.5,-772.75 87,-762.75 80,-762.75"/>
</a>
</g>
</g>
<!-- Node7 -->
<g id="Node000007" class="node">
<title>Node7</title>
<g id="a_Node000007"><a xlink:href="../../d5/d8b/class_hydro_couple_1_1_i_signal.html" target="_top" xlink:title=" ">
<polygon fill="white" stroke="transparent" points="335,-507 162,-507 162,-376 335,-376 335,-507"/>
<text text-anchor="start" x="167.5" y="-494.5" font-family="Monaco" font-size="10.00">HydroCouple::ISignal</text>
<text text-anchor="start" x="167.5" y="-483.5" font-family="Monaco" font-size="10.00">&lt; const shared_ptr&lt; IComponent</text>
<text text-anchor="start" x="173.5" y="-472.5" font-family="Monaco" font-size="10.00">StatusChangeEventArgs &gt; &amp; &gt;</text>
<text text-anchor="start" x="247" y="-457.5" font-family="Monaco" font-size="10.00"> </text>
<text text-anchor="start" x="187" y="-442.5" font-family="Monaco" font-size="10.00">+</text>
<text text-anchor="start" x="220.5" y="-442.5" font-family="Monaco" font-size="10.00">~ISignal()</text>
<text text-anchor="start" x="187" y="-427.5" font-family="Monaco" font-size="10.00">+</text>
<text text-anchor="start" x="220.5" y="-427.5" font-family="Monaco" font-size="10.00">connect()</text>
<text text-anchor="start" x="187" y="-412.5" font-family="Monaco" font-size="10.00">+</text>
<text text-anchor="start" x="220.5" y="-412.5" font-family="Monaco" font-size="10.00">disconnect()</text>
<text text-anchor="start" x="187" y="-397.5" font-family="Monaco" font-size="10.00">+</text>
<text text-anchor="start" x="220.5" y="-397.5" font-family="Monaco" font-size="10.00">blockSignals()</text>
<text text-anchor="start" x="187" y="-382.5" font-family="Monaco" font-size="10.00">#</text>
<text text-anchor="start" x="220.5" y="-382.5" font-family="Monaco" font-size="10.00">emit()</text>
<polygon fill="#666666" stroke="#666666" points="162.5,-467.5 162.5,-467.5 335.5,-467.5 335.5,-467.5 162.5,-467.5"/>
<polygon fill="#666666" stroke="#666666" points="162.5,-452.5 162.5,-452.5 335.5,-452.5 335.5,-452.5 162.5,-452.5"/>
<polygon fill="none" stroke="#666666" points="162,-376 162,-507 335,-507 335,-376 162,-376"/>
</a>
</g>
</g>
<!-- Node7&#45;&gt;Node2 -->
<g id="edge6_Node000002_Node000007" class="edge">
<title>Node7&#45;&gt;Node2</title>
<g id="a_edge6_Node000002_Node000007"><a xlink:title=" ">
<path fill="none" stroke="#63b8ff" d="M217.69,-366.62C214.08,-357.96 210.35,-349.03 206.63,-340.11"/>
<polygon fill="none" stroke="#63b8ff" points="214.47,-368.01 221.55,-375.89 220.93,-365.31 214.47,-368.01"/>
</a>
</g>
</g>
</g>
</svg>

<g id="navigator" transform="translate(0 0)" fill="#404254">
  <rect fill="#f2f5e9" fill-opacity="0.5" stroke="#606060" stroke-width=".5" x="0" y="0" width="60" height="60"/>
  <use id="zoomplus" xlink:href="#zoomPlus" x="17" y="9" onmousedown="handleZoom(evt,'in')"/>
  <use id="zoomminus" xlink:href="#zoomMin" x="42" y="9" onmousedown="handleZoom(evt,'out')"/>
  <use id="reset" xlink:href="#resetDef" x="30" y="36" onmousedown="handleReset()"/>
   <use id="arrowup" xlink:href="#arrowUp" x="0" y="0" onmousedown="handlePan(0,-1)"/>
  <use id="arrowright" xlink:href="#arrowRight" x="0" y="0" onmousedown="handlePan(1,0)"/>
  <use id="arrowdown" xlink:href="#arrowDown" x="0" y="0" onmousedown="handlePan(0,1)"/>
  <use id="arrowleft" xlink:href="#arrowLeft" x="0" y="0" onmousedown="handlePan(-1,0)"/>
</g>
<svg viewBox="0 0 15 15" width="100%" height="30px" preserveAspectRatio="xMaxYMin meet">
 <g id="arrow_out" transform="scale(0.3 0.3)">
  <a xlink:href="class_hydro_couple_1_1_i_cloneable_model_component__inherit__graph_org.svg" target="_base">
   <rect id="button" ry="5" rx="5" y="6" x="6" height="38" width="38"
        fill="#f2f5e9" fill-opacity="0.5" stroke="#606060" stroke-width="1.0"/>
   <path id="arrow"
     d="M 11.500037,31.436501 C 11.940474,20.09759 22.043105,11.32322 32.158766,21.979434 L 37.068811,17.246167 C 37.068811,17.246167 37.088388,32 37.088388,32 L 22.160133,31.978069 C 22.160133,31.978069 26.997745,27.140456 26.997745,27.140456 C 18.528582,18.264221 13.291696,25.230495 11.500037,31.436501 z"
     style="fill:#404040;"/>
  </a>
 </g>
</svg>

<style type='text/css'>
<![CDATA[
[data-mouse-over-selected='false'] { opacity: 0.7; }
[data-mouse-over-selected='true']  { opacity: 1.0; }
]]>
</style>
<script type="application/ecmascript"><![CDATA[
document.addEventListener('DOMContentLoaded', (event) => {
  highlightEdges();
  highlightAdjacentNodes();
});
]]></script>
</svg>
