<?xml version="1.0" encoding="UTF-8" standalone="no"?>
<!DOCTYPE svg PUBLIC "-//W3C//DTD SVG 1.1//EN"
 "http://www.w3.org/Graphics/SVG/1.1/DTD/svg11.dtd">
<!-- Generated by graphviz version 2.43.0 (0)
 -->
<!-- Title: WKBGeometry Pages: 1 -->
<svg width="907pt" height="710pt"
 viewBox="0.00 0.00 907.35 710.00" xmlns="http://www.w3.org/2000/svg" xmlns:xlink="http://www.w3.org/1999/xlink">
<g id="graph0" class="graph" transform="scale(1 1) rotate(0) translate(4 706)">
<title>WKBGeometry</title>
<!-- Node1 -->
<g id="Node000001" class="node">
<title>Node1</title>
<g id="a_Node000001"><a xlink:title="The WKBGeometry union.">
<polygon fill="#999999" stroke="transparent" points="443.85,-175 360.85,-175 360.85,-126 443.85,-126 443.85,-175"/>
<text text-anchor="start" x="366.35" y="-162.5" font-family="Monaco" font-size="10.00">WKBGeometry</text>
<text text-anchor="start" x="400.85" y="-147.5" font-family="Monaco" font-size="10.00"> </text>
<text text-anchor="start" x="400.85" y="-132.5" font-family="Monaco" font-size="10.00"> </text>
<polygon fill="#666666" stroke="#666666" points="361.35,-157.5 361.35,-157.5 444.35,-157.5 444.35,-157.5 361.35,-157.5"/>
<polygon fill="#666666" stroke="#666666" points="361.35,-142.5 361.35,-142.5 444.35,-142.5 444.35,-142.5 361.35,-142.5"/>
<polygon fill="none" stroke="#666666" points="360.85,-126 360.85,-175 443.85,-175 443.85,-126 360.85,-126"/>
</a>
</g>
</g>
<!-- Node13 -->
<g id="Node000013" class="node">
<title>Node13</title>
<g id="a_Node000013"><a xlink:href="../../d4/d04/struct_w_k_b_geometry_collection.html" target="_top" xlink:title="The WKBGeometryCollection struct.">
<polygon fill="white" stroke="transparent" points="467.85,-79 336.85,-79 336.85,0 467.85,0 467.85,-79"/>
<text text-anchor="start" x="342.35" y="-66.5" font-family="Monaco" font-size="10.00">WKBGeometryCollection</text>
<text text-anchor="start" x="348.85" y="-51.5" font-family="Monaco" font-size="10.00">+</text>
<text text-anchor="start" x="369.35" y="-51.5" font-family="Monaco" font-size="10.00">byte_order</text>
<text text-anchor="start" x="348.85" y="-36.5" font-family="Monaco" font-size="10.00">+</text>
<text text-anchor="start" x="369.35" y="-36.5" font-family="Monaco" font-size="10.00">numGeometries</text>
<text text-anchor="start" x="348.85" y="-21.5" font-family="Monaco" font-size="10.00">+</text>
<text text-anchor="start" x="369.35" y="-21.5" font-family="Monaco" font-size="10.00">wkbType</text>
<text text-anchor="start" x="400.85" y="-6.5" font-family="Monaco" font-size="10.00"> </text>
<polygon fill="#666666" stroke="#666666" points="337.35,-61.5 337.35,-61.5 468.35,-61.5 468.35,-61.5 337.35,-61.5"/>
<polygon fill="#666666" stroke="#666666" points="337.35,-16.5 337.35,-16.5 367.35,-16.5 367.35,-16.5 337.35,-16.5"/>
<polygon fill="#666666" stroke="#666666" points="367.35,-16.5 367.35,-16.5 468.35,-16.5 468.35,-16.5 367.35,-16.5"/>
<polygon fill="none" stroke="#666666" points="336.85,0 336.85,-79 467.85,-79 467.85,0 336.85,0"/>
</a>
</g>
</g>
<!-- Node1&#45;&gt;Node13 -->
<g id="edge21_Node000013_Node000001" class="edge">
<title>Node1&#45;&gt;Node13</title>
<g id="a_edge21_Node000013_Node000001"><a xlink:title=" ">
<path fill="none" stroke="#63b8ff" d="M363.93,-125.86C355.64,-117.66 350.39,-107.78 354.35,-97 355.23,-94.59 356.27,-92.22 357.43,-89.89"/>
<polygon fill="none" stroke="#63b8ff" points="357.57,-89.65 357.17,-82.45 363.66,-79.31 364.06,-86.51 357.57,-89.65"/>
</a>
</g>
<text text-anchor="middle" x="387.85" y="-100" font-family="Monaco" font-size="10.00" fill="grey"> +geometries</text>
</g>
<!-- Node2 -->
<g id="Node000002" class="node">
<title>Node2</title>
<g id="a_Node000002"><a xlink:href="../../d9/db2/struct_w_k_b_point.html" target="_top" xlink:title="The WKBPoint struct.">
<polygon fill="white" stroke="transparent" points="139.35,-487.5 69.35,-487.5 69.35,-423.5 139.35,-423.5 139.35,-487.5"/>
<text text-anchor="start" x="79.85" y="-475.5" font-family="Monaco" font-size="10.00">WKBPoint</text>
<text text-anchor="start" x="73.35" y="-460.5" font-family="Monaco" font-size="10.00">+</text>
<text text-anchor="start" x="86.35" y="-460.5" font-family="Monaco" font-size="10.00">byteOrder</text>
<text text-anchor="start" x="73.35" y="-445.5" font-family="Monaco" font-size="10.00">+</text>
<text text-anchor="start" x="86.35" y="-445.5" font-family="Monaco" font-size="10.00">wkbType</text>
<text text-anchor="start" x="102.35" y="-430.5" font-family="Monaco" font-size="10.00"> </text>
<polygon fill="#666666" stroke="#666666" points="69.35,-470.5 69.35,-470.5 139.35,-470.5 139.35,-470.5 69.35,-470.5"/>
<polygon fill="#666666" stroke="#666666" points="69.35,-440.5 69.35,-440.5 84.35,-440.5 84.35,-440.5 69.35,-440.5"/>
<polygon fill="#666666" stroke="#666666" points="84.35,-440.5 84.35,-440.5 139.35,-440.5 139.35,-440.5 84.35,-440.5"/>
<polygon fill="none" stroke="#666666" points="69.35,-423.5 69.35,-487.5 139.35,-487.5 139.35,-423.5 69.35,-423.5"/>
</a>
</g>
</g>
<!-- Node2&#45;&gt;Node1 -->
<g id="edge1_Node000001_Node000002" class="edge">
<title>Node2&#45;&gt;Node1</title>
<g id="a_edge1_Node000001_Node000002"><a xlink:title=" ">
<path fill="none" stroke="#63b8ff" d="M74.85,-423.29C33.86,-376.05 -30.29,-285.2 16.35,-222 55.1,-169.49 252.07,-156.09 348.72,-152.67"/>
<polygon fill="none" stroke="#63b8ff" points="348.83,-152.67 354.7,-148.47 360.82,-152.28 354.96,-156.47 348.83,-152.67"/>
</a>
</g>
<text text-anchor="middle" x="34.85" y="-259" font-family="Monaco" font-size="10.00" fill="grey"> +point</text>
</g>
<!-- Node10 -->
<g id="Node000010" class="node">
<title>Node10</title>
<g id="a_Node000010"><a xlink:href="../../df/dc9/struct_w_k_b_multi_point.html" target="_top" xlink:title="The WKBMultiPoint struct.">
<polygon fill="white" stroke="transparent" points="145.85,-301 62.85,-301 62.85,-222 145.85,-222 145.85,-301"/>
<text text-anchor="start" x="68.35" y="-288.5" font-family="Monaco" font-size="10.00">WKBMultiPoint</text>
<text text-anchor="start" x="69.85" y="-273.5" font-family="Monaco" font-size="10.00">+</text>
<text text-anchor="start" x="85.35" y="-273.5" font-family="Monaco" font-size="10.00">byteOrder</text>
<text text-anchor="start" x="69.85" y="-258.5" font-family="Monaco" font-size="10.00">+</text>
<text text-anchor="start" x="85.35" y="-258.5" font-family="Monaco" font-size="10.00">numPoints</text>
<text text-anchor="start" x="69.85" y="-243.5" font-family="Monaco" font-size="10.00">+</text>
<text text-anchor="start" x="85.35" y="-243.5" font-family="Monaco" font-size="10.00">wkbType</text>
<text text-anchor="start" x="102.85" y="-228.5" font-family="Monaco" font-size="10.00"> </text>
<polygon fill="#666666" stroke="#666666" points="63.35,-283.5 63.35,-283.5 146.35,-283.5 146.35,-283.5 63.35,-283.5"/>
<polygon fill="#666666" stroke="#666666" points="63.35,-238.5 63.35,-238.5 83.35,-238.5 83.35,-238.5 63.35,-238.5"/>
<polygon fill="#666666" stroke="#666666" points="83.35,-238.5 83.35,-238.5 146.35,-238.5 146.35,-238.5 83.35,-238.5"/>
<polygon fill="none" stroke="#666666" points="62.85,-222 62.85,-301 145.85,-301 145.85,-222 62.85,-222"/>
</a>
</g>
</g>
<!-- Node2&#45;&gt;Node10 -->
<g id="edge15_Node000010_Node000002" class="edge">
<title>Node2&#45;&gt;Node10</title>
<g id="a_edge15_Node000010_Node000002"><a xlink:title=" ">
<path fill="none" stroke="#63b8ff" d="M104.35,-423.22C104.35,-393.51 104.35,-348.3 104.35,-313.4"/>
<polygon fill="none" stroke="#63b8ff" points="104.35,-313.05 100.35,-307.05 104.35,-301.05 108.35,-307.05 104.35,-313.05"/>
</a>
</g>
<text text-anchor="middle" x="125.35" y="-356" font-family="Monaco" font-size="10.00" fill="grey"> +points</text>
</g>
<!-- Node3 -->
<g id="Node000003" class="node">
<title>Node3</title>
<g id="a_Node000003"><a xlink:href="../../d8/dc8/struct_point.html" target="_top" xlink:title="The Point struct.">
<polygon fill="white" stroke="transparent" points="278.85,-702 243.85,-702 243.85,-638 278.85,-638 278.85,-702"/>
<text text-anchor="start" x="249.35" y="-690" font-family="Monaco" font-size="10.00">Point</text>
<text text-anchor="start" x="249.85" y="-675" font-family="Monaco" font-size="10.00">+</text>
<text text-anchor="start" x="264.35" y="-675" font-family="Monaco" font-size="10.00">x</text>
<text text-anchor="start" x="249.85" y="-660" font-family="Monaco" font-size="10.00">+</text>
<text text-anchor="start" x="264.35" y="-660" font-family="Monaco" font-size="10.00">y</text>
<text text-anchor="start" x="259.85" y="-645" font-family="Monaco" font-size="10.00"> </text>
<polygon fill="#666666" stroke="#666666" points="244.35,-685 244.35,-685 279.35,-685 279.35,-685 244.35,-685"/>
<polygon fill="#666666" stroke="#666666" points="244.35,-655 244.35,-655 262.35,-655 262.35,-655 244.35,-655"/>
<polygon fill="#666666" stroke="#666666" points="262.35,-655 262.35,-655 279.35,-655 279.35,-655 262.35,-655"/>
<polygon fill="none" stroke="#666666" points="243.85,-638 243.85,-702 278.85,-702 278.85,-638 243.85,-638"/>
</a>
</g>
</g>
<!-- Node3&#45;&gt;Node2 -->
<g id="edge2_Node000002_Node000003" class="edge">
<title>Node3&#45;&gt;Node2</title>
<g id="a_edge2_Node000002_Node000003"><a xlink:title=" ">
<path fill="none" stroke="#63b8ff" d="M243.64,-645.04C217.16,-609.19 166.88,-541.14 134.53,-497.35"/>
<polygon fill="none" stroke="#63b8ff" points="134.44,-497.23 127.66,-494.78 127.31,-487.58 134.09,-490.03 134.44,-497.23"/>
</a>
</g>
<text text-anchor="middle" x="222.85" y="-564" font-family="Monaco" font-size="10.00" fill="grey"> +point</text>
</g>
<!-- Node4 -->
<g id="Node000004" class="node">
<title>Node4</title>
<g id="a_Node000004"><a xlink:href="../../dd/d46/struct_w_k_b_line_string.html" target="_top" xlink:title="The WKBLineString struct.">
<polygon fill="white" stroke="transparent" points="302.85,-495 219.85,-495 219.85,-416 302.85,-416 302.85,-495"/>
<text text-anchor="start" x="225.35" y="-482.5" font-family="Monaco" font-size="10.00">WKBLineString</text>
<text text-anchor="start" x="226.85" y="-467.5" font-family="Monaco" font-size="10.00">+</text>
<text text-anchor="start" x="242.35" y="-467.5" font-family="Monaco" font-size="10.00">byteOrder</text>
<text text-anchor="start" x="226.85" y="-452.5" font-family="Monaco" font-size="10.00">+</text>
<text text-anchor="start" x="242.35" y="-452.5" font-family="Monaco" font-size="10.00">numPoints</text>
<text text-anchor="start" x="226.85" y="-437.5" font-family="Monaco" font-size="10.00">+</text>
<text text-anchor="start" x="242.35" y="-437.5" font-family="Monaco" font-size="10.00">wkbType</text>
<text text-anchor="start" x="259.85" y="-422.5" font-family="Monaco" font-size="10.00"> </text>
<polygon fill="#666666" stroke="#666666" points="220.35,-477.5 220.35,-477.5 303.35,-477.5 303.35,-477.5 220.35,-477.5"/>
<polygon fill="#666666" stroke="#666666" points="220.35,-432.5 220.35,-432.5 240.35,-432.5 240.35,-432.5 220.35,-432.5"/>
<polygon fill="#666666" stroke="#666666" points="240.35,-432.5 240.35,-432.5 303.35,-432.5 303.35,-432.5 240.35,-432.5"/>
<polygon fill="none" stroke="#666666" points="219.85,-416 219.85,-495 302.85,-495 302.85,-416 219.85,-416"/>
</a>
</g>
</g>
<!-- Node3&#45;&gt;Node4 -->
<g id="edge4_Node000004_Node000003" class="edge">
<title>Node3&#45;&gt;Node4</title>
<g id="a_edge4_Node000004_Node000003"><a xlink:title=" ">
<path fill="none" stroke="#63b8ff" d="M261.35,-637.64C261.35,-603.33 261.35,-547.8 261.35,-507.26"/>
<polygon fill="none" stroke="#63b8ff" points="261.35,-507.2 257.35,-501.2 261.35,-495.2 265.35,-501.2 261.35,-507.2"/>
</a>
</g>
<text text-anchor="middle" x="282.35" y="-564" font-family="Monaco" font-size="10.00" fill="grey"> +points</text>
</g>
<!-- Node6 -->
<g id="Node000006" class="node">
<title>Node6</title>
<g id="a_Node000006"><a xlink:href="../../d6/db5/struct_linear_ring.html" target="_top" xlink:title="The LinearRing struct.">
<polygon fill="white" stroke="transparent" points="623.85,-591 550.85,-591 550.85,-542 623.85,-542 623.85,-591"/>
<text text-anchor="start" x="561.85" y="-578.5" font-family="Monaco" font-size="10.00">LinearRing</text>
<text text-anchor="start" x="555.35" y="-563.5" font-family="Monaco" font-size="10.00">+</text>
<text text-anchor="start" x="568.35" y="-563.5" font-family="Monaco" font-size="10.00">numPoints</text>
<text text-anchor="start" x="585.85" y="-548.5" font-family="Monaco" font-size="10.00"> </text>
<polygon fill="#666666" stroke="#666666" points="551.35,-573.5 551.35,-573.5 624.35,-573.5 624.35,-573.5 551.35,-573.5"/>
<polygon fill="#666666" stroke="#666666" points="551.35,-558.5 551.35,-558.5 566.35,-558.5 566.35,-558.5 551.35,-558.5"/>
<polygon fill="#666666" stroke="#666666" points="566.35,-558.5 566.35,-558.5 624.35,-558.5 624.35,-558.5 566.35,-558.5"/>
<polygon fill="none" stroke="#666666" points="550.85,-542 550.85,-591 623.85,-591 623.85,-542 550.85,-542"/>
</a>
</g>
</g>
<!-- Node3&#45;&gt;Node6 -->
<g id="edge7_Node000006_Node000003" class="edge">
<title>Node3&#45;&gt;Node6</title>
<g id="a_edge7_Node000006_Node000003"><a xlink:title=" ">
<path fill="none" stroke="#63b8ff" d="M278.88,-663.54C327.42,-648.43 464.91,-605.62 538.86,-582.6"/>
<polygon fill="none" stroke="#63b8ff" points="539.13,-582.51 543.67,-576.91 550.59,-578.94 546.05,-584.55 539.13,-582.51"/>
</a>
</g>
<text text-anchor="middle" x="475.35" y="-612" font-family="Monaco" font-size="10.00" fill="grey"> +points</text>
</g>
<!-- Node4&#45;&gt;Node1 -->
<g id="edge3_Node000001_Node000004" class="edge">
<title>Node4&#45;&gt;Node1</title>
<g id="a_edge3_Node000001_Node000004"><a xlink:title=" ">
<path fill="none" stroke="#63b8ff" d="M230.6,-415.69C195.68,-366.55 148.73,-281.18 191.35,-222 226.93,-172.59 298.7,-157.3 348.6,-152.84"/>
<polygon fill="none" stroke="#63b8ff" points="348.81,-152.83 354.49,-148.39 360.78,-151.93 355.09,-156.37 348.81,-152.83"/>
</a>
</g>
<text text-anchor="middle" x="220.35" y="-259" font-family="Monaco" font-size="10.00" fill="grey"> +linestring</text>
</g>
<!-- Node11 -->
<g id="Node000011" class="node">
<title>Node11</title>
<g id="a_Node000011"><a xlink:href="../../dc/dda/struct_w_k_b_multi_line_string.html" target="_top" xlink:title="The WKBMultiLineString struct.">
<polygon fill="white" stroke="transparent" points="365.85,-301 258.85,-301 258.85,-222 365.85,-222 365.85,-301"/>
<text text-anchor="start" x="264.35" y="-288.5" font-family="Monaco" font-size="10.00">WKBMultiLineString</text>
<text text-anchor="start" x="265.85" y="-273.5" font-family="Monaco" font-size="10.00">+</text>
<text text-anchor="start" x="281.35" y="-273.5" font-family="Monaco" font-size="10.00">byteOrder</text>
<text text-anchor="start" x="265.85" y="-258.5" font-family="Monaco" font-size="10.00">+</text>
<text text-anchor="start" x="281.35" y="-258.5" font-family="Monaco" font-size="10.00">numLineStrings</text>
<text text-anchor="start" x="265.85" y="-243.5" font-family="Monaco" font-size="10.00">+</text>
<text text-anchor="start" x="281.35" y="-243.5" font-family="Monaco" font-size="10.00">wkbType</text>
<text text-anchor="start" x="310.85" y="-228.5" font-family="Monaco" font-size="10.00"> </text>
<polygon fill="#666666" stroke="#666666" points="259.35,-283.5 259.35,-283.5 366.35,-283.5 366.35,-283.5 259.35,-283.5"/>
<polygon fill="#666666" stroke="#666666" points="259.35,-238.5 259.35,-238.5 279.35,-238.5 279.35,-238.5 259.35,-238.5"/>
<polygon fill="#666666" stroke="#666666" points="279.35,-238.5 279.35,-238.5 366.35,-238.5 366.35,-238.5 279.35,-238.5"/>
<polygon fill="none" stroke="#666666" points="258.85,-222 258.85,-301 365.85,-301 365.85,-222 258.85,-222"/>
</a>
</g>
</g>
<!-- Node4&#45;&gt;Node11 -->
<g id="edge17_Node000011_Node000004" class="edge">
<title>Node4&#45;&gt;Node11</title>
<g id="a_edge17_Node000011_Node000004"><a xlink:title=" ">
<path fill="none" stroke="#63b8ff" d="M271.67,-415.65C279.52,-386.11 290.38,-345.22 298.9,-313.13"/>
<polygon fill="none" stroke="#63b8ff" points="298.96,-312.89 296.64,-306.07 302.04,-301.3 304.37,-308.12 298.96,-312.89"/>
</a>
</g>
<text text-anchor="middle" x="329.35" y="-356" font-family="Monaco" font-size="10.00" fill="grey"> +lineStrings</text>
</g>
<!-- Node5 -->
<g id="Node000005" class="node">
<title>Node5</title>
<g id="a_Node000005"><a xlink:href="../../df/df9/struct_w_k_b_polygon.html" target="_top" xlink:title="The WKBPolygon struct.">
<polygon fill="white" stroke="transparent" points="623.85,-495 550.85,-495 550.85,-416 623.85,-416 623.85,-495"/>
<text text-anchor="start" x="556.35" y="-482.5" font-family="Monaco" font-size="10.00">WKBPolygon</text>
<text text-anchor="start" x="555.85" y="-467.5" font-family="Monaco" font-size="10.00">+</text>
<text text-anchor="start" x="569.35" y="-467.5" font-family="Monaco" font-size="10.00">byteOrder</text>
<text text-anchor="start" x="555.85" y="-452.5" font-family="Monaco" font-size="10.00">+</text>
<text text-anchor="start" x="569.35" y="-452.5" font-family="Monaco" font-size="10.00">numRings</text>
<text text-anchor="start" x="555.85" y="-437.5" font-family="Monaco" font-size="10.00">+</text>
<text text-anchor="start" x="569.35" y="-437.5" font-family="Monaco" font-size="10.00">wkbType</text>
<text text-anchor="start" x="585.85" y="-422.5" font-family="Monaco" font-size="10.00"> </text>
<polygon fill="#666666" stroke="#666666" points="551.35,-477.5 551.35,-477.5 624.35,-477.5 624.35,-477.5 551.35,-477.5"/>
<polygon fill="#666666" stroke="#666666" points="551.35,-432.5 551.35,-432.5 567.35,-432.5 567.35,-432.5 551.35,-432.5"/>
<polygon fill="#666666" stroke="#666666" points="567.35,-432.5 567.35,-432.5 624.35,-432.5 624.35,-432.5 567.35,-432.5"/>
<polygon fill="none" stroke="#666666" points="550.85,-416 550.85,-495 623.85,-495 623.85,-416 550.85,-416"/>
</a>
</g>
</g>
<!-- Node5&#45;&gt;Node1 -->
<g id="edge5_Node000001_Node000005" class="edge">
<title>Node5&#45;&gt;Node1</title>
<g id="a_edge5_Node000001_Node000005"><a xlink:title=" ">
<path fill="none" stroke="#63b8ff" d="M550.66,-434.67C508.59,-409.69 441.57,-362.49 411.35,-301 393.81,-265.31 394.01,-218.91 397.02,-187.33"/>
<polygon fill="none" stroke="#63b8ff" points="397.04,-187.12 393.74,-180.71 398.38,-175.19 401.69,-181.6 397.04,-187.12"/>
</a>
</g>
<text text-anchor="middle" x="436.85" y="-259" font-family="Monaco" font-size="10.00" fill="grey"> +polygon</text>
</g>
<!-- Node8 -->
<g id="Node000008" class="node">
<title>Node8</title>
<g id="a_Node000008"><a xlink:href="../../d5/d31/struct_w_k_b_polyhedral_surface.html" target="_top" xlink:title="The WKBPolyhedralSurface struct.">
<polygon fill="white" stroke="transparent" points="593.35,-301 471.35,-301 471.35,-222 593.35,-222 593.35,-301"/>
<text text-anchor="start" x="476.35" y="-288.5" font-family="Monaco" font-size="10.00">WKBPolyhedralSurface</text>
<text text-anchor="start" x="483.85" y="-273.5" font-family="Monaco" font-size="10.00">+</text>
<text text-anchor="start" x="505.35" y="-273.5" font-family="Monaco" font-size="10.00">byteOrder</text>
<text text-anchor="start" x="483.85" y="-258.5" font-family="Monaco" font-size="10.00">+</text>
<text text-anchor="start" x="505.35" y="-258.5" font-family="Monaco" font-size="10.00">numPolygons</text>
<text text-anchor="start" x="483.85" y="-243.5" font-family="Monaco" font-size="10.00">+</text>
<text text-anchor="start" x="505.35" y="-243.5" font-family="Monaco" font-size="10.00">wkbType</text>
<text text-anchor="start" x="530.35" y="-228.5" font-family="Monaco" font-size="10.00"> </text>
<polygon fill="#666666" stroke="#666666" points="471.35,-283.5 471.35,-283.5 593.35,-283.5 593.35,-283.5 471.35,-283.5"/>
<polygon fill="#666666" stroke="#666666" points="471.35,-238.5 471.35,-238.5 503.35,-238.5 503.35,-238.5 471.35,-238.5"/>
<polygon fill="#666666" stroke="#666666" points="503.35,-238.5 503.35,-238.5 593.35,-238.5 593.35,-238.5 503.35,-238.5"/>
<polygon fill="none" stroke="#666666" points="471.35,-222 471.35,-301 593.35,-301 593.35,-222 471.35,-222"/>
</a>
</g>
</g>
<!-- Node5&#45;&gt;Node8 -->
<g id="edge11_Node000008_Node000005" class="edge">
<title>Node5&#45;&gt;Node8</title>
<g id="a_edge11_Node000008_Node000005"><a xlink:title=" ">
<path fill="none" stroke="#63b8ff" d="M567.35,-415.8C564.76,-409.93 562.33,-403.87 560.35,-398 551.13,-370.61 544.39,-339.04 539.84,-313.26"/>
<polygon fill="none" stroke="#63b8ff" points="539.78,-312.95 534.84,-307.7 537.78,-301.12 542.72,-306.36 539.78,-312.95"/>
</a>
</g>
<text text-anchor="middle" x="588.35" y="-356" font-family="Monaco" font-size="10.00" fill="grey"> +polygons</text>
</g>
<!-- Node9 -->
<g id="Node000009" class="node">
<title>Node9</title>
<g id="a_Node000009"><a xlink:href="../../d6/d0e/struct_w_k_b_t_i_n.html" target="_top" xlink:title="The WKBTIN struct.">
<polygon fill="white" stroke="transparent" points="699.35,-301 611.35,-301 611.35,-222 699.35,-222 699.35,-301"/>
<text text-anchor="start" x="635.35" y="-288.5" font-family="Monaco" font-size="10.00">WKBTIN</text>
<text text-anchor="start" x="615.35" y="-273.5" font-family="Monaco" font-size="10.00">+</text>
<text text-anchor="start" x="628.35" y="-273.5" font-family="Monaco" font-size="10.00">byteOrder</text>
<text text-anchor="start" x="615.35" y="-258.5" font-family="Monaco" font-size="10.00">+</text>
<text text-anchor="start" x="628.35" y="-258.5" font-family="Monaco" font-size="10.00">numPolygons</text>
<text text-anchor="start" x="615.35" y="-243.5" font-family="Monaco" font-size="10.00">+</text>
<text text-anchor="start" x="628.35" y="-243.5" font-family="Monaco" font-size="10.00">wkbType</text>
<text text-anchor="start" x="653.35" y="-228.5" font-family="Monaco" font-size="10.00"> </text>
<polygon fill="#666666" stroke="#666666" points="611.35,-283.5 611.35,-283.5 699.35,-283.5 699.35,-283.5 611.35,-283.5"/>
<polygon fill="#666666" stroke="#666666" points="611.35,-238.5 611.35,-238.5 626.35,-238.5 626.35,-238.5 611.35,-238.5"/>
<polygon fill="#666666" stroke="#666666" points="626.35,-238.5 626.35,-238.5 699.35,-238.5 699.35,-238.5 626.35,-238.5"/>
<polygon fill="none" stroke="#666666" points="611.35,-222 611.35,-301 699.35,-301 699.35,-222 611.35,-222"/>
</a>
</g>
</g>
<!-- Node5&#45;&gt;Node9 -->
<g id="edge13_Node000009_Node000005" class="edge">
<title>Node5&#45;&gt;Node9</title>
<g id="a_edge13_Node000009_Node000005"><a xlink:title=" ">
<path fill="none" stroke="#63b8ff" d="M608.48,-415.75C611.31,-409.88 614.03,-403.84 616.35,-398 627.25,-370.49 636.55,-338.76 643.33,-312.92"/>
<polygon fill="none" stroke="#63b8ff" points="643.37,-312.75 640.99,-305.94 646.36,-301.12 648.74,-307.93 643.37,-312.75"/>
</a>
</g>
<text text-anchor="middle" x="669.35" y="-356" font-family="Monaco" font-size="10.00" fill="grey"> +polygons</text>
</g>
<!-- Node12 -->
<g id="Node000012" class="node">
<title>Node12</title>
<g id="a_Node000012"><a xlink:href="../../da/dc4/struct_w_k_b_multi_polygon.html" target="_top" xlink:title="The WKBMultiPolygon struct.">
<polygon fill="white" stroke="transparent" points="815.35,-301 717.35,-301 717.35,-222 815.35,-222 815.35,-301"/>
<text text-anchor="start" x="722.35" y="-288.5" font-family="Monaco" font-size="10.00">WKBMultiPolygon</text>
<text text-anchor="start" x="723.85" y="-273.5" font-family="Monaco" font-size="10.00">+</text>
<text text-anchor="start" x="739.35" y="-273.5" font-family="Monaco" font-size="10.00">byteOrder</text>
<text text-anchor="start" x="723.85" y="-258.5" font-family="Monaco" font-size="10.00">+</text>
<text text-anchor="start" x="739.35" y="-258.5" font-family="Monaco" font-size="10.00">numPolygons</text>
<text text-anchor="start" x="723.85" y="-243.5" font-family="Monaco" font-size="10.00">+</text>
<text text-anchor="start" x="739.35" y="-243.5" font-family="Monaco" font-size="10.00">wkbType</text>
<text text-anchor="start" x="764.35" y="-228.5" font-family="Monaco" font-size="10.00"> </text>
<polygon fill="#666666" stroke="#666666" points="717.35,-283.5 717.35,-283.5 815.35,-283.5 815.35,-283.5 717.35,-283.5"/>
<polygon fill="#666666" stroke="#666666" points="717.35,-238.5 717.35,-238.5 737.35,-238.5 737.35,-238.5 717.35,-238.5"/>
<polygon fill="#666666" stroke="#666666" points="737.35,-238.5 737.35,-238.5 815.35,-238.5 815.35,-238.5 737.35,-238.5"/>
<polygon fill="none" stroke="#666666" points="717.35,-222 717.35,-301 815.35,-301 815.35,-222 717.35,-222"/>
</a>
</g>
</g>
<!-- Node5&#45;&gt;Node12 -->
<g id="edge19_Node000012_Node000005" class="edge">
<title>Node5&#45;&gt;Node12</title>
<g id="a_edge19_Node000012_Node000005"><a xlink:title=" ">
<path fill="none" stroke="#63b8ff" d="M624.03,-443.38C648.48,-434.42 679.93,-419.69 701.35,-398 714.22,-384.96 732.53,-345.45 746.44,-312.43"/>
<polygon fill="none" stroke="#63b8ff" points="746.55,-312.16 745.16,-305.08 751.16,-301.08 752.55,-308.16 746.55,-312.16"/>
</a>
</g>
<text text-anchor="middle" x="771.35" y="-356" font-family="Monaco" font-size="10.00" fill="grey"> +polygons</text>
</g>
<!-- Node6&#45;&gt;Node5 -->
<g id="edge6_Node000005_Node000006" class="edge">
<title>Node6&#45;&gt;Node5</title>
<g id="a_edge6_Node000005_Node000006"><a xlink:title=" ">
<path fill="none" stroke="#63b8ff" d="M587.35,-541.85C587.35,-531.72 587.35,-519.47 587.35,-507.45"/>
<polygon fill="none" stroke="#63b8ff" points="587.35,-507.1 583.35,-501.1 587.35,-495.1 591.35,-501.1 587.35,-507.1"/>
</a>
</g>
<text text-anchor="middle" x="605.35" y="-516" font-family="Monaco" font-size="10.00" fill="grey"> +rings</text>
</g>
<!-- Node7 -->
<g id="Node000007" class="node">
<title>Node7</title>
<g id="a_Node000007"><a xlink:href="../../db/de1/struct_w_k_b_triangle.html" target="_top" xlink:title="The WKBTriangle struct.">
<polygon fill="white" stroke="transparent" points="881.35,-398 809.35,-398 809.35,-319 881.35,-319 881.35,-398"/>
<text text-anchor="start" x="814.35" y="-385.5" font-family="Monaco" font-size="10.00">WKBTriangle</text>
<text text-anchor="start" x="813.85" y="-370.5" font-family="Monaco" font-size="10.00">+</text>
<text text-anchor="start" x="827.35" y="-370.5" font-family="Monaco" font-size="10.00">byteOrder</text>
<text text-anchor="start" x="813.85" y="-355.5" font-family="Monaco" font-size="10.00">+</text>
<text text-anchor="start" x="827.35" y="-355.5" font-family="Monaco" font-size="10.00">numRings</text>
<text text-anchor="start" x="813.85" y="-340.5" font-family="Monaco" font-size="10.00">+</text>
<text text-anchor="start" x="827.35" y="-340.5" font-family="Monaco" font-size="10.00">wkbType</text>
<text text-anchor="start" x="843.35" y="-325.5" font-family="Monaco" font-size="10.00"> </text>
<polygon fill="#666666" stroke="#666666" points="809.35,-380.5 809.35,-380.5 881.35,-380.5 881.35,-380.5 809.35,-380.5"/>
<polygon fill="#666666" stroke="#666666" points="809.35,-335.5 809.35,-335.5 825.35,-335.5 825.35,-335.5 809.35,-335.5"/>
<polygon fill="#666666" stroke="#666666" points="825.35,-335.5 825.35,-335.5 881.35,-335.5 881.35,-335.5 825.35,-335.5"/>
<polygon fill="none" stroke="#666666" points="809.35,-319 809.35,-398 881.35,-398 881.35,-319 809.35,-319"/>
</a>
</g>
</g>
<!-- Node6&#45;&gt;Node7 -->
<g id="edge9_Node000007_Node000006" class="edge">
<title>Node6&#45;&gt;Node7</title>
<g id="a_edge9_Node000007_Node000006"><a xlink:title=" ">
<path fill="none" stroke="#63b8ff" d="M619.47,-541.89C660.32,-511.58 732.97,-456.76 799.92,-400.78"/>
<polygon fill="none" stroke="#63b8ff" points="800.13,-400.59 802.15,-393.67 809.32,-392.87 807.3,-399.8 800.13,-400.59"/>
</a>
</g>
<text text-anchor="middle" x="675.35" y="-516" font-family="Monaco" font-size="10.00" fill="grey"> +rings</text>
</g>
<!-- Node7&#45;&gt;Node1 -->
<g id="edge8_Node000001_Node000007" class="edge">
<title>Node7&#45;&gt;Node1</title>
<g id="a_edge8_Node000001_Node000007"><a xlink:title=" ">
<path fill="none" stroke="#63b8ff" d="M849.71,-318.75C850.86,-288.84 847.3,-248.26 824.35,-222 776.95,-167.78 559.23,-155.25 456.41,-152.36"/>
<polygon fill="none" stroke="#63b8ff" points="456.16,-152.36 450.06,-156.2 444.17,-152.05 450.27,-148.2 456.16,-152.36"/>
</a>
</g>
<text text-anchor="middle" x="874.85" y="-259" font-family="Monaco" font-size="10.00" fill="grey"> +triangle</text>
</g>
<!-- Node8&#45;&gt;Node1 -->
<g id="edge10_Node000001_Node000008" class="edge">
<title>Node8&#45;&gt;Node1</title>
<g id="a_edge10_Node000001_Node000008"><a xlink:title=" ">
<path fill="none" stroke="#63b8ff" d="M486.15,-221.76C471.09,-209.14 454.55,-195.27 440.18,-183.22"/>
<polygon fill="none" stroke="#63b8ff" points="439.81,-182.91 432.65,-182.12 430.62,-175.2 437.79,-175.99 439.81,-182.91"/>
</a>
</g>
<text text-anchor="middle" x="514.35" y="-196" font-family="Monaco" font-size="10.00" fill="grey"> +polyhedralsurface</text>
</g>
<!-- Node9&#45;&gt;Node1 -->
<g id="edge12_Node000001_Node000009" class="edge">
<title>Node9&#45;&gt;Node1</title>
<g id="a_edge12_Node000001_Node000009"><a xlink:title=" ">
<path fill="none" stroke="#63b8ff" d="M612.57,-221.65C599.17,-211.1 583.82,-200.52 568.35,-193 532.77,-175.71 489.3,-165.18 455.77,-159.05"/>
<polygon fill="none" stroke="#63b8ff" points="455.72,-159.04 449.12,-161.96 443.89,-156.99 450.49,-154.08 455.72,-159.04"/>
</a>
</g>
<text text-anchor="middle" x="599.85" y="-196" font-family="Monaco" font-size="10.00" fill="grey"> +tin</text>
</g>
<!-- Node10&#45;&gt;Node1 -->
<g id="edge14_Node000001_Node000010" class="edge">
<title>Node10&#45;&gt;Node1</title>
<g id="a_edge14_Node000001_Node000010"><a xlink:title=" ">
<path fill="none" stroke="#63b8ff" d="M106.88,-221.68C109.46,-211 114.11,-200.35 122.35,-193 154.82,-164.02 276.39,-155.28 348.22,-152.64"/>
<polygon fill="none" stroke="#63b8ff" points="348.6,-152.63 354.46,-148.43 360.59,-152.23 354.73,-156.42 348.6,-152.63"/>
</a>
</g>
<text text-anchor="middle" x="145.35" y="-196" font-family="Monaco" font-size="10.00" fill="grey"> +mpoint</text>
</g>
<!-- Node11&#45;&gt;Node1 -->
<g id="edge16_Node000001_Node000011" class="edge">
<title>Node11&#45;&gt;Node1</title>
<g id="a_edge16_Node000001_Node000011"><a xlink:title=" ">
<path fill="none" stroke="#63b8ff" d="M311.22,-221.72C312.54,-211.65 315.48,-201.3 321.35,-193 328.46,-182.93 338.76,-175.15 349.64,-169.19"/>
<polygon fill="none" stroke="#63b8ff" points="349.84,-169.09 353.47,-162.86 360.62,-163.82 356.98,-170.05 349.84,-169.09"/>
</a>
</g>
<text text-anchor="middle" x="354.85" y="-196" font-family="Monaco" font-size="10.00" fill="grey"> +mlinestring</text>
</g>
<!-- Node12&#45;&gt;Node1 -->
<g id="edge18_Node000001_Node000012" class="edge">
<title>Node12&#45;&gt;Node1</title>
<g id="a_edge18_Node000001_Node000012"><a xlink:title=" ">
<path fill="none" stroke="#63b8ff" d="M717.22,-226.57C714.26,-224.94 711.29,-223.41 708.35,-222 625.45,-182.4 519.1,-164.38 456.09,-156.7"/>
<polygon fill="none" stroke="#63b8ff" points="456,-156.69 449.58,-159.96 444.08,-155.29 450.51,-152.02 456,-156.69"/>
</a>
</g>
<text text-anchor="middle" x="691.85" y="-196" font-family="Monaco" font-size="10.00" fill="grey"> +mpolygon</text>
</g>
<!-- Node13&#45;&gt;Node1 -->
<g id="edge20_Node000001_Node000013" class="edge">
<title>Node13&#45;&gt;Node1</title>
<g id="a_edge20_Node000001_Node000013"><a xlink:title=" ">
<path fill="none" stroke="#63b8ff" d="M423.64,-79.1C426.54,-88.48 427.8,-98.53 425.35,-108 424.76,-110.27 424.02,-112.55 423.16,-114.81"/>
<polygon fill="none" stroke="#63b8ff" points="423.14,-114.88 424.28,-122 418.15,-125.79 417,-118.67 423.14,-114.88"/>
</a>
</g>
<text text-anchor="middle" x="456.85" y="-100" font-family="Monaco" font-size="10.00" fill="grey"> +collection</text>
</g>
</g>
</svg>
