<?xml version="1.0" encoding="UTF-8" standalone="no"?>
<!DOCTYPE svg PUBLIC "-//W3C//DTD SVG 1.1//EN"
 "http://www.w3.org/Graphics/SVG/1.1/DTD/svg11.dtd">
<!-- Generated by graphviz version 2.43.0 (0)
 -->
<!-- Title: HydroCouple::IWorkflowComponentStatusChangeEventArgs Pages: 1 -->
<svg width="192pt" height="169pt"
 viewBox="0.00 0.00 192.00 169.00" xmlns="http://www.w3.org/2000/svg" xmlns:xlink="http://www.w3.org/1999/xlink">
<g id="graph0" class="graph" transform="scale(1 1) rotate(0) translate(4 165)">
<title>HydroCouple::IWorkflowComponentStatusChangeEventArgs</title>
<!-- Node1 -->
<g id="Node000001" class="node">
<title>Node1</title>
<g id="a_Node000001"><a xlink:title="The IWorkflowComponentStatusChangeEventArgs contains the information that will be passed when the IWo...">
<polygon fill="#999999" stroke="transparent" points="184,-161 0,-161 0,0 184,0 184,-161"/>
<text text-anchor="start" x="5" y="-148.5" font-family="Monaco" font-size="10.00">HydroCouple::IWorkflowComponent</text>
<text text-anchor="start" x="33" y="-137.5" font-family="Monaco" font-size="10.00">StatusChangeEventArgs</text>
<text text-anchor="start" x="90" y="-122.5" font-family="Monaco" font-size="10.00"> </text>
<text text-anchor="start" x="8.5" y="-107.5" font-family="Monaco" font-size="10.00">+</text>
<text text-anchor="start" x="26" y="-107.5" font-family="Monaco" font-size="10.00">~IWorkflowComponentStatus</text>
<text text-anchor="start" x="26" y="-96.5" font-family="Monaco" font-size="10.00">ChangeEventArgs()</text>
<text text-anchor="start" x="8.5" y="-81.5" font-family="Monaco" font-size="10.00">+</text>
<text text-anchor="start" x="26" y="-81.5" font-family="Monaco" font-size="10.00">workflowComponent()</text>
<text text-anchor="start" x="8.5" y="-66.5" font-family="Monaco" font-size="10.00">+</text>
<text text-anchor="start" x="26" y="-66.5" font-family="Monaco" font-size="10.00">previousStatus()</text>
<text text-anchor="start" x="8.5" y="-51.5" font-family="Monaco" font-size="10.00">+</text>
<text text-anchor="start" x="26" y="-51.5" font-family="Monaco" font-size="10.00">status()</text>
<text text-anchor="start" x="8.5" y="-36.5" font-family="Monaco" font-size="10.00">+</text>
<text text-anchor="start" x="26" y="-36.5" font-family="Monaco" font-size="10.00">message()</text>
<text text-anchor="start" x="8.5" y="-21.5" font-family="Monaco" font-size="10.00">+</text>
<text text-anchor="start" x="26" y="-21.5" font-family="Monaco" font-size="10.00">hasProgressMonitor()</text>
<text text-anchor="start" x="8.5" y="-6.5" font-family="Monaco" font-size="10.00">+</text>
<text text-anchor="start" x="26" y="-6.5" font-family="Monaco" font-size="10.00">percentProgress()</text>
<polygon fill="#666666" stroke="#666666" points="0,-132.5 0,-132.5 184,-132.5 184,-132.5 0,-132.5"/>
<polygon fill="#666666" stroke="#666666" points="0,-117.5 0,-117.5 184,-117.5 184,-117.5 0,-117.5"/>
<polygon fill="none" stroke="#666666" points="0,0 0,-161 184,-161 184,0 0,0"/>
</a>
</g>
</g>
</g>
</svg>
