<?xml version="1.0" encoding="UTF-8" standalone="no"?>
<!DOCTYPE svg PUBLIC "-//W3C//DTD SVG 1.1//EN"
 "http://www.w3.org/Graphics/SVG/1.1/DTD/svg11.dtd">
<!-- Generated by graphviz version 2.43.0 (0)
 -->
<!-- Title: WKBPoint Pages: 1 -->
<svg width="85pt" height="193pt"
 viewBox="0.00 0.00 85.00 193.00" xmlns="http://www.w3.org/2000/svg" xmlns:xlink="http://www.w3.org/1999/xlink">
<g id="graph0" class="graph" transform="scale(1 1) rotate(0) translate(4 189)">
<title>WKBPoint</title>
<!-- Node1 -->
<g id="node1" class="node">
<title>Node1</title>
<g id="a_node1"><a xlink:title="The WKBPoint struct.">
<polygon fill="#bfbfbf" stroke="black" points="0,-0.5 0,-68.5 77,-68.5 77,-0.5 0,-0.5"/>
<text text-anchor="middle" x="38.5" y="-56.5" font-family="Monaco" font-size="10.00">WKBPoint</text>
<polyline fill="none" stroke="black" points="0,-49.5 77,-49.5 "/>
<text text-anchor="start" x="8" y="-37.5" font-family="Monaco" font-size="10.00">+ byteOrder</text>
<text text-anchor="start" x="8" y="-26.5" font-family="Monaco" font-size="10.00">+ wkbType</text>
<polyline fill="none" stroke="black" points="0,-19.5 77,-19.5 "/>
<text text-anchor="middle" x="38.5" y="-7.5" font-family="Monaco" font-size="10.00"> </text>
</a>
</g>
</g>
<!-- Node2 -->
<g id="node2" class="node">
<title>Node2</title>
<g id="a_node2"><a xlink:href="../../d8/dc8/struct_point.html" target="_top" xlink:title="The Point struct.">
<polygon fill="none" stroke="black" points="18,-116.5 18,-184.5 59,-184.5 59,-116.5 18,-116.5"/>
<text text-anchor="middle" x="38.5" y="-172.5" font-family="Monaco" font-size="10.00">Point</text>
<polyline fill="none" stroke="black" points="18,-165.5 59,-165.5 "/>
<text text-anchor="start" x="26" y="-153.5" font-family="Monaco" font-size="10.00">+ x</text>
<text text-anchor="start" x="26" y="-142.5" font-family="Monaco" font-size="10.00">+ y</text>
<polyline fill="none" stroke="black" points="18,-135.5 59,-135.5 "/>
<text text-anchor="middle" x="38.5" y="-123.5" font-family="Monaco" font-size="10.00"> </text>
</a>
</g>
</g>
<!-- Node2&#45;&gt;Node1 -->
<g id="edge1" class="edge">
<title>Node2&#45;&gt;Node1</title>
<path fill="none" stroke="#404040" d="M38.5,-116.22C38.5,-105.1 38.5,-92.51 38.5,-80.64"/>
<polygon fill="none" stroke="#404040" points="38.5,-80.62 34.5,-74.62 38.5,-68.62 42.5,-74.62 38.5,-80.62"/>
<text text-anchor="middle" x="57" y="-90" font-family="Monaco" font-size="10.00"> +point</text>
</g>
</g>
</svg>
