<?xml version="1.0" encoding="UTF-8" standalone="no"?>
<!DOCTYPE svg PUBLIC "-//W3C//DTD SVG 1.1//EN"
 "http://www.w3.org/Graphics/SVG/1.1/DTD/svg11.dtd">
<!-- Generated by graphviz version 2.43.0 (0)
 -->
<!-- Title: HydroCouple::Temporal::ITimeIdBasedComponentDataItem Pages: 1 -->
<!--zoomable 1315 -->

<svg id="main" version="1.1" xmlns="http://www.w3.org/2000/svg" xmlns:xlink="http://www.w3.org/1999/xlink" xml:space="preserve" onload="init(evt)">
<style type="text/css"><![CDATA[
.node, .edge {opacity: 0.7;}
.node.selected, .edge.selected {opacity: 1;}
.edge:hover path { stroke: red; }
.edge:hover polygon { stroke: red; fill: red; }
]]></style>

<defs>
  <circle id="rim" cx="0" cy="0" r="7"/>
  <circle id="rim2" cx="0" cy="0" r="3.5"/>
  <g id="zoomPlus">
    <use xlink:href="#rim" fill="#404040"><set attributeName="fill" to="#808080" begin="zoomplus.mouseover" end="zoomplus.mouseout"/></use>
    <path d="M-4,0h8M0,-4v8" fill="none" stroke="white" stroke-width="1.5" pointer-events="none"/>
  </g>
  <g id="zoomMin">
    <use xlink:href="#rim" fill="#404040"><set attributeName="fill" to="#808080" begin="zoomminus.mouseover" end="zoomminus.mouseout"/></use>
    <path d="M-4,0h8" fill="none" stroke="white" stroke-width="1.5" pointer-events="none"/>
  </g>
  <g id="arrowUp" transform="translate(30 24)">
    <use xlink:href="#rim"/>
    <path pointer-events="none" fill="none" stroke="white" stroke-width="1.5" d="M0,-3.0v7 M-2.5,-0.5L0,-3.0L2.5,-0.5"/>
  </g>
  <g id="arrowRight" transform="rotate(90) translate(36 -43)">
    <use xlink:href="#rim"/>
    <path pointer-events="none" fill="none" stroke="white" stroke-width="1.5" d="M0,-3.0v7 M-2.5,-0.5L0,-3.0L2.5,-0.5"/>
  </g>
  <g id="arrowDown" transform="rotate(180) translate(-30 -48)">
    <use xlink:href="#rim"/>
    <path pointer-events="none" fill="none" stroke="white" stroke-width="1.5" d="M0,-3.0v7 M-2.5,-0.5L0,-3.0L2.5,-0.5"/>
  </g>
  <g id="arrowLeft" transform="rotate(270) translate(-36 17)">
    <use xlink:href="#rim"/>
    <path pointer-events="none" fill="none" stroke="white" stroke-width="1.5" d="M0,-3.0v7 M-2.5,-0.5L0,-3.0L2.5,-0.5"/>
  </g>
  <g id="resetDef">
    <use xlink:href="#rim2" fill="#404040"><set attributeName="fill" to="#808080" begin="reset.mouseover" end="reset.mouseout"/></use>
  </g>
</defs>
<script type="application/ecmascript">
var viewWidth = 343;
var viewHeight = 1315;
var sectionId = 'dynsection-0';
</script>
<script type="application/ecmascript" xlink:href="../../svg.min.js"/>
<svg id="graph" class="graph">
<g id="viewport">
<title>HydroCouple::Temporal::ITimeIdBasedComponentDataItem</title>
<!-- Node1 -->
<g id="Node000001" class="node">
<title>Node1</title>
<g id="a_Node000001"><a xlink:title="The ITimeIdBasedComponentDataItem class.">
<polygon fill="#999999" stroke="transparent" points="200,-221 15,-221 15,0 200,0 200,-221"/>
<text text-anchor="start" x="20.5" y="-208.5" font-family="Monaco" font-size="10.00">HydroCouple::Temporal</text>
<text text-anchor="start" x="20.5" y="-197.5" font-family="Monaco" font-size="10.00">::ITimeIdBasedComponentDataItem</text>
<text text-anchor="start" x="106" y="-182.5" font-family="Monaco" font-size="10.00"> </text>
<text text-anchor="start" x="21.5" y="-167.5" font-family="Monaco" font-size="10.00">+</text>
<text text-anchor="start" x="36.5" y="-167.5" font-family="Monaco" font-size="10.00">~ITimeIdBasedComponentData</text>
<text text-anchor="start" x="36.5" y="-156.5" font-family="Monaco" font-size="10.00">Item()</text>
<text text-anchor="start" x="21.5" y="-141.5" font-family="Monaco" font-size="10.00">+</text>
<text text-anchor="start" x="36.5" y="-141.5" font-family="Monaco" font-size="10.00">identifiers()</text>
<text text-anchor="start" x="21.5" y="-126.5" font-family="Monaco" font-size="10.00">+</text>
<text text-anchor="start" x="36.5" y="-126.5" font-family="Monaco" font-size="10.00">identifierDimension()</text>
<text text-anchor="start" x="21.5" y="-111.5" font-family="Monaco" font-size="10.00">+</text>
<text text-anchor="start" x="36.5" y="-111.5" font-family="Monaco" font-size="10.00">getValue()</text>
<text text-anchor="start" x="21.5" y="-96.5" font-family="Monaco" font-size="10.00">+</text>
<text text-anchor="start" x="36.5" y="-96.5" font-family="Monaco" font-size="10.00">getValues()</text>
<text text-anchor="start" x="21.5" y="-81.5" font-family="Monaco" font-size="10.00">+</text>
<text text-anchor="start" x="36.5" y="-81.5" font-family="Monaco" font-size="10.00">setValue()</text>
<text text-anchor="start" x="21.5" y="-66.5" font-family="Monaco" font-size="10.00">+</text>
<text text-anchor="start" x="36.5" y="-66.5" font-family="Monaco" font-size="10.00">setValues()</text>
<text text-anchor="start" x="21.5" y="-51.5" font-family="Monaco" font-size="10.00">+</text>
<text text-anchor="start" x="36.5" y="-51.5" font-family="Monaco" font-size="10.00">getValue()</text>
<text text-anchor="start" x="21.5" y="-36.5" font-family="Monaco" font-size="10.00">+</text>
<text text-anchor="start" x="36.5" y="-36.5" font-family="Monaco" font-size="10.00">getValues()</text>
<text text-anchor="start" x="21.5" y="-21.5" font-family="Monaco" font-size="10.00">+</text>
<text text-anchor="start" x="36.5" y="-21.5" font-family="Monaco" font-size="10.00">setValue()</text>
<text text-anchor="start" x="36.5" y="-6.5" font-family="Monaco" font-size="10.00">and 17 more...</text>
<polygon fill="#666666" stroke="#666666" points="15.5,-192.5 15.5,-192.5 200.5,-192.5 200.5,-192.5 15.5,-192.5"/>
<polygon fill="#666666" stroke="#666666" points="15.5,-177.5 15.5,-177.5 200.5,-177.5 200.5,-177.5 15.5,-177.5"/>
<polygon fill="none" stroke="#666666" points="15,0 15,-221 200,-221 200,0 15,0"/>
</a>
</g>
</g>
<!-- Node2 -->
<g id="Node000002" class="node">
<title>Node2</title>
<g id="a_Node000002"><a xlink:href="../../d8/d52/class_hydro_couple_1_1_i_component_data_item.html" target="_top" xlink:title="IComponentItem is a fundamental unit of data for a component.">
<polygon fill="white" stroke="transparent" points="258,-754 73,-754 73,-525 258,-525 258,-754"/>
<text text-anchor="start" x="78.5" y="-741.5" font-family="Monaco" font-size="10.00">HydroCouple::IComponentDataItem</text>
<text text-anchor="start" x="164" y="-726.5" font-family="Monaco" font-size="10.00"> </text>
<text text-anchor="start" x="88" y="-711.5" font-family="Monaco" font-size="10.00">+</text>
<text text-anchor="start" x="111.5" y="-711.5" font-family="Monaco" font-size="10.00">~IComponentDataItem()</text>
<text text-anchor="start" x="88" y="-696.5" font-family="Monaco" font-size="10.00">+</text>
<text text-anchor="start" x="111.5" y="-696.5" font-family="Monaco" font-size="10.00">modelComponent()</text>
<text text-anchor="start" x="88" y="-681.5" font-family="Monaco" font-size="10.00">+</text>
<text text-anchor="start" x="111.5" y="-681.5" font-family="Monaco" font-size="10.00">dimensions()</text>
<text text-anchor="start" x="88" y="-666.5" font-family="Monaco" font-size="10.00">+</text>
<text text-anchor="start" x="111.5" y="-666.5" font-family="Monaco" font-size="10.00">dimensionLength()</text>
<text text-anchor="start" x="88" y="-651.5" font-family="Monaco" font-size="10.00">+</text>
<text text-anchor="start" x="111.5" y="-651.5" font-family="Monaco" font-size="10.00">valueDefinition()</text>
<text text-anchor="start" x="88" y="-636.5" font-family="Monaco" font-size="10.00">+</text>
<text text-anchor="start" x="111.5" y="-636.5" font-family="Monaco" font-size="10.00">getValue()</text>
<text text-anchor="start" x="88" y="-621.5" font-family="Monaco" font-size="10.00">+</text>
<text text-anchor="start" x="111.5" y="-621.5" font-family="Monaco" font-size="10.00">getValues()</text>
<text text-anchor="start" x="88" y="-606.5" font-family="Monaco" font-size="10.00">+</text>
<text text-anchor="start" x="111.5" y="-606.5" font-family="Monaco" font-size="10.00">setValue()</text>
<text text-anchor="start" x="88" y="-591.5" font-family="Monaco" font-size="10.00">+</text>
<text text-anchor="start" x="111.5" y="-591.5" font-family="Monaco" font-size="10.00">setValues()</text>
<text text-anchor="start" x="88" y="-576.5" font-family="Monaco" font-size="10.00">+</text>
<text text-anchor="start" x="111.5" y="-576.5" font-family="Monaco" font-size="10.00">hasEditor()</text>
<text text-anchor="start" x="88" y="-561.5" font-family="Monaco" font-size="10.00">+</text>
<text text-anchor="start" x="111.5" y="-561.5" font-family="Monaco" font-size="10.00">showEditor()</text>
<text text-anchor="start" x="88" y="-546.5" font-family="Monaco" font-size="10.00">+</text>
<text text-anchor="start" x="111.5" y="-546.5" font-family="Monaco" font-size="10.00">hasViewer()</text>
<text text-anchor="start" x="88" y="-531.5" font-family="Monaco" font-size="10.00">+</text>
<text text-anchor="start" x="111.5" y="-531.5" font-family="Monaco" font-size="10.00">showViewer()</text>
<polygon fill="#666666" stroke="#666666" points="73.5,-736.5 73.5,-736.5 258.5,-736.5 258.5,-736.5 73.5,-736.5"/>
<polygon fill="#666666" stroke="#666666" points="73.5,-721.5 73.5,-721.5 258.5,-721.5 258.5,-721.5 73.5,-721.5"/>
<polygon fill="none" stroke="#666666" points="73,-525 73,-754 258,-754 258,-525 73,-525"/>
</a>
</g>
</g>
<!-- Node2&#45;&gt;Node1 -->
<g id="edge1_Node000001_Node000002" class="edge">
<title>Node2&#45;&gt;Node1</title>
<g id="a_edge1_Node000001_Node000002"><a xlink:title=" ">
<path fill="none" stroke="#63b8ff" d="M78.24,-515.26C74.43,-506.61 71.11,-497.82 68.5,-489 42.55,-401.34 56.19,-297.81 74.12,-221.36"/>
<polygon fill="none" stroke="#63b8ff" points="75.19,-516.99 82.58,-524.58 81.54,-514.04 75.19,-516.99"/>
</a>
</g>
</g>
<!-- Node8 -->
<g id="Node000008" class="node">
<title>Node8</title>
<g id="a_Node000008"><a xlink:href="../../de/d0b/class_hydro_couple_1_1_temporal_1_1_i_time_series_component_data_item.html" target="_top" xlink:title="ITimeComponentItem is an IComponentItem with a temporal attribute. This class cannot be directly inst...">
<polygon fill="white" stroke="transparent" points="253.5,-489 77.5,-489 77.5,-257 253.5,-257 253.5,-489"/>
<text text-anchor="start" x="82.5" y="-477" font-family="Monaco" font-size="10.00">HydroCouple::Temporal</text>
<text text-anchor="start" x="82.5" y="-466" font-family="Monaco" font-size="10.00">::ITimeSeriesComponentDataItem</text>
<text text-anchor="start" x="163.5" y="-451" font-family="Monaco" font-size="10.00"> </text>
<text text-anchor="start" x="83.5" y="-436" font-family="Monaco" font-size="10.00">+</text>
<text text-anchor="start" x="98.5" y="-436" font-family="Monaco" font-size="10.00">~ITimeSeriesComponentData</text>
<text text-anchor="start" x="98.5" y="-425" font-family="Monaco" font-size="10.00">Item()</text>
<text text-anchor="start" x="83.5" y="-410" font-family="Monaco" font-size="10.00">+</text>
<text text-anchor="start" x="98.5" y="-410" font-family="Monaco" font-size="10.00">time()</text>
<text text-anchor="start" x="83.5" y="-395" font-family="Monaco" font-size="10.00">+</text>
<text text-anchor="start" x="98.5" y="-395" font-family="Monaco" font-size="10.00">timeCount()</text>
<text text-anchor="start" x="83.5" y="-380" font-family="Monaco" font-size="10.00">+</text>
<text text-anchor="start" x="98.5" y="-380" font-family="Monaco" font-size="10.00">timeSpan()</text>
<text text-anchor="start" x="83.5" y="-365" font-family="Monaco" font-size="10.00">+</text>
<text text-anchor="start" x="98.5" y="-365" font-family="Monaco" font-size="10.00">timeDimension()</text>
<text text-anchor="start" x="83.5" y="-350" font-family="Monaco" font-size="10.00">+</text>
<text text-anchor="start" x="98.5" y="-350" font-family="Monaco" font-size="10.00">getValue()</text>
<text text-anchor="start" x="83.5" y="-335" font-family="Monaco" font-size="10.00">+</text>
<text text-anchor="start" x="98.5" y="-335" font-family="Monaco" font-size="10.00">getValues()</text>
<text text-anchor="start" x="83.5" y="-320" font-family="Monaco" font-size="10.00">+</text>
<text text-anchor="start" x="98.5" y="-320" font-family="Monaco" font-size="10.00">setValue()</text>
<text text-anchor="start" x="83.5" y="-305" font-family="Monaco" font-size="10.00">+</text>
<text text-anchor="start" x="98.5" y="-305" font-family="Monaco" font-size="10.00">setValues()</text>
<text text-anchor="start" x="83.5" y="-290" font-family="Monaco" font-size="10.00">+</text>
<text text-anchor="start" x="98.5" y="-290" font-family="Monaco" font-size="10.00">~ITimeSeriesComponentData</text>
<text text-anchor="start" x="98.5" y="-279" font-family="Monaco" font-size="10.00">Item()</text>
<text text-anchor="start" x="98.5" y="-264" font-family="Monaco" font-size="10.00">and 12 more...</text>
<polygon fill="#666666" stroke="#666666" points="77.5,-461 77.5,-461 253.5,-461 253.5,-461 77.5,-461"/>
<polygon fill="#666666" stroke="#666666" points="77.5,-446 77.5,-446 253.5,-446 253.5,-446 77.5,-446"/>
<polygon fill="none" stroke="#666666" points="77.5,-257 77.5,-489 253.5,-489 253.5,-257 77.5,-257"/>
</a>
</g>
</g>
<!-- Node2&#45;&gt;Node8 -->
<g id="edge8_Node000008_Node000002" class="edge">
<title>Node2&#45;&gt;Node8</title>
<g id="a_edge8_Node000008_Node000002"><a xlink:title=" ">
<path fill="none" stroke="#63b8ff" d="M158.76,-514.55C158.74,-506.13 158.75,-497.67 158.8,-489.29"/>
<polygon fill="none" stroke="#63b8ff" points="155.26,-514.81 158.81,-524.79 162.26,-514.78 155.26,-514.81"/>
</a>
</g>
</g>
<!-- Node2&#45;&gt;Node8 -->
<g id="edge9_Node000008_Node000002" class="edge">
<title>Node2&#45;&gt;Node8</title>
<g id="a_edge9_Node000008_Node000002"><a xlink:title=" ">
<path fill="none" stroke="#63b8ff" d="M172.24,-514.55C172.26,-506.13 172.25,-497.67 172.2,-489.29"/>
<polygon fill="none" stroke="#63b8ff" points="168.74,-514.78 172.19,-524.79 175.74,-514.81 168.74,-514.78"/>
</a>
</g>
</g>
<!-- Node3 -->
<g id="Node000003" class="node">
<title>Node3</title>
<g id="a_Node000003"><a xlink:href="../../d2/d2a/class_hydro_couple_1_1_i_identity.html" target="_top" xlink:title="IIdentity interface class defines a method to get the Id of an HydroCouple entity.">
<polygon fill="white" stroke="transparent" points="143.5,-887.5 23.5,-887.5 23.5,-823.5 143.5,-823.5 143.5,-887.5"/>
<text text-anchor="start" x="28.5" y="-875.5" font-family="Monaco" font-size="10.00">HydroCouple::IIdentity</text>
<text text-anchor="start" x="81.5" y="-860.5" font-family="Monaco" font-size="10.00"> </text>
<text text-anchor="start" x="38" y="-845.5" font-family="Monaco" font-size="10.00">+</text>
<text text-anchor="start" x="61.5" y="-845.5" font-family="Monaco" font-size="10.00">~IIdentity()</text>
<text text-anchor="start" x="38" y="-830.5" font-family="Monaco" font-size="10.00">+</text>
<text text-anchor="start" x="61.5" y="-830.5" font-family="Monaco" font-size="10.00">id()</text>
<polygon fill="#666666" stroke="#666666" points="23.5,-870.5 23.5,-870.5 143.5,-870.5 143.5,-870.5 23.5,-870.5"/>
<polygon fill="#666666" stroke="#666666" points="23.5,-855.5 23.5,-855.5 143.5,-855.5 143.5,-855.5 23.5,-855.5"/>
<polygon fill="none" stroke="#666666" points="23.5,-823.5 23.5,-887.5 143.5,-887.5 143.5,-823.5 23.5,-823.5"/>
</a>
</g>
</g>
<!-- Node3&#45;&gt;Node2 -->
<g id="edge2_Node000002_Node000003" class="edge">
<title>Node3&#45;&gt;Node2</title>
<g id="a_edge2_Node000002_Node000003"><a xlink:title=" ">
<path fill="none" stroke="#63b8ff" d="M99.13,-813.71C105.72,-796.5 113.76,-775.52 121.94,-754.19"/>
<polygon fill="none" stroke="#63b8ff" points="95.73,-812.79 95.42,-823.38 102.27,-815.3 95.73,-812.79"/>
</a>
</g>
</g>
<!-- Node4 -->
<g id="Node000004" class="node">
<title>Node4</title>
<g id="a_Node000004"><a xlink:href="../../db/d64/class_hydro_couple_1_1_i_description.html" target="_top" xlink:title="IDescription interface class provides descriptive information on a HydroCouple object.">
<polygon fill="white" stroke="transparent" points="152.5,-1066 14.5,-1066 14.5,-957 152.5,-957 152.5,-1066"/>
<text text-anchor="start" x="19.5" y="-1053.5" font-family="Monaco" font-size="10.00">HydroCouple::IDescription</text>
<text text-anchor="start" x="81.5" y="-1038.5" font-family="Monaco" font-size="10.00"> </text>
<text text-anchor="start" x="28" y="-1023.5" font-family="Monaco" font-size="10.00">+</text>
<text text-anchor="start" x="50.5" y="-1023.5" font-family="Monaco" font-size="10.00">~IDescription()</text>
<text text-anchor="start" x="28" y="-1008.5" font-family="Monaco" font-size="10.00">+</text>
<text text-anchor="start" x="50.5" y="-1008.5" font-family="Monaco" font-size="10.00">caption()</text>
<text text-anchor="start" x="28" y="-993.5" font-family="Monaco" font-size="10.00">+</text>
<text text-anchor="start" x="50.5" y="-993.5" font-family="Monaco" font-size="10.00">setCaption()</text>
<text text-anchor="start" x="28" y="-978.5" font-family="Monaco" font-size="10.00">+</text>
<text text-anchor="start" x="50.5" y="-978.5" font-family="Monaco" font-size="10.00">description()</text>
<text text-anchor="start" x="28" y="-963.5" font-family="Monaco" font-size="10.00">+</text>
<text text-anchor="start" x="50.5" y="-963.5" font-family="Monaco" font-size="10.00">setDescription()</text>
<polygon fill="#666666" stroke="#666666" points="14.5,-1048.5 14.5,-1048.5 152.5,-1048.5 152.5,-1048.5 14.5,-1048.5"/>
<polygon fill="#666666" stroke="#666666" points="14.5,-1033.5 14.5,-1033.5 152.5,-1033.5 152.5,-1033.5 14.5,-1033.5"/>
<polygon fill="none" stroke="#666666" points="14.5,-957 14.5,-1066 152.5,-1066 152.5,-957 14.5,-957"/>
</a>
</g>
</g>
<!-- Node4&#45;&gt;Node3 -->
<g id="edge3_Node000003_Node000004" class="edge">
<title>Node4&#45;&gt;Node3</title>
<g id="a_edge3_Node000003_Node000004"><a xlink:title=" ">
<path fill="none" stroke="#63b8ff" d="M83.5,-946.47C83.5,-926.15 83.5,-904.58 83.5,-887.66"/>
<polygon fill="none" stroke="#63b8ff" points="80,-946.64 83.5,-956.64 87,-946.64 80,-946.64"/>
</a>
</g>
</g>
<!-- Node5 -->
<g id="Node000005" class="node">
<title>Node5</title>
<g id="a_Node000005"><a xlink:href="../../dd/dbf/class_hydro_couple_1_1_i_property_changed.html" target="_top" xlink:title="IPropertyChanged interface is used to emit signal/event when a property of an object changes.">
<polygon fill="white" stroke="transparent" points="167,-1151 0,-1151 0,-1102 167,-1102 167,-1151"/>
<text text-anchor="start" x="5.5" y="-1138.5" font-family="Monaco" font-size="10.00">HydroCouple::IPropertyChanged</text>
<text text-anchor="start" x="82" y="-1123.5" font-family="Monaco" font-size="10.00"> </text>
<text text-anchor="start" x="15" y="-1108.5" font-family="Monaco" font-size="10.00">+</text>
<text text-anchor="start" x="38.5" y="-1108.5" font-family="Monaco" font-size="10.00">~IPropertyChanged()</text>
<polygon fill="#666666" stroke="#666666" points="0.5,-1133.5 0.5,-1133.5 167.5,-1133.5 167.5,-1133.5 0.5,-1133.5"/>
<polygon fill="#666666" stroke="#666666" points="0.5,-1118.5 0.5,-1118.5 167.5,-1118.5 167.5,-1118.5 0.5,-1118.5"/>
<polygon fill="none" stroke="#666666" points="0,-1102 0,-1151 167,-1151 167,-1102 0,-1102"/>
</a>
</g>
</g>
<!-- Node5&#45;&gt;Node4 -->
<g id="edge4_Node000004_Node000005" class="edge">
<title>Node5&#45;&gt;Node4</title>
<g id="a_edge4_Node000004_Node000005"><a xlink:title=" ">
<path fill="none" stroke="#63b8ff" d="M83.5,-1091.79C83.5,-1083.79 83.5,-1075.06 83.5,-1066.41"/>
<polygon fill="none" stroke="#63b8ff" points="80,-1091.81 83.5,-1101.81 87,-1091.81 80,-1091.81"/>
</a>
</g>
</g>
<!-- Node6 -->
<g id="Node000006" class="node">
<title>Node6</title>
<g id="a_Node000006"><a xlink:href="../../d5/d8b/class_hydro_couple_1_1_i_signal.html" target="_top" xlink:title=" ">
<polygon fill="white" stroke="transparent" points="140,-1307 27,-1307 27,-1187 140,-1187 140,-1307"/>
<text text-anchor="start" x="32.5" y="-1295" font-family="Monaco" font-size="10.00">HydroCouple::ISignal</text>
<text text-anchor="start" x="58.5" y="-1284" font-family="Monaco" font-size="10.00">&lt; string &gt;</text>
<text text-anchor="start" x="82" y="-1269" font-family="Monaco" font-size="10.00"> </text>
<text text-anchor="start" x="37" y="-1254" font-family="Monaco" font-size="10.00">+</text>
<text text-anchor="start" x="55.5" y="-1254" font-family="Monaco" font-size="10.00">~ISignal()</text>
<text text-anchor="start" x="37" y="-1239" font-family="Monaco" font-size="10.00">+</text>
<text text-anchor="start" x="55.5" y="-1239" font-family="Monaco" font-size="10.00">connect()</text>
<text text-anchor="start" x="37" y="-1224" font-family="Monaco" font-size="10.00">+</text>
<text text-anchor="start" x="55.5" y="-1224" font-family="Monaco" font-size="10.00">disconnect()</text>
<text text-anchor="start" x="37" y="-1209" font-family="Monaco" font-size="10.00">+</text>
<text text-anchor="start" x="55.5" y="-1209" font-family="Monaco" font-size="10.00">blockSignals()</text>
<text text-anchor="start" x="37" y="-1194" font-family="Monaco" font-size="10.00">#</text>
<text text-anchor="start" x="55.5" y="-1194" font-family="Monaco" font-size="10.00">emit()</text>
<polygon fill="#666666" stroke="#666666" points="27.5,-1279 27.5,-1279 140.5,-1279 140.5,-1279 27.5,-1279"/>
<polygon fill="#666666" stroke="#666666" points="27.5,-1264 27.5,-1264 140.5,-1264 140.5,-1264 27.5,-1264"/>
<polygon fill="none" stroke="#666666" points="27,-1187 27,-1307 140,-1307 140,-1187 27,-1187"/>
</a>
</g>
</g>
<!-- Node6&#45;&gt;Node5 -->
<g id="edge5_Node000005_Node000006" class="edge">
<title>Node6&#45;&gt;Node5</title>
<g id="a_edge5_Node000005_Node000006"><a xlink:title=" ">
<path fill="none" stroke="#63b8ff" d="M83.5,-1176.74C83.5,-1167.6 83.5,-1158.78 83.5,-1151.2"/>
<polygon fill="none" stroke="#63b8ff" points="80,-1176.75 83.5,-1186.75 87,-1176.75 80,-1176.75"/>
</a>
</g>
</g>
<!-- Node7 -->
<g id="Node000007" class="node">
<title>Node7</title>
<g id="a_Node000007"><a xlink:href="../../d5/d8b/class_hydro_couple_1_1_i_signal.html" target="_top" xlink:title=" ">
<polygon fill="white" stroke="transparent" points="335,-921 162,-921 162,-790 335,-790 335,-921"/>
<text text-anchor="start" x="167.5" y="-908.5" font-family="Monaco" font-size="10.00">HydroCouple::ISignal</text>
<text text-anchor="start" x="167.5" y="-897.5" font-family="Monaco" font-size="10.00">&lt; const shared_ptr&lt; IComponent</text>
<text text-anchor="start" x="174.5" y="-886.5" font-family="Monaco" font-size="10.00">DataItemValueChanged &gt; &amp; &gt;</text>
<text text-anchor="start" x="247" y="-871.5" font-family="Monaco" font-size="10.00"> </text>
<text text-anchor="start" x="187" y="-856.5" font-family="Monaco" font-size="10.00">+</text>
<text text-anchor="start" x="220.5" y="-856.5" font-family="Monaco" font-size="10.00">~ISignal()</text>
<text text-anchor="start" x="187" y="-841.5" font-family="Monaco" font-size="10.00">+</text>
<text text-anchor="start" x="220.5" y="-841.5" font-family="Monaco" font-size="10.00">connect()</text>
<text text-anchor="start" x="187" y="-826.5" font-family="Monaco" font-size="10.00">+</text>
<text text-anchor="start" x="220.5" y="-826.5" font-family="Monaco" font-size="10.00">disconnect()</text>
<text text-anchor="start" x="187" y="-811.5" font-family="Monaco" font-size="10.00">+</text>
<text text-anchor="start" x="220.5" y="-811.5" font-family="Monaco" font-size="10.00">blockSignals()</text>
<text text-anchor="start" x="187" y="-796.5" font-family="Monaco" font-size="10.00">#</text>
<text text-anchor="start" x="220.5" y="-796.5" font-family="Monaco" font-size="10.00">emit()</text>
<polygon fill="#666666" stroke="#666666" points="162.5,-881.5 162.5,-881.5 335.5,-881.5 335.5,-881.5 162.5,-881.5"/>
<polygon fill="#666666" stroke="#666666" points="162.5,-866.5 162.5,-866.5 335.5,-866.5 335.5,-866.5 162.5,-866.5"/>
<polygon fill="none" stroke="#666666" points="162,-790 162,-921 335,-921 335,-790 162,-790"/>
</a>
</g>
</g>
<!-- Node7&#45;&gt;Node2 -->
<g id="edge6_Node000002_Node000007" class="edge">
<title>Node7&#45;&gt;Node2</title>
<g id="a_edge6_Node000002_Node000007"><a xlink:title=" ">
<path fill="none" stroke="#63b8ff" d="M219.71,-780.27C216.42,-771.79 213.01,-762.99 209.58,-754.14"/>
<polygon fill="none" stroke="#63b8ff" points="216.49,-781.65 223.37,-789.71 223.02,-779.12 216.49,-781.65"/>
</a>
</g>
</g>
<!-- Node8&#45;&gt;Node1 -->
<g id="edge7_Node000001_Node000008" class="edge">
<title>Node8&#45;&gt;Node1</title>
<g id="a_edge7_Node000001_Node000008"><a xlink:title=" ">
<path fill="none" stroke="#63b8ff" d="M137.66,-246.95C135.75,-238.38 133.83,-229.78 131.95,-221.3"/>
<polygon fill="none" stroke="#63b8ff" points="134.3,-247.98 139.89,-256.98 141.13,-246.46 134.3,-247.98"/>
</a>
</g>
</g>
</g>
</svg>

<g id="navigator" transform="translate(0 0)" fill="#404254">
  <rect fill="#f2f5e9" fill-opacity="0.5" stroke="#606060" stroke-width=".5" x="0" y="0" width="60" height="60"/>
  <use id="zoomplus" xlink:href="#zoomPlus" x="17" y="9" onmousedown="handleZoom(evt,'in')"/>
  <use id="zoomminus" xlink:href="#zoomMin" x="42" y="9" onmousedown="handleZoom(evt,'out')"/>
  <use id="reset" xlink:href="#resetDef" x="30" y="36" onmousedown="handleReset()"/>
   <use id="arrowup" xlink:href="#arrowUp" x="0" y="0" onmousedown="handlePan(0,-1)"/>
  <use id="arrowright" xlink:href="#arrowRight" x="0" y="0" onmousedown="handlePan(1,0)"/>
  <use id="arrowdown" xlink:href="#arrowDown" x="0" y="0" onmousedown="handlePan(0,1)"/>
  <use id="arrowleft" xlink:href="#arrowLeft" x="0" y="0" onmousedown="handlePan(-1,0)"/>
</g>
<svg viewBox="0 0 15 15" width="100%" height="30px" preserveAspectRatio="xMaxYMin meet">
 <g id="arrow_out" transform="scale(0.3 0.3)">
  <a xlink:href="class_hydro_couple_1_1_temporal_1_1_i_time_id_based_component_data_item__inherit__graph_org.svg" target="_base">
   <rect id="button" ry="5" rx="5" y="6" x="6" height="38" width="38"
        fill="#f2f5e9" fill-opacity="0.5" stroke="#606060" stroke-width="1.0"/>
   <path id="arrow"
     d="M 11.500037,31.436501 C 11.940474,20.09759 22.043105,11.32322 32.158766,21.979434 L 37.068811,17.246167 C 37.068811,17.246167 37.088388,32 37.088388,32 L 22.160133,31.978069 C 22.160133,31.978069 26.997745,27.140456 26.997745,27.140456 C 18.528582,18.264221 13.291696,25.230495 11.500037,31.436501 z"
     style="fill:#404040;"/>
  </a>
 </g>
</svg>

<style type='text/css'>
<![CDATA[
[data-mouse-over-selected='false'] { opacity: 0.7; }
[data-mouse-over-selected='true']  { opacity: 1.0; }
]]>
</style>
<script type="application/ecmascript"><![CDATA[
document.addEventListener('DOMContentLoaded', (event) => {
  highlightEdges();
  highlightAdjacentNodes();
});
]]></script>
</svg>
