<?xml version="1.0" encoding="UTF-8" standalone="no"?>
<!DOCTYPE svg PUBLIC "-//W3C//DTD SVG 1.1//EN"
 "http://www.w3.org/Graphics/SVG/1.1/DTD/svg11.dtd">
<!-- Generated by graphviz version 2.43.0 (0)
 -->
<!-- Title: HydroCouple::Spatial::INetwork Pages: 1 -->
<svg width="175pt" height="614pt"
 viewBox="0.00 0.00 175.00 614.00" xmlns="http://www.w3.org/2000/svg" xmlns:xlink="http://www.w3.org/1999/xlink">
<g id="graph0" class="graph" transform="scale(1 1) rotate(0) translate(4 610)">
<title>HydroCouple::Spatial::INetwork</title>
<!-- Node1 -->
<g id="Node000001" class="node">
<title>Node1</title>
<g id="a_Node000001"><a xlink:title="The INetwork class.">
<polygon fill="#999999" stroke="transparent" points="140,-120 27,-120 27,0 140,0 140,-120"/>
<text text-anchor="start" x="32.5" y="-108" font-family="Monaco" font-size="10.00">HydroCouple::Spatial</text>
<text text-anchor="start" x="58.5" y="-97" font-family="Monaco" font-size="10.00">::INetwork</text>
<text text-anchor="start" x="82" y="-82" font-family="Monaco" font-size="10.00"> </text>
<text text-anchor="start" x="37.5" y="-67" font-family="Monaco" font-size="10.00">+</text>
<text text-anchor="start" x="56.5" y="-67" font-family="Monaco" font-size="10.00">~INetwork()</text>
<text text-anchor="start" x="37.5" y="-52" font-family="Monaco" font-size="10.00">+</text>
<text text-anchor="start" x="56.5" y="-52" font-family="Monaco" font-size="10.00">edgeCount()</text>
<text text-anchor="start" x="37.5" y="-37" font-family="Monaco" font-size="10.00">+</text>
<text text-anchor="start" x="56.5" y="-37" font-family="Monaco" font-size="10.00">edge()</text>
<text text-anchor="start" x="37.5" y="-22" font-family="Monaco" font-size="10.00">+</text>
<text text-anchor="start" x="56.5" y="-22" font-family="Monaco" font-size="10.00">vertexCount()</text>
<text text-anchor="start" x="37.5" y="-7" font-family="Monaco" font-size="10.00">+</text>
<text text-anchor="start" x="56.5" y="-7" font-family="Monaco" font-size="10.00">vertex()</text>
<polygon fill="#666666" stroke="#666666" points="27.5,-92 27.5,-92 140.5,-92 140.5,-92 27.5,-92"/>
<polygon fill="#666666" stroke="#666666" points="27.5,-77 27.5,-77 140.5,-77 140.5,-77 27.5,-77"/>
<polygon fill="none" stroke="#666666" points="27,0 27,-120 140,-120 140,0 27,0"/>
</a>
</g>
</g>
<!-- Node2 -->
<g id="Node000002" class="node">
<title>Node2</title>
<g id="a_Node000002"><a xlink:href="../../d2/d2a/class_hydro_couple_1_1_i_identity.html" target="_top" xlink:title="IIdentity interface class defines a method to get the Id of an HydroCouple entity.">
<polygon fill="white" stroke="transparent" points="143.5,-220 23.5,-220 23.5,-156 143.5,-156 143.5,-220"/>
<text text-anchor="start" x="28.5" y="-208" font-family="Monaco" font-size="10.00">HydroCouple::IIdentity</text>
<text text-anchor="start" x="81.5" y="-193" font-family="Monaco" font-size="10.00"> </text>
<text text-anchor="start" x="38" y="-178" font-family="Monaco" font-size="10.00">+</text>
<text text-anchor="start" x="61.5" y="-178" font-family="Monaco" font-size="10.00">~IIdentity()</text>
<text text-anchor="start" x="38" y="-163" font-family="Monaco" font-size="10.00">+</text>
<text text-anchor="start" x="61.5" y="-163" font-family="Monaco" font-size="10.00">id()</text>
<polygon fill="#666666" stroke="#666666" points="23.5,-203 23.5,-203 143.5,-203 143.5,-203 23.5,-203"/>
<polygon fill="#666666" stroke="#666666" points="23.5,-188 23.5,-188 143.5,-188 143.5,-188 23.5,-188"/>
<polygon fill="none" stroke="#666666" points="23.5,-156 23.5,-220 143.5,-220 143.5,-156 23.5,-156"/>
</a>
</g>
</g>
<!-- Node2&#45;&gt;Node1 -->
<g id="edge1_Node000001_Node000002" class="edge">
<title>Node2&#45;&gt;Node1</title>
<g id="a_edge1_Node000001_Node000002"><a xlink:title=" ">
<path fill="none" stroke="#63b8ff" d="M83.5,-145.85C83.5,-137.68 83.5,-128.94 83.5,-120.3"/>
<polygon fill="none" stroke="#63b8ff" points="80,-145.85 83.5,-155.85 87,-145.85 80,-145.85"/>
</a>
</g>
</g>
<!-- Node3 -->
<g id="Node000003" class="node">
<title>Node3</title>
<g id="a_Node000003"><a xlink:href="../../db/d64/class_hydro_couple_1_1_i_description.html" target="_top" xlink:title="IDescription interface class provides descriptive information on a HydroCouple object.">
<polygon fill="white" stroke="transparent" points="152.5,-365 14.5,-365 14.5,-256 152.5,-256 152.5,-365"/>
<text text-anchor="start" x="19.5" y="-352.5" font-family="Monaco" font-size="10.00">HydroCouple::IDescription</text>
<text text-anchor="start" x="81.5" y="-337.5" font-family="Monaco" font-size="10.00"> </text>
<text text-anchor="start" x="28" y="-322.5" font-family="Monaco" font-size="10.00">+</text>
<text text-anchor="start" x="50.5" y="-322.5" font-family="Monaco" font-size="10.00">~IDescription()</text>
<text text-anchor="start" x="28" y="-307.5" font-family="Monaco" font-size="10.00">+</text>
<text text-anchor="start" x="50.5" y="-307.5" font-family="Monaco" font-size="10.00">caption()</text>
<text text-anchor="start" x="28" y="-292.5" font-family="Monaco" font-size="10.00">+</text>
<text text-anchor="start" x="50.5" y="-292.5" font-family="Monaco" font-size="10.00">setCaption()</text>
<text text-anchor="start" x="28" y="-277.5" font-family="Monaco" font-size="10.00">+</text>
<text text-anchor="start" x="50.5" y="-277.5" font-family="Monaco" font-size="10.00">description()</text>
<text text-anchor="start" x="28" y="-262.5" font-family="Monaco" font-size="10.00">+</text>
<text text-anchor="start" x="50.5" y="-262.5" font-family="Monaco" font-size="10.00">setDescription()</text>
<polygon fill="#666666" stroke="#666666" points="14.5,-347.5 14.5,-347.5 152.5,-347.5 152.5,-347.5 14.5,-347.5"/>
<polygon fill="#666666" stroke="#666666" points="14.5,-332.5 14.5,-332.5 152.5,-332.5 152.5,-332.5 14.5,-332.5"/>
<polygon fill="none" stroke="#666666" points="14.5,-256 14.5,-365 152.5,-365 152.5,-256 14.5,-256"/>
</a>
</g>
</g>
<!-- Node3&#45;&gt;Node2 -->
<g id="edge2_Node000002_Node000003" class="edge">
<title>Node3&#45;&gt;Node2</title>
<g id="a_edge2_Node000002_Node000003"><a xlink:title=" ">
<path fill="none" stroke="#63b8ff" d="M83.5,-245.9C83.5,-237 83.5,-228.2 83.5,-220.28"/>
<polygon fill="none" stroke="#63b8ff" points="80,-245.95 83.5,-255.95 87,-245.95 80,-245.95"/>
</a>
</g>
</g>
<!-- Node4 -->
<g id="Node000004" class="node">
<title>Node4</title>
<g id="a_Node000004"><a xlink:href="../../dd/dbf/class_hydro_couple_1_1_i_property_changed.html" target="_top" xlink:title="IPropertyChanged interface is used to emit signal/event when a property of an object changes.">
<polygon fill="white" stroke="transparent" points="167,-450 0,-450 0,-401 167,-401 167,-450"/>
<text text-anchor="start" x="5.5" y="-437.5" font-family="Monaco" font-size="10.00">HydroCouple::IPropertyChanged</text>
<text text-anchor="start" x="82" y="-422.5" font-family="Monaco" font-size="10.00"> </text>
<text text-anchor="start" x="15" y="-407.5" font-family="Monaco" font-size="10.00">+</text>
<text text-anchor="start" x="38.5" y="-407.5" font-family="Monaco" font-size="10.00">~IPropertyChanged()</text>
<polygon fill="#666666" stroke="#666666" points="0.5,-432.5 0.5,-432.5 167.5,-432.5 167.5,-432.5 0.5,-432.5"/>
<polygon fill="#666666" stroke="#666666" points="0.5,-417.5 0.5,-417.5 167.5,-417.5 167.5,-417.5 0.5,-417.5"/>
<polygon fill="none" stroke="#666666" points="0,-401 0,-450 167,-450 167,-401 0,-401"/>
</a>
</g>
</g>
<!-- Node4&#45;&gt;Node3 -->
<g id="edge3_Node000003_Node000004" class="edge">
<title>Node4&#45;&gt;Node3</title>
<g id="a_edge3_Node000003_Node000004"><a xlink:title=" ">
<path fill="none" stroke="#63b8ff" d="M83.5,-390.79C83.5,-382.79 83.5,-374.06 83.5,-365.41"/>
<polygon fill="none" stroke="#63b8ff" points="80,-390.81 83.5,-400.81 87,-390.81 80,-390.81"/>
</a>
</g>
</g>
<!-- Node5 -->
<g id="Node000005" class="node">
<title>Node5</title>
<g id="a_Node000005"><a xlink:href="../../d5/d8b/class_hydro_couple_1_1_i_signal.html" target="_top" xlink:title=" ">
<polygon fill="white" stroke="transparent" points="140,-606 27,-606 27,-486 140,-486 140,-606"/>
<text text-anchor="start" x="32.5" y="-594" font-family="Monaco" font-size="10.00">HydroCouple::ISignal</text>
<text text-anchor="start" x="58.5" y="-583" font-family="Monaco" font-size="10.00">&lt; string &gt;</text>
<text text-anchor="start" x="82" y="-568" font-family="Monaco" font-size="10.00"> </text>
<text text-anchor="start" x="37" y="-553" font-family="Monaco" font-size="10.00">+</text>
<text text-anchor="start" x="55.5" y="-553" font-family="Monaco" font-size="10.00">~ISignal()</text>
<text text-anchor="start" x="37" y="-538" font-family="Monaco" font-size="10.00">+</text>
<text text-anchor="start" x="55.5" y="-538" font-family="Monaco" font-size="10.00">connect()</text>
<text text-anchor="start" x="37" y="-523" font-family="Monaco" font-size="10.00">+</text>
<text text-anchor="start" x="55.5" y="-523" font-family="Monaco" font-size="10.00">disconnect()</text>
<text text-anchor="start" x="37" y="-508" font-family="Monaco" font-size="10.00">+</text>
<text text-anchor="start" x="55.5" y="-508" font-family="Monaco" font-size="10.00">blockSignals()</text>
<text text-anchor="start" x="37" y="-493" font-family="Monaco" font-size="10.00">#</text>
<text text-anchor="start" x="55.5" y="-493" font-family="Monaco" font-size="10.00">emit()</text>
<polygon fill="#666666" stroke="#666666" points="27.5,-578 27.5,-578 140.5,-578 140.5,-578 27.5,-578"/>
<polygon fill="#666666" stroke="#666666" points="27.5,-563 27.5,-563 140.5,-563 140.5,-563 27.5,-563"/>
<polygon fill="none" stroke="#666666" points="27,-486 27,-606 140,-606 140,-486 27,-486"/>
</a>
</g>
</g>
<!-- Node5&#45;&gt;Node4 -->
<g id="edge4_Node000004_Node000005" class="edge">
<title>Node5&#45;&gt;Node4</title>
<g id="a_edge4_Node000004_Node000005"><a xlink:title=" ">
<path fill="none" stroke="#63b8ff" d="M83.5,-475.74C83.5,-466.6 83.5,-457.78 83.5,-450.2"/>
<polygon fill="none" stroke="#63b8ff" points="80,-475.75 83.5,-485.75 87,-475.75 80,-475.75"/>
</a>
</g>
</g>
</g>
</svg>
