<?xml version="1.0" encoding="UTF-8" standalone="no"?>
<!DOCTYPE svg PUBLIC "-//W3C//DTD SVG 1.1//EN"
 "http://www.w3.org/Graphics/SVG/1.1/DTD/svg11.dtd">
<!-- Generated by graphviz version 2.43.0 (0)
 -->
<!-- Title: HydroCouple::Temporal::ITimeIdBasedComponentDataItem Pages: 1 -->
<!--zoomable 888 -->
<svg id="main" version="1.1" xmlns="http://www.w3.org/2000/svg" xmlns:xlink="http://www.w3.org/1999/xlink" xml:space="preserve" onload="init(evt)">
<style type="text/css"><![CDATA[
.edge:hover path { stroke: red; }
.edge:hover polygon { stroke: red; fill: red; }
]]></style>
<script type="text/javascript"><![CDATA[
var edges = document.getElementsByTagName('g');
if (edges && edges.length) {
  for (var i=0;i<edges.length;i++) {
    if (edges[i].id.substr(0,4)=='edge') {
      edges[i].setAttribute('class','edge');
    }
  }
}
]]></script>
        <defs>
                <circle id="rim" cx="0" cy="0" r="7"/>
                <circle id="rim2" cx="0" cy="0" r="3.5"/>
                <g id="zoomPlus">
                        <use xlink:href="#rim" fill="#404040">
                                <set attributeName="fill" to="#808080" begin="zoomplus.mouseover" end="zoomplus.mouseout"/>
                        </use>
                        <path d="M-4,0h8M0,-4v8" fill="none" stroke="white" stroke-width="1.5" pointer-events="none"/>
                </g>
                <g id="zoomMin">
                        <use xlink:href="#rim" fill="#404040">
                                <set attributeName="fill" to="#808080" begin="zoomminus.mouseover" end="zoomminus.mouseout"/>
                        </use>
                        <path d="M-4,0h8" fill="none" stroke="white" stroke-width="1.5" pointer-events="none"/>
                </g>
                <g id="dirArrow">
                        <path fill="none" stroke="white" stroke-width="1.5" d="M0,-3.0v7 M-2.5,-0.5L0,-3.0L2.5,-0.5"/>
                </g>
               <g id="resetDef">
                       <use xlink:href="#rim2" fill="#404040">
                               <set attributeName="fill" to="#808080" begin="reset.mouseover" end="reset.mouseout"/>
                       </use>
               </g>
        </defs>

<script type="text/javascript">
var viewWidth = 251;
var viewHeight = 888;
var sectionId = 'dynsection-1';
</script>
<script xlink:href="../../svgpan.js"/>
<svg id="graph" class="graph">
<g id="viewport">
<title>HydroCouple::Temporal::ITimeIdBasedComponentDataItem</title>
<!-- Node1 -->
<g id="node1" class="node">
<title>Node1</title>
<g id="a_node1"><a xlink:title="The ITimeIdBasedComponentDataItem class.">
<polygon fill="#bfbfbf" stroke="black" points="2.5,-0.5 2.5,-145.5 193.5,-145.5 193.5,-0.5 2.5,-0.5"/>
<text text-anchor="start" x="10.5" y="-133.5" font-family="Monaco" font-size="10.00">HydroCouple::Temporal</text>
<text text-anchor="middle" x="98" y="-122.5" font-family="Monaco" font-size="10.00">::ITimeIdBasedComponentDataItem</text>
<polyline fill="none" stroke="black" points="2.5,-115.5 193.5,-115.5 "/>
<text text-anchor="middle" x="98" y="-103.5" font-family="Monaco" font-size="10.00"> </text>
<polyline fill="none" stroke="black" points="2.5,-96.5 193.5,-96.5 "/>
<text text-anchor="start" x="10.5" y="-84.5" font-family="Monaco" font-size="10.00">+ ~ITimeIdBasedComponentData</text>
<text text-anchor="start" x="10.5" y="-73.5" font-family="Monaco" font-size="10.00">Item()</text>
<text text-anchor="start" x="10.5" y="-62.5" font-family="Monaco" font-size="10.00">+ identifiers()</text>
<text text-anchor="start" x="10.5" y="-51.5" font-family="Monaco" font-size="10.00">+ identifierDimension()</text>
<text text-anchor="start" x="10.5" y="-40.5" font-family="Monaco" font-size="10.00">+ getValue()</text>
<text text-anchor="start" x="10.5" y="-29.5" font-family="Monaco" font-size="10.00">+ getValues()</text>
<text text-anchor="start" x="10.5" y="-18.5" font-family="Monaco" font-size="10.00">+ setValue()</text>
<text text-anchor="start" x="10.5" y="-7.5" font-family="Monaco" font-size="10.00">+ setValues()</text>
</a>
</g>
</g>
<!-- Node2 -->
<g id="node2" class="node">
<title>Node2</title>
<g id="a_node2"><a xlink:href="../../d8/d52/class_hydro_couple_1_1_i_component_data_item.html" target="_top" xlink:title="IComponentItem is a fundamental unit of data for a component.">
<polygon fill="none" stroke="black" points="2.5,-342.5 2.5,-509.5 193.5,-509.5 193.5,-342.5 2.5,-342.5"/>
<text text-anchor="middle" x="98" y="-497.5" font-family="Monaco" font-size="10.00">HydroCouple::IComponentDataItem</text>
<polyline fill="none" stroke="black" points="2.5,-490.5 193.5,-490.5 "/>
<text text-anchor="middle" x="98" y="-478.5" font-family="Monaco" font-size="10.00"> </text>
<polyline fill="none" stroke="black" points="2.5,-471.5 193.5,-471.5 "/>
<text text-anchor="start" x="10.5" y="-459.5" font-family="Monaco" font-size="10.00">+ ~IComponentDataItem()</text>
<text text-anchor="start" x="10.5" y="-448.5" font-family="Monaco" font-size="10.00">+ modelComponent()</text>
<text text-anchor="start" x="10.5" y="-437.5" font-family="Monaco" font-size="10.00">+ dimensions()</text>
<text text-anchor="start" x="10.5" y="-426.5" font-family="Monaco" font-size="10.00">+ dimensionLength()</text>
<text text-anchor="start" x="10.5" y="-415.5" font-family="Monaco" font-size="10.00">+ valueDefinition()</text>
<text text-anchor="start" x="10.5" y="-404.5" font-family="Monaco" font-size="10.00">+ getValue()</text>
<text text-anchor="start" x="10.5" y="-393.5" font-family="Monaco" font-size="10.00">+ setValue()</text>
<text text-anchor="start" x="10.5" y="-382.5" font-family="Monaco" font-size="10.00">+ hasEditor()</text>
<text text-anchor="start" x="10.5" y="-371.5" font-family="Monaco" font-size="10.00">+ showEditor()</text>
<text text-anchor="start" x="10.5" y="-360.5" font-family="Monaco" font-size="10.00">+ hasViewer()</text>
<text text-anchor="start" x="10.5" y="-349.5" font-family="Monaco" font-size="10.00">+ showViewer()</text>
</a>
</g>
</g>
<!-- Node2&#45;&gt;Node1 -->
<g id="edge1" class="edge">
<title>Node2&#45;&gt;Node1</title>
<path fill="none" stroke="midnightblue" d="M65.4,-332.33C63.21,-323.51 61.35,-314.64 60,-306 51.52,-251.55 50.72,-236.32 60,-182 62.04,-170.05 65.27,-157.66 69,-145.72"/>
<polygon fill="none" stroke="midnightblue" points="62.07,-333.45 67.99,-342.24 68.85,-331.68 62.07,-333.45"/>
</g>
<!-- Node6 -->
<g id="node6" class="node">
<title>Node6</title>
<g id="a_node6"><a xlink:href="../../d9/d05/class_hydro_couple_1_1_temporal_1_1_i_time_component_data_item.html" target="_top" xlink:title="ITimeComponentItem is an IComponentItem with a temporal attribute. This class cannot be directly inst...">
<polygon fill="none" stroke="black" points="69.5,-182.5 69.5,-305.5 242.5,-305.5 242.5,-182.5 69.5,-182.5"/>
<text text-anchor="start" x="77.5" y="-293.5" font-family="Monaco" font-size="10.00">HydroCouple::Temporal</text>
<text text-anchor="middle" x="156" y="-282.5" font-family="Monaco" font-size="10.00">::ITimeComponentDataItem</text>
<polyline fill="none" stroke="black" points="69.5,-275.5 242.5,-275.5 "/>
<text text-anchor="middle" x="156" y="-263.5" font-family="Monaco" font-size="10.00"> </text>
<polyline fill="none" stroke="black" points="69.5,-256.5 242.5,-256.5 "/>
<text text-anchor="start" x="77.5" y="-244.5" font-family="Monaco" font-size="10.00">+ ~ITimeComponentDataItem()</text>
<text text-anchor="start" x="77.5" y="-233.5" font-family="Monaco" font-size="10.00">+ times()</text>
<text text-anchor="start" x="77.5" y="-222.5" font-family="Monaco" font-size="10.00">+ time()</text>
<text text-anchor="start" x="77.5" y="-211.5" font-family="Monaco" font-size="10.00">+ timeCount()</text>
<text text-anchor="start" x="77.5" y="-200.5" font-family="Monaco" font-size="10.00">+ timeSpan()</text>
<text text-anchor="start" x="77.5" y="-189.5" font-family="Monaco" font-size="10.00">+ timeDimension()</text>
</a>
</g>
</g>
<!-- Node2&#45;&gt;Node6 -->
<g id="edge6" class="edge">
<title>Node2&#45;&gt;Node6</title>
<path fill="none" stroke="midnightblue" d="M127.72,-332.78C130.69,-323.56 133.65,-314.37 136.47,-305.61"/>
<polygon fill="none" stroke="midnightblue" points="124.36,-331.78 124.62,-342.38 131.02,-333.93 124.36,-331.78"/>
</g>
<!-- Node3 -->
<g id="node3" class="node">
<title>Node3</title>
<g id="a_node3"><a xlink:href="../../d2/d2a/class_hydro_couple_1_1_i_identity.html" target="_top" xlink:title="IIdentity interface class defines a method to get the Id of an HydroCouple entity.">
<polygon fill="none" stroke="black" points="35,-546.5 35,-614.5 161,-614.5 161,-546.5 35,-546.5"/>
<text text-anchor="middle" x="98" y="-602.5" font-family="Monaco" font-size="10.00">HydroCouple::IIdentity</text>
<polyline fill="none" stroke="black" points="35,-595.5 161,-595.5 "/>
<text text-anchor="middle" x="98" y="-583.5" font-family="Monaco" font-size="10.00"> </text>
<polyline fill="none" stroke="black" points="35,-576.5 161,-576.5 "/>
<text text-anchor="start" x="43" y="-564.5" font-family="Monaco" font-size="10.00">+ ~IIdentity()</text>
<text text-anchor="start" x="43" y="-553.5" font-family="Monaco" font-size="10.00">+ id()</text>
</a>
</g>
</g>
<!-- Node3&#45;&gt;Node2 -->
<g id="edge2" class="edge">
<title>Node3&#45;&gt;Node2</title>
<path fill="none" stroke="midnightblue" d="M98,-536.23C98,-527.88 98,-518.89 98,-509.76"/>
<polygon fill="none" stroke="midnightblue" points="94.5,-536.41 98,-546.41 101.5,-536.41 94.5,-536.41"/>
</g>
<!-- Node4 -->
<g id="node4" class="node">
<title>Node4</title>
<g id="a_node4"><a xlink:href="../../db/d64/class_hydro_couple_1_1_i_description.html" target="_top" xlink:title="IDescription interface class provides descriptive information on a HydroCouple object.">
<polygon fill="none" stroke="black" points="26,-651.5 26,-752.5 170,-752.5 170,-651.5 26,-651.5"/>
<text text-anchor="middle" x="98" y="-740.5" font-family="Monaco" font-size="10.00">HydroCouple::IDescription</text>
<polyline fill="none" stroke="black" points="26,-733.5 170,-733.5 "/>
<text text-anchor="middle" x="98" y="-721.5" font-family="Monaco" font-size="10.00"> </text>
<polyline fill="none" stroke="black" points="26,-714.5 170,-714.5 "/>
<text text-anchor="start" x="34" y="-702.5" font-family="Monaco" font-size="10.00">+ ~IDescription()</text>
<text text-anchor="start" x="34" y="-691.5" font-family="Monaco" font-size="10.00">+ caption()</text>
<text text-anchor="start" x="34" y="-680.5" font-family="Monaco" font-size="10.00">+ setCaption()</text>
<text text-anchor="start" x="34" y="-669.5" font-family="Monaco" font-size="10.00">+ description()</text>
<text text-anchor="start" x="34" y="-658.5" font-family="Monaco" font-size="10.00">+ setDescription()</text>
</a>
</g>
</g>
<!-- Node4&#45;&gt;Node3 -->
<g id="edge3" class="edge">
<title>Node4&#45;&gt;Node3</title>
<path fill="none" stroke="midnightblue" d="M98,-641.17C98,-632.11 98,-623.05 98,-614.83"/>
<polygon fill="none" stroke="midnightblue" points="94.5,-641.36 98,-651.36 101.5,-641.36 94.5,-641.36"/>
</g>
<!-- Node5 -->
<g id="node5" class="node">
<title>Node5</title>
<g id="a_node5"><a xlink:href="../../dd/dbf/class_hydro_couple_1_1_i_property_changed.html" target="_top" xlink:title="IPropertyChanged interface is used to emit signal/event when a property of an object changes.">
<polygon fill="none" stroke="black" points="0,-789.5 0,-879.5 196,-879.5 196,-789.5 0,-789.5"/>
<text text-anchor="middle" x="98" y="-867.5" font-family="Monaco" font-size="10.00">HydroCouple::IPropertyChanged</text>
<polyline fill="none" stroke="black" points="0,-860.5 196,-860.5 "/>
<text text-anchor="middle" x="98" y="-848.5" font-family="Monaco" font-size="10.00"> </text>
<polyline fill="none" stroke="black" points="0,-841.5 196,-841.5 "/>
<text text-anchor="start" x="8" y="-829.5" font-family="Monaco" font-size="10.00">+ ~IPropertyChanged()</text>
<text text-anchor="start" x="8" y="-818.5" font-family="Monaco" font-size="10.00">+ registerPropertyChangedListener()</text>
<text text-anchor="start" x="8" y="-807.5" font-family="Monaco" font-size="10.00">+ deRegisterPropertyChanged</text>
<text text-anchor="start" x="8" y="-796.5" font-family="Monaco" font-size="10.00">Listener()</text>
</a>
</g>
</g>
<!-- Node5&#45;&gt;Node4 -->
<g id="edge4" class="edge">
<title>Node5&#45;&gt;Node4</title>
<path fill="none" stroke="midnightblue" d="M98,-779.13C98,-770.31 98,-761.22 98,-752.52"/>
<polygon fill="none" stroke="midnightblue" points="94.5,-779.32 98,-789.32 101.5,-779.32 94.5,-779.32"/>
</g>
<!-- Node6&#45;&gt;Node1 -->
<g id="edge5" class="edge">
<title>Node6&#45;&gt;Node1</title>
<path fill="none" stroke="midnightblue" d="M131.92,-172.83C128.84,-163.85 125.68,-154.65 122.59,-145.64"/>
<polygon fill="none" stroke="midnightblue" points="128.67,-174.14 135.22,-182.46 135.29,-171.87 128.67,-174.14"/>
</g>
</g>
</svg>
        <g id="navigator" transform="translate(0 0)" fill="#404254">
                <rect fill="#f2f5e9" fill-opacity="0.5" stroke="#606060" stroke-width=".5" x="0" y="0" width="60" height="60"/>
                <use id="zoomplus" xlink:href="#zoomPlus" x="17" y="9" onmousedown="handleZoom(evt,'in')"/>
                <use id="zoomminus" xlink:href="#zoomMin" x="42" y="9" onmousedown="handleZoom(evt,'out')"/>
                <use id="reset" xlink:href="#resetDef" x="30" y="36" onmousedown="handleReset()"/>
                <g id="arrowUp" xlink:href="#dirArrow" transform="translate(30 24)" onmousedown="handlePan(0,-1)">
                  <use xlink:href="#rim" fill="#404040">
                        <set attributeName="fill" to="#808080" begin="arrowUp.mouseover" end="arrowUp.mouseout"/>
                  </use>
                  <path fill="none" stroke="white" stroke-width="1.5" d="M0,-3.0v7 M-2.5,-0.5L0,-3.0L2.5,-0.5"/>
                </g>
                <g id="arrowRight" xlink:href="#dirArrow" transform="rotate(90) translate(36 -43)" onmousedown="handlePan(1,0)">
                  <use xlink:href="#rim" fill="#404040">
                        <set attributeName="fill" to="#808080" begin="arrowRight.mouseover" end="arrowRight.mouseout"/>
                  </use>
                  <path fill="none" stroke="white" stroke-width="1.5" d="M0,-3.0v7 M-2.5,-0.5L0,-3.0L2.5,-0.5"/>
                </g>
                <g id="arrowDown" xlink:href="#dirArrow" transform="rotate(180) translate(-30 -48)" onmousedown="handlePan(0,1)">
                  <use xlink:href="#rim" fill="#404040">
                        <set attributeName="fill" to="#808080" begin="arrowDown.mouseover" end="arrowDown.mouseout"/>
                  </use>
                  <path fill="none" stroke="white" stroke-width="1.5" d="M0,-3.0v7 M-2.5,-0.5L0,-3.0L2.5,-0.5"/>
                </g>
                <g id="arrowLeft" xlink:href="#dirArrow" transform="rotate(270) translate(-36 17)" onmousedown="handlePan(-1,0)">
                  <use xlink:href="#rim" fill="#404040">
                        <set attributeName="fill" to="#808080" begin="arrowLeft.mouseover" end="arrowLeft.mouseout"/>
                  </use>
                  <path fill="none" stroke="white" stroke-width="1.5" d="M0,-3.0v7 M-2.5,-0.5L0,-3.0L2.5,-0.5"/>
                </g>
        </g>
        <svg viewBox="0 0 15 15" width="100%" height="30px" preserveAspectRatio="xMaxYMin meet">
         <g id="arrow_out" transform="scale(0.3 0.3)">
          <a xlink:href="class_hydro_couple_1_1_temporal_1_1_i_time_id_based_component_data_item__coll__graph_org.svg" target="_base">
           <rect id="button" ry="5" rx="5" y="6" x="6" height="38" width="38"
                fill="#f2f5e9" fill-opacity="0.5" stroke="#606060" stroke-width="1.0"/>
           <path id="arrow"
             d="M 11.500037,31.436501 C 11.940474,20.09759 22.043105,11.32322 32.158766,21.979434 L 37.068811,17.246167 C 37.068811,17.246167 37.088388,32 37.088388,32 L 22.160133,31.978069 C 22.160133,31.978069 26.997745,27.140456 26.997745,27.140456 C 18.528582,18.264221 13.291696,25.230495 11.500037,31.436501 z"
             style="fill:#404040;"/>
          </a>
         </g>
        </svg>
</svg>
