<?xml version="1.0" encoding="UTF-8" standalone="no"?>
<!DOCTYPE svg PUBLIC "-//W3C//DTD SVG 1.1//EN"
 "http://www.w3.org/Graphics/SVG/1.1/DTD/svg11.dtd">
<!-- Generated by graphviz version 2.43.0 (0)
 -->
<!-- Title: HydroCouple::Temporal::ITimeSpan Pages: 1 -->
<svg width="204pt" height="331pt"
 viewBox="0.00 0.00 204.00 331.00" xmlns="http://www.w3.org/2000/svg" xmlns:xlink="http://www.w3.org/1999/xlink">
<g id="graph0" class="graph" transform="scale(1 1) rotate(0) translate(4 327)">
<title>HydroCouple::Temporal::ITimeSpan</title>
<!-- Node1 -->
<g id="node1" class="node">
<title>Node1</title>
<g id="a_node1"><a xlink:title="ITimeSpan specifies a time duration.">
<polygon fill="#bfbfbf" stroke="black" points="32.5,-0.5 32.5,-79.5 163.5,-79.5 163.5,-0.5 32.5,-0.5"/>
<text text-anchor="start" x="40.5" y="-67.5" font-family="Monaco" font-size="10.00">HydroCouple::Temporal</text>
<text text-anchor="middle" x="98" y="-56.5" font-family="Monaco" font-size="10.00">::ITimeSpan</text>
<polyline fill="none" stroke="black" points="32.5,-49.5 163.5,-49.5 "/>
<text text-anchor="middle" x="98" y="-37.5" font-family="Monaco" font-size="10.00"> </text>
<polyline fill="none" stroke="black" points="32.5,-30.5 163.5,-30.5 "/>
<text text-anchor="start" x="40.5" y="-18.5" font-family="Monaco" font-size="10.00">+ ~ITimeSpan()</text>
<text text-anchor="start" x="40.5" y="-7.5" font-family="Monaco" font-size="10.00">+ duration()</text>
</a>
</g>
</g>
<!-- Node2 -->
<g id="node2" class="node">
<title>Node2</title>
<g id="a_node2"><a xlink:href="../../d6/dd7/class_hydro_couple_1_1_temporal_1_1_i_date_time.html" target="_top" xlink:title="IDateTime interface based on a Julian day.">
<polygon fill="none" stroke="black" points="32.5,-116.5 32.5,-195.5 163.5,-195.5 163.5,-116.5 32.5,-116.5"/>
<text text-anchor="start" x="40.5" y="-183.5" font-family="Monaco" font-size="10.00">HydroCouple::Temporal</text>
<text text-anchor="middle" x="98" y="-172.5" font-family="Monaco" font-size="10.00">::IDateTime</text>
<polyline fill="none" stroke="black" points="32.5,-165.5 163.5,-165.5 "/>
<text text-anchor="middle" x="98" y="-153.5" font-family="Monaco" font-size="10.00"> </text>
<polyline fill="none" stroke="black" points="32.5,-146.5 163.5,-146.5 "/>
<text text-anchor="start" x="40.5" y="-134.5" font-family="Monaco" font-size="10.00">+ ~IDateTime()</text>
<text text-anchor="start" x="40.5" y="-123.5" font-family="Monaco" font-size="10.00">+ julianDay()</text>
</a>
</g>
</g>
<!-- Node2&#45;&gt;Node1 -->
<g id="edge1" class="edge">
<title>Node2&#45;&gt;Node1</title>
<path fill="none" stroke="midnightblue" d="M98,-106.15C98,-97.26 98,-88.1 98,-79.56"/>
<polygon fill="none" stroke="midnightblue" points="94.5,-106.4 98,-116.4 101.5,-106.4 94.5,-106.4"/>
</g>
<!-- Node3 -->
<g id="node3" class="node">
<title>Node3</title>
<g id="a_node3"><a xlink:href="../../dd/dbf/class_hydro_couple_1_1_i_property_changed.html" target="_top" xlink:title="IPropertyChanged interface is used to emit signal/event when a property of an object changes.">
<polygon fill="none" stroke="black" points="0,-232.5 0,-322.5 196,-322.5 196,-232.5 0,-232.5"/>
<text text-anchor="middle" x="98" y="-310.5" font-family="Monaco" font-size="10.00">HydroCouple::IPropertyChanged</text>
<polyline fill="none" stroke="black" points="0,-303.5 196,-303.5 "/>
<text text-anchor="middle" x="98" y="-291.5" font-family="Monaco" font-size="10.00"> </text>
<polyline fill="none" stroke="black" points="0,-284.5 196,-284.5 "/>
<text text-anchor="start" x="8" y="-272.5" font-family="Monaco" font-size="10.00">+ ~IPropertyChanged()</text>
<text text-anchor="start" x="8" y="-261.5" font-family="Monaco" font-size="10.00">+ registerPropertyChangedListener()</text>
<text text-anchor="start" x="8" y="-250.5" font-family="Monaco" font-size="10.00">+ deRegisterPropertyChanged</text>
<text text-anchor="start" x="8" y="-239.5" font-family="Monaco" font-size="10.00">Listener()</text>
</a>
</g>
</g>
<!-- Node3&#45;&gt;Node2 -->
<g id="edge2" class="edge">
<title>Node3&#45;&gt;Node2</title>
<path fill="none" stroke="midnightblue" d="M98,-222.08C98,-213.23 98,-204.23 98,-195.86"/>
<polygon fill="none" stroke="midnightblue" points="94.5,-222.34 98,-232.34 101.5,-222.34 94.5,-222.34"/>
</g>
</g>
</svg>
