<?xml version="1.0" encoding="UTF-8" standalone="no"?>
<!DOCTYPE svg PUBLIC "-//W3C//DTD SVG 1.1//EN"
 "http://www.w3.org/Graphics/SVG/1.1/DTD/svg11.dtd">
<!-- Generated by graphviz version 2.43.0 (0)
 -->
<!-- Title: LinearRingZM Pages: 1 -->
<svg width="92pt" height="204pt"
 viewBox="0.00 0.00 92.00 204.00" xmlns="http://www.w3.org/2000/svg" xmlns:xlink="http://www.w3.org/1999/xlink">
<g id="graph0" class="graph" transform="scale(1 1) rotate(0) translate(4 200)">
<title>LinearRingZM</title>
<!-- Node1 -->
<g id="node1" class="node">
<title>Node1</title>
<g id="a_node1"><a xlink:title="The LinearRingZM struct.">
<polygon fill="#bfbfbf" stroke="black" points="0,-0.5 0,-57.5 84,-57.5 84,-0.5 0,-0.5"/>
<text text-anchor="middle" x="42" y="-45.5" font-family="Monaco" font-size="10.00">LinearRingZM</text>
<polyline fill="none" stroke="black" points="0,-38.5 84,-38.5 "/>
<text text-anchor="start" x="8" y="-26.5" font-family="Monaco" font-size="10.00">+ numPoints</text>
<polyline fill="none" stroke="black" points="0,-19.5 84,-19.5 "/>
<text text-anchor="middle" x="42" y="-7.5" font-family="Monaco" font-size="10.00"> </text>
</a>
</g>
</g>
<!-- Node2 -->
<g id="node2" class="node">
<title>Node2</title>
<g id="a_node2"><a xlink:href="../../d7/ded/struct_point_z_m.html" target="_top" xlink:title="The PointZM struct.">
<polygon fill="none" stroke="black" points="13.5,-105.5 13.5,-195.5 70.5,-195.5 70.5,-105.5 13.5,-105.5"/>
<text text-anchor="middle" x="42" y="-183.5" font-family="Monaco" font-size="10.00">PointZM</text>
<polyline fill="none" stroke="black" points="13.5,-176.5 70.5,-176.5 "/>
<text text-anchor="start" x="21.5" y="-164.5" font-family="Monaco" font-size="10.00">+ x</text>
<text text-anchor="start" x="21.5" y="-153.5" font-family="Monaco" font-size="10.00">+ y</text>
<text text-anchor="start" x="21.5" y="-142.5" font-family="Monaco" font-size="10.00">+ z</text>
<text text-anchor="start" x="21.5" y="-131.5" font-family="Monaco" font-size="10.00">+ m</text>
<polyline fill="none" stroke="black" points="13.5,-124.5 70.5,-124.5 "/>
<text text-anchor="middle" x="42" y="-112.5" font-family="Monaco" font-size="10.00"> </text>
</a>
</g>
</g>
<!-- Node2&#45;&gt;Node1 -->
<g id="edge1" class="edge">
<title>Node2&#45;&gt;Node1</title>
<path fill="none" stroke="#404040" d="M42,-105.34C42,-93.75 42,-81.31 42,-69.95"/>
<polygon fill="none" stroke="#404040" points="42,-69.69 38,-63.69 42,-57.69 46,-63.69 42,-69.69"/>
<text text-anchor="middle" x="63" y="-79" font-family="Monaco" font-size="10.00"> +points</text>
</g>
</g>
</svg>
