<?xml version="1.0" encoding="UTF-8" standalone="no"?>
<!DOCTYPE svg PUBLIC "-//W3C//DTD SVG 1.1//EN"
 "http://www.w3.org/Graphics/SVG/1.1/DTD/svg11.dtd">
<!-- Generated by graphviz version 2.43.0 (0)
 -->
<!-- Title: WKBPolygonZM Pages: 1 -->
<svg width="103pt" height="331pt"
 viewBox="0.00 0.00 103.00 331.00" xmlns="http://www.w3.org/2000/svg" xmlns:xlink="http://www.w3.org/1999/xlink">
<g id="graph0" class="graph" transform="scale(1 1) rotate(0) translate(4 327)">
<title>WKBPolygonZM</title>
<!-- Node1 -->
<g id="node1" class="node">
<title>Node1</title>
<g id="a_node1"><a xlink:title="The WKBPolygonZM struct.">
<polygon fill="#bfbfbf" stroke="black" points="0,-0.5 0,-79.5 95,-79.5 95,-0.5 0,-0.5"/>
<text text-anchor="middle" x="47.5" y="-67.5" font-family="Monaco" font-size="10.00">WKBPolygonZM</text>
<polyline fill="none" stroke="black" points="0,-60.5 95,-60.5 "/>
<text text-anchor="start" x="8" y="-48.5" font-family="Monaco" font-size="10.00">+ byteOrder</text>
<text text-anchor="start" x="8" y="-37.5" font-family="Monaco" font-size="10.00">+ numRings</text>
<text text-anchor="start" x="8" y="-26.5" font-family="Monaco" font-size="10.00">+ wkbType</text>
<polyline fill="none" stroke="black" points="0,-19.5 95,-19.5 "/>
<text text-anchor="middle" x="47.5" y="-7.5" font-family="Monaco" font-size="10.00"> </text>
</a>
</g>
</g>
<!-- Node2 -->
<g id="node2" class="node">
<title>Node2</title>
<g id="a_node2"><a xlink:href="../../dc/dd2/struct_linear_ring_z_m.html" target="_top" xlink:title="The LinearRingZM struct.">
<polygon fill="none" stroke="black" points="5.5,-127.5 5.5,-184.5 89.5,-184.5 89.5,-127.5 5.5,-127.5"/>
<text text-anchor="middle" x="47.5" y="-172.5" font-family="Monaco" font-size="10.00">LinearRingZM</text>
<polyline fill="none" stroke="black" points="5.5,-165.5 89.5,-165.5 "/>
<text text-anchor="start" x="13.5" y="-153.5" font-family="Monaco" font-size="10.00">+ numPoints</text>
<polyline fill="none" stroke="black" points="5.5,-146.5 89.5,-146.5 "/>
<text text-anchor="middle" x="47.5" y="-134.5" font-family="Monaco" font-size="10.00"> </text>
</a>
</g>
</g>
<!-- Node2&#45;&gt;Node1 -->
<g id="edge1" class="edge">
<title>Node2&#45;&gt;Node1</title>
<path fill="none" stroke="#404040" d="M47.5,-127.4C47.5,-116.63 47.5,-103.93 47.5,-91.62"/>
<polygon fill="none" stroke="#404040" points="47.5,-91.54 43.5,-85.54 47.5,-79.54 51.5,-85.54 47.5,-91.54"/>
<text text-anchor="middle" x="65.5" y="-101" font-family="Monaco" font-size="10.00"> +rings</text>
</g>
<!-- Node3 -->
<g id="node3" class="node">
<title>Node3</title>
<g id="a_node3"><a xlink:href="../../d7/ded/struct_point_z_m.html" target="_top" xlink:title="The PointZM struct.">
<polygon fill="none" stroke="black" points="19,-232.5 19,-322.5 76,-322.5 76,-232.5 19,-232.5"/>
<text text-anchor="middle" x="47.5" y="-310.5" font-family="Monaco" font-size="10.00">PointZM</text>
<polyline fill="none" stroke="black" points="19,-303.5 76,-303.5 "/>
<text text-anchor="start" x="27" y="-291.5" font-family="Monaco" font-size="10.00">+ x</text>
<text text-anchor="start" x="27" y="-280.5" font-family="Monaco" font-size="10.00">+ y</text>
<text text-anchor="start" x="27" y="-269.5" font-family="Monaco" font-size="10.00">+ z</text>
<text text-anchor="start" x="27" y="-258.5" font-family="Monaco" font-size="10.00">+ m</text>
<polyline fill="none" stroke="black" points="19,-251.5 76,-251.5 "/>
<text text-anchor="middle" x="47.5" y="-239.5" font-family="Monaco" font-size="10.00"> </text>
</a>
</g>
</g>
<!-- Node3&#45;&gt;Node2 -->
<g id="edge2" class="edge">
<title>Node3&#45;&gt;Node2</title>
<path fill="none" stroke="#404040" d="M47.5,-232.34C47.5,-220.75 47.5,-208.31 47.5,-196.95"/>
<polygon fill="none" stroke="#404040" points="47.5,-196.69 43.5,-190.69 47.5,-184.69 51.5,-190.69 47.5,-196.69"/>
<text text-anchor="middle" x="68.5" y="-206" font-family="Monaco" font-size="10.00"> +points</text>
</g>
</g>
</svg>
