<?xml version="1.0" encoding="UTF-8" standalone="no"?>
<!DOCTYPE svg PUBLIC "-//W3C//DTD SVG 1.1//EN"
 "http://www.w3.org/Graphics/SVG/1.1/DTD/svg11.dtd">
<!-- Generated by graphviz version 2.43.0 (0)
 -->
<!-- Title: /home/runner/work/HydroCouple/HydroCouple/HydroCouple/include/hydrocouplespatial.h Pages: 1 -->
<svg width="227pt" height="162pt"
 viewBox="0.00 0.00 226.50 162.00" xmlns="http://www.w3.org/2000/svg" xmlns:xlink="http://www.w3.org/1999/xlink">
<g id="graph0" class="graph" transform="scale(1 1) rotate(0) translate(4 158)">
<title>/home/runner/work/HydroCouple/HydroCouple/HydroCouple/include/hydrocouplespatial.h</title>
<!-- Node1 -->
<g id="node1" class="node">
<title>Node1</title>
<g id="a_node1"><a xlink:title=" ">
<polygon fill="#bfbfbf" stroke="black" points="31,-112.5 31,-153.5 206,-153.5 206,-112.5 31,-112.5"/>
<text text-anchor="start" x="39" y="-141.5" font-family="Monaco" font-size="10.00">/home/runner/work/HydroCouple</text>
<text text-anchor="start" x="39" y="-130.5" font-family="Monaco" font-size="10.00">/HydroCouple/HydroCouple</text>
<text text-anchor="middle" x="118.5" y="-119.5" font-family="Monaco" font-size="10.00">/include/hydrocouplespatial.h</text>
</a>
</g>
</g>
<!-- Node2 -->
<g id="node2" class="node">
<title>Node2</title>
<g id="a_node2"><a xlink:href="../../d1/d36/hydrocouple_8h.html" target="_top" xlink:title=" ">
<polygon fill="none" stroke="black" points="75.5,-56.5 75.5,-75.5 161.5,-75.5 161.5,-56.5 75.5,-56.5"/>
<text text-anchor="middle" x="118.5" y="-63.5" font-family="Monaco" font-size="10.00">hydrocouple.h</text>
</a>
</g>
</g>
<!-- Node1&#45;&gt;Node2 -->
<g id="edge1" class="edge">
<title>Node1&#45;&gt;Node2</title>
<path fill="none" stroke="midnightblue" d="M118.5,-112.5C118.5,-104.07 118.5,-94.24 118.5,-85.87"/>
<polygon fill="midnightblue" stroke="midnightblue" points="122,-85.65 118.5,-75.65 115,-85.65 122,-85.65"/>
</g>
<!-- Node3 -->
<g id="node3" class="node">
<title>Node3</title>
<g id="a_node3"><a xlink:title=" ">
<polygon fill="none" stroke="#bfbfbf" points="0,-0.5 0,-19.5 35,-19.5 35,-0.5 0,-0.5"/>
<text text-anchor="middle" x="17.5" y="-7.5" font-family="Monaco" font-size="10.00">any</text>
</a>
</g>
</g>
<!-- Node2&#45;&gt;Node3 -->
<g id="edge2" class="edge">
<title>Node2&#45;&gt;Node3</title>
<path fill="none" stroke="midnightblue" d="M102.27,-56.32C86.15,-47.7 61.2,-34.36 42.54,-24.39"/>
<polygon fill="midnightblue" stroke="midnightblue" points="44.16,-21.28 33.69,-19.65 40.86,-27.46 44.16,-21.28"/>
</g>
<!-- Node4 -->
<g id="node4" class="node">
<title>Node4</title>
<g id="a_node4"><a xlink:title=" ">
<polygon fill="none" stroke="#bfbfbf" points="53,-0.5 53,-19.5 118,-19.5 118,-0.5 53,-0.5"/>
<text text-anchor="middle" x="85.5" y="-7.5" font-family="Monaco" font-size="10.00">functional</text>
</a>
</g>
</g>
<!-- Node2&#45;&gt;Node4 -->
<g id="edge3" class="edge">
<title>Node2&#45;&gt;Node4</title>
<path fill="none" stroke="midnightblue" d="M113.05,-56.08C108.49,-48.61 101.83,-37.72 96.21,-28.52"/>
<polygon fill="midnightblue" stroke="midnightblue" points="99.05,-26.46 90.85,-19.75 93.08,-30.11 99.05,-26.46"/>
</g>
<!-- Node5 -->
<g id="node5" class="node">
<title>Node5</title>
<g id="a_node5"><a xlink:title=" ">
<polygon fill="none" stroke="#bfbfbf" points="136.5,-0.5 136.5,-19.5 168.5,-19.5 168.5,-0.5 136.5,-0.5"/>
<text text-anchor="middle" x="152.5" y="-7.5" font-family="Monaco" font-size="10.00">list</text>
</a>
</g>
</g>
<!-- Node2&#45;&gt;Node5 -->
<g id="edge4" class="edge">
<title>Node2&#45;&gt;Node5</title>
<path fill="none" stroke="midnightblue" d="M124.11,-56.08C128.87,-48.53 135.82,-37.49 141.65,-28.23"/>
<polygon fill="midnightblue" stroke="midnightblue" points="144.62,-30.08 146.99,-19.75 138.7,-26.35 144.62,-30.08"/>
</g>
<!-- Node6 -->
<g id="node6" class="node">
<title>Node6</title>
<g id="a_node6"><a xlink:title=" ">
<polygon fill="none" stroke="#bfbfbf" points="186.5,-0.5 186.5,-19.5 218.5,-19.5 218.5,-0.5 186.5,-0.5"/>
<text text-anchor="middle" x="202.5" y="-7.5" font-family="Monaco" font-size="10.00">set</text>
</a>
</g>
</g>
<!-- Node2&#45;&gt;Node6 -->
<g id="edge5" class="edge">
<title>Node2&#45;&gt;Node6</title>
<path fill="none" stroke="midnightblue" d="M132,-56.32C145.1,-47.9 165.21,-34.97 180.61,-25.07"/>
<polygon fill="midnightblue" stroke="midnightblue" points="182.52,-28.01 189.04,-19.65 178.73,-22.12 182.52,-28.01"/>
</g>
</g>
</svg>
