<?xml version="1.0" encoding="UTF-8" standalone="no"?>
<!DOCTYPE svg PUBLIC "-//W3C//DTD SVG 1.1//EN"
 "http://www.w3.org/Graphics/SVG/1.1/DTD/svg11.dtd">
<!-- Generated by graphviz version 2.43.0 (0)
 -->
<!-- Title: HydroCouple::IQuality Pages: 1 -->
<svg width="175pt" height="603pt"
 viewBox="0.00 0.00 175.00 603.00" xmlns="http://www.w3.org/2000/svg" xmlns:xlink="http://www.w3.org/1999/xlink">
<g id="graph0" class="graph" transform="scale(1 1) rotate(0) translate(4 599)">
<title>HydroCouple::IQuality</title>
<!-- Node1 -->
<g id="Node000001" class="node">
<title>Node1</title>
<g id="a_Node000001"><a xlink:title="Qualitative data described items in terms of some quality or categorization that may be &#39;informal&#39; or...">
<polygon fill="#999999" stroke="transparent" points="142.5,-79 24.5,-79 24.5,0 142.5,0 142.5,-79"/>
<text text-anchor="start" x="29.5" y="-66.5" font-family="Monaco" font-size="10.00">HydroCouple::IQuality</text>
<text text-anchor="start" x="81.5" y="-51.5" font-family="Monaco" font-size="10.00"> </text>
<text text-anchor="start" x="38" y="-36.5" font-family="Monaco" font-size="10.00">+</text>
<text text-anchor="start" x="60.5" y="-36.5" font-family="Monaco" font-size="10.00">~IQuality()</text>
<text text-anchor="start" x="38" y="-21.5" font-family="Monaco" font-size="10.00">+</text>
<text text-anchor="start" x="60.5" y="-21.5" font-family="Monaco" font-size="10.00">categories()</text>
<text text-anchor="start" x="38" y="-6.5" font-family="Monaco" font-size="10.00">+</text>
<text text-anchor="start" x="60.5" y="-6.5" font-family="Monaco" font-size="10.00">isOrdered()</text>
<polygon fill="#666666" stroke="#666666" points="24.5,-61.5 24.5,-61.5 142.5,-61.5 142.5,-61.5 24.5,-61.5"/>
<polygon fill="#666666" stroke="#666666" points="24.5,-46.5 24.5,-46.5 142.5,-46.5 142.5,-46.5 24.5,-46.5"/>
<polygon fill="none" stroke="#666666" points="24.5,0 24.5,-79 142.5,-79 142.5,0 24.5,0"/>
</a>
</g>
</g>
<!-- Node2 -->
<g id="Node000002" class="node">
<title>Node2</title>
<g id="a_Node000002"><a xlink:href="../../d9/d22/class_hydro_couple_1_1_i_value_definition.html" target="_top" xlink:title="IValueDefinition describes a value returned by the getValues() function of IValueSet.">
<polygon fill="white" stroke="transparent" points="162,-209 5,-209 5,-115 162,-115 162,-209"/>
<text text-anchor="start" x="10.5" y="-197" font-family="Monaco" font-size="10.00">HydroCouple::IValueDefinition</text>
<text text-anchor="start" x="82" y="-182" font-family="Monaco" font-size="10.00"> </text>
<text text-anchor="start" x="20" y="-167" font-family="Monaco" font-size="10.00">+</text>
<text text-anchor="start" x="43.5" y="-167" font-family="Monaco" font-size="10.00">~IValueDefinition()</text>
<text text-anchor="start" x="20" y="-152" font-family="Monaco" font-size="10.00">+</text>
<text text-anchor="start" x="43.5" y="-152" font-family="Monaco" font-size="10.00">type()</text>
<text text-anchor="start" x="20" y="-137" font-family="Monaco" font-size="10.00">+</text>
<text text-anchor="start" x="43.5" y="-137" font-family="Monaco" font-size="10.00">missingValue()</text>
<text text-anchor="start" x="20" y="-122" font-family="Monaco" font-size="10.00">+</text>
<text text-anchor="start" x="43.5" y="-122" font-family="Monaco" font-size="10.00">defaultValue()</text>
<polygon fill="#666666" stroke="#666666" points="5.5,-192 5.5,-192 162.5,-192 162.5,-192 5.5,-192"/>
<polygon fill="#666666" stroke="#666666" points="5.5,-177 5.5,-177 162.5,-177 162.5,-177 5.5,-177"/>
<polygon fill="none" stroke="#666666" points="5,-115 5,-209 162,-209 162,-115 5,-115"/>
</a>
</g>
</g>
<!-- Node2&#45;&gt;Node1 -->
<g id="edge1_Node000001_Node000002" class="edge">
<title>Node2&#45;&gt;Node1</title>
<g id="a_edge1_Node000001_Node000002"><a xlink:title=" ">
<path fill="none" stroke="#63b8ff" d="M83.5,-104.49C83.5,-95.99 83.5,-87.39 83.5,-79.37"/>
<polygon fill="none" stroke="#63b8ff" points="80,-104.76 83.5,-114.76 87,-104.76 80,-104.76"/>
</a>
</g>
</g>
<!-- Node3 -->
<g id="Node000003" class="node">
<title>Node3</title>
<g id="a_Node000003"><a xlink:href="../../db/d64/class_hydro_couple_1_1_i_description.html" target="_top" xlink:title="IDescription interface class provides descriptive information on a HydroCouple object.">
<polygon fill="white" stroke="transparent" points="152.5,-354 14.5,-354 14.5,-245 152.5,-245 152.5,-354"/>
<text text-anchor="start" x="19.5" y="-341.5" font-family="Monaco" font-size="10.00">HydroCouple::IDescription</text>
<text text-anchor="start" x="81.5" y="-326.5" font-family="Monaco" font-size="10.00"> </text>
<text text-anchor="start" x="28" y="-311.5" font-family="Monaco" font-size="10.00">+</text>
<text text-anchor="start" x="50.5" y="-311.5" font-family="Monaco" font-size="10.00">~IDescription()</text>
<text text-anchor="start" x="28" y="-296.5" font-family="Monaco" font-size="10.00">+</text>
<text text-anchor="start" x="50.5" y="-296.5" font-family="Monaco" font-size="10.00">caption()</text>
<text text-anchor="start" x="28" y="-281.5" font-family="Monaco" font-size="10.00">+</text>
<text text-anchor="start" x="50.5" y="-281.5" font-family="Monaco" font-size="10.00">setCaption()</text>
<text text-anchor="start" x="28" y="-266.5" font-family="Monaco" font-size="10.00">+</text>
<text text-anchor="start" x="50.5" y="-266.5" font-family="Monaco" font-size="10.00">description()</text>
<text text-anchor="start" x="28" y="-251.5" font-family="Monaco" font-size="10.00">+</text>
<text text-anchor="start" x="50.5" y="-251.5" font-family="Monaco" font-size="10.00">setDescription()</text>
<polygon fill="#666666" stroke="#666666" points="14.5,-336.5 14.5,-336.5 152.5,-336.5 152.5,-336.5 14.5,-336.5"/>
<polygon fill="#666666" stroke="#666666" points="14.5,-321.5 14.5,-321.5 152.5,-321.5 152.5,-321.5 14.5,-321.5"/>
<polygon fill="none" stroke="#666666" points="14.5,-245 14.5,-354 152.5,-354 152.5,-245 14.5,-245"/>
</a>
</g>
</g>
<!-- Node3&#45;&gt;Node2 -->
<g id="edge2_Node000002_Node000003" class="edge">
<title>Node3&#45;&gt;Node2</title>
<g id="a_edge2_Node000002_Node000003"><a xlink:title=" ">
<path fill="none" stroke="#63b8ff" d="M83.5,-234.85C83.5,-226.19 83.5,-217.43 83.5,-209.16"/>
<polygon fill="none" stroke="#63b8ff" points="80,-234.95 83.5,-244.95 87,-234.95 80,-234.95"/>
</a>
</g>
</g>
<!-- Node4 -->
<g id="Node000004" class="node">
<title>Node4</title>
<g id="a_Node000004"><a xlink:href="../../dd/dbf/class_hydro_couple_1_1_i_property_changed.html" target="_top" xlink:title="IPropertyChanged interface is used to emit signal/event when a property of an object changes.">
<polygon fill="white" stroke="transparent" points="167,-439 0,-439 0,-390 167,-390 167,-439"/>
<text text-anchor="start" x="5.5" y="-426.5" font-family="Monaco" font-size="10.00">HydroCouple::IPropertyChanged</text>
<text text-anchor="start" x="82" y="-411.5" font-family="Monaco" font-size="10.00"> </text>
<text text-anchor="start" x="15" y="-396.5" font-family="Monaco" font-size="10.00">+</text>
<text text-anchor="start" x="38.5" y="-396.5" font-family="Monaco" font-size="10.00">~IPropertyChanged()</text>
<polygon fill="#666666" stroke="#666666" points="0.5,-421.5 0.5,-421.5 167.5,-421.5 167.5,-421.5 0.5,-421.5"/>
<polygon fill="#666666" stroke="#666666" points="0.5,-406.5 0.5,-406.5 167.5,-406.5 167.5,-406.5 0.5,-406.5"/>
<polygon fill="none" stroke="#666666" points="0,-390 0,-439 167,-439 167,-390 0,-390"/>
</a>
</g>
</g>
<!-- Node4&#45;&gt;Node3 -->
<g id="edge3_Node000003_Node000004" class="edge">
<title>Node4&#45;&gt;Node3</title>
<g id="a_edge3_Node000003_Node000004"><a xlink:title=" ">
<path fill="none" stroke="#63b8ff" d="M83.5,-379.79C83.5,-371.79 83.5,-363.06 83.5,-354.41"/>
<polygon fill="none" stroke="#63b8ff" points="80,-379.81 83.5,-389.81 87,-379.81 80,-379.81"/>
</a>
</g>
</g>
<!-- Node5 -->
<g id="Node000005" class="node">
<title>Node5</title>
<g id="a_Node000005"><a xlink:href="../../d5/d8b/class_hydro_couple_1_1_i_signal.html" target="_top" xlink:title=" ">
<polygon fill="white" stroke="transparent" points="140,-595 27,-595 27,-475 140,-475 140,-595"/>
<text text-anchor="start" x="32.5" y="-583" font-family="Monaco" font-size="10.00">HydroCouple::ISignal</text>
<text text-anchor="start" x="58.5" y="-572" font-family="Monaco" font-size="10.00">&lt; string &gt;</text>
<text text-anchor="start" x="82" y="-557" font-family="Monaco" font-size="10.00"> </text>
<text text-anchor="start" x="37" y="-542" font-family="Monaco" font-size="10.00">+</text>
<text text-anchor="start" x="55.5" y="-542" font-family="Monaco" font-size="10.00">~ISignal()</text>
<text text-anchor="start" x="37" y="-527" font-family="Monaco" font-size="10.00">+</text>
<text text-anchor="start" x="55.5" y="-527" font-family="Monaco" font-size="10.00">connect()</text>
<text text-anchor="start" x="37" y="-512" font-family="Monaco" font-size="10.00">+</text>
<text text-anchor="start" x="55.5" y="-512" font-family="Monaco" font-size="10.00">disconnect()</text>
<text text-anchor="start" x="37" y="-497" font-family="Monaco" font-size="10.00">+</text>
<text text-anchor="start" x="55.5" y="-497" font-family="Monaco" font-size="10.00">blockSignals()</text>
<text text-anchor="start" x="37" y="-482" font-family="Monaco" font-size="10.00">#</text>
<text text-anchor="start" x="55.5" y="-482" font-family="Monaco" font-size="10.00">emit()</text>
<polygon fill="#666666" stroke="#666666" points="27.5,-567 27.5,-567 140.5,-567 140.5,-567 27.5,-567"/>
<polygon fill="#666666" stroke="#666666" points="27.5,-552 27.5,-552 140.5,-552 140.5,-552 27.5,-552"/>
<polygon fill="none" stroke="#666666" points="27,-475 27,-595 140,-595 140,-475 27,-475"/>
</a>
</g>
</g>
<!-- Node5&#45;&gt;Node4 -->
<g id="edge4_Node000004_Node000005" class="edge">
<title>Node5&#45;&gt;Node4</title>
<g id="a_edge4_Node000004_Node000005"><a xlink:title=" ">
<path fill="none" stroke="#63b8ff" d="M83.5,-464.74C83.5,-455.6 83.5,-446.78 83.5,-439.2"/>
<polygon fill="none" stroke="#63b8ff" points="80,-464.75 83.5,-474.75 87,-464.75 80,-464.75"/>
</a>
</g>
</g>
</g>
</svg>
