<?xml version="1.0" encoding="UTF-8" standalone="no"?>
<!DOCTYPE svg PUBLIC "-//W3C//DTD SVG 1.1//EN"
 "http://www.w3.org/Graphics/SVG/1.1/DTD/svg11.dtd">
<!-- Generated by graphviz version 2.43.0 (0)
 -->
<!-- Title: WKBTIN Pages: 1 -->
<svg width="108pt" height="420pt"
 viewBox="0.00 0.00 108.00 420.00" xmlns="http://www.w3.org/2000/svg" xmlns:xlink="http://www.w3.org/1999/xlink">
<g id="graph0" class="graph" transform="scale(1 1) rotate(0) translate(4 416)">
<title>WKBTIN</title>
<!-- Node1 -->
<g id="Node000001" class="node">
<title>Node1</title>
<g id="a_Node000001"><a xlink:title="The WKBTIN struct.">
<polygon fill="#999999" stroke="transparent" points="88,-79 0,-79 0,0 88,0 88,-79"/>
<text text-anchor="start" x="24" y="-66.5" font-family="Monaco" font-size="10.00">WKBTIN</text>
<text text-anchor="start" x="4" y="-51.5" font-family="Monaco" font-size="10.00">+</text>
<text text-anchor="start" x="17" y="-51.5" font-family="Monaco" font-size="10.00">byteOrder</text>
<text text-anchor="start" x="4" y="-36.5" font-family="Monaco" font-size="10.00">+</text>
<text text-anchor="start" x="17" y="-36.5" font-family="Monaco" font-size="10.00">numPolygons</text>
<text text-anchor="start" x="4" y="-21.5" font-family="Monaco" font-size="10.00">+</text>
<text text-anchor="start" x="17" y="-21.5" font-family="Monaco" font-size="10.00">wkbType</text>
<text text-anchor="start" x="42" y="-6.5" font-family="Monaco" font-size="10.00"> </text>
<polygon fill="#666666" stroke="#666666" points="0,-61.5 0,-61.5 88,-61.5 88,-61.5 0,-61.5"/>
<polygon fill="#666666" stroke="#666666" points="0,-16.5 0,-16.5 15,-16.5 15,-16.5 0,-16.5"/>
<polygon fill="#666666" stroke="#666666" points="15,-16.5 15,-16.5 88,-16.5 88,-16.5 15,-16.5"/>
<polygon fill="none" stroke="#666666" points="0,0 0,-79 88,-79 88,0 0,0"/>
</a>
</g>
</g>
<!-- Node2 -->
<g id="Node000002" class="node">
<title>Node2</title>
<g id="a_Node000002"><a xlink:href="../../df/df9/struct_w_k_b_polygon.html" target="_top" xlink:title="The WKBPolygon struct.">
<polygon fill="white" stroke="transparent" points="80.5,-205 7.5,-205 7.5,-126 80.5,-126 80.5,-205"/>
<text text-anchor="start" x="13" y="-192.5" font-family="Monaco" font-size="10.00">WKBPolygon</text>
<text text-anchor="start" x="12.5" y="-177.5" font-family="Monaco" font-size="10.00">+</text>
<text text-anchor="start" x="26" y="-177.5" font-family="Monaco" font-size="10.00">byteOrder</text>
<text text-anchor="start" x="12.5" y="-162.5" font-family="Monaco" font-size="10.00">+</text>
<text text-anchor="start" x="26" y="-162.5" font-family="Monaco" font-size="10.00">numRings</text>
<text text-anchor="start" x="12.5" y="-147.5" font-family="Monaco" font-size="10.00">+</text>
<text text-anchor="start" x="26" y="-147.5" font-family="Monaco" font-size="10.00">wkbType</text>
<text text-anchor="start" x="42.5" y="-132.5" font-family="Monaco" font-size="10.00"> </text>
<polygon fill="#666666" stroke="#666666" points="8,-187.5 8,-187.5 81,-187.5 81,-187.5 8,-187.5"/>
<polygon fill="#666666" stroke="#666666" points="8,-142.5 8,-142.5 24,-142.5 24,-142.5 8,-142.5"/>
<polygon fill="#666666" stroke="#666666" points="24,-142.5 24,-142.5 81,-142.5 81,-142.5 24,-142.5"/>
<polygon fill="none" stroke="#666666" points="7.5,-126 7.5,-205 80.5,-205 80.5,-126 7.5,-126"/>
</a>
</g>
</g>
<!-- Node2&#45;&gt;Node1 -->
<g id="edge1_Node000001_Node000002" class="edge">
<title>Node2&#45;&gt;Node1</title>
<g id="a_edge1_Node000001_Node000002"><a xlink:title=" ">
<path fill="none" stroke="#63b8ff" d="M44,-125.95C44,-114.98 44,-102.87 44,-91.3"/>
<polygon fill="none" stroke="#63b8ff" points="44,-91.03 40,-85.03 44,-79.03 48,-85.03 44,-91.03"/>
</a>
</g>
<text text-anchor="middle" x="72" y="-100" font-family="Monaco" font-size="10.00" fill="grey"> +polygons</text>
</g>
<!-- Node3 -->
<g id="Node000003" class="node">
<title>Node3</title>
<g id="a_Node000003"><a xlink:href="../../d6/db5/struct_linear_ring.html" target="_top" xlink:title="The LinearRing struct.">
<polygon fill="white" stroke="transparent" points="80.5,-301 7.5,-301 7.5,-252 80.5,-252 80.5,-301"/>
<text text-anchor="start" x="18.5" y="-288.5" font-family="Monaco" font-size="10.00">LinearRing</text>
<text text-anchor="start" x="12" y="-273.5" font-family="Monaco" font-size="10.00">+</text>
<text text-anchor="start" x="25" y="-273.5" font-family="Monaco" font-size="10.00">numPoints</text>
<text text-anchor="start" x="42.5" y="-258.5" font-family="Monaco" font-size="10.00"> </text>
<polygon fill="#666666" stroke="#666666" points="8,-283.5 8,-283.5 81,-283.5 81,-283.5 8,-283.5"/>
<polygon fill="#666666" stroke="#666666" points="8,-268.5 8,-268.5 23,-268.5 23,-268.5 8,-268.5"/>
<polygon fill="#666666" stroke="#666666" points="23,-268.5 23,-268.5 81,-268.5 81,-268.5 23,-268.5"/>
<polygon fill="none" stroke="#666666" points="7.5,-252 7.5,-301 80.5,-301 80.5,-252 7.5,-252"/>
</a>
</g>
</g>
<!-- Node3&#45;&gt;Node2 -->
<g id="edge2_Node000002_Node000003" class="edge">
<title>Node3&#45;&gt;Node2</title>
<g id="a_edge2_Node000002_Node000003"><a xlink:title=" ">
<path fill="none" stroke="#63b8ff" d="M44,-251.85C44,-241.72 44,-229.47 44,-217.45"/>
<polygon fill="none" stroke="#63b8ff" points="44,-217.1 40,-211.1 44,-205.1 48,-211.1 44,-217.1"/>
</a>
</g>
<text text-anchor="middle" x="62" y="-226" font-family="Monaco" font-size="10.00" fill="grey"> +rings</text>
</g>
<!-- Node4 -->
<g id="Node000004" class="node">
<title>Node4</title>
<g id="a_Node000004"><a xlink:href="../../d8/dc8/struct_point.html" target="_top" xlink:title="The Point struct.">
<polygon fill="white" stroke="transparent" points="61.5,-412 26.5,-412 26.5,-348 61.5,-348 61.5,-412"/>
<text text-anchor="start" x="32" y="-400" font-family="Monaco" font-size="10.00">Point</text>
<text text-anchor="start" x="32.5" y="-385" font-family="Monaco" font-size="10.00">+</text>
<text text-anchor="start" x="47" y="-385" font-family="Monaco" font-size="10.00">x</text>
<text text-anchor="start" x="32.5" y="-370" font-family="Monaco" font-size="10.00">+</text>
<text text-anchor="start" x="47" y="-370" font-family="Monaco" font-size="10.00">y</text>
<text text-anchor="start" x="42.5" y="-355" font-family="Monaco" font-size="10.00"> </text>
<polygon fill="#666666" stroke="#666666" points="27,-395 27,-395 62,-395 62,-395 27,-395"/>
<polygon fill="#666666" stroke="#666666" points="27,-365 27,-365 45,-365 45,-365 27,-365"/>
<polygon fill="#666666" stroke="#666666" points="45,-365 45,-365 62,-365 62,-365 45,-365"/>
<polygon fill="none" stroke="#666666" points="26.5,-348 26.5,-412 61.5,-412 61.5,-348 26.5,-348"/>
</a>
</g>
</g>
<!-- Node4&#45;&gt;Node3 -->
<g id="edge3_Node000003_Node000004" class="edge">
<title>Node4&#45;&gt;Node3</title>
<g id="a_edge3_Node000003_Node000004"><a xlink:title=" ">
<path fill="none" stroke="#63b8ff" d="M44,-348C44,-337.07 44,-324.69 44,-313.39"/>
<polygon fill="none" stroke="#63b8ff" points="44,-313.23 40,-307.23 44,-301.23 48,-307.23 44,-313.23"/>
</a>
</g>
<text text-anchor="middle" x="65" y="-322" font-family="Monaco" font-size="10.00" fill="grey"> +points</text>
</g>
</g>
</svg>
