<?xml version="1.0" encoding="UTF-8" standalone="no"?>
<!DOCTYPE svg PUBLIC "-//W3C//DTD SVG 1.1//EN"
 "http://www.w3.org/Graphics/SVG/1.1/DTD/svg11.dtd">
<!-- Generated by graphviz version 2.43.0 (0)
 -->
<!-- Title: HydroCouple::Spatial::IGeometryCollection Pages: 1 -->
<svg width="156pt" height="944pt"
 viewBox="0.00 0.00 156.00 944.00" xmlns="http://www.w3.org/2000/svg" xmlns:xlink="http://www.w3.org/1999/xlink">
<g id="graph0" class="graph" transform="scale(1 1) rotate(0) translate(4 940)">
<title>HydroCouple::Spatial::IGeometryCollection</title>
<!-- Node1 -->
<g id="Node000001" class="node">
<title>Node1</title>
<g id="a_Node000001"><a xlink:title="An IGeometryCollection is a geometric object that is a collection of some number of IGeometry objects...">
<polygon fill="#999999" stroke="transparent" points="143,-90 5,-90 5,0 143,0 143,-90"/>
<text text-anchor="start" x="20.5" y="-78" font-family="Monaco" font-size="10.00">HydroCouple::Spatial</text>
<text text-anchor="start" x="20.5" y="-67" font-family="Monaco" font-size="10.00">::IGeometryCollection</text>
<text text-anchor="start" x="72" y="-52" font-family="Monaco" font-size="10.00"> </text>
<text text-anchor="start" x="9" y="-37" font-family="Monaco" font-size="10.00">+</text>
<text text-anchor="start" x="22" y="-37" font-family="Monaco" font-size="10.00">~IGeometryCollection()</text>
<text text-anchor="start" x="9" y="-22" font-family="Monaco" font-size="10.00">+</text>
<text text-anchor="start" x="22" y="-22" font-family="Monaco" font-size="10.00">geometryCount()</text>
<text text-anchor="start" x="9" y="-7" font-family="Monaco" font-size="10.00">+</text>
<text text-anchor="start" x="22" y="-7" font-family="Monaco" font-size="10.00">geometry()</text>
<polygon fill="#666666" stroke="#666666" points="5,-62 5,-62 143,-62 143,-62 5,-62"/>
<polygon fill="#666666" stroke="#666666" points="5,-47 5,-47 143,-47 143,-47 5,-47"/>
<polygon fill="none" stroke="#666666" points="5,0 5,-90 143,-90 143,0 5,0"/>
</a>
</g>
</g>
<!-- Node2 -->
<g id="Node000002" class="node">
<title>Node2</title>
<g id="a_Node000002"><a xlink:href="../../d3/d92/class_hydro_couple_1_1_spatial_1_1_i_geometry.html" target="_top" xlink:title="IGeometry is the root class of the geometry hierarchy.">
<polygon fill="white" stroke="transparent" points="148,-936 0,-936 0,-126 148,-126 148,-936"/>
<text text-anchor="start" x="22.5" y="-924" font-family="Monaco" font-size="10.00">HydroCouple::Spatial</text>
<text text-anchor="start" x="45" y="-913" font-family="Monaco" font-size="10.00">::IGeometry</text>
<text text-anchor="start" x="72" y="-898" font-family="Monaco" font-size="10.00"> </text>
<text text-anchor="start" x="4" y="-883" font-family="Monaco" font-size="10.00">+</text>
<text text-anchor="start" x="17" y="-883" font-family="Monaco" font-size="10.00">~IGeometry()</text>
<text text-anchor="start" x="4" y="-868" font-family="Monaco" font-size="10.00">+</text>
<text text-anchor="start" x="17" y="-868" font-family="Monaco" font-size="10.00">id()</text>
<text text-anchor="start" x="4" y="-853" font-family="Monaco" font-size="10.00">+</text>
<text text-anchor="start" x="17" y="-853" font-family="Monaco" font-size="10.00">index()</text>
<text text-anchor="start" x="4" y="-838" font-family="Monaco" font-size="10.00">+</text>
<text text-anchor="start" x="17" y="-838" font-family="Monaco" font-size="10.00">dimension()</text>
<text text-anchor="start" x="4" y="-823" font-family="Monaco" font-size="10.00">+</text>
<text text-anchor="start" x="17" y="-823" font-family="Monaco" font-size="10.00">coordinateDimension()</text>
<text text-anchor="start" x="4" y="-808" font-family="Monaco" font-size="10.00">+</text>
<text text-anchor="start" x="17" y="-808" font-family="Monaco" font-size="10.00">geometryType()</text>
<text text-anchor="start" x="4" y="-793" font-family="Monaco" font-size="10.00">+</text>
<text text-anchor="start" x="17" y="-793" font-family="Monaco" font-size="10.00">spatialReferenceSystem()</text>
<text text-anchor="start" x="4" y="-778" font-family="Monaco" font-size="10.00">+</text>
<text text-anchor="start" x="17" y="-778" font-family="Monaco" font-size="10.00">envelope()</text>
<text text-anchor="start" x="4" y="-763" font-family="Monaco" font-size="10.00">+</text>
<text text-anchor="start" x="17" y="-763" font-family="Monaco" font-size="10.00">getWKT()</text>
<text text-anchor="start" x="4" y="-748" font-family="Monaco" font-size="10.00">+</text>
<text text-anchor="start" x="17" y="-748" font-family="Monaco" font-size="10.00">getWKB()</text>
<text text-anchor="start" x="4" y="-733" font-family="Monaco" font-size="10.00">+</text>
<text text-anchor="start" x="17" y="-733" font-family="Monaco" font-size="10.00">isEmpty()</text>
<text text-anchor="start" x="4" y="-718" font-family="Monaco" font-size="10.00">+</text>
<text text-anchor="start" x="17" y="-718" font-family="Monaco" font-size="10.00">isSimple()</text>
<text text-anchor="start" x="4" y="-703" font-family="Monaco" font-size="10.00">+</text>
<text text-anchor="start" x="17" y="-703" font-family="Monaco" font-size="10.00">is3D()</text>
<text text-anchor="start" x="4" y="-688" font-family="Monaco" font-size="10.00">+</text>
<text text-anchor="start" x="17" y="-688" font-family="Monaco" font-size="10.00">isMeasured()</text>
<text text-anchor="start" x="4" y="-673" font-family="Monaco" font-size="10.00">+</text>
<text text-anchor="start" x="17" y="-673" font-family="Monaco" font-size="10.00">boundary()</text>
<text text-anchor="start" x="4" y="-658" font-family="Monaco" font-size="10.00">+</text>
<text text-anchor="start" x="17" y="-658" font-family="Monaco" font-size="10.00">equals()</text>
<text text-anchor="start" x="4" y="-643" font-family="Monaco" font-size="10.00">+</text>
<text text-anchor="start" x="17" y="-643" font-family="Monaco" font-size="10.00">disjoint()</text>
<text text-anchor="start" x="4" y="-628" font-family="Monaco" font-size="10.00">+</text>
<text text-anchor="start" x="17" y="-628" font-family="Monaco" font-size="10.00">intersects()</text>
<text text-anchor="start" x="4" y="-613" font-family="Monaco" font-size="10.00">+</text>
<text text-anchor="start" x="17" y="-613" font-family="Monaco" font-size="10.00">touches()</text>
<text text-anchor="start" x="4" y="-598" font-family="Monaco" font-size="10.00">+</text>
<text text-anchor="start" x="17" y="-598" font-family="Monaco" font-size="10.00">crosses()</text>
<text text-anchor="start" x="4" y="-583" font-family="Monaco" font-size="10.00">+</text>
<text text-anchor="start" x="17" y="-583" font-family="Monaco" font-size="10.00">within()</text>
<text text-anchor="start" x="4" y="-568" font-family="Monaco" font-size="10.00">+</text>
<text text-anchor="start" x="17" y="-568" font-family="Monaco" font-size="10.00">contains()</text>
<text text-anchor="start" x="4" y="-553" font-family="Monaco" font-size="10.00">+</text>
<text text-anchor="start" x="17" y="-553" font-family="Monaco" font-size="10.00">overlaps()</text>
<text text-anchor="start" x="4" y="-538" font-family="Monaco" font-size="10.00">+</text>
<text text-anchor="start" x="17" y="-538" font-family="Monaco" font-size="10.00">relate()</text>
<text text-anchor="start" x="4" y="-523" font-family="Monaco" font-size="10.00">+</text>
<text text-anchor="start" x="17" y="-523" font-family="Monaco" font-size="10.00">locateAlong()</text>
<text text-anchor="start" x="4" y="-508" font-family="Monaco" font-size="10.00">+</text>
<text text-anchor="start" x="17" y="-508" font-family="Monaco" font-size="10.00">locateBetween()</text>
<text text-anchor="start" x="4" y="-493" font-family="Monaco" font-size="10.00">+</text>
<text text-anchor="start" x="17" y="-493" font-family="Monaco" font-size="10.00">distance()</text>
<text text-anchor="start" x="4" y="-478" font-family="Monaco" font-size="10.00">+</text>
<text text-anchor="start" x="17" y="-478" font-family="Monaco" font-size="10.00">buffer()</text>
<text text-anchor="start" x="4" y="-463" font-family="Monaco" font-size="10.00">+</text>
<text text-anchor="start" x="17" y="-463" font-family="Monaco" font-size="10.00">convexHull()</text>
<text text-anchor="start" x="4" y="-448" font-family="Monaco" font-size="10.00">+</text>
<text text-anchor="start" x="17" y="-448" font-family="Monaco" font-size="10.00">intersection()</text>
<text text-anchor="start" x="4" y="-433" font-family="Monaco" font-size="10.00">+</text>
<text text-anchor="start" x="17" y="-433" font-family="Monaco" font-size="10.00">unionG()</text>
<text text-anchor="start" x="4" y="-418" font-family="Monaco" font-size="10.00">+</text>
<text text-anchor="start" x="17" y="-418" font-family="Monaco" font-size="10.00">difference()</text>
<text text-anchor="start" x="4" y="-403" font-family="Monaco" font-size="10.00">+</text>
<text text-anchor="start" x="17" y="-403" font-family="Monaco" font-size="10.00">symmetricDifference()</text>
<text text-anchor="start" x="5.5" y="-388" font-family="Monaco" font-size="10.00">*</text>
<text text-anchor="start" x="17" y="-388" font-family="Monaco" font-size="10.00">equals()</text>
<text text-anchor="start" x="5.5" y="-373" font-family="Monaco" font-size="10.00">*</text>
<text text-anchor="start" x="17" y="-373" font-family="Monaco" font-size="10.00">disjoint()</text>
<text text-anchor="start" x="5.5" y="-358" font-family="Monaco" font-size="10.00">*</text>
<text text-anchor="start" x="17" y="-358" font-family="Monaco" font-size="10.00">intersects()</text>
<text text-anchor="start" x="5.5" y="-343" font-family="Monaco" font-size="10.00">*</text>
<text text-anchor="start" x="17" y="-343" font-family="Monaco" font-size="10.00">touches()</text>
<text text-anchor="start" x="5.5" y="-328" font-family="Monaco" font-size="10.00">*</text>
<text text-anchor="start" x="17" y="-328" font-family="Monaco" font-size="10.00">crosses()</text>
<text text-anchor="start" x="5.5" y="-313" font-family="Monaco" font-size="10.00">*</text>
<text text-anchor="start" x="17" y="-313" font-family="Monaco" font-size="10.00">within()</text>
<text text-anchor="start" x="5.5" y="-298" font-family="Monaco" font-size="10.00">*</text>
<text text-anchor="start" x="17" y="-298" font-family="Monaco" font-size="10.00">contains()</text>
<text text-anchor="start" x="5.5" y="-283" font-family="Monaco" font-size="10.00">*</text>
<text text-anchor="start" x="17" y="-283" font-family="Monaco" font-size="10.00">overlaps()</text>
<text text-anchor="start" x="5.5" y="-268" font-family="Monaco" font-size="10.00">*</text>
<text text-anchor="start" x="17" y="-268" font-family="Monaco" font-size="10.00">relate()</text>
<text text-anchor="start" x="5.5" y="-253" font-family="Monaco" font-size="10.00">*</text>
<text text-anchor="start" x="17" y="-253" font-family="Monaco" font-size="10.00">locateAlong()</text>
<text text-anchor="start" x="5.5" y="-238" font-family="Monaco" font-size="10.00">*</text>
<text text-anchor="start" x="17" y="-238" font-family="Monaco" font-size="10.00">locateBetween()</text>
<text text-anchor="start" x="5.5" y="-223" font-family="Monaco" font-size="10.00">*</text>
<text text-anchor="start" x="17" y="-223" font-family="Monaco" font-size="10.00">distance()</text>
<text text-anchor="start" x="5.5" y="-208" font-family="Monaco" font-size="10.00">*</text>
<text text-anchor="start" x="17" y="-208" font-family="Monaco" font-size="10.00">buffer()</text>
<text text-anchor="start" x="5.5" y="-193" font-family="Monaco" font-size="10.00">*</text>
<text text-anchor="start" x="17" y="-193" font-family="Monaco" font-size="10.00">convexHull()</text>
<text text-anchor="start" x="5.5" y="-178" font-family="Monaco" font-size="10.00">*</text>
<text text-anchor="start" x="17" y="-178" font-family="Monaco" font-size="10.00">intersection()</text>
<text text-anchor="start" x="5.5" y="-163" font-family="Monaco" font-size="10.00">*</text>
<text text-anchor="start" x="17" y="-163" font-family="Monaco" font-size="10.00">unionG()</text>
<text text-anchor="start" x="5.5" y="-148" font-family="Monaco" font-size="10.00">*</text>
<text text-anchor="start" x="17" y="-148" font-family="Monaco" font-size="10.00">difference()</text>
<text text-anchor="start" x="5.5" y="-133" font-family="Monaco" font-size="10.00">*</text>
<text text-anchor="start" x="17" y="-133" font-family="Monaco" font-size="10.00">symmetricDifference()</text>
<polygon fill="#666666" stroke="#666666" points="0,-908 0,-908 148,-908 148,-908 0,-908"/>
<polygon fill="#666666" stroke="#666666" points="0,-893 0,-893 148,-893 148,-893 0,-893"/>
<polygon fill="none" stroke="#666666" points="0,-126 0,-936 148,-936 148,-126 0,-126"/>
</a>
</g>
</g>
<!-- Node2&#45;&gt;Node1 -->
<g id="edge1_Node000001_Node000002" class="edge">
<title>Node2&#45;&gt;Node1</title>
<g id="a_edge1_Node000001_Node000002"><a xlink:title=" ">
<path fill="none" stroke="#63b8ff" d="M74,-115.63C74,-106.39 74,-97.85 74,-90.14"/>
<polygon fill="none" stroke="#63b8ff" points="70.5,-115.92 74,-125.92 77.5,-115.92 70.5,-115.92"/>
</a>
</g>
</g>
</g>
</svg>
