<?xml version="1.0" encoding="UTF-8" standalone="no"?>
<!DOCTYPE svg PUBLIC "-//W3C//DTD SVG 1.1//EN"
 "http://www.w3.org/Graphics/SVG/1.1/DTD/svg11.dtd">
<!-- Generated by graphviz version 2.38.0 (20140413.2041)
 -->
<!-- Title: hashValue Pages: 1 -->
<!--zoomable 136 -->
<svg id="main" version="1.1" xmlns="http://www.w3.org/2000/svg" xmlns:xlink="http://www.w3.org/1999/xlink" xml:space="preserve" onload="init(evt)">
<style type="text/css"><![CDATA[
.edge:hover path { stroke: red; }
.edge:hover polygon { stroke: red; fill: red; }
]]></style>
<script type="text/javascript"><![CDATA[
var edges = document.getElementsByTagName('g');
if (edges && edges.length) {
  for (var i=0;i<edges.length;i++) {
    if (edges[i].id.substr(0,4)=='edge') {
      edges[i].setAttribute('class','edge');
    }
  }
}
]]></script>
        <defs>
                <circle id="rim" cx="0" cy="0" r="7"/>
                <circle id="rim2" cx="0" cy="0" r="3.5"/>
                <g id="zoomPlus">
                        <use xlink:href="#rim" fill="#404040">
                                <set attributeName="fill" to="#808080" begin="zoomplus.mouseover" end="zoomplus.mouseout"/>
                        </use>
                        <path d="M-4,0h8M0,-4v8" fill="none" stroke="white" stroke-width="1.5" pointer-events="none"/>
                </g>
                <g id="zoomMin">
                        <use xlink:href="#rim" fill="#404040">
                                <set attributeName="fill" to="#808080" begin="zoomminus.mouseover" end="zoomminus.mouseout"/>
                        </use>
                        <path d="M-4,0h8" fill="none" stroke="white" stroke-width="1.5" pointer-events="none"/>
                </g>
                <g id="dirArrow">
                        <path fill="none" stroke="white" stroke-width="1.5" d="M0,-3.0v7 M-2.5,-0.5L0,-3.0L2.5,-0.5"/>
                </g>
               <g id="resetDef">
                       <use xlink:href="#rim2" fill="#404040">
                               <set attributeName="fill" to="#808080" begin="reset.mouseover" end="reset.mouseout"/>
                       </use>
               </g>
        </defs>

<script type="text/javascript">
var viewWidth = 874;
var viewHeight = 136;
var sectionId = 'dynsection-18';
</script>
<script xlink:href="../../svgpan.js"/>
<svg id="graph" class="graph">
<g id="viewport">
<title>hashValue</title>
<!-- Node1 -->
<g id="node1" class="node"><title>Node1</title>
<polygon fill="#bfbfbf" stroke="black" points="0,-67.3325 0,-88.6675 70.0088,-88.6675 70.0088,-67.3325 0,-67.3325"/>
<text text-anchor="middle" x="35.0044" y="-76.6675" font-family="Monaco" font-size="10.00">hashValue</text>
</g>
<!-- Node2 -->
<g id="node2" class="node"><title>Node2</title>
<g id="a_node2"><a xlink:href="../../d6/d95/navtree_8js.html#a20695277530a1a04eef8d289177a5e40" target="_top" xlink:title="hashUrl">
<polygon fill="none" stroke="black" points="106.009,-67.3325 106.009,-88.6675 164.016,-88.6675 164.016,-67.3325 106.009,-67.3325"/>
<text text-anchor="middle" x="135.012" y="-76.6675" font-family="Monaco" font-size="10.00">hashUrl</text>
</a>
</g>
</g>
<!-- Node1&#45;&gt;Node2 -->
<g id="edge1" class="edge"><title>Node1&#45;&gt;Node2</title>
<path fill="none" stroke="midnightblue" d="M80.2857,-78C88.9401,-78 97.7928,-78 105.751,-78"/>
<polygon fill="midnightblue" stroke="midnightblue" points="80.2828,-74.5001 70.2828,-78 80.2827,-81.5001 80.2828,-74.5001"/>
</g>
<!-- Node3 -->
<g id="node3" class="node"><title>Node3</title>
<g id="a_node3"><a xlink:href="../../d6/d95/navtree_8js.html#a524fa9bfd80c70bf3a84696b2077eadb" target="_top" xlink:title="highlightAnchor">
<polygon fill="none" stroke="black" points="200.016,-106.333 200.016,-127.667 306.03,-127.667 306.03,-106.333 200.016,-106.333"/>
<text text-anchor="middle" x="253.023" y="-115.667" font-family="Monaco" font-size="10.00">highlightAnchor</text>
</a>
</g>
</g>
<!-- Node1&#45;&gt;Node3 -->
<g id="edge12" class="edge"><title>Node1&#45;&gt;Node3</title>
<path fill="none" stroke="midnightblue" d="M79.2684,-91.446C88.0591,-93.8705 97.2851,-96.1967 106.009,-98 136.926,-104.391 171.995,-109.037 200.014,-112.135"/>
<polygon fill="midnightblue" stroke="midnightblue" points="80.1546,-88.0593 69.5785,-88.6895 78.2392,-94.7922 80.1546,-88.0593"/>
</g>
<!-- Node8 -->
<g id="node8" class="node"><title>Node8</title>
<g id="a_node8"><a xlink:href="../../d6/d95/navtree_8js.html#aa7b3067e7ef0044572ba86240b1e58ce" target="_top" xlink:title="initNavTree">
<polygon fill="none" stroke="black" points="784.068,-47.3325 784.068,-68.6675 866.079,-68.6675 866.079,-47.3325 784.068,-47.3325"/>
<text text-anchor="middle" x="825.074" y="-56.6675" font-family="Monaco" font-size="10.00">initNavTree</text>
</a>
</g>
</g>
<!-- Node1&#45;&gt;Node8 -->
<g id="edge13" class="edge"><title>Node1&#45;&gt;Node8</title>
<path fill="none" stroke="midnightblue" d="M61.5825,-62.184C100.959,-39.3873 179.487,-0 252.023,-0 252.023,-0 252.023,-0 635.06,-0 698.733,-7.10543e-15 769.373,-30.4534 803.451,-47.2266"/>
<polygon fill="midnightblue" stroke="midnightblue" points="59.7206,-59.2187 52.8904,-67.318 63.2806,-65.2459 59.7206,-59.2187"/>
</g>
<!-- Node2&#45;&gt;Node3 -->
<g id="edge2" class="edge"><title>Node2&#45;&gt;Node3</title>
<path fill="none" stroke="midnightblue" d="M173.606,-90.6382C188.614,-95.6833 205.711,-101.431 220.102,-106.269"/>
<polygon fill="midnightblue" stroke="midnightblue" points="174.689,-87.3098 164.095,-87.4408 172.459,-93.9449 174.689,-87.3098"/>
</g>
<!-- Node2&#45;&gt;Node8 -->
<g id="edge11" class="edge"><title>Node2&#45;&gt;Node8</title>
<path fill="none" stroke="midnightblue" d="M174.144,-78C225.96,-78 321.502,-78 403.039,-78 403.039,-78 403.039,-78 635.06,-78 686.702,-78 745.842,-70.5256 784.013,-64.7153"/>
<polygon fill="midnightblue" stroke="midnightblue" points="174.077,-74.5001 164.077,-78 174.077,-81.5001 174.077,-74.5001"/>
</g>
<!-- Node9 -->
<g id="node9" class="node"><title>Node9</title>
<g id="a_node9"><a xlink:href="../../d6/d95/navtree_8js.html#a646cb31d83b39aafec92e0e1d123563a" target="_top" xlink:title="toggleSyncButton">
<polygon fill="none" stroke="black" points="348.031,-28.3325 348.031,-49.6675 460.047,-49.6675 460.047,-28.3325 348.031,-28.3325"/>
<text text-anchor="middle" x="404.039" y="-37.6675" font-family="Monaco" font-size="10.00">toggleSyncButton</text>
</a>
</g>
</g>
<!-- Node2&#45;&gt;Node9 -->
<g id="edge9" class="edge"><title>Node2&#45;&gt;Node9</title>
<path fill="none" stroke="midnightblue" d="M174.262,-69.0262C182.715,-67.213 191.646,-65.4276 200.016,-64 249.727,-55.5213 306.755,-48.7567 347.689,-44.4133"/>
<polygon fill="midnightblue" stroke="midnightblue" points="173.271,-65.6604 164.258,-71.2295 174.777,-72.4966 173.271,-65.6604"/>
</g>
<!-- Node4 -->
<g id="node4" class="node"><title>Node4</title>
<g id="a_node4"><a xlink:href="../../d6/d95/navtree_8js.html#a0dbf0d5f6126afd88420745f7d3c202d" target="_top" xlink:title="selectAndHighlight">
<polygon fill="none" stroke="black" points="342.03,-106.333 342.03,-127.667 466.048,-127.667 466.048,-106.333 342.03,-106.333"/>
<text text-anchor="middle" x="404.039" y="-115.667" font-family="Monaco" font-size="10.00">selectAndHighlight</text>
</a>
</g>
</g>
<!-- Node3&#45;&gt;Node4 -->
<g id="edge3" class="edge"><title>Node3&#45;&gt;Node4</title>
<path fill="none" stroke="midnightblue" d="M316.354,-117C324.84,-117 333.543,-117 342.005,-117"/>
<polygon fill="midnightblue" stroke="midnightblue" points="316.142,-113.5 306.142,-117 316.142,-120.5 316.142,-113.5"/>
</g>
<!-- Node5 -->
<g id="node5" class="node"><title>Node5</title>
<g id="a_node5"><a xlink:href="../../d6/d95/navtree_8js.html#a0238ad48be94f9f5fd305ea40b8f64ab" target="_top" xlink:title="showNode">
<polygon fill="none" stroke="black" points="502.048,-106.333 502.048,-127.667 566.056,-127.667 566.056,-106.333 502.048,-106.333"/>
<text text-anchor="middle" x="534.052" y="-115.667" font-family="Monaco" font-size="10.00">showNode</text>
</a>
</g>
</g>
<!-- Node4&#45;&gt;Node5 -->
<g id="edge4" class="edge"><title>Node4&#45;&gt;Node5</title>
<path fill="none" stroke="midnightblue" d="M476.519,-117C485.422,-117 494.13,-117 501.941,-117"/>
<polygon fill="midnightblue" stroke="midnightblue" points="476.421,-113.5 466.421,-117 476.421,-120.5 476.421,-113.5"/>
</g>
<!-- Node6 -->
<g id="node6" class="node"><title>Node6</title>
<g id="a_node6"><a xlink:href="../../d6/d95/navtree_8js.html#a0e6a2d65190a43246d668bba554243e5" target="_top" xlink:title="gotoNode">
<polygon fill="none" stroke="black" points="602.056,-106.333 602.056,-127.667 666.063,-127.667 666.063,-106.333 602.056,-106.333"/>
<text text-anchor="middle" x="634.06" y="-115.667" font-family="Monaco" font-size="10.00">gotoNode</text>
</a>
</g>
</g>
<!-- Node5&#45;&gt;Node6 -->
<g id="edge5" class="edge"><title>Node5&#45;&gt;Node6</title>
<path fill="none" stroke="midnightblue" d="M576.291,-117C584.869,-117 593.773,-117 601.915,-117"/>
<polygon fill="midnightblue" stroke="midnightblue" points="576.062,-113.5 566.062,-117 576.062,-120.5 576.062,-113.5"/>
</g>
<!-- Node7 -->
<g id="node7" class="node"><title>Node7</title>
<g id="a_node7"><a xlink:href="../../d6/d95/navtree_8js.html#a21beb601032fff375100a907f32129a5" target="_top" xlink:title="navTo">
<polygon fill="none" stroke="black" points="702.063,-106.333 702.063,-127.667 748.068,-127.667 748.068,-106.333 702.063,-106.333"/>
<text text-anchor="middle" x="725.066" y="-115.667" font-family="Monaco" font-size="10.00">navTo</text>
</a>
</g>
</g>
<!-- Node6&#45;&gt;Node7 -->
<g id="edge6" class="edge"><title>Node6&#45;&gt;Node7</title>
<path fill="none" stroke="midnightblue" d="M676.417,-110.265C685.267,-110.18 694.283,-110.453 702.057,-111.084"/>
<polygon fill="midnightblue" stroke="midnightblue" points="676.096,-106.772 666.19,-110.529 676.277,-113.77 676.096,-106.772"/>
</g>
<!-- Node7&#45;&gt;Node6 -->
<g id="edge7" class="edge"><title>Node7&#45;&gt;Node6</title>
<path fill="none" stroke="midnightblue" d="M691.888,-123.514C683.514,-123.842 674.508,-123.828 666.19,-123.471"/>
<polygon fill="midnightblue" stroke="midnightblue" points="692.28,-126.998 702.057,-122.916 691.869,-120.01 692.28,-126.998"/>
</g>
<!-- Node7&#45;&gt;Node8 -->
<g id="edge8" class="edge"><title>Node7&#45;&gt;Node8</title>
<path fill="none" stroke="midnightblue" d="M752.932,-100.827C769.889,-90.6187 791.324,-77.715 806.212,-68.7529"/>
<polygon fill="midnightblue" stroke="midnightblue" points="750.804,-98.0223 744.042,-106.178 754.415,-104.02 750.804,-98.0223"/>
</g>
<!-- Node9&#45;&gt;Node8 -->
<g id="edge10" class="edge"><title>Node9&#45;&gt;Node8</title>
<path fill="none" stroke="midnightblue" d="M470.354,-41.9615C558.072,-45.9389 711.287,-52.886 783.817,-56.1747"/>
<polygon fill="midnightblue" stroke="midnightblue" points="470.4,-38.4601 460.251,-41.5035 470.083,-45.4529 470.4,-38.4601"/>
</g>
</g>
</svg>
        <g id="navigator" transform="translate(0 0)" fill="#404254">
                <rect fill="#f2f5e9" fill-opacity="0.5" stroke="#606060" stroke-width=".5" x="0" y="0" width="60" height="60"/>
                <use id="zoomplus" xlink:href="#zoomPlus" x="17" y="9" onmousedown="handleZoom(evt,'in')"/>
                <use id="zoomminus" xlink:href="#zoomMin" x="42" y="9" onmousedown="handleZoom(evt,'out')"/>
                <use id="reset" xlink:href="#resetDef" x="30" y="36" onmousedown="handleReset()"/>
                <g id="arrowUp" xlink:href="#dirArrow" transform="translate(30 24)" onmousedown="handlePan(0,-1)">
                  <use xlink:href="#rim" fill="#404040">
                        <set attributeName="fill" to="#808080" begin="arrowUp.mouseover" end="arrowUp.mouseout"/>
                  </use>
                  <path fill="none" stroke="white" stroke-width="1.5" d="M0,-3.0v7 M-2.5,-0.5L0,-3.0L2.5,-0.5"/>
                </g>
                <g id="arrowRight" xlink:href="#dirArrow" transform="rotate(90) translate(36 -43)" onmousedown="handlePan(1,0)">
                  <use xlink:href="#rim" fill="#404040">
                        <set attributeName="fill" to="#808080" begin="arrowRight.mouseover" end="arrowRight.mouseout"/>
                  </use>
                  <path fill="none" stroke="white" stroke-width="1.5" d="M0,-3.0v7 M-2.5,-0.5L0,-3.0L2.5,-0.5"/>
                </g>
                <g id="arrowDown" xlink:href="#dirArrow" transform="rotate(180) translate(-30 -48)" onmousedown="handlePan(0,1)">
                  <use xlink:href="#rim" fill="#404040">
                        <set attributeName="fill" to="#808080" begin="arrowDown.mouseover" end="arrowDown.mouseout"/>
                  </use>
                  <path fill="none" stroke="white" stroke-width="1.5" d="M0,-3.0v7 M-2.5,-0.5L0,-3.0L2.5,-0.5"/>
                </g>
                <g id="arrowLeft" xlink:href="#dirArrow" transform="rotate(270) translate(-36 17)" onmousedown="handlePan(-1,0)">
                  <use xlink:href="#rim" fill="#404040">
                        <set attributeName="fill" to="#808080" begin="arrowLeft.mouseover" end="arrowLeft.mouseout"/>
                  </use>
                  <path fill="none" stroke="white" stroke-width="1.5" d="M0,-3.0v7 M-2.5,-0.5L0,-3.0L2.5,-0.5"/>
                </g>
        </g>
        <svg viewBox="0 0 15 15" width="100%" height="30px" preserveAspectRatio="xMaxYMin meet">
         <g id="arrow_out" transform="scale(0.3 0.3)">
          <a xlink:href="navtree_8js_aaeb20639619e1371c030d36a7109b27b_icgraph_org.svg" target="_base">
           <rect id="button" ry="5" rx="5" y="6" x="6" height="38" width="38"
                fill="#f2f5e9" fill-opacity="0.5" stroke="#606060" stroke-width="1.0"/>
           <path id="arrow"
             d="M 11.500037,31.436501 C 11.940474,20.09759 22.043105,11.32322 32.158766,21.979434 L 37.068811,17.246167 C 37.068811,17.246167 37.088388,32 37.088388,32 L 22.160133,31.978069 C 22.160133,31.978069 26.997745,27.140456 26.997745,27.140456 C 18.528582,18.264221 13.291696,25.230495 11.500037,31.436501 z"
             style="fill:#404040;"/>
          </a>
         </g>
        </svg>
</svg>
