<?xml version="1.0" encoding="UTF-8" standalone="no"?>
<!DOCTYPE svg PUBLIC "-//W3C//DTD SVG 1.1//EN"
 "http://www.w3.org/Graphics/SVG/1.1/DTD/svg11.dtd">
<!-- Generated by graphviz version 2.38.0 (20140413.2041)
 -->
<!-- Title: showNode Pages: 1 -->
<svg width="372pt" height="30pt"
 viewBox="0.00 0.00 372.03 30.33" xmlns="http://www.w3.org/2000/svg" xmlns:xlink="http://www.w3.org/1999/xlink">
<g id="graph0" class="graph" transform="scale(1 1) rotate(0) translate(4 26.335)">
<title>showNode</title>
<!-- Node1 -->
<g id="node1" class="node"><title>Node1</title>
<polygon fill="#bfbfbf" stroke="black" points="0,-0.5 0,-21.835 64.0078,-21.835 64.0078,-0.5 0,-0.5"/>
<text text-anchor="middle" x="32.0039" y="-9.83496" font-family="Monaco" font-size="10.00">showNode</text>
</g>
<!-- Node2 -->
<g id="node2" class="node"><title>Node2</title>
<g id="a_node2"><a xlink:href="../../d6/d95/navtree_8js.html#a0e6a2d65190a43246d668bba554243e5" target="_top" xlink:title="gotoNode">
<polygon fill="none" stroke="black" points="100.008,-0.5 100.008,-21.835 164.016,-21.835 164.016,-0.5 100.008,-0.5"/>
<text text-anchor="middle" x="132.012" y="-9.83496" font-family="Monaco" font-size="10.00">gotoNode</text>
</a>
</g>
</g>
<!-- Node1&#45;&gt;Node2 -->
<g id="edge1" class="edge"><title>Node1&#45;&gt;Node2</title>
<path fill="none" stroke="midnightblue" d="M74.243,-11.1675C82.8211,-11.1675 91.7249,-11.1675 99.8668,-11.1675"/>
<polygon fill="midnightblue" stroke="midnightblue" points="74.0142,-7.66758 64.0142,-11.1675 74.0142,-14.6676 74.0142,-7.66758"/>
</g>
<!-- Node3 -->
<g id="node3" class="node"><title>Node3</title>
<g id="a_node3"><a xlink:href="../../d6/d95/navtree_8js.html#a21beb601032fff375100a907f32129a5" target="_top" xlink:title="navTo">
<polygon fill="none" stroke="black" points="200.016,-0.5 200.016,-21.835 246.021,-21.835 246.021,-0.5 200.016,-0.5"/>
<text text-anchor="middle" x="223.018" y="-9.83496" font-family="Monaco" font-size="10.00">navTo</text>
</a>
</g>
</g>
<!-- Node2&#45;&gt;Node3 -->
<g id="edge2" class="edge"><title>Node2&#45;&gt;Node3</title>
<path fill="none" stroke="midnightblue" d="M174.37,-4.43249C183.219,-4.34791 192.235,-4.62081 200.009,-5.25118"/>
<polygon fill="midnightblue" stroke="midnightblue" points="174.048,-0.939506 164.142,-4.69598 174.229,-7.93718 174.048,-0.939506"/>
</g>
<!-- Node3&#45;&gt;Node2 -->
<g id="edge3" class="edge"><title>Node3&#45;&gt;Node2</title>
<path fill="none" stroke="midnightblue" d="M189.84,-17.6819C181.466,-18.0097 172.46,-17.9954 164.142,-17.639"/>
<polygon fill="midnightblue" stroke="midnightblue" points="190.232,-21.165 200.009,-17.0838 189.821,-14.1771 190.232,-21.165"/>
</g>
<!-- Node4 -->
<g id="node4" class="node"><title>Node4</title>
<g id="a_node4"><a xlink:href="../../d6/d95/navtree_8js.html#aa7b3067e7ef0044572ba86240b1e58ce" target="_top" xlink:title="initNavTree">
<polygon fill="none" stroke="black" points="282.021,-0.5 282.021,-21.835 364.031,-21.835 364.031,-0.5 282.021,-0.5"/>
<text text-anchor="middle" x="323.026" y="-9.83496" font-family="Monaco" font-size="10.00">initNavTree</text>
</a>
</g>
</g>
<!-- Node3&#45;&gt;Node4 -->
<g id="edge4" class="edge"><title>Node3&#45;&gt;Node4</title>
<path fill="none" stroke="midnightblue" d="M256.431,-11.1675C264.537,-11.1675 273.331,-11.1675 281.767,-11.1675"/>
<polygon fill="midnightblue" stroke="midnightblue" points="256.258,-7.66758 246.258,-11.1675 256.258,-14.6676 256.258,-7.66758"/>
</g>
</g>
</svg>
