<?xml version="1.0" encoding="UTF-8" standalone="no"?>
<!DOCTYPE svg PUBLIC "-//W3C//DTD SVG 1.1//EN"
 "http://www.w3.org/Graphics/SVG/1.1/DTD/svg11.dtd">
<!-- Generated by graphviz version 2.38.0 (20140413.2041)
 -->
<!-- Title: selectAndHighlight Pages: 1 -->
<svg width="492pt" height="169pt"
 viewBox="0.00 0.00 492.05 169.33" xmlns="http://www.w3.org/2000/svg" xmlns:xlink="http://www.w3.org/1999/xlink">
<g id="graph0" class="graph" transform="scale(1 1) rotate(0) translate(4 165.335)">
<title>selectAndHighlight</title>
<!-- Node1 -->
<g id="node1" class="node"><title>Node1</title>
<polygon fill="#bfbfbf" stroke="black" points="0,-79.5 0,-100.835 124.018,-100.835 124.018,-79.5 0,-79.5"/>
<text text-anchor="middle" x="62.0088" y="-88.835" font-family="Monaco" font-size="10.00">selectAndHighlight</text>
</g>
<!-- Node2 -->
<g id="node2" class="node"><title>Node2</title>
<g id="a_node2"><a xlink:href="../../d6/d95/navtree_8js.html#a9336c21407bb7ced644331eb7a2a6e35" target="_top" xlink:title="stripPath">
<polygon fill="none" stroke="black" points="178.021,-139.5 178.021,-160.835 248.029,-160.835 248.029,-139.5 178.021,-139.5"/>
<text text-anchor="middle" x="213.025" y="-148.835" font-family="Monaco" font-size="10.00">stripPath</text>
</a>
</g>
</g>
<!-- Node1&#45;&gt;Node2 -->
<g id="edge1" class="edge"><title>Node1&#45;&gt;Node2</title>
<path fill="none" stroke="midnightblue" d="M88.4721,-100.862C107.999,-109.016 135.647,-120.459 160.018,-130.167 164.606,-131.996 169.434,-133.89 174.222,-135.752"/>
<polygon fill="midnightblue" stroke="midnightblue" points="173.317,-139.154 183.906,-139.495 175.841,-132.625 173.317,-139.154"/>
</g>
<!-- Node3 -->
<g id="node3" class="node"><title>Node3</title>
<g id="a_node3"><a xlink:href="../../d6/d95/navtree_8js.html#a364b3f4132309fa9aae78585cf2cb772" target="_top" xlink:title="pathName">
<polygon fill="none" stroke="black" points="181.021,-99.5 181.021,-120.835 245.029,-120.835 245.029,-99.5 181.021,-99.5"/>
<text text-anchor="middle" x="213.025" y="-108.835" font-family="Monaco" font-size="10.00">pathName</text>
</a>
</g>
</g>
<!-- Node1&#45;&gt;Node3 -->
<g id="edge2" class="edge"><title>Node1&#45;&gt;Node3</title>
<path fill="none" stroke="midnightblue" d="M124.049,-98.36C139.701,-100.461 156.174,-102.671 170.578,-104.605"/>
<polygon fill="midnightblue" stroke="midnightblue" points="170.283,-108.096 180.66,-105.958 171.214,-101.159 170.283,-108.096"/>
</g>
<!-- Node4 -->
<g id="node4" class="node"><title>Node4</title>
<g id="a_node4"><a xlink:href="../../d6/d95/navtree_8js.html#a524fa9bfd80c70bf3a84696b2077eadb" target="_top" xlink:title="highlightAnchor">
<polygon fill="none" stroke="black" points="160.018,-59.5 160.018,-80.835 266.032,-80.835 266.032,-59.5 160.018,-59.5"/>
<text text-anchor="middle" x="213.025" y="-68.835" font-family="Monaco" font-size="10.00">highlightAnchor</text>
</a>
</g>
</g>
<!-- Node1&#45;&gt;Node4 -->
<g id="edge3" class="edge"><title>Node1&#45;&gt;Node4</title>
<path fill="none" stroke="midnightblue" d="M124.049,-81.975C132.599,-80.8275 141.394,-79.6471 149.963,-78.497"/>
<polygon fill="midnightblue" stroke="midnightblue" points="150.444,-81.9639 159.89,-77.1647 149.513,-75.0261 150.444,-81.9639"/>
</g>
<!-- Node9 -->
<g id="node9" class="node"><title>Node9</title>
<g id="a_node9"><a xlink:href="../../d6/d95/navtree_8js.html#af98a8e3534da945399ea20870c0f3e92" target="_top" xlink:title="showRoot">
<polygon fill="none" stroke="black" points="181.021,-19.5 181.021,-40.835 245.029,-40.835 245.029,-19.5 181.021,-19.5"/>
<text text-anchor="middle" x="213.025" y="-28.835" font-family="Monaco" font-size="10.00">showRoot</text>
</a>
</g>
</g>
<!-- Node1&#45;&gt;Node9 -->
<g id="edge9" class="edge"><title>Node1&#45;&gt;Node9</title>
<path fill="none" stroke="midnightblue" d="M88.4721,-79.4728C107.999,-71.3188 135.647,-59.8761 160.018,-50.1675 164.606,-48.3394 169.434,-46.4448 174.222,-44.5831"/>
<polygon fill="midnightblue" stroke="midnightblue" points="175.841,-47.7097 183.906,-40.8395 173.317,-41.1806 175.841,-47.7097"/>
</g>
<!-- Node5 -->
<g id="node5" class="node"><title>Node5</title>
<g id="a_node5"><a xlink:href="../../d6/d95/navtree_8js.html#a20695277530a1a04eef8d289177a5e40" target="_top" xlink:title="hashUrl">
<polygon fill="none" stroke="black" points="311.034,-118.5 311.034,-139.835 369.041,-139.835 369.041,-118.5 311.034,-118.5"/>
<text text-anchor="middle" x="340.037" y="-127.835" font-family="Monaco" font-size="10.00">hashUrl</text>
</a>
</g>
</g>
<!-- Node4&#45;&gt;Node5 -->
<g id="edge4" class="edge"><title>Node4&#45;&gt;Node5</title>
<path fill="none" stroke="midnightblue" d="M243.717,-80.8596C251.083,-83.7102 258.906,-86.909 266.032,-90.1675 281.428,-97.2076 298.115,-106.028 311.644,-113.498"/>
<polygon fill="midnightblue" stroke="midnightblue" points="310.014,-116.597 320.451,-118.416 313.427,-110.485 310.014,-116.597"/>
</g>
<!-- Node6 -->
<g id="node6" class="node"><title>Node6</title>
<g id="a_node6"><a xlink:href="../../d6/d95/navtree_8js.html#aaeb20639619e1371c030d36a7109b27b" target="_top" xlink:title="hashValue">
<polygon fill="none" stroke="black" points="414.042,-98.5 414.042,-119.835 484.051,-119.835 484.051,-98.5 414.042,-98.5"/>
<text text-anchor="middle" x="449.046" y="-107.835" font-family="Monaco" font-size="10.00">hashValue</text>
</a>
</g>
</g>
<!-- Node4&#45;&gt;Node6 -->
<g id="edge6" class="edge"><title>Node4&#45;&gt;Node6</title>
<path fill="none" stroke="midnightblue" d="M266.253,-78.8713C307.555,-85.7544 364.582,-95.258 403.69,-101.775"/>
<polygon fill="midnightblue" stroke="midnightblue" points="403.282,-105.256 413.721,-103.447 404.432,-98.3508 403.282,-105.256"/>
</g>
<!-- Node7 -->
<g id="node7" class="node"><title>Node7</title>
<g id="a_node7"><a xlink:href="../../d6/d95/navtree_8js.html#a23b68d2deb28f9c2678f546e2d60e5ee" target="_top" xlink:title="glowEffect">
<polygon fill="none" stroke="black" points="302.032,-40.5 302.032,-61.835 378.042,-61.835 378.042,-40.5 302.032,-40.5"/>
<text text-anchor="middle" x="340.037" y="-49.835" font-family="Monaco" font-size="10.00">glowEffect</text>
</a>
</g>
</g>
<!-- Node4&#45;&gt;Node7 -->
<g id="edge7" class="edge"><title>Node4&#45;&gt;Node7</title>
<path fill="none" stroke="midnightblue" d="M266.317,-62.2199C274.784,-60.933 283.508,-59.6071 291.844,-58.3401"/>
<polygon fill="midnightblue" stroke="midnightblue" points="292.417,-61.7933 301.778,-56.8303 291.366,-54.8727 292.417,-61.7933"/>
</g>
<!-- Node8 -->
<g id="node8" class="node"><title>Node8</title>
<g id="a_node8"><a xlink:href="../../d6/d95/navtree_8js.html#aee1fc3771eeb15da54962a03da1f3c11" target="_top" xlink:title="gotoAnchor">
<polygon fill="none" stroke="black" points="302.032,-0.5 302.032,-21.835 378.042,-21.835 378.042,-0.5 302.032,-0.5"/>
<text text-anchor="middle" x="340.037" y="-9.83496" font-family="Monaco" font-size="10.00">gotoAnchor</text>
</a>
</g>
</g>
<!-- Node4&#45;&gt;Node8 -->
<g id="edge8" class="edge"><title>Node4&#45;&gt;Node8</title>
<path fill="none" stroke="midnightblue" d="M243.717,-59.4753C251.083,-56.6247 258.906,-53.426 266.032,-50.1675 268.359,-49.1035 290.698,-37.1494 310.059,-26.7533"/>
<polygon fill="midnightblue" stroke="midnightblue" points="311.79,-29.7967 318.943,-21.9807 308.477,-23.6303 311.79,-29.7967"/>
</g>
<!-- Node5&#45;&gt;Node6 -->
<g id="edge5" class="edge"><title>Node5&#45;&gt;Node6</title>
<path fill="none" stroke="midnightblue" d="M369.153,-123.913C379.785,-121.926 392.159,-119.613 403.91,-117.416"/>
<polygon fill="midnightblue" stroke="midnightblue" points="404.831,-120.805 414.018,-115.527 403.545,-113.924 404.831,-120.805"/>
</g>
</g>
</svg>
