<?xml version="1.0" encoding="UTF-8" standalone="no"?>
<!DOCTYPE svg PUBLIC "-//W3C//DTD SVG 1.1//EN"
 "http://www.w3.org/Graphics/SVG/1.1/DTD/svg11.dtd">
<!-- Generated by graphviz version 2.38.0 (20140413.2041)
 -->
<!-- Title: navTo Pages: 1 -->
<svg width="172pt" height="70pt"
 viewBox="0.00 0.00 172.02 70.33" xmlns="http://www.w3.org/2000/svg" xmlns:xlink="http://www.w3.org/1999/xlink">
<g id="graph0" class="graph" transform="scale(1 1) rotate(0) translate(4 66.335)">
<title>navTo</title>
<!-- Node1 -->
<g id="node1" class="node"><title>Node1</title>
<polygon fill="#bfbfbf" stroke="black" points="0,-40.5 0,-61.835 46.0049,-61.835 46.0049,-40.5 0,-40.5"/>
<text text-anchor="middle" x="23.0024" y="-49.835" font-family="Monaco" font-size="10.00">navTo</text>
</g>
<!-- Node2 -->
<g id="node2" class="node"><title>Node2</title>
<g id="a_node2"><a xlink:href="../../d6/d95/navtree_8js.html#a0e6a2d65190a43246d668bba554243e5" target="_top" xlink:title="gotoNode">
<polygon fill="none" stroke="black" points="91.0063,-40.5 91.0063,-61.835 155.014,-61.835 155.014,-40.5 91.0063,-40.5"/>
<text text-anchor="middle" x="123.01" y="-49.835" font-family="Monaco" font-size="10.00">gotoNode</text>
</a>
</g>
</g>
<!-- Node1&#45;&gt;Node2 -->
<g id="edge1" class="edge"><title>Node1&#45;&gt;Node2</title>
<path fill="none" stroke="midnightblue" d="M56.4153,-44.7738C67.5306,-44.2786 79.9371,-44.2996 90.9432,-44.8366"/>
<polygon fill="midnightblue" stroke="midnightblue" points="56.0053,-41.2924 46.2419,-45.4067 56.44,-48.2789 56.0053,-41.2924"/>
</g>
<!-- Node3 -->
<g id="node3" class="node"><title>Node3</title>
<g id="a_node3"><a xlink:href="../../d6/d95/navtree_8js.html#aa7b3067e7ef0044572ba86240b1e58ce" target="_top" xlink:title="initNavTree">
<polygon fill="none" stroke="black" points="82.0049,-0.5 82.0049,-21.835 164.016,-21.835 164.016,-0.5 82.0049,-0.5"/>
<text text-anchor="middle" x="123.01" y="-9.83496" font-family="Monaco" font-size="10.00">initNavTree</text>
</a>
</g>
</g>
<!-- Node1&#45;&gt;Node3 -->
<g id="edge3" class="edge"><title>Node1&#45;&gt;Node3</title>
<path fill="none" stroke="midnightblue" d="M55.6915,-38.2342C68.6112,-32.9613 83.3736,-26.9363 95.6855,-21.9114"/>
<polygon fill="midnightblue" stroke="midnightblue" points="54.1779,-35.0716 46.2419,-42.0909 56.8231,-41.5526 54.1779,-35.0716"/>
</g>
<!-- Node2&#45;&gt;Node1 -->
<g id="edge2" class="edge"><title>Node2&#45;&gt;Node1</title>
<path fill="none" stroke="midnightblue" d="M80.7681,-57.8417C68.926,-58.0748 56.4635,-57.7703 46.2419,-56.9283"/>
<polygon fill="midnightblue" stroke="midnightblue" points="81.0669,-61.3337 90.9432,-57.4984 80.8308,-54.3376 81.0669,-61.3337"/>
</g>
</g>
</svg>
