<?xml version="1.0" encoding="UTF-8" standalone="no"?>
<!DOCTYPE svg PUBLIC "-//W3C//DTD SVG 1.1//EN"
 "http://www.w3.org/Graphics/SVG/1.1/DTD/svg11.dtd">
<!-- Generated by graphviz version 2.38.0 (20140413.2041)
 -->
<!-- Title: selectAndHighlight Pages: 1 -->
<svg width="532pt" height="30pt"
 viewBox="0.00 0.00 532.05 30.33" xmlns="http://www.w3.org/2000/svg" xmlns:xlink="http://www.w3.org/1999/xlink">
<g id="graph0" class="graph" transform="scale(1 1) rotate(0) translate(4 26.335)">
<title>selectAndHighlight</title>
<!-- Node1 -->
<g id="node1" class="node"><title>Node1</title>
<polygon fill="#bfbfbf" stroke="black" points="0,-0.5 0,-21.835 124.018,-21.835 124.018,-0.5 0,-0.5"/>
<text text-anchor="middle" x="62.0088" y="-9.83496" font-family="Monaco" font-size="10.00">selectAndHighlight</text>
</g>
<!-- Node2 -->
<g id="node2" class="node"><title>Node2</title>
<g id="a_node2"><a xlink:href="../../d6/d95/navtree_8js.html#a0238ad48be94f9f5fd305ea40b8f64ab" target="_top" xlink:title="showNode">
<polygon fill="none" stroke="black" points="160.018,-0.5 160.018,-21.835 224.025,-21.835 224.025,-0.5 160.018,-0.5"/>
<text text-anchor="middle" x="192.021" y="-9.83496" font-family="Monaco" font-size="10.00">showNode</text>
</a>
</g>
</g>
<!-- Node1&#45;&gt;Node2 -->
<g id="edge1" class="edge"><title>Node1&#45;&gt;Node2</title>
<path fill="none" stroke="midnightblue" d="M134.489,-11.1675C143.392,-11.1675 152.1,-11.1675 159.911,-11.1675"/>
<polygon fill="midnightblue" stroke="midnightblue" points="134.391,-7.66758 124.391,-11.1675 134.39,-14.6676 134.391,-7.66758"/>
</g>
<!-- Node3 -->
<g id="node3" class="node"><title>Node3</title>
<g id="a_node3"><a xlink:href="../../d6/d95/navtree_8js.html#a0e6a2d65190a43246d668bba554243e5" target="_top" xlink:title="gotoNode">
<polygon fill="none" stroke="black" points="260.025,-0.5 260.025,-21.835 324.033,-21.835 324.033,-0.5 260.025,-0.5"/>
<text text-anchor="middle" x="292.029" y="-9.83496" font-family="Monaco" font-size="10.00">gotoNode</text>
</a>
</g>
</g>
<!-- Node2&#45;&gt;Node3 -->
<g id="edge2" class="edge"><title>Node2&#45;&gt;Node3</title>
<path fill="none" stroke="midnightblue" d="M234.261,-11.1675C242.839,-11.1675 251.742,-11.1675 259.884,-11.1675"/>
<polygon fill="midnightblue" stroke="midnightblue" points="234.032,-7.66758 224.032,-11.1675 234.032,-14.6676 234.032,-7.66758"/>
</g>
<!-- Node4 -->
<g id="node4" class="node"><title>Node4</title>
<g id="a_node4"><a xlink:href="../../d6/d95/navtree_8js.html#a21beb601032fff375100a907f32129a5" target="_top" xlink:title="navTo">
<polygon fill="none" stroke="black" points="360.033,-0.5 360.033,-21.835 406.038,-21.835 406.038,-0.5 360.033,-0.5"/>
<text text-anchor="middle" x="383.036" y="-9.83496" font-family="Monaco" font-size="10.00">navTo</text>
</a>
</g>
</g>
<!-- Node3&#45;&gt;Node4 -->
<g id="edge3" class="edge"><title>Node3&#45;&gt;Node4</title>
<path fill="none" stroke="midnightblue" d="M334.387,-4.43249C343.237,-4.34791 352.253,-4.62081 360.027,-5.25118"/>
<polygon fill="midnightblue" stroke="midnightblue" points="334.066,-0.939506 324.159,-4.69598 334.246,-7.93718 334.066,-0.939506"/>
</g>
<!-- Node4&#45;&gt;Node3 -->
<g id="edge4" class="edge"><title>Node4&#45;&gt;Node3</title>
<path fill="none" stroke="midnightblue" d="M349.857,-17.6819C341.484,-18.0097 332.478,-17.9954 324.159,-17.639"/>
<polygon fill="midnightblue" stroke="midnightblue" points="350.25,-21.165 360.027,-17.0838 349.839,-14.1771 350.25,-21.165"/>
</g>
<!-- Node5 -->
<g id="node5" class="node"><title>Node5</title>
<g id="a_node5"><a xlink:href="../../d6/d95/navtree_8js.html#aa7b3067e7ef0044572ba86240b1e58ce" target="_top" xlink:title="initNavTree">
<polygon fill="none" stroke="black" points="442.038,-0.5 442.038,-21.835 524.049,-21.835 524.049,-0.5 442.038,-0.5"/>
<text text-anchor="middle" x="483.043" y="-9.83496" font-family="Monaco" font-size="10.00">initNavTree</text>
</a>
</g>
</g>
<!-- Node4&#45;&gt;Node5 -->
<g id="edge5" class="edge"><title>Node4&#45;&gt;Node5</title>
<path fill="none" stroke="midnightblue" d="M416.449,-11.1675C424.555,-11.1675 433.348,-11.1675 441.784,-11.1675"/>
<polygon fill="midnightblue" stroke="midnightblue" points="416.275,-7.66758 406.275,-11.1675 416.275,-14.6676 416.275,-7.66758"/>
</g>
</g>
</svg>
