<?xml version="1.0" encoding="UTF-8" standalone="no"?>
<!DOCTYPE svg PUBLIC "-//W3C//DTD SVG 1.1//EN"
 "http://www.w3.org/Graphics/SVG/1.1/DTD/svg11.dtd">
<!-- Generated by graphviz version 2.38.0 (20140413.2041)
 -->
<!-- Title: expandNode Pages: 1 -->
<svg width="658pt" height="190pt"
 viewBox="0.00 0.00 658.07 190.33" xmlns="http://www.w3.org/2000/svg" xmlns:xlink="http://www.w3.org/1999/xlink">
<g id="graph0" class="graph" transform="scale(1 1) rotate(0) translate(4 186.335)">
<title>expandNode</title>
<!-- Node1 -->
<g id="node1" class="node"><title>Node1</title>
<polygon fill="#bfbfbf" stroke="black" points="0,-81.5 0,-102.835 76.0098,-102.835 76.0098,-81.5 0,-81.5"/>
<text text-anchor="middle" x="38.0049" y="-90.835" font-family="Monaco" font-size="10.00">expandNode</text>
</g>
<!-- Node2 -->
<g id="node2" class="node"><title>Node2</title>
<g id="a_node2"><a xlink:href="../../d6/d95/navtree_8js.html#a32f4aac18d03aee747b55dea195731ac" target="_top" xlink:title="getScript">
<polygon fill="none" stroke="black" points="112.01,-120.5 112.01,-141.835 182.019,-141.835 182.019,-120.5 112.01,-120.5"/>
<text text-anchor="middle" x="147.014" y="-129.835" font-family="Monaco" font-size="10.00">getScript</text>
</a>
</g>
</g>
<!-- Node1&#45;&gt;Node2 -->
<g id="edge1" class="edge"><title>Node1&#45;&gt;Node2</title>
<path fill="none" stroke="midnightblue" d="M68.5289,-102.928C80.4589,-107.276 94.3944,-112.354 107.132,-116.997"/>
<polygon fill="midnightblue" stroke="midnightblue" points="105.993,-120.307 116.586,-120.442 108.39,-113.73 105.993,-120.307"/>
</g>
<!-- Node3 -->
<g id="node3" class="node"><title>Node3</title>
<g id="a_node3"><a xlink:href="../../de/d5f/svgpan_8js.html#aa8d9f2083cafa2af98efafed94901079" target="_top" xlink:title="show">
<polygon fill="none" stroke="black" points="263.026,-159.5 263.026,-180.835 303.03,-180.835 303.03,-159.5 263.026,-159.5"/>
<text text-anchor="middle" x="283.028" y="-168.835" font-family="Monaco" font-size="10.00">show</text>
</a>
</g>
</g>
<!-- Node1&#45;&gt;Node3 -->
<g id="edge15" class="edge"><title>Node1&#45;&gt;Node3</title>
<path fill="none" stroke="midnightblue" d="M48.6233,-103.087C61.5205,-116.913 85.8434,-140.243 112.01,-151.167 158.458,-170.559 217.916,-172.603 252.805,-171.769"/>
<polygon fill="midnightblue" stroke="midnightblue" points="252.925,-175.267 262.802,-171.434 252.69,-168.271 252.925,-175.267"/>
</g>
<!-- Node4 -->
<g id="node4" class="node"><title>Node4</title>
<g id="a_node4"><a xlink:href="../../d6/d95/navtree_8js.html#af98a8e3534da945399ea20870c0f3e92" target="_top" xlink:title="showRoot">
<polygon fill="none" stroke="black" points="251.024,-119.5 251.024,-140.835 315.032,-140.835 315.032,-119.5 251.024,-119.5"/>
<text text-anchor="middle" x="283.028" y="-128.835" font-family="Monaco" font-size="10.00">showRoot</text>
</a>
</g>
</g>
<!-- Node1&#45;&gt;Node4 -->
<g id="edge4" class="edge"><title>Node1&#45;&gt;Node4</title>
<path fill="none" stroke="midnightblue" d="M76.1276,-96.5244C105.045,-100.057 146.164,-105.384 182.019,-111.167 201.508,-114.311 223.029,-118.328 241.099,-121.859"/>
<polygon fill="midnightblue" stroke="midnightblue" points="240.534,-125.315 251.023,-123.816 241.889,-118.447 240.534,-125.315"/>
</g>
<!-- Node5 -->
<g id="node5" class="node"><title>Node5</title>
<g id="a_node5"><a xlink:href="../../d6/d95/navtree_8js.html#a256aa4fbee866e9227f78e82e9f258bb" target="_top" xlink:title="getNode">
<polygon fill="none" stroke="black" points="118.011,-42.5 118.011,-63.835 176.018,-63.835 176.018,-42.5 118.011,-42.5"/>
<text text-anchor="middle" x="147.014" y="-51.835" font-family="Monaco" font-size="10.00">getNode</text>
</a>
</g>
</g>
<!-- Node1&#45;&gt;Node5 -->
<g id="edge5" class="edge"><title>Node1&#45;&gt;Node5</title>
<path fill="none" stroke="midnightblue" d="M68.5289,-81.4073C80.7547,-76.9516 95.0867,-71.7282 108.077,-66.9937"/>
<polygon fill="midnightblue" stroke="midnightblue" points="109.496,-70.2019 117.693,-63.4892 107.099,-63.6251 109.496,-70.2019"/>
</g>
<!-- Node2&#45;&gt;Node3 -->
<g id="edge2" class="edge"><title>Node2&#45;&gt;Node3</title>
<path fill="none" stroke="midnightblue" d="M182.178,-141.11C204.071,-147.481 232.177,-155.66 252.989,-161.717"/>
<polygon fill="midnightblue" stroke="midnightblue" points="252.268,-165.152 262.848,-164.586 254.224,-158.431 252.268,-165.152"/>
</g>
<!-- Node2&#45;&gt;Node4 -->
<g id="edge3" class="edge"><title>Node2&#45;&gt;Node4</title>
<path fill="none" stroke="midnightblue" d="M182.178,-130.913C199.976,-130.78 221.88,-130.616 240.633,-130.476"/>
<polygon fill="midnightblue" stroke="midnightblue" points="240.708,-133.976 250.682,-130.401 240.656,-126.976 240.708,-133.976"/>
</g>
<!-- Node6 -->
<g id="node6" class="node"><title>Node6</title>
<g id="a_node6"><a xlink:href="../../d6/d95/navtree_8js.html#aa78016020f40c28356aefd325cd4df74" target="_top" xlink:title="removeToInsertLater">
<polygon fill="none" stroke="black" points="218.019,-39.5 218.019,-60.835 348.037,-60.835 348.037,-39.5 218.019,-39.5"/>
<text text-anchor="middle" x="283.028" y="-48.835" font-family="Monaco" font-size="10.00">removeToInsertLater</text>
</a>
</g>
</g>
<!-- Node5&#45;&gt;Node6 -->
<g id="edge6" class="edge"><title>Node5&#45;&gt;Node6</title>
<path fill="none" stroke="midnightblue" d="M176.108,-52.5386C185.451,-52.3294 196.339,-52.0857 207.509,-51.8356"/>
<polygon fill="midnightblue" stroke="midnightblue" points="207.892,-55.328 217.811,-51.605 207.735,-48.3298 207.892,-55.328"/>
</g>
<!-- Node7 -->
<g id="node7" class="node"><title>Node7</title>
<g id="a_node7"><a xlink:href="../../d6/d95/navtree_8js.html#aa2418b16159e9502e990f97ea6ec26c8" target="_top" xlink:title="newNode">
<polygon fill="none" stroke="black" points="254.024,-79.5 254.024,-100.835 312.031,-100.835 312.031,-79.5 254.024,-79.5"/>
<text text-anchor="middle" x="283.028" y="-88.835" font-family="Monaco" font-size="10.00">newNode</text>
</a>
</g>
</g>
<!-- Node5&#45;&gt;Node7 -->
<g id="edge7" class="edge"><title>Node5&#45;&gt;Node7</title>
<path fill="none" stroke="midnightblue" d="M176.108,-60.9239C195.853,-66.3753 222.497,-73.7315 244.122,-79.702"/>
<polygon fill="midnightblue" stroke="midnightblue" points="243.4,-83.1336 253.971,-82.4213 245.263,-76.3861 243.4,-83.1336"/>
</g>
<!-- Node8 -->
<g id="node8" class="node"><title>Node8</title>
<g id="a_node8"><a xlink:href="../../d6/d95/navtree_8js.html#a4d8f406d49520a0cede2e48347a3d7aa" target="_top" xlink:title="createIndent">
<polygon fill="none" stroke="black" points="384.037,-0.5 384.037,-21.835 472.049,-21.835 472.049,-0.5 384.037,-0.5"/>
<text text-anchor="middle" x="428.043" y="-9.83496" font-family="Monaco" font-size="10.00">createIndent</text>
</a>
</g>
</g>
<!-- Node7&#45;&gt;Node8 -->
<g id="edge8" class="edge"><title>Node7&#45;&gt;Node8</title>
<path fill="none" stroke="midnightblue" d="M312.179,-84.7534C323.874,-81.6704 337.215,-77.0148 348.037,-70.1675 367.971,-57.5552 364.981,-45.0713 384.037,-31.1675 386.132,-29.6387 388.363,-28.1833 390.664,-26.8064"/>
<polygon fill="midnightblue" stroke="midnightblue" points="392.618,-29.7291 399.752,-21.8956 389.29,-23.5708 392.618,-29.7291"/>
</g>
<!-- Node9 -->
<g id="node9" class="node"><title>Node9</title>
<g id="a_node9"><a xlink:href="../../d6/d95/navtree_8js.html#a9336c21407bb7ced644331eb7a2a6e35" target="_top" xlink:title="stripPath">
<polygon fill="none" stroke="black" points="393.039,-120.5 393.039,-141.835 463.047,-141.835 463.047,-120.5 393.039,-120.5"/>
<text text-anchor="middle" x="428.043" y="-129.835" font-family="Monaco" font-size="10.00">stripPath</text>
</a>
</g>
</g>
<!-- Node7&#45;&gt;Node9 -->
<g id="edge10" class="edge"><title>Node7&#45;&gt;Node9</title>
<path fill="none" stroke="midnightblue" d="M312.283,-98.2678C332.422,-104.041 359.892,-111.916 382.906,-118.514"/>
<polygon fill="midnightblue" stroke="midnightblue" points="382.216,-121.957 392.793,-121.349 384.145,-115.228 382.216,-121.957"/>
</g>
<!-- Node10 -->
<g id="node10" class="node"><title>Node10</title>
<g id="a_node10"><a xlink:href="../../d6/d95/navtree_8js.html#a364b3f4132309fa9aae78585cf2cb772" target="_top" xlink:title="pathName">
<polygon fill="none" stroke="black" points="396.039,-80.5 396.039,-101.835 460.047,-101.835 460.047,-80.5 396.039,-80.5"/>
<text text-anchor="middle" x="428.043" y="-89.835" font-family="Monaco" font-size="10.00">pathName</text>
</a>
</g>
</g>
<!-- Node7&#45;&gt;Node10 -->
<g id="edge11" class="edge"><title>Node7&#45;&gt;Node10</title>
<path fill="none" stroke="midnightblue" d="M312.283,-90.365C333.273,-90.5118 362.226,-90.7143 385.799,-90.8791"/>
<polygon fill="midnightblue" stroke="midnightblue" points="385.843,-94.3794 395.868,-90.9495 385.892,-87.3796 385.843,-94.3794"/>
</g>
<!-- Node11 -->
<g id="node11" class="node"><title>Node11</title>
<g id="a_node11"><a xlink:href="../../d6/d95/navtree_8js.html#ade730323aadb971c053136b7758c9dce" target="_top" xlink:title="storeLink">
<polygon fill="none" stroke="black" points="393.039,-40.5 393.039,-61.835 463.047,-61.835 463.047,-40.5 393.039,-40.5"/>
<text text-anchor="middle" x="428.043" y="-49.835" font-family="Monaco" font-size="10.00">storeLink</text>
</a>
</g>
</g>
<!-- Node7&#45;&gt;Node11 -->
<g id="edge12" class="edge"><title>Node7&#45;&gt;Node11</title>
<path fill="none" stroke="midnightblue" d="M312.283,-82.4623C332.422,-76.9706 359.892,-69.4795 382.906,-63.2034"/>
<polygon fill="midnightblue" stroke="midnightblue" points="384.066,-66.5151 392.793,-60.5074 382.224,-59.7617 384.066,-66.5151"/>
</g>
<!-- Node13 -->
<g id="node13" class="node"><title>Node13</title>
<g id="a_node13"><a xlink:href="../../d6/d95/navtree_8js.html#aee1fc3771eeb15da54962a03da1f3c11" target="_top" xlink:title="gotoAnchor">
<polygon fill="none" stroke="black" points="390.038,-160.5 390.038,-181.835 466.048,-181.835 466.048,-160.5 390.038,-160.5"/>
<text text-anchor="middle" x="428.043" y="-169.835" font-family="Monaco" font-size="10.00">gotoAnchor</text>
</a>
</g>
</g>
<!-- Node7&#45;&gt;Node13 -->
<g id="edge14" class="edge"><title>Node7&#45;&gt;Node13</title>
<path fill="none" stroke="midnightblue" d="M312.262,-95.4508C323.973,-98.5117 337.3,-103.186 348.037,-110.167 368.367,-123.387 364.627,-136.632 384.037,-151.167 386.056,-152.679 388.207,-154.115 390.43,-155.472"/>
<polygon fill="midnightblue" stroke="midnightblue" points="388.782,-158.56 399.232,-160.307 392.152,-152.425 388.782,-158.56"/>
</g>
<!-- Node8&#45;&gt;Node1 -->
<g id="edge9" class="edge"><title>Node8&#45;&gt;Node1</title>
<path fill="none" stroke="midnightblue" d="M383.996,-6.23756C321.63,-0.823998 203.595,2.85215 112.01,-33.1675 89.9513,-41.8429 69.3913,-59.7066 55.7479,-73.5169"/>
<polygon fill="midnightblue" stroke="midnightblue" points="52.9107,-71.4214 48.5552,-81.0796 57.983,-76.2455 52.9107,-71.4214"/>
</g>
<!-- Node12 -->
<g id="node12" class="node"><title>Node12</title>
<g id="a_node12"><a xlink:href="../../d6/d95/navtree_8js.html#ac49af616f532f2364be9f58280469d33" target="_top" xlink:title="localStorageSupported">
<polygon fill="none" stroke="black" points="508.049,-40.5 508.049,-61.835 650.069,-61.835 650.069,-40.5 508.049,-40.5"/>
<text text-anchor="middle" x="579.059" y="-49.835" font-family="Monaco" font-size="10.00">localStorageSupported</text>
</a>
</g>
</g>
<!-- Node11&#45;&gt;Node12 -->
<g id="edge13" class="edge"><title>Node11&#45;&gt;Node12</title>
<path fill="none" stroke="midnightblue" d="M463.23,-51.1675C473.636,-51.1675 485.542,-51.1675 497.658,-51.1675"/>
<polygon fill="midnightblue" stroke="midnightblue" points="497.856,-54.6676 507.856,-51.1675 497.856,-47.6676 497.856,-54.6676"/>
</g>
</g>
</svg>
