<?xml version="1.0" encoding="UTF-8" standalone="no"?>
<!DOCTYPE svg PUBLIC "-//W3C//DTD SVG 1.1//EN"
 "http://www.w3.org/Graphics/SVG/1.1/DTD/svg11.dtd">
<!-- Generated by graphviz version 2.38.0 (20140413.2041)
 -->
<!-- Title: getNode Pages: 1 -->
<svg width="740pt" height="268pt"
 viewBox="0.00 0.00 740.07 268.33" xmlns="http://www.w3.org/2000/svg" xmlns:xlink="http://www.w3.org/1999/xlink">
<g id="graph0" class="graph" transform="scale(1 1) rotate(0) translate(4 264.335)">
<title>getNode</title>
<!-- Node1 -->
<g id="node1" class="node"><title>Node1</title>
<polygon fill="#bfbfbf" stroke="black" points="0,-199.5 0,-220.835 58.0068,-220.835 58.0068,-199.5 0,-199.5"/>
<text text-anchor="middle" x="29.0034" y="-208.835" font-family="Monaco" font-size="10.00">getNode</text>
</g>
<!-- Node2 -->
<g id="node2" class="node"><title>Node2</title>
<g id="a_node2"><a xlink:href="../../d6/d95/navtree_8js.html#aa78016020f40c28356aefd325cd4df74" target="_top" xlink:title="removeToInsertLater">
<polygon fill="none" stroke="black" points="94.0068,-238.5 94.0068,-259.835 224.025,-259.835 224.025,-238.5 94.0068,-238.5"/>
<text text-anchor="middle" x="159.016" y="-247.835" font-family="Monaco" font-size="10.00">removeToInsertLater</text>
</a>
</g>
</g>
<!-- Node1&#45;&gt;Node2 -->
<g id="edge1" class="edge"><title>Node1&#45;&gt;Node2</title>
<path fill="none" stroke="midnightblue" d="M58.0963,-218.726C74.1921,-223.63 94.7677,-229.898 113.06,-235.471"/>
<polygon fill="midnightblue" stroke="midnightblue" points="112.075,-238.83 122.661,-238.396 114.116,-232.134 112.075,-238.83"/>
</g>
<!-- Node3 -->
<g id="node3" class="node"><title>Node3</title>
<g id="a_node3"><a xlink:href="../../d6/d95/navtree_8js.html#aa2418b16159e9502e990f97ea6ec26c8" target="_top" xlink:title="newNode">
<polygon fill="none" stroke="black" points="130.013,-100.5 130.013,-121.835 188.02,-121.835 188.02,-100.5 130.013,-100.5"/>
<text text-anchor="middle" x="159.016" y="-109.835" font-family="Monaco" font-size="10.00">newNode</text>
</a>
</g>
</g>
<!-- Node1&#45;&gt;Node3 -->
<g id="edge2" class="edge"><title>Node1&#45;&gt;Node3</title>
<path fill="none" stroke="midnightblue" d="M44.1921,-199.194C66.4167,-182.007 109.612,-148.601 135.93,-128.248"/>
<polygon fill="midnightblue" stroke="midnightblue" points="138.384,-130.775 144.153,-121.889 134.101,-125.238 138.384,-130.775"/>
</g>
<!-- Node4 -->
<g id="node4" class="node"><title>Node4</title>
<g id="a_node4"><a xlink:href="../../d6/d95/navtree_8js.html#a4d8f406d49520a0cede2e48347a3d7aa" target="_top" xlink:title="createIndent">
<polygon fill="none" stroke="black" points="260.025,-160.5 260.025,-181.835 348.037,-181.835 348.037,-160.5 260.025,-160.5"/>
<text text-anchor="middle" x="304.031" y="-169.835" font-family="Monaco" font-size="10.00">createIndent</text>
</a>
</g>
</g>
<!-- Node3&#45;&gt;Node4 -->
<g id="edge3" class="edge"><title>Node3&#45;&gt;Node4</title>
<path fill="none" stroke="midnightblue" d="M185.584,-121.894C208.525,-131.518 242.403,-145.732 267.887,-156.423"/>
<polygon fill="midnightblue" stroke="midnightblue" points="266.627,-159.69 277.202,-160.331 269.335,-153.235 266.627,-159.69"/>
</g>
<!-- Node9 -->
<g id="node9" class="node"><title>Node9</title>
<g id="a_node9"><a xlink:href="../../d6/d95/navtree_8js.html#a9336c21407bb7ced644331eb7a2a6e35" target="_top" xlink:title="stripPath">
<polygon fill="none" stroke="black" points="269.027,-120.5 269.027,-141.835 339.036,-141.835 339.036,-120.5 269.027,-120.5"/>
<text text-anchor="middle" x="304.031" y="-129.835" font-family="Monaco" font-size="10.00">stripPath</text>
</a>
</g>
</g>
<!-- Node3&#45;&gt;Node9 -->
<g id="edge11" class="edge"><title>Node3&#45;&gt;Node9</title>
<path fill="none" stroke="midnightblue" d="M188.271,-115.119C208.32,-117.923 235.634,-121.742 258.585,-124.952"/>
<polygon fill="midnightblue" stroke="midnightblue" points="258.393,-128.459 268.781,-126.378 259.362,-121.526 258.393,-128.459"/>
</g>
<!-- Node10 -->
<g id="node10" class="node"><title>Node10</title>
<g id="a_node10"><a xlink:href="../../d6/d95/navtree_8js.html#a364b3f4132309fa9aae78585cf2cb772" target="_top" xlink:title="pathName">
<polygon fill="none" stroke="black" points="272.027,-80.5 272.027,-101.835 336.035,-101.835 336.035,-80.5 272.027,-80.5"/>
<text text-anchor="middle" x="304.031" y="-89.835" font-family="Monaco" font-size="10.00">pathName</text>
</a>
</g>
</g>
<!-- Node3&#45;&gt;Node10 -->
<g id="edge12" class="edge"><title>Node3&#45;&gt;Node10</title>
<path fill="none" stroke="midnightblue" d="M188.271,-107.216C209.261,-104.281 238.214,-100.232 261.787,-96.9352"/>
<polygon fill="midnightblue" stroke="midnightblue" points="262.437,-100.379 271.856,-95.5272 261.467,-93.446 262.437,-100.379"/>
</g>
<!-- Node11 -->
<g id="node11" class="node"><title>Node11</title>
<g id="a_node11"><a xlink:href="../../d6/d95/navtree_8js.html#ade730323aadb971c053136b7758c9dce" target="_top" xlink:title="storeLink">
<polygon fill="none" stroke="black" points="269.027,-40.5 269.027,-61.835 339.036,-61.835 339.036,-40.5 269.027,-40.5"/>
<text text-anchor="middle" x="304.031" y="-49.835" font-family="Monaco" font-size="10.00">storeLink</text>
</a>
</g>
</g>
<!-- Node3&#45;&gt;Node11 -->
<g id="edge13" class="edge"><title>Node3&#45;&gt;Node11</title>
<path fill="none" stroke="midnightblue" d="M185.584,-100.441C208.525,-90.8165 242.403,-76.603 267.887,-65.9118"/>
<polygon fill="midnightblue" stroke="midnightblue" points="269.335,-69.0999 277.202,-62.0037 266.627,-62.645 269.335,-69.0999"/>
</g>
<!-- Node13 -->
<g id="node13" class="node"><title>Node13</title>
<g id="a_node13"><a xlink:href="../../d6/d95/navtree_8js.html#aee1fc3771eeb15da54962a03da1f3c11" target="_top" xlink:title="gotoAnchor">
<polygon fill="none" stroke="black" points="266.026,-0.5 266.026,-21.835 342.036,-21.835 342.036,-0.5 266.026,-0.5"/>
<text text-anchor="middle" x="304.031" y="-9.83496" font-family="Monaco" font-size="10.00">gotoAnchor</text>
</a>
</g>
</g>
<!-- Node3&#45;&gt;Node13 -->
<g id="edge15" class="edge"><title>Node3&#45;&gt;Node13</title>
<path fill="none" stroke="midnightblue" d="M171.633,-100.323C189.594,-83.9297 225.633,-52.491 260.025,-31.1675 262.519,-29.6217 265.151,-28.1189 267.835,-26.6769"/>
<polygon fill="midnightblue" stroke="midnightblue" points="269.683,-29.6647 277.034,-22.0352 266.53,-23.4151 269.683,-29.6647"/>
</g>
<!-- Node5 -->
<g id="node5" class="node"><title>Node5</title>
<g id="a_node5"><a xlink:href="../../d6/d95/navtree_8js.html#a4eb1f166c9d93b198e1621a4c787a412" target="_top" xlink:title="expandNode">
<polygon fill="none" stroke="black" points="417.042,-179.5 417.042,-200.835 493.052,-200.835 493.052,-179.5 417.042,-179.5"/>
<text text-anchor="middle" x="455.047" y="-188.835" font-family="Monaco" font-size="10.00">expandNode</text>
</a>
</g>
</g>
<!-- Node4&#45;&gt;Node5 -->
<g id="edge4" class="edge"><title>Node4&#45;&gt;Node5</title>
<path fill="none" stroke="midnightblue" d="M348.133,-176.663C366.41,-178.993 387.772,-181.717 406.506,-184.106"/>
<polygon fill="midnightblue" stroke="midnightblue" points="406.244,-187.601 416.607,-185.394 407.13,-180.657 406.244,-187.601"/>
</g>
<!-- Node5&#45;&gt;Node1 -->
<g id="edge9" class="edge"><title>Node5&#45;&gt;Node1</title>
<path fill="none" stroke="midnightblue" d="M416.752,-191.926C336.752,-195.7 149.373,-204.537 68.3984,-208.357"/>
<polygon fill="midnightblue" stroke="midnightblue" points="67.9785,-204.872 58.1545,-208.84 68.3083,-211.865 67.9785,-204.872"/>
</g>
<!-- Node6 -->
<g id="node6" class="node"><title>Node6</title>
<g id="a_node6"><a xlink:href="../../d6/d95/navtree_8js.html#a32f4aac18d03aee747b55dea195731ac" target="_top" xlink:title="getScript">
<polygon fill="none" stroke="black" points="562.058,-179.5 562.058,-200.835 632.066,-200.835 632.066,-179.5 562.058,-179.5"/>
<text text-anchor="middle" x="597.062" y="-188.835" font-family="Monaco" font-size="10.00">getScript</text>
</a>
</g>
</g>
<!-- Node5&#45;&gt;Node6 -->
<g id="edge5" class="edge"><title>Node5&#45;&gt;Node6</title>
<path fill="none" stroke="midnightblue" d="M493.201,-190.167C511.111,-190.167 532.73,-190.167 551.517,-190.167"/>
<polygon fill="midnightblue" stroke="midnightblue" points="551.621,-193.668 561.621,-190.167 551.621,-186.668 551.621,-193.668"/>
</g>
<!-- Node7 -->
<g id="node7" class="node"><title>Node7</title>
<g id="a_node7"><a xlink:href="../../de/d5f/svgpan_8js.html#aa8d9f2083cafa2af98efafed94901079" target="_top" xlink:title="show">
<polygon fill="none" stroke="black" points="680.068,-208.5 680.068,-229.835 720.072,-229.835 720.072,-208.5 680.068,-208.5"/>
<text text-anchor="middle" x="700.07" y="-217.835" font-family="Monaco" font-size="10.00">show</text>
</a>
</g>
</g>
<!-- Node5&#45;&gt;Node7 -->
<g id="edge10" class="edge"><title>Node5&#45;&gt;Node7</title>
<path fill="none" stroke="midnightblue" d="M493.159,-198.308C513.426,-202.465 539.018,-207.248 562.058,-210.167 599.011,-214.85 641.899,-217.169 669.71,-218.266"/>
<polygon fill="midnightblue" stroke="midnightblue" points="669.817,-221.772 679.939,-218.64 670.074,-214.777 669.817,-221.772"/>
</g>
<!-- Node8 -->
<g id="node8" class="node"><title>Node8</title>
<g id="a_node8"><a xlink:href="../../d6/d95/navtree_8js.html#af98a8e3534da945399ea20870c0f3e92" target="_top" xlink:title="showRoot">
<polygon fill="none" stroke="black" points="668.066,-159.5 668.066,-180.835 732.074,-180.835 732.074,-159.5 668.066,-159.5"/>
<text text-anchor="middle" x="700.07" y="-168.835" font-family="Monaco" font-size="10.00">showRoot</text>
</a>
</g>
</g>
<!-- Node5&#45;&gt;Node8 -->
<g id="edge8" class="edge"><title>Node5&#45;&gt;Node8</title>
<path fill="none" stroke="midnightblue" d="M493.093,-181.423C513.34,-177.09 538.934,-172.33 562.058,-170.167 594.047,-167.176 630.422,-167.342 657.649,-168.165"/>
<polygon fill="midnightblue" stroke="midnightblue" points="657.862,-171.674 667.977,-168.522 658.104,-164.679 657.862,-171.674"/>
</g>
<!-- Node6&#45;&gt;Node7 -->
<g id="edge6" class="edge"><title>Node6&#45;&gt;Node7</title>
<path fill="none" stroke="midnightblue" d="M632.259,-199.986C644.565,-203.519 658.318,-207.467 670.132,-210.859"/>
<polygon fill="midnightblue" stroke="midnightblue" points="669.353,-214.277 679.93,-213.672 671.285,-207.549 669.353,-214.277"/>
</g>
<!-- Node6&#45;&gt;Node8 -->
<g id="edge7" class="edge"><title>Node6&#45;&gt;Node8</title>
<path fill="none" stroke="midnightblue" d="M632.259,-183.396C640.568,-181.751 649.538,-179.975 658.124,-178.275"/>
<polygon fill="midnightblue" stroke="midnightblue" points="658.836,-181.702 667.966,-176.326 657.477,-174.835 658.836,-181.702"/>
</g>
<!-- Node12 -->
<g id="node12" class="node"><title>Node12</title>
<g id="a_node12"><a xlink:href="../../d6/d95/navtree_8js.html#ac49af616f532f2364be9f58280469d33" target="_top" xlink:title="localStorageSupported">
<polygon fill="none" stroke="black" points="384.037,-40.5 384.037,-61.835 526.058,-61.835 526.058,-40.5 384.037,-40.5"/>
<text text-anchor="middle" x="455.047" y="-49.835" font-family="Monaco" font-size="10.00">localStorageSupported</text>
</a>
</g>
</g>
<!-- Node11&#45;&gt;Node12 -->
<g id="edge14" class="edge"><title>Node11&#45;&gt;Node12</title>
<path fill="none" stroke="midnightblue" d="M339.219,-51.1675C349.624,-51.1675 361.53,-51.1675 373.646,-51.1675"/>
<polygon fill="midnightblue" stroke="midnightblue" points="373.844,-54.6676 383.844,-51.1675 373.844,-47.6676 373.844,-54.6676"/>
</g>
</g>
</svg>
