<?xml version="1.0" encoding="UTF-8" standalone="no"?>
<!DOCTYPE svg PUBLIC "-//W3C//DTD SVG 1.1//EN"
 "http://www.w3.org/Graphics/SVG/1.1/DTD/svg11.dtd">
<!-- Generated by graphviz version 2.38.0 (20140413.2041)
 -->
<!-- Title: cachedLink Pages: 1 -->
<svg width="284pt" height="70pt"
 viewBox="0.00 0.00 284.03 70.33" xmlns="http://www.w3.org/2000/svg" xmlns:xlink="http://www.w3.org/1999/xlink">
<g id="graph0" class="graph" transform="scale(1 1) rotate(0) translate(4 66.335)">
<title>cachedLink</title>
<!-- Node1 -->
<g id="node1" class="node"><title>Node1</title>
<polygon fill="#bfbfbf" stroke="black" points="0,-19.5 0,-40.835 76.0098,-40.835 76.0098,-19.5 0,-19.5"/>
<text text-anchor="middle" x="38.0049" y="-28.835" font-family="Monaco" font-size="10.00">cachedLink</text>
</g>
<!-- Node2 -->
<g id="node2" class="node"><title>Node2</title>
<g id="a_node2"><a xlink:href="../../d6/d95/navtree_8js.html#a21beb601032fff375100a907f32129a5" target="_top" xlink:title="navTo">
<polygon fill="none" stroke="black" points="112.01,-39.5 112.01,-60.835 158.015,-60.835 158.015,-39.5 112.01,-39.5"/>
<text text-anchor="middle" x="135.012" y="-48.835" font-family="Monaco" font-size="10.00">navTo</text>
</a>
</g>
</g>
<!-- Node1&#45;&gt;Node2 -->
<g id="edge1" class="edge"><title>Node1&#45;&gt;Node2</title>
<path fill="none" stroke="midnightblue" d="M86.3146,-40.1266C95.2644,-42.0107 104.223,-43.8966 111.921,-45.517"/>
<polygon fill="midnightblue" stroke="midnightblue" points="86.7882,-36.6497 76.2816,-38.0146 85.3461,-43.4996 86.7882,-36.6497"/>
</g>
<!-- Node4 -->
<g id="node4" class="node"><title>Node4</title>
<g id="a_node4"><a xlink:href="../../d6/d95/navtree_8js.html#aa7b3067e7ef0044572ba86240b1e58ce" target="_top" xlink:title="initNavTree">
<polygon fill="none" stroke="black" points="194.015,-0.5 194.015,-21.835 276.025,-21.835 276.025,-0.5 194.015,-0.5"/>
<text text-anchor="middle" x="235.02" y="-9.83496" font-family="Monaco" font-size="10.00">initNavTree</text>
</a>
</g>
</g>
<!-- Node1&#45;&gt;Node4 -->
<g id="edge5" class="edge"><title>Node1&#45;&gt;Node4</title>
<path fill="none" stroke="midnightblue" d="M86.4448,-25.5455C119.39,-22.3357 162.8,-18.1064 193.998,-15.0668"/>
<polygon fill="midnightblue" stroke="midnightblue" points="85.7582,-22.0957 76.1448,-26.549 86.4371,-29.0627 85.7582,-22.0957"/>
</g>
<!-- Node3 -->
<g id="node3" class="node"><title>Node3</title>
<g id="a_node3"><a xlink:href="../../d6/d95/navtree_8js.html#a0e6a2d65190a43246d668bba554243e5" target="_top" xlink:title="gotoNode">
<polygon fill="none" stroke="black" points="203.016,-40.5 203.016,-61.835 267.024,-61.835 267.024,-40.5 203.016,-40.5"/>
<text text-anchor="middle" x="235.02" y="-49.835" font-family="Monaco" font-size="10.00">gotoNode</text>
</a>
</g>
</g>
<!-- Node2&#45;&gt;Node3 -->
<g id="edge2" class="edge"><title>Node2&#45;&gt;Node3</title>
<path fill="none" stroke="midnightblue" d="M168.425,-44.1045C179.54,-43.7228 191.947,-43.8703 202.953,-44.5196"/>
<polygon fill="midnightblue" stroke="midnightblue" points="168.056,-40.6189 158.252,-44.6336 168.42,-47.6094 168.056,-40.6189"/>
</g>
<!-- Node2&#45;&gt;Node4 -->
<g id="edge4" class="edge"><title>Node2&#45;&gt;Node4</title>
<path fill="none" stroke="midnightblue" d="M167.549,-37.618C180.256,-32.5617 194.765,-26.788 206.98,-21.9276"/>
<polygon fill="midnightblue" stroke="midnightblue" points="166.249,-34.3684 158.252,-41.3178 168.837,-40.8724 166.249,-34.3684"/>
</g>
<!-- Node3&#45;&gt;Node2 -->
<g id="edge3" class="edge"><title>Node3&#45;&gt;Node2</title>
<path fill="none" stroke="midnightblue" d="M192.778,-57.4208C180.936,-57.5332 168.473,-57.1015 158.252,-56.1552"/>
<polygon fill="midnightblue" stroke="midnightblue" points="193.038,-60.9158 202.953,-57.1814 192.873,-53.9177 193.038,-60.9158"/>
</g>
</g>
</svg>
