<?xml version="1.0" encoding="UTF-8" standalone="no"?>
<!DOCTYPE svg PUBLIC "-//W3C//DTD SVG 1.1//EN"
 "http://www.w3.org/Graphics/SVG/1.1/DTD/svg11.dtd">
<!-- Generated by graphviz version 2.38.0 (20140413.2041)
 -->
<!-- Title: hashUrl Pages: 1 -->
<svg width="768pt" height="108pt"
 viewBox="0.00 0.00 768.07 108.33" xmlns="http://www.w3.org/2000/svg" xmlns:xlink="http://www.w3.org/1999/xlink">
<g id="graph0" class="graph" transform="scale(1 1) rotate(0) translate(4 104.335)">
<title>hashUrl</title>
<!-- Node1 -->
<g id="node1" class="node"><title>Node1</title>
<polygon fill="#bfbfbf" stroke="black" points="0,-39.5 0,-60.835 58.0068,-60.835 58.0068,-39.5 0,-39.5"/>
<text text-anchor="middle" x="29.0034" y="-48.835" font-family="Monaco" font-size="10.00">hashUrl</text>
</g>
<!-- Node2 -->
<g id="node2" class="node"><title>Node2</title>
<g id="a_node2"><a xlink:href="../../d6/d95/navtree_8js.html#a524fa9bfd80c70bf3a84696b2077eadb" target="_top" xlink:title="highlightAnchor">
<polygon fill="none" stroke="black" points="94.0068,-78.5 94.0068,-99.835 200.021,-99.835 200.021,-78.5 94.0068,-78.5"/>
<text text-anchor="middle" x="147.014" y="-87.835" font-family="Monaco" font-size="10.00">highlightAnchor</text>
</a>
</g>
</g>
<!-- Node1&#45;&gt;Node2 -->
<g id="edge1" class="edge"><title>Node1&#45;&gt;Node2</title>
<path fill="none" stroke="midnightblue" d="M67.5973,-62.8056C82.6049,-67.8508 99.7018,-73.5984 114.093,-78.4364"/>
<polygon fill="midnightblue" stroke="midnightblue" points="68.6804,-59.4773 58.0864,-59.6083 66.4498,-66.1124 68.6804,-59.4773"/>
</g>
<!-- Node7 -->
<g id="node7" class="node"><title>Node7</title>
<g id="a_node7"><a xlink:href="../../d6/d95/navtree_8js.html#aa7b3067e7ef0044572ba86240b1e58ce" target="_top" xlink:title="initNavTree">
<polygon fill="none" stroke="black" points="678.06,-39.5 678.06,-60.835 760.07,-60.835 760.07,-39.5 678.06,-39.5"/>
<text text-anchor="middle" x="719.065" y="-48.835" font-family="Monaco" font-size="10.00">initNavTree</text>
</a>
</g>
</g>
<!-- Node1&#45;&gt;Node7 -->
<g id="edge10" class="edge"><title>Node1&#45;&gt;Node7</title>
<path fill="none" stroke="midnightblue" d="M68.1357,-50.1675C119.951,-50.1675 215.493,-50.1675 297.03,-50.1675 297.03,-50.1675 297.03,-50.1675 529.051,-50.1675 580.406,-50.1675 639.61,-50.1675 677.874,-50.1675"/>
<polygon fill="midnightblue" stroke="midnightblue" points="68.068,-46.6676 58.0679,-50.1675 68.0679,-53.6676 68.068,-46.6676"/>
</g>
<!-- Node8 -->
<g id="node8" class="node"><title>Node8</title>
<g id="a_node8"><a xlink:href="../../d6/d95/navtree_8js.html#a646cb31d83b39aafec92e0e1d123563a" target="_top" xlink:title="toggleSyncButton">
<polygon fill="none" stroke="black" points="242.022,-0.5 242.022,-21.835 354.038,-21.835 354.038,-0.5 242.022,-0.5"/>
<text text-anchor="middle" x="298.03" y="-9.83496" font-family="Monaco" font-size="10.00">toggleSyncButton</text>
</a>
</g>
</g>
<!-- Node1&#45;&gt;Node8 -->
<g id="edge8" class="edge"><title>Node1&#45;&gt;Node8</title>
<path fill="none" stroke="midnightblue" d="M68.2533,-41.1937C76.7061,-39.3805 85.6369,-37.5951 94.0068,-36.1675 143.718,-27.6888 200.747,-20.9242 241.68,-16.5808"/>
<polygon fill="midnightblue" stroke="midnightblue" points="67.2627,-37.8279 58.2496,-43.3969 68.7684,-44.664 67.2627,-37.8279"/>
</g>
<!-- Node3 -->
<g id="node3" class="node"><title>Node3</title>
<g id="a_node3"><a xlink:href="../../d6/d95/navtree_8js.html#a0dbf0d5f6126afd88420745f7d3c202d" target="_top" xlink:title="selectAndHighlight">
<polygon fill="none" stroke="black" points="236.021,-78.5 236.021,-99.835 360.039,-99.835 360.039,-78.5 236.021,-78.5"/>
<text text-anchor="middle" x="298.03" y="-87.835" font-family="Monaco" font-size="10.00">selectAndHighlight</text>
</a>
</g>
</g>
<!-- Node2&#45;&gt;Node3 -->
<g id="edge2" class="edge"><title>Node2&#45;&gt;Node3</title>
<path fill="none" stroke="midnightblue" d="M210.346,-89.1675C218.831,-89.1675 227.534,-89.1675 235.996,-89.1675"/>
<polygon fill="midnightblue" stroke="midnightblue" points="210.133,-85.6676 200.133,-89.1675 210.133,-92.6676 210.133,-85.6676"/>
</g>
<!-- Node4 -->
<g id="node4" class="node"><title>Node4</title>
<g id="a_node4"><a xlink:href="../../d6/d95/navtree_8js.html#a0238ad48be94f9f5fd305ea40b8f64ab" target="_top" xlink:title="showNode">
<polygon fill="none" stroke="black" points="396.039,-78.5 396.039,-99.835 460.047,-99.835 460.047,-78.5 396.039,-78.5"/>
<text text-anchor="middle" x="428.043" y="-87.835" font-family="Monaco" font-size="10.00">showNode</text>
</a>
</g>
</g>
<!-- Node3&#45;&gt;Node4 -->
<g id="edge3" class="edge"><title>Node3&#45;&gt;Node4</title>
<path fill="none" stroke="midnightblue" d="M370.51,-89.1675C379.414,-89.1675 388.122,-89.1675 395.932,-89.1675"/>
<polygon fill="midnightblue" stroke="midnightblue" points="370.412,-85.6676 360.412,-89.1675 370.412,-92.6676 370.412,-85.6676"/>
</g>
<!-- Node5 -->
<g id="node5" class="node"><title>Node5</title>
<g id="a_node5"><a xlink:href="../../d6/d95/navtree_8js.html#a0e6a2d65190a43246d668bba554243e5" target="_top" xlink:title="gotoNode">
<polygon fill="none" stroke="black" points="496.047,-78.5 496.047,-99.835 560.055,-99.835 560.055,-78.5 496.047,-78.5"/>
<text text-anchor="middle" x="528.051" y="-87.835" font-family="Monaco" font-size="10.00">gotoNode</text>
</a>
</g>
</g>
<!-- Node4&#45;&gt;Node5 -->
<g id="edge4" class="edge"><title>Node4&#45;&gt;Node5</title>
<path fill="none" stroke="midnightblue" d="M470.282,-89.1675C478.86,-89.1675 487.764,-89.1675 495.906,-89.1675"/>
<polygon fill="midnightblue" stroke="midnightblue" points="470.053,-85.6676 460.053,-89.1675 470.053,-92.6676 470.053,-85.6676"/>
</g>
<!-- Node6 -->
<g id="node6" class="node"><title>Node6</title>
<g id="a_node6"><a xlink:href="../../d6/d95/navtree_8js.html#a21beb601032fff375100a907f32129a5" target="_top" xlink:title="navTo">
<polygon fill="none" stroke="black" points="596.055,-78.5 596.055,-99.835 642.06,-99.835 642.06,-78.5 596.055,-78.5"/>
<text text-anchor="middle" x="619.057" y="-87.835" font-family="Monaco" font-size="10.00">navTo</text>
</a>
</g>
</g>
<!-- Node5&#45;&gt;Node6 -->
<g id="edge5" class="edge"><title>Node5&#45;&gt;Node6</title>
<path fill="none" stroke="midnightblue" d="M570.409,-82.4325C579.258,-82.3479 588.275,-82.6208 596.048,-83.2512"/>
<polygon fill="midnightblue" stroke="midnightblue" points="570.087,-78.9395 560.181,-82.696 570.268,-85.9372 570.087,-78.9395"/>
</g>
<!-- Node6&#45;&gt;Node5 -->
<g id="edge6" class="edge"><title>Node6&#45;&gt;Node5</title>
<path fill="none" stroke="midnightblue" d="M585.879,-95.6819C577.505,-96.0097 568.499,-95.9954 560.181,-95.639"/>
<polygon fill="midnightblue" stroke="midnightblue" points="586.271,-99.165 596.048,-95.0838 585.86,-92.1771 586.271,-99.165"/>
</g>
<!-- Node6&#45;&gt;Node7 -->
<g id="edge7" class="edge"><title>Node6&#45;&gt;Node7</title>
<path fill="none" stroke="midnightblue" d="M651.594,-76.618C664.301,-71.5617 678.81,-65.788 691.024,-60.9276"/>
<polygon fill="midnightblue" stroke="midnightblue" points="650.294,-73.3684 642.297,-80.3178 652.882,-79.8724 650.294,-73.3684"/>
</g>
<!-- Node8&#45;&gt;Node7 -->
<g id="edge9" class="edge"><title>Node8&#45;&gt;Node7</title>
<path fill="none" stroke="midnightblue" d="M364.477,-13.8057C433.661,-17.0923 545.867,-23.8406 642.06,-36.1675 653.771,-37.6683 666.412,-39.7916 677.96,-41.9321"/>
<polygon fill="midnightblue" stroke="midnightblue" points="364.322,-10.2948 354.171,-13.3266 363.997,-17.2873 364.322,-10.2948"/>
</g>
</g>
</svg>
