<?xml version="1.0" encoding="UTF-8" standalone="no"?>
<!DOCTYPE svg PUBLIC "-//W3C//DTD SVG 1.1//EN"
 "http://www.w3.org/Graphics/SVG/1.1/DTD/svg11.dtd">
<!-- Generated by graphviz version 2.38.0 (20140413.2041)
 -->
<!-- Title: highlightAnchor Pages: 1 -->
<svg width="674pt" height="30pt"
 viewBox="0.00 0.00 674.06 30.33" xmlns="http://www.w3.org/2000/svg" xmlns:xlink="http://www.w3.org/1999/xlink">
<g id="graph0" class="graph" transform="scale(1 1) rotate(0) translate(4 26.335)">
<title>highlightAnchor</title>
<!-- Node1 -->
<g id="node1" class="node"><title>Node1</title>
<polygon fill="#bfbfbf" stroke="black" points="0,-0.5 0,-21.835 106.015,-21.835 106.015,-0.5 0,-0.5"/>
<text text-anchor="middle" x="53.0073" y="-9.83496" font-family="Monaco" font-size="10.00">highlightAnchor</text>
</g>
<!-- Node2 -->
<g id="node2" class="node"><title>Node2</title>
<g id="a_node2"><a xlink:href="../../d6/d95/navtree_8js.html#a0dbf0d5f6126afd88420745f7d3c202d" target="_top" xlink:title="selectAndHighlight">
<polygon fill="none" stroke="black" points="142.015,-0.5 142.015,-21.835 266.032,-21.835 266.032,-0.5 142.015,-0.5"/>
<text text-anchor="middle" x="204.023" y="-9.83496" font-family="Monaco" font-size="10.00">selectAndHighlight</text>
</a>
</g>
</g>
<!-- Node1&#45;&gt;Node2 -->
<g id="edge1" class="edge"><title>Node1&#45;&gt;Node2</title>
<path fill="none" stroke="midnightblue" d="M116.339,-11.1675C124.825,-11.1675 133.527,-11.1675 141.99,-11.1675"/>
<polygon fill="midnightblue" stroke="midnightblue" points="116.126,-7.66758 106.126,-11.1675 116.126,-14.6676 116.126,-7.66758"/>
</g>
<!-- Node3 -->
<g id="node3" class="node"><title>Node3</title>
<g id="a_node3"><a xlink:href="../../d6/d95/navtree_8js.html#a0238ad48be94f9f5fd305ea40b8f64ab" target="_top" xlink:title="showNode">
<polygon fill="none" stroke="black" points="302.032,-0.5 302.032,-21.835 366.04,-21.835 366.04,-0.5 302.032,-0.5"/>
<text text-anchor="middle" x="334.036" y="-9.83496" font-family="Monaco" font-size="10.00">showNode</text>
</a>
</g>
</g>
<!-- Node2&#45;&gt;Node3 -->
<g id="edge2" class="edge"><title>Node2&#45;&gt;Node3</title>
<path fill="none" stroke="midnightblue" d="M276.503,-11.1675C285.407,-11.1675 294.115,-11.1675 301.925,-11.1675"/>
<polygon fill="midnightblue" stroke="midnightblue" points="276.405,-7.66758 266.405,-11.1675 276.405,-14.6676 276.405,-7.66758"/>
</g>
<!-- Node4 -->
<g id="node4" class="node"><title>Node4</title>
<g id="a_node4"><a xlink:href="../../d6/d95/navtree_8js.html#a0e6a2d65190a43246d668bba554243e5" target="_top" xlink:title="gotoNode">
<polygon fill="none" stroke="black" points="402.04,-0.5 402.04,-21.835 466.048,-21.835 466.048,-0.5 402.04,-0.5"/>
<text text-anchor="middle" x="434.044" y="-9.83496" font-family="Monaco" font-size="10.00">gotoNode</text>
</a>
</g>
</g>
<!-- Node3&#45;&gt;Node4 -->
<g id="edge3" class="edge"><title>Node3&#45;&gt;Node4</title>
<path fill="none" stroke="midnightblue" d="M376.275,-11.1675C384.853,-11.1675 393.757,-11.1675 401.899,-11.1675"/>
<polygon fill="midnightblue" stroke="midnightblue" points="376.046,-7.66758 366.046,-11.1675 376.046,-14.6676 376.046,-7.66758"/>
</g>
<!-- Node5 -->
<g id="node5" class="node"><title>Node5</title>
<g id="a_node5"><a xlink:href="../../d6/d95/navtree_8js.html#a21beb601032fff375100a907f32129a5" target="_top" xlink:title="navTo">
<polygon fill="none" stroke="black" points="502.048,-0.5 502.048,-21.835 548.053,-21.835 548.053,-0.5 502.048,-0.5"/>
<text text-anchor="middle" x="525.05" y="-9.83496" font-family="Monaco" font-size="10.00">navTo</text>
</a>
</g>
</g>
<!-- Node4&#45;&gt;Node5 -->
<g id="edge4" class="edge"><title>Node4&#45;&gt;Node5</title>
<path fill="none" stroke="midnightblue" d="M476.402,-4.43249C485.251,-4.34791 494.268,-4.62081 502.042,-5.25118"/>
<polygon fill="midnightblue" stroke="midnightblue" points="476.081,-0.939506 466.174,-4.69598 476.261,-7.93718 476.081,-0.939506"/>
</g>
<!-- Node5&#45;&gt;Node4 -->
<g id="edge5" class="edge"><title>Node5&#45;&gt;Node4</title>
<path fill="none" stroke="midnightblue" d="M491.872,-17.6819C483.498,-18.0097 474.493,-17.9954 466.174,-17.639"/>
<polygon fill="midnightblue" stroke="midnightblue" points="492.264,-21.165 502.042,-17.0838 491.853,-14.1771 492.264,-21.165"/>
</g>
<!-- Node6 -->
<g id="node6" class="node"><title>Node6</title>
<g id="a_node6"><a xlink:href="../../d6/d95/navtree_8js.html#aa7b3067e7ef0044572ba86240b1e58ce" target="_top" xlink:title="initNavTree">
<polygon fill="none" stroke="black" points="584.053,-0.5 584.053,-21.835 666.063,-21.835 666.063,-0.5 584.053,-0.5"/>
<text text-anchor="middle" x="625.058" y="-9.83496" font-family="Monaco" font-size="10.00">initNavTree</text>
</a>
</g>
</g>
<!-- Node5&#45;&gt;Node6 -->
<g id="edge6" class="edge"><title>Node5&#45;&gt;Node6</title>
<path fill="none" stroke="midnightblue" d="M558.463,-11.1675C566.57,-11.1675 575.363,-11.1675 583.799,-11.1675"/>
<polygon fill="midnightblue" stroke="midnightblue" points="558.29,-7.66758 548.29,-11.1675 558.29,-14.6676 558.29,-7.66758"/>
</g>
</g>
</svg>
