<?xml version="1.0" encoding="UTF-8" standalone="no"?>
<!DOCTYPE svg PUBLIC "-//W3C//DTD SVG 1.1//EN"
 "http://www.w3.org/Graphics/SVG/1.1/DTD/svg11.dtd">
<!-- Generated by graphviz version 2.38.0 (20140413.2041)
 -->
<!-- Title: getScript Pages: 1 -->
<svg width="902pt" height="140pt"
 viewBox="0.00 0.00 902.08 139.87" xmlns="http://www.w3.org/2000/svg" xmlns:xlink="http://www.w3.org/1999/xlink">
<g id="graph0" class="graph" transform="scale(1 1) rotate(0) translate(4 135.872)">
<title>getScript</title>
<!-- Node1 -->
<g id="node1" class="node"><title>Node1</title>
<polygon fill="#bfbfbf" stroke="black" points="0,-27.3325 0,-48.6675 70.0088,-48.6675 70.0088,-27.3325 0,-27.3325"/>
<text text-anchor="middle" x="35.0044" y="-36.6675" font-family="Monaco" font-size="10.00">getScript</text>
</g>
<!-- Node2 -->
<g id="node2" class="node"><title>Node2</title>
<g id="a_node2"><a xlink:href="../../d6/d95/navtree_8js.html#a4eb1f166c9d93b198e1621a4c787a412" target="_top" xlink:title="expandNode">
<polygon fill="none" stroke="black" points="106.009,-66.3325 106.009,-87.6675 182.019,-87.6675 182.019,-66.3325 106.009,-66.3325"/>
<text text-anchor="middle" x="144.014" y="-75.6675" font-family="Monaco" font-size="10.00">expandNode</text>
</a>
</g>
</g>
<!-- Node1&#45;&gt;Node2 -->
<g id="edge1" class="edge"><title>Node1&#45;&gt;Node2</title>
<path fill="none" stroke="midnightblue" d="M74.9892,-52.2082C87.7335,-56.8529 101.667,-61.931 113.586,-66.275"/>
<polygon fill="midnightblue" stroke="midnightblue" points="76.1224,-48.896 65.5284,-48.7602 73.7254,-55.4729 76.1224,-48.896"/>
</g>
<!-- Node6 -->
<g id="node6" class="node"><title>Node6</title>
<g id="a_node6"><a xlink:href="../../d6/d95/navtree_8js.html#a0238ad48be94f9f5fd305ea40b8f64ab" target="_top" xlink:title="showNode">
<polygon fill="none" stroke="black" points="530.044,-56.3325 530.044,-77.6675 594.052,-77.6675 594.052,-56.3325 530.044,-56.3325"/>
<text text-anchor="middle" x="562.048" y="-65.6675" font-family="Monaco" font-size="10.00">showNode</text>
</a>
</g>
</g>
<!-- Node1&#45;&gt;Node6 -->
<g id="edge12" class="edge"><title>Node1&#45;&gt;Node6</title>
<path fill="none" stroke="midnightblue" d="M80.4093,-38C125.797,-38 198.324,-38 261.024,-38 261.024,-38 261.024,-38 372.034,-38 428.14,-38 492.542,-50.6384 529.835,-59.2285"/>
<polygon fill="midnightblue" stroke="midnightblue" points="80.3145,-34.5001 70.3144,-38 80.3144,-41.5001 80.3145,-34.5001"/>
</g>
<!-- Node8 -->
<g id="node8" class="node"><title>Node8</title>
<g id="a_node8"><a xlink:href="../../d6/d95/navtree_8js.html#a21beb601032fff375100a907f32129a5" target="_top" xlink:title="navTo">
<polygon fill="none" stroke="black" points="730.06,-37.3325 730.06,-58.6675 776.064,-58.6675 776.064,-37.3325 730.06,-37.3325"/>
<text text-anchor="middle" x="753.062" y="-46.6675" font-family="Monaco" font-size="10.00">navTo</text>
</a>
</g>
</g>
<!-- Node1&#45;&gt;Node8 -->
<g id="edge13" class="edge"><title>Node1&#45;&gt;Node8</title>
<path fill="none" stroke="midnightblue" d="M79.7542,-26.1507C124.83,-14.9993 197.303,-0 261.024,-0 261.024,-0 261.024,-0 563.048,-0 625.005,-7.10543e-15 694.97,-24.5281 729.833,-38.5167"/>
<polygon fill="midnightblue" stroke="midnightblue" points="78.8536,-22.7682 70.0127,-28.6067 80.5649,-29.5558 78.8536,-22.7682"/>
</g>
<!-- Node3 -->
<g id="node3" class="node"><title>Node3</title>
<g id="a_node3"><a xlink:href="../../d6/d95/navtree_8js.html#a4d8f406d49520a0cede2e48347a3d7aa" target="_top" xlink:title="createIndent">
<polygon fill="none" stroke="black" points="218.019,-66.3325 218.019,-87.6675 306.03,-87.6675 306.03,-66.3325 218.019,-66.3325"/>
<text text-anchor="middle" x="262.024" y="-75.6675" font-family="Monaco" font-size="10.00">createIndent</text>
</a>
</g>
</g>
<!-- Node2&#45;&gt;Node3 -->
<g id="edge2" class="edge"><title>Node2&#45;&gt;Node3</title>
<path fill="none" stroke="midnightblue" d="M192.192,-77C200.688,-77 209.506,-77 217.88,-77"/>
<polygon fill="midnightblue" stroke="midnightblue" points="192.039,-73.5001 182.039,-77 192.039,-80.5001 192.039,-73.5001"/>
</g>
<!-- Node2&#45;&gt;Node6 -->
<g id="edge11" class="edge"><title>Node2&#45;&gt;Node6</title>
<path fill="none" stroke="midnightblue" d="M169.129,-93.3084C182.822,-101.577 200.652,-110.751 218.019,-115 337.435,-144.218 376.594,-133.323 494.044,-97 510.117,-92.0292 527.429,-84.2085 540.429,-77.7984"/>
<polygon fill="midnightblue" stroke="midnightblue" points="170.696,-90.1595 160.368,-87.7999 166.971,-96.0856 170.696,-90.1595"/>
</g>
<!-- Node4 -->
<g id="node4" class="node"><title>Node4</title>
<g id="a_node4"><a xlink:href="../../d6/d95/navtree_8js.html#aa2418b16159e9502e990f97ea6ec26c8" target="_top" xlink:title="newNode">
<polygon fill="none" stroke="black" points="342.03,-66.3325 342.03,-87.6675 400.037,-87.6675 400.037,-66.3325 342.03,-66.3325"/>
<text text-anchor="middle" x="371.034" y="-75.6675" font-family="Monaco" font-size="10.00">newNode</text>
</a>
</g>
</g>
<!-- Node3&#45;&gt;Node4 -->
<g id="edge3" class="edge"><title>Node3&#45;&gt;Node4</title>
<path fill="none" stroke="midnightblue" d="M316.436,-77C325.17,-77 333.906,-77 341.716,-77"/>
<polygon fill="midnightblue" stroke="midnightblue" points="316.241,-73.5001 306.241,-77 316.241,-80.5001 316.241,-73.5001"/>
</g>
<!-- Node5 -->
<g id="node5" class="node"><title>Node5</title>
<g id="a_node5"><a xlink:href="../../d6/d95/navtree_8js.html#a256aa4fbee866e9227f78e82e9f258bb" target="_top" xlink:title="getNode">
<polygon fill="none" stroke="black" points="436.037,-66.3325 436.037,-87.6675 494.044,-87.6675 494.044,-66.3325 436.037,-66.3325"/>
<text text-anchor="middle" x="465.041" y="-75.6675" font-family="Monaco" font-size="10.00">getNode</text>
</a>
</g>
</g>
<!-- Node4&#45;&gt;Node5 -->
<g id="edge4" class="edge"><title>Node4&#45;&gt;Node5</title>
<path fill="none" stroke="midnightblue" d="M410.292,-77C418.833,-77 427.74,-77 435.791,-77"/>
<polygon fill="midnightblue" stroke="midnightblue" points="410.139,-73.5001 400.139,-77 410.139,-80.5001 410.139,-73.5001"/>
</g>
<!-- Node5&#45;&gt;Node2 -->
<g id="edge5" class="edge"><title>Node5&#45;&gt;Node2</title>
<path fill="none" stroke="midnightblue" d="M426.402,-90.833C417.849,-93.3925 408.722,-95.6746 400.037,-97 320.066,-109.204 298.194,-107.784 218.019,-97 204.343,-95.1607 189.604,-91.4656 176.975,-87.7465"/>
<polygon fill="midnightblue" stroke="midnightblue" points="427.65,-94.1088 436.119,-87.7416 425.528,-87.4383 427.65,-94.1088"/>
</g>
<!-- Node5&#45;&gt;Node6 -->
<g id="edge6" class="edge"><title>Node5&#45;&gt;Node6</title>
<path fill="none" stroke="midnightblue" d="M504.317,-72.9712C512.765,-72.082 521.619,-71.1501 529.752,-70.2941"/>
<polygon fill="midnightblue" stroke="midnightblue" points="503.867,-69.4991 494.289,-74.0267 504.6,-76.4607 503.867,-69.4991"/>
</g>
<!-- Node7 -->
<g id="node7" class="node"><title>Node7</title>
<g id="a_node7"><a xlink:href="../../d6/d95/navtree_8js.html#a0e6a2d65190a43246d668bba554243e5" target="_top" xlink:title="gotoNode">
<polygon fill="none" stroke="black" points="630.052,-37.3325 630.052,-58.6675 694.06,-58.6675 694.06,-37.3325 630.052,-37.3325"/>
<text text-anchor="middle" x="662.056" y="-46.6675" font-family="Monaco" font-size="10.00">gotoNode</text>
</a>
</g>
</g>
<!-- Node6&#45;&gt;Node7 -->
<g id="edge7" class="edge"><title>Node6&#45;&gt;Node7</title>
<path fill="none" stroke="midnightblue" d="M604.004,-59.0601C612.669,-57.3803 621.679,-55.6336 629.911,-54.0378"/>
<polygon fill="midnightblue" stroke="midnightblue" points="603.209,-55.649 594.058,-60.9883 604.542,-62.521 603.209,-55.649"/>
</g>
<!-- Node7&#45;&gt;Node8 -->
<g id="edge8" class="edge"><title>Node7&#45;&gt;Node8</title>
<path fill="none" stroke="midnightblue" d="M704.413,-41.265C713.263,-41.1804 722.279,-41.4533 730.053,-42.0837"/>
<polygon fill="midnightblue" stroke="midnightblue" points="704.092,-37.772 694.186,-41.5285 704.273,-44.7697 704.092,-37.772"/>
</g>
<!-- Node8&#45;&gt;Node7 -->
<g id="edge9" class="edge"><title>Node8&#45;&gt;Node7</title>
<path fill="none" stroke="midnightblue" d="M719.884,-54.5145C711.51,-54.8422 702.504,-54.8279 694.186,-54.4715"/>
<polygon fill="midnightblue" stroke="midnightblue" points="720.276,-57.9975 730.053,-53.9163 719.865,-51.0096 720.276,-57.9975"/>
</g>
<!-- Node9 -->
<g id="node9" class="node"><title>Node9</title>
<g id="a_node9"><a xlink:href="../../d6/d95/navtree_8js.html#aa7b3067e7ef0044572ba86240b1e58ce" target="_top" xlink:title="initNavTree">
<polygon fill="none" stroke="black" points="812.064,-37.3325 812.064,-58.6675 894.075,-58.6675 894.075,-37.3325 812.064,-37.3325"/>
<text text-anchor="middle" x="853.07" y="-46.6675" font-family="Monaco" font-size="10.00">initNavTree</text>
</a>
</g>
</g>
<!-- Node8&#45;&gt;Node9 -->
<g id="edge10" class="edge"><title>Node8&#45;&gt;Node9</title>
<path fill="none" stroke="midnightblue" d="M786.475,-48C794.581,-48 803.375,-48 811.811,-48"/>
<polygon fill="midnightblue" stroke="midnightblue" points="786.302,-44.5001 776.302,-48 786.301,-51.5001 786.302,-44.5001"/>
</g>
</g>
</svg>
