<?xml version="1.0" encoding="UTF-8" standalone="no"?>
<!DOCTYPE svg PUBLIC "-//W3C//DTD SVG 1.1//EN"
 "http://www.w3.org/Graphics/SVG/1.1/DTD/svg11.dtd">
<!-- Generated by graphviz version 2.38.0 (20140413.2041)
 -->
<!-- Title: stripPath Pages: 1 -->
<svg width="868pt" height="193pt"
 viewBox="0.00 0.00 868.08 193.17" xmlns="http://www.w3.org/2000/svg" xmlns:xlink="http://www.w3.org/1999/xlink">
<g id="graph0" class="graph" transform="scale(1 1) rotate(0) translate(4 189.167)">
<title>stripPath</title>
<!-- Node1 -->
<g id="node1" class="node"><title>Node1</title>
<polygon fill="#bfbfbf" stroke="black" points="0,-47.3325 0,-68.6675 70.0088,-68.6675 70.0088,-47.3325 0,-47.3325"/>
<text text-anchor="middle" x="35.0044" y="-56.6675" font-family="Monaco" font-size="10.00">stripPath</text>
</g>
<!-- Node2 -->
<g id="node2" class="node"><title>Node2</title>
<g id="a_node2"><a xlink:href="../../d6/d95/navtree_8js.html#aa2418b16159e9502e990f97ea6ec26c8" target="_top" xlink:title="newNode">
<polygon fill="none" stroke="black" points="106.009,-125.333 106.009,-146.667 164.016,-146.667 164.016,-125.333 106.009,-125.333"/>
<text text-anchor="middle" x="135.012" y="-134.667" font-family="Monaco" font-size="10.00">newNode</text>
</a>
</g>
</g>
<!-- Node1&#45;&gt;Node2 -->
<g id="edge1" class="edge"><title>Node1&#45;&gt;Node2</title>
<path fill="none" stroke="midnightblue" d="M57.5454,-75.1435C76.742,-90.4212 104.243,-112.308 120.5,-125.247"/>
<polygon fill="midnightblue" stroke="midnightblue" points="59.636,-72.3342 49.632,-68.8456 55.2769,-77.8113 59.636,-72.3342"/>
</g>
<!-- Node6 -->
<g id="node6" class="node"><title>Node6</title>
<g id="a_node6"><a xlink:href="../../d6/d95/navtree_8js.html#a0238ad48be94f9f5fd305ea40b8f64ab" target="_top" xlink:title="showNode">
<polygon fill="none" stroke="black" points="484.045,-67.3325 484.045,-88.6675 548.053,-88.6675 548.053,-67.3325 484.045,-67.3325"/>
<text text-anchor="middle" x="516.049" y="-76.6675" font-family="Monaco" font-size="10.00">showNode</text>
</a>
</g>
</g>
<!-- Node1&#45;&gt;Node6 -->
<g id="edge14" class="edge"><title>Node1&#45;&gt;Node6</title>
<path fill="none" stroke="midnightblue" d="M80.3357,-61.3994C88.8531,-61.9865 97.705,-62.5513 106.009,-63 247.038,-70.62 415.634,-75.4494 483.987,-77.2283"/>
<polygon fill="midnightblue" stroke="midnightblue" points="80.394,-57.8948 70.1714,-60.6784 79.8986,-64.8773 80.394,-57.8948"/>
</g>
<!-- Node9 -->
<g id="node9" class="node"><title>Node9</title>
<g id="a_node9"><a xlink:href="../../d6/d95/navtree_8js.html#aa7b3067e7ef0044572ba86240b1e58ce" target="_top" xlink:title="initNavTree">
<polygon fill="none" stroke="black" points="778.067,-18.3325 778.067,-39.6675 860.078,-39.6675 860.078,-18.3325 778.067,-18.3325"/>
<text text-anchor="middle" x="819.073" y="-27.6675" font-family="Monaco" font-size="10.00">initNavTree</text>
</a>
</g>
</g>
<!-- Node1&#45;&gt;Node9 -->
<g id="edge15" class="edge"><title>Node1&#45;&gt;Node9</title>
<path fill="none" stroke="midnightblue" d="M70.3018,-43.3925C113.824,-26.211 191.597,-6.55032e-15 261.024,-0 261.024,-0 261.024,-0 629.059,-0 680.849,-3.55271e-15 739.708,-10.7688 777.789,-19.1819"/>
<polygon fill="midnightblue" stroke="midnightblue" points="68.7451,-40.2461 60.7749,-47.2266 71.3586,-46.74 68.7451,-40.2461"/>
</g>
<!-- Node10 -->
<g id="node10" class="node"><title>Node10</title>
<g id="a_node10"><a xlink:href="../../d6/d95/navtree_8js.html#a0dbf0d5f6126afd88420745f7d3c202d" target="_top" xlink:title="selectAndHighlight">
<polygon fill="none" stroke="black" points="200.016,-28.3325 200.016,-49.6675 324.033,-49.6675 324.033,-28.3325 200.016,-28.3325"/>
<text text-anchor="middle" x="262.024" y="-37.6675" font-family="Monaco" font-size="10.00">selectAndHighlight</text>
</a>
</g>
</g>
<!-- Node1&#45;&gt;Node10 -->
<g id="edge12" class="edge"><title>Node1&#45;&gt;Node10</title>
<path fill="none" stroke="midnightblue" d="M80.3103,-54.2589C114.425,-51.3784 161.976,-47.3633 199.739,-44.1748"/>
<polygon fill="midnightblue" stroke="midnightblue" points="79.8501,-50.7853 70.1801,-55.1143 80.4391,-57.7604 79.8501,-50.7853"/>
</g>
<!-- Node3 -->
<g id="node3" class="node"><title>Node3</title>
<g id="a_node3"><a xlink:href="../../d6/d95/navtree_8js.html#a256aa4fbee866e9227f78e82e9f258bb" target="_top" xlink:title="getNode">
<polygon fill="none" stroke="black" points="233.021,-125.333 233.021,-146.667 291.028,-146.667 291.028,-125.333 233.021,-125.333"/>
<text text-anchor="middle" x="262.024" y="-134.667" font-family="Monaco" font-size="10.00">getNode</text>
</a>
</g>
</g>
<!-- Node2&#45;&gt;Node3 -->
<g id="edge2" class="edge"><title>Node2&#45;&gt;Node3</title>
<path fill="none" stroke="midnightblue" d="M174.12,-136C192.963,-136 215.314,-136 232.63,-136"/>
<polygon fill="midnightblue" stroke="midnightblue" points="174.067,-132.5 164.067,-136 174.067,-139.5 174.067,-132.5"/>
</g>
<!-- Node4 -->
<g id="node4" class="node"><title>Node4</title>
<g id="a_node4"><a xlink:href="../../d6/d95/navtree_8js.html#a4eb1f166c9d93b198e1621a4c787a412" target="_top" xlink:title="expandNode">
<polygon fill="none" stroke="black" points="360.033,-144.333 360.033,-165.667 436.043,-165.667 436.043,-144.333 360.033,-144.333"/>
<text text-anchor="middle" x="398.038" y="-153.667" font-family="Monaco" font-size="10.00">expandNode</text>
</a>
</g>
</g>
<!-- Node3&#45;&gt;Node4 -->
<g id="edge3" class="edge"><title>Node3&#45;&gt;Node4</title>
<path fill="none" stroke="midnightblue" d="M301.198,-141.412C319.588,-144.019 341.559,-147.134 359.822,-149.724"/>
<polygon fill="midnightblue" stroke="midnightblue" points="301.51,-137.921 291.118,-139.983 300.528,-144.852 301.51,-137.921"/>
</g>
<!-- Node3&#45;&gt;Node6 -->
<g id="edge11" class="edge"><title>Node3&#45;&gt;Node6</title>
<path fill="none" stroke="midnightblue" d="M301.227,-127.208C351.202,-115.707 437.819,-95.7735 483.982,-85.1496"/>
<polygon fill="midnightblue" stroke="midnightblue" points="300.405,-123.806 291.445,-129.459 301.975,-130.627 300.405,-123.806"/>
</g>
<!-- Node5 -->
<g id="node5" class="node"><title>Node5</title>
<g id="a_node5"><a xlink:href="../../d6/d95/navtree_8js.html#a4d8f406d49520a0cede2e48347a3d7aa" target="_top" xlink:title="createIndent">
<polygon fill="none" stroke="black" points="472.043,-163.333 472.043,-184.667 560.055,-184.667 560.055,-163.333 472.043,-163.333"/>
<text text-anchor="middle" x="516.049" y="-172.667" font-family="Monaco" font-size="10.00">createIndent</text>
</a>
</g>
</g>
<!-- Node4&#45;&gt;Node5 -->
<g id="edge4" class="edge"><title>Node4&#45;&gt;Node5</title>
<path fill="none" stroke="midnightblue" d="M445.936,-162.681C454.519,-164.087 463.438,-165.547 471.905,-166.934"/>
<polygon fill="midnightblue" stroke="midnightblue" points="446.498,-159.226 436.064,-161.064 445.366,-166.134 446.498,-159.226"/>
</g>
<!-- Node4&#45;&gt;Node6 -->
<g id="edge6" class="edge"><title>Node4&#45;&gt;Node6</title>
<path fill="none" stroke="midnightblue" d="M423.573,-138.715C446.186,-123.706 479.116,-101.85 498.681,-88.8638"/>
<polygon fill="midnightblue" stroke="midnightblue" points="421.565,-135.847 415.169,-144.293 425.436,-141.68 421.565,-135.847"/>
</g>
<!-- Node5&#45;&gt;Node2 -->
<g id="edge5" class="edge"><title>Node5&#45;&gt;Node2</title>
<path fill="none" stroke="midnightblue" d="M461.967,-174.764C453.303,-174.862 444.423,-174.947 436.043,-175 330.805,-175.666 302.932,-177.993 200.016,-156 188.062,-153.446 175.147,-149.622 164.07,-146"/>
<polygon fill="midnightblue" stroke="midnightblue" points="462.039,-178.264 471.996,-174.644 461.954,-171.264 462.039,-178.264"/>
</g>
<!-- Node7 -->
<g id="node7" class="node"><title>Node7</title>
<g id="a_node7"><a xlink:href="../../d6/d95/navtree_8js.html#a0e6a2d65190a43246d668bba554243e5" target="_top" xlink:title="gotoNode">
<polygon fill="none" stroke="black" points="596.055,-47.3325 596.055,-68.6675 660.062,-68.6675 660.062,-47.3325 596.055,-47.3325"/>
<text text-anchor="middle" x="628.059" y="-56.6675" font-family="Monaco" font-size="10.00">gotoNode</text>
</a>
</g>
</g>
<!-- Node6&#45;&gt;Node7 -->
<g id="edge7" class="edge"><title>Node6&#45;&gt;Node7</title>
<path fill="none" stroke="midnightblue" d="M558.386,-70.4849C570.765,-68.2344 584.13,-65.8045 595.75,-63.6919"/>
<polygon fill="midnightblue" stroke="midnightblue" points="557.492,-67.09 548.279,-72.3223 558.744,-73.9771 557.492,-67.09"/>
</g>
<!-- Node8 -->
<g id="node8" class="node"><title>Node8</title>
<g id="a_node8"><a xlink:href="../../d6/d95/navtree_8js.html#a21beb601032fff375100a907f32129a5" target="_top" xlink:title="navTo">
<polygon fill="none" stroke="black" points="696.062,-47.3325 696.062,-68.6675 742.067,-68.6675 742.067,-47.3325 696.062,-47.3325"/>
<text text-anchor="middle" x="719.065" y="-56.6675" font-family="Monaco" font-size="10.00">navTo</text>
</a>
</g>
</g>
<!-- Node7&#45;&gt;Node8 -->
<g id="edge8" class="edge"><title>Node7&#45;&gt;Node8</title>
<path fill="none" stroke="midnightblue" d="M670.416,-51.265C679.266,-51.1804 688.282,-51.4533 696.056,-52.0837"/>
<polygon fill="midnightblue" stroke="midnightblue" points="670.095,-47.772 660.189,-51.5285 670.276,-54.7697 670.095,-47.772"/>
</g>
<!-- Node8&#45;&gt;Node7 -->
<g id="edge9" class="edge"><title>Node8&#45;&gt;Node7</title>
<path fill="none" stroke="midnightblue" d="M685.887,-64.5145C677.513,-64.8422 668.507,-64.8279 660.189,-64.4715"/>
<polygon fill="midnightblue" stroke="midnightblue" points="686.279,-67.9975 696.056,-63.9163 685.868,-61.0096 686.279,-67.9975"/>
</g>
<!-- Node8&#45;&gt;Node9 -->
<g id="edge10" class="edge"><title>Node8&#45;&gt;Node9</title>
<path fill="none" stroke="midnightblue" d="M752.111,-48.5177C761.569,-45.7191 771.988,-42.6361 781.698,-39.7631"/>
<polygon fill="midnightblue" stroke="midnightblue" points="750.9,-45.2259 742.304,-51.4195 752.887,-51.9382 750.9,-45.2259"/>
</g>
<!-- Node10&#45;&gt;Node6 -->
<g id="edge13" class="edge"><title>Node10&#45;&gt;Node6</title>
<path fill="none" stroke="midnightblue" d="M334.284,-48.7755C365.544,-53.1981 402.65,-58.6303 436.043,-64 451.859,-66.5433 469.409,-69.6268 483.943,-72.2519"/>
<polygon fill="midnightblue" stroke="midnightblue" points="334.743,-45.3057 324.353,-47.3764 333.767,-52.2372 334.743,-45.3057"/>
</g>
</g>
</svg>
