<?xml version="1.0" encoding="UTF-8" standalone="no"?>
<!DOCTYPE svg PUBLIC "-//W3C//DTD SVG 1.1//EN"
 "http://www.w3.org/Graphics/SVG/1.1/DTD/svg11.dtd">
<!-- Generated by graphviz version 2.38.0 (20140413.2041)
 -->
<!-- Title: initNavTree Pages: 1 -->
<svg width="1302pt" height="1011pt"
 viewBox="0.00 0.00 1302.13 1010.86" xmlns="http://www.w3.org/2000/svg" xmlns:xlink="http://www.w3.org/1999/xlink">
<g id="graph0" class="graph" transform="scale(1 1) rotate(0) translate(4 1006.86)">
<title>initNavTree</title>
<!-- Node1 -->
<g id="node1" class="node"><title>Node1</title>
<polygon fill="#bfbfbf" stroke="black" points="0,-661.195 0,-682.53 82.0107,-682.53 82.0107,-661.195 0,-661.195"/>
<text text-anchor="middle" x="41.0054" y="-670.53" font-family="Monaco" font-size="10.00">initNavTree</text>
</g>
<!-- Node2 -->
<g id="node2" class="node"><title>Node2</title>
<g id="a_node2"><a xlink:href="../../d6/d95/navtree_8js.html#ac49af616f532f2364be9f58280469d33" target="_top" xlink:title="localStorageSupported">
<polygon fill="none" stroke="black" points="946.095,-856.195 946.095,-877.53 1088.12,-877.53 1088.12,-856.195 946.095,-856.195"/>
<text text-anchor="middle" x="1017.1" y="-865.53" font-family="Monaco" font-size="10.00">localStorageSupported</text>
</a>
</g>
</g>
<!-- Node1&#45;&gt;Node2 -->
<g id="edge1" class="edge"><title>Node1&#45;&gt;Node2</title>
<path fill="none" stroke="midnightblue" d="M41.8775,-682.747C42.0114,-722.086 47.7408,-858.541 118.011,-933.863 178.733,-998.95 217.017,-1002.86 306.032,-1002.86 306.032,-1002.86 306.032,-1002.86 722.074,-1002.86 834.09,-1002.86 949.778,-920.548 995.625,-883.997"/>
<polygon fill="midnightblue" stroke="midnightblue" points="998.034,-886.55 1003.6,-877.535 993.627,-881.111 998.034,-886.55"/>
</g>
<!-- Node3 -->
<g id="node3" class="node"><title>Node3</title>
<g id="a_node3"><a xlink:href="../../d6/d95/navtree_8js.html#aaa2d293f55e5fe3620af4f9a2836e428" target="_top" xlink:title="cachedLink">
<polygon fill="none" stroke="black" points="269.027,-681.195 269.027,-702.53 345.037,-702.53 345.037,-681.195 269.027,-681.195"/>
<text text-anchor="middle" x="307.032" y="-690.53" font-family="Monaco" font-size="10.00">cachedLink</text>
</a>
</g>
</g>
<!-- Node1&#45;&gt;Node3 -->
<g id="edge2" class="edge"><title>Node1&#45;&gt;Node3</title>
<path fill="none" stroke="midnightblue" d="M82.1053,-674.9C129.612,-678.499 208.643,-684.486 258.994,-688.3"/>
<polygon fill="midnightblue" stroke="midnightblue" points="258.737,-691.79 268.972,-689.056 259.265,-684.81 258.737,-691.79"/>
</g>
<!-- Node4 -->
<g id="node4" class="node"><title>Node4</title>
<g id="a_node4"><a xlink:href="../../d6/d95/navtree_8js.html#a6522b3f540ead0febf12ccf5fc1f04c4" target="_top" xlink:title="showSyncOff">
<polygon fill="none" stroke="black" points="266.026,-953.195 266.026,-974.53 348.037,-974.53 348.037,-953.195 266.026,-953.195"/>
<text text-anchor="middle" x="307.032" y="-962.53" font-family="Monaco" font-size="10.00">showSyncOff</text>
</a>
</g>
</g>
<!-- Node1&#45;&gt;Node4 -->
<g id="edge4" class="edge"><title>Node1&#45;&gt;Node4</title>
<path fill="none" stroke="midnightblue" d="M42.6439,-682.607C45.2819,-717.486 58.2259,-828.868 118.011,-890.863 154.726,-928.935 213.57,-947.493 255.649,-956.311"/>
<polygon fill="midnightblue" stroke="midnightblue" points="255.205,-959.791 265.694,-958.299 256.564,-952.924 255.205,-959.791"/>
</g>
<!-- Node5 -->
<g id="node5" class="node"><title>Node5</title>
<g id="a_node5"><a xlink:href="../../d6/d95/navtree_8js.html#a84095390aca39b6cb693d3fb22d32dd0" target="_top" xlink:title="showSyncOn">
<polygon fill="none" stroke="black" points="269.027,-913.195 269.027,-934.53 345.037,-934.53 345.037,-913.195 269.027,-913.195"/>
<text text-anchor="middle" x="307.032" y="-922.53" font-family="Monaco" font-size="10.00">showSyncOn</text>
</a>
</g>
</g>
<!-- Node1&#45;&gt;Node5 -->
<g id="edge5" class="edge"><title>Node1&#45;&gt;Node5</title>
<path fill="none" stroke="midnightblue" d="M43.7183,-682.567C49.0795,-712.708 68.2481,-799.257 118.011,-847.863 156.869,-885.818 217.179,-905.628 258.971,-915.378"/>
<polygon fill="midnightblue" stroke="midnightblue" points="258.388,-918.834 268.909,-917.59 259.908,-912.001 258.388,-918.834"/>
</g>
<!-- Node6 -->
<g id="node6" class="node"><title>Node6</title>
<g id="a_node6"><a xlink:href="../../d6/d95/navtree_8js.html#a646cb31d83b39aafec92e0e1d123563a" target="_top" xlink:title="toggleSyncButton">
<polygon fill="none" stroke="black" points="118.011,-817.195 118.011,-838.53 230.026,-838.53 230.026,-817.195 118.011,-817.195"/>
<text text-anchor="middle" x="174.019" y="-826.53" font-family="Monaco" font-size="10.00">toggleSyncButton</text>
</a>
</g>
</g>
<!-- Node1&#45;&gt;Node6 -->
<g id="edge6" class="edge"><title>Node1&#45;&gt;Node6</title>
<path fill="none" stroke="midnightblue" d="M51.0104,-682.585C72.9812,-708.746 129.557,-776.112 157.26,-809.099"/>
<polygon fill="midnightblue" stroke="midnightblue" points="154.839,-811.659 163.95,-817.065 160.199,-807.157 154.839,-811.659"/>
</g>
<!-- Node8 -->
<g id="node8" class="node"><title>Node8</title>
<g id="a_node8"><a xlink:href="../../d6/d95/navtree_8js.html#a70bc36adda6141a703fc7ee2b772ec63" target="_top" xlink:title="stripPath2">
<polygon fill="none" stroke="black" points="269.027,-721.195 269.027,-742.53 345.037,-742.53 345.037,-721.195 269.027,-721.195"/>
<text text-anchor="middle" x="307.032" y="-730.53" font-family="Monaco" font-size="10.00">stripPath2</text>
</a>
</g>
</g>
<!-- Node1&#45;&gt;Node8 -->
<g id="edge56" class="edge"><title>Node1&#45;&gt;Node8</title>
<path fill="none" stroke="midnightblue" d="M73.202,-682.618C86.8521,-687.088 103.119,-692.1 118.011,-695.863 165.431,-707.846 220.465,-717.949 258.689,-724.373"/>
<polygon fill="midnightblue" stroke="midnightblue" points="258.566,-727.9 269.004,-726.086 259.712,-720.995 258.566,-727.9"/>
</g>
<!-- Node9 -->
<g id="node9" class="node"><title>Node9</title>
<g id="a_node9"><a xlink:href="../../d6/d95/navtree_8js.html#a364b3f4132309fa9aae78585cf2cb772" target="_top" xlink:title="pathName">
<polygon fill="none" stroke="black" points="834.085,-472.195 834.085,-493.53 898.093,-493.53 898.093,-472.195 834.085,-472.195"/>
<text text-anchor="middle" x="866.089" y="-481.53" font-family="Monaco" font-size="10.00">pathName</text>
</a>
</g>
</g>
<!-- Node1&#45;&gt;Node9 -->
<g id="edge54" class="edge"><title>Node1&#45;&gt;Node9</title>
<path fill="none" stroke="midnightblue" d="M46.5977,-661.158C56.4596,-639.418 81.7479,-589.874 118.011,-562.863 188.577,-510.301 218.041,-500.863 306.032,-500.863 306.032,-500.863 306.032,-500.863 559.056,-500.863 653.949,-500.863 765.108,-492.132 823.846,-486.831"/>
<polygon fill="midnightblue" stroke="midnightblue" points="824.206,-490.313 833.845,-485.916 823.568,-483.342 824.206,-490.313"/>
</g>
<!-- Node10 -->
<g id="node10" class="node"><title>Node10</title>
<g id="a_node10"><a xlink:href="../../d6/d95/navtree_8js.html#a20695277530a1a04eef8d289177a5e40" target="_top" xlink:title="hashUrl">
<polygon fill="none" stroke="black" points="837.085,-643.195 837.085,-664.53 895.092,-664.53 895.092,-643.195 837.085,-643.195"/>
<text text-anchor="middle" x="866.089" y="-652.53" font-family="Monaco" font-size="10.00">hashUrl</text>
</a>
</g>
</g>
<!-- Node1&#45;&gt;Node10 -->
<g id="edge51" class="edge"><title>Node1&#45;&gt;Node10</title>
<path fill="none" stroke="midnightblue" d="M82.1983,-667.166C133.902,-661.54 226.527,-652.863 306.032,-652.863 306.032,-652.863 306.032,-652.863 559.056,-652.863 655.34,-652.863 768.664,-653.364 826.653,-653.657"/>
<polygon fill="midnightblue" stroke="midnightblue" points="826.803,-657.157 836.82,-653.709 826.838,-650.158 826.803,-657.157"/>
</g>
<!-- Node11 -->
<g id="node11" class="node"><title>Node11</title>
<g id="a_node11"><a xlink:href="../../d6/d95/navtree_8js.html#aaeb20639619e1371c030d36a7109b27b" target="_top" xlink:title="hashValue">
<polygon fill="none" stroke="black" points="982.101,-605.195 982.101,-626.53 1052.11,-626.53 1052.11,-605.195 982.101,-605.195"/>
<text text-anchor="middle" x="1017.1" y="-614.53" font-family="Monaco" font-size="10.00">hashValue</text>
</a>
</g>
</g>
<!-- Node1&#45;&gt;Node11 -->
<g id="edge55" class="edge"><title>Node1&#45;&gt;Node11</title>
<path fill="none" stroke="midnightblue" d="M71.6475,-661.142C120.027,-644.63 219.278,-614.863 306.032,-614.863 306.032,-614.863 306.032,-614.863 722.074,-614.863 810.497,-614.863 913.878,-615.321 971.491,-615.617"/>
<polygon fill="midnightblue" stroke="midnightblue" points="971.684,-619.118 981.702,-615.67 971.721,-612.118 971.684,-619.118"/>
</g>
<!-- Node13 -->
<g id="node13" class="node"><title>Node13</title>
<g id="a_node13"><a xlink:href="../../d6/d95/navtree_8js.html#a21beb601032fff375100a907f32129a5" target="_top" xlink:title="navTo">
<polygon fill="none" stroke="black" points="151.016,-182.195 151.016,-203.53 197.021,-203.53 197.021,-182.195 151.016,-182.195"/>
<text text-anchor="middle" x="174.019" y="-191.53" font-family="Monaco" font-size="10.00">navTo</text>
</a>
</g>
</g>
<!-- Node1&#45;&gt;Node13 -->
<g id="edge17" class="edge"><title>Node1&#45;&gt;Node13</title>
<path fill="none" stroke="midnightblue" d="M41.8895,-660.892C41.7832,-611.182 45.8669,-403.075 118.011,-254.863 126.277,-237.881 140.526,-222.015 152.451,-210.585"/>
<polygon fill="midnightblue" stroke="midnightblue" points="154.887,-213.099 159.865,-203.747 150.141,-207.954 154.887,-213.099"/>
</g>
<!-- Node19 -->
<g id="node19" class="node"><title>Node19</title>
<g id="a_node19"><a xlink:href="../../d6/d95/navtree_8js.html#af98a8e3534da945399ea20870c0f3e92" target="_top" xlink:title="showRoot">
<polygon fill="none" stroke="black" points="1230.12,-298.195 1230.12,-319.53 1294.13,-319.53 1294.13,-298.195 1230.12,-298.195"/>
<text text-anchor="middle" x="1262.13" y="-307.53" font-family="Monaco" font-size="10.00">showRoot</text>
</a>
</g>
</g>
<!-- Node1&#45;&gt;Node19 -->
<g id="edge52" class="edge"><title>Node1&#45;&gt;Node19</title>
<path fill="none" stroke="midnightblue" d="M54.2603,-661.021C68.5677,-648.937 93.4192,-629.678 118.011,-618.863 196.39,-584.391 220.407,-576.863 306.032,-576.863 306.032,-576.863 306.032,-576.863 1018.1,-576.863 1151.7,-576.863 1231.06,-391.863 1254.09,-329.275"/>
<polygon fill="midnightblue" stroke="midnightblue" points="1257.44,-330.295 1257.52,-319.701 1250.85,-327.934 1257.44,-330.295"/>
</g>
<!-- Node25 -->
<g id="node25" class="node"><title>Node25</title>
<g id="a_node25"><a xlink:href="../../d6/d95/navtree_8js.html#a9336c21407bb7ced644331eb7a2a6e35" target="_top" xlink:title="stripPath">
<polygon fill="none" stroke="black" points="831.084,-257.195 831.084,-278.53 901.093,-278.53 901.093,-257.195 831.084,-257.195"/>
<text text-anchor="middle" x="866.089" y="-266.53" font-family="Monaco" font-size="10.00">stripPath</text>
</a>
</g>
</g>
<!-- Node1&#45;&gt;Node25 -->
<g id="edge53" class="edge"><title>Node1&#45;&gt;Node25</title>
<path fill="none" stroke="midnightblue" d="M43.5395,-661.084C53.3174,-596.995 112.815,-268.863 306.032,-268.863 306.032,-268.863 306.032,-268.863 559.056,-268.863 652.031,-268.863 760.895,-268.396 820.482,-268.1"/>
<polygon fill="midnightblue" stroke="midnightblue" points="820.685,-271.599 830.668,-268.049 820.65,-264.599 820.685,-271.599"/>
</g>
<!-- Node3&#45;&gt;Node2 -->
<g id="edge3" class="edge"><title>Node3&#45;&gt;Node2</title>
<path fill="none" stroke="midnightblue" d="M344.911,-702.604C429.057,-726.912 641.874,-787.251 822.083,-828.863 862.894,-838.287 908.883,-847.36 945.84,-854.277"/>
<polygon fill="midnightblue" stroke="midnightblue" points="945.542,-857.781 956.013,-856.169 946.822,-850.899 945.542,-857.781"/>
</g>
<!-- Node6&#45;&gt;Node4 -->
<g id="edge7" class="edge"><title>Node6&#45;&gt;Node4</title>
<path fill="none" stroke="midnightblue" d="M181.268,-838.764C194.461,-860.995 227.16,-912.138 266.026,-943.863 267.605,-945.152 269.281,-946.387 271.017,-947.565"/>
<polygon fill="midnightblue" stroke="midnightblue" points="269.657,-950.83 280.033,-952.974 273.259,-944.828 269.657,-950.83"/>
</g>
<!-- Node6&#45;&gt;Node5 -->
<g id="edge14" class="edge"><title>Node6&#45;&gt;Node5</title>
<path fill="none" stroke="midnightblue" d="M188.632,-838.765C210.075,-855.89 250.839,-888.236 266.026,-898.863 270.17,-901.762 274.642,-904.717 279.044,-907.533"/>
<polygon fill="midnightblue" stroke="midnightblue" points="277.518,-910.707 287.85,-913.053 281.236,-904.776 277.518,-910.707"/>
</g>
<!-- Node7 -->
<g id="node7" class="node"><title>Node7</title>
<g id="a_node7"><a xlink:href="../../d6/d95/navtree_8js.html#ade730323aadb971c053136b7758c9dce" target="_top" xlink:title="storeLink">
<polygon fill="none" stroke="black" points="831.084,-798.195 831.084,-819.53 901.093,-819.53 901.093,-798.195 831.084,-798.195"/>
<text text-anchor="middle" x="866.089" y="-807.53" font-family="Monaco" font-size="10.00">storeLink</text>
</a>
</g>
</g>
<!-- Node6&#45;&gt;Node7 -->
<g id="edge8" class="edge"><title>Node6&#45;&gt;Node7</title>
<path fill="none" stroke="midnightblue" d="M230.033,-826.348C362.981,-822.688 699.671,-813.417 820.811,-810.082"/>
<polygon fill="midnightblue" stroke="midnightblue" points="820.944,-813.58 830.844,-809.806 820.751,-806.582 820.944,-813.58"/>
</g>
<!-- Node6&#45;&gt;Node8 -->
<g id="edge10" class="edge"><title>Node6&#45;&gt;Node8</title>
<path fill="none" stroke="midnightblue" d="M187.956,-817.075C205.315,-802.764 237.293,-776.968 266.026,-756.863 270.17,-753.964 274.642,-751.008 279.044,-748.193"/>
<polygon fill="midnightblue" stroke="midnightblue" points="281.236,-750.949 287.85,-742.673 277.518,-745.018 281.236,-750.949"/>
</g>
<!-- Node6&#45;&gt;Node9 -->
<g id="edge11" class="edge"><title>Node6&#45;&gt;Node9</title>
<path fill="none" stroke="midnightblue" d="M196.92,-817.071C215.252,-808.145 242.167,-795.289 266.026,-784.863 302.028,-769.13 312.945,-769.532 348.037,-751.863 491.495,-679.63 511.577,-633.015 656.064,-562.863 711.477,-535.959 728.637,-537.095 786.083,-514.863 800.409,-509.319 816.108,-503.009 829.709,-497.467"/>
<polygon fill="midnightblue" stroke="midnightblue" points="831.262,-500.613 839.194,-493.588 828.613,-494.134 831.262,-500.613"/>
</g>
<!-- Node6&#45;&gt;Node10 -->
<g id="edge12" class="edge"><title>Node6&#45;&gt;Node10</title>
<path fill="none" stroke="midnightblue" d="M218.406,-817.138C253.408,-808.472 303.906,-795.937 348.037,-784.863 527.56,-739.813 741.943,-685.253 827.316,-663.496"/>
<polygon fill="midnightblue" stroke="midnightblue" points="828.251,-666.869 837.076,-661.008 826.522,-660.086 828.251,-666.869"/>
</g>
<!-- Node12 -->
<g id="node12" class="node"><title>Node12</title>
<g id="a_node12"><a xlink:href="../../d6/d95/navtree_8js.html#abdf8e0e69c89803c1b84784a13b7fd2e" target="_top" xlink:title="deleteLink">
<polygon fill="none" stroke="black" points="384.037,-875.195 384.037,-896.53 460.047,-896.53 460.047,-875.195 384.037,-875.195"/>
<text text-anchor="middle" x="422.042" y="-884.53" font-family="Monaco" font-size="10.00">deleteLink</text>
</a>
</g>
</g>
<!-- Node6&#45;&gt;Node12 -->
<g id="edge15" class="edge"><title>Node6&#45;&gt;Node12</title>
<path fill="none" stroke="midnightblue" d="M200.502,-838.564C218.527,-845.771 243.414,-854.995 266.026,-860.863 301.705,-870.121 342.939,-876.573 373.908,-880.601"/>
<polygon fill="midnightblue" stroke="midnightblue" points="373.634,-884.094 383.993,-881.875 374.511,-877.15 373.634,-884.094"/>
</g>
<!-- Node7&#45;&gt;Node2 -->
<g id="edge9" class="edge"><title>Node7&#45;&gt;Node2</title>
<path fill="none" stroke="midnightblue" d="M894.768,-819.636C918.502,-828.874 952.896,-842.261 979.01,-852.425"/>
<polygon fill="midnightblue" stroke="midnightblue" points="977.985,-855.782 988.574,-856.147 980.524,-849.258 977.985,-855.782"/>
</g>
<!-- Node10&#45;&gt;Node11 -->
<g id="edge13" class="edge"><title>Node10&#45;&gt;Node11</title>
<path fill="none" stroke="midnightblue" d="M895.118,-646.715C916.755,-641.198 947.099,-633.46 971.985,-627.114"/>
<polygon fill="midnightblue" stroke="midnightblue" points="973.098,-630.442 981.924,-624.579 971.369,-623.659 973.098,-630.442"/>
</g>
<!-- Node12&#45;&gt;Node2 -->
<g id="edge16" class="edge"><title>Node12&#45;&gt;Node2</title>
<path fill="none" stroke="midnightblue" d="M460.141,-884.674C554.58,-881.649 805.778,-873.601 935.726,-869.438"/>
<polygon fill="midnightblue" stroke="midnightblue" points="936.129,-872.927 946.012,-869.108 935.905,-865.931 936.129,-872.927"/>
</g>
<!-- Node13&#45;&gt;Node3 -->
<g id="edge18" class="edge"><title>Node13&#45;&gt;Node3</title>
<path fill="none" stroke="midnightblue" d="M177.877,-203.749C194.475,-266.968 278.497,-586.988 300.664,-671.417"/>
<polygon fill="midnightblue" stroke="midnightblue" points="297.286,-672.336 303.211,-681.12 304.057,-670.559 297.286,-672.336"/>
</g>
<!-- Node14 -->
<g id="node14" class="node"><title>Node14</title>
<g id="a_node14"><a xlink:href="../../d6/d95/navtree_8js.html#a23b68d2deb28f9c2678f546e2d60e5ee" target="_top" xlink:title="glowEffect">
<polygon fill="none" stroke="black" points="828.084,-67.1954 828.084,-88.5304 904.094,-88.5304 904.094,-67.1954 828.084,-67.1954"/>
<text text-anchor="middle" x="866.089" y="-76.5304" font-family="Monaco" font-size="10.00">glowEffect</text>
</a>
</g>
</g>
<!-- Node13&#45;&gt;Node14 -->
<g id="edge19" class="edge"><title>Node13&#45;&gt;Node14</title>
<path fill="none" stroke="midnightblue" d="M187.364,-182.158C221.795,-153.441 322.82,-76.8629 421.042,-76.8629 421.042,-76.8629 421.042,-76.8629 559.056,-76.8629 650.528,-76.8629 757.378,-77.3152 817.552,-77.6114"/>
<polygon fill="midnightblue" stroke="midnightblue" points="817.855,-81.1128 827.873,-77.6629 817.89,-74.1129 817.855,-81.1128"/>
</g>
<!-- Node15 -->
<g id="node15" class="node"><title>Node15</title>
<g id="a_node15"><a xlink:href="../../d6/d95/navtree_8js.html#a0e6a2d65190a43246d668bba554243e5" target="_top" xlink:title="gotoNode">
<polygon fill="none" stroke="black" points="275.028,-182.195 275.028,-203.53 339.036,-203.53 339.036,-182.195 275.028,-182.195"/>
<text text-anchor="middle" x="307.032" y="-191.53" font-family="Monaco" font-size="10.00">gotoNode</text>
</a>
</g>
</g>
<!-- Node13&#45;&gt;Node15 -->
<g id="edge20" class="edge"><title>Node13&#45;&gt;Node15</title>
<path fill="none" stroke="midnightblue" d="M197.243,-187.646C215.646,-186.087 242.298,-185.717 264.616,-186.536"/>
<polygon fill="midnightblue" stroke="midnightblue" points="264.691,-190.043 274.843,-187.015 265.018,-183.051 264.691,-190.043"/>
</g>
<!-- Node17 -->
<g id="node17" class="node"><title>Node17</title>
<g id="a_node17"><a xlink:href="../../d6/d95/navtree_8js.html#a32f4aac18d03aee747b55dea195731ac" target="_top" xlink:title="getScript">
<polygon fill="none" stroke="black" points="1124.12,-143.195 1124.12,-164.53 1194.12,-164.53 1194.12,-143.195 1124.12,-143.195"/>
<text text-anchor="middle" x="1159.12" y="-152.53" font-family="Monaco" font-size="10.00">getScript</text>
</a>
</g>
</g>
<!-- Node13&#45;&gt;Node17 -->
<g id="edge50" class="edge"><title>Node13&#45;&gt;Node17</title>
<path fill="none" stroke="midnightblue" d="M181.515,-181.99C206.697,-141.374 302.388,-0.862886 421.042,-0.862886 421.042,-0.862886 421.042,-0.862886 867.089,-0.862886 967.428,-0.862886 1005.21,9.65316 1088.12,-46.8629 1119.57,-68.3065 1140.3,-109.04 1150.56,-133.594"/>
<polygon fill="midnightblue" stroke="midnightblue" points="1147.36,-135.028 1154.31,-143.024 1153.86,-132.438 1147.36,-135.028"/>
</g>
<!-- Node15&#45;&gt;Node13 -->
<g id="edge21" class="edge"><title>Node15&#45;&gt;Node13</title>
<path fill="none" stroke="midnightblue" d="M274.843,-198.711C254.494,-199.891 227.988,-199.913 207.404,-198.779"/>
<polygon fill="midnightblue" stroke="midnightblue" points="207.46,-195.274 197.243,-198.08 206.979,-202.258 207.46,-195.274"/>
</g>
<!-- Node16 -->
<g id="node16" class="node"><title>Node16</title>
<g id="a_node16"><a xlink:href="../../d6/d95/navtree_8js.html#a0238ad48be94f9f5fd305ea40b8f64ab" target="_top" xlink:title="showNode">
<polygon fill="none" stroke="black" points="390.038,-182.195 390.038,-203.53 454.046,-203.53 454.046,-182.195 390.038,-182.195"/>
<text text-anchor="middle" x="422.042" y="-191.53" font-family="Monaco" font-size="10.00">showNode</text>
</a>
</g>
</g>
<!-- Node15&#45;&gt;Node16 -->
<g id="edge22" class="edge"><title>Node15&#45;&gt;Node16</title>
<path fill="none" stroke="midnightblue" d="M339.211,-192.863C351.687,-192.863 366.239,-192.863 379.584,-192.863"/>
<polygon fill="midnightblue" stroke="midnightblue" points="379.964,-196.363 389.964,-192.863 379.964,-189.363 379.964,-196.363"/>
</g>
<!-- Node16&#45;&gt;Node17 -->
<g id="edge23" class="edge"><title>Node16&#45;&gt;Node17</title>
<path fill="none" stroke="midnightblue" d="M434.106,-182.034C471.143,-146.98 595.477,-38.8629 720.074,-38.8629 720.074,-38.8629 720.074,-38.8629 867.089,-38.8629 972.994,-38.8629 1086.36,-105.544 1134.42,-137.355"/>
<polygon fill="midnightblue" stroke="midnightblue" points="1132.63,-140.367 1142.88,-143.044 1136.53,-134.559 1132.63,-140.367"/>
</g>
<!-- Node20 -->
<g id="node20" class="node"><title>Node20</title>
<g id="a_node20"><a xlink:href="../../d6/d95/navtree_8js.html#a256aa4fbee866e9227f78e82e9f258bb" target="_top" xlink:title="getNode">
<polygon fill="none" stroke="black" points="529.052,-143.195 529.052,-164.53 587.059,-164.53 587.059,-143.195 529.052,-143.195"/>
<text text-anchor="middle" x="558.056" y="-152.53" font-family="Monaco" font-size="10.00">getNode</text>
</a>
</g>
</g>
<!-- Node16&#45;&gt;Node20 -->
<g id="edge26" class="edge"><title>Node16&#45;&gt;Node20</title>
<path fill="none" stroke="midnightblue" d="M454.124,-183.817C473.527,-178.171 498.636,-170.864 519.197,-164.88"/>
<polygon fill="midnightblue" stroke="midnightblue" points="520.257,-168.217 528.88,-162.062 518.301,-161.496 520.257,-168.217"/>
</g>
<!-- Node24 -->
<g id="node24" class="node"><title>Node24</title>
<g id="a_node24"><a xlink:href="../../d6/d95/navtree_8js.html#a4eb1f166c9d93b198e1621a4c787a412" target="_top" xlink:title="expandNode">
<polygon fill="none" stroke="black" points="979.1,-182.195 979.1,-203.53 1055.11,-203.53 1055.11,-182.195 979.1,-182.195"/>
<text text-anchor="middle" x="1017.1" y="-191.53" font-family="Monaco" font-size="10.00">expandNode</text>
</a>
</g>
</g>
<!-- Node16&#45;&gt;Node24 -->
<g id="edge40" class="edge"><title>Node16&#45;&gt;Node24</title>
<path fill="none" stroke="midnightblue" d="M454.093,-192.863C551.607,-192.863 852.17,-192.863 968.987,-192.863"/>
<polygon fill="midnightblue" stroke="midnightblue" points="969.051,-196.363 979.051,-192.863 969.051,-189.363 969.051,-196.363"/>
</g>
<!-- Node16&#45;&gt;Node25 -->
<g id="edge39" class="edge"><title>Node16&#45;&gt;Node25</title>
<path fill="none" stroke="midnightblue" d="M454.272,-199.034C467.189,-201.539 482.326,-204.414 496.047,-206.863 511.952,-209.702 726.21,-245.001 820.77,-260.568"/>
<polygon fill="midnightblue" stroke="midnightblue" points="820.447,-264.062 830.883,-262.233 821.584,-257.155 820.447,-264.062"/>
</g>
<!-- Node27 -->
<g id="node27" class="node"><title>Node27</title>
<g id="a_node27"><a xlink:href="../../d6/d95/navtree_8js.html#a0dbf0d5f6126afd88420745f7d3c202d" target="_top" xlink:title="selectAndHighlight">
<polygon fill="none" stroke="black" points="496.047,-335.195 496.047,-356.53 620.064,-356.53 620.064,-335.195 496.047,-335.195"/>
<text text-anchor="middle" x="558.056" y="-344.53" font-family="Monaco" font-size="10.00">selectAndHighlight</text>
</a>
</g>
</g>
<!-- Node16&#45;&gt;Node27 -->
<g id="edge41" class="edge"><title>Node16&#45;&gt;Node27</title>
<path fill="none" stroke="midnightblue" d="M432.68,-203.866C455.378,-229.78 512.408,-294.89 540.664,-327.149"/>
<polygon fill="midnightblue" stroke="midnightblue" points="538.283,-329.743 547.505,-334.959 543.549,-325.131 538.283,-329.743"/>
</g>
<!-- Node18 -->
<g id="node18" class="node"><title>Node18</title>
<g id="a_node18"><a xlink:href="../../de/d5f/svgpan_8js.html#aa8d9f2083cafa2af98efafed94901079" target="_top" xlink:title="show">
<polygon fill="none" stroke="black" points="1242.13,-181.195 1242.13,-202.53 1282.13,-202.53 1282.13,-181.195 1242.13,-181.195"/>
<text text-anchor="middle" x="1262.13" y="-190.53" font-family="Monaco" font-size="10.00">show</text>
</a>
</g>
</g>
<!-- Node17&#45;&gt;Node18 -->
<g id="edge24" class="edge"><title>Node17&#45;&gt;Node18</title>
<path fill="none" stroke="midnightblue" d="M1188.52,-164.549C1202.24,-169.707 1218.65,-175.883 1232.41,-181.057"/>
<polygon fill="midnightblue" stroke="midnightblue" points="1231.28,-184.373 1241.87,-184.618 1233.74,-177.821 1231.28,-184.373"/>
</g>
<!-- Node17&#45;&gt;Node19 -->
<g id="edge25" class="edge"><title>Node17&#45;&gt;Node19</title>
<path fill="none" stroke="midnightblue" d="M1167.38,-165.01C1184.35,-191.039 1226.75,-256.104 1248.23,-289.063"/>
<polygon fill="midnightblue" stroke="midnightblue" points="1245.54,-291.35 1253.93,-297.817 1251.4,-287.528 1245.54,-291.35"/>
</g>
<!-- Node21 -->
<g id="node21" class="node"><title>Node21</title>
<g id="a_node21"><a xlink:href="../../d6/d95/navtree_8js.html#aa78016020f40c28356aefd325cd4df74" target="_top" xlink:title="removeToInsertLater">
<polygon fill="none" stroke="black" points="656.064,-143.195 656.064,-164.53 786.083,-164.53 786.083,-143.195 656.064,-143.195"/>
<text text-anchor="middle" x="721.074" y="-152.53" font-family="Monaco" font-size="10.00">removeToInsertLater</text>
</a>
</g>
</g>
<!-- Node20&#45;&gt;Node21 -->
<g id="edge27" class="edge"><title>Node20&#45;&gt;Node21</title>
<path fill="none" stroke="midnightblue" d="M587.103,-153.863C603.441,-153.863 624.885,-153.863 645.769,-153.863"/>
<polygon fill="midnightblue" stroke="midnightblue" points="645.951,-157.363 655.951,-153.863 645.951,-150.363 645.951,-157.363"/>
</g>
<!-- Node22 -->
<g id="node22" class="node"><title>Node22</title>
<g id="a_node22"><a xlink:href="../../d6/d95/navtree_8js.html#aa2418b16159e9502e990f97ea6ec26c8" target="_top" xlink:title="newNode">
<polygon fill="none" stroke="black" points="692.07,-375.195 692.07,-396.53 750.077,-396.53 750.077,-375.195 692.07,-375.195"/>
<text text-anchor="middle" x="721.074" y="-384.53" font-family="Monaco" font-size="10.00">newNode</text>
</a>
</g>
</g>
<!-- Node20&#45;&gt;Node22 -->
<g id="edge28" class="edge"><title>Node20&#45;&gt;Node22</title>
<path fill="none" stroke="midnightblue" d="M560.872,-164.973C567.176,-199.954 591.376,-308.869 656.064,-365.863 663.456,-372.375 672.953,-376.767 682.357,-379.729"/>
<polygon fill="midnightblue" stroke="midnightblue" points="681.466,-383.114 692.031,-382.328 683.282,-376.353 681.466,-383.114"/>
</g>
<!-- Node22&#45;&gt;Node7 -->
<g id="edge37" class="edge"><title>Node22&#45;&gt;Node7</title>
<path fill="none" stroke="midnightblue" d="M725.753,-396.744C744.838,-453.194 832.666,-712.966 858.143,-788.32"/>
<polygon fill="midnightblue" stroke="midnightblue" points="854.916,-789.701 861.434,-798.054 861.547,-787.459 854.916,-789.701"/>
</g>
<!-- Node22&#45;&gt;Node9 -->
<g id="edge36" class="edge"><title>Node22&#45;&gt;Node9</title>
<path fill="none" stroke="midnightblue" d="M737.925,-396.614C762.839,-413.512 811.339,-446.407 840.712,-466.329"/>
<polygon fill="midnightblue" stroke="midnightblue" points="838.926,-469.347 849.166,-472.063 842.855,-463.554 838.926,-469.347"/>
</g>
<!-- Node23 -->
<g id="node23" class="node"><title>Node23</title>
<g id="a_node23"><a xlink:href="../../d6/d95/navtree_8js.html#a4d8f406d49520a0cede2e48347a3d7aa" target="_top" xlink:title="createIndent">
<polygon fill="none" stroke="black" points="822.083,-375.195 822.083,-396.53 910.095,-396.53 910.095,-375.195 822.083,-375.195"/>
<text text-anchor="middle" x="866.089" y="-384.53" font-family="Monaco" font-size="10.00">createIndent</text>
</a>
</g>
</g>
<!-- Node22&#45;&gt;Node23 -->
<g id="edge29" class="edge"><title>Node22&#45;&gt;Node23</title>
<path fill="none" stroke="midnightblue" d="M750.329,-385.863C767.888,-385.863 791.021,-385.863 811.914,-385.863"/>
<polygon fill="midnightblue" stroke="midnightblue" points="811.957,-389.363 821.957,-385.863 811.957,-382.363 811.957,-389.363"/>
</g>
<!-- Node22&#45;&gt;Node25 -->
<g id="edge35" class="edge"><title>Node22&#45;&gt;Node25</title>
<path fill="none" stroke="midnightblue" d="M750.134,-380.88C761.946,-377.86 775.399,-373.134 786.083,-365.863 794.24,-360.312 830.203,-313.827 850.683,-286.921"/>
<polygon fill="midnightblue" stroke="midnightblue" points="853.715,-288.716 856.973,-278.634 848.139,-284.483 853.715,-288.716"/>
</g>
<!-- Node26 -->
<g id="node26" class="node"><title>Node26</title>
<g id="a_node26"><a xlink:href="../../d6/d95/navtree_8js.html#aee1fc3771eeb15da54962a03da1f3c11" target="_top" xlink:title="gotoAnchor">
<polygon fill="none" stroke="black" points="828.084,-335.195 828.084,-356.53 904.094,-356.53 904.094,-335.195 828.084,-335.195"/>
<text text-anchor="middle" x="866.089" y="-344.53" font-family="Monaco" font-size="10.00">gotoAnchor</text>
</a>
</g>
</g>
<!-- Node22&#45;&gt;Node26 -->
<g id="edge38" class="edge"><title>Node22&#45;&gt;Node26</title>
<path fill="none" stroke="midnightblue" d="M750.329,-377.96C769.688,-372.546 795.821,-365.237 818.259,-358.961"/>
<polygon fill="midnightblue" stroke="midnightblue" points="819.256,-362.316 827.943,-356.252 817.37,-355.575 819.256,-362.316"/>
</g>
<!-- Node23&#45;&gt;Node24 -->
<g id="edge30" class="edge"><title>Node23&#45;&gt;Node24</title>
<path fill="none" stroke="midnightblue" d="M896.29,-375.142C901.215,-372.561 906.038,-369.48 910.095,-365.863 959.655,-321.674 993.707,-248.763 1008.22,-213.386"/>
<polygon fill="midnightblue" stroke="midnightblue" points="1011.63,-214.271 1012.09,-203.686 1005.13,-211.676 1011.63,-214.271"/>
</g>
<!-- Node24&#45;&gt;Node17 -->
<g id="edge31" class="edge"><title>Node24&#45;&gt;Node17</title>
<path fill="none" stroke="midnightblue" d="M1055.26,-182.514C1073.25,-177.502 1094.99,-171.448 1113.84,-166.198"/>
<polygon fill="midnightblue" stroke="midnightblue" points="1114.98,-169.511 1123.68,-163.456 1113.11,-162.768 1114.98,-169.511"/>
</g>
<!-- Node24&#45;&gt;Node18 -->
<g id="edge34" class="edge"><title>Node24&#45;&gt;Node18</title>
<path fill="none" stroke="midnightblue" d="M1055.28,-192.71C1103.8,-192.51 1187.72,-192.165 1231.94,-191.983"/>
<polygon fill="midnightblue" stroke="midnightblue" points="1232.04,-195.483 1242.02,-191.942 1232.01,-188.483 1232.04,-195.483"/>
</g>
<!-- Node24&#45;&gt;Node19 -->
<g id="edge32" class="edge"><title>Node24&#45;&gt;Node19</title>
<path fill="none" stroke="midnightblue" d="M1040.53,-203.568C1084.03,-224.328 1179.93,-270.103 1229.73,-293.874"/>
<polygon fill="midnightblue" stroke="midnightblue" points="1228.22,-297.035 1238.75,-298.184 1231.24,-290.717 1228.22,-297.035"/>
</g>
<!-- Node24&#45;&gt;Node20 -->
<g id="edge33" class="edge"><title>Node24&#45;&gt;Node20</title>
<path fill="none" stroke="midnightblue" d="M984.593,-182.085C940.726,-167.707 858.481,-143 786.083,-133.863 728.752,-126.627 713.552,-127.999 656.064,-133.863 636.473,-135.861 614.996,-140.074 597.241,-144.121"/>
<polygon fill="midnightblue" stroke="midnightblue" points="596.194,-140.771 587.26,-146.466 597.796,-147.586 596.194,-140.771"/>
</g>
<!-- Node27&#45;&gt;Node9 -->
<g id="edge43" class="edge"><title>Node27&#45;&gt;Node9</title>
<path fill="none" stroke="midnightblue" d="M567.021,-356.78C582.054,-376.526 616.66,-418.053 656.064,-438.863 709.647,-467.161 779.985,-477.26 823.86,-480.864"/>
<polygon fill="midnightblue" stroke="midnightblue" points="823.647,-484.358 833.88,-481.612 824.168,-477.377 823.647,-484.358"/>
</g>
<!-- Node27&#45;&gt;Node19 -->
<g id="edge49" class="edge"><title>Node27&#45;&gt;Node19</title>
<path fill="none" stroke="midnightblue" d="M571.87,-356.545C589.551,-370.604 623.006,-394.824 656.064,-405.863 744.545,-435.408 771.806,-424.863 865.089,-424.863 865.089,-424.863 865.089,-424.863 1018.1,-424.863 1108.51,-424.863 1201,-358.675 1240.84,-326.292"/>
<polygon fill="midnightblue" stroke="midnightblue" points="1243.49,-328.644 1248.96,-319.568 1239.02,-323.255 1243.49,-328.644"/>
</g>
<!-- Node27&#45;&gt;Node25 -->
<g id="edge42" class="edge"><title>Node27&#45;&gt;Node25</title>
<path fill="none" stroke="midnightblue" d="M600.967,-335.181C658.688,-320.469 762.173,-294.094 821.013,-279.097"/>
<polygon fill="midnightblue" stroke="midnightblue" points="821.934,-282.474 830.759,-276.613 820.205,-275.691 821.934,-282.474"/>
</g>
<!-- Node28 -->
<g id="node28" class="node"><title>Node28</title>
<g id="a_node28"><a xlink:href="../../d6/d95/navtree_8js.html#a524fa9bfd80c70bf3a84696b2077eadb" target="_top" xlink:title="highlightAnchor">
<polygon fill="none" stroke="black" points="668.066,-335.195 668.066,-356.53 774.081,-356.53 774.081,-335.195 668.066,-335.195"/>
<text text-anchor="middle" x="721.074" y="-344.53" font-family="Monaco" font-size="10.00">highlightAnchor</text>
</a>
</g>
</g>
<!-- Node27&#45;&gt;Node28 -->
<g id="edge44" class="edge"><title>Node27&#45;&gt;Node28</title>
<path fill="none" stroke="midnightblue" d="M620.389,-345.863C632.609,-345.863 645.455,-345.863 657.71,-345.863"/>
<polygon fill="midnightblue" stroke="midnightblue" points="657.838,-349.363 667.837,-345.863 657.837,-342.363 657.838,-349.363"/>
</g>
<!-- Node28&#45;&gt;Node10 -->
<g id="edge45" class="edge"><title>Node28&#45;&gt;Node10</title>
<path fill="none" stroke="midnightblue" d="M773.781,-356.672C778.332,-359.137 782.545,-362.158 786.083,-365.863 829.567,-411.389 805.46,-442.141 822.083,-502.863 834.847,-549.487 850.565,-603.979 859.019,-633.062"/>
<polygon fill="midnightblue" stroke="midnightblue" points="855.726,-634.273 861.882,-642.896 862.447,-632.316 855.726,-634.273"/>
</g>
<!-- Node28&#45;&gt;Node11 -->
<g id="edge46" class="edge"><title>Node28&#45;&gt;Node11</title>
<path fill="none" stroke="midnightblue" d="M743.52,-335.165C780.997,-318.156 859.248,-290.312 910.095,-325.863 1000.94,-389.381 1014.19,-539.509 1015.93,-594.877"/>
<polygon fill="midnightblue" stroke="midnightblue" points="1012.44,-595.266 1016.15,-605.189 1019.44,-595.116 1012.44,-595.266"/>
</g>
<!-- Node28&#45;&gt;Node14 -->
<g id="edge47" class="edge"><title>Node28&#45;&gt;Node14</title>
<path fill="none" stroke="midnightblue" d="M727.857,-335.025C749.557,-294.362 826.322,-150.509 854.562,-97.5889"/>
<polygon fill="midnightblue" stroke="midnightblue" points="857.77,-99.0122 859.39,-88.542 851.594,-95.7166 857.77,-99.0122"/>
</g>
<!-- Node28&#45;&gt;Node26 -->
<g id="edge48" class="edge"><title>Node28&#45;&gt;Node26</title>
<path fill="none" stroke="midnightblue" d="M774.11,-345.863C788.239,-345.863 803.466,-345.863 817.345,-345.863"/>
<polygon fill="midnightblue" stroke="midnightblue" points="817.655,-349.363 827.655,-345.863 817.655,-342.363 817.655,-349.363"/>
</g>
</g>
</svg>
