<?xml version="1.0" encoding="UTF-8" standalone="no"?>
<!DOCTYPE svg PUBLIC "-//W3C//DTD SVG 1.1//EN"
 "http://www.w3.org/Graphics/SVG/1.1/DTD/svg11.dtd">
<!-- Generated by graphviz version 2.38.0 (20140413.2041)
 -->
<!-- Title: glowEffect Pages: 1 -->
<svg width="786pt" height="58pt"
 viewBox="0.00 0.00 786.07 58.17" xmlns="http://www.w3.org/2000/svg" xmlns:xlink="http://www.w3.org/1999/xlink">
<g id="graph0" class="graph" transform="scale(1 1) rotate(0) translate(4 54.1675)">
<title>glowEffect</title>
<!-- Node1 -->
<g id="node1" class="node"><title>Node1</title>
<polygon fill="#bfbfbf" stroke="black" points="0,-8.33252 0,-29.6675 76.0098,-29.6675 76.0098,-8.33252 0,-8.33252"/>
<text text-anchor="middle" x="38.0049" y="-17.6675" font-family="Monaco" font-size="10.00">glowEffect</text>
</g>
<!-- Node2 -->
<g id="node2" class="node"><title>Node2</title>
<g id="a_node2"><a xlink:href="../../d6/d95/navtree_8js.html#a524fa9bfd80c70bf3a84696b2077eadb" target="_top" xlink:title="highlightAnchor">
<polygon fill="none" stroke="black" points="112.01,-28.3325 112.01,-49.6675 218.024,-49.6675 218.024,-28.3325 112.01,-28.3325"/>
<text text-anchor="middle" x="165.017" y="-37.6675" font-family="Monaco" font-size="10.00">highlightAnchor</text>
</a>
</g>
</g>
<!-- Node1&#45;&gt;Node2 -->
<g id="edge1" class="edge"><title>Node1&#45;&gt;Node2</title>
<path fill="none" stroke="midnightblue" d="M86.1954,-26.5497C94.6078,-27.8956 103.415,-29.3046 111.954,-30.6707"/>
<polygon fill="midnightblue" stroke="midnightblue" points="86.6016,-23.0703 76.1742,-24.9465 85.4957,-29.9824 86.6016,-23.0703"/>
</g>
<!-- Node6 -->
<g id="node6" class="node"><title>Node6</title>
<g id="a_node6"><a xlink:href="../../d6/d95/navtree_8js.html#a21beb601032fff375100a907f32129a5" target="_top" xlink:title="navTo">
<polygon fill="none" stroke="black" points="614.058,-28.3325 614.058,-49.6675 660.062,-49.6675 660.062,-28.3325 614.058,-28.3325"/>
<text text-anchor="middle" x="637.06" y="-37.6675" font-family="Monaco" font-size="10.00">navTo</text>
</a>
</g>
</g>
<!-- Node1&#45;&gt;Node6 -->
<g id="edge8" class="edge"><title>Node1&#45;&gt;Node6</title>
<path fill="none" stroke="midnightblue" d="M86.5877,-13.7299C141.544,-8.10707 234.708,-6.67522e-15 315.033,-0 315.033,-0 315.033,-0 447.046,-0 505.882,-3.6027e-15 520.88,-5.12679 578.058,-19 590.169,-21.9386 603.325,-26.3686 614.041,-30.3131"/>
<polygon fill="midnightblue" stroke="midnightblue" points="86.0365,-10.2683 76.4518,-14.7833 86.7601,-17.2308 86.0365,-10.2683"/>
</g>
<!-- Node3 -->
<g id="node3" class="node"><title>Node3</title>
<g id="a_node3"><a xlink:href="../../d6/d95/navtree_8js.html#a0dbf0d5f6126afd88420745f7d3c202d" target="_top" xlink:title="selectAndHighlight">
<polygon fill="none" stroke="black" points="254.024,-28.3325 254.024,-49.6675 378.042,-49.6675 378.042,-28.3325 254.024,-28.3325"/>
<text text-anchor="middle" x="316.033" y="-37.6675" font-family="Monaco" font-size="10.00">selectAndHighlight</text>
</a>
</g>
</g>
<!-- Node2&#45;&gt;Node3 -->
<g id="edge2" class="edge"><title>Node2&#45;&gt;Node3</title>
<path fill="none" stroke="midnightblue" d="M228.348,-39C236.834,-39 245.537,-39 253.999,-39"/>
<polygon fill="midnightblue" stroke="midnightblue" points="228.136,-35.5001 218.136,-39 228.136,-42.5001 228.136,-35.5001"/>
</g>
<!-- Node4 -->
<g id="node4" class="node"><title>Node4</title>
<g id="a_node4"><a xlink:href="../../d6/d95/navtree_8js.html#a0238ad48be94f9f5fd305ea40b8f64ab" target="_top" xlink:title="showNode">
<polygon fill="none" stroke="black" points="414.042,-28.3325 414.042,-49.6675 478.05,-49.6675 478.05,-28.3325 414.042,-28.3325"/>
<text text-anchor="middle" x="446.046" y="-37.6675" font-family="Monaco" font-size="10.00">showNode</text>
</a>
</g>
</g>
<!-- Node3&#45;&gt;Node4 -->
<g id="edge3" class="edge"><title>Node3&#45;&gt;Node4</title>
<path fill="none" stroke="midnightblue" d="M388.513,-39C397.417,-39 406.125,-39 413.935,-39"/>
<polygon fill="midnightblue" stroke="midnightblue" points="388.415,-35.5001 378.415,-39 388.415,-42.5001 388.415,-35.5001"/>
</g>
<!-- Node5 -->
<g id="node5" class="node"><title>Node5</title>
<g id="a_node5"><a xlink:href="../../d6/d95/navtree_8js.html#a0e6a2d65190a43246d668bba554243e5" target="_top" xlink:title="gotoNode">
<polygon fill="none" stroke="black" points="514.05,-28.3325 514.05,-49.6675 578.058,-49.6675 578.058,-28.3325 514.05,-28.3325"/>
<text text-anchor="middle" x="546.054" y="-37.6675" font-family="Monaco" font-size="10.00">gotoNode</text>
</a>
</g>
</g>
<!-- Node4&#45;&gt;Node5 -->
<g id="edge4" class="edge"><title>Node4&#45;&gt;Node5</title>
<path fill="none" stroke="midnightblue" d="M488.285,-39C496.863,-39 505.767,-39 513.909,-39"/>
<polygon fill="midnightblue" stroke="midnightblue" points="488.056,-35.5001 478.056,-39 488.056,-42.5001 488.056,-35.5001"/>
</g>
<!-- Node5&#45;&gt;Node6 -->
<g id="edge5" class="edge"><title>Node5&#45;&gt;Node6</title>
<path fill="none" stroke="midnightblue" d="M588.411,-32.265C597.261,-32.1804 606.277,-32.4533 614.051,-33.0837"/>
<polygon fill="midnightblue" stroke="midnightblue" points="588.09,-28.772 578.184,-32.5285 588.271,-35.7697 588.09,-28.772"/>
</g>
<!-- Node6&#45;&gt;Node5 -->
<g id="edge6" class="edge"><title>Node6&#45;&gt;Node5</title>
<path fill="none" stroke="midnightblue" d="M603.882,-45.5145C595.508,-45.8422 586.502,-45.8279 578.184,-45.4715"/>
<polygon fill="midnightblue" stroke="midnightblue" points="604.274,-48.9975 614.051,-44.9163 603.863,-42.0096 604.274,-48.9975"/>
</g>
<!-- Node7 -->
<g id="node7" class="node"><title>Node7</title>
<g id="a_node7"><a xlink:href="../../d6/d95/navtree_8js.html#aa7b3067e7ef0044572ba86240b1e58ce" target="_top" xlink:title="initNavTree">
<polygon fill="none" stroke="black" points="696.062,-28.3325 696.062,-49.6675 778.073,-49.6675 778.073,-28.3325 696.062,-28.3325"/>
<text text-anchor="middle" x="737.068" y="-37.6675" font-family="Monaco" font-size="10.00">initNavTree</text>
</a>
</g>
</g>
<!-- Node6&#45;&gt;Node7 -->
<g id="edge7" class="edge"><title>Node6&#45;&gt;Node7</title>
<path fill="none" stroke="midnightblue" d="M670.473,-39C678.579,-39 687.373,-39 695.809,-39"/>
<polygon fill="midnightblue" stroke="midnightblue" points="670.3,-35.5001 660.3,-39 670.3,-42.5001 670.3,-35.5001"/>
</g>
</g>
</svg>
