<?xml version="1.0" encoding="UTF-8" standalone="no"?>
<!DOCTYPE svg PUBLIC "-//W3C//DTD SVG 1.1//EN"
 "http://www.w3.org/Graphics/SVG/1.1/DTD/svg11.dtd">
<!-- Generated by graphviz version 2.43.0 (0)
 -->
<!-- Title: WKBPointZM Pages: 1 -->
<svg width="88pt" height="215pt"
 viewBox="0.00 0.00 88.00 215.00" xmlns="http://www.w3.org/2000/svg" xmlns:xlink="http://www.w3.org/1999/xlink">
<g id="graph0" class="graph" transform="scale(1 1) rotate(0) translate(4 211)">
<title>WKBPointZM</title>
<!-- Node1 -->
<g id="node1" class="node">
<title>Node1</title>
<g id="a_node1"><a xlink:title="The WKBPointZM struct.">
<polygon fill="#bfbfbf" stroke="black" points="0,-0.5 0,-68.5 80,-68.5 80,-0.5 0,-0.5"/>
<text text-anchor="middle" x="40" y="-56.5" font-family="Monaco" font-size="10.00">WKBPointZM</text>
<polyline fill="none" stroke="black" points="0,-49.5 80,-49.5 "/>
<text text-anchor="start" x="8" y="-37.5" font-family="Monaco" font-size="10.00">+ byteOrder</text>
<text text-anchor="start" x="8" y="-26.5" font-family="Monaco" font-size="10.00">+ wkbType</text>
<polyline fill="none" stroke="black" points="0,-19.5 80,-19.5 "/>
<text text-anchor="middle" x="40" y="-7.5" font-family="Monaco" font-size="10.00"> </text>
</a>
</g>
</g>
<!-- Node2 -->
<g id="node2" class="node">
<title>Node2</title>
<g id="a_node2"><a xlink:href="../../d7/ded/struct_point_z_m.html" target="_top" xlink:title="The PointZM struct.">
<polygon fill="none" stroke="black" points="11.5,-116.5 11.5,-206.5 68.5,-206.5 68.5,-116.5 11.5,-116.5"/>
<text text-anchor="middle" x="40" y="-194.5" font-family="Monaco" font-size="10.00">PointZM</text>
<polyline fill="none" stroke="black" points="11.5,-187.5 68.5,-187.5 "/>
<text text-anchor="start" x="19.5" y="-175.5" font-family="Monaco" font-size="10.00">+ x</text>
<text text-anchor="start" x="19.5" y="-164.5" font-family="Monaco" font-size="10.00">+ y</text>
<text text-anchor="start" x="19.5" y="-153.5" font-family="Monaco" font-size="10.00">+ z</text>
<text text-anchor="start" x="19.5" y="-142.5" font-family="Monaco" font-size="10.00">+ m</text>
<polyline fill="none" stroke="black" points="11.5,-135.5 68.5,-135.5 "/>
<text text-anchor="middle" x="40" y="-123.5" font-family="Monaco" font-size="10.00"> </text>
</a>
</g>
</g>
<!-- Node2&#45;&gt;Node1 -->
<g id="edge1" class="edge">
<title>Node2&#45;&gt;Node1</title>
<path fill="none" stroke="#404040" d="M40,-116.43C40,-104.87 40,-92.38 40,-80.76"/>
<polygon fill="none" stroke="#404040" points="40,-80.57 36,-74.57 40,-68.57 44,-74.57 40,-80.57"/>
<text text-anchor="middle" x="58.5" y="-90" font-family="Monaco" font-size="10.00"> +point</text>
</g>
</g>
</svg>
