<?xml version="1.0" encoding="UTF-8" standalone="no"?>
<!DOCTYPE svg PUBLIC "-//W3C//DTD SVG 1.1//EN"
 "http://www.w3.org/Graphics/SVG/1.1/DTD/svg11.dtd">
<!-- Generated by graphviz version 2.43.0 (0)
 -->
<!-- Title: WKBGeometryM Pages: 1 -->
<!--zoomable 748 -->
<svg id="main" version="1.1" xmlns="http://www.w3.org/2000/svg" xmlns:xlink="http://www.w3.org/1999/xlink" xml:space="preserve" onload="init(evt)">
<style type="text/css"><![CDATA[
.edge:hover path { stroke: red; }
.edge:hover polygon { stroke: red; fill: red; }
]]></style>
<script type="text/javascript"><![CDATA[
var edges = document.getElementsByTagName('g');
if (edges && edges.length) {
  for (var i=0;i<edges.length;i++) {
    if (edges[i].id.substr(0,4)=='edge') {
      edges[i].setAttribute('class','edge');
    }
  }
}
]]></script>
        <defs>
                <circle id="rim" cx="0" cy="0" r="7"/>
                <circle id="rim2" cx="0" cy="0" r="3.5"/>
                <g id="zoomPlus">
                        <use xlink:href="#rim" fill="#404040">
                                <set attributeName="fill" to="#808080" begin="zoomplus.mouseover" end="zoomplus.mouseout"/>
                        </use>
                        <path d="M-4,0h8M0,-4v8" fill="none" stroke="white" stroke-width="1.5" pointer-events="none"/>
                </g>
                <g id="zoomMin">
                        <use xlink:href="#rim" fill="#404040">
                                <set attributeName="fill" to="#808080" begin="zoomminus.mouseover" end="zoomminus.mouseout"/>
                        </use>
                        <path d="M-4,0h8" fill="none" stroke="white" stroke-width="1.5" pointer-events="none"/>
                </g>
                <g id="dirArrow">
                        <path fill="none" stroke="white" stroke-width="1.5" d="M0,-3.0v7 M-2.5,-0.5L0,-3.0L2.5,-0.5"/>
                </g>
               <g id="resetDef">
                       <use xlink:href="#rim2" fill="#404040">
                               <set attributeName="fill" to="#808080" begin="reset.mouseover" end="reset.mouseout"/>
                       </use>
               </g>
        </defs>

<script type="text/javascript">
var viewWidth = 1014;
var viewHeight = 748;
var sectionId = 'dynsection-0';
</script>
<script xlink:href="../../svgpan.js"/>
<svg id="graph" class="graph">
<g id="viewport">
<title>WKBGeometryM</title>
<!-- Node1 -->
<g id="node1" class="node">
<title>Node1</title>
<g id="a_node1"><a xlink:title="The WKBGeometryM union.">
<polygon fill="#bfbfbf" stroke="black" points="456.99,-127.5 456.99,-184.5 554.99,-184.5 554.99,-127.5 456.99,-127.5"/>
<text text-anchor="middle" x="505.99" y="-172.5" font-family="Monaco" font-size="10.00">WKBGeometryM</text>
<polyline fill="none" stroke="black" points="456.99,-165.5 554.99,-165.5 "/>
<text text-anchor="middle" x="505.99" y="-153.5" font-family="Monaco" font-size="10.00"> </text>
<polyline fill="none" stroke="black" points="456.99,-146.5 554.99,-146.5 "/>
<text text-anchor="middle" x="505.99" y="-134.5" font-family="Monaco" font-size="10.00"> </text>
</a>
</g>
</g>
<!-- Node9 -->
<g id="node9" class="node">
<title>Node9</title>
<g id="a_node9"><a xlink:href="../../d8/da0/struct_w_k_b_geometry_collection_m.html" target="_top" xlink:title="The WKBGeometryCollectionM struct.">
<polygon fill="none" stroke="black" points="432.99,-0.5 432.99,-79.5 578.99,-79.5 578.99,-0.5 432.99,-0.5"/>
<text text-anchor="middle" x="505.99" y="-67.5" font-family="Monaco" font-size="10.00">WKBGeometryCollectionM</text>
<polyline fill="none" stroke="black" points="432.99,-60.5 578.99,-60.5 "/>
<text text-anchor="start" x="440.99" y="-48.5" font-family="Monaco" font-size="10.00">+ byte_order</text>
<text text-anchor="start" x="440.99" y="-37.5" font-family="Monaco" font-size="10.00">+ numGeometries</text>
<text text-anchor="start" x="440.99" y="-26.5" font-family="Monaco" font-size="10.00">+ wkbType</text>
<polyline fill="none" stroke="black" points="432.99,-19.5 578.99,-19.5 "/>
<text text-anchor="middle" x="505.99" y="-7.5" font-family="Monaco" font-size="10.00"> </text>
</a>
</g>
</g>
<!-- Node1&#45;&gt;Node9 -->
<g id="edge12" class="edge">
<title>Node1&#45;&gt;Node9</title>
<path fill="none" stroke="#404040" d="M466.07,-127.39C458.54,-118.77 454.09,-108.69 457.99,-98 458.98,-95.28 460.17,-92.61 461.51,-89.98"/>
<polygon fill="none" stroke="#404040" points="461.59,-89.83 461.24,-82.63 467.75,-79.53 468.1,-86.73 461.59,-89.83"/>
<text text-anchor="middle" x="491.49" y="-101" font-family="Monaco" font-size="10.00"> +geometries</text>
</g>
<!-- Node2 -->
<g id="node2" class="node">
<title>Node2</title>
<g id="a_node2"><a xlink:href="../../d0/d22/struct_w_k_b_multi_polygon_m.html" target="_top" xlink:title="The WKBMultiPolygonM struct.">
<polygon fill="none" stroke="black" points="88.49,-232.5 88.49,-311.5 201.49,-311.5 201.49,-232.5 88.49,-232.5"/>
<text text-anchor="middle" x="144.99" y="-299.5" font-family="Monaco" font-size="10.00">WKBMultiPolygonM</text>
<polyline fill="none" stroke="black" points="88.49,-292.5 201.49,-292.5 "/>
<text text-anchor="start" x="96.49" y="-280.5" font-family="Monaco" font-size="10.00">+ byteOrder</text>
<text text-anchor="start" x="96.49" y="-269.5" font-family="Monaco" font-size="10.00">+ numPolygons</text>
<text text-anchor="start" x="96.49" y="-258.5" font-family="Monaco" font-size="10.00">+ wkbType</text>
<polyline fill="none" stroke="black" points="88.49,-251.5 201.49,-251.5 "/>
<text text-anchor="middle" x="144.99" y="-239.5" font-family="Monaco" font-size="10.00"> </text>
</a>
</g>
</g>
<!-- Node2&#45;&gt;Node1 -->
<g id="edge1" class="edge">
<title>Node2&#45;&gt;Node1</title>
<path fill="none" stroke="#404040" d="M196.17,-232.45C212.9,-221.44 232.07,-210.44 250.99,-203 314.37,-178.1 391.95,-166.56 444.78,-161.29"/>
<polygon fill="none" stroke="#404040" points="445.04,-161.27 450.64,-156.72 456.99,-160.14 451.39,-164.69 445.04,-161.27"/>
<text text-anchor="middle" x="285.99" y="-206" font-family="Monaco" font-size="10.00"> +mpolygonm</text>
</g>
<!-- Node3 -->
<g id="node3" class="node">
<title>Node3</title>
<g id="a_node3"><a xlink:href="../../d0/d5d/struct_w_k_b_polygon_m.html" target="_top" xlink:title="The WKBPolygonM struct.">
<polygon fill="none" stroke="black" points="222.99,-428.5 222.99,-507.5 310.99,-507.5 310.99,-428.5 222.99,-428.5"/>
<text text-anchor="middle" x="266.99" y="-495.5" font-family="Monaco" font-size="10.00">WKBPolygonM</text>
<polyline fill="none" stroke="black" points="222.99,-488.5 310.99,-488.5 "/>
<text text-anchor="start" x="230.99" y="-476.5" font-family="Monaco" font-size="10.00">+ byteOrder</text>
<text text-anchor="start" x="230.99" y="-465.5" font-family="Monaco" font-size="10.00">+ numRings</text>
<text text-anchor="start" x="230.99" y="-454.5" font-family="Monaco" font-size="10.00">+ wkbType</text>
<polyline fill="none" stroke="black" points="222.99,-447.5 310.99,-447.5 "/>
<text text-anchor="middle" x="266.99" y="-435.5" font-family="Monaco" font-size="10.00"> </text>
</a>
</g>
</g>
<!-- Node3&#45;&gt;Node1 -->
<g id="edge10" class="edge">
<title>Node3&#45;&gt;Node1</title>
<path fill="none" stroke="#404040" d="M222.98,-450.17C132.7,-413.28 -58.75,-321.43 17.99,-232 72.31,-168.7 326.06,-158.3 444.64,-156.95"/>
<polygon fill="none" stroke="#404040" points="444.7,-156.95 450.67,-152.89 456.7,-156.84 450.74,-160.89 444.7,-156.95"/>
<text text-anchor="middle" x="48.49" y="-269.5" font-family="Monaco" font-size="10.00"> +polygonm</text>
</g>
<!-- Node3&#45;&gt;Node2 -->
<g id="edge2" class="edge">
<title>Node3&#45;&gt;Node2</title>
<path fill="none" stroke="#404040" d="M222.89,-429C217.15,-422.97 211.65,-416.56 206.99,-410 188.15,-383.49 172.96,-350.35 162.34,-323.3"/>
<polygon fill="none" stroke="#404040" points="162.2,-322.94 156.33,-318.76 157.92,-311.73 163.8,-315.91 162.2,-322.94"/>
<text text-anchor="middle" x="234.99" y="-367.5" font-family="Monaco" font-size="10.00"> +polygons</text>
</g>
<!-- Node12 -->
<g id="node12" class="node">
<title>Node12</title>
<g id="a_node12"><a xlink:href="../../d1/d20/struct_w_k_b_t_i_n_m.html" target="_top" xlink:title="The WKBTINM struct.">
<polygon fill="none" stroke="black" points="219.99,-232.5 219.99,-311.5 313.99,-311.5 313.99,-232.5 219.99,-232.5"/>
<text text-anchor="middle" x="266.99" y="-299.5" font-family="Monaco" font-size="10.00">WKBTINM</text>
<polyline fill="none" stroke="black" points="219.99,-292.5 313.99,-292.5 "/>
<text text-anchor="start" x="227.99" y="-280.5" font-family="Monaco" font-size="10.00">+ byteOrder</text>
<text text-anchor="start" x="227.99" y="-269.5" font-family="Monaco" font-size="10.00">+ numPolygons</text>
<text text-anchor="start" x="227.99" y="-258.5" font-family="Monaco" font-size="10.00">+ wkbType</text>
<polyline fill="none" stroke="black" points="219.99,-251.5 313.99,-251.5 "/>
<text text-anchor="middle" x="266.99" y="-239.5" font-family="Monaco" font-size="10.00"> </text>
</a>
</g>
</g>
<!-- Node3&#45;&gt;Node12 -->
<g id="edge19" class="edge">
<title>Node3&#45;&gt;Node12</title>
<path fill="none" stroke="#404040" d="M266.99,-428.21C266.99,-398.2 266.99,-356.41 266.99,-323.75"/>
<polygon fill="none" stroke="#404040" points="266.99,-323.73 262.99,-317.73 266.99,-311.73 270.99,-317.73 266.99,-323.73"/>
<text text-anchor="middle" x="294.99" y="-367.5" font-family="Monaco" font-size="10.00"> +polygons</text>
</g>
<!-- Node13 -->
<g id="node13" class="node">
<title>Node13</title>
<g id="a_node13"><a xlink:href="../../d0/d5c/struct_w_k_b_polyhedral_surface_m.html" target="_top" xlink:title="The WKBPolyhedralSurfaceM struct.">
<polygon fill="none" stroke="black" points="332.49,-232.5 332.49,-311.5 469.49,-311.5 469.49,-232.5 332.49,-232.5"/>
<text text-anchor="middle" x="400.99" y="-299.5" font-family="Monaco" font-size="10.00">WKBPolyhedralSurfaceM</text>
<polyline fill="none" stroke="black" points="332.49,-292.5 469.49,-292.5 "/>
<text text-anchor="start" x="340.49" y="-280.5" font-family="Monaco" font-size="10.00">+ byteOrder</text>
<text text-anchor="start" x="340.49" y="-269.5" font-family="Monaco" font-size="10.00">+ numPolygons</text>
<text text-anchor="start" x="340.49" y="-258.5" font-family="Monaco" font-size="10.00">+ wkbType</text>
<polyline fill="none" stroke="black" points="332.49,-251.5 469.49,-251.5 "/>
<text text-anchor="middle" x="400.99" y="-239.5" font-family="Monaco" font-size="10.00"> </text>
</a>
</g>
</g>
<!-- Node3&#45;&gt;Node13 -->
<g id="edge21" class="edge">
<title>Node3&#45;&gt;Node13</title>
<path fill="none" stroke="#404040" d="M310.99,-428.37C316.68,-422.49 322.19,-416.28 326.99,-410 347.55,-383.14 365.69,-349.81 378.86,-322.75"/>
<polygon fill="none" stroke="#404040" points="379.03,-322.4 378,-315.26 384.2,-311.57 385.22,-318.71 379.03,-322.4"/>
<text text-anchor="middle" x="402.99" y="-367.5" font-family="Monaco" font-size="10.00"> +polygons</text>
</g>
<!-- Node4 -->
<g id="node4" class="node">
<title>Node4</title>
<g id="a_node4"><a xlink:href="../../d0/d1b/struct_linear_ring_m.html" target="_top" xlink:title="The LinearRingM struct.">
<polygon fill="none" stroke="black" points="465.99,-555.5 465.99,-612.5 545.99,-612.5 545.99,-555.5 465.99,-555.5"/>
<text text-anchor="middle" x="505.99" y="-600.5" font-family="Monaco" font-size="10.00">LinearRingM</text>
<polyline fill="none" stroke="black" points="465.99,-593.5 545.99,-593.5 "/>
<text text-anchor="start" x="473.99" y="-581.5" font-family="Monaco" font-size="10.00">+ numPoints</text>
<polyline fill="none" stroke="black" points="465.99,-574.5 545.99,-574.5 "/>
<text text-anchor="middle" x="505.99" y="-562.5" font-family="Monaco" font-size="10.00"> </text>
</a>
</g>
</g>
<!-- Node4&#45;&gt;Node3 -->
<g id="edge3" class="edge">
<title>Node4&#45;&gt;Node3</title>
<path fill="none" stroke="#404040" d="M465.99,-563.92C426.63,-545.14 366.2,-516.32 322.26,-495.36"/>
<polygon fill="none" stroke="#404040" points="322.02,-495.25 314.88,-496.27 311.19,-490.08 318.33,-489.05 322.02,-495.25"/>
<text text-anchor="middle" x="425.99" y="-529" font-family="Monaco" font-size="10.00"> +rings</text>
</g>
<!-- Node6 -->
<g id="node6" class="node">
<title>Node6</title>
<g id="a_node6"><a xlink:href="../../d5/df5/struct_w_k_b_triangle_m.html" target="_top" xlink:title="The WKBTriangleM struct.">
<polygon fill="none" stroke="black" points="462.49,-330.5 462.49,-409.5 549.49,-409.5 549.49,-330.5 462.49,-330.5"/>
<text text-anchor="middle" x="505.99" y="-397.5" font-family="Monaco" font-size="10.00">WKBTriangleM</text>
<polyline fill="none" stroke="black" points="462.49,-390.5 549.49,-390.5 "/>
<text text-anchor="start" x="470.49" y="-378.5" font-family="Monaco" font-size="10.00">+ byteOrder</text>
<text text-anchor="start" x="470.49" y="-367.5" font-family="Monaco" font-size="10.00">+ numRings</text>
<text text-anchor="start" x="470.49" y="-356.5" font-family="Monaco" font-size="10.00">+ wkbType</text>
<polyline fill="none" stroke="black" points="462.49,-349.5 549.49,-349.5 "/>
<text text-anchor="middle" x="505.99" y="-337.5" font-family="Monaco" font-size="10.00"> </text>
</a>
</g>
</g>
<!-- Node4&#45;&gt;Node6 -->
<g id="edge6" class="edge">
<title>Node4&#45;&gt;Node6</title>
<path fill="none" stroke="#404040" d="M505.99,-555.28C505.99,-521.54 505.99,-463.9 505.99,-422.05"/>
<polygon fill="none" stroke="#404040" points="505.99,-421.88 501.99,-415.88 505.99,-409.88 509.99,-415.88 505.99,-421.88"/>
<text text-anchor="middle" x="523.99" y="-529" font-family="Monaco" font-size="10.00"> +rings</text>
</g>
<!-- Node5 -->
<g id="node5" class="node">
<title>Node5</title>
<g id="a_node5"><a xlink:href="../../de/d55/struct_point_m.html" target="_top" xlink:title="The PointM struct.">
<polygon fill="none" stroke="black" points="606.99,-660.5 606.99,-739.5 656.99,-739.5 656.99,-660.5 606.99,-660.5"/>
<text text-anchor="middle" x="631.99" y="-727.5" font-family="Monaco" font-size="10.00">PointM</text>
<polyline fill="none" stroke="black" points="606.99,-720.5 656.99,-720.5 "/>
<text text-anchor="start" x="614.99" y="-708.5" font-family="Monaco" font-size="10.00">+ x</text>
<text text-anchor="start" x="614.99" y="-697.5" font-family="Monaco" font-size="10.00">+ y</text>
<text text-anchor="start" x="614.99" y="-686.5" font-family="Monaco" font-size="10.00">+ m</text>
<polyline fill="none" stroke="black" points="606.99,-679.5 656.99,-679.5 "/>
<text text-anchor="middle" x="631.99" y="-667.5" font-family="Monaco" font-size="10.00"> </text>
</a>
</g>
</g>
<!-- Node5&#45;&gt;Node4 -->
<g id="edge4" class="edge">
<title>Node5&#45;&gt;Node4</title>
<path fill="none" stroke="#404040" d="M606.8,-676.2C589.24,-660.31 565.45,-638.8 545.4,-620.65"/>
<polygon fill="none" stroke="#404040" points="545.38,-620.64 538.25,-619.58 536.48,-612.59 543.62,-613.65 545.38,-620.64"/>
<text text-anchor="middle" x="589.99" y="-634" font-family="Monaco" font-size="10.00"> +points</text>
</g>
<!-- Node8 -->
<g id="node8" class="node">
<title>Node8</title>
<g id="a_node8"><a xlink:href="../../da/d8d/struct_w_k_b_point_m.html" target="_top" xlink:title="The WKBPointM struct.">
<polygon fill="none" stroke="black" points="593.49,-434 593.49,-502 670.49,-502 670.49,-434 593.49,-434"/>
<text text-anchor="middle" x="631.99" y="-490" font-family="Monaco" font-size="10.00">WKBPointM</text>
<polyline fill="none" stroke="black" points="593.49,-483 670.49,-483 "/>
<text text-anchor="start" x="601.49" y="-471" font-family="Monaco" font-size="10.00">+ byteOrder</text>
<text text-anchor="start" x="601.49" y="-460" font-family="Monaco" font-size="10.00">+ wkbType</text>
<polyline fill="none" stroke="black" points="593.49,-453 670.49,-453 "/>
<text text-anchor="middle" x="631.99" y="-441" font-family="Monaco" font-size="10.00"> </text>
</a>
</g>
</g>
<!-- Node5&#45;&gt;Node8 -->
<g id="edge9" class="edge">
<title>Node5&#45;&gt;Node8</title>
<path fill="none" stroke="#404040" d="M631.99,-660.24C631.99,-620.01 631.99,-557.13 631.99,-514.55"/>
<polygon fill="none" stroke="#404040" points="631.99,-514.3 627.99,-508.3 631.99,-502.3 635.99,-508.3 631.99,-514.3"/>
<text text-anchor="middle" x="650.49" y="-581.5" font-family="Monaco" font-size="10.00"> +point</text>
</g>
<!-- Node11 -->
<g id="node11" class="node">
<title>Node11</title>
<g id="a_node11"><a xlink:href="../../db/d52/struct_w_k_b_line_string_m.html" target="_top" xlink:title="The WKBLineStringM struct.">
<polygon fill="none" stroke="black" points="749.99,-428.5 749.99,-507.5 847.99,-507.5 847.99,-428.5 749.99,-428.5"/>
<text text-anchor="middle" x="798.99" y="-495.5" font-family="Monaco" font-size="10.00">WKBLineStringM</text>
<polyline fill="none" stroke="black" points="749.99,-488.5 847.99,-488.5 "/>
<text text-anchor="start" x="757.99" y="-476.5" font-family="Monaco" font-size="10.00">+ byteOrder</text>
<text text-anchor="start" x="757.99" y="-465.5" font-family="Monaco" font-size="10.00">+ numPoints</text>
<text text-anchor="start" x="757.99" y="-454.5" font-family="Monaco" font-size="10.00">+ wkbType</text>
<polyline fill="none" stroke="black" points="749.99,-447.5 847.99,-447.5 "/>
<text text-anchor="middle" x="798.99" y="-435.5" font-family="Monaco" font-size="10.00"> </text>
</a>
</g>
</g>
<!-- Node5&#45;&gt;Node11 -->
<g id="edge15" class="edge">
<title>Node5&#45;&gt;Node11</title>
<path fill="none" stroke="#404040" d="M656.99,-664.57C685.36,-625.5 731.82,-561.51 763.83,-517.43"/>
<polygon fill="none" stroke="#404040" points="763.98,-517.22 764.27,-510.02 771.03,-507.51 770.74,-514.72 763.98,-517.22"/>
<text text-anchor="middle" x="755.99" y="-581.5" font-family="Monaco" font-size="10.00"> +points</text>
</g>
<!-- Node6&#45;&gt;Node1 -->
<g id="edge5" class="edge">
<title>Node6&#45;&gt;Node1</title>
<path fill="none" stroke="#404040" d="M505.99,-330.12C505.99,-292.21 505.99,-234.84 505.99,-196.66"/>
<polygon fill="none" stroke="#404040" points="505.99,-196.51 501.99,-190.51 505.99,-184.51 509.99,-190.51 505.99,-196.51"/>
<text text-anchor="middle" x="535.49" y="-269.5" font-family="Monaco" font-size="10.00"> +trianglem</text>
</g>
<!-- Node7 -->
<g id="node7" class="node">
<title>Node7</title>
<g id="a_node7"><a xlink:href="../../d9/d29/struct_w_k_b_multi_point_m.html" target="_top" xlink:title="The WKBMultiPointM struct.">
<polygon fill="none" stroke="black" points="664.99,-232.5 664.99,-311.5 762.99,-311.5 762.99,-232.5 664.99,-232.5"/>
<text text-anchor="middle" x="713.99" y="-299.5" font-family="Monaco" font-size="10.00">WKBMultiPointM</text>
<polyline fill="none" stroke="black" points="664.99,-292.5 762.99,-292.5 "/>
<text text-anchor="start" x="672.99" y="-280.5" font-family="Monaco" font-size="10.00">+ byteOrder</text>
<text text-anchor="start" x="672.99" y="-269.5" font-family="Monaco" font-size="10.00">+ numPoints</text>
<text text-anchor="start" x="672.99" y="-258.5" font-family="Monaco" font-size="10.00">+ wkbType</text>
<polyline fill="none" stroke="black" points="664.99,-251.5 762.99,-251.5 "/>
<text text-anchor="middle" x="713.99" y="-239.5" font-family="Monaco" font-size="10.00"> </text>
</a>
</g>
</g>
<!-- Node7&#45;&gt;Node1 -->
<g id="edge7" class="edge">
<title>Node7&#45;&gt;Node1</title>
<path fill="none" stroke="#404040" d="M664.88,-234.37C649.34,-223.58 631.82,-212.21 614.99,-203 599.7,-194.63 582.56,-186.75 566.48,-179.96"/>
<polygon fill="none" stroke="#404040" points="566.09,-179.8 559.02,-181.21 555,-175.22 562.08,-173.81 566.09,-179.8"/>
<text text-anchor="middle" x="659.99" y="-206" font-family="Monaco" font-size="10.00"> +mpointm</text>
</g>
<!-- Node8&#45;&gt;Node1 -->
<g id="edge17" class="edge">
<title>Node8&#45;&gt;Node1</title>
<path fill="none" stroke="#404040" d="M627.75,-433.81C620.71,-386.74 603.83,-298.87 568.99,-232 562,-218.57 552.24,-205.4 542.5,-193.95"/>
<polygon fill="none" stroke="#404040" points="542.32,-193.75 535.35,-191.9 534.37,-184.76 541.34,-186.6 542.32,-193.75"/>
<text text-anchor="middle" x="623.99" y="-269.5" font-family="Monaco" font-size="10.00"> +pointm</text>
</g>
<!-- Node8&#45;&gt;Node7 -->
<g id="edge8" class="edge">
<title>Node8&#45;&gt;Node7</title>
<path fill="none" stroke="#404040" d="M646.09,-433.65C658.97,-403.19 678.18,-357.72 692.89,-322.93"/>
<polygon fill="none" stroke="#404040" points="693.02,-322.63 691.67,-315.54 697.69,-311.57 699.04,-318.66 693.02,-322.63"/>
<text text-anchor="middle" x="710.99" y="-367.5" font-family="Monaco" font-size="10.00"> +points</text>
</g>
<!-- Node9&#45;&gt;Node1 -->
<g id="edge11" class="edge">
<title>Node9&#45;&gt;Node1</title>
<path fill="none" stroke="#404040" d="M527.02,-79.83C529.93,-89.27 531.25,-99.42 528.99,-109 528.45,-111.28 527.78,-113.58 527.02,-115.86"/>
<polygon fill="none" stroke="#404040" points="526.98,-115.94 528.45,-123 522.5,-127.07 521.03,-120.01 526.98,-115.94"/>
<text text-anchor="middle" x="565.49" y="-101" font-family="Monaco" font-size="10.00"> +collectionm</text>
</g>
<!-- Node10 -->
<g id="node10" class="node">
<title>Node10</title>
<g id="a_node10"><a xlink:href="../../d0/d82/struct_w_k_b_multi_line_string_m.html" target="_top" xlink:title="The WKBMultiLineStringM struct.">
<polygon fill="none" stroke="black" points="883.99,-232.5 883.99,-311.5 1005.99,-311.5 1005.99,-232.5 883.99,-232.5"/>
<text text-anchor="middle" x="944.99" y="-299.5" font-family="Monaco" font-size="10.00">WKBMultiLineStringM</text>
<polyline fill="none" stroke="black" points="883.99,-292.5 1005.99,-292.5 "/>
<text text-anchor="start" x="891.99" y="-280.5" font-family="Monaco" font-size="10.00">+ byteOrder</text>
<text text-anchor="start" x="891.99" y="-269.5" font-family="Monaco" font-size="10.00">+ numLineStrings</text>
<text text-anchor="start" x="891.99" y="-258.5" font-family="Monaco" font-size="10.00">+ wkbType</text>
<polyline fill="none" stroke="black" points="883.99,-251.5 1005.99,-251.5 "/>
<text text-anchor="middle" x="944.99" y="-239.5" font-family="Monaco" font-size="10.00"> </text>
</a>
</g>
</g>
<!-- Node10&#45;&gt;Node1 -->
<g id="edge13" class="edge">
<title>Node10&#45;&gt;Node1</title>
<path fill="none" stroke="#404040" d="M883.71,-234.06C862.04,-222.47 837.05,-210.7 812.99,-203 730.34,-176.55 630.21,-165.18 567.29,-160.38"/>
<polygon fill="none" stroke="#404040" points="567.18,-160.37 560.91,-163.92 555.21,-159.5 561.49,-155.95 567.18,-160.37"/>
<text text-anchor="middle" x="878.49" y="-206" font-family="Monaco" font-size="10.00"> +mlinestringm</text>
</g>
<!-- Node11&#45;&gt;Node1 -->
<g id="edge16" class="edge">
<title>Node11&#45;&gt;Node1</title>
<path fill="none" stroke="#404040" d="M805.98,-428.24C812.81,-377.5 816.55,-288.39 771.99,-232 746.7,-199.99 637.65,-177.42 567.27,-165.86"/>
<polygon fill="none" stroke="#404040" points="566.89,-165.8 560.33,-168.8 555.04,-163.9 561.59,-160.9 566.89,-165.8"/>
<text text-anchor="middle" x="838.49" y="-269.5" font-family="Monaco" font-size="10.00"> +linestringm</text>
</g>
<!-- Node11&#45;&gt;Node10 -->
<g id="edge14" class="edge">
<title>Node11&#45;&gt;Node10</title>
<path fill="none" stroke="#404040" d="M828.19,-428.21C851.26,-397.54 883.61,-354.57 908.41,-321.61"/>
<polygon fill="none" stroke="#404040" points="908.63,-321.31 909.04,-314.11 915.85,-311.73 915.44,-318.92 908.63,-321.31"/>
<text text-anchor="middle" x="933.99" y="-367.5" font-family="Monaco" font-size="10.00"> +lineStrings</text>
</g>
<!-- Node12&#45;&gt;Node1 -->
<g id="edge18" class="edge">
<title>Node12&#45;&gt;Node1</title>
<path fill="none" stroke="#404040" d="M302.3,-232.29C313.76,-221.54 327.12,-210.72 340.99,-203 373.03,-185.19 412.46,-173.86 444.75,-166.91"/>
<polygon fill="none" stroke="#404040" points="444.98,-166.86 450.06,-161.74 456.74,-164.45 451.66,-169.58 444.98,-166.86"/>
<text text-anchor="middle" x="357.99" y="-206" font-family="Monaco" font-size="10.00"> +tinm</text>
</g>
<!-- Node13&#45;&gt;Node1 -->
<g id="edge20" class="edge">
<title>Node13&#45;&gt;Node1</title>
<path fill="none" stroke="#404040" d="M379.8,-232.28C377.07,-222.14 377.01,-211.63 382.99,-203 397.22,-182.49 421.78,-171.11 445.23,-164.8"/>
<polygon fill="none" stroke="#404040" points="445.29,-164.78 450.21,-159.51 456.97,-162.02 452.05,-167.29 445.29,-164.78"/>
<text text-anchor="middle" x="437.49" y="-206" font-family="Monaco" font-size="10.00"> +Polyhedralsurfacem</text>
</g>
</g>
</svg>
        <g id="navigator" transform="translate(0 0)" fill="#404254">
                <rect fill="#f2f5e9" fill-opacity="0.5" stroke="#606060" stroke-width=".5" x="0" y="0" width="60" height="60"/>
                <use id="zoomplus" xlink:href="#zoomPlus" x="17" y="9" onmousedown="handleZoom(evt,'in')"/>
                <use id="zoomminus" xlink:href="#zoomMin" x="42" y="9" onmousedown="handleZoom(evt,'out')"/>
                <use id="reset" xlink:href="#resetDef" x="30" y="36" onmousedown="handleReset()"/>
                <g id="arrowUp" xlink:href="#dirArrow" transform="translate(30 24)" onmousedown="handlePan(0,-1)">
                  <use xlink:href="#rim" fill="#404040">
                        <set attributeName="fill" to="#808080" begin="arrowUp.mouseover" end="arrowUp.mouseout"/>
                  </use>
                  <path fill="none" stroke="white" stroke-width="1.5" d="M0,-3.0v7 M-2.5,-0.5L0,-3.0L2.5,-0.5"/>
                </g>
                <g id="arrowRight" xlink:href="#dirArrow" transform="rotate(90) translate(36 -43)" onmousedown="handlePan(1,0)">
                  <use xlink:href="#rim" fill="#404040">
                        <set attributeName="fill" to="#808080" begin="arrowRight.mouseover" end="arrowRight.mouseout"/>
                  </use>
                  <path fill="none" stroke="white" stroke-width="1.5" d="M0,-3.0v7 M-2.5,-0.5L0,-3.0L2.5,-0.5"/>
                </g>
                <g id="arrowDown" xlink:href="#dirArrow" transform="rotate(180) translate(-30 -48)" onmousedown="handlePan(0,1)">
                  <use xlink:href="#rim" fill="#404040">
                        <set attributeName="fill" to="#808080" begin="arrowDown.mouseover" end="arrowDown.mouseout"/>
                  </use>
                  <path fill="none" stroke="white" stroke-width="1.5" d="M0,-3.0v7 M-2.5,-0.5L0,-3.0L2.5,-0.5"/>
                </g>
                <g id="arrowLeft" xlink:href="#dirArrow" transform="rotate(270) translate(-36 17)" onmousedown="handlePan(-1,0)">
                  <use xlink:href="#rim" fill="#404040">
                        <set attributeName="fill" to="#808080" begin="arrowLeft.mouseover" end="arrowLeft.mouseout"/>
                  </use>
                  <path fill="none" stroke="white" stroke-width="1.5" d="M0,-3.0v7 M-2.5,-0.5L0,-3.0L2.5,-0.5"/>
                </g>
        </g>
        <svg viewBox="0 0 15 15" width="100%" height="30px" preserveAspectRatio="xMaxYMin meet">
         <g id="arrow_out" transform="scale(0.3 0.3)">
          <a xlink:href="union_w_k_b_geometry_m__coll__graph_org.svg" target="_base">
           <rect id="button" ry="5" rx="5" y="6" x="6" height="38" width="38"
                fill="#f2f5e9" fill-opacity="0.5" stroke="#606060" stroke-width="1.0"/>
           <path id="arrow"
             d="M 11.500037,31.436501 C 11.940474,20.09759 22.043105,11.32322 32.158766,21.979434 L 37.068811,17.246167 C 37.068811,17.246167 37.088388,32 37.088388,32 L 22.160133,31.978069 C 22.160133,31.978069 26.997745,27.140456 26.997745,27.140456 C 18.528582,18.264221 13.291696,25.230495 11.500037,31.436501 z"
             style="fill:#404040;"/>
          </a>
         </g>
        </svg>
</svg>
